<?xml version="1.0" encoding="utf-8" standalone="no"?>
<!DOCTYPE svg PUBLIC "-//W3C//DTD SVG 1.1//EN"
  "http://www.w3.org/Graphics/SVG/1.1/DTD/svg11.dtd">
<svg height="570.462488pt" version="1.1" viewBox="0 0 860.645375 570.462488" width="860.645375pt" xmlns="http://www.w3.org/2000/svg" xmlns:xlink="http://www.w3.org/1999/xlink">
 <metadata>
  <rdf:RDF xmlns:cc="http://creativecommons.org/ns#" xmlns:dc="http://purl.org/dc/elements/1.1/" xmlns:rdf="http://www.w3.org/1999/02/22-rdf-syntax-ns#">
   <cc:Work>
    <dc:type rdf:resource="http://purl.org/dc/dcmitype/StillImage"/>
    <dc:date>2021-11-02T10:28:51.247477</dc:date>
    <dc:format>image/svg+xml</dc:format>
    <dc:creator>
     <cc:Agent>
      <dc:title>Matplotlib v3.4.3, https://matplotlib.org/</dc:title>
     </cc:Agent>
    </dc:creator>
   </cc:Work>
  </rdf:RDF>
 </metadata>
 <defs>
  <style type="text/css">*{stroke-linecap:butt;stroke-linejoin:round;}</style>
 </defs>
 <g id="figure_1">
  <g id="patch_1">
   <path d="M 0 570.462488 
L 860.645375 570.462488 
L 860.645375 0 
L 0 0 
z
" style="fill:none;"/>
  </g>
  <g id="axes_1">
   <g id="patch_2">
    <path d="M 59.096875 493.286013 
L 796.151625 493.286013 
L 796.151625 29.118125 
L 59.096875 29.118125 
z
" style="fill:none;"/>
   </g>
   <g id="matplotlib.axis_1">
    <g id="xtick_1">
     <g id="line2d_1">
      <path clip-path="url(#pb2a5308dd4)" d="M 92.599364 493.286013 
L 92.599364 29.118125 
" style="fill:none;stroke:#cccccc;stroke-linecap:round;"/>
     </g>
     <g id="line2d_2">
      <defs>
       <path d="M 0 0 
L 0 6 
" id="me1f13403d5" style="stroke:#262626;stroke-width:1.25;"/>
      </defs>
      <g>
       <use style="fill:#262626;stroke:#262626;stroke-width:1.25;" x="92.599364" xlink:href="#me1f13403d5" y="493.286013"/>
      </g>
     </g>
     <g id="text_1">
      <!-- 29.12.2020 -->
      <g style="fill:#262626;" transform="translate(46.446835 553.231121)rotate(-45)scale(0.11 -0.11)">
       <defs>
        <path d="M 1228 531 
L 3431 531 
L 3431 0 
L 469 0 
L 469 531 
Q 828 903 1448 1529 
Q 2069 2156 2228 2338 
Q 2531 2678 2651 2914 
Q 2772 3150 2772 3378 
Q 2772 3750 2511 3984 
Q 2250 4219 1831 4219 
Q 1534 4219 1204 4116 
Q 875 4013 500 3803 
L 500 4441 
Q 881 4594 1212 4672 
Q 1544 4750 1819 4750 
Q 2544 4750 2975 4387 
Q 3406 4025 3406 3419 
Q 3406 3131 3298 2873 
Q 3191 2616 2906 2266 
Q 2828 2175 2409 1742 
Q 1991 1309 1228 531 
z
" id="DejaVuSans-32" transform="scale(0.015625)"/>
        <path d="M 703 97 
L 703 672 
Q 941 559 1184 500 
Q 1428 441 1663 441 
Q 2288 441 2617 861 
Q 2947 1281 2994 2138 
Q 2813 1869 2534 1725 
Q 2256 1581 1919 1581 
Q 1219 1581 811 2004 
Q 403 2428 403 3163 
Q 403 3881 828 4315 
Q 1253 4750 1959 4750 
Q 2769 4750 3195 4129 
Q 3622 3509 3622 2328 
Q 3622 1225 3098 567 
Q 2575 -91 1691 -91 
Q 1453 -91 1209 -44 
Q 966 3 703 97 
z
M 1959 2075 
Q 2384 2075 2632 2365 
Q 2881 2656 2881 3163 
Q 2881 3666 2632 3958 
Q 2384 4250 1959 4250 
Q 1534 4250 1286 3958 
Q 1038 3666 1038 3163 
Q 1038 2656 1286 2365 
Q 1534 2075 1959 2075 
z
" id="DejaVuSans-39" transform="scale(0.015625)"/>
        <path d="M 684 794 
L 1344 794 
L 1344 0 
L 684 0 
L 684 794 
z
" id="DejaVuSans-2e" transform="scale(0.015625)"/>
        <path d="M 794 531 
L 1825 531 
L 1825 4091 
L 703 3866 
L 703 4441 
L 1819 4666 
L 2450 4666 
L 2450 531 
L 3481 531 
L 3481 0 
L 794 0 
L 794 531 
z
" id="DejaVuSans-31" transform="scale(0.015625)"/>
        <path d="M 2034 4250 
Q 1547 4250 1301 3770 
Q 1056 3291 1056 2328 
Q 1056 1369 1301 889 
Q 1547 409 2034 409 
Q 2525 409 2770 889 
Q 3016 1369 3016 2328 
Q 3016 3291 2770 3770 
Q 2525 4250 2034 4250 
z
M 2034 4750 
Q 2819 4750 3233 4129 
Q 3647 3509 3647 2328 
Q 3647 1150 3233 529 
Q 2819 -91 2034 -91 
Q 1250 -91 836 529 
Q 422 1150 422 2328 
Q 422 3509 836 4129 
Q 1250 4750 2034 4750 
z
" id="DejaVuSans-30" transform="scale(0.015625)"/>
       </defs>
       <use xlink:href="#DejaVuSans-32"/>
       <use x="63.623047" xlink:href="#DejaVuSans-39"/>
       <use x="127.246094" xlink:href="#DejaVuSans-2e"/>
       <use x="159.033203" xlink:href="#DejaVuSans-31"/>
       <use x="222.65625" xlink:href="#DejaVuSans-32"/>
       <use x="286.279297" xlink:href="#DejaVuSans-2e"/>
       <use x="318.066406" xlink:href="#DejaVuSans-32"/>
       <use x="381.689453" xlink:href="#DejaVuSans-30"/>
       <use x="445.3125" xlink:href="#DejaVuSans-32"/>
       <use x="508.935547" xlink:href="#DejaVuSans-30"/>
      </g>
     </g>
    </g>
    <g id="xtick_2">
     <g id="line2d_3">
      <path clip-path="url(#pb2a5308dd4)" d="M 123.155379 493.286013 
L 123.155379 29.118125 
" style="fill:none;stroke:#cccccc;stroke-linecap:round;"/>
     </g>
     <g id="line2d_4">
      <g>
       <use style="fill:#262626;stroke:#262626;stroke-width:1.25;" x="123.155379" xlink:href="#me1f13403d5" y="493.286013"/>
      </g>
     </g>
     <g id="text_2">
      <!-- 12.01.2021 -->
      <g style="fill:#262626;" transform="translate(77.002851 553.231121)rotate(-45)scale(0.11 -0.11)">
       <use xlink:href="#DejaVuSans-31"/>
       <use x="63.623047" xlink:href="#DejaVuSans-32"/>
       <use x="127.246094" xlink:href="#DejaVuSans-2e"/>
       <use x="159.033203" xlink:href="#DejaVuSans-30"/>
       <use x="222.65625" xlink:href="#DejaVuSans-31"/>
       <use x="286.279297" xlink:href="#DejaVuSans-2e"/>
       <use x="318.066406" xlink:href="#DejaVuSans-32"/>
       <use x="381.689453" xlink:href="#DejaVuSans-30"/>
       <use x="445.3125" xlink:href="#DejaVuSans-32"/>
       <use x="508.935547" xlink:href="#DejaVuSans-31"/>
      </g>
     </g>
    </g>
    <g id="xtick_3">
     <g id="line2d_5">
      <path clip-path="url(#pb2a5308dd4)" d="M 153.711395 493.286013 
L 153.711395 29.118125 
" style="fill:none;stroke:#cccccc;stroke-linecap:round;"/>
     </g>
     <g id="line2d_6">
      <g>
       <use style="fill:#262626;stroke:#262626;stroke-width:1.25;" x="153.711395" xlink:href="#me1f13403d5" y="493.286013"/>
      </g>
     </g>
     <g id="text_3">
      <!-- 26.01.2021 -->
      <g style="fill:#262626;" transform="translate(107.558867 553.231121)rotate(-45)scale(0.11 -0.11)">
       <defs>
        <path d="M 2113 2584 
Q 1688 2584 1439 2293 
Q 1191 2003 1191 1497 
Q 1191 994 1439 701 
Q 1688 409 2113 409 
Q 2538 409 2786 701 
Q 3034 994 3034 1497 
Q 3034 2003 2786 2293 
Q 2538 2584 2113 2584 
z
M 3366 4563 
L 3366 3988 
Q 3128 4100 2886 4159 
Q 2644 4219 2406 4219 
Q 1781 4219 1451 3797 
Q 1122 3375 1075 2522 
Q 1259 2794 1537 2939 
Q 1816 3084 2150 3084 
Q 2853 3084 3261 2657 
Q 3669 2231 3669 1497 
Q 3669 778 3244 343 
Q 2819 -91 2113 -91 
Q 1303 -91 875 529 
Q 447 1150 447 2328 
Q 447 3434 972 4092 
Q 1497 4750 2381 4750 
Q 2619 4750 2861 4703 
Q 3103 4656 3366 4563 
z
" id="DejaVuSans-36" transform="scale(0.015625)"/>
       </defs>
       <use xlink:href="#DejaVuSans-32"/>
       <use x="63.623047" xlink:href="#DejaVuSans-36"/>
       <use x="127.246094" xlink:href="#DejaVuSans-2e"/>
       <use x="159.033203" xlink:href="#DejaVuSans-30"/>
       <use x="222.65625" xlink:href="#DejaVuSans-31"/>
       <use x="286.279297" xlink:href="#DejaVuSans-2e"/>
       <use x="318.066406" xlink:href="#DejaVuSans-32"/>
       <use x="381.689453" xlink:href="#DejaVuSans-30"/>
       <use x="445.3125" xlink:href="#DejaVuSans-32"/>
       <use x="508.935547" xlink:href="#DejaVuSans-31"/>
      </g>
     </g>
    </g>
    <g id="xtick_4">
     <g id="line2d_7">
      <path clip-path="url(#pb2a5308dd4)" d="M 184.267411 493.286013 
L 184.267411 29.118125 
" style="fill:none;stroke:#cccccc;stroke-linecap:round;"/>
     </g>
     <g id="line2d_8">
      <g>
       <use style="fill:#262626;stroke:#262626;stroke-width:1.25;" x="184.267411" xlink:href="#me1f13403d5" y="493.286013"/>
      </g>
     </g>
     <g id="text_4">
      <!-- 09.02.2021 -->
      <g style="fill:#262626;" transform="translate(138.114883 553.231121)rotate(-45)scale(0.11 -0.11)">
       <use xlink:href="#DejaVuSans-30"/>
       <use x="63.623047" xlink:href="#DejaVuSans-39"/>
       <use x="127.246094" xlink:href="#DejaVuSans-2e"/>
       <use x="159.033203" xlink:href="#DejaVuSans-30"/>
       <use x="222.65625" xlink:href="#DejaVuSans-32"/>
       <use x="286.279297" xlink:href="#DejaVuSans-2e"/>
       <use x="318.066406" xlink:href="#DejaVuSans-32"/>
       <use x="381.689453" xlink:href="#DejaVuSans-30"/>
       <use x="445.3125" xlink:href="#DejaVuSans-32"/>
       <use x="508.935547" xlink:href="#DejaVuSans-31"/>
      </g>
     </g>
    </g>
    <g id="xtick_5">
     <g id="line2d_9">
      <path clip-path="url(#pb2a5308dd4)" d="M 214.823426 493.286013 
L 214.823426 29.118125 
" style="fill:none;stroke:#cccccc;stroke-linecap:round;"/>
     </g>
     <g id="line2d_10">
      <g>
       <use style="fill:#262626;stroke:#262626;stroke-width:1.25;" x="214.823426" xlink:href="#me1f13403d5" y="493.286013"/>
      </g>
     </g>
     <g id="text_5">
      <!-- 23.02.2021 -->
      <g style="fill:#262626;" transform="translate(168.670898 553.231121)rotate(-45)scale(0.11 -0.11)">
       <defs>
        <path d="M 2597 2516 
Q 3050 2419 3304 2112 
Q 3559 1806 3559 1356 
Q 3559 666 3084 287 
Q 2609 -91 1734 -91 
Q 1441 -91 1130 -33 
Q 819 25 488 141 
L 488 750 
Q 750 597 1062 519 
Q 1375 441 1716 441 
Q 2309 441 2620 675 
Q 2931 909 2931 1356 
Q 2931 1769 2642 2001 
Q 2353 2234 1838 2234 
L 1294 2234 
L 1294 2753 
L 1863 2753 
Q 2328 2753 2575 2939 
Q 2822 3125 2822 3475 
Q 2822 3834 2567 4026 
Q 2313 4219 1838 4219 
Q 1578 4219 1281 4162 
Q 984 4106 628 3988 
L 628 4550 
Q 988 4650 1302 4700 
Q 1616 4750 1894 4750 
Q 2613 4750 3031 4423 
Q 3450 4097 3450 3541 
Q 3450 3153 3228 2886 
Q 3006 2619 2597 2516 
z
" id="DejaVuSans-33" transform="scale(0.015625)"/>
       </defs>
       <use xlink:href="#DejaVuSans-32"/>
       <use x="63.623047" xlink:href="#DejaVuSans-33"/>
       <use x="127.246094" xlink:href="#DejaVuSans-2e"/>
       <use x="159.033203" xlink:href="#DejaVuSans-30"/>
       <use x="222.65625" xlink:href="#DejaVuSans-32"/>
       <use x="286.279297" xlink:href="#DejaVuSans-2e"/>
       <use x="318.066406" xlink:href="#DejaVuSans-32"/>
       <use x="381.689453" xlink:href="#DejaVuSans-30"/>
       <use x="445.3125" xlink:href="#DejaVuSans-32"/>
       <use x="508.935547" xlink:href="#DejaVuSans-31"/>
      </g>
     </g>
    </g>
    <g id="xtick_6">
     <g id="line2d_11">
      <path clip-path="url(#pb2a5308dd4)" d="M 245.379442 493.286013 
L 245.379442 29.118125 
" style="fill:none;stroke:#cccccc;stroke-linecap:round;"/>
     </g>
     <g id="line2d_12">
      <g>
       <use style="fill:#262626;stroke:#262626;stroke-width:1.25;" x="245.379442" xlink:href="#me1f13403d5" y="493.286013"/>
      </g>
     </g>
     <g id="text_6">
      <!-- 09.03.2021 -->
      <g style="fill:#262626;" transform="translate(199.226914 553.231121)rotate(-45)scale(0.11 -0.11)">
       <use xlink:href="#DejaVuSans-30"/>
       <use x="63.623047" xlink:href="#DejaVuSans-39"/>
       <use x="127.246094" xlink:href="#DejaVuSans-2e"/>
       <use x="159.033203" xlink:href="#DejaVuSans-30"/>
       <use x="222.65625" xlink:href="#DejaVuSans-33"/>
       <use x="286.279297" xlink:href="#DejaVuSans-2e"/>
       <use x="318.066406" xlink:href="#DejaVuSans-32"/>
       <use x="381.689453" xlink:href="#DejaVuSans-30"/>
       <use x="445.3125" xlink:href="#DejaVuSans-32"/>
       <use x="508.935547" xlink:href="#DejaVuSans-31"/>
      </g>
     </g>
    </g>
    <g id="xtick_7">
     <g id="line2d_13">
      <path clip-path="url(#pb2a5308dd4)" d="M 275.935458 493.286013 
L 275.935458 29.118125 
" style="fill:none;stroke:#cccccc;stroke-linecap:round;"/>
     </g>
     <g id="line2d_14">
      <g>
       <use style="fill:#262626;stroke:#262626;stroke-width:1.25;" x="275.935458" xlink:href="#me1f13403d5" y="493.286013"/>
      </g>
     </g>
     <g id="text_7">
      <!-- 23.03.2021 -->
      <g style="fill:#262626;" transform="translate(229.78293 553.231121)rotate(-45)scale(0.11 -0.11)">
       <use xlink:href="#DejaVuSans-32"/>
       <use x="63.623047" xlink:href="#DejaVuSans-33"/>
       <use x="127.246094" xlink:href="#DejaVuSans-2e"/>
       <use x="159.033203" xlink:href="#DejaVuSans-30"/>
       <use x="222.65625" xlink:href="#DejaVuSans-33"/>
       <use x="286.279297" xlink:href="#DejaVuSans-2e"/>
       <use x="318.066406" xlink:href="#DejaVuSans-32"/>
       <use x="381.689453" xlink:href="#DejaVuSans-30"/>
       <use x="445.3125" xlink:href="#DejaVuSans-32"/>
       <use x="508.935547" xlink:href="#DejaVuSans-31"/>
      </g>
     </g>
    </g>
    <g id="xtick_8">
     <g id="line2d_15">
      <path clip-path="url(#pb2a5308dd4)" d="M 306.491473 493.286013 
L 306.491473 29.118125 
" style="fill:none;stroke:#cccccc;stroke-linecap:round;"/>
     </g>
     <g id="line2d_16">
      <g>
       <use style="fill:#262626;stroke:#262626;stroke-width:1.25;" x="306.491473" xlink:href="#me1f13403d5" y="493.286013"/>
      </g>
     </g>
     <g id="text_8">
      <!-- 06.04.2021 -->
      <g style="fill:#262626;" transform="translate(260.338945 553.231121)rotate(-45)scale(0.11 -0.11)">
       <defs>
        <path d="M 2419 4116 
L 825 1625 
L 2419 1625 
L 2419 4116 
z
M 2253 4666 
L 3047 4666 
L 3047 1625 
L 3713 1625 
L 3713 1100 
L 3047 1100 
L 3047 0 
L 2419 0 
L 2419 1100 
L 313 1100 
L 313 1709 
L 2253 4666 
z
" id="DejaVuSans-34" transform="scale(0.015625)"/>
       </defs>
       <use xlink:href="#DejaVuSans-30"/>
       <use x="63.623047" xlink:href="#DejaVuSans-36"/>
       <use x="127.246094" xlink:href="#DejaVuSans-2e"/>
       <use x="159.033203" xlink:href="#DejaVuSans-30"/>
       <use x="222.65625" xlink:href="#DejaVuSans-34"/>
       <use x="286.279297" xlink:href="#DejaVuSans-2e"/>
       <use x="318.066406" xlink:href="#DejaVuSans-32"/>
       <use x="381.689453" xlink:href="#DejaVuSans-30"/>
       <use x="445.3125" xlink:href="#DejaVuSans-32"/>
       <use x="508.935547" xlink:href="#DejaVuSans-31"/>
      </g>
     </g>
    </g>
    <g id="xtick_9">
     <g id="line2d_17">
      <path clip-path="url(#pb2a5308dd4)" d="M 337.047489 493.286013 
L 337.047489 29.118125 
" style="fill:none;stroke:#cccccc;stroke-linecap:round;"/>
     </g>
     <g id="line2d_18">
      <g>
       <use style="fill:#262626;stroke:#262626;stroke-width:1.25;" x="337.047489" xlink:href="#me1f13403d5" y="493.286013"/>
      </g>
     </g>
     <g id="text_9">
      <!-- 20.04.2021 -->
      <g style="fill:#262626;" transform="translate(290.894961 553.231121)rotate(-45)scale(0.11 -0.11)">
       <use xlink:href="#DejaVuSans-32"/>
       <use x="63.623047" xlink:href="#DejaVuSans-30"/>
       <use x="127.246094" xlink:href="#DejaVuSans-2e"/>
       <use x="159.033203" xlink:href="#DejaVuSans-30"/>
       <use x="222.65625" xlink:href="#DejaVuSans-34"/>
       <use x="286.279297" xlink:href="#DejaVuSans-2e"/>
       <use x="318.066406" xlink:href="#DejaVuSans-32"/>
       <use x="381.689453" xlink:href="#DejaVuSans-30"/>
       <use x="445.3125" xlink:href="#DejaVuSans-32"/>
       <use x="508.935547" xlink:href="#DejaVuSans-31"/>
      </g>
     </g>
    </g>
    <g id="xtick_10">
     <g id="line2d_19">
      <path clip-path="url(#pb2a5308dd4)" d="M 367.603505 493.286013 
L 367.603505 29.118125 
" style="fill:none;stroke:#cccccc;stroke-linecap:round;"/>
     </g>
     <g id="line2d_20">
      <g>
       <use style="fill:#262626;stroke:#262626;stroke-width:1.25;" x="367.603505" xlink:href="#me1f13403d5" y="493.286013"/>
      </g>
     </g>
     <g id="text_10">
      <!-- 04.05.2021 -->
      <g style="fill:#262626;" transform="translate(321.450977 553.231121)rotate(-45)scale(0.11 -0.11)">
       <defs>
        <path d="M 691 4666 
L 3169 4666 
L 3169 4134 
L 1269 4134 
L 1269 2991 
Q 1406 3038 1543 3061 
Q 1681 3084 1819 3084 
Q 2600 3084 3056 2656 
Q 3513 2228 3513 1497 
Q 3513 744 3044 326 
Q 2575 -91 1722 -91 
Q 1428 -91 1123 -41 
Q 819 9 494 109 
L 494 744 
Q 775 591 1075 516 
Q 1375 441 1709 441 
Q 2250 441 2565 725 
Q 2881 1009 2881 1497 
Q 2881 1984 2565 2268 
Q 2250 2553 1709 2553 
Q 1456 2553 1204 2497 
Q 953 2441 691 2322 
L 691 4666 
z
" id="DejaVuSans-35" transform="scale(0.015625)"/>
       </defs>
       <use xlink:href="#DejaVuSans-30"/>
       <use x="63.623047" xlink:href="#DejaVuSans-34"/>
       <use x="127.246094" xlink:href="#DejaVuSans-2e"/>
       <use x="159.033203" xlink:href="#DejaVuSans-30"/>
       <use x="222.65625" xlink:href="#DejaVuSans-35"/>
       <use x="286.279297" xlink:href="#DejaVuSans-2e"/>
       <use x="318.066406" xlink:href="#DejaVuSans-32"/>
       <use x="381.689453" xlink:href="#DejaVuSans-30"/>
       <use x="445.3125" xlink:href="#DejaVuSans-32"/>
       <use x="508.935547" xlink:href="#DejaVuSans-31"/>
      </g>
     </g>
    </g>
    <g id="xtick_11">
     <g id="line2d_21">
      <path clip-path="url(#pb2a5308dd4)" d="M 398.159521 493.286013 
L 398.159521 29.118125 
" style="fill:none;stroke:#cccccc;stroke-linecap:round;"/>
     </g>
     <g id="line2d_22">
      <g>
       <use style="fill:#262626;stroke:#262626;stroke-width:1.25;" x="398.159521" xlink:href="#me1f13403d5" y="493.286013"/>
      </g>
     </g>
     <g id="text_11">
      <!-- 18.05.2021 -->
      <g style="fill:#262626;" transform="translate(352.006992 553.231121)rotate(-45)scale(0.11 -0.11)">
       <defs>
        <path d="M 2034 2216 
Q 1584 2216 1326 1975 
Q 1069 1734 1069 1313 
Q 1069 891 1326 650 
Q 1584 409 2034 409 
Q 2484 409 2743 651 
Q 3003 894 3003 1313 
Q 3003 1734 2745 1975 
Q 2488 2216 2034 2216 
z
M 1403 2484 
Q 997 2584 770 2862 
Q 544 3141 544 3541 
Q 544 4100 942 4425 
Q 1341 4750 2034 4750 
Q 2731 4750 3128 4425 
Q 3525 4100 3525 3541 
Q 3525 3141 3298 2862 
Q 3072 2584 2669 2484 
Q 3125 2378 3379 2068 
Q 3634 1759 3634 1313 
Q 3634 634 3220 271 
Q 2806 -91 2034 -91 
Q 1263 -91 848 271 
Q 434 634 434 1313 
Q 434 1759 690 2068 
Q 947 2378 1403 2484 
z
M 1172 3481 
Q 1172 3119 1398 2916 
Q 1625 2713 2034 2713 
Q 2441 2713 2670 2916 
Q 2900 3119 2900 3481 
Q 2900 3844 2670 4047 
Q 2441 4250 2034 4250 
Q 1625 4250 1398 4047 
Q 1172 3844 1172 3481 
z
" id="DejaVuSans-38" transform="scale(0.015625)"/>
       </defs>
       <use xlink:href="#DejaVuSans-31"/>
       <use x="63.623047" xlink:href="#DejaVuSans-38"/>
       <use x="127.246094" xlink:href="#DejaVuSans-2e"/>
       <use x="159.033203" xlink:href="#DejaVuSans-30"/>
       <use x="222.65625" xlink:href="#DejaVuSans-35"/>
       <use x="286.279297" xlink:href="#DejaVuSans-2e"/>
       <use x="318.066406" xlink:href="#DejaVuSans-32"/>
       <use x="381.689453" xlink:href="#DejaVuSans-30"/>
       <use x="445.3125" xlink:href="#DejaVuSans-32"/>
       <use x="508.935547" xlink:href="#DejaVuSans-31"/>
      </g>
     </g>
    </g>
    <g id="xtick_12">
     <g id="line2d_23">
      <path clip-path="url(#pb2a5308dd4)" d="M 428.715536 493.286013 
L 428.715536 29.118125 
" style="fill:none;stroke:#cccccc;stroke-linecap:round;"/>
     </g>
     <g id="line2d_24">
      <g>
       <use style="fill:#262626;stroke:#262626;stroke-width:1.25;" x="428.715536" xlink:href="#me1f13403d5" y="493.286013"/>
      </g>
     </g>
     <g id="text_12">
      <!-- 01.06.2021 -->
      <g style="fill:#262626;" transform="translate(382.563008 553.231121)rotate(-45)scale(0.11 -0.11)">
       <use xlink:href="#DejaVuSans-30"/>
       <use x="63.623047" xlink:href="#DejaVuSans-31"/>
       <use x="127.246094" xlink:href="#DejaVuSans-2e"/>
       <use x="159.033203" xlink:href="#DejaVuSans-30"/>
       <use x="222.65625" xlink:href="#DejaVuSans-36"/>
       <use x="286.279297" xlink:href="#DejaVuSans-2e"/>
       <use x="318.066406" xlink:href="#DejaVuSans-32"/>
       <use x="381.689453" xlink:href="#DejaVuSans-30"/>
       <use x="445.3125" xlink:href="#DejaVuSans-32"/>
       <use x="508.935547" xlink:href="#DejaVuSans-31"/>
      </g>
     </g>
    </g>
    <g id="xtick_13">
     <g id="line2d_25">
      <path clip-path="url(#pb2a5308dd4)" d="M 459.271552 493.286013 
L 459.271552 29.118125 
" style="fill:none;stroke:#cccccc;stroke-linecap:round;"/>
     </g>
     <g id="line2d_26">
      <g>
       <use style="fill:#262626;stroke:#262626;stroke-width:1.25;" x="459.271552" xlink:href="#me1f13403d5" y="493.286013"/>
      </g>
     </g>
     <g id="text_13">
      <!-- 15.06.2021 -->
      <g style="fill:#262626;" transform="translate(413.119024 553.231121)rotate(-45)scale(0.11 -0.11)">
       <use xlink:href="#DejaVuSans-31"/>
       <use x="63.623047" xlink:href="#DejaVuSans-35"/>
       <use x="127.246094" xlink:href="#DejaVuSans-2e"/>
       <use x="159.033203" xlink:href="#DejaVuSans-30"/>
       <use x="222.65625" xlink:href="#DejaVuSans-36"/>
       <use x="286.279297" xlink:href="#DejaVuSans-2e"/>
       <use x="318.066406" xlink:href="#DejaVuSans-32"/>
       <use x="381.689453" xlink:href="#DejaVuSans-30"/>
       <use x="445.3125" xlink:href="#DejaVuSans-32"/>
       <use x="508.935547" xlink:href="#DejaVuSans-31"/>
      </g>
     </g>
    </g>
    <g id="xtick_14">
     <g id="line2d_27">
      <path clip-path="url(#pb2a5308dd4)" d="M 489.827568 493.286013 
L 489.827568 29.118125 
" style="fill:none;stroke:#cccccc;stroke-linecap:round;"/>
     </g>
     <g id="line2d_28">
      <g>
       <use style="fill:#262626;stroke:#262626;stroke-width:1.25;" x="489.827568" xlink:href="#me1f13403d5" y="493.286013"/>
      </g>
     </g>
     <g id="text_14">
      <!-- 29.06.2021 -->
      <g style="fill:#262626;" transform="translate(443.67504 553.231121)rotate(-45)scale(0.11 -0.11)">
       <use xlink:href="#DejaVuSans-32"/>
       <use x="63.623047" xlink:href="#DejaVuSans-39"/>
       <use x="127.246094" xlink:href="#DejaVuSans-2e"/>
       <use x="159.033203" xlink:href="#DejaVuSans-30"/>
       <use x="222.65625" xlink:href="#DejaVuSans-36"/>
       <use x="286.279297" xlink:href="#DejaVuSans-2e"/>
       <use x="318.066406" xlink:href="#DejaVuSans-32"/>
       <use x="381.689453" xlink:href="#DejaVuSans-30"/>
       <use x="445.3125" xlink:href="#DejaVuSans-32"/>
       <use x="508.935547" xlink:href="#DejaVuSans-31"/>
      </g>
     </g>
    </g>
    <g id="xtick_15">
     <g id="line2d_29">
      <path clip-path="url(#pb2a5308dd4)" d="M 520.383583 493.286013 
L 520.383583 29.118125 
" style="fill:none;stroke:#cccccc;stroke-linecap:round;"/>
     </g>
     <g id="line2d_30">
      <g>
       <use style="fill:#262626;stroke:#262626;stroke-width:1.25;" x="520.383583" xlink:href="#me1f13403d5" y="493.286013"/>
      </g>
     </g>
     <g id="text_15">
      <!-- 13.07.2021 -->
      <g style="fill:#262626;" transform="translate(474.231055 553.231121)rotate(-45)scale(0.11 -0.11)">
       <defs>
        <path d="M 525 4666 
L 3525 4666 
L 3525 4397 
L 1831 0 
L 1172 0 
L 2766 4134 
L 525 4134 
L 525 4666 
z
" id="DejaVuSans-37" transform="scale(0.015625)"/>
       </defs>
       <use xlink:href="#DejaVuSans-31"/>
       <use x="63.623047" xlink:href="#DejaVuSans-33"/>
       <use x="127.246094" xlink:href="#DejaVuSans-2e"/>
       <use x="159.033203" xlink:href="#DejaVuSans-30"/>
       <use x="222.65625" xlink:href="#DejaVuSans-37"/>
       <use x="286.279297" xlink:href="#DejaVuSans-2e"/>
       <use x="318.066406" xlink:href="#DejaVuSans-32"/>
       <use x="381.689453" xlink:href="#DejaVuSans-30"/>
       <use x="445.3125" xlink:href="#DejaVuSans-32"/>
       <use x="508.935547" xlink:href="#DejaVuSans-31"/>
      </g>
     </g>
    </g>
    <g id="xtick_16">
     <g id="line2d_31">
      <path clip-path="url(#pb2a5308dd4)" d="M 550.939599 493.286013 
L 550.939599 29.118125 
" style="fill:none;stroke:#cccccc;stroke-linecap:round;"/>
     </g>
     <g id="line2d_32">
      <g>
       <use style="fill:#262626;stroke:#262626;stroke-width:1.25;" x="550.939599" xlink:href="#me1f13403d5" y="493.286013"/>
      </g>
     </g>
     <g id="text_16">
      <!-- 27.07.2021 -->
      <g style="fill:#262626;" transform="translate(504.787071 553.231121)rotate(-45)scale(0.11 -0.11)">
       <use xlink:href="#DejaVuSans-32"/>
       <use x="63.623047" xlink:href="#DejaVuSans-37"/>
       <use x="127.246094" xlink:href="#DejaVuSans-2e"/>
       <use x="159.033203" xlink:href="#DejaVuSans-30"/>
       <use x="222.65625" xlink:href="#DejaVuSans-37"/>
       <use x="286.279297" xlink:href="#DejaVuSans-2e"/>
       <use x="318.066406" xlink:href="#DejaVuSans-32"/>
       <use x="381.689453" xlink:href="#DejaVuSans-30"/>
       <use x="445.3125" xlink:href="#DejaVuSans-32"/>
       <use x="508.935547" xlink:href="#DejaVuSans-31"/>
      </g>
     </g>
    </g>
    <g id="xtick_17">
     <g id="line2d_33">
      <path clip-path="url(#pb2a5308dd4)" d="M 581.495615 493.286013 
L 581.495615 29.118125 
" style="fill:none;stroke:#cccccc;stroke-linecap:round;"/>
     </g>
     <g id="line2d_34">
      <g>
       <use style="fill:#262626;stroke:#262626;stroke-width:1.25;" x="581.495615" xlink:href="#me1f13403d5" y="493.286013"/>
      </g>
     </g>
     <g id="text_17">
      <!-- 10.08.2021 -->
      <g style="fill:#262626;" transform="translate(535.343087 553.231121)rotate(-45)scale(0.11 -0.11)">
       <use xlink:href="#DejaVuSans-31"/>
       <use x="63.623047" xlink:href="#DejaVuSans-30"/>
       <use x="127.246094" xlink:href="#DejaVuSans-2e"/>
       <use x="159.033203" xlink:href="#DejaVuSans-30"/>
       <use x="222.65625" xlink:href="#DejaVuSans-38"/>
       <use x="286.279297" xlink:href="#DejaVuSans-2e"/>
       <use x="318.066406" xlink:href="#DejaVuSans-32"/>
       <use x="381.689453" xlink:href="#DejaVuSans-30"/>
       <use x="445.3125" xlink:href="#DejaVuSans-32"/>
       <use x="508.935547" xlink:href="#DejaVuSans-31"/>
      </g>
     </g>
    </g>
    <g id="xtick_18">
     <g id="line2d_35">
      <path clip-path="url(#pb2a5308dd4)" d="M 612.05163 493.286013 
L 612.05163 29.118125 
" style="fill:none;stroke:#cccccc;stroke-linecap:round;"/>
     </g>
     <g id="line2d_36">
      <g>
       <use style="fill:#262626;stroke:#262626;stroke-width:1.25;" x="612.05163" xlink:href="#me1f13403d5" y="493.286013"/>
      </g>
     </g>
     <g id="text_18">
      <!-- 24.08.2021 -->
      <g style="fill:#262626;" transform="translate(565.899102 553.231121)rotate(-45)scale(0.11 -0.11)">
       <use xlink:href="#DejaVuSans-32"/>
       <use x="63.623047" xlink:href="#DejaVuSans-34"/>
       <use x="127.246094" xlink:href="#DejaVuSans-2e"/>
       <use x="159.033203" xlink:href="#DejaVuSans-30"/>
       <use x="222.65625" xlink:href="#DejaVuSans-38"/>
       <use x="286.279297" xlink:href="#DejaVuSans-2e"/>
       <use x="318.066406" xlink:href="#DejaVuSans-32"/>
       <use x="381.689453" xlink:href="#DejaVuSans-30"/>
       <use x="445.3125" xlink:href="#DejaVuSans-32"/>
       <use x="508.935547" xlink:href="#DejaVuSans-31"/>
      </g>
     </g>
    </g>
    <g id="xtick_19">
     <g id="line2d_37">
      <path clip-path="url(#pb2a5308dd4)" d="M 642.607646 493.286013 
L 642.607646 29.118125 
" style="fill:none;stroke:#cccccc;stroke-linecap:round;"/>
     </g>
     <g id="line2d_38">
      <g>
       <use style="fill:#262626;stroke:#262626;stroke-width:1.25;" x="642.607646" xlink:href="#me1f13403d5" y="493.286013"/>
      </g>
     </g>
     <g id="text_19">
      <!-- 07.09.2021 -->
      <g style="fill:#262626;" transform="translate(596.455118 553.231121)rotate(-45)scale(0.11 -0.11)">
       <use xlink:href="#DejaVuSans-30"/>
       <use x="63.623047" xlink:href="#DejaVuSans-37"/>
       <use x="127.246094" xlink:href="#DejaVuSans-2e"/>
       <use x="159.033203" xlink:href="#DejaVuSans-30"/>
       <use x="222.65625" xlink:href="#DejaVuSans-39"/>
       <use x="286.279297" xlink:href="#DejaVuSans-2e"/>
       <use x="318.066406" xlink:href="#DejaVuSans-32"/>
       <use x="381.689453" xlink:href="#DejaVuSans-30"/>
       <use x="445.3125" xlink:href="#DejaVuSans-32"/>
       <use x="508.935547" xlink:href="#DejaVuSans-31"/>
      </g>
     </g>
    </g>
    <g id="xtick_20">
     <g id="line2d_39">
      <path clip-path="url(#pb2a5308dd4)" d="M 673.163662 493.286013 
L 673.163662 29.118125 
" style="fill:none;stroke:#cccccc;stroke-linecap:round;"/>
     </g>
     <g id="line2d_40">
      <g>
       <use style="fill:#262626;stroke:#262626;stroke-width:1.25;" x="673.163662" xlink:href="#me1f13403d5" y="493.286013"/>
      </g>
     </g>
     <g id="text_20">
      <!-- 21.09.2021 -->
      <g style="fill:#262626;" transform="translate(627.011134 553.231121)rotate(-45)scale(0.11 -0.11)">
       <use xlink:href="#DejaVuSans-32"/>
       <use x="63.623047" xlink:href="#DejaVuSans-31"/>
       <use x="127.246094" xlink:href="#DejaVuSans-2e"/>
       <use x="159.033203" xlink:href="#DejaVuSans-30"/>
       <use x="222.65625" xlink:href="#DejaVuSans-39"/>
       <use x="286.279297" xlink:href="#DejaVuSans-2e"/>
       <use x="318.066406" xlink:href="#DejaVuSans-32"/>
       <use x="381.689453" xlink:href="#DejaVuSans-30"/>
       <use x="445.3125" xlink:href="#DejaVuSans-32"/>
       <use x="508.935547" xlink:href="#DejaVuSans-31"/>
      </g>
     </g>
    </g>
    <g id="xtick_21">
     <g id="line2d_41">
      <path clip-path="url(#pb2a5308dd4)" d="M 703.719678 493.286013 
L 703.719678 29.118125 
" style="fill:none;stroke:#cccccc;stroke-linecap:round;"/>
     </g>
     <g id="line2d_42">
      <g>
       <use style="fill:#262626;stroke:#262626;stroke-width:1.25;" x="703.719678" xlink:href="#me1f13403d5" y="493.286013"/>
      </g>
     </g>
     <g id="text_21">
      <!-- 05.10.2021 -->
      <g style="fill:#262626;" transform="translate(657.567149 553.231121)rotate(-45)scale(0.11 -0.11)">
       <use xlink:href="#DejaVuSans-30"/>
       <use x="63.623047" xlink:href="#DejaVuSans-35"/>
       <use x="127.246094" xlink:href="#DejaVuSans-2e"/>
       <use x="159.033203" xlink:href="#DejaVuSans-31"/>
       <use x="222.65625" xlink:href="#DejaVuSans-30"/>
       <use x="286.279297" xlink:href="#DejaVuSans-2e"/>
       <use x="318.066406" xlink:href="#DejaVuSans-32"/>
       <use x="381.689453" xlink:href="#DejaVuSans-30"/>
       <use x="445.3125" xlink:href="#DejaVuSans-32"/>
       <use x="508.935547" xlink:href="#DejaVuSans-31"/>
      </g>
     </g>
    </g>
    <g id="xtick_22">
     <g id="line2d_43">
      <path clip-path="url(#pb2a5308dd4)" d="M 734.275693 493.286013 
L 734.275693 29.118125 
" style="fill:none;stroke:#cccccc;stroke-linecap:round;"/>
     </g>
     <g id="line2d_44">
      <g>
       <use style="fill:#262626;stroke:#262626;stroke-width:1.25;" x="734.275693" xlink:href="#me1f13403d5" y="493.286013"/>
      </g>
     </g>
     <g id="text_22">
      <!-- 19.10.2021 -->
      <g style="fill:#262626;" transform="translate(688.123165 553.231121)rotate(-45)scale(0.11 -0.11)">
       <use xlink:href="#DejaVuSans-31"/>
       <use x="63.623047" xlink:href="#DejaVuSans-39"/>
       <use x="127.246094" xlink:href="#DejaVuSans-2e"/>
       <use x="159.033203" xlink:href="#DejaVuSans-31"/>
       <use x="222.65625" xlink:href="#DejaVuSans-30"/>
       <use x="286.279297" xlink:href="#DejaVuSans-2e"/>
       <use x="318.066406" xlink:href="#DejaVuSans-32"/>
       <use x="381.689453" xlink:href="#DejaVuSans-30"/>
       <use x="445.3125" xlink:href="#DejaVuSans-32"/>
       <use x="508.935547" xlink:href="#DejaVuSans-31"/>
      </g>
     </g>
    </g>
    <g id="xtick_23">
     <g id="line2d_45">
      <defs>
       <path d="M 0 0 
L 0 4 
" id="md1c63b6951" style="stroke:#262626;"/>
      </defs>
      <g>
       <use style="fill:#262626;stroke:#262626;" x="70.773638" xlink:href="#md1c63b6951" y="493.286013"/>
      </g>
     </g>
    </g>
    <g id="xtick_24">
     <g id="line2d_46">
      <g>
       <use style="fill:#262626;stroke:#262626;" x="86.051646" xlink:href="#md1c63b6951" y="493.286013"/>
      </g>
     </g>
    </g>
    <g id="xtick_25">
     <g id="line2d_47">
      <g>
       <use style="fill:#262626;stroke:#262626;" x="101.329654" xlink:href="#md1c63b6951" y="493.286013"/>
      </g>
     </g>
    </g>
    <g id="xtick_26">
     <g id="line2d_48">
      <g>
       <use style="fill:#262626;stroke:#262626;" x="116.607662" xlink:href="#md1c63b6951" y="493.286013"/>
      </g>
     </g>
    </g>
    <g id="xtick_27">
     <g id="line2d_49">
      <g>
       <use style="fill:#262626;stroke:#262626;" x="131.88567" xlink:href="#md1c63b6951" y="493.286013"/>
      </g>
     </g>
    </g>
    <g id="xtick_28">
     <g id="line2d_50">
      <g>
       <use style="fill:#262626;stroke:#262626;" x="147.163677" xlink:href="#md1c63b6951" y="493.286013"/>
      </g>
     </g>
    </g>
    <g id="xtick_29">
     <g id="line2d_51">
      <g>
       <use style="fill:#262626;stroke:#262626;" x="162.441685" xlink:href="#md1c63b6951" y="493.286013"/>
      </g>
     </g>
    </g>
    <g id="xtick_30">
     <g id="line2d_52">
      <g>
       <use style="fill:#262626;stroke:#262626;" x="177.719693" xlink:href="#md1c63b6951" y="493.286013"/>
      </g>
     </g>
    </g>
    <g id="xtick_31">
     <g id="line2d_53">
      <g>
       <use style="fill:#262626;stroke:#262626;" x="192.997701" xlink:href="#md1c63b6951" y="493.286013"/>
      </g>
     </g>
    </g>
    <g id="xtick_32">
     <g id="line2d_54">
      <g>
       <use style="fill:#262626;stroke:#262626;" x="208.275709" xlink:href="#md1c63b6951" y="493.286013"/>
      </g>
     </g>
    </g>
    <g id="xtick_33">
     <g id="line2d_55">
      <g>
       <use style="fill:#262626;stroke:#262626;" x="223.553717" xlink:href="#md1c63b6951" y="493.286013"/>
      </g>
     </g>
    </g>
    <g id="xtick_34">
     <g id="line2d_56">
      <g>
       <use style="fill:#262626;stroke:#262626;" x="238.831724" xlink:href="#md1c63b6951" y="493.286013"/>
      </g>
     </g>
    </g>
    <g id="xtick_35">
     <g id="line2d_57">
      <g>
       <use style="fill:#262626;stroke:#262626;" x="254.109732" xlink:href="#md1c63b6951" y="493.286013"/>
      </g>
     </g>
    </g>
    <g id="xtick_36">
     <g id="line2d_58">
      <g>
       <use style="fill:#262626;stroke:#262626;" x="269.38774" xlink:href="#md1c63b6951" y="493.286013"/>
      </g>
     </g>
    </g>
    <g id="xtick_37">
     <g id="line2d_59">
      <g>
       <use style="fill:#262626;stroke:#262626;" x="284.665748" xlink:href="#md1c63b6951" y="493.286013"/>
      </g>
     </g>
    </g>
    <g id="xtick_38">
     <g id="line2d_60">
      <g>
       <use style="fill:#262626;stroke:#262626;" x="299.943756" xlink:href="#md1c63b6951" y="493.286013"/>
      </g>
     </g>
    </g>
    <g id="xtick_39">
     <g id="line2d_61">
      <g>
       <use style="fill:#262626;stroke:#262626;" x="315.221764" xlink:href="#md1c63b6951" y="493.286013"/>
      </g>
     </g>
    </g>
    <g id="xtick_40">
     <g id="line2d_62">
      <g>
       <use style="fill:#262626;stroke:#262626;" x="330.499772" xlink:href="#md1c63b6951" y="493.286013"/>
      </g>
     </g>
    </g>
    <g id="xtick_41">
     <g id="line2d_63">
      <g>
       <use style="fill:#262626;stroke:#262626;" x="345.777779" xlink:href="#md1c63b6951" y="493.286013"/>
      </g>
     </g>
    </g>
    <g id="xtick_42">
     <g id="line2d_64">
      <g>
       <use style="fill:#262626;stroke:#262626;" x="361.055787" xlink:href="#md1c63b6951" y="493.286013"/>
      </g>
     </g>
    </g>
    <g id="xtick_43">
     <g id="line2d_65">
      <g>
       <use style="fill:#262626;stroke:#262626;" x="376.333795" xlink:href="#md1c63b6951" y="493.286013"/>
      </g>
     </g>
    </g>
    <g id="xtick_44">
     <g id="line2d_66">
      <g>
       <use style="fill:#262626;stroke:#262626;" x="391.611803" xlink:href="#md1c63b6951" y="493.286013"/>
      </g>
     </g>
    </g>
    <g id="xtick_45">
     <g id="line2d_67">
      <g>
       <use style="fill:#262626;stroke:#262626;" x="406.889811" xlink:href="#md1c63b6951" y="493.286013"/>
      </g>
     </g>
    </g>
    <g id="xtick_46">
     <g id="line2d_68">
      <g>
       <use style="fill:#262626;stroke:#262626;" x="422.167819" xlink:href="#md1c63b6951" y="493.286013"/>
      </g>
     </g>
    </g>
    <g id="xtick_47">
     <g id="line2d_69">
      <g>
       <use style="fill:#262626;stroke:#262626;" x="437.445826" xlink:href="#md1c63b6951" y="493.286013"/>
      </g>
     </g>
    </g>
    <g id="xtick_48">
     <g id="line2d_70">
      <g>
       <use style="fill:#262626;stroke:#262626;" x="452.723834" xlink:href="#md1c63b6951" y="493.286013"/>
      </g>
     </g>
    </g>
    <g id="xtick_49">
     <g id="line2d_71">
      <g>
       <use style="fill:#262626;stroke:#262626;" x="468.001842" xlink:href="#md1c63b6951" y="493.286013"/>
      </g>
     </g>
    </g>
    <g id="xtick_50">
     <g id="line2d_72">
      <g>
       <use style="fill:#262626;stroke:#262626;" x="483.27985" xlink:href="#md1c63b6951" y="493.286013"/>
      </g>
     </g>
    </g>
    <g id="xtick_51">
     <g id="line2d_73">
      <g>
       <use style="fill:#262626;stroke:#262626;" x="498.557858" xlink:href="#md1c63b6951" y="493.286013"/>
      </g>
     </g>
    </g>
    <g id="xtick_52">
     <g id="line2d_74">
      <g>
       <use style="fill:#262626;stroke:#262626;" x="513.835866" xlink:href="#md1c63b6951" y="493.286013"/>
      </g>
     </g>
    </g>
    <g id="xtick_53">
     <g id="line2d_75">
      <g>
       <use style="fill:#262626;stroke:#262626;" x="529.113874" xlink:href="#md1c63b6951" y="493.286013"/>
      </g>
     </g>
    </g>
    <g id="xtick_54">
     <g id="line2d_76">
      <g>
       <use style="fill:#262626;stroke:#262626;" x="544.391881" xlink:href="#md1c63b6951" y="493.286013"/>
      </g>
     </g>
    </g>
    <g id="xtick_55">
     <g id="line2d_77">
      <g>
       <use style="fill:#262626;stroke:#262626;" x="559.669889" xlink:href="#md1c63b6951" y="493.286013"/>
      </g>
     </g>
    </g>
    <g id="xtick_56">
     <g id="line2d_78">
      <g>
       <use style="fill:#262626;stroke:#262626;" x="574.947897" xlink:href="#md1c63b6951" y="493.286013"/>
      </g>
     </g>
    </g>
    <g id="xtick_57">
     <g id="line2d_79">
      <g>
       <use style="fill:#262626;stroke:#262626;" x="590.225905" xlink:href="#md1c63b6951" y="493.286013"/>
      </g>
     </g>
    </g>
    <g id="xtick_58">
     <g id="line2d_80">
      <g>
       <use style="fill:#262626;stroke:#262626;" x="605.503913" xlink:href="#md1c63b6951" y="493.286013"/>
      </g>
     </g>
    </g>
    <g id="xtick_59">
     <g id="line2d_81">
      <g>
       <use style="fill:#262626;stroke:#262626;" x="620.781921" xlink:href="#md1c63b6951" y="493.286013"/>
      </g>
     </g>
    </g>
    <g id="xtick_60">
     <g id="line2d_82">
      <g>
       <use style="fill:#262626;stroke:#262626;" x="636.059928" xlink:href="#md1c63b6951" y="493.286013"/>
      </g>
     </g>
    </g>
    <g id="xtick_61">
     <g id="line2d_83">
      <g>
       <use style="fill:#262626;stroke:#262626;" x="651.337936" xlink:href="#md1c63b6951" y="493.286013"/>
      </g>
     </g>
    </g>
    <g id="xtick_62">
     <g id="line2d_84">
      <g>
       <use style="fill:#262626;stroke:#262626;" x="666.615944" xlink:href="#md1c63b6951" y="493.286013"/>
      </g>
     </g>
    </g>
    <g id="xtick_63">
     <g id="line2d_85">
      <g>
       <use style="fill:#262626;stroke:#262626;" x="681.893952" xlink:href="#md1c63b6951" y="493.286013"/>
      </g>
     </g>
    </g>
    <g id="xtick_64">
     <g id="line2d_86">
      <g>
       <use style="fill:#262626;stroke:#262626;" x="697.17196" xlink:href="#md1c63b6951" y="493.286013"/>
      </g>
     </g>
    </g>
    <g id="xtick_65">
     <g id="line2d_87">
      <g>
       <use style="fill:#262626;stroke:#262626;" x="712.449968" xlink:href="#md1c63b6951" y="493.286013"/>
      </g>
     </g>
    </g>
    <g id="xtick_66">
     <g id="line2d_88">
      <g>
       <use style="fill:#262626;stroke:#262626;" x="727.727976" xlink:href="#md1c63b6951" y="493.286013"/>
      </g>
     </g>
    </g>
    <g id="xtick_67">
     <g id="line2d_89">
      <g>
       <use style="fill:#262626;stroke:#262626;" x="743.005983" xlink:href="#md1c63b6951" y="493.286013"/>
      </g>
     </g>
    </g>
    <g id="xtick_68">
     <g id="line2d_90">
      <g>
       <use style="fill:#262626;stroke:#262626;" x="758.283991" xlink:href="#md1c63b6951" y="493.286013"/>
      </g>
     </g>
    </g>
    <g id="xtick_69">
     <g id="line2d_91">
      <g>
       <use style="fill:#262626;stroke:#262626;" x="773.561999" xlink:href="#md1c63b6951" y="493.286013"/>
      </g>
     </g>
    </g>
    <g id="xtick_70">
     <g id="line2d_92">
      <g>
       <use style="fill:#262626;stroke:#262626;" x="788.840007" xlink:href="#md1c63b6951" y="493.286013"/>
      </g>
     </g>
    </g>
    <g id="text_23">
     <!-- Date -->
     <g style="fill:#262626;" transform="translate(413.283312 567.966863)scale(0.12 -0.12)">
      <defs>
       <path d="M 1259 4147 
L 1259 519 
L 2022 519 
Q 2988 519 3436 956 
Q 3884 1394 3884 2338 
Q 3884 3275 3436 3711 
Q 2988 4147 2022 4147 
L 1259 4147 
z
M 628 4666 
L 1925 4666 
Q 3281 4666 3915 4102 
Q 4550 3538 4550 2338 
Q 4550 1131 3912 565 
Q 3275 0 1925 0 
L 628 0 
L 628 4666 
z
" id="DejaVuSans-44" transform="scale(0.015625)"/>
       <path d="M 2194 1759 
Q 1497 1759 1228 1600 
Q 959 1441 959 1056 
Q 959 750 1161 570 
Q 1363 391 1709 391 
Q 2188 391 2477 730 
Q 2766 1069 2766 1631 
L 2766 1759 
L 2194 1759 
z
M 3341 1997 
L 3341 0 
L 2766 0 
L 2766 531 
Q 2569 213 2275 61 
Q 1981 -91 1556 -91 
Q 1019 -91 701 211 
Q 384 513 384 1019 
Q 384 1609 779 1909 
Q 1175 2209 1959 2209 
L 2766 2209 
L 2766 2266 
Q 2766 2663 2505 2880 
Q 2244 3097 1772 3097 
Q 1472 3097 1187 3025 
Q 903 2953 641 2809 
L 641 3341 
Q 956 3463 1253 3523 
Q 1550 3584 1831 3584 
Q 2591 3584 2966 3190 
Q 3341 2797 3341 1997 
z
" id="DejaVuSans-61" transform="scale(0.015625)"/>
       <path d="M 1172 4494 
L 1172 3500 
L 2356 3500 
L 2356 3053 
L 1172 3053 
L 1172 1153 
Q 1172 725 1289 603 
Q 1406 481 1766 481 
L 2356 481 
L 2356 0 
L 1766 0 
Q 1100 0 847 248 
Q 594 497 594 1153 
L 594 3053 
L 172 3053 
L 172 3500 
L 594 3500 
L 594 4494 
L 1172 4494 
z
" id="DejaVuSans-74" transform="scale(0.015625)"/>
       <path d="M 3597 1894 
L 3597 1613 
L 953 1613 
Q 991 1019 1311 708 
Q 1631 397 2203 397 
Q 2534 397 2845 478 
Q 3156 559 3463 722 
L 3463 178 
Q 3153 47 2828 -22 
Q 2503 -91 2169 -91 
Q 1331 -91 842 396 
Q 353 884 353 1716 
Q 353 2575 817 3079 
Q 1281 3584 2069 3584 
Q 2775 3584 3186 3129 
Q 3597 2675 3597 1894 
z
M 3022 2063 
Q 3016 2534 2758 2815 
Q 2500 3097 2075 3097 
Q 1594 3097 1305 2825 
Q 1016 2553 972 2059 
L 3022 2063 
z
" id="DejaVuSans-65" transform="scale(0.015625)"/>
      </defs>
      <use xlink:href="#DejaVuSans-44"/>
      <use x="77.001953" xlink:href="#DejaVuSans-61"/>
      <use x="138.28125" xlink:href="#DejaVuSans-74"/>
      <use x="177.490234" xlink:href="#DejaVuSans-65"/>
     </g>
    </g>
   </g>
   <g id="matplotlib.axis_2">
    <g id="ytick_1">
     <g id="line2d_93">
      <path clip-path="url(#pb2a5308dd4)" d="M 59.096875 472.759835 
L 796.151625 472.759835 
" style="fill:none;stroke:#cccccc;stroke-linecap:round;"/>
     </g>
     <g id="line2d_94">
      <defs>
       <path d="M 0 0 
L -6 0 
" id="m3ad95aea30" style="stroke:#262626;stroke-width:1.25;"/>
      </defs>
      <g>
       <use style="fill:#262626;stroke:#262626;stroke-width:1.25;" x="59.096875" xlink:href="#m3ad95aea30" y="472.759835"/>
      </g>
     </g>
     <g id="text_24">
      <!-- $0.0M -->
      <g style="fill:#262626;" transform="translate(15.61375 476.938976)scale(0.11 -0.11)">
       <defs>
        <path d="M 2163 -941 
L 1850 -941 
L 1847 0 
Q 1519 6 1191 76 
Q 863 147 531 288 
L 531 850 
Q 850 650 1176 548 
Q 1503 447 1850 444 
L 1850 1869 
Q 1159 1981 845 2250 
Q 531 2519 531 2988 
Q 531 3497 872 3790 
Q 1213 4084 1850 4128 
L 1850 4863 
L 2163 4863 
L 2163 4138 
Q 2453 4125 2725 4076 
Q 2997 4028 3256 3944 
L 3256 3397 
Q 2997 3528 2723 3600 
Q 2450 3672 2163 3684 
L 2163 2350 
Q 2872 2241 3206 1959 
Q 3541 1678 3541 1191 
Q 3541 663 3186 358 
Q 2831 53 2163 6 
L 2163 -941 
z
M 1850 2406 
L 1850 3688 
Q 1488 3647 1297 3481 
Q 1106 3316 1106 3041 
Q 1106 2772 1282 2622 
Q 1459 2472 1850 2406 
z
M 2163 1806 
L 2163 453 
Q 2559 506 2761 678 
Q 2963 850 2963 1131 
Q 2963 1406 2770 1568 
Q 2578 1731 2163 1806 
z
" id="DejaVuSans-24" transform="scale(0.015625)"/>
        <path d="M 628 4666 
L 1569 4666 
L 2759 1491 
L 3956 4666 
L 4897 4666 
L 4897 0 
L 4281 0 
L 4281 4097 
L 3078 897 
L 2444 897 
L 1241 4097 
L 1241 0 
L 628 0 
L 628 4666 
z
" id="DejaVuSans-4d" transform="scale(0.015625)"/>
       </defs>
       <use xlink:href="#DejaVuSans-24"/>
       <use x="63.623047" xlink:href="#DejaVuSans-30"/>
       <use x="127.246094" xlink:href="#DejaVuSans-2e"/>
       <use x="159.033203" xlink:href="#DejaVuSans-30"/>
       <use x="222.65625" xlink:href="#DejaVuSans-4d"/>
      </g>
     </g>
    </g>
    <g id="ytick_2">
     <g id="line2d_95">
      <path clip-path="url(#pb2a5308dd4)" d="M 59.096875 399.266934 
L 796.151625 399.266934 
" style="fill:none;stroke:#cccccc;stroke-linecap:round;"/>
     </g>
     <g id="line2d_96">
      <g>
       <use style="fill:#262626;stroke:#262626;stroke-width:1.25;" x="59.096875" xlink:href="#m3ad95aea30" y="399.266934"/>
      </g>
     </g>
     <g id="text_25">
      <!-- $0.5M -->
      <g style="fill:#262626;" transform="translate(15.61375 403.446075)scale(0.11 -0.11)">
       <use xlink:href="#DejaVuSans-24"/>
       <use x="63.623047" xlink:href="#DejaVuSans-30"/>
       <use x="127.246094" xlink:href="#DejaVuSans-2e"/>
       <use x="159.033203" xlink:href="#DejaVuSans-35"/>
       <use x="222.65625" xlink:href="#DejaVuSans-4d"/>
      </g>
     </g>
    </g>
    <g id="ytick_3">
     <g id="line2d_97">
      <path clip-path="url(#pb2a5308dd4)" d="M 59.096875 325.774034 
L 796.151625 325.774034 
" style="fill:none;stroke:#cccccc;stroke-linecap:round;"/>
     </g>
     <g id="line2d_98">
      <g>
       <use style="fill:#262626;stroke:#262626;stroke-width:1.25;" x="59.096875" xlink:href="#m3ad95aea30" y="325.774034"/>
      </g>
     </g>
     <g id="text_26">
      <!-- $1.0M -->
      <g style="fill:#262626;" transform="translate(15.61375 329.953174)scale(0.11 -0.11)">
       <use xlink:href="#DejaVuSans-24"/>
       <use x="63.623047" xlink:href="#DejaVuSans-31"/>
       <use x="127.246094" xlink:href="#DejaVuSans-2e"/>
       <use x="159.033203" xlink:href="#DejaVuSans-30"/>
       <use x="222.65625" xlink:href="#DejaVuSans-4d"/>
      </g>
     </g>
    </g>
    <g id="ytick_4">
     <g id="line2d_99">
      <path clip-path="url(#pb2a5308dd4)" d="M 59.096875 252.281133 
L 796.151625 252.281133 
" style="fill:none;stroke:#cccccc;stroke-linecap:round;"/>
     </g>
     <g id="line2d_100">
      <g>
       <use style="fill:#262626;stroke:#262626;stroke-width:1.25;" x="59.096875" xlink:href="#m3ad95aea30" y="252.281133"/>
      </g>
     </g>
     <g id="text_27">
      <!-- $1.5M -->
      <g style="fill:#262626;" transform="translate(15.61375 256.460274)scale(0.11 -0.11)">
       <use xlink:href="#DejaVuSans-24"/>
       <use x="63.623047" xlink:href="#DejaVuSans-31"/>
       <use x="127.246094" xlink:href="#DejaVuSans-2e"/>
       <use x="159.033203" xlink:href="#DejaVuSans-35"/>
       <use x="222.65625" xlink:href="#DejaVuSans-4d"/>
      </g>
     </g>
    </g>
    <g id="ytick_5">
     <g id="line2d_101">
      <path clip-path="url(#pb2a5308dd4)" d="M 59.096875 178.788232 
L 796.151625 178.788232 
" style="fill:none;stroke:#cccccc;stroke-linecap:round;"/>
     </g>
     <g id="line2d_102">
      <g>
       <use style="fill:#262626;stroke:#262626;stroke-width:1.25;" x="59.096875" xlink:href="#m3ad95aea30" y="178.788232"/>
      </g>
     </g>
     <g id="text_28">
      <!-- $2.0M -->
      <g style="fill:#262626;" transform="translate(15.61375 182.967373)scale(0.11 -0.11)">
       <use xlink:href="#DejaVuSans-24"/>
       <use x="63.623047" xlink:href="#DejaVuSans-32"/>
       <use x="127.246094" xlink:href="#DejaVuSans-2e"/>
       <use x="159.033203" xlink:href="#DejaVuSans-30"/>
       <use x="222.65625" xlink:href="#DejaVuSans-4d"/>
      </g>
     </g>
    </g>
    <g id="ytick_6">
     <g id="line2d_103">
      <path clip-path="url(#pb2a5308dd4)" d="M 59.096875 105.295332 
L 796.151625 105.295332 
" style="fill:none;stroke:#cccccc;stroke-linecap:round;"/>
     </g>
     <g id="line2d_104">
      <g>
       <use style="fill:#262626;stroke:#262626;stroke-width:1.25;" x="59.096875" xlink:href="#m3ad95aea30" y="105.295332"/>
      </g>
     </g>
     <g id="text_29">
      <!-- $2.5M -->
      <g style="fill:#262626;" transform="translate(15.61375 109.474472)scale(0.11 -0.11)">
       <use xlink:href="#DejaVuSans-24"/>
       <use x="63.623047" xlink:href="#DejaVuSans-32"/>
       <use x="127.246094" xlink:href="#DejaVuSans-2e"/>
       <use x="159.033203" xlink:href="#DejaVuSans-35"/>
       <use x="222.65625" xlink:href="#DejaVuSans-4d"/>
      </g>
     </g>
    </g>
    <g id="ytick_7">
     <g id="line2d_105">
      <path clip-path="url(#pb2a5308dd4)" d="M 59.096875 31.802431 
L 796.151625 31.802431 
" style="fill:none;stroke:#cccccc;stroke-linecap:round;"/>
     </g>
     <g id="line2d_106">
      <g>
       <use style="fill:#262626;stroke:#262626;stroke-width:1.25;" x="59.096875" xlink:href="#m3ad95aea30" y="31.802431"/>
      </g>
     </g>
     <g id="text_30">
      <!-- $3.0M -->
      <g style="fill:#262626;" transform="translate(15.61375 35.981572)scale(0.11 -0.11)">
       <use xlink:href="#DejaVuSans-24"/>
       <use x="63.623047" xlink:href="#DejaVuSans-33"/>
       <use x="127.246094" xlink:href="#DejaVuSans-2e"/>
       <use x="159.033203" xlink:href="#DejaVuSans-30"/>
       <use x="222.65625" xlink:href="#DejaVuSans-4d"/>
      </g>
     </g>
    </g>
    <g id="text_31">
     <!-- Administered doses -->
     <g style="fill:#262626;" transform="translate(9.118125 320.323631)rotate(-90)scale(0.12 -0.12)">
      <defs>
       <path d="M 2188 4044 
L 1331 1722 
L 3047 1722 
L 2188 4044 
z
M 1831 4666 
L 2547 4666 
L 4325 0 
L 3669 0 
L 3244 1197 
L 1141 1197 
L 716 0 
L 50 0 
L 1831 4666 
z
" id="DejaVuSans-41" transform="scale(0.015625)"/>
       <path d="M 2906 2969 
L 2906 4863 
L 3481 4863 
L 3481 0 
L 2906 0 
L 2906 525 
Q 2725 213 2448 61 
Q 2172 -91 1784 -91 
Q 1150 -91 751 415 
Q 353 922 353 1747 
Q 353 2572 751 3078 
Q 1150 3584 1784 3584 
Q 2172 3584 2448 3432 
Q 2725 3281 2906 2969 
z
M 947 1747 
Q 947 1113 1208 752 
Q 1469 391 1925 391 
Q 2381 391 2643 752 
Q 2906 1113 2906 1747 
Q 2906 2381 2643 2742 
Q 2381 3103 1925 3103 
Q 1469 3103 1208 2742 
Q 947 2381 947 1747 
z
" id="DejaVuSans-64" transform="scale(0.015625)"/>
       <path d="M 3328 2828 
Q 3544 3216 3844 3400 
Q 4144 3584 4550 3584 
Q 5097 3584 5394 3201 
Q 5691 2819 5691 2113 
L 5691 0 
L 5113 0 
L 5113 2094 
Q 5113 2597 4934 2840 
Q 4756 3084 4391 3084 
Q 3944 3084 3684 2787 
Q 3425 2491 3425 1978 
L 3425 0 
L 2847 0 
L 2847 2094 
Q 2847 2600 2669 2842 
Q 2491 3084 2119 3084 
Q 1678 3084 1418 2786 
Q 1159 2488 1159 1978 
L 1159 0 
L 581 0 
L 581 3500 
L 1159 3500 
L 1159 2956 
Q 1356 3278 1631 3431 
Q 1906 3584 2284 3584 
Q 2666 3584 2933 3390 
Q 3200 3197 3328 2828 
z
" id="DejaVuSans-6d" transform="scale(0.015625)"/>
       <path d="M 603 3500 
L 1178 3500 
L 1178 0 
L 603 0 
L 603 3500 
z
M 603 4863 
L 1178 4863 
L 1178 4134 
L 603 4134 
L 603 4863 
z
" id="DejaVuSans-69" transform="scale(0.015625)"/>
       <path d="M 3513 2113 
L 3513 0 
L 2938 0 
L 2938 2094 
Q 2938 2591 2744 2837 
Q 2550 3084 2163 3084 
Q 1697 3084 1428 2787 
Q 1159 2491 1159 1978 
L 1159 0 
L 581 0 
L 581 3500 
L 1159 3500 
L 1159 2956 
Q 1366 3272 1645 3428 
Q 1925 3584 2291 3584 
Q 2894 3584 3203 3211 
Q 3513 2838 3513 2113 
z
" id="DejaVuSans-6e" transform="scale(0.015625)"/>
       <path d="M 2834 3397 
L 2834 2853 
Q 2591 2978 2328 3040 
Q 2066 3103 1784 3103 
Q 1356 3103 1142 2972 
Q 928 2841 928 2578 
Q 928 2378 1081 2264 
Q 1234 2150 1697 2047 
L 1894 2003 
Q 2506 1872 2764 1633 
Q 3022 1394 3022 966 
Q 3022 478 2636 193 
Q 2250 -91 1575 -91 
Q 1294 -91 989 -36 
Q 684 19 347 128 
L 347 722 
Q 666 556 975 473 
Q 1284 391 1588 391 
Q 1994 391 2212 530 
Q 2431 669 2431 922 
Q 2431 1156 2273 1281 
Q 2116 1406 1581 1522 
L 1381 1569 
Q 847 1681 609 1914 
Q 372 2147 372 2553 
Q 372 3047 722 3315 
Q 1072 3584 1716 3584 
Q 2034 3584 2315 3537 
Q 2597 3491 2834 3397 
z
" id="DejaVuSans-73" transform="scale(0.015625)"/>
       <path d="M 2631 2963 
Q 2534 3019 2420 3045 
Q 2306 3072 2169 3072 
Q 1681 3072 1420 2755 
Q 1159 2438 1159 1844 
L 1159 0 
L 581 0 
L 581 3500 
L 1159 3500 
L 1159 2956 
Q 1341 3275 1631 3429 
Q 1922 3584 2338 3584 
Q 2397 3584 2469 3576 
Q 2541 3569 2628 3553 
L 2631 2963 
z
" id="DejaVuSans-72" transform="scale(0.015625)"/>
       <path id="DejaVuSans-20" transform="scale(0.015625)"/>
       <path d="M 1959 3097 
Q 1497 3097 1228 2736 
Q 959 2375 959 1747 
Q 959 1119 1226 758 
Q 1494 397 1959 397 
Q 2419 397 2687 759 
Q 2956 1122 2956 1747 
Q 2956 2369 2687 2733 
Q 2419 3097 1959 3097 
z
M 1959 3584 
Q 2709 3584 3137 3096 
Q 3566 2609 3566 1747 
Q 3566 888 3137 398 
Q 2709 -91 1959 -91 
Q 1206 -91 779 398 
Q 353 888 353 1747 
Q 353 2609 779 3096 
Q 1206 3584 1959 3584 
z
" id="DejaVuSans-6f" transform="scale(0.015625)"/>
      </defs>
      <use xlink:href="#DejaVuSans-41"/>
      <use x="66.658203" xlink:href="#DejaVuSans-64"/>
      <use x="130.134766" xlink:href="#DejaVuSans-6d"/>
      <use x="227.546875" xlink:href="#DejaVuSans-69"/>
      <use x="255.330078" xlink:href="#DejaVuSans-6e"/>
      <use x="318.708984" xlink:href="#DejaVuSans-69"/>
      <use x="346.492188" xlink:href="#DejaVuSans-73"/>
      <use x="398.591797" xlink:href="#DejaVuSans-74"/>
      <use x="437.800781" xlink:href="#DejaVuSans-65"/>
      <use x="499.324219" xlink:href="#DejaVuSans-72"/>
      <use x="538.1875" xlink:href="#DejaVuSans-65"/>
      <use x="599.710938" xlink:href="#DejaVuSans-64"/>
      <use x="663.1875" xlink:href="#DejaVuSans-20"/>
      <use x="694.974609" xlink:href="#DejaVuSans-64"/>
      <use x="758.451172" xlink:href="#DejaVuSans-6f"/>
      <use x="819.632812" xlink:href="#DejaVuSans-73"/>
      <use x="871.732422" xlink:href="#DejaVuSans-65"/>
      <use x="933.255859" xlink:href="#DejaVuSans-73"/>
     </g>
    </g>
   </g>
   <g id="line2d_107">
    <path clip-path="url(#pb2a5308dd4)" d="M 92.599364 472.187472 
L 96.964509 472.063269 
L 107.877371 471.959056 
L 114.425089 470.79684 
L 120.972807 470.678369 
L 125.337952 470.255491 
L 131.88567 470.065291 
L 134.068242 470.047506 
L 136.250815 469.873328 
L 140.61596 469.213509 
L 144.981105 468.923359 
L 151.528822 468.820909 
L 153.711395 468.479314 
L 155.893968 467.921503 
L 158.07654 467.227877 
L 160.259113 466.762079 
L 164.624258 466.715044 
L 166.80683 466.493242 
L 168.989403 466.010688 
L 173.354548 464.818927 
L 175.537121 464.402222 
L 179.902266 464.376059 
L 182.084838 464.104135 
L 186.449983 463.034813 
L 188.632556 462.305764 
L 190.815128 461.780878 
L 195.180273 461.678869 
L 197.362846 461.377842 
L 201.727991 460.130815 
L 203.910564 459.455562 
L 206.093136 457.433919 
L 208.275709 456.833042 
L 212.640854 453.495435 
L 214.823426 450.972718 
L 219.188572 445.051248 
L 221.371144 442.710205 
L 223.553717 441.928093 
L 225.736289 441.533436 
L 227.918862 439.902776 
L 230.101434 436.928812 
L 232.284007 436.282516 
L 234.466579 433.28768 
L 236.649152 430.947666 
L 238.831724 430.557566 
L 241.014297 430.335176 
L 243.19687 429.526607 
L 245.379442 428.347928 
L 247.562015 427.319909 
L 249.744587 425.07088 
L 251.92716 423.275595 
L 256.292305 422.949434 
L 258.474877 422.533758 
L 262.840023 421.211621 
L 265.022595 420.425246 
L 267.205168 419.444998 
L 269.38774 418.88263 
L 271.570313 418.536038 
L 273.752885 417.438789 
L 278.11803 413.77311 
L 282.483175 409.522428 
L 284.665748 408.944773 
L 286.848321 408.594506 
L 289.030893 407.270752 
L 297.761183 399.548412 
L 299.943756 398.961498 
L 302.126328 398.742195 
L 304.308901 397.789874 
L 306.491473 396.380868 
L 308.674046 394.349818 
L 310.856619 391.547828 
L 313.039191 389.360679 
L 315.221764 388.821829 
L 317.404336 388.586652 
L 319.586909 387.509246 
L 321.769481 385.965454 
L 328.317199 379.551876 
L 330.499772 379.098131 
L 332.682344 378.917779 
L 334.864917 377.882558 
L 337.047489 376.141217 
L 339.230062 373.323793 
L 341.412634 370.087754 
L 343.595207 367.379835 
L 345.777779 366.758085 
L 347.960352 366.453824 
L 350.142924 364.850209 
L 352.325497 362.388344 
L 354.50807 358.661519 
L 356.690642 354.704367 
L 358.873215 352.898353 
L 361.055787 352.052449 
L 363.23836 351.551963 
L 365.420932 350.2457 
L 367.603505 348.609307 
L 369.786077 343.835061 
L 371.96865 342.787052 
L 374.151223 337.184394 
L 376.333795 335.707481 
L 378.516368 334.877746 
L 380.69894 331.133283 
L 385.064085 320.517381 
L 387.246658 314.967197 
L 389.42923 310.08183 
L 391.611803 309.113046 
L 393.794375 308.614764 
L 395.976948 305.934331 
L 398.159521 302.102264 
L 400.342093 297.641392 
L 402.524666 292.61389 
L 404.707238 288.929544 
L 406.889811 287.996478 
L 409.072383 287.457334 
L 411.254956 286.697124 
L 413.437528 284.218649 
L 415.620101 281.152819 
L 419.985246 275.632767 
L 422.167819 274.59299 
L 424.350391 273.851446 
L 426.532964 271.988548 
L 428.715536 269.335749 
L 435.263254 259.505485 
L 437.445826 258.624893 
L 439.628399 257.535728 
L 441.810972 255.401054 
L 443.993544 252.202643 
L 448.358689 245.181131 
L 450.541262 242.169539 
L 452.723834 241.439313 
L 454.906407 240.959699 
L 457.088979 239.540698 
L 459.271552 237.268591 
L 463.636697 232.00356 
L 465.81927 229.764966 
L 470.184415 228.737682 
L 472.366987 227.488009 
L 474.54956 225.618056 
L 478.914705 221.486138 
L 481.097277 219.681152 
L 485.462423 218.824813 
L 487.644995 217.640254 
L 496.375285 210.345202 
L 498.557858 209.816347 
L 500.74043 209.499299 
L 502.923003 208.350752 
L 505.105576 206.630871 
L 509.470721 202.940792 
L 511.653293 201.243988 
L 513.835866 200.76408 
L 516.018438 200.456438 
L 518.201011 199.220288 
L 524.748728 193.990386 
L 526.931301 192.421606 
L 531.296446 191.729891 
L 533.479019 190.587959 
L 535.661591 189.120893 
L 542.209309 184.291822 
L 544.391881 183.771492 
L 546.574454 183.477814 
L 548.757027 182.223585 
L 557.487317 175.121966 
L 559.669889 174.65264 
L 561.852462 174.334416 
L 564.035034 173.112964 
L 572.765325 165.850395 
L 574.947897 165.368576 
L 577.13047 165.025952 
L 579.313042 163.705431 
L 585.86076 158.407328 
L 588.043332 156.867652 
L 590.225905 156.352614 
L 592.408477 156.031303 
L 594.59105 154.688587 
L 603.32134 147.501717 
L 605.503913 146.957281 
L 607.686485 146.606132 
L 609.869058 145.154059 
L 616.416776 139.13749 
L 618.599348 137.302225 
L 620.781921 136.724571 
L 622.964493 136.351227 
L 625.147066 134.822134 
L 627.329638 132.839736 
L 633.877356 127.486513 
L 636.059928 126.991171 
L 640.425074 126.432331 
L 642.607646 124.761543 
L 646.972791 121.180087 
L 649.155364 119.559275 
L 651.337936 119.107588 
L 653.520509 118.820083 
L 655.703081 117.63773 
L 662.250799 112.867746 
L 664.433372 111.332333 
L 666.615944 110.885349 
L 668.798517 110.635914 
L 670.981089 109.526759 
L 673.163662 108.047494 
L 675.346234 107.774394 
L 677.528807 106.09273 
L 679.711379 104.621843 
L 681.893952 104.259376 
L 684.076525 104.037133 
L 686.259097 103.271484 
L 688.44167 102.100154 
L 692.806815 99.467345 
L 694.989387 98.429331 
L 697.17196 98.093762 
L 699.354532 97.905033 
L 701.537105 97.113514 
L 710.267395 92.778021 
L 712.449968 92.434809 
L 714.63254 92.255633 
L 716.815113 91.496452 
L 718.997685 90.369218 
L 721.180258 89.55374 
L 725.545403 87.100988 
L 727.727976 86.671055 
L 729.910548 86.40795 
L 732.093121 85.496491 
L 734.275693 84.160537 
L 736.458266 82.178728 
L 738.640838 78.027702 
L 740.823411 74.494604 
L 743.005983 72.777075 
L 745.188556 71.725392 
L 747.371129 69.497087 
L 749.553701 64.792659 
L 751.736274 61.05775 
L 756.101419 54.219383 
L 758.283991 53.082448 
L 760.466564 52.351781 
L 762.649136 50.216665 
L 762.649136 50.216665 
" style="fill:none;stroke:#0000ff;stroke-linecap:round;stroke-width:1.5;"/>
   </g>
   <g id="line2d_108"/>
   <g id="patch_3">
    <path d="M 59.096875 493.286013 
L 59.096875 29.118125 
" style="fill:none;stroke:#262626;stroke-linecap:square;stroke-linejoin:miter;stroke-width:1.25;"/>
   </g>
   <g id="patch_4">
    <path d="M 796.151625 493.286013 
L 796.151625 29.118125 
" style="fill:none;stroke:#262626;stroke-linecap:square;stroke-linejoin:miter;stroke-width:1.25;"/>
   </g>
   <g id="patch_5">
    <path d="M 59.096875 493.286013 
L 796.151625 493.286013 
" style="fill:none;stroke:#262626;stroke-linecap:square;stroke-linejoin:miter;stroke-width:1.25;"/>
   </g>
   <g id="patch_6">
    <path d="M 59.096875 29.118125 
L 796.151625 29.118125 
" style="fill:none;stroke:#262626;stroke-linecap:square;stroke-linejoin:miter;stroke-width:1.25;"/>
   </g>
   <g id="text_32">
    <!-- Last update: 02.11.2021 -->
    <g style="fill:#262626;" transform="translate(366.125422 22.155607)scale(0.09996 -0.09996)">
     <defs>
      <path d="M 628 4666 
L 1259 4666 
L 1259 531 
L 3531 531 
L 3531 0 
L 628 0 
L 628 4666 
z
" id="DejaVuSans-4c" transform="scale(0.015625)"/>
      <path d="M 544 1381 
L 544 3500 
L 1119 3500 
L 1119 1403 
Q 1119 906 1312 657 
Q 1506 409 1894 409 
Q 2359 409 2629 706 
Q 2900 1003 2900 1516 
L 2900 3500 
L 3475 3500 
L 3475 0 
L 2900 0 
L 2900 538 
Q 2691 219 2414 64 
Q 2138 -91 1772 -91 
Q 1169 -91 856 284 
Q 544 659 544 1381 
z
M 1991 3584 
L 1991 3584 
z
" id="DejaVuSans-75" transform="scale(0.015625)"/>
      <path d="M 1159 525 
L 1159 -1331 
L 581 -1331 
L 581 3500 
L 1159 3500 
L 1159 2969 
Q 1341 3281 1617 3432 
Q 1894 3584 2278 3584 
Q 2916 3584 3314 3078 
Q 3713 2572 3713 1747 
Q 3713 922 3314 415 
Q 2916 -91 2278 -91 
Q 1894 -91 1617 61 
Q 1341 213 1159 525 
z
M 3116 1747 
Q 3116 2381 2855 2742 
Q 2594 3103 2138 3103 
Q 1681 3103 1420 2742 
Q 1159 2381 1159 1747 
Q 1159 1113 1420 752 
Q 1681 391 2138 391 
Q 2594 391 2855 752 
Q 3116 1113 3116 1747 
z
" id="DejaVuSans-70" transform="scale(0.015625)"/>
      <path d="M 750 794 
L 1409 794 
L 1409 0 
L 750 0 
L 750 794 
z
M 750 3309 
L 1409 3309 
L 1409 2516 
L 750 2516 
L 750 3309 
z
" id="DejaVuSans-3a" transform="scale(0.015625)"/>
     </defs>
     <use xlink:href="#DejaVuSans-4c"/>
     <use x="55.712891" xlink:href="#DejaVuSans-61"/>
     <use x="116.992188" xlink:href="#DejaVuSans-73"/>
     <use x="169.091797" xlink:href="#DejaVuSans-74"/>
     <use x="208.300781" xlink:href="#DejaVuSans-20"/>
     <use x="240.087891" xlink:href="#DejaVuSans-75"/>
     <use x="303.466797" xlink:href="#DejaVuSans-70"/>
     <use x="366.943359" xlink:href="#DejaVuSans-64"/>
     <use x="430.419922" xlink:href="#DejaVuSans-61"/>
     <use x="491.699219" xlink:href="#DejaVuSans-74"/>
     <use x="530.908203" xlink:href="#DejaVuSans-65"/>
     <use x="592.431641" xlink:href="#DejaVuSans-3a"/>
     <use x="626.123047" xlink:href="#DejaVuSans-20"/>
     <use x="657.910156" xlink:href="#DejaVuSans-30"/>
     <use x="721.533203" xlink:href="#DejaVuSans-32"/>
     <use x="785.15625" xlink:href="#DejaVuSans-2e"/>
     <use x="816.943359" xlink:href="#DejaVuSans-31"/>
     <use x="880.566406" xlink:href="#DejaVuSans-31"/>
     <use x="944.189453" xlink:href="#DejaVuSans-2e"/>
     <use x="975.976562" xlink:href="#DejaVuSans-32"/>
     <use x="1039.599609" xlink:href="#DejaVuSans-30"/>
     <use x="1103.222656" xlink:href="#DejaVuSans-32"/>
     <use x="1166.845703" xlink:href="#DejaVuSans-31"/>
    </g>
   </g>
   <g id="text_33">
    <!-- Last update: 02.11.2021 -->
    <g style="fill:#262626;" transform="translate(366.125422 22.155607)scale(0.09996 -0.09996)">
     <use xlink:href="#DejaVuSans-4c"/>
     <use x="55.712891" xlink:href="#DejaVuSans-61"/>
     <use x="116.992188" xlink:href="#DejaVuSans-73"/>
     <use x="169.091797" xlink:href="#DejaVuSans-74"/>
     <use x="208.300781" xlink:href="#DejaVuSans-20"/>
     <use x="240.087891" xlink:href="#DejaVuSans-75"/>
     <use x="303.466797" xlink:href="#DejaVuSans-70"/>
     <use x="366.943359" xlink:href="#DejaVuSans-64"/>
     <use x="430.419922" xlink:href="#DejaVuSans-61"/>
     <use x="491.699219" xlink:href="#DejaVuSans-74"/>
     <use x="530.908203" xlink:href="#DejaVuSans-65"/>
     <use x="592.431641" xlink:href="#DejaVuSans-3a"/>
     <use x="626.123047" xlink:href="#DejaVuSans-20"/>
     <use x="657.910156" xlink:href="#DejaVuSans-30"/>
     <use x="721.533203" xlink:href="#DejaVuSans-32"/>
     <use x="785.15625" xlink:href="#DejaVuSans-2e"/>
     <use x="816.943359" xlink:href="#DejaVuSans-31"/>
     <use x="880.566406" xlink:href="#DejaVuSans-31"/>
     <use x="944.189453" xlink:href="#DejaVuSans-2e"/>
     <use x="975.976562" xlink:href="#DejaVuSans-32"/>
     <use x="1039.599609" xlink:href="#DejaVuSans-30"/>
     <use x="1103.222656" xlink:href="#DejaVuSans-32"/>
     <use x="1166.845703" xlink:href="#DejaVuSans-31"/>
    </g>
   </g>
   <g id="text_34">
    <!-- Vaccination timeline by day -->
    <g style="fill:#262626;" transform="translate(334.21175 9.118125)scale(0.12 -0.12)">
     <defs>
      <path d="M 31 4666 
L 1241 4666 
L 2478 1222 
L 3713 4666 
L 4922 4666 
L 3194 0 
L 1759 0 
L 31 4666 
z
" id="DejaVuSans-Bold-56" transform="scale(0.015625)"/>
      <path d="M 2106 1575 
Q 1756 1575 1579 1456 
Q 1403 1338 1403 1106 
Q 1403 894 1545 773 
Q 1688 653 1941 653 
Q 2256 653 2472 879 
Q 2688 1106 2688 1447 
L 2688 1575 
L 2106 1575 
z
M 3816 1997 
L 3816 0 
L 2688 0 
L 2688 519 
Q 2463 200 2181 54 
Q 1900 -91 1497 -91 
Q 953 -91 614 226 
Q 275 544 275 1050 
Q 275 1666 698 1953 
Q 1122 2241 2028 2241 
L 2688 2241 
L 2688 2328 
Q 2688 2594 2478 2717 
Q 2269 2841 1825 2841 
Q 1466 2841 1156 2769 
Q 847 2697 581 2553 
L 581 3406 
Q 941 3494 1303 3539 
Q 1666 3584 2028 3584 
Q 2975 3584 3395 3211 
Q 3816 2838 3816 1997 
z
" id="DejaVuSans-Bold-61" transform="scale(0.015625)"/>
      <path d="M 3366 3391 
L 3366 2478 
Q 3138 2634 2908 2709 
Q 2678 2784 2431 2784 
Q 1963 2784 1702 2511 
Q 1441 2238 1441 1747 
Q 1441 1256 1702 982 
Q 1963 709 2431 709 
Q 2694 709 2930 787 
Q 3166 866 3366 1019 
L 3366 103 
Q 3103 6 2833 -42 
Q 2563 -91 2291 -91 
Q 1344 -91 809 395 
Q 275 881 275 1747 
Q 275 2613 809 3098 
Q 1344 3584 2291 3584 
Q 2566 3584 2833 3536 
Q 3100 3488 3366 3391 
z
" id="DejaVuSans-Bold-63" transform="scale(0.015625)"/>
      <path d="M 538 3500 
L 1656 3500 
L 1656 0 
L 538 0 
L 538 3500 
z
M 538 4863 
L 1656 4863 
L 1656 3950 
L 538 3950 
L 538 4863 
z
" id="DejaVuSans-Bold-69" transform="scale(0.015625)"/>
      <path d="M 4056 2131 
L 4056 0 
L 2931 0 
L 2931 347 
L 2931 1631 
Q 2931 2084 2911 2256 
Q 2891 2428 2841 2509 
Q 2775 2619 2662 2680 
Q 2550 2741 2406 2741 
Q 2056 2741 1856 2470 
Q 1656 2200 1656 1722 
L 1656 0 
L 538 0 
L 538 3500 
L 1656 3500 
L 1656 2988 
Q 1909 3294 2193 3439 
Q 2478 3584 2822 3584 
Q 3428 3584 3742 3212 
Q 4056 2841 4056 2131 
z
" id="DejaVuSans-Bold-6e" transform="scale(0.015625)"/>
      <path d="M 1759 4494 
L 1759 3500 
L 2913 3500 
L 2913 2700 
L 1759 2700 
L 1759 1216 
Q 1759 972 1856 886 
Q 1953 800 2241 800 
L 2816 800 
L 2816 0 
L 1856 0 
Q 1194 0 917 276 
Q 641 553 641 1216 
L 641 2700 
L 84 2700 
L 84 3500 
L 641 3500 
L 641 4494 
L 1759 4494 
z
" id="DejaVuSans-Bold-74" transform="scale(0.015625)"/>
      <path d="M 2203 2784 
Q 1831 2784 1636 2517 
Q 1441 2250 1441 1747 
Q 1441 1244 1636 976 
Q 1831 709 2203 709 
Q 2569 709 2762 976 
Q 2956 1244 2956 1747 
Q 2956 2250 2762 2517 
Q 2569 2784 2203 2784 
z
M 2203 3584 
Q 3106 3584 3614 3096 
Q 4122 2609 4122 1747 
Q 4122 884 3614 396 
Q 3106 -91 2203 -91 
Q 1297 -91 786 396 
Q 275 884 275 1747 
Q 275 2609 786 3096 
Q 1297 3584 2203 3584 
z
" id="DejaVuSans-Bold-6f" transform="scale(0.015625)"/>
      <path id="DejaVuSans-Bold-20" transform="scale(0.015625)"/>
      <path d="M 3781 2919 
Q 3994 3244 4286 3414 
Q 4578 3584 4928 3584 
Q 5531 3584 5847 3212 
Q 6163 2841 6163 2131 
L 6163 0 
L 5038 0 
L 5038 1825 
Q 5041 1866 5042 1909 
Q 5044 1953 5044 2034 
Q 5044 2406 4934 2573 
Q 4825 2741 4581 2741 
Q 4263 2741 4089 2478 
Q 3916 2216 3909 1719 
L 3909 0 
L 2784 0 
L 2784 1825 
Q 2784 2406 2684 2573 
Q 2584 2741 2328 2741 
Q 2006 2741 1831 2477 
Q 1656 2213 1656 1722 
L 1656 0 
L 531 0 
L 531 3500 
L 1656 3500 
L 1656 2988 
Q 1863 3284 2130 3434 
Q 2397 3584 2719 3584 
Q 3081 3584 3359 3409 
Q 3638 3234 3781 2919 
z
" id="DejaVuSans-Bold-6d" transform="scale(0.015625)"/>
      <path d="M 4031 1759 
L 4031 1441 
L 1416 1441 
Q 1456 1047 1700 850 
Q 1944 653 2381 653 
Q 2734 653 3104 758 
Q 3475 863 3866 1075 
L 3866 213 
Q 3469 63 3072 -14 
Q 2675 -91 2278 -91 
Q 1328 -91 801 392 
Q 275 875 275 1747 
Q 275 2603 792 3093 
Q 1309 3584 2216 3584 
Q 3041 3584 3536 3087 
Q 4031 2591 4031 1759 
z
M 2881 2131 
Q 2881 2450 2695 2645 
Q 2509 2841 2209 2841 
Q 1884 2841 1681 2658 
Q 1478 2475 1428 2131 
L 2881 2131 
z
" id="DejaVuSans-Bold-65" transform="scale(0.015625)"/>
      <path d="M 538 4863 
L 1656 4863 
L 1656 0 
L 538 0 
L 538 4863 
z
" id="DejaVuSans-Bold-6c" transform="scale(0.015625)"/>
      <path d="M 2400 722 
Q 2759 722 2948 984 
Q 3138 1247 3138 1747 
Q 3138 2247 2948 2509 
Q 2759 2772 2400 2772 
Q 2041 2772 1848 2508 
Q 1656 2244 1656 1747 
Q 1656 1250 1848 986 
Q 2041 722 2400 722 
z
M 1656 2988 
Q 1888 3294 2169 3439 
Q 2450 3584 2816 3584 
Q 3463 3584 3878 3070 
Q 4294 2556 4294 1747 
Q 4294 938 3878 423 
Q 3463 -91 2816 -91 
Q 2450 -91 2169 54 
Q 1888 200 1656 506 
L 1656 0 
L 538 0 
L 538 4863 
L 1656 4863 
L 1656 2988 
z
" id="DejaVuSans-Bold-62" transform="scale(0.015625)"/>
      <path d="M 78 3500 
L 1197 3500 
L 2138 1125 
L 2938 3500 
L 4056 3500 
L 2584 -331 
Q 2363 -916 2067 -1148 
Q 1772 -1381 1288 -1381 
L 641 -1381 
L 641 -647 
L 991 -647 
Q 1275 -647 1404 -556 
Q 1534 -466 1606 -231 
L 1638 -134 
L 78 3500 
z
" id="DejaVuSans-Bold-79" transform="scale(0.015625)"/>
      <path d="M 2919 2988 
L 2919 4863 
L 4044 4863 
L 4044 0 
L 2919 0 
L 2919 506 
Q 2688 197 2409 53 
Q 2131 -91 1766 -91 
Q 1119 -91 703 423 
Q 288 938 288 1747 
Q 288 2556 703 3070 
Q 1119 3584 1766 3584 
Q 2128 3584 2408 3439 
Q 2688 3294 2919 2988 
z
M 2181 722 
Q 2541 722 2730 984 
Q 2919 1247 2919 1747 
Q 2919 2247 2730 2509 
Q 2541 2772 2181 2772 
Q 1825 2772 1636 2509 
Q 1447 2247 1447 1747 
Q 1447 1247 1636 984 
Q 1825 722 2181 722 
z
" id="DejaVuSans-Bold-64" transform="scale(0.015625)"/>
     </defs>
     <use xlink:href="#DejaVuSans-Bold-56"/>
     <use x="71.892578" xlink:href="#DejaVuSans-Bold-61"/>
     <use x="139.373047" xlink:href="#DejaVuSans-Bold-63"/>
     <use x="198.650391" xlink:href="#DejaVuSans-Bold-63"/>
     <use x="257.927734" xlink:href="#DejaVuSans-Bold-69"/>
     <use x="292.205078" xlink:href="#DejaVuSans-Bold-6e"/>
     <use x="363.396484" xlink:href="#DejaVuSans-Bold-61"/>
     <use x="430.876953" xlink:href="#DejaVuSans-Bold-74"/>
     <use x="478.679688" xlink:href="#DejaVuSans-Bold-69"/>
     <use x="512.957031" xlink:href="#DejaVuSans-Bold-6f"/>
     <use x="581.658203" xlink:href="#DejaVuSans-Bold-6e"/>
     <use x="652.849609" xlink:href="#DejaVuSans-Bold-20"/>
     <use x="687.664062" xlink:href="#DejaVuSans-Bold-74"/>
     <use x="735.466797" xlink:href="#DejaVuSans-Bold-69"/>
     <use x="769.744141" xlink:href="#DejaVuSans-Bold-6d"/>
     <use x="873.943359" xlink:href="#DejaVuSans-Bold-65"/>
     <use x="941.765625" xlink:href="#DejaVuSans-Bold-6c"/>
     <use x="976.042969" xlink:href="#DejaVuSans-Bold-69"/>
     <use x="1010.320312" xlink:href="#DejaVuSans-Bold-6e"/>
     <use x="1081.511719" xlink:href="#DejaVuSans-Bold-65"/>
     <use x="1149.333984" xlink:href="#DejaVuSans-Bold-20"/>
     <use x="1184.148438" xlink:href="#DejaVuSans-Bold-62"/>
     <use x="1255.730469" xlink:href="#DejaVuSans-Bold-79"/>
     <use x="1320.916016" xlink:href="#DejaVuSans-Bold-20"/>
     <use x="1355.730469" xlink:href="#DejaVuSans-Bold-64"/>
     <use x="1427.3125" xlink:href="#DejaVuSans-Bold-61"/>
     <use x="1491.667969" xlink:href="#DejaVuSans-Bold-79"/>
    </g>
   </g>
  </g>
  <g id="axes_2">
   <g id="matplotlib.axis_3">
    <g id="ytick_8">
     <g id="line2d_109">
      <defs>
       <path d="M 0 0 
L 6 0 
" id="m26707f4dab" style="stroke:#262626;stroke-width:1.25;"/>
      </defs>
      <g>
       <use style="fill:#262626;stroke:#262626;stroke-width:1.25;" x="796.151625" xlink:href="#m26707f4dab" y="472.187472"/>
      </g>
     </g>
     <g id="text_35">
      <!-- 0 -->
      <g style="fill:#262626;" transform="translate(805.651625 476.366613)scale(0.11 -0.11)">
       <use xlink:href="#DejaVuSans-30"/>
      </g>
     </g>
    </g>
    <g id="ytick_9">
     <g id="line2d_110">
      <g>
       <use style="fill:#262626;stroke:#262626;stroke-width:1.25;" x="796.151625" xlink:href="#m26707f4dab" y="416.835424"/>
      </g>
     </g>
     <g id="text_36">
      <!-- 5000 -->
      <g style="fill:#262626;" transform="translate(805.651625 421.014564)scale(0.11 -0.11)">
       <use xlink:href="#DejaVuSans-35"/>
       <use x="63.623047" xlink:href="#DejaVuSans-30"/>
       <use x="127.246094" xlink:href="#DejaVuSans-30"/>
       <use x="190.869141" xlink:href="#DejaVuSans-30"/>
      </g>
     </g>
    </g>
    <g id="ytick_10">
     <g id="line2d_111">
      <g>
       <use style="fill:#262626;stroke:#262626;stroke-width:1.25;" x="796.151625" xlink:href="#m26707f4dab" y="361.483375"/>
      </g>
     </g>
     <g id="text_37">
      <!-- 10000 -->
      <g style="fill:#262626;" transform="translate(805.651625 365.662516)scale(0.11 -0.11)">
       <use xlink:href="#DejaVuSans-31"/>
       <use x="63.623047" xlink:href="#DejaVuSans-30"/>
       <use x="127.246094" xlink:href="#DejaVuSans-30"/>
       <use x="190.869141" xlink:href="#DejaVuSans-30"/>
       <use x="254.492188" xlink:href="#DejaVuSans-30"/>
      </g>
     </g>
    </g>
    <g id="ytick_11">
     <g id="line2d_112">
      <g>
       <use style="fill:#262626;stroke:#262626;stroke-width:1.25;" x="796.151625" xlink:href="#m26707f4dab" y="306.131327"/>
      </g>
     </g>
     <g id="text_38">
      <!-- 15000 -->
      <g style="fill:#262626;" transform="translate(805.651625 310.310467)scale(0.11 -0.11)">
       <use xlink:href="#DejaVuSans-31"/>
       <use x="63.623047" xlink:href="#DejaVuSans-35"/>
       <use x="127.246094" xlink:href="#DejaVuSans-30"/>
       <use x="190.869141" xlink:href="#DejaVuSans-30"/>
       <use x="254.492188" xlink:href="#DejaVuSans-30"/>
      </g>
     </g>
    </g>
    <g id="ytick_12">
     <g id="line2d_113">
      <g>
       <use style="fill:#262626;stroke:#262626;stroke-width:1.25;" x="796.151625" xlink:href="#m26707f4dab" y="250.779278"/>
      </g>
     </g>
     <g id="text_39">
      <!-- 20000 -->
      <g style="fill:#262626;" transform="translate(805.651625 254.958419)scale(0.11 -0.11)">
       <use xlink:href="#DejaVuSans-32"/>
       <use x="63.623047" xlink:href="#DejaVuSans-30"/>
       <use x="127.246094" xlink:href="#DejaVuSans-30"/>
       <use x="190.869141" xlink:href="#DejaVuSans-30"/>
       <use x="254.492188" xlink:href="#DejaVuSans-30"/>
      </g>
     </g>
    </g>
    <g id="ytick_13">
     <g id="line2d_114">
      <g>
       <use style="fill:#262626;stroke:#262626;stroke-width:1.25;" x="796.151625" xlink:href="#m26707f4dab" y="195.42723"/>
      </g>
     </g>
     <g id="text_40">
      <!-- 25000 -->
      <g style="fill:#262626;" transform="translate(805.651625 199.60637)scale(0.11 -0.11)">
       <use xlink:href="#DejaVuSans-32"/>
       <use x="63.623047" xlink:href="#DejaVuSans-35"/>
       <use x="127.246094" xlink:href="#DejaVuSans-30"/>
       <use x="190.869141" xlink:href="#DejaVuSans-30"/>
       <use x="254.492188" xlink:href="#DejaVuSans-30"/>
      </g>
     </g>
    </g>
    <g id="ytick_14">
     <g id="line2d_115">
      <g>
       <use style="fill:#262626;stroke:#262626;stroke-width:1.25;" x="796.151625" xlink:href="#m26707f4dab" y="140.075181"/>
      </g>
     </g>
     <g id="text_41">
      <!-- 30000 -->
      <g style="fill:#262626;" transform="translate(805.651625 144.254322)scale(0.11 -0.11)">
       <use xlink:href="#DejaVuSans-33"/>
       <use x="63.623047" xlink:href="#DejaVuSans-30"/>
       <use x="127.246094" xlink:href="#DejaVuSans-30"/>
       <use x="190.869141" xlink:href="#DejaVuSans-30"/>
       <use x="254.492188" xlink:href="#DejaVuSans-30"/>
      </g>
     </g>
    </g>
    <g id="ytick_15">
     <g id="line2d_116">
      <g>
       <use style="fill:#262626;stroke:#262626;stroke-width:1.25;" x="796.151625" xlink:href="#m26707f4dab" y="84.723132"/>
      </g>
     </g>
     <g id="text_42">
      <!-- 35000 -->
      <g style="fill:#262626;" transform="translate(805.651625 88.902273)scale(0.11 -0.11)">
       <use xlink:href="#DejaVuSans-33"/>
       <use x="63.623047" xlink:href="#DejaVuSans-35"/>
       <use x="127.246094" xlink:href="#DejaVuSans-30"/>
       <use x="190.869141" xlink:href="#DejaVuSans-30"/>
       <use x="254.492188" xlink:href="#DejaVuSans-30"/>
      </g>
     </g>
    </g>
    <g id="ytick_16">
     <g id="line2d_117">
      <g>
       <use style="fill:#262626;stroke:#262626;stroke-width:1.25;" x="796.151625" xlink:href="#m26707f4dab" y="29.371084"/>
      </g>
     </g>
     <g id="text_43">
      <!-- 40000 -->
      <g style="fill:#262626;" transform="translate(805.651625 33.550224)scale(0.11 -0.11)">
       <use xlink:href="#DejaVuSans-34"/>
       <use x="63.623047" xlink:href="#DejaVuSans-30"/>
       <use x="127.246094" xlink:href="#DejaVuSans-30"/>
       <use x="190.869141" xlink:href="#DejaVuSans-30"/>
       <use x="254.492188" xlink:href="#DejaVuSans-30"/>
      </g>
     </g>
    </g>
    <g id="text_44">
     <!-- Newly administered doses -->
     <g style="fill:#262626;" transform="translate(851.52725 182.190506)rotate(-270)scale(0.12 -0.12)">
      <defs>
       <path d="M 628 4666 
L 1478 4666 
L 3547 763 
L 3547 4666 
L 4159 4666 
L 4159 0 
L 3309 0 
L 1241 3903 
L 1241 0 
L 628 0 
L 628 4666 
z
" id="DejaVuSans-4e" transform="scale(0.015625)"/>
       <path d="M 269 3500 
L 844 3500 
L 1563 769 
L 2278 3500 
L 2956 3500 
L 3675 769 
L 4391 3500 
L 4966 3500 
L 4050 0 
L 3372 0 
L 2619 2869 
L 1863 0 
L 1184 0 
L 269 3500 
z
" id="DejaVuSans-77" transform="scale(0.015625)"/>
       <path d="M 603 4863 
L 1178 4863 
L 1178 0 
L 603 0 
L 603 4863 
z
" id="DejaVuSans-6c" transform="scale(0.015625)"/>
       <path d="M 2059 -325 
Q 1816 -950 1584 -1140 
Q 1353 -1331 966 -1331 
L 506 -1331 
L 506 -850 
L 844 -850 
Q 1081 -850 1212 -737 
Q 1344 -625 1503 -206 
L 1606 56 
L 191 3500 
L 800 3500 
L 1894 763 
L 2988 3500 
L 3597 3500 
L 2059 -325 
z
" id="DejaVuSans-79" transform="scale(0.015625)"/>
      </defs>
      <use xlink:href="#DejaVuSans-4e"/>
      <use x="74.804688" xlink:href="#DejaVuSans-65"/>
      <use x="136.328125" xlink:href="#DejaVuSans-77"/>
      <use x="218.115234" xlink:href="#DejaVuSans-6c"/>
      <use x="245.898438" xlink:href="#DejaVuSans-79"/>
      <use x="305.078125" xlink:href="#DejaVuSans-20"/>
      <use x="336.865234" xlink:href="#DejaVuSans-61"/>
      <use x="398.144531" xlink:href="#DejaVuSans-64"/>
      <use x="461.621094" xlink:href="#DejaVuSans-6d"/>
      <use x="559.033203" xlink:href="#DejaVuSans-69"/>
      <use x="586.816406" xlink:href="#DejaVuSans-6e"/>
      <use x="650.195312" xlink:href="#DejaVuSans-69"/>
      <use x="677.978516" xlink:href="#DejaVuSans-73"/>
      <use x="730.078125" xlink:href="#DejaVuSans-74"/>
      <use x="769.287109" xlink:href="#DejaVuSans-65"/>
      <use x="830.810547" xlink:href="#DejaVuSans-72"/>
      <use x="869.673828" xlink:href="#DejaVuSans-65"/>
      <use x="931.197266" xlink:href="#DejaVuSans-64"/>
      <use x="994.673828" xlink:href="#DejaVuSans-20"/>
      <use x="1026.460938" xlink:href="#DejaVuSans-64"/>
      <use x="1089.9375" xlink:href="#DejaVuSans-6f"/>
      <use x="1151.119141" xlink:href="#DejaVuSans-73"/>
      <use x="1203.21875" xlink:href="#DejaVuSans-65"/>
      <use x="1264.742188" xlink:href="#DejaVuSans-73"/>
     </g>
    </g>
   </g>
   <g id="line2d_118">
    <path clip-path="url(#pb2a5308dd4)" d="M 92.599364 429.079297 
L 94.781936 464.2832 
L 96.964509 470.737249 
L 99.147081 472.187472 
L 105.694799 472.187472 
L 107.877371 464.338552 
L 110.059944 444.898912 
L 112.242517 436.71788 
L 114.425089 447.411895 
L 116.607662 470.881164 
L 118.790234 472.187472 
L 120.972807 464.57103 
L 123.155379 454.264479 
L 125.337952 458.260897 
L 127.520524 465.013847 
L 129.703097 467.316492 
L 131.88567 469.906968 
L 134.068242 470.847953 
L 136.250815 459.069037 
L 138.433387 443.537252 
L 140.61596 451.142623 
L 142.798532 459.744332 
L 144.981105 462.777624 
L 147.163677 471.988205 
L 149.34625 471.921782 
L 151.528822 464.936354 
L 153.711395 446.45984 
L 155.893968 430.175267 
L 158.07654 419.946209 
L 160.259113 437.105344 
L 162.441685 469.807334 
L 164.624258 471.025079 
L 166.80683 455.482224 
L 168.989403 435.843317 
L 171.171975 425.614259 
L 173.354548 429.001804 
L 175.537121 440.802861 
L 177.719693 470.460488 
L 179.902266 471.943923 
L 182.084838 451.707214 
L 184.267411 432.998222 
L 186.449983 430.839492 
L 188.632556 417.27824 
L 190.815128 432.655039 
L 192.997701 465.257396 
L 195.180273 471.434684 
L 197.362846 449.515273 
L 199.545419 428.990734 
L 201.727991 421.462855 
L 203.910564 421.33001 
L 206.093136 319.925057 
L 208.275709 426.931637 
L 210.458281 350.435106 
L 212.640854 342.564045 
L 214.823426 282.18603 
L 217.005999 248.166661 
L 219.188572 250.225758 
L 221.371144 295.869057 
L 223.553717 413.281822 
L 225.736289 442.463422 
L 227.918862 349.372347 
L 230.101434 248.199873 
L 232.284007 423.510881 
L 234.466579 246.627874 
L 236.649152 295.94655 
L 238.831724 442.806605 
L 241.014297 455.437942 
L 243.19687 411.289148 
L 245.379442 383.413857 
L 247.562015 394.761027 
L 249.744587 302.799133 
L 251.92716 336.973488 
L 254.109732 458.415883 
L 256.292305 461.393823 
L 258.474877 440.880354 
L 260.65745 424.728626 
L 262.840023 420.067983 
L 265.022595 412.96078 
L 267.205168 398.35891 
L 269.38774 429.832085 
L 271.570313 446.083446 
L 275.935458 334.526928 
L 278.11803 333.763069 
L 280.300603 313.969177 
L 282.483175 310.260589 
L 284.665748 428.680762 
L 286.848321 445.806686 
L 289.030893 372.487362 
L 291.213466 326.235191 
L 293.396038 320.390014 
L 295.578611 322.083787 
L 297.761183 338.423712 
L 299.943756 427.983326 
L 302.126328 455.670421 
L 304.308901 400.462288 
L 306.491473 366.066525 
L 308.674046 319.216551 
L 310.856619 261.152252 
L 313.039191 307.459776 
L 315.221764 431.60335 
L 317.404336 454.474817 
L 319.586909 391.041369 
L 321.769481 355.914959 
L 323.952054 307.437635 
L 326.134626 306.153467 
L 328.317199 319.925057 
L 330.499772 438.013118 
L 332.682344 458.60408 
L 334.864917 394.218577 
L 337.047489 341.036328 
L 339.230062 259.989859 
L 341.412634 228.461332 
L 343.595207 268.237314 
L 345.777779 425.359639 
L 347.960352 449.271724 
L 350.142924 351.409302 
L 352.325497 286.76918 
L 354.50807 191.497234 
L 356.690642 174.149902 
L 358.873215 336.165348 
L 361.055787 408.477264 
L 363.23836 434.492727 
L 365.420932 373.804741 
L 367.603505 348.940601 
L 369.786077 112.609494 
L 371.96865 393.255451 
L 374.151223 50.216665 
L 376.333795 360.951996 
L 378.516368 409.695009 
L 380.69894 190.168785 
L 382.881513 76.442466 
L 385.064085 68.383208 
L 387.246658 54.168802 
L 389.42923 104.240265 
L 391.611803 399.222402 
L 393.794375 434.658783 
L 395.976948 270.307481 
L 398.159521 183.570821 
L 400.342093 136.211608 
L 402.524666 93.535179 
L 404.707238 194.696582 
L 406.889811 401.912511 
L 409.072383 431.581209 
L 411.254956 414.931313 
L 413.437528 285.518224 
L 415.620101 241.280867 
L 417.802674 270.584241 
L 419.985246 258.041467 
L 422.167819 393.875394 
L 424.350391 416.337255 
L 426.532964 331.8811 
L 428.715536 272.388718 
L 430.898109 228.848796 
L 433.080681 215.874276 
L 435.263254 231.461413 
L 437.445826 405.864648 
L 439.628399 390.155736 
L 443.993544 231.295357 
L 446.176117 206.420146 
L 448.358689 209.121326 
L 450.541262 245.365848 
L 452.723834 417.189677 
L 454.906407 436.064725 
L 457.088979 365.313737 
L 459.271552 301.061079 
L 461.454125 277.259698 
L 463.636697 270.573171 
L 465.81927 303.585132 
L 468.001842 429.499972 
L 470.184415 437.503879 
L 472.366987 378.066849 
L 474.54956 331.34972 
L 476.732132 318.319848 
L 478.914705 314.854809 
L 481.097277 336.242841 
L 483.27985 437.80278 
L 485.462423 442.075958 
L 487.644995 382.97104 
L 489.827568 332.811014 
L 492.01014 328.139301 
L 494.192713 335.977151 
L 496.375285 342.386918 
L 498.557858 432.356138 
L 500.74043 448.308599 
L 502.923003 385.683291 
L 505.105576 342.652608 
L 507.288148 330.187327 
L 509.470721 336.264982 
L 511.653293 344.390663 
L 513.835866 436.042585 
L 516.018438 449.017105 
L 518.201011 379.085327 
L 520.383583 340.294611 
L 522.566156 339.043655 
L 524.748728 343.327903 
L 526.931301 354.032989 
L 529.113874 442.718042 
L 531.296446 449.559555 
L 533.479019 386.181459 
L 535.661591 361.693713 
L 537.844164 349.770882 
L 540.026736 346.671167 
L 542.209309 356.413128 
L 544.391881 432.998222 
L 546.574454 450.068794 
L 548.757027 377.723666 
L 550.939599 337.383093 
L 553.122172 328.582118 
L 555.304744 337.006699 
L 557.487317 350.911134 
L 559.669889 436.839654 
L 561.852462 448.220035 
L 564.035034 380.192368 
L 566.217607 335.1358 
L 568.400179 332.124649 
L 570.582752 333.652365 
L 572.765325 340.848131 
L 574.947897 435.898669 
L 577.13047 446.382347 
L 579.313042 372.730911 
L 581.495615 340.493878 
L 583.678187 335.866447 
L 585.86076 341.169173 
L 588.043332 356.224931 
L 590.225905 433.396757 
L 592.408477 447.987557 
L 594.59105 371.05928 
L 596.773623 337.02884 
L 598.956195 330.608003 
L 601.138768 337.936614 
L 603.32134 341.88875 
L 605.503913 431.182675 
L 607.686485 445.740263 
L 609.869058 362.822895 
L 612.05163 320.157536 
L 614.234203 319.515452 
L 616.416776 323.744348 
L 618.599348 333.962337 
L 620.781921 428.680762 
L 622.964493 444.068632 
L 625.147066 357.022 
L 627.329638 322.880857 
L 629.512211 338.92188 
L 631.694783 337.261319 
L 633.877356 337.194896 
L 636.059928 434.880192 
L 638.242501 448.408232 
L 640.425074 453.877015 
L 642.607646 346.350125 
L 644.790219 334.272308 
L 646.972791 340.361033 
L 649.155364 350.114064 
L 651.337936 438.168103 
L 653.520509 450.533751 
L 655.703081 383.137097 
L 657.885654 350.601162 
L 660.068227 358.36152 
L 662.250799 348.342799 
L 664.433372 356.545972 
L 666.615944 438.522356 
L 668.798517 453.400987 
L 670.981089 388.650161 
L 673.163662 360.774869 
L 675.346234 451.618651 
L 677.528807 345.530915 
L 679.711379 361.405882 
L 681.893952 444.887842 
L 684.076525 455.449013 
L 686.259097 414.521708 
L 688.44167 383.967377 
L 690.624242 372.487362 
L 692.806815 373.594403 
L 694.989387 394.008239 
L 697.17196 446.913727 
L 699.354532 457.973066 
L 701.537105 412.573316 
L 703.719678 390.211088 
L 705.90225 392.713001 
L 708.084823 386.845684 
L 710.267395 392.447311 
L 712.449968 446.338066 
L 714.63254 458.692643 
L 716.815113 415.008806 
L 718.997685 387.2885 
L 721.180258 410.768839 
L 723.36283 382.982111 
L 725.545403 376.660907 
L 727.727976 439.806524 
L 729.910548 452.371439 
L 732.093121 403.539862 
L 734.275693 371.568518 
L 736.458266 322.925138 
L 738.640838 159.548032 
L 740.823411 206.088034 
L 743.005983 342.829735 
L 745.188556 392.978691 
L 747.371129 304.360061 
L 749.553701 117.867939 
L 751.736274 190.888362 
L 753.918846 213.361293 
L 756.101419 215.97391 
L 758.283991 386.557853 
L 760.466564 417.156466 
L 762.649136 311.378701 
L 762.649136 311.378701 
" style="fill:none;stroke:#ff0000;stroke-linecap:round;stroke-width:1.5;"/>
   </g>
   <g id="patch_7">
    <path d="M 59.096875 493.286013 
L 59.096875 29.118125 
" style="fill:none;stroke:#262626;stroke-linecap:square;stroke-linejoin:miter;stroke-width:1.25;"/>
   </g>
   <g id="patch_8">
    <path d="M 796.151625 493.286013 
L 796.151625 29.118125 
" style="fill:none;stroke:#262626;stroke-linecap:square;stroke-linejoin:miter;stroke-width:1.25;"/>
   </g>
   <g id="patch_9">
    <path d="M 59.096875 493.286013 
L 796.151625 493.286013 
" style="fill:none;stroke:#262626;stroke-linecap:square;stroke-linejoin:miter;stroke-width:1.25;"/>
   </g>
   <g id="patch_10">
    <path d="M 59.096875 29.118125 
L 796.151625 29.118125 
" style="fill:none;stroke:#262626;stroke-linecap:square;stroke-linejoin:miter;stroke-width:1.25;"/>
   </g>
   <g id="legend_1">
    <g id="patch_11">
     <path d="M 579.174906 70.21 
L 788.451625 70.21 
Q 790.651625 70.21 790.651625 68.01 
L 790.651625 36.818125 
Q 790.651625 34.618125 788.451625 34.618125 
L 579.174906 34.618125 
Q 576.974906 34.618125 576.974906 36.818125 
L 576.974906 68.01 
Q 576.974906 70.21 579.174906 70.21 
z
" style="fill:#ffffff;opacity:0.8;stroke:#cccccc;stroke-linejoin:miter;"/>
    </g>
    <g id="line2d_119">
     <path d="M 581.374906 43.526406 
L 603.374906 43.526406 
" style="fill:none;stroke:#0000ff;stroke-linecap:round;stroke-width:1.5;"/>
    </g>
    <g id="line2d_120"/>
    <g id="text_45">
     <!-- Cumulative administered doses -->
     <g style="fill:#262626;" transform="translate(612.174906 47.376406)scale(0.11 -0.11)">
      <defs>
       <path d="M 4122 4306 
L 4122 3641 
Q 3803 3938 3442 4084 
Q 3081 4231 2675 4231 
Q 1875 4231 1450 3742 
Q 1025 3253 1025 2328 
Q 1025 1406 1450 917 
Q 1875 428 2675 428 
Q 3081 428 3442 575 
Q 3803 722 4122 1019 
L 4122 359 
Q 3791 134 3420 21 
Q 3050 -91 2638 -91 
Q 1578 -91 968 557 
Q 359 1206 359 2328 
Q 359 3453 968 4101 
Q 1578 4750 2638 4750 
Q 3056 4750 3426 4639 
Q 3797 4528 4122 4306 
z
" id="DejaVuSans-43" transform="scale(0.015625)"/>
       <path d="M 191 3500 
L 800 3500 
L 1894 563 
L 2988 3500 
L 3597 3500 
L 2284 0 
L 1503 0 
L 191 3500 
z
" id="DejaVuSans-76" transform="scale(0.015625)"/>
      </defs>
      <use xlink:href="#DejaVuSans-43"/>
      <use x="69.824219" xlink:href="#DejaVuSans-75"/>
      <use x="133.203125" xlink:href="#DejaVuSans-6d"/>
      <use x="230.615234" xlink:href="#DejaVuSans-75"/>
      <use x="293.994141" xlink:href="#DejaVuSans-6c"/>
      <use x="321.777344" xlink:href="#DejaVuSans-61"/>
      <use x="383.056641" xlink:href="#DejaVuSans-74"/>
      <use x="422.265625" xlink:href="#DejaVuSans-69"/>
      <use x="450.048828" xlink:href="#DejaVuSans-76"/>
      <use x="509.228516" xlink:href="#DejaVuSans-65"/>
      <use x="570.751953" xlink:href="#DejaVuSans-20"/>
      <use x="602.539062" xlink:href="#DejaVuSans-61"/>
      <use x="663.818359" xlink:href="#DejaVuSans-64"/>
      <use x="727.294922" xlink:href="#DejaVuSans-6d"/>
      <use x="824.707031" xlink:href="#DejaVuSans-69"/>
      <use x="852.490234" xlink:href="#DejaVuSans-6e"/>
      <use x="915.869141" xlink:href="#DejaVuSans-69"/>
      <use x="943.652344" xlink:href="#DejaVuSans-73"/>
      <use x="995.751953" xlink:href="#DejaVuSans-74"/>
      <use x="1034.960938" xlink:href="#DejaVuSans-65"/>
      <use x="1096.484375" xlink:href="#DejaVuSans-72"/>
      <use x="1135.347656" xlink:href="#DejaVuSans-65"/>
      <use x="1196.871094" xlink:href="#DejaVuSans-64"/>
      <use x="1260.347656" xlink:href="#DejaVuSans-20"/>
      <use x="1292.134766" xlink:href="#DejaVuSans-64"/>
      <use x="1355.611328" xlink:href="#DejaVuSans-6f"/>
      <use x="1416.792969" xlink:href="#DejaVuSans-73"/>
      <use x="1468.892578" xlink:href="#DejaVuSans-65"/>
      <use x="1530.416016" xlink:href="#DejaVuSans-73"/>
     </g>
    </g>
    <g id="line2d_121">
     <path d="M 581.374906 59.672344 
L 603.374906 59.672344 
" style="fill:none;stroke:#ff0000;stroke-linecap:round;stroke-width:1.5;"/>
    </g>
    <g id="line2d_122"/>
    <g id="text_46">
     <!-- Newly administered doses -->
     <g style="fill:#262626;" transform="translate(612.174906 63.522344)scale(0.11 -0.11)">
      <use xlink:href="#DejaVuSans-4e"/>
      <use x="74.804688" xlink:href="#DejaVuSans-65"/>
      <use x="136.328125" xlink:href="#DejaVuSans-77"/>
      <use x="218.115234" xlink:href="#DejaVuSans-6c"/>
      <use x="245.898438" xlink:href="#DejaVuSans-79"/>
      <use x="305.078125" xlink:href="#DejaVuSans-20"/>
      <use x="336.865234" xlink:href="#DejaVuSans-61"/>
      <use x="398.144531" xlink:href="#DejaVuSans-64"/>
      <use x="461.621094" xlink:href="#DejaVuSans-6d"/>
      <use x="559.033203" xlink:href="#DejaVuSans-69"/>
      <use x="586.816406" xlink:href="#DejaVuSans-6e"/>
      <use x="650.195312" xlink:href="#DejaVuSans-69"/>
      <use x="677.978516" xlink:href="#DejaVuSans-73"/>
      <use x="730.078125" xlink:href="#DejaVuSans-74"/>
      <use x="769.287109" xlink:href="#DejaVuSans-65"/>
      <use x="830.810547" xlink:href="#DejaVuSans-72"/>
      <use x="869.673828" xlink:href="#DejaVuSans-65"/>
      <use x="931.197266" xlink:href="#DejaVuSans-64"/>
      <use x="994.673828" xlink:href="#DejaVuSans-20"/>
      <use x="1026.460938" xlink:href="#DejaVuSans-64"/>
      <use x="1089.9375" xlink:href="#DejaVuSans-6f"/>
      <use x="1151.119141" xlink:href="#DejaVuSans-73"/>
      <use x="1203.21875" xlink:href="#DejaVuSans-65"/>
      <use x="1264.742188" xlink:href="#DejaVuSans-73"/>
     </g>
    </g>
   </g>
  </g>
 </g>
 <defs>
  <clipPath id="pb2a5308dd4">
   <rect height="464.167888" width="737.05475" x="59.096875" y="29.118125"/>
  </clipPath>
 </defs>
</svg>
