<?xml version="1.0" encoding="utf-8" standalone="no"?>
<!DOCTYPE svg PUBLIC "-//W3C//DTD SVG 1.1//EN"
  "http://www.w3.org/Graphics/SVG/1.1/DTD/svg11.dtd">
<svg height="570.462488pt" version="1.1" viewBox="0 0 858.685725 570.462488" width="858.685725pt" xmlns="http://www.w3.org/2000/svg" xmlns:xlink="http://www.w3.org/1999/xlink">
 <metadata>
  <rdf:RDF xmlns:cc="http://creativecommons.org/ns#" xmlns:dc="http://purl.org/dc/elements/1.1/" xmlns:rdf="http://www.w3.org/1999/02/22-rdf-syntax-ns#">
   <cc:Work>
    <dc:type rdf:resource="http://purl.org/dc/dcmitype/StillImage"/>
    <dc:date>2021-11-12T01:39:15.069347</dc:date>
    <dc:format>image/svg+xml</dc:format>
    <dc:creator>
     <cc:Agent>
      <dc:title>Matplotlib v3.4.3, https://matplotlib.org/</dc:title>
     </cc:Agent>
    </dc:creator>
   </cc:Work>
  </rdf:RDF>
 </metadata>
 <defs>
  <style type="text/css">*{stroke-linecap:butt;stroke-linejoin:round;}</style>
 </defs>
 <g id="figure_1">
  <g id="patch_1">
   <path d="M 0 570.462488 
L 858.685725 570.462488 
L 858.685725 0 
L 0 0 
z
" style="fill:none;"/>
  </g>
  <g id="axes_1">
   <g id="patch_2">
    <path d="M 52.098125 493.286013 
L 794.191975 493.286013 
L 794.191975 29.118125 
L 52.098125 29.118125 
z
" style="fill:none;"/>
   </g>
   <g id="matplotlib.axis_1">
    <g id="xtick_1">
     <g id="line2d_1">
      <path clip-path="url(#pfc51f15c5e)" d="M 85.829664 493.286013 
L 85.829664 29.118125 
" style="fill:none;stroke:#cccccc;stroke-linecap:round;"/>
     </g>
     <g id="line2d_2">
      <defs>
       <path d="M 0 0 
L 0 6 
" id="ma980c95706" style="stroke:#262626;stroke-width:1.25;"/>
      </defs>
      <g>
       <use style="fill:#262626;stroke:#262626;stroke-width:1.25;" x="85.829664" xlink:href="#ma980c95706" y="493.286013"/>
      </g>
     </g>
     <g id="text_1">
      <!-- 29.12.2020 -->
      <g style="fill:#262626;" transform="translate(39.677135 553.231121)rotate(-45)scale(0.11 -0.11)">
       <defs>
        <path d="M 1228 531 
L 3431 531 
L 3431 0 
L 469 0 
L 469 531 
Q 828 903 1448 1529 
Q 2069 2156 2228 2338 
Q 2531 2678 2651 2914 
Q 2772 3150 2772 3378 
Q 2772 3750 2511 3984 
Q 2250 4219 1831 4219 
Q 1534 4219 1204 4116 
Q 875 4013 500 3803 
L 500 4441 
Q 881 4594 1212 4672 
Q 1544 4750 1819 4750 
Q 2544 4750 2975 4387 
Q 3406 4025 3406 3419 
Q 3406 3131 3298 2873 
Q 3191 2616 2906 2266 
Q 2828 2175 2409 1742 
Q 1991 1309 1228 531 
z
" id="DejaVuSans-32" transform="scale(0.015625)"/>
        <path d="M 703 97 
L 703 672 
Q 941 559 1184 500 
Q 1428 441 1663 441 
Q 2288 441 2617 861 
Q 2947 1281 2994 2138 
Q 2813 1869 2534 1725 
Q 2256 1581 1919 1581 
Q 1219 1581 811 2004 
Q 403 2428 403 3163 
Q 403 3881 828 4315 
Q 1253 4750 1959 4750 
Q 2769 4750 3195 4129 
Q 3622 3509 3622 2328 
Q 3622 1225 3098 567 
Q 2575 -91 1691 -91 
Q 1453 -91 1209 -44 
Q 966 3 703 97 
z
M 1959 2075 
Q 2384 2075 2632 2365 
Q 2881 2656 2881 3163 
Q 2881 3666 2632 3958 
Q 2384 4250 1959 4250 
Q 1534 4250 1286 3958 
Q 1038 3666 1038 3163 
Q 1038 2656 1286 2365 
Q 1534 2075 1959 2075 
z
" id="DejaVuSans-39" transform="scale(0.015625)"/>
        <path d="M 684 794 
L 1344 794 
L 1344 0 
L 684 0 
L 684 794 
z
" id="DejaVuSans-2e" transform="scale(0.015625)"/>
        <path d="M 794 531 
L 1825 531 
L 1825 4091 
L 703 3866 
L 703 4441 
L 1819 4666 
L 2450 4666 
L 2450 531 
L 3481 531 
L 3481 0 
L 794 0 
L 794 531 
z
" id="DejaVuSans-31" transform="scale(0.015625)"/>
        <path d="M 2034 4250 
Q 1547 4250 1301 3770 
Q 1056 3291 1056 2328 
Q 1056 1369 1301 889 
Q 1547 409 2034 409 
Q 2525 409 2770 889 
Q 3016 1369 3016 2328 
Q 3016 3291 2770 3770 
Q 2525 4250 2034 4250 
z
M 2034 4750 
Q 2819 4750 3233 4129 
Q 3647 3509 3647 2328 
Q 3647 1150 3233 529 
Q 2819 -91 2034 -91 
Q 1250 -91 836 529 
Q 422 1150 422 2328 
Q 422 3509 836 4129 
Q 1250 4750 2034 4750 
z
" id="DejaVuSans-30" transform="scale(0.015625)"/>
       </defs>
       <use xlink:href="#DejaVuSans-32"/>
       <use x="63.623047" xlink:href="#DejaVuSans-39"/>
       <use x="127.246094" xlink:href="#DejaVuSans-2e"/>
       <use x="159.033203" xlink:href="#DejaVuSans-31"/>
       <use x="222.65625" xlink:href="#DejaVuSans-32"/>
       <use x="286.279297" xlink:href="#DejaVuSans-2e"/>
       <use x="318.066406" xlink:href="#DejaVuSans-32"/>
       <use x="381.689453" xlink:href="#DejaVuSans-30"/>
       <use x="445.3125" xlink:href="#DejaVuSans-32"/>
       <use x="508.935547" xlink:href="#DejaVuSans-30"/>
      </g>
     </g>
    </g>
    <g id="xtick_2">
     <g id="line2d_3">
      <path clip-path="url(#pfc51f15c5e)" d="M 115.624083 493.286013 
L 115.624083 29.118125 
" style="fill:none;stroke:#cccccc;stroke-linecap:round;"/>
     </g>
     <g id="line2d_4">
      <g>
       <use style="fill:#262626;stroke:#262626;stroke-width:1.25;" x="115.624083" xlink:href="#ma980c95706" y="493.286013"/>
      </g>
     </g>
     <g id="text_2">
      <!-- 12.01.2021 -->
      <g style="fill:#262626;" transform="translate(69.471554 553.231121)rotate(-45)scale(0.11 -0.11)">
       <use xlink:href="#DejaVuSans-31"/>
       <use x="63.623047" xlink:href="#DejaVuSans-32"/>
       <use x="127.246094" xlink:href="#DejaVuSans-2e"/>
       <use x="159.033203" xlink:href="#DejaVuSans-30"/>
       <use x="222.65625" xlink:href="#DejaVuSans-31"/>
       <use x="286.279297" xlink:href="#DejaVuSans-2e"/>
       <use x="318.066406" xlink:href="#DejaVuSans-32"/>
       <use x="381.689453" xlink:href="#DejaVuSans-30"/>
       <use x="445.3125" xlink:href="#DejaVuSans-32"/>
       <use x="508.935547" xlink:href="#DejaVuSans-31"/>
      </g>
     </g>
    </g>
    <g id="xtick_3">
     <g id="line2d_5">
      <path clip-path="url(#pfc51f15c5e)" d="M 145.418502 493.286013 
L 145.418502 29.118125 
" style="fill:none;stroke:#cccccc;stroke-linecap:round;"/>
     </g>
     <g id="line2d_6">
      <g>
       <use style="fill:#262626;stroke:#262626;stroke-width:1.25;" x="145.418502" xlink:href="#ma980c95706" y="493.286013"/>
      </g>
     </g>
     <g id="text_3">
      <!-- 26.01.2021 -->
      <g style="fill:#262626;" transform="translate(99.265973 553.231121)rotate(-45)scale(0.11 -0.11)">
       <defs>
        <path d="M 2113 2584 
Q 1688 2584 1439 2293 
Q 1191 2003 1191 1497 
Q 1191 994 1439 701 
Q 1688 409 2113 409 
Q 2538 409 2786 701 
Q 3034 994 3034 1497 
Q 3034 2003 2786 2293 
Q 2538 2584 2113 2584 
z
M 3366 4563 
L 3366 3988 
Q 3128 4100 2886 4159 
Q 2644 4219 2406 4219 
Q 1781 4219 1451 3797 
Q 1122 3375 1075 2522 
Q 1259 2794 1537 2939 
Q 1816 3084 2150 3084 
Q 2853 3084 3261 2657 
Q 3669 2231 3669 1497 
Q 3669 778 3244 343 
Q 2819 -91 2113 -91 
Q 1303 -91 875 529 
Q 447 1150 447 2328 
Q 447 3434 972 4092 
Q 1497 4750 2381 4750 
Q 2619 4750 2861 4703 
Q 3103 4656 3366 4563 
z
" id="DejaVuSans-36" transform="scale(0.015625)"/>
       </defs>
       <use xlink:href="#DejaVuSans-32"/>
       <use x="63.623047" xlink:href="#DejaVuSans-36"/>
       <use x="127.246094" xlink:href="#DejaVuSans-2e"/>
       <use x="159.033203" xlink:href="#DejaVuSans-30"/>
       <use x="222.65625" xlink:href="#DejaVuSans-31"/>
       <use x="286.279297" xlink:href="#DejaVuSans-2e"/>
       <use x="318.066406" xlink:href="#DejaVuSans-32"/>
       <use x="381.689453" xlink:href="#DejaVuSans-30"/>
       <use x="445.3125" xlink:href="#DejaVuSans-32"/>
       <use x="508.935547" xlink:href="#DejaVuSans-31"/>
      </g>
     </g>
    </g>
    <g id="xtick_4">
     <g id="line2d_7">
      <path clip-path="url(#pfc51f15c5e)" d="M 175.212921 493.286013 
L 175.212921 29.118125 
" style="fill:none;stroke:#cccccc;stroke-linecap:round;"/>
     </g>
     <g id="line2d_8">
      <g>
       <use style="fill:#262626;stroke:#262626;stroke-width:1.25;" x="175.212921" xlink:href="#ma980c95706" y="493.286013"/>
      </g>
     </g>
     <g id="text_4">
      <!-- 09.02.2021 -->
      <g style="fill:#262626;" transform="translate(129.060392 553.231121)rotate(-45)scale(0.11 -0.11)">
       <use xlink:href="#DejaVuSans-30"/>
       <use x="63.623047" xlink:href="#DejaVuSans-39"/>
       <use x="127.246094" xlink:href="#DejaVuSans-2e"/>
       <use x="159.033203" xlink:href="#DejaVuSans-30"/>
       <use x="222.65625" xlink:href="#DejaVuSans-32"/>
       <use x="286.279297" xlink:href="#DejaVuSans-2e"/>
       <use x="318.066406" xlink:href="#DejaVuSans-32"/>
       <use x="381.689453" xlink:href="#DejaVuSans-30"/>
       <use x="445.3125" xlink:href="#DejaVuSans-32"/>
       <use x="508.935547" xlink:href="#DejaVuSans-31"/>
      </g>
     </g>
    </g>
    <g id="xtick_5">
     <g id="line2d_9">
      <path clip-path="url(#pfc51f15c5e)" d="M 205.00734 493.286013 
L 205.00734 29.118125 
" style="fill:none;stroke:#cccccc;stroke-linecap:round;"/>
     </g>
     <g id="line2d_10">
      <g>
       <use style="fill:#262626;stroke:#262626;stroke-width:1.25;" x="205.00734" xlink:href="#ma980c95706" y="493.286013"/>
      </g>
     </g>
     <g id="text_5">
      <!-- 23.02.2021 -->
      <g style="fill:#262626;" transform="translate(158.854811 553.231121)rotate(-45)scale(0.11 -0.11)">
       <defs>
        <path d="M 2597 2516 
Q 3050 2419 3304 2112 
Q 3559 1806 3559 1356 
Q 3559 666 3084 287 
Q 2609 -91 1734 -91 
Q 1441 -91 1130 -33 
Q 819 25 488 141 
L 488 750 
Q 750 597 1062 519 
Q 1375 441 1716 441 
Q 2309 441 2620 675 
Q 2931 909 2931 1356 
Q 2931 1769 2642 2001 
Q 2353 2234 1838 2234 
L 1294 2234 
L 1294 2753 
L 1863 2753 
Q 2328 2753 2575 2939 
Q 2822 3125 2822 3475 
Q 2822 3834 2567 4026 
Q 2313 4219 1838 4219 
Q 1578 4219 1281 4162 
Q 984 4106 628 3988 
L 628 4550 
Q 988 4650 1302 4700 
Q 1616 4750 1894 4750 
Q 2613 4750 3031 4423 
Q 3450 4097 3450 3541 
Q 3450 3153 3228 2886 
Q 3006 2619 2597 2516 
z
" id="DejaVuSans-33" transform="scale(0.015625)"/>
       </defs>
       <use xlink:href="#DejaVuSans-32"/>
       <use x="63.623047" xlink:href="#DejaVuSans-33"/>
       <use x="127.246094" xlink:href="#DejaVuSans-2e"/>
       <use x="159.033203" xlink:href="#DejaVuSans-30"/>
       <use x="222.65625" xlink:href="#DejaVuSans-32"/>
       <use x="286.279297" xlink:href="#DejaVuSans-2e"/>
       <use x="318.066406" xlink:href="#DejaVuSans-32"/>
       <use x="381.689453" xlink:href="#DejaVuSans-30"/>
       <use x="445.3125" xlink:href="#DejaVuSans-32"/>
       <use x="508.935547" xlink:href="#DejaVuSans-31"/>
      </g>
     </g>
    </g>
    <g id="xtick_6">
     <g id="line2d_11">
      <path clip-path="url(#pfc51f15c5e)" d="M 234.801759 493.286013 
L 234.801759 29.118125 
" style="fill:none;stroke:#cccccc;stroke-linecap:round;"/>
     </g>
     <g id="line2d_12">
      <g>
       <use style="fill:#262626;stroke:#262626;stroke-width:1.25;" x="234.801759" xlink:href="#ma980c95706" y="493.286013"/>
      </g>
     </g>
     <g id="text_6">
      <!-- 09.03.2021 -->
      <g style="fill:#262626;" transform="translate(188.64923 553.231121)rotate(-45)scale(0.11 -0.11)">
       <use xlink:href="#DejaVuSans-30"/>
       <use x="63.623047" xlink:href="#DejaVuSans-39"/>
       <use x="127.246094" xlink:href="#DejaVuSans-2e"/>
       <use x="159.033203" xlink:href="#DejaVuSans-30"/>
       <use x="222.65625" xlink:href="#DejaVuSans-33"/>
       <use x="286.279297" xlink:href="#DejaVuSans-2e"/>
       <use x="318.066406" xlink:href="#DejaVuSans-32"/>
       <use x="381.689453" xlink:href="#DejaVuSans-30"/>
       <use x="445.3125" xlink:href="#DejaVuSans-32"/>
       <use x="508.935547" xlink:href="#DejaVuSans-31"/>
      </g>
     </g>
    </g>
    <g id="xtick_7">
     <g id="line2d_13">
      <path clip-path="url(#pfc51f15c5e)" d="M 264.596178 493.286013 
L 264.596178 29.118125 
" style="fill:none;stroke:#cccccc;stroke-linecap:round;"/>
     </g>
     <g id="line2d_14">
      <g>
       <use style="fill:#262626;stroke:#262626;stroke-width:1.25;" x="264.596178" xlink:href="#ma980c95706" y="493.286013"/>
      </g>
     </g>
     <g id="text_7">
      <!-- 23.03.2021 -->
      <g style="fill:#262626;" transform="translate(218.443649 553.231121)rotate(-45)scale(0.11 -0.11)">
       <use xlink:href="#DejaVuSans-32"/>
       <use x="63.623047" xlink:href="#DejaVuSans-33"/>
       <use x="127.246094" xlink:href="#DejaVuSans-2e"/>
       <use x="159.033203" xlink:href="#DejaVuSans-30"/>
       <use x="222.65625" xlink:href="#DejaVuSans-33"/>
       <use x="286.279297" xlink:href="#DejaVuSans-2e"/>
       <use x="318.066406" xlink:href="#DejaVuSans-32"/>
       <use x="381.689453" xlink:href="#DejaVuSans-30"/>
       <use x="445.3125" xlink:href="#DejaVuSans-32"/>
       <use x="508.935547" xlink:href="#DejaVuSans-31"/>
      </g>
     </g>
    </g>
    <g id="xtick_8">
     <g id="line2d_15">
      <path clip-path="url(#pfc51f15c5e)" d="M 294.390597 493.286013 
L 294.390597 29.118125 
" style="fill:none;stroke:#cccccc;stroke-linecap:round;"/>
     </g>
     <g id="line2d_16">
      <g>
       <use style="fill:#262626;stroke:#262626;stroke-width:1.25;" x="294.390597" xlink:href="#ma980c95706" y="493.286013"/>
      </g>
     </g>
     <g id="text_8">
      <!-- 06.04.2021 -->
      <g style="fill:#262626;" transform="translate(248.238068 553.231121)rotate(-45)scale(0.11 -0.11)">
       <defs>
        <path d="M 2419 4116 
L 825 1625 
L 2419 1625 
L 2419 4116 
z
M 2253 4666 
L 3047 4666 
L 3047 1625 
L 3713 1625 
L 3713 1100 
L 3047 1100 
L 3047 0 
L 2419 0 
L 2419 1100 
L 313 1100 
L 313 1709 
L 2253 4666 
z
" id="DejaVuSans-34" transform="scale(0.015625)"/>
       </defs>
       <use xlink:href="#DejaVuSans-30"/>
       <use x="63.623047" xlink:href="#DejaVuSans-36"/>
       <use x="127.246094" xlink:href="#DejaVuSans-2e"/>
       <use x="159.033203" xlink:href="#DejaVuSans-30"/>
       <use x="222.65625" xlink:href="#DejaVuSans-34"/>
       <use x="286.279297" xlink:href="#DejaVuSans-2e"/>
       <use x="318.066406" xlink:href="#DejaVuSans-32"/>
       <use x="381.689453" xlink:href="#DejaVuSans-30"/>
       <use x="445.3125" xlink:href="#DejaVuSans-32"/>
       <use x="508.935547" xlink:href="#DejaVuSans-31"/>
      </g>
     </g>
    </g>
    <g id="xtick_9">
     <g id="line2d_17">
      <path clip-path="url(#pfc51f15c5e)" d="M 324.185016 493.286013 
L 324.185016 29.118125 
" style="fill:none;stroke:#cccccc;stroke-linecap:round;"/>
     </g>
     <g id="line2d_18">
      <g>
       <use style="fill:#262626;stroke:#262626;stroke-width:1.25;" x="324.185016" xlink:href="#ma980c95706" y="493.286013"/>
      </g>
     </g>
     <g id="text_9">
      <!-- 20.04.2021 -->
      <g style="fill:#262626;" transform="translate(278.032487 553.231121)rotate(-45)scale(0.11 -0.11)">
       <use xlink:href="#DejaVuSans-32"/>
       <use x="63.623047" xlink:href="#DejaVuSans-30"/>
       <use x="127.246094" xlink:href="#DejaVuSans-2e"/>
       <use x="159.033203" xlink:href="#DejaVuSans-30"/>
       <use x="222.65625" xlink:href="#DejaVuSans-34"/>
       <use x="286.279297" xlink:href="#DejaVuSans-2e"/>
       <use x="318.066406" xlink:href="#DejaVuSans-32"/>
       <use x="381.689453" xlink:href="#DejaVuSans-30"/>
       <use x="445.3125" xlink:href="#DejaVuSans-32"/>
       <use x="508.935547" xlink:href="#DejaVuSans-31"/>
      </g>
     </g>
    </g>
    <g id="xtick_10">
     <g id="line2d_19">
      <path clip-path="url(#pfc51f15c5e)" d="M 353.979434 493.286013 
L 353.979434 29.118125 
" style="fill:none;stroke:#cccccc;stroke-linecap:round;"/>
     </g>
     <g id="line2d_20">
      <g>
       <use style="fill:#262626;stroke:#262626;stroke-width:1.25;" x="353.979434" xlink:href="#ma980c95706" y="493.286013"/>
      </g>
     </g>
     <g id="text_10">
      <!-- 04.05.2021 -->
      <g style="fill:#262626;" transform="translate(307.826906 553.231121)rotate(-45)scale(0.11 -0.11)">
       <defs>
        <path d="M 691 4666 
L 3169 4666 
L 3169 4134 
L 1269 4134 
L 1269 2991 
Q 1406 3038 1543 3061 
Q 1681 3084 1819 3084 
Q 2600 3084 3056 2656 
Q 3513 2228 3513 1497 
Q 3513 744 3044 326 
Q 2575 -91 1722 -91 
Q 1428 -91 1123 -41 
Q 819 9 494 109 
L 494 744 
Q 775 591 1075 516 
Q 1375 441 1709 441 
Q 2250 441 2565 725 
Q 2881 1009 2881 1497 
Q 2881 1984 2565 2268 
Q 2250 2553 1709 2553 
Q 1456 2553 1204 2497 
Q 953 2441 691 2322 
L 691 4666 
z
" id="DejaVuSans-35" transform="scale(0.015625)"/>
       </defs>
       <use xlink:href="#DejaVuSans-30"/>
       <use x="63.623047" xlink:href="#DejaVuSans-34"/>
       <use x="127.246094" xlink:href="#DejaVuSans-2e"/>
       <use x="159.033203" xlink:href="#DejaVuSans-30"/>
       <use x="222.65625" xlink:href="#DejaVuSans-35"/>
       <use x="286.279297" xlink:href="#DejaVuSans-2e"/>
       <use x="318.066406" xlink:href="#DejaVuSans-32"/>
       <use x="381.689453" xlink:href="#DejaVuSans-30"/>
       <use x="445.3125" xlink:href="#DejaVuSans-32"/>
       <use x="508.935547" xlink:href="#DejaVuSans-31"/>
      </g>
     </g>
    </g>
    <g id="xtick_11">
     <g id="line2d_21">
      <path clip-path="url(#pfc51f15c5e)" d="M 383.773853 493.286013 
L 383.773853 29.118125 
" style="fill:none;stroke:#cccccc;stroke-linecap:round;"/>
     </g>
     <g id="line2d_22">
      <g>
       <use style="fill:#262626;stroke:#262626;stroke-width:1.25;" x="383.773853" xlink:href="#ma980c95706" y="493.286013"/>
      </g>
     </g>
     <g id="text_11">
      <!-- 18.05.2021 -->
      <g style="fill:#262626;" transform="translate(337.621325 553.231121)rotate(-45)scale(0.11 -0.11)">
       <defs>
        <path d="M 2034 2216 
Q 1584 2216 1326 1975 
Q 1069 1734 1069 1313 
Q 1069 891 1326 650 
Q 1584 409 2034 409 
Q 2484 409 2743 651 
Q 3003 894 3003 1313 
Q 3003 1734 2745 1975 
Q 2488 2216 2034 2216 
z
M 1403 2484 
Q 997 2584 770 2862 
Q 544 3141 544 3541 
Q 544 4100 942 4425 
Q 1341 4750 2034 4750 
Q 2731 4750 3128 4425 
Q 3525 4100 3525 3541 
Q 3525 3141 3298 2862 
Q 3072 2584 2669 2484 
Q 3125 2378 3379 2068 
Q 3634 1759 3634 1313 
Q 3634 634 3220 271 
Q 2806 -91 2034 -91 
Q 1263 -91 848 271 
Q 434 634 434 1313 
Q 434 1759 690 2068 
Q 947 2378 1403 2484 
z
M 1172 3481 
Q 1172 3119 1398 2916 
Q 1625 2713 2034 2713 
Q 2441 2713 2670 2916 
Q 2900 3119 2900 3481 
Q 2900 3844 2670 4047 
Q 2441 4250 2034 4250 
Q 1625 4250 1398 4047 
Q 1172 3844 1172 3481 
z
" id="DejaVuSans-38" transform="scale(0.015625)"/>
       </defs>
       <use xlink:href="#DejaVuSans-31"/>
       <use x="63.623047" xlink:href="#DejaVuSans-38"/>
       <use x="127.246094" xlink:href="#DejaVuSans-2e"/>
       <use x="159.033203" xlink:href="#DejaVuSans-30"/>
       <use x="222.65625" xlink:href="#DejaVuSans-35"/>
       <use x="286.279297" xlink:href="#DejaVuSans-2e"/>
       <use x="318.066406" xlink:href="#DejaVuSans-32"/>
       <use x="381.689453" xlink:href="#DejaVuSans-30"/>
       <use x="445.3125" xlink:href="#DejaVuSans-32"/>
       <use x="508.935547" xlink:href="#DejaVuSans-31"/>
      </g>
     </g>
    </g>
    <g id="xtick_12">
     <g id="line2d_23">
      <path clip-path="url(#pfc51f15c5e)" d="M 413.568272 493.286013 
L 413.568272 29.118125 
" style="fill:none;stroke:#cccccc;stroke-linecap:round;"/>
     </g>
     <g id="line2d_24">
      <g>
       <use style="fill:#262626;stroke:#262626;stroke-width:1.25;" x="413.568272" xlink:href="#ma980c95706" y="493.286013"/>
      </g>
     </g>
     <g id="text_12">
      <!-- 01.06.2021 -->
      <g style="fill:#262626;" transform="translate(367.415744 553.231121)rotate(-45)scale(0.11 -0.11)">
       <use xlink:href="#DejaVuSans-30"/>
       <use x="63.623047" xlink:href="#DejaVuSans-31"/>
       <use x="127.246094" xlink:href="#DejaVuSans-2e"/>
       <use x="159.033203" xlink:href="#DejaVuSans-30"/>
       <use x="222.65625" xlink:href="#DejaVuSans-36"/>
       <use x="286.279297" xlink:href="#DejaVuSans-2e"/>
       <use x="318.066406" xlink:href="#DejaVuSans-32"/>
       <use x="381.689453" xlink:href="#DejaVuSans-30"/>
       <use x="445.3125" xlink:href="#DejaVuSans-32"/>
       <use x="508.935547" xlink:href="#DejaVuSans-31"/>
      </g>
     </g>
    </g>
    <g id="xtick_13">
     <g id="line2d_25">
      <path clip-path="url(#pfc51f15c5e)" d="M 443.362691 493.286013 
L 443.362691 29.118125 
" style="fill:none;stroke:#cccccc;stroke-linecap:round;"/>
     </g>
     <g id="line2d_26">
      <g>
       <use style="fill:#262626;stroke:#262626;stroke-width:1.25;" x="443.362691" xlink:href="#ma980c95706" y="493.286013"/>
      </g>
     </g>
     <g id="text_13">
      <!-- 15.06.2021 -->
      <g style="fill:#262626;" transform="translate(397.210163 553.231121)rotate(-45)scale(0.11 -0.11)">
       <use xlink:href="#DejaVuSans-31"/>
       <use x="63.623047" xlink:href="#DejaVuSans-35"/>
       <use x="127.246094" xlink:href="#DejaVuSans-2e"/>
       <use x="159.033203" xlink:href="#DejaVuSans-30"/>
       <use x="222.65625" xlink:href="#DejaVuSans-36"/>
       <use x="286.279297" xlink:href="#DejaVuSans-2e"/>
       <use x="318.066406" xlink:href="#DejaVuSans-32"/>
       <use x="381.689453" xlink:href="#DejaVuSans-30"/>
       <use x="445.3125" xlink:href="#DejaVuSans-32"/>
       <use x="508.935547" xlink:href="#DejaVuSans-31"/>
      </g>
     </g>
    </g>
    <g id="xtick_14">
     <g id="line2d_27">
      <path clip-path="url(#pfc51f15c5e)" d="M 473.15711 493.286013 
L 473.15711 29.118125 
" style="fill:none;stroke:#cccccc;stroke-linecap:round;"/>
     </g>
     <g id="line2d_28">
      <g>
       <use style="fill:#262626;stroke:#262626;stroke-width:1.25;" x="473.15711" xlink:href="#ma980c95706" y="493.286013"/>
      </g>
     </g>
     <g id="text_14">
      <!-- 29.06.2021 -->
      <g style="fill:#262626;" transform="translate(427.004582 553.231121)rotate(-45)scale(0.11 -0.11)">
       <use xlink:href="#DejaVuSans-32"/>
       <use x="63.623047" xlink:href="#DejaVuSans-39"/>
       <use x="127.246094" xlink:href="#DejaVuSans-2e"/>
       <use x="159.033203" xlink:href="#DejaVuSans-30"/>
       <use x="222.65625" xlink:href="#DejaVuSans-36"/>
       <use x="286.279297" xlink:href="#DejaVuSans-2e"/>
       <use x="318.066406" xlink:href="#DejaVuSans-32"/>
       <use x="381.689453" xlink:href="#DejaVuSans-30"/>
       <use x="445.3125" xlink:href="#DejaVuSans-32"/>
       <use x="508.935547" xlink:href="#DejaVuSans-31"/>
      </g>
     </g>
    </g>
    <g id="xtick_15">
     <g id="line2d_29">
      <path clip-path="url(#pfc51f15c5e)" d="M 502.951529 493.286013 
L 502.951529 29.118125 
" style="fill:none;stroke:#cccccc;stroke-linecap:round;"/>
     </g>
     <g id="line2d_30">
      <g>
       <use style="fill:#262626;stroke:#262626;stroke-width:1.25;" x="502.951529" xlink:href="#ma980c95706" y="493.286013"/>
      </g>
     </g>
     <g id="text_15">
      <!-- 13.07.2021 -->
      <g style="fill:#262626;" transform="translate(456.799001 553.231121)rotate(-45)scale(0.11 -0.11)">
       <defs>
        <path d="M 525 4666 
L 3525 4666 
L 3525 4397 
L 1831 0 
L 1172 0 
L 2766 4134 
L 525 4134 
L 525 4666 
z
" id="DejaVuSans-37" transform="scale(0.015625)"/>
       </defs>
       <use xlink:href="#DejaVuSans-31"/>
       <use x="63.623047" xlink:href="#DejaVuSans-33"/>
       <use x="127.246094" xlink:href="#DejaVuSans-2e"/>
       <use x="159.033203" xlink:href="#DejaVuSans-30"/>
       <use x="222.65625" xlink:href="#DejaVuSans-37"/>
       <use x="286.279297" xlink:href="#DejaVuSans-2e"/>
       <use x="318.066406" xlink:href="#DejaVuSans-32"/>
       <use x="381.689453" xlink:href="#DejaVuSans-30"/>
       <use x="445.3125" xlink:href="#DejaVuSans-32"/>
       <use x="508.935547" xlink:href="#DejaVuSans-31"/>
      </g>
     </g>
    </g>
    <g id="xtick_16">
     <g id="line2d_31">
      <path clip-path="url(#pfc51f15c5e)" d="M 532.745948 493.286013 
L 532.745948 29.118125 
" style="fill:none;stroke:#cccccc;stroke-linecap:round;"/>
     </g>
     <g id="line2d_32">
      <g>
       <use style="fill:#262626;stroke:#262626;stroke-width:1.25;" x="532.745948" xlink:href="#ma980c95706" y="493.286013"/>
      </g>
     </g>
     <g id="text_16">
      <!-- 27.07.2021 -->
      <g style="fill:#262626;" transform="translate(486.59342 553.231121)rotate(-45)scale(0.11 -0.11)">
       <use xlink:href="#DejaVuSans-32"/>
       <use x="63.623047" xlink:href="#DejaVuSans-37"/>
       <use x="127.246094" xlink:href="#DejaVuSans-2e"/>
       <use x="159.033203" xlink:href="#DejaVuSans-30"/>
       <use x="222.65625" xlink:href="#DejaVuSans-37"/>
       <use x="286.279297" xlink:href="#DejaVuSans-2e"/>
       <use x="318.066406" xlink:href="#DejaVuSans-32"/>
       <use x="381.689453" xlink:href="#DejaVuSans-30"/>
       <use x="445.3125" xlink:href="#DejaVuSans-32"/>
       <use x="508.935547" xlink:href="#DejaVuSans-31"/>
      </g>
     </g>
    </g>
    <g id="xtick_17">
     <g id="line2d_33">
      <path clip-path="url(#pfc51f15c5e)" d="M 562.540367 493.286013 
L 562.540367 29.118125 
" style="fill:none;stroke:#cccccc;stroke-linecap:round;"/>
     </g>
     <g id="line2d_34">
      <g>
       <use style="fill:#262626;stroke:#262626;stroke-width:1.25;" x="562.540367" xlink:href="#ma980c95706" y="493.286013"/>
      </g>
     </g>
     <g id="text_17">
      <!-- 10.08.2021 -->
      <g style="fill:#262626;" transform="translate(516.387839 553.231121)rotate(-45)scale(0.11 -0.11)">
       <use xlink:href="#DejaVuSans-31"/>
       <use x="63.623047" xlink:href="#DejaVuSans-30"/>
       <use x="127.246094" xlink:href="#DejaVuSans-2e"/>
       <use x="159.033203" xlink:href="#DejaVuSans-30"/>
       <use x="222.65625" xlink:href="#DejaVuSans-38"/>
       <use x="286.279297" xlink:href="#DejaVuSans-2e"/>
       <use x="318.066406" xlink:href="#DejaVuSans-32"/>
       <use x="381.689453" xlink:href="#DejaVuSans-30"/>
       <use x="445.3125" xlink:href="#DejaVuSans-32"/>
       <use x="508.935547" xlink:href="#DejaVuSans-31"/>
      </g>
     </g>
    </g>
    <g id="xtick_18">
     <g id="line2d_35">
      <path clip-path="url(#pfc51f15c5e)" d="M 592.334786 493.286013 
L 592.334786 29.118125 
" style="fill:none;stroke:#cccccc;stroke-linecap:round;"/>
     </g>
     <g id="line2d_36">
      <g>
       <use style="fill:#262626;stroke:#262626;stroke-width:1.25;" x="592.334786" xlink:href="#ma980c95706" y="493.286013"/>
      </g>
     </g>
     <g id="text_18">
      <!-- 24.08.2021 -->
      <g style="fill:#262626;" transform="translate(546.182258 553.231121)rotate(-45)scale(0.11 -0.11)">
       <use xlink:href="#DejaVuSans-32"/>
       <use x="63.623047" xlink:href="#DejaVuSans-34"/>
       <use x="127.246094" xlink:href="#DejaVuSans-2e"/>
       <use x="159.033203" xlink:href="#DejaVuSans-30"/>
       <use x="222.65625" xlink:href="#DejaVuSans-38"/>
       <use x="286.279297" xlink:href="#DejaVuSans-2e"/>
       <use x="318.066406" xlink:href="#DejaVuSans-32"/>
       <use x="381.689453" xlink:href="#DejaVuSans-30"/>
       <use x="445.3125" xlink:href="#DejaVuSans-32"/>
       <use x="508.935547" xlink:href="#DejaVuSans-31"/>
      </g>
     </g>
    </g>
    <g id="xtick_19">
     <g id="line2d_37">
      <path clip-path="url(#pfc51f15c5e)" d="M 622.129205 493.286013 
L 622.129205 29.118125 
" style="fill:none;stroke:#cccccc;stroke-linecap:round;"/>
     </g>
     <g id="line2d_38">
      <g>
       <use style="fill:#262626;stroke:#262626;stroke-width:1.25;" x="622.129205" xlink:href="#ma980c95706" y="493.286013"/>
      </g>
     </g>
     <g id="text_19">
      <!-- 07.09.2021 -->
      <g style="fill:#262626;" transform="translate(575.976677 553.231121)rotate(-45)scale(0.11 -0.11)">
       <use xlink:href="#DejaVuSans-30"/>
       <use x="63.623047" xlink:href="#DejaVuSans-37"/>
       <use x="127.246094" xlink:href="#DejaVuSans-2e"/>
       <use x="159.033203" xlink:href="#DejaVuSans-30"/>
       <use x="222.65625" xlink:href="#DejaVuSans-39"/>
       <use x="286.279297" xlink:href="#DejaVuSans-2e"/>
       <use x="318.066406" xlink:href="#DejaVuSans-32"/>
       <use x="381.689453" xlink:href="#DejaVuSans-30"/>
       <use x="445.3125" xlink:href="#DejaVuSans-32"/>
       <use x="508.935547" xlink:href="#DejaVuSans-31"/>
      </g>
     </g>
    </g>
    <g id="xtick_20">
     <g id="line2d_39">
      <path clip-path="url(#pfc51f15c5e)" d="M 651.923624 493.286013 
L 651.923624 29.118125 
" style="fill:none;stroke:#cccccc;stroke-linecap:round;"/>
     </g>
     <g id="line2d_40">
      <g>
       <use style="fill:#262626;stroke:#262626;stroke-width:1.25;" x="651.923624" xlink:href="#ma980c95706" y="493.286013"/>
      </g>
     </g>
     <g id="text_20">
      <!-- 21.09.2021 -->
      <g style="fill:#262626;" transform="translate(605.771096 553.231121)rotate(-45)scale(0.11 -0.11)">
       <use xlink:href="#DejaVuSans-32"/>
       <use x="63.623047" xlink:href="#DejaVuSans-31"/>
       <use x="127.246094" xlink:href="#DejaVuSans-2e"/>
       <use x="159.033203" xlink:href="#DejaVuSans-30"/>
       <use x="222.65625" xlink:href="#DejaVuSans-39"/>
       <use x="286.279297" xlink:href="#DejaVuSans-2e"/>
       <use x="318.066406" xlink:href="#DejaVuSans-32"/>
       <use x="381.689453" xlink:href="#DejaVuSans-30"/>
       <use x="445.3125" xlink:href="#DejaVuSans-32"/>
       <use x="508.935547" xlink:href="#DejaVuSans-31"/>
      </g>
     </g>
    </g>
    <g id="xtick_21">
     <g id="line2d_41">
      <path clip-path="url(#pfc51f15c5e)" d="M 681.718043 493.286013 
L 681.718043 29.118125 
" style="fill:none;stroke:#cccccc;stroke-linecap:round;"/>
     </g>
     <g id="line2d_42">
      <g>
       <use style="fill:#262626;stroke:#262626;stroke-width:1.25;" x="681.718043" xlink:href="#ma980c95706" y="493.286013"/>
      </g>
     </g>
     <g id="text_21">
      <!-- 05.10.2021 -->
      <g style="fill:#262626;" transform="translate(635.565515 553.231121)rotate(-45)scale(0.11 -0.11)">
       <use xlink:href="#DejaVuSans-30"/>
       <use x="63.623047" xlink:href="#DejaVuSans-35"/>
       <use x="127.246094" xlink:href="#DejaVuSans-2e"/>
       <use x="159.033203" xlink:href="#DejaVuSans-31"/>
       <use x="222.65625" xlink:href="#DejaVuSans-30"/>
       <use x="286.279297" xlink:href="#DejaVuSans-2e"/>
       <use x="318.066406" xlink:href="#DejaVuSans-32"/>
       <use x="381.689453" xlink:href="#DejaVuSans-30"/>
       <use x="445.3125" xlink:href="#DejaVuSans-32"/>
       <use x="508.935547" xlink:href="#DejaVuSans-31"/>
      </g>
     </g>
    </g>
    <g id="xtick_22">
     <g id="line2d_43">
      <path clip-path="url(#pfc51f15c5e)" d="M 711.512462 493.286013 
L 711.512462 29.118125 
" style="fill:none;stroke:#cccccc;stroke-linecap:round;"/>
     </g>
     <g id="line2d_44">
      <g>
       <use style="fill:#262626;stroke:#262626;stroke-width:1.25;" x="711.512462" xlink:href="#ma980c95706" y="493.286013"/>
      </g>
     </g>
     <g id="text_22">
      <!-- 19.10.2021 -->
      <g style="fill:#262626;" transform="translate(665.359934 553.231121)rotate(-45)scale(0.11 -0.11)">
       <use xlink:href="#DejaVuSans-31"/>
       <use x="63.623047" xlink:href="#DejaVuSans-39"/>
       <use x="127.246094" xlink:href="#DejaVuSans-2e"/>
       <use x="159.033203" xlink:href="#DejaVuSans-31"/>
       <use x="222.65625" xlink:href="#DejaVuSans-30"/>
       <use x="286.279297" xlink:href="#DejaVuSans-2e"/>
       <use x="318.066406" xlink:href="#DejaVuSans-32"/>
       <use x="381.689453" xlink:href="#DejaVuSans-30"/>
       <use x="445.3125" xlink:href="#DejaVuSans-32"/>
       <use x="508.935547" xlink:href="#DejaVuSans-31"/>
      </g>
     </g>
    </g>
    <g id="xtick_23">
     <g id="line2d_45">
      <path clip-path="url(#pfc51f15c5e)" d="M 741.306881 493.286013 
L 741.306881 29.118125 
" style="fill:none;stroke:#cccccc;stroke-linecap:round;"/>
     </g>
     <g id="line2d_46">
      <g>
       <use style="fill:#262626;stroke:#262626;stroke-width:1.25;" x="741.306881" xlink:href="#ma980c95706" y="493.286013"/>
      </g>
     </g>
     <g id="text_23">
      <!-- 02.11.2021 -->
      <g style="fill:#262626;" transform="translate(695.154353 553.231121)rotate(-45)scale(0.11 -0.11)">
       <use xlink:href="#DejaVuSans-30"/>
       <use x="63.623047" xlink:href="#DejaVuSans-32"/>
       <use x="127.246094" xlink:href="#DejaVuSans-2e"/>
       <use x="159.033203" xlink:href="#DejaVuSans-31"/>
       <use x="222.65625" xlink:href="#DejaVuSans-31"/>
       <use x="286.279297" xlink:href="#DejaVuSans-2e"/>
       <use x="318.066406" xlink:href="#DejaVuSans-32"/>
       <use x="381.689453" xlink:href="#DejaVuSans-30"/>
       <use x="445.3125" xlink:href="#DejaVuSans-32"/>
       <use x="508.935547" xlink:href="#DejaVuSans-31"/>
      </g>
     </g>
    </g>
    <g id="xtick_24">
     <g id="line2d_47">
      <defs>
       <path d="M 0 0 
L 0 4 
" id="m3528f1ddf4" style="stroke:#262626;"/>
      </defs>
      <g>
       <use style="fill:#262626;stroke:#262626;" x="64.547936" xlink:href="#m3528f1ddf4" y="493.286013"/>
      </g>
     </g>
    </g>
    <g id="xtick_25">
     <g id="line2d_48">
      <g>
       <use style="fill:#262626;stroke:#262626;" x="79.445145" xlink:href="#m3528f1ddf4" y="493.286013"/>
      </g>
     </g>
    </g>
    <g id="xtick_26">
     <g id="line2d_49">
      <g>
       <use style="fill:#262626;stroke:#262626;" x="94.342355" xlink:href="#m3528f1ddf4" y="493.286013"/>
      </g>
     </g>
    </g>
    <g id="xtick_27">
     <g id="line2d_50">
      <g>
       <use style="fill:#262626;stroke:#262626;" x="109.239564" xlink:href="#m3528f1ddf4" y="493.286013"/>
      </g>
     </g>
    </g>
    <g id="xtick_28">
     <g id="line2d_51">
      <g>
       <use style="fill:#262626;stroke:#262626;" x="124.136774" xlink:href="#m3528f1ddf4" y="493.286013"/>
      </g>
     </g>
    </g>
    <g id="xtick_29">
     <g id="line2d_52">
      <g>
       <use style="fill:#262626;stroke:#262626;" x="139.033983" xlink:href="#m3528f1ddf4" y="493.286013"/>
      </g>
     </g>
    </g>
    <g id="xtick_30">
     <g id="line2d_53">
      <g>
       <use style="fill:#262626;stroke:#262626;" x="153.931193" xlink:href="#m3528f1ddf4" y="493.286013"/>
      </g>
     </g>
    </g>
    <g id="xtick_31">
     <g id="line2d_54">
      <g>
       <use style="fill:#262626;stroke:#262626;" x="168.828402" xlink:href="#m3528f1ddf4" y="493.286013"/>
      </g>
     </g>
    </g>
    <g id="xtick_32">
     <g id="line2d_55">
      <g>
       <use style="fill:#262626;stroke:#262626;" x="183.725612" xlink:href="#m3528f1ddf4" y="493.286013"/>
      </g>
     </g>
    </g>
    <g id="xtick_33">
     <g id="line2d_56">
      <g>
       <use style="fill:#262626;stroke:#262626;" x="198.622821" xlink:href="#m3528f1ddf4" y="493.286013"/>
      </g>
     </g>
    </g>
    <g id="xtick_34">
     <g id="line2d_57">
      <g>
       <use style="fill:#262626;stroke:#262626;" x="213.520031" xlink:href="#m3528f1ddf4" y="493.286013"/>
      </g>
     </g>
    </g>
    <g id="xtick_35">
     <g id="line2d_58">
      <g>
       <use style="fill:#262626;stroke:#262626;" x="228.41724" xlink:href="#m3528f1ddf4" y="493.286013"/>
      </g>
     </g>
    </g>
    <g id="xtick_36">
     <g id="line2d_59">
      <g>
       <use style="fill:#262626;stroke:#262626;" x="243.31445" xlink:href="#m3528f1ddf4" y="493.286013"/>
      </g>
     </g>
    </g>
    <g id="xtick_37">
     <g id="line2d_60">
      <g>
       <use style="fill:#262626;stroke:#262626;" x="258.211659" xlink:href="#m3528f1ddf4" y="493.286013"/>
      </g>
     </g>
    </g>
    <g id="xtick_38">
     <g id="line2d_61">
      <g>
       <use style="fill:#262626;stroke:#262626;" x="273.108869" xlink:href="#m3528f1ddf4" y="493.286013"/>
      </g>
     </g>
    </g>
    <g id="xtick_39">
     <g id="line2d_62">
      <g>
       <use style="fill:#262626;stroke:#262626;" x="288.006078" xlink:href="#m3528f1ddf4" y="493.286013"/>
      </g>
     </g>
    </g>
    <g id="xtick_40">
     <g id="line2d_63">
      <g>
       <use style="fill:#262626;stroke:#262626;" x="302.903288" xlink:href="#m3528f1ddf4" y="493.286013"/>
      </g>
     </g>
    </g>
    <g id="xtick_41">
     <g id="line2d_64">
      <g>
       <use style="fill:#262626;stroke:#262626;" x="317.800497" xlink:href="#m3528f1ddf4" y="493.286013"/>
      </g>
     </g>
    </g>
    <g id="xtick_42">
     <g id="line2d_65">
      <g>
       <use style="fill:#262626;stroke:#262626;" x="332.697707" xlink:href="#m3528f1ddf4" y="493.286013"/>
      </g>
     </g>
    </g>
    <g id="xtick_43">
     <g id="line2d_66">
      <g>
       <use style="fill:#262626;stroke:#262626;" x="347.594916" xlink:href="#m3528f1ddf4" y="493.286013"/>
      </g>
     </g>
    </g>
    <g id="xtick_44">
     <g id="line2d_67">
      <g>
       <use style="fill:#262626;stroke:#262626;" x="362.492126" xlink:href="#m3528f1ddf4" y="493.286013"/>
      </g>
     </g>
    </g>
    <g id="xtick_45">
     <g id="line2d_68">
      <g>
       <use style="fill:#262626;stroke:#262626;" x="377.389335" xlink:href="#m3528f1ddf4" y="493.286013"/>
      </g>
     </g>
    </g>
    <g id="xtick_46">
     <g id="line2d_69">
      <g>
       <use style="fill:#262626;stroke:#262626;" x="392.286545" xlink:href="#m3528f1ddf4" y="493.286013"/>
      </g>
     </g>
    </g>
    <g id="xtick_47">
     <g id="line2d_70">
      <g>
       <use style="fill:#262626;stroke:#262626;" x="407.183754" xlink:href="#m3528f1ddf4" y="493.286013"/>
      </g>
     </g>
    </g>
    <g id="xtick_48">
     <g id="line2d_71">
      <g>
       <use style="fill:#262626;stroke:#262626;" x="422.080964" xlink:href="#m3528f1ddf4" y="493.286013"/>
      </g>
     </g>
    </g>
    <g id="xtick_49">
     <g id="line2d_72">
      <g>
       <use style="fill:#262626;stroke:#262626;" x="436.978173" xlink:href="#m3528f1ddf4" y="493.286013"/>
      </g>
     </g>
    </g>
    <g id="xtick_50">
     <g id="line2d_73">
      <g>
       <use style="fill:#262626;stroke:#262626;" x="451.875383" xlink:href="#m3528f1ddf4" y="493.286013"/>
      </g>
     </g>
    </g>
    <g id="xtick_51">
     <g id="line2d_74">
      <g>
       <use style="fill:#262626;stroke:#262626;" x="466.772592" xlink:href="#m3528f1ddf4" y="493.286013"/>
      </g>
     </g>
    </g>
    <g id="xtick_52">
     <g id="line2d_75">
      <g>
       <use style="fill:#262626;stroke:#262626;" x="481.669802" xlink:href="#m3528f1ddf4" y="493.286013"/>
      </g>
     </g>
    </g>
    <g id="xtick_53">
     <g id="line2d_76">
      <g>
       <use style="fill:#262626;stroke:#262626;" x="496.567011" xlink:href="#m3528f1ddf4" y="493.286013"/>
      </g>
     </g>
    </g>
    <g id="xtick_54">
     <g id="line2d_77">
      <g>
       <use style="fill:#262626;stroke:#262626;" x="511.464221" xlink:href="#m3528f1ddf4" y="493.286013"/>
      </g>
     </g>
    </g>
    <g id="xtick_55">
     <g id="line2d_78">
      <g>
       <use style="fill:#262626;stroke:#262626;" x="526.36143" xlink:href="#m3528f1ddf4" y="493.286013"/>
      </g>
     </g>
    </g>
    <g id="xtick_56">
     <g id="line2d_79">
      <g>
       <use style="fill:#262626;stroke:#262626;" x="541.25864" xlink:href="#m3528f1ddf4" y="493.286013"/>
      </g>
     </g>
    </g>
    <g id="xtick_57">
     <g id="line2d_80">
      <g>
       <use style="fill:#262626;stroke:#262626;" x="556.155849" xlink:href="#m3528f1ddf4" y="493.286013"/>
      </g>
     </g>
    </g>
    <g id="xtick_58">
     <g id="line2d_81">
      <g>
       <use style="fill:#262626;stroke:#262626;" x="571.053059" xlink:href="#m3528f1ddf4" y="493.286013"/>
      </g>
     </g>
    </g>
    <g id="xtick_59">
     <g id="line2d_82">
      <g>
       <use style="fill:#262626;stroke:#262626;" x="585.950268" xlink:href="#m3528f1ddf4" y="493.286013"/>
      </g>
     </g>
    </g>
    <g id="xtick_60">
     <g id="line2d_83">
      <g>
       <use style="fill:#262626;stroke:#262626;" x="600.847478" xlink:href="#m3528f1ddf4" y="493.286013"/>
      </g>
     </g>
    </g>
    <g id="xtick_61">
     <g id="line2d_84">
      <g>
       <use style="fill:#262626;stroke:#262626;" x="615.744687" xlink:href="#m3528f1ddf4" y="493.286013"/>
      </g>
     </g>
    </g>
    <g id="xtick_62">
     <g id="line2d_85">
      <g>
       <use style="fill:#262626;stroke:#262626;" x="630.641897" xlink:href="#m3528f1ddf4" y="493.286013"/>
      </g>
     </g>
    </g>
    <g id="xtick_63">
     <g id="line2d_86">
      <g>
       <use style="fill:#262626;stroke:#262626;" x="645.539106" xlink:href="#m3528f1ddf4" y="493.286013"/>
      </g>
     </g>
    </g>
    <g id="xtick_64">
     <g id="line2d_87">
      <g>
       <use style="fill:#262626;stroke:#262626;" x="660.436315" xlink:href="#m3528f1ddf4" y="493.286013"/>
      </g>
     </g>
    </g>
    <g id="xtick_65">
     <g id="line2d_88">
      <g>
       <use style="fill:#262626;stroke:#262626;" x="675.333525" xlink:href="#m3528f1ddf4" y="493.286013"/>
      </g>
     </g>
    </g>
    <g id="xtick_66">
     <g id="line2d_89">
      <g>
       <use style="fill:#262626;stroke:#262626;" x="690.230734" xlink:href="#m3528f1ddf4" y="493.286013"/>
      </g>
     </g>
    </g>
    <g id="xtick_67">
     <g id="line2d_90">
      <g>
       <use style="fill:#262626;stroke:#262626;" x="705.127944" xlink:href="#m3528f1ddf4" y="493.286013"/>
      </g>
     </g>
    </g>
    <g id="xtick_68">
     <g id="line2d_91">
      <g>
       <use style="fill:#262626;stroke:#262626;" x="720.025153" xlink:href="#m3528f1ddf4" y="493.286013"/>
      </g>
     </g>
    </g>
    <g id="xtick_69">
     <g id="line2d_92">
      <g>
       <use style="fill:#262626;stroke:#262626;" x="734.922363" xlink:href="#m3528f1ddf4" y="493.286013"/>
      </g>
     </g>
    </g>
    <g id="xtick_70">
     <g id="line2d_93">
      <g>
       <use style="fill:#262626;stroke:#262626;" x="749.819572" xlink:href="#m3528f1ddf4" y="493.286013"/>
      </g>
     </g>
    </g>
    <g id="xtick_71">
     <g id="line2d_94">
      <g>
       <use style="fill:#262626;stroke:#262626;" x="764.716782" xlink:href="#m3528f1ddf4" y="493.286013"/>
      </g>
     </g>
    </g>
    <g id="xtick_72">
     <g id="line2d_95">
      <g>
       <use style="fill:#262626;stroke:#262626;" x="779.613991" xlink:href="#m3528f1ddf4" y="493.286013"/>
      </g>
     </g>
    </g>
    <g id="text_24">
     <!-- Date -->
     <g style="fill:#262626;" transform="translate(408.804112 567.966863)scale(0.12 -0.12)">
      <defs>
       <path d="M 1259 4147 
L 1259 519 
L 2022 519 
Q 2988 519 3436 956 
Q 3884 1394 3884 2338 
Q 3884 3275 3436 3711 
Q 2988 4147 2022 4147 
L 1259 4147 
z
M 628 4666 
L 1925 4666 
Q 3281 4666 3915 4102 
Q 4550 3538 4550 2338 
Q 4550 1131 3912 565 
Q 3275 0 1925 0 
L 628 0 
L 628 4666 
z
" id="DejaVuSans-44" transform="scale(0.015625)"/>
       <path d="M 2194 1759 
Q 1497 1759 1228 1600 
Q 959 1441 959 1056 
Q 959 750 1161 570 
Q 1363 391 1709 391 
Q 2188 391 2477 730 
Q 2766 1069 2766 1631 
L 2766 1759 
L 2194 1759 
z
M 3341 1997 
L 3341 0 
L 2766 0 
L 2766 531 
Q 2569 213 2275 61 
Q 1981 -91 1556 -91 
Q 1019 -91 701 211 
Q 384 513 384 1019 
Q 384 1609 779 1909 
Q 1175 2209 1959 2209 
L 2766 2209 
L 2766 2266 
Q 2766 2663 2505 2880 
Q 2244 3097 1772 3097 
Q 1472 3097 1187 3025 
Q 903 2953 641 2809 
L 641 3341 
Q 956 3463 1253 3523 
Q 1550 3584 1831 3584 
Q 2591 3584 2966 3190 
Q 3341 2797 3341 1997 
z
" id="DejaVuSans-61" transform="scale(0.015625)"/>
       <path d="M 1172 4494 
L 1172 3500 
L 2356 3500 
L 2356 3053 
L 1172 3053 
L 1172 1153 
Q 1172 725 1289 603 
Q 1406 481 1766 481 
L 2356 481 
L 2356 0 
L 1766 0 
Q 1100 0 847 248 
Q 594 497 594 1153 
L 594 3053 
L 172 3053 
L 172 3500 
L 594 3500 
L 594 4494 
L 1172 4494 
z
" id="DejaVuSans-74" transform="scale(0.015625)"/>
       <path d="M 3597 1894 
L 3597 1613 
L 953 1613 
Q 991 1019 1311 708 
Q 1631 397 2203 397 
Q 2534 397 2845 478 
Q 3156 559 3463 722 
L 3463 178 
Q 3153 47 2828 -22 
Q 2503 -91 2169 -91 
Q 1331 -91 842 396 
Q 353 884 353 1716 
Q 353 2575 817 3079 
Q 1281 3584 2069 3584 
Q 2775 3584 3186 3129 
Q 3597 2675 3597 1894 
z
M 3022 2063 
Q 3016 2534 2758 2815 
Q 2500 3097 2075 3097 
Q 1594 3097 1305 2825 
Q 1016 2553 972 2059 
L 3022 2063 
z
" id="DejaVuSans-65" transform="scale(0.015625)"/>
      </defs>
      <use xlink:href="#DejaVuSans-44"/>
      <use x="77.001953" xlink:href="#DejaVuSans-61"/>
      <use x="138.28125" xlink:href="#DejaVuSans-74"/>
      <use x="177.490234" xlink:href="#DejaVuSans-65"/>
     </g>
    </g>
   </g>
   <g id="matplotlib.axis_2">
    <g id="ytick_1">
     <g id="line2d_96">
      <path clip-path="url(#pfc51f15c5e)" d="M 52.098125 472.72947 
L 794.191975 472.72947 
" style="fill:none;stroke:#cccccc;stroke-linecap:round;"/>
     </g>
     <g id="line2d_97">
      <defs>
       <path d="M 0 0 
L -6 0 
" id="m04eb95adc1" style="stroke:#262626;stroke-width:1.25;"/>
      </defs>
      <g>
       <use style="fill:#262626;stroke:#262626;stroke-width:1.25;" x="52.098125" xlink:href="#m04eb95adc1" y="472.72947"/>
      </g>
     </g>
     <g id="text_25">
      <!-- 0.0M -->
      <g style="fill:#262626;" transform="translate(15.61375 476.908611)scale(0.11 -0.11)">
       <defs>
        <path d="M 628 4666 
L 1569 4666 
L 2759 1491 
L 3956 4666 
L 4897 4666 
L 4897 0 
L 4281 0 
L 4281 4097 
L 3078 897 
L 2444 897 
L 1241 4097 
L 1241 0 
L 628 0 
L 628 4666 
z
" id="DejaVuSans-4d" transform="scale(0.015625)"/>
       </defs>
       <use xlink:href="#DejaVuSans-30"/>
       <use x="63.623047" xlink:href="#DejaVuSans-2e"/>
       <use x="95.410156" xlink:href="#DejaVuSans-30"/>
       <use x="159.033203" xlink:href="#DejaVuSans-4d"/>
      </g>
     </g>
    </g>
    <g id="ytick_2">
     <g id="line2d_98">
      <path clip-path="url(#pfc51f15c5e)" d="M 52.098125 403.135474 
L 794.191975 403.135474 
" style="fill:none;stroke:#cccccc;stroke-linecap:round;"/>
     </g>
     <g id="line2d_99">
      <g>
       <use style="fill:#262626;stroke:#262626;stroke-width:1.25;" x="52.098125" xlink:href="#m04eb95adc1" y="403.135474"/>
      </g>
     </g>
     <g id="text_26">
      <!-- 0.5M -->
      <g style="fill:#262626;" transform="translate(15.61375 407.314615)scale(0.11 -0.11)">
       <use xlink:href="#DejaVuSans-30"/>
       <use x="63.623047" xlink:href="#DejaVuSans-2e"/>
       <use x="95.410156" xlink:href="#DejaVuSans-35"/>
       <use x="159.033203" xlink:href="#DejaVuSans-4d"/>
      </g>
     </g>
    </g>
    <g id="ytick_3">
     <g id="line2d_100">
      <path clip-path="url(#pfc51f15c5e)" d="M 52.098125 333.541478 
L 794.191975 333.541478 
" style="fill:none;stroke:#cccccc;stroke-linecap:round;"/>
     </g>
     <g id="line2d_101">
      <g>
       <use style="fill:#262626;stroke:#262626;stroke-width:1.25;" x="52.098125" xlink:href="#m04eb95adc1" y="333.541478"/>
      </g>
     </g>
     <g id="text_27">
      <!-- 1.0M -->
      <g style="fill:#262626;" transform="translate(15.61375 337.720619)scale(0.11 -0.11)">
       <use xlink:href="#DejaVuSans-31"/>
       <use x="63.623047" xlink:href="#DejaVuSans-2e"/>
       <use x="95.410156" xlink:href="#DejaVuSans-30"/>
       <use x="159.033203" xlink:href="#DejaVuSans-4d"/>
      </g>
     </g>
    </g>
    <g id="ytick_4">
     <g id="line2d_102">
      <path clip-path="url(#pfc51f15c5e)" d="M 52.098125 263.947482 
L 794.191975 263.947482 
" style="fill:none;stroke:#cccccc;stroke-linecap:round;"/>
     </g>
     <g id="line2d_103">
      <g>
       <use style="fill:#262626;stroke:#262626;stroke-width:1.25;" x="52.098125" xlink:href="#m04eb95adc1" y="263.947482"/>
      </g>
     </g>
     <g id="text_28">
      <!-- 1.5M -->
      <g style="fill:#262626;" transform="translate(15.61375 268.126623)scale(0.11 -0.11)">
       <use xlink:href="#DejaVuSans-31"/>
       <use x="63.623047" xlink:href="#DejaVuSans-2e"/>
       <use x="95.410156" xlink:href="#DejaVuSans-35"/>
       <use x="159.033203" xlink:href="#DejaVuSans-4d"/>
      </g>
     </g>
    </g>
    <g id="ytick_5">
     <g id="line2d_104">
      <path clip-path="url(#pfc51f15c5e)" d="M 52.098125 194.353486 
L 794.191975 194.353486 
" style="fill:none;stroke:#cccccc;stroke-linecap:round;"/>
     </g>
     <g id="line2d_105">
      <g>
       <use style="fill:#262626;stroke:#262626;stroke-width:1.25;" x="52.098125" xlink:href="#m04eb95adc1" y="194.353486"/>
      </g>
     </g>
     <g id="text_29">
      <!-- 2.0M -->
      <g style="fill:#262626;" transform="translate(15.61375 198.532627)scale(0.11 -0.11)">
       <use xlink:href="#DejaVuSans-32"/>
       <use x="63.623047" xlink:href="#DejaVuSans-2e"/>
       <use x="95.410156" xlink:href="#DejaVuSans-30"/>
       <use x="159.033203" xlink:href="#DejaVuSans-4d"/>
      </g>
     </g>
    </g>
    <g id="ytick_6">
     <g id="line2d_106">
      <path clip-path="url(#pfc51f15c5e)" d="M 52.098125 124.75949 
L 794.191975 124.75949 
" style="fill:none;stroke:#cccccc;stroke-linecap:round;"/>
     </g>
     <g id="line2d_107">
      <g>
       <use style="fill:#262626;stroke:#262626;stroke-width:1.25;" x="52.098125" xlink:href="#m04eb95adc1" y="124.75949"/>
      </g>
     </g>
     <g id="text_30">
      <!-- 2.5M -->
      <g style="fill:#262626;" transform="translate(15.61375 128.938631)scale(0.11 -0.11)">
       <use xlink:href="#DejaVuSans-32"/>
       <use x="63.623047" xlink:href="#DejaVuSans-2e"/>
       <use x="95.410156" xlink:href="#DejaVuSans-35"/>
       <use x="159.033203" xlink:href="#DejaVuSans-4d"/>
      </g>
     </g>
    </g>
    <g id="ytick_7">
     <g id="line2d_108">
      <path clip-path="url(#pfc51f15c5e)" d="M 52.098125 55.165494 
L 794.191975 55.165494 
" style="fill:none;stroke:#cccccc;stroke-linecap:round;"/>
     </g>
     <g id="line2d_109">
      <g>
       <use style="fill:#262626;stroke:#262626;stroke-width:1.25;" x="52.098125" xlink:href="#m04eb95adc1" y="55.165494"/>
      </g>
     </g>
     <g id="text_31">
      <!-- 3.0M -->
      <g style="fill:#262626;" transform="translate(15.61375 59.344635)scale(0.11 -0.11)">
       <use xlink:href="#DejaVuSans-33"/>
       <use x="63.623047" xlink:href="#DejaVuSans-2e"/>
       <use x="95.410156" xlink:href="#DejaVuSans-30"/>
       <use x="159.033203" xlink:href="#DejaVuSans-4d"/>
      </g>
     </g>
    </g>
    <g id="text_32">
     <!-- Administered doses -->
     <g style="fill:#262626;" transform="translate(9.118125 320.323631)rotate(-90)scale(0.12 -0.12)">
      <defs>
       <path d="M 2188 4044 
L 1331 1722 
L 3047 1722 
L 2188 4044 
z
M 1831 4666 
L 2547 4666 
L 4325 0 
L 3669 0 
L 3244 1197 
L 1141 1197 
L 716 0 
L 50 0 
L 1831 4666 
z
" id="DejaVuSans-41" transform="scale(0.015625)"/>
       <path d="M 2906 2969 
L 2906 4863 
L 3481 4863 
L 3481 0 
L 2906 0 
L 2906 525 
Q 2725 213 2448 61 
Q 2172 -91 1784 -91 
Q 1150 -91 751 415 
Q 353 922 353 1747 
Q 353 2572 751 3078 
Q 1150 3584 1784 3584 
Q 2172 3584 2448 3432 
Q 2725 3281 2906 2969 
z
M 947 1747 
Q 947 1113 1208 752 
Q 1469 391 1925 391 
Q 2381 391 2643 752 
Q 2906 1113 2906 1747 
Q 2906 2381 2643 2742 
Q 2381 3103 1925 3103 
Q 1469 3103 1208 2742 
Q 947 2381 947 1747 
z
" id="DejaVuSans-64" transform="scale(0.015625)"/>
       <path d="M 3328 2828 
Q 3544 3216 3844 3400 
Q 4144 3584 4550 3584 
Q 5097 3584 5394 3201 
Q 5691 2819 5691 2113 
L 5691 0 
L 5113 0 
L 5113 2094 
Q 5113 2597 4934 2840 
Q 4756 3084 4391 3084 
Q 3944 3084 3684 2787 
Q 3425 2491 3425 1978 
L 3425 0 
L 2847 0 
L 2847 2094 
Q 2847 2600 2669 2842 
Q 2491 3084 2119 3084 
Q 1678 3084 1418 2786 
Q 1159 2488 1159 1978 
L 1159 0 
L 581 0 
L 581 3500 
L 1159 3500 
L 1159 2956 
Q 1356 3278 1631 3431 
Q 1906 3584 2284 3584 
Q 2666 3584 2933 3390 
Q 3200 3197 3328 2828 
z
" id="DejaVuSans-6d" transform="scale(0.015625)"/>
       <path d="M 603 3500 
L 1178 3500 
L 1178 0 
L 603 0 
L 603 3500 
z
M 603 4863 
L 1178 4863 
L 1178 4134 
L 603 4134 
L 603 4863 
z
" id="DejaVuSans-69" transform="scale(0.015625)"/>
       <path d="M 3513 2113 
L 3513 0 
L 2938 0 
L 2938 2094 
Q 2938 2591 2744 2837 
Q 2550 3084 2163 3084 
Q 1697 3084 1428 2787 
Q 1159 2491 1159 1978 
L 1159 0 
L 581 0 
L 581 3500 
L 1159 3500 
L 1159 2956 
Q 1366 3272 1645 3428 
Q 1925 3584 2291 3584 
Q 2894 3584 3203 3211 
Q 3513 2838 3513 2113 
z
" id="DejaVuSans-6e" transform="scale(0.015625)"/>
       <path d="M 2834 3397 
L 2834 2853 
Q 2591 2978 2328 3040 
Q 2066 3103 1784 3103 
Q 1356 3103 1142 2972 
Q 928 2841 928 2578 
Q 928 2378 1081 2264 
Q 1234 2150 1697 2047 
L 1894 2003 
Q 2506 1872 2764 1633 
Q 3022 1394 3022 966 
Q 3022 478 2636 193 
Q 2250 -91 1575 -91 
Q 1294 -91 989 -36 
Q 684 19 347 128 
L 347 722 
Q 666 556 975 473 
Q 1284 391 1588 391 
Q 1994 391 2212 530 
Q 2431 669 2431 922 
Q 2431 1156 2273 1281 
Q 2116 1406 1581 1522 
L 1381 1569 
Q 847 1681 609 1914 
Q 372 2147 372 2553 
Q 372 3047 722 3315 
Q 1072 3584 1716 3584 
Q 2034 3584 2315 3537 
Q 2597 3491 2834 3397 
z
" id="DejaVuSans-73" transform="scale(0.015625)"/>
       <path d="M 2631 2963 
Q 2534 3019 2420 3045 
Q 2306 3072 2169 3072 
Q 1681 3072 1420 2755 
Q 1159 2438 1159 1844 
L 1159 0 
L 581 0 
L 581 3500 
L 1159 3500 
L 1159 2956 
Q 1341 3275 1631 3429 
Q 1922 3584 2338 3584 
Q 2397 3584 2469 3576 
Q 2541 3569 2628 3553 
L 2631 2963 
z
" id="DejaVuSans-72" transform="scale(0.015625)"/>
       <path id="DejaVuSans-20" transform="scale(0.015625)"/>
       <path d="M 1959 3097 
Q 1497 3097 1228 2736 
Q 959 2375 959 1747 
Q 959 1119 1226 758 
Q 1494 397 1959 397 
Q 2419 397 2687 759 
Q 2956 1122 2956 1747 
Q 2956 2369 2687 2733 
Q 2419 3097 1959 3097 
z
M 1959 3584 
Q 2709 3584 3137 3096 
Q 3566 2609 3566 1747 
Q 3566 888 3137 398 
Q 2709 -91 1959 -91 
Q 1206 -91 779 398 
Q 353 888 353 1747 
Q 353 2609 779 3096 
Q 1206 3584 1959 3584 
z
" id="DejaVuSans-6f" transform="scale(0.015625)"/>
      </defs>
      <use xlink:href="#DejaVuSans-41"/>
      <use x="66.658203" xlink:href="#DejaVuSans-64"/>
      <use x="130.134766" xlink:href="#DejaVuSans-6d"/>
      <use x="227.546875" xlink:href="#DejaVuSans-69"/>
      <use x="255.330078" xlink:href="#DejaVuSans-6e"/>
      <use x="318.708984" xlink:href="#DejaVuSans-69"/>
      <use x="346.492188" xlink:href="#DejaVuSans-73"/>
      <use x="398.591797" xlink:href="#DejaVuSans-74"/>
      <use x="437.800781" xlink:href="#DejaVuSans-65"/>
      <use x="499.324219" xlink:href="#DejaVuSans-72"/>
      <use x="538.1875" xlink:href="#DejaVuSans-65"/>
      <use x="599.710938" xlink:href="#DejaVuSans-64"/>
      <use x="663.1875" xlink:href="#DejaVuSans-20"/>
      <use x="694.974609" xlink:href="#DejaVuSans-64"/>
      <use x="758.451172" xlink:href="#DejaVuSans-6f"/>
      <use x="819.632812" xlink:href="#DejaVuSans-73"/>
      <use x="871.732422" xlink:href="#DejaVuSans-65"/>
      <use x="933.255859" xlink:href="#DejaVuSans-73"/>
     </g>
    </g>
   </g>
   <g id="line2d_110">
    <path clip-path="url(#pfc51f15c5e)" d="M 85.829664 472.187472 
L 90.086009 472.069858 
L 100.726873 471.971174 
L 107.111391 470.870615 
L 113.49591 470.758429 
L 117.752255 470.357985 
L 124.136774 470.177876 
L 126.264947 470.161034 
L 128.393119 469.996097 
L 132.649465 469.371282 
L 136.90581 469.096525 
L 143.290329 468.999511 
L 145.418502 468.676038 
L 147.546674 468.147819 
L 149.674847 467.490991 
L 151.80302 467.049904 
L 156.059366 467.005364 
L 158.187538 466.795329 
L 160.315711 466.338375 
L 164.572057 465.209839 
L 166.700229 464.815241 
L 170.956575 464.790466 
L 173.084748 464.532968 
L 177.341093 463.520375 
L 179.469266 462.830003 
L 181.597439 462.332962 
L 185.853785 462.236366 
L 187.981957 461.951309 
L 192.238303 460.770438 
L 194.366476 460.131008 
L 196.494648 458.216617 
L 198.622821 457.647616 
L 202.879167 454.487075 
L 205.00734 452.098191 
L 209.263685 446.490864 
L 211.391858 444.274016 
L 213.520031 443.533397 
L 215.648203 443.159677 
L 217.776376 441.615526 
L 219.904549 438.799335 
L 222.032722 438.187326 
L 224.160895 435.35137 
L 226.289067 433.135497 
L 228.41724 432.766092 
L 230.545413 432.555501 
L 232.673586 431.789828 
L 234.801759 430.673679 
L 236.929931 429.700199 
L 239.058104 427.570483 
L 241.186277 425.870441 
L 245.442622 425.561583 
L 247.570795 425.167959 
L 251.827141 423.915963 
L 253.955314 423.171307 
L 256.083486 422.243063 
L 258.211659 421.710529 
L 260.339832 421.382324 
L 262.468005 420.343286 
L 266.72435 416.872076 
L 270.980696 412.846899 
L 273.108869 412.29989 
L 275.237041 411.968205 
L 277.365214 410.714678 
L 285.877905 403.402019 
L 288.006078 402.846242 
L 290.134251 402.638573 
L 292.262424 401.736774 
L 294.390597 400.402518 
L 296.518769 398.479218 
L 298.646942 395.825878 
L 300.775115 393.75476 
L 302.903288 393.244497 
L 305.03146 393.021796 
L 307.159633 392.001548 
L 309.287806 390.539657 
L 315.672324 384.466328 
L 317.800497 384.036655 
L 319.92867 383.865871 
L 322.056843 382.88557 
L 324.185016 381.23661 
L 326.313188 378.568655 
L 328.441361 375.504292 
L 330.569534 372.940031 
L 332.697707 372.351266 
L 334.825879 372.063147 
L 336.954052 370.544606 
L 339.082225 368.213346 
L 341.210398 364.684235 
L 343.338571 360.937016 
L 345.466743 359.226813 
L 347.594916 358.425786 
L 349.723089 357.951851 
L 351.851262 356.714887 
L 353.979434 355.165307 
L 356.107607 350.644342 
L 358.23578 349.651932 
L 360.363953 344.346503 
L 362.492126 342.947942 
L 364.620298 342.162226 
L 366.748471 338.616412 
L 371.004817 328.563698 
L 373.13299 323.30796 
L 375.261162 318.681768 
L 377.389335 317.76438 
L 379.517508 317.292533 
L 381.645681 314.754301 
L 383.773853 311.125531 
L 385.902026 306.901314 
L 388.030199 302.140528 
L 390.158372 298.651642 
L 392.286545 297.768077 
L 394.414717 297.257535 
L 396.54289 296.537655 
L 398.671063 294.190667 
L 400.799236 291.287484 
L 405.055581 286.060279 
L 407.183754 285.075663 
L 409.311927 284.373459 
L 411.4401 282.609391 
L 413.568272 280.097326 
L 419.952791 270.788572 
L 422.080964 269.954697 
L 424.209136 268.923314 
L 426.337309 266.901887 
L 428.465482 263.873156 
L 432.721828 257.224146 
L 434.85 254.372323 
L 436.978173 253.680837 
L 439.106346 253.226666 
L 441.234519 251.882946 
L 443.362691 249.731378 
L 447.619037 244.745664 
L 449.74721 242.625831 
L 454.003555 241.653046 
L 456.131728 240.469669 
L 458.259901 238.69892 
L 462.516247 234.786206 
L 464.644419 233.076978 
L 468.900765 232.266068 
L 471.028938 231.144352 
L 479.541629 224.236313 
L 481.669802 223.735515 
L 483.797974 223.435286 
L 485.926147 222.347671 
L 488.05432 220.719033 
L 492.310666 217.224718 
L 494.438838 215.617932 
L 496.567011 215.163483 
L 498.695184 214.872163 
L 500.823357 213.701592 
L 507.207875 208.749144 
L 509.336048 207.26359 
L 513.592393 206.608572 
L 515.720566 205.52722 
L 517.848739 204.137985 
L 524.233257 199.565102 
L 526.36143 199.072377 
L 528.489603 198.794279 
L 530.617776 197.606588 
L 539.130467 190.88172 
L 541.25864 190.437293 
L 543.386812 190.135951 
L 545.514985 188.979299 
L 554.027676 182.10202 
L 556.155849 181.645762 
L 558.284022 181.321315 
L 560.412195 180.07085 
L 566.796713 175.053819 
L 568.924886 173.595824 
L 571.053059 173.10811 
L 573.181231 172.803845 
L 575.309404 171.532362 
L 583.822095 164.726766 
L 585.950268 164.211213 
L 588.078441 163.878693 
L 590.206614 162.503655 
L 596.591132 156.806273 
L 598.719305 155.068372 
L 600.847478 154.521363 
L 602.97565 154.167825 
L 605.103823 152.719853 
L 607.231996 150.842624 
L 613.616514 145.773397 
L 615.744687 145.304334 
L 620.001033 144.775141 
L 622.129205 143.192991 
L 626.385551 139.801537 
L 628.513724 138.266711 
L 630.641897 137.838986 
L 632.770069 137.566734 
L 634.898242 136.447106 
L 641.28276 131.930177 
L 643.410933 130.47622 
L 645.539106 130.052949 
L 647.667279 129.816747 
L 649.795452 128.766434 
L 651.923624 127.365646 
L 654.051797 127.107035 
L 656.17997 125.514585 
L 658.308143 124.121731 
L 660.436315 123.778493 
L 662.564488 123.568041 
L 664.692661 122.843011 
L 666.820834 121.733822 
L 671.077179 119.240687 
L 673.205352 118.257741 
L 675.333525 117.939975 
L 677.461698 117.761257 
L 679.589871 117.01173 
L 688.102562 112.906241 
L 690.230734 112.581237 
L 692.358907 112.411567 
L 694.48708 111.692661 
L 696.615253 110.625228 
L 698.743426 109.853013 
L 702.999771 107.530383 
L 705.127944 107.123258 
L 707.256117 106.874112 
L 709.38429 106.011007 
L 711.512462 104.745927 
L 713.640635 102.869256 
L 715.768808 98.938448 
L 717.896981 95.592786 
L 720.025153 93.966374 
L 722.153326 92.970484 
L 724.281499 90.860394 
L 726.409672 86.405543 
L 728.537845 82.868776 
L 732.79419 76.393194 
L 734.922363 75.316575 
L 737.050536 74.624672 
L 739.178709 72.602827 
L 743.435054 67.268725 
L 747.6914 61.55993 
L 749.819572 60.620272 
L 751.947745 59.957598 
L 754.075918 58.110295 
L 758.332264 53.331414 
L 760.460436 50.216665 
L 760.460436 50.216665 
" style="fill:none;stroke:#0000ff;stroke-linecap:round;stroke-width:1.5;"/>
   </g>
   <g id="line2d_111"/>
   <g id="patch_3">
    <path d="M 52.098125 493.286013 
L 52.098125 29.118125 
" style="fill:none;stroke:#262626;stroke-linecap:square;stroke-linejoin:miter;stroke-width:1.25;"/>
   </g>
   <g id="patch_4">
    <path d="M 794.191975 493.286013 
L 794.191975 29.118125 
" style="fill:none;stroke:#262626;stroke-linecap:square;stroke-linejoin:miter;stroke-width:1.25;"/>
   </g>
   <g id="patch_5">
    <path d="M 52.098125 493.286013 
L 794.191975 493.286013 
" style="fill:none;stroke:#262626;stroke-linecap:square;stroke-linejoin:miter;stroke-width:1.25;"/>
   </g>
   <g id="patch_6">
    <path d="M 52.098125 29.118125 
L 794.191975 29.118125 
" style="fill:none;stroke:#262626;stroke-linecap:square;stroke-linejoin:miter;stroke-width:1.25;"/>
   </g>
   <g id="text_33">
    <!-- Last update: 12.11.2021 -->
    <g style="fill:#262626;" transform="translate(361.646222 22.155607)scale(0.09996 -0.09996)">
     <defs>
      <path d="M 628 4666 
L 1259 4666 
L 1259 531 
L 3531 531 
L 3531 0 
L 628 0 
L 628 4666 
z
" id="DejaVuSans-4c" transform="scale(0.015625)"/>
      <path d="M 544 1381 
L 544 3500 
L 1119 3500 
L 1119 1403 
Q 1119 906 1312 657 
Q 1506 409 1894 409 
Q 2359 409 2629 706 
Q 2900 1003 2900 1516 
L 2900 3500 
L 3475 3500 
L 3475 0 
L 2900 0 
L 2900 538 
Q 2691 219 2414 64 
Q 2138 -91 1772 -91 
Q 1169 -91 856 284 
Q 544 659 544 1381 
z
M 1991 3584 
L 1991 3584 
z
" id="DejaVuSans-75" transform="scale(0.015625)"/>
      <path d="M 1159 525 
L 1159 -1331 
L 581 -1331 
L 581 3500 
L 1159 3500 
L 1159 2969 
Q 1341 3281 1617 3432 
Q 1894 3584 2278 3584 
Q 2916 3584 3314 3078 
Q 3713 2572 3713 1747 
Q 3713 922 3314 415 
Q 2916 -91 2278 -91 
Q 1894 -91 1617 61 
Q 1341 213 1159 525 
z
M 3116 1747 
Q 3116 2381 2855 2742 
Q 2594 3103 2138 3103 
Q 1681 3103 1420 2742 
Q 1159 2381 1159 1747 
Q 1159 1113 1420 752 
Q 1681 391 2138 391 
Q 2594 391 2855 752 
Q 3116 1113 3116 1747 
z
" id="DejaVuSans-70" transform="scale(0.015625)"/>
      <path d="M 750 794 
L 1409 794 
L 1409 0 
L 750 0 
L 750 794 
z
M 750 3309 
L 1409 3309 
L 1409 2516 
L 750 2516 
L 750 3309 
z
" id="DejaVuSans-3a" transform="scale(0.015625)"/>
     </defs>
     <use xlink:href="#DejaVuSans-4c"/>
     <use x="55.712891" xlink:href="#DejaVuSans-61"/>
     <use x="116.992188" xlink:href="#DejaVuSans-73"/>
     <use x="169.091797" xlink:href="#DejaVuSans-74"/>
     <use x="208.300781" xlink:href="#DejaVuSans-20"/>
     <use x="240.087891" xlink:href="#DejaVuSans-75"/>
     <use x="303.466797" xlink:href="#DejaVuSans-70"/>
     <use x="366.943359" xlink:href="#DejaVuSans-64"/>
     <use x="430.419922" xlink:href="#DejaVuSans-61"/>
     <use x="491.699219" xlink:href="#DejaVuSans-74"/>
     <use x="530.908203" xlink:href="#DejaVuSans-65"/>
     <use x="592.431641" xlink:href="#DejaVuSans-3a"/>
     <use x="626.123047" xlink:href="#DejaVuSans-20"/>
     <use x="657.910156" xlink:href="#DejaVuSans-31"/>
     <use x="721.533203" xlink:href="#DejaVuSans-32"/>
     <use x="785.15625" xlink:href="#DejaVuSans-2e"/>
     <use x="816.943359" xlink:href="#DejaVuSans-31"/>
     <use x="880.566406" xlink:href="#DejaVuSans-31"/>
     <use x="944.189453" xlink:href="#DejaVuSans-2e"/>
     <use x="975.976562" xlink:href="#DejaVuSans-32"/>
     <use x="1039.599609" xlink:href="#DejaVuSans-30"/>
     <use x="1103.222656" xlink:href="#DejaVuSans-32"/>
     <use x="1166.845703" xlink:href="#DejaVuSans-31"/>
    </g>
   </g>
   <g id="text_34">
    <!-- Last update: 12.11.2021 -->
    <g style="fill:#262626;" transform="translate(361.646222 22.155607)scale(0.09996 -0.09996)">
     <use xlink:href="#DejaVuSans-4c"/>
     <use x="55.712891" xlink:href="#DejaVuSans-61"/>
     <use x="116.992188" xlink:href="#DejaVuSans-73"/>
     <use x="169.091797" xlink:href="#DejaVuSans-74"/>
     <use x="208.300781" xlink:href="#DejaVuSans-20"/>
     <use x="240.087891" xlink:href="#DejaVuSans-75"/>
     <use x="303.466797" xlink:href="#DejaVuSans-70"/>
     <use x="366.943359" xlink:href="#DejaVuSans-64"/>
     <use x="430.419922" xlink:href="#DejaVuSans-61"/>
     <use x="491.699219" xlink:href="#DejaVuSans-74"/>
     <use x="530.908203" xlink:href="#DejaVuSans-65"/>
     <use x="592.431641" xlink:href="#DejaVuSans-3a"/>
     <use x="626.123047" xlink:href="#DejaVuSans-20"/>
     <use x="657.910156" xlink:href="#DejaVuSans-31"/>
     <use x="721.533203" xlink:href="#DejaVuSans-32"/>
     <use x="785.15625" xlink:href="#DejaVuSans-2e"/>
     <use x="816.943359" xlink:href="#DejaVuSans-31"/>
     <use x="880.566406" xlink:href="#DejaVuSans-31"/>
     <use x="944.189453" xlink:href="#DejaVuSans-2e"/>
     <use x="975.976562" xlink:href="#DejaVuSans-32"/>
     <use x="1039.599609" xlink:href="#DejaVuSans-30"/>
     <use x="1103.222656" xlink:href="#DejaVuSans-32"/>
     <use x="1166.845703" xlink:href="#DejaVuSans-31"/>
    </g>
   </g>
   <g id="text_35">
    <!-- Vaccination timeline by day -->
    <g style="fill:#262626;" transform="translate(329.73255 9.118125)scale(0.12 -0.12)">
     <defs>
      <path d="M 31 4666 
L 1241 4666 
L 2478 1222 
L 3713 4666 
L 4922 4666 
L 3194 0 
L 1759 0 
L 31 4666 
z
" id="DejaVuSans-Bold-56" transform="scale(0.015625)"/>
      <path d="M 2106 1575 
Q 1756 1575 1579 1456 
Q 1403 1338 1403 1106 
Q 1403 894 1545 773 
Q 1688 653 1941 653 
Q 2256 653 2472 879 
Q 2688 1106 2688 1447 
L 2688 1575 
L 2106 1575 
z
M 3816 1997 
L 3816 0 
L 2688 0 
L 2688 519 
Q 2463 200 2181 54 
Q 1900 -91 1497 -91 
Q 953 -91 614 226 
Q 275 544 275 1050 
Q 275 1666 698 1953 
Q 1122 2241 2028 2241 
L 2688 2241 
L 2688 2328 
Q 2688 2594 2478 2717 
Q 2269 2841 1825 2841 
Q 1466 2841 1156 2769 
Q 847 2697 581 2553 
L 581 3406 
Q 941 3494 1303 3539 
Q 1666 3584 2028 3584 
Q 2975 3584 3395 3211 
Q 3816 2838 3816 1997 
z
" id="DejaVuSans-Bold-61" transform="scale(0.015625)"/>
      <path d="M 3366 3391 
L 3366 2478 
Q 3138 2634 2908 2709 
Q 2678 2784 2431 2784 
Q 1963 2784 1702 2511 
Q 1441 2238 1441 1747 
Q 1441 1256 1702 982 
Q 1963 709 2431 709 
Q 2694 709 2930 787 
Q 3166 866 3366 1019 
L 3366 103 
Q 3103 6 2833 -42 
Q 2563 -91 2291 -91 
Q 1344 -91 809 395 
Q 275 881 275 1747 
Q 275 2613 809 3098 
Q 1344 3584 2291 3584 
Q 2566 3584 2833 3536 
Q 3100 3488 3366 3391 
z
" id="DejaVuSans-Bold-63" transform="scale(0.015625)"/>
      <path d="M 538 3500 
L 1656 3500 
L 1656 0 
L 538 0 
L 538 3500 
z
M 538 4863 
L 1656 4863 
L 1656 3950 
L 538 3950 
L 538 4863 
z
" id="DejaVuSans-Bold-69" transform="scale(0.015625)"/>
      <path d="M 4056 2131 
L 4056 0 
L 2931 0 
L 2931 347 
L 2931 1631 
Q 2931 2084 2911 2256 
Q 2891 2428 2841 2509 
Q 2775 2619 2662 2680 
Q 2550 2741 2406 2741 
Q 2056 2741 1856 2470 
Q 1656 2200 1656 1722 
L 1656 0 
L 538 0 
L 538 3500 
L 1656 3500 
L 1656 2988 
Q 1909 3294 2193 3439 
Q 2478 3584 2822 3584 
Q 3428 3584 3742 3212 
Q 4056 2841 4056 2131 
z
" id="DejaVuSans-Bold-6e" transform="scale(0.015625)"/>
      <path d="M 1759 4494 
L 1759 3500 
L 2913 3500 
L 2913 2700 
L 1759 2700 
L 1759 1216 
Q 1759 972 1856 886 
Q 1953 800 2241 800 
L 2816 800 
L 2816 0 
L 1856 0 
Q 1194 0 917 276 
Q 641 553 641 1216 
L 641 2700 
L 84 2700 
L 84 3500 
L 641 3500 
L 641 4494 
L 1759 4494 
z
" id="DejaVuSans-Bold-74" transform="scale(0.015625)"/>
      <path d="M 2203 2784 
Q 1831 2784 1636 2517 
Q 1441 2250 1441 1747 
Q 1441 1244 1636 976 
Q 1831 709 2203 709 
Q 2569 709 2762 976 
Q 2956 1244 2956 1747 
Q 2956 2250 2762 2517 
Q 2569 2784 2203 2784 
z
M 2203 3584 
Q 3106 3584 3614 3096 
Q 4122 2609 4122 1747 
Q 4122 884 3614 396 
Q 3106 -91 2203 -91 
Q 1297 -91 786 396 
Q 275 884 275 1747 
Q 275 2609 786 3096 
Q 1297 3584 2203 3584 
z
" id="DejaVuSans-Bold-6f" transform="scale(0.015625)"/>
      <path id="DejaVuSans-Bold-20" transform="scale(0.015625)"/>
      <path d="M 3781 2919 
Q 3994 3244 4286 3414 
Q 4578 3584 4928 3584 
Q 5531 3584 5847 3212 
Q 6163 2841 6163 2131 
L 6163 0 
L 5038 0 
L 5038 1825 
Q 5041 1866 5042 1909 
Q 5044 1953 5044 2034 
Q 5044 2406 4934 2573 
Q 4825 2741 4581 2741 
Q 4263 2741 4089 2478 
Q 3916 2216 3909 1719 
L 3909 0 
L 2784 0 
L 2784 1825 
Q 2784 2406 2684 2573 
Q 2584 2741 2328 2741 
Q 2006 2741 1831 2477 
Q 1656 2213 1656 1722 
L 1656 0 
L 531 0 
L 531 3500 
L 1656 3500 
L 1656 2988 
Q 1863 3284 2130 3434 
Q 2397 3584 2719 3584 
Q 3081 3584 3359 3409 
Q 3638 3234 3781 2919 
z
" id="DejaVuSans-Bold-6d" transform="scale(0.015625)"/>
      <path d="M 4031 1759 
L 4031 1441 
L 1416 1441 
Q 1456 1047 1700 850 
Q 1944 653 2381 653 
Q 2734 653 3104 758 
Q 3475 863 3866 1075 
L 3866 213 
Q 3469 63 3072 -14 
Q 2675 -91 2278 -91 
Q 1328 -91 801 392 
Q 275 875 275 1747 
Q 275 2603 792 3093 
Q 1309 3584 2216 3584 
Q 3041 3584 3536 3087 
Q 4031 2591 4031 1759 
z
M 2881 2131 
Q 2881 2450 2695 2645 
Q 2509 2841 2209 2841 
Q 1884 2841 1681 2658 
Q 1478 2475 1428 2131 
L 2881 2131 
z
" id="DejaVuSans-Bold-65" transform="scale(0.015625)"/>
      <path d="M 538 4863 
L 1656 4863 
L 1656 0 
L 538 0 
L 538 4863 
z
" id="DejaVuSans-Bold-6c" transform="scale(0.015625)"/>
      <path d="M 2400 722 
Q 2759 722 2948 984 
Q 3138 1247 3138 1747 
Q 3138 2247 2948 2509 
Q 2759 2772 2400 2772 
Q 2041 2772 1848 2508 
Q 1656 2244 1656 1747 
Q 1656 1250 1848 986 
Q 2041 722 2400 722 
z
M 1656 2988 
Q 1888 3294 2169 3439 
Q 2450 3584 2816 3584 
Q 3463 3584 3878 3070 
Q 4294 2556 4294 1747 
Q 4294 938 3878 423 
Q 3463 -91 2816 -91 
Q 2450 -91 2169 54 
Q 1888 200 1656 506 
L 1656 0 
L 538 0 
L 538 4863 
L 1656 4863 
L 1656 2988 
z
" id="DejaVuSans-Bold-62" transform="scale(0.015625)"/>
      <path d="M 78 3500 
L 1197 3500 
L 2138 1125 
L 2938 3500 
L 4056 3500 
L 2584 -331 
Q 2363 -916 2067 -1148 
Q 1772 -1381 1288 -1381 
L 641 -1381 
L 641 -647 
L 991 -647 
Q 1275 -647 1404 -556 
Q 1534 -466 1606 -231 
L 1638 -134 
L 78 3500 
z
" id="DejaVuSans-Bold-79" transform="scale(0.015625)"/>
      <path d="M 2919 2988 
L 2919 4863 
L 4044 4863 
L 4044 0 
L 2919 0 
L 2919 506 
Q 2688 197 2409 53 
Q 2131 -91 1766 -91 
Q 1119 -91 703 423 
Q 288 938 288 1747 
Q 288 2556 703 3070 
Q 1119 3584 1766 3584 
Q 2128 3584 2408 3439 
Q 2688 3294 2919 2988 
z
M 2181 722 
Q 2541 722 2730 984 
Q 2919 1247 2919 1747 
Q 2919 2247 2730 2509 
Q 2541 2772 2181 2772 
Q 1825 2772 1636 2509 
Q 1447 2247 1447 1747 
Q 1447 1247 1636 984 
Q 1825 722 2181 722 
z
" id="DejaVuSans-Bold-64" transform="scale(0.015625)"/>
     </defs>
     <use xlink:href="#DejaVuSans-Bold-56"/>
     <use x="71.892578" xlink:href="#DejaVuSans-Bold-61"/>
     <use x="139.373047" xlink:href="#DejaVuSans-Bold-63"/>
     <use x="198.650391" xlink:href="#DejaVuSans-Bold-63"/>
     <use x="257.927734" xlink:href="#DejaVuSans-Bold-69"/>
     <use x="292.205078" xlink:href="#DejaVuSans-Bold-6e"/>
     <use x="363.396484" xlink:href="#DejaVuSans-Bold-61"/>
     <use x="430.876953" xlink:href="#DejaVuSans-Bold-74"/>
     <use x="478.679688" xlink:href="#DejaVuSans-Bold-69"/>
     <use x="512.957031" xlink:href="#DejaVuSans-Bold-6f"/>
     <use x="581.658203" xlink:href="#DejaVuSans-Bold-6e"/>
     <use x="652.849609" xlink:href="#DejaVuSans-Bold-20"/>
     <use x="687.664062" xlink:href="#DejaVuSans-Bold-74"/>
     <use x="735.466797" xlink:href="#DejaVuSans-Bold-69"/>
     <use x="769.744141" xlink:href="#DejaVuSans-Bold-6d"/>
     <use x="873.943359" xlink:href="#DejaVuSans-Bold-65"/>
     <use x="941.765625" xlink:href="#DejaVuSans-Bold-6c"/>
     <use x="976.042969" xlink:href="#DejaVuSans-Bold-69"/>
     <use x="1010.320312" xlink:href="#DejaVuSans-Bold-6e"/>
     <use x="1081.511719" xlink:href="#DejaVuSans-Bold-65"/>
     <use x="1149.333984" xlink:href="#DejaVuSans-Bold-20"/>
     <use x="1184.148438" xlink:href="#DejaVuSans-Bold-62"/>
     <use x="1255.730469" xlink:href="#DejaVuSans-Bold-79"/>
     <use x="1320.916016" xlink:href="#DejaVuSans-Bold-20"/>
     <use x="1355.730469" xlink:href="#DejaVuSans-Bold-64"/>
     <use x="1427.3125" xlink:href="#DejaVuSans-Bold-61"/>
     <use x="1491.667969" xlink:href="#DejaVuSans-Bold-79"/>
    </g>
   </g>
  </g>
  <g id="axes_2">
   <g id="matplotlib.axis_3">
    <g id="ytick_8">
     <g id="line2d_112">
      <defs>
       <path d="M 0 0 
L 6 0 
" id="mb4158d4fe1" style="stroke:#262626;stroke-width:1.25;"/>
      </defs>
      <g>
       <use style="fill:#262626;stroke:#262626;stroke-width:1.25;" x="794.191975" xlink:href="#mb4158d4fe1" y="472.187472"/>
      </g>
     </g>
     <g id="text_36">
      <!-- 0 -->
      <g style="fill:#262626;" transform="translate(803.691975 476.366613)scale(0.11 -0.11)">
       <use xlink:href="#DejaVuSans-30"/>
      </g>
     </g>
    </g>
    <g id="ytick_9">
     <g id="line2d_113">
      <g>
       <use style="fill:#262626;stroke:#262626;stroke-width:1.25;" x="794.191975" xlink:href="#mb4158d4fe1" y="416.835424"/>
      </g>
     </g>
     <g id="text_37">
      <!-- 5000 -->
      <g style="fill:#262626;" transform="translate(803.691975 421.014564)scale(0.11 -0.11)">
       <use xlink:href="#DejaVuSans-35"/>
       <use x="63.623047" xlink:href="#DejaVuSans-30"/>
       <use x="127.246094" xlink:href="#DejaVuSans-30"/>
       <use x="190.869141" xlink:href="#DejaVuSans-30"/>
      </g>
     </g>
    </g>
    <g id="ytick_10">
     <g id="line2d_114">
      <g>
       <use style="fill:#262626;stroke:#262626;stroke-width:1.25;" x="794.191975" xlink:href="#mb4158d4fe1" y="361.483375"/>
      </g>
     </g>
     <g id="text_38">
      <!-- 10000 -->
      <g style="fill:#262626;" transform="translate(803.691975 365.662516)scale(0.11 -0.11)">
       <use xlink:href="#DejaVuSans-31"/>
       <use x="63.623047" xlink:href="#DejaVuSans-30"/>
       <use x="127.246094" xlink:href="#DejaVuSans-30"/>
       <use x="190.869141" xlink:href="#DejaVuSans-30"/>
       <use x="254.492188" xlink:href="#DejaVuSans-30"/>
      </g>
     </g>
    </g>
    <g id="ytick_11">
     <g id="line2d_115">
      <g>
       <use style="fill:#262626;stroke:#262626;stroke-width:1.25;" x="794.191975" xlink:href="#mb4158d4fe1" y="306.131327"/>
      </g>
     </g>
     <g id="text_39">
      <!-- 15000 -->
      <g style="fill:#262626;" transform="translate(803.691975 310.310467)scale(0.11 -0.11)">
       <use xlink:href="#DejaVuSans-31"/>
       <use x="63.623047" xlink:href="#DejaVuSans-35"/>
       <use x="127.246094" xlink:href="#DejaVuSans-30"/>
       <use x="190.869141" xlink:href="#DejaVuSans-30"/>
       <use x="254.492188" xlink:href="#DejaVuSans-30"/>
      </g>
     </g>
    </g>
    <g id="ytick_12">
     <g id="line2d_116">
      <g>
       <use style="fill:#262626;stroke:#262626;stroke-width:1.25;" x="794.191975" xlink:href="#mb4158d4fe1" y="250.779278"/>
      </g>
     </g>
     <g id="text_40">
      <!-- 20000 -->
      <g style="fill:#262626;" transform="translate(803.691975 254.958419)scale(0.11 -0.11)">
       <use xlink:href="#DejaVuSans-32"/>
       <use x="63.623047" xlink:href="#DejaVuSans-30"/>
       <use x="127.246094" xlink:href="#DejaVuSans-30"/>
       <use x="190.869141" xlink:href="#DejaVuSans-30"/>
       <use x="254.492188" xlink:href="#DejaVuSans-30"/>
      </g>
     </g>
    </g>
    <g id="ytick_13">
     <g id="line2d_117">
      <g>
       <use style="fill:#262626;stroke:#262626;stroke-width:1.25;" x="794.191975" xlink:href="#mb4158d4fe1" y="195.42723"/>
      </g>
     </g>
     <g id="text_41">
      <!-- 25000 -->
      <g style="fill:#262626;" transform="translate(803.691975 199.60637)scale(0.11 -0.11)">
       <use xlink:href="#DejaVuSans-32"/>
       <use x="63.623047" xlink:href="#DejaVuSans-35"/>
       <use x="127.246094" xlink:href="#DejaVuSans-30"/>
       <use x="190.869141" xlink:href="#DejaVuSans-30"/>
       <use x="254.492188" xlink:href="#DejaVuSans-30"/>
      </g>
     </g>
    </g>
    <g id="ytick_14">
     <g id="line2d_118">
      <g>
       <use style="fill:#262626;stroke:#262626;stroke-width:1.25;" x="794.191975" xlink:href="#mb4158d4fe1" y="140.075181"/>
      </g>
     </g>
     <g id="text_42">
      <!-- 30000 -->
      <g style="fill:#262626;" transform="translate(803.691975 144.254322)scale(0.11 -0.11)">
       <use xlink:href="#DejaVuSans-33"/>
       <use x="63.623047" xlink:href="#DejaVuSans-30"/>
       <use x="127.246094" xlink:href="#DejaVuSans-30"/>
       <use x="190.869141" xlink:href="#DejaVuSans-30"/>
       <use x="254.492188" xlink:href="#DejaVuSans-30"/>
      </g>
     </g>
    </g>
    <g id="ytick_15">
     <g id="line2d_119">
      <g>
       <use style="fill:#262626;stroke:#262626;stroke-width:1.25;" x="794.191975" xlink:href="#mb4158d4fe1" y="84.723132"/>
      </g>
     </g>
     <g id="text_43">
      <!-- 35000 -->
      <g style="fill:#262626;" transform="translate(803.691975 88.902273)scale(0.11 -0.11)">
       <use xlink:href="#DejaVuSans-33"/>
       <use x="63.623047" xlink:href="#DejaVuSans-35"/>
       <use x="127.246094" xlink:href="#DejaVuSans-30"/>
       <use x="190.869141" xlink:href="#DejaVuSans-30"/>
       <use x="254.492188" xlink:href="#DejaVuSans-30"/>
      </g>
     </g>
    </g>
    <g id="ytick_16">
     <g id="line2d_120">
      <g>
       <use style="fill:#262626;stroke:#262626;stroke-width:1.25;" x="794.191975" xlink:href="#mb4158d4fe1" y="29.371084"/>
      </g>
     </g>
     <g id="text_44">
      <!-- 40000 -->
      <g style="fill:#262626;" transform="translate(803.691975 33.550224)scale(0.11 -0.11)">
       <use xlink:href="#DejaVuSans-34"/>
       <use x="63.623047" xlink:href="#DejaVuSans-30"/>
       <use x="127.246094" xlink:href="#DejaVuSans-30"/>
       <use x="190.869141" xlink:href="#DejaVuSans-30"/>
       <use x="254.492188" xlink:href="#DejaVuSans-30"/>
      </g>
     </g>
    </g>
    <g id="text_45">
     <!-- Newly administered doses -->
     <g style="fill:#262626;" transform="translate(849.5676 182.190506)rotate(-270)scale(0.12 -0.12)">
      <defs>
       <path d="M 628 4666 
L 1478 4666 
L 3547 763 
L 3547 4666 
L 4159 4666 
L 4159 0 
L 3309 0 
L 1241 3903 
L 1241 0 
L 628 0 
L 628 4666 
z
" id="DejaVuSans-4e" transform="scale(0.015625)"/>
       <path d="M 269 3500 
L 844 3500 
L 1563 769 
L 2278 3500 
L 2956 3500 
L 3675 769 
L 4391 3500 
L 4966 3500 
L 4050 0 
L 3372 0 
L 2619 2869 
L 1863 0 
L 1184 0 
L 269 3500 
z
" id="DejaVuSans-77" transform="scale(0.015625)"/>
       <path d="M 603 4863 
L 1178 4863 
L 1178 0 
L 603 0 
L 603 4863 
z
" id="DejaVuSans-6c" transform="scale(0.015625)"/>
       <path d="M 2059 -325 
Q 1816 -950 1584 -1140 
Q 1353 -1331 966 -1331 
L 506 -1331 
L 506 -850 
L 844 -850 
Q 1081 -850 1212 -737 
Q 1344 -625 1503 -206 
L 1606 56 
L 191 3500 
L 800 3500 
L 1894 763 
L 2988 3500 
L 3597 3500 
L 2059 -325 
z
" id="DejaVuSans-79" transform="scale(0.015625)"/>
      </defs>
      <use xlink:href="#DejaVuSans-4e"/>
      <use x="74.804688" xlink:href="#DejaVuSans-65"/>
      <use x="136.328125" xlink:href="#DejaVuSans-77"/>
      <use x="218.115234" xlink:href="#DejaVuSans-6c"/>
      <use x="245.898438" xlink:href="#DejaVuSans-79"/>
      <use x="305.078125" xlink:href="#DejaVuSans-20"/>
      <use x="336.865234" xlink:href="#DejaVuSans-61"/>
      <use x="398.144531" xlink:href="#DejaVuSans-64"/>
      <use x="461.621094" xlink:href="#DejaVuSans-6d"/>
      <use x="559.033203" xlink:href="#DejaVuSans-69"/>
      <use x="586.816406" xlink:href="#DejaVuSans-6e"/>
      <use x="650.195312" xlink:href="#DejaVuSans-69"/>
      <use x="677.978516" xlink:href="#DejaVuSans-73"/>
      <use x="730.078125" xlink:href="#DejaVuSans-74"/>
      <use x="769.287109" xlink:href="#DejaVuSans-65"/>
      <use x="830.810547" xlink:href="#DejaVuSans-72"/>
      <use x="869.673828" xlink:href="#DejaVuSans-65"/>
      <use x="931.197266" xlink:href="#DejaVuSans-64"/>
      <use x="994.673828" xlink:href="#DejaVuSans-20"/>
      <use x="1026.460938" xlink:href="#DejaVuSans-64"/>
      <use x="1089.9375" xlink:href="#DejaVuSans-6f"/>
      <use x="1151.119141" xlink:href="#DejaVuSans-73"/>
      <use x="1203.21875" xlink:href="#DejaVuSans-65"/>
      <use x="1264.742188" xlink:href="#DejaVuSans-73"/>
     </g>
    </g>
   </g>
   <g id="line2d_121">
    <path clip-path="url(#pfc51f15c5e)" d="M 85.829664 429.079297 
L 87.957836 464.2832 
L 90.086009 470.737249 
L 92.214182 472.187472 
L 98.5987 472.187472 
L 100.726873 464.338552 
L 102.855046 444.898912 
L 104.983219 436.71788 
L 107.111391 447.411895 
L 109.239564 470.881164 
L 111.367737 472.187472 
L 113.49591 464.57103 
L 115.624083 454.264479 
L 117.752255 458.260897 
L 119.880428 465.013847 
L 122.008601 467.316492 
L 124.136774 469.906968 
L 126.264947 470.847953 
L 128.393119 459.069037 
L 130.521292 443.537252 
L 132.649465 451.142623 
L 134.777638 459.744332 
L 136.90581 462.777624 
L 139.033983 471.988205 
L 141.162156 471.921782 
L 143.290329 464.936354 
L 145.418502 446.45984 
L 147.546674 430.175267 
L 149.674847 419.946209 
L 151.80302 437.105344 
L 153.931193 469.807334 
L 156.059366 471.025079 
L 158.187538 455.482224 
L 160.315711 435.843317 
L 162.443884 425.614259 
L 164.572057 429.001804 
L 166.700229 440.802861 
L 168.828402 470.460488 
L 170.956575 471.943923 
L 173.084748 451.707214 
L 175.212921 432.998222 
L 177.341093 430.839492 
L 179.469266 417.27824 
L 181.597439 432.655039 
L 183.725612 465.257396 
L 185.853785 471.434684 
L 187.981957 449.515273 
L 190.11013 428.990734 
L 192.238303 421.462855 
L 194.366476 421.33001 
L 196.494648 319.925057 
L 198.622821 426.931637 
L 200.750994 350.435106 
L 202.879167 342.564045 
L 205.00734 282.18603 
L 207.135512 248.166661 
L 209.263685 250.225758 
L 211.391858 295.869057 
L 213.520031 413.281822 
L 215.648203 442.463422 
L 217.776376 349.372347 
L 219.904549 248.199873 
L 222.032722 423.510881 
L 224.160895 246.627874 
L 226.289067 295.94655 
L 228.41724 442.806605 
L 230.545413 455.437942 
L 232.673586 411.289148 
L 234.801759 383.413857 
L 236.929931 394.761027 
L 239.058104 302.799133 
L 241.186277 336.973488 
L 243.31445 458.415883 
L 245.442622 461.393823 
L 247.570795 440.880354 
L 249.698968 424.728626 
L 251.827141 420.067983 
L 253.955314 412.96078 
L 256.083486 398.35891 
L 258.211659 429.832085 
L 260.339832 446.083446 
L 264.596178 334.526928 
L 266.72435 333.763069 
L 268.852523 313.969177 
L 270.980696 310.260589 
L 273.108869 428.680762 
L 275.237041 445.806686 
L 277.365214 372.487362 
L 279.493387 326.235191 
L 281.62156 320.390014 
L 283.749733 322.083787 
L 285.877905 338.423712 
L 288.006078 427.983326 
L 290.134251 455.670421 
L 292.262424 400.462288 
L 294.390597 366.066525 
L 296.518769 319.216551 
L 298.646942 261.152252 
L 300.775115 307.459776 
L 302.903288 431.60335 
L 305.03146 454.474817 
L 307.159633 391.041369 
L 309.287806 355.914959 
L 311.415979 307.437635 
L 313.544152 306.153467 
L 315.672324 319.925057 
L 317.800497 438.013118 
L 319.92867 458.60408 
L 322.056843 394.218577 
L 324.185016 341.036328 
L 326.313188 259.989859 
L 328.441361 228.461332 
L 330.569534 268.237314 
L 332.697707 425.359639 
L 334.825879 449.271724 
L 336.954052 351.409302 
L 339.082225 286.76918 
L 341.210398 191.497234 
L 343.338571 174.149902 
L 345.466743 336.165348 
L 347.594916 408.477264 
L 349.723089 434.492727 
L 351.851262 373.804741 
L 353.979434 348.940601 
L 356.107607 112.609494 
L 358.23578 393.255451 
L 360.363953 50.216665 
L 362.492126 360.951996 
L 364.620298 409.695009 
L 366.748471 190.168785 
L 368.876644 76.442466 
L 371.004817 68.383208 
L 373.13299 54.168802 
L 375.261162 104.240265 
L 377.389335 399.222402 
L 379.517508 434.658783 
L 381.645681 270.307481 
L 383.773853 183.570821 
L 385.902026 136.211608 
L 388.030199 93.535179 
L 390.158372 194.696582 
L 392.286545 401.912511 
L 394.414717 431.581209 
L 396.54289 414.931313 
L 398.671063 285.518224 
L 400.799236 241.280867 
L 402.927409 270.584241 
L 405.055581 258.041467 
L 407.183754 393.875394 
L 409.311927 416.337255 
L 411.4401 331.8811 
L 413.568272 272.388718 
L 415.696445 228.848796 
L 417.824618 215.874276 
L 419.952791 231.461413 
L 422.080964 405.864648 
L 424.209136 390.155736 
L 428.465482 231.295357 
L 430.593655 206.420146 
L 432.721828 209.121326 
L 434.85 245.365848 
L 436.978173 417.189677 
L 439.106346 436.064725 
L 441.234519 365.313737 
L 443.362691 301.061079 
L 445.490864 277.259698 
L 447.619037 270.573171 
L 449.74721 303.585132 
L 451.875383 429.499972 
L 454.003555 437.503879 
L 456.131728 378.066849 
L 458.259901 331.34972 
L 460.388074 318.319848 
L 462.516247 314.854809 
L 464.644419 336.242841 
L 466.772592 437.80278 
L 468.900765 442.075958 
L 471.028938 382.97104 
L 473.15711 332.811014 
L 475.285283 328.139301 
L 477.413456 335.977151 
L 479.541629 342.386918 
L 481.669802 432.356138 
L 483.797974 448.308599 
L 485.926147 385.683291 
L 488.05432 342.652608 
L 490.182493 330.187327 
L 492.310666 336.264982 
L 494.438838 344.390663 
L 496.567011 436.042585 
L 498.695184 449.017105 
L 500.823357 379.085327 
L 502.951529 340.294611 
L 505.079702 339.043655 
L 507.207875 343.327903 
L 509.336048 354.032989 
L 511.464221 442.718042 
L 513.592393 449.559555 
L 515.720566 386.181459 
L 517.848739 361.693713 
L 519.976912 349.770882 
L 522.105084 346.671167 
L 524.233257 356.413128 
L 526.36143 432.998222 
L 528.489603 450.068794 
L 530.617776 377.723666 
L 532.745948 337.383093 
L 534.874121 328.582118 
L 537.002294 337.006699 
L 539.130467 350.911134 
L 541.25864 436.839654 
L 543.386812 448.220035 
L 545.514985 380.192368 
L 547.643158 335.1358 
L 549.771331 332.124649 
L 551.899503 333.652365 
L 554.027676 340.848131 
L 556.155849 435.898669 
L 558.284022 446.382347 
L 560.412195 372.730911 
L 562.540367 340.493878 
L 564.66854 335.866447 
L 566.796713 341.169173 
L 568.924886 356.224931 
L 571.053059 433.396757 
L 573.181231 447.987557 
L 575.309404 371.05928 
L 577.437577 337.02884 
L 579.56575 330.608003 
L 581.693922 337.936614 
L 583.822095 341.88875 
L 585.950268 431.182675 
L 588.078441 445.740263 
L 590.206614 362.822895 
L 592.334786 320.157536 
L 594.462959 319.515452 
L 596.591132 323.744348 
L 598.719305 333.962337 
L 600.847478 428.680762 
L 602.97565 444.068632 
L 605.103823 357.022 
L 607.231996 322.880857 
L 609.360169 338.92188 
L 611.488341 337.261319 
L 613.616514 337.194896 
L 615.744687 434.880192 
L 617.87286 448.408232 
L 620.001033 453.877015 
L 622.129205 346.350125 
L 624.257378 334.272308 
L 626.385551 340.361033 
L 628.513724 350.114064 
L 630.641897 438.168103 
L 632.770069 450.533751 
L 634.898242 383.137097 
L 637.026415 350.601162 
L 639.154588 358.36152 
L 641.28276 348.342799 
L 643.410933 356.545972 
L 645.539106 438.522356 
L 647.667279 453.400987 
L 649.795452 388.650161 
L 651.923624 360.774869 
L 654.051797 451.618651 
L 656.17997 345.530915 
L 658.308143 361.405882 
L 660.436315 444.887842 
L 662.564488 455.449013 
L 664.692661 414.521708 
L 666.820834 383.967377 
L 668.949007 372.487362 
L 671.077179 373.594403 
L 673.205352 394.008239 
L 675.333525 446.913727 
L 677.461698 457.973066 
L 679.589871 412.573316 
L 681.718043 390.211088 
L 683.846216 392.713001 
L 685.974389 386.845684 
L 688.102562 392.447311 
L 690.230734 446.338066 
L 692.358907 458.692643 
L 694.48708 415.008806 
L 696.615253 387.2885 
L 698.743426 410.768839 
L 700.871598 382.982111 
L 702.999771 376.660907 
L 705.127944 439.806524 
L 707.256117 452.371439 
L 709.38429 403.539862 
L 711.512462 371.568518 
L 713.640635 322.925138 
L 715.768808 159.548032 
L 717.896981 206.088034 
L 720.025153 342.829735 
L 722.153326 392.978691 
L 724.281499 304.360061 
L 726.409672 117.867939 
L 728.537845 190.888362 
L 730.666017 213.361293 
L 732.79419 215.97391 
L 734.922363 386.557853 
L 737.050536 417.156466 
L 739.178709 311.378701 
L 741.306881 264.274108 
L 743.435054 255.849526 
L 745.563227 242.343626 
L 747.6914 247.978464 
L 749.819572 397.451136 
L 751.947745 419.481252 
L 754.075918 325.260995 
L 756.204091 284.311549 
L 758.332264 279.971948 
L 760.460436 224.453844 
L 760.460436 224.453844 
" style="fill:none;stroke:#ff0000;stroke-linecap:round;stroke-width:1.5;"/>
   </g>
   <g id="patch_7">
    <path d="M 52.098125 493.286013 
L 52.098125 29.118125 
" style="fill:none;stroke:#262626;stroke-linecap:square;stroke-linejoin:miter;stroke-width:1.25;"/>
   </g>
   <g id="patch_8">
    <path d="M 794.191975 493.286013 
L 794.191975 29.118125 
" style="fill:none;stroke:#262626;stroke-linecap:square;stroke-linejoin:miter;stroke-width:1.25;"/>
   </g>
   <g id="patch_9">
    <path d="M 52.098125 493.286013 
L 794.191975 493.286013 
" style="fill:none;stroke:#262626;stroke-linecap:square;stroke-linejoin:miter;stroke-width:1.25;"/>
   </g>
   <g id="patch_10">
    <path d="M 52.098125 29.118125 
L 794.191975 29.118125 
" style="fill:none;stroke:#262626;stroke-linecap:square;stroke-linejoin:miter;stroke-width:1.25;"/>
   </g>
   <g id="legend_1">
    <g id="patch_11">
     <path d="M 577.215256 70.21 
L 786.491975 70.21 
Q 788.691975 70.21 788.691975 68.01 
L 788.691975 36.818125 
Q 788.691975 34.618125 786.491975 34.618125 
L 577.215256 34.618125 
Q 575.015256 34.618125 575.015256 36.818125 
L 575.015256 68.01 
Q 575.015256 70.21 577.215256 70.21 
z
" style="fill:#ffffff;opacity:0.8;stroke:#cccccc;stroke-linejoin:miter;"/>
    </g>
    <g id="line2d_122">
     <path d="M 579.415256 43.526406 
L 601.415256 43.526406 
" style="fill:none;stroke:#0000ff;stroke-linecap:round;stroke-width:1.5;"/>
    </g>
    <g id="line2d_123"/>
    <g id="text_46">
     <!-- Cumulative administered doses -->
     <g style="fill:#262626;" transform="translate(610.215256 47.376406)scale(0.11 -0.11)">
      <defs>
       <path d="M 4122 4306 
L 4122 3641 
Q 3803 3938 3442 4084 
Q 3081 4231 2675 4231 
Q 1875 4231 1450 3742 
Q 1025 3253 1025 2328 
Q 1025 1406 1450 917 
Q 1875 428 2675 428 
Q 3081 428 3442 575 
Q 3803 722 4122 1019 
L 4122 359 
Q 3791 134 3420 21 
Q 3050 -91 2638 -91 
Q 1578 -91 968 557 
Q 359 1206 359 2328 
Q 359 3453 968 4101 
Q 1578 4750 2638 4750 
Q 3056 4750 3426 4639 
Q 3797 4528 4122 4306 
z
" id="DejaVuSans-43" transform="scale(0.015625)"/>
       <path d="M 191 3500 
L 800 3500 
L 1894 563 
L 2988 3500 
L 3597 3500 
L 2284 0 
L 1503 0 
L 191 3500 
z
" id="DejaVuSans-76" transform="scale(0.015625)"/>
      </defs>
      <use xlink:href="#DejaVuSans-43"/>
      <use x="69.824219" xlink:href="#DejaVuSans-75"/>
      <use x="133.203125" xlink:href="#DejaVuSans-6d"/>
      <use x="230.615234" xlink:href="#DejaVuSans-75"/>
      <use x="293.994141" xlink:href="#DejaVuSans-6c"/>
      <use x="321.777344" xlink:href="#DejaVuSans-61"/>
      <use x="383.056641" xlink:href="#DejaVuSans-74"/>
      <use x="422.265625" xlink:href="#DejaVuSans-69"/>
      <use x="450.048828" xlink:href="#DejaVuSans-76"/>
      <use x="509.228516" xlink:href="#DejaVuSans-65"/>
      <use x="570.751953" xlink:href="#DejaVuSans-20"/>
      <use x="602.539062" xlink:href="#DejaVuSans-61"/>
      <use x="663.818359" xlink:href="#DejaVuSans-64"/>
      <use x="727.294922" xlink:href="#DejaVuSans-6d"/>
      <use x="824.707031" xlink:href="#DejaVuSans-69"/>
      <use x="852.490234" xlink:href="#DejaVuSans-6e"/>
      <use x="915.869141" xlink:href="#DejaVuSans-69"/>
      <use x="943.652344" xlink:href="#DejaVuSans-73"/>
      <use x="995.751953" xlink:href="#DejaVuSans-74"/>
      <use x="1034.960938" xlink:href="#DejaVuSans-65"/>
      <use x="1096.484375" xlink:href="#DejaVuSans-72"/>
      <use x="1135.347656" xlink:href="#DejaVuSans-65"/>
      <use x="1196.871094" xlink:href="#DejaVuSans-64"/>
      <use x="1260.347656" xlink:href="#DejaVuSans-20"/>
      <use x="1292.134766" xlink:href="#DejaVuSans-64"/>
      <use x="1355.611328" xlink:href="#DejaVuSans-6f"/>
      <use x="1416.792969" xlink:href="#DejaVuSans-73"/>
      <use x="1468.892578" xlink:href="#DejaVuSans-65"/>
      <use x="1530.416016" xlink:href="#DejaVuSans-73"/>
     </g>
    </g>
    <g id="line2d_124">
     <path d="M 579.415256 59.672344 
L 601.415256 59.672344 
" style="fill:none;stroke:#ff0000;stroke-linecap:round;stroke-width:1.5;"/>
    </g>
    <g id="line2d_125"/>
    <g id="text_47">
     <!-- Newly administered doses -->
     <g style="fill:#262626;" transform="translate(610.215256 63.522344)scale(0.11 -0.11)">
      <use xlink:href="#DejaVuSans-4e"/>
      <use x="74.804688" xlink:href="#DejaVuSans-65"/>
      <use x="136.328125" xlink:href="#DejaVuSans-77"/>
      <use x="218.115234" xlink:href="#DejaVuSans-6c"/>
      <use x="245.898438" xlink:href="#DejaVuSans-79"/>
      <use x="305.078125" xlink:href="#DejaVuSans-20"/>
      <use x="336.865234" xlink:href="#DejaVuSans-61"/>
      <use x="398.144531" xlink:href="#DejaVuSans-64"/>
      <use x="461.621094" xlink:href="#DejaVuSans-6d"/>
      <use x="559.033203" xlink:href="#DejaVuSans-69"/>
      <use x="586.816406" xlink:href="#DejaVuSans-6e"/>
      <use x="650.195312" xlink:href="#DejaVuSans-69"/>
      <use x="677.978516" xlink:href="#DejaVuSans-73"/>
      <use x="730.078125" xlink:href="#DejaVuSans-74"/>
      <use x="769.287109" xlink:href="#DejaVuSans-65"/>
      <use x="830.810547" xlink:href="#DejaVuSans-72"/>
      <use x="869.673828" xlink:href="#DejaVuSans-65"/>
      <use x="931.197266" xlink:href="#DejaVuSans-64"/>
      <use x="994.673828" xlink:href="#DejaVuSans-20"/>
      <use x="1026.460938" xlink:href="#DejaVuSans-64"/>
      <use x="1089.9375" xlink:href="#DejaVuSans-6f"/>
      <use x="1151.119141" xlink:href="#DejaVuSans-73"/>
      <use x="1203.21875" xlink:href="#DejaVuSans-65"/>
      <use x="1264.742188" xlink:href="#DejaVuSans-73"/>
     </g>
    </g>
   </g>
  </g>
 </g>
 <defs>
  <clipPath id="pfc51f15c5e">
   <rect height="464.167888" width="742.09385" x="52.098125" y="29.118125"/>
  </clipPath>
 </defs>
</svg>
