<?xml version="1.0" encoding="utf-8" standalone="no"?>
<!DOCTYPE svg PUBLIC "-//W3C//DTD SVG 1.1//EN"
  "http://www.w3.org/Graphics/SVG/1.1/DTD/svg11.dtd">
<svg height="570.462488pt" version="1.1" viewBox="0 0 862.888 570.462488" width="862.888pt" xmlns="http://www.w3.org/2000/svg" xmlns:xlink="http://www.w3.org/1999/xlink">
 <metadata>
  <rdf:RDF xmlns:cc="http://creativecommons.org/ns#" xmlns:dc="http://purl.org/dc/elements/1.1/" xmlns:rdf="http://www.w3.org/1999/02/22-rdf-syntax-ns#">
   <cc:Work>
    <dc:type rdf:resource="http://purl.org/dc/dcmitype/StillImage"/>
    <dc:date>2021-11-15T01:52:08.056632</dc:date>
    <dc:format>image/svg+xml</dc:format>
    <dc:creator>
     <cc:Agent>
      <dc:title>Matplotlib v3.4.3, https://matplotlib.org/</dc:title>
     </cc:Agent>
    </dc:creator>
   </cc:Work>
  </rdf:RDF>
 </metadata>
 <defs>
  <style type="text/css">*{stroke-linecap:butt;stroke-linejoin:round;}</style>
 </defs>
 <g id="figure_1">
  <g id="patch_1">
   <path d="M 0 570.462488 
L 862.888 570.462488 
L 862.888 0 
L 0 0 
z
" style="fill:none;"/>
  </g>
  <g id="axes_1">
   <g id="patch_2">
    <path d="M 67.10625 493.286013 
L 798.39425 493.286013 
L 798.39425 29.118125 
L 67.10625 29.118125 
z
" style="fill:none;"/>
   </g>
   <g id="matplotlib.axis_1">
    <g id="xtick_1">
     <g id="line2d_1">
      <path clip-path="url(#p56214cd2d3)" d="M 100.346614 493.286013 
L 100.346614 29.118125 
" style="fill:none;stroke:#cccccc;stroke-linecap:round;"/>
     </g>
     <g id="line2d_2">
      <defs>
       <path d="M 0 0 
L 0 6 
" id="md3c446bb59" style="stroke:#262626;stroke-width:1.25;"/>
      </defs>
      <g>
       <use style="fill:#262626;stroke:#262626;stroke-width:1.25;" x="100.346614" xlink:href="#md3c446bb59" y="493.286013"/>
      </g>
     </g>
     <g id="text_1">
      <!-- 07.03.2020 -->
      <g style="fill:#262626;" transform="translate(54.194085 553.231121)rotate(-45)scale(0.11 -0.11)">
       <defs>
        <path d="M 2034 4250 
Q 1547 4250 1301 3770 
Q 1056 3291 1056 2328 
Q 1056 1369 1301 889 
Q 1547 409 2034 409 
Q 2525 409 2770 889 
Q 3016 1369 3016 2328 
Q 3016 3291 2770 3770 
Q 2525 4250 2034 4250 
z
M 2034 4750 
Q 2819 4750 3233 4129 
Q 3647 3509 3647 2328 
Q 3647 1150 3233 529 
Q 2819 -91 2034 -91 
Q 1250 -91 836 529 
Q 422 1150 422 2328 
Q 422 3509 836 4129 
Q 1250 4750 2034 4750 
z
" id="DejaVuSans-30" transform="scale(0.015625)"/>
        <path d="M 525 4666 
L 3525 4666 
L 3525 4397 
L 1831 0 
L 1172 0 
L 2766 4134 
L 525 4134 
L 525 4666 
z
" id="DejaVuSans-37" transform="scale(0.015625)"/>
        <path d="M 684 794 
L 1344 794 
L 1344 0 
L 684 0 
L 684 794 
z
" id="DejaVuSans-2e" transform="scale(0.015625)"/>
        <path d="M 2597 2516 
Q 3050 2419 3304 2112 
Q 3559 1806 3559 1356 
Q 3559 666 3084 287 
Q 2609 -91 1734 -91 
Q 1441 -91 1130 -33 
Q 819 25 488 141 
L 488 750 
Q 750 597 1062 519 
Q 1375 441 1716 441 
Q 2309 441 2620 675 
Q 2931 909 2931 1356 
Q 2931 1769 2642 2001 
Q 2353 2234 1838 2234 
L 1294 2234 
L 1294 2753 
L 1863 2753 
Q 2328 2753 2575 2939 
Q 2822 3125 2822 3475 
Q 2822 3834 2567 4026 
Q 2313 4219 1838 4219 
Q 1578 4219 1281 4162 
Q 984 4106 628 3988 
L 628 4550 
Q 988 4650 1302 4700 
Q 1616 4750 1894 4750 
Q 2613 4750 3031 4423 
Q 3450 4097 3450 3541 
Q 3450 3153 3228 2886 
Q 3006 2619 2597 2516 
z
" id="DejaVuSans-33" transform="scale(0.015625)"/>
        <path d="M 1228 531 
L 3431 531 
L 3431 0 
L 469 0 
L 469 531 
Q 828 903 1448 1529 
Q 2069 2156 2228 2338 
Q 2531 2678 2651 2914 
Q 2772 3150 2772 3378 
Q 2772 3750 2511 3984 
Q 2250 4219 1831 4219 
Q 1534 4219 1204 4116 
Q 875 4013 500 3803 
L 500 4441 
Q 881 4594 1212 4672 
Q 1544 4750 1819 4750 
Q 2544 4750 2975 4387 
Q 3406 4025 3406 3419 
Q 3406 3131 3298 2873 
Q 3191 2616 2906 2266 
Q 2828 2175 2409 1742 
Q 1991 1309 1228 531 
z
" id="DejaVuSans-32" transform="scale(0.015625)"/>
       </defs>
       <use xlink:href="#DejaVuSans-30"/>
       <use x="63.623047" xlink:href="#DejaVuSans-37"/>
       <use x="127.246094" xlink:href="#DejaVuSans-2e"/>
       <use x="159.033203" xlink:href="#DejaVuSans-30"/>
       <use x="222.65625" xlink:href="#DejaVuSans-33"/>
       <use x="286.279297" xlink:href="#DejaVuSans-2e"/>
       <use x="318.066406" xlink:href="#DejaVuSans-32"/>
       <use x="381.689453" xlink:href="#DejaVuSans-30"/>
       <use x="445.3125" xlink:href="#DejaVuSans-32"/>
       <use x="508.935547" xlink:href="#DejaVuSans-30"/>
      </g>
     </g>
    </g>
    <g id="xtick_2">
     <g id="line2d_3">
      <path clip-path="url(#p56214cd2d3)" d="M 130.51615 493.286013 
L 130.51615 29.118125 
" style="fill:none;stroke:#cccccc;stroke-linecap:round;"/>
     </g>
     <g id="line2d_4">
      <g>
       <use style="fill:#262626;stroke:#262626;stroke-width:1.25;" x="130.51615" xlink:href="#md3c446bb59" y="493.286013"/>
      </g>
     </g>
     <g id="text_2">
      <!-- 04.04.2020 -->
      <g style="fill:#262626;" transform="translate(84.363621 553.231121)rotate(-45)scale(0.11 -0.11)">
       <defs>
        <path d="M 2419 4116 
L 825 1625 
L 2419 1625 
L 2419 4116 
z
M 2253 4666 
L 3047 4666 
L 3047 1625 
L 3713 1625 
L 3713 1100 
L 3047 1100 
L 3047 0 
L 2419 0 
L 2419 1100 
L 313 1100 
L 313 1709 
L 2253 4666 
z
" id="DejaVuSans-34" transform="scale(0.015625)"/>
       </defs>
       <use xlink:href="#DejaVuSans-30"/>
       <use x="63.623047" xlink:href="#DejaVuSans-34"/>
       <use x="127.246094" xlink:href="#DejaVuSans-2e"/>
       <use x="159.033203" xlink:href="#DejaVuSans-30"/>
       <use x="222.65625" xlink:href="#DejaVuSans-34"/>
       <use x="286.279297" xlink:href="#DejaVuSans-2e"/>
       <use x="318.066406" xlink:href="#DejaVuSans-32"/>
       <use x="381.689453" xlink:href="#DejaVuSans-30"/>
       <use x="445.3125" xlink:href="#DejaVuSans-32"/>
       <use x="508.935547" xlink:href="#DejaVuSans-30"/>
      </g>
     </g>
    </g>
    <g id="xtick_3">
     <g id="line2d_5">
      <path clip-path="url(#p56214cd2d3)" d="M 160.685685 493.286013 
L 160.685685 29.118125 
" style="fill:none;stroke:#cccccc;stroke-linecap:round;"/>
     </g>
     <g id="line2d_6">
      <g>
       <use style="fill:#262626;stroke:#262626;stroke-width:1.25;" x="160.685685" xlink:href="#md3c446bb59" y="493.286013"/>
      </g>
     </g>
     <g id="text_3">
      <!-- 02.05.2020 -->
      <g style="fill:#262626;" transform="translate(114.533157 553.231121)rotate(-45)scale(0.11 -0.11)">
       <defs>
        <path d="M 691 4666 
L 3169 4666 
L 3169 4134 
L 1269 4134 
L 1269 2991 
Q 1406 3038 1543 3061 
Q 1681 3084 1819 3084 
Q 2600 3084 3056 2656 
Q 3513 2228 3513 1497 
Q 3513 744 3044 326 
Q 2575 -91 1722 -91 
Q 1428 -91 1123 -41 
Q 819 9 494 109 
L 494 744 
Q 775 591 1075 516 
Q 1375 441 1709 441 
Q 2250 441 2565 725 
Q 2881 1009 2881 1497 
Q 2881 1984 2565 2268 
Q 2250 2553 1709 2553 
Q 1456 2553 1204 2497 
Q 953 2441 691 2322 
L 691 4666 
z
" id="DejaVuSans-35" transform="scale(0.015625)"/>
       </defs>
       <use xlink:href="#DejaVuSans-30"/>
       <use x="63.623047" xlink:href="#DejaVuSans-32"/>
       <use x="127.246094" xlink:href="#DejaVuSans-2e"/>
       <use x="159.033203" xlink:href="#DejaVuSans-30"/>
       <use x="222.65625" xlink:href="#DejaVuSans-35"/>
       <use x="286.279297" xlink:href="#DejaVuSans-2e"/>
       <use x="318.066406" xlink:href="#DejaVuSans-32"/>
       <use x="381.689453" xlink:href="#DejaVuSans-30"/>
       <use x="445.3125" xlink:href="#DejaVuSans-32"/>
       <use x="508.935547" xlink:href="#DejaVuSans-30"/>
      </g>
     </g>
    </g>
    <g id="xtick_4">
     <g id="line2d_7">
      <path clip-path="url(#p56214cd2d3)" d="M 190.855221 493.286013 
L 190.855221 29.118125 
" style="fill:none;stroke:#cccccc;stroke-linecap:round;"/>
     </g>
     <g id="line2d_8">
      <g>
       <use style="fill:#262626;stroke:#262626;stroke-width:1.25;" x="190.855221" xlink:href="#md3c446bb59" y="493.286013"/>
      </g>
     </g>
     <g id="text_4">
      <!-- 30.05.2020 -->
      <g style="fill:#262626;" transform="translate(144.702693 553.231121)rotate(-45)scale(0.11 -0.11)">
       <use xlink:href="#DejaVuSans-33"/>
       <use x="63.623047" xlink:href="#DejaVuSans-30"/>
       <use x="127.246094" xlink:href="#DejaVuSans-2e"/>
       <use x="159.033203" xlink:href="#DejaVuSans-30"/>
       <use x="222.65625" xlink:href="#DejaVuSans-35"/>
       <use x="286.279297" xlink:href="#DejaVuSans-2e"/>
       <use x="318.066406" xlink:href="#DejaVuSans-32"/>
       <use x="381.689453" xlink:href="#DejaVuSans-30"/>
       <use x="445.3125" xlink:href="#DejaVuSans-32"/>
       <use x="508.935547" xlink:href="#DejaVuSans-30"/>
      </g>
     </g>
    </g>
    <g id="xtick_5">
     <g id="line2d_9">
      <path clip-path="url(#p56214cd2d3)" d="M 221.024757 493.286013 
L 221.024757 29.118125 
" style="fill:none;stroke:#cccccc;stroke-linecap:round;"/>
     </g>
     <g id="line2d_10">
      <g>
       <use style="fill:#262626;stroke:#262626;stroke-width:1.25;" x="221.024757" xlink:href="#md3c446bb59" y="493.286013"/>
      </g>
     </g>
     <g id="text_5">
      <!-- 27.06.2020 -->
      <g style="fill:#262626;" transform="translate(174.872229 553.231121)rotate(-45)scale(0.11 -0.11)">
       <defs>
        <path d="M 2113 2584 
Q 1688 2584 1439 2293 
Q 1191 2003 1191 1497 
Q 1191 994 1439 701 
Q 1688 409 2113 409 
Q 2538 409 2786 701 
Q 3034 994 3034 1497 
Q 3034 2003 2786 2293 
Q 2538 2584 2113 2584 
z
M 3366 4563 
L 3366 3988 
Q 3128 4100 2886 4159 
Q 2644 4219 2406 4219 
Q 1781 4219 1451 3797 
Q 1122 3375 1075 2522 
Q 1259 2794 1537 2939 
Q 1816 3084 2150 3084 
Q 2853 3084 3261 2657 
Q 3669 2231 3669 1497 
Q 3669 778 3244 343 
Q 2819 -91 2113 -91 
Q 1303 -91 875 529 
Q 447 1150 447 2328 
Q 447 3434 972 4092 
Q 1497 4750 2381 4750 
Q 2619 4750 2861 4703 
Q 3103 4656 3366 4563 
z
" id="DejaVuSans-36" transform="scale(0.015625)"/>
       </defs>
       <use xlink:href="#DejaVuSans-32"/>
       <use x="63.623047" xlink:href="#DejaVuSans-37"/>
       <use x="127.246094" xlink:href="#DejaVuSans-2e"/>
       <use x="159.033203" xlink:href="#DejaVuSans-30"/>
       <use x="222.65625" xlink:href="#DejaVuSans-36"/>
       <use x="286.279297" xlink:href="#DejaVuSans-2e"/>
       <use x="318.066406" xlink:href="#DejaVuSans-32"/>
       <use x="381.689453" xlink:href="#DejaVuSans-30"/>
       <use x="445.3125" xlink:href="#DejaVuSans-32"/>
       <use x="508.935547" xlink:href="#DejaVuSans-30"/>
      </g>
     </g>
    </g>
    <g id="xtick_6">
     <g id="line2d_11">
      <path clip-path="url(#p56214cd2d3)" d="M 251.194293 493.286013 
L 251.194293 29.118125 
" style="fill:none;stroke:#cccccc;stroke-linecap:round;"/>
     </g>
     <g id="line2d_12">
      <g>
       <use style="fill:#262626;stroke:#262626;stroke-width:1.25;" x="251.194293" xlink:href="#md3c446bb59" y="493.286013"/>
      </g>
     </g>
     <g id="text_6">
      <!-- 25.07.2020 -->
      <g style="fill:#262626;" transform="translate(205.041765 553.231121)rotate(-45)scale(0.11 -0.11)">
       <use xlink:href="#DejaVuSans-32"/>
       <use x="63.623047" xlink:href="#DejaVuSans-35"/>
       <use x="127.246094" xlink:href="#DejaVuSans-2e"/>
       <use x="159.033203" xlink:href="#DejaVuSans-30"/>
       <use x="222.65625" xlink:href="#DejaVuSans-37"/>
       <use x="286.279297" xlink:href="#DejaVuSans-2e"/>
       <use x="318.066406" xlink:href="#DejaVuSans-32"/>
       <use x="381.689453" xlink:href="#DejaVuSans-30"/>
       <use x="445.3125" xlink:href="#DejaVuSans-32"/>
       <use x="508.935547" xlink:href="#DejaVuSans-30"/>
      </g>
     </g>
    </g>
    <g id="xtick_7">
     <g id="line2d_13">
      <path clip-path="url(#p56214cd2d3)" d="M 281.363829 493.286013 
L 281.363829 29.118125 
" style="fill:none;stroke:#cccccc;stroke-linecap:round;"/>
     </g>
     <g id="line2d_14">
      <g>
       <use style="fill:#262626;stroke:#262626;stroke-width:1.25;" x="281.363829" xlink:href="#md3c446bb59" y="493.286013"/>
      </g>
     </g>
     <g id="text_7">
      <!-- 22.08.2020 -->
      <g style="fill:#262626;" transform="translate(235.211301 553.231121)rotate(-45)scale(0.11 -0.11)">
       <defs>
        <path d="M 2034 2216 
Q 1584 2216 1326 1975 
Q 1069 1734 1069 1313 
Q 1069 891 1326 650 
Q 1584 409 2034 409 
Q 2484 409 2743 651 
Q 3003 894 3003 1313 
Q 3003 1734 2745 1975 
Q 2488 2216 2034 2216 
z
M 1403 2484 
Q 997 2584 770 2862 
Q 544 3141 544 3541 
Q 544 4100 942 4425 
Q 1341 4750 2034 4750 
Q 2731 4750 3128 4425 
Q 3525 4100 3525 3541 
Q 3525 3141 3298 2862 
Q 3072 2584 2669 2484 
Q 3125 2378 3379 2068 
Q 3634 1759 3634 1313 
Q 3634 634 3220 271 
Q 2806 -91 2034 -91 
Q 1263 -91 848 271 
Q 434 634 434 1313 
Q 434 1759 690 2068 
Q 947 2378 1403 2484 
z
M 1172 3481 
Q 1172 3119 1398 2916 
Q 1625 2713 2034 2713 
Q 2441 2713 2670 2916 
Q 2900 3119 2900 3481 
Q 2900 3844 2670 4047 
Q 2441 4250 2034 4250 
Q 1625 4250 1398 4047 
Q 1172 3844 1172 3481 
z
" id="DejaVuSans-38" transform="scale(0.015625)"/>
       </defs>
       <use xlink:href="#DejaVuSans-32"/>
       <use x="63.623047" xlink:href="#DejaVuSans-32"/>
       <use x="127.246094" xlink:href="#DejaVuSans-2e"/>
       <use x="159.033203" xlink:href="#DejaVuSans-30"/>
       <use x="222.65625" xlink:href="#DejaVuSans-38"/>
       <use x="286.279297" xlink:href="#DejaVuSans-2e"/>
       <use x="318.066406" xlink:href="#DejaVuSans-32"/>
       <use x="381.689453" xlink:href="#DejaVuSans-30"/>
       <use x="445.3125" xlink:href="#DejaVuSans-32"/>
       <use x="508.935547" xlink:href="#DejaVuSans-30"/>
      </g>
     </g>
    </g>
    <g id="xtick_8">
     <g id="line2d_15">
      <path clip-path="url(#p56214cd2d3)" d="M 311.533365 493.286013 
L 311.533365 29.118125 
" style="fill:none;stroke:#cccccc;stroke-linecap:round;"/>
     </g>
     <g id="line2d_16">
      <g>
       <use style="fill:#262626;stroke:#262626;stroke-width:1.25;" x="311.533365" xlink:href="#md3c446bb59" y="493.286013"/>
      </g>
     </g>
     <g id="text_8">
      <!-- 19.09.2020 -->
      <g style="fill:#262626;" transform="translate(265.380837 553.231121)rotate(-45)scale(0.11 -0.11)">
       <defs>
        <path d="M 794 531 
L 1825 531 
L 1825 4091 
L 703 3866 
L 703 4441 
L 1819 4666 
L 2450 4666 
L 2450 531 
L 3481 531 
L 3481 0 
L 794 0 
L 794 531 
z
" id="DejaVuSans-31" transform="scale(0.015625)"/>
        <path d="M 703 97 
L 703 672 
Q 941 559 1184 500 
Q 1428 441 1663 441 
Q 2288 441 2617 861 
Q 2947 1281 2994 2138 
Q 2813 1869 2534 1725 
Q 2256 1581 1919 1581 
Q 1219 1581 811 2004 
Q 403 2428 403 3163 
Q 403 3881 828 4315 
Q 1253 4750 1959 4750 
Q 2769 4750 3195 4129 
Q 3622 3509 3622 2328 
Q 3622 1225 3098 567 
Q 2575 -91 1691 -91 
Q 1453 -91 1209 -44 
Q 966 3 703 97 
z
M 1959 2075 
Q 2384 2075 2632 2365 
Q 2881 2656 2881 3163 
Q 2881 3666 2632 3958 
Q 2384 4250 1959 4250 
Q 1534 4250 1286 3958 
Q 1038 3666 1038 3163 
Q 1038 2656 1286 2365 
Q 1534 2075 1959 2075 
z
" id="DejaVuSans-39" transform="scale(0.015625)"/>
       </defs>
       <use xlink:href="#DejaVuSans-31"/>
       <use x="63.623047" xlink:href="#DejaVuSans-39"/>
       <use x="127.246094" xlink:href="#DejaVuSans-2e"/>
       <use x="159.033203" xlink:href="#DejaVuSans-30"/>
       <use x="222.65625" xlink:href="#DejaVuSans-39"/>
       <use x="286.279297" xlink:href="#DejaVuSans-2e"/>
       <use x="318.066406" xlink:href="#DejaVuSans-32"/>
       <use x="381.689453" xlink:href="#DejaVuSans-30"/>
       <use x="445.3125" xlink:href="#DejaVuSans-32"/>
       <use x="508.935547" xlink:href="#DejaVuSans-30"/>
      </g>
     </g>
    </g>
    <g id="xtick_9">
     <g id="line2d_17">
      <path clip-path="url(#p56214cd2d3)" d="M 341.702901 493.286013 
L 341.702901 29.118125 
" style="fill:none;stroke:#cccccc;stroke-linecap:round;"/>
     </g>
     <g id="line2d_18">
      <g>
       <use style="fill:#262626;stroke:#262626;stroke-width:1.25;" x="341.702901" xlink:href="#md3c446bb59" y="493.286013"/>
      </g>
     </g>
     <g id="text_9">
      <!-- 17.10.2020 -->
      <g style="fill:#262626;" transform="translate(295.550373 553.231121)rotate(-45)scale(0.11 -0.11)">
       <use xlink:href="#DejaVuSans-31"/>
       <use x="63.623047" xlink:href="#DejaVuSans-37"/>
       <use x="127.246094" xlink:href="#DejaVuSans-2e"/>
       <use x="159.033203" xlink:href="#DejaVuSans-31"/>
       <use x="222.65625" xlink:href="#DejaVuSans-30"/>
       <use x="286.279297" xlink:href="#DejaVuSans-2e"/>
       <use x="318.066406" xlink:href="#DejaVuSans-32"/>
       <use x="381.689453" xlink:href="#DejaVuSans-30"/>
       <use x="445.3125" xlink:href="#DejaVuSans-32"/>
       <use x="508.935547" xlink:href="#DejaVuSans-30"/>
      </g>
     </g>
    </g>
    <g id="xtick_10">
     <g id="line2d_19">
      <path clip-path="url(#p56214cd2d3)" d="M 371.872437 493.286013 
L 371.872437 29.118125 
" style="fill:none;stroke:#cccccc;stroke-linecap:round;"/>
     </g>
     <g id="line2d_20">
      <g>
       <use style="fill:#262626;stroke:#262626;stroke-width:1.25;" x="371.872437" xlink:href="#md3c446bb59" y="493.286013"/>
      </g>
     </g>
     <g id="text_10">
      <!-- 14.11.2020 -->
      <g style="fill:#262626;" transform="translate(325.719908 553.231121)rotate(-45)scale(0.11 -0.11)">
       <use xlink:href="#DejaVuSans-31"/>
       <use x="63.623047" xlink:href="#DejaVuSans-34"/>
       <use x="127.246094" xlink:href="#DejaVuSans-2e"/>
       <use x="159.033203" xlink:href="#DejaVuSans-31"/>
       <use x="222.65625" xlink:href="#DejaVuSans-31"/>
       <use x="286.279297" xlink:href="#DejaVuSans-2e"/>
       <use x="318.066406" xlink:href="#DejaVuSans-32"/>
       <use x="381.689453" xlink:href="#DejaVuSans-30"/>
       <use x="445.3125" xlink:href="#DejaVuSans-32"/>
       <use x="508.935547" xlink:href="#DejaVuSans-30"/>
      </g>
     </g>
    </g>
    <g id="xtick_11">
     <g id="line2d_21">
      <path clip-path="url(#p56214cd2d3)" d="M 402.041972 493.286013 
L 402.041972 29.118125 
" style="fill:none;stroke:#cccccc;stroke-linecap:round;"/>
     </g>
     <g id="line2d_22">
      <g>
       <use style="fill:#262626;stroke:#262626;stroke-width:1.25;" x="402.041972" xlink:href="#md3c446bb59" y="493.286013"/>
      </g>
     </g>
     <g id="text_11">
      <!-- 12.12.2020 -->
      <g style="fill:#262626;" transform="translate(355.889444 553.231121)rotate(-45)scale(0.11 -0.11)">
       <use xlink:href="#DejaVuSans-31"/>
       <use x="63.623047" xlink:href="#DejaVuSans-32"/>
       <use x="127.246094" xlink:href="#DejaVuSans-2e"/>
       <use x="159.033203" xlink:href="#DejaVuSans-31"/>
       <use x="222.65625" xlink:href="#DejaVuSans-32"/>
       <use x="286.279297" xlink:href="#DejaVuSans-2e"/>
       <use x="318.066406" xlink:href="#DejaVuSans-32"/>
       <use x="381.689453" xlink:href="#DejaVuSans-30"/>
       <use x="445.3125" xlink:href="#DejaVuSans-32"/>
       <use x="508.935547" xlink:href="#DejaVuSans-30"/>
      </g>
     </g>
    </g>
    <g id="xtick_12">
     <g id="line2d_23">
      <path clip-path="url(#p56214cd2d3)" d="M 432.211508 493.286013 
L 432.211508 29.118125 
" style="fill:none;stroke:#cccccc;stroke-linecap:round;"/>
     </g>
     <g id="line2d_24">
      <g>
       <use style="fill:#262626;stroke:#262626;stroke-width:1.25;" x="432.211508" xlink:href="#md3c446bb59" y="493.286013"/>
      </g>
     </g>
     <g id="text_12">
      <!-- 09.01.2021 -->
      <g style="fill:#262626;" transform="translate(386.05898 553.231121)rotate(-45)scale(0.11 -0.11)">
       <use xlink:href="#DejaVuSans-30"/>
       <use x="63.623047" xlink:href="#DejaVuSans-39"/>
       <use x="127.246094" xlink:href="#DejaVuSans-2e"/>
       <use x="159.033203" xlink:href="#DejaVuSans-30"/>
       <use x="222.65625" xlink:href="#DejaVuSans-31"/>
       <use x="286.279297" xlink:href="#DejaVuSans-2e"/>
       <use x="318.066406" xlink:href="#DejaVuSans-32"/>
       <use x="381.689453" xlink:href="#DejaVuSans-30"/>
       <use x="445.3125" xlink:href="#DejaVuSans-32"/>
       <use x="508.935547" xlink:href="#DejaVuSans-31"/>
      </g>
     </g>
    </g>
    <g id="xtick_13">
     <g id="line2d_25">
      <path clip-path="url(#p56214cd2d3)" d="M 462.381044 493.286013 
L 462.381044 29.118125 
" style="fill:none;stroke:#cccccc;stroke-linecap:round;"/>
     </g>
     <g id="line2d_26">
      <g>
       <use style="fill:#262626;stroke:#262626;stroke-width:1.25;" x="462.381044" xlink:href="#md3c446bb59" y="493.286013"/>
      </g>
     </g>
     <g id="text_13">
      <!-- 06.02.2021 -->
      <g style="fill:#262626;" transform="translate(416.228516 553.231121)rotate(-45)scale(0.11 -0.11)">
       <use xlink:href="#DejaVuSans-30"/>
       <use x="63.623047" xlink:href="#DejaVuSans-36"/>
       <use x="127.246094" xlink:href="#DejaVuSans-2e"/>
       <use x="159.033203" xlink:href="#DejaVuSans-30"/>
       <use x="222.65625" xlink:href="#DejaVuSans-32"/>
       <use x="286.279297" xlink:href="#DejaVuSans-2e"/>
       <use x="318.066406" xlink:href="#DejaVuSans-32"/>
       <use x="381.689453" xlink:href="#DejaVuSans-30"/>
       <use x="445.3125" xlink:href="#DejaVuSans-32"/>
       <use x="508.935547" xlink:href="#DejaVuSans-31"/>
      </g>
     </g>
    </g>
    <g id="xtick_14">
     <g id="line2d_27">
      <path clip-path="url(#p56214cd2d3)" d="M 492.55058 493.286013 
L 492.55058 29.118125 
" style="fill:none;stroke:#cccccc;stroke-linecap:round;"/>
     </g>
     <g id="line2d_28">
      <g>
       <use style="fill:#262626;stroke:#262626;stroke-width:1.25;" x="492.55058" xlink:href="#md3c446bb59" y="493.286013"/>
      </g>
     </g>
     <g id="text_14">
      <!-- 06.03.2021 -->
      <g style="fill:#262626;" transform="translate(446.398052 553.231121)rotate(-45)scale(0.11 -0.11)">
       <use xlink:href="#DejaVuSans-30"/>
       <use x="63.623047" xlink:href="#DejaVuSans-36"/>
       <use x="127.246094" xlink:href="#DejaVuSans-2e"/>
       <use x="159.033203" xlink:href="#DejaVuSans-30"/>
       <use x="222.65625" xlink:href="#DejaVuSans-33"/>
       <use x="286.279297" xlink:href="#DejaVuSans-2e"/>
       <use x="318.066406" xlink:href="#DejaVuSans-32"/>
       <use x="381.689453" xlink:href="#DejaVuSans-30"/>
       <use x="445.3125" xlink:href="#DejaVuSans-32"/>
       <use x="508.935547" xlink:href="#DejaVuSans-31"/>
      </g>
     </g>
    </g>
    <g id="xtick_15">
     <g id="line2d_29">
      <path clip-path="url(#p56214cd2d3)" d="M 522.720116 493.286013 
L 522.720116 29.118125 
" style="fill:none;stroke:#cccccc;stroke-linecap:round;"/>
     </g>
     <g id="line2d_30">
      <g>
       <use style="fill:#262626;stroke:#262626;stroke-width:1.25;" x="522.720116" xlink:href="#md3c446bb59" y="493.286013"/>
      </g>
     </g>
     <g id="text_15">
      <!-- 03.04.2021 -->
      <g style="fill:#262626;" transform="translate(476.567588 553.231121)rotate(-45)scale(0.11 -0.11)">
       <use xlink:href="#DejaVuSans-30"/>
       <use x="63.623047" xlink:href="#DejaVuSans-33"/>
       <use x="127.246094" xlink:href="#DejaVuSans-2e"/>
       <use x="159.033203" xlink:href="#DejaVuSans-30"/>
       <use x="222.65625" xlink:href="#DejaVuSans-34"/>
       <use x="286.279297" xlink:href="#DejaVuSans-2e"/>
       <use x="318.066406" xlink:href="#DejaVuSans-32"/>
       <use x="381.689453" xlink:href="#DejaVuSans-30"/>
       <use x="445.3125" xlink:href="#DejaVuSans-32"/>
       <use x="508.935547" xlink:href="#DejaVuSans-31"/>
      </g>
     </g>
    </g>
    <g id="xtick_16">
     <g id="line2d_31">
      <path clip-path="url(#p56214cd2d3)" d="M 552.889652 493.286013 
L 552.889652 29.118125 
" style="fill:none;stroke:#cccccc;stroke-linecap:round;"/>
     </g>
     <g id="line2d_32">
      <g>
       <use style="fill:#262626;stroke:#262626;stroke-width:1.25;" x="552.889652" xlink:href="#md3c446bb59" y="493.286013"/>
      </g>
     </g>
     <g id="text_16">
      <!-- 01.05.2021 -->
      <g style="fill:#262626;" transform="translate(506.737124 553.231121)rotate(-45)scale(0.11 -0.11)">
       <use xlink:href="#DejaVuSans-30"/>
       <use x="63.623047" xlink:href="#DejaVuSans-31"/>
       <use x="127.246094" xlink:href="#DejaVuSans-2e"/>
       <use x="159.033203" xlink:href="#DejaVuSans-30"/>
       <use x="222.65625" xlink:href="#DejaVuSans-35"/>
       <use x="286.279297" xlink:href="#DejaVuSans-2e"/>
       <use x="318.066406" xlink:href="#DejaVuSans-32"/>
       <use x="381.689453" xlink:href="#DejaVuSans-30"/>
       <use x="445.3125" xlink:href="#DejaVuSans-32"/>
       <use x="508.935547" xlink:href="#DejaVuSans-31"/>
      </g>
     </g>
    </g>
    <g id="xtick_17">
     <g id="line2d_33">
      <path clip-path="url(#p56214cd2d3)" d="M 583.059188 493.286013 
L 583.059188 29.118125 
" style="fill:none;stroke:#cccccc;stroke-linecap:round;"/>
     </g>
     <g id="line2d_34">
      <g>
       <use style="fill:#262626;stroke:#262626;stroke-width:1.25;" x="583.059188" xlink:href="#md3c446bb59" y="493.286013"/>
      </g>
     </g>
     <g id="text_17">
      <!-- 29.05.2021 -->
      <g style="fill:#262626;" transform="translate(536.90666 553.231121)rotate(-45)scale(0.11 -0.11)">
       <use xlink:href="#DejaVuSans-32"/>
       <use x="63.623047" xlink:href="#DejaVuSans-39"/>
       <use x="127.246094" xlink:href="#DejaVuSans-2e"/>
       <use x="159.033203" xlink:href="#DejaVuSans-30"/>
       <use x="222.65625" xlink:href="#DejaVuSans-35"/>
       <use x="286.279297" xlink:href="#DejaVuSans-2e"/>
       <use x="318.066406" xlink:href="#DejaVuSans-32"/>
       <use x="381.689453" xlink:href="#DejaVuSans-30"/>
       <use x="445.3125" xlink:href="#DejaVuSans-32"/>
       <use x="508.935547" xlink:href="#DejaVuSans-31"/>
      </g>
     </g>
    </g>
    <g id="xtick_18">
     <g id="line2d_35">
      <path clip-path="url(#p56214cd2d3)" d="M 613.228724 493.286013 
L 613.228724 29.118125 
" style="fill:none;stroke:#cccccc;stroke-linecap:round;"/>
     </g>
     <g id="line2d_36">
      <g>
       <use style="fill:#262626;stroke:#262626;stroke-width:1.25;" x="613.228724" xlink:href="#md3c446bb59" y="493.286013"/>
      </g>
     </g>
     <g id="text_18">
      <!-- 26.06.2021 -->
      <g style="fill:#262626;" transform="translate(567.076195 553.231121)rotate(-45)scale(0.11 -0.11)">
       <use xlink:href="#DejaVuSans-32"/>
       <use x="63.623047" xlink:href="#DejaVuSans-36"/>
       <use x="127.246094" xlink:href="#DejaVuSans-2e"/>
       <use x="159.033203" xlink:href="#DejaVuSans-30"/>
       <use x="222.65625" xlink:href="#DejaVuSans-36"/>
       <use x="286.279297" xlink:href="#DejaVuSans-2e"/>
       <use x="318.066406" xlink:href="#DejaVuSans-32"/>
       <use x="381.689453" xlink:href="#DejaVuSans-30"/>
       <use x="445.3125" xlink:href="#DejaVuSans-32"/>
       <use x="508.935547" xlink:href="#DejaVuSans-31"/>
      </g>
     </g>
    </g>
    <g id="xtick_19">
     <g id="line2d_37">
      <path clip-path="url(#p56214cd2d3)" d="M 643.398259 493.286013 
L 643.398259 29.118125 
" style="fill:none;stroke:#cccccc;stroke-linecap:round;"/>
     </g>
     <g id="line2d_38">
      <g>
       <use style="fill:#262626;stroke:#262626;stroke-width:1.25;" x="643.398259" xlink:href="#md3c446bb59" y="493.286013"/>
      </g>
     </g>
     <g id="text_19">
      <!-- 24.07.2021 -->
      <g style="fill:#262626;" transform="translate(597.245731 553.231121)rotate(-45)scale(0.11 -0.11)">
       <use xlink:href="#DejaVuSans-32"/>
       <use x="63.623047" xlink:href="#DejaVuSans-34"/>
       <use x="127.246094" xlink:href="#DejaVuSans-2e"/>
       <use x="159.033203" xlink:href="#DejaVuSans-30"/>
       <use x="222.65625" xlink:href="#DejaVuSans-37"/>
       <use x="286.279297" xlink:href="#DejaVuSans-2e"/>
       <use x="318.066406" xlink:href="#DejaVuSans-32"/>
       <use x="381.689453" xlink:href="#DejaVuSans-30"/>
       <use x="445.3125" xlink:href="#DejaVuSans-32"/>
       <use x="508.935547" xlink:href="#DejaVuSans-31"/>
      </g>
     </g>
    </g>
    <g id="xtick_20">
     <g id="line2d_39">
      <path clip-path="url(#p56214cd2d3)" d="M 673.567795 493.286013 
L 673.567795 29.118125 
" style="fill:none;stroke:#cccccc;stroke-linecap:round;"/>
     </g>
     <g id="line2d_40">
      <g>
       <use style="fill:#262626;stroke:#262626;stroke-width:1.25;" x="673.567795" xlink:href="#md3c446bb59" y="493.286013"/>
      </g>
     </g>
     <g id="text_20">
      <!-- 21.08.2021 -->
      <g style="fill:#262626;" transform="translate(627.415267 553.231121)rotate(-45)scale(0.11 -0.11)">
       <use xlink:href="#DejaVuSans-32"/>
       <use x="63.623047" xlink:href="#DejaVuSans-31"/>
       <use x="127.246094" xlink:href="#DejaVuSans-2e"/>
       <use x="159.033203" xlink:href="#DejaVuSans-30"/>
       <use x="222.65625" xlink:href="#DejaVuSans-38"/>
       <use x="286.279297" xlink:href="#DejaVuSans-2e"/>
       <use x="318.066406" xlink:href="#DejaVuSans-32"/>
       <use x="381.689453" xlink:href="#DejaVuSans-30"/>
       <use x="445.3125" xlink:href="#DejaVuSans-32"/>
       <use x="508.935547" xlink:href="#DejaVuSans-31"/>
      </g>
     </g>
    </g>
    <g id="xtick_21">
     <g id="line2d_41">
      <path clip-path="url(#p56214cd2d3)" d="M 703.737331 493.286013 
L 703.737331 29.118125 
" style="fill:none;stroke:#cccccc;stroke-linecap:round;"/>
     </g>
     <g id="line2d_42">
      <g>
       <use style="fill:#262626;stroke:#262626;stroke-width:1.25;" x="703.737331" xlink:href="#md3c446bb59" y="493.286013"/>
      </g>
     </g>
     <g id="text_21">
      <!-- 18.09.2021 -->
      <g style="fill:#262626;" transform="translate(657.584803 553.231121)rotate(-45)scale(0.11 -0.11)">
       <use xlink:href="#DejaVuSans-31"/>
       <use x="63.623047" xlink:href="#DejaVuSans-38"/>
       <use x="127.246094" xlink:href="#DejaVuSans-2e"/>
       <use x="159.033203" xlink:href="#DejaVuSans-30"/>
       <use x="222.65625" xlink:href="#DejaVuSans-39"/>
       <use x="286.279297" xlink:href="#DejaVuSans-2e"/>
       <use x="318.066406" xlink:href="#DejaVuSans-32"/>
       <use x="381.689453" xlink:href="#DejaVuSans-30"/>
       <use x="445.3125" xlink:href="#DejaVuSans-32"/>
       <use x="508.935547" xlink:href="#DejaVuSans-31"/>
      </g>
     </g>
    </g>
    <g id="xtick_22">
     <g id="line2d_43">
      <path clip-path="url(#p56214cd2d3)" d="M 733.906867 493.286013 
L 733.906867 29.118125 
" style="fill:none;stroke:#cccccc;stroke-linecap:round;"/>
     </g>
     <g id="line2d_44">
      <g>
       <use style="fill:#262626;stroke:#262626;stroke-width:1.25;" x="733.906867" xlink:href="#md3c446bb59" y="493.286013"/>
      </g>
     </g>
     <g id="text_22">
      <!-- 16.10.2021 -->
      <g style="fill:#262626;" transform="translate(687.754339 553.231121)rotate(-45)scale(0.11 -0.11)">
       <use xlink:href="#DejaVuSans-31"/>
       <use x="63.623047" xlink:href="#DejaVuSans-36"/>
       <use x="127.246094" xlink:href="#DejaVuSans-2e"/>
       <use x="159.033203" xlink:href="#DejaVuSans-31"/>
       <use x="222.65625" xlink:href="#DejaVuSans-30"/>
       <use x="286.279297" xlink:href="#DejaVuSans-2e"/>
       <use x="318.066406" xlink:href="#DejaVuSans-32"/>
       <use x="381.689453" xlink:href="#DejaVuSans-30"/>
       <use x="445.3125" xlink:href="#DejaVuSans-32"/>
       <use x="508.935547" xlink:href="#DejaVuSans-31"/>
      </g>
     </g>
    </g>
    <g id="xtick_23">
     <g id="line2d_45">
      <path clip-path="url(#p56214cd2d3)" d="M 764.076403 493.286013 
L 764.076403 29.118125 
" style="fill:none;stroke:#cccccc;stroke-linecap:round;"/>
     </g>
     <g id="line2d_46">
      <g>
       <use style="fill:#262626;stroke:#262626;stroke-width:1.25;" x="764.076403" xlink:href="#md3c446bb59" y="493.286013"/>
      </g>
     </g>
     <g id="text_23">
      <!-- 13.11.2021 -->
      <g style="fill:#262626;" transform="translate(717.923875 553.231121)rotate(-45)scale(0.11 -0.11)">
       <use xlink:href="#DejaVuSans-31"/>
       <use x="63.623047" xlink:href="#DejaVuSans-33"/>
       <use x="127.246094" xlink:href="#DejaVuSans-2e"/>
       <use x="159.033203" xlink:href="#DejaVuSans-31"/>
       <use x="222.65625" xlink:href="#DejaVuSans-31"/>
       <use x="286.279297" xlink:href="#DejaVuSans-2e"/>
       <use x="318.066406" xlink:href="#DejaVuSans-32"/>
       <use x="381.689453" xlink:href="#DejaVuSans-30"/>
       <use x="445.3125" xlink:href="#DejaVuSans-32"/>
       <use x="508.935547" xlink:href="#DejaVuSans-31"/>
      </g>
     </g>
    </g>
    <g id="xtick_24">
     <g id="line2d_47">
      <defs>
       <path d="M 0 0 
L 0 4 
" id="m2d42e6006c" style="stroke:#262626;"/>
      </defs>
      <g>
       <use style="fill:#262626;stroke:#262626;" x="70.177078" xlink:href="#m2d42e6006c" y="493.286013"/>
      </g>
     </g>
    </g>
    <g id="xtick_25">
     <g id="line2d_48">
      <g>
       <use style="fill:#262626;stroke:#262626;" x="77.719462" xlink:href="#m2d42e6006c" y="493.286013"/>
      </g>
     </g>
    </g>
    <g id="xtick_26">
     <g id="line2d_49">
      <g>
       <use style="fill:#262626;stroke:#262626;" x="85.261846" xlink:href="#m2d42e6006c" y="493.286013"/>
      </g>
     </g>
    </g>
    <g id="xtick_27">
     <g id="line2d_50">
      <g>
       <use style="fill:#262626;stroke:#262626;" x="92.80423" xlink:href="#m2d42e6006c" y="493.286013"/>
      </g>
     </g>
    </g>
    <g id="xtick_28">
     <g id="line2d_51">
      <g>
       <use style="fill:#262626;stroke:#262626;" x="107.888998" xlink:href="#m2d42e6006c" y="493.286013"/>
      </g>
     </g>
    </g>
    <g id="xtick_29">
     <g id="line2d_52">
      <g>
       <use style="fill:#262626;stroke:#262626;" x="115.431382" xlink:href="#m2d42e6006c" y="493.286013"/>
      </g>
     </g>
    </g>
    <g id="xtick_30">
     <g id="line2d_53">
      <g>
       <use style="fill:#262626;stroke:#262626;" x="122.973766" xlink:href="#m2d42e6006c" y="493.286013"/>
      </g>
     </g>
    </g>
    <g id="xtick_31">
     <g id="line2d_54">
      <g>
       <use style="fill:#262626;stroke:#262626;" x="138.058533" xlink:href="#m2d42e6006c" y="493.286013"/>
      </g>
     </g>
    </g>
    <g id="xtick_32">
     <g id="line2d_55">
      <g>
       <use style="fill:#262626;stroke:#262626;" x="145.600917" xlink:href="#m2d42e6006c" y="493.286013"/>
      </g>
     </g>
    </g>
    <g id="xtick_33">
     <g id="line2d_56">
      <g>
       <use style="fill:#262626;stroke:#262626;" x="153.143301" xlink:href="#m2d42e6006c" y="493.286013"/>
      </g>
     </g>
    </g>
    <g id="xtick_34">
     <g id="line2d_57">
      <g>
       <use style="fill:#262626;stroke:#262626;" x="168.228069" xlink:href="#m2d42e6006c" y="493.286013"/>
      </g>
     </g>
    </g>
    <g id="xtick_35">
     <g id="line2d_58">
      <g>
       <use style="fill:#262626;stroke:#262626;" x="175.770453" xlink:href="#m2d42e6006c" y="493.286013"/>
      </g>
     </g>
    </g>
    <g id="xtick_36">
     <g id="line2d_59">
      <g>
       <use style="fill:#262626;stroke:#262626;" x="183.312837" xlink:href="#m2d42e6006c" y="493.286013"/>
      </g>
     </g>
    </g>
    <g id="xtick_37">
     <g id="line2d_60">
      <g>
       <use style="fill:#262626;stroke:#262626;" x="198.397605" xlink:href="#m2d42e6006c" y="493.286013"/>
      </g>
     </g>
    </g>
    <g id="xtick_38">
     <g id="line2d_61">
      <g>
       <use style="fill:#262626;stroke:#262626;" x="205.939989" xlink:href="#m2d42e6006c" y="493.286013"/>
      </g>
     </g>
    </g>
    <g id="xtick_39">
     <g id="line2d_62">
      <g>
       <use style="fill:#262626;stroke:#262626;" x="213.482373" xlink:href="#m2d42e6006c" y="493.286013"/>
      </g>
     </g>
    </g>
    <g id="xtick_40">
     <g id="line2d_63">
      <g>
       <use style="fill:#262626;stroke:#262626;" x="228.567141" xlink:href="#m2d42e6006c" y="493.286013"/>
      </g>
     </g>
    </g>
    <g id="xtick_41">
     <g id="line2d_64">
      <g>
       <use style="fill:#262626;stroke:#262626;" x="236.109525" xlink:href="#m2d42e6006c" y="493.286013"/>
      </g>
     </g>
    </g>
    <g id="xtick_42">
     <g id="line2d_65">
      <g>
       <use style="fill:#262626;stroke:#262626;" x="243.651909" xlink:href="#m2d42e6006c" y="493.286013"/>
      </g>
     </g>
    </g>
    <g id="xtick_43">
     <g id="line2d_66">
      <g>
       <use style="fill:#262626;stroke:#262626;" x="258.736677" xlink:href="#m2d42e6006c" y="493.286013"/>
      </g>
     </g>
    </g>
    <g id="xtick_44">
     <g id="line2d_67">
      <g>
       <use style="fill:#262626;stroke:#262626;" x="266.279061" xlink:href="#m2d42e6006c" y="493.286013"/>
      </g>
     </g>
    </g>
    <g id="xtick_45">
     <g id="line2d_68">
      <g>
       <use style="fill:#262626;stroke:#262626;" x="273.821445" xlink:href="#m2d42e6006c" y="493.286013"/>
      </g>
     </g>
    </g>
    <g id="xtick_46">
     <g id="line2d_69">
      <g>
       <use style="fill:#262626;stroke:#262626;" x="288.906213" xlink:href="#m2d42e6006c" y="493.286013"/>
      </g>
     </g>
    </g>
    <g id="xtick_47">
     <g id="line2d_70">
      <g>
       <use style="fill:#262626;stroke:#262626;" x="296.448597" xlink:href="#m2d42e6006c" y="493.286013"/>
      </g>
     </g>
    </g>
    <g id="xtick_48">
     <g id="line2d_71">
      <g>
       <use style="fill:#262626;stroke:#262626;" x="303.990981" xlink:href="#m2d42e6006c" y="493.286013"/>
      </g>
     </g>
    </g>
    <g id="xtick_49">
     <g id="line2d_72">
      <g>
       <use style="fill:#262626;stroke:#262626;" x="319.075749" xlink:href="#m2d42e6006c" y="493.286013"/>
      </g>
     </g>
    </g>
    <g id="xtick_50">
     <g id="line2d_73">
      <g>
       <use style="fill:#262626;stroke:#262626;" x="326.618133" xlink:href="#m2d42e6006c" y="493.286013"/>
      </g>
     </g>
    </g>
    <g id="xtick_51">
     <g id="line2d_74">
      <g>
       <use style="fill:#262626;stroke:#262626;" x="334.160517" xlink:href="#m2d42e6006c" y="493.286013"/>
      </g>
     </g>
    </g>
    <g id="xtick_52">
     <g id="line2d_75">
      <g>
       <use style="fill:#262626;stroke:#262626;" x="349.245285" xlink:href="#m2d42e6006c" y="493.286013"/>
      </g>
     </g>
    </g>
    <g id="xtick_53">
     <g id="line2d_76">
      <g>
       <use style="fill:#262626;stroke:#262626;" x="356.787669" xlink:href="#m2d42e6006c" y="493.286013"/>
      </g>
     </g>
    </g>
    <g id="xtick_54">
     <g id="line2d_77">
      <g>
       <use style="fill:#262626;stroke:#262626;" x="364.330053" xlink:href="#m2d42e6006c" y="493.286013"/>
      </g>
     </g>
    </g>
    <g id="xtick_55">
     <g id="line2d_78">
      <g>
       <use style="fill:#262626;stroke:#262626;" x="379.414821" xlink:href="#m2d42e6006c" y="493.286013"/>
      </g>
     </g>
    </g>
    <g id="xtick_56">
     <g id="line2d_79">
      <g>
       <use style="fill:#262626;stroke:#262626;" x="386.957204" xlink:href="#m2d42e6006c" y="493.286013"/>
      </g>
     </g>
    </g>
    <g id="xtick_57">
     <g id="line2d_80">
      <g>
       <use style="fill:#262626;stroke:#262626;" x="394.499588" xlink:href="#m2d42e6006c" y="493.286013"/>
      </g>
     </g>
    </g>
    <g id="xtick_58">
     <g id="line2d_81">
      <g>
       <use style="fill:#262626;stroke:#262626;" x="409.584356" xlink:href="#m2d42e6006c" y="493.286013"/>
      </g>
     </g>
    </g>
    <g id="xtick_59">
     <g id="line2d_82">
      <g>
       <use style="fill:#262626;stroke:#262626;" x="417.12674" xlink:href="#m2d42e6006c" y="493.286013"/>
      </g>
     </g>
    </g>
    <g id="xtick_60">
     <g id="line2d_83">
      <g>
       <use style="fill:#262626;stroke:#262626;" x="424.669124" xlink:href="#m2d42e6006c" y="493.286013"/>
      </g>
     </g>
    </g>
    <g id="xtick_61">
     <g id="line2d_84">
      <g>
       <use style="fill:#262626;stroke:#262626;" x="439.753892" xlink:href="#m2d42e6006c" y="493.286013"/>
      </g>
     </g>
    </g>
    <g id="xtick_62">
     <g id="line2d_85">
      <g>
       <use style="fill:#262626;stroke:#262626;" x="447.296276" xlink:href="#m2d42e6006c" y="493.286013"/>
      </g>
     </g>
    </g>
    <g id="xtick_63">
     <g id="line2d_86">
      <g>
       <use style="fill:#262626;stroke:#262626;" x="454.83866" xlink:href="#m2d42e6006c" y="493.286013"/>
      </g>
     </g>
    </g>
    <g id="xtick_64">
     <g id="line2d_87">
      <g>
       <use style="fill:#262626;stroke:#262626;" x="469.923428" xlink:href="#m2d42e6006c" y="493.286013"/>
      </g>
     </g>
    </g>
    <g id="xtick_65">
     <g id="line2d_88">
      <g>
       <use style="fill:#262626;stroke:#262626;" x="477.465812" xlink:href="#m2d42e6006c" y="493.286013"/>
      </g>
     </g>
    </g>
    <g id="xtick_66">
     <g id="line2d_89">
      <g>
       <use style="fill:#262626;stroke:#262626;" x="485.008196" xlink:href="#m2d42e6006c" y="493.286013"/>
      </g>
     </g>
    </g>
    <g id="xtick_67">
     <g id="line2d_90">
      <g>
       <use style="fill:#262626;stroke:#262626;" x="500.092964" xlink:href="#m2d42e6006c" y="493.286013"/>
      </g>
     </g>
    </g>
    <g id="xtick_68">
     <g id="line2d_91">
      <g>
       <use style="fill:#262626;stroke:#262626;" x="507.635348" xlink:href="#m2d42e6006c" y="493.286013"/>
      </g>
     </g>
    </g>
    <g id="xtick_69">
     <g id="line2d_92">
      <g>
       <use style="fill:#262626;stroke:#262626;" x="515.177732" xlink:href="#m2d42e6006c" y="493.286013"/>
      </g>
     </g>
    </g>
    <g id="xtick_70">
     <g id="line2d_93">
      <g>
       <use style="fill:#262626;stroke:#262626;" x="530.2625" xlink:href="#m2d42e6006c" y="493.286013"/>
      </g>
     </g>
    </g>
    <g id="xtick_71">
     <g id="line2d_94">
      <g>
       <use style="fill:#262626;stroke:#262626;" x="537.804884" xlink:href="#m2d42e6006c" y="493.286013"/>
      </g>
     </g>
    </g>
    <g id="xtick_72">
     <g id="line2d_95">
      <g>
       <use style="fill:#262626;stroke:#262626;" x="545.347268" xlink:href="#m2d42e6006c" y="493.286013"/>
      </g>
     </g>
    </g>
    <g id="xtick_73">
     <g id="line2d_96">
      <g>
       <use style="fill:#262626;stroke:#262626;" x="560.432036" xlink:href="#m2d42e6006c" y="493.286013"/>
      </g>
     </g>
    </g>
    <g id="xtick_74">
     <g id="line2d_97">
      <g>
       <use style="fill:#262626;stroke:#262626;" x="567.97442" xlink:href="#m2d42e6006c" y="493.286013"/>
      </g>
     </g>
    </g>
    <g id="xtick_75">
     <g id="line2d_98">
      <g>
       <use style="fill:#262626;stroke:#262626;" x="575.516804" xlink:href="#m2d42e6006c" y="493.286013"/>
      </g>
     </g>
    </g>
    <g id="xtick_76">
     <g id="line2d_99">
      <g>
       <use style="fill:#262626;stroke:#262626;" x="590.601572" xlink:href="#m2d42e6006c" y="493.286013"/>
      </g>
     </g>
    </g>
    <g id="xtick_77">
     <g id="line2d_100">
      <g>
       <use style="fill:#262626;stroke:#262626;" x="598.143956" xlink:href="#m2d42e6006c" y="493.286013"/>
      </g>
     </g>
    </g>
    <g id="xtick_78">
     <g id="line2d_101">
      <g>
       <use style="fill:#262626;stroke:#262626;" x="605.68634" xlink:href="#m2d42e6006c" y="493.286013"/>
      </g>
     </g>
    </g>
    <g id="xtick_79">
     <g id="line2d_102">
      <g>
       <use style="fill:#262626;stroke:#262626;" x="620.771108" xlink:href="#m2d42e6006c" y="493.286013"/>
      </g>
     </g>
    </g>
    <g id="xtick_80">
     <g id="line2d_103">
      <g>
       <use style="fill:#262626;stroke:#262626;" x="628.313491" xlink:href="#m2d42e6006c" y="493.286013"/>
      </g>
     </g>
    </g>
    <g id="xtick_81">
     <g id="line2d_104">
      <g>
       <use style="fill:#262626;stroke:#262626;" x="635.855875" xlink:href="#m2d42e6006c" y="493.286013"/>
      </g>
     </g>
    </g>
    <g id="xtick_82">
     <g id="line2d_105">
      <g>
       <use style="fill:#262626;stroke:#262626;" x="650.940643" xlink:href="#m2d42e6006c" y="493.286013"/>
      </g>
     </g>
    </g>
    <g id="xtick_83">
     <g id="line2d_106">
      <g>
       <use style="fill:#262626;stroke:#262626;" x="658.483027" xlink:href="#m2d42e6006c" y="493.286013"/>
      </g>
     </g>
    </g>
    <g id="xtick_84">
     <g id="line2d_107">
      <g>
       <use style="fill:#262626;stroke:#262626;" x="666.025411" xlink:href="#m2d42e6006c" y="493.286013"/>
      </g>
     </g>
    </g>
    <g id="xtick_85">
     <g id="line2d_108">
      <g>
       <use style="fill:#262626;stroke:#262626;" x="681.110179" xlink:href="#m2d42e6006c" y="493.286013"/>
      </g>
     </g>
    </g>
    <g id="xtick_86">
     <g id="line2d_109">
      <g>
       <use style="fill:#262626;stroke:#262626;" x="688.652563" xlink:href="#m2d42e6006c" y="493.286013"/>
      </g>
     </g>
    </g>
    <g id="xtick_87">
     <g id="line2d_110">
      <g>
       <use style="fill:#262626;stroke:#262626;" x="696.194947" xlink:href="#m2d42e6006c" y="493.286013"/>
      </g>
     </g>
    </g>
    <g id="xtick_88">
     <g id="line2d_111">
      <g>
       <use style="fill:#262626;stroke:#262626;" x="711.279715" xlink:href="#m2d42e6006c" y="493.286013"/>
      </g>
     </g>
    </g>
    <g id="xtick_89">
     <g id="line2d_112">
      <g>
       <use style="fill:#262626;stroke:#262626;" x="718.822099" xlink:href="#m2d42e6006c" y="493.286013"/>
      </g>
     </g>
    </g>
    <g id="xtick_90">
     <g id="line2d_113">
      <g>
       <use style="fill:#262626;stroke:#262626;" x="726.364483" xlink:href="#m2d42e6006c" y="493.286013"/>
      </g>
     </g>
    </g>
    <g id="xtick_91">
     <g id="line2d_114">
      <g>
       <use style="fill:#262626;stroke:#262626;" x="741.449251" xlink:href="#m2d42e6006c" y="493.286013"/>
      </g>
     </g>
    </g>
    <g id="xtick_92">
     <g id="line2d_115">
      <g>
       <use style="fill:#262626;stroke:#262626;" x="748.991635" xlink:href="#m2d42e6006c" y="493.286013"/>
      </g>
     </g>
    </g>
    <g id="xtick_93">
     <g id="line2d_116">
      <g>
       <use style="fill:#262626;stroke:#262626;" x="756.534019" xlink:href="#m2d42e6006c" y="493.286013"/>
      </g>
     </g>
    </g>
    <g id="xtick_94">
     <g id="line2d_117">
      <g>
       <use style="fill:#262626;stroke:#262626;" x="771.618787" xlink:href="#m2d42e6006c" y="493.286013"/>
      </g>
     </g>
    </g>
    <g id="xtick_95">
     <g id="line2d_118">
      <g>
       <use style="fill:#262626;stroke:#262626;" x="779.161171" xlink:href="#m2d42e6006c" y="493.286013"/>
      </g>
     </g>
    </g>
    <g id="xtick_96">
     <g id="line2d_119">
      <g>
       <use style="fill:#262626;stroke:#262626;" x="786.703555" xlink:href="#m2d42e6006c" y="493.286013"/>
      </g>
     </g>
    </g>
    <g id="xtick_97">
     <g id="line2d_120">
      <g>
       <use style="fill:#262626;stroke:#262626;" x="794.245939" xlink:href="#m2d42e6006c" y="493.286013"/>
      </g>
     </g>
    </g>
    <g id="text_24">
     <!-- Date -->
     <g style="fill:#262626;" transform="translate(418.409312 567.966863)scale(0.12 -0.12)">
      <defs>
       <path d="M 1259 4147 
L 1259 519 
L 2022 519 
Q 2988 519 3436 956 
Q 3884 1394 3884 2338 
Q 3884 3275 3436 3711 
Q 2988 4147 2022 4147 
L 1259 4147 
z
M 628 4666 
L 1925 4666 
Q 3281 4666 3915 4102 
Q 4550 3538 4550 2338 
Q 4550 1131 3912 565 
Q 3275 0 1925 0 
L 628 0 
L 628 4666 
z
" id="DejaVuSans-44" transform="scale(0.015625)"/>
       <path d="M 2194 1759 
Q 1497 1759 1228 1600 
Q 959 1441 959 1056 
Q 959 750 1161 570 
Q 1363 391 1709 391 
Q 2188 391 2477 730 
Q 2766 1069 2766 1631 
L 2766 1759 
L 2194 1759 
z
M 3341 1997 
L 3341 0 
L 2766 0 
L 2766 531 
Q 2569 213 2275 61 
Q 1981 -91 1556 -91 
Q 1019 -91 701 211 
Q 384 513 384 1019 
Q 384 1609 779 1909 
Q 1175 2209 1959 2209 
L 2766 2209 
L 2766 2266 
Q 2766 2663 2505 2880 
Q 2244 3097 1772 3097 
Q 1472 3097 1187 3025 
Q 903 2953 641 2809 
L 641 3341 
Q 956 3463 1253 3523 
Q 1550 3584 1831 3584 
Q 2591 3584 2966 3190 
Q 3341 2797 3341 1997 
z
" id="DejaVuSans-61" transform="scale(0.015625)"/>
       <path d="M 1172 4494 
L 1172 3500 
L 2356 3500 
L 2356 3053 
L 1172 3053 
L 1172 1153 
Q 1172 725 1289 603 
Q 1406 481 1766 481 
L 2356 481 
L 2356 0 
L 1766 0 
Q 1100 0 847 248 
Q 594 497 594 1153 
L 594 3053 
L 172 3053 
L 172 3500 
L 594 3500 
L 594 4494 
L 1172 4494 
z
" id="DejaVuSans-74" transform="scale(0.015625)"/>
       <path d="M 3597 1894 
L 3597 1613 
L 953 1613 
Q 991 1019 1311 708 
Q 1631 397 2203 397 
Q 2534 397 2845 478 
Q 3156 559 3463 722 
L 3463 178 
Q 3153 47 2828 -22 
Q 2503 -91 2169 -91 
Q 1331 -91 842 396 
Q 353 884 353 1716 
Q 353 2575 817 3079 
Q 1281 3584 2069 3584 
Q 2775 3584 3186 3129 
Q 3597 2675 3597 1894 
z
M 3022 2063 
Q 3016 2534 2758 2815 
Q 2500 3097 2075 3097 
Q 1594 3097 1305 2825 
Q 1016 2553 972 2059 
L 3022 2063 
z
" id="DejaVuSans-65" transform="scale(0.015625)"/>
      </defs>
      <use xlink:href="#DejaVuSans-44"/>
      <use x="77.001953" xlink:href="#DejaVuSans-61"/>
      <use x="138.28125" xlink:href="#DejaVuSans-74"/>
      <use x="177.490234" xlink:href="#DejaVuSans-65"/>
     </g>
    </g>
   </g>
   <g id="matplotlib.axis_2">
    <g id="ytick_1">
     <g id="line2d_121">
      <path clip-path="url(#p56214cd2d3)" d="M 67.10625 472.187472 
L 798.39425 472.187472 
" style="fill:none;stroke:#cccccc;stroke-linecap:round;"/>
     </g>
     <g id="line2d_122">
      <defs>
       <path d="M 0 0 
L -6 0 
" id="me441366508" style="stroke:#262626;stroke-width:1.25;"/>
      </defs>
      <g>
       <use style="fill:#262626;stroke:#262626;stroke-width:1.25;" x="67.10625" xlink:href="#me441366508" y="472.187472"/>
      </g>
     </g>
     <g id="text_25">
      <!-- 0 -->
      <g style="fill:#262626;" transform="translate(50.6075 476.366613)scale(0.11 -0.11)">
       <use xlink:href="#DejaVuSans-30"/>
      </g>
     </g>
    </g>
    <g id="ytick_2">
     <g id="line2d_123">
      <path clip-path="url(#p56214cd2d3)" d="M 67.10625 407.828022 
L 798.39425 407.828022 
" style="fill:none;stroke:#cccccc;stroke-linecap:round;"/>
     </g>
     <g id="line2d_124">
      <g>
       <use style="fill:#262626;stroke:#262626;stroke-width:1.25;" x="67.10625" xlink:href="#me441366508" y="407.828022"/>
      </g>
     </g>
     <g id="text_26">
      <!-- 100000 -->
      <g style="fill:#262626;" transform="translate(15.61375 412.007162)scale(0.11 -0.11)">
       <use xlink:href="#DejaVuSans-31"/>
       <use x="63.623047" xlink:href="#DejaVuSans-30"/>
       <use x="127.246094" xlink:href="#DejaVuSans-30"/>
       <use x="190.869141" xlink:href="#DejaVuSans-30"/>
       <use x="254.492188" xlink:href="#DejaVuSans-30"/>
       <use x="318.115234" xlink:href="#DejaVuSans-30"/>
      </g>
     </g>
    </g>
    <g id="ytick_3">
     <g id="line2d_125">
      <path clip-path="url(#p56214cd2d3)" d="M 67.10625 343.468571 
L 798.39425 343.468571 
" style="fill:none;stroke:#cccccc;stroke-linecap:round;"/>
     </g>
     <g id="line2d_126">
      <g>
       <use style="fill:#262626;stroke:#262626;stroke-width:1.25;" x="67.10625" xlink:href="#me441366508" y="343.468571"/>
      </g>
     </g>
     <g id="text_27">
      <!-- 200000 -->
      <g style="fill:#262626;" transform="translate(15.61375 347.647712)scale(0.11 -0.11)">
       <use xlink:href="#DejaVuSans-32"/>
       <use x="63.623047" xlink:href="#DejaVuSans-30"/>
       <use x="127.246094" xlink:href="#DejaVuSans-30"/>
       <use x="190.869141" xlink:href="#DejaVuSans-30"/>
       <use x="254.492188" xlink:href="#DejaVuSans-30"/>
       <use x="318.115234" xlink:href="#DejaVuSans-30"/>
      </g>
     </g>
    </g>
    <g id="ytick_4">
     <g id="line2d_127">
      <path clip-path="url(#p56214cd2d3)" d="M 67.10625 279.109121 
L 798.39425 279.109121 
" style="fill:none;stroke:#cccccc;stroke-linecap:round;"/>
     </g>
     <g id="line2d_128">
      <g>
       <use style="fill:#262626;stroke:#262626;stroke-width:1.25;" x="67.10625" xlink:href="#me441366508" y="279.109121"/>
      </g>
     </g>
     <g id="text_28">
      <!-- 300000 -->
      <g style="fill:#262626;" transform="translate(15.61375 283.288261)scale(0.11 -0.11)">
       <use xlink:href="#DejaVuSans-33"/>
       <use x="63.623047" xlink:href="#DejaVuSans-30"/>
       <use x="127.246094" xlink:href="#DejaVuSans-30"/>
       <use x="190.869141" xlink:href="#DejaVuSans-30"/>
       <use x="254.492188" xlink:href="#DejaVuSans-30"/>
       <use x="318.115234" xlink:href="#DejaVuSans-30"/>
      </g>
     </g>
    </g>
    <g id="ytick_5">
     <g id="line2d_129">
      <path clip-path="url(#p56214cd2d3)" d="M 67.10625 214.74967 
L 798.39425 214.74967 
" style="fill:none;stroke:#cccccc;stroke-linecap:round;"/>
     </g>
     <g id="line2d_130">
      <g>
       <use style="fill:#262626;stroke:#262626;stroke-width:1.25;" x="67.10625" xlink:href="#me441366508" y="214.74967"/>
      </g>
     </g>
     <g id="text_29">
      <!-- 400000 -->
      <g style="fill:#262626;" transform="translate(15.61375 218.928811)scale(0.11 -0.11)">
       <use xlink:href="#DejaVuSans-34"/>
       <use x="63.623047" xlink:href="#DejaVuSans-30"/>
       <use x="127.246094" xlink:href="#DejaVuSans-30"/>
       <use x="190.869141" xlink:href="#DejaVuSans-30"/>
       <use x="254.492188" xlink:href="#DejaVuSans-30"/>
       <use x="318.115234" xlink:href="#DejaVuSans-30"/>
      </g>
     </g>
    </g>
    <g id="ytick_6">
     <g id="line2d_131">
      <path clip-path="url(#p56214cd2d3)" d="M 67.10625 150.390219 
L 798.39425 150.390219 
" style="fill:none;stroke:#cccccc;stroke-linecap:round;"/>
     </g>
     <g id="line2d_132">
      <g>
       <use style="fill:#262626;stroke:#262626;stroke-width:1.25;" x="67.10625" xlink:href="#me441366508" y="150.390219"/>
      </g>
     </g>
     <g id="text_30">
      <!-- 500000 -->
      <g style="fill:#262626;" transform="translate(15.61375 154.56936)scale(0.11 -0.11)">
       <use xlink:href="#DejaVuSans-35"/>
       <use x="63.623047" xlink:href="#DejaVuSans-30"/>
       <use x="127.246094" xlink:href="#DejaVuSans-30"/>
       <use x="190.869141" xlink:href="#DejaVuSans-30"/>
       <use x="254.492188" xlink:href="#DejaVuSans-30"/>
       <use x="318.115234" xlink:href="#DejaVuSans-30"/>
      </g>
     </g>
    </g>
    <g id="ytick_7">
     <g id="line2d_133">
      <path clip-path="url(#p56214cd2d3)" d="M 67.10625 86.030769 
L 798.39425 86.030769 
" style="fill:none;stroke:#cccccc;stroke-linecap:round;"/>
     </g>
     <g id="line2d_134">
      <g>
       <use style="fill:#262626;stroke:#262626;stroke-width:1.25;" x="67.10625" xlink:href="#me441366508" y="86.030769"/>
      </g>
     </g>
     <g id="text_31">
      <!-- 600000 -->
      <g style="fill:#262626;" transform="translate(15.61375 90.209909)scale(0.11 -0.11)">
       <use xlink:href="#DejaVuSans-36"/>
       <use x="63.623047" xlink:href="#DejaVuSans-30"/>
       <use x="127.246094" xlink:href="#DejaVuSans-30"/>
       <use x="190.869141" xlink:href="#DejaVuSans-30"/>
       <use x="254.492188" xlink:href="#DejaVuSans-30"/>
       <use x="318.115234" xlink:href="#DejaVuSans-30"/>
      </g>
     </g>
    </g>
    <g id="text_32">
     <!-- Cases -->
     <g style="fill:#262626;" transform="translate(9.118125 279.011756)rotate(-90)scale(0.12 -0.12)">
      <defs>
       <path d="M 4122 4306 
L 4122 3641 
Q 3803 3938 3442 4084 
Q 3081 4231 2675 4231 
Q 1875 4231 1450 3742 
Q 1025 3253 1025 2328 
Q 1025 1406 1450 917 
Q 1875 428 2675 428 
Q 3081 428 3442 575 
Q 3803 722 4122 1019 
L 4122 359 
Q 3791 134 3420 21 
Q 3050 -91 2638 -91 
Q 1578 -91 968 557 
Q 359 1206 359 2328 
Q 359 3453 968 4101 
Q 1578 4750 2638 4750 
Q 3056 4750 3426 4639 
Q 3797 4528 4122 4306 
z
" id="DejaVuSans-43" transform="scale(0.015625)"/>
       <path d="M 2834 3397 
L 2834 2853 
Q 2591 2978 2328 3040 
Q 2066 3103 1784 3103 
Q 1356 3103 1142 2972 
Q 928 2841 928 2578 
Q 928 2378 1081 2264 
Q 1234 2150 1697 2047 
L 1894 2003 
Q 2506 1872 2764 1633 
Q 3022 1394 3022 966 
Q 3022 478 2636 193 
Q 2250 -91 1575 -91 
Q 1294 -91 989 -36 
Q 684 19 347 128 
L 347 722 
Q 666 556 975 473 
Q 1284 391 1588 391 
Q 1994 391 2212 530 
Q 2431 669 2431 922 
Q 2431 1156 2273 1281 
Q 2116 1406 1581 1522 
L 1381 1569 
Q 847 1681 609 1914 
Q 372 2147 372 2553 
Q 372 3047 722 3315 
Q 1072 3584 1716 3584 
Q 2034 3584 2315 3537 
Q 2597 3491 2834 3397 
z
" id="DejaVuSans-73" transform="scale(0.015625)"/>
      </defs>
      <use xlink:href="#DejaVuSans-43"/>
      <use x="69.824219" xlink:href="#DejaVuSans-61"/>
      <use x="131.103516" xlink:href="#DejaVuSans-73"/>
      <use x="183.203125" xlink:href="#DejaVuSans-65"/>
      <use x="244.726562" xlink:href="#DejaVuSans-73"/>
     </g>
    </g>
   </g>
   <g id="line2d_135">
    <path clip-path="url(#p56214cd2d3)" d="M 100.346614 472.184898 
L 114.353898 472.082566 
L 149.910851 471.481449 
L 155.298268 471.287084 
L 180.080387 470.687253 
L 187.622771 470.593289 
L 199.475089 470.43239 
L 217.792307 469.457344 
L 221.024757 469.210848 
L 224.257207 468.976579 
L 232.877075 468.105796 
L 236.109525 467.569682 
L 238.264492 467.417793 
L 266.279061 463.599991 
L 268.434028 463.491223 
L 272.743962 463.020756 
L 278.131379 462.649402 
L 288.906213 461.784411 
L 291.06118 461.718764 
L 296.448597 461.214186 
L 299.681047 461.044921 
L 309.378398 460.252656 
L 311.533365 460.075667 
L 314.765815 459.880015 
L 316.920782 459.590397 
L 319.075749 459.317513 
L 321.230716 459.141168 
L 326.618133 458.338606 
L 327.695616 458.294198 
L 329.850583 457.831453 
L 332.00555 457.218108 
L 334.160517 456.535898 
L 335.238 456.482479 
L 336.315484 456.104689 
L 339.547934 454.484118 
L 340.625417 453.841811 
L 341.702901 453.453723 
L 342.780384 453.199504 
L 343.857868 452.540463 
L 346.012834 450.733249 
L 348.167801 448.684045 
L 349.245285 448.012775 
L 350.322768 447.80232 
L 351.400251 446.358738 
L 354.632702 441.198397 
L 355.710185 439.337765 
L 356.787669 438.177364 
L 357.865152 437.388961 
L 358.942635 435.826957 
L 362.175086 428.201006 
L 363.252569 425.730246 
L 364.330053 424.249336 
L 365.407536 423.814909 
L 366.485019 421.358953 
L 368.639986 415.994592 
L 369.71747 413.797361 
L 370.794953 411.086541 
L 371.872437 409.478842 
L 372.94992 408.953669 
L 374.027403 406.688859 
L 375.104887 403.581585 
L 378.337337 395.974298 
L 379.414821 394.507546 
L 380.492304 393.78479 
L 381.569787 391.760041 
L 382.647271 388.93981 
L 384.802238 384.254442 
L 385.879721 382.113203 
L 386.957204 380.959882 
L 388.034688 380.484266 
L 389.112171 378.673191 
L 391.267138 374.4171 
L 393.422105 369.98016 
L 394.499588 368.669158 
L 395.577072 368.297804 
L 396.654555 366.518908 
L 397.732039 363.957402 
L 399.887006 359.836467 
L 400.964489 357.843254 
L 402.041972 357.014948 
L 403.119456 356.695082 
L 404.196939 355.346751 
L 405.274423 353.581372 
L 408.506873 349.887139 
L 409.584356 349.242257 
L 410.66184 349.135421 
L 411.739323 348.313551 
L 413.89429 346.116319 
L 414.971774 345.619464 
L 416.049257 345.45406 
L 418.204224 344.938541 
L 419.281707 344.72165 
L 420.359191 343.796161 
L 421.436674 342.683386 
L 422.514157 342.010186 
L 425.746608 341.504964 
L 426.824091 340.842706 
L 427.901575 339.999597 
L 430.056541 338.796719 
L 431.134025 338.312092 
L 432.211508 338.058516 
L 433.288992 337.990938 
L 438.676409 336.065304 
L 440.831376 335.865789 
L 444.063826 334.838612 
L 447.296276 334.010306 
L 448.37376 333.932431 
L 451.60621 332.518454 
L 454.83866 331.486129 
L 455.916144 331.402461 
L 462.381044 328.310633 
L 463.458528 328.193499 
L 467.768461 325.419607 
L 468.845945 324.797895 
L 469.923428 324.472236 
L 471.000912 324.36733 
L 472.078395 323.679971 
L 474.233362 322.009843 
L 475.310845 321.310899 
L 476.388329 320.369321 
L 477.465812 320.016631 
L 478.543296 319.870535 
L 480.698262 317.473145 
L 483.930713 314.103285 
L 485.008196 313.408846 
L 486.085679 313.195173 
L 488.240646 309.982993 
L 489.31813 309.240285 
L 490.395613 307.825664 
L 491.473097 305.892306 
L 492.55058 304.97454 
L 493.628063 304.654674 
L 494.705547 302.727108 
L 495.78303 300.47324 
L 496.860514 298.687909 
L 499.015481 294.646136 
L 500.092964 293.346718 
L 501.170447 292.909718 
L 503.325414 287.110287 
L 506.557865 279.14838 
L 507.635348 277.513006 
L 508.712831 276.906097 
L 513.022765 265.526702 
L 514.100249 262.8693 
L 515.177732 261.236501 
L 516.255215 260.603848 
L 517.332699 257.709603 
L 518.410182 254.378358 
L 519.487666 251.670756 
L 521.642632 246.710573 
L 522.720116 245.475515 
L 523.797599 244.999255 
L 527.03005 237.649406 
L 529.185016 233.942302 
L 530.2625 233.072162 
L 531.339983 232.774821 
L 533.49495 228.870777 
L 534.572434 227.25085 
L 536.7274 224.476314 
L 537.804884 223.783806 
L 538.882367 223.514784 
L 539.959851 221.948275 
L 542.114818 219.310824 
L 544.269784 217.129682 
L 545.347268 216.616094 
L 546.424751 216.358656 
L 548.579718 214.035924 
L 550.734685 212.35035 
L 551.812168 211.930726 
L 556.122102 210.764533 
L 557.199585 209.712256 
L 558.277069 209.361497 
L 559.354552 208.63874 
L 560.432036 208.338825 
L 561.509519 208.183719 
L 563.664486 206.925492 
L 565.819453 206.176991 
L 566.896936 205.843609 
L 569.051903 205.615777 
L 570.129387 205.180063 
L 572.284353 204.653603 
L 574.43932 204.183779 
L 578.749254 203.722965 
L 580.904221 203.281459 
L 583.059188 203.022734 
L 584.136671 202.988624 
L 587.369121 202.514938 
L 590.601572 202.247203 
L 592.756538 202.083087 
L 595.988989 201.819856 
L 604.608856 201.257355 
L 609.996273 201.016007 
L 638.010842 199.896796 
L 642.320776 199.576929 
L 645.553226 199.381277 
L 648.785677 198.964871 
L 650.940643 198.625053 
L 652.018127 198.564555 
L 655.250577 197.73818 
L 658.483027 196.81076 
L 659.560511 196.697488 
L 663.870444 194.610311 
L 664.947928 193.936467 
L 666.025411 193.535508 
L 667.102895 193.36045 
L 670.335345 190.726218 
L 672.490312 188.963413 
L 673.567795 188.419575 
L 674.645279 188.172435 
L 676.800246 185.725489 
L 678.955212 183.579744 
L 680.032696 182.477267 
L 681.110179 181.831098 
L 682.187663 181.540837 
L 684.34263 178.874425 
L 686.497596 176.744771 
L 687.57508 175.689276 
L 688.652563 175.139646 
L 689.730047 174.825572 
L 690.80753 174.389859 
L 692.962497 171.840581 
L 695.117464 169.745681 
L 696.194947 169.160653 
L 697.272431 168.879402 
L 700.504881 165.089274 
L 702.659848 162.762037 
L 703.737331 162.149978 
L 704.814815 161.855212 
L 706.969781 158.92557 
L 708.047265 158.378514 
L 710.202232 155.972115 
L 711.279715 155.304063 
L 712.357199 154.984841 
L 714.512165 151.696716 
L 717.744616 147.653012 
L 718.822099 146.862678 
L 719.899583 146.532514 
L 723.132033 141.246029 
L 725.287 138.165142 
L 726.364483 137.363223 
L 727.441967 136.963551 
L 730.674417 130.355766 
L 732.829384 126.09324 
L 733.906867 124.891649 
L 734.98435 124.248054 
L 738.216801 114.942965 
L 740.371768 108.737427 
L 741.449251 106.578811 
L 742.526734 105.697086 
L 743.604218 101.923692 
L 744.681701 97.536951 
L 746.836668 90.572615 
L 747.914152 87.189883 
L 748.991635 85.364648 
L 750.069118 84.426931 
L 752.224085 76.787465 
L 755.456536 67.572478 
L 756.534019 65.75368 
L 757.611502 64.945326 
L 759.766469 58.354274 
L 760.843953 55.874505 
L 762.99892 51.785749 
L 764.076403 50.749562 
L 765.153886 50.216665 
L 765.153886 50.216665 
" style="fill:none;stroke:#ffa500;stroke-linecap:round;stroke-width:1.5;"/>
   </g>
   <g id="line2d_136">
    <path clip-path="url(#p56214cd2d3)" d="M 100.346614 472.187472 
L 147.755884 472.078061 
L 166.073103 471.929391 
L 187.622771 471.566404 
L 238.264492 469.92395 
L 243.651909 469.560963 
L 245.806876 469.481157 
L 246.884359 469.277782 
L 247.961843 469.199263 
L 250.11681 468.807314 
L 253.34926 468.592997 
L 258.736677 468.071042 
L 259.81416 468.055596 
L 265.201578 467.281995 
L 269.511511 466.939603 
L 272.743962 466.321752 
L 274.898928 466.275413 
L 279.208862 465.695535 
L 281.363829 465.54429 
L 283.518796 465.431661 
L 285.673763 465.268831 
L 287.828729 464.959262 
L 289.983696 464.906488 
L 295.371113 464.434733 
L 308.300915 463.665637 
L 311.533365 463.461618 
L 314.765815 463.339335 
L 338.47045 461.575242 
L 341.702901 461.303002 
L 342.780384 461.283051 
L 353.555218 459.856845 
L 354.632702 459.511878 
L 356.787669 459.28662 
L 361.097602 458.062504 
L 363.252569 457.104191 
L 364.330053 456.866705 
L 365.407536 456.478618 
L 366.485019 455.915472 
L 367.562503 455.583378 
L 369.71747 454.432631 
L 371.872437 453.648733 
L 372.94992 453.281884 
L 374.027403 452.675618 
L 375.104887 451.891076 
L 378.337337 450.055544 
L 379.414821 449.177682 
L 380.492304 448.680827 
L 382.647271 446.378045 
L 384.802238 443.306169 
L 385.879721 442.105865 
L 386.957204 441.43717 
L 388.034688 440.912641 
L 389.112171 439.644116 
L 391.267138 436.657194 
L 392.344622 435.411839 
L 393.422105 433.779683 
L 394.499588 433.138663 
L 395.577072 432.126289 
L 398.809522 425.798468 
L 399.887006 423.76857 
L 400.964489 421.00755 
L 403.119456 418.30574 
L 404.196939 417.109942 
L 406.351906 413.935734 
L 408.506873 410.002084 
L 409.584356 409.098477 
L 410.66184 407.983772 
L 411.739323 406.112199 
L 412.816807 404.552126 
L 414.971774 402.885216 
L 416.049257 402.121913 
L 417.12674 401.558124 
L 419.281707 399.794031 
L 421.436674 396.027716 
L 422.514157 395.260552 
L 423.591641 394.735379 
L 425.746608 393.404425 
L 428.979058 389.299579 
L 430.056541 388.39726 
L 431.134025 385.931649 
L 433.288992 385.135523 
L 435.443959 381.731552 
L 436.521442 379.74027 
L 437.598925 375.410166 
L 438.676409 371.767422 
L 440.831376 371.322054 
L 441.908859 366.473857 
L 442.986343 362.455896 
L 444.063826 359.495362 
L 445.141309 358.043412 
L 446.218793 357.240206 
L 448.37376 356.940291 
L 450.528726 355.700085 
L 451.60621 355.296551 
L 455.916144 351.801833 
L 456.993627 350.566131 
L 458.07111 349.593016 
L 459.148594 348.905658 
L 461.303561 347.954425 
L 463.458528 347.81219 
L 464.536011 347.29474 
L 465.613494 346.999331 
L 466.690978 346.550745 
L 472.078395 345.028644 
L 475.310845 343.705414 
L 476.388329 343.48273 
L 478.543296 343.306385 
L 479.620779 342.806312 
L 481.775746 342.178164 
L 483.930713 341.219852 
L 485.008196 340.162426 
L 486.085679 339.89984 
L 487.163163 339.20154 
L 488.240646 338.055298 
L 489.31813 337.676221 
L 490.395613 336.622013 
L 491.473097 335.798212 
L 492.55058 335.422353 
L 493.628063 335.174569 
L 494.705547 334.384235 
L 495.78303 332.194083 
L 496.860514 330.565145 
L 499.015481 328.356972 
L 500.092964 327.637433 
L 501.170447 327.261574 
L 503.325414 324.922752 
L 506.557865 321.84637 
L 508.712831 321.090147 
L 509.790315 319.635623 
L 514.100249 312.929368 
L 515.177732 311.994225 
L 516.255215 311.700103 
L 518.410182 307.625506 
L 519.487666 305.135439 
L 520.565149 303.50457 
L 521.642632 300.932767 
L 522.720116 298.690483 
L 523.797599 298.138279 
L 525.952566 294.434393 
L 527.03005 292.840209 
L 528.107533 290.707337 
L 529.185016 288.847349 
L 530.2625 288.248806 
L 531.339983 287.953396 
L 532.417467 285.95954 
L 534.572434 281.041191 
L 536.7274 276.513504 
L 537.804884 275.738616 
L 538.882367 274.811196 
L 539.959851 272.079781 
L 541.037334 269.923096 
L 542.114818 267.390552 
L 543.192301 265.336198 
L 544.269784 263.742015 
L 546.424751 263.055943 
L 547.502235 260.417205 
L 549.657202 256.305924 
L 550.734685 254.451728 
L 551.812168 253.665255 
L 552.889652 253.436779 
L 555.044619 252.613622 
L 556.122102 251.932699 
L 557.199585 250.214945 
L 558.277069 249.83265 
L 559.354552 248.300252 
L 561.509519 247.964295 
L 562.587003 246.030294 
L 563.664486 244.600227 
L 564.741969 242.328338 
L 565.819453 240.492163 
L 566.896936 239.210766 
L 567.97442 238.995806 
L 569.051903 238.900554 
L 570.129387 237.480141 
L 571.20687 235.689661 
L 572.284353 234.198452 
L 573.361837 233.056716 
L 574.43932 232.147317 
L 577.671771 231.674275 
L 578.749254 230.114845 
L 579.826737 229.347681 
L 580.904221 228.164754 
L 581.981704 227.458087 
L 584.136671 227.27595 
L 586.291638 225.198427 
L 587.369121 224.547109 
L 589.524088 223.804401 
L 591.679055 223.696277 
L 595.988989 222.096301 
L 597.066472 221.592367 
L 599.221439 221.51063 
L 600.298922 220.9359 
L 601.376406 220.560685 
L 602.453889 219.8759 
L 604.608856 219.401571 
L 606.763823 219.373253 
L 609.996273 218.694904 
L 616.461174 218.309391 
L 618.616141 218.012694 
L 619.693624 217.786149 
L 621.848591 217.722433 
L 626.158525 217.183101 
L 628.313491 217.121316 
L 629.390975 217.120672 
L 633.700909 216.63154 
L 639.088326 216.263404 
L 642.320776 215.951905 
L 646.63071 215.821255 
L 660.637994 215.322469 
L 674.645279 213.692888 
L 676.800246 213.00038 
L 678.955212 212.318814 
L 680.032696 212.097417 
L 682.187663 211.946172 
L 684.34263 211.039348 
L 686.497596 210.225844 
L 687.57508 209.69681 
L 688.652563 209.573239 
L 690.80753 208.922565 
L 694.03998 206.810288 
L 695.117464 206.022528 
L 696.194947 205.911187 
L 697.272431 205.638303 
L 698.349914 204.937428 
L 699.427397 204.446366 
L 700.504881 203.52152 
L 701.582364 202.257501 
L 702.659848 200.692279 
L 703.737331 200.362115 
L 706.969781 198.220876 
L 708.047265 197.845017 
L 709.124748 197.166024 
L 710.202232 196.066121 
L 712.357199 195.411586 
L 714.512165 192.562393 
L 715.589649 191.721859 
L 716.667132 190.730079 
L 717.744616 190.146339 
L 719.899583 189.583194 
L 720.977066 188.71048 
L 722.054549 187.404627 
L 724.209516 185.36765 
L 725.287 184.1268 
L 727.441967 183.342258 
L 728.51945 182.143885 
L 729.596933 181.391523 
L 730.674417 180.209884 
L 732.829384 178.193502 
L 734.98435 177.511292 
L 736.061834 176.218311 
L 737.139317 174.452931 
L 738.216801 173.828644 
L 739.294284 172.895432 
L 740.371768 172.135991 
L 741.449251 171.936476 
L 742.526734 171.59151 
L 743.604218 170.290162 
L 746.836668 165.869311 
L 747.914152 164.851788 
L 750.069118 164.054374 
L 751.146602 162.117798 
L 753.301569 158.919777 
L 754.379052 156.536547 
L 755.456536 154.773742 
L 756.534019 154.348326 
L 757.611502 153.709236 
L 758.688986 151.45923 
L 759.766469 148.848167 
L 760.843953 145.929466 
L 761.921436 143.385337 
L 762.99892 141.450048 
L 764.076403 140.872744 
L 765.153886 140.00196 
L 765.153886 140.00196 
" style="fill:none;stroke:#008000;stroke-linecap:round;stroke-width:1.5;"/>
   </g>
   <g id="line2d_137"/>
   <g id="line2d_138"/>
   <g id="patch_3">
    <path d="M 67.10625 493.286013 
L 67.10625 29.118125 
" style="fill:none;stroke:#262626;stroke-linecap:square;stroke-linejoin:miter;stroke-width:1.25;"/>
   </g>
   <g id="patch_4">
    <path d="M 798.39425 493.286013 
L 798.39425 29.118125 
" style="fill:none;stroke:#262626;stroke-linecap:square;stroke-linejoin:miter;stroke-width:1.25;"/>
   </g>
   <g id="patch_5">
    <path d="M 67.10625 493.286013 
L 798.39425 493.286013 
" style="fill:none;stroke:#262626;stroke-linecap:square;stroke-linejoin:miter;stroke-width:1.25;"/>
   </g>
   <g id="patch_6">
    <path d="M 67.10625 29.118125 
L 798.39425 29.118125 
" style="fill:none;stroke:#262626;stroke-linecap:square;stroke-linejoin:miter;stroke-width:1.25;"/>
   </g>
   <g id="text_33">
    <!-- Last update: 15.11.2021 -->
    <g style="fill:#262626;" transform="translate(371.251422 22.155607)scale(0.09996 -0.09996)">
     <defs>
      <path d="M 628 4666 
L 1259 4666 
L 1259 531 
L 3531 531 
L 3531 0 
L 628 0 
L 628 4666 
z
" id="DejaVuSans-4c" transform="scale(0.015625)"/>
      <path id="DejaVuSans-20" transform="scale(0.015625)"/>
      <path d="M 544 1381 
L 544 3500 
L 1119 3500 
L 1119 1403 
Q 1119 906 1312 657 
Q 1506 409 1894 409 
Q 2359 409 2629 706 
Q 2900 1003 2900 1516 
L 2900 3500 
L 3475 3500 
L 3475 0 
L 2900 0 
L 2900 538 
Q 2691 219 2414 64 
Q 2138 -91 1772 -91 
Q 1169 -91 856 284 
Q 544 659 544 1381 
z
M 1991 3584 
L 1991 3584 
z
" id="DejaVuSans-75" transform="scale(0.015625)"/>
      <path d="M 1159 525 
L 1159 -1331 
L 581 -1331 
L 581 3500 
L 1159 3500 
L 1159 2969 
Q 1341 3281 1617 3432 
Q 1894 3584 2278 3584 
Q 2916 3584 3314 3078 
Q 3713 2572 3713 1747 
Q 3713 922 3314 415 
Q 2916 -91 2278 -91 
Q 1894 -91 1617 61 
Q 1341 213 1159 525 
z
M 3116 1747 
Q 3116 2381 2855 2742 
Q 2594 3103 2138 3103 
Q 1681 3103 1420 2742 
Q 1159 2381 1159 1747 
Q 1159 1113 1420 752 
Q 1681 391 2138 391 
Q 2594 391 2855 752 
Q 3116 1113 3116 1747 
z
" id="DejaVuSans-70" transform="scale(0.015625)"/>
      <path d="M 2906 2969 
L 2906 4863 
L 3481 4863 
L 3481 0 
L 2906 0 
L 2906 525 
Q 2725 213 2448 61 
Q 2172 -91 1784 -91 
Q 1150 -91 751 415 
Q 353 922 353 1747 
Q 353 2572 751 3078 
Q 1150 3584 1784 3584 
Q 2172 3584 2448 3432 
Q 2725 3281 2906 2969 
z
M 947 1747 
Q 947 1113 1208 752 
Q 1469 391 1925 391 
Q 2381 391 2643 752 
Q 2906 1113 2906 1747 
Q 2906 2381 2643 2742 
Q 2381 3103 1925 3103 
Q 1469 3103 1208 2742 
Q 947 2381 947 1747 
z
" id="DejaVuSans-64" transform="scale(0.015625)"/>
      <path d="M 750 794 
L 1409 794 
L 1409 0 
L 750 0 
L 750 794 
z
M 750 3309 
L 1409 3309 
L 1409 2516 
L 750 2516 
L 750 3309 
z
" id="DejaVuSans-3a" transform="scale(0.015625)"/>
     </defs>
     <use xlink:href="#DejaVuSans-4c"/>
     <use x="55.712891" xlink:href="#DejaVuSans-61"/>
     <use x="116.992188" xlink:href="#DejaVuSans-73"/>
     <use x="169.091797" xlink:href="#DejaVuSans-74"/>
     <use x="208.300781" xlink:href="#DejaVuSans-20"/>
     <use x="240.087891" xlink:href="#DejaVuSans-75"/>
     <use x="303.466797" xlink:href="#DejaVuSans-70"/>
     <use x="366.943359" xlink:href="#DejaVuSans-64"/>
     <use x="430.419922" xlink:href="#DejaVuSans-61"/>
     <use x="491.699219" xlink:href="#DejaVuSans-74"/>
     <use x="530.908203" xlink:href="#DejaVuSans-65"/>
     <use x="592.431641" xlink:href="#DejaVuSans-3a"/>
     <use x="626.123047" xlink:href="#DejaVuSans-20"/>
     <use x="657.910156" xlink:href="#DejaVuSans-31"/>
     <use x="721.533203" xlink:href="#DejaVuSans-35"/>
     <use x="785.15625" xlink:href="#DejaVuSans-2e"/>
     <use x="816.943359" xlink:href="#DejaVuSans-31"/>
     <use x="880.566406" xlink:href="#DejaVuSans-31"/>
     <use x="944.189453" xlink:href="#DejaVuSans-2e"/>
     <use x="975.976562" xlink:href="#DejaVuSans-32"/>
     <use x="1039.599609" xlink:href="#DejaVuSans-30"/>
     <use x="1103.222656" xlink:href="#DejaVuSans-32"/>
     <use x="1166.845703" xlink:href="#DejaVuSans-31"/>
    </g>
   </g>
   <g id="text_34">
    <!-- Disease timeline -->
    <g style="fill:#262626;" transform="translate(376.592125 9.118125)scale(0.12 -0.12)">
     <defs>
      <path d="M 1791 3756 
L 1791 909 
L 2222 909 
Q 2959 909 3348 1275 
Q 3738 1641 3738 2338 
Q 3738 3031 3350 3393 
Q 2963 3756 2222 3756 
L 1791 3756 
z
M 588 4666 
L 1856 4666 
Q 2919 4666 3439 4514 
Q 3959 4363 4331 4000 
Q 4659 3684 4818 3271 
Q 4978 2859 4978 2338 
Q 4978 1809 4818 1395 
Q 4659 981 4331 666 
Q 3956 303 3431 151 
Q 2906 0 1856 0 
L 588 0 
L 588 4666 
z
" id="DejaVuSans-Bold-44" transform="scale(0.015625)"/>
      <path d="M 538 3500 
L 1656 3500 
L 1656 0 
L 538 0 
L 538 3500 
z
M 538 4863 
L 1656 4863 
L 1656 3950 
L 538 3950 
L 538 4863 
z
" id="DejaVuSans-Bold-69" transform="scale(0.015625)"/>
      <path d="M 3272 3391 
L 3272 2541 
Q 2913 2691 2578 2766 
Q 2244 2841 1947 2841 
Q 1628 2841 1473 2761 
Q 1319 2681 1319 2516 
Q 1319 2381 1436 2309 
Q 1553 2238 1856 2203 
L 2053 2175 
Q 2913 2066 3209 1816 
Q 3506 1566 3506 1031 
Q 3506 472 3093 190 
Q 2681 -91 1863 -91 
Q 1516 -91 1145 -36 
Q 775 19 384 128 
L 384 978 
Q 719 816 1070 734 
Q 1422 653 1784 653 
Q 2113 653 2278 743 
Q 2444 834 2444 1013 
Q 2444 1163 2330 1236 
Q 2216 1309 1875 1350 
L 1678 1375 
Q 931 1469 631 1722 
Q 331 1975 331 2491 
Q 331 3047 712 3315 
Q 1094 3584 1881 3584 
Q 2191 3584 2531 3537 
Q 2872 3491 3272 3391 
z
" id="DejaVuSans-Bold-73" transform="scale(0.015625)"/>
      <path d="M 4031 1759 
L 4031 1441 
L 1416 1441 
Q 1456 1047 1700 850 
Q 1944 653 2381 653 
Q 2734 653 3104 758 
Q 3475 863 3866 1075 
L 3866 213 
Q 3469 63 3072 -14 
Q 2675 -91 2278 -91 
Q 1328 -91 801 392 
Q 275 875 275 1747 
Q 275 2603 792 3093 
Q 1309 3584 2216 3584 
Q 3041 3584 3536 3087 
Q 4031 2591 4031 1759 
z
M 2881 2131 
Q 2881 2450 2695 2645 
Q 2509 2841 2209 2841 
Q 1884 2841 1681 2658 
Q 1478 2475 1428 2131 
L 2881 2131 
z
" id="DejaVuSans-Bold-65" transform="scale(0.015625)"/>
      <path d="M 2106 1575 
Q 1756 1575 1579 1456 
Q 1403 1338 1403 1106 
Q 1403 894 1545 773 
Q 1688 653 1941 653 
Q 2256 653 2472 879 
Q 2688 1106 2688 1447 
L 2688 1575 
L 2106 1575 
z
M 3816 1997 
L 3816 0 
L 2688 0 
L 2688 519 
Q 2463 200 2181 54 
Q 1900 -91 1497 -91 
Q 953 -91 614 226 
Q 275 544 275 1050 
Q 275 1666 698 1953 
Q 1122 2241 2028 2241 
L 2688 2241 
L 2688 2328 
Q 2688 2594 2478 2717 
Q 2269 2841 1825 2841 
Q 1466 2841 1156 2769 
Q 847 2697 581 2553 
L 581 3406 
Q 941 3494 1303 3539 
Q 1666 3584 2028 3584 
Q 2975 3584 3395 3211 
Q 3816 2838 3816 1997 
z
" id="DejaVuSans-Bold-61" transform="scale(0.015625)"/>
      <path id="DejaVuSans-Bold-20" transform="scale(0.015625)"/>
      <path d="M 1759 4494 
L 1759 3500 
L 2913 3500 
L 2913 2700 
L 1759 2700 
L 1759 1216 
Q 1759 972 1856 886 
Q 1953 800 2241 800 
L 2816 800 
L 2816 0 
L 1856 0 
Q 1194 0 917 276 
Q 641 553 641 1216 
L 641 2700 
L 84 2700 
L 84 3500 
L 641 3500 
L 641 4494 
L 1759 4494 
z
" id="DejaVuSans-Bold-74" transform="scale(0.015625)"/>
      <path d="M 3781 2919 
Q 3994 3244 4286 3414 
Q 4578 3584 4928 3584 
Q 5531 3584 5847 3212 
Q 6163 2841 6163 2131 
L 6163 0 
L 5038 0 
L 5038 1825 
Q 5041 1866 5042 1909 
Q 5044 1953 5044 2034 
Q 5044 2406 4934 2573 
Q 4825 2741 4581 2741 
Q 4263 2741 4089 2478 
Q 3916 2216 3909 1719 
L 3909 0 
L 2784 0 
L 2784 1825 
Q 2784 2406 2684 2573 
Q 2584 2741 2328 2741 
Q 2006 2741 1831 2477 
Q 1656 2213 1656 1722 
L 1656 0 
L 531 0 
L 531 3500 
L 1656 3500 
L 1656 2988 
Q 1863 3284 2130 3434 
Q 2397 3584 2719 3584 
Q 3081 3584 3359 3409 
Q 3638 3234 3781 2919 
z
" id="DejaVuSans-Bold-6d" transform="scale(0.015625)"/>
      <path d="M 538 4863 
L 1656 4863 
L 1656 0 
L 538 0 
L 538 4863 
z
" id="DejaVuSans-Bold-6c" transform="scale(0.015625)"/>
      <path d="M 4056 2131 
L 4056 0 
L 2931 0 
L 2931 347 
L 2931 1631 
Q 2931 2084 2911 2256 
Q 2891 2428 2841 2509 
Q 2775 2619 2662 2680 
Q 2550 2741 2406 2741 
Q 2056 2741 1856 2470 
Q 1656 2200 1656 1722 
L 1656 0 
L 538 0 
L 538 3500 
L 1656 3500 
L 1656 2988 
Q 1909 3294 2193 3439 
Q 2478 3584 2822 3584 
Q 3428 3584 3742 3212 
Q 4056 2841 4056 2131 
z
" id="DejaVuSans-Bold-6e" transform="scale(0.015625)"/>
     </defs>
     <use xlink:href="#DejaVuSans-Bold-44"/>
     <use x="83.007812" xlink:href="#DejaVuSans-Bold-69"/>
     <use x="117.285156" xlink:href="#DejaVuSans-Bold-73"/>
     <use x="176.806641" xlink:href="#DejaVuSans-Bold-65"/>
     <use x="244.628906" xlink:href="#DejaVuSans-Bold-61"/>
     <use x="312.109375" xlink:href="#DejaVuSans-Bold-73"/>
     <use x="371.630859" xlink:href="#DejaVuSans-Bold-65"/>
     <use x="439.453125" xlink:href="#DejaVuSans-Bold-20"/>
     <use x="474.267578" xlink:href="#DejaVuSans-Bold-74"/>
     <use x="522.070312" xlink:href="#DejaVuSans-Bold-69"/>
     <use x="556.347656" xlink:href="#DejaVuSans-Bold-6d"/>
     <use x="660.546875" xlink:href="#DejaVuSans-Bold-65"/>
     <use x="728.369141" xlink:href="#DejaVuSans-Bold-6c"/>
     <use x="762.646484" xlink:href="#DejaVuSans-Bold-69"/>
     <use x="796.923828" xlink:href="#DejaVuSans-Bold-6e"/>
     <use x="868.115234" xlink:href="#DejaVuSans-Bold-65"/>
    </g>
   </g>
  </g>
  <g id="axes_2">
   <g id="matplotlib.axis_3">
    <g id="ytick_8">
     <g id="line2d_139">
      <defs>
       <path d="M 0 0 
L 6 0 
" id="m89c01c1428" style="stroke:#262626;stroke-width:1.25;"/>
      </defs>
      <g>
       <use style="fill:#262626;stroke:#262626;stroke-width:1.25;" x="798.39425" xlink:href="#m89c01c1428" y="472.187472"/>
      </g>
     </g>
     <g id="text_35">
      <!-- 0 -->
      <g style="fill:#262626;" transform="translate(807.89425 476.366613)scale(0.11 -0.11)">
       <use xlink:href="#DejaVuSans-30"/>
      </g>
     </g>
    </g>
    <g id="ytick_9">
     <g id="line2d_140">
      <g>
       <use style="fill:#262626;stroke:#262626;stroke-width:1.25;" x="798.39425" xlink:href="#m89c01c1428" y="391.900778"/>
      </g>
     </g>
     <g id="text_36">
      <!-- 5000 -->
      <g style="fill:#262626;" transform="translate(807.89425 396.079919)scale(0.11 -0.11)">
       <use xlink:href="#DejaVuSans-35"/>
       <use x="63.623047" xlink:href="#DejaVuSans-30"/>
       <use x="127.246094" xlink:href="#DejaVuSans-30"/>
       <use x="190.869141" xlink:href="#DejaVuSans-30"/>
      </g>
     </g>
    </g>
    <g id="ytick_10">
     <g id="line2d_141">
      <g>
       <use style="fill:#262626;stroke:#262626;stroke-width:1.25;" x="798.39425" xlink:href="#m89c01c1428" y="311.614084"/>
      </g>
     </g>
     <g id="text_37">
      <!-- 10000 -->
      <g style="fill:#262626;" transform="translate(807.89425 315.793225)scale(0.11 -0.11)">
       <use xlink:href="#DejaVuSans-31"/>
       <use x="63.623047" xlink:href="#DejaVuSans-30"/>
       <use x="127.246094" xlink:href="#DejaVuSans-30"/>
       <use x="190.869141" xlink:href="#DejaVuSans-30"/>
       <use x="254.492188" xlink:href="#DejaVuSans-30"/>
      </g>
     </g>
    </g>
    <g id="ytick_11">
     <g id="line2d_142">
      <g>
       <use style="fill:#262626;stroke:#262626;stroke-width:1.25;" x="798.39425" xlink:href="#m89c01c1428" y="231.32739"/>
      </g>
     </g>
     <g id="text_38">
      <!-- 15000 -->
      <g style="fill:#262626;" transform="translate(807.89425 235.506531)scale(0.11 -0.11)">
       <use xlink:href="#DejaVuSans-31"/>
       <use x="63.623047" xlink:href="#DejaVuSans-35"/>
       <use x="127.246094" xlink:href="#DejaVuSans-30"/>
       <use x="190.869141" xlink:href="#DejaVuSans-30"/>
       <use x="254.492188" xlink:href="#DejaVuSans-30"/>
      </g>
     </g>
    </g>
    <g id="ytick_12">
     <g id="line2d_143">
      <g>
       <use style="fill:#262626;stroke:#262626;stroke-width:1.25;" x="798.39425" xlink:href="#m89c01c1428" y="151.040696"/>
      </g>
     </g>
     <g id="text_39">
      <!-- 20000 -->
      <g style="fill:#262626;" transform="translate(807.89425 155.219836)scale(0.11 -0.11)">
       <use xlink:href="#DejaVuSans-32"/>
       <use x="63.623047" xlink:href="#DejaVuSans-30"/>
       <use x="127.246094" xlink:href="#DejaVuSans-30"/>
       <use x="190.869141" xlink:href="#DejaVuSans-30"/>
       <use x="254.492188" xlink:href="#DejaVuSans-30"/>
      </g>
     </g>
    </g>
    <g id="ytick_13">
     <g id="line2d_144">
      <g>
       <use style="fill:#262626;stroke:#262626;stroke-width:1.25;" x="798.39425" xlink:href="#m89c01c1428" y="70.754002"/>
      </g>
     </g>
     <g id="text_40">
      <!-- 25000 -->
      <g style="fill:#262626;" transform="translate(807.89425 74.933142)scale(0.11 -0.11)">
       <use xlink:href="#DejaVuSans-32"/>
       <use x="63.623047" xlink:href="#DejaVuSans-35"/>
       <use x="127.246094" xlink:href="#DejaVuSans-30"/>
       <use x="190.869141" xlink:href="#DejaVuSans-30"/>
       <use x="254.492188" xlink:href="#DejaVuSans-30"/>
      </g>
     </g>
    </g>
    <g id="text_41">
     <!-- Fatalities -->
     <g style="fill:#262626;" transform="translate(853.769875 234.422381)rotate(-270)scale(0.12 -0.12)">
      <defs>
       <path d="M 628 4666 
L 3309 4666 
L 3309 4134 
L 1259 4134 
L 1259 2759 
L 3109 2759 
L 3109 2228 
L 1259 2228 
L 1259 0 
L 628 0 
L 628 4666 
z
" id="DejaVuSans-46" transform="scale(0.015625)"/>
       <path d="M 603 4863 
L 1178 4863 
L 1178 0 
L 603 0 
L 603 4863 
z
" id="DejaVuSans-6c" transform="scale(0.015625)"/>
       <path d="M 603 3500 
L 1178 3500 
L 1178 0 
L 603 0 
L 603 3500 
z
M 603 4863 
L 1178 4863 
L 1178 4134 
L 603 4134 
L 603 4863 
z
" id="DejaVuSans-69" transform="scale(0.015625)"/>
      </defs>
      <use xlink:href="#DejaVuSans-46"/>
      <use x="48.394531" xlink:href="#DejaVuSans-61"/>
      <use x="109.673828" xlink:href="#DejaVuSans-74"/>
      <use x="148.882812" xlink:href="#DejaVuSans-61"/>
      <use x="210.162109" xlink:href="#DejaVuSans-6c"/>
      <use x="237.945312" xlink:href="#DejaVuSans-69"/>
      <use x="265.728516" xlink:href="#DejaVuSans-74"/>
      <use x="304.9375" xlink:href="#DejaVuSans-69"/>
      <use x="332.720703" xlink:href="#DejaVuSans-65"/>
      <use x="394.244141" xlink:href="#DejaVuSans-73"/>
     </g>
    </g>
   </g>
   <g id="line2d_145">
    <path clip-path="url(#p56214cd2d3)" d="M 100.346614 472.187472 
L 120.818799 472.1393 
L 122.973766 472.059014 
L 128.361183 471.96267 
L 133.7486 471.802096 
L 138.058533 471.721809 
L 144.523434 471.529121 
L 149.910851 471.352491 
L 173.615486 470.549624 
L 181.15787 470.180305 
L 191.932705 469.939445 
L 198.397605 469.618298 
L 200.552572 469.554069 
L 204.862506 469.42561 
L 208.094956 469.361381 
L 213.482373 468.992062 
L 214.559857 468.992062 
L 215.63734 468.863603 
L 222.102241 468.670915 
L 236.109525 467.900163 
L 237.187009 467.884105 
L 240.419459 467.546901 
L 247.961843 467.033067 
L 250.11681 466.776149 
L 252.271776 466.727977 
L 254.426743 466.487117 
L 256.58171 466.182028 
L 257.659194 466.037512 
L 259.81416 465.957225 
L 261.969127 465.523677 
L 266.279061 465.041957 
L 267.356544 465.009842 
L 270.588995 464.447835 
L 272.743962 464.287262 
L 274.898928 464.190918 
L 277.053895 463.853713 
L 281.363829 463.436223 
L 282.441312 463.436223 
L 283.518796 463.147191 
L 291.06118 462.087406 
L 293.216147 461.782317 
L 295.371113 461.509342 
L 299.681047 461.075794 
L 301.836014 460.850991 
L 303.990981 460.67436 
L 306.145948 460.481672 
L 310.455881 460.096296 
L 314.765815 459.871493 
L 316.920782 459.582461 
L 321.230716 459.2292 
L 323.385682 458.940168 
L 326.618133 458.68325 
L 327.695616 458.635078 
L 332.00555 458.057014 
L 334.160517 457.880383 
L 335.238 457.864326 
L 336.315484 457.495007 
L 339.547934 457.029344 
L 342.780384 456.354936 
L 343.857868 456.001675 
L 344.935351 455.825044 
L 346.012834 455.359381 
L 348.167801 454.893718 
L 350.322768 454.620744 
L 351.400251 453.946335 
L 352.477735 453.544902 
L 353.555218 452.966838 
L 356.787669 451.650136 
L 357.865152 451.345046 
L 358.942635 450.526122 
L 361.097602 448.647414 
L 363.252569 446.881106 
L 364.330053 445.981895 
L 365.407536 445.452003 
L 366.485019 443.749925 
L 367.562503 442.465338 
L 368.639986 441.710643 
L 369.71747 440.554515 
L 370.794953 439.189641 
L 372.94992 437.985341 
L 374.027403 435.544625 
L 376.18237 431.562405 
L 378.337337 427.580185 
L 379.414821 426.905777 
L 380.492304 425.942336 
L 381.569787 422.907499 
L 385.879721 413.096465 
L 388.034688 410.944782 
L 389.112171 407.39611 
L 393.422105 397.520847 
L 394.499588 396.252317 
L 395.577072 395.160418 
L 396.654555 391.740205 
L 397.732039 389.395833 
L 399.887006 385.397556 
L 400.964489 382.876554 
L 403.119456 380.853329 
L 404.196939 378.444728 
L 405.274423 375.763153 
L 406.351906 372.696201 
L 408.506873 367.878999 
L 410.66184 366.06452 
L 411.739323 363.559575 
L 412.816807 361.729039 
L 413.89429 360.139362 
L 416.049257 358.613915 
L 417.12674 357.811048 
L 418.204224 357.152697 
L 419.281707 355.755708 
L 420.359191 353.282878 
L 421.436674 351.516571 
L 422.514157 350.537073 
L 423.591641 350.087468 
L 425.746608 348.899225 
L 426.824091 346.378223 
L 428.979058 344.354998 
L 431.134025 342.476289 
L 432.211508 342.1712 
L 433.288992 341.705537 
L 434.366475 340.003459 
L 435.443959 339.248764 
L 436.521442 338.12475 
L 437.598925 337.370056 
L 438.676409 336.390558 
L 439.753892 336.117583 
L 440.831376 335.973067 
L 441.908859 334.656365 
L 442.986343 333.869556 
L 444.063826 333.275434 
L 445.141309 331.830274 
L 446.218793 330.898948 
L 448.37376 330.561744 
L 449.451243 329.598304 
L 450.528726 329.020239 
L 452.683693 328.104971 
L 453.761177 327.542964 
L 455.916144 326.948843 
L 456.993627 325.391281 
L 459.148594 324.170923 
L 460.226077 323.303827 
L 461.303561 322.822107 
L 462.381044 322.677591 
L 463.458528 322.356444 
L 464.536011 320.927341 
L 465.613494 319.931786 
L 466.690978 319.209205 
L 468.845945 318.133364 
L 471.000912 317.651643 
L 472.078395 316.896949 
L 473.155878 316.383114 
L 476.388329 314.488348 
L 478.543296 313.958456 
L 479.620779 312.689926 
L 481.775746 311.196593 
L 483.930713 309.558745 
L 485.008196 308.932508 
L 486.085679 308.547132 
L 487.163163 306.668424 
L 488.240646 305.335665 
L 489.31813 304.982403 
L 490.395613 303.489071 
L 491.473097 302.445344 
L 493.628063 301.754878 
L 495.78303 297.130364 
L 499.015481 292.409507 
L 500.092964 291.799328 
L 501.170447 290.980404 
L 502.247931 287.977681 
L 503.325414 286.259546 
L 504.402898 284.075748 
L 505.480381 282.437899 
L 506.557865 280.591305 
L 507.635348 280.045356 
L 508.712831 279.194317 
L 509.790315 276.480627 
L 511.945282 272.867725 
L 514.100249 269.848946 
L 515.177732 269.062136 
L 516.255215 268.098696 
L 517.332699 264.839056 
L 518.410182 262.350169 
L 520.565149 258.416121 
L 521.642632 256.408953 
L 522.720116 255.300997 
L 523.797599 253.984295 
L 524.875083 250.820999 
L 525.952566 248.701431 
L 527.03005 246.838779 
L 529.185016 242.439068 
L 530.2625 241.748603 
L 531.339983 240.672761 
L 532.417467 237.445236 
L 534.572434 233.398787 
L 536.7274 229.721656 
L 537.804884 229.111477 
L 538.882367 228.196209 
L 539.959851 224.711766 
L 544.269784 218.064028 
L 545.347268 217.534136 
L 546.424751 216.763384 
L 547.502235 213.64826 
L 548.579718 212.347615 
L 550.734685 209.36095 
L 551.812168 208.863173 
L 553.967135 207.36984 
L 556.122102 205.491132 
L 557.199585 202.857728 
L 558.277069 202.42418 
L 559.354552 201.043249 
L 560.432036 200.786331 
L 561.509519 200.352783 
L 562.587003 198.490132 
L 563.664486 197.542749 
L 566.896936 195.310779 
L 569.051903 195.053862 
L 570.129387 193.705045 
L 573.361837 192.035082 
L 574.43932 191.601534 
L 577.671771 190.975297 
L 578.749254 189.883398 
L 579.826737 189.305334 
L 581.981704 188.743327 
L 584.136671 188.582754 
L 585.214155 187.972575 
L 587.369121 187.21788 
L 588.446605 186.4953 
L 589.524088 186.206268 
L 591.679055 186.045694 
L 592.756538 185.499745 
L 594.911505 185.210713 
L 595.988989 184.969853 
L 600.298922 184.520247 
L 601.376406 184.247273 
L 603.531373 183.47652 
L 605.68634 183.332004 
L 606.763823 183.315947 
L 608.91879 183.026915 
L 616.461174 182.368564 
L 619.693624 181.822614 
L 621.848591 181.806557 
L 622.926074 181.148206 
L 630.468458 180.843117 
L 632.623425 180.618314 
L 640.165809 180.152651 
L 652.018127 179.703046 
L 654.173094 179.542472 
L 655.250577 179.478243 
L 657.405544 179.124981 
L 659.560511 179.060752 
L 660.637994 178.691433 
L 661.715478 178.53086 
L 663.870444 178.000968 
L 666.025411 177.711936 
L 667.102895 177.631649 
L 668.180378 177.117814 
L 673.567795 175.656596 
L 674.645279 175.528138 
L 675.722762 174.612869 
L 676.800246 174.082977 
L 677.877729 173.312225 
L 678.955212 172.766275 
L 680.032696 172.07581 
L 681.110179 171.83495 
L 682.187663 171.417459 
L 683.265146 169.667209 
L 686.497596 167.081977 
L 687.57508 166.27911 
L 690.80753 164.705491 
L 691.885014 162.762553 
L 692.962497 161.718826 
L 694.03998 160.883845 
L 695.117464 159.727716 
L 696.194947 159.567143 
L 697.272431 158.716104 
L 698.349914 156.484134 
L 699.427397 155.151375 
L 701.582364 153.031806 
L 702.659848 151.763276 
L 703.737331 151.281556 
L 704.814815 150.59109 
L 705.892298 148.375178 
L 706.969781 147.443852 
L 708.047265 147.010304 
L 709.124748 145.420627 
L 710.202232 144.248441 
L 711.279715 143.830951 
L 712.357199 143.188657 
L 713.434682 140.796114 
L 715.589649 138.002137 
L 716.667132 136.878123 
L 717.744616 135.481135 
L 718.822099 135.063644 
L 719.899583 134.373178 
L 720.977066 131.514972 
L 722.054549 129.845009 
L 725.287 125.573756 
L 726.364483 125.092036 
L 727.441967 124.449743 
L 728.51945 121.928741 
L 732.829384 115.907238 
L 734.98435 114.526307 
L 736.061834 111.090037 
L 737.139317 109.098927 
L 739.294284 105.453911 
L 740.371768 103.270113 
L 741.449251 102.338787 
L 742.526734 101.696494 
L 743.604218 97.79456 
L 744.681701 95.80345 
L 745.759185 93.33062 
L 746.836668 91.33951 
L 747.914152 88.86668 
L 748.991635 88.128042 
L 750.069118 86.827398 
L 751.146602 81.849623 
L 754.379052 74.68805 
L 755.456536 71.717442 
L 757.611502 69.565759 
L 758.688986 64.202607 
L 759.766469 61.842179 
L 761.921436 55.49953 
L 762.99892 52.689496 
L 764.076403 51.629711 
L 765.153886 50.216665 
L 765.153886 50.216665 
" style="fill:none;stroke:#ff0000;stroke-linecap:round;stroke-width:1.5;"/>
   </g>
   <g id="patch_7">
    <path d="M 67.10625 493.286013 
L 67.10625 29.118125 
" style="fill:none;stroke:#262626;stroke-linecap:square;stroke-linejoin:miter;stroke-width:1.25;"/>
   </g>
   <g id="patch_8">
    <path d="M 798.39425 493.286013 
L 798.39425 29.118125 
" style="fill:none;stroke:#262626;stroke-linecap:square;stroke-linejoin:miter;stroke-width:1.25;"/>
   </g>
   <g id="patch_9">
    <path d="M 67.10625 493.286013 
L 798.39425 493.286013 
" style="fill:none;stroke:#262626;stroke-linecap:square;stroke-linejoin:miter;stroke-width:1.25;"/>
   </g>
   <g id="patch_10">
    <path d="M 67.10625 29.118125 
L 798.39425 29.118125 
" style="fill:none;stroke:#262626;stroke-linecap:square;stroke-linejoin:miter;stroke-width:1.25;"/>
   </g>
   <g id="legend_1">
    <g id="patch_11">
     <path d="M 74.80625 86.355937 
L 154.975625 86.355937 
Q 157.175625 86.355937 157.175625 84.155937 
L 157.175625 36.818125 
Q 157.175625 34.618125 154.975625 34.618125 
L 74.80625 34.618125 
Q 72.60625 34.618125 72.60625 36.818125 
L 72.60625 84.155937 
Q 72.60625 86.355937 74.80625 86.355937 
z
" style="fill:#ffffff;opacity:0.8;stroke:#cccccc;stroke-linejoin:miter;"/>
    </g>
    <g id="line2d_146">
     <path d="M 77.00625 43.526406 
L 99.00625 43.526406 
" style="fill:none;stroke:#ffa500;stroke-linecap:round;stroke-width:1.5;"/>
    </g>
    <g id="line2d_147"/>
    <g id="text_42">
     <!-- Infected -->
     <g style="fill:#262626;" transform="translate(107.80625 47.376406)scale(0.11 -0.11)">
      <defs>
       <path d="M 628 4666 
L 1259 4666 
L 1259 0 
L 628 0 
L 628 4666 
z
" id="DejaVuSans-49" transform="scale(0.015625)"/>
       <path d="M 3513 2113 
L 3513 0 
L 2938 0 
L 2938 2094 
Q 2938 2591 2744 2837 
Q 2550 3084 2163 3084 
Q 1697 3084 1428 2787 
Q 1159 2491 1159 1978 
L 1159 0 
L 581 0 
L 581 3500 
L 1159 3500 
L 1159 2956 
Q 1366 3272 1645 3428 
Q 1925 3584 2291 3584 
Q 2894 3584 3203 3211 
Q 3513 2838 3513 2113 
z
" id="DejaVuSans-6e" transform="scale(0.015625)"/>
       <path d="M 2375 4863 
L 2375 4384 
L 1825 4384 
Q 1516 4384 1395 4259 
Q 1275 4134 1275 3809 
L 1275 3500 
L 2222 3500 
L 2222 3053 
L 1275 3053 
L 1275 0 
L 697 0 
L 697 3053 
L 147 3053 
L 147 3500 
L 697 3500 
L 697 3744 
Q 697 4328 969 4595 
Q 1241 4863 1831 4863 
L 2375 4863 
z
" id="DejaVuSans-66" transform="scale(0.015625)"/>
       <path d="M 3122 3366 
L 3122 2828 
Q 2878 2963 2633 3030 
Q 2388 3097 2138 3097 
Q 1578 3097 1268 2742 
Q 959 2388 959 1747 
Q 959 1106 1268 751 
Q 1578 397 2138 397 
Q 2388 397 2633 464 
Q 2878 531 3122 666 
L 3122 134 
Q 2881 22 2623 -34 
Q 2366 -91 2075 -91 
Q 1284 -91 818 406 
Q 353 903 353 1747 
Q 353 2603 823 3093 
Q 1294 3584 2113 3584 
Q 2378 3584 2631 3529 
Q 2884 3475 3122 3366 
z
" id="DejaVuSans-63" transform="scale(0.015625)"/>
      </defs>
      <use xlink:href="#DejaVuSans-49"/>
      <use x="29.492188" xlink:href="#DejaVuSans-6e"/>
      <use x="92.871094" xlink:href="#DejaVuSans-66"/>
      <use x="128.076172" xlink:href="#DejaVuSans-65"/>
      <use x="189.599609" xlink:href="#DejaVuSans-63"/>
      <use x="244.580078" xlink:href="#DejaVuSans-74"/>
      <use x="283.789062" xlink:href="#DejaVuSans-65"/>
      <use x="345.3125" xlink:href="#DejaVuSans-64"/>
     </g>
    </g>
    <g id="line2d_148">
     <path d="M 77.00625 59.672344 
L 99.00625 59.672344 
" style="fill:none;stroke:#008000;stroke-linecap:round;stroke-width:1.5;"/>
    </g>
    <g id="line2d_149"/>
    <g id="text_43">
     <!-- Cured -->
     <g style="fill:#262626;" transform="translate(107.80625 63.522344)scale(0.11 -0.11)">
      <defs>
       <path d="M 2631 2963 
Q 2534 3019 2420 3045 
Q 2306 3072 2169 3072 
Q 1681 3072 1420 2755 
Q 1159 2438 1159 1844 
L 1159 0 
L 581 0 
L 581 3500 
L 1159 3500 
L 1159 2956 
Q 1341 3275 1631 3429 
Q 1922 3584 2338 3584 
Q 2397 3584 2469 3576 
Q 2541 3569 2628 3553 
L 2631 2963 
z
" id="DejaVuSans-72" transform="scale(0.015625)"/>
      </defs>
      <use xlink:href="#DejaVuSans-43"/>
      <use x="69.824219" xlink:href="#DejaVuSans-75"/>
      <use x="133.203125" xlink:href="#DejaVuSans-72"/>
      <use x="172.066406" xlink:href="#DejaVuSans-65"/>
      <use x="233.589844" xlink:href="#DejaVuSans-64"/>
     </g>
    </g>
    <g id="line2d_150">
     <path d="M 77.00625 75.818281 
L 99.00625 75.818281 
" style="fill:none;stroke:#ff0000;stroke-linecap:round;stroke-width:1.5;"/>
    </g>
    <g id="line2d_151"/>
    <g id="text_44">
     <!-- Fatal -->
     <g style="fill:#262626;" transform="translate(107.80625 79.668281)scale(0.11 -0.11)">
      <use xlink:href="#DejaVuSans-46"/>
      <use x="48.394531" xlink:href="#DejaVuSans-61"/>
      <use x="109.673828" xlink:href="#DejaVuSans-74"/>
      <use x="148.882812" xlink:href="#DejaVuSans-61"/>
      <use x="210.162109" xlink:href="#DejaVuSans-6c"/>
     </g>
    </g>
   </g>
  </g>
 </g>
 <defs>
  <clipPath id="p56214cd2d3">
   <rect height="464.167888" width="731.288" x="67.10625" y="29.118125"/>
  </clipPath>
 </defs>
</svg>
