<?xml version="1.0" encoding="utf-8" standalone="no"?>
<!DOCTYPE svg PUBLIC "-//W3C//DTD SVG 1.1//EN"
  "http://www.w3.org/Graphics/SVG/1.1/DTD/svg11.dtd">
<svg xmlns:xlink="http://www.w3.org/1999/xlink" width="837.0775pt" height="547.904678pt" viewBox="0 0 837.0775 547.904678" xmlns="http://www.w3.org/2000/svg" version="1.1">
 <metadata>
  <rdf:RDF xmlns:dc="http://purl.org/dc/elements/1.1/" xmlns:cc="http://creativecommons.org/ns#" xmlns:rdf="http://www.w3.org/1999/02/22-rdf-syntax-ns#">
   <cc:Work>
    <dc:type rdf:resource="http://purl.org/dc/dcmitype/StillImage"/>
    <dc:date>2021-12-08T02:54:55.993918</dc:date>
    <dc:format>image/svg+xml</dc:format>
    <dc:creator>
     <cc:Agent>
      <dc:title>Matplotlib v3.5.0, https://matplotlib.org/</dc:title>
     </cc:Agent>
    </dc:creator>
   </cc:Work>
  </rdf:RDF>
 </metadata>
 <defs>
  <style type="text/css">*{stroke-linejoin: round; stroke-linecap: butt}</style>
 </defs>
 <g id="figure_1">
  <g id="patch_1">
   <path d="M -0 547.904678 
L 837.0775 547.904678 
L 837.0775 0 
L -0 0 
L -0 547.904678 
z
" style="fill: none"/>
  </g>
  <g id="axes_1">
   <g id="patch_2">
    <path d="M 60.1075 470.728203 
L 837.0775 470.728203 
L 837.0775 29.118125 
L 60.1075 29.118125 
L 60.1075 470.728203 
z
" style="fill: none"/>
   </g>
   <g id="matplotlib.axis_1">
    <g id="xtick_1">
     <g id="line2d_1">
      <path d="M 95.424318 470.728203 
L 95.424318 29.118125 
" clip-path="url(#pa0a7098225)" style="fill: none; stroke: #cccccc; stroke-linecap: round"/>
     </g>
     <g id="line2d_2">
      <defs>
       <path id="me6222d113f" d="M 0 0 
L 0 6 
" style="stroke: #262626; stroke-width: 1.25"/>
      </defs>
      <g>
       <use xlink:href="#me6222d113f" x="95.424318" y="470.728203" style="fill: #262626; stroke: #262626; stroke-width: 1.25"/>
      </g>
     </g>
     <g id="text_1">
      <!-- 05.04.2020 -->
      <g style="fill: #262626" transform="translate(49.27179 530.673311)rotate(-45)scale(0.11 -0.11)">
       <defs>
        <path id="DejaVuSans-30" d="M 2034 4250 
Q 1547 4250 1301 3770 
Q 1056 3291 1056 2328 
Q 1056 1369 1301 889 
Q 1547 409 2034 409 
Q 2525 409 2770 889 
Q 3016 1369 3016 2328 
Q 3016 3291 2770 3770 
Q 2525 4250 2034 4250 
z
M 2034 4750 
Q 2819 4750 3233 4129 
Q 3647 3509 3647 2328 
Q 3647 1150 3233 529 
Q 2819 -91 2034 -91 
Q 1250 -91 836 529 
Q 422 1150 422 2328 
Q 422 3509 836 4129 
Q 1250 4750 2034 4750 
z
" transform="scale(0.015625)"/>
        <path id="DejaVuSans-35" d="M 691 4666 
L 3169 4666 
L 3169 4134 
L 1269 4134 
L 1269 2991 
Q 1406 3038 1543 3061 
Q 1681 3084 1819 3084 
Q 2600 3084 3056 2656 
Q 3513 2228 3513 1497 
Q 3513 744 3044 326 
Q 2575 -91 1722 -91 
Q 1428 -91 1123 -41 
Q 819 9 494 109 
L 494 744 
Q 775 591 1075 516 
Q 1375 441 1709 441 
Q 2250 441 2565 725 
Q 2881 1009 2881 1497 
Q 2881 1984 2565 2268 
Q 2250 2553 1709 2553 
Q 1456 2553 1204 2497 
Q 953 2441 691 2322 
L 691 4666 
z
" transform="scale(0.015625)"/>
        <path id="DejaVuSans-2e" d="M 684 794 
L 1344 794 
L 1344 0 
L 684 0 
L 684 794 
z
" transform="scale(0.015625)"/>
        <path id="DejaVuSans-34" d="M 2419 4116 
L 825 1625 
L 2419 1625 
L 2419 4116 
z
M 2253 4666 
L 3047 4666 
L 3047 1625 
L 3713 1625 
L 3713 1100 
L 3047 1100 
L 3047 0 
L 2419 0 
L 2419 1100 
L 313 1100 
L 313 1709 
L 2253 4666 
z
" transform="scale(0.015625)"/>
        <path id="DejaVuSans-32" d="M 1228 531 
L 3431 531 
L 3431 0 
L 469 0 
L 469 531 
Q 828 903 1448 1529 
Q 2069 2156 2228 2338 
Q 2531 2678 2651 2914 
Q 2772 3150 2772 3378 
Q 2772 3750 2511 3984 
Q 2250 4219 1831 4219 
Q 1534 4219 1204 4116 
Q 875 4013 500 3803 
L 500 4441 
Q 881 4594 1212 4672 
Q 1544 4750 1819 4750 
Q 2544 4750 2975 4387 
Q 3406 4025 3406 3419 
Q 3406 3131 3298 2873 
Q 3191 2616 2906 2266 
Q 2828 2175 2409 1742 
Q 1991 1309 1228 531 
z
" transform="scale(0.015625)"/>
       </defs>
       <use xlink:href="#DejaVuSans-30"/>
       <use xlink:href="#DejaVuSans-35" x="63.623047"/>
       <use xlink:href="#DejaVuSans-2e" x="127.246094"/>
       <use xlink:href="#DejaVuSans-30" x="159.033203"/>
       <use xlink:href="#DejaVuSans-34" x="222.65625"/>
       <use xlink:href="#DejaVuSans-2e" x="286.279297"/>
       <use xlink:href="#DejaVuSans-32" x="318.066406"/>
       <use xlink:href="#DejaVuSans-30" x="381.689453"/>
       <use xlink:href="#DejaVuSans-32" x="445.3125"/>
       <use xlink:href="#DejaVuSans-30" x="508.935547"/>
      </g>
     </g>
    </g>
    <g id="xtick_2">
     <g id="line2d_3">
      <path d="M 127.793251 470.728203 
L 127.793251 29.118125 
" clip-path="url(#pa0a7098225)" style="fill: none; stroke: #cccccc; stroke-linecap: round"/>
     </g>
     <g id="line2d_4">
      <g>
       <use xlink:href="#me6222d113f" x="127.793251" y="470.728203" style="fill: #262626; stroke: #262626; stroke-width: 1.25"/>
      </g>
     </g>
     <g id="text_2">
      <!-- 03.05.2020 -->
      <g style="fill: #262626" transform="translate(81.640723 530.673311)rotate(-45)scale(0.11 -0.11)">
       <defs>
        <path id="DejaVuSans-33" d="M 2597 2516 
Q 3050 2419 3304 2112 
Q 3559 1806 3559 1356 
Q 3559 666 3084 287 
Q 2609 -91 1734 -91 
Q 1441 -91 1130 -33 
Q 819 25 488 141 
L 488 750 
Q 750 597 1062 519 
Q 1375 441 1716 441 
Q 2309 441 2620 675 
Q 2931 909 2931 1356 
Q 2931 1769 2642 2001 
Q 2353 2234 1838 2234 
L 1294 2234 
L 1294 2753 
L 1863 2753 
Q 2328 2753 2575 2939 
Q 2822 3125 2822 3475 
Q 2822 3834 2567 4026 
Q 2313 4219 1838 4219 
Q 1578 4219 1281 4162 
Q 984 4106 628 3988 
L 628 4550 
Q 988 4650 1302 4700 
Q 1616 4750 1894 4750 
Q 2613 4750 3031 4423 
Q 3450 4097 3450 3541 
Q 3450 3153 3228 2886 
Q 3006 2619 2597 2516 
z
" transform="scale(0.015625)"/>
       </defs>
       <use xlink:href="#DejaVuSans-30"/>
       <use xlink:href="#DejaVuSans-33" x="63.623047"/>
       <use xlink:href="#DejaVuSans-2e" x="127.246094"/>
       <use xlink:href="#DejaVuSans-30" x="159.033203"/>
       <use xlink:href="#DejaVuSans-35" x="222.65625"/>
       <use xlink:href="#DejaVuSans-2e" x="286.279297"/>
       <use xlink:href="#DejaVuSans-32" x="318.066406"/>
       <use xlink:href="#DejaVuSans-30" x="381.689453"/>
       <use xlink:href="#DejaVuSans-32" x="445.3125"/>
       <use xlink:href="#DejaVuSans-30" x="508.935547"/>
      </g>
     </g>
    </g>
    <g id="xtick_3">
     <g id="line2d_5">
      <path d="M 160.162185 470.728203 
L 160.162185 29.118125 
" clip-path="url(#pa0a7098225)" style="fill: none; stroke: #cccccc; stroke-linecap: round"/>
     </g>
     <g id="line2d_6">
      <g>
       <use xlink:href="#me6222d113f" x="160.162185" y="470.728203" style="fill: #262626; stroke: #262626; stroke-width: 1.25"/>
      </g>
     </g>
     <g id="text_3">
      <!-- 31.05.2020 -->
      <g style="fill: #262626" transform="translate(114.009656 530.673311)rotate(-45)scale(0.11 -0.11)">
       <defs>
        <path id="DejaVuSans-31" d="M 794 531 
L 1825 531 
L 1825 4091 
L 703 3866 
L 703 4441 
L 1819 4666 
L 2450 4666 
L 2450 531 
L 3481 531 
L 3481 0 
L 794 0 
L 794 531 
z
" transform="scale(0.015625)"/>
       </defs>
       <use xlink:href="#DejaVuSans-33"/>
       <use xlink:href="#DejaVuSans-31" x="63.623047"/>
       <use xlink:href="#DejaVuSans-2e" x="127.246094"/>
       <use xlink:href="#DejaVuSans-30" x="159.033203"/>
       <use xlink:href="#DejaVuSans-35" x="222.65625"/>
       <use xlink:href="#DejaVuSans-2e" x="286.279297"/>
       <use xlink:href="#DejaVuSans-32" x="318.066406"/>
       <use xlink:href="#DejaVuSans-30" x="381.689453"/>
       <use xlink:href="#DejaVuSans-32" x="445.3125"/>
       <use xlink:href="#DejaVuSans-30" x="508.935547"/>
      </g>
     </g>
    </g>
    <g id="xtick_4">
     <g id="line2d_7">
      <path d="M 192.531118 470.728203 
L 192.531118 29.118125 
" clip-path="url(#pa0a7098225)" style="fill: none; stroke: #cccccc; stroke-linecap: round"/>
     </g>
     <g id="line2d_8">
      <g>
       <use xlink:href="#me6222d113f" x="192.531118" y="470.728203" style="fill: #262626; stroke: #262626; stroke-width: 1.25"/>
      </g>
     </g>
     <g id="text_4">
      <!-- 28.06.2020 -->
      <g style="fill: #262626" transform="translate(146.37859 530.673311)rotate(-45)scale(0.11 -0.11)">
       <defs>
        <path id="DejaVuSans-38" d="M 2034 2216 
Q 1584 2216 1326 1975 
Q 1069 1734 1069 1313 
Q 1069 891 1326 650 
Q 1584 409 2034 409 
Q 2484 409 2743 651 
Q 3003 894 3003 1313 
Q 3003 1734 2745 1975 
Q 2488 2216 2034 2216 
z
M 1403 2484 
Q 997 2584 770 2862 
Q 544 3141 544 3541 
Q 544 4100 942 4425 
Q 1341 4750 2034 4750 
Q 2731 4750 3128 4425 
Q 3525 4100 3525 3541 
Q 3525 3141 3298 2862 
Q 3072 2584 2669 2484 
Q 3125 2378 3379 2068 
Q 3634 1759 3634 1313 
Q 3634 634 3220 271 
Q 2806 -91 2034 -91 
Q 1263 -91 848 271 
Q 434 634 434 1313 
Q 434 1759 690 2068 
Q 947 2378 1403 2484 
z
M 1172 3481 
Q 1172 3119 1398 2916 
Q 1625 2713 2034 2713 
Q 2441 2713 2670 2916 
Q 2900 3119 2900 3481 
Q 2900 3844 2670 4047 
Q 2441 4250 2034 4250 
Q 1625 4250 1398 4047 
Q 1172 3844 1172 3481 
z
" transform="scale(0.015625)"/>
        <path id="DejaVuSans-36" d="M 2113 2584 
Q 1688 2584 1439 2293 
Q 1191 2003 1191 1497 
Q 1191 994 1439 701 
Q 1688 409 2113 409 
Q 2538 409 2786 701 
Q 3034 994 3034 1497 
Q 3034 2003 2786 2293 
Q 2538 2584 2113 2584 
z
M 3366 4563 
L 3366 3988 
Q 3128 4100 2886 4159 
Q 2644 4219 2406 4219 
Q 1781 4219 1451 3797 
Q 1122 3375 1075 2522 
Q 1259 2794 1537 2939 
Q 1816 3084 2150 3084 
Q 2853 3084 3261 2657 
Q 3669 2231 3669 1497 
Q 3669 778 3244 343 
Q 2819 -91 2113 -91 
Q 1303 -91 875 529 
Q 447 1150 447 2328 
Q 447 3434 972 4092 
Q 1497 4750 2381 4750 
Q 2619 4750 2861 4703 
Q 3103 4656 3366 4563 
z
" transform="scale(0.015625)"/>
       </defs>
       <use xlink:href="#DejaVuSans-32"/>
       <use xlink:href="#DejaVuSans-38" x="63.623047"/>
       <use xlink:href="#DejaVuSans-2e" x="127.246094"/>
       <use xlink:href="#DejaVuSans-30" x="159.033203"/>
       <use xlink:href="#DejaVuSans-36" x="222.65625"/>
       <use xlink:href="#DejaVuSans-2e" x="286.279297"/>
       <use xlink:href="#DejaVuSans-32" x="318.066406"/>
       <use xlink:href="#DejaVuSans-30" x="381.689453"/>
       <use xlink:href="#DejaVuSans-32" x="445.3125"/>
       <use xlink:href="#DejaVuSans-30" x="508.935547"/>
      </g>
     </g>
    </g>
    <g id="xtick_5">
     <g id="line2d_9">
      <path d="M 224.900051 470.728203 
L 224.900051 29.118125 
" clip-path="url(#pa0a7098225)" style="fill: none; stroke: #cccccc; stroke-linecap: round"/>
     </g>
     <g id="line2d_10">
      <g>
       <use xlink:href="#me6222d113f" x="224.900051" y="470.728203" style="fill: #262626; stroke: #262626; stroke-width: 1.25"/>
      </g>
     </g>
     <g id="text_5">
      <!-- 26.07.2020 -->
      <g style="fill: #262626" transform="translate(178.747523 530.673311)rotate(-45)scale(0.11 -0.11)">
       <defs>
        <path id="DejaVuSans-37" d="M 525 4666 
L 3525 4666 
L 3525 4397 
L 1831 0 
L 1172 0 
L 2766 4134 
L 525 4134 
L 525 4666 
z
" transform="scale(0.015625)"/>
       </defs>
       <use xlink:href="#DejaVuSans-32"/>
       <use xlink:href="#DejaVuSans-36" x="63.623047"/>
       <use xlink:href="#DejaVuSans-2e" x="127.246094"/>
       <use xlink:href="#DejaVuSans-30" x="159.033203"/>
       <use xlink:href="#DejaVuSans-37" x="222.65625"/>
       <use xlink:href="#DejaVuSans-2e" x="286.279297"/>
       <use xlink:href="#DejaVuSans-32" x="318.066406"/>
       <use xlink:href="#DejaVuSans-30" x="381.689453"/>
       <use xlink:href="#DejaVuSans-32" x="445.3125"/>
       <use xlink:href="#DejaVuSans-30" x="508.935547"/>
      </g>
     </g>
    </g>
    <g id="xtick_6">
     <g id="line2d_11">
      <path d="M 257.268984 470.728203 
L 257.268984 29.118125 
" clip-path="url(#pa0a7098225)" style="fill: none; stroke: #cccccc; stroke-linecap: round"/>
     </g>
     <g id="line2d_12">
      <g>
       <use xlink:href="#me6222d113f" x="257.268984" y="470.728203" style="fill: #262626; stroke: #262626; stroke-width: 1.25"/>
      </g>
     </g>
     <g id="text_6">
      <!-- 23.08.2020 -->
      <g style="fill: #262626" transform="translate(211.116456 530.673311)rotate(-45)scale(0.11 -0.11)">
       <use xlink:href="#DejaVuSans-32"/>
       <use xlink:href="#DejaVuSans-33" x="63.623047"/>
       <use xlink:href="#DejaVuSans-2e" x="127.246094"/>
       <use xlink:href="#DejaVuSans-30" x="159.033203"/>
       <use xlink:href="#DejaVuSans-38" x="222.65625"/>
       <use xlink:href="#DejaVuSans-2e" x="286.279297"/>
       <use xlink:href="#DejaVuSans-32" x="318.066406"/>
       <use xlink:href="#DejaVuSans-30" x="381.689453"/>
       <use xlink:href="#DejaVuSans-32" x="445.3125"/>
       <use xlink:href="#DejaVuSans-30" x="508.935547"/>
      </g>
     </g>
    </g>
    <g id="xtick_7">
     <g id="line2d_13">
      <path d="M 289.637917 470.728203 
L 289.637917 29.118125 
" clip-path="url(#pa0a7098225)" style="fill: none; stroke: #cccccc; stroke-linecap: round"/>
     </g>
     <g id="line2d_14">
      <g>
       <use xlink:href="#me6222d113f" x="289.637917" y="470.728203" style="fill: #262626; stroke: #262626; stroke-width: 1.25"/>
      </g>
     </g>
     <g id="text_7">
      <!-- 20.09.2020 -->
      <g style="fill: #262626" transform="translate(243.485389 530.673311)rotate(-45)scale(0.11 -0.11)">
       <defs>
        <path id="DejaVuSans-39" d="M 703 97 
L 703 672 
Q 941 559 1184 500 
Q 1428 441 1663 441 
Q 2288 441 2617 861 
Q 2947 1281 2994 2138 
Q 2813 1869 2534 1725 
Q 2256 1581 1919 1581 
Q 1219 1581 811 2004 
Q 403 2428 403 3163 
Q 403 3881 828 4315 
Q 1253 4750 1959 4750 
Q 2769 4750 3195 4129 
Q 3622 3509 3622 2328 
Q 3622 1225 3098 567 
Q 2575 -91 1691 -91 
Q 1453 -91 1209 -44 
Q 966 3 703 97 
z
M 1959 2075 
Q 2384 2075 2632 2365 
Q 2881 2656 2881 3163 
Q 2881 3666 2632 3958 
Q 2384 4250 1959 4250 
Q 1534 4250 1286 3958 
Q 1038 3666 1038 3163 
Q 1038 2656 1286 2365 
Q 1534 2075 1959 2075 
z
" transform="scale(0.015625)"/>
       </defs>
       <use xlink:href="#DejaVuSans-32"/>
       <use xlink:href="#DejaVuSans-30" x="63.623047"/>
       <use xlink:href="#DejaVuSans-2e" x="127.246094"/>
       <use xlink:href="#DejaVuSans-30" x="159.033203"/>
       <use xlink:href="#DejaVuSans-39" x="222.65625"/>
       <use xlink:href="#DejaVuSans-2e" x="286.279297"/>
       <use xlink:href="#DejaVuSans-32" x="318.066406"/>
       <use xlink:href="#DejaVuSans-30" x="381.689453"/>
       <use xlink:href="#DejaVuSans-32" x="445.3125"/>
       <use xlink:href="#DejaVuSans-30" x="508.935547"/>
      </g>
     </g>
    </g>
    <g id="xtick_8">
     <g id="line2d_15">
      <path d="M 322.006851 470.728203 
L 322.006851 29.118125 
" clip-path="url(#pa0a7098225)" style="fill: none; stroke: #cccccc; stroke-linecap: round"/>
     </g>
     <g id="line2d_16">
      <g>
       <use xlink:href="#me6222d113f" x="322.006851" y="470.728203" style="fill: #262626; stroke: #262626; stroke-width: 1.25"/>
      </g>
     </g>
     <g id="text_8">
      <!-- 18.10.2020 -->
      <g style="fill: #262626" transform="translate(275.854322 530.673311)rotate(-45)scale(0.11 -0.11)">
       <use xlink:href="#DejaVuSans-31"/>
       <use xlink:href="#DejaVuSans-38" x="63.623047"/>
       <use xlink:href="#DejaVuSans-2e" x="127.246094"/>
       <use xlink:href="#DejaVuSans-31" x="159.033203"/>
       <use xlink:href="#DejaVuSans-30" x="222.65625"/>
       <use xlink:href="#DejaVuSans-2e" x="286.279297"/>
       <use xlink:href="#DejaVuSans-32" x="318.066406"/>
       <use xlink:href="#DejaVuSans-30" x="381.689453"/>
       <use xlink:href="#DejaVuSans-32" x="445.3125"/>
       <use xlink:href="#DejaVuSans-30" x="508.935547"/>
      </g>
     </g>
    </g>
    <g id="xtick_9">
     <g id="line2d_17">
      <path d="M 354.375784 470.728203 
L 354.375784 29.118125 
" clip-path="url(#pa0a7098225)" style="fill: none; stroke: #cccccc; stroke-linecap: round"/>
     </g>
     <g id="line2d_18">
      <g>
       <use xlink:href="#me6222d113f" x="354.375784" y="470.728203" style="fill: #262626; stroke: #262626; stroke-width: 1.25"/>
      </g>
     </g>
     <g id="text_9">
      <!-- 15.11.2020 -->
      <g style="fill: #262626" transform="translate(308.223256 530.673311)rotate(-45)scale(0.11 -0.11)">
       <use xlink:href="#DejaVuSans-31"/>
       <use xlink:href="#DejaVuSans-35" x="63.623047"/>
       <use xlink:href="#DejaVuSans-2e" x="127.246094"/>
       <use xlink:href="#DejaVuSans-31" x="159.033203"/>
       <use xlink:href="#DejaVuSans-31" x="222.65625"/>
       <use xlink:href="#DejaVuSans-2e" x="286.279297"/>
       <use xlink:href="#DejaVuSans-32" x="318.066406"/>
       <use xlink:href="#DejaVuSans-30" x="381.689453"/>
       <use xlink:href="#DejaVuSans-32" x="445.3125"/>
       <use xlink:href="#DejaVuSans-30" x="508.935547"/>
      </g>
     </g>
    </g>
    <g id="xtick_10">
     <g id="line2d_19">
      <path d="M 386.744717 470.728203 
L 386.744717 29.118125 
" clip-path="url(#pa0a7098225)" style="fill: none; stroke: #cccccc; stroke-linecap: round"/>
     </g>
     <g id="line2d_20">
      <g>
       <use xlink:href="#me6222d113f" x="386.744717" y="470.728203" style="fill: #262626; stroke: #262626; stroke-width: 1.25"/>
      </g>
     </g>
     <g id="text_10">
      <!-- 13.12.2020 -->
      <g style="fill: #262626" transform="translate(340.592189 530.673311)rotate(-45)scale(0.11 -0.11)">
       <use xlink:href="#DejaVuSans-31"/>
       <use xlink:href="#DejaVuSans-33" x="63.623047"/>
       <use xlink:href="#DejaVuSans-2e" x="127.246094"/>
       <use xlink:href="#DejaVuSans-31" x="159.033203"/>
       <use xlink:href="#DejaVuSans-32" x="222.65625"/>
       <use xlink:href="#DejaVuSans-2e" x="286.279297"/>
       <use xlink:href="#DejaVuSans-32" x="318.066406"/>
       <use xlink:href="#DejaVuSans-30" x="381.689453"/>
       <use xlink:href="#DejaVuSans-32" x="445.3125"/>
       <use xlink:href="#DejaVuSans-30" x="508.935547"/>
      </g>
     </g>
    </g>
    <g id="xtick_11">
     <g id="line2d_21">
      <path d="M 419.11365 470.728203 
L 419.11365 29.118125 
" clip-path="url(#pa0a7098225)" style="fill: none; stroke: #cccccc; stroke-linecap: round"/>
     </g>
     <g id="line2d_22">
      <g>
       <use xlink:href="#me6222d113f" x="419.11365" y="470.728203" style="fill: #262626; stroke: #262626; stroke-width: 1.25"/>
      </g>
     </g>
     <g id="text_11">
      <!-- 10.01.2021 -->
      <g style="fill: #262626" transform="translate(372.961122 530.673311)rotate(-45)scale(0.11 -0.11)">
       <use xlink:href="#DejaVuSans-31"/>
       <use xlink:href="#DejaVuSans-30" x="63.623047"/>
       <use xlink:href="#DejaVuSans-2e" x="127.246094"/>
       <use xlink:href="#DejaVuSans-30" x="159.033203"/>
       <use xlink:href="#DejaVuSans-31" x="222.65625"/>
       <use xlink:href="#DejaVuSans-2e" x="286.279297"/>
       <use xlink:href="#DejaVuSans-32" x="318.066406"/>
       <use xlink:href="#DejaVuSans-30" x="381.689453"/>
       <use xlink:href="#DejaVuSans-32" x="445.3125"/>
       <use xlink:href="#DejaVuSans-31" x="508.935547"/>
      </g>
     </g>
    </g>
    <g id="xtick_12">
     <g id="line2d_23">
      <path d="M 451.482583 470.728203 
L 451.482583 29.118125 
" clip-path="url(#pa0a7098225)" style="fill: none; stroke: #cccccc; stroke-linecap: round"/>
     </g>
     <g id="line2d_24">
      <g>
       <use xlink:href="#me6222d113f" x="451.482583" y="470.728203" style="fill: #262626; stroke: #262626; stroke-width: 1.25"/>
      </g>
     </g>
     <g id="text_12">
      <!-- 07.02.2021 -->
      <g style="fill: #262626" transform="translate(405.330055 530.673311)rotate(-45)scale(0.11 -0.11)">
       <use xlink:href="#DejaVuSans-30"/>
       <use xlink:href="#DejaVuSans-37" x="63.623047"/>
       <use xlink:href="#DejaVuSans-2e" x="127.246094"/>
       <use xlink:href="#DejaVuSans-30" x="159.033203"/>
       <use xlink:href="#DejaVuSans-32" x="222.65625"/>
       <use xlink:href="#DejaVuSans-2e" x="286.279297"/>
       <use xlink:href="#DejaVuSans-32" x="318.066406"/>
       <use xlink:href="#DejaVuSans-30" x="381.689453"/>
       <use xlink:href="#DejaVuSans-32" x="445.3125"/>
       <use xlink:href="#DejaVuSans-31" x="508.935547"/>
      </g>
     </g>
    </g>
    <g id="xtick_13">
     <g id="line2d_25">
      <path d="M 483.851517 470.728203 
L 483.851517 29.118125 
" clip-path="url(#pa0a7098225)" style="fill: none; stroke: #cccccc; stroke-linecap: round"/>
     </g>
     <g id="line2d_26">
      <g>
       <use xlink:href="#me6222d113f" x="483.851517" y="470.728203" style="fill: #262626; stroke: #262626; stroke-width: 1.25"/>
      </g>
     </g>
     <g id="text_13">
      <!-- 07.03.2021 -->
      <g style="fill: #262626" transform="translate(437.698988 530.673311)rotate(-45)scale(0.11 -0.11)">
       <use xlink:href="#DejaVuSans-30"/>
       <use xlink:href="#DejaVuSans-37" x="63.623047"/>
       <use xlink:href="#DejaVuSans-2e" x="127.246094"/>
       <use xlink:href="#DejaVuSans-30" x="159.033203"/>
       <use xlink:href="#DejaVuSans-33" x="222.65625"/>
       <use xlink:href="#DejaVuSans-2e" x="286.279297"/>
       <use xlink:href="#DejaVuSans-32" x="318.066406"/>
       <use xlink:href="#DejaVuSans-30" x="381.689453"/>
       <use xlink:href="#DejaVuSans-32" x="445.3125"/>
       <use xlink:href="#DejaVuSans-31" x="508.935547"/>
      </g>
     </g>
    </g>
    <g id="xtick_14">
     <g id="line2d_27">
      <path d="M 516.22045 470.728203 
L 516.22045 29.118125 
" clip-path="url(#pa0a7098225)" style="fill: none; stroke: #cccccc; stroke-linecap: round"/>
     </g>
     <g id="line2d_28">
      <g>
       <use xlink:href="#me6222d113f" x="516.22045" y="470.728203" style="fill: #262626; stroke: #262626; stroke-width: 1.25"/>
      </g>
     </g>
     <g id="text_14">
      <!-- 04.04.2021 -->
      <g style="fill: #262626" transform="translate(470.067922 530.673311)rotate(-45)scale(0.11 -0.11)">
       <use xlink:href="#DejaVuSans-30"/>
       <use xlink:href="#DejaVuSans-34" x="63.623047"/>
       <use xlink:href="#DejaVuSans-2e" x="127.246094"/>
       <use xlink:href="#DejaVuSans-30" x="159.033203"/>
       <use xlink:href="#DejaVuSans-34" x="222.65625"/>
       <use xlink:href="#DejaVuSans-2e" x="286.279297"/>
       <use xlink:href="#DejaVuSans-32" x="318.066406"/>
       <use xlink:href="#DejaVuSans-30" x="381.689453"/>
       <use xlink:href="#DejaVuSans-32" x="445.3125"/>
       <use xlink:href="#DejaVuSans-31" x="508.935547"/>
      </g>
     </g>
    </g>
    <g id="xtick_15">
     <g id="line2d_29">
      <path d="M 548.589383 470.728203 
L 548.589383 29.118125 
" clip-path="url(#pa0a7098225)" style="fill: none; stroke: #cccccc; stroke-linecap: round"/>
     </g>
     <g id="line2d_30">
      <g>
       <use xlink:href="#me6222d113f" x="548.589383" y="470.728203" style="fill: #262626; stroke: #262626; stroke-width: 1.25"/>
      </g>
     </g>
     <g id="text_15">
      <!-- 02.05.2021 -->
      <g style="fill: #262626" transform="translate(502.436855 530.673311)rotate(-45)scale(0.11 -0.11)">
       <use xlink:href="#DejaVuSans-30"/>
       <use xlink:href="#DejaVuSans-32" x="63.623047"/>
       <use xlink:href="#DejaVuSans-2e" x="127.246094"/>
       <use xlink:href="#DejaVuSans-30" x="159.033203"/>
       <use xlink:href="#DejaVuSans-35" x="222.65625"/>
       <use xlink:href="#DejaVuSans-2e" x="286.279297"/>
       <use xlink:href="#DejaVuSans-32" x="318.066406"/>
       <use xlink:href="#DejaVuSans-30" x="381.689453"/>
       <use xlink:href="#DejaVuSans-32" x="445.3125"/>
       <use xlink:href="#DejaVuSans-31" x="508.935547"/>
      </g>
     </g>
    </g>
    <g id="xtick_16">
     <g id="line2d_31">
      <path d="M 580.958316 470.728203 
L 580.958316 29.118125 
" clip-path="url(#pa0a7098225)" style="fill: none; stroke: #cccccc; stroke-linecap: round"/>
     </g>
     <g id="line2d_32">
      <g>
       <use xlink:href="#me6222d113f" x="580.958316" y="470.728203" style="fill: #262626; stroke: #262626; stroke-width: 1.25"/>
      </g>
     </g>
     <g id="text_16">
      <!-- 30.05.2021 -->
      <g style="fill: #262626" transform="translate(534.805788 530.673311)rotate(-45)scale(0.11 -0.11)">
       <use xlink:href="#DejaVuSans-33"/>
       <use xlink:href="#DejaVuSans-30" x="63.623047"/>
       <use xlink:href="#DejaVuSans-2e" x="127.246094"/>
       <use xlink:href="#DejaVuSans-30" x="159.033203"/>
       <use xlink:href="#DejaVuSans-35" x="222.65625"/>
       <use xlink:href="#DejaVuSans-2e" x="286.279297"/>
       <use xlink:href="#DejaVuSans-32" x="318.066406"/>
       <use xlink:href="#DejaVuSans-30" x="381.689453"/>
       <use xlink:href="#DejaVuSans-32" x="445.3125"/>
       <use xlink:href="#DejaVuSans-31" x="508.935547"/>
      </g>
     </g>
    </g>
    <g id="xtick_17">
     <g id="line2d_33">
      <path d="M 613.327249 470.728203 
L 613.327249 29.118125 
" clip-path="url(#pa0a7098225)" style="fill: none; stroke: #cccccc; stroke-linecap: round"/>
     </g>
     <g id="line2d_34">
      <g>
       <use xlink:href="#me6222d113f" x="613.327249" y="470.728203" style="fill: #262626; stroke: #262626; stroke-width: 1.25"/>
      </g>
     </g>
     <g id="text_17">
      <!-- 27.06.2021 -->
      <g style="fill: #262626" transform="translate(567.174721 530.673311)rotate(-45)scale(0.11 -0.11)">
       <use xlink:href="#DejaVuSans-32"/>
       <use xlink:href="#DejaVuSans-37" x="63.623047"/>
       <use xlink:href="#DejaVuSans-2e" x="127.246094"/>
       <use xlink:href="#DejaVuSans-30" x="159.033203"/>
       <use xlink:href="#DejaVuSans-36" x="222.65625"/>
       <use xlink:href="#DejaVuSans-2e" x="286.279297"/>
       <use xlink:href="#DejaVuSans-32" x="318.066406"/>
       <use xlink:href="#DejaVuSans-30" x="381.689453"/>
       <use xlink:href="#DejaVuSans-32" x="445.3125"/>
       <use xlink:href="#DejaVuSans-31" x="508.935547"/>
      </g>
     </g>
    </g>
    <g id="xtick_18">
     <g id="line2d_35">
      <path d="M 645.696182 470.728203 
L 645.696182 29.118125 
" clip-path="url(#pa0a7098225)" style="fill: none; stroke: #cccccc; stroke-linecap: round"/>
     </g>
     <g id="line2d_36">
      <g>
       <use xlink:href="#me6222d113f" x="645.696182" y="470.728203" style="fill: #262626; stroke: #262626; stroke-width: 1.25"/>
      </g>
     </g>
     <g id="text_18">
      <!-- 25.07.2021 -->
      <g style="fill: #262626" transform="translate(599.543654 530.673311)rotate(-45)scale(0.11 -0.11)">
       <use xlink:href="#DejaVuSans-32"/>
       <use xlink:href="#DejaVuSans-35" x="63.623047"/>
       <use xlink:href="#DejaVuSans-2e" x="127.246094"/>
       <use xlink:href="#DejaVuSans-30" x="159.033203"/>
       <use xlink:href="#DejaVuSans-37" x="222.65625"/>
       <use xlink:href="#DejaVuSans-2e" x="286.279297"/>
       <use xlink:href="#DejaVuSans-32" x="318.066406"/>
       <use xlink:href="#DejaVuSans-30" x="381.689453"/>
       <use xlink:href="#DejaVuSans-32" x="445.3125"/>
       <use xlink:href="#DejaVuSans-31" x="508.935547"/>
      </g>
     </g>
    </g>
    <g id="xtick_19">
     <g id="line2d_37">
      <path d="M 678.065116 470.728203 
L 678.065116 29.118125 
" clip-path="url(#pa0a7098225)" style="fill: none; stroke: #cccccc; stroke-linecap: round"/>
     </g>
     <g id="line2d_38">
      <g>
       <use xlink:href="#me6222d113f" x="678.065116" y="470.728203" style="fill: #262626; stroke: #262626; stroke-width: 1.25"/>
      </g>
     </g>
     <g id="text_19">
      <!-- 22.08.2021 -->
      <g style="fill: #262626" transform="translate(631.912588 530.673311)rotate(-45)scale(0.11 -0.11)">
       <use xlink:href="#DejaVuSans-32"/>
       <use xlink:href="#DejaVuSans-32" x="63.623047"/>
       <use xlink:href="#DejaVuSans-2e" x="127.246094"/>
       <use xlink:href="#DejaVuSans-30" x="159.033203"/>
       <use xlink:href="#DejaVuSans-38" x="222.65625"/>
       <use xlink:href="#DejaVuSans-2e" x="286.279297"/>
       <use xlink:href="#DejaVuSans-32" x="318.066406"/>
       <use xlink:href="#DejaVuSans-30" x="381.689453"/>
       <use xlink:href="#DejaVuSans-32" x="445.3125"/>
       <use xlink:href="#DejaVuSans-31" x="508.935547"/>
      </g>
     </g>
    </g>
    <g id="xtick_20">
     <g id="line2d_39">
      <path d="M 710.434049 470.728203 
L 710.434049 29.118125 
" clip-path="url(#pa0a7098225)" style="fill: none; stroke: #cccccc; stroke-linecap: round"/>
     </g>
     <g id="line2d_40">
      <g>
       <use xlink:href="#me6222d113f" x="710.434049" y="470.728203" style="fill: #262626; stroke: #262626; stroke-width: 1.25"/>
      </g>
     </g>
     <g id="text_20">
      <!-- 19.09.2021 -->
      <g style="fill: #262626" transform="translate(664.281521 530.673311)rotate(-45)scale(0.11 -0.11)">
       <use xlink:href="#DejaVuSans-31"/>
       <use xlink:href="#DejaVuSans-39" x="63.623047"/>
       <use xlink:href="#DejaVuSans-2e" x="127.246094"/>
       <use xlink:href="#DejaVuSans-30" x="159.033203"/>
       <use xlink:href="#DejaVuSans-39" x="222.65625"/>
       <use xlink:href="#DejaVuSans-2e" x="286.279297"/>
       <use xlink:href="#DejaVuSans-32" x="318.066406"/>
       <use xlink:href="#DejaVuSans-30" x="381.689453"/>
       <use xlink:href="#DejaVuSans-32" x="445.3125"/>
       <use xlink:href="#DejaVuSans-31" x="508.935547"/>
      </g>
     </g>
    </g>
    <g id="xtick_21">
     <g id="line2d_41">
      <path d="M 742.802982 470.728203 
L 742.802982 29.118125 
" clip-path="url(#pa0a7098225)" style="fill: none; stroke: #cccccc; stroke-linecap: round"/>
     </g>
     <g id="line2d_42">
      <g>
       <use xlink:href="#me6222d113f" x="742.802982" y="470.728203" style="fill: #262626; stroke: #262626; stroke-width: 1.25"/>
      </g>
     </g>
     <g id="text_21">
      <!-- 17.10.2021 -->
      <g style="fill: #262626" transform="translate(696.650454 530.673311)rotate(-45)scale(0.11 -0.11)">
       <use xlink:href="#DejaVuSans-31"/>
       <use xlink:href="#DejaVuSans-37" x="63.623047"/>
       <use xlink:href="#DejaVuSans-2e" x="127.246094"/>
       <use xlink:href="#DejaVuSans-31" x="159.033203"/>
       <use xlink:href="#DejaVuSans-30" x="222.65625"/>
       <use xlink:href="#DejaVuSans-2e" x="286.279297"/>
       <use xlink:href="#DejaVuSans-32" x="318.066406"/>
       <use xlink:href="#DejaVuSans-30" x="381.689453"/>
       <use xlink:href="#DejaVuSans-32" x="445.3125"/>
       <use xlink:href="#DejaVuSans-31" x="508.935547"/>
      </g>
     </g>
    </g>
    <g id="xtick_22">
     <g id="line2d_43">
      <path d="M 775.171915 470.728203 
L 775.171915 29.118125 
" clip-path="url(#pa0a7098225)" style="fill: none; stroke: #cccccc; stroke-linecap: round"/>
     </g>
     <g id="line2d_44">
      <g>
       <use xlink:href="#me6222d113f" x="775.171915" y="470.728203" style="fill: #262626; stroke: #262626; stroke-width: 1.25"/>
      </g>
     </g>
     <g id="text_22">
      <!-- 14.11.2021 -->
      <g style="fill: #262626" transform="translate(729.019387 530.673311)rotate(-45)scale(0.11 -0.11)">
       <use xlink:href="#DejaVuSans-31"/>
       <use xlink:href="#DejaVuSans-34" x="63.623047"/>
       <use xlink:href="#DejaVuSans-2e" x="127.246094"/>
       <use xlink:href="#DejaVuSans-31" x="159.033203"/>
       <use xlink:href="#DejaVuSans-31" x="222.65625"/>
       <use xlink:href="#DejaVuSans-2e" x="286.279297"/>
       <use xlink:href="#DejaVuSans-32" x="318.066406"/>
       <use xlink:href="#DejaVuSans-30" x="381.689453"/>
       <use xlink:href="#DejaVuSans-32" x="445.3125"/>
       <use xlink:href="#DejaVuSans-31" x="508.935547"/>
      </g>
     </g>
    </g>
    <g id="xtick_23">
     <g id="line2d_45">
      <defs>
       <path id="m6e4532def3" d="M 0 0 
L 0 4 
" style="stroke: #262626"/>
      </defs>
      <g>
       <use xlink:href="#m6e4532def3" x="61.899352" y="470.728203" style="fill: #262626; stroke: #262626"/>
      </g>
     </g>
    </g>
    <g id="xtick_24">
     <g id="line2d_46">
      <g>
       <use xlink:href="#m6e4532def3" x="69.991585" y="470.728203" style="fill: #262626; stroke: #262626"/>
      </g>
     </g>
    </g>
    <g id="xtick_25">
     <g id="line2d_47">
      <g>
       <use xlink:href="#m6e4532def3" x="78.083818" y="470.728203" style="fill: #262626; stroke: #262626"/>
      </g>
     </g>
    </g>
    <g id="xtick_26">
     <g id="line2d_48">
      <g>
       <use xlink:href="#m6e4532def3" x="86.176052" y="470.728203" style="fill: #262626; stroke: #262626"/>
      </g>
     </g>
    </g>
    <g id="xtick_27">
     <g id="line2d_49">
      <g>
       <use xlink:href="#m6e4532def3" x="94.268285" y="470.728203" style="fill: #262626; stroke: #262626"/>
      </g>
     </g>
    </g>
    <g id="xtick_28">
     <g id="line2d_50">
      <g>
       <use xlink:href="#m6e4532def3" x="102.360518" y="470.728203" style="fill: #262626; stroke: #262626"/>
      </g>
     </g>
    </g>
    <g id="xtick_29">
     <g id="line2d_51">
      <g>
       <use xlink:href="#m6e4532def3" x="110.452751" y="470.728203" style="fill: #262626; stroke: #262626"/>
      </g>
     </g>
    </g>
    <g id="xtick_30">
     <g id="line2d_52">
      <g>
       <use xlink:href="#m6e4532def3" x="118.544985" y="470.728203" style="fill: #262626; stroke: #262626"/>
      </g>
     </g>
    </g>
    <g id="xtick_31">
     <g id="line2d_53">
      <g>
       <use xlink:href="#m6e4532def3" x="126.637218" y="470.728203" style="fill: #262626; stroke: #262626"/>
      </g>
     </g>
    </g>
    <g id="xtick_32">
     <g id="line2d_54">
      <g>
       <use xlink:href="#m6e4532def3" x="134.729451" y="470.728203" style="fill: #262626; stroke: #262626"/>
      </g>
     </g>
    </g>
    <g id="xtick_33">
     <g id="line2d_55">
      <g>
       <use xlink:href="#m6e4532def3" x="142.821685" y="470.728203" style="fill: #262626; stroke: #262626"/>
      </g>
     </g>
    </g>
    <g id="xtick_34">
     <g id="line2d_56">
      <g>
       <use xlink:href="#m6e4532def3" x="150.913918" y="470.728203" style="fill: #262626; stroke: #262626"/>
      </g>
     </g>
    </g>
    <g id="xtick_35">
     <g id="line2d_57">
      <g>
       <use xlink:href="#m6e4532def3" x="159.006151" y="470.728203" style="fill: #262626; stroke: #262626"/>
      </g>
     </g>
    </g>
    <g id="xtick_36">
     <g id="line2d_58">
      <g>
       <use xlink:href="#m6e4532def3" x="167.098385" y="470.728203" style="fill: #262626; stroke: #262626"/>
      </g>
     </g>
    </g>
    <g id="xtick_37">
     <g id="line2d_59">
      <g>
       <use xlink:href="#m6e4532def3" x="175.190618" y="470.728203" style="fill: #262626; stroke: #262626"/>
      </g>
     </g>
    </g>
    <g id="xtick_38">
     <g id="line2d_60">
      <g>
       <use xlink:href="#m6e4532def3" x="183.282851" y="470.728203" style="fill: #262626; stroke: #262626"/>
      </g>
     </g>
    </g>
    <g id="xtick_39">
     <g id="line2d_61">
      <g>
       <use xlink:href="#m6e4532def3" x="191.375084" y="470.728203" style="fill: #262626; stroke: #262626"/>
      </g>
     </g>
    </g>
    <g id="xtick_40">
     <g id="line2d_62">
      <g>
       <use xlink:href="#m6e4532def3" x="199.467318" y="470.728203" style="fill: #262626; stroke: #262626"/>
      </g>
     </g>
    </g>
    <g id="xtick_41">
     <g id="line2d_63">
      <g>
       <use xlink:href="#m6e4532def3" x="207.559551" y="470.728203" style="fill: #262626; stroke: #262626"/>
      </g>
     </g>
    </g>
    <g id="xtick_42">
     <g id="line2d_64">
      <g>
       <use xlink:href="#m6e4532def3" x="215.651784" y="470.728203" style="fill: #262626; stroke: #262626"/>
      </g>
     </g>
    </g>
    <g id="xtick_43">
     <g id="line2d_65">
      <g>
       <use xlink:href="#m6e4532def3" x="223.744018" y="470.728203" style="fill: #262626; stroke: #262626"/>
      </g>
     </g>
    </g>
    <g id="xtick_44">
     <g id="line2d_66">
      <g>
       <use xlink:href="#m6e4532def3" x="231.836251" y="470.728203" style="fill: #262626; stroke: #262626"/>
      </g>
     </g>
    </g>
    <g id="xtick_45">
     <g id="line2d_67">
      <g>
       <use xlink:href="#m6e4532def3" x="239.928484" y="470.728203" style="fill: #262626; stroke: #262626"/>
      </g>
     </g>
    </g>
    <g id="xtick_46">
     <g id="line2d_68">
      <g>
       <use xlink:href="#m6e4532def3" x="248.020718" y="470.728203" style="fill: #262626; stroke: #262626"/>
      </g>
     </g>
    </g>
    <g id="xtick_47">
     <g id="line2d_69">
      <g>
       <use xlink:href="#m6e4532def3" x="256.112951" y="470.728203" style="fill: #262626; stroke: #262626"/>
      </g>
     </g>
    </g>
    <g id="xtick_48">
     <g id="line2d_70">
      <g>
       <use xlink:href="#m6e4532def3" x="264.205184" y="470.728203" style="fill: #262626; stroke: #262626"/>
      </g>
     </g>
    </g>
    <g id="xtick_49">
     <g id="line2d_71">
      <g>
       <use xlink:href="#m6e4532def3" x="272.297417" y="470.728203" style="fill: #262626; stroke: #262626"/>
      </g>
     </g>
    </g>
    <g id="xtick_50">
     <g id="line2d_72">
      <g>
       <use xlink:href="#m6e4532def3" x="280.389651" y="470.728203" style="fill: #262626; stroke: #262626"/>
      </g>
     </g>
    </g>
    <g id="xtick_51">
     <g id="line2d_73">
      <g>
       <use xlink:href="#m6e4532def3" x="288.481884" y="470.728203" style="fill: #262626; stroke: #262626"/>
      </g>
     </g>
    </g>
    <g id="xtick_52">
     <g id="line2d_74">
      <g>
       <use xlink:href="#m6e4532def3" x="296.574117" y="470.728203" style="fill: #262626; stroke: #262626"/>
      </g>
     </g>
    </g>
    <g id="xtick_53">
     <g id="line2d_75">
      <g>
       <use xlink:href="#m6e4532def3" x="304.666351" y="470.728203" style="fill: #262626; stroke: #262626"/>
      </g>
     </g>
    </g>
    <g id="xtick_54">
     <g id="line2d_76">
      <g>
       <use xlink:href="#m6e4532def3" x="312.758584" y="470.728203" style="fill: #262626; stroke: #262626"/>
      </g>
     </g>
    </g>
    <g id="xtick_55">
     <g id="line2d_77">
      <g>
       <use xlink:href="#m6e4532def3" x="320.850817" y="470.728203" style="fill: #262626; stroke: #262626"/>
      </g>
     </g>
    </g>
    <g id="xtick_56">
     <g id="line2d_78">
      <g>
       <use xlink:href="#m6e4532def3" x="328.943051" y="470.728203" style="fill: #262626; stroke: #262626"/>
      </g>
     </g>
    </g>
    <g id="xtick_57">
     <g id="line2d_79">
      <g>
       <use xlink:href="#m6e4532def3" x="337.035284" y="470.728203" style="fill: #262626; stroke: #262626"/>
      </g>
     </g>
    </g>
    <g id="xtick_58">
     <g id="line2d_80">
      <g>
       <use xlink:href="#m6e4532def3" x="345.127517" y="470.728203" style="fill: #262626; stroke: #262626"/>
      </g>
     </g>
    </g>
    <g id="xtick_59">
     <g id="line2d_81">
      <g>
       <use xlink:href="#m6e4532def3" x="353.21975" y="470.728203" style="fill: #262626; stroke: #262626"/>
      </g>
     </g>
    </g>
    <g id="xtick_60">
     <g id="line2d_82">
      <g>
       <use xlink:href="#m6e4532def3" x="361.311984" y="470.728203" style="fill: #262626; stroke: #262626"/>
      </g>
     </g>
    </g>
    <g id="xtick_61">
     <g id="line2d_83">
      <g>
       <use xlink:href="#m6e4532def3" x="369.404217" y="470.728203" style="fill: #262626; stroke: #262626"/>
      </g>
     </g>
    </g>
    <g id="xtick_62">
     <g id="line2d_84">
      <g>
       <use xlink:href="#m6e4532def3" x="377.49645" y="470.728203" style="fill: #262626; stroke: #262626"/>
      </g>
     </g>
    </g>
    <g id="xtick_63">
     <g id="line2d_85">
      <g>
       <use xlink:href="#m6e4532def3" x="385.588684" y="470.728203" style="fill: #262626; stroke: #262626"/>
      </g>
     </g>
    </g>
    <g id="xtick_64">
     <g id="line2d_86">
      <g>
       <use xlink:href="#m6e4532def3" x="393.680917" y="470.728203" style="fill: #262626; stroke: #262626"/>
      </g>
     </g>
    </g>
    <g id="xtick_65">
     <g id="line2d_87">
      <g>
       <use xlink:href="#m6e4532def3" x="401.77315" y="470.728203" style="fill: #262626; stroke: #262626"/>
      </g>
     </g>
    </g>
    <g id="xtick_66">
     <g id="line2d_88">
      <g>
       <use xlink:href="#m6e4532def3" x="409.865383" y="470.728203" style="fill: #262626; stroke: #262626"/>
      </g>
     </g>
    </g>
    <g id="xtick_67">
     <g id="line2d_89">
      <g>
       <use xlink:href="#m6e4532def3" x="417.957617" y="470.728203" style="fill: #262626; stroke: #262626"/>
      </g>
     </g>
    </g>
    <g id="xtick_68">
     <g id="line2d_90">
      <g>
       <use xlink:href="#m6e4532def3" x="426.04985" y="470.728203" style="fill: #262626; stroke: #262626"/>
      </g>
     </g>
    </g>
    <g id="xtick_69">
     <g id="line2d_91">
      <g>
       <use xlink:href="#m6e4532def3" x="434.142083" y="470.728203" style="fill: #262626; stroke: #262626"/>
      </g>
     </g>
    </g>
    <g id="xtick_70">
     <g id="line2d_92">
      <g>
       <use xlink:href="#m6e4532def3" x="442.234317" y="470.728203" style="fill: #262626; stroke: #262626"/>
      </g>
     </g>
    </g>
    <g id="xtick_71">
     <g id="line2d_93">
      <g>
       <use xlink:href="#m6e4532def3" x="450.32655" y="470.728203" style="fill: #262626; stroke: #262626"/>
      </g>
     </g>
    </g>
    <g id="xtick_72">
     <g id="line2d_94">
      <g>
       <use xlink:href="#m6e4532def3" x="458.418783" y="470.728203" style="fill: #262626; stroke: #262626"/>
      </g>
     </g>
    </g>
    <g id="xtick_73">
     <g id="line2d_95">
      <g>
       <use xlink:href="#m6e4532def3" x="466.511017" y="470.728203" style="fill: #262626; stroke: #262626"/>
      </g>
     </g>
    </g>
    <g id="xtick_74">
     <g id="line2d_96">
      <g>
       <use xlink:href="#m6e4532def3" x="474.60325" y="470.728203" style="fill: #262626; stroke: #262626"/>
      </g>
     </g>
    </g>
    <g id="xtick_75">
     <g id="line2d_97">
      <g>
       <use xlink:href="#m6e4532def3" x="482.695483" y="470.728203" style="fill: #262626; stroke: #262626"/>
      </g>
     </g>
    </g>
    <g id="xtick_76">
     <g id="line2d_98">
      <g>
       <use xlink:href="#m6e4532def3" x="490.787716" y="470.728203" style="fill: #262626; stroke: #262626"/>
      </g>
     </g>
    </g>
    <g id="xtick_77">
     <g id="line2d_99">
      <g>
       <use xlink:href="#m6e4532def3" x="498.87995" y="470.728203" style="fill: #262626; stroke: #262626"/>
      </g>
     </g>
    </g>
    <g id="xtick_78">
     <g id="line2d_100">
      <g>
       <use xlink:href="#m6e4532def3" x="506.972183" y="470.728203" style="fill: #262626; stroke: #262626"/>
      </g>
     </g>
    </g>
    <g id="xtick_79">
     <g id="line2d_101">
      <g>
       <use xlink:href="#m6e4532def3" x="515.064416" y="470.728203" style="fill: #262626; stroke: #262626"/>
      </g>
     </g>
    </g>
    <g id="xtick_80">
     <g id="line2d_102">
      <g>
       <use xlink:href="#m6e4532def3" x="523.15665" y="470.728203" style="fill: #262626; stroke: #262626"/>
      </g>
     </g>
    </g>
    <g id="xtick_81">
     <g id="line2d_103">
      <g>
       <use xlink:href="#m6e4532def3" x="531.248883" y="470.728203" style="fill: #262626; stroke: #262626"/>
      </g>
     </g>
    </g>
    <g id="xtick_82">
     <g id="line2d_104">
      <g>
       <use xlink:href="#m6e4532def3" x="539.341116" y="470.728203" style="fill: #262626; stroke: #262626"/>
      </g>
     </g>
    </g>
    <g id="xtick_83">
     <g id="line2d_105">
      <g>
       <use xlink:href="#m6e4532def3" x="547.43335" y="470.728203" style="fill: #262626; stroke: #262626"/>
      </g>
     </g>
    </g>
    <g id="xtick_84">
     <g id="line2d_106">
      <g>
       <use xlink:href="#m6e4532def3" x="555.525583" y="470.728203" style="fill: #262626; stroke: #262626"/>
      </g>
     </g>
    </g>
    <g id="xtick_85">
     <g id="line2d_107">
      <g>
       <use xlink:href="#m6e4532def3" x="563.617816" y="470.728203" style="fill: #262626; stroke: #262626"/>
      </g>
     </g>
    </g>
    <g id="xtick_86">
     <g id="line2d_108">
      <g>
       <use xlink:href="#m6e4532def3" x="571.710049" y="470.728203" style="fill: #262626; stroke: #262626"/>
      </g>
     </g>
    </g>
    <g id="xtick_87">
     <g id="line2d_109">
      <g>
       <use xlink:href="#m6e4532def3" x="579.802283" y="470.728203" style="fill: #262626; stroke: #262626"/>
      </g>
     </g>
    </g>
    <g id="xtick_88">
     <g id="line2d_110">
      <g>
       <use xlink:href="#m6e4532def3" x="587.894516" y="470.728203" style="fill: #262626; stroke: #262626"/>
      </g>
     </g>
    </g>
    <g id="xtick_89">
     <g id="line2d_111">
      <g>
       <use xlink:href="#m6e4532def3" x="595.986749" y="470.728203" style="fill: #262626; stroke: #262626"/>
      </g>
     </g>
    </g>
    <g id="xtick_90">
     <g id="line2d_112">
      <g>
       <use xlink:href="#m6e4532def3" x="604.078983" y="470.728203" style="fill: #262626; stroke: #262626"/>
      </g>
     </g>
    </g>
    <g id="xtick_91">
     <g id="line2d_113">
      <g>
       <use xlink:href="#m6e4532def3" x="612.171216" y="470.728203" style="fill: #262626; stroke: #262626"/>
      </g>
     </g>
    </g>
    <g id="xtick_92">
     <g id="line2d_114">
      <g>
       <use xlink:href="#m6e4532def3" x="620.263449" y="470.728203" style="fill: #262626; stroke: #262626"/>
      </g>
     </g>
    </g>
    <g id="xtick_93">
     <g id="line2d_115">
      <g>
       <use xlink:href="#m6e4532def3" x="628.355683" y="470.728203" style="fill: #262626; stroke: #262626"/>
      </g>
     </g>
    </g>
    <g id="xtick_94">
     <g id="line2d_116">
      <g>
       <use xlink:href="#m6e4532def3" x="636.447916" y="470.728203" style="fill: #262626; stroke: #262626"/>
      </g>
     </g>
    </g>
    <g id="xtick_95">
     <g id="line2d_117">
      <g>
       <use xlink:href="#m6e4532def3" x="644.540149" y="470.728203" style="fill: #262626; stroke: #262626"/>
      </g>
     </g>
    </g>
    <g id="xtick_96">
     <g id="line2d_118">
      <g>
       <use xlink:href="#m6e4532def3" x="652.632382" y="470.728203" style="fill: #262626; stroke: #262626"/>
      </g>
     </g>
    </g>
    <g id="xtick_97">
     <g id="line2d_119">
      <g>
       <use xlink:href="#m6e4532def3" x="660.724616" y="470.728203" style="fill: #262626; stroke: #262626"/>
      </g>
     </g>
    </g>
    <g id="xtick_98">
     <g id="line2d_120">
      <g>
       <use xlink:href="#m6e4532def3" x="668.816849" y="470.728203" style="fill: #262626; stroke: #262626"/>
      </g>
     </g>
    </g>
    <g id="xtick_99">
     <g id="line2d_121">
      <g>
       <use xlink:href="#m6e4532def3" x="676.909082" y="470.728203" style="fill: #262626; stroke: #262626"/>
      </g>
     </g>
    </g>
    <g id="xtick_100">
     <g id="line2d_122">
      <g>
       <use xlink:href="#m6e4532def3" x="685.001316" y="470.728203" style="fill: #262626; stroke: #262626"/>
      </g>
     </g>
    </g>
    <g id="xtick_101">
     <g id="line2d_123">
      <g>
       <use xlink:href="#m6e4532def3" x="693.093549" y="470.728203" style="fill: #262626; stroke: #262626"/>
      </g>
     </g>
    </g>
    <g id="xtick_102">
     <g id="line2d_124">
      <g>
       <use xlink:href="#m6e4532def3" x="701.185782" y="470.728203" style="fill: #262626; stroke: #262626"/>
      </g>
     </g>
    </g>
    <g id="xtick_103">
     <g id="line2d_125">
      <g>
       <use xlink:href="#m6e4532def3" x="709.278016" y="470.728203" style="fill: #262626; stroke: #262626"/>
      </g>
     </g>
    </g>
    <g id="xtick_104">
     <g id="line2d_126">
      <g>
       <use xlink:href="#m6e4532def3" x="717.370249" y="470.728203" style="fill: #262626; stroke: #262626"/>
      </g>
     </g>
    </g>
    <g id="xtick_105">
     <g id="line2d_127">
      <g>
       <use xlink:href="#m6e4532def3" x="725.462482" y="470.728203" style="fill: #262626; stroke: #262626"/>
      </g>
     </g>
    </g>
    <g id="xtick_106">
     <g id="line2d_128">
      <g>
       <use xlink:href="#m6e4532def3" x="733.554715" y="470.728203" style="fill: #262626; stroke: #262626"/>
      </g>
     </g>
    </g>
    <g id="xtick_107">
     <g id="line2d_129">
      <g>
       <use xlink:href="#m6e4532def3" x="741.646949" y="470.728203" style="fill: #262626; stroke: #262626"/>
      </g>
     </g>
    </g>
    <g id="xtick_108">
     <g id="line2d_130">
      <g>
       <use xlink:href="#m6e4532def3" x="749.739182" y="470.728203" style="fill: #262626; stroke: #262626"/>
      </g>
     </g>
    </g>
    <g id="xtick_109">
     <g id="line2d_131">
      <g>
       <use xlink:href="#m6e4532def3" x="757.831415" y="470.728203" style="fill: #262626; stroke: #262626"/>
      </g>
     </g>
    </g>
    <g id="xtick_110">
     <g id="line2d_132">
      <g>
       <use xlink:href="#m6e4532def3" x="765.923649" y="470.728203" style="fill: #262626; stroke: #262626"/>
      </g>
     </g>
    </g>
    <g id="xtick_111">
     <g id="line2d_133">
      <g>
       <use xlink:href="#m6e4532def3" x="774.015882" y="470.728203" style="fill: #262626; stroke: #262626"/>
      </g>
     </g>
    </g>
    <g id="xtick_112">
     <g id="line2d_134">
      <g>
       <use xlink:href="#m6e4532def3" x="782.108115" y="470.728203" style="fill: #262626; stroke: #262626"/>
      </g>
     </g>
    </g>
    <g id="xtick_113">
     <g id="line2d_135">
      <g>
       <use xlink:href="#m6e4532def3" x="790.200349" y="470.728203" style="fill: #262626; stroke: #262626"/>
      </g>
     </g>
    </g>
    <g id="xtick_114">
     <g id="line2d_136">
      <g>
       <use xlink:href="#m6e4532def3" x="798.292582" y="470.728203" style="fill: #262626; stroke: #262626"/>
      </g>
     </g>
    </g>
    <g id="xtick_115">
     <g id="line2d_137">
      <g>
       <use xlink:href="#m6e4532def3" x="806.384815" y="470.728203" style="fill: #262626; stroke: #262626"/>
      </g>
     </g>
    </g>
    <g id="xtick_116">
     <g id="line2d_138">
      <g>
       <use xlink:href="#m6e4532def3" x="814.477048" y="470.728203" style="fill: #262626; stroke: #262626"/>
      </g>
     </g>
    </g>
    <g id="xtick_117">
     <g id="line2d_139">
      <g>
       <use xlink:href="#m6e4532def3" x="822.569282" y="470.728203" style="fill: #262626; stroke: #262626"/>
      </g>
     </g>
    </g>
    <g id="xtick_118">
     <g id="line2d_140">
      <g>
       <use xlink:href="#m6e4532def3" x="830.661515" y="470.728203" style="fill: #262626; stroke: #262626"/>
      </g>
     </g>
    </g>
    <g id="text_23">
     <!-- Date -->
     <g style="fill: #262626" transform="translate(434.251563 545.409053)scale(0.12 -0.12)">
      <defs>
       <path id="DejaVuSans-44" d="M 1259 4147 
L 1259 519 
L 2022 519 
Q 2988 519 3436 956 
Q 3884 1394 3884 2338 
Q 3884 3275 3436 3711 
Q 2988 4147 2022 4147 
L 1259 4147 
z
M 628 4666 
L 1925 4666 
Q 3281 4666 3915 4102 
Q 4550 3538 4550 2338 
Q 4550 1131 3912 565 
Q 3275 0 1925 0 
L 628 0 
L 628 4666 
z
" transform="scale(0.015625)"/>
       <path id="DejaVuSans-61" d="M 2194 1759 
Q 1497 1759 1228 1600 
Q 959 1441 959 1056 
Q 959 750 1161 570 
Q 1363 391 1709 391 
Q 2188 391 2477 730 
Q 2766 1069 2766 1631 
L 2766 1759 
L 2194 1759 
z
M 3341 1997 
L 3341 0 
L 2766 0 
L 2766 531 
Q 2569 213 2275 61 
Q 1981 -91 1556 -91 
Q 1019 -91 701 211 
Q 384 513 384 1019 
Q 384 1609 779 1909 
Q 1175 2209 1959 2209 
L 2766 2209 
L 2766 2266 
Q 2766 2663 2505 2880 
Q 2244 3097 1772 3097 
Q 1472 3097 1187 3025 
Q 903 2953 641 2809 
L 641 3341 
Q 956 3463 1253 3523 
Q 1550 3584 1831 3584 
Q 2591 3584 2966 3190 
Q 3341 2797 3341 1997 
z
" transform="scale(0.015625)"/>
       <path id="DejaVuSans-74" d="M 1172 4494 
L 1172 3500 
L 2356 3500 
L 2356 3053 
L 1172 3053 
L 1172 1153 
Q 1172 725 1289 603 
Q 1406 481 1766 481 
L 2356 481 
L 2356 0 
L 1766 0 
Q 1100 0 847 248 
Q 594 497 594 1153 
L 594 3053 
L 172 3053 
L 172 3500 
L 594 3500 
L 594 4494 
L 1172 4494 
z
" transform="scale(0.015625)"/>
       <path id="DejaVuSans-65" d="M 3597 1894 
L 3597 1613 
L 953 1613 
Q 991 1019 1311 708 
Q 1631 397 2203 397 
Q 2534 397 2845 478 
Q 3156 559 3463 722 
L 3463 178 
Q 3153 47 2828 -22 
Q 2503 -91 2169 -91 
Q 1331 -91 842 396 
Q 353 884 353 1716 
Q 353 2575 817 3079 
Q 1281 3584 2069 3584 
Q 2775 3584 3186 3129 
Q 3597 2675 3597 1894 
z
M 3022 2063 
Q 3016 2534 2758 2815 
Q 2500 3097 2075 3097 
Q 1594 3097 1305 2825 
Q 1016 2553 972 2059 
L 3022 2063 
z
" transform="scale(0.015625)"/>
      </defs>
      <use xlink:href="#DejaVuSans-44"/>
      <use xlink:href="#DejaVuSans-61" x="77.001953"/>
      <use xlink:href="#DejaVuSans-74" x="138.28125"/>
      <use xlink:href="#DejaVuSans-65" x="177.490234"/>
     </g>
    </g>
   </g>
   <g id="matplotlib.axis_2">
    <g id="ytick_1">
     <g id="line2d_141">
      <path d="M 60.1075 450.956842 
L 837.0775 450.956842 
" clip-path="url(#pa0a7098225)" style="fill: none; stroke: #cccccc; stroke-linecap: round"/>
     </g>
     <g id="line2d_142">
      <defs>
       <path id="m1da18cf8a6" d="M 0 0 
L -6 0 
" style="stroke: #262626; stroke-width: 1.25"/>
      </defs>
      <g>
       <use xlink:href="#m1da18cf8a6" x="60.1075" y="450.956842" style="fill: #262626; stroke: #262626; stroke-width: 1.25"/>
      </g>
     </g>
     <g id="text_24">
      <!-- 0 -->
      <g style="fill: #262626" transform="translate(43.60875 455.135982)scale(0.11 -0.11)">
       <use xlink:href="#DejaVuSans-30"/>
      </g>
     </g>
    </g>
    <g id="ytick_2">
     <g id="line2d_143">
      <path d="M 60.1075 375.500831 
L 837.0775 375.500831 
" clip-path="url(#pa0a7098225)" style="fill: none; stroke: #cccccc; stroke-linecap: round"/>
     </g>
     <g id="line2d_144">
      <g>
       <use xlink:href="#m1da18cf8a6" x="60.1075" y="375.500831" style="fill: #262626; stroke: #262626; stroke-width: 1.25"/>
      </g>
     </g>
     <g id="text_25">
      <!-- 2000 -->
      <g style="fill: #262626" transform="translate(22.6125 379.679971)scale(0.11 -0.11)">
       <use xlink:href="#DejaVuSans-32"/>
       <use xlink:href="#DejaVuSans-30" x="63.623047"/>
       <use xlink:href="#DejaVuSans-30" x="127.246094"/>
       <use xlink:href="#DejaVuSans-30" x="190.869141"/>
      </g>
     </g>
    </g>
    <g id="ytick_3">
     <g id="line2d_145">
      <path d="M 60.1075 300.044819 
L 837.0775 300.044819 
" clip-path="url(#pa0a7098225)" style="fill: none; stroke: #cccccc; stroke-linecap: round"/>
     </g>
     <g id="line2d_146">
      <g>
       <use xlink:href="#m1da18cf8a6" x="60.1075" y="300.044819" style="fill: #262626; stroke: #262626; stroke-width: 1.25"/>
      </g>
     </g>
     <g id="text_26">
      <!-- 4000 -->
      <g style="fill: #262626" transform="translate(22.6125 304.22396)scale(0.11 -0.11)">
       <use xlink:href="#DejaVuSans-34"/>
       <use xlink:href="#DejaVuSans-30" x="63.623047"/>
       <use xlink:href="#DejaVuSans-30" x="127.246094"/>
       <use xlink:href="#DejaVuSans-30" x="190.869141"/>
      </g>
     </g>
    </g>
    <g id="ytick_4">
     <g id="line2d_147">
      <path d="M 60.1075 224.588808 
L 837.0775 224.588808 
" clip-path="url(#pa0a7098225)" style="fill: none; stroke: #cccccc; stroke-linecap: round"/>
     </g>
     <g id="line2d_148">
      <g>
       <use xlink:href="#m1da18cf8a6" x="60.1075" y="224.588808" style="fill: #262626; stroke: #262626; stroke-width: 1.25"/>
      </g>
     </g>
     <g id="text_27">
      <!-- 6000 -->
      <g style="fill: #262626" transform="translate(22.6125 228.767949)scale(0.11 -0.11)">
       <use xlink:href="#DejaVuSans-36"/>
       <use xlink:href="#DejaVuSans-30" x="63.623047"/>
       <use xlink:href="#DejaVuSans-30" x="127.246094"/>
       <use xlink:href="#DejaVuSans-30" x="190.869141"/>
      </g>
     </g>
    </g>
    <g id="ytick_5">
     <g id="line2d_149">
      <path d="M 60.1075 149.132797 
L 837.0775 149.132797 
" clip-path="url(#pa0a7098225)" style="fill: none; stroke: #cccccc; stroke-linecap: round"/>
     </g>
     <g id="line2d_150">
      <g>
       <use xlink:href="#m1da18cf8a6" x="60.1075" y="149.132797" style="fill: #262626; stroke: #262626; stroke-width: 1.25"/>
      </g>
     </g>
     <g id="text_28">
      <!-- 8000 -->
      <g style="fill: #262626" transform="translate(22.6125 153.311938)scale(0.11 -0.11)">
       <use xlink:href="#DejaVuSans-38"/>
       <use xlink:href="#DejaVuSans-30" x="63.623047"/>
       <use xlink:href="#DejaVuSans-30" x="127.246094"/>
       <use xlink:href="#DejaVuSans-30" x="190.869141"/>
      </g>
     </g>
    </g>
    <g id="ytick_6">
     <g id="line2d_151">
      <path d="M 60.1075 73.676786 
L 837.0775 73.676786 
" clip-path="url(#pa0a7098225)" style="fill: none; stroke: #cccccc; stroke-linecap: round"/>
     </g>
     <g id="line2d_152">
      <g>
       <use xlink:href="#m1da18cf8a6" x="60.1075" y="73.676786" style="fill: #262626; stroke: #262626; stroke-width: 1.25"/>
      </g>
     </g>
     <g id="text_29">
      <!-- 10000 -->
      <g style="fill: #262626" transform="translate(15.61375 77.855927)scale(0.11 -0.11)">
       <use xlink:href="#DejaVuSans-31"/>
       <use xlink:href="#DejaVuSans-30" x="63.623047"/>
       <use xlink:href="#DejaVuSans-30" x="127.246094"/>
       <use xlink:href="#DejaVuSans-30" x="190.869141"/>
       <use xlink:href="#DejaVuSans-30" x="254.492188"/>
      </g>
     </g>
    </g>
    <g id="text_30">
     <!-- Cases -->
     <g style="fill: #262626" transform="translate(9.118125 267.732851)rotate(-90)scale(0.12 -0.12)">
      <defs>
       <path id="DejaVuSans-43" d="M 4122 4306 
L 4122 3641 
Q 3803 3938 3442 4084 
Q 3081 4231 2675 4231 
Q 1875 4231 1450 3742 
Q 1025 3253 1025 2328 
Q 1025 1406 1450 917 
Q 1875 428 2675 428 
Q 3081 428 3442 575 
Q 3803 722 4122 1019 
L 4122 359 
Q 3791 134 3420 21 
Q 3050 -91 2638 -91 
Q 1578 -91 968 557 
Q 359 1206 359 2328 
Q 359 3453 968 4101 
Q 1578 4750 2638 4750 
Q 3056 4750 3426 4639 
Q 3797 4528 4122 4306 
z
" transform="scale(0.015625)"/>
       <path id="DejaVuSans-73" d="M 2834 3397 
L 2834 2853 
Q 2591 2978 2328 3040 
Q 2066 3103 1784 3103 
Q 1356 3103 1142 2972 
Q 928 2841 928 2578 
Q 928 2378 1081 2264 
Q 1234 2150 1697 2047 
L 1894 2003 
Q 2506 1872 2764 1633 
Q 3022 1394 3022 966 
Q 3022 478 2636 193 
Q 2250 -91 1575 -91 
Q 1294 -91 989 -36 
Q 684 19 347 128 
L 347 722 
Q 666 556 975 473 
Q 1284 391 1588 391 
Q 1994 391 2212 530 
Q 2431 669 2431 922 
Q 2431 1156 2273 1281 
Q 2116 1406 1581 1522 
L 1381 1569 
Q 847 1681 609 1914 
Q 372 2147 372 2553 
Q 372 3047 722 3315 
Q 1072 3584 1716 3584 
Q 2034 3584 2315 3537 
Q 2597 3491 2834 3397 
z
" transform="scale(0.015625)"/>
      </defs>
      <use xlink:href="#DejaVuSans-43"/>
      <use xlink:href="#DejaVuSans-61" x="69.824219"/>
      <use xlink:href="#DejaVuSans-73" x="131.103516"/>
      <use xlink:href="#DejaVuSans-65" x="183.203125"/>
      <use xlink:href="#DejaVuSans-73" x="244.726562"/>
     </g>
    </g>
   </g>
   <g id="line2d_153">
    <path d="M 95.424318 443.033961 
L 96.580352 442.920776 
L 97.736385 442.166216 
L 101.204485 442.241672 
L 103.516551 442.2794 
L 104.672585 443.071689 
L 106.984651 442.392584 
L 108.140685 441.751208 
L 109.296718 441.675752 
L 110.452751 441.185288 
L 111.608785 440.845736 
L 112.764818 440.845736 
L 113.920851 440.355272 
L 115.076885 440.77028 
L 117.388951 439.940264 
L 118.544985 439.940264 
L 119.701018 439.600712 
L 120.857051 439.600712 
L 122.013085 440.128904 
L 123.169118 438.997064 
L 124.325151 438.997064 
L 125.481185 438.846152 
L 127.793251 438.846152 
L 128.949285 439.034792 
L 130.105318 439.034792 
L 131.261351 437.638856 
L 132.417385 437.5634 
L 133.573418 436.6202 
L 134.729451 436.280648 
L 135.885485 436.43156 
L 137.041518 437.072936 
L 138.197551 437.18612 
L 139.353585 437.18612 
L 140.509618 438.846152 
L 142.821685 438.770696 
L 143.977718 438.544328 
L 145.133751 439.676168 
L 146.289785 440.20436 
L 147.445818 440.128904 
L 148.601851 441.223016 
L 149.757885 441.223016 
L 150.913918 442.128488 
L 152.069951 442.09076 
L 153.225985 442.317128 
L 154.382018 442.317128 
L 155.538051 443.486697 
L 156.694085 443.750793 
L 157.850118 444.731721 
L 159.006151 444.882633 
L 160.162185 445.184457 
L 162.474251 445.976745 
L 164.786318 445.335369 
L 165.942351 445.410825 
L 167.098385 445.109001 
L 168.254418 444.995817 
L 169.410451 445.222185 
L 170.566485 444.882633 
L 171.722518 443.901705 
L 172.878551 443.260329 
L 174.034585 442.84532 
L 175.190618 441.638024 
L 176.346651 441.751208 
L 177.502684 441.411656 
L 178.658718 440.883464 
L 179.814751 440.543912 
L 180.970784 440.053448 
L 182.126818 439.110248 
L 183.282851 438.808424 
L 184.438884 438.808424 
L 186.750951 437.299304 
L 187.906984 436.242919 
L 189.063018 436.469288 
L 190.219051 436.167463 
L 191.375084 434.997895 
L 192.531118 434.997895 
L 193.687151 434.582887 
L 194.843184 434.545159 
L 195.999218 434.130151 
L 197.155251 434.243335 
L 198.311284 433.979239 
L 199.467318 433.488775 
L 200.623351 433.677415 
L 202.935418 432.734215 
L 204.091451 432.168295 
L 205.247484 431.149639 
L 206.403518 431.489191 
L 207.559551 430.885543 
L 208.715584 430.772359 
L 209.871618 430.998727 
L 212.183684 429.263238 
L 213.339718 428.999142 
L 214.495751 428.09367 
L 215.651784 428.131398 
L 216.807818 427.942758 
L 217.963851 427.414566 
L 219.119884 427.490022 
L 221.431951 425.867718 
L 222.587984 425.716806 
L 223.744018 424.773606 
L 224.900051 425.226342 
L 226.056084 425.07543 
L 227.212118 424.584966 
L 228.368151 423.717222 
L 230.680218 421.604453 
L 231.836251 421.038533 
L 232.992284 420.246245 
L 234.148318 419.906693 
L 236.460384 418.058021 
L 237.616418 417.982565 
L 238.772451 418.623941 
L 239.928484 418.963493 
L 241.084518 418.925765 
L 243.396584 418.473029 
L 244.552618 419.491685 
L 246.864684 420.359429 
L 248.020718 420.359429 
L 249.176751 420.510341 
L 250.332784 421.981733 
L 251.488818 421.453541 
L 252.644851 422.585381 
L 253.800884 422.057189 
L 254.956917 423.264486 
L 256.112951 422.924934 
L 257.268984 422.849478 
L 258.425017 424.019046 
L 259.581051 423.981318 
L 260.737084 423.00039 
L 263.049151 424.094502 
L 264.205184 423.679494 
L 266.517251 423.528582 
L 267.673284 423.151302 
L 268.829317 422.359013 
L 269.985351 422.132645 
L 271.141384 422.170373 
L 272.297417 422.472197 
L 273.453451 422.057189 
L 274.609484 421.793093 
L 276.921551 422.547653 
L 278.077584 422.81175 
L 279.233617 423.226758 
L 280.389651 423.18903 
L 281.545684 423.038118 
L 282.701717 423.415398 
L 283.857751 423.264486 
L 285.013784 422.887206 
L 286.169817 422.887206 
L 287.325851 423.490854 
L 290.793951 424.019046 
L 291.949984 423.94359 
L 293.106017 423.56631 
L 294.262051 422.887206 
L 295.418084 421.453541 
L 296.574117 421.113989 
L 297.730151 421.000805 
L 298.886184 421.528997 
L 300.042217 420.246245 
L 302.354284 418.623941 
L 303.510317 417.492101 
L 304.666351 416.548901 
L 305.822384 416.360261 
L 306.978417 415.869796 
L 308.134451 414.322948 
L 309.290484 411.983812 
L 310.446517 410.851972 
L 311.602551 408.286467 
L 312.758584 406.098243 
L 315.070651 404.890947 
L 316.226684 401.646338 
L 317.382717 398.892194 
L 318.538751 397.156706 
L 319.694784 396.251234 
L 320.850817 394.968481 
L 322.006851 394.364833 
L 323.162884 392.025697 
L 324.318917 389.347009 
L 325.474951 385.611936 
L 326.630984 383.348256 
L 328.943051 376.406303 
L 330.099084 374.142622 
L 333.567184 363.578781 
L 334.723217 361.3151 
L 335.87925 358.636412 
L 337.035284 352.411291 
L 338.191317 349.845787 
L 339.34735 343.771578 
L 340.503384 340.715609 
L 341.659417 330.566776 
L 342.81545 321.776151 
L 345.127517 310.797301 
L 346.28355 306.760404 
L 348.595617 293.40469 
L 350.907684 271.069711 
L 352.063717 264.240942 
L 353.21975 256.053965 
L 354.375784 252.997996 
L 356.68785 244.848747 
L 357.843884 238.585898 
L 358.999917 229.191625 
L 360.15595 226.777033 
L 361.311984 217.307303 
L 362.468017 211.384006 
L 363.62405 214.402247 
L 364.780084 210.818086 
L 365.936117 203.913861 
L 367.09215 199.876965 
L 368.248184 200.178789 
L 369.404217 193.274564 
L 370.56025 191.803171 
L 371.716284 195.04778 
L 372.872317 200.631525 
L 374.02835 200.631525 
L 375.184384 195.689156 
L 376.340417 196.519172 
L 377.49645 188.407651 
L 378.652484 186.860803 
L 379.808517 193.614116 
L 380.96455 192.935012 
L 382.120584 186.936259 
L 383.276617 183.69165 
L 385.588684 178.409729 
L 386.744717 177.655169 
L 387.90075 185.163042 
L 389.056784 186.973987 
L 390.212817 185.57805 
L 391.36885 190.633603 
L 392.524884 204.404325 
L 393.680917 200.442885 
L 394.83695 201.046533 
L 395.992984 213.760871 
L 397.149017 219.948264 
L 398.30505 235.379018 
L 399.461084 237.001322 
L 400.617117 240.434571 
L 401.77315 241.755051 
L 402.929184 240.774123 
L 404.085217 243.037803 
L 405.24125 261.44907 
L 406.397284 268.692847 
L 407.553317 271.522447 
L 408.70935 271.861999 
L 409.865383 270.390607 
L 411.021417 274.050224 
L 412.17745 284.764977 
L 413.333483 289.25461 
L 414.489517 290.160082 
L 415.64555 290.612818 
L 416.801583 293.02741 
L 417.957617 292.876498 
L 419.11365 292.310578 
L 420.269683 298.309331 
L 421.425717 302.11986 
L 422.58175 312.080053 
L 423.737783 313.966453 
L 424.893817 318.908822 
L 426.04985 319.474742 
L 427.205883 319.474742 
L 428.361917 326.001687 
L 429.51795 329.35948 
L 430.673983 329.472664 
L 431.830017 336.075065 
L 432.98605 343.658394 
L 434.142083 343.16793 
L 435.298117 342.526554 
L 436.45415 344.48841 
L 437.610183 344.639322 
L 438.766217 342.866106 
L 439.92225 342.41337 
L 441.078283 343.507482 
L 443.39035 342.073818 
L 444.546383 343.432026 
L 445.702417 341.507898 
L 448.014483 336.527801 
L 449.170517 335.131865 
L 450.32655 332.755 
L 451.482583 333.019096 
L 452.638617 335.622329 
L 453.79465 332.905912 
L 454.950683 329.095384 
L 456.106717 326.567607 
L 457.26275 325.813047 
L 458.418783 323.624823 
L 459.574817 321.738423 
L 460.73085 321.889335 
L 464.19895 311.212309 
L 466.511017 305.854932 
L 467.66705 304.57218 
L 468.823083 302.572596 
L 469.979117 298.648883 
L 472.291183 286.160913 
L 473.447217 281.105361 
L 474.60325 274.616144 
L 475.759283 271.975183 
L 476.915317 270.730159 
L 478.07135 261.977262 
L 479.227383 258.808109 
L 480.383417 250.734316 
L 483.851517 233.039882 
L 485.00755 228.248425 
L 486.163583 223.947432 
L 487.319617 209.686246 
L 489.631683 193.7273 
L 490.787716 188.822659 
L 491.94375 183.050274 
L 493.099783 176.711969 
L 494.255816 164.223999 
L 495.41185 156.527486 
L 496.567883 146.039101 
L 497.723916 136.607099 
L 498.87995 128.571034 
L 500.035983 124.232313 
L 501.192016 123.138201 
L 502.34805 114.158936 
L 503.504083 106.688791 
L 505.81615 95.181749 
L 506.972183 85.976116 
L 508.128216 79.750995 
L 509.28425 85.787476 
L 510.440283 80.807379 
L 511.596316 70.168081 
L 512.75235 67.942129 
L 513.908383 59.264688 
L 516.22045 49.19131 
L 517.376483 58.510128 
L 518.532516 60.283344 
L 519.68855 57.491472 
L 520.844583 58.434672 
L 522.000616 63.452496 
L 523.15665 59.906064 
L 524.312683 59.264688 
L 525.468716 74.808626 
L 526.62475 81.260115 
L 527.780783 85.561108 
L 528.936816 91.673045 
L 530.09285 104.04783 
L 531.248883 103.708278 
L 532.404916 102.765078 
L 533.56095 117.66764 
L 534.716983 126.57145 
L 535.873016 132.721115 
L 537.02905 137.474843 
L 538.185083 146.378653 
L 539.341116 145.850461 
L 540.49715 146.114557 
L 541.653183 161.620767 
L 542.809216 168.75136 
L 543.96525 180.522498 
L 545.121283 193.500932 
L 546.277316 190.444963 
L 547.43335 194.783684 
L 548.589383 196.141892 
L 549.745416 197.952836 
L 550.90145 199.311045 
L 552.057483 218.627783 
L 553.213516 219.382343 
L 554.36955 230.059369 
L 556.681616 227.908873 
L 557.83765 240.774123 
L 560.149716 252.884812 
L 561.30575 258.015821 
L 562.461783 268.655119 
L 563.617816 268.391023 
L 564.77385 267.674191 
L 565.929883 277.70984 
L 567.085916 285.745905 
L 568.241949 292.46149 
L 569.397983 297.290675 
L 570.554016 305.741748 
L 571.710049 306.949044 
L 572.866083 307.326324 
L 574.022116 308.307253 
L 575.178149 317.663798 
L 576.334183 322.832535 
L 578.646249 330.67996 
L 579.802283 330.340408 
L 580.958316 331.132696 
L 583.270383 339.961049 
L 584.426416 342.262458 
L 585.582449 346.638906 
L 586.738483 351.769915 
L 587.894516 352.147195 
L 589.050549 352.373563 
L 590.206583 355.84454 
L 591.362616 357.881852 
L 592.518649 360.145532 
L 593.674683 362.861949 
L 594.830716 364.559709 
L 595.986749 364.823805 
L 597.142783 364.786077 
L 598.298816 366.483837 
L 600.610883 377.236319 
L 601.766916 384.40464 
L 602.922949 384.857376 
L 604.078983 385.083744 
L 605.235016 385.121472 
L 607.547083 388.705632 
L 608.703116 390.101569 
L 611.015183 391.912513 
L 612.171216 392.063425 
L 613.327249 392.101153 
L 614.483283 393.723457 
L 615.639316 394.553473 
L 616.795349 395.081665 
L 617.951383 396.854882 
L 619.107416 401.41997 
L 620.263449 401.344514 
L 621.419483 403.985475 
L 622.575516 408.173283 
L 623.731549 414.700228 
L 624.887583 414.775684 
L 626.043616 417.190277 
L 627.199649 419.868965 
L 628.355683 419.944421 
L 629.511716 419.793509 
L 630.667749 422.81175 
L 632.979816 423.528582 
L 634.135849 423.00039 
L 635.291883 423.18903 
L 637.603949 422.887206 
L 638.759983 423.075846 
L 639.916016 423.717222 
L 641.072049 423.56631 
L 642.228083 422.962662 
L 643.384116 424.32087 
L 645.696182 423.94359 
L 646.852216 423.453126 
L 648.008249 422.472197 
L 649.164282 422.509925 
L 650.320316 422.132645 
L 651.476349 420.887621 
L 653.788416 420.397157 
L 654.944449 418.850309 
L 656.100482 416.473445 
L 657.256516 414.926596 
L 658.412549 415.681156 
L 659.568582 413.7193 
L 660.724616 412.738372 
L 661.880649 411.002884 
L 663.036682 407.946915 
L 664.192716 405.419139 
L 665.348749 404.853219 
L 666.504782 403.268643 
L 667.660816 397.986722 
L 668.816849 394.742113 
L 669.972882 392.553889 
L 671.128916 388.403808 
L 673.440982 375.463103 
L 675.753049 363.691965 
L 676.909082 360.032348 
L 678.065116 358.447772 
L 679.221149 349.015771 
L 680.377182 342.564282 
L 681.533216 338.338745 
L 682.689249 331.62316 
L 683.845282 328.152184 
L 685.001316 323.851191 
L 686.157349 320.757494 
L 689.625449 304.874004 
L 690.781482 300.610739 
L 691.937516 297.403859 
L 694.249582 293.97061 
L 695.405616 289.330066 
L 696.561649 288.462322 
L 697.717682 284.236785 
L 698.873716 281.180817 
L 700.029749 283.142673 
L 701.185782 278.4644 
L 702.341816 277.068464 
L 703.497849 277.89848 
L 705.809916 278.08712 
L 706.965949 276.38936 
L 708.121982 275.559344 
L 709.278016 273.522031 
L 710.434049 271.748815 
L 711.590082 266.881902 
L 712.746116 264.769134 
L 713.902149 263.863662 
L 715.058182 264.240942 
L 716.214216 263.486382 
L 717.370249 260.807694 
L 718.526282 259.374029 
L 719.682316 260.50587 
L 720.838349 256.582157 
L 721.994382 255.827597 
L 723.150415 254.733485 
L 724.306449 255.450317 
L 726.618515 252.960268 
L 727.774549 254.620301 
L 728.930582 253.903469 
L 730.086615 250.545676 
L 731.242649 248.20654 
L 732.398682 245.226027 
L 733.554715 243.867819 
L 734.710749 243.339627 
L 735.866782 243.264171 
L 737.022815 237.944522 
L 738.178849 235.643114 
L 739.334882 229.606633 
L 740.490915 227.003401 
L 741.646949 223.268328 
L 742.802982 221.796936 
L 743.959015 214.854983 
L 747.427115 201.650181 
L 748.583149 198.745124 
L 749.739182 194.708228 
L 750.895215 190.180867 
L 753.207282 174.599201 
L 754.363315 172.788257 
L 755.519349 165.997216 
L 756.675382 161.205759 
L 757.831415 153.660158 
L 758.987449 150.151453 
L 760.143482 148.000957 
L 761.299515 143.511324 
L 762.455549 141.926748 
L 763.611582 135.097979 
L 764.767615 139.24806 
L 765.923649 135.173435 
L 767.079682 130.608346 
L 768.235715 129.665146 
L 769.391749 129.287866 
L 770.547782 134.117051 
L 771.703815 136.720283 
L 772.859849 143.247228 
L 774.015882 142.417212 
L 775.171915 140.530812 
L 776.327949 152.000126 
L 778.640015 166.336768 
L 780.952082 176.447873 
L 782.108115 174.335105 
L 783.264149 173.391905 
L 784.420182 180.522498 
L 786.732249 192.670916 
L 787.888282 195.99098 
L 789.044315 201.725637 
L 790.200349 199.160133 
L 791.356382 197.915108 
L 792.512415 204.743877 
L 793.668449 206.856646 
L 794.824482 213.194951 
L 795.980515 216.100007 
L 797.136549 223.268328 
L 799.448615 219.684168 
L 800.604648 232.888969 
L 801.760682 235.831754 
L 801.760682 235.831754 
" clip-path="url(#pa0a7098225)" style="fill: none; stroke: #ffc0cb; stroke-width: 1.5; stroke-linecap: round"/>
   </g>
   <g id="line2d_154">
    <path d="M 95.424318 449.975914 
L 97.736385 449.938186 
L 98.892418 449.749545 
L 103.516551 449.598633 
L 104.672585 449.86273 
L 105.828618 449.787273 
L 108.140685 449.296809 
L 109.296718 449.296809 
L 110.452751 449.598633 
L 112.764818 449.674089 
L 113.920851 449.447721 
L 115.076885 449.560905 
L 116.232918 449.409993 
L 117.388951 449.409993 
L 118.544985 449.560905 
L 119.701018 449.409993 
L 122.013085 449.485449 
L 125.481185 449.334537 
L 126.637218 449.447721 
L 127.793251 449.447721 
L 128.949285 449.560905 
L 130.105318 449.485449 
L 131.261351 449.523177 
L 133.573418 449.108169 
L 134.729451 448.844073 
L 135.885485 448.768617 
L 137.041518 449.070441 
L 139.353585 449.032713 
L 143.977718 449.334537 
L 145.133751 449.598633 
L 148.601851 449.86273 
L 149.757885 449.86273 
L 150.913918 450.126826 
L 152.069951 450.202282 
L 154.382018 450.126826 
L 157.850118 450.277738 
L 160.162185 450.353194 
L 161.318218 450.202282 
L 162.474251 450.61729 
L 164.786318 450.655018 
L 165.942351 450.504106 
L 168.254418 450.504106 
L 169.410451 450.390922 
L 170.566485 450.466378 
L 171.722518 450.315466 
L 174.034585 450.390922 
L 176.346651 450.390922 
L 180.970784 450.466378 
L 182.126818 450.315466 
L 183.282851 450.466378 
L 186.750951 450.466378 
L 187.906984 450.353194 
L 190.219051 450.277738 
L 191.375084 450.202282 
L 193.687151 449.787273 
L 195.999218 449.749545 
L 201.779384 449.86273 
L 202.935418 449.749545 
L 205.247484 449.900458 
L 206.403518 449.749545 
L 208.715584 449.711817 
L 211.027651 449.938186 
L 213.339718 449.900458 
L 214.495751 449.711817 
L 217.963851 449.674089 
L 219.119884 449.787273 
L 220.275918 450.05137 
L 227.212118 449.447721 
L 229.524184 449.674089 
L 230.680218 449.372265 
L 234.148318 449.334537 
L 235.304351 449.409993 
L 237.616418 449.183625 
L 238.772451 448.881801 
L 242.240551 448.919529 
L 243.396584 448.542249 
L 245.708651 448.579977 
L 248.020718 448.881801 
L 250.332784 448.844073 
L 251.488818 448.655433 
L 252.644851 448.693161 
L 253.800884 448.579977 
L 254.956917 448.202697 
L 257.268984 448.164969 
L 258.425017 448.504521 
L 259.581051 448.542249 
L 260.737084 448.693161 
L 261.893117 448.504521 
L 263.049151 448.730889 
L 266.517251 448.504521 
L 267.673284 448.617705 
L 268.829317 448.579977 
L 269.985351 448.655433 
L 271.141384 448.844073 
L 272.297417 448.806345 
L 274.609484 448.957257 
L 276.921551 448.693161 
L 278.077584 448.881801 
L 279.233617 448.844073 
L 280.389651 448.957257 
L 281.545684 448.957257 
L 287.325851 449.674089 
L 288.481884 449.560905 
L 293.106017 449.86273 
L 294.262051 449.825002 
L 295.418084 449.598633 
L 296.574117 449.598633 
L 297.730151 449.409993 
L 302.354284 449.183625 
L 306.978417 448.730889 
L 309.290484 448.957257 
L 311.602551 448.768617 
L 313.914617 448.617705 
L 315.070651 448.504521 
L 316.226684 448.542249 
L 317.382717 448.429065 
L 318.538751 448.164969 
L 320.850817 447.976329 
L 322.006851 448.164969 
L 323.162884 447.636777 
L 324.318917 447.448137 
L 325.474951 446.919945 
L 326.630984 446.731305 
L 327.787017 446.165385 
L 330.099084 445.448553 
L 331.255117 445.335369 
L 332.41115 445.486281 
L 333.567184 444.844905 
L 334.723217 444.656265 
L 335.87925 444.731721 
L 338.191317 444.580809 
L 339.34735 444.165801 
L 341.659417 441.939848 
L 342.81545 441.52484 
L 343.971484 441.260744 
L 345.127517 440.732552 
L 346.28355 440.694824 
L 347.439584 440.77028 
L 348.595617 440.393 
L 349.75165 440.543912 
L 350.907684 440.242088 
L 352.063717 440.091176 
L 353.21975 439.82708 
L 354.375784 439.902536 
L 355.531817 440.091176 
L 356.68785 439.525256 
L 357.843884 439.147976 
L 358.999917 437.978408 
L 360.15595 436.507016 
L 361.311984 435.563815 
L 362.468017 435.563815 
L 364.780084 436.167463 
L 367.09215 434.733799 
L 368.248184 434.507431 
L 369.404217 434.696071 
L 370.56025 434.733799 
L 371.716284 433.715143 
L 372.872317 432.356935 
L 374.02835 431.225095 
L 375.184384 431.225095 
L 376.340417 431.941927 
L 377.49645 431.489191 
L 378.652484 431.489191 
L 379.808517 431.225095 
L 380.96455 431.564647 
L 382.120584 430.432807 
L 383.276617 430.508263 
L 384.43265 428.772774 
L 385.588684 428.508678 
L 386.744717 428.697318 
L 387.90075 429.074598 
L 389.056784 428.999142 
L 390.212817 429.451878 
L 391.36885 429.565063 
L 392.524884 430.734631 
L 393.680917 430.508263 
L 394.83695 430.734631 
L 395.992984 431.225095 
L 397.149017 431.111911 
L 398.30505 430.847815 
L 400.617117 431.640103 
L 401.77315 431.225095 
L 402.929184 431.225095 
L 404.085217 431.941927 
L 405.24125 433.073767 
L 406.397284 433.337863 
L 411.021417 433.866055 
L 412.17745 435.450631 
L 413.333483 436.129735 
L 414.489517 436.657928 
L 415.64555 436.733384 
L 416.801583 436.6202 
L 419.11365 436.6202 
L 420.269683 436.80884 
L 421.425717 437.110664 
L 422.58175 437.827496 
L 423.737783 438.016136 
L 424.893817 438.016136 
L 426.04985 438.12932 
L 427.205883 438.091592 
L 429.51795 438.959336 
L 430.673983 438.619784 
L 431.830017 439.751624 
L 432.98605 440.242088 
L 434.142083 440.355272 
L 435.298117 440.279816 
L 436.45415 440.430728 
L 437.610183 440.355272 
L 438.766217 440.95892 
L 439.92225 441.260744 
L 442.234317 441.034376 
L 444.546383 440.95892 
L 445.702417 440.430728 
L 446.85845 440.242088 
L 448.014483 440.506184 
L 449.170517 440.543912 
L 450.32655 440.355272 
L 452.638617 440.619368 
L 453.79465 440.921192 
L 454.950683 440.657096 
L 456.106717 439.902536 
L 457.26275 439.487528 
L 459.574817 439.600712 
L 460.73085 440.053448 
L 461.886883 440.242088 
L 463.042917 439.789352 
L 464.19895 439.63844 
L 465.354983 439.034792 
L 466.511017 439.034792 
L 467.66705 438.846152 
L 469.979117 437.789768 
L 471.13515 437.035208 
L 472.291183 436.99748 
L 473.447217 436.695656 
L 474.60325 436.6202 
L 475.759283 436.092007 
L 476.915317 435.337447 
L 478.07135 434.997895 
L 479.227383 434.922439 
L 480.383417 434.356519 
L 481.53945 434.469703 
L 482.695483 433.903783 
L 483.851517 433.752871 
L 485.00755 431.979655 
L 486.163583 432.206023 
L 487.319617 432.055111 
L 488.47565 432.017383 
L 489.631683 431.866471 
L 490.787716 431.262823 
L 491.94375 430.847815 
L 493.099783 429.187782 
L 494.255816 427.867302 
L 495.41185 427.980486 
L 496.567883 425.679078 
L 497.723916 424.962246 
L 498.87995 424.88679 
L 501.192016 424.88679 
L 502.34805 423.453126 
L 503.504083 422.924934 
L 504.660116 421.944005 
L 505.81615 422.623109 
L 506.972183 421.944005 
L 508.128216 421.793093 
L 509.28425 422.585381 
L 510.440283 422.736294 
L 511.596316 421.830821 
L 512.75235 422.774022 
L 515.064416 422.359013 
L 517.376483 423.264486 
L 519.68855 421.642181 
L 520.844583 420.283973 
L 522.000616 420.321701 
L 523.15665 420.736709 
L 524.312683 420.887621 
L 525.468716 421.679909 
L 526.62475 420.812165 
L 527.780783 420.510341 
L 528.936816 420.359429 
L 530.09285 420.736709 
L 531.248883 420.887621 
L 532.404916 421.415813 
L 533.56095 421.528997 
L 534.716983 422.094917 
L 535.873016 421.302629 
L 537.02905 421.491269 
L 538.185083 422.623109 
L 539.341116 423.113574 
L 540.49715 422.81175 
L 541.653183 423.641766 
L 542.809216 424.019046 
L 545.121283 425.226342 
L 546.277316 425.528166 
L 547.43335 425.679078 
L 548.589383 425.980902 
L 550.90145 426.924102 
L 552.057483 428.357766 
L 553.213516 428.810502 
L 554.36955 429.451878 
L 556.681616 429.753703 
L 557.83765 430.017799 
L 558.993683 430.772359 
L 561.30575 431.489191 
L 562.461783 431.941927 
L 564.77385 432.130567 
L 565.929883 432.470119 
L 567.085916 432.658759 
L 568.241949 433.601959 
L 569.397983 434.281063 
L 570.554016 435.224263 
L 572.866083 435.790183 
L 574.022116 435.639271 
L 575.178149 436.507016 
L 576.334183 436.80884 
L 577.490216 436.657928 
L 578.646249 437.110664 
L 580.958316 437.412488 
L 582.114349 437.827496 
L 583.270383 438.808424 
L 584.426416 438.657512 
L 586.738483 439.902536 
L 587.894516 439.902536 
L 589.050549 440.128904 
L 592.518649 441.298472 
L 593.674683 441.411656 
L 594.830716 441.675752 
L 597.142783 441.638024 
L 598.298816 441.826664 
L 599.454849 441.864392 
L 601.766916 442.84532 
L 602.922949 443.109417 
L 605.235016 443.147145 
L 607.547083 443.562153 
L 608.703116 443.373513 
L 609.859149 443.373513 
L 611.015183 443.562153 
L 613.327249 443.524425 
L 614.483283 443.939433 
L 615.639316 444.203529 
L 616.795349 444.203529 
L 617.951383 444.807177 
L 619.107416 445.109001 
L 621.419483 445.222185 
L 622.575516 446.316297 
L 623.731549 446.769033 
L 624.887583 446.693577 
L 627.199649 446.995401 
L 629.511716 447.033129 
L 630.667749 447.372681 
L 638.759983 447.636777 
L 639.916016 447.863145 
L 641.072049 447.938601 
L 642.228083 447.900873 
L 643.384116 448.127241 
L 645.696182 448.051785 
L 646.852216 448.202697 
L 649.164282 447.976329 
L 650.320316 447.976329 
L 651.476349 448.127241 
L 657.256516 447.561321 
L 658.412549 447.599049 
L 659.568582 447.523593 
L 660.724616 447.259497 
L 661.880649 447.221769 
L 663.036682 447.410409 
L 665.348749 446.882217 
L 666.504782 446.957673 
L 667.660816 446.278569 
L 671.128916 445.486281 
L 673.440982 444.392169 
L 674.597016 443.637609 
L 675.753049 443.675337 
L 678.065116 443.335785 
L 679.221149 442.543496 
L 680.377182 441.600296 
L 682.689249 440.430728 
L 683.845282 439.713896 
L 686.157349 439.713896 
L 687.313382 439.600712 
L 688.469416 438.732968 
L 689.625449 438.431144 
L 691.937516 438.355688 
L 693.093549 438.204776 
L 694.249582 438.431144 
L 695.405616 438.167048 
L 696.561649 438.544328 
L 697.717682 437.261576 
L 698.873716 436.695656 
L 700.029749 436.733384 
L 701.185782 436.6202 
L 702.341816 436.884296 
L 703.497849 436.99748 
L 704.653882 436.393832 
L 705.809916 436.016551 
L 709.278016 436.016551 
L 711.590082 436.318376 
L 712.746116 435.676999 
L 713.902149 435.676999 
L 715.058182 435.337447 
L 718.526282 435.186535 
L 721.994382 433.677415 
L 723.150415 433.526503 
L 725.462482 433.413319 
L 726.618515 433.526503 
L 727.774549 434.167879 
L 728.930582 433.601959 
L 730.086615 433.790599 
L 731.242649 433.488775 
L 732.398682 433.526503 
L 733.554715 433.262407 
L 735.866782 433.149223 
L 737.022815 432.658759 
L 738.178849 432.583303 
L 739.334882 432.356935 
L 740.490915 431.753287 
L 741.646949 431.640103 
L 742.802982 431.640103 
L 743.959015 430.696903 
L 745.115049 429.904615 
L 746.271082 429.565063 
L 747.427115 428.697318 
L 749.739182 428.244582 
L 750.895215 428.320038 
L 752.051249 428.018214 
L 754.363315 428.055942 
L 755.519349 426.20727 
L 756.675382 425.45271 
L 757.831415 425.113158 
L 758.987449 425.301798 
L 760.143482 425.716806 
L 761.299515 424.69815 
L 762.455549 423.981318 
L 763.611582 424.169958 
L 764.767615 423.641766 
L 765.923649 423.339942 
L 767.079682 423.339942 
L 768.235715 423.679494 
L 769.391749 422.774022 
L 770.547782 422.283557 
L 774.015882 422.849478 
L 775.171915 422.585381 
L 776.327949 423.604038 
L 777.483982 422.019461 
L 778.640015 422.245829 
L 779.796049 421.717637 
L 782.108115 422.321285 
L 783.264149 422.283557 
L 784.420182 421.717637 
L 785.576215 421.642181 
L 786.732249 420.887621 
L 789.044315 421.566725 
L 790.200349 421.415813 
L 791.356382 422.434469 
L 792.512415 423.679494 
L 793.668449 423.905862 
L 794.824482 424.773606 
L 795.980515 424.471782 
L 797.136549 425.150886 
L 798.292582 425.414982 
L 799.448615 425.528166 
L 800.604648 427.414566 
L 801.760682 427.301382 
L 801.760682 427.301382 
" clip-path="url(#pa0a7098225)" style="fill: none; stroke: #800080; stroke-width: 1.5; stroke-linecap: round"/>
   </g>
   <g id="line2d_155"/>
   <g id="line2d_156"/>
   <g id="patch_3">
    <path d="M 60.1075 470.728203 
L 60.1075 29.118125 
" style="fill: none; stroke: #262626; stroke-width: 1.25; stroke-linejoin: miter; stroke-linecap: square"/>
   </g>
   <g id="patch_4">
    <path d="M 837.0775 470.728203 
L 837.0775 29.118125 
" style="fill: none; stroke: #262626; stroke-width: 1.25; stroke-linejoin: miter; stroke-linecap: square"/>
   </g>
   <g id="patch_5">
    <path d="M 60.1075 470.728203 
L 837.0775 470.728203 
" style="fill: none; stroke: #262626; stroke-width: 1.25; stroke-linejoin: miter; stroke-linecap: square"/>
   </g>
   <g id="patch_6">
    <path d="M 60.1075 29.118125 
L 837.0775 29.118125 
" style="fill: none; stroke: #262626; stroke-width: 1.25; stroke-linejoin: miter; stroke-linecap: square"/>
   </g>
   <g id="text_31">
    <!-- Last update: 08.12.2021 -->
    <g style="fill: #262626" transform="translate(387.093672 22.493974)scale(0.09996 -0.09996)">
     <defs>
      <path id="DejaVuSans-4c" d="M 628 4666 
L 1259 4666 
L 1259 531 
L 3531 531 
L 3531 0 
L 628 0 
L 628 4666 
z
" transform="scale(0.015625)"/>
      <path id="DejaVuSans-20" transform="scale(0.015625)"/>
      <path id="DejaVuSans-75" d="M 544 1381 
L 544 3500 
L 1119 3500 
L 1119 1403 
Q 1119 906 1312 657 
Q 1506 409 1894 409 
Q 2359 409 2629 706 
Q 2900 1003 2900 1516 
L 2900 3500 
L 3475 3500 
L 3475 0 
L 2900 0 
L 2900 538 
Q 2691 219 2414 64 
Q 2138 -91 1772 -91 
Q 1169 -91 856 284 
Q 544 659 544 1381 
z
M 1991 3584 
L 1991 3584 
z
" transform="scale(0.015625)"/>
      <path id="DejaVuSans-70" d="M 1159 525 
L 1159 -1331 
L 581 -1331 
L 581 3500 
L 1159 3500 
L 1159 2969 
Q 1341 3281 1617 3432 
Q 1894 3584 2278 3584 
Q 2916 3584 3314 3078 
Q 3713 2572 3713 1747 
Q 3713 922 3314 415 
Q 2916 -91 2278 -91 
Q 1894 -91 1617 61 
Q 1341 213 1159 525 
z
M 3116 1747 
Q 3116 2381 2855 2742 
Q 2594 3103 2138 3103 
Q 1681 3103 1420 2742 
Q 1159 2381 1159 1747 
Q 1159 1113 1420 752 
Q 1681 391 2138 391 
Q 2594 391 2855 752 
Q 3116 1113 3116 1747 
z
" transform="scale(0.015625)"/>
      <path id="DejaVuSans-64" d="M 2906 2969 
L 2906 4863 
L 3481 4863 
L 3481 0 
L 2906 0 
L 2906 525 
Q 2725 213 2448 61 
Q 2172 -91 1784 -91 
Q 1150 -91 751 415 
Q 353 922 353 1747 
Q 353 2572 751 3078 
Q 1150 3584 1784 3584 
Q 2172 3584 2448 3432 
Q 2725 3281 2906 2969 
z
M 947 1747 
Q 947 1113 1208 752 
Q 1469 391 1925 391 
Q 2381 391 2643 752 
Q 2906 1113 2906 1747 
Q 2906 2381 2643 2742 
Q 2381 3103 1925 3103 
Q 1469 3103 1208 2742 
Q 947 2381 947 1747 
z
" transform="scale(0.015625)"/>
      <path id="DejaVuSans-3a" d="M 750 794 
L 1409 794 
L 1409 0 
L 750 0 
L 750 794 
z
M 750 3309 
L 1409 3309 
L 1409 2516 
L 750 2516 
L 750 3309 
z
" transform="scale(0.015625)"/>
     </defs>
     <use xlink:href="#DejaVuSans-4c"/>
     <use xlink:href="#DejaVuSans-61" x="55.712891"/>
     <use xlink:href="#DejaVuSans-73" x="116.992188"/>
     <use xlink:href="#DejaVuSans-74" x="169.091797"/>
     <use xlink:href="#DejaVuSans-20" x="208.300781"/>
     <use xlink:href="#DejaVuSans-75" x="240.087891"/>
     <use xlink:href="#DejaVuSans-70" x="303.466797"/>
     <use xlink:href="#DejaVuSans-64" x="366.943359"/>
     <use xlink:href="#DejaVuSans-61" x="430.419922"/>
     <use xlink:href="#DejaVuSans-74" x="491.699219"/>
     <use xlink:href="#DejaVuSans-65" x="530.908203"/>
     <use xlink:href="#DejaVuSans-3a" x="592.431641"/>
     <use xlink:href="#DejaVuSans-20" x="626.123047"/>
     <use xlink:href="#DejaVuSans-30" x="657.910156"/>
     <use xlink:href="#DejaVuSans-38" x="721.533203"/>
     <use xlink:href="#DejaVuSans-2e" x="785.15625"/>
     <use xlink:href="#DejaVuSans-31" x="816.943359"/>
     <use xlink:href="#DejaVuSans-32" x="880.566406"/>
     <use xlink:href="#DejaVuSans-2e" x="944.189453"/>
     <use xlink:href="#DejaVuSans-32" x="975.976562"/>
     <use xlink:href="#DejaVuSans-30" x="1039.599609"/>
     <use xlink:href="#DejaVuSans-32" x="1103.222656"/>
     <use xlink:href="#DejaVuSans-31" x="1166.845703"/>
    </g>
   </g>
   <g id="text_32">
    <!-- Disease timeline -->
    <g style="fill: #262626" transform="translate(392.434375 9.118125)scale(0.12 -0.12)">
     <defs>
      <path id="DejaVuSans-Bold-44" d="M 1791 3756 
L 1791 909 
L 2222 909 
Q 2959 909 3348 1275 
Q 3738 1641 3738 2338 
Q 3738 3031 3350 3393 
Q 2963 3756 2222 3756 
L 1791 3756 
z
M 588 4666 
L 1856 4666 
Q 2919 4666 3439 4514 
Q 3959 4363 4331 4000 
Q 4659 3684 4818 3271 
Q 4978 2859 4978 2338 
Q 4978 1809 4818 1395 
Q 4659 981 4331 666 
Q 3956 303 3431 151 
Q 2906 0 1856 0 
L 588 0 
L 588 4666 
z
" transform="scale(0.015625)"/>
      <path id="DejaVuSans-Bold-69" d="M 538 3500 
L 1656 3500 
L 1656 0 
L 538 0 
L 538 3500 
z
M 538 4863 
L 1656 4863 
L 1656 3950 
L 538 3950 
L 538 4863 
z
" transform="scale(0.015625)"/>
      <path id="DejaVuSans-Bold-73" d="M 3272 3391 
L 3272 2541 
Q 2913 2691 2578 2766 
Q 2244 2841 1947 2841 
Q 1628 2841 1473 2761 
Q 1319 2681 1319 2516 
Q 1319 2381 1436 2309 
Q 1553 2238 1856 2203 
L 2053 2175 
Q 2913 2066 3209 1816 
Q 3506 1566 3506 1031 
Q 3506 472 3093 190 
Q 2681 -91 1863 -91 
Q 1516 -91 1145 -36 
Q 775 19 384 128 
L 384 978 
Q 719 816 1070 734 
Q 1422 653 1784 653 
Q 2113 653 2278 743 
Q 2444 834 2444 1013 
Q 2444 1163 2330 1236 
Q 2216 1309 1875 1350 
L 1678 1375 
Q 931 1469 631 1722 
Q 331 1975 331 2491 
Q 331 3047 712 3315 
Q 1094 3584 1881 3584 
Q 2191 3584 2531 3537 
Q 2872 3491 3272 3391 
z
" transform="scale(0.015625)"/>
      <path id="DejaVuSans-Bold-65" d="M 4031 1759 
L 4031 1441 
L 1416 1441 
Q 1456 1047 1700 850 
Q 1944 653 2381 653 
Q 2734 653 3104 758 
Q 3475 863 3866 1075 
L 3866 213 
Q 3469 63 3072 -14 
Q 2675 -91 2278 -91 
Q 1328 -91 801 392 
Q 275 875 275 1747 
Q 275 2603 792 3093 
Q 1309 3584 2216 3584 
Q 3041 3584 3536 3087 
Q 4031 2591 4031 1759 
z
M 2881 2131 
Q 2881 2450 2695 2645 
Q 2509 2841 2209 2841 
Q 1884 2841 1681 2658 
Q 1478 2475 1428 2131 
L 2881 2131 
z
" transform="scale(0.015625)"/>
      <path id="DejaVuSans-Bold-61" d="M 2106 1575 
Q 1756 1575 1579 1456 
Q 1403 1338 1403 1106 
Q 1403 894 1545 773 
Q 1688 653 1941 653 
Q 2256 653 2472 879 
Q 2688 1106 2688 1447 
L 2688 1575 
L 2106 1575 
z
M 3816 1997 
L 3816 0 
L 2688 0 
L 2688 519 
Q 2463 200 2181 54 
Q 1900 -91 1497 -91 
Q 953 -91 614 226 
Q 275 544 275 1050 
Q 275 1666 698 1953 
Q 1122 2241 2028 2241 
L 2688 2241 
L 2688 2328 
Q 2688 2594 2478 2717 
Q 2269 2841 1825 2841 
Q 1466 2841 1156 2769 
Q 847 2697 581 2553 
L 581 3406 
Q 941 3494 1303 3539 
Q 1666 3584 2028 3584 
Q 2975 3584 3395 3211 
Q 3816 2838 3816 1997 
z
" transform="scale(0.015625)"/>
      <path id="DejaVuSans-Bold-20" transform="scale(0.015625)"/>
      <path id="DejaVuSans-Bold-74" d="M 1759 4494 
L 1759 3500 
L 2913 3500 
L 2913 2700 
L 1759 2700 
L 1759 1216 
Q 1759 972 1856 886 
Q 1953 800 2241 800 
L 2816 800 
L 2816 0 
L 1856 0 
Q 1194 0 917 276 
Q 641 553 641 1216 
L 641 2700 
L 84 2700 
L 84 3500 
L 641 3500 
L 641 4494 
L 1759 4494 
z
" transform="scale(0.015625)"/>
      <path id="DejaVuSans-Bold-6d" d="M 3781 2919 
Q 3994 3244 4286 3414 
Q 4578 3584 4928 3584 
Q 5531 3584 5847 3212 
Q 6163 2841 6163 2131 
L 6163 0 
L 5038 0 
L 5038 1825 
Q 5041 1866 5042 1909 
Q 5044 1953 5044 2034 
Q 5044 2406 4934 2573 
Q 4825 2741 4581 2741 
Q 4263 2741 4089 2478 
Q 3916 2216 3909 1719 
L 3909 0 
L 2784 0 
L 2784 1825 
Q 2784 2406 2684 2573 
Q 2584 2741 2328 2741 
Q 2006 2741 1831 2477 
Q 1656 2213 1656 1722 
L 1656 0 
L 531 0 
L 531 3500 
L 1656 3500 
L 1656 2988 
Q 1863 3284 2130 3434 
Q 2397 3584 2719 3584 
Q 3081 3584 3359 3409 
Q 3638 3234 3781 2919 
z
" transform="scale(0.015625)"/>
      <path id="DejaVuSans-Bold-6c" d="M 538 4863 
L 1656 4863 
L 1656 0 
L 538 0 
L 538 4863 
z
" transform="scale(0.015625)"/>
      <path id="DejaVuSans-Bold-6e" d="M 4056 2131 
L 4056 0 
L 2931 0 
L 2931 347 
L 2931 1631 
Q 2931 2084 2911 2256 
Q 2891 2428 2841 2509 
Q 2775 2619 2662 2680 
Q 2550 2741 2406 2741 
Q 2056 2741 1856 2470 
Q 1656 2200 1656 1722 
L 1656 0 
L 538 0 
L 538 3500 
L 1656 3500 
L 1656 2988 
Q 1909 3294 2193 3439 
Q 2478 3584 2822 3584 
Q 3428 3584 3742 3212 
Q 4056 2841 4056 2131 
z
" transform="scale(0.015625)"/>
     </defs>
     <use xlink:href="#DejaVuSans-Bold-44"/>
     <use xlink:href="#DejaVuSans-Bold-69" x="83.007812"/>
     <use xlink:href="#DejaVuSans-Bold-73" x="117.285156"/>
     <use xlink:href="#DejaVuSans-Bold-65" x="176.806641"/>
     <use xlink:href="#DejaVuSans-Bold-61" x="244.628906"/>
     <use xlink:href="#DejaVuSans-Bold-73" x="312.109375"/>
     <use xlink:href="#DejaVuSans-Bold-65" x="371.630859"/>
     <use xlink:href="#DejaVuSans-Bold-20" x="439.453125"/>
     <use xlink:href="#DejaVuSans-Bold-74" x="474.267578"/>
     <use xlink:href="#DejaVuSans-Bold-69" x="522.070312"/>
     <use xlink:href="#DejaVuSans-Bold-6d" x="556.347656"/>
     <use xlink:href="#DejaVuSans-Bold-65" x="660.546875"/>
     <use xlink:href="#DejaVuSans-Bold-6c" x="728.369141"/>
     <use xlink:href="#DejaVuSans-Bold-69" x="762.646484"/>
     <use xlink:href="#DejaVuSans-Bold-6e" x="796.923828"/>
     <use xlink:href="#DejaVuSans-Bold-65" x="868.115234"/>
    </g>
   </g>
   <g id="legend_1">
    <g id="patch_7">
     <path d="M 716.515781 70.21 
L 829.3775 70.21 
Q 831.5775 70.21 831.5775 68.01 
L 831.5775 36.818125 
Q 831.5775 34.618125 829.3775 34.618125 
L 716.515781 34.618125 
Q 714.315781 34.618125 714.315781 36.818125 
L 714.315781 68.01 
Q 714.315781 70.21 716.515781 70.21 
z
" style="fill: #ffffff; opacity: 0.8; stroke: #cccccc; stroke-linejoin: miter"/>
    </g>
    <g id="line2d_157">
     <path d="M 718.715781 43.526406 
L 729.715781 43.526406 
L 740.715781 43.526406 
" style="fill: none; stroke: #ffc0cb; stroke-width: 1.5; stroke-linecap: round"/>
    </g>
    <g id="text_33">
     <!-- Hospitalized -->
     <g style="fill: #262626" transform="translate(749.515781 47.376406)scale(0.11 -0.11)">
      <defs>
       <path id="DejaVuSans-48" d="M 628 4666 
L 1259 4666 
L 1259 2753 
L 3553 2753 
L 3553 4666 
L 4184 4666 
L 4184 0 
L 3553 0 
L 3553 2222 
L 1259 2222 
L 1259 0 
L 628 0 
L 628 4666 
z
" transform="scale(0.015625)"/>
       <path id="DejaVuSans-6f" d="M 1959 3097 
Q 1497 3097 1228 2736 
Q 959 2375 959 1747 
Q 959 1119 1226 758 
Q 1494 397 1959 397 
Q 2419 397 2687 759 
Q 2956 1122 2956 1747 
Q 2956 2369 2687 2733 
Q 2419 3097 1959 3097 
z
M 1959 3584 
Q 2709 3584 3137 3096 
Q 3566 2609 3566 1747 
Q 3566 888 3137 398 
Q 2709 -91 1959 -91 
Q 1206 -91 779 398 
Q 353 888 353 1747 
Q 353 2609 779 3096 
Q 1206 3584 1959 3584 
z
" transform="scale(0.015625)"/>
       <path id="DejaVuSans-69" d="M 603 3500 
L 1178 3500 
L 1178 0 
L 603 0 
L 603 3500 
z
M 603 4863 
L 1178 4863 
L 1178 4134 
L 603 4134 
L 603 4863 
z
" transform="scale(0.015625)"/>
       <path id="DejaVuSans-6c" d="M 603 4863 
L 1178 4863 
L 1178 0 
L 603 0 
L 603 4863 
z
" transform="scale(0.015625)"/>
       <path id="DejaVuSans-7a" d="M 353 3500 
L 3084 3500 
L 3084 2975 
L 922 459 
L 3084 459 
L 3084 0 
L 275 0 
L 275 525 
L 2438 3041 
L 353 3041 
L 353 3500 
z
" transform="scale(0.015625)"/>
      </defs>
      <use xlink:href="#DejaVuSans-48"/>
      <use xlink:href="#DejaVuSans-6f" x="75.195312"/>
      <use xlink:href="#DejaVuSans-73" x="136.376953"/>
      <use xlink:href="#DejaVuSans-70" x="188.476562"/>
      <use xlink:href="#DejaVuSans-69" x="251.953125"/>
      <use xlink:href="#DejaVuSans-74" x="279.736328"/>
      <use xlink:href="#DejaVuSans-61" x="318.945312"/>
      <use xlink:href="#DejaVuSans-6c" x="380.224609"/>
      <use xlink:href="#DejaVuSans-69" x="408.007812"/>
      <use xlink:href="#DejaVuSans-7a" x="435.791016"/>
      <use xlink:href="#DejaVuSans-65" x="488.28125"/>
      <use xlink:href="#DejaVuSans-64" x="549.804688"/>
     </g>
    </g>
    <g id="line2d_158">
     <path d="M 718.715781 59.672344 
L 729.715781 59.672344 
L 740.715781 59.672344 
" style="fill: none; stroke: #800080; stroke-width: 1.5; stroke-linecap: round"/>
    </g>
    <g id="text_34">
     <!-- Intensive care -->
     <g style="fill: #262626" transform="translate(749.515781 63.522344)scale(0.11 -0.11)">
      <defs>
       <path id="DejaVuSans-49" d="M 628 4666 
L 1259 4666 
L 1259 0 
L 628 0 
L 628 4666 
z
" transform="scale(0.015625)"/>
       <path id="DejaVuSans-6e" d="M 3513 2113 
L 3513 0 
L 2938 0 
L 2938 2094 
Q 2938 2591 2744 2837 
Q 2550 3084 2163 3084 
Q 1697 3084 1428 2787 
Q 1159 2491 1159 1978 
L 1159 0 
L 581 0 
L 581 3500 
L 1159 3500 
L 1159 2956 
Q 1366 3272 1645 3428 
Q 1925 3584 2291 3584 
Q 2894 3584 3203 3211 
Q 3513 2838 3513 2113 
z
" transform="scale(0.015625)"/>
       <path id="DejaVuSans-76" d="M 191 3500 
L 800 3500 
L 1894 563 
L 2988 3500 
L 3597 3500 
L 2284 0 
L 1503 0 
L 191 3500 
z
" transform="scale(0.015625)"/>
       <path id="DejaVuSans-63" d="M 3122 3366 
L 3122 2828 
Q 2878 2963 2633 3030 
Q 2388 3097 2138 3097 
Q 1578 3097 1268 2742 
Q 959 2388 959 1747 
Q 959 1106 1268 751 
Q 1578 397 2138 397 
Q 2388 397 2633 464 
Q 2878 531 3122 666 
L 3122 134 
Q 2881 22 2623 -34 
Q 2366 -91 2075 -91 
Q 1284 -91 818 406 
Q 353 903 353 1747 
Q 353 2603 823 3093 
Q 1294 3584 2113 3584 
Q 2378 3584 2631 3529 
Q 2884 3475 3122 3366 
z
" transform="scale(0.015625)"/>
       <path id="DejaVuSans-72" d="M 2631 2963 
Q 2534 3019 2420 3045 
Q 2306 3072 2169 3072 
Q 1681 3072 1420 2755 
Q 1159 2438 1159 1844 
L 1159 0 
L 581 0 
L 581 3500 
L 1159 3500 
L 1159 2956 
Q 1341 3275 1631 3429 
Q 1922 3584 2338 3584 
Q 2397 3584 2469 3576 
Q 2541 3569 2628 3553 
L 2631 2963 
z
" transform="scale(0.015625)"/>
      </defs>
      <use xlink:href="#DejaVuSans-49"/>
      <use xlink:href="#DejaVuSans-6e" x="29.492188"/>
      <use xlink:href="#DejaVuSans-74" x="92.871094"/>
      <use xlink:href="#DejaVuSans-65" x="132.080078"/>
      <use xlink:href="#DejaVuSans-6e" x="193.603516"/>
      <use xlink:href="#DejaVuSans-73" x="256.982422"/>
      <use xlink:href="#DejaVuSans-69" x="309.082031"/>
      <use xlink:href="#DejaVuSans-76" x="336.865234"/>
      <use xlink:href="#DejaVuSans-65" x="396.044922"/>
      <use xlink:href="#DejaVuSans-20" x="457.568359"/>
      <use xlink:href="#DejaVuSans-63" x="489.355469"/>
      <use xlink:href="#DejaVuSans-61" x="544.335938"/>
      <use xlink:href="#DejaVuSans-72" x="605.615234"/>
      <use xlink:href="#DejaVuSans-65" x="644.478516"/>
     </g>
    </g>
   </g>
  </g>
 </g>
 <defs>
  <clipPath id="pa0a7098225">
   <rect x="60.1075" y="29.118125" width="776.97" height="441.610078"/>
  </clipPath>
 </defs>
</svg>
