<?xml version="1.0" encoding="utf-8" standalone="no"?>
<!DOCTYPE svg PUBLIC "-//W3C//DTD SVG 1.1//EN"
  "http://www.w3.org/Graphics/SVG/1.1/DTD/svg11.dtd">
<svg height="570.462488pt" version="1.1" viewBox="0 0 862.888 570.462488" width="862.888pt" xmlns="http://www.w3.org/2000/svg" xmlns:xlink="http://www.w3.org/1999/xlink">
 <metadata>
  <rdf:RDF xmlns:cc="http://creativecommons.org/ns#" xmlns:dc="http://purl.org/dc/elements/1.1/" xmlns:rdf="http://www.w3.org/1999/02/22-rdf-syntax-ns#">
   <cc:Work>
    <dc:type rdf:resource="http://purl.org/dc/dcmitype/StillImage"/>
    <dc:date>2021-11-13T02:07:00.761099</dc:date>
    <dc:format>image/svg+xml</dc:format>
    <dc:creator>
     <cc:Agent>
      <dc:title>Matplotlib v3.4.3, https://matplotlib.org/</dc:title>
     </cc:Agent>
    </dc:creator>
   </cc:Work>
  </rdf:RDF>
 </metadata>
 <defs>
  <style type="text/css">*{stroke-linecap:butt;stroke-linejoin:round;}</style>
 </defs>
 <g id="figure_1">
  <g id="patch_1">
   <path d="M 0 570.462488 
L 862.888 570.462488 
L 862.888 0 
L 0 0 
z
" style="fill:none;"/>
  </g>
  <g id="axes_1">
   <g id="patch_2">
    <path d="M 67.10625 493.286013 
L 798.39425 493.286013 
L 798.39425 29.118125 
L 67.10625 29.118125 
z
" style="fill:none;"/>
   </g>
   <g id="matplotlib.axis_1">
    <g id="xtick_1">
     <g id="line2d_1">
      <path clip-path="url(#pffc3ab5a50)" d="M 100.346614 493.286013 
L 100.346614 29.118125 
" style="fill:none;stroke:#cccccc;stroke-linecap:round;"/>
     </g>
     <g id="line2d_2">
      <defs>
       <path d="M 0 0 
L 0 6 
" id="mea923fe864" style="stroke:#262626;stroke-width:1.25;"/>
      </defs>
      <g>
       <use style="fill:#262626;stroke:#262626;stroke-width:1.25;" x="100.346614" xlink:href="#mea923fe864" y="493.286013"/>
      </g>
     </g>
     <g id="text_1">
      <!-- 07.03.2020 -->
      <g style="fill:#262626;" transform="translate(54.194085 553.231121)rotate(-45)scale(0.11 -0.11)">
       <defs>
        <path d="M 2034 4250 
Q 1547 4250 1301 3770 
Q 1056 3291 1056 2328 
Q 1056 1369 1301 889 
Q 1547 409 2034 409 
Q 2525 409 2770 889 
Q 3016 1369 3016 2328 
Q 3016 3291 2770 3770 
Q 2525 4250 2034 4250 
z
M 2034 4750 
Q 2819 4750 3233 4129 
Q 3647 3509 3647 2328 
Q 3647 1150 3233 529 
Q 2819 -91 2034 -91 
Q 1250 -91 836 529 
Q 422 1150 422 2328 
Q 422 3509 836 4129 
Q 1250 4750 2034 4750 
z
" id="DejaVuSans-30" transform="scale(0.015625)"/>
        <path d="M 525 4666 
L 3525 4666 
L 3525 4397 
L 1831 0 
L 1172 0 
L 2766 4134 
L 525 4134 
L 525 4666 
z
" id="DejaVuSans-37" transform="scale(0.015625)"/>
        <path d="M 684 794 
L 1344 794 
L 1344 0 
L 684 0 
L 684 794 
z
" id="DejaVuSans-2e" transform="scale(0.015625)"/>
        <path d="M 2597 2516 
Q 3050 2419 3304 2112 
Q 3559 1806 3559 1356 
Q 3559 666 3084 287 
Q 2609 -91 1734 -91 
Q 1441 -91 1130 -33 
Q 819 25 488 141 
L 488 750 
Q 750 597 1062 519 
Q 1375 441 1716 441 
Q 2309 441 2620 675 
Q 2931 909 2931 1356 
Q 2931 1769 2642 2001 
Q 2353 2234 1838 2234 
L 1294 2234 
L 1294 2753 
L 1863 2753 
Q 2328 2753 2575 2939 
Q 2822 3125 2822 3475 
Q 2822 3834 2567 4026 
Q 2313 4219 1838 4219 
Q 1578 4219 1281 4162 
Q 984 4106 628 3988 
L 628 4550 
Q 988 4650 1302 4700 
Q 1616 4750 1894 4750 
Q 2613 4750 3031 4423 
Q 3450 4097 3450 3541 
Q 3450 3153 3228 2886 
Q 3006 2619 2597 2516 
z
" id="DejaVuSans-33" transform="scale(0.015625)"/>
        <path d="M 1228 531 
L 3431 531 
L 3431 0 
L 469 0 
L 469 531 
Q 828 903 1448 1529 
Q 2069 2156 2228 2338 
Q 2531 2678 2651 2914 
Q 2772 3150 2772 3378 
Q 2772 3750 2511 3984 
Q 2250 4219 1831 4219 
Q 1534 4219 1204 4116 
Q 875 4013 500 3803 
L 500 4441 
Q 881 4594 1212 4672 
Q 1544 4750 1819 4750 
Q 2544 4750 2975 4387 
Q 3406 4025 3406 3419 
Q 3406 3131 3298 2873 
Q 3191 2616 2906 2266 
Q 2828 2175 2409 1742 
Q 1991 1309 1228 531 
z
" id="DejaVuSans-32" transform="scale(0.015625)"/>
       </defs>
       <use xlink:href="#DejaVuSans-30"/>
       <use x="63.623047" xlink:href="#DejaVuSans-37"/>
       <use x="127.246094" xlink:href="#DejaVuSans-2e"/>
       <use x="159.033203" xlink:href="#DejaVuSans-30"/>
       <use x="222.65625" xlink:href="#DejaVuSans-33"/>
       <use x="286.279297" xlink:href="#DejaVuSans-2e"/>
       <use x="318.066406" xlink:href="#DejaVuSans-32"/>
       <use x="381.689453" xlink:href="#DejaVuSans-30"/>
       <use x="445.3125" xlink:href="#DejaVuSans-32"/>
       <use x="508.935547" xlink:href="#DejaVuSans-30"/>
      </g>
     </g>
    </g>
    <g id="xtick_2">
     <g id="line2d_3">
      <path clip-path="url(#pffc3ab5a50)" d="M 130.614262 493.286013 
L 130.614262 29.118125 
" style="fill:none;stroke:#cccccc;stroke-linecap:round;"/>
     </g>
     <g id="line2d_4">
      <g>
       <use style="fill:#262626;stroke:#262626;stroke-width:1.25;" x="130.614262" xlink:href="#mea923fe864" y="493.286013"/>
      </g>
     </g>
     <g id="text_2">
      <!-- 04.04.2020 -->
      <g style="fill:#262626;" transform="translate(84.461734 553.231121)rotate(-45)scale(0.11 -0.11)">
       <defs>
        <path d="M 2419 4116 
L 825 1625 
L 2419 1625 
L 2419 4116 
z
M 2253 4666 
L 3047 4666 
L 3047 1625 
L 3713 1625 
L 3713 1100 
L 3047 1100 
L 3047 0 
L 2419 0 
L 2419 1100 
L 313 1100 
L 313 1709 
L 2253 4666 
z
" id="DejaVuSans-34" transform="scale(0.015625)"/>
       </defs>
       <use xlink:href="#DejaVuSans-30"/>
       <use x="63.623047" xlink:href="#DejaVuSans-34"/>
       <use x="127.246094" xlink:href="#DejaVuSans-2e"/>
       <use x="159.033203" xlink:href="#DejaVuSans-30"/>
       <use x="222.65625" xlink:href="#DejaVuSans-34"/>
       <use x="286.279297" xlink:href="#DejaVuSans-2e"/>
       <use x="318.066406" xlink:href="#DejaVuSans-32"/>
       <use x="381.689453" xlink:href="#DejaVuSans-30"/>
       <use x="445.3125" xlink:href="#DejaVuSans-32"/>
       <use x="508.935547" xlink:href="#DejaVuSans-30"/>
      </g>
     </g>
    </g>
    <g id="xtick_3">
     <g id="line2d_5">
      <path clip-path="url(#pffc3ab5a50)" d="M 160.88191 493.286013 
L 160.88191 29.118125 
" style="fill:none;stroke:#cccccc;stroke-linecap:round;"/>
     </g>
     <g id="line2d_6">
      <g>
       <use style="fill:#262626;stroke:#262626;stroke-width:1.25;" x="160.88191" xlink:href="#mea923fe864" y="493.286013"/>
      </g>
     </g>
     <g id="text_3">
      <!-- 02.05.2020 -->
      <g style="fill:#262626;" transform="translate(114.729382 553.231121)rotate(-45)scale(0.11 -0.11)">
       <defs>
        <path d="M 691 4666 
L 3169 4666 
L 3169 4134 
L 1269 4134 
L 1269 2991 
Q 1406 3038 1543 3061 
Q 1681 3084 1819 3084 
Q 2600 3084 3056 2656 
Q 3513 2228 3513 1497 
Q 3513 744 3044 326 
Q 2575 -91 1722 -91 
Q 1428 -91 1123 -41 
Q 819 9 494 109 
L 494 744 
Q 775 591 1075 516 
Q 1375 441 1709 441 
Q 2250 441 2565 725 
Q 2881 1009 2881 1497 
Q 2881 1984 2565 2268 
Q 2250 2553 1709 2553 
Q 1456 2553 1204 2497 
Q 953 2441 691 2322 
L 691 4666 
z
" id="DejaVuSans-35" transform="scale(0.015625)"/>
       </defs>
       <use xlink:href="#DejaVuSans-30"/>
       <use x="63.623047" xlink:href="#DejaVuSans-32"/>
       <use x="127.246094" xlink:href="#DejaVuSans-2e"/>
       <use x="159.033203" xlink:href="#DejaVuSans-30"/>
       <use x="222.65625" xlink:href="#DejaVuSans-35"/>
       <use x="286.279297" xlink:href="#DejaVuSans-2e"/>
       <use x="318.066406" xlink:href="#DejaVuSans-32"/>
       <use x="381.689453" xlink:href="#DejaVuSans-30"/>
       <use x="445.3125" xlink:href="#DejaVuSans-32"/>
       <use x="508.935547" xlink:href="#DejaVuSans-30"/>
      </g>
     </g>
    </g>
    <g id="xtick_4">
     <g id="line2d_7">
      <path clip-path="url(#pffc3ab5a50)" d="M 191.149558 493.286013 
L 191.149558 29.118125 
" style="fill:none;stroke:#cccccc;stroke-linecap:round;"/>
     </g>
     <g id="line2d_8">
      <g>
       <use style="fill:#262626;stroke:#262626;stroke-width:1.25;" x="191.149558" xlink:href="#mea923fe864" y="493.286013"/>
      </g>
     </g>
     <g id="text_4">
      <!-- 30.05.2020 -->
      <g style="fill:#262626;" transform="translate(144.99703 553.231121)rotate(-45)scale(0.11 -0.11)">
       <use xlink:href="#DejaVuSans-33"/>
       <use x="63.623047" xlink:href="#DejaVuSans-30"/>
       <use x="127.246094" xlink:href="#DejaVuSans-2e"/>
       <use x="159.033203" xlink:href="#DejaVuSans-30"/>
       <use x="222.65625" xlink:href="#DejaVuSans-35"/>
       <use x="286.279297" xlink:href="#DejaVuSans-2e"/>
       <use x="318.066406" xlink:href="#DejaVuSans-32"/>
       <use x="381.689453" xlink:href="#DejaVuSans-30"/>
       <use x="445.3125" xlink:href="#DejaVuSans-32"/>
       <use x="508.935547" xlink:href="#DejaVuSans-30"/>
      </g>
     </g>
    </g>
    <g id="xtick_5">
     <g id="line2d_9">
      <path clip-path="url(#pffc3ab5a50)" d="M 221.417206 493.286013 
L 221.417206 29.118125 
" style="fill:none;stroke:#cccccc;stroke-linecap:round;"/>
     </g>
     <g id="line2d_10">
      <g>
       <use style="fill:#262626;stroke:#262626;stroke-width:1.25;" x="221.417206" xlink:href="#mea923fe864" y="493.286013"/>
      </g>
     </g>
     <g id="text_5">
      <!-- 27.06.2020 -->
      <g style="fill:#262626;" transform="translate(175.264678 553.231121)rotate(-45)scale(0.11 -0.11)">
       <defs>
        <path d="M 2113 2584 
Q 1688 2584 1439 2293 
Q 1191 2003 1191 1497 
Q 1191 994 1439 701 
Q 1688 409 2113 409 
Q 2538 409 2786 701 
Q 3034 994 3034 1497 
Q 3034 2003 2786 2293 
Q 2538 2584 2113 2584 
z
M 3366 4563 
L 3366 3988 
Q 3128 4100 2886 4159 
Q 2644 4219 2406 4219 
Q 1781 4219 1451 3797 
Q 1122 3375 1075 2522 
Q 1259 2794 1537 2939 
Q 1816 3084 2150 3084 
Q 2853 3084 3261 2657 
Q 3669 2231 3669 1497 
Q 3669 778 3244 343 
Q 2819 -91 2113 -91 
Q 1303 -91 875 529 
Q 447 1150 447 2328 
Q 447 3434 972 4092 
Q 1497 4750 2381 4750 
Q 2619 4750 2861 4703 
Q 3103 4656 3366 4563 
z
" id="DejaVuSans-36" transform="scale(0.015625)"/>
       </defs>
       <use xlink:href="#DejaVuSans-32"/>
       <use x="63.623047" xlink:href="#DejaVuSans-37"/>
       <use x="127.246094" xlink:href="#DejaVuSans-2e"/>
       <use x="159.033203" xlink:href="#DejaVuSans-30"/>
       <use x="222.65625" xlink:href="#DejaVuSans-36"/>
       <use x="286.279297" xlink:href="#DejaVuSans-2e"/>
       <use x="318.066406" xlink:href="#DejaVuSans-32"/>
       <use x="381.689453" xlink:href="#DejaVuSans-30"/>
       <use x="445.3125" xlink:href="#DejaVuSans-32"/>
       <use x="508.935547" xlink:href="#DejaVuSans-30"/>
      </g>
     </g>
    </g>
    <g id="xtick_6">
     <g id="line2d_11">
      <path clip-path="url(#pffc3ab5a50)" d="M 251.684855 493.286013 
L 251.684855 29.118125 
" style="fill:none;stroke:#cccccc;stroke-linecap:round;"/>
     </g>
     <g id="line2d_12">
      <g>
       <use style="fill:#262626;stroke:#262626;stroke-width:1.25;" x="251.684855" xlink:href="#mea923fe864" y="493.286013"/>
      </g>
     </g>
     <g id="text_6">
      <!-- 25.07.2020 -->
      <g style="fill:#262626;" transform="translate(205.532326 553.231121)rotate(-45)scale(0.11 -0.11)">
       <use xlink:href="#DejaVuSans-32"/>
       <use x="63.623047" xlink:href="#DejaVuSans-35"/>
       <use x="127.246094" xlink:href="#DejaVuSans-2e"/>
       <use x="159.033203" xlink:href="#DejaVuSans-30"/>
       <use x="222.65625" xlink:href="#DejaVuSans-37"/>
       <use x="286.279297" xlink:href="#DejaVuSans-2e"/>
       <use x="318.066406" xlink:href="#DejaVuSans-32"/>
       <use x="381.689453" xlink:href="#DejaVuSans-30"/>
       <use x="445.3125" xlink:href="#DejaVuSans-32"/>
       <use x="508.935547" xlink:href="#DejaVuSans-30"/>
      </g>
     </g>
    </g>
    <g id="xtick_7">
     <g id="line2d_13">
      <path clip-path="url(#pffc3ab5a50)" d="M 281.952503 493.286013 
L 281.952503 29.118125 
" style="fill:none;stroke:#cccccc;stroke-linecap:round;"/>
     </g>
     <g id="line2d_14">
      <g>
       <use style="fill:#262626;stroke:#262626;stroke-width:1.25;" x="281.952503" xlink:href="#mea923fe864" y="493.286013"/>
      </g>
     </g>
     <g id="text_7">
      <!-- 22.08.2020 -->
      <g style="fill:#262626;" transform="translate(235.799975 553.231121)rotate(-45)scale(0.11 -0.11)">
       <defs>
        <path d="M 2034 2216 
Q 1584 2216 1326 1975 
Q 1069 1734 1069 1313 
Q 1069 891 1326 650 
Q 1584 409 2034 409 
Q 2484 409 2743 651 
Q 3003 894 3003 1313 
Q 3003 1734 2745 1975 
Q 2488 2216 2034 2216 
z
M 1403 2484 
Q 997 2584 770 2862 
Q 544 3141 544 3541 
Q 544 4100 942 4425 
Q 1341 4750 2034 4750 
Q 2731 4750 3128 4425 
Q 3525 4100 3525 3541 
Q 3525 3141 3298 2862 
Q 3072 2584 2669 2484 
Q 3125 2378 3379 2068 
Q 3634 1759 3634 1313 
Q 3634 634 3220 271 
Q 2806 -91 2034 -91 
Q 1263 -91 848 271 
Q 434 634 434 1313 
Q 434 1759 690 2068 
Q 947 2378 1403 2484 
z
M 1172 3481 
Q 1172 3119 1398 2916 
Q 1625 2713 2034 2713 
Q 2441 2713 2670 2916 
Q 2900 3119 2900 3481 
Q 2900 3844 2670 4047 
Q 2441 4250 2034 4250 
Q 1625 4250 1398 4047 
Q 1172 3844 1172 3481 
z
" id="DejaVuSans-38" transform="scale(0.015625)"/>
       </defs>
       <use xlink:href="#DejaVuSans-32"/>
       <use x="63.623047" xlink:href="#DejaVuSans-32"/>
       <use x="127.246094" xlink:href="#DejaVuSans-2e"/>
       <use x="159.033203" xlink:href="#DejaVuSans-30"/>
       <use x="222.65625" xlink:href="#DejaVuSans-38"/>
       <use x="286.279297" xlink:href="#DejaVuSans-2e"/>
       <use x="318.066406" xlink:href="#DejaVuSans-32"/>
       <use x="381.689453" xlink:href="#DejaVuSans-30"/>
       <use x="445.3125" xlink:href="#DejaVuSans-32"/>
       <use x="508.935547" xlink:href="#DejaVuSans-30"/>
      </g>
     </g>
    </g>
    <g id="xtick_8">
     <g id="line2d_15">
      <path clip-path="url(#pffc3ab5a50)" d="M 312.220151 493.286013 
L 312.220151 29.118125 
" style="fill:none;stroke:#cccccc;stroke-linecap:round;"/>
     </g>
     <g id="line2d_16">
      <g>
       <use style="fill:#262626;stroke:#262626;stroke-width:1.25;" x="312.220151" xlink:href="#mea923fe864" y="493.286013"/>
      </g>
     </g>
     <g id="text_8">
      <!-- 19.09.2020 -->
      <g style="fill:#262626;" transform="translate(266.067623 553.231121)rotate(-45)scale(0.11 -0.11)">
       <defs>
        <path d="M 794 531 
L 1825 531 
L 1825 4091 
L 703 3866 
L 703 4441 
L 1819 4666 
L 2450 4666 
L 2450 531 
L 3481 531 
L 3481 0 
L 794 0 
L 794 531 
z
" id="DejaVuSans-31" transform="scale(0.015625)"/>
        <path d="M 703 97 
L 703 672 
Q 941 559 1184 500 
Q 1428 441 1663 441 
Q 2288 441 2617 861 
Q 2947 1281 2994 2138 
Q 2813 1869 2534 1725 
Q 2256 1581 1919 1581 
Q 1219 1581 811 2004 
Q 403 2428 403 3163 
Q 403 3881 828 4315 
Q 1253 4750 1959 4750 
Q 2769 4750 3195 4129 
Q 3622 3509 3622 2328 
Q 3622 1225 3098 567 
Q 2575 -91 1691 -91 
Q 1453 -91 1209 -44 
Q 966 3 703 97 
z
M 1959 2075 
Q 2384 2075 2632 2365 
Q 2881 2656 2881 3163 
Q 2881 3666 2632 3958 
Q 2384 4250 1959 4250 
Q 1534 4250 1286 3958 
Q 1038 3666 1038 3163 
Q 1038 2656 1286 2365 
Q 1534 2075 1959 2075 
z
" id="DejaVuSans-39" transform="scale(0.015625)"/>
       </defs>
       <use xlink:href="#DejaVuSans-31"/>
       <use x="63.623047" xlink:href="#DejaVuSans-39"/>
       <use x="127.246094" xlink:href="#DejaVuSans-2e"/>
       <use x="159.033203" xlink:href="#DejaVuSans-30"/>
       <use x="222.65625" xlink:href="#DejaVuSans-39"/>
       <use x="286.279297" xlink:href="#DejaVuSans-2e"/>
       <use x="318.066406" xlink:href="#DejaVuSans-32"/>
       <use x="381.689453" xlink:href="#DejaVuSans-30"/>
       <use x="445.3125" xlink:href="#DejaVuSans-32"/>
       <use x="508.935547" xlink:href="#DejaVuSans-30"/>
      </g>
     </g>
    </g>
    <g id="xtick_9">
     <g id="line2d_17">
      <path clip-path="url(#pffc3ab5a50)" d="M 342.487799 493.286013 
L 342.487799 29.118125 
" style="fill:none;stroke:#cccccc;stroke-linecap:round;"/>
     </g>
     <g id="line2d_18">
      <g>
       <use style="fill:#262626;stroke:#262626;stroke-width:1.25;" x="342.487799" xlink:href="#mea923fe864" y="493.286013"/>
      </g>
     </g>
     <g id="text_9">
      <!-- 17.10.2020 -->
      <g style="fill:#262626;" transform="translate(296.335271 553.231121)rotate(-45)scale(0.11 -0.11)">
       <use xlink:href="#DejaVuSans-31"/>
       <use x="63.623047" xlink:href="#DejaVuSans-37"/>
       <use x="127.246094" xlink:href="#DejaVuSans-2e"/>
       <use x="159.033203" xlink:href="#DejaVuSans-31"/>
       <use x="222.65625" xlink:href="#DejaVuSans-30"/>
       <use x="286.279297" xlink:href="#DejaVuSans-2e"/>
       <use x="318.066406" xlink:href="#DejaVuSans-32"/>
       <use x="381.689453" xlink:href="#DejaVuSans-30"/>
       <use x="445.3125" xlink:href="#DejaVuSans-32"/>
       <use x="508.935547" xlink:href="#DejaVuSans-30"/>
      </g>
     </g>
    </g>
    <g id="xtick_10">
     <g id="line2d_19">
      <path clip-path="url(#pffc3ab5a50)" d="M 372.755447 493.286013 
L 372.755447 29.118125 
" style="fill:none;stroke:#cccccc;stroke-linecap:round;"/>
     </g>
     <g id="line2d_20">
      <g>
       <use style="fill:#262626;stroke:#262626;stroke-width:1.25;" x="372.755447" xlink:href="#mea923fe864" y="493.286013"/>
      </g>
     </g>
     <g id="text_10">
      <!-- 14.11.2020 -->
      <g style="fill:#262626;" transform="translate(326.602919 553.231121)rotate(-45)scale(0.11 -0.11)">
       <use xlink:href="#DejaVuSans-31"/>
       <use x="63.623047" xlink:href="#DejaVuSans-34"/>
       <use x="127.246094" xlink:href="#DejaVuSans-2e"/>
       <use x="159.033203" xlink:href="#DejaVuSans-31"/>
       <use x="222.65625" xlink:href="#DejaVuSans-31"/>
       <use x="286.279297" xlink:href="#DejaVuSans-2e"/>
       <use x="318.066406" xlink:href="#DejaVuSans-32"/>
       <use x="381.689453" xlink:href="#DejaVuSans-30"/>
       <use x="445.3125" xlink:href="#DejaVuSans-32"/>
       <use x="508.935547" xlink:href="#DejaVuSans-30"/>
      </g>
     </g>
    </g>
    <g id="xtick_11">
     <g id="line2d_21">
      <path clip-path="url(#pffc3ab5a50)" d="M 403.023096 493.286013 
L 403.023096 29.118125 
" style="fill:none;stroke:#cccccc;stroke-linecap:round;"/>
     </g>
     <g id="line2d_22">
      <g>
       <use style="fill:#262626;stroke:#262626;stroke-width:1.25;" x="403.023096" xlink:href="#mea923fe864" y="493.286013"/>
      </g>
     </g>
     <g id="text_11">
      <!-- 12.12.2020 -->
      <g style="fill:#262626;" transform="translate(356.870567 553.231121)rotate(-45)scale(0.11 -0.11)">
       <use xlink:href="#DejaVuSans-31"/>
       <use x="63.623047" xlink:href="#DejaVuSans-32"/>
       <use x="127.246094" xlink:href="#DejaVuSans-2e"/>
       <use x="159.033203" xlink:href="#DejaVuSans-31"/>
       <use x="222.65625" xlink:href="#DejaVuSans-32"/>
       <use x="286.279297" xlink:href="#DejaVuSans-2e"/>
       <use x="318.066406" xlink:href="#DejaVuSans-32"/>
       <use x="381.689453" xlink:href="#DejaVuSans-30"/>
       <use x="445.3125" xlink:href="#DejaVuSans-32"/>
       <use x="508.935547" xlink:href="#DejaVuSans-30"/>
      </g>
     </g>
    </g>
    <g id="xtick_12">
     <g id="line2d_23">
      <path clip-path="url(#pffc3ab5a50)" d="M 433.290744 493.286013 
L 433.290744 29.118125 
" style="fill:none;stroke:#cccccc;stroke-linecap:round;"/>
     </g>
     <g id="line2d_24">
      <g>
       <use style="fill:#262626;stroke:#262626;stroke-width:1.25;" x="433.290744" xlink:href="#mea923fe864" y="493.286013"/>
      </g>
     </g>
     <g id="text_12">
      <!-- 09.01.2021 -->
      <g style="fill:#262626;" transform="translate(387.138216 553.231121)rotate(-45)scale(0.11 -0.11)">
       <use xlink:href="#DejaVuSans-30"/>
       <use x="63.623047" xlink:href="#DejaVuSans-39"/>
       <use x="127.246094" xlink:href="#DejaVuSans-2e"/>
       <use x="159.033203" xlink:href="#DejaVuSans-30"/>
       <use x="222.65625" xlink:href="#DejaVuSans-31"/>
       <use x="286.279297" xlink:href="#DejaVuSans-2e"/>
       <use x="318.066406" xlink:href="#DejaVuSans-32"/>
       <use x="381.689453" xlink:href="#DejaVuSans-30"/>
       <use x="445.3125" xlink:href="#DejaVuSans-32"/>
       <use x="508.935547" xlink:href="#DejaVuSans-31"/>
      </g>
     </g>
    </g>
    <g id="xtick_13">
     <g id="line2d_25">
      <path clip-path="url(#pffc3ab5a50)" d="M 463.558392 493.286013 
L 463.558392 29.118125 
" style="fill:none;stroke:#cccccc;stroke-linecap:round;"/>
     </g>
     <g id="line2d_26">
      <g>
       <use style="fill:#262626;stroke:#262626;stroke-width:1.25;" x="463.558392" xlink:href="#mea923fe864" y="493.286013"/>
      </g>
     </g>
     <g id="text_13">
      <!-- 06.02.2021 -->
      <g style="fill:#262626;" transform="translate(417.405864 553.231121)rotate(-45)scale(0.11 -0.11)">
       <use xlink:href="#DejaVuSans-30"/>
       <use x="63.623047" xlink:href="#DejaVuSans-36"/>
       <use x="127.246094" xlink:href="#DejaVuSans-2e"/>
       <use x="159.033203" xlink:href="#DejaVuSans-30"/>
       <use x="222.65625" xlink:href="#DejaVuSans-32"/>
       <use x="286.279297" xlink:href="#DejaVuSans-2e"/>
       <use x="318.066406" xlink:href="#DejaVuSans-32"/>
       <use x="381.689453" xlink:href="#DejaVuSans-30"/>
       <use x="445.3125" xlink:href="#DejaVuSans-32"/>
       <use x="508.935547" xlink:href="#DejaVuSans-31"/>
      </g>
     </g>
    </g>
    <g id="xtick_14">
     <g id="line2d_27">
      <path clip-path="url(#pffc3ab5a50)" d="M 493.82604 493.286013 
L 493.82604 29.118125 
" style="fill:none;stroke:#cccccc;stroke-linecap:round;"/>
     </g>
     <g id="line2d_28">
      <g>
       <use style="fill:#262626;stroke:#262626;stroke-width:1.25;" x="493.82604" xlink:href="#mea923fe864" y="493.286013"/>
      </g>
     </g>
     <g id="text_14">
      <!-- 06.03.2021 -->
      <g style="fill:#262626;" transform="translate(447.673512 553.231121)rotate(-45)scale(0.11 -0.11)">
       <use xlink:href="#DejaVuSans-30"/>
       <use x="63.623047" xlink:href="#DejaVuSans-36"/>
       <use x="127.246094" xlink:href="#DejaVuSans-2e"/>
       <use x="159.033203" xlink:href="#DejaVuSans-30"/>
       <use x="222.65625" xlink:href="#DejaVuSans-33"/>
       <use x="286.279297" xlink:href="#DejaVuSans-2e"/>
       <use x="318.066406" xlink:href="#DejaVuSans-32"/>
       <use x="381.689453" xlink:href="#DejaVuSans-30"/>
       <use x="445.3125" xlink:href="#DejaVuSans-32"/>
       <use x="508.935547" xlink:href="#DejaVuSans-31"/>
      </g>
     </g>
    </g>
    <g id="xtick_15">
     <g id="line2d_29">
      <path clip-path="url(#pffc3ab5a50)" d="M 524.093688 493.286013 
L 524.093688 29.118125 
" style="fill:none;stroke:#cccccc;stroke-linecap:round;"/>
     </g>
     <g id="line2d_30">
      <g>
       <use style="fill:#262626;stroke:#262626;stroke-width:1.25;" x="524.093688" xlink:href="#mea923fe864" y="493.286013"/>
      </g>
     </g>
     <g id="text_15">
      <!-- 03.04.2021 -->
      <g style="fill:#262626;" transform="translate(477.94116 553.231121)rotate(-45)scale(0.11 -0.11)">
       <use xlink:href="#DejaVuSans-30"/>
       <use x="63.623047" xlink:href="#DejaVuSans-33"/>
       <use x="127.246094" xlink:href="#DejaVuSans-2e"/>
       <use x="159.033203" xlink:href="#DejaVuSans-30"/>
       <use x="222.65625" xlink:href="#DejaVuSans-34"/>
       <use x="286.279297" xlink:href="#DejaVuSans-2e"/>
       <use x="318.066406" xlink:href="#DejaVuSans-32"/>
       <use x="381.689453" xlink:href="#DejaVuSans-30"/>
       <use x="445.3125" xlink:href="#DejaVuSans-32"/>
       <use x="508.935547" xlink:href="#DejaVuSans-31"/>
      </g>
     </g>
    </g>
    <g id="xtick_16">
     <g id="line2d_31">
      <path clip-path="url(#pffc3ab5a50)" d="M 554.361336 493.286013 
L 554.361336 29.118125 
" style="fill:none;stroke:#cccccc;stroke-linecap:round;"/>
     </g>
     <g id="line2d_32">
      <g>
       <use style="fill:#262626;stroke:#262626;stroke-width:1.25;" x="554.361336" xlink:href="#mea923fe864" y="493.286013"/>
      </g>
     </g>
     <g id="text_16">
      <!-- 01.05.2021 -->
      <g style="fill:#262626;" transform="translate(508.208808 553.231121)rotate(-45)scale(0.11 -0.11)">
       <use xlink:href="#DejaVuSans-30"/>
       <use x="63.623047" xlink:href="#DejaVuSans-31"/>
       <use x="127.246094" xlink:href="#DejaVuSans-2e"/>
       <use x="159.033203" xlink:href="#DejaVuSans-30"/>
       <use x="222.65625" xlink:href="#DejaVuSans-35"/>
       <use x="286.279297" xlink:href="#DejaVuSans-2e"/>
       <use x="318.066406" xlink:href="#DejaVuSans-32"/>
       <use x="381.689453" xlink:href="#DejaVuSans-30"/>
       <use x="445.3125" xlink:href="#DejaVuSans-32"/>
       <use x="508.935547" xlink:href="#DejaVuSans-31"/>
      </g>
     </g>
    </g>
    <g id="xtick_17">
     <g id="line2d_33">
      <path clip-path="url(#pffc3ab5a50)" d="M 584.628985 493.286013 
L 584.628985 29.118125 
" style="fill:none;stroke:#cccccc;stroke-linecap:round;"/>
     </g>
     <g id="line2d_34">
      <g>
       <use style="fill:#262626;stroke:#262626;stroke-width:1.25;" x="584.628985" xlink:href="#mea923fe864" y="493.286013"/>
      </g>
     </g>
     <g id="text_17">
      <!-- 29.05.2021 -->
      <g style="fill:#262626;" transform="translate(538.476457 553.231121)rotate(-45)scale(0.11 -0.11)">
       <use xlink:href="#DejaVuSans-32"/>
       <use x="63.623047" xlink:href="#DejaVuSans-39"/>
       <use x="127.246094" xlink:href="#DejaVuSans-2e"/>
       <use x="159.033203" xlink:href="#DejaVuSans-30"/>
       <use x="222.65625" xlink:href="#DejaVuSans-35"/>
       <use x="286.279297" xlink:href="#DejaVuSans-2e"/>
       <use x="318.066406" xlink:href="#DejaVuSans-32"/>
       <use x="381.689453" xlink:href="#DejaVuSans-30"/>
       <use x="445.3125" xlink:href="#DejaVuSans-32"/>
       <use x="508.935547" xlink:href="#DejaVuSans-31"/>
      </g>
     </g>
    </g>
    <g id="xtick_18">
     <g id="line2d_35">
      <path clip-path="url(#pffc3ab5a50)" d="M 614.896633 493.286013 
L 614.896633 29.118125 
" style="fill:none;stroke:#cccccc;stroke-linecap:round;"/>
     </g>
     <g id="line2d_36">
      <g>
       <use style="fill:#262626;stroke:#262626;stroke-width:1.25;" x="614.896633" xlink:href="#mea923fe864" y="493.286013"/>
      </g>
     </g>
     <g id="text_18">
      <!-- 26.06.2021 -->
      <g style="fill:#262626;" transform="translate(568.744105 553.231121)rotate(-45)scale(0.11 -0.11)">
       <use xlink:href="#DejaVuSans-32"/>
       <use x="63.623047" xlink:href="#DejaVuSans-36"/>
       <use x="127.246094" xlink:href="#DejaVuSans-2e"/>
       <use x="159.033203" xlink:href="#DejaVuSans-30"/>
       <use x="222.65625" xlink:href="#DejaVuSans-36"/>
       <use x="286.279297" xlink:href="#DejaVuSans-2e"/>
       <use x="318.066406" xlink:href="#DejaVuSans-32"/>
       <use x="381.689453" xlink:href="#DejaVuSans-30"/>
       <use x="445.3125" xlink:href="#DejaVuSans-32"/>
       <use x="508.935547" xlink:href="#DejaVuSans-31"/>
      </g>
     </g>
    </g>
    <g id="xtick_19">
     <g id="line2d_37">
      <path clip-path="url(#pffc3ab5a50)" d="M 645.164281 493.286013 
L 645.164281 29.118125 
" style="fill:none;stroke:#cccccc;stroke-linecap:round;"/>
     </g>
     <g id="line2d_38">
      <g>
       <use style="fill:#262626;stroke:#262626;stroke-width:1.25;" x="645.164281" xlink:href="#mea923fe864" y="493.286013"/>
      </g>
     </g>
     <g id="text_19">
      <!-- 24.07.2021 -->
      <g style="fill:#262626;" transform="translate(599.011753 553.231121)rotate(-45)scale(0.11 -0.11)">
       <use xlink:href="#DejaVuSans-32"/>
       <use x="63.623047" xlink:href="#DejaVuSans-34"/>
       <use x="127.246094" xlink:href="#DejaVuSans-2e"/>
       <use x="159.033203" xlink:href="#DejaVuSans-30"/>
       <use x="222.65625" xlink:href="#DejaVuSans-37"/>
       <use x="286.279297" xlink:href="#DejaVuSans-2e"/>
       <use x="318.066406" xlink:href="#DejaVuSans-32"/>
       <use x="381.689453" xlink:href="#DejaVuSans-30"/>
       <use x="445.3125" xlink:href="#DejaVuSans-32"/>
       <use x="508.935547" xlink:href="#DejaVuSans-31"/>
      </g>
     </g>
    </g>
    <g id="xtick_20">
     <g id="line2d_39">
      <path clip-path="url(#pffc3ab5a50)" d="M 675.431929 493.286013 
L 675.431929 29.118125 
" style="fill:none;stroke:#cccccc;stroke-linecap:round;"/>
     </g>
     <g id="line2d_40">
      <g>
       <use style="fill:#262626;stroke:#262626;stroke-width:1.25;" x="675.431929" xlink:href="#mea923fe864" y="493.286013"/>
      </g>
     </g>
     <g id="text_20">
      <!-- 21.08.2021 -->
      <g style="fill:#262626;" transform="translate(629.279401 553.231121)rotate(-45)scale(0.11 -0.11)">
       <use xlink:href="#DejaVuSans-32"/>
       <use x="63.623047" xlink:href="#DejaVuSans-31"/>
       <use x="127.246094" xlink:href="#DejaVuSans-2e"/>
       <use x="159.033203" xlink:href="#DejaVuSans-30"/>
       <use x="222.65625" xlink:href="#DejaVuSans-38"/>
       <use x="286.279297" xlink:href="#DejaVuSans-2e"/>
       <use x="318.066406" xlink:href="#DejaVuSans-32"/>
       <use x="381.689453" xlink:href="#DejaVuSans-30"/>
       <use x="445.3125" xlink:href="#DejaVuSans-32"/>
       <use x="508.935547" xlink:href="#DejaVuSans-31"/>
      </g>
     </g>
    </g>
    <g id="xtick_21">
     <g id="line2d_41">
      <path clip-path="url(#pffc3ab5a50)" d="M 705.699577 493.286013 
L 705.699577 29.118125 
" style="fill:none;stroke:#cccccc;stroke-linecap:round;"/>
     </g>
     <g id="line2d_42">
      <g>
       <use style="fill:#262626;stroke:#262626;stroke-width:1.25;" x="705.699577" xlink:href="#mea923fe864" y="493.286013"/>
      </g>
     </g>
     <g id="text_21">
      <!-- 18.09.2021 -->
      <g style="fill:#262626;" transform="translate(659.547049 553.231121)rotate(-45)scale(0.11 -0.11)">
       <use xlink:href="#DejaVuSans-31"/>
       <use x="63.623047" xlink:href="#DejaVuSans-38"/>
       <use x="127.246094" xlink:href="#DejaVuSans-2e"/>
       <use x="159.033203" xlink:href="#DejaVuSans-30"/>
       <use x="222.65625" xlink:href="#DejaVuSans-39"/>
       <use x="286.279297" xlink:href="#DejaVuSans-2e"/>
       <use x="318.066406" xlink:href="#DejaVuSans-32"/>
       <use x="381.689453" xlink:href="#DejaVuSans-30"/>
       <use x="445.3125" xlink:href="#DejaVuSans-32"/>
       <use x="508.935547" xlink:href="#DejaVuSans-31"/>
      </g>
     </g>
    </g>
    <g id="xtick_22">
     <g id="line2d_43">
      <path clip-path="url(#pffc3ab5a50)" d="M 735.967226 493.286013 
L 735.967226 29.118125 
" style="fill:none;stroke:#cccccc;stroke-linecap:round;"/>
     </g>
     <g id="line2d_44">
      <g>
       <use style="fill:#262626;stroke:#262626;stroke-width:1.25;" x="735.967226" xlink:href="#mea923fe864" y="493.286013"/>
      </g>
     </g>
     <g id="text_22">
      <!-- 16.10.2021 -->
      <g style="fill:#262626;" transform="translate(689.814697 553.231121)rotate(-45)scale(0.11 -0.11)">
       <use xlink:href="#DejaVuSans-31"/>
       <use x="63.623047" xlink:href="#DejaVuSans-36"/>
       <use x="127.246094" xlink:href="#DejaVuSans-2e"/>
       <use x="159.033203" xlink:href="#DejaVuSans-31"/>
       <use x="222.65625" xlink:href="#DejaVuSans-30"/>
       <use x="286.279297" xlink:href="#DejaVuSans-2e"/>
       <use x="318.066406" xlink:href="#DejaVuSans-32"/>
       <use x="381.689453" xlink:href="#DejaVuSans-30"/>
       <use x="445.3125" xlink:href="#DejaVuSans-32"/>
       <use x="508.935547" xlink:href="#DejaVuSans-31"/>
      </g>
     </g>
    </g>
    <g id="xtick_23">
     <g id="line2d_45">
      <defs>
       <path d="M 0 0 
L 0 4 
" id="mf816d7c2df" style="stroke:#262626;"/>
      </defs>
      <g>
       <use style="fill:#262626;stroke:#262626;" x="70.078965" xlink:href="#mf816d7c2df" y="493.286013"/>
      </g>
     </g>
    </g>
    <g id="xtick_24">
     <g id="line2d_46">
      <g>
       <use style="fill:#262626;stroke:#262626;" x="77.645877" xlink:href="#mf816d7c2df" y="493.286013"/>
      </g>
     </g>
    </g>
    <g id="xtick_25">
     <g id="line2d_47">
      <g>
       <use style="fill:#262626;stroke:#262626;" x="85.21279" xlink:href="#mf816d7c2df" y="493.286013"/>
      </g>
     </g>
    </g>
    <g id="xtick_26">
     <g id="line2d_48">
      <g>
       <use style="fill:#262626;stroke:#262626;" x="92.779702" xlink:href="#mf816d7c2df" y="493.286013"/>
      </g>
     </g>
    </g>
    <g id="xtick_27">
     <g id="line2d_49">
      <g>
       <use style="fill:#262626;stroke:#262626;" x="107.913526" xlink:href="#mf816d7c2df" y="493.286013"/>
      </g>
     </g>
    </g>
    <g id="xtick_28">
     <g id="line2d_50">
      <g>
       <use style="fill:#262626;stroke:#262626;" x="115.480438" xlink:href="#mf816d7c2df" y="493.286013"/>
      </g>
     </g>
    </g>
    <g id="xtick_29">
     <g id="line2d_51">
      <g>
       <use style="fill:#262626;stroke:#262626;" x="123.04735" xlink:href="#mf816d7c2df" y="493.286013"/>
      </g>
     </g>
    </g>
    <g id="xtick_30">
     <g id="line2d_52">
      <g>
       <use style="fill:#262626;stroke:#262626;" x="138.181174" xlink:href="#mf816d7c2df" y="493.286013"/>
      </g>
     </g>
    </g>
    <g id="xtick_31">
     <g id="line2d_53">
      <g>
       <use style="fill:#262626;stroke:#262626;" x="145.748086" xlink:href="#mf816d7c2df" y="493.286013"/>
      </g>
     </g>
    </g>
    <g id="xtick_32">
     <g id="line2d_54">
      <g>
       <use style="fill:#262626;stroke:#262626;" x="153.314998" xlink:href="#mf816d7c2df" y="493.286013"/>
      </g>
     </g>
    </g>
    <g id="xtick_33">
     <g id="line2d_55">
      <g>
       <use style="fill:#262626;stroke:#262626;" x="168.448822" xlink:href="#mf816d7c2df" y="493.286013"/>
      </g>
     </g>
    </g>
    <g id="xtick_34">
     <g id="line2d_56">
      <g>
       <use style="fill:#262626;stroke:#262626;" x="176.015734" xlink:href="#mf816d7c2df" y="493.286013"/>
      </g>
     </g>
    </g>
    <g id="xtick_35">
     <g id="line2d_57">
      <g>
       <use style="fill:#262626;stroke:#262626;" x="183.582646" xlink:href="#mf816d7c2df" y="493.286013"/>
      </g>
     </g>
    </g>
    <g id="xtick_36">
     <g id="line2d_58">
      <g>
       <use style="fill:#262626;stroke:#262626;" x="198.71647" xlink:href="#mf816d7c2df" y="493.286013"/>
      </g>
     </g>
    </g>
    <g id="xtick_37">
     <g id="line2d_59">
      <g>
       <use style="fill:#262626;stroke:#262626;" x="206.283382" xlink:href="#mf816d7c2df" y="493.286013"/>
      </g>
     </g>
    </g>
    <g id="xtick_38">
     <g id="line2d_60">
      <g>
       <use style="fill:#262626;stroke:#262626;" x="213.850294" xlink:href="#mf816d7c2df" y="493.286013"/>
      </g>
     </g>
    </g>
    <g id="xtick_39">
     <g id="line2d_61">
      <g>
       <use style="fill:#262626;stroke:#262626;" x="228.984118" xlink:href="#mf816d7c2df" y="493.286013"/>
      </g>
     </g>
    </g>
    <g id="xtick_40">
     <g id="line2d_62">
      <g>
       <use style="fill:#262626;stroke:#262626;" x="236.55103" xlink:href="#mf816d7c2df" y="493.286013"/>
      </g>
     </g>
    </g>
    <g id="xtick_41">
     <g id="line2d_63">
      <g>
       <use style="fill:#262626;stroke:#262626;" x="244.117943" xlink:href="#mf816d7c2df" y="493.286013"/>
      </g>
     </g>
    </g>
    <g id="xtick_42">
     <g id="line2d_64">
      <g>
       <use style="fill:#262626;stroke:#262626;" x="259.251767" xlink:href="#mf816d7c2df" y="493.286013"/>
      </g>
     </g>
    </g>
    <g id="xtick_43">
     <g id="line2d_65">
      <g>
       <use style="fill:#262626;stroke:#262626;" x="266.818679" xlink:href="#mf816d7c2df" y="493.286013"/>
      </g>
     </g>
    </g>
    <g id="xtick_44">
     <g id="line2d_66">
      <g>
       <use style="fill:#262626;stroke:#262626;" x="274.385591" xlink:href="#mf816d7c2df" y="493.286013"/>
      </g>
     </g>
    </g>
    <g id="xtick_45">
     <g id="line2d_67">
      <g>
       <use style="fill:#262626;stroke:#262626;" x="289.519415" xlink:href="#mf816d7c2df" y="493.286013"/>
      </g>
     </g>
    </g>
    <g id="xtick_46">
     <g id="line2d_68">
      <g>
       <use style="fill:#262626;stroke:#262626;" x="297.086327" xlink:href="#mf816d7c2df" y="493.286013"/>
      </g>
     </g>
    </g>
    <g id="xtick_47">
     <g id="line2d_69">
      <g>
       <use style="fill:#262626;stroke:#262626;" x="304.653239" xlink:href="#mf816d7c2df" y="493.286013"/>
      </g>
     </g>
    </g>
    <g id="xtick_48">
     <g id="line2d_70">
      <g>
       <use style="fill:#262626;stroke:#262626;" x="319.787063" xlink:href="#mf816d7c2df" y="493.286013"/>
      </g>
     </g>
    </g>
    <g id="xtick_49">
     <g id="line2d_71">
      <g>
       <use style="fill:#262626;stroke:#262626;" x="327.353975" xlink:href="#mf816d7c2df" y="493.286013"/>
      </g>
     </g>
    </g>
    <g id="xtick_50">
     <g id="line2d_72">
      <g>
       <use style="fill:#262626;stroke:#262626;" x="334.920887" xlink:href="#mf816d7c2df" y="493.286013"/>
      </g>
     </g>
    </g>
    <g id="xtick_51">
     <g id="line2d_73">
      <g>
       <use style="fill:#262626;stroke:#262626;" x="350.054711" xlink:href="#mf816d7c2df" y="493.286013"/>
      </g>
     </g>
    </g>
    <g id="xtick_52">
     <g id="line2d_74">
      <g>
       <use style="fill:#262626;stroke:#262626;" x="357.621623" xlink:href="#mf816d7c2df" y="493.286013"/>
      </g>
     </g>
    </g>
    <g id="xtick_53">
     <g id="line2d_75">
      <g>
       <use style="fill:#262626;stroke:#262626;" x="365.188535" xlink:href="#mf816d7c2df" y="493.286013"/>
      </g>
     </g>
    </g>
    <g id="xtick_54">
     <g id="line2d_76">
      <g>
       <use style="fill:#262626;stroke:#262626;" x="380.322359" xlink:href="#mf816d7c2df" y="493.286013"/>
      </g>
     </g>
    </g>
    <g id="xtick_55">
     <g id="line2d_77">
      <g>
       <use style="fill:#262626;stroke:#262626;" x="387.889271" xlink:href="#mf816d7c2df" y="493.286013"/>
      </g>
     </g>
    </g>
    <g id="xtick_56">
     <g id="line2d_78">
      <g>
       <use style="fill:#262626;stroke:#262626;" x="395.456183" xlink:href="#mf816d7c2df" y="493.286013"/>
      </g>
     </g>
    </g>
    <g id="xtick_57">
     <g id="line2d_79">
      <g>
       <use style="fill:#262626;stroke:#262626;" x="410.590008" xlink:href="#mf816d7c2df" y="493.286013"/>
      </g>
     </g>
    </g>
    <g id="xtick_58">
     <g id="line2d_80">
      <g>
       <use style="fill:#262626;stroke:#262626;" x="418.15692" xlink:href="#mf816d7c2df" y="493.286013"/>
      </g>
     </g>
    </g>
    <g id="xtick_59">
     <g id="line2d_81">
      <g>
       <use style="fill:#262626;stroke:#262626;" x="425.723832" xlink:href="#mf816d7c2df" y="493.286013"/>
      </g>
     </g>
    </g>
    <g id="xtick_60">
     <g id="line2d_82">
      <g>
       <use style="fill:#262626;stroke:#262626;" x="440.857656" xlink:href="#mf816d7c2df" y="493.286013"/>
      </g>
     </g>
    </g>
    <g id="xtick_61">
     <g id="line2d_83">
      <g>
       <use style="fill:#262626;stroke:#262626;" x="448.424568" xlink:href="#mf816d7c2df" y="493.286013"/>
      </g>
     </g>
    </g>
    <g id="xtick_62">
     <g id="line2d_84">
      <g>
       <use style="fill:#262626;stroke:#262626;" x="455.99148" xlink:href="#mf816d7c2df" y="493.286013"/>
      </g>
     </g>
    </g>
    <g id="xtick_63">
     <g id="line2d_85">
      <g>
       <use style="fill:#262626;stroke:#262626;" x="471.125304" xlink:href="#mf816d7c2df" y="493.286013"/>
      </g>
     </g>
    </g>
    <g id="xtick_64">
     <g id="line2d_86">
      <g>
       <use style="fill:#262626;stroke:#262626;" x="478.692216" xlink:href="#mf816d7c2df" y="493.286013"/>
      </g>
     </g>
    </g>
    <g id="xtick_65">
     <g id="line2d_87">
      <g>
       <use style="fill:#262626;stroke:#262626;" x="486.259128" xlink:href="#mf816d7c2df" y="493.286013"/>
      </g>
     </g>
    </g>
    <g id="xtick_66">
     <g id="line2d_88">
      <g>
       <use style="fill:#262626;stroke:#262626;" x="501.392952" xlink:href="#mf816d7c2df" y="493.286013"/>
      </g>
     </g>
    </g>
    <g id="xtick_67">
     <g id="line2d_89">
      <g>
       <use style="fill:#262626;stroke:#262626;" x="508.959864" xlink:href="#mf816d7c2df" y="493.286013"/>
      </g>
     </g>
    </g>
    <g id="xtick_68">
     <g id="line2d_90">
      <g>
       <use style="fill:#262626;stroke:#262626;" x="516.526776" xlink:href="#mf816d7c2df" y="493.286013"/>
      </g>
     </g>
    </g>
    <g id="xtick_69">
     <g id="line2d_91">
      <g>
       <use style="fill:#262626;stroke:#262626;" x="531.6606" xlink:href="#mf816d7c2df" y="493.286013"/>
      </g>
     </g>
    </g>
    <g id="xtick_70">
     <g id="line2d_92">
      <g>
       <use style="fill:#262626;stroke:#262626;" x="539.227512" xlink:href="#mf816d7c2df" y="493.286013"/>
      </g>
     </g>
    </g>
    <g id="xtick_71">
     <g id="line2d_93">
      <g>
       <use style="fill:#262626;stroke:#262626;" x="546.794424" xlink:href="#mf816d7c2df" y="493.286013"/>
      </g>
     </g>
    </g>
    <g id="xtick_72">
     <g id="line2d_94">
      <g>
       <use style="fill:#262626;stroke:#262626;" x="561.928249" xlink:href="#mf816d7c2df" y="493.286013"/>
      </g>
     </g>
    </g>
    <g id="xtick_73">
     <g id="line2d_95">
      <g>
       <use style="fill:#262626;stroke:#262626;" x="569.495161" xlink:href="#mf816d7c2df" y="493.286013"/>
      </g>
     </g>
    </g>
    <g id="xtick_74">
     <g id="line2d_96">
      <g>
       <use style="fill:#262626;stroke:#262626;" x="577.062073" xlink:href="#mf816d7c2df" y="493.286013"/>
      </g>
     </g>
    </g>
    <g id="xtick_75">
     <g id="line2d_97">
      <g>
       <use style="fill:#262626;stroke:#262626;" x="592.195897" xlink:href="#mf816d7c2df" y="493.286013"/>
      </g>
     </g>
    </g>
    <g id="xtick_76">
     <g id="line2d_98">
      <g>
       <use style="fill:#262626;stroke:#262626;" x="599.762809" xlink:href="#mf816d7c2df" y="493.286013"/>
      </g>
     </g>
    </g>
    <g id="xtick_77">
     <g id="line2d_99">
      <g>
       <use style="fill:#262626;stroke:#262626;" x="607.329721" xlink:href="#mf816d7c2df" y="493.286013"/>
      </g>
     </g>
    </g>
    <g id="xtick_78">
     <g id="line2d_100">
      <g>
       <use style="fill:#262626;stroke:#262626;" x="622.463545" xlink:href="#mf816d7c2df" y="493.286013"/>
      </g>
     </g>
    </g>
    <g id="xtick_79">
     <g id="line2d_101">
      <g>
       <use style="fill:#262626;stroke:#262626;" x="630.030457" xlink:href="#mf816d7c2df" y="493.286013"/>
      </g>
     </g>
    </g>
    <g id="xtick_80">
     <g id="line2d_102">
      <g>
       <use style="fill:#262626;stroke:#262626;" x="637.597369" xlink:href="#mf816d7c2df" y="493.286013"/>
      </g>
     </g>
    </g>
    <g id="xtick_81">
     <g id="line2d_103">
      <g>
       <use style="fill:#262626;stroke:#262626;" x="652.731193" xlink:href="#mf816d7c2df" y="493.286013"/>
      </g>
     </g>
    </g>
    <g id="xtick_82">
     <g id="line2d_104">
      <g>
       <use style="fill:#262626;stroke:#262626;" x="660.298105" xlink:href="#mf816d7c2df" y="493.286013"/>
      </g>
     </g>
    </g>
    <g id="xtick_83">
     <g id="line2d_105">
      <g>
       <use style="fill:#262626;stroke:#262626;" x="667.865017" xlink:href="#mf816d7c2df" y="493.286013"/>
      </g>
     </g>
    </g>
    <g id="xtick_84">
     <g id="line2d_106">
      <g>
       <use style="fill:#262626;stroke:#262626;" x="682.998841" xlink:href="#mf816d7c2df" y="493.286013"/>
      </g>
     </g>
    </g>
    <g id="xtick_85">
     <g id="line2d_107">
      <g>
       <use style="fill:#262626;stroke:#262626;" x="690.565753" xlink:href="#mf816d7c2df" y="493.286013"/>
      </g>
     </g>
    </g>
    <g id="xtick_86">
     <g id="line2d_108">
      <g>
       <use style="fill:#262626;stroke:#262626;" x="698.132665" xlink:href="#mf816d7c2df" y="493.286013"/>
      </g>
     </g>
    </g>
    <g id="xtick_87">
     <g id="line2d_109">
      <g>
       <use style="fill:#262626;stroke:#262626;" x="713.266489" xlink:href="#mf816d7c2df" y="493.286013"/>
      </g>
     </g>
    </g>
    <g id="xtick_88">
     <g id="line2d_110">
      <g>
       <use style="fill:#262626;stroke:#262626;" x="720.833402" xlink:href="#mf816d7c2df" y="493.286013"/>
      </g>
     </g>
    </g>
    <g id="xtick_89">
     <g id="line2d_111">
      <g>
       <use style="fill:#262626;stroke:#262626;" x="728.400314" xlink:href="#mf816d7c2df" y="493.286013"/>
      </g>
     </g>
    </g>
    <g id="xtick_90">
     <g id="line2d_112">
      <g>
       <use style="fill:#262626;stroke:#262626;" x="743.534138" xlink:href="#mf816d7c2df" y="493.286013"/>
      </g>
     </g>
    </g>
    <g id="xtick_91">
     <g id="line2d_113">
      <g>
       <use style="fill:#262626;stroke:#262626;" x="751.10105" xlink:href="#mf816d7c2df" y="493.286013"/>
      </g>
     </g>
    </g>
    <g id="xtick_92">
     <g id="line2d_114">
      <g>
       <use style="fill:#262626;stroke:#262626;" x="758.667962" xlink:href="#mf816d7c2df" y="493.286013"/>
      </g>
     </g>
    </g>
    <g id="xtick_93">
     <g id="line2d_115">
      <g>
       <use style="fill:#262626;stroke:#262626;" x="766.234874" xlink:href="#mf816d7c2df" y="493.286013"/>
      </g>
     </g>
    </g>
    <g id="xtick_94">
     <g id="line2d_116">
      <g>
       <use style="fill:#262626;stroke:#262626;" x="773.801786" xlink:href="#mf816d7c2df" y="493.286013"/>
      </g>
     </g>
    </g>
    <g id="xtick_95">
     <g id="line2d_117">
      <g>
       <use style="fill:#262626;stroke:#262626;" x="781.368698" xlink:href="#mf816d7c2df" y="493.286013"/>
      </g>
     </g>
    </g>
    <g id="xtick_96">
     <g id="line2d_118">
      <g>
       <use style="fill:#262626;stroke:#262626;" x="788.93561" xlink:href="#mf816d7c2df" y="493.286013"/>
      </g>
     </g>
    </g>
    <g id="xtick_97">
     <g id="line2d_119">
      <g>
       <use style="fill:#262626;stroke:#262626;" x="796.502522" xlink:href="#mf816d7c2df" y="493.286013"/>
      </g>
     </g>
    </g>
    <g id="text_23">
     <!-- Date -->
     <g style="fill:#262626;" transform="translate(418.409312 567.966863)scale(0.12 -0.12)">
      <defs>
       <path d="M 1259 4147 
L 1259 519 
L 2022 519 
Q 2988 519 3436 956 
Q 3884 1394 3884 2338 
Q 3884 3275 3436 3711 
Q 2988 4147 2022 4147 
L 1259 4147 
z
M 628 4666 
L 1925 4666 
Q 3281 4666 3915 4102 
Q 4550 3538 4550 2338 
Q 4550 1131 3912 565 
Q 3275 0 1925 0 
L 628 0 
L 628 4666 
z
" id="DejaVuSans-44" transform="scale(0.015625)"/>
       <path d="M 2194 1759 
Q 1497 1759 1228 1600 
Q 959 1441 959 1056 
Q 959 750 1161 570 
Q 1363 391 1709 391 
Q 2188 391 2477 730 
Q 2766 1069 2766 1631 
L 2766 1759 
L 2194 1759 
z
M 3341 1997 
L 3341 0 
L 2766 0 
L 2766 531 
Q 2569 213 2275 61 
Q 1981 -91 1556 -91 
Q 1019 -91 701 211 
Q 384 513 384 1019 
Q 384 1609 779 1909 
Q 1175 2209 1959 2209 
L 2766 2209 
L 2766 2266 
Q 2766 2663 2505 2880 
Q 2244 3097 1772 3097 
Q 1472 3097 1187 3025 
Q 903 2953 641 2809 
L 641 3341 
Q 956 3463 1253 3523 
Q 1550 3584 1831 3584 
Q 2591 3584 2966 3190 
Q 3341 2797 3341 1997 
z
" id="DejaVuSans-61" transform="scale(0.015625)"/>
       <path d="M 1172 4494 
L 1172 3500 
L 2356 3500 
L 2356 3053 
L 1172 3053 
L 1172 1153 
Q 1172 725 1289 603 
Q 1406 481 1766 481 
L 2356 481 
L 2356 0 
L 1766 0 
Q 1100 0 847 248 
Q 594 497 594 1153 
L 594 3053 
L 172 3053 
L 172 3500 
L 594 3500 
L 594 4494 
L 1172 4494 
z
" id="DejaVuSans-74" transform="scale(0.015625)"/>
       <path d="M 3597 1894 
L 3597 1613 
L 953 1613 
Q 991 1019 1311 708 
Q 1631 397 2203 397 
Q 2534 397 2845 478 
Q 3156 559 3463 722 
L 3463 178 
Q 3153 47 2828 -22 
Q 2503 -91 2169 -91 
Q 1331 -91 842 396 
Q 353 884 353 1716 
Q 353 2575 817 3079 
Q 1281 3584 2069 3584 
Q 2775 3584 3186 3129 
Q 3597 2675 3597 1894 
z
M 3022 2063 
Q 3016 2534 2758 2815 
Q 2500 3097 2075 3097 
Q 1594 3097 1305 2825 
Q 1016 2553 972 2059 
L 3022 2063 
z
" id="DejaVuSans-65" transform="scale(0.015625)"/>
      </defs>
      <use xlink:href="#DejaVuSans-44"/>
      <use x="77.001953" xlink:href="#DejaVuSans-61"/>
      <use x="138.28125" xlink:href="#DejaVuSans-74"/>
      <use x="177.490234" xlink:href="#DejaVuSans-65"/>
     </g>
    </g>
   </g>
   <g id="matplotlib.axis_2">
    <g id="ytick_1">
     <g id="line2d_120">
      <path clip-path="url(#pffc3ab5a50)" d="M 67.10625 472.187472 
L 798.39425 472.187472 
" style="fill:none;stroke:#cccccc;stroke-linecap:round;"/>
     </g>
     <g id="line2d_121">
      <defs>
       <path d="M 0 0 
L -6 0 
" id="me803f08bb5" style="stroke:#262626;stroke-width:1.25;"/>
      </defs>
      <g>
       <use style="fill:#262626;stroke:#262626;stroke-width:1.25;" x="67.10625" xlink:href="#me803f08bb5" y="472.187472"/>
      </g>
     </g>
     <g id="text_24">
      <!-- 0 -->
      <g style="fill:#262626;" transform="translate(50.6075 476.366613)scale(0.11 -0.11)">
       <use xlink:href="#DejaVuSans-30"/>
      </g>
     </g>
    </g>
    <g id="ytick_2">
     <g id="line2d_122">
      <path clip-path="url(#pffc3ab5a50)" d="M 67.10625 407.58781 
L 798.39425 407.58781 
" style="fill:none;stroke:#cccccc;stroke-linecap:round;"/>
     </g>
     <g id="line2d_123">
      <g>
       <use style="fill:#262626;stroke:#262626;stroke-width:1.25;" x="67.10625" xlink:href="#me803f08bb5" y="407.58781"/>
      </g>
     </g>
     <g id="text_25">
      <!-- 100000 -->
      <g style="fill:#262626;" transform="translate(15.61375 411.766951)scale(0.11 -0.11)">
       <use xlink:href="#DejaVuSans-31"/>
       <use x="63.623047" xlink:href="#DejaVuSans-30"/>
       <use x="127.246094" xlink:href="#DejaVuSans-30"/>
       <use x="190.869141" xlink:href="#DejaVuSans-30"/>
       <use x="254.492188" xlink:href="#DejaVuSans-30"/>
       <use x="318.115234" xlink:href="#DejaVuSans-30"/>
      </g>
     </g>
    </g>
    <g id="ytick_3">
     <g id="line2d_124">
      <path clip-path="url(#pffc3ab5a50)" d="M 67.10625 342.988148 
L 798.39425 342.988148 
" style="fill:none;stroke:#cccccc;stroke-linecap:round;"/>
     </g>
     <g id="line2d_125">
      <g>
       <use style="fill:#262626;stroke:#262626;stroke-width:1.25;" x="67.10625" xlink:href="#me803f08bb5" y="342.988148"/>
      </g>
     </g>
     <g id="text_26">
      <!-- 200000 -->
      <g style="fill:#262626;" transform="translate(15.61375 347.167289)scale(0.11 -0.11)">
       <use xlink:href="#DejaVuSans-32"/>
       <use x="63.623047" xlink:href="#DejaVuSans-30"/>
       <use x="127.246094" xlink:href="#DejaVuSans-30"/>
       <use x="190.869141" xlink:href="#DejaVuSans-30"/>
       <use x="254.492188" xlink:href="#DejaVuSans-30"/>
       <use x="318.115234" xlink:href="#DejaVuSans-30"/>
      </g>
     </g>
    </g>
    <g id="ytick_4">
     <g id="line2d_126">
      <path clip-path="url(#pffc3ab5a50)" d="M 67.10625 278.388486 
L 798.39425 278.388486 
" style="fill:none;stroke:#cccccc;stroke-linecap:round;"/>
     </g>
     <g id="line2d_127">
      <g>
       <use style="fill:#262626;stroke:#262626;stroke-width:1.25;" x="67.10625" xlink:href="#me803f08bb5" y="278.388486"/>
      </g>
     </g>
     <g id="text_27">
      <!-- 300000 -->
      <g style="fill:#262626;" transform="translate(15.61375 282.567627)scale(0.11 -0.11)">
       <use xlink:href="#DejaVuSans-33"/>
       <use x="63.623047" xlink:href="#DejaVuSans-30"/>
       <use x="127.246094" xlink:href="#DejaVuSans-30"/>
       <use x="190.869141" xlink:href="#DejaVuSans-30"/>
       <use x="254.492188" xlink:href="#DejaVuSans-30"/>
       <use x="318.115234" xlink:href="#DejaVuSans-30"/>
      </g>
     </g>
    </g>
    <g id="ytick_5">
     <g id="line2d_128">
      <path clip-path="url(#pffc3ab5a50)" d="M 67.10625 213.788824 
L 798.39425 213.788824 
" style="fill:none;stroke:#cccccc;stroke-linecap:round;"/>
     </g>
     <g id="line2d_129">
      <g>
       <use style="fill:#262626;stroke:#262626;stroke-width:1.25;" x="67.10625" xlink:href="#me803f08bb5" y="213.788824"/>
      </g>
     </g>
     <g id="text_28">
      <!-- 400000 -->
      <g style="fill:#262626;" transform="translate(15.61375 217.967964)scale(0.11 -0.11)">
       <use xlink:href="#DejaVuSans-34"/>
       <use x="63.623047" xlink:href="#DejaVuSans-30"/>
       <use x="127.246094" xlink:href="#DejaVuSans-30"/>
       <use x="190.869141" xlink:href="#DejaVuSans-30"/>
       <use x="254.492188" xlink:href="#DejaVuSans-30"/>
       <use x="318.115234" xlink:href="#DejaVuSans-30"/>
      </g>
     </g>
    </g>
    <g id="ytick_6">
     <g id="line2d_130">
      <path clip-path="url(#pffc3ab5a50)" d="M 67.10625 149.189162 
L 798.39425 149.189162 
" style="fill:none;stroke:#cccccc;stroke-linecap:round;"/>
     </g>
     <g id="line2d_131">
      <g>
       <use style="fill:#262626;stroke:#262626;stroke-width:1.25;" x="67.10625" xlink:href="#me803f08bb5" y="149.189162"/>
      </g>
     </g>
     <g id="text_29">
      <!-- 500000 -->
      <g style="fill:#262626;" transform="translate(15.61375 153.368302)scale(0.11 -0.11)">
       <use xlink:href="#DejaVuSans-35"/>
       <use x="63.623047" xlink:href="#DejaVuSans-30"/>
       <use x="127.246094" xlink:href="#DejaVuSans-30"/>
       <use x="190.869141" xlink:href="#DejaVuSans-30"/>
       <use x="254.492188" xlink:href="#DejaVuSans-30"/>
       <use x="318.115234" xlink:href="#DejaVuSans-30"/>
      </g>
     </g>
    </g>
    <g id="ytick_7">
     <g id="line2d_132">
      <path clip-path="url(#pffc3ab5a50)" d="M 67.10625 84.5895 
L 798.39425 84.5895 
" style="fill:none;stroke:#cccccc;stroke-linecap:round;"/>
     </g>
     <g id="line2d_133">
      <g>
       <use style="fill:#262626;stroke:#262626;stroke-width:1.25;" x="67.10625" xlink:href="#me803f08bb5" y="84.5895"/>
      </g>
     </g>
     <g id="text_30">
      <!-- 600000 -->
      <g style="fill:#262626;" transform="translate(15.61375 88.76864)scale(0.11 -0.11)">
       <use xlink:href="#DejaVuSans-36"/>
       <use x="63.623047" xlink:href="#DejaVuSans-30"/>
       <use x="127.246094" xlink:href="#DejaVuSans-30"/>
       <use x="190.869141" xlink:href="#DejaVuSans-30"/>
       <use x="254.492188" xlink:href="#DejaVuSans-30"/>
       <use x="318.115234" xlink:href="#DejaVuSans-30"/>
      </g>
     </g>
    </g>
    <g id="text_31">
     <!-- Cases -->
     <g style="fill:#262626;" transform="translate(9.118125 279.011756)rotate(-90)scale(0.12 -0.12)">
      <defs>
       <path d="M 4122 4306 
L 4122 3641 
Q 3803 3938 3442 4084 
Q 3081 4231 2675 4231 
Q 1875 4231 1450 3742 
Q 1025 3253 1025 2328 
Q 1025 1406 1450 917 
Q 1875 428 2675 428 
Q 3081 428 3442 575 
Q 3803 722 4122 1019 
L 4122 359 
Q 3791 134 3420 21 
Q 3050 -91 2638 -91 
Q 1578 -91 968 557 
Q 359 1206 359 2328 
Q 359 3453 968 4101 
Q 1578 4750 2638 4750 
Q 3056 4750 3426 4639 
Q 3797 4528 4122 4306 
z
" id="DejaVuSans-43" transform="scale(0.015625)"/>
       <path d="M 2834 3397 
L 2834 2853 
Q 2591 2978 2328 3040 
Q 2066 3103 1784 3103 
Q 1356 3103 1142 2972 
Q 928 2841 928 2578 
Q 928 2378 1081 2264 
Q 1234 2150 1697 2047 
L 1894 2003 
Q 2506 1872 2764 1633 
Q 3022 1394 3022 966 
Q 3022 478 2636 193 
Q 2250 -91 1575 -91 
Q 1294 -91 989 -36 
Q 684 19 347 128 
L 347 722 
Q 666 556 975 473 
Q 1284 391 1588 391 
Q 1994 391 2212 530 
Q 2431 669 2431 922 
Q 2431 1156 2273 1281 
Q 2116 1406 1581 1522 
L 1381 1569 
Q 847 1681 609 1914 
Q 372 2147 372 2553 
Q 372 3047 722 3315 
Q 1072 3584 1716 3584 
Q 2034 3584 2315 3537 
Q 2597 3491 2834 3397 
z
" id="DejaVuSans-73" transform="scale(0.015625)"/>
      </defs>
      <use xlink:href="#DejaVuSans-43"/>
      <use x="69.824219" xlink:href="#DejaVuSans-61"/>
      <use x="131.103516" xlink:href="#DejaVuSans-73"/>
      <use x="183.203125" xlink:href="#DejaVuSans-65"/>
      <use x="244.726562" xlink:href="#DejaVuSans-73"/>
     </g>
    </g>
   </g>
   <g id="line2d_134">
    <path clip-path="url(#pffc3ab5a50)" d="M 100.346614 472.184888 
L 114.39945 472.082175 
L 150.072036 471.478814 
L 155.476973 471.283723 
L 180.339684 470.681654 
L 187.906596 470.587339 
L 199.797458 470.42584 
L 218.174244 469.447155 
L 221.417206 469.199738 
L 224.660169 468.964595 
L 233.308068 468.090562 
L 236.55103 467.552447 
L 238.713005 467.399991 
L 266.818679 463.567939 
L 268.980654 463.458766 
L 273.304603 462.986542 
L 278.70954 462.613802 
L 289.519415 461.745583 
L 291.68139 461.679691 
L 297.086327 461.17323 
L 300.329289 461.003333 
L 310.058176 460.208111 
L 312.220151 460.030462 
L 315.463113 459.834079 
L 317.625088 459.54338 
L 319.787063 459.269478 
L 321.949038 459.092475 
L 327.353975 458.286917 
L 328.434962 458.242343 
L 330.596937 457.777872 
L 332.758912 457.162237 
L 334.920887 456.47748 
L 336.001875 456.423863 
L 337.082862 456.044663 
L 340.325824 454.418043 
L 341.406812 453.773339 
L 342.487799 453.383803 
L 343.568787 453.128634 
L 344.649774 452.467133 
L 346.811749 450.653175 
L 348.973724 448.596322 
L 350.054711 447.922547 
L 351.135699 447.711306 
L 352.216686 446.262336 
L 355.459648 441.082735 
L 356.540636 439.215159 
L 357.621623 438.050427 
L 358.702611 437.259081 
L 359.783598 435.691247 
L 363.02656 428.036833 
L 364.107548 425.556852 
L 365.188535 424.070414 
L 366.269523 423.634366 
L 367.35051 421.169243 
L 369.512485 415.784861 
L 370.593472 413.579429 
L 371.67446 410.858491 
L 372.755447 409.244792 
L 373.836435 408.717658 
L 374.917422 406.444396 
L 375.99841 403.325524 
L 379.241372 395.689844 
L 380.322359 394.217618 
L 381.403347 393.492164 
L 382.484334 391.459859 
L 383.565322 388.629101 
L 385.727297 383.926246 
L 386.808284 381.777015 
L 387.889271 380.619389 
L 388.970259 380.141998 
L 390.051246 378.324163 
L 392.213221 374.052188 
L 394.375196 369.598687 
L 395.456183 368.282792 
L 396.537171 367.910052 
L 397.618158 366.124517 
L 398.699146 363.55345 
L 400.861121 359.417134 
L 401.942108 357.416483 
L 403.023096 356.585085 
L 404.104083 356.264025 
L 405.18507 354.910662 
L 406.266058 353.138693 
L 409.50902 349.430672 
L 410.590008 348.783384 
L 411.670995 348.676148 
L 412.751982 347.851211 
L 414.913957 345.645778 
L 415.994945 345.147069 
L 417.075932 344.981048 
L 419.237907 344.463604 
L 420.318894 344.245903 
L 421.399882 343.31696 
L 422.480869 342.200032 
L 423.561857 341.52432 
L 426.804819 341.017212 
L 427.885807 340.352482 
L 428.966794 339.506226 
L 431.128769 338.298859 
L 432.209756 337.812423 
L 433.290744 337.5579 
L 434.371731 337.490071 
L 439.776668 335.557249 
L 441.938643 335.35699 
L 445.181606 334.325979 
L 448.424568 333.494582 
L 449.505555 333.416416 
L 452.748518 331.997162 
L 455.99148 330.960983 
L 457.072467 330.877003 
L 463.558392 327.773636 
L 464.639379 327.656064 
L 468.963329 324.871819 
L 470.044317 324.247786 
L 471.125304 323.920912 
L 472.206291 323.815614 
L 473.287279 323.12569 
L 475.449254 321.449329 
L 476.530241 320.747776 
L 477.611229 319.802683 
L 478.692216 319.448677 
L 479.773203 319.302036 
L 481.935178 316.895699 
L 485.178141 313.51326 
L 486.259128 312.81623 
L 487.340115 312.601759 
L 489.50209 309.37759 
L 490.583078 308.63211 
L 491.664065 307.212209 
L 492.745053 305.271635 
L 493.82604 304.350444 
L 494.907028 304.029384 
L 495.988015 302.094624 
L 497.069002 299.832344 
L 498.14999 298.040349 
L 500.311965 293.98349 
L 501.392952 292.679223 
L 502.47394 292.240591 
L 504.635914 286.419516 
L 507.878877 278.427892 
L 508.959864 276.786414 
L 510.040852 276.177239 
L 514.364801 264.755373 
L 515.445789 262.088053 
L 516.526776 260.44916 
L 517.607764 259.814145 
L 518.688751 256.909098 
L 519.769739 253.56542 
L 520.850726 250.847712 
L 523.012701 245.869016 
L 524.093688 244.629349 
L 525.174676 244.151311 
L 528.417638 236.77403 
L 530.579613 233.053089 
L 531.6606 232.179702 
L 532.741588 231.881251 
L 534.903563 227.962636 
L 535.98455 226.336662 
L 538.146525 223.551771 
L 539.227512 222.856678 
L 540.3085 222.586652 
L 541.389487 221.014296 
L 543.551462 218.367002 
L 545.713437 216.177719 
L 546.794424 215.662214 
L 547.875412 215.403815 
L 550.037387 213.072414 
L 552.199362 211.380548 
L 553.280349 210.959359 
L 557.604299 209.788813 
L 558.685286 208.732608 
L 559.766274 208.38054 
L 560.847261 207.655086 
L 561.928249 207.354051 
L 563.009236 207.198366 
L 565.171211 205.935443 
L 567.333186 205.184149 
L 568.414173 204.849523 
L 570.576148 204.62084 
L 571.657135 204.1835 
L 573.81911 203.655075 
L 575.981085 203.183497 
L 580.305035 202.720964 
L 582.46701 202.27781 
L 584.628985 202.018119 
L 585.709972 201.983882 
L 588.952934 201.508428 
L 592.195897 201.239693 
L 594.357872 201.074964 
L 597.600834 200.810752 
L 606.248733 200.246151 
L 611.653671 200.003902 
L 639.759344 198.880514 
L 644.083294 198.559453 
L 647.326256 198.36307 
L 650.569218 197.945111 
L 652.731193 197.604024 
L 653.812181 197.543301 
L 657.055143 196.713841 
L 660.298105 195.78296 
L 661.379093 195.669265 
L 665.703042 193.574298 
L 666.78403 192.897939 
L 667.865017 192.495483 
L 668.946005 192.319772 
L 672.188967 189.675708 
L 674.350942 187.906323 
L 675.431929 187.360456 
L 676.512917 187.112393 
L 678.674892 184.656314 
L 680.836866 182.502561 
L 681.917854 181.395969 
L 682.998841 180.747389 
L 684.079829 180.456044 
L 686.241804 177.77968 
L 688.403778 175.642077 
L 689.484766 174.582643 
L 690.565753 174.030962 
L 691.646741 173.715715 
L 692.727728 173.278376 
L 694.889703 170.719583 
L 697.051678 168.616864 
L 698.132665 168.029653 
L 699.213653 167.747353 
L 702.456615 163.943079 
L 704.61859 161.607155 
L 705.699577 160.992812 
L 706.780565 160.696945 
L 708.94254 157.756369 
L 710.023527 157.207272 
L 712.185502 154.79189 
L 713.266489 154.121346 
L 714.347477 153.800932 
L 716.509452 150.500535 
L 719.752414 146.441738 
L 720.833402 145.648454 
L 721.914389 145.317058 
L 725.157351 140.010842 
L 727.319326 136.918456 
L 728.400314 136.113544 
L 729.481301 135.71238 
L 732.724263 129.079933 
L 734.886238 124.801497 
L 735.967226 123.595422 
L 737.048213 122.949425 
L 740.291175 113.609606 
L 742.45315 107.380906 
L 743.534138 105.214234 
L 744.615125 104.329218 
L 745.696113 100.54174 
L 746.7771 96.138627 
L 748.939075 89.148298 
L 750.020062 85.752939 
L 751.10105 83.920893 
L 752.182037 82.979676 
L 754.344012 75.311696 
L 757.586974 66.062316 
L 758.667962 64.23673 
L 759.748949 63.425358 
L 761.910924 56.809707 
L 762.991911 54.320682 
L 765.153886 50.216665 
L 765.153886 50.216665 
" style="fill:none;stroke:#ffa500;stroke-linecap:round;stroke-width:1.5;"/>
   </g>
   <g id="line2d_135">
    <path clip-path="url(#pffc3ab5a50)" d="M 100.346614 472.187472 
L 147.910061 472.077653 
L 166.286847 471.928428 
L 187.906596 471.564086 
L 238.713005 469.915502 
L 244.117943 469.55116 
L 246.279917 469.471056 
L 247.360905 469.266922 
L 248.441892 469.18811 
L 250.603867 468.794698 
L 253.846829 468.579581 
L 259.251767 468.055678 
L 260.332754 468.040174 
L 265.737691 467.263686 
L 270.061641 466.920016 
L 273.304603 466.299859 
L 275.466578 466.253347 
L 279.790528 465.671304 
L 281.952503 465.519495 
L 284.114478 465.406446 
L 286.276453 465.243009 
L 288.438427 464.932284 
L 290.600402 464.879313 
L 296.005339 464.405797 
L 308.977189 463.633831 
L 312.220151 463.42905 
L 315.463113 463.306311 
L 339.244837 461.535634 
L 342.487799 461.262377 
L 343.568787 461.242352 
L 354.378661 459.810823 
L 355.459648 459.464569 
L 357.621623 459.23847 
L 361.945573 458.009784 
L 364.107548 457.047895 
L 365.188535 456.809523 
L 366.269523 456.419987 
L 367.35051 455.85474 
L 368.431498 455.521405 
L 370.593472 454.366364 
L 372.755447 453.57954 
L 373.836435 453.211322 
L 374.917422 452.602793 
L 375.99841 451.815323 
L 379.241372 449.97294 
L 380.322359 449.091801 
L 381.403347 448.593092 
L 383.565322 446.281716 
L 385.727297 443.198374 
L 386.808284 441.99359 
L 387.889271 441.3224 
L 388.970259 440.795912 
L 390.051246 439.522653 
L 392.213221 436.524583 
L 393.294209 435.274579 
L 394.375196 433.636332 
L 395.456183 432.992919 
L 396.537171 431.976767 
L 399.780133 425.625328 
L 400.861121 423.587854 
L 401.942108 420.816529 
L 404.104083 418.104635 
L 405.18507 416.904373 
L 407.347045 413.718318 
L 409.50902 409.769987 
L 410.590008 408.863008 
L 411.670995 407.744141 
L 412.751982 405.865583 
L 413.83297 404.299687 
L 415.994945 402.626556 
L 417.075932 401.860404 
L 418.15692 401.294511 
L 420.318894 399.523834 
L 422.480869 395.743462 
L 423.561857 394.973434 
L 424.642844 394.446301 
L 426.804819 393.11038 
L 430.047781 388.990213 
L 431.128769 388.084526 
L 432.209756 385.609713 
L 434.371731 384.810615 
L 436.533706 381.393939 
L 437.614693 379.395226 
L 438.695681 375.04896 
L 439.776668 371.392619 
L 441.938643 370.94559 
L 443.019631 366.079297 
L 444.100618 362.04634 
L 445.181606 359.074756 
L 446.262593 357.617388 
L 447.34358 356.811184 
L 449.505555 356.510149 
L 451.66753 355.265314 
L 452.748518 354.860274 
L 455.99148 352.288561 
L 457.072467 351.352512 
L 458.153455 350.112199 
L 459.234442 349.135452 
L 460.31543 348.445528 
L 462.477404 347.490744 
L 464.639379 347.347979 
L 465.720367 346.828598 
L 466.801354 346.532086 
L 467.882342 346.081826 
L 473.287279 344.554044 
L 476.530241 343.225875 
L 477.611229 343.00236 
L 479.773203 342.825357 
L 480.854191 342.323418 
L 483.016166 341.692925 
L 485.178141 340.731036 
L 486.259128 339.669663 
L 487.340115 339.406097 
L 488.421103 338.70519 
L 489.50209 337.55467 
L 490.583078 337.174178 
L 491.664065 336.116036 
L 492.745053 335.28916 
L 493.82604 334.911898 
L 494.907028 334.66319 
L 495.988015 333.869906 
L 497.069002 331.671579 
L 498.14999 330.036562 
L 500.311965 327.820147 
L 501.392952 327.097923 
L 502.47394 326.720661 
L 504.635914 324.373109 
L 507.878877 321.285246 
L 510.040852 320.5262 
L 511.121839 319.066247 
L 515.445789 312.334962 
L 516.526776 311.396329 
L 517.607764 311.101109 
L 519.769739 307.011304 
L 520.850726 304.511943 
L 521.931713 302.874988 
L 523.012701 300.293585 
L 524.093688 298.042933 
L 525.174676 297.488668 
L 527.336651 293.770957 
L 528.417638 292.170824 
L 529.498625 290.029991 
L 530.579613 288.163061 
L 531.6606 287.562284 
L 532.741588 287.265771 
L 533.822575 285.264474 
L 535.98455 280.327768 
L 538.146525 275.783182 
L 539.227512 275.005402 
L 540.3085 274.07452 
L 541.389487 271.332911 
L 542.470475 269.168176 
L 543.551462 266.626179 
L 544.63245 264.564158 
L 545.713437 262.964025 
L 547.875412 262.275392 
L 548.956399 259.626806 
L 551.118374 255.50018 
L 552.199362 253.639063 
L 553.280349 252.849656 
L 554.361336 252.620327 
L 556.523311 251.794097 
L 557.604299 251.110633 
L 558.685286 249.386468 
L 559.766274 249.002746 
L 560.847261 247.464628 
L 563.009236 247.127417 
L 564.090223 245.186198 
L 565.171211 243.750793 
L 566.252198 241.470425 
L 567.333186 239.627397 
L 568.414173 238.341217 
L 569.495161 238.125455 
L 570.576148 238.029847 
L 571.657135 236.604132 
L 572.738123 234.80697 
L 573.81911 233.310196 
L 574.900098 232.164198 
L 575.981085 231.251404 
L 579.224047 230.776597 
L 580.305035 229.211347 
L 581.386022 228.441319 
L 582.46701 227.253977 
L 583.547997 226.544673 
L 585.709972 226.361856 
L 587.871947 224.276579 
L 588.952934 223.62283 
L 591.114909 222.87735 
L 593.276884 222.768823 
L 597.600834 221.162875 
L 598.681821 220.65706 
L 600.843796 220.575018 
L 601.924784 219.998143 
L 603.005771 219.621527 
L 604.086758 218.934187 
L 606.248733 218.458087 
L 608.410708 218.429664 
L 611.653671 217.748783 
L 618.139595 217.361831 
L 620.30157 217.064027 
L 621.382557 216.836636 
L 623.544532 216.772682 
L 627.868482 216.231337 
L 630.030457 216.169321 
L 631.111444 216.168675 
L 635.435394 215.677718 
L 640.840331 215.308208 
L 644.083294 214.995545 
L 648.407243 214.864408 
L 662.46008 214.363761 
L 676.512917 212.728097 
L 678.674892 212.033005 
L 680.836866 211.348895 
L 681.917854 211.126672 
L 684.079829 210.974863 
L 686.241804 210.064653 
L 688.403778 209.248114 
L 689.484766 208.717104 
L 690.565753 208.593073 
L 692.727728 207.93997 
L 695.970691 205.819809 
L 697.051678 205.02911 
L 698.132665 204.917352 
L 699.213653 204.64345 
L 700.29464 203.939959 
L 701.375628 203.447064 
L 702.456615 202.518767 
L 703.537603 201.250029 
L 704.61859 199.678966 
L 705.699577 199.347569 
L 708.94254 197.198339 
L 710.023527 196.821077 
L 711.104515 196.13955 
L 712.185502 195.035542 
L 714.347477 194.378563 
L 716.509452 191.518736 
L 717.590439 190.675065 
L 718.671427 189.679584 
L 719.752414 189.093665 
L 721.914389 188.528418 
L 722.995376 187.652447 
L 724.076364 186.341719 
L 726.238339 184.29714 
L 727.319326 183.051659 
L 729.481301 182.264189 
L 730.562288 181.061343 
L 731.643276 180.306173 
L 732.724263 179.120123 
L 734.886238 177.096216 
L 737.048213 176.411459 
L 738.1292 175.113652 
L 739.210188 173.341683 
L 740.291175 172.715067 
L 741.372163 171.778372 
L 742.45315 171.016096 
L 743.534138 170.815837 
L 744.615125 170.469582 
L 745.696113 169.163377 
L 748.939075 164.726026 
L 750.020062 163.704706 
L 752.182037 162.904316 
L 753.263025 160.960512 
L 755.424999 157.750555 
L 756.505987 155.358429 
L 757.586974 153.589045 
L 758.667962 153.162041 
L 759.748949 152.520566 
L 760.829937 150.262162 
L 761.910924 147.641354 
L 762.991911 144.711759 
L 764.072899 142.158134 
L 765.153886 140.215623 
L 765.153886 140.215623 
" style="fill:none;stroke:#008000;stroke-linecap:round;stroke-width:1.5;"/>
   </g>
   <g id="line2d_136"/>
   <g id="line2d_137"/>
   <g id="patch_3">
    <path d="M 67.10625 493.286013 
L 67.10625 29.118125 
" style="fill:none;stroke:#262626;stroke-linecap:square;stroke-linejoin:miter;stroke-width:1.25;"/>
   </g>
   <g id="patch_4">
    <path d="M 798.39425 493.286013 
L 798.39425 29.118125 
" style="fill:none;stroke:#262626;stroke-linecap:square;stroke-linejoin:miter;stroke-width:1.25;"/>
   </g>
   <g id="patch_5">
    <path d="M 67.10625 493.286013 
L 798.39425 493.286013 
" style="fill:none;stroke:#262626;stroke-linecap:square;stroke-linejoin:miter;stroke-width:1.25;"/>
   </g>
   <g id="patch_6">
    <path d="M 67.10625 29.118125 
L 798.39425 29.118125 
" style="fill:none;stroke:#262626;stroke-linecap:square;stroke-linejoin:miter;stroke-width:1.25;"/>
   </g>
   <g id="text_32">
    <!-- Last update: 13.11.2021 -->
    <g style="fill:#262626;" transform="translate(371.251422 22.155607)scale(0.09996 -0.09996)">
     <defs>
      <path d="M 628 4666 
L 1259 4666 
L 1259 531 
L 3531 531 
L 3531 0 
L 628 0 
L 628 4666 
z
" id="DejaVuSans-4c" transform="scale(0.015625)"/>
      <path id="DejaVuSans-20" transform="scale(0.015625)"/>
      <path d="M 544 1381 
L 544 3500 
L 1119 3500 
L 1119 1403 
Q 1119 906 1312 657 
Q 1506 409 1894 409 
Q 2359 409 2629 706 
Q 2900 1003 2900 1516 
L 2900 3500 
L 3475 3500 
L 3475 0 
L 2900 0 
L 2900 538 
Q 2691 219 2414 64 
Q 2138 -91 1772 -91 
Q 1169 -91 856 284 
Q 544 659 544 1381 
z
M 1991 3584 
L 1991 3584 
z
" id="DejaVuSans-75" transform="scale(0.015625)"/>
      <path d="M 1159 525 
L 1159 -1331 
L 581 -1331 
L 581 3500 
L 1159 3500 
L 1159 2969 
Q 1341 3281 1617 3432 
Q 1894 3584 2278 3584 
Q 2916 3584 3314 3078 
Q 3713 2572 3713 1747 
Q 3713 922 3314 415 
Q 2916 -91 2278 -91 
Q 1894 -91 1617 61 
Q 1341 213 1159 525 
z
M 3116 1747 
Q 3116 2381 2855 2742 
Q 2594 3103 2138 3103 
Q 1681 3103 1420 2742 
Q 1159 2381 1159 1747 
Q 1159 1113 1420 752 
Q 1681 391 2138 391 
Q 2594 391 2855 752 
Q 3116 1113 3116 1747 
z
" id="DejaVuSans-70" transform="scale(0.015625)"/>
      <path d="M 2906 2969 
L 2906 4863 
L 3481 4863 
L 3481 0 
L 2906 0 
L 2906 525 
Q 2725 213 2448 61 
Q 2172 -91 1784 -91 
Q 1150 -91 751 415 
Q 353 922 353 1747 
Q 353 2572 751 3078 
Q 1150 3584 1784 3584 
Q 2172 3584 2448 3432 
Q 2725 3281 2906 2969 
z
M 947 1747 
Q 947 1113 1208 752 
Q 1469 391 1925 391 
Q 2381 391 2643 752 
Q 2906 1113 2906 1747 
Q 2906 2381 2643 2742 
Q 2381 3103 1925 3103 
Q 1469 3103 1208 2742 
Q 947 2381 947 1747 
z
" id="DejaVuSans-64" transform="scale(0.015625)"/>
      <path d="M 750 794 
L 1409 794 
L 1409 0 
L 750 0 
L 750 794 
z
M 750 3309 
L 1409 3309 
L 1409 2516 
L 750 2516 
L 750 3309 
z
" id="DejaVuSans-3a" transform="scale(0.015625)"/>
     </defs>
     <use xlink:href="#DejaVuSans-4c"/>
     <use x="55.712891" xlink:href="#DejaVuSans-61"/>
     <use x="116.992188" xlink:href="#DejaVuSans-73"/>
     <use x="169.091797" xlink:href="#DejaVuSans-74"/>
     <use x="208.300781" xlink:href="#DejaVuSans-20"/>
     <use x="240.087891" xlink:href="#DejaVuSans-75"/>
     <use x="303.466797" xlink:href="#DejaVuSans-70"/>
     <use x="366.943359" xlink:href="#DejaVuSans-64"/>
     <use x="430.419922" xlink:href="#DejaVuSans-61"/>
     <use x="491.699219" xlink:href="#DejaVuSans-74"/>
     <use x="530.908203" xlink:href="#DejaVuSans-65"/>
     <use x="592.431641" xlink:href="#DejaVuSans-3a"/>
     <use x="626.123047" xlink:href="#DejaVuSans-20"/>
     <use x="657.910156" xlink:href="#DejaVuSans-31"/>
     <use x="721.533203" xlink:href="#DejaVuSans-33"/>
     <use x="785.15625" xlink:href="#DejaVuSans-2e"/>
     <use x="816.943359" xlink:href="#DejaVuSans-31"/>
     <use x="880.566406" xlink:href="#DejaVuSans-31"/>
     <use x="944.189453" xlink:href="#DejaVuSans-2e"/>
     <use x="975.976562" xlink:href="#DejaVuSans-32"/>
     <use x="1039.599609" xlink:href="#DejaVuSans-30"/>
     <use x="1103.222656" xlink:href="#DejaVuSans-32"/>
     <use x="1166.845703" xlink:href="#DejaVuSans-31"/>
    </g>
   </g>
   <g id="text_33">
    <!-- Disease timeline -->
    <g style="fill:#262626;" transform="translate(376.592125 9.118125)scale(0.12 -0.12)">
     <defs>
      <path d="M 1791 3756 
L 1791 909 
L 2222 909 
Q 2959 909 3348 1275 
Q 3738 1641 3738 2338 
Q 3738 3031 3350 3393 
Q 2963 3756 2222 3756 
L 1791 3756 
z
M 588 4666 
L 1856 4666 
Q 2919 4666 3439 4514 
Q 3959 4363 4331 4000 
Q 4659 3684 4818 3271 
Q 4978 2859 4978 2338 
Q 4978 1809 4818 1395 
Q 4659 981 4331 666 
Q 3956 303 3431 151 
Q 2906 0 1856 0 
L 588 0 
L 588 4666 
z
" id="DejaVuSans-Bold-44" transform="scale(0.015625)"/>
      <path d="M 538 3500 
L 1656 3500 
L 1656 0 
L 538 0 
L 538 3500 
z
M 538 4863 
L 1656 4863 
L 1656 3950 
L 538 3950 
L 538 4863 
z
" id="DejaVuSans-Bold-69" transform="scale(0.015625)"/>
      <path d="M 3272 3391 
L 3272 2541 
Q 2913 2691 2578 2766 
Q 2244 2841 1947 2841 
Q 1628 2841 1473 2761 
Q 1319 2681 1319 2516 
Q 1319 2381 1436 2309 
Q 1553 2238 1856 2203 
L 2053 2175 
Q 2913 2066 3209 1816 
Q 3506 1566 3506 1031 
Q 3506 472 3093 190 
Q 2681 -91 1863 -91 
Q 1516 -91 1145 -36 
Q 775 19 384 128 
L 384 978 
Q 719 816 1070 734 
Q 1422 653 1784 653 
Q 2113 653 2278 743 
Q 2444 834 2444 1013 
Q 2444 1163 2330 1236 
Q 2216 1309 1875 1350 
L 1678 1375 
Q 931 1469 631 1722 
Q 331 1975 331 2491 
Q 331 3047 712 3315 
Q 1094 3584 1881 3584 
Q 2191 3584 2531 3537 
Q 2872 3491 3272 3391 
z
" id="DejaVuSans-Bold-73" transform="scale(0.015625)"/>
      <path d="M 4031 1759 
L 4031 1441 
L 1416 1441 
Q 1456 1047 1700 850 
Q 1944 653 2381 653 
Q 2734 653 3104 758 
Q 3475 863 3866 1075 
L 3866 213 
Q 3469 63 3072 -14 
Q 2675 -91 2278 -91 
Q 1328 -91 801 392 
Q 275 875 275 1747 
Q 275 2603 792 3093 
Q 1309 3584 2216 3584 
Q 3041 3584 3536 3087 
Q 4031 2591 4031 1759 
z
M 2881 2131 
Q 2881 2450 2695 2645 
Q 2509 2841 2209 2841 
Q 1884 2841 1681 2658 
Q 1478 2475 1428 2131 
L 2881 2131 
z
" id="DejaVuSans-Bold-65" transform="scale(0.015625)"/>
      <path d="M 2106 1575 
Q 1756 1575 1579 1456 
Q 1403 1338 1403 1106 
Q 1403 894 1545 773 
Q 1688 653 1941 653 
Q 2256 653 2472 879 
Q 2688 1106 2688 1447 
L 2688 1575 
L 2106 1575 
z
M 3816 1997 
L 3816 0 
L 2688 0 
L 2688 519 
Q 2463 200 2181 54 
Q 1900 -91 1497 -91 
Q 953 -91 614 226 
Q 275 544 275 1050 
Q 275 1666 698 1953 
Q 1122 2241 2028 2241 
L 2688 2241 
L 2688 2328 
Q 2688 2594 2478 2717 
Q 2269 2841 1825 2841 
Q 1466 2841 1156 2769 
Q 847 2697 581 2553 
L 581 3406 
Q 941 3494 1303 3539 
Q 1666 3584 2028 3584 
Q 2975 3584 3395 3211 
Q 3816 2838 3816 1997 
z
" id="DejaVuSans-Bold-61" transform="scale(0.015625)"/>
      <path id="DejaVuSans-Bold-20" transform="scale(0.015625)"/>
      <path d="M 1759 4494 
L 1759 3500 
L 2913 3500 
L 2913 2700 
L 1759 2700 
L 1759 1216 
Q 1759 972 1856 886 
Q 1953 800 2241 800 
L 2816 800 
L 2816 0 
L 1856 0 
Q 1194 0 917 276 
Q 641 553 641 1216 
L 641 2700 
L 84 2700 
L 84 3500 
L 641 3500 
L 641 4494 
L 1759 4494 
z
" id="DejaVuSans-Bold-74" transform="scale(0.015625)"/>
      <path d="M 3781 2919 
Q 3994 3244 4286 3414 
Q 4578 3584 4928 3584 
Q 5531 3584 5847 3212 
Q 6163 2841 6163 2131 
L 6163 0 
L 5038 0 
L 5038 1825 
Q 5041 1866 5042 1909 
Q 5044 1953 5044 2034 
Q 5044 2406 4934 2573 
Q 4825 2741 4581 2741 
Q 4263 2741 4089 2478 
Q 3916 2216 3909 1719 
L 3909 0 
L 2784 0 
L 2784 1825 
Q 2784 2406 2684 2573 
Q 2584 2741 2328 2741 
Q 2006 2741 1831 2477 
Q 1656 2213 1656 1722 
L 1656 0 
L 531 0 
L 531 3500 
L 1656 3500 
L 1656 2988 
Q 1863 3284 2130 3434 
Q 2397 3584 2719 3584 
Q 3081 3584 3359 3409 
Q 3638 3234 3781 2919 
z
" id="DejaVuSans-Bold-6d" transform="scale(0.015625)"/>
      <path d="M 538 4863 
L 1656 4863 
L 1656 0 
L 538 0 
L 538 4863 
z
" id="DejaVuSans-Bold-6c" transform="scale(0.015625)"/>
      <path d="M 4056 2131 
L 4056 0 
L 2931 0 
L 2931 347 
L 2931 1631 
Q 2931 2084 2911 2256 
Q 2891 2428 2841 2509 
Q 2775 2619 2662 2680 
Q 2550 2741 2406 2741 
Q 2056 2741 1856 2470 
Q 1656 2200 1656 1722 
L 1656 0 
L 538 0 
L 538 3500 
L 1656 3500 
L 1656 2988 
Q 1909 3294 2193 3439 
Q 2478 3584 2822 3584 
Q 3428 3584 3742 3212 
Q 4056 2841 4056 2131 
z
" id="DejaVuSans-Bold-6e" transform="scale(0.015625)"/>
     </defs>
     <use xlink:href="#DejaVuSans-Bold-44"/>
     <use x="83.007812" xlink:href="#DejaVuSans-Bold-69"/>
     <use x="117.285156" xlink:href="#DejaVuSans-Bold-73"/>
     <use x="176.806641" xlink:href="#DejaVuSans-Bold-65"/>
     <use x="244.628906" xlink:href="#DejaVuSans-Bold-61"/>
     <use x="312.109375" xlink:href="#DejaVuSans-Bold-73"/>
     <use x="371.630859" xlink:href="#DejaVuSans-Bold-65"/>
     <use x="439.453125" xlink:href="#DejaVuSans-Bold-20"/>
     <use x="474.267578" xlink:href="#DejaVuSans-Bold-74"/>
     <use x="522.070312" xlink:href="#DejaVuSans-Bold-69"/>
     <use x="556.347656" xlink:href="#DejaVuSans-Bold-6d"/>
     <use x="660.546875" xlink:href="#DejaVuSans-Bold-65"/>
     <use x="728.369141" xlink:href="#DejaVuSans-Bold-6c"/>
     <use x="762.646484" xlink:href="#DejaVuSans-Bold-69"/>
     <use x="796.923828" xlink:href="#DejaVuSans-Bold-6e"/>
     <use x="868.115234" xlink:href="#DejaVuSans-Bold-65"/>
    </g>
   </g>
  </g>
  <g id="axes_2">
   <g id="matplotlib.axis_3">
    <g id="ytick_8">
     <g id="line2d_138">
      <defs>
       <path d="M 0 0 
L 6 0 
" id="md55176f3d7" style="stroke:#262626;stroke-width:1.25;"/>
      </defs>
      <g>
       <use style="fill:#262626;stroke:#262626;stroke-width:1.25;" x="798.39425" xlink:href="#md55176f3d7" y="472.187472"/>
      </g>
     </g>
     <g id="text_34">
      <!-- 0 -->
      <g style="fill:#262626;" transform="translate(807.89425 476.366613)scale(0.11 -0.11)">
       <use xlink:href="#DejaVuSans-30"/>
      </g>
     </g>
    </g>
    <g id="ytick_9">
     <g id="line2d_139">
      <g>
       <use style="fill:#262626;stroke:#262626;stroke-width:1.25;" x="798.39425" xlink:href="#md55176f3d7" y="391.427509"/>
      </g>
     </g>
     <g id="text_35">
      <!-- 5000 -->
      <g style="fill:#262626;" transform="translate(807.89425 395.60665)scale(0.11 -0.11)">
       <use xlink:href="#DejaVuSans-35"/>
       <use x="63.623047" xlink:href="#DejaVuSans-30"/>
       <use x="127.246094" xlink:href="#DejaVuSans-30"/>
       <use x="190.869141" xlink:href="#DejaVuSans-30"/>
      </g>
     </g>
    </g>
    <g id="ytick_10">
     <g id="line2d_140">
      <g>
       <use style="fill:#262626;stroke:#262626;stroke-width:1.25;" x="798.39425" xlink:href="#md55176f3d7" y="310.667546"/>
      </g>
     </g>
     <g id="text_36">
      <!-- 10000 -->
      <g style="fill:#262626;" transform="translate(807.89425 314.846687)scale(0.11 -0.11)">
       <use xlink:href="#DejaVuSans-31"/>
       <use x="63.623047" xlink:href="#DejaVuSans-30"/>
       <use x="127.246094" xlink:href="#DejaVuSans-30"/>
       <use x="190.869141" xlink:href="#DejaVuSans-30"/>
       <use x="254.492188" xlink:href="#DejaVuSans-30"/>
      </g>
     </g>
    </g>
    <g id="ytick_11">
     <g id="line2d_141">
      <g>
       <use style="fill:#262626;stroke:#262626;stroke-width:1.25;" x="798.39425" xlink:href="#md55176f3d7" y="229.907583"/>
      </g>
     </g>
     <g id="text_37">
      <!-- 15000 -->
      <g style="fill:#262626;" transform="translate(807.89425 234.086724)scale(0.11 -0.11)">
       <use xlink:href="#DejaVuSans-31"/>
       <use x="63.623047" xlink:href="#DejaVuSans-35"/>
       <use x="127.246094" xlink:href="#DejaVuSans-30"/>
       <use x="190.869141" xlink:href="#DejaVuSans-30"/>
       <use x="254.492188" xlink:href="#DejaVuSans-30"/>
      </g>
     </g>
    </g>
    <g id="ytick_12">
     <g id="line2d_142">
      <g>
       <use style="fill:#262626;stroke:#262626;stroke-width:1.25;" x="798.39425" xlink:href="#md55176f3d7" y="149.14762"/>
      </g>
     </g>
     <g id="text_38">
      <!-- 20000 -->
      <g style="fill:#262626;" transform="translate(807.89425 153.326761)scale(0.11 -0.11)">
       <use xlink:href="#DejaVuSans-32"/>
       <use x="63.623047" xlink:href="#DejaVuSans-30"/>
       <use x="127.246094" xlink:href="#DejaVuSans-30"/>
       <use x="190.869141" xlink:href="#DejaVuSans-30"/>
       <use x="254.492188" xlink:href="#DejaVuSans-30"/>
      </g>
     </g>
    </g>
    <g id="ytick_13">
     <g id="line2d_143">
      <g>
       <use style="fill:#262626;stroke:#262626;stroke-width:1.25;" x="798.39425" xlink:href="#md55176f3d7" y="68.387657"/>
      </g>
     </g>
     <g id="text_39">
      <!-- 25000 -->
      <g style="fill:#262626;" transform="translate(807.89425 72.566798)scale(0.11 -0.11)">
       <use xlink:href="#DejaVuSans-32"/>
       <use x="63.623047" xlink:href="#DejaVuSans-35"/>
       <use x="127.246094" xlink:href="#DejaVuSans-30"/>
       <use x="190.869141" xlink:href="#DejaVuSans-30"/>
       <use x="254.492188" xlink:href="#DejaVuSans-30"/>
      </g>
     </g>
    </g>
    <g id="text_40">
     <!-- Fatalities -->
     <g style="fill:#262626;" transform="translate(853.769875 234.422381)rotate(-270)scale(0.12 -0.12)">
      <defs>
       <path d="M 628 4666 
L 3309 4666 
L 3309 4134 
L 1259 4134 
L 1259 2759 
L 3109 2759 
L 3109 2228 
L 1259 2228 
L 1259 0 
L 628 0 
L 628 4666 
z
" id="DejaVuSans-46" transform="scale(0.015625)"/>
       <path d="M 603 4863 
L 1178 4863 
L 1178 0 
L 603 0 
L 603 4863 
z
" id="DejaVuSans-6c" transform="scale(0.015625)"/>
       <path d="M 603 3500 
L 1178 3500 
L 1178 0 
L 603 0 
L 603 3500 
z
M 603 4863 
L 1178 4863 
L 1178 4134 
L 603 4134 
L 603 4863 
z
" id="DejaVuSans-69" transform="scale(0.015625)"/>
      </defs>
      <use xlink:href="#DejaVuSans-46"/>
      <use x="48.394531" xlink:href="#DejaVuSans-61"/>
      <use x="109.673828" xlink:href="#DejaVuSans-74"/>
      <use x="148.882812" xlink:href="#DejaVuSans-61"/>
      <use x="210.162109" xlink:href="#DejaVuSans-6c"/>
      <use x="237.945312" xlink:href="#DejaVuSans-69"/>
      <use x="265.728516" xlink:href="#DejaVuSans-74"/>
      <use x="304.9375" xlink:href="#DejaVuSans-69"/>
      <use x="332.720703" xlink:href="#DejaVuSans-65"/>
      <use x="394.244141" xlink:href="#DejaVuSans-73"/>
     </g>
    </g>
   </g>
   <g id="line2d_144">
    <path clip-path="url(#pffc3ab5a50)" d="M 100.346614 472.187472 
L 120.885375 472.139016 
L 123.04735 472.058256 
L 128.452287 471.961344 
L 133.857224 471.799824 
L 138.181174 471.719065 
L 144.667098 471.525241 
L 150.072036 471.347569 
L 173.853759 470.539969 
L 181.420671 470.168473 
L 192.230546 469.926193 
L 198.71647 469.603153 
L 200.878445 469.538546 
L 205.202395 469.40933 
L 208.445357 469.344722 
L 213.850294 468.973226 
L 214.931282 468.973226 
L 216.012269 468.84401 
L 222.498194 468.650186 
L 236.55103 467.87489 
L 237.632018 467.858738 
L 240.87498 467.519546 
L 248.441892 467.002683 
L 250.603867 466.744251 
L 252.765842 466.695795 
L 254.927817 466.453515 
L 257.089792 466.146627 
L 258.170779 466.001259 
L 260.332754 465.920499 
L 262.494729 465.484395 
L 266.818679 464.999836 
L 267.899666 464.967532 
L 271.142628 464.402212 
L 273.304603 464.240692 
L 275.466578 464.14378 
L 277.628553 463.804588 
L 281.952503 463.384636 
L 283.03349 463.384636 
L 284.114478 463.0939 
L 291.68139 462.027869 
L 293.843365 461.720981 
L 296.005339 461.446397 
L 300.329289 461.010293 
L 302.491264 460.784166 
L 304.653239 460.606494 
L 306.815214 460.41267 
L 311.139164 460.025022 
L 315.463113 459.798894 
L 317.625088 459.508158 
L 321.949038 459.152814 
L 324.111013 458.862078 
L 327.353975 458.603647 
L 328.434962 458.555191 
L 332.758912 457.973719 
L 334.920887 457.796047 
L 336.001875 457.779895 
L 337.082862 457.408399 
L 340.325824 456.939991 
L 343.568787 456.261608 
L 344.649774 455.906264 
L 345.730761 455.728592 
L 346.811749 455.260184 
L 348.973724 454.791776 
L 351.135699 454.517192 
L 352.216686 453.838809 
L 353.297674 453.435009 
L 354.378661 452.853537 
L 357.621623 451.529074 
L 358.702611 451.222186 
L 359.783598 450.398434 
L 361.945573 448.508651 
L 364.107548 446.731932 
L 365.188535 445.82742 
L 366.269523 445.294405 
L 367.35051 443.582293 
L 368.431498 442.290134 
L 369.512485 441.53099 
L 370.593472 440.368047 
L 371.67446 438.995127 
L 373.836435 437.783728 
L 374.917422 435.328625 
L 377.079397 431.322931 
L 379.241372 427.317237 
L 380.322359 426.638853 
L 381.403347 425.669734 
L 382.484334 422.617007 
L 386.808284 412.748139 
L 388.970259 410.583772 
L 390.051246 407.014182 
L 394.375196 397.080707 
L 395.456183 395.804699 
L 396.537171 394.706364 
L 397.618158 391.265989 
L 398.699146 388.907798 
L 400.861121 384.885952 
L 401.942108 382.350089 
L 404.104083 380.314938 
L 405.18507 377.892139 
L 406.266058 375.194757 
L 407.347045 372.109726 
L 409.50902 367.264128 
L 411.670995 365.438953 
L 412.751982 362.919242 
L 413.83297 361.077915 
L 414.913957 359.478868 
L 417.075932 357.944429 
L 418.15692 357.136829 
L 419.237907 356.474597 
L 420.318894 355.069374 
L 421.399882 352.581967 
L 422.480869 350.805248 
L 423.561857 349.819976 
L 424.642844 349.36772 
L 426.804819 348.172473 
L 427.885807 345.63661 
L 430.047781 343.601459 
L 432.209756 341.711676 
L 433.290744 341.404788 
L 434.371731 340.93638 
L 435.452719 339.224269 
L 436.533706 338.465125 
L 437.614693 337.334486 
L 438.695681 336.575342 
L 439.776668 335.590071 
L 440.857656 335.315487 
L 441.938643 335.170119 
L 443.019631 333.845656 
L 444.100618 333.054208 
L 445.181606 332.456584 
L 446.262593 331.002905 
L 447.34358 330.066089 
L 449.505555 329.726897 
L 450.586543 328.757778 
L 451.66753 328.176306 
L 453.829505 327.255643 
L 454.910492 326.690323 
L 457.072467 326.092699 
L 458.153455 324.525956 
L 460.31543 323.298404 
L 461.396417 322.426197 
L 462.477404 321.941637 
L 463.558392 321.796269 
L 464.639379 321.473229 
L 465.720367 320.035702 
L 466.801354 319.034278 
L 467.882342 318.307439 
L 470.044317 317.225255 
L 472.206291 316.740695 
L 473.287279 315.981552 
L 474.368266 315.464688 
L 477.611229 313.558753 
L 479.773203 313.025737 
L 480.854191 311.74973 
L 483.016166 310.247594 
L 485.178141 308.600091 
L 486.259128 307.970163 
L 487.340115 307.582516 
L 488.421103 305.692732 
L 489.50209 304.352117 
L 490.583078 303.996773 
L 491.664065 302.494638 
L 492.745053 301.444758 
L 494.907028 300.750223 
L 497.069002 296.098449 
L 500.311965 291.349763 
L 501.392952 290.735987 
L 502.47394 289.912236 
L 503.554927 286.891813 
L 504.635914 285.16355 
L 505.716902 282.966879 
L 506.797889 281.319376 
L 507.878877 279.461896 
L 508.959864 278.912729 
L 510.040852 278.056673 
L 511.121839 275.326986 
L 513.283814 271.692788 
L 515.445789 268.656213 
L 516.526776 267.864766 
L 517.607764 266.895646 
L 518.688751 263.616792 
L 519.769739 261.113233 
L 521.931713 257.155995 
L 523.012701 255.136996 
L 524.093688 254.022508 
L 525.174676 252.698045 
L 526.255663 249.516102 
L 527.336651 247.384039 
L 528.417638 245.510408 
L 530.579613 241.084762 
L 531.6606 240.390226 
L 532.741588 239.308043 
L 533.822575 236.061492 
L 535.98455 231.99119 
L 538.146525 228.292384 
L 539.227512 227.678608 
L 540.3085 226.757945 
L 541.389487 223.252962 
L 545.713437 216.566037 
L 546.794424 216.033021 
L 547.875412 215.257726 
L 548.956399 212.124239 
L 550.037387 210.815928 
L 552.199362 207.811657 
L 553.280349 207.310945 
L 555.442324 205.80881 
L 557.604299 203.919027 
L 558.685286 201.2701 
L 559.766274 200.833996 
L 560.847261 199.444925 
L 561.928249 199.186493 
L 563.009236 198.750389 
L 564.090223 196.876758 
L 565.171211 195.923791 
L 568.414173 193.678664 
L 570.576148 193.420232 
L 571.657135 192.063464 
L 574.900098 190.383657 
L 575.981085 189.947553 
L 579.224047 189.317626 
L 580.305035 188.21929 
L 581.386022 187.637818 
L 583.547997 187.072499 
L 585.709972 186.910979 
L 586.79096 186.297203 
L 588.952934 185.538059 
L 590.033922 184.81122 
L 591.114909 184.520484 
L 593.276884 184.358964 
L 594.357872 183.809796 
L 596.519846 183.51906 
L 597.600834 183.27678 
L 601.924784 182.824525 
L 603.005771 182.549941 
L 605.167746 181.774645 
L 607.329721 181.629277 
L 608.410708 181.613125 
L 610.572683 181.322389 
L 618.139595 180.660158 
L 621.382557 180.11099 
L 623.544532 180.094838 
L 624.62552 179.432606 
L 632.192432 179.125718 
L 634.354407 178.89959 
L 641.921319 178.431183 
L 653.812181 177.978927 
L 655.974155 177.817407 
L 657.055143 177.752799 
L 659.217118 177.397455 
L 661.379093 177.332847 
L 662.46008 176.961351 
L 663.541067 176.799831 
L 665.703042 176.266816 
L 667.865017 175.97608 
L 668.946005 175.89532 
L 670.026992 175.378456 
L 675.431929 173.908625 
L 676.512917 173.779409 
L 677.593904 172.858745 
L 678.674892 172.325729 
L 679.755879 171.550434 
L 680.836866 171.001266 
L 681.917854 170.30673 
L 682.998841 170.064451 
L 684.079829 169.644499 
L 685.160816 167.883932 
L 688.403778 165.283461 
L 689.484766 164.475861 
L 692.727728 162.892966 
L 693.808716 160.938575 
L 694.889703 159.888695 
L 695.970691 159.048792 
L 697.051678 157.885848 
L 698.132665 157.724328 
L 699.213653 156.868273 
L 700.29464 154.623146 
L 701.375628 153.28253 
L 703.537603 151.150467 
L 704.61859 149.87446 
L 705.699577 149.3899 
L 706.780565 148.695364 
L 707.861552 146.466389 
L 708.94254 145.529574 
L 710.023527 145.09347 
L 711.104515 143.494423 
L 712.185502 142.315327 
L 713.266489 141.895375 
L 714.347477 141.249296 
L 715.428464 138.842649 
L 717.590439 136.032202 
L 718.671427 134.901563 
L 719.752414 133.496339 
L 720.833402 133.076387 
L 721.914389 132.381852 
L 722.995376 129.506797 
L 724.076364 127.82699 
L 727.319326 123.53056 
L 728.400314 123.046 
L 729.481301 122.39992 
L 730.562288 119.864057 
L 734.886238 113.80706 
L 737.048213 112.417989 
L 738.1292 108.961462 
L 739.210188 106.958615 
L 740.291175 105.230352 
L 741.372163 103.292113 
L 742.45315 101.095442 
L 743.534138 100.158626 
L 744.615125 99.512547 
L 745.696113 95.587613 
L 746.7771 93.584766 
L 747.858087 91.097359 
L 748.939075 89.094512 
L 750.020062 86.607105 
L 751.10105 85.864113 
L 752.182037 84.555802 
L 753.263025 79.548684 
L 756.505987 72.344895 
L 757.586974 69.356777 
L 759.748949 67.19241 
L 760.829937 61.797644 
L 761.910924 59.423301 
L 764.072899 53.043264 
L 765.153886 50.216665 
L 765.153886 50.216665 
" style="fill:none;stroke:#ff0000;stroke-linecap:round;stroke-width:1.5;"/>
   </g>
   <g id="patch_7">
    <path d="M 67.10625 493.286013 
L 67.10625 29.118125 
" style="fill:none;stroke:#262626;stroke-linecap:square;stroke-linejoin:miter;stroke-width:1.25;"/>
   </g>
   <g id="patch_8">
    <path d="M 798.39425 493.286013 
L 798.39425 29.118125 
" style="fill:none;stroke:#262626;stroke-linecap:square;stroke-linejoin:miter;stroke-width:1.25;"/>
   </g>
   <g id="patch_9">
    <path d="M 67.10625 493.286013 
L 798.39425 493.286013 
" style="fill:none;stroke:#262626;stroke-linecap:square;stroke-linejoin:miter;stroke-width:1.25;"/>
   </g>
   <g id="patch_10">
    <path d="M 67.10625 29.118125 
L 798.39425 29.118125 
" style="fill:none;stroke:#262626;stroke-linecap:square;stroke-linejoin:miter;stroke-width:1.25;"/>
   </g>
   <g id="legend_1">
    <g id="patch_11">
     <path d="M 74.80625 86.355937 
L 154.975625 86.355937 
Q 157.175625 86.355937 157.175625 84.155937 
L 157.175625 36.818125 
Q 157.175625 34.618125 154.975625 34.618125 
L 74.80625 34.618125 
Q 72.60625 34.618125 72.60625 36.818125 
L 72.60625 84.155937 
Q 72.60625 86.355937 74.80625 86.355937 
z
" style="fill:#ffffff;opacity:0.8;stroke:#cccccc;stroke-linejoin:miter;"/>
    </g>
    <g id="line2d_145">
     <path d="M 77.00625 43.526406 
L 99.00625 43.526406 
" style="fill:none;stroke:#ffa500;stroke-linecap:round;stroke-width:1.5;"/>
    </g>
    <g id="line2d_146"/>
    <g id="text_41">
     <!-- Infected -->
     <g style="fill:#262626;" transform="translate(107.80625 47.376406)scale(0.11 -0.11)">
      <defs>
       <path d="M 628 4666 
L 1259 4666 
L 1259 0 
L 628 0 
L 628 4666 
z
" id="DejaVuSans-49" transform="scale(0.015625)"/>
       <path d="M 3513 2113 
L 3513 0 
L 2938 0 
L 2938 2094 
Q 2938 2591 2744 2837 
Q 2550 3084 2163 3084 
Q 1697 3084 1428 2787 
Q 1159 2491 1159 1978 
L 1159 0 
L 581 0 
L 581 3500 
L 1159 3500 
L 1159 2956 
Q 1366 3272 1645 3428 
Q 1925 3584 2291 3584 
Q 2894 3584 3203 3211 
Q 3513 2838 3513 2113 
z
" id="DejaVuSans-6e" transform="scale(0.015625)"/>
       <path d="M 2375 4863 
L 2375 4384 
L 1825 4384 
Q 1516 4384 1395 4259 
Q 1275 4134 1275 3809 
L 1275 3500 
L 2222 3500 
L 2222 3053 
L 1275 3053 
L 1275 0 
L 697 0 
L 697 3053 
L 147 3053 
L 147 3500 
L 697 3500 
L 697 3744 
Q 697 4328 969 4595 
Q 1241 4863 1831 4863 
L 2375 4863 
z
" id="DejaVuSans-66" transform="scale(0.015625)"/>
       <path d="M 3122 3366 
L 3122 2828 
Q 2878 2963 2633 3030 
Q 2388 3097 2138 3097 
Q 1578 3097 1268 2742 
Q 959 2388 959 1747 
Q 959 1106 1268 751 
Q 1578 397 2138 397 
Q 2388 397 2633 464 
Q 2878 531 3122 666 
L 3122 134 
Q 2881 22 2623 -34 
Q 2366 -91 2075 -91 
Q 1284 -91 818 406 
Q 353 903 353 1747 
Q 353 2603 823 3093 
Q 1294 3584 2113 3584 
Q 2378 3584 2631 3529 
Q 2884 3475 3122 3366 
z
" id="DejaVuSans-63" transform="scale(0.015625)"/>
      </defs>
      <use xlink:href="#DejaVuSans-49"/>
      <use x="29.492188" xlink:href="#DejaVuSans-6e"/>
      <use x="92.871094" xlink:href="#DejaVuSans-66"/>
      <use x="128.076172" xlink:href="#DejaVuSans-65"/>
      <use x="189.599609" xlink:href="#DejaVuSans-63"/>
      <use x="244.580078" xlink:href="#DejaVuSans-74"/>
      <use x="283.789062" xlink:href="#DejaVuSans-65"/>
      <use x="345.3125" xlink:href="#DejaVuSans-64"/>
     </g>
    </g>
    <g id="line2d_147">
     <path d="M 77.00625 59.672344 
L 99.00625 59.672344 
" style="fill:none;stroke:#008000;stroke-linecap:round;stroke-width:1.5;"/>
    </g>
    <g id="line2d_148"/>
    <g id="text_42">
     <!-- Cured -->
     <g style="fill:#262626;" transform="translate(107.80625 63.522344)scale(0.11 -0.11)">
      <defs>
       <path d="M 2631 2963 
Q 2534 3019 2420 3045 
Q 2306 3072 2169 3072 
Q 1681 3072 1420 2755 
Q 1159 2438 1159 1844 
L 1159 0 
L 581 0 
L 581 3500 
L 1159 3500 
L 1159 2956 
Q 1341 3275 1631 3429 
Q 1922 3584 2338 3584 
Q 2397 3584 2469 3576 
Q 2541 3569 2628 3553 
L 2631 2963 
z
" id="DejaVuSans-72" transform="scale(0.015625)"/>
      </defs>
      <use xlink:href="#DejaVuSans-43"/>
      <use x="69.824219" xlink:href="#DejaVuSans-75"/>
      <use x="133.203125" xlink:href="#DejaVuSans-72"/>
      <use x="172.066406" xlink:href="#DejaVuSans-65"/>
      <use x="233.589844" xlink:href="#DejaVuSans-64"/>
     </g>
    </g>
    <g id="line2d_149">
     <path d="M 77.00625 75.818281 
L 99.00625 75.818281 
" style="fill:none;stroke:#ff0000;stroke-linecap:round;stroke-width:1.5;"/>
    </g>
    <g id="line2d_150"/>
    <g id="text_43">
     <!-- Fatal -->
     <g style="fill:#262626;" transform="translate(107.80625 79.668281)scale(0.11 -0.11)">
      <use xlink:href="#DejaVuSans-46"/>
      <use x="48.394531" xlink:href="#DejaVuSans-61"/>
      <use x="109.673828" xlink:href="#DejaVuSans-74"/>
      <use x="148.882812" xlink:href="#DejaVuSans-61"/>
      <use x="210.162109" xlink:href="#DejaVuSans-6c"/>
     </g>
    </g>
   </g>
  </g>
 </g>
 <defs>
  <clipPath id="pffc3ab5a50">
   <rect height="464.167888" width="731.288" x="67.10625" y="29.118125"/>
  </clipPath>
 </defs>
</svg>
