<?xml version="1.0" encoding="utf-8" standalone="no"?>
<!DOCTYPE svg PUBLIC "-//W3C//DTD SVG 1.1//EN"
  "http://www.w3.org/Graphics/SVG/1.1/DTD/svg11.dtd">
<svg xmlns:xlink="http://www.w3.org/1999/xlink" width="837.0775pt" height="547.904678pt" viewBox="0 0 837.0775 547.904678" xmlns="http://www.w3.org/2000/svg" version="1.1">
 <metadata>
  <rdf:RDF xmlns:dc="http://purl.org/dc/elements/1.1/" xmlns:cc="http://creativecommons.org/ns#" xmlns:rdf="http://www.w3.org/1999/02/22-rdf-syntax-ns#">
   <cc:Work>
    <dc:type rdf:resource="http://purl.org/dc/dcmitype/StillImage"/>
    <dc:date>2021-12-10T02:37:10.138614</dc:date>
    <dc:format>image/svg+xml</dc:format>
    <dc:creator>
     <cc:Agent>
      <dc:title>Matplotlib v3.5.0, https://matplotlib.org/</dc:title>
     </cc:Agent>
    </dc:creator>
   </cc:Work>
  </rdf:RDF>
 </metadata>
 <defs>
  <style type="text/css">*{stroke-linejoin: round; stroke-linecap: butt}</style>
 </defs>
 <g id="figure_1">
  <g id="patch_1">
   <path d="M -0 547.904678 
L 837.0775 547.904678 
L 837.0775 0 
L -0 0 
L -0 547.904678 
z
" style="fill: none"/>
  </g>
  <g id="axes_1">
   <g id="patch_2">
    <path d="M 60.1075 470.728203 
L 837.0775 470.728203 
L 837.0775 29.118125 
L 60.1075 29.118125 
L 60.1075 470.728203 
z
" style="fill: none"/>
   </g>
   <g id="matplotlib.axis_1">
    <g id="xtick_1">
     <g id="line2d_1">
      <path d="M 95.424318 470.728203 
L 95.424318 29.118125 
" clip-path="url(#p22263c73cf)" style="fill: none; stroke: #cccccc; stroke-linecap: round"/>
     </g>
     <g id="line2d_2">
      <defs>
       <path id="m6740d24865" d="M 0 0 
L 0 6 
" style="stroke: #262626; stroke-width: 1.25"/>
      </defs>
      <g>
       <use xlink:href="#m6740d24865" x="95.424318" y="470.728203" style="fill: #262626; stroke: #262626; stroke-width: 1.25"/>
      </g>
     </g>
     <g id="text_1">
      <!-- 05.04.2020 -->
      <g style="fill: #262626" transform="translate(49.27179 530.673311)rotate(-45)scale(0.11 -0.11)">
       <defs>
        <path id="DejaVuSans-30" d="M 2034 4250 
Q 1547 4250 1301 3770 
Q 1056 3291 1056 2328 
Q 1056 1369 1301 889 
Q 1547 409 2034 409 
Q 2525 409 2770 889 
Q 3016 1369 3016 2328 
Q 3016 3291 2770 3770 
Q 2525 4250 2034 4250 
z
M 2034 4750 
Q 2819 4750 3233 4129 
Q 3647 3509 3647 2328 
Q 3647 1150 3233 529 
Q 2819 -91 2034 -91 
Q 1250 -91 836 529 
Q 422 1150 422 2328 
Q 422 3509 836 4129 
Q 1250 4750 2034 4750 
z
" transform="scale(0.015625)"/>
        <path id="DejaVuSans-35" d="M 691 4666 
L 3169 4666 
L 3169 4134 
L 1269 4134 
L 1269 2991 
Q 1406 3038 1543 3061 
Q 1681 3084 1819 3084 
Q 2600 3084 3056 2656 
Q 3513 2228 3513 1497 
Q 3513 744 3044 326 
Q 2575 -91 1722 -91 
Q 1428 -91 1123 -41 
Q 819 9 494 109 
L 494 744 
Q 775 591 1075 516 
Q 1375 441 1709 441 
Q 2250 441 2565 725 
Q 2881 1009 2881 1497 
Q 2881 1984 2565 2268 
Q 2250 2553 1709 2553 
Q 1456 2553 1204 2497 
Q 953 2441 691 2322 
L 691 4666 
z
" transform="scale(0.015625)"/>
        <path id="DejaVuSans-2e" d="M 684 794 
L 1344 794 
L 1344 0 
L 684 0 
L 684 794 
z
" transform="scale(0.015625)"/>
        <path id="DejaVuSans-34" d="M 2419 4116 
L 825 1625 
L 2419 1625 
L 2419 4116 
z
M 2253 4666 
L 3047 4666 
L 3047 1625 
L 3713 1625 
L 3713 1100 
L 3047 1100 
L 3047 0 
L 2419 0 
L 2419 1100 
L 313 1100 
L 313 1709 
L 2253 4666 
z
" transform="scale(0.015625)"/>
        <path id="DejaVuSans-32" d="M 1228 531 
L 3431 531 
L 3431 0 
L 469 0 
L 469 531 
Q 828 903 1448 1529 
Q 2069 2156 2228 2338 
Q 2531 2678 2651 2914 
Q 2772 3150 2772 3378 
Q 2772 3750 2511 3984 
Q 2250 4219 1831 4219 
Q 1534 4219 1204 4116 
Q 875 4013 500 3803 
L 500 4441 
Q 881 4594 1212 4672 
Q 1544 4750 1819 4750 
Q 2544 4750 2975 4387 
Q 3406 4025 3406 3419 
Q 3406 3131 3298 2873 
Q 3191 2616 2906 2266 
Q 2828 2175 2409 1742 
Q 1991 1309 1228 531 
z
" transform="scale(0.015625)"/>
       </defs>
       <use xlink:href="#DejaVuSans-30"/>
       <use xlink:href="#DejaVuSans-35" x="63.623047"/>
       <use xlink:href="#DejaVuSans-2e" x="127.246094"/>
       <use xlink:href="#DejaVuSans-30" x="159.033203"/>
       <use xlink:href="#DejaVuSans-34" x="222.65625"/>
       <use xlink:href="#DejaVuSans-2e" x="286.279297"/>
       <use xlink:href="#DejaVuSans-32" x="318.066406"/>
       <use xlink:href="#DejaVuSans-30" x="381.689453"/>
       <use xlink:href="#DejaVuSans-32" x="445.3125"/>
       <use xlink:href="#DejaVuSans-30" x="508.935547"/>
      </g>
     </g>
    </g>
    <g id="xtick_2">
     <g id="line2d_3">
      <path d="M 127.687643 470.728203 
L 127.687643 29.118125 
" clip-path="url(#p22263c73cf)" style="fill: none; stroke: #cccccc; stroke-linecap: round"/>
     </g>
     <g id="line2d_4">
      <g>
       <use xlink:href="#m6740d24865" x="127.687643" y="470.728203" style="fill: #262626; stroke: #262626; stroke-width: 1.25"/>
      </g>
     </g>
     <g id="text_2">
      <!-- 03.05.2020 -->
      <g style="fill: #262626" transform="translate(81.535115 530.673311)rotate(-45)scale(0.11 -0.11)">
       <defs>
        <path id="DejaVuSans-33" d="M 2597 2516 
Q 3050 2419 3304 2112 
Q 3559 1806 3559 1356 
Q 3559 666 3084 287 
Q 2609 -91 1734 -91 
Q 1441 -91 1130 -33 
Q 819 25 488 141 
L 488 750 
Q 750 597 1062 519 
Q 1375 441 1716 441 
Q 2309 441 2620 675 
Q 2931 909 2931 1356 
Q 2931 1769 2642 2001 
Q 2353 2234 1838 2234 
L 1294 2234 
L 1294 2753 
L 1863 2753 
Q 2328 2753 2575 2939 
Q 2822 3125 2822 3475 
Q 2822 3834 2567 4026 
Q 2313 4219 1838 4219 
Q 1578 4219 1281 4162 
Q 984 4106 628 3988 
L 628 4550 
Q 988 4650 1302 4700 
Q 1616 4750 1894 4750 
Q 2613 4750 3031 4423 
Q 3450 4097 3450 3541 
Q 3450 3153 3228 2886 
Q 3006 2619 2597 2516 
z
" transform="scale(0.015625)"/>
       </defs>
       <use xlink:href="#DejaVuSans-30"/>
       <use xlink:href="#DejaVuSans-33" x="63.623047"/>
       <use xlink:href="#DejaVuSans-2e" x="127.246094"/>
       <use xlink:href="#DejaVuSans-30" x="159.033203"/>
       <use xlink:href="#DejaVuSans-35" x="222.65625"/>
       <use xlink:href="#DejaVuSans-2e" x="286.279297"/>
       <use xlink:href="#DejaVuSans-32" x="318.066406"/>
       <use xlink:href="#DejaVuSans-30" x="381.689453"/>
       <use xlink:href="#DejaVuSans-32" x="445.3125"/>
       <use xlink:href="#DejaVuSans-30" x="508.935547"/>
      </g>
     </g>
    </g>
    <g id="xtick_3">
     <g id="line2d_5">
      <path d="M 159.950968 470.728203 
L 159.950968 29.118125 
" clip-path="url(#p22263c73cf)" style="fill: none; stroke: #cccccc; stroke-linecap: round"/>
     </g>
     <g id="line2d_6">
      <g>
       <use xlink:href="#m6740d24865" x="159.950968" y="470.728203" style="fill: #262626; stroke: #262626; stroke-width: 1.25"/>
      </g>
     </g>
     <g id="text_3">
      <!-- 31.05.2020 -->
      <g style="fill: #262626" transform="translate(113.79844 530.673311)rotate(-45)scale(0.11 -0.11)">
       <defs>
        <path id="DejaVuSans-31" d="M 794 531 
L 1825 531 
L 1825 4091 
L 703 3866 
L 703 4441 
L 1819 4666 
L 2450 4666 
L 2450 531 
L 3481 531 
L 3481 0 
L 794 0 
L 794 531 
z
" transform="scale(0.015625)"/>
       </defs>
       <use xlink:href="#DejaVuSans-33"/>
       <use xlink:href="#DejaVuSans-31" x="63.623047"/>
       <use xlink:href="#DejaVuSans-2e" x="127.246094"/>
       <use xlink:href="#DejaVuSans-30" x="159.033203"/>
       <use xlink:href="#DejaVuSans-35" x="222.65625"/>
       <use xlink:href="#DejaVuSans-2e" x="286.279297"/>
       <use xlink:href="#DejaVuSans-32" x="318.066406"/>
       <use xlink:href="#DejaVuSans-30" x="381.689453"/>
       <use xlink:href="#DejaVuSans-32" x="445.3125"/>
       <use xlink:href="#DejaVuSans-30" x="508.935547"/>
      </g>
     </g>
    </g>
    <g id="xtick_4">
     <g id="line2d_7">
      <path d="M 192.214293 470.728203 
L 192.214293 29.118125 
" clip-path="url(#p22263c73cf)" style="fill: none; stroke: #cccccc; stroke-linecap: round"/>
     </g>
     <g id="line2d_8">
      <g>
       <use xlink:href="#m6740d24865" x="192.214293" y="470.728203" style="fill: #262626; stroke: #262626; stroke-width: 1.25"/>
      </g>
     </g>
     <g id="text_4">
      <!-- 28.06.2020 -->
      <g style="fill: #262626" transform="translate(146.061765 530.673311)rotate(-45)scale(0.11 -0.11)">
       <defs>
        <path id="DejaVuSans-38" d="M 2034 2216 
Q 1584 2216 1326 1975 
Q 1069 1734 1069 1313 
Q 1069 891 1326 650 
Q 1584 409 2034 409 
Q 2484 409 2743 651 
Q 3003 894 3003 1313 
Q 3003 1734 2745 1975 
Q 2488 2216 2034 2216 
z
M 1403 2484 
Q 997 2584 770 2862 
Q 544 3141 544 3541 
Q 544 4100 942 4425 
Q 1341 4750 2034 4750 
Q 2731 4750 3128 4425 
Q 3525 4100 3525 3541 
Q 3525 3141 3298 2862 
Q 3072 2584 2669 2484 
Q 3125 2378 3379 2068 
Q 3634 1759 3634 1313 
Q 3634 634 3220 271 
Q 2806 -91 2034 -91 
Q 1263 -91 848 271 
Q 434 634 434 1313 
Q 434 1759 690 2068 
Q 947 2378 1403 2484 
z
M 1172 3481 
Q 1172 3119 1398 2916 
Q 1625 2713 2034 2713 
Q 2441 2713 2670 2916 
Q 2900 3119 2900 3481 
Q 2900 3844 2670 4047 
Q 2441 4250 2034 4250 
Q 1625 4250 1398 4047 
Q 1172 3844 1172 3481 
z
" transform="scale(0.015625)"/>
        <path id="DejaVuSans-36" d="M 2113 2584 
Q 1688 2584 1439 2293 
Q 1191 2003 1191 1497 
Q 1191 994 1439 701 
Q 1688 409 2113 409 
Q 2538 409 2786 701 
Q 3034 994 3034 1497 
Q 3034 2003 2786 2293 
Q 2538 2584 2113 2584 
z
M 3366 4563 
L 3366 3988 
Q 3128 4100 2886 4159 
Q 2644 4219 2406 4219 
Q 1781 4219 1451 3797 
Q 1122 3375 1075 2522 
Q 1259 2794 1537 2939 
Q 1816 3084 2150 3084 
Q 2853 3084 3261 2657 
Q 3669 2231 3669 1497 
Q 3669 778 3244 343 
Q 2819 -91 2113 -91 
Q 1303 -91 875 529 
Q 447 1150 447 2328 
Q 447 3434 972 4092 
Q 1497 4750 2381 4750 
Q 2619 4750 2861 4703 
Q 3103 4656 3366 4563 
z
" transform="scale(0.015625)"/>
       </defs>
       <use xlink:href="#DejaVuSans-32"/>
       <use xlink:href="#DejaVuSans-38" x="63.623047"/>
       <use xlink:href="#DejaVuSans-2e" x="127.246094"/>
       <use xlink:href="#DejaVuSans-30" x="159.033203"/>
       <use xlink:href="#DejaVuSans-36" x="222.65625"/>
       <use xlink:href="#DejaVuSans-2e" x="286.279297"/>
       <use xlink:href="#DejaVuSans-32" x="318.066406"/>
       <use xlink:href="#DejaVuSans-30" x="381.689453"/>
       <use xlink:href="#DejaVuSans-32" x="445.3125"/>
       <use xlink:href="#DejaVuSans-30" x="508.935547"/>
      </g>
     </g>
    </g>
    <g id="xtick_5">
     <g id="line2d_9">
      <path d="M 224.477618 470.728203 
L 224.477618 29.118125 
" clip-path="url(#p22263c73cf)" style="fill: none; stroke: #cccccc; stroke-linecap: round"/>
     </g>
     <g id="line2d_10">
      <g>
       <use xlink:href="#m6740d24865" x="224.477618" y="470.728203" style="fill: #262626; stroke: #262626; stroke-width: 1.25"/>
      </g>
     </g>
     <g id="text_5">
      <!-- 26.07.2020 -->
      <g style="fill: #262626" transform="translate(178.32509 530.673311)rotate(-45)scale(0.11 -0.11)">
       <defs>
        <path id="DejaVuSans-37" d="M 525 4666 
L 3525 4666 
L 3525 4397 
L 1831 0 
L 1172 0 
L 2766 4134 
L 525 4134 
L 525 4666 
z
" transform="scale(0.015625)"/>
       </defs>
       <use xlink:href="#DejaVuSans-32"/>
       <use xlink:href="#DejaVuSans-36" x="63.623047"/>
       <use xlink:href="#DejaVuSans-2e" x="127.246094"/>
       <use xlink:href="#DejaVuSans-30" x="159.033203"/>
       <use xlink:href="#DejaVuSans-37" x="222.65625"/>
       <use xlink:href="#DejaVuSans-2e" x="286.279297"/>
       <use xlink:href="#DejaVuSans-32" x="318.066406"/>
       <use xlink:href="#DejaVuSans-30" x="381.689453"/>
       <use xlink:href="#DejaVuSans-32" x="445.3125"/>
       <use xlink:href="#DejaVuSans-30" x="508.935547"/>
      </g>
     </g>
    </g>
    <g id="xtick_6">
     <g id="line2d_11">
      <path d="M 256.740943 470.728203 
L 256.740943 29.118125 
" clip-path="url(#p22263c73cf)" style="fill: none; stroke: #cccccc; stroke-linecap: round"/>
     </g>
     <g id="line2d_12">
      <g>
       <use xlink:href="#m6740d24865" x="256.740943" y="470.728203" style="fill: #262626; stroke: #262626; stroke-width: 1.25"/>
      </g>
     </g>
     <g id="text_6">
      <!-- 23.08.2020 -->
      <g style="fill: #262626" transform="translate(210.588415 530.673311)rotate(-45)scale(0.11 -0.11)">
       <use xlink:href="#DejaVuSans-32"/>
       <use xlink:href="#DejaVuSans-33" x="63.623047"/>
       <use xlink:href="#DejaVuSans-2e" x="127.246094"/>
       <use xlink:href="#DejaVuSans-30" x="159.033203"/>
       <use xlink:href="#DejaVuSans-38" x="222.65625"/>
       <use xlink:href="#DejaVuSans-2e" x="286.279297"/>
       <use xlink:href="#DejaVuSans-32" x="318.066406"/>
       <use xlink:href="#DejaVuSans-30" x="381.689453"/>
       <use xlink:href="#DejaVuSans-32" x="445.3125"/>
       <use xlink:href="#DejaVuSans-30" x="508.935547"/>
      </g>
     </g>
    </g>
    <g id="xtick_7">
     <g id="line2d_13">
      <path d="M 289.004268 470.728203 
L 289.004268 29.118125 
" clip-path="url(#p22263c73cf)" style="fill: none; stroke: #cccccc; stroke-linecap: round"/>
     </g>
     <g id="line2d_14">
      <g>
       <use xlink:href="#m6740d24865" x="289.004268" y="470.728203" style="fill: #262626; stroke: #262626; stroke-width: 1.25"/>
      </g>
     </g>
     <g id="text_7">
      <!-- 20.09.2020 -->
      <g style="fill: #262626" transform="translate(242.85174 530.673311)rotate(-45)scale(0.11 -0.11)">
       <defs>
        <path id="DejaVuSans-39" d="M 703 97 
L 703 672 
Q 941 559 1184 500 
Q 1428 441 1663 441 
Q 2288 441 2617 861 
Q 2947 1281 2994 2138 
Q 2813 1869 2534 1725 
Q 2256 1581 1919 1581 
Q 1219 1581 811 2004 
Q 403 2428 403 3163 
Q 403 3881 828 4315 
Q 1253 4750 1959 4750 
Q 2769 4750 3195 4129 
Q 3622 3509 3622 2328 
Q 3622 1225 3098 567 
Q 2575 -91 1691 -91 
Q 1453 -91 1209 -44 
Q 966 3 703 97 
z
M 1959 2075 
Q 2384 2075 2632 2365 
Q 2881 2656 2881 3163 
Q 2881 3666 2632 3958 
Q 2384 4250 1959 4250 
Q 1534 4250 1286 3958 
Q 1038 3666 1038 3163 
Q 1038 2656 1286 2365 
Q 1534 2075 1959 2075 
z
" transform="scale(0.015625)"/>
       </defs>
       <use xlink:href="#DejaVuSans-32"/>
       <use xlink:href="#DejaVuSans-30" x="63.623047"/>
       <use xlink:href="#DejaVuSans-2e" x="127.246094"/>
       <use xlink:href="#DejaVuSans-30" x="159.033203"/>
       <use xlink:href="#DejaVuSans-39" x="222.65625"/>
       <use xlink:href="#DejaVuSans-2e" x="286.279297"/>
       <use xlink:href="#DejaVuSans-32" x="318.066406"/>
       <use xlink:href="#DejaVuSans-30" x="381.689453"/>
       <use xlink:href="#DejaVuSans-32" x="445.3125"/>
       <use xlink:href="#DejaVuSans-30" x="508.935547"/>
      </g>
     </g>
    </g>
    <g id="xtick_8">
     <g id="line2d_15">
      <path d="M 321.267593 470.728203 
L 321.267593 29.118125 
" clip-path="url(#p22263c73cf)" style="fill: none; stroke: #cccccc; stroke-linecap: round"/>
     </g>
     <g id="line2d_16">
      <g>
       <use xlink:href="#m6740d24865" x="321.267593" y="470.728203" style="fill: #262626; stroke: #262626; stroke-width: 1.25"/>
      </g>
     </g>
     <g id="text_8">
      <!-- 18.10.2020 -->
      <g style="fill: #262626" transform="translate(275.115065 530.673311)rotate(-45)scale(0.11 -0.11)">
       <use xlink:href="#DejaVuSans-31"/>
       <use xlink:href="#DejaVuSans-38" x="63.623047"/>
       <use xlink:href="#DejaVuSans-2e" x="127.246094"/>
       <use xlink:href="#DejaVuSans-31" x="159.033203"/>
       <use xlink:href="#DejaVuSans-30" x="222.65625"/>
       <use xlink:href="#DejaVuSans-2e" x="286.279297"/>
       <use xlink:href="#DejaVuSans-32" x="318.066406"/>
       <use xlink:href="#DejaVuSans-30" x="381.689453"/>
       <use xlink:href="#DejaVuSans-32" x="445.3125"/>
       <use xlink:href="#DejaVuSans-30" x="508.935547"/>
      </g>
     </g>
    </g>
    <g id="xtick_9">
     <g id="line2d_17">
      <path d="M 353.530918 470.728203 
L 353.530918 29.118125 
" clip-path="url(#p22263c73cf)" style="fill: none; stroke: #cccccc; stroke-linecap: round"/>
     </g>
     <g id="line2d_18">
      <g>
       <use xlink:href="#m6740d24865" x="353.530918" y="470.728203" style="fill: #262626; stroke: #262626; stroke-width: 1.25"/>
      </g>
     </g>
     <g id="text_9">
      <!-- 15.11.2020 -->
      <g style="fill: #262626" transform="translate(307.378389 530.673311)rotate(-45)scale(0.11 -0.11)">
       <use xlink:href="#DejaVuSans-31"/>
       <use xlink:href="#DejaVuSans-35" x="63.623047"/>
       <use xlink:href="#DejaVuSans-2e" x="127.246094"/>
       <use xlink:href="#DejaVuSans-31" x="159.033203"/>
       <use xlink:href="#DejaVuSans-31" x="222.65625"/>
       <use xlink:href="#DejaVuSans-2e" x="286.279297"/>
       <use xlink:href="#DejaVuSans-32" x="318.066406"/>
       <use xlink:href="#DejaVuSans-30" x="381.689453"/>
       <use xlink:href="#DejaVuSans-32" x="445.3125"/>
       <use xlink:href="#DejaVuSans-30" x="508.935547"/>
      </g>
     </g>
    </g>
    <g id="xtick_10">
     <g id="line2d_19">
      <path d="M 385.794243 470.728203 
L 385.794243 29.118125 
" clip-path="url(#p22263c73cf)" style="fill: none; stroke: #cccccc; stroke-linecap: round"/>
     </g>
     <g id="line2d_20">
      <g>
       <use xlink:href="#m6740d24865" x="385.794243" y="470.728203" style="fill: #262626; stroke: #262626; stroke-width: 1.25"/>
      </g>
     </g>
     <g id="text_10">
      <!-- 13.12.2020 -->
      <g style="fill: #262626" transform="translate(339.641714 530.673311)rotate(-45)scale(0.11 -0.11)">
       <use xlink:href="#DejaVuSans-31"/>
       <use xlink:href="#DejaVuSans-33" x="63.623047"/>
       <use xlink:href="#DejaVuSans-2e" x="127.246094"/>
       <use xlink:href="#DejaVuSans-31" x="159.033203"/>
       <use xlink:href="#DejaVuSans-32" x="222.65625"/>
       <use xlink:href="#DejaVuSans-2e" x="286.279297"/>
       <use xlink:href="#DejaVuSans-32" x="318.066406"/>
       <use xlink:href="#DejaVuSans-30" x="381.689453"/>
       <use xlink:href="#DejaVuSans-32" x="445.3125"/>
       <use xlink:href="#DejaVuSans-30" x="508.935547"/>
      </g>
     </g>
    </g>
    <g id="xtick_11">
     <g id="line2d_21">
      <path d="M 418.057567 470.728203 
L 418.057567 29.118125 
" clip-path="url(#p22263c73cf)" style="fill: none; stroke: #cccccc; stroke-linecap: round"/>
     </g>
     <g id="line2d_22">
      <g>
       <use xlink:href="#m6740d24865" x="418.057567" y="470.728203" style="fill: #262626; stroke: #262626; stroke-width: 1.25"/>
      </g>
     </g>
     <g id="text_11">
      <!-- 10.01.2021 -->
      <g style="fill: #262626" transform="translate(371.905039 530.673311)rotate(-45)scale(0.11 -0.11)">
       <use xlink:href="#DejaVuSans-31"/>
       <use xlink:href="#DejaVuSans-30" x="63.623047"/>
       <use xlink:href="#DejaVuSans-2e" x="127.246094"/>
       <use xlink:href="#DejaVuSans-30" x="159.033203"/>
       <use xlink:href="#DejaVuSans-31" x="222.65625"/>
       <use xlink:href="#DejaVuSans-2e" x="286.279297"/>
       <use xlink:href="#DejaVuSans-32" x="318.066406"/>
       <use xlink:href="#DejaVuSans-30" x="381.689453"/>
       <use xlink:href="#DejaVuSans-32" x="445.3125"/>
       <use xlink:href="#DejaVuSans-31" x="508.935547"/>
      </g>
     </g>
    </g>
    <g id="xtick_12">
     <g id="line2d_23">
      <path d="M 450.320892 470.728203 
L 450.320892 29.118125 
" clip-path="url(#p22263c73cf)" style="fill: none; stroke: #cccccc; stroke-linecap: round"/>
     </g>
     <g id="line2d_24">
      <g>
       <use xlink:href="#m6740d24865" x="450.320892" y="470.728203" style="fill: #262626; stroke: #262626; stroke-width: 1.25"/>
      </g>
     </g>
     <g id="text_12">
      <!-- 07.02.2021 -->
      <g style="fill: #262626" transform="translate(404.168364 530.673311)rotate(-45)scale(0.11 -0.11)">
       <use xlink:href="#DejaVuSans-30"/>
       <use xlink:href="#DejaVuSans-37" x="63.623047"/>
       <use xlink:href="#DejaVuSans-2e" x="127.246094"/>
       <use xlink:href="#DejaVuSans-30" x="159.033203"/>
       <use xlink:href="#DejaVuSans-32" x="222.65625"/>
       <use xlink:href="#DejaVuSans-2e" x="286.279297"/>
       <use xlink:href="#DejaVuSans-32" x="318.066406"/>
       <use xlink:href="#DejaVuSans-30" x="381.689453"/>
       <use xlink:href="#DejaVuSans-32" x="445.3125"/>
       <use xlink:href="#DejaVuSans-31" x="508.935547"/>
      </g>
     </g>
    </g>
    <g id="xtick_13">
     <g id="line2d_25">
      <path d="M 482.584217 470.728203 
L 482.584217 29.118125 
" clip-path="url(#p22263c73cf)" style="fill: none; stroke: #cccccc; stroke-linecap: round"/>
     </g>
     <g id="line2d_26">
      <g>
       <use xlink:href="#m6740d24865" x="482.584217" y="470.728203" style="fill: #262626; stroke: #262626; stroke-width: 1.25"/>
      </g>
     </g>
     <g id="text_13">
      <!-- 07.03.2021 -->
      <g style="fill: #262626" transform="translate(436.431689 530.673311)rotate(-45)scale(0.11 -0.11)">
       <use xlink:href="#DejaVuSans-30"/>
       <use xlink:href="#DejaVuSans-37" x="63.623047"/>
       <use xlink:href="#DejaVuSans-2e" x="127.246094"/>
       <use xlink:href="#DejaVuSans-30" x="159.033203"/>
       <use xlink:href="#DejaVuSans-33" x="222.65625"/>
       <use xlink:href="#DejaVuSans-2e" x="286.279297"/>
       <use xlink:href="#DejaVuSans-32" x="318.066406"/>
       <use xlink:href="#DejaVuSans-30" x="381.689453"/>
       <use xlink:href="#DejaVuSans-32" x="445.3125"/>
       <use xlink:href="#DejaVuSans-31" x="508.935547"/>
      </g>
     </g>
    </g>
    <g id="xtick_14">
     <g id="line2d_27">
      <path d="M 514.847542 470.728203 
L 514.847542 29.118125 
" clip-path="url(#p22263c73cf)" style="fill: none; stroke: #cccccc; stroke-linecap: round"/>
     </g>
     <g id="line2d_28">
      <g>
       <use xlink:href="#m6740d24865" x="514.847542" y="470.728203" style="fill: #262626; stroke: #262626; stroke-width: 1.25"/>
      </g>
     </g>
     <g id="text_14">
      <!-- 04.04.2021 -->
      <g style="fill: #262626" transform="translate(468.695014 530.673311)rotate(-45)scale(0.11 -0.11)">
       <use xlink:href="#DejaVuSans-30"/>
       <use xlink:href="#DejaVuSans-34" x="63.623047"/>
       <use xlink:href="#DejaVuSans-2e" x="127.246094"/>
       <use xlink:href="#DejaVuSans-30" x="159.033203"/>
       <use xlink:href="#DejaVuSans-34" x="222.65625"/>
       <use xlink:href="#DejaVuSans-2e" x="286.279297"/>
       <use xlink:href="#DejaVuSans-32" x="318.066406"/>
       <use xlink:href="#DejaVuSans-30" x="381.689453"/>
       <use xlink:href="#DejaVuSans-32" x="445.3125"/>
       <use xlink:href="#DejaVuSans-31" x="508.935547"/>
      </g>
     </g>
    </g>
    <g id="xtick_15">
     <g id="line2d_29">
      <path d="M 547.110867 470.728203 
L 547.110867 29.118125 
" clip-path="url(#p22263c73cf)" style="fill: none; stroke: #cccccc; stroke-linecap: round"/>
     </g>
     <g id="line2d_30">
      <g>
       <use xlink:href="#m6740d24865" x="547.110867" y="470.728203" style="fill: #262626; stroke: #262626; stroke-width: 1.25"/>
      </g>
     </g>
     <g id="text_15">
      <!-- 02.05.2021 -->
      <g style="fill: #262626" transform="translate(500.958339 530.673311)rotate(-45)scale(0.11 -0.11)">
       <use xlink:href="#DejaVuSans-30"/>
       <use xlink:href="#DejaVuSans-32" x="63.623047"/>
       <use xlink:href="#DejaVuSans-2e" x="127.246094"/>
       <use xlink:href="#DejaVuSans-30" x="159.033203"/>
       <use xlink:href="#DejaVuSans-35" x="222.65625"/>
       <use xlink:href="#DejaVuSans-2e" x="286.279297"/>
       <use xlink:href="#DejaVuSans-32" x="318.066406"/>
       <use xlink:href="#DejaVuSans-30" x="381.689453"/>
       <use xlink:href="#DejaVuSans-32" x="445.3125"/>
       <use xlink:href="#DejaVuSans-31" x="508.935547"/>
      </g>
     </g>
    </g>
    <g id="xtick_16">
     <g id="line2d_31">
      <path d="M 579.374192 470.728203 
L 579.374192 29.118125 
" clip-path="url(#p22263c73cf)" style="fill: none; stroke: #cccccc; stroke-linecap: round"/>
     </g>
     <g id="line2d_32">
      <g>
       <use xlink:href="#m6740d24865" x="579.374192" y="470.728203" style="fill: #262626; stroke: #262626; stroke-width: 1.25"/>
      </g>
     </g>
     <g id="text_16">
      <!-- 30.05.2021 -->
      <g style="fill: #262626" transform="translate(533.221664 530.673311)rotate(-45)scale(0.11 -0.11)">
       <use xlink:href="#DejaVuSans-33"/>
       <use xlink:href="#DejaVuSans-30" x="63.623047"/>
       <use xlink:href="#DejaVuSans-2e" x="127.246094"/>
       <use xlink:href="#DejaVuSans-30" x="159.033203"/>
       <use xlink:href="#DejaVuSans-35" x="222.65625"/>
       <use xlink:href="#DejaVuSans-2e" x="286.279297"/>
       <use xlink:href="#DejaVuSans-32" x="318.066406"/>
       <use xlink:href="#DejaVuSans-30" x="381.689453"/>
       <use xlink:href="#DejaVuSans-32" x="445.3125"/>
       <use xlink:href="#DejaVuSans-31" x="508.935547"/>
      </g>
     </g>
    </g>
    <g id="xtick_17">
     <g id="line2d_33">
      <path d="M 611.637517 470.728203 
L 611.637517 29.118125 
" clip-path="url(#p22263c73cf)" style="fill: none; stroke: #cccccc; stroke-linecap: round"/>
     </g>
     <g id="line2d_34">
      <g>
       <use xlink:href="#m6740d24865" x="611.637517" y="470.728203" style="fill: #262626; stroke: #262626; stroke-width: 1.25"/>
      </g>
     </g>
     <g id="text_17">
      <!-- 27.06.2021 -->
      <g style="fill: #262626" transform="translate(565.484989 530.673311)rotate(-45)scale(0.11 -0.11)">
       <use xlink:href="#DejaVuSans-32"/>
       <use xlink:href="#DejaVuSans-37" x="63.623047"/>
       <use xlink:href="#DejaVuSans-2e" x="127.246094"/>
       <use xlink:href="#DejaVuSans-30" x="159.033203"/>
       <use xlink:href="#DejaVuSans-36" x="222.65625"/>
       <use xlink:href="#DejaVuSans-2e" x="286.279297"/>
       <use xlink:href="#DejaVuSans-32" x="318.066406"/>
       <use xlink:href="#DejaVuSans-30" x="381.689453"/>
       <use xlink:href="#DejaVuSans-32" x="445.3125"/>
       <use xlink:href="#DejaVuSans-31" x="508.935547"/>
      </g>
     </g>
    </g>
    <g id="xtick_18">
     <g id="line2d_35">
      <path d="M 643.900842 470.728203 
L 643.900842 29.118125 
" clip-path="url(#p22263c73cf)" style="fill: none; stroke: #cccccc; stroke-linecap: round"/>
     </g>
     <g id="line2d_36">
      <g>
       <use xlink:href="#m6740d24865" x="643.900842" y="470.728203" style="fill: #262626; stroke: #262626; stroke-width: 1.25"/>
      </g>
     </g>
     <g id="text_18">
      <!-- 25.07.2021 -->
      <g style="fill: #262626" transform="translate(597.748314 530.673311)rotate(-45)scale(0.11 -0.11)">
       <use xlink:href="#DejaVuSans-32"/>
       <use xlink:href="#DejaVuSans-35" x="63.623047"/>
       <use xlink:href="#DejaVuSans-2e" x="127.246094"/>
       <use xlink:href="#DejaVuSans-30" x="159.033203"/>
       <use xlink:href="#DejaVuSans-37" x="222.65625"/>
       <use xlink:href="#DejaVuSans-2e" x="286.279297"/>
       <use xlink:href="#DejaVuSans-32" x="318.066406"/>
       <use xlink:href="#DejaVuSans-30" x="381.689453"/>
       <use xlink:href="#DejaVuSans-32" x="445.3125"/>
       <use xlink:href="#DejaVuSans-31" x="508.935547"/>
      </g>
     </g>
    </g>
    <g id="xtick_19">
     <g id="line2d_37">
      <path d="M 676.164167 470.728203 
L 676.164167 29.118125 
" clip-path="url(#p22263c73cf)" style="fill: none; stroke: #cccccc; stroke-linecap: round"/>
     </g>
     <g id="line2d_38">
      <g>
       <use xlink:href="#m6740d24865" x="676.164167" y="470.728203" style="fill: #262626; stroke: #262626; stroke-width: 1.25"/>
      </g>
     </g>
     <g id="text_19">
      <!-- 22.08.2021 -->
      <g style="fill: #262626" transform="translate(630.011639 530.673311)rotate(-45)scale(0.11 -0.11)">
       <use xlink:href="#DejaVuSans-32"/>
       <use xlink:href="#DejaVuSans-32" x="63.623047"/>
       <use xlink:href="#DejaVuSans-2e" x="127.246094"/>
       <use xlink:href="#DejaVuSans-30" x="159.033203"/>
       <use xlink:href="#DejaVuSans-38" x="222.65625"/>
       <use xlink:href="#DejaVuSans-2e" x="286.279297"/>
       <use xlink:href="#DejaVuSans-32" x="318.066406"/>
       <use xlink:href="#DejaVuSans-30" x="381.689453"/>
       <use xlink:href="#DejaVuSans-32" x="445.3125"/>
       <use xlink:href="#DejaVuSans-31" x="508.935547"/>
      </g>
     </g>
    </g>
    <g id="xtick_20">
     <g id="line2d_39">
      <path d="M 708.427492 470.728203 
L 708.427492 29.118125 
" clip-path="url(#p22263c73cf)" style="fill: none; stroke: #cccccc; stroke-linecap: round"/>
     </g>
     <g id="line2d_40">
      <g>
       <use xlink:href="#m6740d24865" x="708.427492" y="470.728203" style="fill: #262626; stroke: #262626; stroke-width: 1.25"/>
      </g>
     </g>
     <g id="text_20">
      <!-- 19.09.2021 -->
      <g style="fill: #262626" transform="translate(662.274964 530.673311)rotate(-45)scale(0.11 -0.11)">
       <use xlink:href="#DejaVuSans-31"/>
       <use xlink:href="#DejaVuSans-39" x="63.623047"/>
       <use xlink:href="#DejaVuSans-2e" x="127.246094"/>
       <use xlink:href="#DejaVuSans-30" x="159.033203"/>
       <use xlink:href="#DejaVuSans-39" x="222.65625"/>
       <use xlink:href="#DejaVuSans-2e" x="286.279297"/>
       <use xlink:href="#DejaVuSans-32" x="318.066406"/>
       <use xlink:href="#DejaVuSans-30" x="381.689453"/>
       <use xlink:href="#DejaVuSans-32" x="445.3125"/>
       <use xlink:href="#DejaVuSans-31" x="508.935547"/>
      </g>
     </g>
    </g>
    <g id="xtick_21">
     <g id="line2d_41">
      <path d="M 740.690817 470.728203 
L 740.690817 29.118125 
" clip-path="url(#p22263c73cf)" style="fill: none; stroke: #cccccc; stroke-linecap: round"/>
     </g>
     <g id="line2d_42">
      <g>
       <use xlink:href="#m6740d24865" x="740.690817" y="470.728203" style="fill: #262626; stroke: #262626; stroke-width: 1.25"/>
      </g>
     </g>
     <g id="text_21">
      <!-- 17.10.2021 -->
      <g style="fill: #262626" transform="translate(694.538289 530.673311)rotate(-45)scale(0.11 -0.11)">
       <use xlink:href="#DejaVuSans-31"/>
       <use xlink:href="#DejaVuSans-37" x="63.623047"/>
       <use xlink:href="#DejaVuSans-2e" x="127.246094"/>
       <use xlink:href="#DejaVuSans-31" x="159.033203"/>
       <use xlink:href="#DejaVuSans-30" x="222.65625"/>
       <use xlink:href="#DejaVuSans-2e" x="286.279297"/>
       <use xlink:href="#DejaVuSans-32" x="318.066406"/>
       <use xlink:href="#DejaVuSans-30" x="381.689453"/>
       <use xlink:href="#DejaVuSans-32" x="445.3125"/>
       <use xlink:href="#DejaVuSans-31" x="508.935547"/>
      </g>
     </g>
    </g>
    <g id="xtick_22">
     <g id="line2d_43">
      <path d="M 772.954142 470.728203 
L 772.954142 29.118125 
" clip-path="url(#p22263c73cf)" style="fill: none; stroke: #cccccc; stroke-linecap: round"/>
     </g>
     <g id="line2d_44">
      <g>
       <use xlink:href="#m6740d24865" x="772.954142" y="470.728203" style="fill: #262626; stroke: #262626; stroke-width: 1.25"/>
      </g>
     </g>
     <g id="text_22">
      <!-- 14.11.2021 -->
      <g style="fill: #262626" transform="translate(726.801614 530.673311)rotate(-45)scale(0.11 -0.11)">
       <use xlink:href="#DejaVuSans-31"/>
       <use xlink:href="#DejaVuSans-34" x="63.623047"/>
       <use xlink:href="#DejaVuSans-2e" x="127.246094"/>
       <use xlink:href="#DejaVuSans-31" x="159.033203"/>
       <use xlink:href="#DejaVuSans-31" x="222.65625"/>
       <use xlink:href="#DejaVuSans-2e" x="286.279297"/>
       <use xlink:href="#DejaVuSans-32" x="318.066406"/>
       <use xlink:href="#DejaVuSans-30" x="381.689453"/>
       <use xlink:href="#DejaVuSans-32" x="445.3125"/>
       <use xlink:href="#DejaVuSans-31" x="508.935547"/>
      </g>
     </g>
    </g>
    <g id="xtick_23">
     <g id="line2d_45">
      <defs>
       <path id="mec930ff552" d="M 0 0 
L 0 4 
" style="stroke: #262626"/>
      </defs>
      <g>
       <use xlink:href="#mec930ff552" x="62.008732" y="470.728203" style="fill: #262626; stroke: #262626"/>
      </g>
     </g>
    </g>
    <g id="xtick_24">
     <g id="line2d_46">
      <g>
       <use xlink:href="#mec930ff552" x="70.074563" y="470.728203" style="fill: #262626; stroke: #262626"/>
      </g>
     </g>
    </g>
    <g id="xtick_25">
     <g id="line2d_47">
      <g>
       <use xlink:href="#mec930ff552" x="78.140394" y="470.728203" style="fill: #262626; stroke: #262626"/>
      </g>
     </g>
    </g>
    <g id="xtick_26">
     <g id="line2d_48">
      <g>
       <use xlink:href="#mec930ff552" x="86.206225" y="470.728203" style="fill: #262626; stroke: #262626"/>
      </g>
     </g>
    </g>
    <g id="xtick_27">
     <g id="line2d_49">
      <g>
       <use xlink:href="#mec930ff552" x="94.272057" y="470.728203" style="fill: #262626; stroke: #262626"/>
      </g>
     </g>
    </g>
    <g id="xtick_28">
     <g id="line2d_50">
      <g>
       <use xlink:href="#mec930ff552" x="102.337888" y="470.728203" style="fill: #262626; stroke: #262626"/>
      </g>
     </g>
    </g>
    <g id="xtick_29">
     <g id="line2d_51">
      <g>
       <use xlink:href="#mec930ff552" x="110.403719" y="470.728203" style="fill: #262626; stroke: #262626"/>
      </g>
     </g>
    </g>
    <g id="xtick_30">
     <g id="line2d_52">
      <g>
       <use xlink:href="#mec930ff552" x="118.46955" y="470.728203" style="fill: #262626; stroke: #262626"/>
      </g>
     </g>
    </g>
    <g id="xtick_31">
     <g id="line2d_53">
      <g>
       <use xlink:href="#mec930ff552" x="126.535382" y="470.728203" style="fill: #262626; stroke: #262626"/>
      </g>
     </g>
    </g>
    <g id="xtick_32">
     <g id="line2d_54">
      <g>
       <use xlink:href="#mec930ff552" x="134.601213" y="470.728203" style="fill: #262626; stroke: #262626"/>
      </g>
     </g>
    </g>
    <g id="xtick_33">
     <g id="line2d_55">
      <g>
       <use xlink:href="#mec930ff552" x="142.667044" y="470.728203" style="fill: #262626; stroke: #262626"/>
      </g>
     </g>
    </g>
    <g id="xtick_34">
     <g id="line2d_56">
      <g>
       <use xlink:href="#mec930ff552" x="150.732875" y="470.728203" style="fill: #262626; stroke: #262626"/>
      </g>
     </g>
    </g>
    <g id="xtick_35">
     <g id="line2d_57">
      <g>
       <use xlink:href="#mec930ff552" x="158.798706" y="470.728203" style="fill: #262626; stroke: #262626"/>
      </g>
     </g>
    </g>
    <g id="xtick_36">
     <g id="line2d_58">
      <g>
       <use xlink:href="#mec930ff552" x="166.864538" y="470.728203" style="fill: #262626; stroke: #262626"/>
      </g>
     </g>
    </g>
    <g id="xtick_37">
     <g id="line2d_59">
      <g>
       <use xlink:href="#mec930ff552" x="174.930369" y="470.728203" style="fill: #262626; stroke: #262626"/>
      </g>
     </g>
    </g>
    <g id="xtick_38">
     <g id="line2d_60">
      <g>
       <use xlink:href="#mec930ff552" x="182.9962" y="470.728203" style="fill: #262626; stroke: #262626"/>
      </g>
     </g>
    </g>
    <g id="xtick_39">
     <g id="line2d_61">
      <g>
       <use xlink:href="#mec930ff552" x="191.062031" y="470.728203" style="fill: #262626; stroke: #262626"/>
      </g>
     </g>
    </g>
    <g id="xtick_40">
     <g id="line2d_62">
      <g>
       <use xlink:href="#mec930ff552" x="199.127863" y="470.728203" style="fill: #262626; stroke: #262626"/>
      </g>
     </g>
    </g>
    <g id="xtick_41">
     <g id="line2d_63">
      <g>
       <use xlink:href="#mec930ff552" x="207.193694" y="470.728203" style="fill: #262626; stroke: #262626"/>
      </g>
     </g>
    </g>
    <g id="xtick_42">
     <g id="line2d_64">
      <g>
       <use xlink:href="#mec930ff552" x="215.259525" y="470.728203" style="fill: #262626; stroke: #262626"/>
      </g>
     </g>
    </g>
    <g id="xtick_43">
     <g id="line2d_65">
      <g>
       <use xlink:href="#mec930ff552" x="223.325356" y="470.728203" style="fill: #262626; stroke: #262626"/>
      </g>
     </g>
    </g>
    <g id="xtick_44">
     <g id="line2d_66">
      <g>
       <use xlink:href="#mec930ff552" x="231.391188" y="470.728203" style="fill: #262626; stroke: #262626"/>
      </g>
     </g>
    </g>
    <g id="xtick_45">
     <g id="line2d_67">
      <g>
       <use xlink:href="#mec930ff552" x="239.457019" y="470.728203" style="fill: #262626; stroke: #262626"/>
      </g>
     </g>
    </g>
    <g id="xtick_46">
     <g id="line2d_68">
      <g>
       <use xlink:href="#mec930ff552" x="247.52285" y="470.728203" style="fill: #262626; stroke: #262626"/>
      </g>
     </g>
    </g>
    <g id="xtick_47">
     <g id="line2d_69">
      <g>
       <use xlink:href="#mec930ff552" x="255.588681" y="470.728203" style="fill: #262626; stroke: #262626"/>
      </g>
     </g>
    </g>
    <g id="xtick_48">
     <g id="line2d_70">
      <g>
       <use xlink:href="#mec930ff552" x="263.654512" y="470.728203" style="fill: #262626; stroke: #262626"/>
      </g>
     </g>
    </g>
    <g id="xtick_49">
     <g id="line2d_71">
      <g>
       <use xlink:href="#mec930ff552" x="271.720344" y="470.728203" style="fill: #262626; stroke: #262626"/>
      </g>
     </g>
    </g>
    <g id="xtick_50">
     <g id="line2d_72">
      <g>
       <use xlink:href="#mec930ff552" x="279.786175" y="470.728203" style="fill: #262626; stroke: #262626"/>
      </g>
     </g>
    </g>
    <g id="xtick_51">
     <g id="line2d_73">
      <g>
       <use xlink:href="#mec930ff552" x="287.852006" y="470.728203" style="fill: #262626; stroke: #262626"/>
      </g>
     </g>
    </g>
    <g id="xtick_52">
     <g id="line2d_74">
      <g>
       <use xlink:href="#mec930ff552" x="295.917837" y="470.728203" style="fill: #262626; stroke: #262626"/>
      </g>
     </g>
    </g>
    <g id="xtick_53">
     <g id="line2d_75">
      <g>
       <use xlink:href="#mec930ff552" x="303.983669" y="470.728203" style="fill: #262626; stroke: #262626"/>
      </g>
     </g>
    </g>
    <g id="xtick_54">
     <g id="line2d_76">
      <g>
       <use xlink:href="#mec930ff552" x="312.0495" y="470.728203" style="fill: #262626; stroke: #262626"/>
      </g>
     </g>
    </g>
    <g id="xtick_55">
     <g id="line2d_77">
      <g>
       <use xlink:href="#mec930ff552" x="320.115331" y="470.728203" style="fill: #262626; stroke: #262626"/>
      </g>
     </g>
    </g>
    <g id="xtick_56">
     <g id="line2d_78">
      <g>
       <use xlink:href="#mec930ff552" x="328.181162" y="470.728203" style="fill: #262626; stroke: #262626"/>
      </g>
     </g>
    </g>
    <g id="xtick_57">
     <g id="line2d_79">
      <g>
       <use xlink:href="#mec930ff552" x="336.246994" y="470.728203" style="fill: #262626; stroke: #262626"/>
      </g>
     </g>
    </g>
    <g id="xtick_58">
     <g id="line2d_80">
      <g>
       <use xlink:href="#mec930ff552" x="344.312825" y="470.728203" style="fill: #262626; stroke: #262626"/>
      </g>
     </g>
    </g>
    <g id="xtick_59">
     <g id="line2d_81">
      <g>
       <use xlink:href="#mec930ff552" x="352.378656" y="470.728203" style="fill: #262626; stroke: #262626"/>
      </g>
     </g>
    </g>
    <g id="xtick_60">
     <g id="line2d_82">
      <g>
       <use xlink:href="#mec930ff552" x="360.444487" y="470.728203" style="fill: #262626; stroke: #262626"/>
      </g>
     </g>
    </g>
    <g id="xtick_61">
     <g id="line2d_83">
      <g>
       <use xlink:href="#mec930ff552" x="368.510318" y="470.728203" style="fill: #262626; stroke: #262626"/>
      </g>
     </g>
    </g>
    <g id="xtick_62">
     <g id="line2d_84">
      <g>
       <use xlink:href="#mec930ff552" x="376.57615" y="470.728203" style="fill: #262626; stroke: #262626"/>
      </g>
     </g>
    </g>
    <g id="xtick_63">
     <g id="line2d_85">
      <g>
       <use xlink:href="#mec930ff552" x="384.641981" y="470.728203" style="fill: #262626; stroke: #262626"/>
      </g>
     </g>
    </g>
    <g id="xtick_64">
     <g id="line2d_86">
      <g>
       <use xlink:href="#mec930ff552" x="392.707812" y="470.728203" style="fill: #262626; stroke: #262626"/>
      </g>
     </g>
    </g>
    <g id="xtick_65">
     <g id="line2d_87">
      <g>
       <use xlink:href="#mec930ff552" x="400.773643" y="470.728203" style="fill: #262626; stroke: #262626"/>
      </g>
     </g>
    </g>
    <g id="xtick_66">
     <g id="line2d_88">
      <g>
       <use xlink:href="#mec930ff552" x="408.839475" y="470.728203" style="fill: #262626; stroke: #262626"/>
      </g>
     </g>
    </g>
    <g id="xtick_67">
     <g id="line2d_89">
      <g>
       <use xlink:href="#mec930ff552" x="416.905306" y="470.728203" style="fill: #262626; stroke: #262626"/>
      </g>
     </g>
    </g>
    <g id="xtick_68">
     <g id="line2d_90">
      <g>
       <use xlink:href="#mec930ff552" x="424.971137" y="470.728203" style="fill: #262626; stroke: #262626"/>
      </g>
     </g>
    </g>
    <g id="xtick_69">
     <g id="line2d_91">
      <g>
       <use xlink:href="#mec930ff552" x="433.036968" y="470.728203" style="fill: #262626; stroke: #262626"/>
      </g>
     </g>
    </g>
    <g id="xtick_70">
     <g id="line2d_92">
      <g>
       <use xlink:href="#mec930ff552" x="441.1028" y="470.728203" style="fill: #262626; stroke: #262626"/>
      </g>
     </g>
    </g>
    <g id="xtick_71">
     <g id="line2d_93">
      <g>
       <use xlink:href="#mec930ff552" x="449.168631" y="470.728203" style="fill: #262626; stroke: #262626"/>
      </g>
     </g>
    </g>
    <g id="xtick_72">
     <g id="line2d_94">
      <g>
       <use xlink:href="#mec930ff552" x="457.234462" y="470.728203" style="fill: #262626; stroke: #262626"/>
      </g>
     </g>
    </g>
    <g id="xtick_73">
     <g id="line2d_95">
      <g>
       <use xlink:href="#mec930ff552" x="465.300293" y="470.728203" style="fill: #262626; stroke: #262626"/>
      </g>
     </g>
    </g>
    <g id="xtick_74">
     <g id="line2d_96">
      <g>
       <use xlink:href="#mec930ff552" x="473.366124" y="470.728203" style="fill: #262626; stroke: #262626"/>
      </g>
     </g>
    </g>
    <g id="xtick_75">
     <g id="line2d_97">
      <g>
       <use xlink:href="#mec930ff552" x="481.431956" y="470.728203" style="fill: #262626; stroke: #262626"/>
      </g>
     </g>
    </g>
    <g id="xtick_76">
     <g id="line2d_98">
      <g>
       <use xlink:href="#mec930ff552" x="489.497787" y="470.728203" style="fill: #262626; stroke: #262626"/>
      </g>
     </g>
    </g>
    <g id="xtick_77">
     <g id="line2d_99">
      <g>
       <use xlink:href="#mec930ff552" x="497.563618" y="470.728203" style="fill: #262626; stroke: #262626"/>
      </g>
     </g>
    </g>
    <g id="xtick_78">
     <g id="line2d_100">
      <g>
       <use xlink:href="#mec930ff552" x="505.629449" y="470.728203" style="fill: #262626; stroke: #262626"/>
      </g>
     </g>
    </g>
    <g id="xtick_79">
     <g id="line2d_101">
      <g>
       <use xlink:href="#mec930ff552" x="513.695281" y="470.728203" style="fill: #262626; stroke: #262626"/>
      </g>
     </g>
    </g>
    <g id="xtick_80">
     <g id="line2d_102">
      <g>
       <use xlink:href="#mec930ff552" x="521.761112" y="470.728203" style="fill: #262626; stroke: #262626"/>
      </g>
     </g>
    </g>
    <g id="xtick_81">
     <g id="line2d_103">
      <g>
       <use xlink:href="#mec930ff552" x="529.826943" y="470.728203" style="fill: #262626; stroke: #262626"/>
      </g>
     </g>
    </g>
    <g id="xtick_82">
     <g id="line2d_104">
      <g>
       <use xlink:href="#mec930ff552" x="537.892774" y="470.728203" style="fill: #262626; stroke: #262626"/>
      </g>
     </g>
    </g>
    <g id="xtick_83">
     <g id="line2d_105">
      <g>
       <use xlink:href="#mec930ff552" x="545.958606" y="470.728203" style="fill: #262626; stroke: #262626"/>
      </g>
     </g>
    </g>
    <g id="xtick_84">
     <g id="line2d_106">
      <g>
       <use xlink:href="#mec930ff552" x="554.024437" y="470.728203" style="fill: #262626; stroke: #262626"/>
      </g>
     </g>
    </g>
    <g id="xtick_85">
     <g id="line2d_107">
      <g>
       <use xlink:href="#mec930ff552" x="562.090268" y="470.728203" style="fill: #262626; stroke: #262626"/>
      </g>
     </g>
    </g>
    <g id="xtick_86">
     <g id="line2d_108">
      <g>
       <use xlink:href="#mec930ff552" x="570.156099" y="470.728203" style="fill: #262626; stroke: #262626"/>
      </g>
     </g>
    </g>
    <g id="xtick_87">
     <g id="line2d_109">
      <g>
       <use xlink:href="#mec930ff552" x="578.221931" y="470.728203" style="fill: #262626; stroke: #262626"/>
      </g>
     </g>
    </g>
    <g id="xtick_88">
     <g id="line2d_110">
      <g>
       <use xlink:href="#mec930ff552" x="586.287762" y="470.728203" style="fill: #262626; stroke: #262626"/>
      </g>
     </g>
    </g>
    <g id="xtick_89">
     <g id="line2d_111">
      <g>
       <use xlink:href="#mec930ff552" x="594.353593" y="470.728203" style="fill: #262626; stroke: #262626"/>
      </g>
     </g>
    </g>
    <g id="xtick_90">
     <g id="line2d_112">
      <g>
       <use xlink:href="#mec930ff552" x="602.419424" y="470.728203" style="fill: #262626; stroke: #262626"/>
      </g>
     </g>
    </g>
    <g id="xtick_91">
     <g id="line2d_113">
      <g>
       <use xlink:href="#mec930ff552" x="610.485255" y="470.728203" style="fill: #262626; stroke: #262626"/>
      </g>
     </g>
    </g>
    <g id="xtick_92">
     <g id="line2d_114">
      <g>
       <use xlink:href="#mec930ff552" x="618.551087" y="470.728203" style="fill: #262626; stroke: #262626"/>
      </g>
     </g>
    </g>
    <g id="xtick_93">
     <g id="line2d_115">
      <g>
       <use xlink:href="#mec930ff552" x="626.616918" y="470.728203" style="fill: #262626; stroke: #262626"/>
      </g>
     </g>
    </g>
    <g id="xtick_94">
     <g id="line2d_116">
      <g>
       <use xlink:href="#mec930ff552" x="634.682749" y="470.728203" style="fill: #262626; stroke: #262626"/>
      </g>
     </g>
    </g>
    <g id="xtick_95">
     <g id="line2d_117">
      <g>
       <use xlink:href="#mec930ff552" x="642.74858" y="470.728203" style="fill: #262626; stroke: #262626"/>
      </g>
     </g>
    </g>
    <g id="xtick_96">
     <g id="line2d_118">
      <g>
       <use xlink:href="#mec930ff552" x="650.814412" y="470.728203" style="fill: #262626; stroke: #262626"/>
      </g>
     </g>
    </g>
    <g id="xtick_97">
     <g id="line2d_119">
      <g>
       <use xlink:href="#mec930ff552" x="658.880243" y="470.728203" style="fill: #262626; stroke: #262626"/>
      </g>
     </g>
    </g>
    <g id="xtick_98">
     <g id="line2d_120">
      <g>
       <use xlink:href="#mec930ff552" x="666.946074" y="470.728203" style="fill: #262626; stroke: #262626"/>
      </g>
     </g>
    </g>
    <g id="xtick_99">
     <g id="line2d_121">
      <g>
       <use xlink:href="#mec930ff552" x="675.011905" y="470.728203" style="fill: #262626; stroke: #262626"/>
      </g>
     </g>
    </g>
    <g id="xtick_100">
     <g id="line2d_122">
      <g>
       <use xlink:href="#mec930ff552" x="683.077737" y="470.728203" style="fill: #262626; stroke: #262626"/>
      </g>
     </g>
    </g>
    <g id="xtick_101">
     <g id="line2d_123">
      <g>
       <use xlink:href="#mec930ff552" x="691.143568" y="470.728203" style="fill: #262626; stroke: #262626"/>
      </g>
     </g>
    </g>
    <g id="xtick_102">
     <g id="line2d_124">
      <g>
       <use xlink:href="#mec930ff552" x="699.209399" y="470.728203" style="fill: #262626; stroke: #262626"/>
      </g>
     </g>
    </g>
    <g id="xtick_103">
     <g id="line2d_125">
      <g>
       <use xlink:href="#mec930ff552" x="707.27523" y="470.728203" style="fill: #262626; stroke: #262626"/>
      </g>
     </g>
    </g>
    <g id="xtick_104">
     <g id="line2d_126">
      <g>
       <use xlink:href="#mec930ff552" x="715.341061" y="470.728203" style="fill: #262626; stroke: #262626"/>
      </g>
     </g>
    </g>
    <g id="xtick_105">
     <g id="line2d_127">
      <g>
       <use xlink:href="#mec930ff552" x="723.406893" y="470.728203" style="fill: #262626; stroke: #262626"/>
      </g>
     </g>
    </g>
    <g id="xtick_106">
     <g id="line2d_128">
      <g>
       <use xlink:href="#mec930ff552" x="731.472724" y="470.728203" style="fill: #262626; stroke: #262626"/>
      </g>
     </g>
    </g>
    <g id="xtick_107">
     <g id="line2d_129">
      <g>
       <use xlink:href="#mec930ff552" x="739.538555" y="470.728203" style="fill: #262626; stroke: #262626"/>
      </g>
     </g>
    </g>
    <g id="xtick_108">
     <g id="line2d_130">
      <g>
       <use xlink:href="#mec930ff552" x="747.604386" y="470.728203" style="fill: #262626; stroke: #262626"/>
      </g>
     </g>
    </g>
    <g id="xtick_109">
     <g id="line2d_131">
      <g>
       <use xlink:href="#mec930ff552" x="755.670218" y="470.728203" style="fill: #262626; stroke: #262626"/>
      </g>
     </g>
    </g>
    <g id="xtick_110">
     <g id="line2d_132">
      <g>
       <use xlink:href="#mec930ff552" x="763.736049" y="470.728203" style="fill: #262626; stroke: #262626"/>
      </g>
     </g>
    </g>
    <g id="xtick_111">
     <g id="line2d_133">
      <g>
       <use xlink:href="#mec930ff552" x="771.80188" y="470.728203" style="fill: #262626; stroke: #262626"/>
      </g>
     </g>
    </g>
    <g id="xtick_112">
     <g id="line2d_134">
      <g>
       <use xlink:href="#mec930ff552" x="779.867711" y="470.728203" style="fill: #262626; stroke: #262626"/>
      </g>
     </g>
    </g>
    <g id="xtick_113">
     <g id="line2d_135">
      <g>
       <use xlink:href="#mec930ff552" x="787.933543" y="470.728203" style="fill: #262626; stroke: #262626"/>
      </g>
     </g>
    </g>
    <g id="xtick_114">
     <g id="line2d_136">
      <g>
       <use xlink:href="#mec930ff552" x="795.999374" y="470.728203" style="fill: #262626; stroke: #262626"/>
      </g>
     </g>
    </g>
    <g id="xtick_115">
     <g id="line2d_137">
      <g>
       <use xlink:href="#mec930ff552" x="804.065205" y="470.728203" style="fill: #262626; stroke: #262626"/>
      </g>
     </g>
    </g>
    <g id="xtick_116">
     <g id="line2d_138">
      <g>
       <use xlink:href="#mec930ff552" x="812.131036" y="470.728203" style="fill: #262626; stroke: #262626"/>
      </g>
     </g>
    </g>
    <g id="xtick_117">
     <g id="line2d_139">
      <g>
       <use xlink:href="#mec930ff552" x="820.196867" y="470.728203" style="fill: #262626; stroke: #262626"/>
      </g>
     </g>
    </g>
    <g id="xtick_118">
     <g id="line2d_140">
      <g>
       <use xlink:href="#mec930ff552" x="828.262699" y="470.728203" style="fill: #262626; stroke: #262626"/>
      </g>
     </g>
    </g>
    <g id="xtick_119">
     <g id="line2d_141">
      <g>
       <use xlink:href="#mec930ff552" x="836.32853" y="470.728203" style="fill: #262626; stroke: #262626"/>
      </g>
     </g>
    </g>
    <g id="text_23">
     <!-- Date -->
     <g style="fill: #262626" transform="translate(434.251563 545.409053)scale(0.12 -0.12)">
      <defs>
       <path id="DejaVuSans-44" d="M 1259 4147 
L 1259 519 
L 2022 519 
Q 2988 519 3436 956 
Q 3884 1394 3884 2338 
Q 3884 3275 3436 3711 
Q 2988 4147 2022 4147 
L 1259 4147 
z
M 628 4666 
L 1925 4666 
Q 3281 4666 3915 4102 
Q 4550 3538 4550 2338 
Q 4550 1131 3912 565 
Q 3275 0 1925 0 
L 628 0 
L 628 4666 
z
" transform="scale(0.015625)"/>
       <path id="DejaVuSans-61" d="M 2194 1759 
Q 1497 1759 1228 1600 
Q 959 1441 959 1056 
Q 959 750 1161 570 
Q 1363 391 1709 391 
Q 2188 391 2477 730 
Q 2766 1069 2766 1631 
L 2766 1759 
L 2194 1759 
z
M 3341 1997 
L 3341 0 
L 2766 0 
L 2766 531 
Q 2569 213 2275 61 
Q 1981 -91 1556 -91 
Q 1019 -91 701 211 
Q 384 513 384 1019 
Q 384 1609 779 1909 
Q 1175 2209 1959 2209 
L 2766 2209 
L 2766 2266 
Q 2766 2663 2505 2880 
Q 2244 3097 1772 3097 
Q 1472 3097 1187 3025 
Q 903 2953 641 2809 
L 641 3341 
Q 956 3463 1253 3523 
Q 1550 3584 1831 3584 
Q 2591 3584 2966 3190 
Q 3341 2797 3341 1997 
z
" transform="scale(0.015625)"/>
       <path id="DejaVuSans-74" d="M 1172 4494 
L 1172 3500 
L 2356 3500 
L 2356 3053 
L 1172 3053 
L 1172 1153 
Q 1172 725 1289 603 
Q 1406 481 1766 481 
L 2356 481 
L 2356 0 
L 1766 0 
Q 1100 0 847 248 
Q 594 497 594 1153 
L 594 3053 
L 172 3053 
L 172 3500 
L 594 3500 
L 594 4494 
L 1172 4494 
z
" transform="scale(0.015625)"/>
       <path id="DejaVuSans-65" d="M 3597 1894 
L 3597 1613 
L 953 1613 
Q 991 1019 1311 708 
Q 1631 397 2203 397 
Q 2534 397 2845 478 
Q 3156 559 3463 722 
L 3463 178 
Q 3153 47 2828 -22 
Q 2503 -91 2169 -91 
Q 1331 -91 842 396 
Q 353 884 353 1716 
Q 353 2575 817 3079 
Q 1281 3584 2069 3584 
Q 2775 3584 3186 3129 
Q 3597 2675 3597 1894 
z
M 3022 2063 
Q 3016 2534 2758 2815 
Q 2500 3097 2075 3097 
Q 1594 3097 1305 2825 
Q 1016 2553 972 2059 
L 3022 2063 
z
" transform="scale(0.015625)"/>
      </defs>
      <use xlink:href="#DejaVuSans-44"/>
      <use xlink:href="#DejaVuSans-61" x="77.001953"/>
      <use xlink:href="#DejaVuSans-74" x="138.28125"/>
      <use xlink:href="#DejaVuSans-65" x="177.490234"/>
     </g>
    </g>
   </g>
   <g id="matplotlib.axis_2">
    <g id="ytick_1">
     <g id="line2d_142">
      <path d="M 60.1075 450.956842 
L 837.0775 450.956842 
" clip-path="url(#p22263c73cf)" style="fill: none; stroke: #cccccc; stroke-linecap: round"/>
     </g>
     <g id="line2d_143">
      <defs>
       <path id="md87f08d138" d="M 0 0 
L -6 0 
" style="stroke: #262626; stroke-width: 1.25"/>
      </defs>
      <g>
       <use xlink:href="#md87f08d138" x="60.1075" y="450.956842" style="fill: #262626; stroke: #262626; stroke-width: 1.25"/>
      </g>
     </g>
     <g id="text_24">
      <!-- 0 -->
      <g style="fill: #262626" transform="translate(43.60875 455.135982)scale(0.11 -0.11)">
       <use xlink:href="#DejaVuSans-30"/>
      </g>
     </g>
    </g>
    <g id="ytick_2">
     <g id="line2d_144">
      <path d="M 60.1075 375.500831 
L 837.0775 375.500831 
" clip-path="url(#p22263c73cf)" style="fill: none; stroke: #cccccc; stroke-linecap: round"/>
     </g>
     <g id="line2d_145">
      <g>
       <use xlink:href="#md87f08d138" x="60.1075" y="375.500831" style="fill: #262626; stroke: #262626; stroke-width: 1.25"/>
      </g>
     </g>
     <g id="text_25">
      <!-- 2000 -->
      <g style="fill: #262626" transform="translate(22.6125 379.679971)scale(0.11 -0.11)">
       <use xlink:href="#DejaVuSans-32"/>
       <use xlink:href="#DejaVuSans-30" x="63.623047"/>
       <use xlink:href="#DejaVuSans-30" x="127.246094"/>
       <use xlink:href="#DejaVuSans-30" x="190.869141"/>
      </g>
     </g>
    </g>
    <g id="ytick_3">
     <g id="line2d_146">
      <path d="M 60.1075 300.044819 
L 837.0775 300.044819 
" clip-path="url(#p22263c73cf)" style="fill: none; stroke: #cccccc; stroke-linecap: round"/>
     </g>
     <g id="line2d_147">
      <g>
       <use xlink:href="#md87f08d138" x="60.1075" y="300.044819" style="fill: #262626; stroke: #262626; stroke-width: 1.25"/>
      </g>
     </g>
     <g id="text_26">
      <!-- 4000 -->
      <g style="fill: #262626" transform="translate(22.6125 304.22396)scale(0.11 -0.11)">
       <use xlink:href="#DejaVuSans-34"/>
       <use xlink:href="#DejaVuSans-30" x="63.623047"/>
       <use xlink:href="#DejaVuSans-30" x="127.246094"/>
       <use xlink:href="#DejaVuSans-30" x="190.869141"/>
      </g>
     </g>
    </g>
    <g id="ytick_4">
     <g id="line2d_148">
      <path d="M 60.1075 224.588808 
L 837.0775 224.588808 
" clip-path="url(#p22263c73cf)" style="fill: none; stroke: #cccccc; stroke-linecap: round"/>
     </g>
     <g id="line2d_149">
      <g>
       <use xlink:href="#md87f08d138" x="60.1075" y="224.588808" style="fill: #262626; stroke: #262626; stroke-width: 1.25"/>
      </g>
     </g>
     <g id="text_27">
      <!-- 6000 -->
      <g style="fill: #262626" transform="translate(22.6125 228.767949)scale(0.11 -0.11)">
       <use xlink:href="#DejaVuSans-36"/>
       <use xlink:href="#DejaVuSans-30" x="63.623047"/>
       <use xlink:href="#DejaVuSans-30" x="127.246094"/>
       <use xlink:href="#DejaVuSans-30" x="190.869141"/>
      </g>
     </g>
    </g>
    <g id="ytick_5">
     <g id="line2d_150">
      <path d="M 60.1075 149.132797 
L 837.0775 149.132797 
" clip-path="url(#p22263c73cf)" style="fill: none; stroke: #cccccc; stroke-linecap: round"/>
     </g>
     <g id="line2d_151">
      <g>
       <use xlink:href="#md87f08d138" x="60.1075" y="149.132797" style="fill: #262626; stroke: #262626; stroke-width: 1.25"/>
      </g>
     </g>
     <g id="text_28">
      <!-- 8000 -->
      <g style="fill: #262626" transform="translate(22.6125 153.311938)scale(0.11 -0.11)">
       <use xlink:href="#DejaVuSans-38"/>
       <use xlink:href="#DejaVuSans-30" x="63.623047"/>
       <use xlink:href="#DejaVuSans-30" x="127.246094"/>
       <use xlink:href="#DejaVuSans-30" x="190.869141"/>
      </g>
     </g>
    </g>
    <g id="ytick_6">
     <g id="line2d_152">
      <path d="M 60.1075 73.676786 
L 837.0775 73.676786 
" clip-path="url(#p22263c73cf)" style="fill: none; stroke: #cccccc; stroke-linecap: round"/>
     </g>
     <g id="line2d_153">
      <g>
       <use xlink:href="#md87f08d138" x="60.1075" y="73.676786" style="fill: #262626; stroke: #262626; stroke-width: 1.25"/>
      </g>
     </g>
     <g id="text_29">
      <!-- 10000 -->
      <g style="fill: #262626" transform="translate(15.61375 77.855927)scale(0.11 -0.11)">
       <use xlink:href="#DejaVuSans-31"/>
       <use xlink:href="#DejaVuSans-30" x="63.623047"/>
       <use xlink:href="#DejaVuSans-30" x="127.246094"/>
       <use xlink:href="#DejaVuSans-30" x="190.869141"/>
       <use xlink:href="#DejaVuSans-30" x="254.492188"/>
      </g>
     </g>
    </g>
    <g id="text_30">
     <!-- Cases -->
     <g style="fill: #262626" transform="translate(9.118125 267.732851)rotate(-90)scale(0.12 -0.12)">
      <defs>
       <path id="DejaVuSans-43" d="M 4122 4306 
L 4122 3641 
Q 3803 3938 3442 4084 
Q 3081 4231 2675 4231 
Q 1875 4231 1450 3742 
Q 1025 3253 1025 2328 
Q 1025 1406 1450 917 
Q 1875 428 2675 428 
Q 3081 428 3442 575 
Q 3803 722 4122 1019 
L 4122 359 
Q 3791 134 3420 21 
Q 3050 -91 2638 -91 
Q 1578 -91 968 557 
Q 359 1206 359 2328 
Q 359 3453 968 4101 
Q 1578 4750 2638 4750 
Q 3056 4750 3426 4639 
Q 3797 4528 4122 4306 
z
" transform="scale(0.015625)"/>
       <path id="DejaVuSans-73" d="M 2834 3397 
L 2834 2853 
Q 2591 2978 2328 3040 
Q 2066 3103 1784 3103 
Q 1356 3103 1142 2972 
Q 928 2841 928 2578 
Q 928 2378 1081 2264 
Q 1234 2150 1697 2047 
L 1894 2003 
Q 2506 1872 2764 1633 
Q 3022 1394 3022 966 
Q 3022 478 2636 193 
Q 2250 -91 1575 -91 
Q 1294 -91 989 -36 
Q 684 19 347 128 
L 347 722 
Q 666 556 975 473 
Q 1284 391 1588 391 
Q 1994 391 2212 530 
Q 2431 669 2431 922 
Q 2431 1156 2273 1281 
Q 2116 1406 1581 1522 
L 1381 1569 
Q 847 1681 609 1914 
Q 372 2147 372 2553 
Q 372 3047 722 3315 
Q 1072 3584 1716 3584 
Q 2034 3584 2315 3537 
Q 2597 3491 2834 3397 
z
" transform="scale(0.015625)"/>
      </defs>
      <use xlink:href="#DejaVuSans-43"/>
      <use xlink:href="#DejaVuSans-61" x="69.824219"/>
      <use xlink:href="#DejaVuSans-73" x="131.103516"/>
      <use xlink:href="#DejaVuSans-65" x="183.203125"/>
      <use xlink:href="#DejaVuSans-73" x="244.726562"/>
     </g>
    </g>
   </g>
   <g id="line2d_154">
    <path d="M 95.424318 443.033961 
L 96.57658 442.920776 
L 97.728841 442.166216 
L 101.185626 442.241672 
L 103.490149 442.2794 
L 104.642411 443.071689 
L 106.946934 442.392584 
L 108.099196 441.751208 
L 109.251457 441.675752 
L 110.403719 441.185288 
L 111.555981 440.845736 
L 112.708242 440.845736 
L 113.860504 440.355272 
L 115.012765 440.77028 
L 117.317289 439.940264 
L 118.46955 439.940264 
L 119.621812 439.600712 
L 120.774073 439.600712 
L 121.926335 440.128904 
L 123.078597 438.997064 
L 124.230858 438.997064 
L 125.38312 438.846152 
L 127.687643 438.846152 
L 128.839905 439.034792 
L 129.992166 439.034792 
L 131.144428 437.638856 
L 132.29669 437.5634 
L 133.448951 436.6202 
L 134.601213 436.280648 
L 135.753474 436.43156 
L 136.905736 437.072936 
L 138.057998 437.18612 
L 139.210259 437.18612 
L 140.362521 438.846152 
L 142.667044 438.770696 
L 143.819306 438.544328 
L 144.971567 439.676168 
L 146.123829 440.20436 
L 147.27609 440.128904 
L 148.428352 441.223016 
L 149.580614 441.223016 
L 150.732875 442.128488 
L 151.885137 442.09076 
L 153.037398 442.317128 
L 154.18966 442.317128 
L 155.341922 443.486697 
L 156.494183 443.750793 
L 157.646445 444.731721 
L 158.798706 444.882633 
L 159.950968 445.184457 
L 162.255491 445.976745 
L 164.560014 445.335369 
L 165.712276 445.410825 
L 166.864538 445.109001 
L 168.016799 444.995817 
L 169.169061 445.222185 
L 170.321322 444.882633 
L 171.473584 443.901705 
L 172.625846 443.260329 
L 173.778107 442.84532 
L 174.930369 441.638024 
L 176.082631 441.751208 
L 177.234892 441.411656 
L 178.387154 440.883464 
L 179.539415 440.543912 
L 180.691677 440.053448 
L 181.843939 439.110248 
L 182.9962 438.808424 
L 184.148462 438.808424 
L 186.452985 437.299304 
L 187.605247 436.242919 
L 188.757508 436.469288 
L 189.90977 436.167463 
L 191.062031 434.997895 
L 192.214293 434.997895 
L 193.366555 434.582887 
L 194.518816 434.545159 
L 195.671078 434.130151 
L 196.823339 434.243335 
L 197.975601 433.979239 
L 199.127863 433.488775 
L 200.280124 433.677415 
L 202.584647 432.734215 
L 203.736909 432.168295 
L 204.889171 431.149639 
L 206.041432 431.489191 
L 207.193694 430.885543 
L 208.345955 430.772359 
L 209.498217 430.998727 
L 211.80274 429.263238 
L 212.955002 428.999142 
L 214.107263 428.09367 
L 215.259525 428.131398 
L 216.411787 427.942758 
L 217.564048 427.414566 
L 218.71631 427.490022 
L 221.020833 425.867718 
L 222.173095 425.716806 
L 223.325356 424.773606 
L 224.477618 425.226342 
L 225.62988 425.07543 
L 226.782141 424.584966 
L 227.934403 423.717222 
L 230.238926 421.604453 
L 231.391188 421.038533 
L 232.543449 420.246245 
L 233.695711 419.906693 
L 236.000234 418.058021 
L 237.152496 417.982565 
L 238.304757 418.623941 
L 239.457019 418.963493 
L 240.60928 418.925765 
L 242.913804 418.473029 
L 244.066065 419.491685 
L 246.370588 420.359429 
L 247.52285 420.359429 
L 248.675112 420.510341 
L 249.827373 421.981733 
L 250.979635 421.453541 
L 252.131896 422.585381 
L 253.284158 422.057189 
L 254.43642 423.264486 
L 255.588681 422.924934 
L 256.740943 422.849478 
L 257.893204 424.019046 
L 259.045466 423.981318 
L 260.197728 423.00039 
L 262.502251 424.094502 
L 263.654512 423.679494 
L 265.959036 423.528582 
L 267.111297 423.151302 
L 268.263559 422.359013 
L 269.41582 422.132645 
L 270.568082 422.170373 
L 271.720344 422.472197 
L 272.872605 422.057189 
L 274.024867 421.793093 
L 276.32939 422.547653 
L 277.481652 422.81175 
L 278.633913 423.226758 
L 279.786175 423.18903 
L 280.938437 423.038118 
L 282.090698 423.415398 
L 283.24296 423.264486 
L 284.395221 422.887206 
L 285.547483 422.887206 
L 286.699745 423.490854 
L 290.156529 424.019046 
L 291.308791 423.94359 
L 292.461053 423.56631 
L 293.613314 422.887206 
L 294.765576 421.453541 
L 295.917837 421.113989 
L 297.070099 421.000805 
L 298.222361 421.528997 
L 299.374622 420.246245 
L 301.679145 418.623941 
L 302.831407 417.492101 
L 303.983669 416.548901 
L 305.13593 416.360261 
L 306.288192 415.869796 
L 307.440453 414.322948 
L 308.592715 411.983812 
L 309.744977 410.851972 
L 310.897238 408.286467 
L 312.0495 406.098243 
L 314.354023 404.890947 
L 315.506285 401.646338 
L 316.658546 398.892194 
L 317.810808 397.156706 
L 318.963069 396.251234 
L 320.115331 394.968481 
L 321.267593 394.364833 
L 322.419854 392.025697 
L 323.572116 389.347009 
L 324.724378 385.611936 
L 325.876639 383.348256 
L 328.181162 376.406303 
L 329.333424 374.142622 
L 332.790209 363.578781 
L 333.94247 361.3151 
L 335.094732 358.636412 
L 336.246994 352.411291 
L 337.399255 349.845787 
L 338.551517 343.771578 
L 339.703778 340.715609 
L 340.85604 330.566776 
L 342.008302 321.776151 
L 344.312825 310.797301 
L 345.465086 306.760404 
L 347.76961 293.40469 
L 350.074133 271.069711 
L 351.226394 264.240942 
L 352.378656 256.053965 
L 353.530918 252.997996 
L 355.835441 244.848747 
L 356.987702 238.585898 
L 358.139964 229.191625 
L 359.292226 226.777033 
L 360.444487 217.307303 
L 361.596749 211.384006 
L 362.74901 214.402247 
L 363.901272 210.818086 
L 365.053534 203.913861 
L 366.205795 199.876965 
L 367.358057 200.178789 
L 368.510318 193.274564 
L 369.66258 191.803171 
L 370.814842 195.04778 
L 371.967103 200.631525 
L 373.119365 200.631525 
L 374.271627 195.689156 
L 375.423888 196.519172 
L 376.57615 188.407651 
L 377.728411 186.860803 
L 378.880673 193.614116 
L 380.032935 192.935012 
L 381.185196 186.936259 
L 382.337458 183.69165 
L 384.641981 178.409729 
L 385.794243 177.655169 
L 386.946504 185.163042 
L 388.098766 186.973987 
L 389.251027 185.57805 
L 390.403289 190.633603 
L 391.555551 204.404325 
L 392.707812 200.442885 
L 393.860074 201.046533 
L 395.012335 213.760871 
L 396.164597 219.948264 
L 397.316859 235.379018 
L 398.46912 237.001322 
L 399.621382 240.434571 
L 400.773643 241.755051 
L 401.925905 240.774123 
L 403.078167 243.037803 
L 404.230428 261.44907 
L 405.38269 268.692847 
L 406.534951 271.522447 
L 407.687213 271.861999 
L 408.839475 270.390607 
L 409.991736 274.050224 
L 411.143998 284.764977 
L 412.296259 289.25461 
L 413.448521 290.160082 
L 414.600783 290.612818 
L 415.753044 293.02741 
L 416.905306 292.876498 
L 418.057567 292.310578 
L 419.209829 298.309331 
L 420.362091 302.11986 
L 421.514352 312.080053 
L 422.666614 313.966453 
L 423.818876 318.908822 
L 424.971137 319.474742 
L 426.123399 319.474742 
L 427.27566 326.001687 
L 428.427922 329.35948 
L 429.580184 329.472664 
L 430.732445 336.075065 
L 431.884707 343.658394 
L 433.036968 343.16793 
L 434.18923 342.526554 
L 435.341492 344.48841 
L 436.493753 344.639322 
L 437.646015 342.866106 
L 438.798276 342.41337 
L 439.950538 343.507482 
L 442.255061 342.073818 
L 443.407323 343.432026 
L 444.559584 341.507898 
L 446.864108 336.527801 
L 448.016369 335.131865 
L 449.168631 332.755 
L 450.320892 333.019096 
L 451.473154 335.622329 
L 452.625416 332.905912 
L 453.777677 329.095384 
L 454.929939 326.567607 
L 456.0822 325.813047 
L 457.234462 323.624823 
L 458.386724 321.738423 
L 459.538985 321.889335 
L 462.99577 311.212309 
L 465.300293 305.854932 
L 466.452555 304.57218 
L 467.604816 302.572596 
L 468.757078 298.648883 
L 471.061601 286.160913 
L 472.213863 281.105361 
L 473.366124 274.616144 
L 474.518386 271.975183 
L 475.670648 270.730159 
L 476.822909 261.977262 
L 477.975171 258.808109 
L 479.127433 250.734316 
L 482.584217 233.039882 
L 483.736479 228.248425 
L 484.888741 223.947432 
L 486.041002 209.686246 
L 488.345525 193.7273 
L 489.497787 188.822659 
L 491.80231 176.711969 
L 492.954572 164.223999 
L 494.106833 156.527486 
L 495.259095 146.039101 
L 496.411357 136.607099 
L 497.563618 128.571034 
L 498.71588 124.232313 
L 499.868141 123.138201 
L 501.020403 114.158936 
L 502.172665 106.688791 
L 504.477188 95.181749 
L 505.629449 85.976116 
L 506.781711 79.750995 
L 507.933973 85.787476 
L 509.086234 80.807379 
L 510.238496 70.168081 
L 511.390757 67.942129 
L 512.543019 59.264688 
L 514.847542 49.19131 
L 515.999804 58.510128 
L 517.152065 60.283344 
L 518.304327 57.491472 
L 519.456589 58.434672 
L 520.60885 63.452496 
L 521.761112 59.906064 
L 522.913373 59.264688 
L 524.065635 74.808626 
L 525.217897 81.260115 
L 526.370158 85.561108 
L 527.52242 91.673045 
L 528.674682 104.04783 
L 529.826943 103.708278 
L 530.979205 102.765078 
L 532.131466 117.66764 
L 533.283728 126.57145 
L 534.43599 132.721115 
L 535.588251 137.474843 
L 536.740513 146.378653 
L 537.892774 145.850461 
L 539.045036 146.114557 
L 540.197298 161.620767 
L 541.349559 168.75136 
L 542.501821 180.522498 
L 543.654082 193.500932 
L 544.806344 190.444963 
L 545.958606 194.783684 
L 547.110867 196.141892 
L 548.263129 197.952836 
L 549.41539 199.311045 
L 550.567652 218.627783 
L 551.719914 219.382343 
L 552.872175 230.059369 
L 555.176698 227.908873 
L 556.32896 240.774123 
L 558.633483 252.884812 
L 559.785745 258.015821 
L 560.938006 268.655119 
L 562.090268 268.391023 
L 563.24253 267.674191 
L 564.394791 277.70984 
L 565.547053 285.745905 
L 566.699314 292.46149 
L 567.851576 297.290675 
L 569.003838 305.741748 
L 570.156099 306.949044 
L 571.308361 307.326324 
L 572.460622 308.307253 
L 573.612884 317.663798 
L 574.765146 322.832535 
L 577.069669 330.67996 
L 578.221931 330.340408 
L 579.374192 331.132696 
L 581.678715 339.961049 
L 582.830977 342.262458 
L 583.983239 346.638906 
L 585.1355 351.769915 
L 586.287762 352.147195 
L 587.440023 352.373563 
L 588.592285 355.84454 
L 589.744547 357.881852 
L 590.896808 360.145532 
L 592.04907 362.861949 
L 593.201331 364.559709 
L 594.353593 364.823805 
L 595.505855 364.786077 
L 596.658116 366.483837 
L 598.962639 377.236319 
L 600.114901 384.40464 
L 601.267163 384.857376 
L 602.419424 385.083744 
L 603.571686 385.121472 
L 605.876209 388.705632 
L 607.028471 390.101569 
L 609.332994 391.912513 
L 610.485255 392.063425 
L 611.637517 392.101153 
L 612.789779 393.723457 
L 613.94204 394.553473 
L 615.094302 395.081665 
L 616.246563 396.854882 
L 617.398825 401.41997 
L 618.551087 401.344514 
L 619.703348 403.985475 
L 620.85561 408.173283 
L 622.007871 414.700228 
L 623.160133 414.775684 
L 624.312395 417.190277 
L 625.464656 419.868965 
L 626.616918 419.944421 
L 627.76918 419.793509 
L 628.921441 422.81175 
L 631.225964 423.528582 
L 632.378226 423.00039 
L 633.530488 423.18903 
L 635.835011 422.887206 
L 636.987272 423.075846 
L 638.139534 423.717222 
L 639.291796 423.56631 
L 640.444057 422.962662 
L 641.596319 424.32087 
L 643.900842 423.94359 
L 645.053104 423.453126 
L 646.205365 422.472197 
L 647.357627 422.509925 
L 648.509888 422.132645 
L 649.66215 420.887621 
L 651.966673 420.397157 
L 653.118935 418.850309 
L 654.271196 416.473445 
L 655.423458 414.926596 
L 656.57572 415.681156 
L 657.727981 413.7193 
L 658.880243 412.738372 
L 660.032504 411.002884 
L 661.184766 407.946915 
L 662.337028 405.419139 
L 663.489289 404.853219 
L 664.641551 403.268643 
L 665.793812 397.986722 
L 666.946074 394.742113 
L 668.098336 392.553889 
L 669.250597 388.403808 
L 671.55512 375.463103 
L 673.859644 363.691965 
L 675.011905 360.032348 
L 676.164167 358.447772 
L 677.316429 349.015771 
L 678.46869 342.564282 
L 679.620952 338.338745 
L 680.773213 331.62316 
L 681.925475 328.152184 
L 683.077737 323.851191 
L 684.229998 320.757494 
L 687.686783 304.874004 
L 688.839045 300.610739 
L 689.991306 297.403859 
L 692.295829 293.97061 
L 693.448091 289.330066 
L 694.600353 288.462322 
L 695.752614 284.236785 
L 696.904876 281.180817 
L 698.057137 283.142673 
L 699.209399 278.4644 
L 700.361661 277.068464 
L 701.513922 277.89848 
L 703.818445 278.08712 
L 704.970707 276.38936 
L 706.122969 275.559344 
L 707.27523 273.522031 
L 708.427492 271.748815 
L 709.579753 266.881902 
L 710.732015 264.769134 
L 711.884277 263.863662 
L 713.036538 264.240942 
L 714.1888 263.486382 
L 715.341061 260.807694 
L 716.493323 259.374029 
L 717.645585 260.50587 
L 718.797846 256.582157 
L 719.950108 255.827597 
L 721.102369 254.733485 
L 722.254631 255.450317 
L 724.559154 252.960268 
L 725.711416 254.620301 
L 726.863678 253.903469 
L 728.015939 250.545676 
L 729.168201 248.20654 
L 730.320462 245.226027 
L 731.472724 243.867819 
L 732.624986 243.339627 
L 733.777247 243.264171 
L 734.929509 237.944522 
L 736.08177 235.643114 
L 737.234032 229.606633 
L 738.386294 227.003401 
L 739.538555 223.268328 
L 740.690817 221.796936 
L 741.843078 214.854983 
L 745.299863 201.650181 
L 746.452125 198.745124 
L 747.604386 194.708228 
L 748.756648 190.180867 
L 751.061171 174.599201 
L 752.213433 172.788257 
L 753.365694 165.997216 
L 754.517956 161.205759 
L 755.670218 153.660158 
L 756.822479 150.151453 
L 757.974741 148.000957 
L 759.127002 143.511324 
L 760.279264 141.926748 
L 761.431526 135.097979 
L 762.583787 139.24806 
L 763.736049 135.173435 
L 764.88831 130.608346 
L 766.040572 129.665146 
L 767.192834 129.287866 
L 768.345095 134.117051 
L 769.497357 136.720283 
L 770.649618 143.247228 
L 771.80188 142.417212 
L 772.954142 140.530812 
L 774.106403 152.000126 
L 776.410927 166.336768 
L 778.71545 176.447873 
L 779.867711 174.335105 
L 781.019973 173.391905 
L 782.172235 180.522498 
L 784.476758 192.670916 
L 785.629019 195.99098 
L 786.781281 201.725637 
L 787.933543 199.160133 
L 789.085804 197.915108 
L 790.238066 204.743877 
L 791.390327 206.856646 
L 792.542589 213.194951 
L 793.694851 216.100007 
L 794.847112 223.268328 
L 797.151635 219.684168 
L 798.303897 232.888969 
L 799.456159 235.831754 
L 801.760682 246.810604 
L 801.760682 246.810604 
" clip-path="url(#p22263c73cf)" style="fill: none; stroke: #ffc0cb; stroke-width: 1.5; stroke-linecap: round"/>
   </g>
   <g id="line2d_155">
    <path d="M 95.424318 449.975914 
L 97.728841 449.938186 
L 98.881103 449.749545 
L 103.490149 449.598633 
L 104.642411 449.86273 
L 105.794673 449.787273 
L 108.099196 449.296809 
L 109.251457 449.296809 
L 110.403719 449.598633 
L 112.708242 449.674089 
L 113.860504 449.447721 
L 115.012765 449.560905 
L 116.165027 449.409993 
L 117.317289 449.409993 
L 118.46955 449.560905 
L 119.621812 449.409993 
L 121.926335 449.485449 
L 125.38312 449.334537 
L 126.535382 449.447721 
L 127.687643 449.447721 
L 128.839905 449.560905 
L 129.992166 449.485449 
L 131.144428 449.523177 
L 133.448951 449.108169 
L 134.601213 448.844073 
L 135.753474 448.768617 
L 136.905736 449.070441 
L 139.210259 449.032713 
L 143.819306 449.334537 
L 144.971567 449.598633 
L 148.428352 449.86273 
L 149.580614 449.86273 
L 150.732875 450.126826 
L 151.885137 450.202282 
L 154.18966 450.126826 
L 157.646445 450.277738 
L 159.950968 450.353194 
L 161.10323 450.202282 
L 162.255491 450.61729 
L 164.560014 450.655018 
L 165.712276 450.504106 
L 168.016799 450.504106 
L 169.169061 450.390922 
L 170.321322 450.466378 
L 171.473584 450.315466 
L 173.778107 450.390922 
L 176.082631 450.390922 
L 180.691677 450.466378 
L 181.843939 450.315466 
L 182.9962 450.466378 
L 186.452985 450.466378 
L 187.605247 450.353194 
L 189.90977 450.277738 
L 191.062031 450.202282 
L 193.366555 449.787273 
L 195.671078 449.749545 
L 201.432386 449.86273 
L 202.584647 449.749545 
L 204.889171 449.900458 
L 206.041432 449.749545 
L 208.345955 449.711817 
L 210.650479 449.938186 
L 212.955002 449.900458 
L 214.107263 449.711817 
L 217.564048 449.674089 
L 218.71631 449.787273 
L 219.868571 450.05137 
L 226.782141 449.447721 
L 229.086664 449.674089 
L 230.238926 449.372265 
L 233.695711 449.334537 
L 234.847972 449.409993 
L 237.152496 449.183625 
L 238.304757 448.881801 
L 241.761542 448.919529 
L 242.913804 448.542249 
L 245.218327 448.579977 
L 247.52285 448.881801 
L 249.827373 448.844073 
L 250.979635 448.655433 
L 252.131896 448.693161 
L 253.284158 448.579977 
L 254.43642 448.202697 
L 256.740943 448.164969 
L 257.893204 448.504521 
L 259.045466 448.542249 
L 260.197728 448.693161 
L 261.349989 448.504521 
L 262.502251 448.730889 
L 265.959036 448.504521 
L 267.111297 448.617705 
L 268.263559 448.579977 
L 269.41582 448.655433 
L 270.568082 448.844073 
L 271.720344 448.806345 
L 274.024867 448.957257 
L 276.32939 448.693161 
L 277.481652 448.881801 
L 278.633913 448.844073 
L 279.786175 448.957257 
L 280.938437 448.957257 
L 286.699745 449.674089 
L 287.852006 449.560905 
L 292.461053 449.86273 
L 293.613314 449.825002 
L 294.765576 449.598633 
L 295.917837 449.598633 
L 297.070099 449.409993 
L 301.679145 449.183625 
L 306.288192 448.730889 
L 308.592715 448.957257 
L 310.897238 448.768617 
L 313.201761 448.617705 
L 314.354023 448.504521 
L 315.506285 448.542249 
L 316.658546 448.429065 
L 317.810808 448.164969 
L 320.115331 447.976329 
L 321.267593 448.164969 
L 322.419854 447.636777 
L 323.572116 447.448137 
L 324.724378 446.919945 
L 325.876639 446.731305 
L 327.028901 446.165385 
L 329.333424 445.448553 
L 330.485686 445.335369 
L 331.637947 445.486281 
L 332.790209 444.844905 
L 333.94247 444.656265 
L 335.094732 444.731721 
L 337.399255 444.580809 
L 338.551517 444.165801 
L 340.85604 441.939848 
L 342.008302 441.52484 
L 343.160563 441.260744 
L 344.312825 440.732552 
L 345.465086 440.694824 
L 346.617348 440.77028 
L 347.76961 440.393 
L 348.921871 440.543912 
L 350.074133 440.242088 
L 351.226394 440.091176 
L 352.378656 439.82708 
L 353.530918 439.902536 
L 354.683179 440.091176 
L 355.835441 439.525256 
L 356.987702 439.147976 
L 358.139964 437.978408 
L 359.292226 436.507016 
L 360.444487 435.563815 
L 361.596749 435.563815 
L 363.901272 436.167463 
L 366.205795 434.733799 
L 367.358057 434.507431 
L 368.510318 434.696071 
L 369.66258 434.733799 
L 370.814842 433.715143 
L 371.967103 432.356935 
L 373.119365 431.225095 
L 374.271627 431.225095 
L 375.423888 431.941927 
L 376.57615 431.489191 
L 377.728411 431.489191 
L 378.880673 431.225095 
L 380.032935 431.564647 
L 381.185196 430.432807 
L 382.337458 430.508263 
L 383.489719 428.772774 
L 384.641981 428.508678 
L 385.794243 428.697318 
L 386.946504 429.074598 
L 388.098766 428.999142 
L 389.251027 429.451878 
L 390.403289 429.565063 
L 391.555551 430.734631 
L 392.707812 430.508263 
L 393.860074 430.734631 
L 395.012335 431.225095 
L 396.164597 431.111911 
L 397.316859 430.847815 
L 399.621382 431.640103 
L 400.773643 431.225095 
L 401.925905 431.225095 
L 403.078167 431.941927 
L 404.230428 433.073767 
L 405.38269 433.337863 
L 409.991736 433.866055 
L 411.143998 435.450631 
L 412.296259 436.129735 
L 413.448521 436.657928 
L 414.600783 436.733384 
L 415.753044 436.6202 
L 418.057567 436.6202 
L 419.209829 436.80884 
L 420.362091 437.110664 
L 421.514352 437.827496 
L 422.666614 438.016136 
L 423.818876 438.016136 
L 424.971137 438.12932 
L 426.123399 438.091592 
L 428.427922 438.959336 
L 429.580184 438.619784 
L 430.732445 439.751624 
L 431.884707 440.242088 
L 433.036968 440.355272 
L 434.18923 440.279816 
L 435.341492 440.430728 
L 436.493753 440.355272 
L 437.646015 440.95892 
L 438.798276 441.260744 
L 441.1028 441.034376 
L 443.407323 440.95892 
L 444.559584 440.430728 
L 445.711846 440.242088 
L 446.864108 440.506184 
L 448.016369 440.543912 
L 449.168631 440.355272 
L 451.473154 440.619368 
L 452.625416 440.921192 
L 453.777677 440.657096 
L 454.929939 439.902536 
L 456.0822 439.487528 
L 458.386724 439.600712 
L 459.538985 440.053448 
L 460.691247 440.242088 
L 461.843508 439.789352 
L 462.99577 439.63844 
L 464.148032 439.034792 
L 465.300293 439.034792 
L 466.452555 438.846152 
L 468.757078 437.789768 
L 469.90934 437.035208 
L 471.061601 436.99748 
L 472.213863 436.695656 
L 473.366124 436.6202 
L 474.518386 436.092007 
L 475.670648 435.337447 
L 476.822909 434.997895 
L 477.975171 434.922439 
L 479.127433 434.356519 
L 480.279694 434.469703 
L 481.431956 433.903783 
L 482.584217 433.752871 
L 483.736479 431.979655 
L 484.888741 432.206023 
L 486.041002 432.055111 
L 487.193264 432.017383 
L 488.345525 431.866471 
L 489.497787 431.262823 
L 490.650049 430.847815 
L 491.80231 429.187782 
L 492.954572 427.867302 
L 494.106833 427.980486 
L 495.259095 425.679078 
L 496.411357 424.962246 
L 497.563618 424.88679 
L 499.868141 424.88679 
L 501.020403 423.453126 
L 502.172665 422.924934 
L 503.324926 421.944005 
L 504.477188 422.623109 
L 505.629449 421.944005 
L 506.781711 421.793093 
L 507.933973 422.585381 
L 509.086234 422.736294 
L 510.238496 421.830821 
L 511.390757 422.774022 
L 513.695281 422.359013 
L 515.999804 423.264486 
L 518.304327 421.642181 
L 519.456589 420.283973 
L 520.60885 420.321701 
L 521.761112 420.736709 
L 522.913373 420.887621 
L 524.065635 421.679909 
L 525.217897 420.812165 
L 526.370158 420.510341 
L 527.52242 420.359429 
L 528.674682 420.736709 
L 529.826943 420.887621 
L 530.979205 421.415813 
L 532.131466 421.528997 
L 533.283728 422.094917 
L 534.43599 421.302629 
L 535.588251 421.491269 
L 536.740513 422.623109 
L 537.892774 423.113574 
L 539.045036 422.81175 
L 540.197298 423.641766 
L 541.349559 424.019046 
L 543.654082 425.226342 
L 544.806344 425.528166 
L 545.958606 425.679078 
L 547.110867 425.980902 
L 549.41539 426.924102 
L 550.567652 428.357766 
L 551.719914 428.810502 
L 552.872175 429.451878 
L 555.176698 429.753703 
L 556.32896 430.017799 
L 557.481222 430.772359 
L 559.785745 431.489191 
L 560.938006 431.941927 
L 563.24253 432.130567 
L 564.394791 432.470119 
L 565.547053 432.658759 
L 566.699314 433.601959 
L 567.851576 434.281063 
L 569.003838 435.224263 
L 571.308361 435.790183 
L 572.460622 435.639271 
L 573.612884 436.507016 
L 574.765146 436.80884 
L 575.917407 436.657928 
L 577.069669 437.110664 
L 579.374192 437.412488 
L 580.526454 437.827496 
L 581.678715 438.808424 
L 582.830977 438.657512 
L 585.1355 439.902536 
L 586.287762 439.902536 
L 587.440023 440.128904 
L 590.896808 441.298472 
L 592.04907 441.411656 
L 593.201331 441.675752 
L 595.505855 441.638024 
L 596.658116 441.826664 
L 597.810378 441.864392 
L 600.114901 442.84532 
L 601.267163 443.109417 
L 603.571686 443.147145 
L 605.876209 443.562153 
L 607.028471 443.373513 
L 608.180732 443.373513 
L 609.332994 443.562153 
L 611.637517 443.524425 
L 612.789779 443.939433 
L 613.94204 444.203529 
L 615.094302 444.203529 
L 616.246563 444.807177 
L 617.398825 445.109001 
L 619.703348 445.222185 
L 620.85561 446.316297 
L 622.007871 446.769033 
L 623.160133 446.693577 
L 625.464656 446.995401 
L 627.76918 447.033129 
L 628.921441 447.372681 
L 636.987272 447.636777 
L 638.139534 447.863145 
L 639.291796 447.938601 
L 640.444057 447.900873 
L 641.596319 448.127241 
L 643.900842 448.051785 
L 645.053104 448.202697 
L 647.357627 447.976329 
L 648.509888 447.976329 
L 649.66215 448.127241 
L 655.423458 447.561321 
L 656.57572 447.599049 
L 657.727981 447.523593 
L 658.880243 447.259497 
L 660.032504 447.221769 
L 661.184766 447.410409 
L 663.489289 446.882217 
L 664.641551 446.957673 
L 665.793812 446.278569 
L 669.250597 445.486281 
L 671.55512 444.392169 
L 672.707382 443.637609 
L 673.859644 443.675337 
L 676.164167 443.335785 
L 677.316429 442.543496 
L 678.46869 441.600296 
L 680.773213 440.430728 
L 681.925475 439.713896 
L 684.229998 439.713896 
L 685.38226 439.600712 
L 686.534521 438.732968 
L 687.686783 438.431144 
L 689.991306 438.355688 
L 691.143568 438.204776 
L 692.295829 438.431144 
L 693.448091 438.167048 
L 694.600353 438.544328 
L 695.752614 437.261576 
L 696.904876 436.695656 
L 698.057137 436.733384 
L 699.209399 436.6202 
L 700.361661 436.884296 
L 701.513922 436.99748 
L 702.666184 436.393832 
L 703.818445 436.016551 
L 707.27523 436.016551 
L 709.579753 436.318376 
L 710.732015 435.676999 
L 711.884277 435.676999 
L 713.036538 435.337447 
L 716.493323 435.186535 
L 719.950108 433.677415 
L 721.102369 433.526503 
L 723.406893 433.413319 
L 724.559154 433.526503 
L 725.711416 434.167879 
L 726.863678 433.601959 
L 728.015939 433.790599 
L 729.168201 433.488775 
L 730.320462 433.526503 
L 731.472724 433.262407 
L 733.777247 433.149223 
L 734.929509 432.658759 
L 736.08177 432.583303 
L 737.234032 432.356935 
L 738.386294 431.753287 
L 739.538555 431.640103 
L 740.690817 431.640103 
L 741.843078 430.696903 
L 742.99534 429.904615 
L 744.147602 429.565063 
L 745.299863 428.697318 
L 747.604386 428.244582 
L 748.756648 428.320038 
L 749.90891 428.018214 
L 752.213433 428.055942 
L 753.365694 426.20727 
L 754.517956 425.45271 
L 755.670218 425.113158 
L 756.822479 425.301798 
L 757.974741 425.716806 
L 759.127002 424.69815 
L 760.279264 423.981318 
L 761.431526 424.169958 
L 762.583787 423.641766 
L 763.736049 423.339942 
L 764.88831 423.339942 
L 766.040572 423.679494 
L 767.192834 422.774022 
L 768.345095 422.283557 
L 771.80188 422.849478 
L 772.954142 422.585381 
L 774.106403 423.604038 
L 775.258665 422.019461 
L 776.410927 422.245829 
L 777.563188 421.717637 
L 779.867711 422.321285 
L 781.019973 422.283557 
L 782.172235 421.717637 
L 783.324496 421.642181 
L 784.476758 420.887621 
L 786.781281 421.566725 
L 787.933543 421.415813 
L 789.085804 422.434469 
L 790.238066 423.679494 
L 791.390327 423.905862 
L 792.542589 424.773606 
L 793.694851 424.471782 
L 794.847112 425.150886 
L 795.999374 425.414982 
L 797.151635 425.528166 
L 798.303897 427.414566 
L 800.60842 427.15047 
L 801.760682 426.697734 
L 801.760682 426.697734 
" clip-path="url(#p22263c73cf)" style="fill: none; stroke: #800080; stroke-width: 1.5; stroke-linecap: round"/>
   </g>
   <g id="line2d_156"/>
   <g id="line2d_157"/>
   <g id="patch_3">
    <path d="M 60.1075 470.728203 
L 60.1075 29.118125 
" style="fill: none; stroke: #262626; stroke-width: 1.25; stroke-linejoin: miter; stroke-linecap: square"/>
   </g>
   <g id="patch_4">
    <path d="M 837.0775 470.728203 
L 837.0775 29.118125 
" style="fill: none; stroke: #262626; stroke-width: 1.25; stroke-linejoin: miter; stroke-linecap: square"/>
   </g>
   <g id="patch_5">
    <path d="M 60.1075 470.728203 
L 837.0775 470.728203 
" style="fill: none; stroke: #262626; stroke-width: 1.25; stroke-linejoin: miter; stroke-linecap: square"/>
   </g>
   <g id="patch_6">
    <path d="M 60.1075 29.118125 
L 837.0775 29.118125 
" style="fill: none; stroke: #262626; stroke-width: 1.25; stroke-linejoin: miter; stroke-linecap: square"/>
   </g>
   <g id="text_31">
    <!-- Last update: 10.12.2021 -->
    <g style="fill: #262626" transform="translate(387.093672 22.493974)scale(0.09996 -0.09996)">
     <defs>
      <path id="DejaVuSans-4c" d="M 628 4666 
L 1259 4666 
L 1259 531 
L 3531 531 
L 3531 0 
L 628 0 
L 628 4666 
z
" transform="scale(0.015625)"/>
      <path id="DejaVuSans-20" transform="scale(0.015625)"/>
      <path id="DejaVuSans-75" d="M 544 1381 
L 544 3500 
L 1119 3500 
L 1119 1403 
Q 1119 906 1312 657 
Q 1506 409 1894 409 
Q 2359 409 2629 706 
Q 2900 1003 2900 1516 
L 2900 3500 
L 3475 3500 
L 3475 0 
L 2900 0 
L 2900 538 
Q 2691 219 2414 64 
Q 2138 -91 1772 -91 
Q 1169 -91 856 284 
Q 544 659 544 1381 
z
M 1991 3584 
L 1991 3584 
z
" transform="scale(0.015625)"/>
      <path id="DejaVuSans-70" d="M 1159 525 
L 1159 -1331 
L 581 -1331 
L 581 3500 
L 1159 3500 
L 1159 2969 
Q 1341 3281 1617 3432 
Q 1894 3584 2278 3584 
Q 2916 3584 3314 3078 
Q 3713 2572 3713 1747 
Q 3713 922 3314 415 
Q 2916 -91 2278 -91 
Q 1894 -91 1617 61 
Q 1341 213 1159 525 
z
M 3116 1747 
Q 3116 2381 2855 2742 
Q 2594 3103 2138 3103 
Q 1681 3103 1420 2742 
Q 1159 2381 1159 1747 
Q 1159 1113 1420 752 
Q 1681 391 2138 391 
Q 2594 391 2855 752 
Q 3116 1113 3116 1747 
z
" transform="scale(0.015625)"/>
      <path id="DejaVuSans-64" d="M 2906 2969 
L 2906 4863 
L 3481 4863 
L 3481 0 
L 2906 0 
L 2906 525 
Q 2725 213 2448 61 
Q 2172 -91 1784 -91 
Q 1150 -91 751 415 
Q 353 922 353 1747 
Q 353 2572 751 3078 
Q 1150 3584 1784 3584 
Q 2172 3584 2448 3432 
Q 2725 3281 2906 2969 
z
M 947 1747 
Q 947 1113 1208 752 
Q 1469 391 1925 391 
Q 2381 391 2643 752 
Q 2906 1113 2906 1747 
Q 2906 2381 2643 2742 
Q 2381 3103 1925 3103 
Q 1469 3103 1208 2742 
Q 947 2381 947 1747 
z
" transform="scale(0.015625)"/>
      <path id="DejaVuSans-3a" d="M 750 794 
L 1409 794 
L 1409 0 
L 750 0 
L 750 794 
z
M 750 3309 
L 1409 3309 
L 1409 2516 
L 750 2516 
L 750 3309 
z
" transform="scale(0.015625)"/>
     </defs>
     <use xlink:href="#DejaVuSans-4c"/>
     <use xlink:href="#DejaVuSans-61" x="55.712891"/>
     <use xlink:href="#DejaVuSans-73" x="116.992188"/>
     <use xlink:href="#DejaVuSans-74" x="169.091797"/>
     <use xlink:href="#DejaVuSans-20" x="208.300781"/>
     <use xlink:href="#DejaVuSans-75" x="240.087891"/>
     <use xlink:href="#DejaVuSans-70" x="303.466797"/>
     <use xlink:href="#DejaVuSans-64" x="366.943359"/>
     <use xlink:href="#DejaVuSans-61" x="430.419922"/>
     <use xlink:href="#DejaVuSans-74" x="491.699219"/>
     <use xlink:href="#DejaVuSans-65" x="530.908203"/>
     <use xlink:href="#DejaVuSans-3a" x="592.431641"/>
     <use xlink:href="#DejaVuSans-20" x="626.123047"/>
     <use xlink:href="#DejaVuSans-31" x="657.910156"/>
     <use xlink:href="#DejaVuSans-30" x="721.533203"/>
     <use xlink:href="#DejaVuSans-2e" x="785.15625"/>
     <use xlink:href="#DejaVuSans-31" x="816.943359"/>
     <use xlink:href="#DejaVuSans-32" x="880.566406"/>
     <use xlink:href="#DejaVuSans-2e" x="944.189453"/>
     <use xlink:href="#DejaVuSans-32" x="975.976562"/>
     <use xlink:href="#DejaVuSans-30" x="1039.599609"/>
     <use xlink:href="#DejaVuSans-32" x="1103.222656"/>
     <use xlink:href="#DejaVuSans-31" x="1166.845703"/>
    </g>
   </g>
   <g id="text_32">
    <!-- Disease timeline -->
    <g style="fill: #262626" transform="translate(392.434375 9.118125)scale(0.12 -0.12)">
     <defs>
      <path id="DejaVuSans-Bold-44" d="M 1791 3756 
L 1791 909 
L 2222 909 
Q 2959 909 3348 1275 
Q 3738 1641 3738 2338 
Q 3738 3031 3350 3393 
Q 2963 3756 2222 3756 
L 1791 3756 
z
M 588 4666 
L 1856 4666 
Q 2919 4666 3439 4514 
Q 3959 4363 4331 4000 
Q 4659 3684 4818 3271 
Q 4978 2859 4978 2338 
Q 4978 1809 4818 1395 
Q 4659 981 4331 666 
Q 3956 303 3431 151 
Q 2906 0 1856 0 
L 588 0 
L 588 4666 
z
" transform="scale(0.015625)"/>
      <path id="DejaVuSans-Bold-69" d="M 538 3500 
L 1656 3500 
L 1656 0 
L 538 0 
L 538 3500 
z
M 538 4863 
L 1656 4863 
L 1656 3950 
L 538 3950 
L 538 4863 
z
" transform="scale(0.015625)"/>
      <path id="DejaVuSans-Bold-73" d="M 3272 3391 
L 3272 2541 
Q 2913 2691 2578 2766 
Q 2244 2841 1947 2841 
Q 1628 2841 1473 2761 
Q 1319 2681 1319 2516 
Q 1319 2381 1436 2309 
Q 1553 2238 1856 2203 
L 2053 2175 
Q 2913 2066 3209 1816 
Q 3506 1566 3506 1031 
Q 3506 472 3093 190 
Q 2681 -91 1863 -91 
Q 1516 -91 1145 -36 
Q 775 19 384 128 
L 384 978 
Q 719 816 1070 734 
Q 1422 653 1784 653 
Q 2113 653 2278 743 
Q 2444 834 2444 1013 
Q 2444 1163 2330 1236 
Q 2216 1309 1875 1350 
L 1678 1375 
Q 931 1469 631 1722 
Q 331 1975 331 2491 
Q 331 3047 712 3315 
Q 1094 3584 1881 3584 
Q 2191 3584 2531 3537 
Q 2872 3491 3272 3391 
z
" transform="scale(0.015625)"/>
      <path id="DejaVuSans-Bold-65" d="M 4031 1759 
L 4031 1441 
L 1416 1441 
Q 1456 1047 1700 850 
Q 1944 653 2381 653 
Q 2734 653 3104 758 
Q 3475 863 3866 1075 
L 3866 213 
Q 3469 63 3072 -14 
Q 2675 -91 2278 -91 
Q 1328 -91 801 392 
Q 275 875 275 1747 
Q 275 2603 792 3093 
Q 1309 3584 2216 3584 
Q 3041 3584 3536 3087 
Q 4031 2591 4031 1759 
z
M 2881 2131 
Q 2881 2450 2695 2645 
Q 2509 2841 2209 2841 
Q 1884 2841 1681 2658 
Q 1478 2475 1428 2131 
L 2881 2131 
z
" transform="scale(0.015625)"/>
      <path id="DejaVuSans-Bold-61" d="M 2106 1575 
Q 1756 1575 1579 1456 
Q 1403 1338 1403 1106 
Q 1403 894 1545 773 
Q 1688 653 1941 653 
Q 2256 653 2472 879 
Q 2688 1106 2688 1447 
L 2688 1575 
L 2106 1575 
z
M 3816 1997 
L 3816 0 
L 2688 0 
L 2688 519 
Q 2463 200 2181 54 
Q 1900 -91 1497 -91 
Q 953 -91 614 226 
Q 275 544 275 1050 
Q 275 1666 698 1953 
Q 1122 2241 2028 2241 
L 2688 2241 
L 2688 2328 
Q 2688 2594 2478 2717 
Q 2269 2841 1825 2841 
Q 1466 2841 1156 2769 
Q 847 2697 581 2553 
L 581 3406 
Q 941 3494 1303 3539 
Q 1666 3584 2028 3584 
Q 2975 3584 3395 3211 
Q 3816 2838 3816 1997 
z
" transform="scale(0.015625)"/>
      <path id="DejaVuSans-Bold-20" transform="scale(0.015625)"/>
      <path id="DejaVuSans-Bold-74" d="M 1759 4494 
L 1759 3500 
L 2913 3500 
L 2913 2700 
L 1759 2700 
L 1759 1216 
Q 1759 972 1856 886 
Q 1953 800 2241 800 
L 2816 800 
L 2816 0 
L 1856 0 
Q 1194 0 917 276 
Q 641 553 641 1216 
L 641 2700 
L 84 2700 
L 84 3500 
L 641 3500 
L 641 4494 
L 1759 4494 
z
" transform="scale(0.015625)"/>
      <path id="DejaVuSans-Bold-6d" d="M 3781 2919 
Q 3994 3244 4286 3414 
Q 4578 3584 4928 3584 
Q 5531 3584 5847 3212 
Q 6163 2841 6163 2131 
L 6163 0 
L 5038 0 
L 5038 1825 
Q 5041 1866 5042 1909 
Q 5044 1953 5044 2034 
Q 5044 2406 4934 2573 
Q 4825 2741 4581 2741 
Q 4263 2741 4089 2478 
Q 3916 2216 3909 1719 
L 3909 0 
L 2784 0 
L 2784 1825 
Q 2784 2406 2684 2573 
Q 2584 2741 2328 2741 
Q 2006 2741 1831 2477 
Q 1656 2213 1656 1722 
L 1656 0 
L 531 0 
L 531 3500 
L 1656 3500 
L 1656 2988 
Q 1863 3284 2130 3434 
Q 2397 3584 2719 3584 
Q 3081 3584 3359 3409 
Q 3638 3234 3781 2919 
z
" transform="scale(0.015625)"/>
      <path id="DejaVuSans-Bold-6c" d="M 538 4863 
L 1656 4863 
L 1656 0 
L 538 0 
L 538 4863 
z
" transform="scale(0.015625)"/>
      <path id="DejaVuSans-Bold-6e" d="M 4056 2131 
L 4056 0 
L 2931 0 
L 2931 347 
L 2931 1631 
Q 2931 2084 2911 2256 
Q 2891 2428 2841 2509 
Q 2775 2619 2662 2680 
Q 2550 2741 2406 2741 
Q 2056 2741 1856 2470 
Q 1656 2200 1656 1722 
L 1656 0 
L 538 0 
L 538 3500 
L 1656 3500 
L 1656 2988 
Q 1909 3294 2193 3439 
Q 2478 3584 2822 3584 
Q 3428 3584 3742 3212 
Q 4056 2841 4056 2131 
z
" transform="scale(0.015625)"/>
     </defs>
     <use xlink:href="#DejaVuSans-Bold-44"/>
     <use xlink:href="#DejaVuSans-Bold-69" x="83.007812"/>
     <use xlink:href="#DejaVuSans-Bold-73" x="117.285156"/>
     <use xlink:href="#DejaVuSans-Bold-65" x="176.806641"/>
     <use xlink:href="#DejaVuSans-Bold-61" x="244.628906"/>
     <use xlink:href="#DejaVuSans-Bold-73" x="312.109375"/>
     <use xlink:href="#DejaVuSans-Bold-65" x="371.630859"/>
     <use xlink:href="#DejaVuSans-Bold-20" x="439.453125"/>
     <use xlink:href="#DejaVuSans-Bold-74" x="474.267578"/>
     <use xlink:href="#DejaVuSans-Bold-69" x="522.070312"/>
     <use xlink:href="#DejaVuSans-Bold-6d" x="556.347656"/>
     <use xlink:href="#DejaVuSans-Bold-65" x="660.546875"/>
     <use xlink:href="#DejaVuSans-Bold-6c" x="728.369141"/>
     <use xlink:href="#DejaVuSans-Bold-69" x="762.646484"/>
     <use xlink:href="#DejaVuSans-Bold-6e" x="796.923828"/>
     <use xlink:href="#DejaVuSans-Bold-65" x="868.115234"/>
    </g>
   </g>
   <g id="legend_1">
    <g id="patch_7">
     <path d="M 716.515781 70.21 
L 829.3775 70.21 
Q 831.5775 70.21 831.5775 68.01 
L 831.5775 36.818125 
Q 831.5775 34.618125 829.3775 34.618125 
L 716.515781 34.618125 
Q 714.315781 34.618125 714.315781 36.818125 
L 714.315781 68.01 
Q 714.315781 70.21 716.515781 70.21 
z
" style="fill: #ffffff; opacity: 0.8; stroke: #cccccc; stroke-linejoin: miter"/>
    </g>
    <g id="line2d_158">
     <path d="M 718.715781 43.526406 
L 729.715781 43.526406 
L 740.715781 43.526406 
" style="fill: none; stroke: #ffc0cb; stroke-width: 1.5; stroke-linecap: round"/>
    </g>
    <g id="text_33">
     <!-- Hospitalized -->
     <g style="fill: #262626" transform="translate(749.515781 47.376406)scale(0.11 -0.11)">
      <defs>
       <path id="DejaVuSans-48" d="M 628 4666 
L 1259 4666 
L 1259 2753 
L 3553 2753 
L 3553 4666 
L 4184 4666 
L 4184 0 
L 3553 0 
L 3553 2222 
L 1259 2222 
L 1259 0 
L 628 0 
L 628 4666 
z
" transform="scale(0.015625)"/>
       <path id="DejaVuSans-6f" d="M 1959 3097 
Q 1497 3097 1228 2736 
Q 959 2375 959 1747 
Q 959 1119 1226 758 
Q 1494 397 1959 397 
Q 2419 397 2687 759 
Q 2956 1122 2956 1747 
Q 2956 2369 2687 2733 
Q 2419 3097 1959 3097 
z
M 1959 3584 
Q 2709 3584 3137 3096 
Q 3566 2609 3566 1747 
Q 3566 888 3137 398 
Q 2709 -91 1959 -91 
Q 1206 -91 779 398 
Q 353 888 353 1747 
Q 353 2609 779 3096 
Q 1206 3584 1959 3584 
z
" transform="scale(0.015625)"/>
       <path id="DejaVuSans-69" d="M 603 3500 
L 1178 3500 
L 1178 0 
L 603 0 
L 603 3500 
z
M 603 4863 
L 1178 4863 
L 1178 4134 
L 603 4134 
L 603 4863 
z
" transform="scale(0.015625)"/>
       <path id="DejaVuSans-6c" d="M 603 4863 
L 1178 4863 
L 1178 0 
L 603 0 
L 603 4863 
z
" transform="scale(0.015625)"/>
       <path id="DejaVuSans-7a" d="M 353 3500 
L 3084 3500 
L 3084 2975 
L 922 459 
L 3084 459 
L 3084 0 
L 275 0 
L 275 525 
L 2438 3041 
L 353 3041 
L 353 3500 
z
" transform="scale(0.015625)"/>
      </defs>
      <use xlink:href="#DejaVuSans-48"/>
      <use xlink:href="#DejaVuSans-6f" x="75.195312"/>
      <use xlink:href="#DejaVuSans-73" x="136.376953"/>
      <use xlink:href="#DejaVuSans-70" x="188.476562"/>
      <use xlink:href="#DejaVuSans-69" x="251.953125"/>
      <use xlink:href="#DejaVuSans-74" x="279.736328"/>
      <use xlink:href="#DejaVuSans-61" x="318.945312"/>
      <use xlink:href="#DejaVuSans-6c" x="380.224609"/>
      <use xlink:href="#DejaVuSans-69" x="408.007812"/>
      <use xlink:href="#DejaVuSans-7a" x="435.791016"/>
      <use xlink:href="#DejaVuSans-65" x="488.28125"/>
      <use xlink:href="#DejaVuSans-64" x="549.804688"/>
     </g>
    </g>
    <g id="line2d_159">
     <path d="M 718.715781 59.672344 
L 729.715781 59.672344 
L 740.715781 59.672344 
" style="fill: none; stroke: #800080; stroke-width: 1.5; stroke-linecap: round"/>
    </g>
    <g id="text_34">
     <!-- Intensive care -->
     <g style="fill: #262626" transform="translate(749.515781 63.522344)scale(0.11 -0.11)">
      <defs>
       <path id="DejaVuSans-49" d="M 628 4666 
L 1259 4666 
L 1259 0 
L 628 0 
L 628 4666 
z
" transform="scale(0.015625)"/>
       <path id="DejaVuSans-6e" d="M 3513 2113 
L 3513 0 
L 2938 0 
L 2938 2094 
Q 2938 2591 2744 2837 
Q 2550 3084 2163 3084 
Q 1697 3084 1428 2787 
Q 1159 2491 1159 1978 
L 1159 0 
L 581 0 
L 581 3500 
L 1159 3500 
L 1159 2956 
Q 1366 3272 1645 3428 
Q 1925 3584 2291 3584 
Q 2894 3584 3203 3211 
Q 3513 2838 3513 2113 
z
" transform="scale(0.015625)"/>
       <path id="DejaVuSans-76" d="M 191 3500 
L 800 3500 
L 1894 563 
L 2988 3500 
L 3597 3500 
L 2284 0 
L 1503 0 
L 191 3500 
z
" transform="scale(0.015625)"/>
       <path id="DejaVuSans-63" d="M 3122 3366 
L 3122 2828 
Q 2878 2963 2633 3030 
Q 2388 3097 2138 3097 
Q 1578 3097 1268 2742 
Q 959 2388 959 1747 
Q 959 1106 1268 751 
Q 1578 397 2138 397 
Q 2388 397 2633 464 
Q 2878 531 3122 666 
L 3122 134 
Q 2881 22 2623 -34 
Q 2366 -91 2075 -91 
Q 1284 -91 818 406 
Q 353 903 353 1747 
Q 353 2603 823 3093 
Q 1294 3584 2113 3584 
Q 2378 3584 2631 3529 
Q 2884 3475 3122 3366 
z
" transform="scale(0.015625)"/>
       <path id="DejaVuSans-72" d="M 2631 2963 
Q 2534 3019 2420 3045 
Q 2306 3072 2169 3072 
Q 1681 3072 1420 2755 
Q 1159 2438 1159 1844 
L 1159 0 
L 581 0 
L 581 3500 
L 1159 3500 
L 1159 2956 
Q 1341 3275 1631 3429 
Q 1922 3584 2338 3584 
Q 2397 3584 2469 3576 
Q 2541 3569 2628 3553 
L 2631 2963 
z
" transform="scale(0.015625)"/>
      </defs>
      <use xlink:href="#DejaVuSans-49"/>
      <use xlink:href="#DejaVuSans-6e" x="29.492188"/>
      <use xlink:href="#DejaVuSans-74" x="92.871094"/>
      <use xlink:href="#DejaVuSans-65" x="132.080078"/>
      <use xlink:href="#DejaVuSans-6e" x="193.603516"/>
      <use xlink:href="#DejaVuSans-73" x="256.982422"/>
      <use xlink:href="#DejaVuSans-69" x="309.082031"/>
      <use xlink:href="#DejaVuSans-76" x="336.865234"/>
      <use xlink:href="#DejaVuSans-65" x="396.044922"/>
      <use xlink:href="#DejaVuSans-20" x="457.568359"/>
      <use xlink:href="#DejaVuSans-63" x="489.355469"/>
      <use xlink:href="#DejaVuSans-61" x="544.335938"/>
      <use xlink:href="#DejaVuSans-72" x="605.615234"/>
      <use xlink:href="#DejaVuSans-65" x="644.478516"/>
     </g>
    </g>
   </g>
  </g>
 </g>
 <defs>
  <clipPath id="p22263c73cf">
   <rect x="60.1075" y="29.118125" width="776.97" height="441.610078"/>
  </clipPath>
 </defs>
</svg>
