<?xml version="1.0" encoding="utf-8" standalone="no"?>
<!DOCTYPE svg PUBLIC "-//W3C//DTD SVG 1.1//EN"
  "http://www.w3.org/Graphics/SVG/1.1/DTD/svg11.dtd">
<svg height="570.462488pt" version="1.1" viewBox="0 0 862.888 570.462488" width="862.888pt" xmlns="http://www.w3.org/2000/svg" xmlns:xlink="http://www.w3.org/1999/xlink">
 <metadata>
  <rdf:RDF xmlns:cc="http://creativecommons.org/ns#" xmlns:dc="http://purl.org/dc/elements/1.1/" xmlns:rdf="http://www.w3.org/1999/02/22-rdf-syntax-ns#">
   <cc:Work>
    <dc:type rdf:resource="http://purl.org/dc/dcmitype/StillImage"/>
    <dc:date>2021-11-21T01:37:08.289052</dc:date>
    <dc:format>image/svg+xml</dc:format>
    <dc:creator>
     <cc:Agent>
      <dc:title>Matplotlib v3.4.3, https://matplotlib.org/</dc:title>
     </cc:Agent>
    </dc:creator>
   </cc:Work>
  </rdf:RDF>
 </metadata>
 <defs>
  <style type="text/css">*{stroke-linecap:butt;stroke-linejoin:round;}</style>
 </defs>
 <g id="figure_1">
  <g id="patch_1">
   <path d="M 0 570.462488 
L 862.888 570.462488 
L 862.888 0 
L 0 0 
z
" style="fill:none;"/>
  </g>
  <g id="axes_1">
   <g id="patch_2">
    <path d="M 67.10625 493.286013 
L 798.39425 493.286013 
L 798.39425 29.118125 
L 67.10625 29.118125 
z
" style="fill:none;"/>
   </g>
   <g id="matplotlib.axis_1">
    <g id="xtick_1">
     <g id="line2d_1">
      <path clip-path="url(#p034bb18df1)" d="M 100.346614 493.286013 
L 100.346614 29.118125 
" style="fill:none;stroke:#cccccc;stroke-linecap:round;"/>
     </g>
     <g id="line2d_2">
      <defs>
       <path d="M 0 0 
L 0 6 
" id="mfce23c0dbd" style="stroke:#262626;stroke-width:1.25;"/>
      </defs>
      <g>
       <use style="fill:#262626;stroke:#262626;stroke-width:1.25;" x="100.346614" xlink:href="#mfce23c0dbd" y="493.286013"/>
      </g>
     </g>
     <g id="text_1">
      <!-- 07.03.2020 -->
      <g style="fill:#262626;" transform="translate(54.194085 553.231121)rotate(-45)scale(0.11 -0.11)">
       <defs>
        <path d="M 2034 4250 
Q 1547 4250 1301 3770 
Q 1056 3291 1056 2328 
Q 1056 1369 1301 889 
Q 1547 409 2034 409 
Q 2525 409 2770 889 
Q 3016 1369 3016 2328 
Q 3016 3291 2770 3770 
Q 2525 4250 2034 4250 
z
M 2034 4750 
Q 2819 4750 3233 4129 
Q 3647 3509 3647 2328 
Q 3647 1150 3233 529 
Q 2819 -91 2034 -91 
Q 1250 -91 836 529 
Q 422 1150 422 2328 
Q 422 3509 836 4129 
Q 1250 4750 2034 4750 
z
" id="DejaVuSans-30" transform="scale(0.015625)"/>
        <path d="M 525 4666 
L 3525 4666 
L 3525 4397 
L 1831 0 
L 1172 0 
L 2766 4134 
L 525 4134 
L 525 4666 
z
" id="DejaVuSans-37" transform="scale(0.015625)"/>
        <path d="M 684 794 
L 1344 794 
L 1344 0 
L 684 0 
L 684 794 
z
" id="DejaVuSans-2e" transform="scale(0.015625)"/>
        <path d="M 2597 2516 
Q 3050 2419 3304 2112 
Q 3559 1806 3559 1356 
Q 3559 666 3084 287 
Q 2609 -91 1734 -91 
Q 1441 -91 1130 -33 
Q 819 25 488 141 
L 488 750 
Q 750 597 1062 519 
Q 1375 441 1716 441 
Q 2309 441 2620 675 
Q 2931 909 2931 1356 
Q 2931 1769 2642 2001 
Q 2353 2234 1838 2234 
L 1294 2234 
L 1294 2753 
L 1863 2753 
Q 2328 2753 2575 2939 
Q 2822 3125 2822 3475 
Q 2822 3834 2567 4026 
Q 2313 4219 1838 4219 
Q 1578 4219 1281 4162 
Q 984 4106 628 3988 
L 628 4550 
Q 988 4650 1302 4700 
Q 1616 4750 1894 4750 
Q 2613 4750 3031 4423 
Q 3450 4097 3450 3541 
Q 3450 3153 3228 2886 
Q 3006 2619 2597 2516 
z
" id="DejaVuSans-33" transform="scale(0.015625)"/>
        <path d="M 1228 531 
L 3431 531 
L 3431 0 
L 469 0 
L 469 531 
Q 828 903 1448 1529 
Q 2069 2156 2228 2338 
Q 2531 2678 2651 2914 
Q 2772 3150 2772 3378 
Q 2772 3750 2511 3984 
Q 2250 4219 1831 4219 
Q 1534 4219 1204 4116 
Q 875 4013 500 3803 
L 500 4441 
Q 881 4594 1212 4672 
Q 1544 4750 1819 4750 
Q 2544 4750 2975 4387 
Q 3406 4025 3406 3419 
Q 3406 3131 3298 2873 
Q 3191 2616 2906 2266 
Q 2828 2175 2409 1742 
Q 1991 1309 1228 531 
z
" id="DejaVuSans-32" transform="scale(0.015625)"/>
       </defs>
       <use xlink:href="#DejaVuSans-30"/>
       <use x="63.623047" xlink:href="#DejaVuSans-37"/>
       <use x="127.246094" xlink:href="#DejaVuSans-2e"/>
       <use x="159.033203" xlink:href="#DejaVuSans-30"/>
       <use x="222.65625" xlink:href="#DejaVuSans-33"/>
       <use x="286.279297" xlink:href="#DejaVuSans-2e"/>
       <use x="318.066406" xlink:href="#DejaVuSans-32"/>
       <use x="381.689453" xlink:href="#DejaVuSans-30"/>
       <use x="445.3125" xlink:href="#DejaVuSans-32"/>
       <use x="508.935547" xlink:href="#DejaVuSans-30"/>
      </g>
     </g>
    </g>
    <g id="xtick_2">
     <g id="line2d_3">
      <path clip-path="url(#p034bb18df1)" d="M 130.225592 493.286013 
L 130.225592 29.118125 
" style="fill:none;stroke:#cccccc;stroke-linecap:round;"/>
     </g>
     <g id="line2d_4">
      <g>
       <use style="fill:#262626;stroke:#262626;stroke-width:1.25;" x="130.225592" xlink:href="#mfce23c0dbd" y="493.286013"/>
      </g>
     </g>
     <g id="text_2">
      <!-- 04.04.2020 -->
      <g style="fill:#262626;" transform="translate(84.073064 553.231121)rotate(-45)scale(0.11 -0.11)">
       <defs>
        <path d="M 2419 4116 
L 825 1625 
L 2419 1625 
L 2419 4116 
z
M 2253 4666 
L 3047 4666 
L 3047 1625 
L 3713 1625 
L 3713 1100 
L 3047 1100 
L 3047 0 
L 2419 0 
L 2419 1100 
L 313 1100 
L 313 1709 
L 2253 4666 
z
" id="DejaVuSans-34" transform="scale(0.015625)"/>
       </defs>
       <use xlink:href="#DejaVuSans-30"/>
       <use x="63.623047" xlink:href="#DejaVuSans-34"/>
       <use x="127.246094" xlink:href="#DejaVuSans-2e"/>
       <use x="159.033203" xlink:href="#DejaVuSans-30"/>
       <use x="222.65625" xlink:href="#DejaVuSans-34"/>
       <use x="286.279297" xlink:href="#DejaVuSans-2e"/>
       <use x="318.066406" xlink:href="#DejaVuSans-32"/>
       <use x="381.689453" xlink:href="#DejaVuSans-30"/>
       <use x="445.3125" xlink:href="#DejaVuSans-32"/>
       <use x="508.935547" xlink:href="#DejaVuSans-30"/>
      </g>
     </g>
    </g>
    <g id="xtick_3">
     <g id="line2d_5">
      <path clip-path="url(#p034bb18df1)" d="M 160.104571 493.286013 
L 160.104571 29.118125 
" style="fill:none;stroke:#cccccc;stroke-linecap:round;"/>
     </g>
     <g id="line2d_6">
      <g>
       <use style="fill:#262626;stroke:#262626;stroke-width:1.25;" x="160.104571" xlink:href="#mfce23c0dbd" y="493.286013"/>
      </g>
     </g>
     <g id="text_3">
      <!-- 02.05.2020 -->
      <g style="fill:#262626;" transform="translate(113.952043 553.231121)rotate(-45)scale(0.11 -0.11)">
       <defs>
        <path d="M 691 4666 
L 3169 4666 
L 3169 4134 
L 1269 4134 
L 1269 2991 
Q 1406 3038 1543 3061 
Q 1681 3084 1819 3084 
Q 2600 3084 3056 2656 
Q 3513 2228 3513 1497 
Q 3513 744 3044 326 
Q 2575 -91 1722 -91 
Q 1428 -91 1123 -41 
Q 819 9 494 109 
L 494 744 
Q 775 591 1075 516 
Q 1375 441 1709 441 
Q 2250 441 2565 725 
Q 2881 1009 2881 1497 
Q 2881 1984 2565 2268 
Q 2250 2553 1709 2553 
Q 1456 2553 1204 2497 
Q 953 2441 691 2322 
L 691 4666 
z
" id="DejaVuSans-35" transform="scale(0.015625)"/>
       </defs>
       <use xlink:href="#DejaVuSans-30"/>
       <use x="63.623047" xlink:href="#DejaVuSans-32"/>
       <use x="127.246094" xlink:href="#DejaVuSans-2e"/>
       <use x="159.033203" xlink:href="#DejaVuSans-30"/>
       <use x="222.65625" xlink:href="#DejaVuSans-35"/>
       <use x="286.279297" xlink:href="#DejaVuSans-2e"/>
       <use x="318.066406" xlink:href="#DejaVuSans-32"/>
       <use x="381.689453" xlink:href="#DejaVuSans-30"/>
       <use x="445.3125" xlink:href="#DejaVuSans-32"/>
       <use x="508.935547" xlink:href="#DejaVuSans-30"/>
      </g>
     </g>
    </g>
    <g id="xtick_4">
     <g id="line2d_7">
      <path clip-path="url(#p034bb18df1)" d="M 189.983549 493.286013 
L 189.983549 29.118125 
" style="fill:none;stroke:#cccccc;stroke-linecap:round;"/>
     </g>
     <g id="line2d_8">
      <g>
       <use style="fill:#262626;stroke:#262626;stroke-width:1.25;" x="189.983549" xlink:href="#mfce23c0dbd" y="493.286013"/>
      </g>
     </g>
     <g id="text_4">
      <!-- 30.05.2020 -->
      <g style="fill:#262626;" transform="translate(143.831021 553.231121)rotate(-45)scale(0.11 -0.11)">
       <use xlink:href="#DejaVuSans-33"/>
       <use x="63.623047" xlink:href="#DejaVuSans-30"/>
       <use x="127.246094" xlink:href="#DejaVuSans-2e"/>
       <use x="159.033203" xlink:href="#DejaVuSans-30"/>
       <use x="222.65625" xlink:href="#DejaVuSans-35"/>
       <use x="286.279297" xlink:href="#DejaVuSans-2e"/>
       <use x="318.066406" xlink:href="#DejaVuSans-32"/>
       <use x="381.689453" xlink:href="#DejaVuSans-30"/>
       <use x="445.3125" xlink:href="#DejaVuSans-32"/>
       <use x="508.935547" xlink:href="#DejaVuSans-30"/>
      </g>
     </g>
    </g>
    <g id="xtick_5">
     <g id="line2d_9">
      <path clip-path="url(#p034bb18df1)" d="M 219.862528 493.286013 
L 219.862528 29.118125 
" style="fill:none;stroke:#cccccc;stroke-linecap:round;"/>
     </g>
     <g id="line2d_10">
      <g>
       <use style="fill:#262626;stroke:#262626;stroke-width:1.25;" x="219.862528" xlink:href="#mfce23c0dbd" y="493.286013"/>
      </g>
     </g>
     <g id="text_5">
      <!-- 27.06.2020 -->
      <g style="fill:#262626;" transform="translate(173.71 553.231121)rotate(-45)scale(0.11 -0.11)">
       <defs>
        <path d="M 2113 2584 
Q 1688 2584 1439 2293 
Q 1191 2003 1191 1497 
Q 1191 994 1439 701 
Q 1688 409 2113 409 
Q 2538 409 2786 701 
Q 3034 994 3034 1497 
Q 3034 2003 2786 2293 
Q 2538 2584 2113 2584 
z
M 3366 4563 
L 3366 3988 
Q 3128 4100 2886 4159 
Q 2644 4219 2406 4219 
Q 1781 4219 1451 3797 
Q 1122 3375 1075 2522 
Q 1259 2794 1537 2939 
Q 1816 3084 2150 3084 
Q 2853 3084 3261 2657 
Q 3669 2231 3669 1497 
Q 3669 778 3244 343 
Q 2819 -91 2113 -91 
Q 1303 -91 875 529 
Q 447 1150 447 2328 
Q 447 3434 972 4092 
Q 1497 4750 2381 4750 
Q 2619 4750 2861 4703 
Q 3103 4656 3366 4563 
z
" id="DejaVuSans-36" transform="scale(0.015625)"/>
       </defs>
       <use xlink:href="#DejaVuSans-32"/>
       <use x="63.623047" xlink:href="#DejaVuSans-37"/>
       <use x="127.246094" xlink:href="#DejaVuSans-2e"/>
       <use x="159.033203" xlink:href="#DejaVuSans-30"/>
       <use x="222.65625" xlink:href="#DejaVuSans-36"/>
       <use x="286.279297" xlink:href="#DejaVuSans-2e"/>
       <use x="318.066406" xlink:href="#DejaVuSans-32"/>
       <use x="381.689453" xlink:href="#DejaVuSans-30"/>
       <use x="445.3125" xlink:href="#DejaVuSans-32"/>
       <use x="508.935547" xlink:href="#DejaVuSans-30"/>
      </g>
     </g>
    </g>
    <g id="xtick_6">
     <g id="line2d_11">
      <path clip-path="url(#p034bb18df1)" d="M 249.741506 493.286013 
L 249.741506 29.118125 
" style="fill:none;stroke:#cccccc;stroke-linecap:round;"/>
     </g>
     <g id="line2d_12">
      <g>
       <use style="fill:#262626;stroke:#262626;stroke-width:1.25;" x="249.741506" xlink:href="#mfce23c0dbd" y="493.286013"/>
      </g>
     </g>
     <g id="text_6">
      <!-- 25.07.2020 -->
      <g style="fill:#262626;" transform="translate(203.588978 553.231121)rotate(-45)scale(0.11 -0.11)">
       <use xlink:href="#DejaVuSans-32"/>
       <use x="63.623047" xlink:href="#DejaVuSans-35"/>
       <use x="127.246094" xlink:href="#DejaVuSans-2e"/>
       <use x="159.033203" xlink:href="#DejaVuSans-30"/>
       <use x="222.65625" xlink:href="#DejaVuSans-37"/>
       <use x="286.279297" xlink:href="#DejaVuSans-2e"/>
       <use x="318.066406" xlink:href="#DejaVuSans-32"/>
       <use x="381.689453" xlink:href="#DejaVuSans-30"/>
       <use x="445.3125" xlink:href="#DejaVuSans-32"/>
       <use x="508.935547" xlink:href="#DejaVuSans-30"/>
      </g>
     </g>
    </g>
    <g id="xtick_7">
     <g id="line2d_13">
      <path clip-path="url(#p034bb18df1)" d="M 279.620485 493.286013 
L 279.620485 29.118125 
" style="fill:none;stroke:#cccccc;stroke-linecap:round;"/>
     </g>
     <g id="line2d_14">
      <g>
       <use style="fill:#262626;stroke:#262626;stroke-width:1.25;" x="279.620485" xlink:href="#mfce23c0dbd" y="493.286013"/>
      </g>
     </g>
     <g id="text_7">
      <!-- 22.08.2020 -->
      <g style="fill:#262626;" transform="translate(233.467957 553.231121)rotate(-45)scale(0.11 -0.11)">
       <defs>
        <path d="M 2034 2216 
Q 1584 2216 1326 1975 
Q 1069 1734 1069 1313 
Q 1069 891 1326 650 
Q 1584 409 2034 409 
Q 2484 409 2743 651 
Q 3003 894 3003 1313 
Q 3003 1734 2745 1975 
Q 2488 2216 2034 2216 
z
M 1403 2484 
Q 997 2584 770 2862 
Q 544 3141 544 3541 
Q 544 4100 942 4425 
Q 1341 4750 2034 4750 
Q 2731 4750 3128 4425 
Q 3525 4100 3525 3541 
Q 3525 3141 3298 2862 
Q 3072 2584 2669 2484 
Q 3125 2378 3379 2068 
Q 3634 1759 3634 1313 
Q 3634 634 3220 271 
Q 2806 -91 2034 -91 
Q 1263 -91 848 271 
Q 434 634 434 1313 
Q 434 1759 690 2068 
Q 947 2378 1403 2484 
z
M 1172 3481 
Q 1172 3119 1398 2916 
Q 1625 2713 2034 2713 
Q 2441 2713 2670 2916 
Q 2900 3119 2900 3481 
Q 2900 3844 2670 4047 
Q 2441 4250 2034 4250 
Q 1625 4250 1398 4047 
Q 1172 3844 1172 3481 
z
" id="DejaVuSans-38" transform="scale(0.015625)"/>
       </defs>
       <use xlink:href="#DejaVuSans-32"/>
       <use x="63.623047" xlink:href="#DejaVuSans-32"/>
       <use x="127.246094" xlink:href="#DejaVuSans-2e"/>
       <use x="159.033203" xlink:href="#DejaVuSans-30"/>
       <use x="222.65625" xlink:href="#DejaVuSans-38"/>
       <use x="286.279297" xlink:href="#DejaVuSans-2e"/>
       <use x="318.066406" xlink:href="#DejaVuSans-32"/>
       <use x="381.689453" xlink:href="#DejaVuSans-30"/>
       <use x="445.3125" xlink:href="#DejaVuSans-32"/>
       <use x="508.935547" xlink:href="#DejaVuSans-30"/>
      </g>
     </g>
    </g>
    <g id="xtick_8">
     <g id="line2d_15">
      <path clip-path="url(#p034bb18df1)" d="M 309.499463 493.286013 
L 309.499463 29.118125 
" style="fill:none;stroke:#cccccc;stroke-linecap:round;"/>
     </g>
     <g id="line2d_16">
      <g>
       <use style="fill:#262626;stroke:#262626;stroke-width:1.25;" x="309.499463" xlink:href="#mfce23c0dbd" y="493.286013"/>
      </g>
     </g>
     <g id="text_8">
      <!-- 19.09.2020 -->
      <g style="fill:#262626;" transform="translate(263.346935 553.231121)rotate(-45)scale(0.11 -0.11)">
       <defs>
        <path d="M 794 531 
L 1825 531 
L 1825 4091 
L 703 3866 
L 703 4441 
L 1819 4666 
L 2450 4666 
L 2450 531 
L 3481 531 
L 3481 0 
L 794 0 
L 794 531 
z
" id="DejaVuSans-31" transform="scale(0.015625)"/>
        <path d="M 703 97 
L 703 672 
Q 941 559 1184 500 
Q 1428 441 1663 441 
Q 2288 441 2617 861 
Q 2947 1281 2994 2138 
Q 2813 1869 2534 1725 
Q 2256 1581 1919 1581 
Q 1219 1581 811 2004 
Q 403 2428 403 3163 
Q 403 3881 828 4315 
Q 1253 4750 1959 4750 
Q 2769 4750 3195 4129 
Q 3622 3509 3622 2328 
Q 3622 1225 3098 567 
Q 2575 -91 1691 -91 
Q 1453 -91 1209 -44 
Q 966 3 703 97 
z
M 1959 2075 
Q 2384 2075 2632 2365 
Q 2881 2656 2881 3163 
Q 2881 3666 2632 3958 
Q 2384 4250 1959 4250 
Q 1534 4250 1286 3958 
Q 1038 3666 1038 3163 
Q 1038 2656 1286 2365 
Q 1534 2075 1959 2075 
z
" id="DejaVuSans-39" transform="scale(0.015625)"/>
       </defs>
       <use xlink:href="#DejaVuSans-31"/>
       <use x="63.623047" xlink:href="#DejaVuSans-39"/>
       <use x="127.246094" xlink:href="#DejaVuSans-2e"/>
       <use x="159.033203" xlink:href="#DejaVuSans-30"/>
       <use x="222.65625" xlink:href="#DejaVuSans-39"/>
       <use x="286.279297" xlink:href="#DejaVuSans-2e"/>
       <use x="318.066406" xlink:href="#DejaVuSans-32"/>
       <use x="381.689453" xlink:href="#DejaVuSans-30"/>
       <use x="445.3125" xlink:href="#DejaVuSans-32"/>
       <use x="508.935547" xlink:href="#DejaVuSans-30"/>
      </g>
     </g>
    </g>
    <g id="xtick_9">
     <g id="line2d_17">
      <path clip-path="url(#p034bb18df1)" d="M 339.378442 493.286013 
L 339.378442 29.118125 
" style="fill:none;stroke:#cccccc;stroke-linecap:round;"/>
     </g>
     <g id="line2d_18">
      <g>
       <use style="fill:#262626;stroke:#262626;stroke-width:1.25;" x="339.378442" xlink:href="#mfce23c0dbd" y="493.286013"/>
      </g>
     </g>
     <g id="text_9">
      <!-- 17.10.2020 -->
      <g style="fill:#262626;" transform="translate(293.225914 553.231121)rotate(-45)scale(0.11 -0.11)">
       <use xlink:href="#DejaVuSans-31"/>
       <use x="63.623047" xlink:href="#DejaVuSans-37"/>
       <use x="127.246094" xlink:href="#DejaVuSans-2e"/>
       <use x="159.033203" xlink:href="#DejaVuSans-31"/>
       <use x="222.65625" xlink:href="#DejaVuSans-30"/>
       <use x="286.279297" xlink:href="#DejaVuSans-2e"/>
       <use x="318.066406" xlink:href="#DejaVuSans-32"/>
       <use x="381.689453" xlink:href="#DejaVuSans-30"/>
       <use x="445.3125" xlink:href="#DejaVuSans-32"/>
       <use x="508.935547" xlink:href="#DejaVuSans-30"/>
      </g>
     </g>
    </g>
    <g id="xtick_10">
     <g id="line2d_19">
      <path clip-path="url(#p034bb18df1)" d="M 369.257421 493.286013 
L 369.257421 29.118125 
" style="fill:none;stroke:#cccccc;stroke-linecap:round;"/>
     </g>
     <g id="line2d_20">
      <g>
       <use style="fill:#262626;stroke:#262626;stroke-width:1.25;" x="369.257421" xlink:href="#mfce23c0dbd" y="493.286013"/>
      </g>
     </g>
     <g id="text_10">
      <!-- 14.11.2020 -->
      <g style="fill:#262626;" transform="translate(323.104892 553.231121)rotate(-45)scale(0.11 -0.11)">
       <use xlink:href="#DejaVuSans-31"/>
       <use x="63.623047" xlink:href="#DejaVuSans-34"/>
       <use x="127.246094" xlink:href="#DejaVuSans-2e"/>
       <use x="159.033203" xlink:href="#DejaVuSans-31"/>
       <use x="222.65625" xlink:href="#DejaVuSans-31"/>
       <use x="286.279297" xlink:href="#DejaVuSans-2e"/>
       <use x="318.066406" xlink:href="#DejaVuSans-32"/>
       <use x="381.689453" xlink:href="#DejaVuSans-30"/>
       <use x="445.3125" xlink:href="#DejaVuSans-32"/>
       <use x="508.935547" xlink:href="#DejaVuSans-30"/>
      </g>
     </g>
    </g>
    <g id="xtick_11">
     <g id="line2d_21">
      <path clip-path="url(#p034bb18df1)" d="M 399.136399 493.286013 
L 399.136399 29.118125 
" style="fill:none;stroke:#cccccc;stroke-linecap:round;"/>
     </g>
     <g id="line2d_22">
      <g>
       <use style="fill:#262626;stroke:#262626;stroke-width:1.25;" x="399.136399" xlink:href="#mfce23c0dbd" y="493.286013"/>
      </g>
     </g>
     <g id="text_11">
      <!-- 12.12.2020 -->
      <g style="fill:#262626;" transform="translate(352.983871 553.231121)rotate(-45)scale(0.11 -0.11)">
       <use xlink:href="#DejaVuSans-31"/>
       <use x="63.623047" xlink:href="#DejaVuSans-32"/>
       <use x="127.246094" xlink:href="#DejaVuSans-2e"/>
       <use x="159.033203" xlink:href="#DejaVuSans-31"/>
       <use x="222.65625" xlink:href="#DejaVuSans-32"/>
       <use x="286.279297" xlink:href="#DejaVuSans-2e"/>
       <use x="318.066406" xlink:href="#DejaVuSans-32"/>
       <use x="381.689453" xlink:href="#DejaVuSans-30"/>
       <use x="445.3125" xlink:href="#DejaVuSans-32"/>
       <use x="508.935547" xlink:href="#DejaVuSans-30"/>
      </g>
     </g>
    </g>
    <g id="xtick_12">
     <g id="line2d_23">
      <path clip-path="url(#p034bb18df1)" d="M 429.015378 493.286013 
L 429.015378 29.118125 
" style="fill:none;stroke:#cccccc;stroke-linecap:round;"/>
     </g>
     <g id="line2d_24">
      <g>
       <use style="fill:#262626;stroke:#262626;stroke-width:1.25;" x="429.015378" xlink:href="#mfce23c0dbd" y="493.286013"/>
      </g>
     </g>
     <g id="text_12">
      <!-- 09.01.2021 -->
      <g style="fill:#262626;" transform="translate(382.86285 553.231121)rotate(-45)scale(0.11 -0.11)">
       <use xlink:href="#DejaVuSans-30"/>
       <use x="63.623047" xlink:href="#DejaVuSans-39"/>
       <use x="127.246094" xlink:href="#DejaVuSans-2e"/>
       <use x="159.033203" xlink:href="#DejaVuSans-30"/>
       <use x="222.65625" xlink:href="#DejaVuSans-31"/>
       <use x="286.279297" xlink:href="#DejaVuSans-2e"/>
       <use x="318.066406" xlink:href="#DejaVuSans-32"/>
       <use x="381.689453" xlink:href="#DejaVuSans-30"/>
       <use x="445.3125" xlink:href="#DejaVuSans-32"/>
       <use x="508.935547" xlink:href="#DejaVuSans-31"/>
      </g>
     </g>
    </g>
    <g id="xtick_13">
     <g id="line2d_25">
      <path clip-path="url(#p034bb18df1)" d="M 458.894356 493.286013 
L 458.894356 29.118125 
" style="fill:none;stroke:#cccccc;stroke-linecap:round;"/>
     </g>
     <g id="line2d_26">
      <g>
       <use style="fill:#262626;stroke:#262626;stroke-width:1.25;" x="458.894356" xlink:href="#mfce23c0dbd" y="493.286013"/>
      </g>
     </g>
     <g id="text_13">
      <!-- 06.02.2021 -->
      <g style="fill:#262626;" transform="translate(412.741828 553.231121)rotate(-45)scale(0.11 -0.11)">
       <use xlink:href="#DejaVuSans-30"/>
       <use x="63.623047" xlink:href="#DejaVuSans-36"/>
       <use x="127.246094" xlink:href="#DejaVuSans-2e"/>
       <use x="159.033203" xlink:href="#DejaVuSans-30"/>
       <use x="222.65625" xlink:href="#DejaVuSans-32"/>
       <use x="286.279297" xlink:href="#DejaVuSans-2e"/>
       <use x="318.066406" xlink:href="#DejaVuSans-32"/>
       <use x="381.689453" xlink:href="#DejaVuSans-30"/>
       <use x="445.3125" xlink:href="#DejaVuSans-32"/>
       <use x="508.935547" xlink:href="#DejaVuSans-31"/>
      </g>
     </g>
    </g>
    <g id="xtick_14">
     <g id="line2d_27">
      <path clip-path="url(#p034bb18df1)" d="M 488.773335 493.286013 
L 488.773335 29.118125 
" style="fill:none;stroke:#cccccc;stroke-linecap:round;"/>
     </g>
     <g id="line2d_28">
      <g>
       <use style="fill:#262626;stroke:#262626;stroke-width:1.25;" x="488.773335" xlink:href="#mfce23c0dbd" y="493.286013"/>
      </g>
     </g>
     <g id="text_14">
      <!-- 06.03.2021 -->
      <g style="fill:#262626;" transform="translate(442.620807 553.231121)rotate(-45)scale(0.11 -0.11)">
       <use xlink:href="#DejaVuSans-30"/>
       <use x="63.623047" xlink:href="#DejaVuSans-36"/>
       <use x="127.246094" xlink:href="#DejaVuSans-2e"/>
       <use x="159.033203" xlink:href="#DejaVuSans-30"/>
       <use x="222.65625" xlink:href="#DejaVuSans-33"/>
       <use x="286.279297" xlink:href="#DejaVuSans-2e"/>
       <use x="318.066406" xlink:href="#DejaVuSans-32"/>
       <use x="381.689453" xlink:href="#DejaVuSans-30"/>
       <use x="445.3125" xlink:href="#DejaVuSans-32"/>
       <use x="508.935547" xlink:href="#DejaVuSans-31"/>
      </g>
     </g>
    </g>
    <g id="xtick_15">
     <g id="line2d_29">
      <path clip-path="url(#p034bb18df1)" d="M 518.652313 493.286013 
L 518.652313 29.118125 
" style="fill:none;stroke:#cccccc;stroke-linecap:round;"/>
     </g>
     <g id="line2d_30">
      <g>
       <use style="fill:#262626;stroke:#262626;stroke-width:1.25;" x="518.652313" xlink:href="#mfce23c0dbd" y="493.286013"/>
      </g>
     </g>
     <g id="text_15">
      <!-- 03.04.2021 -->
      <g style="fill:#262626;" transform="translate(472.499785 553.231121)rotate(-45)scale(0.11 -0.11)">
       <use xlink:href="#DejaVuSans-30"/>
       <use x="63.623047" xlink:href="#DejaVuSans-33"/>
       <use x="127.246094" xlink:href="#DejaVuSans-2e"/>
       <use x="159.033203" xlink:href="#DejaVuSans-30"/>
       <use x="222.65625" xlink:href="#DejaVuSans-34"/>
       <use x="286.279297" xlink:href="#DejaVuSans-2e"/>
       <use x="318.066406" xlink:href="#DejaVuSans-32"/>
       <use x="381.689453" xlink:href="#DejaVuSans-30"/>
       <use x="445.3125" xlink:href="#DejaVuSans-32"/>
       <use x="508.935547" xlink:href="#DejaVuSans-31"/>
      </g>
     </g>
    </g>
    <g id="xtick_16">
     <g id="line2d_31">
      <path clip-path="url(#p034bb18df1)" d="M 548.531292 493.286013 
L 548.531292 29.118125 
" style="fill:none;stroke:#cccccc;stroke-linecap:round;"/>
     </g>
     <g id="line2d_32">
      <g>
       <use style="fill:#262626;stroke:#262626;stroke-width:1.25;" x="548.531292" xlink:href="#mfce23c0dbd" y="493.286013"/>
      </g>
     </g>
     <g id="text_16">
      <!-- 01.05.2021 -->
      <g style="fill:#262626;" transform="translate(502.378764 553.231121)rotate(-45)scale(0.11 -0.11)">
       <use xlink:href="#DejaVuSans-30"/>
       <use x="63.623047" xlink:href="#DejaVuSans-31"/>
       <use x="127.246094" xlink:href="#DejaVuSans-2e"/>
       <use x="159.033203" xlink:href="#DejaVuSans-30"/>
       <use x="222.65625" xlink:href="#DejaVuSans-35"/>
       <use x="286.279297" xlink:href="#DejaVuSans-2e"/>
       <use x="318.066406" xlink:href="#DejaVuSans-32"/>
       <use x="381.689453" xlink:href="#DejaVuSans-30"/>
       <use x="445.3125" xlink:href="#DejaVuSans-32"/>
       <use x="508.935547" xlink:href="#DejaVuSans-31"/>
      </g>
     </g>
    </g>
    <g id="xtick_17">
     <g id="line2d_33">
      <path clip-path="url(#p034bb18df1)" d="M 578.41027 493.286013 
L 578.41027 29.118125 
" style="fill:none;stroke:#cccccc;stroke-linecap:round;"/>
     </g>
     <g id="line2d_34">
      <g>
       <use style="fill:#262626;stroke:#262626;stroke-width:1.25;" x="578.41027" xlink:href="#mfce23c0dbd" y="493.286013"/>
      </g>
     </g>
     <g id="text_17">
      <!-- 29.05.2021 -->
      <g style="fill:#262626;" transform="translate(532.257742 553.231121)rotate(-45)scale(0.11 -0.11)">
       <use xlink:href="#DejaVuSans-32"/>
       <use x="63.623047" xlink:href="#DejaVuSans-39"/>
       <use x="127.246094" xlink:href="#DejaVuSans-2e"/>
       <use x="159.033203" xlink:href="#DejaVuSans-30"/>
       <use x="222.65625" xlink:href="#DejaVuSans-35"/>
       <use x="286.279297" xlink:href="#DejaVuSans-2e"/>
       <use x="318.066406" xlink:href="#DejaVuSans-32"/>
       <use x="381.689453" xlink:href="#DejaVuSans-30"/>
       <use x="445.3125" xlink:href="#DejaVuSans-32"/>
       <use x="508.935547" xlink:href="#DejaVuSans-31"/>
      </g>
     </g>
    </g>
    <g id="xtick_18">
     <g id="line2d_35">
      <path clip-path="url(#p034bb18df1)" d="M 608.289249 493.286013 
L 608.289249 29.118125 
" style="fill:none;stroke:#cccccc;stroke-linecap:round;"/>
     </g>
     <g id="line2d_36">
      <g>
       <use style="fill:#262626;stroke:#262626;stroke-width:1.25;" x="608.289249" xlink:href="#mfce23c0dbd" y="493.286013"/>
      </g>
     </g>
     <g id="text_18">
      <!-- 26.06.2021 -->
      <g style="fill:#262626;" transform="translate(562.136721 553.231121)rotate(-45)scale(0.11 -0.11)">
       <use xlink:href="#DejaVuSans-32"/>
       <use x="63.623047" xlink:href="#DejaVuSans-36"/>
       <use x="127.246094" xlink:href="#DejaVuSans-2e"/>
       <use x="159.033203" xlink:href="#DejaVuSans-30"/>
       <use x="222.65625" xlink:href="#DejaVuSans-36"/>
       <use x="286.279297" xlink:href="#DejaVuSans-2e"/>
       <use x="318.066406" xlink:href="#DejaVuSans-32"/>
       <use x="381.689453" xlink:href="#DejaVuSans-30"/>
       <use x="445.3125" xlink:href="#DejaVuSans-32"/>
       <use x="508.935547" xlink:href="#DejaVuSans-31"/>
      </g>
     </g>
    </g>
    <g id="xtick_19">
     <g id="line2d_37">
      <path clip-path="url(#p034bb18df1)" d="M 638.168228 493.286013 
L 638.168228 29.118125 
" style="fill:none;stroke:#cccccc;stroke-linecap:round;"/>
     </g>
     <g id="line2d_38">
      <g>
       <use style="fill:#262626;stroke:#262626;stroke-width:1.25;" x="638.168228" xlink:href="#mfce23c0dbd" y="493.286013"/>
      </g>
     </g>
     <g id="text_19">
      <!-- 24.07.2021 -->
      <g style="fill:#262626;" transform="translate(592.015699 553.231121)rotate(-45)scale(0.11 -0.11)">
       <use xlink:href="#DejaVuSans-32"/>
       <use x="63.623047" xlink:href="#DejaVuSans-34"/>
       <use x="127.246094" xlink:href="#DejaVuSans-2e"/>
       <use x="159.033203" xlink:href="#DejaVuSans-30"/>
       <use x="222.65625" xlink:href="#DejaVuSans-37"/>
       <use x="286.279297" xlink:href="#DejaVuSans-2e"/>
       <use x="318.066406" xlink:href="#DejaVuSans-32"/>
       <use x="381.689453" xlink:href="#DejaVuSans-30"/>
       <use x="445.3125" xlink:href="#DejaVuSans-32"/>
       <use x="508.935547" xlink:href="#DejaVuSans-31"/>
      </g>
     </g>
    </g>
    <g id="xtick_20">
     <g id="line2d_39">
      <path clip-path="url(#p034bb18df1)" d="M 668.047206 493.286013 
L 668.047206 29.118125 
" style="fill:none;stroke:#cccccc;stroke-linecap:round;"/>
     </g>
     <g id="line2d_40">
      <g>
       <use style="fill:#262626;stroke:#262626;stroke-width:1.25;" x="668.047206" xlink:href="#mfce23c0dbd" y="493.286013"/>
      </g>
     </g>
     <g id="text_20">
      <!-- 21.08.2021 -->
      <g style="fill:#262626;" transform="translate(621.894678 553.231121)rotate(-45)scale(0.11 -0.11)">
       <use xlink:href="#DejaVuSans-32"/>
       <use x="63.623047" xlink:href="#DejaVuSans-31"/>
       <use x="127.246094" xlink:href="#DejaVuSans-2e"/>
       <use x="159.033203" xlink:href="#DejaVuSans-30"/>
       <use x="222.65625" xlink:href="#DejaVuSans-38"/>
       <use x="286.279297" xlink:href="#DejaVuSans-2e"/>
       <use x="318.066406" xlink:href="#DejaVuSans-32"/>
       <use x="381.689453" xlink:href="#DejaVuSans-30"/>
       <use x="445.3125" xlink:href="#DejaVuSans-32"/>
       <use x="508.935547" xlink:href="#DejaVuSans-31"/>
      </g>
     </g>
    </g>
    <g id="xtick_21">
     <g id="line2d_41">
      <path clip-path="url(#p034bb18df1)" d="M 697.926185 493.286013 
L 697.926185 29.118125 
" style="fill:none;stroke:#cccccc;stroke-linecap:round;"/>
     </g>
     <g id="line2d_42">
      <g>
       <use style="fill:#262626;stroke:#262626;stroke-width:1.25;" x="697.926185" xlink:href="#mfce23c0dbd" y="493.286013"/>
      </g>
     </g>
     <g id="text_21">
      <!-- 18.09.2021 -->
      <g style="fill:#262626;" transform="translate(651.773656 553.231121)rotate(-45)scale(0.11 -0.11)">
       <use xlink:href="#DejaVuSans-31"/>
       <use x="63.623047" xlink:href="#DejaVuSans-38"/>
       <use x="127.246094" xlink:href="#DejaVuSans-2e"/>
       <use x="159.033203" xlink:href="#DejaVuSans-30"/>
       <use x="222.65625" xlink:href="#DejaVuSans-39"/>
       <use x="286.279297" xlink:href="#DejaVuSans-2e"/>
       <use x="318.066406" xlink:href="#DejaVuSans-32"/>
       <use x="381.689453" xlink:href="#DejaVuSans-30"/>
       <use x="445.3125" xlink:href="#DejaVuSans-32"/>
       <use x="508.935547" xlink:href="#DejaVuSans-31"/>
      </g>
     </g>
    </g>
    <g id="xtick_22">
     <g id="line2d_43">
      <path clip-path="url(#p034bb18df1)" d="M 727.805163 493.286013 
L 727.805163 29.118125 
" style="fill:none;stroke:#cccccc;stroke-linecap:round;"/>
     </g>
     <g id="line2d_44">
      <g>
       <use style="fill:#262626;stroke:#262626;stroke-width:1.25;" x="727.805163" xlink:href="#mfce23c0dbd" y="493.286013"/>
      </g>
     </g>
     <g id="text_22">
      <!-- 16.10.2021 -->
      <g style="fill:#262626;" transform="translate(681.652635 553.231121)rotate(-45)scale(0.11 -0.11)">
       <use xlink:href="#DejaVuSans-31"/>
       <use x="63.623047" xlink:href="#DejaVuSans-36"/>
       <use x="127.246094" xlink:href="#DejaVuSans-2e"/>
       <use x="159.033203" xlink:href="#DejaVuSans-31"/>
       <use x="222.65625" xlink:href="#DejaVuSans-30"/>
       <use x="286.279297" xlink:href="#DejaVuSans-2e"/>
       <use x="318.066406" xlink:href="#DejaVuSans-32"/>
       <use x="381.689453" xlink:href="#DejaVuSans-30"/>
       <use x="445.3125" xlink:href="#DejaVuSans-32"/>
       <use x="508.935547" xlink:href="#DejaVuSans-31"/>
      </g>
     </g>
    </g>
    <g id="xtick_23">
     <g id="line2d_45">
      <path clip-path="url(#p034bb18df1)" d="M 757.684142 493.286013 
L 757.684142 29.118125 
" style="fill:none;stroke:#cccccc;stroke-linecap:round;"/>
     </g>
     <g id="line2d_46">
      <g>
       <use style="fill:#262626;stroke:#262626;stroke-width:1.25;" x="757.684142" xlink:href="#mfce23c0dbd" y="493.286013"/>
      </g>
     </g>
     <g id="text_23">
      <!-- 13.11.2021 -->
      <g style="fill:#262626;" transform="translate(711.531614 553.231121)rotate(-45)scale(0.11 -0.11)">
       <use xlink:href="#DejaVuSans-31"/>
       <use x="63.623047" xlink:href="#DejaVuSans-33"/>
       <use x="127.246094" xlink:href="#DejaVuSans-2e"/>
       <use x="159.033203" xlink:href="#DejaVuSans-31"/>
       <use x="222.65625" xlink:href="#DejaVuSans-31"/>
       <use x="286.279297" xlink:href="#DejaVuSans-2e"/>
       <use x="318.066406" xlink:href="#DejaVuSans-32"/>
       <use x="381.689453" xlink:href="#DejaVuSans-30"/>
       <use x="445.3125" xlink:href="#DejaVuSans-32"/>
       <use x="508.935547" xlink:href="#DejaVuSans-31"/>
      </g>
     </g>
    </g>
    <g id="xtick_24">
     <g id="line2d_47">
      <defs>
       <path d="M 0 0 
L 0 4 
" id="me202ee17a0" style="stroke:#262626;"/>
      </defs>
      <g>
       <use style="fill:#262626;stroke:#262626;" x="70.467635" xlink:href="#me202ee17a0" y="493.286013"/>
      </g>
     </g>
    </g>
    <g id="xtick_25">
     <g id="line2d_48">
      <g>
       <use style="fill:#262626;stroke:#262626;" x="77.93738" xlink:href="#me202ee17a0" y="493.286013"/>
      </g>
     </g>
    </g>
    <g id="xtick_26">
     <g id="line2d_49">
      <g>
       <use style="fill:#262626;stroke:#262626;" x="85.407124" xlink:href="#me202ee17a0" y="493.286013"/>
      </g>
     </g>
    </g>
    <g id="xtick_27">
     <g id="line2d_50">
      <g>
       <use style="fill:#262626;stroke:#262626;" x="92.876869" xlink:href="#me202ee17a0" y="493.286013"/>
      </g>
     </g>
    </g>
    <g id="xtick_28">
     <g id="line2d_51">
      <g>
       <use style="fill:#262626;stroke:#262626;" x="107.816358" xlink:href="#me202ee17a0" y="493.286013"/>
      </g>
     </g>
    </g>
    <g id="xtick_29">
     <g id="line2d_52">
      <g>
       <use style="fill:#262626;stroke:#262626;" x="115.286103" xlink:href="#me202ee17a0" y="493.286013"/>
      </g>
     </g>
    </g>
    <g id="xtick_30">
     <g id="line2d_53">
      <g>
       <use style="fill:#262626;stroke:#262626;" x="122.755848" xlink:href="#me202ee17a0" y="493.286013"/>
      </g>
     </g>
    </g>
    <g id="xtick_31">
     <g id="line2d_54">
      <g>
       <use style="fill:#262626;stroke:#262626;" x="137.695337" xlink:href="#me202ee17a0" y="493.286013"/>
      </g>
     </g>
    </g>
    <g id="xtick_32">
     <g id="line2d_55">
      <g>
       <use style="fill:#262626;stroke:#262626;" x="145.165081" xlink:href="#me202ee17a0" y="493.286013"/>
      </g>
     </g>
    </g>
    <g id="xtick_33">
     <g id="line2d_56">
      <g>
       <use style="fill:#262626;stroke:#262626;" x="152.634826" xlink:href="#me202ee17a0" y="493.286013"/>
      </g>
     </g>
    </g>
    <g id="xtick_34">
     <g id="line2d_57">
      <g>
       <use style="fill:#262626;stroke:#262626;" x="167.574315" xlink:href="#me202ee17a0" y="493.286013"/>
      </g>
     </g>
    </g>
    <g id="xtick_35">
     <g id="line2d_58">
      <g>
       <use style="fill:#262626;stroke:#262626;" x="175.04406" xlink:href="#me202ee17a0" y="493.286013"/>
      </g>
     </g>
    </g>
    <g id="xtick_36">
     <g id="line2d_59">
      <g>
       <use style="fill:#262626;stroke:#262626;" x="182.513805" xlink:href="#me202ee17a0" y="493.286013"/>
      </g>
     </g>
    </g>
    <g id="xtick_37">
     <g id="line2d_60">
      <g>
       <use style="fill:#262626;stroke:#262626;" x="197.453294" xlink:href="#me202ee17a0" y="493.286013"/>
      </g>
     </g>
    </g>
    <g id="xtick_38">
     <g id="line2d_61">
      <g>
       <use style="fill:#262626;stroke:#262626;" x="204.923039" xlink:href="#me202ee17a0" y="493.286013"/>
      </g>
     </g>
    </g>
    <g id="xtick_39">
     <g id="line2d_62">
      <g>
       <use style="fill:#262626;stroke:#262626;" x="212.392783" xlink:href="#me202ee17a0" y="493.286013"/>
      </g>
     </g>
    </g>
    <g id="xtick_40">
     <g id="line2d_63">
      <g>
       <use style="fill:#262626;stroke:#262626;" x="227.332272" xlink:href="#me202ee17a0" y="493.286013"/>
      </g>
     </g>
    </g>
    <g id="xtick_41">
     <g id="line2d_64">
      <g>
       <use style="fill:#262626;stroke:#262626;" x="234.802017" xlink:href="#me202ee17a0" y="493.286013"/>
      </g>
     </g>
    </g>
    <g id="xtick_42">
     <g id="line2d_65">
      <g>
       <use style="fill:#262626;stroke:#262626;" x="242.271762" xlink:href="#me202ee17a0" y="493.286013"/>
      </g>
     </g>
    </g>
    <g id="xtick_43">
     <g id="line2d_66">
      <g>
       <use style="fill:#262626;stroke:#262626;" x="257.211251" xlink:href="#me202ee17a0" y="493.286013"/>
      </g>
     </g>
    </g>
    <g id="xtick_44">
     <g id="line2d_67">
      <g>
       <use style="fill:#262626;stroke:#262626;" x="264.680996" xlink:href="#me202ee17a0" y="493.286013"/>
      </g>
     </g>
    </g>
    <g id="xtick_45">
     <g id="line2d_68">
      <g>
       <use style="fill:#262626;stroke:#262626;" x="272.15074" xlink:href="#me202ee17a0" y="493.286013"/>
      </g>
     </g>
    </g>
    <g id="xtick_46">
     <g id="line2d_69">
      <g>
       <use style="fill:#262626;stroke:#262626;" x="287.09023" xlink:href="#me202ee17a0" y="493.286013"/>
      </g>
     </g>
    </g>
    <g id="xtick_47">
     <g id="line2d_70">
      <g>
       <use style="fill:#262626;stroke:#262626;" x="294.559974" xlink:href="#me202ee17a0" y="493.286013"/>
      </g>
     </g>
    </g>
    <g id="xtick_48">
     <g id="line2d_71">
      <g>
       <use style="fill:#262626;stroke:#262626;" x="302.029719" xlink:href="#me202ee17a0" y="493.286013"/>
      </g>
     </g>
    </g>
    <g id="xtick_49">
     <g id="line2d_72">
      <g>
       <use style="fill:#262626;stroke:#262626;" x="316.969208" xlink:href="#me202ee17a0" y="493.286013"/>
      </g>
     </g>
    </g>
    <g id="xtick_50">
     <g id="line2d_73">
      <g>
       <use style="fill:#262626;stroke:#262626;" x="324.438953" xlink:href="#me202ee17a0" y="493.286013"/>
      </g>
     </g>
    </g>
    <g id="xtick_51">
     <g id="line2d_74">
      <g>
       <use style="fill:#262626;stroke:#262626;" x="331.908697" xlink:href="#me202ee17a0" y="493.286013"/>
      </g>
     </g>
    </g>
    <g id="xtick_52">
     <g id="line2d_75">
      <g>
       <use style="fill:#262626;stroke:#262626;" x="346.848187" xlink:href="#me202ee17a0" y="493.286013"/>
      </g>
     </g>
    </g>
    <g id="xtick_53">
     <g id="line2d_76">
      <g>
       <use style="fill:#262626;stroke:#262626;" x="354.317931" xlink:href="#me202ee17a0" y="493.286013"/>
      </g>
     </g>
    </g>
    <g id="xtick_54">
     <g id="line2d_77">
      <g>
       <use style="fill:#262626;stroke:#262626;" x="361.787676" xlink:href="#me202ee17a0" y="493.286013"/>
      </g>
     </g>
    </g>
    <g id="xtick_55">
     <g id="line2d_78">
      <g>
       <use style="fill:#262626;stroke:#262626;" x="376.727165" xlink:href="#me202ee17a0" y="493.286013"/>
      </g>
     </g>
    </g>
    <g id="xtick_56">
     <g id="line2d_79">
      <g>
       <use style="fill:#262626;stroke:#262626;" x="384.19691" xlink:href="#me202ee17a0" y="493.286013"/>
      </g>
     </g>
    </g>
    <g id="xtick_57">
     <g id="line2d_80">
      <g>
       <use style="fill:#262626;stroke:#262626;" x="391.666654" xlink:href="#me202ee17a0" y="493.286013"/>
      </g>
     </g>
    </g>
    <g id="xtick_58">
     <g id="line2d_81">
      <g>
       <use style="fill:#262626;stroke:#262626;" x="406.606144" xlink:href="#me202ee17a0" y="493.286013"/>
      </g>
     </g>
    </g>
    <g id="xtick_59">
     <g id="line2d_82">
      <g>
       <use style="fill:#262626;stroke:#262626;" x="414.075888" xlink:href="#me202ee17a0" y="493.286013"/>
      </g>
     </g>
    </g>
    <g id="xtick_60">
     <g id="line2d_83">
      <g>
       <use style="fill:#262626;stroke:#262626;" x="421.545633" xlink:href="#me202ee17a0" y="493.286013"/>
      </g>
     </g>
    </g>
    <g id="xtick_61">
     <g id="line2d_84">
      <g>
       <use style="fill:#262626;stroke:#262626;" x="436.485122" xlink:href="#me202ee17a0" y="493.286013"/>
      </g>
     </g>
    </g>
    <g id="xtick_62">
     <g id="line2d_85">
      <g>
       <use style="fill:#262626;stroke:#262626;" x="443.954867" xlink:href="#me202ee17a0" y="493.286013"/>
      </g>
     </g>
    </g>
    <g id="xtick_63">
     <g id="line2d_86">
      <g>
       <use style="fill:#262626;stroke:#262626;" x="451.424612" xlink:href="#me202ee17a0" y="493.286013"/>
      </g>
     </g>
    </g>
    <g id="xtick_64">
     <g id="line2d_87">
      <g>
       <use style="fill:#262626;stroke:#262626;" x="466.364101" xlink:href="#me202ee17a0" y="493.286013"/>
      </g>
     </g>
    </g>
    <g id="xtick_65">
     <g id="line2d_88">
      <g>
       <use style="fill:#262626;stroke:#262626;" x="473.833846" xlink:href="#me202ee17a0" y="493.286013"/>
      </g>
     </g>
    </g>
    <g id="xtick_66">
     <g id="line2d_89">
      <g>
       <use style="fill:#262626;stroke:#262626;" x="481.30359" xlink:href="#me202ee17a0" y="493.286013"/>
      </g>
     </g>
    </g>
    <g id="xtick_67">
     <g id="line2d_90">
      <g>
       <use style="fill:#262626;stroke:#262626;" x="496.243079" xlink:href="#me202ee17a0" y="493.286013"/>
      </g>
     </g>
    </g>
    <g id="xtick_68">
     <g id="line2d_91">
      <g>
       <use style="fill:#262626;stroke:#262626;" x="503.712824" xlink:href="#me202ee17a0" y="493.286013"/>
      </g>
     </g>
    </g>
    <g id="xtick_69">
     <g id="line2d_92">
      <g>
       <use style="fill:#262626;stroke:#262626;" x="511.182569" xlink:href="#me202ee17a0" y="493.286013"/>
      </g>
     </g>
    </g>
    <g id="xtick_70">
     <g id="line2d_93">
      <g>
       <use style="fill:#262626;stroke:#262626;" x="526.122058" xlink:href="#me202ee17a0" y="493.286013"/>
      </g>
     </g>
    </g>
    <g id="xtick_71">
     <g id="line2d_94">
      <g>
       <use style="fill:#262626;stroke:#262626;" x="533.591803" xlink:href="#me202ee17a0" y="493.286013"/>
      </g>
     </g>
    </g>
    <g id="xtick_72">
     <g id="line2d_95">
      <g>
       <use style="fill:#262626;stroke:#262626;" x="541.061547" xlink:href="#me202ee17a0" y="493.286013"/>
      </g>
     </g>
    </g>
    <g id="xtick_73">
     <g id="line2d_96">
      <g>
       <use style="fill:#262626;stroke:#262626;" x="556.001037" xlink:href="#me202ee17a0" y="493.286013"/>
      </g>
     </g>
    </g>
    <g id="xtick_74">
     <g id="line2d_97">
      <g>
       <use style="fill:#262626;stroke:#262626;" x="563.470781" xlink:href="#me202ee17a0" y="493.286013"/>
      </g>
     </g>
    </g>
    <g id="xtick_75">
     <g id="line2d_98">
      <g>
       <use style="fill:#262626;stroke:#262626;" x="570.940526" xlink:href="#me202ee17a0" y="493.286013"/>
      </g>
     </g>
    </g>
    <g id="xtick_76">
     <g id="line2d_99">
      <g>
       <use style="fill:#262626;stroke:#262626;" x="585.880015" xlink:href="#me202ee17a0" y="493.286013"/>
      </g>
     </g>
    </g>
    <g id="xtick_77">
     <g id="line2d_100">
      <g>
       <use style="fill:#262626;stroke:#262626;" x="593.34976" xlink:href="#me202ee17a0" y="493.286013"/>
      </g>
     </g>
    </g>
    <g id="xtick_78">
     <g id="line2d_101">
      <g>
       <use style="fill:#262626;stroke:#262626;" x="600.819504" xlink:href="#me202ee17a0" y="493.286013"/>
      </g>
     </g>
    </g>
    <g id="xtick_79">
     <g id="line2d_102">
      <g>
       <use style="fill:#262626;stroke:#262626;" x="615.758994" xlink:href="#me202ee17a0" y="493.286013"/>
      </g>
     </g>
    </g>
    <g id="xtick_80">
     <g id="line2d_103">
      <g>
       <use style="fill:#262626;stroke:#262626;" x="623.228738" xlink:href="#me202ee17a0" y="493.286013"/>
      </g>
     </g>
    </g>
    <g id="xtick_81">
     <g id="line2d_104">
      <g>
       <use style="fill:#262626;stroke:#262626;" x="630.698483" xlink:href="#me202ee17a0" y="493.286013"/>
      </g>
     </g>
    </g>
    <g id="xtick_82">
     <g id="line2d_105">
      <g>
       <use style="fill:#262626;stroke:#262626;" x="645.637972" xlink:href="#me202ee17a0" y="493.286013"/>
      </g>
     </g>
    </g>
    <g id="xtick_83">
     <g id="line2d_106">
      <g>
       <use style="fill:#262626;stroke:#262626;" x="653.107717" xlink:href="#me202ee17a0" y="493.286013"/>
      </g>
     </g>
    </g>
    <g id="xtick_84">
     <g id="line2d_107">
      <g>
       <use style="fill:#262626;stroke:#262626;" x="660.577461" xlink:href="#me202ee17a0" y="493.286013"/>
      </g>
     </g>
    </g>
    <g id="xtick_85">
     <g id="line2d_108">
      <g>
       <use style="fill:#262626;stroke:#262626;" x="675.516951" xlink:href="#me202ee17a0" y="493.286013"/>
      </g>
     </g>
    </g>
    <g id="xtick_86">
     <g id="line2d_109">
      <g>
       <use style="fill:#262626;stroke:#262626;" x="682.986695" xlink:href="#me202ee17a0" y="493.286013"/>
      </g>
     </g>
    </g>
    <g id="xtick_87">
     <g id="line2d_110">
      <g>
       <use style="fill:#262626;stroke:#262626;" x="690.45644" xlink:href="#me202ee17a0" y="493.286013"/>
      </g>
     </g>
    </g>
    <g id="xtick_88">
     <g id="line2d_111">
      <g>
       <use style="fill:#262626;stroke:#262626;" x="705.395929" xlink:href="#me202ee17a0" y="493.286013"/>
      </g>
     </g>
    </g>
    <g id="xtick_89">
     <g id="line2d_112">
      <g>
       <use style="fill:#262626;stroke:#262626;" x="712.865674" xlink:href="#me202ee17a0" y="493.286013"/>
      </g>
     </g>
    </g>
    <g id="xtick_90">
     <g id="line2d_113">
      <g>
       <use style="fill:#262626;stroke:#262626;" x="720.335419" xlink:href="#me202ee17a0" y="493.286013"/>
      </g>
     </g>
    </g>
    <g id="xtick_91">
     <g id="line2d_114">
      <g>
       <use style="fill:#262626;stroke:#262626;" x="735.274908" xlink:href="#me202ee17a0" y="493.286013"/>
      </g>
     </g>
    </g>
    <g id="xtick_92">
     <g id="line2d_115">
      <g>
       <use style="fill:#262626;stroke:#262626;" x="742.744652" xlink:href="#me202ee17a0" y="493.286013"/>
      </g>
     </g>
    </g>
    <g id="xtick_93">
     <g id="line2d_116">
      <g>
       <use style="fill:#262626;stroke:#262626;" x="750.214397" xlink:href="#me202ee17a0" y="493.286013"/>
      </g>
     </g>
    </g>
    <g id="xtick_94">
     <g id="line2d_117">
      <g>
       <use style="fill:#262626;stroke:#262626;" x="765.153886" xlink:href="#me202ee17a0" y="493.286013"/>
      </g>
     </g>
    </g>
    <g id="xtick_95">
     <g id="line2d_118">
      <g>
       <use style="fill:#262626;stroke:#262626;" x="772.623631" xlink:href="#me202ee17a0" y="493.286013"/>
      </g>
     </g>
    </g>
    <g id="xtick_96">
     <g id="line2d_119">
      <g>
       <use style="fill:#262626;stroke:#262626;" x="780.093376" xlink:href="#me202ee17a0" y="493.286013"/>
      </g>
     </g>
    </g>
    <g id="xtick_97">
     <g id="line2d_120">
      <g>
       <use style="fill:#262626;stroke:#262626;" x="787.56312" xlink:href="#me202ee17a0" y="493.286013"/>
      </g>
     </g>
    </g>
    <g id="xtick_98">
     <g id="line2d_121">
      <g>
       <use style="fill:#262626;stroke:#262626;" x="795.032865" xlink:href="#me202ee17a0" y="493.286013"/>
      </g>
     </g>
    </g>
    <g id="text_24">
     <!-- Date -->
     <g style="fill:#262626;" transform="translate(418.409312 567.966863)scale(0.12 -0.12)">
      <defs>
       <path d="M 1259 4147 
L 1259 519 
L 2022 519 
Q 2988 519 3436 956 
Q 3884 1394 3884 2338 
Q 3884 3275 3436 3711 
Q 2988 4147 2022 4147 
L 1259 4147 
z
M 628 4666 
L 1925 4666 
Q 3281 4666 3915 4102 
Q 4550 3538 4550 2338 
Q 4550 1131 3912 565 
Q 3275 0 1925 0 
L 628 0 
L 628 4666 
z
" id="DejaVuSans-44" transform="scale(0.015625)"/>
       <path d="M 2194 1759 
Q 1497 1759 1228 1600 
Q 959 1441 959 1056 
Q 959 750 1161 570 
Q 1363 391 1709 391 
Q 2188 391 2477 730 
Q 2766 1069 2766 1631 
L 2766 1759 
L 2194 1759 
z
M 3341 1997 
L 3341 0 
L 2766 0 
L 2766 531 
Q 2569 213 2275 61 
Q 1981 -91 1556 -91 
Q 1019 -91 701 211 
Q 384 513 384 1019 
Q 384 1609 779 1909 
Q 1175 2209 1959 2209 
L 2766 2209 
L 2766 2266 
Q 2766 2663 2505 2880 
Q 2244 3097 1772 3097 
Q 1472 3097 1187 3025 
Q 903 2953 641 2809 
L 641 3341 
Q 956 3463 1253 3523 
Q 1550 3584 1831 3584 
Q 2591 3584 2966 3190 
Q 3341 2797 3341 1997 
z
" id="DejaVuSans-61" transform="scale(0.015625)"/>
       <path d="M 1172 4494 
L 1172 3500 
L 2356 3500 
L 2356 3053 
L 1172 3053 
L 1172 1153 
Q 1172 725 1289 603 
Q 1406 481 1766 481 
L 2356 481 
L 2356 0 
L 1766 0 
Q 1100 0 847 248 
Q 594 497 594 1153 
L 594 3053 
L 172 3053 
L 172 3500 
L 594 3500 
L 594 4494 
L 1172 4494 
z
" id="DejaVuSans-74" transform="scale(0.015625)"/>
       <path d="M 3597 1894 
L 3597 1613 
L 953 1613 
Q 991 1019 1311 708 
Q 1631 397 2203 397 
Q 2534 397 2845 478 
Q 3156 559 3463 722 
L 3463 178 
Q 3153 47 2828 -22 
Q 2503 -91 2169 -91 
Q 1331 -91 842 396 
Q 353 884 353 1716 
Q 353 2575 817 3079 
Q 1281 3584 2069 3584 
Q 2775 3584 3186 3129 
Q 3597 2675 3597 1894 
z
M 3022 2063 
Q 3016 2534 2758 2815 
Q 2500 3097 2075 3097 
Q 1594 3097 1305 2825 
Q 1016 2553 972 2059 
L 3022 2063 
z
" id="DejaVuSans-65" transform="scale(0.015625)"/>
      </defs>
      <use xlink:href="#DejaVuSans-44"/>
      <use x="77.001953" xlink:href="#DejaVuSans-61"/>
      <use x="138.28125" xlink:href="#DejaVuSans-74"/>
      <use x="177.490234" xlink:href="#DejaVuSans-65"/>
     </g>
    </g>
   </g>
   <g id="matplotlib.axis_2">
    <g id="ytick_1">
     <g id="line2d_122">
      <path clip-path="url(#p034bb18df1)" d="M 67.10625 472.187472 
L 798.39425 472.187472 
" style="fill:none;stroke:#cccccc;stroke-linecap:round;"/>
     </g>
     <g id="line2d_123">
      <defs>
       <path d="M 0 0 
L -6 0 
" id="mec395339d5" style="stroke:#262626;stroke-width:1.25;"/>
      </defs>
      <g>
       <use style="fill:#262626;stroke:#262626;stroke-width:1.25;" x="67.10625" xlink:href="#mec395339d5" y="472.187472"/>
      </g>
     </g>
     <g id="text_25">
      <!-- 0 -->
      <g style="fill:#262626;" transform="translate(50.6075 476.366613)scale(0.11 -0.11)">
       <use xlink:href="#DejaVuSans-30"/>
      </g>
     </g>
    </g>
    <g id="ytick_2">
     <g id="line2d_124">
      <path clip-path="url(#p034bb18df1)" d="M 67.10625 409.446015 
L 798.39425 409.446015 
" style="fill:none;stroke:#cccccc;stroke-linecap:round;"/>
     </g>
     <g id="line2d_125">
      <g>
       <use style="fill:#262626;stroke:#262626;stroke-width:1.25;" x="67.10625" xlink:href="#mec395339d5" y="409.446015"/>
      </g>
     </g>
     <g id="text_26">
      <!-- 100000 -->
      <g style="fill:#262626;" transform="translate(15.61375 413.625156)scale(0.11 -0.11)">
       <use xlink:href="#DejaVuSans-31"/>
       <use x="63.623047" xlink:href="#DejaVuSans-30"/>
       <use x="127.246094" xlink:href="#DejaVuSans-30"/>
       <use x="190.869141" xlink:href="#DejaVuSans-30"/>
       <use x="254.492188" xlink:href="#DejaVuSans-30"/>
       <use x="318.115234" xlink:href="#DejaVuSans-30"/>
      </g>
     </g>
    </g>
    <g id="ytick_3">
     <g id="line2d_126">
      <path clip-path="url(#p034bb18df1)" d="M 67.10625 346.704558 
L 798.39425 346.704558 
" style="fill:none;stroke:#cccccc;stroke-linecap:round;"/>
     </g>
     <g id="line2d_127">
      <g>
       <use style="fill:#262626;stroke:#262626;stroke-width:1.25;" x="67.10625" xlink:href="#mec395339d5" y="346.704558"/>
      </g>
     </g>
     <g id="text_27">
      <!-- 200000 -->
      <g style="fill:#262626;" transform="translate(15.61375 350.883699)scale(0.11 -0.11)">
       <use xlink:href="#DejaVuSans-32"/>
       <use x="63.623047" xlink:href="#DejaVuSans-30"/>
       <use x="127.246094" xlink:href="#DejaVuSans-30"/>
       <use x="190.869141" xlink:href="#DejaVuSans-30"/>
       <use x="254.492188" xlink:href="#DejaVuSans-30"/>
       <use x="318.115234" xlink:href="#DejaVuSans-30"/>
      </g>
     </g>
    </g>
    <g id="ytick_4">
     <g id="line2d_128">
      <path clip-path="url(#p034bb18df1)" d="M 67.10625 283.963101 
L 798.39425 283.963101 
" style="fill:none;stroke:#cccccc;stroke-linecap:round;"/>
     </g>
     <g id="line2d_129">
      <g>
       <use style="fill:#262626;stroke:#262626;stroke-width:1.25;" x="67.10625" xlink:href="#mec395339d5" y="283.963101"/>
      </g>
     </g>
     <g id="text_28">
      <!-- 300000 -->
      <g style="fill:#262626;" transform="translate(15.61375 288.142242)scale(0.11 -0.11)">
       <use xlink:href="#DejaVuSans-33"/>
       <use x="63.623047" xlink:href="#DejaVuSans-30"/>
       <use x="127.246094" xlink:href="#DejaVuSans-30"/>
       <use x="190.869141" xlink:href="#DejaVuSans-30"/>
       <use x="254.492188" xlink:href="#DejaVuSans-30"/>
       <use x="318.115234" xlink:href="#DejaVuSans-30"/>
      </g>
     </g>
    </g>
    <g id="ytick_5">
     <g id="line2d_130">
      <path clip-path="url(#p034bb18df1)" d="M 67.10625 221.221644 
L 798.39425 221.221644 
" style="fill:none;stroke:#cccccc;stroke-linecap:round;"/>
     </g>
     <g id="line2d_131">
      <g>
       <use style="fill:#262626;stroke:#262626;stroke-width:1.25;" x="67.10625" xlink:href="#mec395339d5" y="221.221644"/>
      </g>
     </g>
     <g id="text_29">
      <!-- 400000 -->
      <g style="fill:#262626;" transform="translate(15.61375 225.400784)scale(0.11 -0.11)">
       <use xlink:href="#DejaVuSans-34"/>
       <use x="63.623047" xlink:href="#DejaVuSans-30"/>
       <use x="127.246094" xlink:href="#DejaVuSans-30"/>
       <use x="190.869141" xlink:href="#DejaVuSans-30"/>
       <use x="254.492188" xlink:href="#DejaVuSans-30"/>
       <use x="318.115234" xlink:href="#DejaVuSans-30"/>
      </g>
     </g>
    </g>
    <g id="ytick_6">
     <g id="line2d_132">
      <path clip-path="url(#p034bb18df1)" d="M 67.10625 158.480187 
L 798.39425 158.480187 
" style="fill:none;stroke:#cccccc;stroke-linecap:round;"/>
     </g>
     <g id="line2d_133">
      <g>
       <use style="fill:#262626;stroke:#262626;stroke-width:1.25;" x="67.10625" xlink:href="#mec395339d5" y="158.480187"/>
      </g>
     </g>
     <g id="text_30">
      <!-- 500000 -->
      <g style="fill:#262626;" transform="translate(15.61375 162.659327)scale(0.11 -0.11)">
       <use xlink:href="#DejaVuSans-35"/>
       <use x="63.623047" xlink:href="#DejaVuSans-30"/>
       <use x="127.246094" xlink:href="#DejaVuSans-30"/>
       <use x="190.869141" xlink:href="#DejaVuSans-30"/>
       <use x="254.492188" xlink:href="#DejaVuSans-30"/>
       <use x="318.115234" xlink:href="#DejaVuSans-30"/>
      </g>
     </g>
    </g>
    <g id="ytick_7">
     <g id="line2d_134">
      <path clip-path="url(#p034bb18df1)" d="M 67.10625 95.73873 
L 798.39425 95.73873 
" style="fill:none;stroke:#cccccc;stroke-linecap:round;"/>
     </g>
     <g id="line2d_135">
      <g>
       <use style="fill:#262626;stroke:#262626;stroke-width:1.25;" x="67.10625" xlink:href="#mec395339d5" y="95.73873"/>
      </g>
     </g>
     <g id="text_31">
      <!-- 600000 -->
      <g style="fill:#262626;" transform="translate(15.61375 99.91787)scale(0.11 -0.11)">
       <use xlink:href="#DejaVuSans-36"/>
       <use x="63.623047" xlink:href="#DejaVuSans-30"/>
       <use x="127.246094" xlink:href="#DejaVuSans-30"/>
       <use x="190.869141" xlink:href="#DejaVuSans-30"/>
       <use x="254.492188" xlink:href="#DejaVuSans-30"/>
       <use x="318.115234" xlink:href="#DejaVuSans-30"/>
      </g>
     </g>
    </g>
    <g id="ytick_8">
     <g id="line2d_136">
      <path clip-path="url(#p034bb18df1)" d="M 67.10625 32.997272 
L 798.39425 32.997272 
" style="fill:none;stroke:#cccccc;stroke-linecap:round;"/>
     </g>
     <g id="line2d_137">
      <g>
       <use style="fill:#262626;stroke:#262626;stroke-width:1.25;" x="67.10625" xlink:href="#mec395339d5" y="32.997272"/>
      </g>
     </g>
     <g id="text_32">
      <!-- 700000 -->
      <g style="fill:#262626;" transform="translate(15.61375 37.176413)scale(0.11 -0.11)">
       <use xlink:href="#DejaVuSans-37"/>
       <use x="63.623047" xlink:href="#DejaVuSans-30"/>
       <use x="127.246094" xlink:href="#DejaVuSans-30"/>
       <use x="190.869141" xlink:href="#DejaVuSans-30"/>
       <use x="254.492188" xlink:href="#DejaVuSans-30"/>
       <use x="318.115234" xlink:href="#DejaVuSans-30"/>
      </g>
     </g>
    </g>
    <g id="text_33">
     <!-- Cases -->
     <g style="fill:#262626;" transform="translate(9.118125 279.011756)rotate(-90)scale(0.12 -0.12)">
      <defs>
       <path d="M 4122 4306 
L 4122 3641 
Q 3803 3938 3442 4084 
Q 3081 4231 2675 4231 
Q 1875 4231 1450 3742 
Q 1025 3253 1025 2328 
Q 1025 1406 1450 917 
Q 1875 428 2675 428 
Q 3081 428 3442 575 
Q 3803 722 4122 1019 
L 4122 359 
Q 3791 134 3420 21 
Q 3050 -91 2638 -91 
Q 1578 -91 968 557 
Q 359 1206 359 2328 
Q 359 3453 968 4101 
Q 1578 4750 2638 4750 
Q 3056 4750 3426 4639 
Q 3797 4528 4122 4306 
z
" id="DejaVuSans-43" transform="scale(0.015625)"/>
       <path d="M 2834 3397 
L 2834 2853 
Q 2591 2978 2328 3040 
Q 2066 3103 1784 3103 
Q 1356 3103 1142 2972 
Q 928 2841 928 2578 
Q 928 2378 1081 2264 
Q 1234 2150 1697 2047 
L 1894 2003 
Q 2506 1872 2764 1633 
Q 3022 1394 3022 966 
Q 3022 478 2636 193 
Q 2250 -91 1575 -91 
Q 1294 -91 989 -36 
Q 684 19 347 128 
L 347 722 
Q 666 556 975 473 
Q 1284 391 1588 391 
Q 1994 391 2212 530 
Q 2431 669 2431 922 
Q 2431 1156 2273 1281 
Q 2116 1406 1581 1522 
L 1381 1569 
Q 847 1681 609 1914 
Q 372 2147 372 2553 
Q 372 3047 722 3315 
Q 1072 3584 1716 3584 
Q 2034 3584 2315 3537 
Q 2597 3491 2834 3397 
z
" id="DejaVuSans-73" transform="scale(0.015625)"/>
      </defs>
      <use xlink:href="#DejaVuSans-43"/>
      <use x="69.824219" xlink:href="#DejaVuSans-61"/>
      <use x="131.103516" xlink:href="#DejaVuSans-73"/>
      <use x="183.203125" xlink:href="#DejaVuSans-65"/>
      <use x="244.726562" xlink:href="#DejaVuSans-73"/>
     </g>
    </g>
   </g>
   <g id="line2d_138">
    <path clip-path="url(#p034bb18df1)" d="M 100.346614 472.184963 
L 114.218997 472.085204 
L 149.433507 471.499199 
L 154.769039 471.309719 
L 179.312486 470.724969 
L 187.849337 470.628347 
L 199.587507 470.424437 
L 216.661209 469.52598 
L 219.862528 469.28568 
L 223.063847 469.057301 
L 231.600698 468.208409 
L 234.802017 467.685773 
L 236.93623 467.537703 
L 264.680996 463.81588 
L 266.815208 463.709847 
L 271.083634 463.251207 
L 276.419166 462.889188 
L 287.09023 462.045943 
L 289.224442 461.981947 
L 294.559974 461.490054 
L 297.761293 461.325044 
L 307.365251 460.552696 
L 309.499463 460.380157 
L 312.700783 460.189423 
L 314.834995 459.907087 
L 316.969208 459.641063 
L 319.103421 459.469152 
L 324.438953 458.686766 
L 325.506059 458.643474 
L 327.640272 458.192363 
L 329.774485 457.594437 
L 331.908697 456.929377 
L 332.975804 456.877302 
L 334.04291 456.50901 
L 337.244229 454.92918 
L 338.311336 454.30302 
L 339.378442 453.924689 
L 340.445548 453.67686 
L 341.512655 453.034388 
L 343.646868 451.272608 
L 345.78108 449.27492 
L 346.848187 448.620526 
L 347.915293 448.415362 
L 348.982399 447.008071 
L 352.183719 441.977461 
L 353.250825 440.163605 
L 354.317931 439.032377 
L 355.385038 438.263794 
L 356.452144 436.741059 
L 359.653463 429.306823 
L 360.72057 426.898179 
L 361.787676 425.454498 
L 362.854782 425.030993 
L 363.921889 422.636779 
L 366.056101 417.407279 
L 367.123208 415.265285 
L 368.190314 412.622615 
L 369.257421 411.055334 
L 370.324527 410.543363 
L 371.391633 408.335491 
L 372.45874 405.306334 
L 375.660059 397.890294 
L 376.727165 396.460416 
L 377.794272 395.755829 
L 378.861378 393.781983 
L 379.928484 391.032652 
L 382.062697 386.465074 
L 383.129803 384.377666 
L 384.19691 383.253339 
L 385.264016 382.78968 
L 386.331123 381.024135 
L 388.465335 376.875043 
L 390.599548 372.549646 
L 391.666654 371.271603 
L 392.733761 370.909585 
L 393.800867 369.175411 
L 394.867974 366.678301 
L 397.002186 362.660965 
L 398.069293 360.717862 
L 399.136399 359.91038 
L 400.203506 359.598555 
L 401.270612 358.284121 
L 402.337718 356.563123 
L 405.539037 352.961764 
L 406.606144 352.333094 
L 407.67325 352.228943 
L 408.740357 351.427735 
L 410.874569 349.285742 
L 411.941676 348.801378 
L 413.008782 348.640132 
L 415.142995 348.137573 
L 416.210101 347.926134 
L 417.277208 347.023912 
L 418.344314 345.939112 
L 419.41142 345.282837 
L 422.612739 344.790316 
L 423.679846 344.144707 
L 424.746952 343.322794 
L 426.881165 342.150156 
L 427.948271 341.677713 
L 429.015378 341.430511 
L 430.082484 341.364633 
L 435.418016 339.487408 
L 437.552229 339.29291 
L 440.753548 338.291556 
L 443.954867 337.484074 
L 445.021973 337.408156 
L 448.223292 336.029727 
L 451.424612 335.023354 
L 452.491718 334.94179 
L 458.894356 331.92769 
L 459.961463 331.813501 
L 464.229888 329.109344 
L 465.296994 328.503261 
L 466.364101 328.18579 
L 467.431207 328.083521 
L 468.498314 327.413442 
L 470.632526 325.785301 
L 471.699633 325.103929 
L 472.766739 324.186022 
L 473.833846 323.842198 
L 474.900952 323.699775 
L 477.035165 321.362656 
L 480.236484 318.077513 
L 481.30359 317.400533 
L 482.370697 317.192231 
L 484.504909 314.060805 
L 485.572016 313.336769 
L 486.639122 311.957712 
L 487.706228 310.072958 
L 488.773335 309.178265 
L 489.840441 308.86644 
L 490.907548 306.987333 
L 491.974654 304.790128 
L 493.04176 303.04968 
L 495.175973 299.109516 
L 496.243079 297.842766 
L 497.310186 297.416752 
L 499.444399 291.763119 
L 502.645718 284.001373 
L 503.712824 282.407113 
L 504.77993 281.815461 
L 509.048356 270.722144 
L 510.115462 268.131549 
L 511.182569 266.539798 
L 512.249675 265.92305 
L 513.316781 263.101566 
L 514.383888 259.854069 
L 515.450994 257.214536 
L 517.585207 252.379051 
L 518.652313 251.175043 
L 519.71942 250.710756 
L 522.920739 243.545682 
L 525.054952 239.931774 
L 526.122058 239.083509 
L 527.189164 238.793644 
L 529.323377 234.987747 
L 530.390483 233.408544 
L 532.524696 230.70376 
L 533.591803 230.028662 
L 534.658909 229.766403 
L 535.726015 228.239276 
L 537.860228 225.668131 
L 539.994441 223.541823 
L 541.061547 223.041146 
L 542.128654 222.79018 
L 544.262866 220.525841 
L 546.397079 218.882642 
L 548.531292 218.181193 
L 549.598398 217.962853 
L 550.665505 217.566954 
L 551.732611 217.336693 
L 552.799717 216.31087 
L 553.866824 215.968929 
L 554.93393 215.264342 
L 556.001037 214.971967 
L 557.068143 214.82076 
L 559.202356 213.594165 
L 561.336568 212.864482 
L 562.403675 212.539481 
L 564.537888 212.317376 
L 565.604994 211.892617 
L 567.739207 211.379391 
L 569.873419 210.921379 
L 574.141845 210.47215 
L 576.276058 210.041744 
L 578.41027 209.789523 
L 579.477377 209.75627 
L 582.678696 209.294493 
L 585.880015 209.033488 
L 588.014228 208.873498 
L 591.215547 208.616885 
L 599.752398 208.068525 
L 605.08793 207.833244 
L 632.832696 206.74217 
L 638.168228 206.396465 
L 640.30244 206.239611 
L 643.503759 205.833674 
L 645.637972 205.502399 
L 646.705079 205.443422 
L 649.906398 204.637822 
L 653.107717 203.733717 
L 654.174823 203.623292 
L 658.443249 201.588587 
L 659.510355 200.931684 
L 660.577461 200.540805 
L 661.644568 200.370148 
L 664.845887 197.80214 
L 666.9801 196.083652 
L 668.047206 195.553486 
L 669.114312 195.312559 
L 671.248525 192.927129 
L 673.382738 190.835329 
L 674.449844 189.760568 
L 675.516951 189.130643 
L 676.584057 188.847679 
L 678.71827 186.248301 
L 680.852483 184.172186 
L 681.919589 183.143226 
L 682.986695 182.607414 
L 684.053802 182.301236 
L 685.120908 181.876476 
L 687.255121 179.391287 
L 689.389334 177.349052 
L 690.45644 176.778733 
L 691.523546 176.504552 
L 694.724865 172.809708 
L 696.859078 170.540977 
L 697.926185 169.944306 
L 698.993291 169.65695 
L 701.127504 166.800959 
L 702.19461 166.267656 
L 704.328823 163.921753 
L 705.395929 163.270497 
L 706.463036 162.959299 
L 708.597248 159.753838 
L 711.798568 155.811793 
L 712.865674 155.041327 
L 713.93278 154.719464 
L 717.134099 149.56588 
L 719.268312 146.562447 
L 720.335419 145.780688 
L 721.402525 145.391064 
L 724.603844 138.949398 
L 726.738057 134.794032 
L 727.805163 133.622649 
L 728.87227 132.995234 
L 732.073589 123.924074 
L 734.207801 117.874543 
L 735.274908 115.770195 
L 736.342014 114.910637 
L 737.409121 111.232105 
L 738.476227 106.955647 
L 740.61044 100.166394 
L 741.677546 96.868703 
L 742.744652 95.089355 
L 743.811759 94.175212 
L 745.945972 86.727801 
L 749.147291 77.74448 
L 750.214397 75.971406 
L 751.281503 75.183373 
L 753.415716 68.758021 
L 754.482823 66.340592 
L 756.617035 62.354628 
L 757.684142 61.34449 
L 758.751248 60.824991 
L 759.818354 58.802834 
L 760.885461 56.375367 
L 764.08678 51.129554 
L 765.153886 50.216665 
L 765.153886 50.216665 
" style="fill:none;stroke:#ffa500;stroke-linecap:round;stroke-width:1.5;"/>
   </g>
   <g id="line2d_139">
    <path clip-path="url(#p034bb18df1)" d="M 100.346614 472.187472 
L 148.366401 472.078302 
L 184.648017 471.635347 
L 194.251975 471.35803 
L 201.721719 471.143454 
L 213.45989 470.886214 
L 218.795421 470.645915 
L 224.130953 470.47965 
L 233.734911 470.111985 
L 235.869123 470.105083 
L 239.070443 469.777573 
L 245.473081 469.350931 
L 246.540187 469.274386 
L 248.6744 468.892291 
L 251.875719 468.683362 
L 257.211251 468.174529 
L 258.278357 468.159471 
L 263.613889 467.405318 
L 267.882315 467.071534 
L 271.083634 466.469216 
L 273.217847 466.424042 
L 277.486272 465.858742 
L 279.620485 465.711299 
L 281.754698 465.601502 
L 283.88891 465.442766 
L 286.023123 465.140979 
L 288.157336 465.089531 
L 293.492868 464.629636 
L 306.298144 463.879876 
L 309.499463 463.680986 
L 312.700783 463.561777 
L 336.177123 461.842033 
L 339.378442 461.576637 
L 340.445548 461.557187 
L 351.116612 460.166837 
L 352.183719 459.830542 
L 354.317931 459.610947 
L 358.586357 458.417605 
L 360.72057 457.483384 
L 361.787676 457.251868 
L 362.854782 456.873537 
L 363.921889 456.32455 
L 364.988995 456.000804 
L 367.123208 454.878987 
L 369.257421 454.114796 
L 370.324527 453.757169 
L 371.391633 453.166145 
L 372.45874 452.401326 
L 375.660059 450.61194 
L 376.727165 449.756147 
L 377.794272 449.271782 
L 379.928484 447.026893 
L 382.062697 444.032243 
L 383.129803 442.862115 
L 384.19691 442.210231 
L 385.264016 441.698889 
L 386.331123 440.462254 
L 388.465335 437.550423 
L 389.532442 436.336376 
L 390.599548 434.745253 
L 391.666654 434.120348 
L 392.733761 433.133425 
L 395.93508 426.964685 
L 397.002186 424.985819 
L 398.069293 422.294211 
L 400.203506 419.660324 
L 401.270612 418.494588 
L 403.404825 415.400179 
L 405.539037 411.565422 
L 406.606144 410.684532 
L 407.67325 409.597849 
L 408.740357 407.773328 
L 409.807463 406.252475 
L 411.941676 404.627471 
L 413.008782 403.883358 
L 414.075888 403.333742 
L 416.210101 401.613999 
L 418.344314 397.942369 
L 419.41142 397.194491 
L 420.478527 396.682521 
L 422.612739 395.385027 
L 425.814059 391.383377 
L 426.881165 390.503742 
L 427.948271 388.100117 
L 430.082484 387.324005 
L 432.216697 384.005609 
L 433.283803 382.064388 
L 434.35091 377.843143 
L 435.418016 374.291977 
L 437.552229 373.857806 
L 438.619335 369.131492 
L 439.686441 365.214543 
L 440.753548 362.328436 
L 441.820654 360.912988 
L 442.887761 360.129975 
L 445.021973 359.8376 
L 447.156186 358.628572 
L 448.223292 358.235183 
L 452.491718 354.828322 
L 453.558824 353.623686 
L 454.625931 352.675035 
L 455.693037 352.004956 
L 457.82725 351.077638 
L 459.961463 350.938979 
L 461.028569 350.434538 
L 462.095675 350.146554 
L 463.162782 349.709246 
L 468.498314 348.225411 
L 471.699633 346.935447 
L 472.766739 346.718361 
L 474.900952 346.54645 
L 475.968058 346.058948 
L 478.102271 345.446592 
L 480.236484 344.512372 
L 481.30359 343.481529 
L 482.370697 343.225544 
L 483.437803 342.544799 
L 484.504909 341.427374 
L 485.572016 341.057827 
L 486.639122 340.030122 
L 487.706228 339.227031 
L 488.773335 338.860621 
L 489.840441 338.619066 
L 490.907548 337.848601 
L 491.974654 335.71351 
L 493.04176 334.125523 
L 495.175973 331.972864 
L 496.243079 331.271414 
L 497.310186 330.905004 
L 499.444399 328.62498 
L 502.645718 325.625938 
L 504.77993 324.888726 
L 505.847037 323.470769 
L 510.115462 316.933109 
L 511.182569 316.021476 
L 512.249675 315.734747 
L 514.383888 311.762586 
L 515.450994 309.335119 
L 516.518101 307.74525 
L 517.585207 305.238102 
L 518.652313 303.052189 
L 519.71942 302.513868 
L 521.853632 298.903097 
L 522.920739 297.348991 
L 523.987845 295.269739 
L 525.054952 293.456511 
L 526.122058 292.873015 
L 527.189164 292.585032 
L 528.256271 290.641302 
L 530.390483 285.846599 
L 532.524696 281.432738 
L 533.591803 280.677331 
L 534.658909 279.773226 
L 535.726015 277.110479 
L 536.793122 275.008013 
L 537.860228 272.539136 
L 538.927334 270.536429 
L 539.994441 268.982323 
L 542.128654 268.313499 
L 543.19576 265.7411 
L 545.329973 261.733175 
L 546.397079 259.925594 
L 547.464186 259.158893 
L 548.531292 258.936161 
L 550.665505 258.133698 
L 551.732611 257.469893 
L 552.799717 255.795324 
L 553.866824 255.422639 
L 554.93393 253.928765 
L 557.068143 253.601255 
L 558.135249 251.715874 
L 559.202356 250.321759 
L 560.269462 248.106986 
L 561.336568 246.316972 
L 562.403675 245.067789 
L 563.470781 244.858233 
L 564.537888 244.765376 
L 565.604994 243.380672 
L 566.6721 241.635204 
L 567.739207 240.181485 
L 568.806313 239.068451 
L 569.873419 238.181914 
L 573.074739 237.720765 
L 574.141845 236.200539 
L 575.208951 235.452661 
L 576.276058 234.299473 
L 577.343164 233.610572 
L 579.477377 233.433014 
L 581.61159 231.407719 
L 582.678696 230.772776 
L 584.812909 230.048739 
L 586.947121 229.943334 
L 591.215547 228.383581 
L 592.282653 227.892316 
L 594.416866 227.812634 
L 595.483972 227.252353 
L 596.551079 226.88657 
L 597.618185 226.219001 
L 599.752398 225.756596 
L 601.886611 225.72899 
L 605.08793 225.067695 
L 611.490568 224.691874 
L 613.624781 224.402636 
L 614.691887 224.181786 
L 616.8261 224.119672 
L 621.094525 223.593898 
L 626.430057 223.328502 
L 627.497164 223.102005 
L 632.832696 222.876136 
L 634.966908 222.582506 
L 653.107717 221.928113 
L 654.174823 221.919956 
L 659.510355 221.272464 
L 661.644568 221.123767 
L 668.047206 220.22029 
L 669.114312 220.191429 
L 671.248525 219.516331 
L 673.382738 218.851899 
L 674.449844 218.636068 
L 676.584057 218.488626 
L 678.71827 217.604599 
L 680.852483 216.811547 
L 681.919589 216.295812 
L 682.986695 216.175348 
L 685.120908 215.541032 
L 688.322227 213.481858 
L 689.389334 212.713902 
L 690.45644 212.605359 
L 691.523546 212.339336 
L 692.590653 211.656081 
L 693.657759 211.177364 
L 694.724865 210.275769 
L 695.791972 209.043527 
L 696.859078 207.517655 
L 697.926185 207.195791 
L 701.127504 205.108383 
L 702.19461 204.741973 
L 703.261717 204.08005 
L 704.328823 203.007799 
L 706.463036 202.369718 
L 708.597248 199.592154 
L 709.664355 198.77275 
L 710.731461 197.805905 
L 711.798568 197.23684 
L 713.93278 196.687852 
L 714.999887 195.837078 
L 716.066993 194.564054 
L 718.201206 192.578286 
L 719.268312 191.368631 
L 721.402525 190.603813 
L 722.469631 189.435567 
L 723.536738 188.702119 
L 724.603844 187.550186 
L 726.738057 185.584496 
L 728.87227 184.919437 
L 729.939376 183.658961 
L 731.006482 181.937963 
L 732.073589 181.329371 
L 733.140695 180.419619 
L 734.207801 179.67927 
L 735.274908 179.484772 
L 736.342014 179.148477 
L 737.409121 177.879845 
L 740.61044 173.570135 
L 741.677546 172.578192 
L 743.811759 171.800825 
L 744.878865 169.912935 
L 747.013078 166.795312 
L 748.080184 164.471996 
L 749.147291 162.753507 
L 750.214397 162.338786 
L 751.281503 161.715764 
L 752.34861 159.522322 
L 753.415716 156.976901 
L 754.482823 154.131576 
L 755.549929 151.651406 
L 756.617035 149.764771 
L 757.684142 149.20198 
L 758.751248 148.353088 
L 760.885461 143.170644 
L 761.952567 141.069432 
L 763.019674 138.256105 
L 764.08678 136.287278 
L 765.153886 135.193695 
L 765.153886 135.193695 
" style="fill:none;stroke:#008000;stroke-linecap:round;stroke-width:1.5;"/>
   </g>
   <g id="line2d_140"/>
   <g id="line2d_141"/>
   <g id="patch_3">
    <path d="M 67.10625 493.286013 
L 67.10625 29.118125 
" style="fill:none;stroke:#262626;stroke-linecap:square;stroke-linejoin:miter;stroke-width:1.25;"/>
   </g>
   <g id="patch_4">
    <path d="M 798.39425 493.286013 
L 798.39425 29.118125 
" style="fill:none;stroke:#262626;stroke-linecap:square;stroke-linejoin:miter;stroke-width:1.25;"/>
   </g>
   <g id="patch_5">
    <path d="M 67.10625 493.286013 
L 798.39425 493.286013 
" style="fill:none;stroke:#262626;stroke-linecap:square;stroke-linejoin:miter;stroke-width:1.25;"/>
   </g>
   <g id="patch_6">
    <path d="M 67.10625 29.118125 
L 798.39425 29.118125 
" style="fill:none;stroke:#262626;stroke-linecap:square;stroke-linejoin:miter;stroke-width:1.25;"/>
   </g>
   <g id="text_34">
    <!-- Last update: 21.11.2021 -->
    <g style="fill:#262626;" transform="translate(371.251422 22.155607)scale(0.09996 -0.09996)">
     <defs>
      <path d="M 628 4666 
L 1259 4666 
L 1259 531 
L 3531 531 
L 3531 0 
L 628 0 
L 628 4666 
z
" id="DejaVuSans-4c" transform="scale(0.015625)"/>
      <path id="DejaVuSans-20" transform="scale(0.015625)"/>
      <path d="M 544 1381 
L 544 3500 
L 1119 3500 
L 1119 1403 
Q 1119 906 1312 657 
Q 1506 409 1894 409 
Q 2359 409 2629 706 
Q 2900 1003 2900 1516 
L 2900 3500 
L 3475 3500 
L 3475 0 
L 2900 0 
L 2900 538 
Q 2691 219 2414 64 
Q 2138 -91 1772 -91 
Q 1169 -91 856 284 
Q 544 659 544 1381 
z
M 1991 3584 
L 1991 3584 
z
" id="DejaVuSans-75" transform="scale(0.015625)"/>
      <path d="M 1159 525 
L 1159 -1331 
L 581 -1331 
L 581 3500 
L 1159 3500 
L 1159 2969 
Q 1341 3281 1617 3432 
Q 1894 3584 2278 3584 
Q 2916 3584 3314 3078 
Q 3713 2572 3713 1747 
Q 3713 922 3314 415 
Q 2916 -91 2278 -91 
Q 1894 -91 1617 61 
Q 1341 213 1159 525 
z
M 3116 1747 
Q 3116 2381 2855 2742 
Q 2594 3103 2138 3103 
Q 1681 3103 1420 2742 
Q 1159 2381 1159 1747 
Q 1159 1113 1420 752 
Q 1681 391 2138 391 
Q 2594 391 2855 752 
Q 3116 1113 3116 1747 
z
" id="DejaVuSans-70" transform="scale(0.015625)"/>
      <path d="M 2906 2969 
L 2906 4863 
L 3481 4863 
L 3481 0 
L 2906 0 
L 2906 525 
Q 2725 213 2448 61 
Q 2172 -91 1784 -91 
Q 1150 -91 751 415 
Q 353 922 353 1747 
Q 353 2572 751 3078 
Q 1150 3584 1784 3584 
Q 2172 3584 2448 3432 
Q 2725 3281 2906 2969 
z
M 947 1747 
Q 947 1113 1208 752 
Q 1469 391 1925 391 
Q 2381 391 2643 752 
Q 2906 1113 2906 1747 
Q 2906 2381 2643 2742 
Q 2381 3103 1925 3103 
Q 1469 3103 1208 2742 
Q 947 2381 947 1747 
z
" id="DejaVuSans-64" transform="scale(0.015625)"/>
      <path d="M 750 794 
L 1409 794 
L 1409 0 
L 750 0 
L 750 794 
z
M 750 3309 
L 1409 3309 
L 1409 2516 
L 750 2516 
L 750 3309 
z
" id="DejaVuSans-3a" transform="scale(0.015625)"/>
     </defs>
     <use xlink:href="#DejaVuSans-4c"/>
     <use x="55.712891" xlink:href="#DejaVuSans-61"/>
     <use x="116.992188" xlink:href="#DejaVuSans-73"/>
     <use x="169.091797" xlink:href="#DejaVuSans-74"/>
     <use x="208.300781" xlink:href="#DejaVuSans-20"/>
     <use x="240.087891" xlink:href="#DejaVuSans-75"/>
     <use x="303.466797" xlink:href="#DejaVuSans-70"/>
     <use x="366.943359" xlink:href="#DejaVuSans-64"/>
     <use x="430.419922" xlink:href="#DejaVuSans-61"/>
     <use x="491.699219" xlink:href="#DejaVuSans-74"/>
     <use x="530.908203" xlink:href="#DejaVuSans-65"/>
     <use x="592.431641" xlink:href="#DejaVuSans-3a"/>
     <use x="626.123047" xlink:href="#DejaVuSans-20"/>
     <use x="657.910156" xlink:href="#DejaVuSans-32"/>
     <use x="721.533203" xlink:href="#DejaVuSans-31"/>
     <use x="785.15625" xlink:href="#DejaVuSans-2e"/>
     <use x="816.943359" xlink:href="#DejaVuSans-31"/>
     <use x="880.566406" xlink:href="#DejaVuSans-31"/>
     <use x="944.189453" xlink:href="#DejaVuSans-2e"/>
     <use x="975.976562" xlink:href="#DejaVuSans-32"/>
     <use x="1039.599609" xlink:href="#DejaVuSans-30"/>
     <use x="1103.222656" xlink:href="#DejaVuSans-32"/>
     <use x="1166.845703" xlink:href="#DejaVuSans-31"/>
    </g>
   </g>
   <g id="text_35">
    <!-- Disease timeline -->
    <g style="fill:#262626;" transform="translate(376.592125 9.118125)scale(0.12 -0.12)">
     <defs>
      <path d="M 1791 3756 
L 1791 909 
L 2222 909 
Q 2959 909 3348 1275 
Q 3738 1641 3738 2338 
Q 3738 3031 3350 3393 
Q 2963 3756 2222 3756 
L 1791 3756 
z
M 588 4666 
L 1856 4666 
Q 2919 4666 3439 4514 
Q 3959 4363 4331 4000 
Q 4659 3684 4818 3271 
Q 4978 2859 4978 2338 
Q 4978 1809 4818 1395 
Q 4659 981 4331 666 
Q 3956 303 3431 151 
Q 2906 0 1856 0 
L 588 0 
L 588 4666 
z
" id="DejaVuSans-Bold-44" transform="scale(0.015625)"/>
      <path d="M 538 3500 
L 1656 3500 
L 1656 0 
L 538 0 
L 538 3500 
z
M 538 4863 
L 1656 4863 
L 1656 3950 
L 538 3950 
L 538 4863 
z
" id="DejaVuSans-Bold-69" transform="scale(0.015625)"/>
      <path d="M 3272 3391 
L 3272 2541 
Q 2913 2691 2578 2766 
Q 2244 2841 1947 2841 
Q 1628 2841 1473 2761 
Q 1319 2681 1319 2516 
Q 1319 2381 1436 2309 
Q 1553 2238 1856 2203 
L 2053 2175 
Q 2913 2066 3209 1816 
Q 3506 1566 3506 1031 
Q 3506 472 3093 190 
Q 2681 -91 1863 -91 
Q 1516 -91 1145 -36 
Q 775 19 384 128 
L 384 978 
Q 719 816 1070 734 
Q 1422 653 1784 653 
Q 2113 653 2278 743 
Q 2444 834 2444 1013 
Q 2444 1163 2330 1236 
Q 2216 1309 1875 1350 
L 1678 1375 
Q 931 1469 631 1722 
Q 331 1975 331 2491 
Q 331 3047 712 3315 
Q 1094 3584 1881 3584 
Q 2191 3584 2531 3537 
Q 2872 3491 3272 3391 
z
" id="DejaVuSans-Bold-73" transform="scale(0.015625)"/>
      <path d="M 4031 1759 
L 4031 1441 
L 1416 1441 
Q 1456 1047 1700 850 
Q 1944 653 2381 653 
Q 2734 653 3104 758 
Q 3475 863 3866 1075 
L 3866 213 
Q 3469 63 3072 -14 
Q 2675 -91 2278 -91 
Q 1328 -91 801 392 
Q 275 875 275 1747 
Q 275 2603 792 3093 
Q 1309 3584 2216 3584 
Q 3041 3584 3536 3087 
Q 4031 2591 4031 1759 
z
M 2881 2131 
Q 2881 2450 2695 2645 
Q 2509 2841 2209 2841 
Q 1884 2841 1681 2658 
Q 1478 2475 1428 2131 
L 2881 2131 
z
" id="DejaVuSans-Bold-65" transform="scale(0.015625)"/>
      <path d="M 2106 1575 
Q 1756 1575 1579 1456 
Q 1403 1338 1403 1106 
Q 1403 894 1545 773 
Q 1688 653 1941 653 
Q 2256 653 2472 879 
Q 2688 1106 2688 1447 
L 2688 1575 
L 2106 1575 
z
M 3816 1997 
L 3816 0 
L 2688 0 
L 2688 519 
Q 2463 200 2181 54 
Q 1900 -91 1497 -91 
Q 953 -91 614 226 
Q 275 544 275 1050 
Q 275 1666 698 1953 
Q 1122 2241 2028 2241 
L 2688 2241 
L 2688 2328 
Q 2688 2594 2478 2717 
Q 2269 2841 1825 2841 
Q 1466 2841 1156 2769 
Q 847 2697 581 2553 
L 581 3406 
Q 941 3494 1303 3539 
Q 1666 3584 2028 3584 
Q 2975 3584 3395 3211 
Q 3816 2838 3816 1997 
z
" id="DejaVuSans-Bold-61" transform="scale(0.015625)"/>
      <path id="DejaVuSans-Bold-20" transform="scale(0.015625)"/>
      <path d="M 1759 4494 
L 1759 3500 
L 2913 3500 
L 2913 2700 
L 1759 2700 
L 1759 1216 
Q 1759 972 1856 886 
Q 1953 800 2241 800 
L 2816 800 
L 2816 0 
L 1856 0 
Q 1194 0 917 276 
Q 641 553 641 1216 
L 641 2700 
L 84 2700 
L 84 3500 
L 641 3500 
L 641 4494 
L 1759 4494 
z
" id="DejaVuSans-Bold-74" transform="scale(0.015625)"/>
      <path d="M 3781 2919 
Q 3994 3244 4286 3414 
Q 4578 3584 4928 3584 
Q 5531 3584 5847 3212 
Q 6163 2841 6163 2131 
L 6163 0 
L 5038 0 
L 5038 1825 
Q 5041 1866 5042 1909 
Q 5044 1953 5044 2034 
Q 5044 2406 4934 2573 
Q 4825 2741 4581 2741 
Q 4263 2741 4089 2478 
Q 3916 2216 3909 1719 
L 3909 0 
L 2784 0 
L 2784 1825 
Q 2784 2406 2684 2573 
Q 2584 2741 2328 2741 
Q 2006 2741 1831 2477 
Q 1656 2213 1656 1722 
L 1656 0 
L 531 0 
L 531 3500 
L 1656 3500 
L 1656 2988 
Q 1863 3284 2130 3434 
Q 2397 3584 2719 3584 
Q 3081 3584 3359 3409 
Q 3638 3234 3781 2919 
z
" id="DejaVuSans-Bold-6d" transform="scale(0.015625)"/>
      <path d="M 538 4863 
L 1656 4863 
L 1656 0 
L 538 0 
L 538 4863 
z
" id="DejaVuSans-Bold-6c" transform="scale(0.015625)"/>
      <path d="M 4056 2131 
L 4056 0 
L 2931 0 
L 2931 347 
L 2931 1631 
Q 2931 2084 2911 2256 
Q 2891 2428 2841 2509 
Q 2775 2619 2662 2680 
Q 2550 2741 2406 2741 
Q 2056 2741 1856 2470 
Q 1656 2200 1656 1722 
L 1656 0 
L 538 0 
L 538 3500 
L 1656 3500 
L 1656 2988 
Q 1909 3294 2193 3439 
Q 2478 3584 2822 3584 
Q 3428 3584 3742 3212 
Q 4056 2841 4056 2131 
z
" id="DejaVuSans-Bold-6e" transform="scale(0.015625)"/>
     </defs>
     <use xlink:href="#DejaVuSans-Bold-44"/>
     <use x="83.007812" xlink:href="#DejaVuSans-Bold-69"/>
     <use x="117.285156" xlink:href="#DejaVuSans-Bold-73"/>
     <use x="176.806641" xlink:href="#DejaVuSans-Bold-65"/>
     <use x="244.628906" xlink:href="#DejaVuSans-Bold-61"/>
     <use x="312.109375" xlink:href="#DejaVuSans-Bold-73"/>
     <use x="371.630859" xlink:href="#DejaVuSans-Bold-65"/>
     <use x="439.453125" xlink:href="#DejaVuSans-Bold-20"/>
     <use x="474.267578" xlink:href="#DejaVuSans-Bold-74"/>
     <use x="522.070312" xlink:href="#DejaVuSans-Bold-69"/>
     <use x="556.347656" xlink:href="#DejaVuSans-Bold-6d"/>
     <use x="660.546875" xlink:href="#DejaVuSans-Bold-65"/>
     <use x="728.369141" xlink:href="#DejaVuSans-Bold-6c"/>
     <use x="762.646484" xlink:href="#DejaVuSans-Bold-69"/>
     <use x="796.923828" xlink:href="#DejaVuSans-Bold-6e"/>
     <use x="868.115234" xlink:href="#DejaVuSans-Bold-65"/>
    </g>
   </g>
  </g>
  <g id="axes_2">
   <g id="matplotlib.axis_3">
    <g id="ytick_9">
     <g id="line2d_142">
      <defs>
       <path d="M 0 0 
L 6 0 
" id="m5ac65aa6fe" style="stroke:#262626;stroke-width:1.25;"/>
      </defs>
      <g>
       <use style="fill:#262626;stroke:#262626;stroke-width:1.25;" x="798.39425" xlink:href="#m5ac65aa6fe" y="472.187472"/>
      </g>
     </g>
     <g id="text_36">
      <!-- 0 -->
      <g style="fill:#262626;" transform="translate(807.89425 476.366613)scale(0.11 -0.11)">
       <use xlink:href="#DejaVuSans-30"/>
      </g>
     </g>
    </g>
    <g id="ytick_10">
     <g id="line2d_143">
      <g>
       <use style="fill:#262626;stroke:#262626;stroke-width:1.25;" x="798.39425" xlink:href="#m5ac65aa6fe" y="394.562232"/>
      </g>
     </g>
     <g id="text_37">
      <!-- 5000 -->
      <g style="fill:#262626;" transform="translate(807.89425 398.741372)scale(0.11 -0.11)">
       <use xlink:href="#DejaVuSans-35"/>
       <use x="63.623047" xlink:href="#DejaVuSans-30"/>
       <use x="127.246094" xlink:href="#DejaVuSans-30"/>
       <use x="190.869141" xlink:href="#DejaVuSans-30"/>
      </g>
     </g>
    </g>
    <g id="ytick_11">
     <g id="line2d_144">
      <g>
       <use style="fill:#262626;stroke:#262626;stroke-width:1.25;" x="798.39425" xlink:href="#m5ac65aa6fe" y="316.936991"/>
      </g>
     </g>
     <g id="text_38">
      <!-- 10000 -->
      <g style="fill:#262626;" transform="translate(807.89425 321.116132)scale(0.11 -0.11)">
       <use xlink:href="#DejaVuSans-31"/>
       <use x="63.623047" xlink:href="#DejaVuSans-30"/>
       <use x="127.246094" xlink:href="#DejaVuSans-30"/>
       <use x="190.869141" xlink:href="#DejaVuSans-30"/>
       <use x="254.492188" xlink:href="#DejaVuSans-30"/>
      </g>
     </g>
    </g>
    <g id="ytick_12">
     <g id="line2d_145">
      <g>
       <use style="fill:#262626;stroke:#262626;stroke-width:1.25;" x="798.39425" xlink:href="#m5ac65aa6fe" y="239.311751"/>
      </g>
     </g>
     <g id="text_39">
      <!-- 15000 -->
      <g style="fill:#262626;" transform="translate(807.89425 243.490892)scale(0.11 -0.11)">
       <use xlink:href="#DejaVuSans-31"/>
       <use x="63.623047" xlink:href="#DejaVuSans-35"/>
       <use x="127.246094" xlink:href="#DejaVuSans-30"/>
       <use x="190.869141" xlink:href="#DejaVuSans-30"/>
       <use x="254.492188" xlink:href="#DejaVuSans-30"/>
      </g>
     </g>
    </g>
    <g id="ytick_13">
     <g id="line2d_146">
      <g>
       <use style="fill:#262626;stroke:#262626;stroke-width:1.25;" x="798.39425" xlink:href="#m5ac65aa6fe" y="161.686511"/>
      </g>
     </g>
     <g id="text_40">
      <!-- 20000 -->
      <g style="fill:#262626;" transform="translate(807.89425 165.865651)scale(0.11 -0.11)">
       <use xlink:href="#DejaVuSans-32"/>
       <use x="63.623047" xlink:href="#DejaVuSans-30"/>
       <use x="127.246094" xlink:href="#DejaVuSans-30"/>
       <use x="190.869141" xlink:href="#DejaVuSans-30"/>
       <use x="254.492188" xlink:href="#DejaVuSans-30"/>
      </g>
     </g>
    </g>
    <g id="ytick_14">
     <g id="line2d_147">
      <g>
       <use style="fill:#262626;stroke:#262626;stroke-width:1.25;" x="798.39425" xlink:href="#m5ac65aa6fe" y="84.06127"/>
      </g>
     </g>
     <g id="text_41">
      <!-- 25000 -->
      <g style="fill:#262626;" transform="translate(807.89425 88.240411)scale(0.11 -0.11)">
       <use xlink:href="#DejaVuSans-32"/>
       <use x="63.623047" xlink:href="#DejaVuSans-35"/>
       <use x="127.246094" xlink:href="#DejaVuSans-30"/>
       <use x="190.869141" xlink:href="#DejaVuSans-30"/>
       <use x="254.492188" xlink:href="#DejaVuSans-30"/>
      </g>
     </g>
    </g>
    <g id="text_42">
     <!-- Fatalities -->
     <g style="fill:#262626;" transform="translate(853.769875 234.422381)rotate(-270)scale(0.12 -0.12)">
      <defs>
       <path d="M 628 4666 
L 3309 4666 
L 3309 4134 
L 1259 4134 
L 1259 2759 
L 3109 2759 
L 3109 2228 
L 1259 2228 
L 1259 0 
L 628 0 
L 628 4666 
z
" id="DejaVuSans-46" transform="scale(0.015625)"/>
       <path d="M 603 4863 
L 1178 4863 
L 1178 0 
L 603 0 
L 603 4863 
z
" id="DejaVuSans-6c" transform="scale(0.015625)"/>
       <path d="M 603 3500 
L 1178 3500 
L 1178 0 
L 603 0 
L 603 3500 
z
M 603 4863 
L 1178 4863 
L 1178 4134 
L 603 4134 
L 603 4863 
z
" id="DejaVuSans-69" transform="scale(0.015625)"/>
      </defs>
      <use xlink:href="#DejaVuSans-46"/>
      <use x="48.394531" xlink:href="#DejaVuSans-61"/>
      <use x="109.673828" xlink:href="#DejaVuSans-74"/>
      <use x="148.882812" xlink:href="#DejaVuSans-61"/>
      <use x="210.162109" xlink:href="#DejaVuSans-6c"/>
      <use x="237.945312" xlink:href="#DejaVuSans-69"/>
      <use x="265.728516" xlink:href="#DejaVuSans-74"/>
      <use x="304.9375" xlink:href="#DejaVuSans-69"/>
      <use x="332.720703" xlink:href="#DejaVuSans-65"/>
      <use x="394.244141" xlink:href="#DejaVuSans-73"/>
     </g>
    </g>
   </g>
   <g id="line2d_148">
    <path clip-path="url(#p034bb18df1)" d="M 100.346614 472.187472 
L 121.688741 472.078797 
L 137.695337 471.737246 
L 144.097975 471.550945 
L 152.634826 471.31807 
L 162.238783 470.945468 
L 166.507209 470.790218 
L 172.909847 470.603917 
L 180.379592 470.246841 
L 191.050656 470.013966 
L 197.453294 469.703465 
L 201.721719 469.594789 
L 207.057251 469.455064 
L 214.526996 468.973787 
L 220.929634 468.787487 
L 246.540187 467.203932 
L 249.741506 466.940006 
L 251.875719 466.800281 
L 261.479677 465.604852 
L 263.613889 465.325401 
L 265.748102 465.247776 
L 268.949421 464.704399 
L 272.15074 464.502573 
L 273.217847 464.455998 
L 275.352059 464.129972 
L 279.620485 463.726321 
L 280.687591 463.726321 
L 281.754698 463.44687 
L 295.627081 461.69254 
L 296.694187 461.677015 
L 298.8284 461.288889 
L 304.163932 460.869712 
L 308.432357 460.497111 
L 312.700783 460.27976 
L 314.834995 460.00031 
L 319.103421 459.658758 
L 327.640272 458.804881 
L 329.774485 458.52543 
L 331.908697 458.354654 
L 332.975804 458.339129 
L 334.04291 457.982053 
L 337.244229 457.531827 
L 340.445548 456.879775 
L 341.512655 456.538224 
L 342.579761 456.367448 
L 343.646868 455.917222 
L 345.78108 455.466996 
L 347.915293 455.20307 
L 348.982399 454.551018 
L 350.049506 454.162891 
L 352.183719 453.169288 
L 354.317931 452.330936 
L 355.385038 452.03596 
L 356.452144 451.244182 
L 358.586357 449.427752 
L 360.72057 447.719997 
L 361.787676 446.850594 
L 362.854782 446.338267 
L 363.921889 444.692612 
L 364.988995 443.450608 
L 366.056101 442.720931 
L 367.123208 441.603128 
L 368.190314 440.283498 
L 370.324527 439.11912 
L 371.391633 436.759313 
L 373.525846 432.909101 
L 375.660059 429.058889 
L 376.727165 428.406837 
L 377.794272 427.475334 
L 378.861378 424.5411 
L 383.129803 415.055295 
L 385.264016 412.974939 
L 386.331123 409.543903 
L 390.599548 399.995999 
L 391.666654 398.76952 
L 392.733761 397.713817 
L 393.800867 394.406981 
L 394.867974 392.140324 
L 397.002186 388.274587 
L 398.069293 385.837155 
L 400.203506 383.880999 
L 402.337718 378.959559 
L 403.404825 375.994274 
L 405.539037 371.33676 
L 407.67325 369.582429 
L 408.740357 367.160522 
L 409.807463 365.390667 
L 410.874569 363.853687 
L 413.008782 362.378807 
L 414.075888 361.602555 
L 415.142995 360.966028 
L 416.210101 359.615349 
L 417.277208 357.224491 
L 418.344314 355.516736 
L 419.41142 354.569708 
L 420.478527 354.135007 
L 422.612739 352.986153 
L 423.679846 350.548721 
L 425.814059 348.592564 
L 427.948271 346.776134 
L 429.015378 346.481158 
L 430.082484 346.030932 
L 431.14959 344.385276 
L 432.216697 343.655599 
L 433.283803 342.568846 
L 434.35091 341.839169 
L 435.418016 340.892141 
L 436.485122 340.628215 
L 437.552229 340.488489 
L 438.619335 339.215435 
L 439.686441 338.454708 
L 440.753548 337.880281 
L 441.820654 336.483027 
L 442.887761 335.582574 
L 445.021973 335.256548 
L 446.08908 334.325045 
L 448.223292 333.331442 
L 451.424612 332.027338 
L 452.491718 331.763412 
L 453.558824 330.257483 
L 455.693037 329.077579 
L 456.760143 328.239226 
L 457.82725 327.773475 
L 458.894356 327.63375 
L 459.961463 327.323249 
L 461.028569 325.941519 
L 462.095675 324.978966 
L 463.162782 324.280339 
L 465.296994 323.240161 
L 467.431207 322.77441 
L 468.498314 322.044732 
L 469.56542 321.547931 
L 472.766739 319.715975 
L 474.900952 319.203648 
L 475.968058 317.97717 
L 478.102271 316.53334 
L 480.236484 314.949785 
L 481.30359 314.344308 
L 482.370697 313.971707 
L 483.437803 312.155277 
L 484.504909 310.866698 
L 485.572016 310.525147 
L 486.639122 309.081317 
L 487.706228 308.072189 
L 489.840441 307.404612 
L 491.974654 302.933398 
L 495.175973 298.369034 
L 496.243079 297.779082 
L 497.310186 296.987305 
L 498.377292 294.084121 
L 499.444399 292.422941 
L 500.511505 290.311534 
L 501.578611 288.727979 
L 502.645718 286.942599 
L 503.712824 286.414747 
L 504.77993 285.591919 
L 505.847037 282.968186 
L 507.98125 279.47505 
L 510.115462 276.556341 
L 511.182569 275.795614 
L 512.249675 274.864111 
L 513.316781 271.712526 
L 514.383888 269.306144 
L 516.518101 265.502507 
L 517.585207 263.561876 
L 518.652313 262.490648 
L 519.71942 261.217594 
L 520.786526 258.159159 
L 521.853632 256.109853 
L 522.920739 254.308947 
L 525.054952 250.055084 
L 526.122058 249.387507 
L 527.189164 248.347329 
L 528.256271 245.226794 
L 530.390483 241.314482 
L 532.524696 237.759246 
L 533.591803 237.169294 
L 534.658909 236.284367 
L 535.726015 232.915431 
L 539.994441 226.488061 
L 541.061547 225.975735 
L 542.128654 225.230532 
L 543.19576 222.218673 
L 544.262866 220.961144 
L 546.397079 218.073485 
L 547.464186 217.592209 
L 549.598398 216.148379 
L 551.732611 214.331949 
L 552.799717 211.785841 
L 553.866824 211.366664 
L 554.93393 210.03151 
L 556.001037 209.78311 
L 557.068143 209.363933 
L 558.135249 207.563028 
L 559.202356 206.64705 
L 562.403675 204.489068 
L 564.537888 204.240667 
L 565.604994 202.936563 
L 568.806313 201.321958 
L 569.873419 200.902782 
L 573.074739 200.297305 
L 574.141845 199.241602 
L 575.208951 198.6827 
L 577.343164 198.139323 
L 579.477377 197.984073 
L 580.544483 197.394121 
L 582.678696 196.664444 
L 583.745802 195.965817 
L 584.812909 195.686366 
L 586.947121 195.531115 
L 588.014228 195.003264 
L 590.148441 194.723813 
L 591.215547 194.490937 
L 595.483972 194.056236 
L 596.551079 193.79231 
L 598.685292 193.047108 
L 600.819504 192.907382 
L 601.886611 192.891857 
L 605.08793 192.534781 
L 607.222143 192.332956 
L 609.356355 192.31743 
L 612.557674 191.789579 
L 613.624781 191.696429 
L 614.691887 191.448028 
L 616.8261 191.432503 
L 617.893206 190.795976 
L 625.362951 190.501 
L 627.497164 190.283649 
L 634.966908 189.833423 
L 646.705079 189.398721 
L 653.107717 188.824295 
L 654.174823 188.77772 
L 655.24193 188.420643 
L 656.309036 188.265393 
L 658.443249 187.753066 
L 660.577461 187.473615 
L 661.644568 187.39599 
L 662.711674 186.899189 
L 668.047206 185.486409 
L 669.114312 185.362209 
L 670.181419 184.477281 
L 671.248525 183.964955 
L 672.315632 183.219752 
L 673.382738 182.691901 
L 674.449844 182.024324 
L 675.516951 181.791448 
L 676.584057 181.387797 
L 677.651163 179.695566 
L 680.852483 177.196034 
L 681.919589 176.419781 
L 685.120908 174.898327 
L 686.188014 173.019796 
L 687.255121 172.010668 
L 688.322227 171.203365 
L 689.389334 170.085562 
L 690.45644 169.930311 
L 691.523546 169.107484 
L 692.590653 166.949502 
L 693.657759 165.660923 
L 695.791972 163.611617 
L 696.859078 162.385138 
L 697.926185 161.919386 
L 698.993291 161.251809 
L 700.060397 159.109353 
L 701.127504 158.2089 
L 702.19461 157.789724 
L 703.261717 156.252744 
L 704.328823 155.119415 
L 705.395929 154.715764 
L 706.463036 154.094762 
L 707.530142 151.78153 
L 709.664355 149.080172 
L 710.731461 147.993418 
L 711.798568 146.642739 
L 712.865674 146.239088 
L 713.93278 145.571511 
L 714.999887 142.808052 
L 716.066993 141.193447 
L 719.268312 137.063784 
L 720.335419 136.598033 
L 721.402525 135.977031 
L 722.469631 133.539598 
L 726.738057 127.717705 
L 728.87227 126.382551 
L 729.939376 123.060191 
L 731.006482 121.135085 
L 733.140695 117.610899 
L 734.207801 115.499493 
L 735.274908 114.59904 
L 736.342014 113.978038 
L 737.409121 110.205451 
L 738.476227 108.280345 
L 739.543333 105.889488 
L 740.61044 103.964382 
L 741.677546 101.573524 
L 742.744652 100.859372 
L 743.811759 99.601843 
L 744.878865 94.789078 
L 748.080184 87.864907 
L 749.147291 84.992773 
L 751.281503 82.912417 
L 752.34861 77.727051 
L 753.415716 75.444868 
L 755.549929 69.312474 
L 756.617035 66.595591 
L 757.684142 65.570938 
L 758.751248 64.204734 
L 759.818354 59.91982 
L 760.885461 58.04129 
L 761.952567 55.495182 
L 764.08678 51.086068 
L 765.153886 50.216665 
L 765.153886 50.216665 
" style="fill:none;stroke:#ff0000;stroke-linecap:round;stroke-width:1.5;"/>
   </g>
   <g id="patch_7">
    <path d="M 67.10625 493.286013 
L 67.10625 29.118125 
" style="fill:none;stroke:#262626;stroke-linecap:square;stroke-linejoin:miter;stroke-width:1.25;"/>
   </g>
   <g id="patch_8">
    <path d="M 798.39425 493.286013 
L 798.39425 29.118125 
" style="fill:none;stroke:#262626;stroke-linecap:square;stroke-linejoin:miter;stroke-width:1.25;"/>
   </g>
   <g id="patch_9">
    <path d="M 67.10625 493.286013 
L 798.39425 493.286013 
" style="fill:none;stroke:#262626;stroke-linecap:square;stroke-linejoin:miter;stroke-width:1.25;"/>
   </g>
   <g id="patch_10">
    <path d="M 67.10625 29.118125 
L 798.39425 29.118125 
" style="fill:none;stroke:#262626;stroke-linecap:square;stroke-linejoin:miter;stroke-width:1.25;"/>
   </g>
   <g id="legend_1">
    <g id="patch_11">
     <path d="M 74.80625 86.355937 
L 154.975625 86.355937 
Q 157.175625 86.355937 157.175625 84.155937 
L 157.175625 36.818125 
Q 157.175625 34.618125 154.975625 34.618125 
L 74.80625 34.618125 
Q 72.60625 34.618125 72.60625 36.818125 
L 72.60625 84.155937 
Q 72.60625 86.355937 74.80625 86.355937 
z
" style="fill:#ffffff;opacity:0.8;stroke:#cccccc;stroke-linejoin:miter;"/>
    </g>
    <g id="line2d_149">
     <path d="M 77.00625 43.526406 
L 99.00625 43.526406 
" style="fill:none;stroke:#ffa500;stroke-linecap:round;stroke-width:1.5;"/>
    </g>
    <g id="line2d_150"/>
    <g id="text_43">
     <!-- Infected -->
     <g style="fill:#262626;" transform="translate(107.80625 47.376406)scale(0.11 -0.11)">
      <defs>
       <path d="M 628 4666 
L 1259 4666 
L 1259 0 
L 628 0 
L 628 4666 
z
" id="DejaVuSans-49" transform="scale(0.015625)"/>
       <path d="M 3513 2113 
L 3513 0 
L 2938 0 
L 2938 2094 
Q 2938 2591 2744 2837 
Q 2550 3084 2163 3084 
Q 1697 3084 1428 2787 
Q 1159 2491 1159 1978 
L 1159 0 
L 581 0 
L 581 3500 
L 1159 3500 
L 1159 2956 
Q 1366 3272 1645 3428 
Q 1925 3584 2291 3584 
Q 2894 3584 3203 3211 
Q 3513 2838 3513 2113 
z
" id="DejaVuSans-6e" transform="scale(0.015625)"/>
       <path d="M 2375 4863 
L 2375 4384 
L 1825 4384 
Q 1516 4384 1395 4259 
Q 1275 4134 1275 3809 
L 1275 3500 
L 2222 3500 
L 2222 3053 
L 1275 3053 
L 1275 0 
L 697 0 
L 697 3053 
L 147 3053 
L 147 3500 
L 697 3500 
L 697 3744 
Q 697 4328 969 4595 
Q 1241 4863 1831 4863 
L 2375 4863 
z
" id="DejaVuSans-66" transform="scale(0.015625)"/>
       <path d="M 3122 3366 
L 3122 2828 
Q 2878 2963 2633 3030 
Q 2388 3097 2138 3097 
Q 1578 3097 1268 2742 
Q 959 2388 959 1747 
Q 959 1106 1268 751 
Q 1578 397 2138 397 
Q 2388 397 2633 464 
Q 2878 531 3122 666 
L 3122 134 
Q 2881 22 2623 -34 
Q 2366 -91 2075 -91 
Q 1284 -91 818 406 
Q 353 903 353 1747 
Q 353 2603 823 3093 
Q 1294 3584 2113 3584 
Q 2378 3584 2631 3529 
Q 2884 3475 3122 3366 
z
" id="DejaVuSans-63" transform="scale(0.015625)"/>
      </defs>
      <use xlink:href="#DejaVuSans-49"/>
      <use x="29.492188" xlink:href="#DejaVuSans-6e"/>
      <use x="92.871094" xlink:href="#DejaVuSans-66"/>
      <use x="128.076172" xlink:href="#DejaVuSans-65"/>
      <use x="189.599609" xlink:href="#DejaVuSans-63"/>
      <use x="244.580078" xlink:href="#DejaVuSans-74"/>
      <use x="283.789062" xlink:href="#DejaVuSans-65"/>
      <use x="345.3125" xlink:href="#DejaVuSans-64"/>
     </g>
    </g>
    <g id="line2d_151">
     <path d="M 77.00625 59.672344 
L 99.00625 59.672344 
" style="fill:none;stroke:#008000;stroke-linecap:round;stroke-width:1.5;"/>
    </g>
    <g id="line2d_152"/>
    <g id="text_44">
     <!-- Cured -->
     <g style="fill:#262626;" transform="translate(107.80625 63.522344)scale(0.11 -0.11)">
      <defs>
       <path d="M 2631 2963 
Q 2534 3019 2420 3045 
Q 2306 3072 2169 3072 
Q 1681 3072 1420 2755 
Q 1159 2438 1159 1844 
L 1159 0 
L 581 0 
L 581 3500 
L 1159 3500 
L 1159 2956 
Q 1341 3275 1631 3429 
Q 1922 3584 2338 3584 
Q 2397 3584 2469 3576 
Q 2541 3569 2628 3553 
L 2631 2963 
z
" id="DejaVuSans-72" transform="scale(0.015625)"/>
      </defs>
      <use xlink:href="#DejaVuSans-43"/>
      <use x="69.824219" xlink:href="#DejaVuSans-75"/>
      <use x="133.203125" xlink:href="#DejaVuSans-72"/>
      <use x="172.066406" xlink:href="#DejaVuSans-65"/>
      <use x="233.589844" xlink:href="#DejaVuSans-64"/>
     </g>
    </g>
    <g id="line2d_153">
     <path d="M 77.00625 75.818281 
L 99.00625 75.818281 
" style="fill:none;stroke:#ff0000;stroke-linecap:round;stroke-width:1.5;"/>
    </g>
    <g id="line2d_154"/>
    <g id="text_45">
     <!-- Fatal -->
     <g style="fill:#262626;" transform="translate(107.80625 79.668281)scale(0.11 -0.11)">
      <use xlink:href="#DejaVuSans-46"/>
      <use x="48.394531" xlink:href="#DejaVuSans-61"/>
      <use x="109.673828" xlink:href="#DejaVuSans-74"/>
      <use x="148.882812" xlink:href="#DejaVuSans-61"/>
      <use x="210.162109" xlink:href="#DejaVuSans-6c"/>
     </g>
    </g>
   </g>
  </g>
 </g>
 <defs>
  <clipPath id="p034bb18df1">
   <rect height="464.167888" width="731.288" x="67.10625" y="29.118125"/>
  </clipPath>
 </defs>
</svg>
