<?xml version="1.0" encoding="utf-8" standalone="no"?>
<!DOCTYPE svg PUBLIC "-//W3C//DTD SVG 1.1//EN"
  "http://www.w3.org/Graphics/SVG/1.1/DTD/svg11.dtd">
<svg height="570.462488pt" version="1.1" viewBox="0 0 862.888 570.462488" width="862.888pt" xmlns="http://www.w3.org/2000/svg" xmlns:xlink="http://www.w3.org/1999/xlink">
 <metadata>
  <rdf:RDF xmlns:cc="http://creativecommons.org/ns#" xmlns:dc="http://purl.org/dc/elements/1.1/" xmlns:rdf="http://www.w3.org/1999/02/22-rdf-syntax-ns#">
   <cc:Work>
    <dc:type rdf:resource="http://purl.org/dc/dcmitype/StillImage"/>
    <dc:date>2021-11-18T02:37:12.656729</dc:date>
    <dc:format>image/svg+xml</dc:format>
    <dc:creator>
     <cc:Agent>
      <dc:title>Matplotlib v3.4.3, https://matplotlib.org/</dc:title>
     </cc:Agent>
    </dc:creator>
   </cc:Work>
  </rdf:RDF>
 </metadata>
 <defs>
  <style type="text/css">*{stroke-linecap:butt;stroke-linejoin:round;}</style>
 </defs>
 <g id="figure_1">
  <g id="patch_1">
   <path d="M 0 570.462488 
L 862.888 570.462488 
L 862.888 0 
L 0 0 
z
" style="fill:none;"/>
  </g>
  <g id="axes_1">
   <g id="patch_2">
    <path d="M 67.10625 493.286013 
L 798.39425 493.286013 
L 798.39425 29.118125 
L 67.10625 29.118125 
z
" style="fill:none;"/>
   </g>
   <g id="matplotlib.axis_1">
    <g id="xtick_1">
     <g id="line2d_1">
      <path clip-path="url(#p3bf85d0f79)" d="M 100.346614 493.286013 
L 100.346614 29.118125 
" style="fill:none;stroke:#cccccc;stroke-linecap:round;"/>
     </g>
     <g id="line2d_2">
      <defs>
       <path d="M 0 0 
L 0 6 
" id="m173ba68d93" style="stroke:#262626;stroke-width:1.25;"/>
      </defs>
      <g>
       <use style="fill:#262626;stroke:#262626;stroke-width:1.25;" x="100.346614" xlink:href="#m173ba68d93" y="493.286013"/>
      </g>
     </g>
     <g id="text_1">
      <!-- 07.03.2020 -->
      <g style="fill:#262626;" transform="translate(54.194085 553.231121)rotate(-45)scale(0.11 -0.11)">
       <defs>
        <path d="M 2034 4250 
Q 1547 4250 1301 3770 
Q 1056 3291 1056 2328 
Q 1056 1369 1301 889 
Q 1547 409 2034 409 
Q 2525 409 2770 889 
Q 3016 1369 3016 2328 
Q 3016 3291 2770 3770 
Q 2525 4250 2034 4250 
z
M 2034 4750 
Q 2819 4750 3233 4129 
Q 3647 3509 3647 2328 
Q 3647 1150 3233 529 
Q 2819 -91 2034 -91 
Q 1250 -91 836 529 
Q 422 1150 422 2328 
Q 422 3509 836 4129 
Q 1250 4750 2034 4750 
z
" id="DejaVuSans-30" transform="scale(0.015625)"/>
        <path d="M 525 4666 
L 3525 4666 
L 3525 4397 
L 1831 0 
L 1172 0 
L 2766 4134 
L 525 4134 
L 525 4666 
z
" id="DejaVuSans-37" transform="scale(0.015625)"/>
        <path d="M 684 794 
L 1344 794 
L 1344 0 
L 684 0 
L 684 794 
z
" id="DejaVuSans-2e" transform="scale(0.015625)"/>
        <path d="M 2597 2516 
Q 3050 2419 3304 2112 
Q 3559 1806 3559 1356 
Q 3559 666 3084 287 
Q 2609 -91 1734 -91 
Q 1441 -91 1130 -33 
Q 819 25 488 141 
L 488 750 
Q 750 597 1062 519 
Q 1375 441 1716 441 
Q 2309 441 2620 675 
Q 2931 909 2931 1356 
Q 2931 1769 2642 2001 
Q 2353 2234 1838 2234 
L 1294 2234 
L 1294 2753 
L 1863 2753 
Q 2328 2753 2575 2939 
Q 2822 3125 2822 3475 
Q 2822 3834 2567 4026 
Q 2313 4219 1838 4219 
Q 1578 4219 1281 4162 
Q 984 4106 628 3988 
L 628 4550 
Q 988 4650 1302 4700 
Q 1616 4750 1894 4750 
Q 2613 4750 3031 4423 
Q 3450 4097 3450 3541 
Q 3450 3153 3228 2886 
Q 3006 2619 2597 2516 
z
" id="DejaVuSans-33" transform="scale(0.015625)"/>
        <path d="M 1228 531 
L 3431 531 
L 3431 0 
L 469 0 
L 469 531 
Q 828 903 1448 1529 
Q 2069 2156 2228 2338 
Q 2531 2678 2651 2914 
Q 2772 3150 2772 3378 
Q 2772 3750 2511 3984 
Q 2250 4219 1831 4219 
Q 1534 4219 1204 4116 
Q 875 4013 500 3803 
L 500 4441 
Q 881 4594 1212 4672 
Q 1544 4750 1819 4750 
Q 2544 4750 2975 4387 
Q 3406 4025 3406 3419 
Q 3406 3131 3298 2873 
Q 3191 2616 2906 2266 
Q 2828 2175 2409 1742 
Q 1991 1309 1228 531 
z
" id="DejaVuSans-32" transform="scale(0.015625)"/>
       </defs>
       <use xlink:href="#DejaVuSans-30"/>
       <use x="63.623047" xlink:href="#DejaVuSans-37"/>
       <use x="127.246094" xlink:href="#DejaVuSans-2e"/>
       <use x="159.033203" xlink:href="#DejaVuSans-30"/>
       <use x="222.65625" xlink:href="#DejaVuSans-33"/>
       <use x="286.279297" xlink:href="#DejaVuSans-2e"/>
       <use x="318.066406" xlink:href="#DejaVuSans-32"/>
       <use x="381.689453" xlink:href="#DejaVuSans-30"/>
       <use x="445.3125" xlink:href="#DejaVuSans-32"/>
       <use x="508.935547" xlink:href="#DejaVuSans-30"/>
      </g>
     </g>
    </g>
    <g id="xtick_2">
     <g id="line2d_3">
      <path clip-path="url(#p3bf85d0f79)" d="M 130.370168 493.286013 
L 130.370168 29.118125 
" style="fill:none;stroke:#cccccc;stroke-linecap:round;"/>
     </g>
     <g id="line2d_4">
      <g>
       <use style="fill:#262626;stroke:#262626;stroke-width:1.25;" x="130.370168" xlink:href="#m173ba68d93" y="493.286013"/>
      </g>
     </g>
     <g id="text_2">
      <!-- 04.04.2020 -->
      <g style="fill:#262626;" transform="translate(84.21764 553.231121)rotate(-45)scale(0.11 -0.11)">
       <defs>
        <path d="M 2419 4116 
L 825 1625 
L 2419 1625 
L 2419 4116 
z
M 2253 4666 
L 3047 4666 
L 3047 1625 
L 3713 1625 
L 3713 1100 
L 3047 1100 
L 3047 0 
L 2419 0 
L 2419 1100 
L 313 1100 
L 313 1709 
L 2253 4666 
z
" id="DejaVuSans-34" transform="scale(0.015625)"/>
       </defs>
       <use xlink:href="#DejaVuSans-30"/>
       <use x="63.623047" xlink:href="#DejaVuSans-34"/>
       <use x="127.246094" xlink:href="#DejaVuSans-2e"/>
       <use x="159.033203" xlink:href="#DejaVuSans-30"/>
       <use x="222.65625" xlink:href="#DejaVuSans-34"/>
       <use x="286.279297" xlink:href="#DejaVuSans-2e"/>
       <use x="318.066406" xlink:href="#DejaVuSans-32"/>
       <use x="381.689453" xlink:href="#DejaVuSans-30"/>
       <use x="445.3125" xlink:href="#DejaVuSans-32"/>
       <use x="508.935547" xlink:href="#DejaVuSans-30"/>
      </g>
     </g>
    </g>
    <g id="xtick_3">
     <g id="line2d_5">
      <path clip-path="url(#p3bf85d0f79)" d="M 160.393722 493.286013 
L 160.393722 29.118125 
" style="fill:none;stroke:#cccccc;stroke-linecap:round;"/>
     </g>
     <g id="line2d_6">
      <g>
       <use style="fill:#262626;stroke:#262626;stroke-width:1.25;" x="160.393722" xlink:href="#m173ba68d93" y="493.286013"/>
      </g>
     </g>
     <g id="text_3">
      <!-- 02.05.2020 -->
      <g style="fill:#262626;" transform="translate(114.241194 553.231121)rotate(-45)scale(0.11 -0.11)">
       <defs>
        <path d="M 691 4666 
L 3169 4666 
L 3169 4134 
L 1269 4134 
L 1269 2991 
Q 1406 3038 1543 3061 
Q 1681 3084 1819 3084 
Q 2600 3084 3056 2656 
Q 3513 2228 3513 1497 
Q 3513 744 3044 326 
Q 2575 -91 1722 -91 
Q 1428 -91 1123 -41 
Q 819 9 494 109 
L 494 744 
Q 775 591 1075 516 
Q 1375 441 1709 441 
Q 2250 441 2565 725 
Q 2881 1009 2881 1497 
Q 2881 1984 2565 2268 
Q 2250 2553 1709 2553 
Q 1456 2553 1204 2497 
Q 953 2441 691 2322 
L 691 4666 
z
" id="DejaVuSans-35" transform="scale(0.015625)"/>
       </defs>
       <use xlink:href="#DejaVuSans-30"/>
       <use x="63.623047" xlink:href="#DejaVuSans-32"/>
       <use x="127.246094" xlink:href="#DejaVuSans-2e"/>
       <use x="159.033203" xlink:href="#DejaVuSans-30"/>
       <use x="222.65625" xlink:href="#DejaVuSans-35"/>
       <use x="286.279297" xlink:href="#DejaVuSans-2e"/>
       <use x="318.066406" xlink:href="#DejaVuSans-32"/>
       <use x="381.689453" xlink:href="#DejaVuSans-30"/>
       <use x="445.3125" xlink:href="#DejaVuSans-32"/>
       <use x="508.935547" xlink:href="#DejaVuSans-30"/>
      </g>
     </g>
    </g>
    <g id="xtick_4">
     <g id="line2d_7">
      <path clip-path="url(#p3bf85d0f79)" d="M 190.417276 493.286013 
L 190.417276 29.118125 
" style="fill:none;stroke:#cccccc;stroke-linecap:round;"/>
     </g>
     <g id="line2d_8">
      <g>
       <use style="fill:#262626;stroke:#262626;stroke-width:1.25;" x="190.417276" xlink:href="#m173ba68d93" y="493.286013"/>
      </g>
     </g>
     <g id="text_4">
      <!-- 30.05.2020 -->
      <g style="fill:#262626;" transform="translate(144.264748 553.231121)rotate(-45)scale(0.11 -0.11)">
       <use xlink:href="#DejaVuSans-33"/>
       <use x="63.623047" xlink:href="#DejaVuSans-30"/>
       <use x="127.246094" xlink:href="#DejaVuSans-2e"/>
       <use x="159.033203" xlink:href="#DejaVuSans-30"/>
       <use x="222.65625" xlink:href="#DejaVuSans-35"/>
       <use x="286.279297" xlink:href="#DejaVuSans-2e"/>
       <use x="318.066406" xlink:href="#DejaVuSans-32"/>
       <use x="381.689453" xlink:href="#DejaVuSans-30"/>
       <use x="445.3125" xlink:href="#DejaVuSans-32"/>
       <use x="508.935547" xlink:href="#DejaVuSans-30"/>
      </g>
     </g>
    </g>
    <g id="xtick_5">
     <g id="line2d_9">
      <path clip-path="url(#p3bf85d0f79)" d="M 220.440831 493.286013 
L 220.440831 29.118125 
" style="fill:none;stroke:#cccccc;stroke-linecap:round;"/>
     </g>
     <g id="line2d_10">
      <g>
       <use style="fill:#262626;stroke:#262626;stroke-width:1.25;" x="220.440831" xlink:href="#m173ba68d93" y="493.286013"/>
      </g>
     </g>
     <g id="text_5">
      <!-- 27.06.2020 -->
      <g style="fill:#262626;" transform="translate(174.288302 553.231121)rotate(-45)scale(0.11 -0.11)">
       <defs>
        <path d="M 2113 2584 
Q 1688 2584 1439 2293 
Q 1191 2003 1191 1497 
Q 1191 994 1439 701 
Q 1688 409 2113 409 
Q 2538 409 2786 701 
Q 3034 994 3034 1497 
Q 3034 2003 2786 2293 
Q 2538 2584 2113 2584 
z
M 3366 4563 
L 3366 3988 
Q 3128 4100 2886 4159 
Q 2644 4219 2406 4219 
Q 1781 4219 1451 3797 
Q 1122 3375 1075 2522 
Q 1259 2794 1537 2939 
Q 1816 3084 2150 3084 
Q 2853 3084 3261 2657 
Q 3669 2231 3669 1497 
Q 3669 778 3244 343 
Q 2819 -91 2113 -91 
Q 1303 -91 875 529 
Q 447 1150 447 2328 
Q 447 3434 972 4092 
Q 1497 4750 2381 4750 
Q 2619 4750 2861 4703 
Q 3103 4656 3366 4563 
z
" id="DejaVuSans-36" transform="scale(0.015625)"/>
       </defs>
       <use xlink:href="#DejaVuSans-32"/>
       <use x="63.623047" xlink:href="#DejaVuSans-37"/>
       <use x="127.246094" xlink:href="#DejaVuSans-2e"/>
       <use x="159.033203" xlink:href="#DejaVuSans-30"/>
       <use x="222.65625" xlink:href="#DejaVuSans-36"/>
       <use x="286.279297" xlink:href="#DejaVuSans-2e"/>
       <use x="318.066406" xlink:href="#DejaVuSans-32"/>
       <use x="381.689453" xlink:href="#DejaVuSans-30"/>
       <use x="445.3125" xlink:href="#DejaVuSans-32"/>
       <use x="508.935547" xlink:href="#DejaVuSans-30"/>
      </g>
     </g>
    </g>
    <g id="xtick_6">
     <g id="line2d_11">
      <path clip-path="url(#p3bf85d0f79)" d="M 250.464385 493.286013 
L 250.464385 29.118125 
" style="fill:none;stroke:#cccccc;stroke-linecap:round;"/>
     </g>
     <g id="line2d_12">
      <g>
       <use style="fill:#262626;stroke:#262626;stroke-width:1.25;" x="250.464385" xlink:href="#m173ba68d93" y="493.286013"/>
      </g>
     </g>
     <g id="text_6">
      <!-- 25.07.2020 -->
      <g style="fill:#262626;" transform="translate(204.311857 553.231121)rotate(-45)scale(0.11 -0.11)">
       <use xlink:href="#DejaVuSans-32"/>
       <use x="63.623047" xlink:href="#DejaVuSans-35"/>
       <use x="127.246094" xlink:href="#DejaVuSans-2e"/>
       <use x="159.033203" xlink:href="#DejaVuSans-30"/>
       <use x="222.65625" xlink:href="#DejaVuSans-37"/>
       <use x="286.279297" xlink:href="#DejaVuSans-2e"/>
       <use x="318.066406" xlink:href="#DejaVuSans-32"/>
       <use x="381.689453" xlink:href="#DejaVuSans-30"/>
       <use x="445.3125" xlink:href="#DejaVuSans-32"/>
       <use x="508.935547" xlink:href="#DejaVuSans-30"/>
      </g>
     </g>
    </g>
    <g id="xtick_7">
     <g id="line2d_13">
      <path clip-path="url(#p3bf85d0f79)" d="M 280.487939 493.286013 
L 280.487939 29.118125 
" style="fill:none;stroke:#cccccc;stroke-linecap:round;"/>
     </g>
     <g id="line2d_14">
      <g>
       <use style="fill:#262626;stroke:#262626;stroke-width:1.25;" x="280.487939" xlink:href="#m173ba68d93" y="493.286013"/>
      </g>
     </g>
     <g id="text_7">
      <!-- 22.08.2020 -->
      <g style="fill:#262626;" transform="translate(234.335411 553.231121)rotate(-45)scale(0.11 -0.11)">
       <defs>
        <path d="M 2034 2216 
Q 1584 2216 1326 1975 
Q 1069 1734 1069 1313 
Q 1069 891 1326 650 
Q 1584 409 2034 409 
Q 2484 409 2743 651 
Q 3003 894 3003 1313 
Q 3003 1734 2745 1975 
Q 2488 2216 2034 2216 
z
M 1403 2484 
Q 997 2584 770 2862 
Q 544 3141 544 3541 
Q 544 4100 942 4425 
Q 1341 4750 2034 4750 
Q 2731 4750 3128 4425 
Q 3525 4100 3525 3541 
Q 3525 3141 3298 2862 
Q 3072 2584 2669 2484 
Q 3125 2378 3379 2068 
Q 3634 1759 3634 1313 
Q 3634 634 3220 271 
Q 2806 -91 2034 -91 
Q 1263 -91 848 271 
Q 434 634 434 1313 
Q 434 1759 690 2068 
Q 947 2378 1403 2484 
z
M 1172 3481 
Q 1172 3119 1398 2916 
Q 1625 2713 2034 2713 
Q 2441 2713 2670 2916 
Q 2900 3119 2900 3481 
Q 2900 3844 2670 4047 
Q 2441 4250 2034 4250 
Q 1625 4250 1398 4047 
Q 1172 3844 1172 3481 
z
" id="DejaVuSans-38" transform="scale(0.015625)"/>
       </defs>
       <use xlink:href="#DejaVuSans-32"/>
       <use x="63.623047" xlink:href="#DejaVuSans-32"/>
       <use x="127.246094" xlink:href="#DejaVuSans-2e"/>
       <use x="159.033203" xlink:href="#DejaVuSans-30"/>
       <use x="222.65625" xlink:href="#DejaVuSans-38"/>
       <use x="286.279297" xlink:href="#DejaVuSans-2e"/>
       <use x="318.066406" xlink:href="#DejaVuSans-32"/>
       <use x="381.689453" xlink:href="#DejaVuSans-30"/>
       <use x="445.3125" xlink:href="#DejaVuSans-32"/>
       <use x="508.935547" xlink:href="#DejaVuSans-30"/>
      </g>
     </g>
    </g>
    <g id="xtick_8">
     <g id="line2d_15">
      <path clip-path="url(#p3bf85d0f79)" d="M 310.511493 493.286013 
L 310.511493 29.118125 
" style="fill:none;stroke:#cccccc;stroke-linecap:round;"/>
     </g>
     <g id="line2d_16">
      <g>
       <use style="fill:#262626;stroke:#262626;stroke-width:1.25;" x="310.511493" xlink:href="#m173ba68d93" y="493.286013"/>
      </g>
     </g>
     <g id="text_8">
      <!-- 19.09.2020 -->
      <g style="fill:#262626;" transform="translate(264.358965 553.231121)rotate(-45)scale(0.11 -0.11)">
       <defs>
        <path d="M 794 531 
L 1825 531 
L 1825 4091 
L 703 3866 
L 703 4441 
L 1819 4666 
L 2450 4666 
L 2450 531 
L 3481 531 
L 3481 0 
L 794 0 
L 794 531 
z
" id="DejaVuSans-31" transform="scale(0.015625)"/>
        <path d="M 703 97 
L 703 672 
Q 941 559 1184 500 
Q 1428 441 1663 441 
Q 2288 441 2617 861 
Q 2947 1281 2994 2138 
Q 2813 1869 2534 1725 
Q 2256 1581 1919 1581 
Q 1219 1581 811 2004 
Q 403 2428 403 3163 
Q 403 3881 828 4315 
Q 1253 4750 1959 4750 
Q 2769 4750 3195 4129 
Q 3622 3509 3622 2328 
Q 3622 1225 3098 567 
Q 2575 -91 1691 -91 
Q 1453 -91 1209 -44 
Q 966 3 703 97 
z
M 1959 2075 
Q 2384 2075 2632 2365 
Q 2881 2656 2881 3163 
Q 2881 3666 2632 3958 
Q 2384 4250 1959 4250 
Q 1534 4250 1286 3958 
Q 1038 3666 1038 3163 
Q 1038 2656 1286 2365 
Q 1534 2075 1959 2075 
z
" id="DejaVuSans-39" transform="scale(0.015625)"/>
       </defs>
       <use xlink:href="#DejaVuSans-31"/>
       <use x="63.623047" xlink:href="#DejaVuSans-39"/>
       <use x="127.246094" xlink:href="#DejaVuSans-2e"/>
       <use x="159.033203" xlink:href="#DejaVuSans-30"/>
       <use x="222.65625" xlink:href="#DejaVuSans-39"/>
       <use x="286.279297" xlink:href="#DejaVuSans-2e"/>
       <use x="318.066406" xlink:href="#DejaVuSans-32"/>
       <use x="381.689453" xlink:href="#DejaVuSans-30"/>
       <use x="445.3125" xlink:href="#DejaVuSans-32"/>
       <use x="508.935547" xlink:href="#DejaVuSans-30"/>
      </g>
     </g>
    </g>
    <g id="xtick_9">
     <g id="line2d_17">
      <path clip-path="url(#p3bf85d0f79)" d="M 340.535048 493.286013 
L 340.535048 29.118125 
" style="fill:none;stroke:#cccccc;stroke-linecap:round;"/>
     </g>
     <g id="line2d_18">
      <g>
       <use style="fill:#262626;stroke:#262626;stroke-width:1.25;" x="340.535048" xlink:href="#m173ba68d93" y="493.286013"/>
      </g>
     </g>
     <g id="text_9">
      <!-- 17.10.2020 -->
      <g style="fill:#262626;" transform="translate(294.38252 553.231121)rotate(-45)scale(0.11 -0.11)">
       <use xlink:href="#DejaVuSans-31"/>
       <use x="63.623047" xlink:href="#DejaVuSans-37"/>
       <use x="127.246094" xlink:href="#DejaVuSans-2e"/>
       <use x="159.033203" xlink:href="#DejaVuSans-31"/>
       <use x="222.65625" xlink:href="#DejaVuSans-30"/>
       <use x="286.279297" xlink:href="#DejaVuSans-2e"/>
       <use x="318.066406" xlink:href="#DejaVuSans-32"/>
       <use x="381.689453" xlink:href="#DejaVuSans-30"/>
       <use x="445.3125" xlink:href="#DejaVuSans-32"/>
       <use x="508.935547" xlink:href="#DejaVuSans-30"/>
      </g>
     </g>
    </g>
    <g id="xtick_10">
     <g id="line2d_19">
      <path clip-path="url(#p3bf85d0f79)" d="M 370.558602 493.286013 
L 370.558602 29.118125 
" style="fill:none;stroke:#cccccc;stroke-linecap:round;"/>
     </g>
     <g id="line2d_20">
      <g>
       <use style="fill:#262626;stroke:#262626;stroke-width:1.25;" x="370.558602" xlink:href="#m173ba68d93" y="493.286013"/>
      </g>
     </g>
     <g id="text_10">
      <!-- 14.11.2020 -->
      <g style="fill:#262626;" transform="translate(324.406074 553.231121)rotate(-45)scale(0.11 -0.11)">
       <use xlink:href="#DejaVuSans-31"/>
       <use x="63.623047" xlink:href="#DejaVuSans-34"/>
       <use x="127.246094" xlink:href="#DejaVuSans-2e"/>
       <use x="159.033203" xlink:href="#DejaVuSans-31"/>
       <use x="222.65625" xlink:href="#DejaVuSans-31"/>
       <use x="286.279297" xlink:href="#DejaVuSans-2e"/>
       <use x="318.066406" xlink:href="#DejaVuSans-32"/>
       <use x="381.689453" xlink:href="#DejaVuSans-30"/>
       <use x="445.3125" xlink:href="#DejaVuSans-32"/>
       <use x="508.935547" xlink:href="#DejaVuSans-30"/>
      </g>
     </g>
    </g>
    <g id="xtick_11">
     <g id="line2d_21">
      <path clip-path="url(#p3bf85d0f79)" d="M 400.582156 493.286013 
L 400.582156 29.118125 
" style="fill:none;stroke:#cccccc;stroke-linecap:round;"/>
     </g>
     <g id="line2d_22">
      <g>
       <use style="fill:#262626;stroke:#262626;stroke-width:1.25;" x="400.582156" xlink:href="#m173ba68d93" y="493.286013"/>
      </g>
     </g>
     <g id="text_11">
      <!-- 12.12.2020 -->
      <g style="fill:#262626;" transform="translate(354.429628 553.231121)rotate(-45)scale(0.11 -0.11)">
       <use xlink:href="#DejaVuSans-31"/>
       <use x="63.623047" xlink:href="#DejaVuSans-32"/>
       <use x="127.246094" xlink:href="#DejaVuSans-2e"/>
       <use x="159.033203" xlink:href="#DejaVuSans-31"/>
       <use x="222.65625" xlink:href="#DejaVuSans-32"/>
       <use x="286.279297" xlink:href="#DejaVuSans-2e"/>
       <use x="318.066406" xlink:href="#DejaVuSans-32"/>
       <use x="381.689453" xlink:href="#DejaVuSans-30"/>
       <use x="445.3125" xlink:href="#DejaVuSans-32"/>
       <use x="508.935547" xlink:href="#DejaVuSans-30"/>
      </g>
     </g>
    </g>
    <g id="xtick_12">
     <g id="line2d_23">
      <path clip-path="url(#p3bf85d0f79)" d="M 430.60571 493.286013 
L 430.60571 29.118125 
" style="fill:none;stroke:#cccccc;stroke-linecap:round;"/>
     </g>
     <g id="line2d_24">
      <g>
       <use style="fill:#262626;stroke:#262626;stroke-width:1.25;" x="430.60571" xlink:href="#m173ba68d93" y="493.286013"/>
      </g>
     </g>
     <g id="text_12">
      <!-- 09.01.2021 -->
      <g style="fill:#262626;" transform="translate(384.453182 553.231121)rotate(-45)scale(0.11 -0.11)">
       <use xlink:href="#DejaVuSans-30"/>
       <use x="63.623047" xlink:href="#DejaVuSans-39"/>
       <use x="127.246094" xlink:href="#DejaVuSans-2e"/>
       <use x="159.033203" xlink:href="#DejaVuSans-30"/>
       <use x="222.65625" xlink:href="#DejaVuSans-31"/>
       <use x="286.279297" xlink:href="#DejaVuSans-2e"/>
       <use x="318.066406" xlink:href="#DejaVuSans-32"/>
       <use x="381.689453" xlink:href="#DejaVuSans-30"/>
       <use x="445.3125" xlink:href="#DejaVuSans-32"/>
       <use x="508.935547" xlink:href="#DejaVuSans-31"/>
      </g>
     </g>
    </g>
    <g id="xtick_13">
     <g id="line2d_25">
      <path clip-path="url(#p3bf85d0f79)" d="M 460.629265 493.286013 
L 460.629265 29.118125 
" style="fill:none;stroke:#cccccc;stroke-linecap:round;"/>
     </g>
     <g id="line2d_26">
      <g>
       <use style="fill:#262626;stroke:#262626;stroke-width:1.25;" x="460.629265" xlink:href="#m173ba68d93" y="493.286013"/>
      </g>
     </g>
     <g id="text_13">
      <!-- 06.02.2021 -->
      <g style="fill:#262626;" transform="translate(414.476737 553.231121)rotate(-45)scale(0.11 -0.11)">
       <use xlink:href="#DejaVuSans-30"/>
       <use x="63.623047" xlink:href="#DejaVuSans-36"/>
       <use x="127.246094" xlink:href="#DejaVuSans-2e"/>
       <use x="159.033203" xlink:href="#DejaVuSans-30"/>
       <use x="222.65625" xlink:href="#DejaVuSans-32"/>
       <use x="286.279297" xlink:href="#DejaVuSans-2e"/>
       <use x="318.066406" xlink:href="#DejaVuSans-32"/>
       <use x="381.689453" xlink:href="#DejaVuSans-30"/>
       <use x="445.3125" xlink:href="#DejaVuSans-32"/>
       <use x="508.935547" xlink:href="#DejaVuSans-31"/>
      </g>
     </g>
    </g>
    <g id="xtick_14">
     <g id="line2d_27">
      <path clip-path="url(#p3bf85d0f79)" d="M 490.652819 493.286013 
L 490.652819 29.118125 
" style="fill:none;stroke:#cccccc;stroke-linecap:round;"/>
     </g>
     <g id="line2d_28">
      <g>
       <use style="fill:#262626;stroke:#262626;stroke-width:1.25;" x="490.652819" xlink:href="#m173ba68d93" y="493.286013"/>
      </g>
     </g>
     <g id="text_14">
      <!-- 06.03.2021 -->
      <g style="fill:#262626;" transform="translate(444.500291 553.231121)rotate(-45)scale(0.11 -0.11)">
       <use xlink:href="#DejaVuSans-30"/>
       <use x="63.623047" xlink:href="#DejaVuSans-36"/>
       <use x="127.246094" xlink:href="#DejaVuSans-2e"/>
       <use x="159.033203" xlink:href="#DejaVuSans-30"/>
       <use x="222.65625" xlink:href="#DejaVuSans-33"/>
       <use x="286.279297" xlink:href="#DejaVuSans-2e"/>
       <use x="318.066406" xlink:href="#DejaVuSans-32"/>
       <use x="381.689453" xlink:href="#DejaVuSans-30"/>
       <use x="445.3125" xlink:href="#DejaVuSans-32"/>
       <use x="508.935547" xlink:href="#DejaVuSans-31"/>
      </g>
     </g>
    </g>
    <g id="xtick_15">
     <g id="line2d_29">
      <path clip-path="url(#p3bf85d0f79)" d="M 520.676373 493.286013 
L 520.676373 29.118125 
" style="fill:none;stroke:#cccccc;stroke-linecap:round;"/>
     </g>
     <g id="line2d_30">
      <g>
       <use style="fill:#262626;stroke:#262626;stroke-width:1.25;" x="520.676373" xlink:href="#m173ba68d93" y="493.286013"/>
      </g>
     </g>
     <g id="text_15">
      <!-- 03.04.2021 -->
      <g style="fill:#262626;" transform="translate(474.523845 553.231121)rotate(-45)scale(0.11 -0.11)">
       <use xlink:href="#DejaVuSans-30"/>
       <use x="63.623047" xlink:href="#DejaVuSans-33"/>
       <use x="127.246094" xlink:href="#DejaVuSans-2e"/>
       <use x="159.033203" xlink:href="#DejaVuSans-30"/>
       <use x="222.65625" xlink:href="#DejaVuSans-34"/>
       <use x="286.279297" xlink:href="#DejaVuSans-2e"/>
       <use x="318.066406" xlink:href="#DejaVuSans-32"/>
       <use x="381.689453" xlink:href="#DejaVuSans-30"/>
       <use x="445.3125" xlink:href="#DejaVuSans-32"/>
       <use x="508.935547" xlink:href="#DejaVuSans-31"/>
      </g>
     </g>
    </g>
    <g id="xtick_16">
     <g id="line2d_31">
      <path clip-path="url(#p3bf85d0f79)" d="M 550.699927 493.286013 
L 550.699927 29.118125 
" style="fill:none;stroke:#cccccc;stroke-linecap:round;"/>
     </g>
     <g id="line2d_32">
      <g>
       <use style="fill:#262626;stroke:#262626;stroke-width:1.25;" x="550.699927" xlink:href="#m173ba68d93" y="493.286013"/>
      </g>
     </g>
     <g id="text_16">
      <!-- 01.05.2021 -->
      <g style="fill:#262626;" transform="translate(504.547399 553.231121)rotate(-45)scale(0.11 -0.11)">
       <use xlink:href="#DejaVuSans-30"/>
       <use x="63.623047" xlink:href="#DejaVuSans-31"/>
       <use x="127.246094" xlink:href="#DejaVuSans-2e"/>
       <use x="159.033203" xlink:href="#DejaVuSans-30"/>
       <use x="222.65625" xlink:href="#DejaVuSans-35"/>
       <use x="286.279297" xlink:href="#DejaVuSans-2e"/>
       <use x="318.066406" xlink:href="#DejaVuSans-32"/>
       <use x="381.689453" xlink:href="#DejaVuSans-30"/>
       <use x="445.3125" xlink:href="#DejaVuSans-32"/>
       <use x="508.935547" xlink:href="#DejaVuSans-31"/>
      </g>
     </g>
    </g>
    <g id="xtick_17">
     <g id="line2d_33">
      <path clip-path="url(#p3bf85d0f79)" d="M 580.723482 493.286013 
L 580.723482 29.118125 
" style="fill:none;stroke:#cccccc;stroke-linecap:round;"/>
     </g>
     <g id="line2d_34">
      <g>
       <use style="fill:#262626;stroke:#262626;stroke-width:1.25;" x="580.723482" xlink:href="#m173ba68d93" y="493.286013"/>
      </g>
     </g>
     <g id="text_17">
      <!-- 29.05.2021 -->
      <g style="fill:#262626;" transform="translate(534.570954 553.231121)rotate(-45)scale(0.11 -0.11)">
       <use xlink:href="#DejaVuSans-32"/>
       <use x="63.623047" xlink:href="#DejaVuSans-39"/>
       <use x="127.246094" xlink:href="#DejaVuSans-2e"/>
       <use x="159.033203" xlink:href="#DejaVuSans-30"/>
       <use x="222.65625" xlink:href="#DejaVuSans-35"/>
       <use x="286.279297" xlink:href="#DejaVuSans-2e"/>
       <use x="318.066406" xlink:href="#DejaVuSans-32"/>
       <use x="381.689453" xlink:href="#DejaVuSans-30"/>
       <use x="445.3125" xlink:href="#DejaVuSans-32"/>
       <use x="508.935547" xlink:href="#DejaVuSans-31"/>
      </g>
     </g>
    </g>
    <g id="xtick_18">
     <g id="line2d_35">
      <path clip-path="url(#p3bf85d0f79)" d="M 610.747036 493.286013 
L 610.747036 29.118125 
" style="fill:none;stroke:#cccccc;stroke-linecap:round;"/>
     </g>
     <g id="line2d_36">
      <g>
       <use style="fill:#262626;stroke:#262626;stroke-width:1.25;" x="610.747036" xlink:href="#m173ba68d93" y="493.286013"/>
      </g>
     </g>
     <g id="text_18">
      <!-- 26.06.2021 -->
      <g style="fill:#262626;" transform="translate(564.594508 553.231121)rotate(-45)scale(0.11 -0.11)">
       <use xlink:href="#DejaVuSans-32"/>
       <use x="63.623047" xlink:href="#DejaVuSans-36"/>
       <use x="127.246094" xlink:href="#DejaVuSans-2e"/>
       <use x="159.033203" xlink:href="#DejaVuSans-30"/>
       <use x="222.65625" xlink:href="#DejaVuSans-36"/>
       <use x="286.279297" xlink:href="#DejaVuSans-2e"/>
       <use x="318.066406" xlink:href="#DejaVuSans-32"/>
       <use x="381.689453" xlink:href="#DejaVuSans-30"/>
       <use x="445.3125" xlink:href="#DejaVuSans-32"/>
       <use x="508.935547" xlink:href="#DejaVuSans-31"/>
      </g>
     </g>
    </g>
    <g id="xtick_19">
     <g id="line2d_37">
      <path clip-path="url(#p3bf85d0f79)" d="M 640.77059 493.286013 
L 640.77059 29.118125 
" style="fill:none;stroke:#cccccc;stroke-linecap:round;"/>
     </g>
     <g id="line2d_38">
      <g>
       <use style="fill:#262626;stroke:#262626;stroke-width:1.25;" x="640.77059" xlink:href="#m173ba68d93" y="493.286013"/>
      </g>
     </g>
     <g id="text_19">
      <!-- 24.07.2021 -->
      <g style="fill:#262626;" transform="translate(594.618062 553.231121)rotate(-45)scale(0.11 -0.11)">
       <use xlink:href="#DejaVuSans-32"/>
       <use x="63.623047" xlink:href="#DejaVuSans-34"/>
       <use x="127.246094" xlink:href="#DejaVuSans-2e"/>
       <use x="159.033203" xlink:href="#DejaVuSans-30"/>
       <use x="222.65625" xlink:href="#DejaVuSans-37"/>
       <use x="286.279297" xlink:href="#DejaVuSans-2e"/>
       <use x="318.066406" xlink:href="#DejaVuSans-32"/>
       <use x="381.689453" xlink:href="#DejaVuSans-30"/>
       <use x="445.3125" xlink:href="#DejaVuSans-32"/>
       <use x="508.935547" xlink:href="#DejaVuSans-31"/>
      </g>
     </g>
    </g>
    <g id="xtick_20">
     <g id="line2d_39">
      <path clip-path="url(#p3bf85d0f79)" d="M 670.794144 493.286013 
L 670.794144 29.118125 
" style="fill:none;stroke:#cccccc;stroke-linecap:round;"/>
     </g>
     <g id="line2d_40">
      <g>
       <use style="fill:#262626;stroke:#262626;stroke-width:1.25;" x="670.794144" xlink:href="#m173ba68d93" y="493.286013"/>
      </g>
     </g>
     <g id="text_20">
      <!-- 21.08.2021 -->
      <g style="fill:#262626;" transform="translate(624.641616 553.231121)rotate(-45)scale(0.11 -0.11)">
       <use xlink:href="#DejaVuSans-32"/>
       <use x="63.623047" xlink:href="#DejaVuSans-31"/>
       <use x="127.246094" xlink:href="#DejaVuSans-2e"/>
       <use x="159.033203" xlink:href="#DejaVuSans-30"/>
       <use x="222.65625" xlink:href="#DejaVuSans-38"/>
       <use x="286.279297" xlink:href="#DejaVuSans-2e"/>
       <use x="318.066406" xlink:href="#DejaVuSans-32"/>
       <use x="381.689453" xlink:href="#DejaVuSans-30"/>
       <use x="445.3125" xlink:href="#DejaVuSans-32"/>
       <use x="508.935547" xlink:href="#DejaVuSans-31"/>
      </g>
     </g>
    </g>
    <g id="xtick_21">
     <g id="line2d_41">
      <path clip-path="url(#p3bf85d0f79)" d="M 700.817699 493.286013 
L 700.817699 29.118125 
" style="fill:none;stroke:#cccccc;stroke-linecap:round;"/>
     </g>
     <g id="line2d_42">
      <g>
       <use style="fill:#262626;stroke:#262626;stroke-width:1.25;" x="700.817699" xlink:href="#m173ba68d93" y="493.286013"/>
      </g>
     </g>
     <g id="text_21">
      <!-- 18.09.2021 -->
      <g style="fill:#262626;" transform="translate(654.665171 553.231121)rotate(-45)scale(0.11 -0.11)">
       <use xlink:href="#DejaVuSans-31"/>
       <use x="63.623047" xlink:href="#DejaVuSans-38"/>
       <use x="127.246094" xlink:href="#DejaVuSans-2e"/>
       <use x="159.033203" xlink:href="#DejaVuSans-30"/>
       <use x="222.65625" xlink:href="#DejaVuSans-39"/>
       <use x="286.279297" xlink:href="#DejaVuSans-2e"/>
       <use x="318.066406" xlink:href="#DejaVuSans-32"/>
       <use x="381.689453" xlink:href="#DejaVuSans-30"/>
       <use x="445.3125" xlink:href="#DejaVuSans-32"/>
       <use x="508.935547" xlink:href="#DejaVuSans-31"/>
      </g>
     </g>
    </g>
    <g id="xtick_22">
     <g id="line2d_43">
      <path clip-path="url(#p3bf85d0f79)" d="M 730.841253 493.286013 
L 730.841253 29.118125 
" style="fill:none;stroke:#cccccc;stroke-linecap:round;"/>
     </g>
     <g id="line2d_44">
      <g>
       <use style="fill:#262626;stroke:#262626;stroke-width:1.25;" x="730.841253" xlink:href="#m173ba68d93" y="493.286013"/>
      </g>
     </g>
     <g id="text_22">
      <!-- 16.10.2021 -->
      <g style="fill:#262626;" transform="translate(684.688725 553.231121)rotate(-45)scale(0.11 -0.11)">
       <use xlink:href="#DejaVuSans-31"/>
       <use x="63.623047" xlink:href="#DejaVuSans-36"/>
       <use x="127.246094" xlink:href="#DejaVuSans-2e"/>
       <use x="159.033203" xlink:href="#DejaVuSans-31"/>
       <use x="222.65625" xlink:href="#DejaVuSans-30"/>
       <use x="286.279297" xlink:href="#DejaVuSans-2e"/>
       <use x="318.066406" xlink:href="#DejaVuSans-32"/>
       <use x="381.689453" xlink:href="#DejaVuSans-30"/>
       <use x="445.3125" xlink:href="#DejaVuSans-32"/>
       <use x="508.935547" xlink:href="#DejaVuSans-31"/>
      </g>
     </g>
    </g>
    <g id="xtick_23">
     <g id="line2d_45">
      <path clip-path="url(#p3bf85d0f79)" d="M 760.864807 493.286013 
L 760.864807 29.118125 
" style="fill:none;stroke:#cccccc;stroke-linecap:round;"/>
     </g>
     <g id="line2d_46">
      <g>
       <use style="fill:#262626;stroke:#262626;stroke-width:1.25;" x="760.864807" xlink:href="#m173ba68d93" y="493.286013"/>
      </g>
     </g>
     <g id="text_23">
      <!-- 13.11.2021 -->
      <g style="fill:#262626;" transform="translate(714.712279 553.231121)rotate(-45)scale(0.11 -0.11)">
       <use xlink:href="#DejaVuSans-31"/>
       <use x="63.623047" xlink:href="#DejaVuSans-33"/>
       <use x="127.246094" xlink:href="#DejaVuSans-2e"/>
       <use x="159.033203" xlink:href="#DejaVuSans-31"/>
       <use x="222.65625" xlink:href="#DejaVuSans-31"/>
       <use x="286.279297" xlink:href="#DejaVuSans-2e"/>
       <use x="318.066406" xlink:href="#DejaVuSans-32"/>
       <use x="381.689453" xlink:href="#DejaVuSans-30"/>
       <use x="445.3125" xlink:href="#DejaVuSans-32"/>
       <use x="508.935547" xlink:href="#DejaVuSans-31"/>
      </g>
     </g>
    </g>
    <g id="xtick_24">
     <g id="line2d_47">
      <defs>
       <path d="M 0 0 
L 0 4 
" id="m2e900514fa" style="stroke:#262626;"/>
      </defs>
      <g>
       <use style="fill:#262626;stroke:#262626;" x="70.323059" xlink:href="#m2e900514fa" y="493.286013"/>
      </g>
     </g>
    </g>
    <g id="xtick_25">
     <g id="line2d_48">
      <g>
       <use style="fill:#262626;stroke:#262626;" x="77.828948" xlink:href="#m2e900514fa" y="493.286013"/>
      </g>
     </g>
    </g>
    <g id="xtick_26">
     <g id="line2d_49">
      <g>
       <use style="fill:#262626;stroke:#262626;" x="85.334837" xlink:href="#m2e900514fa" y="493.286013"/>
      </g>
     </g>
    </g>
    <g id="xtick_27">
     <g id="line2d_50">
      <g>
       <use style="fill:#262626;stroke:#262626;" x="92.840725" xlink:href="#m2e900514fa" y="493.286013"/>
      </g>
     </g>
    </g>
    <g id="xtick_28">
     <g id="line2d_51">
      <g>
       <use style="fill:#262626;stroke:#262626;" x="107.852502" xlink:href="#m2e900514fa" y="493.286013"/>
      </g>
     </g>
    </g>
    <g id="xtick_29">
     <g id="line2d_52">
      <g>
       <use style="fill:#262626;stroke:#262626;" x="115.358391" xlink:href="#m2e900514fa" y="493.286013"/>
      </g>
     </g>
    </g>
    <g id="xtick_30">
     <g id="line2d_53">
      <g>
       <use style="fill:#262626;stroke:#262626;" x="122.864279" xlink:href="#m2e900514fa" y="493.286013"/>
      </g>
     </g>
    </g>
    <g id="xtick_31">
     <g id="line2d_54">
      <g>
       <use style="fill:#262626;stroke:#262626;" x="137.876056" xlink:href="#m2e900514fa" y="493.286013"/>
      </g>
     </g>
    </g>
    <g id="xtick_32">
     <g id="line2d_55">
      <g>
       <use style="fill:#262626;stroke:#262626;" x="145.381945" xlink:href="#m2e900514fa" y="493.286013"/>
      </g>
     </g>
    </g>
    <g id="xtick_33">
     <g id="line2d_56">
      <g>
       <use style="fill:#262626;stroke:#262626;" x="152.887834" xlink:href="#m2e900514fa" y="493.286013"/>
      </g>
     </g>
    </g>
    <g id="xtick_34">
     <g id="line2d_57">
      <g>
       <use style="fill:#262626;stroke:#262626;" x="167.899611" xlink:href="#m2e900514fa" y="493.286013"/>
      </g>
     </g>
    </g>
    <g id="xtick_35">
     <g id="line2d_58">
      <g>
       <use style="fill:#262626;stroke:#262626;" x="175.405499" xlink:href="#m2e900514fa" y="493.286013"/>
      </g>
     </g>
    </g>
    <g id="xtick_36">
     <g id="line2d_59">
      <g>
       <use style="fill:#262626;stroke:#262626;" x="182.911388" xlink:href="#m2e900514fa" y="493.286013"/>
      </g>
     </g>
    </g>
    <g id="xtick_37">
     <g id="line2d_60">
      <g>
       <use style="fill:#262626;stroke:#262626;" x="197.923165" xlink:href="#m2e900514fa" y="493.286013"/>
      </g>
     </g>
    </g>
    <g id="xtick_38">
     <g id="line2d_61">
      <g>
       <use style="fill:#262626;stroke:#262626;" x="205.429054" xlink:href="#m2e900514fa" y="493.286013"/>
      </g>
     </g>
    </g>
    <g id="xtick_39">
     <g id="line2d_62">
      <g>
       <use style="fill:#262626;stroke:#262626;" x="212.934942" xlink:href="#m2e900514fa" y="493.286013"/>
      </g>
     </g>
    </g>
    <g id="xtick_40">
     <g id="line2d_63">
      <g>
       <use style="fill:#262626;stroke:#262626;" x="227.946719" xlink:href="#m2e900514fa" y="493.286013"/>
      </g>
     </g>
    </g>
    <g id="xtick_41">
     <g id="line2d_64">
      <g>
       <use style="fill:#262626;stroke:#262626;" x="235.452608" xlink:href="#m2e900514fa" y="493.286013"/>
      </g>
     </g>
    </g>
    <g id="xtick_42">
     <g id="line2d_65">
      <g>
       <use style="fill:#262626;stroke:#262626;" x="242.958496" xlink:href="#m2e900514fa" y="493.286013"/>
      </g>
     </g>
    </g>
    <g id="xtick_43">
     <g id="line2d_66">
      <g>
       <use style="fill:#262626;stroke:#262626;" x="257.970273" xlink:href="#m2e900514fa" y="493.286013"/>
      </g>
     </g>
    </g>
    <g id="xtick_44">
     <g id="line2d_67">
      <g>
       <use style="fill:#262626;stroke:#262626;" x="265.476162" xlink:href="#m2e900514fa" y="493.286013"/>
      </g>
     </g>
    </g>
    <g id="xtick_45">
     <g id="line2d_68">
      <g>
       <use style="fill:#262626;stroke:#262626;" x="272.982051" xlink:href="#m2e900514fa" y="493.286013"/>
      </g>
     </g>
    </g>
    <g id="xtick_46">
     <g id="line2d_69">
      <g>
       <use style="fill:#262626;stroke:#262626;" x="287.993828" xlink:href="#m2e900514fa" y="493.286013"/>
      </g>
     </g>
    </g>
    <g id="xtick_47">
     <g id="line2d_70">
      <g>
       <use style="fill:#262626;stroke:#262626;" x="295.499716" xlink:href="#m2e900514fa" y="493.286013"/>
      </g>
     </g>
    </g>
    <g id="xtick_48">
     <g id="line2d_71">
      <g>
       <use style="fill:#262626;stroke:#262626;" x="303.005605" xlink:href="#m2e900514fa" y="493.286013"/>
      </g>
     </g>
    </g>
    <g id="xtick_49">
     <g id="line2d_72">
      <g>
       <use style="fill:#262626;stroke:#262626;" x="318.017382" xlink:href="#m2e900514fa" y="493.286013"/>
      </g>
     </g>
    </g>
    <g id="xtick_50">
     <g id="line2d_73">
      <g>
       <use style="fill:#262626;stroke:#262626;" x="325.523271" xlink:href="#m2e900514fa" y="493.286013"/>
      </g>
     </g>
    </g>
    <g id="xtick_51">
     <g id="line2d_74">
      <g>
       <use style="fill:#262626;stroke:#262626;" x="333.029159" xlink:href="#m2e900514fa" y="493.286013"/>
      </g>
     </g>
    </g>
    <g id="xtick_52">
     <g id="line2d_75">
      <g>
       <use style="fill:#262626;stroke:#262626;" x="348.040936" xlink:href="#m2e900514fa" y="493.286013"/>
      </g>
     </g>
    </g>
    <g id="xtick_53">
     <g id="line2d_76">
      <g>
       <use style="fill:#262626;stroke:#262626;" x="355.546825" xlink:href="#m2e900514fa" y="493.286013"/>
      </g>
     </g>
    </g>
    <g id="xtick_54">
     <g id="line2d_77">
      <g>
       <use style="fill:#262626;stroke:#262626;" x="363.052713" xlink:href="#m2e900514fa" y="493.286013"/>
      </g>
     </g>
    </g>
    <g id="xtick_55">
     <g id="line2d_78">
      <g>
       <use style="fill:#262626;stroke:#262626;" x="378.06449" xlink:href="#m2e900514fa" y="493.286013"/>
      </g>
     </g>
    </g>
    <g id="xtick_56">
     <g id="line2d_79">
      <g>
       <use style="fill:#262626;stroke:#262626;" x="385.570379" xlink:href="#m2e900514fa" y="493.286013"/>
      </g>
     </g>
    </g>
    <g id="xtick_57">
     <g id="line2d_80">
      <g>
       <use style="fill:#262626;stroke:#262626;" x="393.076268" xlink:href="#m2e900514fa" y="493.286013"/>
      </g>
     </g>
    </g>
    <g id="xtick_58">
     <g id="line2d_81">
      <g>
       <use style="fill:#262626;stroke:#262626;" x="408.088045" xlink:href="#m2e900514fa" y="493.286013"/>
      </g>
     </g>
    </g>
    <g id="xtick_59">
     <g id="line2d_82">
      <g>
       <use style="fill:#262626;stroke:#262626;" x="415.593933" xlink:href="#m2e900514fa" y="493.286013"/>
      </g>
     </g>
    </g>
    <g id="xtick_60">
     <g id="line2d_83">
      <g>
       <use style="fill:#262626;stroke:#262626;" x="423.099822" xlink:href="#m2e900514fa" y="493.286013"/>
      </g>
     </g>
    </g>
    <g id="xtick_61">
     <g id="line2d_84">
      <g>
       <use style="fill:#262626;stroke:#262626;" x="438.111599" xlink:href="#m2e900514fa" y="493.286013"/>
      </g>
     </g>
    </g>
    <g id="xtick_62">
     <g id="line2d_85">
      <g>
       <use style="fill:#262626;stroke:#262626;" x="445.617488" xlink:href="#m2e900514fa" y="493.286013"/>
      </g>
     </g>
    </g>
    <g id="xtick_63">
     <g id="line2d_86">
      <g>
       <use style="fill:#262626;stroke:#262626;" x="453.123376" xlink:href="#m2e900514fa" y="493.286013"/>
      </g>
     </g>
    </g>
    <g id="xtick_64">
     <g id="line2d_87">
      <g>
       <use style="fill:#262626;stroke:#262626;" x="468.135153" xlink:href="#m2e900514fa" y="493.286013"/>
      </g>
     </g>
    </g>
    <g id="xtick_65">
     <g id="line2d_88">
      <g>
       <use style="fill:#262626;stroke:#262626;" x="475.641042" xlink:href="#m2e900514fa" y="493.286013"/>
      </g>
     </g>
    </g>
    <g id="xtick_66">
     <g id="line2d_89">
      <g>
       <use style="fill:#262626;stroke:#262626;" x="483.14693" xlink:href="#m2e900514fa" y="493.286013"/>
      </g>
     </g>
    </g>
    <g id="xtick_67">
     <g id="line2d_90">
      <g>
       <use style="fill:#262626;stroke:#262626;" x="498.158707" xlink:href="#m2e900514fa" y="493.286013"/>
      </g>
     </g>
    </g>
    <g id="xtick_68">
     <g id="line2d_91">
      <g>
       <use style="fill:#262626;stroke:#262626;" x="505.664596" xlink:href="#m2e900514fa" y="493.286013"/>
      </g>
     </g>
    </g>
    <g id="xtick_69">
     <g id="line2d_92">
      <g>
       <use style="fill:#262626;stroke:#262626;" x="513.170485" xlink:href="#m2e900514fa" y="493.286013"/>
      </g>
     </g>
    </g>
    <g id="xtick_70">
     <g id="line2d_93">
      <g>
       <use style="fill:#262626;stroke:#262626;" x="528.182262" xlink:href="#m2e900514fa" y="493.286013"/>
      </g>
     </g>
    </g>
    <g id="xtick_71">
     <g id="line2d_94">
      <g>
       <use style="fill:#262626;stroke:#262626;" x="535.68815" xlink:href="#m2e900514fa" y="493.286013"/>
      </g>
     </g>
    </g>
    <g id="xtick_72">
     <g id="line2d_95">
      <g>
       <use style="fill:#262626;stroke:#262626;" x="543.194039" xlink:href="#m2e900514fa" y="493.286013"/>
      </g>
     </g>
    </g>
    <g id="xtick_73">
     <g id="line2d_96">
      <g>
       <use style="fill:#262626;stroke:#262626;" x="558.205816" xlink:href="#m2e900514fa" y="493.286013"/>
      </g>
     </g>
    </g>
    <g id="xtick_74">
     <g id="line2d_97">
      <g>
       <use style="fill:#262626;stroke:#262626;" x="565.711705" xlink:href="#m2e900514fa" y="493.286013"/>
      </g>
     </g>
    </g>
    <g id="xtick_75">
     <g id="line2d_98">
      <g>
       <use style="fill:#262626;stroke:#262626;" x="573.217593" xlink:href="#m2e900514fa" y="493.286013"/>
      </g>
     </g>
    </g>
    <g id="xtick_76">
     <g id="line2d_99">
      <g>
       <use style="fill:#262626;stroke:#262626;" x="588.22937" xlink:href="#m2e900514fa" y="493.286013"/>
      </g>
     </g>
    </g>
    <g id="xtick_77">
     <g id="line2d_100">
      <g>
       <use style="fill:#262626;stroke:#262626;" x="595.735259" xlink:href="#m2e900514fa" y="493.286013"/>
      </g>
     </g>
    </g>
    <g id="xtick_78">
     <g id="line2d_101">
      <g>
       <use style="fill:#262626;stroke:#262626;" x="603.241147" xlink:href="#m2e900514fa" y="493.286013"/>
      </g>
     </g>
    </g>
    <g id="xtick_79">
     <g id="line2d_102">
      <g>
       <use style="fill:#262626;stroke:#262626;" x="618.252924" xlink:href="#m2e900514fa" y="493.286013"/>
      </g>
     </g>
    </g>
    <g id="xtick_80">
     <g id="line2d_103">
      <g>
       <use style="fill:#262626;stroke:#262626;" x="625.758813" xlink:href="#m2e900514fa" y="493.286013"/>
      </g>
     </g>
    </g>
    <g id="xtick_81">
     <g id="line2d_104">
      <g>
       <use style="fill:#262626;stroke:#262626;" x="633.264702" xlink:href="#m2e900514fa" y="493.286013"/>
      </g>
     </g>
    </g>
    <g id="xtick_82">
     <g id="line2d_105">
      <g>
       <use style="fill:#262626;stroke:#262626;" x="648.276479" xlink:href="#m2e900514fa" y="493.286013"/>
      </g>
     </g>
    </g>
    <g id="xtick_83">
     <g id="line2d_106">
      <g>
       <use style="fill:#262626;stroke:#262626;" x="655.782367" xlink:href="#m2e900514fa" y="493.286013"/>
      </g>
     </g>
    </g>
    <g id="xtick_84">
     <g id="line2d_107">
      <g>
       <use style="fill:#262626;stroke:#262626;" x="663.288256" xlink:href="#m2e900514fa" y="493.286013"/>
      </g>
     </g>
    </g>
    <g id="xtick_85">
     <g id="line2d_108">
      <g>
       <use style="fill:#262626;stroke:#262626;" x="678.300033" xlink:href="#m2e900514fa" y="493.286013"/>
      </g>
     </g>
    </g>
    <g id="xtick_86">
     <g id="line2d_109">
      <g>
       <use style="fill:#262626;stroke:#262626;" x="685.805922" xlink:href="#m2e900514fa" y="493.286013"/>
      </g>
     </g>
    </g>
    <g id="xtick_87">
     <g id="line2d_110">
      <g>
       <use style="fill:#262626;stroke:#262626;" x="693.31181" xlink:href="#m2e900514fa" y="493.286013"/>
      </g>
     </g>
    </g>
    <g id="xtick_88">
     <g id="line2d_111">
      <g>
       <use style="fill:#262626;stroke:#262626;" x="708.323587" xlink:href="#m2e900514fa" y="493.286013"/>
      </g>
     </g>
    </g>
    <g id="xtick_89">
     <g id="line2d_112">
      <g>
       <use style="fill:#262626;stroke:#262626;" x="715.829476" xlink:href="#m2e900514fa" y="493.286013"/>
      </g>
     </g>
    </g>
    <g id="xtick_90">
     <g id="line2d_113">
      <g>
       <use style="fill:#262626;stroke:#262626;" x="723.335364" xlink:href="#m2e900514fa" y="493.286013"/>
      </g>
     </g>
    </g>
    <g id="xtick_91">
     <g id="line2d_114">
      <g>
       <use style="fill:#262626;stroke:#262626;" x="738.347141" xlink:href="#m2e900514fa" y="493.286013"/>
      </g>
     </g>
    </g>
    <g id="xtick_92">
     <g id="line2d_115">
      <g>
       <use style="fill:#262626;stroke:#262626;" x="745.85303" xlink:href="#m2e900514fa" y="493.286013"/>
      </g>
     </g>
    </g>
    <g id="xtick_93">
     <g id="line2d_116">
      <g>
       <use style="fill:#262626;stroke:#262626;" x="753.358919" xlink:href="#m2e900514fa" y="493.286013"/>
      </g>
     </g>
    </g>
    <g id="xtick_94">
     <g id="line2d_117">
      <g>
       <use style="fill:#262626;stroke:#262626;" x="768.370696" xlink:href="#m2e900514fa" y="493.286013"/>
      </g>
     </g>
    </g>
    <g id="xtick_95">
     <g id="line2d_118">
      <g>
       <use style="fill:#262626;stroke:#262626;" x="775.876584" xlink:href="#m2e900514fa" y="493.286013"/>
      </g>
     </g>
    </g>
    <g id="xtick_96">
     <g id="line2d_119">
      <g>
       <use style="fill:#262626;stroke:#262626;" x="783.382473" xlink:href="#m2e900514fa" y="493.286013"/>
      </g>
     </g>
    </g>
    <g id="xtick_97">
     <g id="line2d_120">
      <g>
       <use style="fill:#262626;stroke:#262626;" x="790.888361" xlink:href="#m2e900514fa" y="493.286013"/>
      </g>
     </g>
    </g>
    <g id="text_24">
     <!-- Date -->
     <g style="fill:#262626;" transform="translate(418.409312 567.966863)scale(0.12 -0.12)">
      <defs>
       <path d="M 1259 4147 
L 1259 519 
L 2022 519 
Q 2988 519 3436 956 
Q 3884 1394 3884 2338 
Q 3884 3275 3436 3711 
Q 2988 4147 2022 4147 
L 1259 4147 
z
M 628 4666 
L 1925 4666 
Q 3281 4666 3915 4102 
Q 4550 3538 4550 2338 
Q 4550 1131 3912 565 
Q 3275 0 1925 0 
L 628 0 
L 628 4666 
z
" id="DejaVuSans-44" transform="scale(0.015625)"/>
       <path d="M 2194 1759 
Q 1497 1759 1228 1600 
Q 959 1441 959 1056 
Q 959 750 1161 570 
Q 1363 391 1709 391 
Q 2188 391 2477 730 
Q 2766 1069 2766 1631 
L 2766 1759 
L 2194 1759 
z
M 3341 1997 
L 3341 0 
L 2766 0 
L 2766 531 
Q 2569 213 2275 61 
Q 1981 -91 1556 -91 
Q 1019 -91 701 211 
Q 384 513 384 1019 
Q 384 1609 779 1909 
Q 1175 2209 1959 2209 
L 2766 2209 
L 2766 2266 
Q 2766 2663 2505 2880 
Q 2244 3097 1772 3097 
Q 1472 3097 1187 3025 
Q 903 2953 641 2809 
L 641 3341 
Q 956 3463 1253 3523 
Q 1550 3584 1831 3584 
Q 2591 3584 2966 3190 
Q 3341 2797 3341 1997 
z
" id="DejaVuSans-61" transform="scale(0.015625)"/>
       <path d="M 1172 4494 
L 1172 3500 
L 2356 3500 
L 2356 3053 
L 1172 3053 
L 1172 1153 
Q 1172 725 1289 603 
Q 1406 481 1766 481 
L 2356 481 
L 2356 0 
L 1766 0 
Q 1100 0 847 248 
Q 594 497 594 1153 
L 594 3053 
L 172 3053 
L 172 3500 
L 594 3500 
L 594 4494 
L 1172 4494 
z
" id="DejaVuSans-74" transform="scale(0.015625)"/>
       <path d="M 3597 1894 
L 3597 1613 
L 953 1613 
Q 991 1019 1311 708 
Q 1631 397 2203 397 
Q 2534 397 2845 478 
Q 3156 559 3463 722 
L 3463 178 
Q 3153 47 2828 -22 
Q 2503 -91 2169 -91 
Q 1331 -91 842 396 
Q 353 884 353 1716 
Q 353 2575 817 3079 
Q 1281 3584 2069 3584 
Q 2775 3584 3186 3129 
Q 3597 2675 3597 1894 
z
M 3022 2063 
Q 3016 2534 2758 2815 
Q 2500 3097 2075 3097 
Q 1594 3097 1305 2825 
Q 1016 2553 972 2059 
L 3022 2063 
z
" id="DejaVuSans-65" transform="scale(0.015625)"/>
      </defs>
      <use xlink:href="#DejaVuSans-44"/>
      <use x="77.001953" xlink:href="#DejaVuSans-61"/>
      <use x="138.28125" xlink:href="#DejaVuSans-74"/>
      <use x="177.490234" xlink:href="#DejaVuSans-65"/>
     </g>
    </g>
   </g>
   <g id="matplotlib.axis_2">
    <g id="ytick_1">
     <g id="line2d_121">
      <path clip-path="url(#p3bf85d0f79)" d="M 67.10625 472.187472 
L 798.39425 472.187472 
" style="fill:none;stroke:#cccccc;stroke-linecap:round;"/>
     </g>
     <g id="line2d_122">
      <defs>
       <path d="M 0 0 
L -6 0 
" id="m9ffc7670f7" style="stroke:#262626;stroke-width:1.25;"/>
      </defs>
      <g>
       <use style="fill:#262626;stroke:#262626;stroke-width:1.25;" x="67.10625" xlink:href="#m9ffc7670f7" y="472.187472"/>
      </g>
     </g>
     <g id="text_25">
      <!-- 0 -->
      <g style="fill:#262626;" transform="translate(50.6075 476.366613)scale(0.11 -0.11)">
       <use xlink:href="#DejaVuSans-30"/>
      </g>
     </g>
    </g>
    <g id="ytick_2">
     <g id="line2d_123">
      <path clip-path="url(#p3bf85d0f79)" d="M 67.10625 408.78832 
L 798.39425 408.78832 
" style="fill:none;stroke:#cccccc;stroke-linecap:round;"/>
     </g>
     <g id="line2d_124">
      <g>
       <use style="fill:#262626;stroke:#262626;stroke-width:1.25;" x="67.10625" xlink:href="#m9ffc7670f7" y="408.78832"/>
      </g>
     </g>
     <g id="text_26">
      <!-- 100000 -->
      <g style="fill:#262626;" transform="translate(15.61375 412.967461)scale(0.11 -0.11)">
       <use xlink:href="#DejaVuSans-31"/>
       <use x="63.623047" xlink:href="#DejaVuSans-30"/>
       <use x="127.246094" xlink:href="#DejaVuSans-30"/>
       <use x="190.869141" xlink:href="#DejaVuSans-30"/>
       <use x="254.492188" xlink:href="#DejaVuSans-30"/>
       <use x="318.115234" xlink:href="#DejaVuSans-30"/>
      </g>
     </g>
    </g>
    <g id="ytick_3">
     <g id="line2d_125">
      <path clip-path="url(#p3bf85d0f79)" d="M 67.10625 345.389169 
L 798.39425 345.389169 
" style="fill:none;stroke:#cccccc;stroke-linecap:round;"/>
     </g>
     <g id="line2d_126">
      <g>
       <use style="fill:#262626;stroke:#262626;stroke-width:1.25;" x="67.10625" xlink:href="#m9ffc7670f7" y="345.389169"/>
      </g>
     </g>
     <g id="text_27">
      <!-- 200000 -->
      <g style="fill:#262626;" transform="translate(15.61375 349.568309)scale(0.11 -0.11)">
       <use xlink:href="#DejaVuSans-32"/>
       <use x="63.623047" xlink:href="#DejaVuSans-30"/>
       <use x="127.246094" xlink:href="#DejaVuSans-30"/>
       <use x="190.869141" xlink:href="#DejaVuSans-30"/>
       <use x="254.492188" xlink:href="#DejaVuSans-30"/>
       <use x="318.115234" xlink:href="#DejaVuSans-30"/>
      </g>
     </g>
    </g>
    <g id="ytick_4">
     <g id="line2d_127">
      <path clip-path="url(#p3bf85d0f79)" d="M 67.10625 281.990017 
L 798.39425 281.990017 
" style="fill:none;stroke:#cccccc;stroke-linecap:round;"/>
     </g>
     <g id="line2d_128">
      <g>
       <use style="fill:#262626;stroke:#262626;stroke-width:1.25;" x="67.10625" xlink:href="#m9ffc7670f7" y="281.990017"/>
      </g>
     </g>
     <g id="text_28">
      <!-- 300000 -->
      <g style="fill:#262626;" transform="translate(15.61375 286.169157)scale(0.11 -0.11)">
       <use xlink:href="#DejaVuSans-33"/>
       <use x="63.623047" xlink:href="#DejaVuSans-30"/>
       <use x="127.246094" xlink:href="#DejaVuSans-30"/>
       <use x="190.869141" xlink:href="#DejaVuSans-30"/>
       <use x="254.492188" xlink:href="#DejaVuSans-30"/>
       <use x="318.115234" xlink:href="#DejaVuSans-30"/>
      </g>
     </g>
    </g>
    <g id="ytick_5">
     <g id="line2d_129">
      <path clip-path="url(#p3bf85d0f79)" d="M 67.10625 218.590865 
L 798.39425 218.590865 
" style="fill:none;stroke:#cccccc;stroke-linecap:round;"/>
     </g>
     <g id="line2d_130">
      <g>
       <use style="fill:#262626;stroke:#262626;stroke-width:1.25;" x="67.10625" xlink:href="#m9ffc7670f7" y="218.590865"/>
      </g>
     </g>
     <g id="text_29">
      <!-- 400000 -->
      <g style="fill:#262626;" transform="translate(15.61375 222.770005)scale(0.11 -0.11)">
       <use xlink:href="#DejaVuSans-34"/>
       <use x="63.623047" xlink:href="#DejaVuSans-30"/>
       <use x="127.246094" xlink:href="#DejaVuSans-30"/>
       <use x="190.869141" xlink:href="#DejaVuSans-30"/>
       <use x="254.492188" xlink:href="#DejaVuSans-30"/>
       <use x="318.115234" xlink:href="#DejaVuSans-30"/>
      </g>
     </g>
    </g>
    <g id="ytick_6">
     <g id="line2d_131">
      <path clip-path="url(#p3bf85d0f79)" d="M 67.10625 155.191713 
L 798.39425 155.191713 
" style="fill:none;stroke:#cccccc;stroke-linecap:round;"/>
     </g>
     <g id="line2d_132">
      <g>
       <use style="fill:#262626;stroke:#262626;stroke-width:1.25;" x="67.10625" xlink:href="#m9ffc7670f7" y="155.191713"/>
      </g>
     </g>
     <g id="text_30">
      <!-- 500000 -->
      <g style="fill:#262626;" transform="translate(15.61375 159.370854)scale(0.11 -0.11)">
       <use xlink:href="#DejaVuSans-35"/>
       <use x="63.623047" xlink:href="#DejaVuSans-30"/>
       <use x="127.246094" xlink:href="#DejaVuSans-30"/>
       <use x="190.869141" xlink:href="#DejaVuSans-30"/>
       <use x="254.492188" xlink:href="#DejaVuSans-30"/>
       <use x="318.115234" xlink:href="#DejaVuSans-30"/>
      </g>
     </g>
    </g>
    <g id="ytick_7">
     <g id="line2d_133">
      <path clip-path="url(#p3bf85d0f79)" d="M 67.10625 91.792561 
L 798.39425 91.792561 
" style="fill:none;stroke:#cccccc;stroke-linecap:round;"/>
     </g>
     <g id="line2d_134">
      <g>
       <use style="fill:#262626;stroke:#262626;stroke-width:1.25;" x="67.10625" xlink:href="#m9ffc7670f7" y="91.792561"/>
      </g>
     </g>
     <g id="text_31">
      <!-- 600000 -->
      <g style="fill:#262626;" transform="translate(15.61375 95.971702)scale(0.11 -0.11)">
       <use xlink:href="#DejaVuSans-36"/>
       <use x="63.623047" xlink:href="#DejaVuSans-30"/>
       <use x="127.246094" xlink:href="#DejaVuSans-30"/>
       <use x="190.869141" xlink:href="#DejaVuSans-30"/>
       <use x="254.492188" xlink:href="#DejaVuSans-30"/>
       <use x="318.115234" xlink:href="#DejaVuSans-30"/>
      </g>
     </g>
    </g>
    <g id="text_32">
     <!-- Cases -->
     <g style="fill:#262626;" transform="translate(9.118125 279.011756)rotate(-90)scale(0.12 -0.12)">
      <defs>
       <path d="M 4122 4306 
L 4122 3641 
Q 3803 3938 3442 4084 
Q 3081 4231 2675 4231 
Q 1875 4231 1450 3742 
Q 1025 3253 1025 2328 
Q 1025 1406 1450 917 
Q 1875 428 2675 428 
Q 3081 428 3442 575 
Q 3803 722 4122 1019 
L 4122 359 
Q 3791 134 3420 21 
Q 3050 -91 2638 -91 
Q 1578 -91 968 557 
Q 359 1206 359 2328 
Q 359 3453 968 4101 
Q 1578 4750 2638 4750 
Q 3056 4750 3426 4639 
Q 3797 4528 4122 4306 
z
" id="DejaVuSans-43" transform="scale(0.015625)"/>
       <path d="M 2834 3397 
L 2834 2853 
Q 2591 2978 2328 3040 
Q 2066 3103 1784 3103 
Q 1356 3103 1142 2972 
Q 928 2841 928 2578 
Q 928 2378 1081 2264 
Q 1234 2150 1697 2047 
L 1894 2003 
Q 2506 1872 2764 1633 
Q 3022 1394 3022 966 
Q 3022 478 2636 193 
Q 2250 -91 1575 -91 
Q 1294 -91 989 -36 
Q 684 19 347 128 
L 347 722 
Q 666 556 975 473 
Q 1284 391 1588 391 
Q 1994 391 2212 530 
Q 2431 669 2431 922 
Q 2431 1156 2273 1281 
Q 2116 1406 1581 1522 
L 1381 1569 
Q 847 1681 609 1914 
Q 372 2147 372 2553 
Q 372 3047 722 3315 
Q 1072 3584 1716 3584 
Q 2034 3584 2315 3537 
Q 2597 3491 2834 3397 
z
" id="DejaVuSans-73" transform="scale(0.015625)"/>
      </defs>
      <use xlink:href="#DejaVuSans-43"/>
      <use x="69.824219" xlink:href="#DejaVuSans-61"/>
      <use x="131.103516" xlink:href="#DejaVuSans-73"/>
      <use x="183.203125" xlink:href="#DejaVuSans-65"/>
      <use x="244.726562" xlink:href="#DejaVuSans-73"/>
     </g>
    </g>
   </g>
   <g id="line2d_135">
    <path clip-path="url(#p3bf85d0f79)" d="M 100.346614 472.184936 
L 114.286121 472.084132 
L 149.671024 471.491984 
L 155.032373 471.300518 
L 179.694578 470.709638 
L 188.272737 470.612003 
L 200.067705 470.405956 
L 217.224021 469.49808 
L 220.440831 469.255262 
L 223.65764 469.024489 
L 232.235798 468.166698 
L 235.452608 467.638583 
L 237.597147 467.488961 
L 265.476162 463.728123 
L 267.620702 463.620979 
L 271.909781 463.157531 
L 277.27113 462.791718 
L 287.993828 461.939633 
L 290.138367 461.874966 
L 295.499716 461.377917 
L 298.716526 461.211177 
L 308.366954 460.430734 
L 310.511493 460.256386 
L 313.728303 460.063652 
L 315.872842 459.778356 
L 318.017382 459.509544 
L 320.161922 459.33583 
L 325.523271 458.545243 
L 326.59554 458.501497 
L 328.74008 458.045657 
L 330.88462 457.441464 
L 333.029159 456.769433 
L 334.101429 456.716811 
L 335.173699 456.344658 
L 338.390508 454.748268 
L 339.462778 454.115544 
L 340.535048 453.733247 
L 341.607317 453.482821 
L 342.679587 452.833613 
L 344.824127 451.053365 
L 346.968666 449.034736 
L 348.040936 448.373483 
L 349.113206 448.166168 
L 350.185476 446.744125 
L 353.402285 441.660781 
L 354.474555 439.827911 
L 355.546825 438.684824 
L 356.619095 437.908185 
L 357.691364 436.369487 
L 360.908174 428.857322 
L 361.980444 426.423429 
L 363.052713 424.964614 
L 364.124983 424.53667 
L 365.197253 422.117358 
L 367.341793 416.833039 
L 368.414062 414.668592 
L 369.486332 411.998219 
L 370.558602 410.414509 
L 371.630872 409.897172 
L 372.703141 407.666155 
L 373.775411 404.605244 
L 376.992221 397.111465 
L 378.06449 395.666598 
L 379.13676 394.954625 
L 380.20903 392.960088 
L 381.2813 390.181937 
L 383.425839 385.566479 
L 384.498109 383.457189 
L 385.570379 382.321077 
L 386.642649 381.852557 
L 387.714919 380.068505 
L 389.859458 375.875919 
L 392.003998 371.505181 
L 393.076268 370.21374 
L 394.148537 369.847927 
L 395.220807 368.095575 
L 396.293077 365.572289 
L 398.437617 361.512841 
L 399.509886 359.549369 
L 400.582156 358.733422 
L 401.654426 358.418328 
L 402.726696 357.090116 
L 403.798966 355.351077 
L 407.015775 351.711966 
L 408.088045 351.076706 
L 409.160315 350.971464 
L 410.232584 350.161857 
L 412.377124 347.99741 
L 413.449394 347.507968 
L 414.521663 347.345032 
L 416.666203 346.837205 
L 417.738473 346.62355 
L 418.810743 345.71187 
L 419.883012 344.615699 
L 420.955282 343.952544 
L 424.172092 343.45486 
L 425.244361 342.802483 
L 426.316631 341.971954 
L 428.461171 340.787024 
L 429.533441 340.309629 
L 430.60571 340.059836 
L 431.67798 339.993267 
L 437.039329 338.096364 
L 439.183869 337.899827 
L 442.400678 336.887976 
L 445.617488 336.072029 
L 446.689757 335.995316 
L 449.906567 334.602437 
L 453.123376 333.585514 
L 454.195646 333.503096 
L 460.629265 330.4574 
L 461.701534 330.342014 
L 465.990614 327.60951 
L 467.062883 326.997075 
L 468.135153 326.676275 
L 469.207423 326.572934 
L 470.279693 325.895831 
L 472.424232 324.250623 
L 473.496502 323.562109 
L 474.568772 322.634579 
L 475.641042 322.287152 
L 476.713312 322.143236 
L 478.857851 319.781617 
L 482.074661 316.462038 
L 483.14693 315.777961 
L 484.2192 315.567476 
L 486.36374 312.403224 
L 487.43601 311.671598 
L 488.508279 310.278084 
L 489.580549 308.373574 
L 490.652819 307.469502 
L 491.725089 307.154408 
L 492.797359 305.255603 
L 493.869628 303.035365 
L 494.941898 301.276673 
L 497.086438 297.295206 
L 498.158707 296.015177 
L 499.230977 295.584697 
L 501.375517 289.871799 
L 504.592326 282.02869 
L 505.664596 280.417718 
L 506.736866 279.819864 
L 511.025945 268.61026 
L 512.098215 265.992509 
L 513.170485 264.384072 
L 514.242754 263.760859 
L 515.315024 260.909799 
L 516.387294 257.628259 
L 517.459564 254.961056 
L 519.604103 250.074884 
L 520.676373 248.858254 
L 521.748643 248.3891 
L 524.965452 241.148917 
L 527.109992 237.497126 
L 528.182262 236.639969 
L 529.254532 236.347065 
L 531.399071 232.501273 
L 532.471341 230.905516 
L 534.61588 228.172379 
L 535.68815 227.490204 
L 536.76042 227.225195 
L 537.83269 225.68206 
L 539.977229 223.083963 
L 542.121769 220.935366 
L 543.194039 220.42944 
L 544.266309 220.175844 
L 546.410848 217.887768 
L 548.555388 216.227344 
L 550.699927 215.518542 
L 551.772197 215.297913 
L 552.844467 214.897864 
L 553.916737 214.665189 
L 554.989007 213.628613 
L 556.061276 213.283088 
L 557.133546 212.571115 
L 558.205816 212.275675 
L 559.278086 212.122883 
L 561.422625 210.88343 
L 563.567165 210.146098 
L 564.639435 209.81769 
L 566.783974 209.593257 
L 567.856244 209.164045 
L 570.000784 208.64544 
L 572.145323 208.182626 
L 576.434402 207.728688 
L 578.578942 207.29377 
L 580.723482 207.038905 
L 581.795751 207.005304 
L 585.012561 206.538686 
L 588.22937 206.274946 
L 590.37391 206.113278 
L 593.590719 205.853975 
L 602.168878 205.299867 
L 607.530227 205.06212 
L 635.409241 203.959609 
L 640.77059 203.610279 
L 642.91513 203.451781 
L 646.131939 203.041589 
L 648.276479 202.706841 
L 649.348749 202.647246 
L 652.565558 201.833201 
L 655.782367 200.919619 
L 656.854637 200.808037 
L 661.143716 198.752002 
L 662.215986 198.088213 
L 663.288256 197.693236 
L 664.360526 197.520791 
L 667.577335 194.925863 
L 669.721875 193.189361 
L 670.794144 192.653638 
L 671.866414 192.410185 
L 674.010954 189.999749 
L 676.155493 187.886022 
L 677.227763 186.799994 
L 678.300033 186.163467 
L 679.372303 185.877536 
L 681.516842 183.25091 
L 683.661382 181.153032 
L 684.733652 180.113286 
L 685.805922 179.571857 
L 686.878191 179.262469 
L 687.950461 178.833257 
L 690.095001 176.322016 
L 692.23954 174.258374 
L 693.31181 173.682076 
L 694.38408 173.405021 
L 697.600889 169.671445 
L 699.745429 167.378932 
L 700.817699 166.776006 
L 701.889968 166.485638 
L 704.034508 163.599709 
L 705.106778 163.060816 
L 707.251317 160.690321 
L 708.323587 160.032238 
L 709.395857 159.717778 
L 711.540397 156.478716 
L 714.757206 152.495347 
L 715.829476 151.716805 
L 716.901746 151.391568 
L 720.118555 146.183962 
L 722.263095 143.149044 
L 723.335364 142.359091 
L 724.407634 141.965382 
L 727.624444 135.456191 
L 729.768983 131.257265 
L 730.841253 130.073603 
L 731.913523 129.439612 
L 735.130332 120.273362 
L 737.274872 114.160416 
L 738.347141 112.034008 
L 739.419411 111.16544 
L 740.491681 107.448348 
L 741.563951 103.127062 
L 743.70849 96.266639 
L 744.78076 92.93438 
L 745.85303 91.13638 
L 746.9253 90.212654 
L 749.069839 82.687175 
L 752.286649 73.609684 
L 753.358919 71.818024 
L 754.431188 71.021731 
L 756.575728 64.529024 
L 757.647998 62.086255 
L 759.792537 58.058506 
L 760.864807 57.03778 
L 761.937077 56.512835 
L 763.009347 54.46948 
L 764.081617 52.016567 
L 765.153886 50.216665 
L 765.153886 50.216665 
" style="fill:none;stroke:#ffa500;stroke-linecap:round;stroke-width:1.5;"/>
   </g>
   <g id="line2d_136">
    <path clip-path="url(#p3bf85d0f79)" d="M 100.346614 472.187472 
L 148.598754 472.077158 
L 185.055927 471.62956 
L 194.706356 471.349336 
L 202.212244 471.13251 
L 214.007212 470.872574 
L 219.368561 470.629755 
L 224.72991 470.461747 
L 234.380338 470.090228 
L 236.524878 470.083254 
L 239.741687 469.752311 
L 246.175306 469.321197 
L 247.247576 469.24385 
L 249.392115 468.857749 
L 252.608924 468.64663 
L 257.970273 468.132463 
L 259.042543 468.117247 
L 264.403892 467.355189 
L 268.692971 467.017905 
L 271.909781 466.409274 
L 274.05432 466.363626 
L 278.3434 465.7924 
L 280.487939 465.643412 
L 282.632479 465.532463 
L 284.777018 465.372063 
L 286.921558 465.067114 
L 289.066098 465.015126 
L 294.427446 464.55041 
L 307.294684 463.792791 
L 310.511493 463.591815 
L 313.728303 463.471357 
L 337.318238 461.733586 
L 340.535048 461.465408 
L 341.607317 461.445754 
L 352.330015 460.040829 
L 353.402285 459.701009 
L 355.546825 459.479112 
L 359.835904 458.27326 
L 361.980444 457.329247 
L 363.052713 457.095304 
L 364.124983 456.713007 
L 365.197253 456.158265 
L 366.269523 455.831125 
L 368.414062 454.697548 
L 370.558602 453.925347 
L 371.630872 453.563971 
L 372.703141 452.966751 
L 373.775411 452.193916 
L 376.992221 450.385772 
L 378.06449 449.521008 
L 379.13676 449.031566 
L 381.2813 446.763144 
L 383.425839 443.737103 
L 384.498109 442.554709 
L 385.570379 441.895992 
L 386.642649 441.379288 
L 387.714919 440.129691 
L 389.859458 437.187337 
L 390.931728 435.960563 
L 392.003998 434.35276 
L 393.076268 433.721305 
L 394.148537 432.724036 
L 397.365347 426.490632 
L 398.437617 424.491022 
L 399.509886 421.771199 
L 401.654426 419.109702 
L 402.726696 417.931746 
L 404.871235 414.8049 
L 407.015775 410.929944 
L 408.088045 410.03982 
L 409.160315 408.941746 
L 410.232584 407.098099 
L 411.304854 405.561304 
L 413.449394 403.919266 
L 414.521663 403.167352 
L 415.593933 402.611975 
L 417.738473 400.874204 
L 419.883012 397.164086 
L 420.955282 396.408368 
L 422.027552 395.891031 
L 424.172092 394.579937 
L 427.388901 390.536339 
L 428.461171 389.647482 
L 429.533441 387.218661 
L 431.67798 386.434413 
L 433.82252 383.081232 
L 434.89479 381.119663 
L 435.967059 376.854168 
L 437.039329 373.265776 
L 439.183869 372.827054 
L 440.256139 368.051195 
L 441.328408 364.093186 
L 442.400678 361.176825 
L 443.472948 359.746541 
L 444.545218 358.955319 
L 446.689757 358.659879 
L 448.834297 357.438177 
L 449.906567 357.040665 
L 454.195646 353.598091 
L 455.267916 352.380827 
L 456.340185 351.422232 
L 457.412455 350.745129 
L 459.556995 349.808089 
L 461.701534 349.667977 
L 462.773804 349.158248 
L 463.846074 348.867246 
L 464.918344 348.425354 
L 470.279693 346.925964 
L 473.496502 345.622477 
L 474.568772 345.403116 
L 476.713312 345.229403 
L 477.785581 344.736791 
L 479.930121 344.118016 
L 482.074661 343.174002 
L 483.14693 342.132354 
L 484.2192 341.873686 
L 485.29147 341.185805 
L 486.36374 340.056666 
L 487.43601 339.683245 
L 488.508279 338.644767 
L 489.580549 337.833258 
L 490.652819 337.463007 
L 491.725089 337.21892 
L 492.797359 336.440378 
L 493.869628 334.282905 
L 494.941898 332.678273 
L 497.086438 330.503048 
L 498.158707 329.794245 
L 499.230977 329.423994 
L 501.375517 327.120069 
L 504.592326 324.08959 
L 506.736866 323.344649 
L 507.809136 321.911829 
L 512.098215 315.305637 
L 513.170485 314.384447 
L 514.242754 314.094713 
L 516.387294 310.080913 
L 517.459564 307.628 
L 518.531834 306.021465 
L 519.604103 303.488035 
L 520.676373 301.279209 
L 521.748643 300.735244 
L 523.893183 297.086623 
L 524.965452 295.516226 
L 526.037722 293.415178 
L 527.109992 291.582942 
L 528.182262 290.99333 
L 529.254532 290.702328 
L 530.326801 288.738222 
L 532.471341 283.893259 
L 534.61588 279.433129 
L 535.68815 278.669803 
L 536.76042 277.756221 
L 537.83269 275.065561 
L 538.90496 272.941056 
L 539.977229 270.446299 
L 541.049499 268.422598 
L 542.121769 266.852201 
L 544.266309 266.176366 
L 545.338578 263.577001 
L 547.483118 259.527063 
L 548.555388 257.700534 
L 549.627658 256.925796 
L 550.699927 256.700729 
L 552.844467 255.889854 
L 553.916737 255.219091 
L 554.989007 253.526967 
L 556.061276 253.150377 
L 557.133546 251.640843 
L 559.278086 251.309899 
L 560.350356 249.404755 
L 561.422625 247.996025 
L 562.494895 245.758035 
L 563.567165 243.949258 
L 564.639435 242.686981 
L 565.711705 242.475227 
L 566.783974 242.381397 
L 567.856244 240.982177 
L 568.928514 239.218413 
L 570.000784 237.749455 
L 571.073054 236.624754 
L 572.145323 235.728924 
L 575.362133 235.26294 
L 576.434402 233.726778 
L 577.506672 232.97106 
L 578.578942 231.805784 
L 579.651212 231.109661 
L 581.795751 230.930242 
L 583.940291 228.883717 
L 585.012561 228.242118 
L 587.1571 227.510492 
L 589.30164 227.403981 
L 593.590719 225.827878 
L 594.662989 225.331463 
L 596.807529 225.250946 
L 597.879798 224.684791 
L 598.952068 224.315174 
L 600.024338 223.640607 
L 602.168878 223.173356 
L 604.313417 223.14546 
L 607.530227 222.477233 
L 613.963845 222.097472 
L 616.108385 221.805202 
L 617.180655 221.582037 
L 619.325194 221.519272 
L 623.614273 220.987987 
L 628.975622 220.719808 
L 630.047892 220.490937 
L 635.409241 220.2627 
L 637.553781 219.965992 
L 655.782367 219.304739 
L 656.854637 219.296497 
L 662.215986 218.642218 
L 664.360526 218.491962 
L 670.794144 217.579014 
L 671.866414 217.549851 
L 674.010954 216.867676 
L 676.155493 216.196279 
L 677.227763 215.978186 
L 679.372303 215.829198 
L 681.516842 214.935904 
L 683.661382 214.134538 
L 684.733652 213.613397 
L 685.805922 213.491671 
L 687.950461 212.850706 
L 691.167271 210.769945 
L 692.23954 209.99394 
L 693.31181 209.884259 
L 694.38408 209.615447 
L 695.45635 208.92503 
L 696.52862 208.441295 
L 697.600889 207.530249 
L 698.673159 206.285089 
L 699.745429 204.743222 
L 700.817699 204.417984 
L 704.034508 202.308695 
L 705.106778 201.938444 
L 706.179048 201.269583 
L 707.251317 200.186091 
L 709.395857 199.541322 
L 711.540397 196.734641 
L 712.612666 195.906648 
L 713.684936 194.929667 
L 714.757206 194.354637 
L 716.901746 193.799895 
L 717.974015 192.940202 
L 719.046285 191.653833 
L 721.190825 189.64725 
L 722.263095 188.424914 
L 724.407634 187.652079 
L 725.479904 186.471587 
L 726.552174 185.73045 
L 727.624444 184.566442 
L 729.768983 182.580147 
L 731.913523 181.908116 
L 732.985793 180.634427 
L 734.058062 178.895388 
L 735.130332 178.280416 
L 736.202602 177.361128 
L 737.274872 176.613018 
L 738.347141 176.416481 
L 739.419411 176.076662 
L 740.491681 174.794731 
L 743.70849 170.439843 
L 744.78076 169.437502 
L 746.9253 168.651987 
L 747.99757 166.744306 
L 750.142109 163.594003 
L 751.214379 161.246332 
L 752.286649 159.509829 
L 753.358919 159.090761 
L 754.431188 158.461207 
L 755.503458 156.244773 
L 756.575728 153.672669 
L 757.647998 150.797518 
L 758.720268 148.291349 
L 759.792537 146.384937 
L 760.864807 145.816246 
L 761.937077 144.958456 
L 764.081617 139.721686 
L 765.153886 137.598448 
L 765.153886 137.598448 
" style="fill:none;stroke:#008000;stroke-linecap:round;stroke-width:1.5;"/>
   </g>
   <g id="line2d_137"/>
   <g id="line2d_138"/>
   <g id="patch_3">
    <path d="M 67.10625 493.286013 
L 67.10625 29.118125 
" style="fill:none;stroke:#262626;stroke-linecap:square;stroke-linejoin:miter;stroke-width:1.25;"/>
   </g>
   <g id="patch_4">
    <path d="M 798.39425 493.286013 
L 798.39425 29.118125 
" style="fill:none;stroke:#262626;stroke-linecap:square;stroke-linejoin:miter;stroke-width:1.25;"/>
   </g>
   <g id="patch_5">
    <path d="M 67.10625 493.286013 
L 798.39425 493.286013 
" style="fill:none;stroke:#262626;stroke-linecap:square;stroke-linejoin:miter;stroke-width:1.25;"/>
   </g>
   <g id="patch_6">
    <path d="M 67.10625 29.118125 
L 798.39425 29.118125 
" style="fill:none;stroke:#262626;stroke-linecap:square;stroke-linejoin:miter;stroke-width:1.25;"/>
   </g>
   <g id="text_33">
    <!-- Last update: 18.11.2021 -->
    <g style="fill:#262626;" transform="translate(371.251422 22.155607)scale(0.09996 -0.09996)">
     <defs>
      <path d="M 628 4666 
L 1259 4666 
L 1259 531 
L 3531 531 
L 3531 0 
L 628 0 
L 628 4666 
z
" id="DejaVuSans-4c" transform="scale(0.015625)"/>
      <path id="DejaVuSans-20" transform="scale(0.015625)"/>
      <path d="M 544 1381 
L 544 3500 
L 1119 3500 
L 1119 1403 
Q 1119 906 1312 657 
Q 1506 409 1894 409 
Q 2359 409 2629 706 
Q 2900 1003 2900 1516 
L 2900 3500 
L 3475 3500 
L 3475 0 
L 2900 0 
L 2900 538 
Q 2691 219 2414 64 
Q 2138 -91 1772 -91 
Q 1169 -91 856 284 
Q 544 659 544 1381 
z
M 1991 3584 
L 1991 3584 
z
" id="DejaVuSans-75" transform="scale(0.015625)"/>
      <path d="M 1159 525 
L 1159 -1331 
L 581 -1331 
L 581 3500 
L 1159 3500 
L 1159 2969 
Q 1341 3281 1617 3432 
Q 1894 3584 2278 3584 
Q 2916 3584 3314 3078 
Q 3713 2572 3713 1747 
Q 3713 922 3314 415 
Q 2916 -91 2278 -91 
Q 1894 -91 1617 61 
Q 1341 213 1159 525 
z
M 3116 1747 
Q 3116 2381 2855 2742 
Q 2594 3103 2138 3103 
Q 1681 3103 1420 2742 
Q 1159 2381 1159 1747 
Q 1159 1113 1420 752 
Q 1681 391 2138 391 
Q 2594 391 2855 752 
Q 3116 1113 3116 1747 
z
" id="DejaVuSans-70" transform="scale(0.015625)"/>
      <path d="M 2906 2969 
L 2906 4863 
L 3481 4863 
L 3481 0 
L 2906 0 
L 2906 525 
Q 2725 213 2448 61 
Q 2172 -91 1784 -91 
Q 1150 -91 751 415 
Q 353 922 353 1747 
Q 353 2572 751 3078 
Q 1150 3584 1784 3584 
Q 2172 3584 2448 3432 
Q 2725 3281 2906 2969 
z
M 947 1747 
Q 947 1113 1208 752 
Q 1469 391 1925 391 
Q 2381 391 2643 752 
Q 2906 1113 2906 1747 
Q 2906 2381 2643 2742 
Q 2381 3103 1925 3103 
Q 1469 3103 1208 2742 
Q 947 2381 947 1747 
z
" id="DejaVuSans-64" transform="scale(0.015625)"/>
      <path d="M 750 794 
L 1409 794 
L 1409 0 
L 750 0 
L 750 794 
z
M 750 3309 
L 1409 3309 
L 1409 2516 
L 750 2516 
L 750 3309 
z
" id="DejaVuSans-3a" transform="scale(0.015625)"/>
     </defs>
     <use xlink:href="#DejaVuSans-4c"/>
     <use x="55.712891" xlink:href="#DejaVuSans-61"/>
     <use x="116.992188" xlink:href="#DejaVuSans-73"/>
     <use x="169.091797" xlink:href="#DejaVuSans-74"/>
     <use x="208.300781" xlink:href="#DejaVuSans-20"/>
     <use x="240.087891" xlink:href="#DejaVuSans-75"/>
     <use x="303.466797" xlink:href="#DejaVuSans-70"/>
     <use x="366.943359" xlink:href="#DejaVuSans-64"/>
     <use x="430.419922" xlink:href="#DejaVuSans-61"/>
     <use x="491.699219" xlink:href="#DejaVuSans-74"/>
     <use x="530.908203" xlink:href="#DejaVuSans-65"/>
     <use x="592.431641" xlink:href="#DejaVuSans-3a"/>
     <use x="626.123047" xlink:href="#DejaVuSans-20"/>
     <use x="657.910156" xlink:href="#DejaVuSans-31"/>
     <use x="721.533203" xlink:href="#DejaVuSans-38"/>
     <use x="785.15625" xlink:href="#DejaVuSans-2e"/>
     <use x="816.943359" xlink:href="#DejaVuSans-31"/>
     <use x="880.566406" xlink:href="#DejaVuSans-31"/>
     <use x="944.189453" xlink:href="#DejaVuSans-2e"/>
     <use x="975.976562" xlink:href="#DejaVuSans-32"/>
     <use x="1039.599609" xlink:href="#DejaVuSans-30"/>
     <use x="1103.222656" xlink:href="#DejaVuSans-32"/>
     <use x="1166.845703" xlink:href="#DejaVuSans-31"/>
    </g>
   </g>
   <g id="text_34">
    <!-- Disease timeline -->
    <g style="fill:#262626;" transform="translate(376.592125 9.118125)scale(0.12 -0.12)">
     <defs>
      <path d="M 1791 3756 
L 1791 909 
L 2222 909 
Q 2959 909 3348 1275 
Q 3738 1641 3738 2338 
Q 3738 3031 3350 3393 
Q 2963 3756 2222 3756 
L 1791 3756 
z
M 588 4666 
L 1856 4666 
Q 2919 4666 3439 4514 
Q 3959 4363 4331 4000 
Q 4659 3684 4818 3271 
Q 4978 2859 4978 2338 
Q 4978 1809 4818 1395 
Q 4659 981 4331 666 
Q 3956 303 3431 151 
Q 2906 0 1856 0 
L 588 0 
L 588 4666 
z
" id="DejaVuSans-Bold-44" transform="scale(0.015625)"/>
      <path d="M 538 3500 
L 1656 3500 
L 1656 0 
L 538 0 
L 538 3500 
z
M 538 4863 
L 1656 4863 
L 1656 3950 
L 538 3950 
L 538 4863 
z
" id="DejaVuSans-Bold-69" transform="scale(0.015625)"/>
      <path d="M 3272 3391 
L 3272 2541 
Q 2913 2691 2578 2766 
Q 2244 2841 1947 2841 
Q 1628 2841 1473 2761 
Q 1319 2681 1319 2516 
Q 1319 2381 1436 2309 
Q 1553 2238 1856 2203 
L 2053 2175 
Q 2913 2066 3209 1816 
Q 3506 1566 3506 1031 
Q 3506 472 3093 190 
Q 2681 -91 1863 -91 
Q 1516 -91 1145 -36 
Q 775 19 384 128 
L 384 978 
Q 719 816 1070 734 
Q 1422 653 1784 653 
Q 2113 653 2278 743 
Q 2444 834 2444 1013 
Q 2444 1163 2330 1236 
Q 2216 1309 1875 1350 
L 1678 1375 
Q 931 1469 631 1722 
Q 331 1975 331 2491 
Q 331 3047 712 3315 
Q 1094 3584 1881 3584 
Q 2191 3584 2531 3537 
Q 2872 3491 3272 3391 
z
" id="DejaVuSans-Bold-73" transform="scale(0.015625)"/>
      <path d="M 4031 1759 
L 4031 1441 
L 1416 1441 
Q 1456 1047 1700 850 
Q 1944 653 2381 653 
Q 2734 653 3104 758 
Q 3475 863 3866 1075 
L 3866 213 
Q 3469 63 3072 -14 
Q 2675 -91 2278 -91 
Q 1328 -91 801 392 
Q 275 875 275 1747 
Q 275 2603 792 3093 
Q 1309 3584 2216 3584 
Q 3041 3584 3536 3087 
Q 4031 2591 4031 1759 
z
M 2881 2131 
Q 2881 2450 2695 2645 
Q 2509 2841 2209 2841 
Q 1884 2841 1681 2658 
Q 1478 2475 1428 2131 
L 2881 2131 
z
" id="DejaVuSans-Bold-65" transform="scale(0.015625)"/>
      <path d="M 2106 1575 
Q 1756 1575 1579 1456 
Q 1403 1338 1403 1106 
Q 1403 894 1545 773 
Q 1688 653 1941 653 
Q 2256 653 2472 879 
Q 2688 1106 2688 1447 
L 2688 1575 
L 2106 1575 
z
M 3816 1997 
L 3816 0 
L 2688 0 
L 2688 519 
Q 2463 200 2181 54 
Q 1900 -91 1497 -91 
Q 953 -91 614 226 
Q 275 544 275 1050 
Q 275 1666 698 1953 
Q 1122 2241 2028 2241 
L 2688 2241 
L 2688 2328 
Q 2688 2594 2478 2717 
Q 2269 2841 1825 2841 
Q 1466 2841 1156 2769 
Q 847 2697 581 2553 
L 581 3406 
Q 941 3494 1303 3539 
Q 1666 3584 2028 3584 
Q 2975 3584 3395 3211 
Q 3816 2838 3816 1997 
z
" id="DejaVuSans-Bold-61" transform="scale(0.015625)"/>
      <path id="DejaVuSans-Bold-20" transform="scale(0.015625)"/>
      <path d="M 1759 4494 
L 1759 3500 
L 2913 3500 
L 2913 2700 
L 1759 2700 
L 1759 1216 
Q 1759 972 1856 886 
Q 1953 800 2241 800 
L 2816 800 
L 2816 0 
L 1856 0 
Q 1194 0 917 276 
Q 641 553 641 1216 
L 641 2700 
L 84 2700 
L 84 3500 
L 641 3500 
L 641 4494 
L 1759 4494 
z
" id="DejaVuSans-Bold-74" transform="scale(0.015625)"/>
      <path d="M 3781 2919 
Q 3994 3244 4286 3414 
Q 4578 3584 4928 3584 
Q 5531 3584 5847 3212 
Q 6163 2841 6163 2131 
L 6163 0 
L 5038 0 
L 5038 1825 
Q 5041 1866 5042 1909 
Q 5044 1953 5044 2034 
Q 5044 2406 4934 2573 
Q 4825 2741 4581 2741 
Q 4263 2741 4089 2478 
Q 3916 2216 3909 1719 
L 3909 0 
L 2784 0 
L 2784 1825 
Q 2784 2406 2684 2573 
Q 2584 2741 2328 2741 
Q 2006 2741 1831 2477 
Q 1656 2213 1656 1722 
L 1656 0 
L 531 0 
L 531 3500 
L 1656 3500 
L 1656 2988 
Q 1863 3284 2130 3434 
Q 2397 3584 2719 3584 
Q 3081 3584 3359 3409 
Q 3638 3234 3781 2919 
z
" id="DejaVuSans-Bold-6d" transform="scale(0.015625)"/>
      <path d="M 538 4863 
L 1656 4863 
L 1656 0 
L 538 0 
L 538 4863 
z
" id="DejaVuSans-Bold-6c" transform="scale(0.015625)"/>
      <path d="M 4056 2131 
L 4056 0 
L 2931 0 
L 2931 347 
L 2931 1631 
Q 2931 2084 2911 2256 
Q 2891 2428 2841 2509 
Q 2775 2619 2662 2680 
Q 2550 2741 2406 2741 
Q 2056 2741 1856 2470 
Q 1656 2200 1656 1722 
L 1656 0 
L 538 0 
L 538 3500 
L 1656 3500 
L 1656 2988 
Q 1909 3294 2193 3439 
Q 2478 3584 2822 3584 
Q 3428 3584 3742 3212 
Q 4056 2841 4056 2131 
z
" id="DejaVuSans-Bold-6e" transform="scale(0.015625)"/>
     </defs>
     <use xlink:href="#DejaVuSans-Bold-44"/>
     <use x="83.007812" xlink:href="#DejaVuSans-Bold-69"/>
     <use x="117.285156" xlink:href="#DejaVuSans-Bold-73"/>
     <use x="176.806641" xlink:href="#DejaVuSans-Bold-65"/>
     <use x="244.628906" xlink:href="#DejaVuSans-Bold-61"/>
     <use x="312.109375" xlink:href="#DejaVuSans-Bold-73"/>
     <use x="371.630859" xlink:href="#DejaVuSans-Bold-65"/>
     <use x="439.453125" xlink:href="#DejaVuSans-Bold-20"/>
     <use x="474.267578" xlink:href="#DejaVuSans-Bold-74"/>
     <use x="522.070312" xlink:href="#DejaVuSans-Bold-69"/>
     <use x="556.347656" xlink:href="#DejaVuSans-Bold-6d"/>
     <use x="660.546875" xlink:href="#DejaVuSans-Bold-65"/>
     <use x="728.369141" xlink:href="#DejaVuSans-Bold-6c"/>
     <use x="762.646484" xlink:href="#DejaVuSans-Bold-69"/>
     <use x="796.923828" xlink:href="#DejaVuSans-Bold-6e"/>
     <use x="868.115234" xlink:href="#DejaVuSans-Bold-65"/>
    </g>
   </g>
  </g>
  <g id="axes_2">
   <g id="matplotlib.axis_3">
    <g id="ytick_8">
     <g id="line2d_139">
      <defs>
       <path d="M 0 0 
L 6 0 
" id="m8fb632a150" style="stroke:#262626;stroke-width:1.25;"/>
      </defs>
      <g>
       <use style="fill:#262626;stroke:#262626;stroke-width:1.25;" x="798.39425" xlink:href="#m8fb632a150" y="472.187472"/>
      </g>
     </g>
     <g id="text_35">
      <!-- 0 -->
      <g style="fill:#262626;" transform="translate(807.89425 476.366613)scale(0.11 -0.11)">
       <use xlink:href="#DejaVuSans-30"/>
      </g>
     </g>
    </g>
    <g id="ytick_9">
     <g id="line2d_140">
      <g>
       <use style="fill:#262626;stroke:#262626;stroke-width:1.25;" x="798.39425" xlink:href="#m8fb632a150" y="393.578902"/>
      </g>
     </g>
     <g id="text_36">
      <!-- 5000 -->
      <g style="fill:#262626;" transform="translate(807.89425 397.758042)scale(0.11 -0.11)">
       <use xlink:href="#DejaVuSans-35"/>
       <use x="63.623047" xlink:href="#DejaVuSans-30"/>
       <use x="127.246094" xlink:href="#DejaVuSans-30"/>
       <use x="190.869141" xlink:href="#DejaVuSans-30"/>
      </g>
     </g>
    </g>
    <g id="ytick_10">
     <g id="line2d_141">
      <g>
       <use style="fill:#262626;stroke:#262626;stroke-width:1.25;" x="798.39425" xlink:href="#m8fb632a150" y="314.970331"/>
      </g>
     </g>
     <g id="text_37">
      <!-- 10000 -->
      <g style="fill:#262626;" transform="translate(807.89425 319.149472)scale(0.11 -0.11)">
       <use xlink:href="#DejaVuSans-31"/>
       <use x="63.623047" xlink:href="#DejaVuSans-30"/>
       <use x="127.246094" xlink:href="#DejaVuSans-30"/>
       <use x="190.869141" xlink:href="#DejaVuSans-30"/>
       <use x="254.492188" xlink:href="#DejaVuSans-30"/>
      </g>
     </g>
    </g>
    <g id="ytick_11">
     <g id="line2d_142">
      <g>
       <use style="fill:#262626;stroke:#262626;stroke-width:1.25;" x="798.39425" xlink:href="#m8fb632a150" y="236.361761"/>
      </g>
     </g>
     <g id="text_38">
      <!-- 15000 -->
      <g style="fill:#262626;" transform="translate(807.89425 240.540901)scale(0.11 -0.11)">
       <use xlink:href="#DejaVuSans-31"/>
       <use x="63.623047" xlink:href="#DejaVuSans-35"/>
       <use x="127.246094" xlink:href="#DejaVuSans-30"/>
       <use x="190.869141" xlink:href="#DejaVuSans-30"/>
       <use x="254.492188" xlink:href="#DejaVuSans-30"/>
      </g>
     </g>
    </g>
    <g id="ytick_12">
     <g id="line2d_143">
      <g>
       <use style="fill:#262626;stroke:#262626;stroke-width:1.25;" x="798.39425" xlink:href="#m8fb632a150" y="157.75319"/>
      </g>
     </g>
     <g id="text_39">
      <!-- 20000 -->
      <g style="fill:#262626;" transform="translate(807.89425 161.932331)scale(0.11 -0.11)">
       <use xlink:href="#DejaVuSans-32"/>
       <use x="63.623047" xlink:href="#DejaVuSans-30"/>
       <use x="127.246094" xlink:href="#DejaVuSans-30"/>
       <use x="190.869141" xlink:href="#DejaVuSans-30"/>
       <use x="254.492188" xlink:href="#DejaVuSans-30"/>
      </g>
     </g>
    </g>
    <g id="ytick_13">
     <g id="line2d_144">
      <g>
       <use style="fill:#262626;stroke:#262626;stroke-width:1.25;" x="798.39425" xlink:href="#m8fb632a150" y="79.144619"/>
      </g>
     </g>
     <g id="text_40">
      <!-- 25000 -->
      <g style="fill:#262626;" transform="translate(807.89425 83.32376)scale(0.11 -0.11)">
       <use xlink:href="#DejaVuSans-32"/>
       <use x="63.623047" xlink:href="#DejaVuSans-35"/>
       <use x="127.246094" xlink:href="#DejaVuSans-30"/>
       <use x="190.869141" xlink:href="#DejaVuSans-30"/>
       <use x="254.492188" xlink:href="#DejaVuSans-30"/>
      </g>
     </g>
    </g>
    <g id="text_41">
     <!-- Fatalities -->
     <g style="fill:#262626;" transform="translate(853.769875 234.422381)rotate(-270)scale(0.12 -0.12)">
      <defs>
       <path d="M 628 4666 
L 3309 4666 
L 3309 4134 
L 1259 4134 
L 1259 2759 
L 3109 2759 
L 3109 2228 
L 1259 2228 
L 1259 0 
L 628 0 
L 628 4666 
z
" id="DejaVuSans-46" transform="scale(0.015625)"/>
       <path d="M 603 4863 
L 1178 4863 
L 1178 0 
L 603 0 
L 603 4863 
z
" id="DejaVuSans-6c" transform="scale(0.015625)"/>
       <path d="M 603 3500 
L 1178 3500 
L 1178 0 
L 603 0 
L 603 3500 
z
M 603 4863 
L 1178 4863 
L 1178 4134 
L 603 4134 
L 603 4863 
z
" id="DejaVuSans-69" transform="scale(0.015625)"/>
      </defs>
      <use xlink:href="#DejaVuSans-46"/>
      <use x="48.394531" xlink:href="#DejaVuSans-61"/>
      <use x="109.673828" xlink:href="#DejaVuSans-74"/>
      <use x="148.882812" xlink:href="#DejaVuSans-61"/>
      <use x="210.162109" xlink:href="#DejaVuSans-6c"/>
      <use x="237.945312" xlink:href="#DejaVuSans-69"/>
      <use x="265.728516" xlink:href="#DejaVuSans-74"/>
      <use x="304.9375" xlink:href="#DejaVuSans-69"/>
      <use x="332.720703" xlink:href="#DejaVuSans-65"/>
      <use x="394.244141" xlink:href="#DejaVuSans-73"/>
     </g>
    </g>
   </g>
   <g id="line2d_145">
    <path clip-path="url(#p3bf85d0f79)" d="M 100.346614 472.187472 
L 121.79201 472.07742 
L 137.876056 471.731543 
L 144.309675 471.542882 
L 152.887834 471.307056 
L 162.538262 470.929735 
L 166.827341 470.772518 
L 173.26096 470.583857 
L 180.766848 470.222258 
L 191.489546 469.986432 
L 197.923165 469.671998 
L 202.212244 469.561946 
L 207.573593 469.420451 
L 215.079482 468.933077 
L 221.5131 468.744417 
L 247.247576 467.140802 
L 250.464385 466.873533 
L 252.608924 466.732037 
L 262.259353 465.521466 
L 264.403892 465.238475 
L 266.548432 465.159866 
L 269.765241 464.609606 
L 272.982051 464.405224 
L 274.05432 464.358059 
L 276.19886 464.027903 
L 280.487939 463.619138 
L 281.560209 463.619138 
L 282.632479 463.336147 
L 296.571986 461.559594 
L 297.644256 461.543872 
L 299.788795 461.150829 
L 305.150144 460.726343 
L 309.439224 460.349022 
L 313.728303 460.128918 
L 315.872842 459.845927 
L 320.161922 459.500049 
L 328.74008 458.635355 
L 330.88462 458.352364 
L 333.029159 458.179425 
L 334.101429 458.163703 
L 335.173699 457.802104 
L 338.390508 457.346174 
L 341.607317 456.685862 
L 342.679587 456.339984 
L 343.751857 456.167046 
L 344.824127 455.711116 
L 346.968666 455.255186 
L 349.113206 454.987917 
L 350.185476 454.327605 
L 351.257746 453.934562 
L 352.330015 453.36858 
L 355.546825 452.0794 
L 356.619095 451.780687 
L 357.691364 450.97888 
L 359.835904 449.139439 
L 361.980444 447.410051 
L 363.052713 446.529635 
L 364.124983 446.010818 
L 365.197253 444.344317 
L 366.269523 443.086579 
L 367.341793 442.347659 
L 368.414062 441.215695 
L 369.486332 439.87935 
L 371.630872 438.700221 
L 372.703141 436.310521 
L 374.847681 432.411536 
L 376.992221 428.51255 
L 378.06449 427.852238 
L 379.13676 426.908936 
L 380.20903 423.937532 
L 384.498109 414.331564 
L 386.642649 412.224855 
L 387.714919 408.750356 
L 392.003998 399.081502 
L 393.076268 397.839486 
L 394.148537 396.77041 
L 395.220807 393.421685 
L 396.293077 391.126314 
L 398.437617 387.211607 
L 399.509886 384.743298 
L 401.654426 382.762362 
L 403.798966 377.778579 
L 404.871235 374.775732 
L 407.015775 370.059217 
L 409.160315 368.282664 
L 410.232584 365.830076 
L 411.304854 364.037801 
L 412.377124 362.481351 
L 414.521663 360.987788 
L 415.593933 360.201703 
L 416.666203 359.557112 
L 417.738473 358.189323 
L 418.810743 355.768179 
L 419.883012 354.038791 
L 420.955282 353.079766 
L 422.027552 352.639558 
L 424.172092 351.476151 
L 425.244361 349.007842 
L 427.388901 347.026906 
L 429.533441 345.187466 
L 430.60571 344.888753 
L 431.67798 344.432823 
L 432.75025 342.766322 
L 433.82252 342.027401 
L 434.89479 340.926881 
L 435.967059 340.187961 
L 437.039329 339.228936 
L 438.111599 338.961667 
L 439.183869 338.820171 
L 440.256139 337.530991 
L 441.328408 336.760627 
L 442.400678 336.178923 
L 443.472948 334.763969 
L 444.545218 333.85211 
L 446.689757 333.521954 
L 447.762027 332.578651 
L 448.834297 332.012669 
L 450.978837 331.116532 
L 452.051106 330.566272 
L 454.195646 329.984568 
L 455.267916 328.459562 
L 457.412455 327.264712 
L 458.484725 326.415739 
L 459.556995 325.944088 
L 460.629265 325.802592 
L 461.701534 325.488158 
L 462.773804 324.088925 
L 463.846074 323.114179 
L 464.918344 322.406702 
L 467.062883 321.353347 
L 469.207423 320.881696 
L 470.279693 320.142775 
L 471.351963 319.63968 
L 474.568772 317.784518 
L 476.713312 317.265701 
L 477.785581 316.023686 
L 479.930121 314.561567 
L 482.074661 312.957952 
L 483.14693 312.344805 
L 484.2192 311.967484 
L 485.29147 310.128043 
L 486.36374 308.823141 
L 487.43601 308.477263 
L 488.508279 307.015144 
L 489.580549 305.993232 
L 491.725089 305.317199 
L 493.869628 300.789345 
L 497.086438 296.167161 
L 498.158707 295.569736 
L 499.230977 294.767928 
L 500.303247 291.827968 
L 501.375517 290.145745 
L 502.447787 288.007591 
L 503.520056 286.403977 
L 504.592326 284.595979 
L 505.664596 284.061441 
L 506.736866 283.22819 
L 507.809136 280.571221 
L 509.953675 277.033835 
L 512.098215 274.078153 
L 513.170485 273.307789 
L 514.242754 272.364486 
L 515.315024 269.172978 
L 516.387294 266.736112 
L 518.531834 262.884292 
L 519.604103 260.919078 
L 520.676373 259.83428 
L 521.748643 258.545099 
L 522.820913 255.447921 
L 523.893183 253.372655 
L 524.965452 251.548936 
L 527.109992 247.241187 
L 528.182262 246.565153 
L 529.254532 245.511798 
L 530.326801 242.351734 
L 532.471341 238.389862 
L 534.61588 234.789589 
L 535.68815 234.192164 
L 536.76042 233.296026 
L 537.83269 229.884414 
L 542.121769 223.375625 
L 543.194039 222.856808 
L 544.266309 222.102166 
L 545.338578 219.052153 
L 546.410848 217.778694 
L 548.555388 214.854456 
L 549.627658 214.367082 
L 551.772197 212.904963 
L 553.916737 211.065522 
L 554.989007 208.487161 
L 556.061276 208.062675 
L 557.133546 206.710608 
L 558.205816 206.45906 
L 559.278086 206.034574 
L 560.350356 204.210855 
L 561.422625 203.283274 
L 564.639435 201.097956 
L 566.783974 200.846408 
L 567.856244 199.525784 
L 571.073054 197.890726 
L 572.145323 197.46624 
L 575.362133 196.853093 
L 576.434402 195.784016 
L 577.506672 195.218035 
L 579.651212 194.667775 
L 581.795751 194.510558 
L 582.868021 193.913132 
L 585.012561 193.174212 
L 586.084831 192.466735 
L 587.1571 192.183744 
L 589.30164 192.026527 
L 590.37391 191.491988 
L 592.518449 191.208998 
L 593.590719 190.973172 
L 597.879798 190.532964 
L 598.952068 190.265695 
L 601.096608 189.511052 
L 603.241147 189.369557 
L 604.313417 189.353835 
L 607.530227 188.992236 
L 609.674766 188.787854 
L 611.819306 188.772132 
L 615.036115 188.237594 
L 616.108385 188.143263 
L 617.180655 187.891716 
L 619.325194 187.875994 
L 620.397464 187.231404 
L 627.903353 186.932691 
L 630.047892 186.712587 
L 637.553781 186.256658 
L 649.348749 185.81645 
L 655.782367 185.234746 
L 656.854637 185.187581 
L 657.926907 184.825982 
L 658.999177 184.668764 
L 661.143716 184.149948 
L 663.288256 183.866957 
L 664.360526 183.788348 
L 665.432795 183.285254 
L 670.794144 181.854578 
L 671.866414 181.728804 
L 672.938684 180.832666 
L 674.010954 180.31385 
L 675.083224 179.559207 
L 676.155493 179.024669 
L 677.227763 178.348635 
L 678.300033 178.11281 
L 679.372303 177.704045 
L 680.444573 175.990378 
L 683.661382 173.459182 
L 684.733652 172.673097 
L 687.950461 171.132369 
L 689.022731 169.230041 
L 690.095001 168.20813 
L 691.167271 167.390601 
L 692.23954 166.258637 
L 693.31181 166.10142 
L 694.38408 165.268169 
L 695.45635 163.082851 
L 696.52862 161.777949 
L 698.673159 159.702682 
L 699.745429 158.460667 
L 700.817699 157.989016 
L 701.889968 157.312982 
L 702.962238 155.143385 
L 704.034508 154.231526 
L 705.106778 153.80704 
L 706.179048 152.25059 
L 707.251317 151.102905 
L 708.323587 150.69414 
L 709.395857 150.065272 
L 710.468127 147.722736 
L 712.612666 144.987158 
L 713.684936 143.886638 
L 714.757206 142.518849 
L 715.829476 142.110084 
L 716.901746 141.434051 
L 717.974015 138.635586 
L 719.046285 137.000527 
L 722.263095 132.818551 
L 723.335364 132.3469 
L 724.407634 131.718031 
L 725.479904 129.249722 
L 729.768983 123.354079 
L 731.913523 122.002012 
L 732.985793 118.637565 
L 734.058062 116.688073 
L 736.202602 113.119244 
L 737.274872 110.98109 
L 738.347141 110.069231 
L 739.419411 109.440362 
L 740.491681 105.619986 
L 741.563951 103.670493 
L 742.636221 101.249349 
L 743.70849 99.299857 
L 744.78076 96.878713 
L 745.85303 96.155514 
L 746.9253 94.882055 
L 747.99757 90.008324 
L 751.214379 82.996439 
L 752.286649 80.087922 
L 754.431188 77.981212 
L 755.503458 72.73016 
L 756.575728 70.419068 
L 758.720268 64.208991 
L 759.792537 61.457691 
L 760.864807 60.420058 
L 761.937077 59.036547 
L 763.009347 54.697354 
L 764.081617 52.795026 
L 765.153886 50.216665 
L 765.153886 50.216665 
" style="fill:none;stroke:#ff0000;stroke-linecap:round;stroke-width:1.5;"/>
   </g>
   <g id="patch_7">
    <path d="M 67.10625 493.286013 
L 67.10625 29.118125 
" style="fill:none;stroke:#262626;stroke-linecap:square;stroke-linejoin:miter;stroke-width:1.25;"/>
   </g>
   <g id="patch_8">
    <path d="M 798.39425 493.286013 
L 798.39425 29.118125 
" style="fill:none;stroke:#262626;stroke-linecap:square;stroke-linejoin:miter;stroke-width:1.25;"/>
   </g>
   <g id="patch_9">
    <path d="M 67.10625 493.286013 
L 798.39425 493.286013 
" style="fill:none;stroke:#262626;stroke-linecap:square;stroke-linejoin:miter;stroke-width:1.25;"/>
   </g>
   <g id="patch_10">
    <path d="M 67.10625 29.118125 
L 798.39425 29.118125 
" style="fill:none;stroke:#262626;stroke-linecap:square;stroke-linejoin:miter;stroke-width:1.25;"/>
   </g>
   <g id="legend_1">
    <g id="patch_11">
     <path d="M 74.80625 86.355937 
L 154.975625 86.355937 
Q 157.175625 86.355937 157.175625 84.155937 
L 157.175625 36.818125 
Q 157.175625 34.618125 154.975625 34.618125 
L 74.80625 34.618125 
Q 72.60625 34.618125 72.60625 36.818125 
L 72.60625 84.155937 
Q 72.60625 86.355937 74.80625 86.355937 
z
" style="fill:#ffffff;opacity:0.8;stroke:#cccccc;stroke-linejoin:miter;"/>
    </g>
    <g id="line2d_146">
     <path d="M 77.00625 43.526406 
L 99.00625 43.526406 
" style="fill:none;stroke:#ffa500;stroke-linecap:round;stroke-width:1.5;"/>
    </g>
    <g id="line2d_147"/>
    <g id="text_42">
     <!-- Infected -->
     <g style="fill:#262626;" transform="translate(107.80625 47.376406)scale(0.11 -0.11)">
      <defs>
       <path d="M 628 4666 
L 1259 4666 
L 1259 0 
L 628 0 
L 628 4666 
z
" id="DejaVuSans-49" transform="scale(0.015625)"/>
       <path d="M 3513 2113 
L 3513 0 
L 2938 0 
L 2938 2094 
Q 2938 2591 2744 2837 
Q 2550 3084 2163 3084 
Q 1697 3084 1428 2787 
Q 1159 2491 1159 1978 
L 1159 0 
L 581 0 
L 581 3500 
L 1159 3500 
L 1159 2956 
Q 1366 3272 1645 3428 
Q 1925 3584 2291 3584 
Q 2894 3584 3203 3211 
Q 3513 2838 3513 2113 
z
" id="DejaVuSans-6e" transform="scale(0.015625)"/>
       <path d="M 2375 4863 
L 2375 4384 
L 1825 4384 
Q 1516 4384 1395 4259 
Q 1275 4134 1275 3809 
L 1275 3500 
L 2222 3500 
L 2222 3053 
L 1275 3053 
L 1275 0 
L 697 0 
L 697 3053 
L 147 3053 
L 147 3500 
L 697 3500 
L 697 3744 
Q 697 4328 969 4595 
Q 1241 4863 1831 4863 
L 2375 4863 
z
" id="DejaVuSans-66" transform="scale(0.015625)"/>
       <path d="M 3122 3366 
L 3122 2828 
Q 2878 2963 2633 3030 
Q 2388 3097 2138 3097 
Q 1578 3097 1268 2742 
Q 959 2388 959 1747 
Q 959 1106 1268 751 
Q 1578 397 2138 397 
Q 2388 397 2633 464 
Q 2878 531 3122 666 
L 3122 134 
Q 2881 22 2623 -34 
Q 2366 -91 2075 -91 
Q 1284 -91 818 406 
Q 353 903 353 1747 
Q 353 2603 823 3093 
Q 1294 3584 2113 3584 
Q 2378 3584 2631 3529 
Q 2884 3475 3122 3366 
z
" id="DejaVuSans-63" transform="scale(0.015625)"/>
      </defs>
      <use xlink:href="#DejaVuSans-49"/>
      <use x="29.492188" xlink:href="#DejaVuSans-6e"/>
      <use x="92.871094" xlink:href="#DejaVuSans-66"/>
      <use x="128.076172" xlink:href="#DejaVuSans-65"/>
      <use x="189.599609" xlink:href="#DejaVuSans-63"/>
      <use x="244.580078" xlink:href="#DejaVuSans-74"/>
      <use x="283.789062" xlink:href="#DejaVuSans-65"/>
      <use x="345.3125" xlink:href="#DejaVuSans-64"/>
     </g>
    </g>
    <g id="line2d_148">
     <path d="M 77.00625 59.672344 
L 99.00625 59.672344 
" style="fill:none;stroke:#008000;stroke-linecap:round;stroke-width:1.5;"/>
    </g>
    <g id="line2d_149"/>
    <g id="text_43">
     <!-- Cured -->
     <g style="fill:#262626;" transform="translate(107.80625 63.522344)scale(0.11 -0.11)">
      <defs>
       <path d="M 2631 2963 
Q 2534 3019 2420 3045 
Q 2306 3072 2169 3072 
Q 1681 3072 1420 2755 
Q 1159 2438 1159 1844 
L 1159 0 
L 581 0 
L 581 3500 
L 1159 3500 
L 1159 2956 
Q 1341 3275 1631 3429 
Q 1922 3584 2338 3584 
Q 2397 3584 2469 3576 
Q 2541 3569 2628 3553 
L 2631 2963 
z
" id="DejaVuSans-72" transform="scale(0.015625)"/>
      </defs>
      <use xlink:href="#DejaVuSans-43"/>
      <use x="69.824219" xlink:href="#DejaVuSans-75"/>
      <use x="133.203125" xlink:href="#DejaVuSans-72"/>
      <use x="172.066406" xlink:href="#DejaVuSans-65"/>
      <use x="233.589844" xlink:href="#DejaVuSans-64"/>
     </g>
    </g>
    <g id="line2d_150">
     <path d="M 77.00625 75.818281 
L 99.00625 75.818281 
" style="fill:none;stroke:#ff0000;stroke-linecap:round;stroke-width:1.5;"/>
    </g>
    <g id="line2d_151"/>
    <g id="text_44">
     <!-- Fatal -->
     <g style="fill:#262626;" transform="translate(107.80625 79.668281)scale(0.11 -0.11)">
      <use xlink:href="#DejaVuSans-46"/>
      <use x="48.394531" xlink:href="#DejaVuSans-61"/>
      <use x="109.673828" xlink:href="#DejaVuSans-74"/>
      <use x="148.882812" xlink:href="#DejaVuSans-61"/>
      <use x="210.162109" xlink:href="#DejaVuSans-6c"/>
     </g>
    </g>
   </g>
  </g>
 </g>
 <defs>
  <clipPath id="p3bf85d0f79">
   <rect height="464.167888" width="731.288" x="67.10625" y="29.118125"/>
  </clipPath>
 </defs>
</svg>
