<?xml version="1.0" encoding="utf-8" standalone="no"?>
<!DOCTYPE svg PUBLIC "-//W3C//DTD SVG 1.1//EN"
  "http://www.w3.org/Graphics/SVG/1.1/DTD/svg11.dtd">
<svg height="570.462488pt" version="1.1" viewBox="0 0 862.888 570.462488" width="862.888pt" xmlns="http://www.w3.org/2000/svg" xmlns:xlink="http://www.w3.org/1999/xlink">
 <metadata>
  <rdf:RDF xmlns:cc="http://creativecommons.org/ns#" xmlns:dc="http://purl.org/dc/elements/1.1/" xmlns:rdf="http://www.w3.org/1999/02/22-rdf-syntax-ns#">
   <cc:Work>
    <dc:type rdf:resource="http://purl.org/dc/dcmitype/StillImage"/>
    <dc:date>2021-11-01T02:23:39.756622</dc:date>
    <dc:format>image/svg+xml</dc:format>
    <dc:creator>
     <cc:Agent>
      <dc:title>Matplotlib v3.4.3, https://matplotlib.org/</dc:title>
     </cc:Agent>
    </dc:creator>
   </cc:Work>
  </rdf:RDF>
 </metadata>
 <defs>
  <style type="text/css">*{stroke-linecap:butt;stroke-linejoin:round;}</style>
 </defs>
 <g id="figure_1">
  <g id="patch_1">
   <path d="M 0 570.462488 
L 862.888 570.462488 
L 862.888 0 
L 0 0 
z
" style="fill:none;"/>
  </g>
  <g id="axes_1">
   <g id="patch_2">
    <path d="M 67.10625 493.286013 
L 798.39425 493.286013 
L 798.39425 29.118125 
L 67.10625 29.118125 
z
" style="fill:none;"/>
   </g>
   <g id="matplotlib.axis_1">
    <g id="xtick_1">
     <g id="line2d_1">
      <path clip-path="url(#p9e35224ca7)" d="M 100.346614 493.286013 
L 100.346614 29.118125 
" style="fill:none;stroke:#cccccc;stroke-linecap:round;"/>
     </g>
     <g id="line2d_2">
      <defs>
       <path d="M 0 0 
L 0 6 
" id="m61a2f4ae03" style="stroke:#262626;stroke-width:1.25;"/>
      </defs>
      <g>
       <use style="fill:#262626;stroke:#262626;stroke-width:1.25;" x="100.346614" xlink:href="#m61a2f4ae03" y="493.286013"/>
      </g>
     </g>
     <g id="text_1">
      <!-- 07.03.2020 -->
      <g style="fill:#262626;" transform="translate(54.194085 553.231121)rotate(-45)scale(0.11 -0.11)">
       <defs>
        <path d="M 2034 4250 
Q 1547 4250 1301 3770 
Q 1056 3291 1056 2328 
Q 1056 1369 1301 889 
Q 1547 409 2034 409 
Q 2525 409 2770 889 
Q 3016 1369 3016 2328 
Q 3016 3291 2770 3770 
Q 2525 4250 2034 4250 
z
M 2034 4750 
Q 2819 4750 3233 4129 
Q 3647 3509 3647 2328 
Q 3647 1150 3233 529 
Q 2819 -91 2034 -91 
Q 1250 -91 836 529 
Q 422 1150 422 2328 
Q 422 3509 836 4129 
Q 1250 4750 2034 4750 
z
" id="DejaVuSans-30" transform="scale(0.015625)"/>
        <path d="M 525 4666 
L 3525 4666 
L 3525 4397 
L 1831 0 
L 1172 0 
L 2766 4134 
L 525 4134 
L 525 4666 
z
" id="DejaVuSans-37" transform="scale(0.015625)"/>
        <path d="M 684 794 
L 1344 794 
L 1344 0 
L 684 0 
L 684 794 
z
" id="DejaVuSans-2e" transform="scale(0.015625)"/>
        <path d="M 2597 2516 
Q 3050 2419 3304 2112 
Q 3559 1806 3559 1356 
Q 3559 666 3084 287 
Q 2609 -91 1734 -91 
Q 1441 -91 1130 -33 
Q 819 25 488 141 
L 488 750 
Q 750 597 1062 519 
Q 1375 441 1716 441 
Q 2309 441 2620 675 
Q 2931 909 2931 1356 
Q 2931 1769 2642 2001 
Q 2353 2234 1838 2234 
L 1294 2234 
L 1294 2753 
L 1863 2753 
Q 2328 2753 2575 2939 
Q 2822 3125 2822 3475 
Q 2822 3834 2567 4026 
Q 2313 4219 1838 4219 
Q 1578 4219 1281 4162 
Q 984 4106 628 3988 
L 628 4550 
Q 988 4650 1302 4700 
Q 1616 4750 1894 4750 
Q 2613 4750 3031 4423 
Q 3450 4097 3450 3541 
Q 3450 3153 3228 2886 
Q 3006 2619 2597 2516 
z
" id="DejaVuSans-33" transform="scale(0.015625)"/>
        <path d="M 1228 531 
L 3431 531 
L 3431 0 
L 469 0 
L 469 531 
Q 828 903 1448 1529 
Q 2069 2156 2228 2338 
Q 2531 2678 2651 2914 
Q 2772 3150 2772 3378 
Q 2772 3750 2511 3984 
Q 2250 4219 1831 4219 
Q 1534 4219 1204 4116 
Q 875 4013 500 3803 
L 500 4441 
Q 881 4594 1212 4672 
Q 1544 4750 1819 4750 
Q 2544 4750 2975 4387 
Q 3406 4025 3406 3419 
Q 3406 3131 3298 2873 
Q 3191 2616 2906 2266 
Q 2828 2175 2409 1742 
Q 1991 1309 1228 531 
z
" id="DejaVuSans-32" transform="scale(0.015625)"/>
       </defs>
       <use xlink:href="#DejaVuSans-30"/>
       <use x="63.623047" xlink:href="#DejaVuSans-37"/>
       <use x="127.246094" xlink:href="#DejaVuSans-2e"/>
       <use x="159.033203" xlink:href="#DejaVuSans-30"/>
       <use x="222.65625" xlink:href="#DejaVuSans-33"/>
       <use x="286.279297" xlink:href="#DejaVuSans-2e"/>
       <use x="318.066406" xlink:href="#DejaVuSans-32"/>
       <use x="381.689453" xlink:href="#DejaVuSans-30"/>
       <use x="445.3125" xlink:href="#DejaVuSans-32"/>
       <use x="508.935547" xlink:href="#DejaVuSans-30"/>
      </g>
     </g>
    </g>
    <g id="xtick_2">
     <g id="line2d_3">
      <path clip-path="url(#p9e35224ca7)" d="M 131.216603 493.286013 
L 131.216603 29.118125 
" style="fill:none;stroke:#cccccc;stroke-linecap:round;"/>
     </g>
     <g id="line2d_4">
      <g>
       <use style="fill:#262626;stroke:#262626;stroke-width:1.25;" x="131.216603" xlink:href="#m61a2f4ae03" y="493.286013"/>
      </g>
     </g>
     <g id="text_2">
      <!-- 04.04.2020 -->
      <g style="fill:#262626;" transform="translate(85.064075 553.231121)rotate(-45)scale(0.11 -0.11)">
       <defs>
        <path d="M 2419 4116 
L 825 1625 
L 2419 1625 
L 2419 4116 
z
M 2253 4666 
L 3047 4666 
L 3047 1625 
L 3713 1625 
L 3713 1100 
L 3047 1100 
L 3047 0 
L 2419 0 
L 2419 1100 
L 313 1100 
L 313 1709 
L 2253 4666 
z
" id="DejaVuSans-34" transform="scale(0.015625)"/>
       </defs>
       <use xlink:href="#DejaVuSans-30"/>
       <use x="63.623047" xlink:href="#DejaVuSans-34"/>
       <use x="127.246094" xlink:href="#DejaVuSans-2e"/>
       <use x="159.033203" xlink:href="#DejaVuSans-30"/>
       <use x="222.65625" xlink:href="#DejaVuSans-34"/>
       <use x="286.279297" xlink:href="#DejaVuSans-2e"/>
       <use x="318.066406" xlink:href="#DejaVuSans-32"/>
       <use x="381.689453" xlink:href="#DejaVuSans-30"/>
       <use x="445.3125" xlink:href="#DejaVuSans-32"/>
       <use x="508.935547" xlink:href="#DejaVuSans-30"/>
      </g>
     </g>
    </g>
    <g id="xtick_3">
     <g id="line2d_5">
      <path clip-path="url(#p9e35224ca7)" d="M 162.086593 493.286013 
L 162.086593 29.118125 
" style="fill:none;stroke:#cccccc;stroke-linecap:round;"/>
     </g>
     <g id="line2d_6">
      <g>
       <use style="fill:#262626;stroke:#262626;stroke-width:1.25;" x="162.086593" xlink:href="#m61a2f4ae03" y="493.286013"/>
      </g>
     </g>
     <g id="text_3">
      <!-- 02.05.2020 -->
      <g style="fill:#262626;" transform="translate(115.934064 553.231121)rotate(-45)scale(0.11 -0.11)">
       <defs>
        <path d="M 691 4666 
L 3169 4666 
L 3169 4134 
L 1269 4134 
L 1269 2991 
Q 1406 3038 1543 3061 
Q 1681 3084 1819 3084 
Q 2600 3084 3056 2656 
Q 3513 2228 3513 1497 
Q 3513 744 3044 326 
Q 2575 -91 1722 -91 
Q 1428 -91 1123 -41 
Q 819 9 494 109 
L 494 744 
Q 775 591 1075 516 
Q 1375 441 1709 441 
Q 2250 441 2565 725 
Q 2881 1009 2881 1497 
Q 2881 1984 2565 2268 
Q 2250 2553 1709 2553 
Q 1456 2553 1204 2497 
Q 953 2441 691 2322 
L 691 4666 
z
" id="DejaVuSans-35" transform="scale(0.015625)"/>
       </defs>
       <use xlink:href="#DejaVuSans-30"/>
       <use x="63.623047" xlink:href="#DejaVuSans-32"/>
       <use x="127.246094" xlink:href="#DejaVuSans-2e"/>
       <use x="159.033203" xlink:href="#DejaVuSans-30"/>
       <use x="222.65625" xlink:href="#DejaVuSans-35"/>
       <use x="286.279297" xlink:href="#DejaVuSans-2e"/>
       <use x="318.066406" xlink:href="#DejaVuSans-32"/>
       <use x="381.689453" xlink:href="#DejaVuSans-30"/>
       <use x="445.3125" xlink:href="#DejaVuSans-32"/>
       <use x="508.935547" xlink:href="#DejaVuSans-30"/>
      </g>
     </g>
    </g>
    <g id="xtick_4">
     <g id="line2d_7">
      <path clip-path="url(#p9e35224ca7)" d="M 192.956582 493.286013 
L 192.956582 29.118125 
" style="fill:none;stroke:#cccccc;stroke-linecap:round;"/>
     </g>
     <g id="line2d_8">
      <g>
       <use style="fill:#262626;stroke:#262626;stroke-width:1.25;" x="192.956582" xlink:href="#m61a2f4ae03" y="493.286013"/>
      </g>
     </g>
     <g id="text_4">
      <!-- 30.05.2020 -->
      <g style="fill:#262626;" transform="translate(146.804054 553.231121)rotate(-45)scale(0.11 -0.11)">
       <use xlink:href="#DejaVuSans-33"/>
       <use x="63.623047" xlink:href="#DejaVuSans-30"/>
       <use x="127.246094" xlink:href="#DejaVuSans-2e"/>
       <use x="159.033203" xlink:href="#DejaVuSans-30"/>
       <use x="222.65625" xlink:href="#DejaVuSans-35"/>
       <use x="286.279297" xlink:href="#DejaVuSans-2e"/>
       <use x="318.066406" xlink:href="#DejaVuSans-32"/>
       <use x="381.689453" xlink:href="#DejaVuSans-30"/>
       <use x="445.3125" xlink:href="#DejaVuSans-32"/>
       <use x="508.935547" xlink:href="#DejaVuSans-30"/>
      </g>
     </g>
    </g>
    <g id="xtick_5">
     <g id="line2d_9">
      <path clip-path="url(#p9e35224ca7)" d="M 223.826571 493.286013 
L 223.826571 29.118125 
" style="fill:none;stroke:#cccccc;stroke-linecap:round;"/>
     </g>
     <g id="line2d_10">
      <g>
       <use style="fill:#262626;stroke:#262626;stroke-width:1.25;" x="223.826571" xlink:href="#m61a2f4ae03" y="493.286013"/>
      </g>
     </g>
     <g id="text_5">
      <!-- 27.06.2020 -->
      <g style="fill:#262626;" transform="translate(177.674043 553.231121)rotate(-45)scale(0.11 -0.11)">
       <defs>
        <path d="M 2113 2584 
Q 1688 2584 1439 2293 
Q 1191 2003 1191 1497 
Q 1191 994 1439 701 
Q 1688 409 2113 409 
Q 2538 409 2786 701 
Q 3034 994 3034 1497 
Q 3034 2003 2786 2293 
Q 2538 2584 2113 2584 
z
M 3366 4563 
L 3366 3988 
Q 3128 4100 2886 4159 
Q 2644 4219 2406 4219 
Q 1781 4219 1451 3797 
Q 1122 3375 1075 2522 
Q 1259 2794 1537 2939 
Q 1816 3084 2150 3084 
Q 2853 3084 3261 2657 
Q 3669 2231 3669 1497 
Q 3669 778 3244 343 
Q 2819 -91 2113 -91 
Q 1303 -91 875 529 
Q 447 1150 447 2328 
Q 447 3434 972 4092 
Q 1497 4750 2381 4750 
Q 2619 4750 2861 4703 
Q 3103 4656 3366 4563 
z
" id="DejaVuSans-36" transform="scale(0.015625)"/>
       </defs>
       <use xlink:href="#DejaVuSans-32"/>
       <use x="63.623047" xlink:href="#DejaVuSans-37"/>
       <use x="127.246094" xlink:href="#DejaVuSans-2e"/>
       <use x="159.033203" xlink:href="#DejaVuSans-30"/>
       <use x="222.65625" xlink:href="#DejaVuSans-36"/>
       <use x="286.279297" xlink:href="#DejaVuSans-2e"/>
       <use x="318.066406" xlink:href="#DejaVuSans-32"/>
       <use x="381.689453" xlink:href="#DejaVuSans-30"/>
       <use x="445.3125" xlink:href="#DejaVuSans-32"/>
       <use x="508.935547" xlink:href="#DejaVuSans-30"/>
      </g>
     </g>
    </g>
    <g id="xtick_6">
     <g id="line2d_11">
      <path clip-path="url(#p9e35224ca7)" d="M 254.696561 493.286013 
L 254.696561 29.118125 
" style="fill:none;stroke:#cccccc;stroke-linecap:round;"/>
     </g>
     <g id="line2d_12">
      <g>
       <use style="fill:#262626;stroke:#262626;stroke-width:1.25;" x="254.696561" xlink:href="#m61a2f4ae03" y="493.286013"/>
      </g>
     </g>
     <g id="text_6">
      <!-- 25.07.2020 -->
      <g style="fill:#262626;" transform="translate(208.544033 553.231121)rotate(-45)scale(0.11 -0.11)">
       <use xlink:href="#DejaVuSans-32"/>
       <use x="63.623047" xlink:href="#DejaVuSans-35"/>
       <use x="127.246094" xlink:href="#DejaVuSans-2e"/>
       <use x="159.033203" xlink:href="#DejaVuSans-30"/>
       <use x="222.65625" xlink:href="#DejaVuSans-37"/>
       <use x="286.279297" xlink:href="#DejaVuSans-2e"/>
       <use x="318.066406" xlink:href="#DejaVuSans-32"/>
       <use x="381.689453" xlink:href="#DejaVuSans-30"/>
       <use x="445.3125" xlink:href="#DejaVuSans-32"/>
       <use x="508.935547" xlink:href="#DejaVuSans-30"/>
      </g>
     </g>
    </g>
    <g id="xtick_7">
     <g id="line2d_13">
      <path clip-path="url(#p9e35224ca7)" d="M 285.56655 493.286013 
L 285.56655 29.118125 
" style="fill:none;stroke:#cccccc;stroke-linecap:round;"/>
     </g>
     <g id="line2d_14">
      <g>
       <use style="fill:#262626;stroke:#262626;stroke-width:1.25;" x="285.56655" xlink:href="#m61a2f4ae03" y="493.286013"/>
      </g>
     </g>
     <g id="text_7">
      <!-- 22.08.2020 -->
      <g style="fill:#262626;" transform="translate(239.414022 553.231121)rotate(-45)scale(0.11 -0.11)">
       <defs>
        <path d="M 2034 2216 
Q 1584 2216 1326 1975 
Q 1069 1734 1069 1313 
Q 1069 891 1326 650 
Q 1584 409 2034 409 
Q 2484 409 2743 651 
Q 3003 894 3003 1313 
Q 3003 1734 2745 1975 
Q 2488 2216 2034 2216 
z
M 1403 2484 
Q 997 2584 770 2862 
Q 544 3141 544 3541 
Q 544 4100 942 4425 
Q 1341 4750 2034 4750 
Q 2731 4750 3128 4425 
Q 3525 4100 3525 3541 
Q 3525 3141 3298 2862 
Q 3072 2584 2669 2484 
Q 3125 2378 3379 2068 
Q 3634 1759 3634 1313 
Q 3634 634 3220 271 
Q 2806 -91 2034 -91 
Q 1263 -91 848 271 
Q 434 634 434 1313 
Q 434 1759 690 2068 
Q 947 2378 1403 2484 
z
M 1172 3481 
Q 1172 3119 1398 2916 
Q 1625 2713 2034 2713 
Q 2441 2713 2670 2916 
Q 2900 3119 2900 3481 
Q 2900 3844 2670 4047 
Q 2441 4250 2034 4250 
Q 1625 4250 1398 4047 
Q 1172 3844 1172 3481 
z
" id="DejaVuSans-38" transform="scale(0.015625)"/>
       </defs>
       <use xlink:href="#DejaVuSans-32"/>
       <use x="63.623047" xlink:href="#DejaVuSans-32"/>
       <use x="127.246094" xlink:href="#DejaVuSans-2e"/>
       <use x="159.033203" xlink:href="#DejaVuSans-30"/>
       <use x="222.65625" xlink:href="#DejaVuSans-38"/>
       <use x="286.279297" xlink:href="#DejaVuSans-2e"/>
       <use x="318.066406" xlink:href="#DejaVuSans-32"/>
       <use x="381.689453" xlink:href="#DejaVuSans-30"/>
       <use x="445.3125" xlink:href="#DejaVuSans-32"/>
       <use x="508.935547" xlink:href="#DejaVuSans-30"/>
      </g>
     </g>
    </g>
    <g id="xtick_8">
     <g id="line2d_15">
      <path clip-path="url(#p9e35224ca7)" d="M 316.43654 493.286013 
L 316.43654 29.118125 
" style="fill:none;stroke:#cccccc;stroke-linecap:round;"/>
     </g>
     <g id="line2d_16">
      <g>
       <use style="fill:#262626;stroke:#262626;stroke-width:1.25;" x="316.43654" xlink:href="#m61a2f4ae03" y="493.286013"/>
      </g>
     </g>
     <g id="text_8">
      <!-- 19.09.2020 -->
      <g style="fill:#262626;" transform="translate(270.284012 553.231121)rotate(-45)scale(0.11 -0.11)">
       <defs>
        <path d="M 794 531 
L 1825 531 
L 1825 4091 
L 703 3866 
L 703 4441 
L 1819 4666 
L 2450 4666 
L 2450 531 
L 3481 531 
L 3481 0 
L 794 0 
L 794 531 
z
" id="DejaVuSans-31" transform="scale(0.015625)"/>
        <path d="M 703 97 
L 703 672 
Q 941 559 1184 500 
Q 1428 441 1663 441 
Q 2288 441 2617 861 
Q 2947 1281 2994 2138 
Q 2813 1869 2534 1725 
Q 2256 1581 1919 1581 
Q 1219 1581 811 2004 
Q 403 2428 403 3163 
Q 403 3881 828 4315 
Q 1253 4750 1959 4750 
Q 2769 4750 3195 4129 
Q 3622 3509 3622 2328 
Q 3622 1225 3098 567 
Q 2575 -91 1691 -91 
Q 1453 -91 1209 -44 
Q 966 3 703 97 
z
M 1959 2075 
Q 2384 2075 2632 2365 
Q 2881 2656 2881 3163 
Q 2881 3666 2632 3958 
Q 2384 4250 1959 4250 
Q 1534 4250 1286 3958 
Q 1038 3666 1038 3163 
Q 1038 2656 1286 2365 
Q 1534 2075 1959 2075 
z
" id="DejaVuSans-39" transform="scale(0.015625)"/>
       </defs>
       <use xlink:href="#DejaVuSans-31"/>
       <use x="63.623047" xlink:href="#DejaVuSans-39"/>
       <use x="127.246094" xlink:href="#DejaVuSans-2e"/>
       <use x="159.033203" xlink:href="#DejaVuSans-30"/>
       <use x="222.65625" xlink:href="#DejaVuSans-39"/>
       <use x="286.279297" xlink:href="#DejaVuSans-2e"/>
       <use x="318.066406" xlink:href="#DejaVuSans-32"/>
       <use x="381.689453" xlink:href="#DejaVuSans-30"/>
       <use x="445.3125" xlink:href="#DejaVuSans-32"/>
       <use x="508.935547" xlink:href="#DejaVuSans-30"/>
      </g>
     </g>
    </g>
    <g id="xtick_9">
     <g id="line2d_17">
      <path clip-path="url(#p9e35224ca7)" d="M 347.306529 493.286013 
L 347.306529 29.118125 
" style="fill:none;stroke:#cccccc;stroke-linecap:round;"/>
     </g>
     <g id="line2d_18">
      <g>
       <use style="fill:#262626;stroke:#262626;stroke-width:1.25;" x="347.306529" xlink:href="#m61a2f4ae03" y="493.286013"/>
      </g>
     </g>
     <g id="text_9">
      <!-- 17.10.2020 -->
      <g style="fill:#262626;" transform="translate(301.154001 553.231121)rotate(-45)scale(0.11 -0.11)">
       <use xlink:href="#DejaVuSans-31"/>
       <use x="63.623047" xlink:href="#DejaVuSans-37"/>
       <use x="127.246094" xlink:href="#DejaVuSans-2e"/>
       <use x="159.033203" xlink:href="#DejaVuSans-31"/>
       <use x="222.65625" xlink:href="#DejaVuSans-30"/>
       <use x="286.279297" xlink:href="#DejaVuSans-2e"/>
       <use x="318.066406" xlink:href="#DejaVuSans-32"/>
       <use x="381.689453" xlink:href="#DejaVuSans-30"/>
       <use x="445.3125" xlink:href="#DejaVuSans-32"/>
       <use x="508.935547" xlink:href="#DejaVuSans-30"/>
      </g>
     </g>
    </g>
    <g id="xtick_10">
     <g id="line2d_19">
      <path clip-path="url(#p9e35224ca7)" d="M 378.176519 493.286013 
L 378.176519 29.118125 
" style="fill:none;stroke:#cccccc;stroke-linecap:round;"/>
     </g>
     <g id="line2d_20">
      <g>
       <use style="fill:#262626;stroke:#262626;stroke-width:1.25;" x="378.176519" xlink:href="#m61a2f4ae03" y="493.286013"/>
      </g>
     </g>
     <g id="text_10">
      <!-- 14.11.2020 -->
      <g style="fill:#262626;" transform="translate(332.023991 553.231121)rotate(-45)scale(0.11 -0.11)">
       <use xlink:href="#DejaVuSans-31"/>
       <use x="63.623047" xlink:href="#DejaVuSans-34"/>
       <use x="127.246094" xlink:href="#DejaVuSans-2e"/>
       <use x="159.033203" xlink:href="#DejaVuSans-31"/>
       <use x="222.65625" xlink:href="#DejaVuSans-31"/>
       <use x="286.279297" xlink:href="#DejaVuSans-2e"/>
       <use x="318.066406" xlink:href="#DejaVuSans-32"/>
       <use x="381.689453" xlink:href="#DejaVuSans-30"/>
       <use x="445.3125" xlink:href="#DejaVuSans-32"/>
       <use x="508.935547" xlink:href="#DejaVuSans-30"/>
      </g>
     </g>
    </g>
    <g id="xtick_11">
     <g id="line2d_21">
      <path clip-path="url(#p9e35224ca7)" d="M 409.046508 493.286013 
L 409.046508 29.118125 
" style="fill:none;stroke:#cccccc;stroke-linecap:round;"/>
     </g>
     <g id="line2d_22">
      <g>
       <use style="fill:#262626;stroke:#262626;stroke-width:1.25;" x="409.046508" xlink:href="#m61a2f4ae03" y="493.286013"/>
      </g>
     </g>
     <g id="text_11">
      <!-- 12.12.2020 -->
      <g style="fill:#262626;" transform="translate(362.89398 553.231121)rotate(-45)scale(0.11 -0.11)">
       <use xlink:href="#DejaVuSans-31"/>
       <use x="63.623047" xlink:href="#DejaVuSans-32"/>
       <use x="127.246094" xlink:href="#DejaVuSans-2e"/>
       <use x="159.033203" xlink:href="#DejaVuSans-31"/>
       <use x="222.65625" xlink:href="#DejaVuSans-32"/>
       <use x="286.279297" xlink:href="#DejaVuSans-2e"/>
       <use x="318.066406" xlink:href="#DejaVuSans-32"/>
       <use x="381.689453" xlink:href="#DejaVuSans-30"/>
       <use x="445.3125" xlink:href="#DejaVuSans-32"/>
       <use x="508.935547" xlink:href="#DejaVuSans-30"/>
      </g>
     </g>
    </g>
    <g id="xtick_12">
     <g id="line2d_23">
      <path clip-path="url(#p9e35224ca7)" d="M 439.916498 493.286013 
L 439.916498 29.118125 
" style="fill:none;stroke:#cccccc;stroke-linecap:round;"/>
     </g>
     <g id="line2d_24">
      <g>
       <use style="fill:#262626;stroke:#262626;stroke-width:1.25;" x="439.916498" xlink:href="#m61a2f4ae03" y="493.286013"/>
      </g>
     </g>
     <g id="text_12">
      <!-- 09.01.2021 -->
      <g style="fill:#262626;" transform="translate(393.763969 553.231121)rotate(-45)scale(0.11 -0.11)">
       <use xlink:href="#DejaVuSans-30"/>
       <use x="63.623047" xlink:href="#DejaVuSans-39"/>
       <use x="127.246094" xlink:href="#DejaVuSans-2e"/>
       <use x="159.033203" xlink:href="#DejaVuSans-30"/>
       <use x="222.65625" xlink:href="#DejaVuSans-31"/>
       <use x="286.279297" xlink:href="#DejaVuSans-2e"/>
       <use x="318.066406" xlink:href="#DejaVuSans-32"/>
       <use x="381.689453" xlink:href="#DejaVuSans-30"/>
       <use x="445.3125" xlink:href="#DejaVuSans-32"/>
       <use x="508.935547" xlink:href="#DejaVuSans-31"/>
      </g>
     </g>
    </g>
    <g id="xtick_13">
     <g id="line2d_25">
      <path clip-path="url(#p9e35224ca7)" d="M 470.786487 493.286013 
L 470.786487 29.118125 
" style="fill:none;stroke:#cccccc;stroke-linecap:round;"/>
     </g>
     <g id="line2d_26">
      <g>
       <use style="fill:#262626;stroke:#262626;stroke-width:1.25;" x="470.786487" xlink:href="#m61a2f4ae03" y="493.286013"/>
      </g>
     </g>
     <g id="text_13">
      <!-- 06.02.2021 -->
      <g style="fill:#262626;" transform="translate(424.633959 553.231121)rotate(-45)scale(0.11 -0.11)">
       <use xlink:href="#DejaVuSans-30"/>
       <use x="63.623047" xlink:href="#DejaVuSans-36"/>
       <use x="127.246094" xlink:href="#DejaVuSans-2e"/>
       <use x="159.033203" xlink:href="#DejaVuSans-30"/>
       <use x="222.65625" xlink:href="#DejaVuSans-32"/>
       <use x="286.279297" xlink:href="#DejaVuSans-2e"/>
       <use x="318.066406" xlink:href="#DejaVuSans-32"/>
       <use x="381.689453" xlink:href="#DejaVuSans-30"/>
       <use x="445.3125" xlink:href="#DejaVuSans-32"/>
       <use x="508.935547" xlink:href="#DejaVuSans-31"/>
      </g>
     </g>
    </g>
    <g id="xtick_14">
     <g id="line2d_27">
      <path clip-path="url(#p9e35224ca7)" d="M 501.656476 493.286013 
L 501.656476 29.118125 
" style="fill:none;stroke:#cccccc;stroke-linecap:round;"/>
     </g>
     <g id="line2d_28">
      <g>
       <use style="fill:#262626;stroke:#262626;stroke-width:1.25;" x="501.656476" xlink:href="#m61a2f4ae03" y="493.286013"/>
      </g>
     </g>
     <g id="text_14">
      <!-- 06.03.2021 -->
      <g style="fill:#262626;" transform="translate(455.503948 553.231121)rotate(-45)scale(0.11 -0.11)">
       <use xlink:href="#DejaVuSans-30"/>
       <use x="63.623047" xlink:href="#DejaVuSans-36"/>
       <use x="127.246094" xlink:href="#DejaVuSans-2e"/>
       <use x="159.033203" xlink:href="#DejaVuSans-30"/>
       <use x="222.65625" xlink:href="#DejaVuSans-33"/>
       <use x="286.279297" xlink:href="#DejaVuSans-2e"/>
       <use x="318.066406" xlink:href="#DejaVuSans-32"/>
       <use x="381.689453" xlink:href="#DejaVuSans-30"/>
       <use x="445.3125" xlink:href="#DejaVuSans-32"/>
       <use x="508.935547" xlink:href="#DejaVuSans-31"/>
      </g>
     </g>
    </g>
    <g id="xtick_15">
     <g id="line2d_29">
      <path clip-path="url(#p9e35224ca7)" d="M 532.526466 493.286013 
L 532.526466 29.118125 
" style="fill:none;stroke:#cccccc;stroke-linecap:round;"/>
     </g>
     <g id="line2d_30">
      <g>
       <use style="fill:#262626;stroke:#262626;stroke-width:1.25;" x="532.526466" xlink:href="#m61a2f4ae03" y="493.286013"/>
      </g>
     </g>
     <g id="text_15">
      <!-- 03.04.2021 -->
      <g style="fill:#262626;" transform="translate(486.373938 553.231121)rotate(-45)scale(0.11 -0.11)">
       <use xlink:href="#DejaVuSans-30"/>
       <use x="63.623047" xlink:href="#DejaVuSans-33"/>
       <use x="127.246094" xlink:href="#DejaVuSans-2e"/>
       <use x="159.033203" xlink:href="#DejaVuSans-30"/>
       <use x="222.65625" xlink:href="#DejaVuSans-34"/>
       <use x="286.279297" xlink:href="#DejaVuSans-2e"/>
       <use x="318.066406" xlink:href="#DejaVuSans-32"/>
       <use x="381.689453" xlink:href="#DejaVuSans-30"/>
       <use x="445.3125" xlink:href="#DejaVuSans-32"/>
       <use x="508.935547" xlink:href="#DejaVuSans-31"/>
      </g>
     </g>
    </g>
    <g id="xtick_16">
     <g id="line2d_31">
      <path clip-path="url(#p9e35224ca7)" d="M 563.396455 493.286013 
L 563.396455 29.118125 
" style="fill:none;stroke:#cccccc;stroke-linecap:round;"/>
     </g>
     <g id="line2d_32">
      <g>
       <use style="fill:#262626;stroke:#262626;stroke-width:1.25;" x="563.396455" xlink:href="#m61a2f4ae03" y="493.286013"/>
      </g>
     </g>
     <g id="text_16">
      <!-- 01.05.2021 -->
      <g style="fill:#262626;" transform="translate(517.243927 553.231121)rotate(-45)scale(0.11 -0.11)">
       <use xlink:href="#DejaVuSans-30"/>
       <use x="63.623047" xlink:href="#DejaVuSans-31"/>
       <use x="127.246094" xlink:href="#DejaVuSans-2e"/>
       <use x="159.033203" xlink:href="#DejaVuSans-30"/>
       <use x="222.65625" xlink:href="#DejaVuSans-35"/>
       <use x="286.279297" xlink:href="#DejaVuSans-2e"/>
       <use x="318.066406" xlink:href="#DejaVuSans-32"/>
       <use x="381.689453" xlink:href="#DejaVuSans-30"/>
       <use x="445.3125" xlink:href="#DejaVuSans-32"/>
       <use x="508.935547" xlink:href="#DejaVuSans-31"/>
      </g>
     </g>
    </g>
    <g id="xtick_17">
     <g id="line2d_33">
      <path clip-path="url(#p9e35224ca7)" d="M 594.266445 493.286013 
L 594.266445 29.118125 
" style="fill:none;stroke:#cccccc;stroke-linecap:round;"/>
     </g>
     <g id="line2d_34">
      <g>
       <use style="fill:#262626;stroke:#262626;stroke-width:1.25;" x="594.266445" xlink:href="#m61a2f4ae03" y="493.286013"/>
      </g>
     </g>
     <g id="text_17">
      <!-- 29.05.2021 -->
      <g style="fill:#262626;" transform="translate(548.113917 553.231121)rotate(-45)scale(0.11 -0.11)">
       <use xlink:href="#DejaVuSans-32"/>
       <use x="63.623047" xlink:href="#DejaVuSans-39"/>
       <use x="127.246094" xlink:href="#DejaVuSans-2e"/>
       <use x="159.033203" xlink:href="#DejaVuSans-30"/>
       <use x="222.65625" xlink:href="#DejaVuSans-35"/>
       <use x="286.279297" xlink:href="#DejaVuSans-2e"/>
       <use x="318.066406" xlink:href="#DejaVuSans-32"/>
       <use x="381.689453" xlink:href="#DejaVuSans-30"/>
       <use x="445.3125" xlink:href="#DejaVuSans-32"/>
       <use x="508.935547" xlink:href="#DejaVuSans-31"/>
      </g>
     </g>
    </g>
    <g id="xtick_18">
     <g id="line2d_35">
      <path clip-path="url(#p9e35224ca7)" d="M 625.136434 493.286013 
L 625.136434 29.118125 
" style="fill:none;stroke:#cccccc;stroke-linecap:round;"/>
     </g>
     <g id="line2d_36">
      <g>
       <use style="fill:#262626;stroke:#262626;stroke-width:1.25;" x="625.136434" xlink:href="#m61a2f4ae03" y="493.286013"/>
      </g>
     </g>
     <g id="text_18">
      <!-- 26.06.2021 -->
      <g style="fill:#262626;" transform="translate(578.983906 553.231121)rotate(-45)scale(0.11 -0.11)">
       <use xlink:href="#DejaVuSans-32"/>
       <use x="63.623047" xlink:href="#DejaVuSans-36"/>
       <use x="127.246094" xlink:href="#DejaVuSans-2e"/>
       <use x="159.033203" xlink:href="#DejaVuSans-30"/>
       <use x="222.65625" xlink:href="#DejaVuSans-36"/>
       <use x="286.279297" xlink:href="#DejaVuSans-2e"/>
       <use x="318.066406" xlink:href="#DejaVuSans-32"/>
       <use x="381.689453" xlink:href="#DejaVuSans-30"/>
       <use x="445.3125" xlink:href="#DejaVuSans-32"/>
       <use x="508.935547" xlink:href="#DejaVuSans-31"/>
      </g>
     </g>
    </g>
    <g id="xtick_19">
     <g id="line2d_37">
      <path clip-path="url(#p9e35224ca7)" d="M 656.006424 493.286013 
L 656.006424 29.118125 
" style="fill:none;stroke:#cccccc;stroke-linecap:round;"/>
     </g>
     <g id="line2d_38">
      <g>
       <use style="fill:#262626;stroke:#262626;stroke-width:1.25;" x="656.006424" xlink:href="#m61a2f4ae03" y="493.286013"/>
      </g>
     </g>
     <g id="text_19">
      <!-- 24.07.2021 -->
      <g style="fill:#262626;" transform="translate(609.853896 553.231121)rotate(-45)scale(0.11 -0.11)">
       <use xlink:href="#DejaVuSans-32"/>
       <use x="63.623047" xlink:href="#DejaVuSans-34"/>
       <use x="127.246094" xlink:href="#DejaVuSans-2e"/>
       <use x="159.033203" xlink:href="#DejaVuSans-30"/>
       <use x="222.65625" xlink:href="#DejaVuSans-37"/>
       <use x="286.279297" xlink:href="#DejaVuSans-2e"/>
       <use x="318.066406" xlink:href="#DejaVuSans-32"/>
       <use x="381.689453" xlink:href="#DejaVuSans-30"/>
       <use x="445.3125" xlink:href="#DejaVuSans-32"/>
       <use x="508.935547" xlink:href="#DejaVuSans-31"/>
      </g>
     </g>
    </g>
    <g id="xtick_20">
     <g id="line2d_39">
      <path clip-path="url(#p9e35224ca7)" d="M 686.876413 493.286013 
L 686.876413 29.118125 
" style="fill:none;stroke:#cccccc;stroke-linecap:round;"/>
     </g>
     <g id="line2d_40">
      <g>
       <use style="fill:#262626;stroke:#262626;stroke-width:1.25;" x="686.876413" xlink:href="#m61a2f4ae03" y="493.286013"/>
      </g>
     </g>
     <g id="text_20">
      <!-- 21.08.2021 -->
      <g style="fill:#262626;" transform="translate(640.723885 553.231121)rotate(-45)scale(0.11 -0.11)">
       <use xlink:href="#DejaVuSans-32"/>
       <use x="63.623047" xlink:href="#DejaVuSans-31"/>
       <use x="127.246094" xlink:href="#DejaVuSans-2e"/>
       <use x="159.033203" xlink:href="#DejaVuSans-30"/>
       <use x="222.65625" xlink:href="#DejaVuSans-38"/>
       <use x="286.279297" xlink:href="#DejaVuSans-2e"/>
       <use x="318.066406" xlink:href="#DejaVuSans-32"/>
       <use x="381.689453" xlink:href="#DejaVuSans-30"/>
       <use x="445.3125" xlink:href="#DejaVuSans-32"/>
       <use x="508.935547" xlink:href="#DejaVuSans-31"/>
      </g>
     </g>
    </g>
    <g id="xtick_21">
     <g id="line2d_41">
      <path clip-path="url(#p9e35224ca7)" d="M 717.746403 493.286013 
L 717.746403 29.118125 
" style="fill:none;stroke:#cccccc;stroke-linecap:round;"/>
     </g>
     <g id="line2d_42">
      <g>
       <use style="fill:#262626;stroke:#262626;stroke-width:1.25;" x="717.746403" xlink:href="#m61a2f4ae03" y="493.286013"/>
      </g>
     </g>
     <g id="text_21">
      <!-- 18.09.2021 -->
      <g style="fill:#262626;" transform="translate(671.593874 553.231121)rotate(-45)scale(0.11 -0.11)">
       <use xlink:href="#DejaVuSans-31"/>
       <use x="63.623047" xlink:href="#DejaVuSans-38"/>
       <use x="127.246094" xlink:href="#DejaVuSans-2e"/>
       <use x="159.033203" xlink:href="#DejaVuSans-30"/>
       <use x="222.65625" xlink:href="#DejaVuSans-39"/>
       <use x="286.279297" xlink:href="#DejaVuSans-2e"/>
       <use x="318.066406" xlink:href="#DejaVuSans-32"/>
       <use x="381.689453" xlink:href="#DejaVuSans-30"/>
       <use x="445.3125" xlink:href="#DejaVuSans-32"/>
       <use x="508.935547" xlink:href="#DejaVuSans-31"/>
      </g>
     </g>
    </g>
    <g id="xtick_22">
     <g id="line2d_43">
      <path clip-path="url(#p9e35224ca7)" d="M 748.616392 493.286013 
L 748.616392 29.118125 
" style="fill:none;stroke:#cccccc;stroke-linecap:round;"/>
     </g>
     <g id="line2d_44">
      <g>
       <use style="fill:#262626;stroke:#262626;stroke-width:1.25;" x="748.616392" xlink:href="#m61a2f4ae03" y="493.286013"/>
      </g>
     </g>
     <g id="text_22">
      <!-- 16.10.2021 -->
      <g style="fill:#262626;" transform="translate(702.463864 553.231121)rotate(-45)scale(0.11 -0.11)">
       <use xlink:href="#DejaVuSans-31"/>
       <use x="63.623047" xlink:href="#DejaVuSans-36"/>
       <use x="127.246094" xlink:href="#DejaVuSans-2e"/>
       <use x="159.033203" xlink:href="#DejaVuSans-31"/>
       <use x="222.65625" xlink:href="#DejaVuSans-30"/>
       <use x="286.279297" xlink:href="#DejaVuSans-2e"/>
       <use x="318.066406" xlink:href="#DejaVuSans-32"/>
       <use x="381.689453" xlink:href="#DejaVuSans-30"/>
       <use x="445.3125" xlink:href="#DejaVuSans-32"/>
       <use x="508.935547" xlink:href="#DejaVuSans-31"/>
      </g>
     </g>
    </g>
    <g id="xtick_23">
     <g id="line2d_45">
      <defs>
       <path d="M 0 0 
L 0 4 
" id="m80dc3cf7a2" style="stroke:#262626;"/>
      </defs>
      <g>
       <use style="fill:#262626;stroke:#262626;" x="69.476624" xlink:href="#m80dc3cf7a2" y="493.286013"/>
      </g>
     </g>
    </g>
    <g id="xtick_24">
     <g id="line2d_46">
      <g>
       <use style="fill:#262626;stroke:#262626;" x="77.194122" xlink:href="#m80dc3cf7a2" y="493.286013"/>
      </g>
     </g>
    </g>
    <g id="xtick_25">
     <g id="line2d_47">
      <g>
       <use style="fill:#262626;stroke:#262626;" x="84.911619" xlink:href="#m80dc3cf7a2" y="493.286013"/>
      </g>
     </g>
    </g>
    <g id="xtick_26">
     <g id="line2d_48">
      <g>
       <use style="fill:#262626;stroke:#262626;" x="92.629116" xlink:href="#m80dc3cf7a2" y="493.286013"/>
      </g>
     </g>
    </g>
    <g id="xtick_27">
     <g id="line2d_49">
      <g>
       <use style="fill:#262626;stroke:#262626;" x="108.064111" xlink:href="#m80dc3cf7a2" y="493.286013"/>
      </g>
     </g>
    </g>
    <g id="xtick_28">
     <g id="line2d_50">
      <g>
       <use style="fill:#262626;stroke:#262626;" x="115.781608" xlink:href="#m80dc3cf7a2" y="493.286013"/>
      </g>
     </g>
    </g>
    <g id="xtick_29">
     <g id="line2d_51">
      <g>
       <use style="fill:#262626;stroke:#262626;" x="123.499106" xlink:href="#m80dc3cf7a2" y="493.286013"/>
      </g>
     </g>
    </g>
    <g id="xtick_30">
     <g id="line2d_52">
      <g>
       <use style="fill:#262626;stroke:#262626;" x="138.9341" xlink:href="#m80dc3cf7a2" y="493.286013"/>
      </g>
     </g>
    </g>
    <g id="xtick_31">
     <g id="line2d_53">
      <g>
       <use style="fill:#262626;stroke:#262626;" x="146.651598" xlink:href="#m80dc3cf7a2" y="493.286013"/>
      </g>
     </g>
    </g>
    <g id="xtick_32">
     <g id="line2d_54">
      <g>
       <use style="fill:#262626;stroke:#262626;" x="154.369095" xlink:href="#m80dc3cf7a2" y="493.286013"/>
      </g>
     </g>
    </g>
    <g id="xtick_33">
     <g id="line2d_55">
      <g>
       <use style="fill:#262626;stroke:#262626;" x="169.80409" xlink:href="#m80dc3cf7a2" y="493.286013"/>
      </g>
     </g>
    </g>
    <g id="xtick_34">
     <g id="line2d_56">
      <g>
       <use style="fill:#262626;stroke:#262626;" x="177.521587" xlink:href="#m80dc3cf7a2" y="493.286013"/>
      </g>
     </g>
    </g>
    <g id="xtick_35">
     <g id="line2d_57">
      <g>
       <use style="fill:#262626;stroke:#262626;" x="185.239085" xlink:href="#m80dc3cf7a2" y="493.286013"/>
      </g>
     </g>
    </g>
    <g id="xtick_36">
     <g id="line2d_58">
      <g>
       <use style="fill:#262626;stroke:#262626;" x="200.674079" xlink:href="#m80dc3cf7a2" y="493.286013"/>
      </g>
     </g>
    </g>
    <g id="xtick_37">
     <g id="line2d_59">
      <g>
       <use style="fill:#262626;stroke:#262626;" x="208.391577" xlink:href="#m80dc3cf7a2" y="493.286013"/>
      </g>
     </g>
    </g>
    <g id="xtick_38">
     <g id="line2d_60">
      <g>
       <use style="fill:#262626;stroke:#262626;" x="216.109074" xlink:href="#m80dc3cf7a2" y="493.286013"/>
      </g>
     </g>
    </g>
    <g id="xtick_39">
     <g id="line2d_61">
      <g>
       <use style="fill:#262626;stroke:#262626;" x="231.544069" xlink:href="#m80dc3cf7a2" y="493.286013"/>
      </g>
     </g>
    </g>
    <g id="xtick_40">
     <g id="line2d_62">
      <g>
       <use style="fill:#262626;stroke:#262626;" x="239.261566" xlink:href="#m80dc3cf7a2" y="493.286013"/>
      </g>
     </g>
    </g>
    <g id="xtick_41">
     <g id="line2d_63">
      <g>
       <use style="fill:#262626;stroke:#262626;" x="246.979064" xlink:href="#m80dc3cf7a2" y="493.286013"/>
      </g>
     </g>
    </g>
    <g id="xtick_42">
     <g id="line2d_64">
      <g>
       <use style="fill:#262626;stroke:#262626;" x="262.414058" xlink:href="#m80dc3cf7a2" y="493.286013"/>
      </g>
     </g>
    </g>
    <g id="xtick_43">
     <g id="line2d_65">
      <g>
       <use style="fill:#262626;stroke:#262626;" x="270.131556" xlink:href="#m80dc3cf7a2" y="493.286013"/>
      </g>
     </g>
    </g>
    <g id="xtick_44">
     <g id="line2d_66">
      <g>
       <use style="fill:#262626;stroke:#262626;" x="277.849053" xlink:href="#m80dc3cf7a2" y="493.286013"/>
      </g>
     </g>
    </g>
    <g id="xtick_45">
     <g id="line2d_67">
      <g>
       <use style="fill:#262626;stroke:#262626;" x="293.284048" xlink:href="#m80dc3cf7a2" y="493.286013"/>
      </g>
     </g>
    </g>
    <g id="xtick_46">
     <g id="line2d_68">
      <g>
       <use style="fill:#262626;stroke:#262626;" x="301.001545" xlink:href="#m80dc3cf7a2" y="493.286013"/>
      </g>
     </g>
    </g>
    <g id="xtick_47">
     <g id="line2d_69">
      <g>
       <use style="fill:#262626;stroke:#262626;" x="308.719042" xlink:href="#m80dc3cf7a2" y="493.286013"/>
      </g>
     </g>
    </g>
    <g id="xtick_48">
     <g id="line2d_70">
      <g>
       <use style="fill:#262626;stroke:#262626;" x="324.154037" xlink:href="#m80dc3cf7a2" y="493.286013"/>
      </g>
     </g>
    </g>
    <g id="xtick_49">
     <g id="line2d_71">
      <g>
       <use style="fill:#262626;stroke:#262626;" x="331.871534" xlink:href="#m80dc3cf7a2" y="493.286013"/>
      </g>
     </g>
    </g>
    <g id="xtick_50">
     <g id="line2d_72">
      <g>
       <use style="fill:#262626;stroke:#262626;" x="339.589032" xlink:href="#m80dc3cf7a2" y="493.286013"/>
      </g>
     </g>
    </g>
    <g id="xtick_51">
     <g id="line2d_73">
      <g>
       <use style="fill:#262626;stroke:#262626;" x="355.024027" xlink:href="#m80dc3cf7a2" y="493.286013"/>
      </g>
     </g>
    </g>
    <g id="xtick_52">
     <g id="line2d_74">
      <g>
       <use style="fill:#262626;stroke:#262626;" x="362.741524" xlink:href="#m80dc3cf7a2" y="493.286013"/>
      </g>
     </g>
    </g>
    <g id="xtick_53">
     <g id="line2d_75">
      <g>
       <use style="fill:#262626;stroke:#262626;" x="370.459021" xlink:href="#m80dc3cf7a2" y="493.286013"/>
      </g>
     </g>
    </g>
    <g id="xtick_54">
     <g id="line2d_76">
      <g>
       <use style="fill:#262626;stroke:#262626;" x="385.894016" xlink:href="#m80dc3cf7a2" y="493.286013"/>
      </g>
     </g>
    </g>
    <g id="xtick_55">
     <g id="line2d_77">
      <g>
       <use style="fill:#262626;stroke:#262626;" x="393.611513" xlink:href="#m80dc3cf7a2" y="493.286013"/>
      </g>
     </g>
    </g>
    <g id="xtick_56">
     <g id="line2d_78">
      <g>
       <use style="fill:#262626;stroke:#262626;" x="401.329011" xlink:href="#m80dc3cf7a2" y="493.286013"/>
      </g>
     </g>
    </g>
    <g id="xtick_57">
     <g id="line2d_79">
      <g>
       <use style="fill:#262626;stroke:#262626;" x="416.764005" xlink:href="#m80dc3cf7a2" y="493.286013"/>
      </g>
     </g>
    </g>
    <g id="xtick_58">
     <g id="line2d_80">
      <g>
       <use style="fill:#262626;stroke:#262626;" x="424.481503" xlink:href="#m80dc3cf7a2" y="493.286013"/>
      </g>
     </g>
    </g>
    <g id="xtick_59">
     <g id="line2d_81">
      <g>
       <use style="fill:#262626;stroke:#262626;" x="432.199" xlink:href="#m80dc3cf7a2" y="493.286013"/>
      </g>
     </g>
    </g>
    <g id="xtick_60">
     <g id="line2d_82">
      <g>
       <use style="fill:#262626;stroke:#262626;" x="447.633995" xlink:href="#m80dc3cf7a2" y="493.286013"/>
      </g>
     </g>
    </g>
    <g id="xtick_61">
     <g id="line2d_83">
      <g>
       <use style="fill:#262626;stroke:#262626;" x="455.351492" xlink:href="#m80dc3cf7a2" y="493.286013"/>
      </g>
     </g>
    </g>
    <g id="xtick_62">
     <g id="line2d_84">
      <g>
       <use style="fill:#262626;stroke:#262626;" x="463.06899" xlink:href="#m80dc3cf7a2" y="493.286013"/>
      </g>
     </g>
    </g>
    <g id="xtick_63">
     <g id="line2d_85">
      <g>
       <use style="fill:#262626;stroke:#262626;" x="478.503984" xlink:href="#m80dc3cf7a2" y="493.286013"/>
      </g>
     </g>
    </g>
    <g id="xtick_64">
     <g id="line2d_86">
      <g>
       <use style="fill:#262626;stroke:#262626;" x="486.221482" xlink:href="#m80dc3cf7a2" y="493.286013"/>
      </g>
     </g>
    </g>
    <g id="xtick_65">
     <g id="line2d_87">
      <g>
       <use style="fill:#262626;stroke:#262626;" x="493.938979" xlink:href="#m80dc3cf7a2" y="493.286013"/>
      </g>
     </g>
    </g>
    <g id="xtick_66">
     <g id="line2d_88">
      <g>
       <use style="fill:#262626;stroke:#262626;" x="509.373974" xlink:href="#m80dc3cf7a2" y="493.286013"/>
      </g>
     </g>
    </g>
    <g id="xtick_67">
     <g id="line2d_89">
      <g>
       <use style="fill:#262626;stroke:#262626;" x="517.091471" xlink:href="#m80dc3cf7a2" y="493.286013"/>
      </g>
     </g>
    </g>
    <g id="xtick_68">
     <g id="line2d_90">
      <g>
       <use style="fill:#262626;stroke:#262626;" x="524.808969" xlink:href="#m80dc3cf7a2" y="493.286013"/>
      </g>
     </g>
    </g>
    <g id="xtick_69">
     <g id="line2d_91">
      <g>
       <use style="fill:#262626;stroke:#262626;" x="540.243963" xlink:href="#m80dc3cf7a2" y="493.286013"/>
      </g>
     </g>
    </g>
    <g id="xtick_70">
     <g id="line2d_92">
      <g>
       <use style="fill:#262626;stroke:#262626;" x="547.961461" xlink:href="#m80dc3cf7a2" y="493.286013"/>
      </g>
     </g>
    </g>
    <g id="xtick_71">
     <g id="line2d_93">
      <g>
       <use style="fill:#262626;stroke:#262626;" x="555.678958" xlink:href="#m80dc3cf7a2" y="493.286013"/>
      </g>
     </g>
    </g>
    <g id="xtick_72">
     <g id="line2d_94">
      <g>
       <use style="fill:#262626;stroke:#262626;" x="571.113953" xlink:href="#m80dc3cf7a2" y="493.286013"/>
      </g>
     </g>
    </g>
    <g id="xtick_73">
     <g id="line2d_95">
      <g>
       <use style="fill:#262626;stroke:#262626;" x="578.83145" xlink:href="#m80dc3cf7a2" y="493.286013"/>
      </g>
     </g>
    </g>
    <g id="xtick_74">
     <g id="line2d_96">
      <g>
       <use style="fill:#262626;stroke:#262626;" x="586.548947" xlink:href="#m80dc3cf7a2" y="493.286013"/>
      </g>
     </g>
    </g>
    <g id="xtick_75">
     <g id="line2d_97">
      <g>
       <use style="fill:#262626;stroke:#262626;" x="601.983942" xlink:href="#m80dc3cf7a2" y="493.286013"/>
      </g>
     </g>
    </g>
    <g id="xtick_76">
     <g id="line2d_98">
      <g>
       <use style="fill:#262626;stroke:#262626;" x="609.70144" xlink:href="#m80dc3cf7a2" y="493.286013"/>
      </g>
     </g>
    </g>
    <g id="xtick_77">
     <g id="line2d_99">
      <g>
       <use style="fill:#262626;stroke:#262626;" x="617.418937" xlink:href="#m80dc3cf7a2" y="493.286013"/>
      </g>
     </g>
    </g>
    <g id="xtick_78">
     <g id="line2d_100">
      <g>
       <use style="fill:#262626;stroke:#262626;" x="632.853932" xlink:href="#m80dc3cf7a2" y="493.286013"/>
      </g>
     </g>
    </g>
    <g id="xtick_79">
     <g id="line2d_101">
      <g>
       <use style="fill:#262626;stroke:#262626;" x="640.571429" xlink:href="#m80dc3cf7a2" y="493.286013"/>
      </g>
     </g>
    </g>
    <g id="xtick_80">
     <g id="line2d_102">
      <g>
       <use style="fill:#262626;stroke:#262626;" x="648.288926" xlink:href="#m80dc3cf7a2" y="493.286013"/>
      </g>
     </g>
    </g>
    <g id="xtick_81">
     <g id="line2d_103">
      <g>
       <use style="fill:#262626;stroke:#262626;" x="663.723921" xlink:href="#m80dc3cf7a2" y="493.286013"/>
      </g>
     </g>
    </g>
    <g id="xtick_82">
     <g id="line2d_104">
      <g>
       <use style="fill:#262626;stroke:#262626;" x="671.441418" xlink:href="#m80dc3cf7a2" y="493.286013"/>
      </g>
     </g>
    </g>
    <g id="xtick_83">
     <g id="line2d_105">
      <g>
       <use style="fill:#262626;stroke:#262626;" x="679.158916" xlink:href="#m80dc3cf7a2" y="493.286013"/>
      </g>
     </g>
    </g>
    <g id="xtick_84">
     <g id="line2d_106">
      <g>
       <use style="fill:#262626;stroke:#262626;" x="694.59391" xlink:href="#m80dc3cf7a2" y="493.286013"/>
      </g>
     </g>
    </g>
    <g id="xtick_85">
     <g id="line2d_107">
      <g>
       <use style="fill:#262626;stroke:#262626;" x="702.311408" xlink:href="#m80dc3cf7a2" y="493.286013"/>
      </g>
     </g>
    </g>
    <g id="xtick_86">
     <g id="line2d_108">
      <g>
       <use style="fill:#262626;stroke:#262626;" x="710.028905" xlink:href="#m80dc3cf7a2" y="493.286013"/>
      </g>
     </g>
    </g>
    <g id="xtick_87">
     <g id="line2d_109">
      <g>
       <use style="fill:#262626;stroke:#262626;" x="725.4639" xlink:href="#m80dc3cf7a2" y="493.286013"/>
      </g>
     </g>
    </g>
    <g id="xtick_88">
     <g id="line2d_110">
      <g>
       <use style="fill:#262626;stroke:#262626;" x="733.181397" xlink:href="#m80dc3cf7a2" y="493.286013"/>
      </g>
     </g>
    </g>
    <g id="xtick_89">
     <g id="line2d_111">
      <g>
       <use style="fill:#262626;stroke:#262626;" x="740.898895" xlink:href="#m80dc3cf7a2" y="493.286013"/>
      </g>
     </g>
    </g>
    <g id="xtick_90">
     <g id="line2d_112">
      <g>
       <use style="fill:#262626;stroke:#262626;" x="756.333889" xlink:href="#m80dc3cf7a2" y="493.286013"/>
      </g>
     </g>
    </g>
    <g id="xtick_91">
     <g id="line2d_113">
      <g>
       <use style="fill:#262626;stroke:#262626;" x="764.051387" xlink:href="#m80dc3cf7a2" y="493.286013"/>
      </g>
     </g>
    </g>
    <g id="xtick_92">
     <g id="line2d_114">
      <g>
       <use style="fill:#262626;stroke:#262626;" x="771.768884" xlink:href="#m80dc3cf7a2" y="493.286013"/>
      </g>
     </g>
    </g>
    <g id="xtick_93">
     <g id="line2d_115">
      <g>
       <use style="fill:#262626;stroke:#262626;" x="779.486381" xlink:href="#m80dc3cf7a2" y="493.286013"/>
      </g>
     </g>
    </g>
    <g id="xtick_94">
     <g id="line2d_116">
      <g>
       <use style="fill:#262626;stroke:#262626;" x="787.203879" xlink:href="#m80dc3cf7a2" y="493.286013"/>
      </g>
     </g>
    </g>
    <g id="xtick_95">
     <g id="line2d_117">
      <g>
       <use style="fill:#262626;stroke:#262626;" x="794.921376" xlink:href="#m80dc3cf7a2" y="493.286013"/>
      </g>
     </g>
    </g>
    <g id="text_23">
     <!-- Date -->
     <g style="fill:#262626;" transform="translate(418.409312 567.966863)scale(0.12 -0.12)">
      <defs>
       <path d="M 1259 4147 
L 1259 519 
L 2022 519 
Q 2988 519 3436 956 
Q 3884 1394 3884 2338 
Q 3884 3275 3436 3711 
Q 2988 4147 2022 4147 
L 1259 4147 
z
M 628 4666 
L 1925 4666 
Q 3281 4666 3915 4102 
Q 4550 3538 4550 2338 
Q 4550 1131 3912 565 
Q 3275 0 1925 0 
L 628 0 
L 628 4666 
z
" id="DejaVuSans-44" transform="scale(0.015625)"/>
       <path d="M 2194 1759 
Q 1497 1759 1228 1600 
Q 959 1441 959 1056 
Q 959 750 1161 570 
Q 1363 391 1709 391 
Q 2188 391 2477 730 
Q 2766 1069 2766 1631 
L 2766 1759 
L 2194 1759 
z
M 3341 1997 
L 3341 0 
L 2766 0 
L 2766 531 
Q 2569 213 2275 61 
Q 1981 -91 1556 -91 
Q 1019 -91 701 211 
Q 384 513 384 1019 
Q 384 1609 779 1909 
Q 1175 2209 1959 2209 
L 2766 2209 
L 2766 2266 
Q 2766 2663 2505 2880 
Q 2244 3097 1772 3097 
Q 1472 3097 1187 3025 
Q 903 2953 641 2809 
L 641 3341 
Q 956 3463 1253 3523 
Q 1550 3584 1831 3584 
Q 2591 3584 2966 3190 
Q 3341 2797 3341 1997 
z
" id="DejaVuSans-61" transform="scale(0.015625)"/>
       <path d="M 1172 4494 
L 1172 3500 
L 2356 3500 
L 2356 3053 
L 1172 3053 
L 1172 1153 
Q 1172 725 1289 603 
Q 1406 481 1766 481 
L 2356 481 
L 2356 0 
L 1766 0 
Q 1100 0 847 248 
Q 594 497 594 1153 
L 594 3053 
L 172 3053 
L 172 3500 
L 594 3500 
L 594 4494 
L 1172 4494 
z
" id="DejaVuSans-74" transform="scale(0.015625)"/>
       <path d="M 3597 1894 
L 3597 1613 
L 953 1613 
Q 991 1019 1311 708 
Q 1631 397 2203 397 
Q 2534 397 2845 478 
Q 3156 559 3463 722 
L 3463 178 
Q 3153 47 2828 -22 
Q 2503 -91 2169 -91 
Q 1331 -91 842 396 
Q 353 884 353 1716 
Q 353 2575 817 3079 
Q 1281 3584 2069 3584 
Q 2775 3584 3186 3129 
Q 3597 2675 3597 1894 
z
M 3022 2063 
Q 3016 2534 2758 2815 
Q 2500 3097 2075 3097 
Q 1594 3097 1305 2825 
Q 1016 2553 972 2059 
L 3022 2063 
z
" id="DejaVuSans-65" transform="scale(0.015625)"/>
      </defs>
      <use xlink:href="#DejaVuSans-44"/>
      <use x="77.001953" xlink:href="#DejaVuSans-61"/>
      <use x="138.28125" xlink:href="#DejaVuSans-74"/>
      <use x="177.490234" xlink:href="#DejaVuSans-65"/>
     </g>
    </g>
   </g>
   <g id="matplotlib.axis_2">
    <g id="ytick_1">
     <g id="line2d_118">
      <path clip-path="url(#p9e35224ca7)" d="M 67.10625 472.187472 
L 798.39425 472.187472 
" style="fill:none;stroke:#cccccc;stroke-linecap:round;"/>
     </g>
     <g id="line2d_119">
      <defs>
       <path d="M 0 0 
L -6 0 
" id="m2b37291164" style="stroke:#262626;stroke-width:1.25;"/>
      </defs>
      <g>
       <use style="fill:#262626;stroke:#262626;stroke-width:1.25;" x="67.10625" xlink:href="#m2b37291164" y="472.187472"/>
      </g>
     </g>
     <g id="text_24">
      <!-- 0 -->
      <g style="fill:#262626;" transform="translate(50.6075 476.366613)scale(0.11 -0.11)">
       <use xlink:href="#DejaVuSans-30"/>
      </g>
     </g>
    </g>
    <g id="ytick_2">
     <g id="line2d_120">
      <path clip-path="url(#p9e35224ca7)" d="M 67.10625 402.149894 
L 798.39425 402.149894 
" style="fill:none;stroke:#cccccc;stroke-linecap:round;"/>
     </g>
     <g id="line2d_121">
      <g>
       <use style="fill:#262626;stroke:#262626;stroke-width:1.25;" x="67.10625" xlink:href="#m2b37291164" y="402.149894"/>
      </g>
     </g>
     <g id="text_25">
      <!-- 100000 -->
      <g style="fill:#262626;" transform="translate(15.61375 406.329035)scale(0.11 -0.11)">
       <use xlink:href="#DejaVuSans-31"/>
       <use x="63.623047" xlink:href="#DejaVuSans-30"/>
       <use x="127.246094" xlink:href="#DejaVuSans-30"/>
       <use x="190.869141" xlink:href="#DejaVuSans-30"/>
       <use x="254.492188" xlink:href="#DejaVuSans-30"/>
       <use x="318.115234" xlink:href="#DejaVuSans-30"/>
      </g>
     </g>
    </g>
    <g id="ytick_3">
     <g id="line2d_122">
      <path clip-path="url(#p9e35224ca7)" d="M 67.10625 332.112315 
L 798.39425 332.112315 
" style="fill:none;stroke:#cccccc;stroke-linecap:round;"/>
     </g>
     <g id="line2d_123">
      <g>
       <use style="fill:#262626;stroke:#262626;stroke-width:1.25;" x="67.10625" xlink:href="#m2b37291164" y="332.112315"/>
      </g>
     </g>
     <g id="text_26">
      <!-- 200000 -->
      <g style="fill:#262626;" transform="translate(15.61375 336.291456)scale(0.11 -0.11)">
       <use xlink:href="#DejaVuSans-32"/>
       <use x="63.623047" xlink:href="#DejaVuSans-30"/>
       <use x="127.246094" xlink:href="#DejaVuSans-30"/>
       <use x="190.869141" xlink:href="#DejaVuSans-30"/>
       <use x="254.492188" xlink:href="#DejaVuSans-30"/>
       <use x="318.115234" xlink:href="#DejaVuSans-30"/>
      </g>
     </g>
    </g>
    <g id="ytick_4">
     <g id="line2d_124">
      <path clip-path="url(#p9e35224ca7)" d="M 67.10625 262.074737 
L 798.39425 262.074737 
" style="fill:none;stroke:#cccccc;stroke-linecap:round;"/>
     </g>
     <g id="line2d_125">
      <g>
       <use style="fill:#262626;stroke:#262626;stroke-width:1.25;" x="67.10625" xlink:href="#m2b37291164" y="262.074737"/>
      </g>
     </g>
     <g id="text_27">
      <!-- 300000 -->
      <g style="fill:#262626;" transform="translate(15.61375 266.253878)scale(0.11 -0.11)">
       <use xlink:href="#DejaVuSans-33"/>
       <use x="63.623047" xlink:href="#DejaVuSans-30"/>
       <use x="127.246094" xlink:href="#DejaVuSans-30"/>
       <use x="190.869141" xlink:href="#DejaVuSans-30"/>
       <use x="254.492188" xlink:href="#DejaVuSans-30"/>
       <use x="318.115234" xlink:href="#DejaVuSans-30"/>
      </g>
     </g>
    </g>
    <g id="ytick_5">
     <g id="line2d_126">
      <path clip-path="url(#p9e35224ca7)" d="M 67.10625 192.037159 
L 798.39425 192.037159 
" style="fill:none;stroke:#cccccc;stroke-linecap:round;"/>
     </g>
     <g id="line2d_127">
      <g>
       <use style="fill:#262626;stroke:#262626;stroke-width:1.25;" x="67.10625" xlink:href="#m2b37291164" y="192.037159"/>
      </g>
     </g>
     <g id="text_28">
      <!-- 400000 -->
      <g style="fill:#262626;" transform="translate(15.61375 196.216299)scale(0.11 -0.11)">
       <use xlink:href="#DejaVuSans-34"/>
       <use x="63.623047" xlink:href="#DejaVuSans-30"/>
       <use x="127.246094" xlink:href="#DejaVuSans-30"/>
       <use x="190.869141" xlink:href="#DejaVuSans-30"/>
       <use x="254.492188" xlink:href="#DejaVuSans-30"/>
       <use x="318.115234" xlink:href="#DejaVuSans-30"/>
      </g>
     </g>
    </g>
    <g id="ytick_6">
     <g id="line2d_128">
      <path clip-path="url(#p9e35224ca7)" d="M 67.10625 121.99958 
L 798.39425 121.99958 
" style="fill:none;stroke:#cccccc;stroke-linecap:round;"/>
     </g>
     <g id="line2d_129">
      <g>
       <use style="fill:#262626;stroke:#262626;stroke-width:1.25;" x="67.10625" xlink:href="#m2b37291164" y="121.99958"/>
      </g>
     </g>
     <g id="text_29">
      <!-- 500000 -->
      <g style="fill:#262626;" transform="translate(15.61375 126.178721)scale(0.11 -0.11)">
       <use xlink:href="#DejaVuSans-35"/>
       <use x="63.623047" xlink:href="#DejaVuSans-30"/>
       <use x="127.246094" xlink:href="#DejaVuSans-30"/>
       <use x="190.869141" xlink:href="#DejaVuSans-30"/>
       <use x="254.492188" xlink:href="#DejaVuSans-30"/>
       <use x="318.115234" xlink:href="#DejaVuSans-30"/>
      </g>
     </g>
    </g>
    <g id="ytick_7">
     <g id="line2d_130">
      <path clip-path="url(#p9e35224ca7)" d="M 67.10625 51.962002 
L 798.39425 51.962002 
" style="fill:none;stroke:#cccccc;stroke-linecap:round;"/>
     </g>
     <g id="line2d_131">
      <g>
       <use style="fill:#262626;stroke:#262626;stroke-width:1.25;" x="67.10625" xlink:href="#m2b37291164" y="51.962002"/>
      </g>
     </g>
     <g id="text_30">
      <!-- 600000 -->
      <g style="fill:#262626;" transform="translate(15.61375 56.141142)scale(0.11 -0.11)">
       <use xlink:href="#DejaVuSans-36"/>
       <use x="63.623047" xlink:href="#DejaVuSans-30"/>
       <use x="127.246094" xlink:href="#DejaVuSans-30"/>
       <use x="190.869141" xlink:href="#DejaVuSans-30"/>
       <use x="254.492188" xlink:href="#DejaVuSans-30"/>
       <use x="318.115234" xlink:href="#DejaVuSans-30"/>
      </g>
     </g>
    </g>
    <g id="text_31">
     <!-- Cases -->
     <g style="fill:#262626;" transform="translate(9.118125 279.011756)rotate(-90)scale(0.12 -0.12)">
      <defs>
       <path d="M 4122 4306 
L 4122 3641 
Q 3803 3938 3442 4084 
Q 3081 4231 2675 4231 
Q 1875 4231 1450 3742 
Q 1025 3253 1025 2328 
Q 1025 1406 1450 917 
Q 1875 428 2675 428 
Q 3081 428 3442 575 
Q 3803 722 4122 1019 
L 4122 359 
Q 3791 134 3420 21 
Q 3050 -91 2638 -91 
Q 1578 -91 968 557 
Q 359 1206 359 2328 
Q 359 3453 968 4101 
Q 1578 4750 2638 4750 
Q 3056 4750 3426 4639 
Q 3797 4528 4122 4306 
z
" id="DejaVuSans-43" transform="scale(0.015625)"/>
       <path d="M 2834 3397 
L 2834 2853 
Q 2591 2978 2328 3040 
Q 2066 3103 1784 3103 
Q 1356 3103 1142 2972 
Q 928 2841 928 2578 
Q 928 2378 1081 2264 
Q 1234 2150 1697 2047 
L 1894 2003 
Q 2506 1872 2764 1633 
Q 3022 1394 3022 966 
Q 3022 478 2636 193 
Q 2250 -91 1575 -91 
Q 1294 -91 989 -36 
Q 684 19 347 128 
L 347 722 
Q 666 556 975 473 
Q 1284 391 1588 391 
Q 1994 391 2212 530 
Q 2431 669 2431 922 
Q 2431 1156 2273 1281 
Q 2116 1406 1581 1522 
L 1381 1569 
Q 847 1681 609 1914 
Q 372 2147 372 2553 
Q 372 3047 722 3315 
Q 1072 3584 1716 3584 
Q 2034 3584 2315 3537 
Q 2597 3491 2834 3397 
z
" id="DejaVuSans-73" transform="scale(0.015625)"/>
      </defs>
      <use xlink:href="#DejaVuSans-43"/>
      <use x="69.824219" xlink:href="#DejaVuSans-61"/>
      <use x="131.103516" xlink:href="#DejaVuSans-73"/>
      <use x="183.203125" xlink:href="#DejaVuSans-65"/>
      <use x="244.726562" xlink:href="#DejaVuSans-73"/>
     </g>
    </g>
   </g>
   <g id="line2d_132">
    <path clip-path="url(#p9e35224ca7)" d="M 100.346614 472.184671 
L 113.576609 472.098525 
L 129.011604 471.84779 
L 147.754097 471.536823 
L 187.444084 470.476454 
L 202.879079 470.219416 
L 219.416573 469.306126 
L 233.749068 468.04545 
L 235.954067 467.745689 
L 239.261566 467.162276 
L 241.466565 466.996987 
L 263.516558 463.81448 
L 266.824057 463.280793 
L 269.029056 462.936209 
L 302.104045 460.218751 
L 304.309044 460.061866 
L 314.231541 459.199704 
L 316.43654 459.0071 
L 318.641539 458.870527 
L 320.846538 458.682126 
L 324.154037 458.182058 
L 326.359036 457.990155 
L 331.871534 457.116786 
L 332.974034 457.06846 
L 335.179033 456.56489 
L 337.384033 455.897432 
L 339.589032 455.155034 
L 340.691531 455.096902 
L 341.794031 454.685782 
L 345.10153 452.922236 
L 346.20403 452.223261 
L 347.306529 451.800934 
L 348.409029 451.524286 
L 349.511528 450.807101 
L 351.716528 448.840446 
L 353.921527 446.610449 
L 355.024027 445.879957 
L 356.126526 445.650934 
L 357.229026 444.079991 
L 359.434025 440.347689 
L 361.639024 436.439592 
L 362.741524 435.176814 
L 363.844024 434.318854 
L 364.946523 432.619042 
L 368.254022 424.320289 
L 369.356522 421.631547 
L 370.459021 420.019982 
L 371.561521 419.547228 
L 372.664021 416.874594 
L 374.86902 411.036962 
L 375.971519 408.645879 
L 377.074019 405.695896 
L 378.176519 403.946358 
L 379.279018 403.374851 
L 380.381518 400.910229 
L 381.484018 397.528814 
L 384.791516 389.250373 
L 385.894016 387.654216 
L 386.996516 386.867694 
L 388.099015 384.664312 
L 389.201515 381.595265 
L 391.406514 376.49653 
L 392.509014 374.166379 
L 393.611513 372.911306 
L 394.714013 372.393728 
L 395.816513 370.422871 
L 398.021512 365.791286 
L 400.226511 360.962895 
L 401.329011 359.53623 
L 402.43151 359.132113 
L 403.53401 357.196274 
L 404.63651 354.408779 
L 406.841509 349.924272 
L 407.944008 347.755209 
L 409.046508 346.853825 
L 410.149008 346.505738 
L 411.251507 345.038451 
L 412.354007 343.11732 
L 415.661506 339.097163 
L 416.764005 338.395387 
L 417.866505 338.279124 
L 418.969005 337.384744 
L 421.174004 334.993661 
L 422.276504 334.452971 
L 423.379003 334.272975 
L 425.584002 333.711974 
L 426.686502 333.475947 
L 427.789002 332.468807 
L 428.891501 331.257857 
L 429.994001 330.525264 
L 433.3015 329.975469 
L 434.403999 329.254782 
L 435.506499 328.33729 
L 437.711498 327.028288 
L 438.813998 326.500905 
L 439.916498 326.224957 
L 441.018997 326.151417 
L 446.531495 324.055893 
L 448.736495 323.838776 
L 452.043993 322.720977 
L 455.351492 321.819593 
L 456.453992 321.734847 
L 459.761491 320.196122 
L 463.06899 319.072719 
L 464.171489 318.98167 
L 469.683987 315.96235 
L 470.786487 315.617065 
L 471.888987 315.489597 
L 476.298985 312.470977 
L 477.401485 311.794414 
L 478.503984 311.440024 
L 479.606484 311.325863 
L 480.708984 310.577861 
L 482.913983 308.760386 
L 484.016482 307.999778 
L 485.118982 306.975128 
L 486.221482 306.591322 
L 487.323981 306.432337 
L 489.528981 303.823437 
L 492.836479 300.15627 
L 493.938979 299.400564 
L 495.041479 299.168039 
L 497.246478 295.672464 
L 498.348978 294.86423 
L 499.451477 293.324804 
L 500.553977 291.220875 
L 501.656476 290.222139 
L 502.758976 289.874053 
L 503.861476 287.776427 
L 504.963975 285.323711 
L 506.066475 283.380869 
L 508.271474 278.982509 
L 509.373974 277.56845 
L 510.476473 277.092895 
L 512.681473 270.781809 
L 515.988972 262.11746 
L 517.091471 260.337805 
L 518.193971 259.677351 
L 522.603969 247.294006 
L 523.706469 244.402155 
L 524.808969 242.625302 
L 525.911468 241.936832 
L 527.013968 238.787242 
L 528.116467 235.162097 
L 529.218967 232.215616 
L 531.423966 226.81782 
L 532.526466 225.473799 
L 533.628966 224.955521 
L 536.936464 216.957229 
L 539.141464 212.923065 
L 540.243963 211.976157 
L 541.346463 211.652583 
L 543.551462 207.404104 
L 544.653962 205.641258 
L 546.858961 202.621938 
L 547.961461 201.868334 
L 549.06396 201.575576 
L 550.16646 199.870862 
L 552.371459 197.000722 
L 554.576458 194.627148 
L 555.678958 194.068248 
L 556.781458 193.788098 
L 558.986457 191.260442 
L 561.191456 189.426158 
L 562.293956 188.969513 
L 566.703954 187.700432 
L 567.806454 186.555317 
L 568.908953 186.173613 
L 570.011453 185.387091 
L 571.113953 185.060715 
L 572.216452 184.891925 
L 573.318952 184.13692 
L 574.421452 183.52269 
L 576.626451 182.708153 
L 577.72895 182.345359 
L 579.93395 182.097426 
L 581.036449 181.623271 
L 583.241449 181.050364 
L 585.446448 180.539089 
L 589.856446 180.03762 
L 592.061446 179.557163 
L 593.163945 179.356155 
L 596.471444 179.026278 
L 599.778943 178.603951 
L 601.983942 178.431659 
L 603.086442 178.398741 
L 606.393941 178.036647 
L 624.033935 176.988184 
L 628.443933 176.803285 
L 639.468929 176.338936 
L 644.981427 176.136527 
L 659.313923 175.17281 
L 664.826421 174.424108 
L 668.13392 173.524826 
L 671.441418 172.515584 
L 672.543918 172.392318 
L 676.953917 170.121 
L 678.056416 169.387706 
L 679.158916 168.951372 
L 680.261415 168.76087 
L 683.568914 165.894232 
L 685.773914 163.975902 
L 686.876413 163.384085 
L 687.978913 163.115141 
L 690.183912 160.452312 
L 692.388911 158.117259 
L 693.491411 156.917515 
L 694.59391 156.214338 
L 695.69641 155.898469 
L 697.901409 152.996812 
L 700.106409 150.679268 
L 701.208908 149.530652 
L 702.311408 148.932531 
L 703.413907 148.590748 
L 704.516407 148.116593 
L 706.721406 145.342405 
L 708.926406 143.062682 
L 710.028905 142.42604 
L 711.131405 142.119976 
L 714.438904 137.995463 
L 716.643903 135.462904 
L 717.746403 134.796847 
L 718.848902 134.476074 
L 721.053901 131.287964 
L 722.156401 130.692644 
L 724.3614 128.073939 
L 725.4639 127.346949 
L 726.5664 126.999563 
L 728.771399 123.421343 
L 732.078898 119.020882 
L 733.181397 118.160821 
L 734.283897 117.801528 
L 737.591396 112.048641 
L 739.796395 108.695942 
L 740.898895 107.823274 
L 742.001394 107.388341 
L 745.308893 100.197582 
L 747.513892 95.558994 
L 748.616392 94.251392 
L 749.718892 93.551016 
L 753.026391 83.424983 
L 755.23139 76.67196 
L 756.333889 74.322899 
L 757.436389 73.363385 
L 758.538889 69.257081 
L 759.641388 64.48332 
L 761.846387 56.904554 
L 762.948887 53.223379 
L 764.051387 51.237113 
L 765.153886 50.216665 
L 765.153886 50.216665 
" style="fill:none;stroke:#ffa500;stroke-linecap:round;stroke-width:1.5;"/>
   </g>
   <g id="line2d_133">
    <path clip-path="url(#p9e35224ca7)" d="M 100.346614 472.187472 
L 145.549098 472.080315 
L 173.111589 471.837985 
L 198.46908 471.21395 
L 200.674079 471.105392 
L 208.391577 470.980725 
L 212.801575 470.870766 
L 242.569065 469.621996 
L 244.774064 469.437097 
L 251.389062 468.935628 
L 252.491562 468.663882 
L 253.594061 468.509099 
L 255.79906 468.43696 
L 260.209059 467.864053 
L 262.414058 467.707869 
L 263.516558 467.69106 
L 269.029056 466.849208 
L 273.439054 466.476608 
L 276.746553 465.804247 
L 278.951553 465.75382 
L 283.361551 465.122782 
L 285.56655 464.958193 
L 287.77155 464.835628 
L 289.976549 464.658433 
L 292.181548 464.321552 
L 294.386547 464.264121 
L 299.899045 463.750746 
L 312.026541 463.042666 
L 315.33404 462.725395 
L 320.846538 462.475361 
L 324.154037 462.270151 
L 326.359036 462.144784 
L 331.871534 461.693042 
L 334.076534 461.556468 
L 343.99903 460.638976 
L 347.306529 460.342717 
L 348.409029 460.321005 
L 359.434025 458.768973 
L 360.536525 458.393571 
L 362.741524 458.14844 
L 367.151522 456.816325 
L 369.356522 455.773465 
L 370.459021 455.515027 
L 371.561521 455.0927 
L 372.664021 454.479871 
L 373.76652 454.118477 
L 375.971519 452.866206 
L 378.176519 452.013148 
L 379.279018 451.613934 
L 380.381518 450.95418 
L 381.484018 450.100422 
L 384.791516 448.10295 
L 385.894016 447.147637 
L 386.996516 446.606947 
L 389.201515 444.101003 
L 391.406514 440.758109 
L 392.509014 439.451908 
L 393.611513 438.724218 
L 394.714013 438.153411 
L 395.816513 436.772971 
L 398.021512 433.522527 
L 399.124011 432.1673 
L 400.226511 430.391147 
L 401.329011 429.693572 
L 402.43151 428.591881 
L 405.739009 421.705787 
L 406.841509 419.496801 
L 407.944008 416.492189 
L 410.149008 413.552012 
L 411.251507 412.250713 
L 413.456507 408.79646 
L 415.661506 404.515763 
L 416.764005 403.532436 
L 417.866505 402.319385 
L 418.969005 400.282692 
L 420.071504 398.584981 
L 422.276504 396.771008 
L 423.379003 395.940362 
L 424.481503 395.326833 
L 425.584002 394.440157 
L 426.686502 393.407103 
L 428.891501 389.308504 
L 429.994001 388.473656 
L 431.096501 387.902149 
L 433.3015 386.453772 
L 436.608999 381.986775 
L 437.711498 381.004849 
L 438.813998 378.321709 
L 441.018997 377.455344 
L 443.223996 373.751057 
L 444.326496 371.584094 
L 445.428996 366.871966 
L 446.531495 362.907839 
L 448.736495 362.423179 
L 449.838994 357.147248 
L 450.941494 352.774802 
L 452.043993 349.553073 
L 453.146493 347.973025 
L 454.248993 347.098956 
L 456.453992 346.772581 
L 458.658991 345.422957 
L 459.761491 344.983822 
L 463.06899 342.195626 
L 464.171489 341.180781 
L 465.273989 339.83606 
L 466.376489 338.777091 
L 467.478988 338.02909 
L 469.683987 336.993935 
L 471.888987 336.839152 
L 472.991486 336.276049 
L 474.093986 335.954577 
L 475.196485 335.466415 
L 478.503984 334.498496 
L 479.606484 334.269473 
L 484.016482 332.370054 
L 485.118982 332.127724 
L 487.323981 331.935821 
L 488.426481 331.391629 
L 490.63148 330.708062 
L 492.836479 329.665202 
L 493.938979 328.514485 
L 495.041479 328.228732 
L 496.143978 327.468824 
L 497.246478 326.221455 
L 498.348978 325.808933 
L 499.451477 324.661718 
L 500.553977 323.765237 
L 501.656476 323.356217 
L 502.758976 323.086573 
L 503.861476 322.226511 
L 504.963975 319.843132 
L 506.066475 318.070481 
L 508.271474 315.667492 
L 509.373974 314.884472 
L 510.476473 314.475452 
L 512.681473 311.930287 
L 515.988972 308.582491 
L 518.193971 307.759549 
L 519.29647 306.1767 
L 523.706469 298.878784 
L 524.808969 297.861138 
L 525.911468 297.541066 
L 528.116467 293.106987 
L 529.218967 290.397233 
L 530.321467 288.622481 
L 531.423966 285.82378 
L 532.526466 283.38367 
L 533.628966 282.782748 
L 535.833965 278.752085 
L 536.936464 277.017254 
L 538.038964 274.696209 
L 539.141464 272.672123 
L 540.243963 272.020774 
L 541.346463 271.699301 
L 542.448962 269.529537 
L 544.653962 264.177265 
L 546.858961 259.250122 
L 547.961461 258.406869 
L 549.06396 257.397628 
L 550.16646 254.425233 
L 551.268959 252.078273 
L 552.371459 249.322295 
L 553.473959 247.086695 
L 554.576458 245.351864 
L 556.781458 244.605264 
L 557.883957 241.733723 
L 560.088956 237.259723 
L 561.191456 235.24194 
L 562.293956 234.386081 
L 563.396455 234.137447 
L 564.498955 233.75014 
L 565.601455 233.241667 
L 566.703954 232.500669 
L 567.806454 230.631366 
L 568.908953 230.215343 
L 570.011453 228.547748 
L 572.216452 228.182152 
L 573.318952 226.077523 
L 574.421452 224.521288 
L 575.523951 222.048961 
L 576.626451 220.050789 
L 577.72895 218.656341 
L 578.83145 218.422416 
L 579.93395 218.31876 
L 581.036449 216.773031 
L 582.138949 214.824585 
L 583.241449 213.201814 
L 584.343948 211.959348 
L 585.446448 210.969717 
L 588.753947 210.454941 
L 589.856446 208.75793 
L 590.958946 207.923082 
L 592.061446 206.635791 
L 593.163945 205.866779 
L 595.368944 205.668573 
L 597.573944 203.407759 
L 598.676443 202.698979 
L 600.881443 201.890746 
L 603.086442 201.773082 
L 607.49644 200.031948 
L 608.59894 199.483554 
L 610.803939 199.394606 
L 611.906439 198.769171 
L 613.008938 198.360852 
L 614.111438 197.615652 
L 616.316437 197.099475 
L 618.521436 197.068658 
L 621.828935 196.330462 
L 628.443933 195.910937 
L 630.648932 195.588064 
L 631.751432 195.341532 
L 633.956431 195.272194 
L 638.36643 194.685279 
L 640.571429 194.618043 
L 641.673929 194.617343 
L 646.083927 194.085057 
L 651.596425 193.684442 
L 654.903924 193.345461 
L 659.313923 193.203284 
L 673.646418 192.660493 
L 687.978913 190.887142 
L 689.081412 190.448706 
L 693.491411 189.15091 
L 695.69641 188.986322 
L 697.901409 187.999492 
L 700.106409 187.114217 
L 701.208908 186.538508 
L 702.311408 186.404036 
L 704.516407 185.695956 
L 707.823906 183.397323 
L 708.926406 182.540063 
L 710.028905 182.418898 
L 711.131405 182.121939 
L 712.233904 181.359229 
L 713.336404 180.824843 
L 714.438904 179.818403 
L 715.541403 178.442865 
L 716.643903 176.739551 
L 717.746403 176.380258 
L 721.053901 174.050108 
L 722.156401 173.641088 
L 723.258901 172.902192 
L 724.3614 171.70525 
L 726.5664 170.992967 
L 728.771399 167.892404 
L 729.873898 166.977713 
L 730.976398 165.898434 
L 732.078898 165.263193 
L 734.283897 164.650364 
L 735.386397 163.700655 
L 736.488896 162.279592 
L 738.693895 160.062903 
L 739.796395 158.712578 
L 742.001394 157.85882 
L 743.103894 156.554721 
L 744.206394 155.735981 
L 745.308893 154.450091 
L 747.513892 152.255814 
L 749.718892 151.513416 
L 750.821391 150.106361 
L 751.923891 148.18523 
L 753.026391 147.505866 
L 754.12889 146.490321 
L 755.23139 145.663877 
L 756.333889 145.446761 
L 757.436389 145.071359 
L 758.538889 143.655199 
L 761.846387 138.844318 
L 762.948887 137.737024 
L 765.153886 136.869258 
L 765.153886 136.869258 
" style="fill:none;stroke:#008000;stroke-linecap:round;stroke-width:1.5;"/>
   </g>
   <g id="line2d_134"/>
   <g id="line2d_135"/>
   <g id="patch_3">
    <path d="M 67.10625 493.286013 
L 67.10625 29.118125 
" style="fill:none;stroke:#262626;stroke-linecap:square;stroke-linejoin:miter;stroke-width:1.25;"/>
   </g>
   <g id="patch_4">
    <path d="M 798.39425 493.286013 
L 798.39425 29.118125 
" style="fill:none;stroke:#262626;stroke-linecap:square;stroke-linejoin:miter;stroke-width:1.25;"/>
   </g>
   <g id="patch_5">
    <path d="M 67.10625 493.286013 
L 798.39425 493.286013 
" style="fill:none;stroke:#262626;stroke-linecap:square;stroke-linejoin:miter;stroke-width:1.25;"/>
   </g>
   <g id="patch_6">
    <path d="M 67.10625 29.118125 
L 798.39425 29.118125 
" style="fill:none;stroke:#262626;stroke-linecap:square;stroke-linejoin:miter;stroke-width:1.25;"/>
   </g>
   <g id="text_32">
    <!-- Last update: 01.11.2021 -->
    <g style="fill:#262626;" transform="translate(371.251422 22.155607)scale(0.09996 -0.09996)">
     <defs>
      <path d="M 628 4666 
L 1259 4666 
L 1259 531 
L 3531 531 
L 3531 0 
L 628 0 
L 628 4666 
z
" id="DejaVuSans-4c" transform="scale(0.015625)"/>
      <path id="DejaVuSans-20" transform="scale(0.015625)"/>
      <path d="M 544 1381 
L 544 3500 
L 1119 3500 
L 1119 1403 
Q 1119 906 1312 657 
Q 1506 409 1894 409 
Q 2359 409 2629 706 
Q 2900 1003 2900 1516 
L 2900 3500 
L 3475 3500 
L 3475 0 
L 2900 0 
L 2900 538 
Q 2691 219 2414 64 
Q 2138 -91 1772 -91 
Q 1169 -91 856 284 
Q 544 659 544 1381 
z
M 1991 3584 
L 1991 3584 
z
" id="DejaVuSans-75" transform="scale(0.015625)"/>
      <path d="M 1159 525 
L 1159 -1331 
L 581 -1331 
L 581 3500 
L 1159 3500 
L 1159 2969 
Q 1341 3281 1617 3432 
Q 1894 3584 2278 3584 
Q 2916 3584 3314 3078 
Q 3713 2572 3713 1747 
Q 3713 922 3314 415 
Q 2916 -91 2278 -91 
Q 1894 -91 1617 61 
Q 1341 213 1159 525 
z
M 3116 1747 
Q 3116 2381 2855 2742 
Q 2594 3103 2138 3103 
Q 1681 3103 1420 2742 
Q 1159 2381 1159 1747 
Q 1159 1113 1420 752 
Q 1681 391 2138 391 
Q 2594 391 2855 752 
Q 3116 1113 3116 1747 
z
" id="DejaVuSans-70" transform="scale(0.015625)"/>
      <path d="M 2906 2969 
L 2906 4863 
L 3481 4863 
L 3481 0 
L 2906 0 
L 2906 525 
Q 2725 213 2448 61 
Q 2172 -91 1784 -91 
Q 1150 -91 751 415 
Q 353 922 353 1747 
Q 353 2572 751 3078 
Q 1150 3584 1784 3584 
Q 2172 3584 2448 3432 
Q 2725 3281 2906 2969 
z
M 947 1747 
Q 947 1113 1208 752 
Q 1469 391 1925 391 
Q 2381 391 2643 752 
Q 2906 1113 2906 1747 
Q 2906 2381 2643 2742 
Q 2381 3103 1925 3103 
Q 1469 3103 1208 2742 
Q 947 2381 947 1747 
z
" id="DejaVuSans-64" transform="scale(0.015625)"/>
      <path d="M 750 794 
L 1409 794 
L 1409 0 
L 750 0 
L 750 794 
z
M 750 3309 
L 1409 3309 
L 1409 2516 
L 750 2516 
L 750 3309 
z
" id="DejaVuSans-3a" transform="scale(0.015625)"/>
     </defs>
     <use xlink:href="#DejaVuSans-4c"/>
     <use x="55.712891" xlink:href="#DejaVuSans-61"/>
     <use x="116.992188" xlink:href="#DejaVuSans-73"/>
     <use x="169.091797" xlink:href="#DejaVuSans-74"/>
     <use x="208.300781" xlink:href="#DejaVuSans-20"/>
     <use x="240.087891" xlink:href="#DejaVuSans-75"/>
     <use x="303.466797" xlink:href="#DejaVuSans-70"/>
     <use x="366.943359" xlink:href="#DejaVuSans-64"/>
     <use x="430.419922" xlink:href="#DejaVuSans-61"/>
     <use x="491.699219" xlink:href="#DejaVuSans-74"/>
     <use x="530.908203" xlink:href="#DejaVuSans-65"/>
     <use x="592.431641" xlink:href="#DejaVuSans-3a"/>
     <use x="626.123047" xlink:href="#DejaVuSans-20"/>
     <use x="657.910156" xlink:href="#DejaVuSans-30"/>
     <use x="721.533203" xlink:href="#DejaVuSans-31"/>
     <use x="785.15625" xlink:href="#DejaVuSans-2e"/>
     <use x="816.943359" xlink:href="#DejaVuSans-31"/>
     <use x="880.566406" xlink:href="#DejaVuSans-31"/>
     <use x="944.189453" xlink:href="#DejaVuSans-2e"/>
     <use x="975.976562" xlink:href="#DejaVuSans-32"/>
     <use x="1039.599609" xlink:href="#DejaVuSans-30"/>
     <use x="1103.222656" xlink:href="#DejaVuSans-32"/>
     <use x="1166.845703" xlink:href="#DejaVuSans-31"/>
    </g>
   </g>
   <g id="text_33">
    <!-- Disease timeline -->
    <g style="fill:#262626;" transform="translate(376.592125 9.118125)scale(0.12 -0.12)">
     <defs>
      <path d="M 1791 3756 
L 1791 909 
L 2222 909 
Q 2959 909 3348 1275 
Q 3738 1641 3738 2338 
Q 3738 3031 3350 3393 
Q 2963 3756 2222 3756 
L 1791 3756 
z
M 588 4666 
L 1856 4666 
Q 2919 4666 3439 4514 
Q 3959 4363 4331 4000 
Q 4659 3684 4818 3271 
Q 4978 2859 4978 2338 
Q 4978 1809 4818 1395 
Q 4659 981 4331 666 
Q 3956 303 3431 151 
Q 2906 0 1856 0 
L 588 0 
L 588 4666 
z
" id="DejaVuSans-Bold-44" transform="scale(0.015625)"/>
      <path d="M 538 3500 
L 1656 3500 
L 1656 0 
L 538 0 
L 538 3500 
z
M 538 4863 
L 1656 4863 
L 1656 3950 
L 538 3950 
L 538 4863 
z
" id="DejaVuSans-Bold-69" transform="scale(0.015625)"/>
      <path d="M 3272 3391 
L 3272 2541 
Q 2913 2691 2578 2766 
Q 2244 2841 1947 2841 
Q 1628 2841 1473 2761 
Q 1319 2681 1319 2516 
Q 1319 2381 1436 2309 
Q 1553 2238 1856 2203 
L 2053 2175 
Q 2913 2066 3209 1816 
Q 3506 1566 3506 1031 
Q 3506 472 3093 190 
Q 2681 -91 1863 -91 
Q 1516 -91 1145 -36 
Q 775 19 384 128 
L 384 978 
Q 719 816 1070 734 
Q 1422 653 1784 653 
Q 2113 653 2278 743 
Q 2444 834 2444 1013 
Q 2444 1163 2330 1236 
Q 2216 1309 1875 1350 
L 1678 1375 
Q 931 1469 631 1722 
Q 331 1975 331 2491 
Q 331 3047 712 3315 
Q 1094 3584 1881 3584 
Q 2191 3584 2531 3537 
Q 2872 3491 3272 3391 
z
" id="DejaVuSans-Bold-73" transform="scale(0.015625)"/>
      <path d="M 4031 1759 
L 4031 1441 
L 1416 1441 
Q 1456 1047 1700 850 
Q 1944 653 2381 653 
Q 2734 653 3104 758 
Q 3475 863 3866 1075 
L 3866 213 
Q 3469 63 3072 -14 
Q 2675 -91 2278 -91 
Q 1328 -91 801 392 
Q 275 875 275 1747 
Q 275 2603 792 3093 
Q 1309 3584 2216 3584 
Q 3041 3584 3536 3087 
Q 4031 2591 4031 1759 
z
M 2881 2131 
Q 2881 2450 2695 2645 
Q 2509 2841 2209 2841 
Q 1884 2841 1681 2658 
Q 1478 2475 1428 2131 
L 2881 2131 
z
" id="DejaVuSans-Bold-65" transform="scale(0.015625)"/>
      <path d="M 2106 1575 
Q 1756 1575 1579 1456 
Q 1403 1338 1403 1106 
Q 1403 894 1545 773 
Q 1688 653 1941 653 
Q 2256 653 2472 879 
Q 2688 1106 2688 1447 
L 2688 1575 
L 2106 1575 
z
M 3816 1997 
L 3816 0 
L 2688 0 
L 2688 519 
Q 2463 200 2181 54 
Q 1900 -91 1497 -91 
Q 953 -91 614 226 
Q 275 544 275 1050 
Q 275 1666 698 1953 
Q 1122 2241 2028 2241 
L 2688 2241 
L 2688 2328 
Q 2688 2594 2478 2717 
Q 2269 2841 1825 2841 
Q 1466 2841 1156 2769 
Q 847 2697 581 2553 
L 581 3406 
Q 941 3494 1303 3539 
Q 1666 3584 2028 3584 
Q 2975 3584 3395 3211 
Q 3816 2838 3816 1997 
z
" id="DejaVuSans-Bold-61" transform="scale(0.015625)"/>
      <path id="DejaVuSans-Bold-20" transform="scale(0.015625)"/>
      <path d="M 1759 4494 
L 1759 3500 
L 2913 3500 
L 2913 2700 
L 1759 2700 
L 1759 1216 
Q 1759 972 1856 886 
Q 1953 800 2241 800 
L 2816 800 
L 2816 0 
L 1856 0 
Q 1194 0 917 276 
Q 641 553 641 1216 
L 641 2700 
L 84 2700 
L 84 3500 
L 641 3500 
L 641 4494 
L 1759 4494 
z
" id="DejaVuSans-Bold-74" transform="scale(0.015625)"/>
      <path d="M 3781 2919 
Q 3994 3244 4286 3414 
Q 4578 3584 4928 3584 
Q 5531 3584 5847 3212 
Q 6163 2841 6163 2131 
L 6163 0 
L 5038 0 
L 5038 1825 
Q 5041 1866 5042 1909 
Q 5044 1953 5044 2034 
Q 5044 2406 4934 2573 
Q 4825 2741 4581 2741 
Q 4263 2741 4089 2478 
Q 3916 2216 3909 1719 
L 3909 0 
L 2784 0 
L 2784 1825 
Q 2784 2406 2684 2573 
Q 2584 2741 2328 2741 
Q 2006 2741 1831 2477 
Q 1656 2213 1656 1722 
L 1656 0 
L 531 0 
L 531 3500 
L 1656 3500 
L 1656 2988 
Q 1863 3284 2130 3434 
Q 2397 3584 2719 3584 
Q 3081 3584 3359 3409 
Q 3638 3234 3781 2919 
z
" id="DejaVuSans-Bold-6d" transform="scale(0.015625)"/>
      <path d="M 538 4863 
L 1656 4863 
L 1656 0 
L 538 0 
L 538 4863 
z
" id="DejaVuSans-Bold-6c" transform="scale(0.015625)"/>
      <path d="M 4056 2131 
L 4056 0 
L 2931 0 
L 2931 347 
L 2931 1631 
Q 2931 2084 2911 2256 
Q 2891 2428 2841 2509 
Q 2775 2619 2662 2680 
Q 2550 2741 2406 2741 
Q 2056 2741 1856 2470 
Q 1656 2200 1656 1722 
L 1656 0 
L 538 0 
L 538 3500 
L 1656 3500 
L 1656 2988 
Q 1909 3294 2193 3439 
Q 2478 3584 2822 3584 
Q 3428 3584 3742 3212 
Q 4056 2841 4056 2131 
z
" id="DejaVuSans-Bold-6e" transform="scale(0.015625)"/>
     </defs>
     <use xlink:href="#DejaVuSans-Bold-44"/>
     <use x="83.007812" xlink:href="#DejaVuSans-Bold-69"/>
     <use x="117.285156" xlink:href="#DejaVuSans-Bold-73"/>
     <use x="176.806641" xlink:href="#DejaVuSans-Bold-65"/>
     <use x="244.628906" xlink:href="#DejaVuSans-Bold-61"/>
     <use x="312.109375" xlink:href="#DejaVuSans-Bold-73"/>
     <use x="371.630859" xlink:href="#DejaVuSans-Bold-65"/>
     <use x="439.453125" xlink:href="#DejaVuSans-Bold-20"/>
     <use x="474.267578" xlink:href="#DejaVuSans-Bold-74"/>
     <use x="522.070312" xlink:href="#DejaVuSans-Bold-69"/>
     <use x="556.347656" xlink:href="#DejaVuSans-Bold-6d"/>
     <use x="660.546875" xlink:href="#DejaVuSans-Bold-65"/>
     <use x="728.369141" xlink:href="#DejaVuSans-Bold-6c"/>
     <use x="762.646484" xlink:href="#DejaVuSans-Bold-69"/>
     <use x="796.923828" xlink:href="#DejaVuSans-Bold-6e"/>
     <use x="868.115234" xlink:href="#DejaVuSans-Bold-65"/>
    </g>
   </g>
  </g>
  <g id="axes_2">
   <g id="matplotlib.axis_3">
    <g id="ytick_8">
     <g id="line2d_136">
      <defs>
       <path d="M 0 0 
L 6 0 
" id="m0b00760736" style="stroke:#262626;stroke-width:1.25;"/>
      </defs>
      <g>
       <use style="fill:#262626;stroke:#262626;stroke-width:1.25;" x="798.39425" xlink:href="#m0b00760736" y="472.187472"/>
      </g>
     </g>
     <g id="text_34">
      <!-- 0 -->
      <g style="fill:#262626;" transform="translate(807.89425 476.366613)scale(0.11 -0.11)">
       <use xlink:href="#DejaVuSans-30"/>
      </g>
     </g>
    </g>
    <g id="ytick_9">
     <g id="line2d_137">
      <g>
       <use style="fill:#262626;stroke:#262626;stroke-width:1.25;" x="798.39425" xlink:href="#m0b00760736" y="384.273224"/>
      </g>
     </g>
     <g id="text_35">
      <!-- 5000 -->
      <g style="fill:#262626;" transform="translate(807.89425 388.452365)scale(0.11 -0.11)">
       <use xlink:href="#DejaVuSans-35"/>
       <use x="63.623047" xlink:href="#DejaVuSans-30"/>
       <use x="127.246094" xlink:href="#DejaVuSans-30"/>
       <use x="190.869141" xlink:href="#DejaVuSans-30"/>
      </g>
     </g>
    </g>
    <g id="ytick_10">
     <g id="line2d_138">
      <g>
       <use style="fill:#262626;stroke:#262626;stroke-width:1.25;" x="798.39425" xlink:href="#m0b00760736" y="296.358977"/>
      </g>
     </g>
     <g id="text_36">
      <!-- 10000 -->
      <g style="fill:#262626;" transform="translate(807.89425 300.538117)scale(0.11 -0.11)">
       <use xlink:href="#DejaVuSans-31"/>
       <use x="63.623047" xlink:href="#DejaVuSans-30"/>
       <use x="127.246094" xlink:href="#DejaVuSans-30"/>
       <use x="190.869141" xlink:href="#DejaVuSans-30"/>
       <use x="254.492188" xlink:href="#DejaVuSans-30"/>
      </g>
     </g>
    </g>
    <g id="ytick_11">
     <g id="line2d_139">
      <g>
       <use style="fill:#262626;stroke:#262626;stroke-width:1.25;" x="798.39425" xlink:href="#m0b00760736" y="208.444729"/>
      </g>
     </g>
     <g id="text_37">
      <!-- 15000 -->
      <g style="fill:#262626;" transform="translate(807.89425 212.623869)scale(0.11 -0.11)">
       <use xlink:href="#DejaVuSans-31"/>
       <use x="63.623047" xlink:href="#DejaVuSans-35"/>
       <use x="127.246094" xlink:href="#DejaVuSans-30"/>
       <use x="190.869141" xlink:href="#DejaVuSans-30"/>
       <use x="254.492188" xlink:href="#DejaVuSans-30"/>
      </g>
     </g>
    </g>
    <g id="ytick_12">
     <g id="line2d_140">
      <g>
       <use style="fill:#262626;stroke:#262626;stroke-width:1.25;" x="798.39425" xlink:href="#m0b00760736" y="120.530481"/>
      </g>
     </g>
     <g id="text_38">
      <!-- 20000 -->
      <g style="fill:#262626;" transform="translate(807.89425 124.709621)scale(0.11 -0.11)">
       <use xlink:href="#DejaVuSans-32"/>
       <use x="63.623047" xlink:href="#DejaVuSans-30"/>
       <use x="127.246094" xlink:href="#DejaVuSans-30"/>
       <use x="190.869141" xlink:href="#DejaVuSans-30"/>
       <use x="254.492188" xlink:href="#DejaVuSans-30"/>
      </g>
     </g>
    </g>
    <g id="ytick_13">
     <g id="line2d_141">
      <g>
       <use style="fill:#262626;stroke:#262626;stroke-width:1.25;" x="798.39425" xlink:href="#m0b00760736" y="32.616233"/>
      </g>
     </g>
     <g id="text_39">
      <!-- 25000 -->
      <g style="fill:#262626;" transform="translate(807.89425 36.795374)scale(0.11 -0.11)">
       <use xlink:href="#DejaVuSans-32"/>
       <use x="63.623047" xlink:href="#DejaVuSans-35"/>
       <use x="127.246094" xlink:href="#DejaVuSans-30"/>
       <use x="190.869141" xlink:href="#DejaVuSans-30"/>
       <use x="254.492188" xlink:href="#DejaVuSans-30"/>
      </g>
     </g>
    </g>
    <g id="text_40">
     <!-- Fatalities -->
     <g style="fill:#262626;" transform="translate(853.769875 234.422381)rotate(-270)scale(0.12 -0.12)">
      <defs>
       <path d="M 628 4666 
L 3309 4666 
L 3309 4134 
L 1259 4134 
L 1259 2759 
L 3109 2759 
L 3109 2228 
L 1259 2228 
L 1259 0 
L 628 0 
L 628 4666 
z
" id="DejaVuSans-46" transform="scale(0.015625)"/>
       <path d="M 603 4863 
L 1178 4863 
L 1178 0 
L 603 0 
L 603 4863 
z
" id="DejaVuSans-6c" transform="scale(0.015625)"/>
       <path d="M 603 3500 
L 1178 3500 
L 1178 0 
L 603 0 
L 603 3500 
z
M 603 4863 
L 1178 4863 
L 1178 4134 
L 603 4134 
L 603 4863 
z
" id="DejaVuSans-69" transform="scale(0.015625)"/>
      </defs>
      <use xlink:href="#DejaVuSans-46"/>
      <use x="48.394531" xlink:href="#DejaVuSans-61"/>
      <use x="109.673828" xlink:href="#DejaVuSans-74"/>
      <use x="148.882812" xlink:href="#DejaVuSans-61"/>
      <use x="210.162109" xlink:href="#DejaVuSans-6c"/>
      <use x="237.945312" xlink:href="#DejaVuSans-69"/>
      <use x="265.728516" xlink:href="#DejaVuSans-74"/>
      <use x="304.9375" xlink:href="#DejaVuSans-69"/>
      <use x="332.720703" xlink:href="#DejaVuSans-65"/>
      <use x="394.244141" xlink:href="#DejaVuSans-73"/>
     </g>
    </g>
   </g>
   <g id="line2d_142">
    <path clip-path="url(#p9e35224ca7)" d="M 100.346614 472.187472 
L 121.294106 472.134724 
L 123.499106 472.046809 
L 129.011604 471.941312 
L 134.524102 471.765484 
L 138.9341 471.67757 
L 145.549098 471.466575 
L 151.061596 471.273164 
L 175.316588 470.394022 
L 183.034085 469.989616 
L 194.059082 469.725873 
L 200.674079 469.374216 
L 202.879079 469.303885 
L 207.289077 469.163222 
L 210.596576 469.092891 
L 216.109074 468.688485 
L 217.211574 468.688485 
L 218.314073 468.547822 
L 224.929071 468.336828 
L 239.261566 467.492851 
L 240.364066 467.475269 
L 243.671565 467.106029 
L 251.389062 466.543378 
L 253.594061 466.262052 
L 255.79906 466.209303 
L 258.00406 465.945561 
L 259.106559 465.716984 
L 264.619057 465.084001 
L 269.029056 464.415853 
L 271.234055 464.327939 
L 274.541554 463.712539 
L 276.746553 463.53671 
L 278.951553 463.431213 
L 280.054052 463.185053 
L 285.56655 462.604819 
L 286.66905 462.604819 
L 287.77155 462.288328 
L 295.489047 461.12786 
L 296.591547 460.899283 
L 303.206544 460.283883 
L 305.411544 459.844312 
L 309.821542 459.527821 
L 312.026541 459.246495 
L 313.129041 459.193746 
L 315.33404 458.947587 
L 319.744039 458.701427 
L 321.949038 458.384935 
L 326.359036 457.998113 
L 328.564036 457.681621 
L 331.871534 457.400296 
L 332.974034 457.347547 
L 337.384033 456.714565 
L 339.589032 456.521153 
L 340.691531 456.50357 
L 341.794031 456.099165 
L 345.10153 455.589262 
L 348.409029 454.850783 
L 349.511528 454.46396 
L 350.614028 454.270549 
L 351.716528 453.760646 
L 353.921527 453.250743 
L 356.126526 452.951835 
L 357.229026 452.213355 
L 358.331525 451.773784 
L 359.434025 451.140801 
L 362.741524 449.699008 
L 363.844024 449.364934 
L 364.946523 448.468208 
L 366.049023 447.360489 
L 370.459021 443.492262 
L 371.561521 442.912028 
L 372.664021 441.048246 
L 373.76652 439.641618 
L 374.86902 438.815224 
L 375.971519 437.549259 
L 377.074019 436.054716 
L 379.279018 434.736003 
L 380.381518 432.06341 
L 382.586517 427.702863 
L 384.791516 423.342316 
L 385.894016 422.603836 
L 386.996516 421.548866 
L 388.099015 418.225707 
L 392.509014 407.482586 
L 394.714013 405.126484 
L 395.816513 401.240674 
L 400.226511 390.427222 
L 401.329011 389.038177 
L 402.43151 387.842543 
L 403.53401 384.097396 
L 404.63651 381.5303 
L 406.841509 377.15217 
L 407.944008 374.391663 
L 410.149008 372.176224 
L 411.251507 369.538796 
L 412.354007 366.602461 
L 413.456507 363.244136 
L 415.661506 357.969281 
L 417.866505 355.982419 
L 418.969005 353.239495 
L 420.071504 351.23505 
L 421.174004 349.494348 
L 423.379003 347.823977 
L 424.481503 346.944835 
L 425.584002 346.223938 
L 426.686502 344.69423 
L 427.789002 341.986471 
L 428.891501 340.052358 
L 429.994001 338.979804 
L 431.096501 338.487484 
L 433.3015 337.186353 
L 434.403999 334.425846 
L 436.608999 332.210407 
L 438.813998 330.153213 
L 439.916498 329.819139 
L 441.018997 329.309237 
L 442.121497 327.445455 
L 443.223996 326.619061 
L 444.326496 325.388261 
L 445.428996 324.561867 
L 446.531495 323.489313 
L 447.633995 323.190405 
L 448.736495 323.032159 
L 449.838994 321.590366 
L 450.941494 320.728806 
L 452.043993 320.078241 
L 453.146493 318.495784 
L 454.248993 317.475979 
L 456.453992 317.106739 
L 457.556492 316.051768 
L 458.658991 315.418785 
L 460.86399 314.416563 
L 461.96649 313.801163 
L 464.171489 313.150598 
L 465.273989 311.445061 
L 467.478988 310.108765 
L 468.581488 309.159291 
L 469.683987 308.631806 
L 470.786487 308.47356 
L 471.888987 308.121903 
L 472.991486 306.557029 
L 474.093986 305.466893 
L 475.196485 304.675664 
L 477.401485 303.497613 
L 479.606484 302.970128 
L 480.708984 302.143734 
L 481.811483 301.581083 
L 485.118982 299.506307 
L 487.323981 298.926073 
L 488.426481 297.537027 
L 490.63148 295.901822 
L 492.836479 294.108372 
L 493.938979 293.422641 
L 495.041479 293.000652 
L 496.143978 290.943459 
L 497.246478 289.484082 
L 498.348978 289.09726 
L 499.451477 287.462055 
L 500.553977 286.319169 
L 502.758976 285.563107 
L 504.963975 280.499246 
L 508.271474 275.329888 
L 509.373974 274.66174 
L 510.476473 273.765015 
L 511.578973 270.477022 
L 512.681473 268.595657 
L 513.783972 266.20439 
L 514.886472 264.410939 
L 515.988972 262.388911 
L 517.091471 261.791094 
L 518.193971 260.859203 
L 519.29647 257.887702 
L 521.50147 253.931561 
L 523.706469 250.625985 
L 524.808969 249.764425 
L 525.911468 248.709454 
L 527.013968 245.140136 
L 528.116467 242.414794 
L 530.321467 238.106996 
L 531.423966 235.90914 
L 532.526466 234.695923 
L 533.628966 233.254129 
L 534.731465 229.790308 
L 535.833965 227.469372 
L 536.936464 225.429761 
L 539.141464 220.612061 
L 540.243963 219.855998 
L 541.346463 218.677947 
L 542.448962 215.143794 
L 544.653962 210.712916 
L 545.756461 208.813969 
L 546.858961 206.686444 
L 547.961461 206.018295 
L 549.06396 205.016073 
L 550.16646 201.200595 
L 554.576458 193.921295 
L 555.678958 193.341061 
L 556.781458 192.497084 
L 557.883957 189.086011 
L 558.986457 187.6618 
L 561.191456 184.39139 
L 562.293956 183.846322 
L 564.498955 182.211117 
L 566.703954 180.153924 
L 567.806454 177.270336 
L 568.908953 176.795599 
L 570.011453 175.283474 
L 571.113953 175.002149 
L 572.216452 174.527412 
L 573.318952 172.487801 
L 574.421452 171.450413 
L 577.72895 169.006397 
L 579.93395 168.725071 
L 581.036449 167.248112 
L 584.343948 165.419496 
L 585.446448 164.944759 
L 588.753947 164.259028 
L 589.856446 163.063394 
L 590.958946 162.430411 
L 593.163945 161.815012 
L 595.368944 161.639183 
L 596.471444 160.971035 
L 598.676443 160.144641 
L 599.778943 159.353413 
L 600.881443 159.036921 
L 603.086442 158.861093 
L 604.188941 158.263276 
L 606.393941 157.946785 
L 607.49644 157.683042 
L 611.906439 157.190722 
L 613.008938 156.891814 
L 615.213938 156.047837 
L 617.418937 155.889591 
L 618.521436 155.872008 
L 620.726436 155.555517 
L 628.443933 154.83462 
L 631.751432 154.236803 
L 633.956431 154.219221 
L 635.058931 153.498324 
L 642.776428 153.16425 
L 644.981427 152.91809 
L 652.698925 152.408187 
L 664.826421 151.915867 
L 667.03142 151.740039 
L 668.13392 151.669707 
L 670.338919 151.282885 
L 672.543918 151.212553 
L 673.646418 150.808148 
L 674.748917 150.632319 
L 676.953917 150.052085 
L 679.158916 149.735594 
L 680.261415 149.64768 
L 681.363915 149.085029 
L 684.671414 147.994892 
L 685.773914 147.625652 
L 687.978913 147.344326 
L 689.081412 146.342104 
L 690.183912 145.76187 
L 691.286412 144.917893 
L 692.388911 144.320076 
L 693.491411 143.564014 
L 694.59391 143.300271 
L 695.69641 142.843117 
L 696.79891 140.926586 
L 700.106409 138.095748 
L 701.208908 137.216605 
L 704.516407 135.493486 
L 705.618907 133.365961 
L 706.721406 132.223076 
L 707.823906 131.308768 
L 708.926406 130.042802 
L 710.028905 129.866974 
L 711.131405 128.935083 
L 712.233904 126.491067 
L 713.336404 125.03169 
L 715.541403 122.710754 
L 716.643903 121.321709 
L 717.746403 120.794224 
L 718.848902 120.038161 
L 719.951402 117.611728 
L 721.053901 116.591922 
L 722.156401 116.117186 
L 723.258901 114.376483 
L 724.3614 113.092935 
L 725.4639 112.635781 
L 726.5664 111.932467 
L 727.668899 109.312623 
L 729.873898 106.253207 
L 730.976398 105.022407 
L 732.078898 103.4927 
L 733.181397 103.035545 
L 734.283897 102.279483 
L 735.386397 99.149736 
L 736.488896 97.321119 
L 739.796395 92.644081 
L 740.898895 92.116596 
L 742.001394 91.413282 
L 743.103894 88.652775 
L 747.513892 82.059206 
L 749.718892 80.547081 
L 750.821391 76.784351 
L 751.923891 74.604078 
L 753.026391 72.722713 
L 754.12889 70.612771 
L 755.23139 68.221503 
L 756.333889 67.201698 
L 757.436389 66.498384 
L 758.538889 62.225752 
L 759.641388 60.045478 
L 760.743888 57.337719 
L 761.846387 55.157446 
L 762.948887 52.449687 
L 764.051387 51.640876 
L 765.153886 50.216665 
L 765.153886 50.216665 
" style="fill:none;stroke:#ff0000;stroke-linecap:round;stroke-width:1.5;"/>
   </g>
   <g id="patch_7">
    <path d="M 67.10625 493.286013 
L 67.10625 29.118125 
" style="fill:none;stroke:#262626;stroke-linecap:square;stroke-linejoin:miter;stroke-width:1.25;"/>
   </g>
   <g id="patch_8">
    <path d="M 798.39425 493.286013 
L 798.39425 29.118125 
" style="fill:none;stroke:#262626;stroke-linecap:square;stroke-linejoin:miter;stroke-width:1.25;"/>
   </g>
   <g id="patch_9">
    <path d="M 67.10625 493.286013 
L 798.39425 493.286013 
" style="fill:none;stroke:#262626;stroke-linecap:square;stroke-linejoin:miter;stroke-width:1.25;"/>
   </g>
   <g id="patch_10">
    <path d="M 67.10625 29.118125 
L 798.39425 29.118125 
" style="fill:none;stroke:#262626;stroke-linecap:square;stroke-linejoin:miter;stroke-width:1.25;"/>
   </g>
   <g id="legend_1">
    <g id="patch_11">
     <path d="M 74.80625 86.355937 
L 154.975625 86.355937 
Q 157.175625 86.355937 157.175625 84.155937 
L 157.175625 36.818125 
Q 157.175625 34.618125 154.975625 34.618125 
L 74.80625 34.618125 
Q 72.60625 34.618125 72.60625 36.818125 
L 72.60625 84.155937 
Q 72.60625 86.355937 74.80625 86.355937 
z
" style="fill:#ffffff;opacity:0.8;stroke:#cccccc;stroke-linejoin:miter;"/>
    </g>
    <g id="line2d_143">
     <path d="M 77.00625 43.526406 
L 99.00625 43.526406 
" style="fill:none;stroke:#ffa500;stroke-linecap:round;stroke-width:1.5;"/>
    </g>
    <g id="line2d_144"/>
    <g id="text_41">
     <!-- Infected -->
     <g style="fill:#262626;" transform="translate(107.80625 47.376406)scale(0.11 -0.11)">
      <defs>
       <path d="M 628 4666 
L 1259 4666 
L 1259 0 
L 628 0 
L 628 4666 
z
" id="DejaVuSans-49" transform="scale(0.015625)"/>
       <path d="M 3513 2113 
L 3513 0 
L 2938 0 
L 2938 2094 
Q 2938 2591 2744 2837 
Q 2550 3084 2163 3084 
Q 1697 3084 1428 2787 
Q 1159 2491 1159 1978 
L 1159 0 
L 581 0 
L 581 3500 
L 1159 3500 
L 1159 2956 
Q 1366 3272 1645 3428 
Q 1925 3584 2291 3584 
Q 2894 3584 3203 3211 
Q 3513 2838 3513 2113 
z
" id="DejaVuSans-6e" transform="scale(0.015625)"/>
       <path d="M 2375 4863 
L 2375 4384 
L 1825 4384 
Q 1516 4384 1395 4259 
Q 1275 4134 1275 3809 
L 1275 3500 
L 2222 3500 
L 2222 3053 
L 1275 3053 
L 1275 0 
L 697 0 
L 697 3053 
L 147 3053 
L 147 3500 
L 697 3500 
L 697 3744 
Q 697 4328 969 4595 
Q 1241 4863 1831 4863 
L 2375 4863 
z
" id="DejaVuSans-66" transform="scale(0.015625)"/>
       <path d="M 3122 3366 
L 3122 2828 
Q 2878 2963 2633 3030 
Q 2388 3097 2138 3097 
Q 1578 3097 1268 2742 
Q 959 2388 959 1747 
Q 959 1106 1268 751 
Q 1578 397 2138 397 
Q 2388 397 2633 464 
Q 2878 531 3122 666 
L 3122 134 
Q 2881 22 2623 -34 
Q 2366 -91 2075 -91 
Q 1284 -91 818 406 
Q 353 903 353 1747 
Q 353 2603 823 3093 
Q 1294 3584 2113 3584 
Q 2378 3584 2631 3529 
Q 2884 3475 3122 3366 
z
" id="DejaVuSans-63" transform="scale(0.015625)"/>
      </defs>
      <use xlink:href="#DejaVuSans-49"/>
      <use x="29.492188" xlink:href="#DejaVuSans-6e"/>
      <use x="92.871094" xlink:href="#DejaVuSans-66"/>
      <use x="128.076172" xlink:href="#DejaVuSans-65"/>
      <use x="189.599609" xlink:href="#DejaVuSans-63"/>
      <use x="244.580078" xlink:href="#DejaVuSans-74"/>
      <use x="283.789062" xlink:href="#DejaVuSans-65"/>
      <use x="345.3125" xlink:href="#DejaVuSans-64"/>
     </g>
    </g>
    <g id="line2d_145">
     <path d="M 77.00625 59.672344 
L 99.00625 59.672344 
" style="fill:none;stroke:#008000;stroke-linecap:round;stroke-width:1.5;"/>
    </g>
    <g id="line2d_146"/>
    <g id="text_42">
     <!-- Cured -->
     <g style="fill:#262626;" transform="translate(107.80625 63.522344)scale(0.11 -0.11)">
      <defs>
       <path d="M 2631 2963 
Q 2534 3019 2420 3045 
Q 2306 3072 2169 3072 
Q 1681 3072 1420 2755 
Q 1159 2438 1159 1844 
L 1159 0 
L 581 0 
L 581 3500 
L 1159 3500 
L 1159 2956 
Q 1341 3275 1631 3429 
Q 1922 3584 2338 3584 
Q 2397 3584 2469 3576 
Q 2541 3569 2628 3553 
L 2631 2963 
z
" id="DejaVuSans-72" transform="scale(0.015625)"/>
      </defs>
      <use xlink:href="#DejaVuSans-43"/>
      <use x="69.824219" xlink:href="#DejaVuSans-75"/>
      <use x="133.203125" xlink:href="#DejaVuSans-72"/>
      <use x="172.066406" xlink:href="#DejaVuSans-65"/>
      <use x="233.589844" xlink:href="#DejaVuSans-64"/>
     </g>
    </g>
    <g id="line2d_147">
     <path d="M 77.00625 75.818281 
L 99.00625 75.818281 
" style="fill:none;stroke:#ff0000;stroke-linecap:round;stroke-width:1.5;"/>
    </g>
    <g id="line2d_148"/>
    <g id="text_43">
     <!-- Fatal -->
     <g style="fill:#262626;" transform="translate(107.80625 79.668281)scale(0.11 -0.11)">
      <use xlink:href="#DejaVuSans-46"/>
      <use x="48.394531" xlink:href="#DejaVuSans-61"/>
      <use x="109.673828" xlink:href="#DejaVuSans-74"/>
      <use x="148.882812" xlink:href="#DejaVuSans-61"/>
      <use x="210.162109" xlink:href="#DejaVuSans-6c"/>
     </g>
    </g>
   </g>
  </g>
 </g>
 <defs>
  <clipPath id="p9e35224ca7">
   <rect height="464.167888" width="731.288" x="67.10625" y="29.118125"/>
  </clipPath>
 </defs>
</svg>
