<?xml version="1.0" encoding="utf-8" standalone="no"?>
<!DOCTYPE svg PUBLIC "-//W3C//DTD SVG 1.1//EN"
  "http://www.w3.org/Graphics/SVG/1.1/DTD/svg11.dtd">
<svg xmlns:xlink="http://www.w3.org/1999/xlink" width="837.0775pt" height="547.904678pt" viewBox="0 0 837.0775 547.904678" xmlns="http://www.w3.org/2000/svg" version="1.1">
 <metadata>
  <rdf:RDF xmlns:dc="http://purl.org/dc/elements/1.1/" xmlns:cc="http://creativecommons.org/ns#" xmlns:rdf="http://www.w3.org/1999/02/22-rdf-syntax-ns#">
   <cc:Work>
    <dc:type rdf:resource="http://purl.org/dc/dcmitype/StillImage"/>
    <dc:date>2021-11-27T01:07:08.200038</dc:date>
    <dc:format>image/svg+xml</dc:format>
    <dc:creator>
     <cc:Agent>
      <dc:title>Matplotlib v3.5.0, https://matplotlib.org/</dc:title>
     </cc:Agent>
    </dc:creator>
   </cc:Work>
  </rdf:RDF>
 </metadata>
 <defs>
  <style type="text/css">*{stroke-linejoin: round; stroke-linecap: butt}</style>
 </defs>
 <g id="figure_1">
  <g id="patch_1">
   <path d="M -0 547.904678 
L 837.0775 547.904678 
L 837.0775 0 
L -0 0 
L -0 547.904678 
z
" style="fill: none"/>
  </g>
  <g id="axes_1">
   <g id="patch_2">
    <path d="M 60.1075 470.728203 
L 837.0775 470.728203 
L 837.0775 29.118125 
L 60.1075 29.118125 
L 60.1075 470.728203 
z
" style="fill: none"/>
   </g>
   <g id="matplotlib.axis_1">
    <g id="xtick_1">
     <g id="line2d_1">
      <path d="M 95.424318 470.728203 
L 95.424318 29.118125 
" clip-path="url(#p290a18fc45)" style="fill: none; stroke: #cccccc; stroke-linecap: round"/>
     </g>
     <g id="line2d_2">
      <defs>
       <path id="me6891bb765" d="M 0 0 
L 0 6 
" style="stroke: #262626; stroke-width: 1.25"/>
      </defs>
      <g>
       <use xlink:href="#me6891bb765" x="95.424318" y="470.728203" style="fill: #262626; stroke: #262626; stroke-width: 1.25"/>
      </g>
     </g>
     <g id="text_1">
      <!-- 05.04.2020 -->
      <g style="fill: #262626" transform="translate(49.27179 530.673311)rotate(-45)scale(0.11 -0.11)">
       <defs>
        <path id="DejaVuSans-30" d="M 2034 4250 
Q 1547 4250 1301 3770 
Q 1056 3291 1056 2328 
Q 1056 1369 1301 889 
Q 1547 409 2034 409 
Q 2525 409 2770 889 
Q 3016 1369 3016 2328 
Q 3016 3291 2770 3770 
Q 2525 4250 2034 4250 
z
M 2034 4750 
Q 2819 4750 3233 4129 
Q 3647 3509 3647 2328 
Q 3647 1150 3233 529 
Q 2819 -91 2034 -91 
Q 1250 -91 836 529 
Q 422 1150 422 2328 
Q 422 3509 836 4129 
Q 1250 4750 2034 4750 
z
" transform="scale(0.015625)"/>
        <path id="DejaVuSans-35" d="M 691 4666 
L 3169 4666 
L 3169 4134 
L 1269 4134 
L 1269 2991 
Q 1406 3038 1543 3061 
Q 1681 3084 1819 3084 
Q 2600 3084 3056 2656 
Q 3513 2228 3513 1497 
Q 3513 744 3044 326 
Q 2575 -91 1722 -91 
Q 1428 -91 1123 -41 
Q 819 9 494 109 
L 494 744 
Q 775 591 1075 516 
Q 1375 441 1709 441 
Q 2250 441 2565 725 
Q 2881 1009 2881 1497 
Q 2881 1984 2565 2268 
Q 2250 2553 1709 2553 
Q 1456 2553 1204 2497 
Q 953 2441 691 2322 
L 691 4666 
z
" transform="scale(0.015625)"/>
        <path id="DejaVuSans-2e" d="M 684 794 
L 1344 794 
L 1344 0 
L 684 0 
L 684 794 
z
" transform="scale(0.015625)"/>
        <path id="DejaVuSans-34" d="M 2419 4116 
L 825 1625 
L 2419 1625 
L 2419 4116 
z
M 2253 4666 
L 3047 4666 
L 3047 1625 
L 3713 1625 
L 3713 1100 
L 3047 1100 
L 3047 0 
L 2419 0 
L 2419 1100 
L 313 1100 
L 313 1709 
L 2253 4666 
z
" transform="scale(0.015625)"/>
        <path id="DejaVuSans-32" d="M 1228 531 
L 3431 531 
L 3431 0 
L 469 0 
L 469 531 
Q 828 903 1448 1529 
Q 2069 2156 2228 2338 
Q 2531 2678 2651 2914 
Q 2772 3150 2772 3378 
Q 2772 3750 2511 3984 
Q 2250 4219 1831 4219 
Q 1534 4219 1204 4116 
Q 875 4013 500 3803 
L 500 4441 
Q 881 4594 1212 4672 
Q 1544 4750 1819 4750 
Q 2544 4750 2975 4387 
Q 3406 4025 3406 3419 
Q 3406 3131 3298 2873 
Q 3191 2616 2906 2266 
Q 2828 2175 2409 1742 
Q 1991 1309 1228 531 
z
" transform="scale(0.015625)"/>
       </defs>
       <use xlink:href="#DejaVuSans-30"/>
       <use xlink:href="#DejaVuSans-35" x="63.623047"/>
       <use xlink:href="#DejaVuSans-2e" x="127.246094"/>
       <use xlink:href="#DejaVuSans-30" x="159.033203"/>
       <use xlink:href="#DejaVuSans-34" x="222.65625"/>
       <use xlink:href="#DejaVuSans-2e" x="286.279297"/>
       <use xlink:href="#DejaVuSans-32" x="318.066406"/>
       <use xlink:href="#DejaVuSans-30" x="381.689453"/>
       <use xlink:href="#DejaVuSans-32" x="445.3125"/>
       <use xlink:href="#DejaVuSans-30" x="508.935547"/>
      </g>
     </g>
    </g>
    <g id="xtick_2">
     <g id="line2d_3">
      <path d="M 128.386682 470.728203 
L 128.386682 29.118125 
" clip-path="url(#p290a18fc45)" style="fill: none; stroke: #cccccc; stroke-linecap: round"/>
     </g>
     <g id="line2d_4">
      <g>
       <use xlink:href="#me6891bb765" x="128.386682" y="470.728203" style="fill: #262626; stroke: #262626; stroke-width: 1.25"/>
      </g>
     </g>
     <g id="text_2">
      <!-- 03.05.2020 -->
      <g style="fill: #262626" transform="translate(82.234154 530.673311)rotate(-45)scale(0.11 -0.11)">
       <defs>
        <path id="DejaVuSans-33" d="M 2597 2516 
Q 3050 2419 3304 2112 
Q 3559 1806 3559 1356 
Q 3559 666 3084 287 
Q 2609 -91 1734 -91 
Q 1441 -91 1130 -33 
Q 819 25 488 141 
L 488 750 
Q 750 597 1062 519 
Q 1375 441 1716 441 
Q 2309 441 2620 675 
Q 2931 909 2931 1356 
Q 2931 1769 2642 2001 
Q 2353 2234 1838 2234 
L 1294 2234 
L 1294 2753 
L 1863 2753 
Q 2328 2753 2575 2939 
Q 2822 3125 2822 3475 
Q 2822 3834 2567 4026 
Q 2313 4219 1838 4219 
Q 1578 4219 1281 4162 
Q 984 4106 628 3988 
L 628 4550 
Q 988 4650 1302 4700 
Q 1616 4750 1894 4750 
Q 2613 4750 3031 4423 
Q 3450 4097 3450 3541 
Q 3450 3153 3228 2886 
Q 3006 2619 2597 2516 
z
" transform="scale(0.015625)"/>
       </defs>
       <use xlink:href="#DejaVuSans-30"/>
       <use xlink:href="#DejaVuSans-33" x="63.623047"/>
       <use xlink:href="#DejaVuSans-2e" x="127.246094"/>
       <use xlink:href="#DejaVuSans-30" x="159.033203"/>
       <use xlink:href="#DejaVuSans-35" x="222.65625"/>
       <use xlink:href="#DejaVuSans-2e" x="286.279297"/>
       <use xlink:href="#DejaVuSans-32" x="318.066406"/>
       <use xlink:href="#DejaVuSans-30" x="381.689453"/>
       <use xlink:href="#DejaVuSans-32" x="445.3125"/>
       <use xlink:href="#DejaVuSans-30" x="508.935547"/>
      </g>
     </g>
    </g>
    <g id="xtick_3">
     <g id="line2d_5">
      <path d="M 161.349045 470.728203 
L 161.349045 29.118125 
" clip-path="url(#p290a18fc45)" style="fill: none; stroke: #cccccc; stroke-linecap: round"/>
     </g>
     <g id="line2d_6">
      <g>
       <use xlink:href="#me6891bb765" x="161.349045" y="470.728203" style="fill: #262626; stroke: #262626; stroke-width: 1.25"/>
      </g>
     </g>
     <g id="text_3">
      <!-- 31.05.2020 -->
      <g style="fill: #262626" transform="translate(115.196517 530.673311)rotate(-45)scale(0.11 -0.11)">
       <defs>
        <path id="DejaVuSans-31" d="M 794 531 
L 1825 531 
L 1825 4091 
L 703 3866 
L 703 4441 
L 1819 4666 
L 2450 4666 
L 2450 531 
L 3481 531 
L 3481 0 
L 794 0 
L 794 531 
z
" transform="scale(0.015625)"/>
       </defs>
       <use xlink:href="#DejaVuSans-33"/>
       <use xlink:href="#DejaVuSans-31" x="63.623047"/>
       <use xlink:href="#DejaVuSans-2e" x="127.246094"/>
       <use xlink:href="#DejaVuSans-30" x="159.033203"/>
       <use xlink:href="#DejaVuSans-35" x="222.65625"/>
       <use xlink:href="#DejaVuSans-2e" x="286.279297"/>
       <use xlink:href="#DejaVuSans-32" x="318.066406"/>
       <use xlink:href="#DejaVuSans-30" x="381.689453"/>
       <use xlink:href="#DejaVuSans-32" x="445.3125"/>
       <use xlink:href="#DejaVuSans-30" x="508.935547"/>
      </g>
     </g>
    </g>
    <g id="xtick_4">
     <g id="line2d_7">
      <path d="M 194.311409 470.728203 
L 194.311409 29.118125 
" clip-path="url(#p290a18fc45)" style="fill: none; stroke: #cccccc; stroke-linecap: round"/>
     </g>
     <g id="line2d_8">
      <g>
       <use xlink:href="#me6891bb765" x="194.311409" y="470.728203" style="fill: #262626; stroke: #262626; stroke-width: 1.25"/>
      </g>
     </g>
     <g id="text_4">
      <!-- 28.06.2020 -->
      <g style="fill: #262626" transform="translate(148.158881 530.673311)rotate(-45)scale(0.11 -0.11)">
       <defs>
        <path id="DejaVuSans-38" d="M 2034 2216 
Q 1584 2216 1326 1975 
Q 1069 1734 1069 1313 
Q 1069 891 1326 650 
Q 1584 409 2034 409 
Q 2484 409 2743 651 
Q 3003 894 3003 1313 
Q 3003 1734 2745 1975 
Q 2488 2216 2034 2216 
z
M 1403 2484 
Q 997 2584 770 2862 
Q 544 3141 544 3541 
Q 544 4100 942 4425 
Q 1341 4750 2034 4750 
Q 2731 4750 3128 4425 
Q 3525 4100 3525 3541 
Q 3525 3141 3298 2862 
Q 3072 2584 2669 2484 
Q 3125 2378 3379 2068 
Q 3634 1759 3634 1313 
Q 3634 634 3220 271 
Q 2806 -91 2034 -91 
Q 1263 -91 848 271 
Q 434 634 434 1313 
Q 434 1759 690 2068 
Q 947 2378 1403 2484 
z
M 1172 3481 
Q 1172 3119 1398 2916 
Q 1625 2713 2034 2713 
Q 2441 2713 2670 2916 
Q 2900 3119 2900 3481 
Q 2900 3844 2670 4047 
Q 2441 4250 2034 4250 
Q 1625 4250 1398 4047 
Q 1172 3844 1172 3481 
z
" transform="scale(0.015625)"/>
        <path id="DejaVuSans-36" d="M 2113 2584 
Q 1688 2584 1439 2293 
Q 1191 2003 1191 1497 
Q 1191 994 1439 701 
Q 1688 409 2113 409 
Q 2538 409 2786 701 
Q 3034 994 3034 1497 
Q 3034 2003 2786 2293 
Q 2538 2584 2113 2584 
z
M 3366 4563 
L 3366 3988 
Q 3128 4100 2886 4159 
Q 2644 4219 2406 4219 
Q 1781 4219 1451 3797 
Q 1122 3375 1075 2522 
Q 1259 2794 1537 2939 
Q 1816 3084 2150 3084 
Q 2853 3084 3261 2657 
Q 3669 2231 3669 1497 
Q 3669 778 3244 343 
Q 2819 -91 2113 -91 
Q 1303 -91 875 529 
Q 447 1150 447 2328 
Q 447 3434 972 4092 
Q 1497 4750 2381 4750 
Q 2619 4750 2861 4703 
Q 3103 4656 3366 4563 
z
" transform="scale(0.015625)"/>
       </defs>
       <use xlink:href="#DejaVuSans-32"/>
       <use xlink:href="#DejaVuSans-38" x="63.623047"/>
       <use xlink:href="#DejaVuSans-2e" x="127.246094"/>
       <use xlink:href="#DejaVuSans-30" x="159.033203"/>
       <use xlink:href="#DejaVuSans-36" x="222.65625"/>
       <use xlink:href="#DejaVuSans-2e" x="286.279297"/>
       <use xlink:href="#DejaVuSans-32" x="318.066406"/>
       <use xlink:href="#DejaVuSans-30" x="381.689453"/>
       <use xlink:href="#DejaVuSans-32" x="445.3125"/>
       <use xlink:href="#DejaVuSans-30" x="508.935547"/>
      </g>
     </g>
    </g>
    <g id="xtick_5">
     <g id="line2d_9">
      <path d="M 227.273773 470.728203 
L 227.273773 29.118125 
" clip-path="url(#p290a18fc45)" style="fill: none; stroke: #cccccc; stroke-linecap: round"/>
     </g>
     <g id="line2d_10">
      <g>
       <use xlink:href="#me6891bb765" x="227.273773" y="470.728203" style="fill: #262626; stroke: #262626; stroke-width: 1.25"/>
      </g>
     </g>
     <g id="text_5">
      <!-- 26.07.2020 -->
      <g style="fill: #262626" transform="translate(181.121245 530.673311)rotate(-45)scale(0.11 -0.11)">
       <defs>
        <path id="DejaVuSans-37" d="M 525 4666 
L 3525 4666 
L 3525 4397 
L 1831 0 
L 1172 0 
L 2766 4134 
L 525 4134 
L 525 4666 
z
" transform="scale(0.015625)"/>
       </defs>
       <use xlink:href="#DejaVuSans-32"/>
       <use xlink:href="#DejaVuSans-36" x="63.623047"/>
       <use xlink:href="#DejaVuSans-2e" x="127.246094"/>
       <use xlink:href="#DejaVuSans-30" x="159.033203"/>
       <use xlink:href="#DejaVuSans-37" x="222.65625"/>
       <use xlink:href="#DejaVuSans-2e" x="286.279297"/>
       <use xlink:href="#DejaVuSans-32" x="318.066406"/>
       <use xlink:href="#DejaVuSans-30" x="381.689453"/>
       <use xlink:href="#DejaVuSans-32" x="445.3125"/>
       <use xlink:href="#DejaVuSans-30" x="508.935547"/>
      </g>
     </g>
    </g>
    <g id="xtick_6">
     <g id="line2d_11">
      <path d="M 260.236136 470.728203 
L 260.236136 29.118125 
" clip-path="url(#p290a18fc45)" style="fill: none; stroke: #cccccc; stroke-linecap: round"/>
     </g>
     <g id="line2d_12">
      <g>
       <use xlink:href="#me6891bb765" x="260.236136" y="470.728203" style="fill: #262626; stroke: #262626; stroke-width: 1.25"/>
      </g>
     </g>
     <g id="text_6">
      <!-- 23.08.2020 -->
      <g style="fill: #262626" transform="translate(214.083608 530.673311)rotate(-45)scale(0.11 -0.11)">
       <use xlink:href="#DejaVuSans-32"/>
       <use xlink:href="#DejaVuSans-33" x="63.623047"/>
       <use xlink:href="#DejaVuSans-2e" x="127.246094"/>
       <use xlink:href="#DejaVuSans-30" x="159.033203"/>
       <use xlink:href="#DejaVuSans-38" x="222.65625"/>
       <use xlink:href="#DejaVuSans-2e" x="286.279297"/>
       <use xlink:href="#DejaVuSans-32" x="318.066406"/>
       <use xlink:href="#DejaVuSans-30" x="381.689453"/>
       <use xlink:href="#DejaVuSans-32" x="445.3125"/>
       <use xlink:href="#DejaVuSans-30" x="508.935547"/>
      </g>
     </g>
    </g>
    <g id="xtick_7">
     <g id="line2d_13">
      <path d="M 293.1985 470.728203 
L 293.1985 29.118125 
" clip-path="url(#p290a18fc45)" style="fill: none; stroke: #cccccc; stroke-linecap: round"/>
     </g>
     <g id="line2d_14">
      <g>
       <use xlink:href="#me6891bb765" x="293.1985" y="470.728203" style="fill: #262626; stroke: #262626; stroke-width: 1.25"/>
      </g>
     </g>
     <g id="text_7">
      <!-- 20.09.2020 -->
      <g style="fill: #262626" transform="translate(247.045972 530.673311)rotate(-45)scale(0.11 -0.11)">
       <defs>
        <path id="DejaVuSans-39" d="M 703 97 
L 703 672 
Q 941 559 1184 500 
Q 1428 441 1663 441 
Q 2288 441 2617 861 
Q 2947 1281 2994 2138 
Q 2813 1869 2534 1725 
Q 2256 1581 1919 1581 
Q 1219 1581 811 2004 
Q 403 2428 403 3163 
Q 403 3881 828 4315 
Q 1253 4750 1959 4750 
Q 2769 4750 3195 4129 
Q 3622 3509 3622 2328 
Q 3622 1225 3098 567 
Q 2575 -91 1691 -91 
Q 1453 -91 1209 -44 
Q 966 3 703 97 
z
M 1959 2075 
Q 2384 2075 2632 2365 
Q 2881 2656 2881 3163 
Q 2881 3666 2632 3958 
Q 2384 4250 1959 4250 
Q 1534 4250 1286 3958 
Q 1038 3666 1038 3163 
Q 1038 2656 1286 2365 
Q 1534 2075 1959 2075 
z
" transform="scale(0.015625)"/>
       </defs>
       <use xlink:href="#DejaVuSans-32"/>
       <use xlink:href="#DejaVuSans-30" x="63.623047"/>
       <use xlink:href="#DejaVuSans-2e" x="127.246094"/>
       <use xlink:href="#DejaVuSans-30" x="159.033203"/>
       <use xlink:href="#DejaVuSans-39" x="222.65625"/>
       <use xlink:href="#DejaVuSans-2e" x="286.279297"/>
       <use xlink:href="#DejaVuSans-32" x="318.066406"/>
       <use xlink:href="#DejaVuSans-30" x="381.689453"/>
       <use xlink:href="#DejaVuSans-32" x="445.3125"/>
       <use xlink:href="#DejaVuSans-30" x="508.935547"/>
      </g>
     </g>
    </g>
    <g id="xtick_8">
     <g id="line2d_15">
      <path d="M 326.160864 470.728203 
L 326.160864 29.118125 
" clip-path="url(#p290a18fc45)" style="fill: none; stroke: #cccccc; stroke-linecap: round"/>
     </g>
     <g id="line2d_16">
      <g>
       <use xlink:href="#me6891bb765" x="326.160864" y="470.728203" style="fill: #262626; stroke: #262626; stroke-width: 1.25"/>
      </g>
     </g>
     <g id="text_8">
      <!-- 18.10.2020 -->
      <g style="fill: #262626" transform="translate(280.008335 530.673311)rotate(-45)scale(0.11 -0.11)">
       <use xlink:href="#DejaVuSans-31"/>
       <use xlink:href="#DejaVuSans-38" x="63.623047"/>
       <use xlink:href="#DejaVuSans-2e" x="127.246094"/>
       <use xlink:href="#DejaVuSans-31" x="159.033203"/>
       <use xlink:href="#DejaVuSans-30" x="222.65625"/>
       <use xlink:href="#DejaVuSans-2e" x="286.279297"/>
       <use xlink:href="#DejaVuSans-32" x="318.066406"/>
       <use xlink:href="#DejaVuSans-30" x="381.689453"/>
       <use xlink:href="#DejaVuSans-32" x="445.3125"/>
       <use xlink:href="#DejaVuSans-30" x="508.935547"/>
      </g>
     </g>
    </g>
    <g id="xtick_9">
     <g id="line2d_17">
      <path d="M 359.123227 470.728203 
L 359.123227 29.118125 
" clip-path="url(#p290a18fc45)" style="fill: none; stroke: #cccccc; stroke-linecap: round"/>
     </g>
     <g id="line2d_18">
      <g>
       <use xlink:href="#me6891bb765" x="359.123227" y="470.728203" style="fill: #262626; stroke: #262626; stroke-width: 1.25"/>
      </g>
     </g>
     <g id="text_9">
      <!-- 15.11.2020 -->
      <g style="fill: #262626" transform="translate(312.970699 530.673311)rotate(-45)scale(0.11 -0.11)">
       <use xlink:href="#DejaVuSans-31"/>
       <use xlink:href="#DejaVuSans-35" x="63.623047"/>
       <use xlink:href="#DejaVuSans-2e" x="127.246094"/>
       <use xlink:href="#DejaVuSans-31" x="159.033203"/>
       <use xlink:href="#DejaVuSans-31" x="222.65625"/>
       <use xlink:href="#DejaVuSans-2e" x="286.279297"/>
       <use xlink:href="#DejaVuSans-32" x="318.066406"/>
       <use xlink:href="#DejaVuSans-30" x="381.689453"/>
       <use xlink:href="#DejaVuSans-32" x="445.3125"/>
       <use xlink:href="#DejaVuSans-30" x="508.935547"/>
      </g>
     </g>
    </g>
    <g id="xtick_10">
     <g id="line2d_19">
      <path d="M 392.085591 470.728203 
L 392.085591 29.118125 
" clip-path="url(#p290a18fc45)" style="fill: none; stroke: #cccccc; stroke-linecap: round"/>
     </g>
     <g id="line2d_20">
      <g>
       <use xlink:href="#me6891bb765" x="392.085591" y="470.728203" style="fill: #262626; stroke: #262626; stroke-width: 1.25"/>
      </g>
     </g>
     <g id="text_10">
      <!-- 13.12.2020 -->
      <g style="fill: #262626" transform="translate(345.933063 530.673311)rotate(-45)scale(0.11 -0.11)">
       <use xlink:href="#DejaVuSans-31"/>
       <use xlink:href="#DejaVuSans-33" x="63.623047"/>
       <use xlink:href="#DejaVuSans-2e" x="127.246094"/>
       <use xlink:href="#DejaVuSans-31" x="159.033203"/>
       <use xlink:href="#DejaVuSans-32" x="222.65625"/>
       <use xlink:href="#DejaVuSans-2e" x="286.279297"/>
       <use xlink:href="#DejaVuSans-32" x="318.066406"/>
       <use xlink:href="#DejaVuSans-30" x="381.689453"/>
       <use xlink:href="#DejaVuSans-32" x="445.3125"/>
       <use xlink:href="#DejaVuSans-30" x="508.935547"/>
      </g>
     </g>
    </g>
    <g id="xtick_11">
     <g id="line2d_21">
      <path d="M 425.047955 470.728203 
L 425.047955 29.118125 
" clip-path="url(#p290a18fc45)" style="fill: none; stroke: #cccccc; stroke-linecap: round"/>
     </g>
     <g id="line2d_22">
      <g>
       <use xlink:href="#me6891bb765" x="425.047955" y="470.728203" style="fill: #262626; stroke: #262626; stroke-width: 1.25"/>
      </g>
     </g>
     <g id="text_11">
      <!-- 10.01.2021 -->
      <g style="fill: #262626" transform="translate(378.895426 530.673311)rotate(-45)scale(0.11 -0.11)">
       <use xlink:href="#DejaVuSans-31"/>
       <use xlink:href="#DejaVuSans-30" x="63.623047"/>
       <use xlink:href="#DejaVuSans-2e" x="127.246094"/>
       <use xlink:href="#DejaVuSans-30" x="159.033203"/>
       <use xlink:href="#DejaVuSans-31" x="222.65625"/>
       <use xlink:href="#DejaVuSans-2e" x="286.279297"/>
       <use xlink:href="#DejaVuSans-32" x="318.066406"/>
       <use xlink:href="#DejaVuSans-30" x="381.689453"/>
       <use xlink:href="#DejaVuSans-32" x="445.3125"/>
       <use xlink:href="#DejaVuSans-31" x="508.935547"/>
      </g>
     </g>
    </g>
    <g id="xtick_12">
     <g id="line2d_23">
      <path d="M 458.010318 470.728203 
L 458.010318 29.118125 
" clip-path="url(#p290a18fc45)" style="fill: none; stroke: #cccccc; stroke-linecap: round"/>
     </g>
     <g id="line2d_24">
      <g>
       <use xlink:href="#me6891bb765" x="458.010318" y="470.728203" style="fill: #262626; stroke: #262626; stroke-width: 1.25"/>
      </g>
     </g>
     <g id="text_12">
      <!-- 07.02.2021 -->
      <g style="fill: #262626" transform="translate(411.85779 530.673311)rotate(-45)scale(0.11 -0.11)">
       <use xlink:href="#DejaVuSans-30"/>
       <use xlink:href="#DejaVuSans-37" x="63.623047"/>
       <use xlink:href="#DejaVuSans-2e" x="127.246094"/>
       <use xlink:href="#DejaVuSans-30" x="159.033203"/>
       <use xlink:href="#DejaVuSans-32" x="222.65625"/>
       <use xlink:href="#DejaVuSans-2e" x="286.279297"/>
       <use xlink:href="#DejaVuSans-32" x="318.066406"/>
       <use xlink:href="#DejaVuSans-30" x="381.689453"/>
       <use xlink:href="#DejaVuSans-32" x="445.3125"/>
       <use xlink:href="#DejaVuSans-31" x="508.935547"/>
      </g>
     </g>
    </g>
    <g id="xtick_13">
     <g id="line2d_25">
      <path d="M 490.972682 470.728203 
L 490.972682 29.118125 
" clip-path="url(#p290a18fc45)" style="fill: none; stroke: #cccccc; stroke-linecap: round"/>
     </g>
     <g id="line2d_26">
      <g>
       <use xlink:href="#me6891bb765" x="490.972682" y="470.728203" style="fill: #262626; stroke: #262626; stroke-width: 1.25"/>
      </g>
     </g>
     <g id="text_13">
      <!-- 07.03.2021 -->
      <g style="fill: #262626" transform="translate(444.820154 530.673311)rotate(-45)scale(0.11 -0.11)">
       <use xlink:href="#DejaVuSans-30"/>
       <use xlink:href="#DejaVuSans-37" x="63.623047"/>
       <use xlink:href="#DejaVuSans-2e" x="127.246094"/>
       <use xlink:href="#DejaVuSans-30" x="159.033203"/>
       <use xlink:href="#DejaVuSans-33" x="222.65625"/>
       <use xlink:href="#DejaVuSans-2e" x="286.279297"/>
       <use xlink:href="#DejaVuSans-32" x="318.066406"/>
       <use xlink:href="#DejaVuSans-30" x="381.689453"/>
       <use xlink:href="#DejaVuSans-32" x="445.3125"/>
       <use xlink:href="#DejaVuSans-31" x="508.935547"/>
      </g>
     </g>
    </g>
    <g id="xtick_14">
     <g id="line2d_27">
      <path d="M 523.935045 470.728203 
L 523.935045 29.118125 
" clip-path="url(#p290a18fc45)" style="fill: none; stroke: #cccccc; stroke-linecap: round"/>
     </g>
     <g id="line2d_28">
      <g>
       <use xlink:href="#me6891bb765" x="523.935045" y="470.728203" style="fill: #262626; stroke: #262626; stroke-width: 1.25"/>
      </g>
     </g>
     <g id="text_14">
      <!-- 04.04.2021 -->
      <g style="fill: #262626" transform="translate(477.782517 530.673311)rotate(-45)scale(0.11 -0.11)">
       <use xlink:href="#DejaVuSans-30"/>
       <use xlink:href="#DejaVuSans-34" x="63.623047"/>
       <use xlink:href="#DejaVuSans-2e" x="127.246094"/>
       <use xlink:href="#DejaVuSans-30" x="159.033203"/>
       <use xlink:href="#DejaVuSans-34" x="222.65625"/>
       <use xlink:href="#DejaVuSans-2e" x="286.279297"/>
       <use xlink:href="#DejaVuSans-32" x="318.066406"/>
       <use xlink:href="#DejaVuSans-30" x="381.689453"/>
       <use xlink:href="#DejaVuSans-32" x="445.3125"/>
       <use xlink:href="#DejaVuSans-31" x="508.935547"/>
      </g>
     </g>
    </g>
    <g id="xtick_15">
     <g id="line2d_29">
      <path d="M 556.897409 470.728203 
L 556.897409 29.118125 
" clip-path="url(#p290a18fc45)" style="fill: none; stroke: #cccccc; stroke-linecap: round"/>
     </g>
     <g id="line2d_30">
      <g>
       <use xlink:href="#me6891bb765" x="556.897409" y="470.728203" style="fill: #262626; stroke: #262626; stroke-width: 1.25"/>
      </g>
     </g>
     <g id="text_15">
      <!-- 02.05.2021 -->
      <g style="fill: #262626" transform="translate(510.744881 530.673311)rotate(-45)scale(0.11 -0.11)">
       <use xlink:href="#DejaVuSans-30"/>
       <use xlink:href="#DejaVuSans-32" x="63.623047"/>
       <use xlink:href="#DejaVuSans-2e" x="127.246094"/>
       <use xlink:href="#DejaVuSans-30" x="159.033203"/>
       <use xlink:href="#DejaVuSans-35" x="222.65625"/>
       <use xlink:href="#DejaVuSans-2e" x="286.279297"/>
       <use xlink:href="#DejaVuSans-32" x="318.066406"/>
       <use xlink:href="#DejaVuSans-30" x="381.689453"/>
       <use xlink:href="#DejaVuSans-32" x="445.3125"/>
       <use xlink:href="#DejaVuSans-31" x="508.935547"/>
      </g>
     </g>
    </g>
    <g id="xtick_16">
     <g id="line2d_31">
      <path d="M 589.859773 470.728203 
L 589.859773 29.118125 
" clip-path="url(#p290a18fc45)" style="fill: none; stroke: #cccccc; stroke-linecap: round"/>
     </g>
     <g id="line2d_32">
      <g>
       <use xlink:href="#me6891bb765" x="589.859773" y="470.728203" style="fill: #262626; stroke: #262626; stroke-width: 1.25"/>
      </g>
     </g>
     <g id="text_16">
      <!-- 30.05.2021 -->
      <g style="fill: #262626" transform="translate(543.707245 530.673311)rotate(-45)scale(0.11 -0.11)">
       <use xlink:href="#DejaVuSans-33"/>
       <use xlink:href="#DejaVuSans-30" x="63.623047"/>
       <use xlink:href="#DejaVuSans-2e" x="127.246094"/>
       <use xlink:href="#DejaVuSans-30" x="159.033203"/>
       <use xlink:href="#DejaVuSans-35" x="222.65625"/>
       <use xlink:href="#DejaVuSans-2e" x="286.279297"/>
       <use xlink:href="#DejaVuSans-32" x="318.066406"/>
       <use xlink:href="#DejaVuSans-30" x="381.689453"/>
       <use xlink:href="#DejaVuSans-32" x="445.3125"/>
       <use xlink:href="#DejaVuSans-31" x="508.935547"/>
      </g>
     </g>
    </g>
    <g id="xtick_17">
     <g id="line2d_33">
      <path d="M 622.822136 470.728203 
L 622.822136 29.118125 
" clip-path="url(#p290a18fc45)" style="fill: none; stroke: #cccccc; stroke-linecap: round"/>
     </g>
     <g id="line2d_34">
      <g>
       <use xlink:href="#me6891bb765" x="622.822136" y="470.728203" style="fill: #262626; stroke: #262626; stroke-width: 1.25"/>
      </g>
     </g>
     <g id="text_17">
      <!-- 27.06.2021 -->
      <g style="fill: #262626" transform="translate(576.669608 530.673311)rotate(-45)scale(0.11 -0.11)">
       <use xlink:href="#DejaVuSans-32"/>
       <use xlink:href="#DejaVuSans-37" x="63.623047"/>
       <use xlink:href="#DejaVuSans-2e" x="127.246094"/>
       <use xlink:href="#DejaVuSans-30" x="159.033203"/>
       <use xlink:href="#DejaVuSans-36" x="222.65625"/>
       <use xlink:href="#DejaVuSans-2e" x="286.279297"/>
       <use xlink:href="#DejaVuSans-32" x="318.066406"/>
       <use xlink:href="#DejaVuSans-30" x="381.689453"/>
       <use xlink:href="#DejaVuSans-32" x="445.3125"/>
       <use xlink:href="#DejaVuSans-31" x="508.935547"/>
      </g>
     </g>
    </g>
    <g id="xtick_18">
     <g id="line2d_35">
      <path d="M 655.7845 470.728203 
L 655.7845 29.118125 
" clip-path="url(#p290a18fc45)" style="fill: none; stroke: #cccccc; stroke-linecap: round"/>
     </g>
     <g id="line2d_36">
      <g>
       <use xlink:href="#me6891bb765" x="655.7845" y="470.728203" style="fill: #262626; stroke: #262626; stroke-width: 1.25"/>
      </g>
     </g>
     <g id="text_18">
      <!-- 25.07.2021 -->
      <g style="fill: #262626" transform="translate(609.631972 530.673311)rotate(-45)scale(0.11 -0.11)">
       <use xlink:href="#DejaVuSans-32"/>
       <use xlink:href="#DejaVuSans-35" x="63.623047"/>
       <use xlink:href="#DejaVuSans-2e" x="127.246094"/>
       <use xlink:href="#DejaVuSans-30" x="159.033203"/>
       <use xlink:href="#DejaVuSans-37" x="222.65625"/>
       <use xlink:href="#DejaVuSans-2e" x="286.279297"/>
       <use xlink:href="#DejaVuSans-32" x="318.066406"/>
       <use xlink:href="#DejaVuSans-30" x="381.689453"/>
       <use xlink:href="#DejaVuSans-32" x="445.3125"/>
       <use xlink:href="#DejaVuSans-31" x="508.935547"/>
      </g>
     </g>
    </g>
    <g id="xtick_19">
     <g id="line2d_37">
      <path d="M 688.746864 470.728203 
L 688.746864 29.118125 
" clip-path="url(#p290a18fc45)" style="fill: none; stroke: #cccccc; stroke-linecap: round"/>
     </g>
     <g id="line2d_38">
      <g>
       <use xlink:href="#me6891bb765" x="688.746864" y="470.728203" style="fill: #262626; stroke: #262626; stroke-width: 1.25"/>
      </g>
     </g>
     <g id="text_19">
      <!-- 22.08.2021 -->
      <g style="fill: #262626" transform="translate(642.594335 530.673311)rotate(-45)scale(0.11 -0.11)">
       <use xlink:href="#DejaVuSans-32"/>
       <use xlink:href="#DejaVuSans-32" x="63.623047"/>
       <use xlink:href="#DejaVuSans-2e" x="127.246094"/>
       <use xlink:href="#DejaVuSans-30" x="159.033203"/>
       <use xlink:href="#DejaVuSans-38" x="222.65625"/>
       <use xlink:href="#DejaVuSans-2e" x="286.279297"/>
       <use xlink:href="#DejaVuSans-32" x="318.066406"/>
       <use xlink:href="#DejaVuSans-30" x="381.689453"/>
       <use xlink:href="#DejaVuSans-32" x="445.3125"/>
       <use xlink:href="#DejaVuSans-31" x="508.935547"/>
      </g>
     </g>
    </g>
    <g id="xtick_20">
     <g id="line2d_39">
      <path d="M 721.709227 470.728203 
L 721.709227 29.118125 
" clip-path="url(#p290a18fc45)" style="fill: none; stroke: #cccccc; stroke-linecap: round"/>
     </g>
     <g id="line2d_40">
      <g>
       <use xlink:href="#me6891bb765" x="721.709227" y="470.728203" style="fill: #262626; stroke: #262626; stroke-width: 1.25"/>
      </g>
     </g>
     <g id="text_20">
      <!-- 19.09.2021 -->
      <g style="fill: #262626" transform="translate(675.556699 530.673311)rotate(-45)scale(0.11 -0.11)">
       <use xlink:href="#DejaVuSans-31"/>
       <use xlink:href="#DejaVuSans-39" x="63.623047"/>
       <use xlink:href="#DejaVuSans-2e" x="127.246094"/>
       <use xlink:href="#DejaVuSans-30" x="159.033203"/>
       <use xlink:href="#DejaVuSans-39" x="222.65625"/>
       <use xlink:href="#DejaVuSans-2e" x="286.279297"/>
       <use xlink:href="#DejaVuSans-32" x="318.066406"/>
       <use xlink:href="#DejaVuSans-30" x="381.689453"/>
       <use xlink:href="#DejaVuSans-32" x="445.3125"/>
       <use xlink:href="#DejaVuSans-31" x="508.935547"/>
      </g>
     </g>
    </g>
    <g id="xtick_21">
     <g id="line2d_41">
      <path d="M 754.671591 470.728203 
L 754.671591 29.118125 
" clip-path="url(#p290a18fc45)" style="fill: none; stroke: #cccccc; stroke-linecap: round"/>
     </g>
     <g id="line2d_42">
      <g>
       <use xlink:href="#me6891bb765" x="754.671591" y="470.728203" style="fill: #262626; stroke: #262626; stroke-width: 1.25"/>
      </g>
     </g>
     <g id="text_21">
      <!-- 17.10.2021 -->
      <g style="fill: #262626" transform="translate(708.519063 530.673311)rotate(-45)scale(0.11 -0.11)">
       <use xlink:href="#DejaVuSans-31"/>
       <use xlink:href="#DejaVuSans-37" x="63.623047"/>
       <use xlink:href="#DejaVuSans-2e" x="127.246094"/>
       <use xlink:href="#DejaVuSans-31" x="159.033203"/>
       <use xlink:href="#DejaVuSans-30" x="222.65625"/>
       <use xlink:href="#DejaVuSans-2e" x="286.279297"/>
       <use xlink:href="#DejaVuSans-32" x="318.066406"/>
       <use xlink:href="#DejaVuSans-30" x="381.689453"/>
       <use xlink:href="#DejaVuSans-32" x="445.3125"/>
       <use xlink:href="#DejaVuSans-31" x="508.935547"/>
      </g>
     </g>
    </g>
    <g id="xtick_22">
     <g id="line2d_43">
      <path d="M 787.633955 470.728203 
L 787.633955 29.118125 
" clip-path="url(#p290a18fc45)" style="fill: none; stroke: #cccccc; stroke-linecap: round"/>
     </g>
     <g id="line2d_44">
      <g>
       <use xlink:href="#me6891bb765" x="787.633955" y="470.728203" style="fill: #262626; stroke: #262626; stroke-width: 1.25"/>
      </g>
     </g>
     <g id="text_22">
      <!-- 14.11.2021 -->
      <g style="fill: #262626" transform="translate(741.481426 530.673311)rotate(-45)scale(0.11 -0.11)">
       <use xlink:href="#DejaVuSans-31"/>
       <use xlink:href="#DejaVuSans-34" x="63.623047"/>
       <use xlink:href="#DejaVuSans-2e" x="127.246094"/>
       <use xlink:href="#DejaVuSans-31" x="159.033203"/>
       <use xlink:href="#DejaVuSans-31" x="222.65625"/>
       <use xlink:href="#DejaVuSans-2e" x="286.279297"/>
       <use xlink:href="#DejaVuSans-32" x="318.066406"/>
       <use xlink:href="#DejaVuSans-30" x="381.689453"/>
       <use xlink:href="#DejaVuSans-32" x="445.3125"/>
       <use xlink:href="#DejaVuSans-31" x="508.935547"/>
      </g>
     </g>
    </g>
    <g id="xtick_23">
     <g id="line2d_45">
      <defs>
       <path id="me5c0654039" d="M 0 0 
L 0 4 
" style="stroke: #262626"/>
      </defs>
      <g>
       <use xlink:href="#me5c0654039" x="61.284727" y="470.728203" style="fill: #262626; stroke: #262626"/>
      </g>
     </g>
    </g>
    <g id="xtick_24">
     <g id="line2d_46">
      <g>
       <use xlink:href="#me5c0654039" x="69.525318" y="470.728203" style="fill: #262626; stroke: #262626"/>
      </g>
     </g>
    </g>
    <g id="xtick_25">
     <g id="line2d_47">
      <g>
       <use xlink:href="#me5c0654039" x="77.765909" y="470.728203" style="fill: #262626; stroke: #262626"/>
      </g>
     </g>
    </g>
    <g id="xtick_26">
     <g id="line2d_48">
      <g>
       <use xlink:href="#me5c0654039" x="86.0065" y="470.728203" style="fill: #262626; stroke: #262626"/>
      </g>
     </g>
    </g>
    <g id="xtick_27">
     <g id="line2d_49">
      <g>
       <use xlink:href="#me5c0654039" x="94.247091" y="470.728203" style="fill: #262626; stroke: #262626"/>
      </g>
     </g>
    </g>
    <g id="xtick_28">
     <g id="line2d_50">
      <g>
       <use xlink:href="#me5c0654039" x="102.487682" y="470.728203" style="fill: #262626; stroke: #262626"/>
      </g>
     </g>
    </g>
    <g id="xtick_29">
     <g id="line2d_51">
      <g>
       <use xlink:href="#me5c0654039" x="110.728273" y="470.728203" style="fill: #262626; stroke: #262626"/>
      </g>
     </g>
    </g>
    <g id="xtick_30">
     <g id="line2d_52">
      <g>
       <use xlink:href="#me5c0654039" x="118.968864" y="470.728203" style="fill: #262626; stroke: #262626"/>
      </g>
     </g>
    </g>
    <g id="xtick_31">
     <g id="line2d_53">
      <g>
       <use xlink:href="#me5c0654039" x="127.209455" y="470.728203" style="fill: #262626; stroke: #262626"/>
      </g>
     </g>
    </g>
    <g id="xtick_32">
     <g id="line2d_54">
      <g>
       <use xlink:href="#me5c0654039" x="135.450045" y="470.728203" style="fill: #262626; stroke: #262626"/>
      </g>
     </g>
    </g>
    <g id="xtick_33">
     <g id="line2d_55">
      <g>
       <use xlink:href="#me5c0654039" x="143.690636" y="470.728203" style="fill: #262626; stroke: #262626"/>
      </g>
     </g>
    </g>
    <g id="xtick_34">
     <g id="line2d_56">
      <g>
       <use xlink:href="#me5c0654039" x="151.931227" y="470.728203" style="fill: #262626; stroke: #262626"/>
      </g>
     </g>
    </g>
    <g id="xtick_35">
     <g id="line2d_57">
      <g>
       <use xlink:href="#me5c0654039" x="160.171818" y="470.728203" style="fill: #262626; stroke: #262626"/>
      </g>
     </g>
    </g>
    <g id="xtick_36">
     <g id="line2d_58">
      <g>
       <use xlink:href="#me5c0654039" x="168.412409" y="470.728203" style="fill: #262626; stroke: #262626"/>
      </g>
     </g>
    </g>
    <g id="xtick_37">
     <g id="line2d_59">
      <g>
       <use xlink:href="#me5c0654039" x="176.653" y="470.728203" style="fill: #262626; stroke: #262626"/>
      </g>
     </g>
    </g>
    <g id="xtick_38">
     <g id="line2d_60">
      <g>
       <use xlink:href="#me5c0654039" x="184.893591" y="470.728203" style="fill: #262626; stroke: #262626"/>
      </g>
     </g>
    </g>
    <g id="xtick_39">
     <g id="line2d_61">
      <g>
       <use xlink:href="#me5c0654039" x="193.134182" y="470.728203" style="fill: #262626; stroke: #262626"/>
      </g>
     </g>
    </g>
    <g id="xtick_40">
     <g id="line2d_62">
      <g>
       <use xlink:href="#me5c0654039" x="201.374773" y="470.728203" style="fill: #262626; stroke: #262626"/>
      </g>
     </g>
    </g>
    <g id="xtick_41">
     <g id="line2d_63">
      <g>
       <use xlink:href="#me5c0654039" x="209.615364" y="470.728203" style="fill: #262626; stroke: #262626"/>
      </g>
     </g>
    </g>
    <g id="xtick_42">
     <g id="line2d_64">
      <g>
       <use xlink:href="#me5c0654039" x="217.855955" y="470.728203" style="fill: #262626; stroke: #262626"/>
      </g>
     </g>
    </g>
    <g id="xtick_43">
     <g id="line2d_65">
      <g>
       <use xlink:href="#me5c0654039" x="226.096545" y="470.728203" style="fill: #262626; stroke: #262626"/>
      </g>
     </g>
    </g>
    <g id="xtick_44">
     <g id="line2d_66">
      <g>
       <use xlink:href="#me5c0654039" x="234.337136" y="470.728203" style="fill: #262626; stroke: #262626"/>
      </g>
     </g>
    </g>
    <g id="xtick_45">
     <g id="line2d_67">
      <g>
       <use xlink:href="#me5c0654039" x="242.577727" y="470.728203" style="fill: #262626; stroke: #262626"/>
      </g>
     </g>
    </g>
    <g id="xtick_46">
     <g id="line2d_68">
      <g>
       <use xlink:href="#me5c0654039" x="250.818318" y="470.728203" style="fill: #262626; stroke: #262626"/>
      </g>
     </g>
    </g>
    <g id="xtick_47">
     <g id="line2d_69">
      <g>
       <use xlink:href="#me5c0654039" x="259.058909" y="470.728203" style="fill: #262626; stroke: #262626"/>
      </g>
     </g>
    </g>
    <g id="xtick_48">
     <g id="line2d_70">
      <g>
       <use xlink:href="#me5c0654039" x="267.2995" y="470.728203" style="fill: #262626; stroke: #262626"/>
      </g>
     </g>
    </g>
    <g id="xtick_49">
     <g id="line2d_71">
      <g>
       <use xlink:href="#me5c0654039" x="275.540091" y="470.728203" style="fill: #262626; stroke: #262626"/>
      </g>
     </g>
    </g>
    <g id="xtick_50">
     <g id="line2d_72">
      <g>
       <use xlink:href="#me5c0654039" x="283.780682" y="470.728203" style="fill: #262626; stroke: #262626"/>
      </g>
     </g>
    </g>
    <g id="xtick_51">
     <g id="line2d_73">
      <g>
       <use xlink:href="#me5c0654039" x="292.021273" y="470.728203" style="fill: #262626; stroke: #262626"/>
      </g>
     </g>
    </g>
    <g id="xtick_52">
     <g id="line2d_74">
      <g>
       <use xlink:href="#me5c0654039" x="300.261864" y="470.728203" style="fill: #262626; stroke: #262626"/>
      </g>
     </g>
    </g>
    <g id="xtick_53">
     <g id="line2d_75">
      <g>
       <use xlink:href="#me5c0654039" x="308.502455" y="470.728203" style="fill: #262626; stroke: #262626"/>
      </g>
     </g>
    </g>
    <g id="xtick_54">
     <g id="line2d_76">
      <g>
       <use xlink:href="#me5c0654039" x="316.743045" y="470.728203" style="fill: #262626; stroke: #262626"/>
      </g>
     </g>
    </g>
    <g id="xtick_55">
     <g id="line2d_77">
      <g>
       <use xlink:href="#me5c0654039" x="324.983636" y="470.728203" style="fill: #262626; stroke: #262626"/>
      </g>
     </g>
    </g>
    <g id="xtick_56">
     <g id="line2d_78">
      <g>
       <use xlink:href="#me5c0654039" x="333.224227" y="470.728203" style="fill: #262626; stroke: #262626"/>
      </g>
     </g>
    </g>
    <g id="xtick_57">
     <g id="line2d_79">
      <g>
       <use xlink:href="#me5c0654039" x="341.464818" y="470.728203" style="fill: #262626; stroke: #262626"/>
      </g>
     </g>
    </g>
    <g id="xtick_58">
     <g id="line2d_80">
      <g>
       <use xlink:href="#me5c0654039" x="349.705409" y="470.728203" style="fill: #262626; stroke: #262626"/>
      </g>
     </g>
    </g>
    <g id="xtick_59">
     <g id="line2d_81">
      <g>
       <use xlink:href="#me5c0654039" x="357.946" y="470.728203" style="fill: #262626; stroke: #262626"/>
      </g>
     </g>
    </g>
    <g id="xtick_60">
     <g id="line2d_82">
      <g>
       <use xlink:href="#me5c0654039" x="366.186591" y="470.728203" style="fill: #262626; stroke: #262626"/>
      </g>
     </g>
    </g>
    <g id="xtick_61">
     <g id="line2d_83">
      <g>
       <use xlink:href="#me5c0654039" x="374.427182" y="470.728203" style="fill: #262626; stroke: #262626"/>
      </g>
     </g>
    </g>
    <g id="xtick_62">
     <g id="line2d_84">
      <g>
       <use xlink:href="#me5c0654039" x="382.667773" y="470.728203" style="fill: #262626; stroke: #262626"/>
      </g>
     </g>
    </g>
    <g id="xtick_63">
     <g id="line2d_85">
      <g>
       <use xlink:href="#me5c0654039" x="390.908364" y="470.728203" style="fill: #262626; stroke: #262626"/>
      </g>
     </g>
    </g>
    <g id="xtick_64">
     <g id="line2d_86">
      <g>
       <use xlink:href="#me5c0654039" x="399.148955" y="470.728203" style="fill: #262626; stroke: #262626"/>
      </g>
     </g>
    </g>
    <g id="xtick_65">
     <g id="line2d_87">
      <g>
       <use xlink:href="#me5c0654039" x="407.389545" y="470.728203" style="fill: #262626; stroke: #262626"/>
      </g>
     </g>
    </g>
    <g id="xtick_66">
     <g id="line2d_88">
      <g>
       <use xlink:href="#me5c0654039" x="415.630136" y="470.728203" style="fill: #262626; stroke: #262626"/>
      </g>
     </g>
    </g>
    <g id="xtick_67">
     <g id="line2d_89">
      <g>
       <use xlink:href="#me5c0654039" x="423.870727" y="470.728203" style="fill: #262626; stroke: #262626"/>
      </g>
     </g>
    </g>
    <g id="xtick_68">
     <g id="line2d_90">
      <g>
       <use xlink:href="#me5c0654039" x="432.111318" y="470.728203" style="fill: #262626; stroke: #262626"/>
      </g>
     </g>
    </g>
    <g id="xtick_69">
     <g id="line2d_91">
      <g>
       <use xlink:href="#me5c0654039" x="440.351909" y="470.728203" style="fill: #262626; stroke: #262626"/>
      </g>
     </g>
    </g>
    <g id="xtick_70">
     <g id="line2d_92">
      <g>
       <use xlink:href="#me5c0654039" x="448.5925" y="470.728203" style="fill: #262626; stroke: #262626"/>
      </g>
     </g>
    </g>
    <g id="xtick_71">
     <g id="line2d_93">
      <g>
       <use xlink:href="#me5c0654039" x="456.833091" y="470.728203" style="fill: #262626; stroke: #262626"/>
      </g>
     </g>
    </g>
    <g id="xtick_72">
     <g id="line2d_94">
      <g>
       <use xlink:href="#me5c0654039" x="465.073682" y="470.728203" style="fill: #262626; stroke: #262626"/>
      </g>
     </g>
    </g>
    <g id="xtick_73">
     <g id="line2d_95">
      <g>
       <use xlink:href="#me5c0654039" x="473.314273" y="470.728203" style="fill: #262626; stroke: #262626"/>
      </g>
     </g>
    </g>
    <g id="xtick_74">
     <g id="line2d_96">
      <g>
       <use xlink:href="#me5c0654039" x="481.554864" y="470.728203" style="fill: #262626; stroke: #262626"/>
      </g>
     </g>
    </g>
    <g id="xtick_75">
     <g id="line2d_97">
      <g>
       <use xlink:href="#me5c0654039" x="489.795455" y="470.728203" style="fill: #262626; stroke: #262626"/>
      </g>
     </g>
    </g>
    <g id="xtick_76">
     <g id="line2d_98">
      <g>
       <use xlink:href="#me5c0654039" x="498.036045" y="470.728203" style="fill: #262626; stroke: #262626"/>
      </g>
     </g>
    </g>
    <g id="xtick_77">
     <g id="line2d_99">
      <g>
       <use xlink:href="#me5c0654039" x="506.276636" y="470.728203" style="fill: #262626; stroke: #262626"/>
      </g>
     </g>
    </g>
    <g id="xtick_78">
     <g id="line2d_100">
      <g>
       <use xlink:href="#me5c0654039" x="514.517227" y="470.728203" style="fill: #262626; stroke: #262626"/>
      </g>
     </g>
    </g>
    <g id="xtick_79">
     <g id="line2d_101">
      <g>
       <use xlink:href="#me5c0654039" x="522.757818" y="470.728203" style="fill: #262626; stroke: #262626"/>
      </g>
     </g>
    </g>
    <g id="xtick_80">
     <g id="line2d_102">
      <g>
       <use xlink:href="#me5c0654039" x="530.998409" y="470.728203" style="fill: #262626; stroke: #262626"/>
      </g>
     </g>
    </g>
    <g id="xtick_81">
     <g id="line2d_103">
      <g>
       <use xlink:href="#me5c0654039" x="539.239" y="470.728203" style="fill: #262626; stroke: #262626"/>
      </g>
     </g>
    </g>
    <g id="xtick_82">
     <g id="line2d_104">
      <g>
       <use xlink:href="#me5c0654039" x="547.479591" y="470.728203" style="fill: #262626; stroke: #262626"/>
      </g>
     </g>
    </g>
    <g id="xtick_83">
     <g id="line2d_105">
      <g>
       <use xlink:href="#me5c0654039" x="555.720182" y="470.728203" style="fill: #262626; stroke: #262626"/>
      </g>
     </g>
    </g>
    <g id="xtick_84">
     <g id="line2d_106">
      <g>
       <use xlink:href="#me5c0654039" x="563.960773" y="470.728203" style="fill: #262626; stroke: #262626"/>
      </g>
     </g>
    </g>
    <g id="xtick_85">
     <g id="line2d_107">
      <g>
       <use xlink:href="#me5c0654039" x="572.201364" y="470.728203" style="fill: #262626; stroke: #262626"/>
      </g>
     </g>
    </g>
    <g id="xtick_86">
     <g id="line2d_108">
      <g>
       <use xlink:href="#me5c0654039" x="580.441955" y="470.728203" style="fill: #262626; stroke: #262626"/>
      </g>
     </g>
    </g>
    <g id="xtick_87">
     <g id="line2d_109">
      <g>
       <use xlink:href="#me5c0654039" x="588.682545" y="470.728203" style="fill: #262626; stroke: #262626"/>
      </g>
     </g>
    </g>
    <g id="xtick_88">
     <g id="line2d_110">
      <g>
       <use xlink:href="#me5c0654039" x="596.923136" y="470.728203" style="fill: #262626; stroke: #262626"/>
      </g>
     </g>
    </g>
    <g id="xtick_89">
     <g id="line2d_111">
      <g>
       <use xlink:href="#me5c0654039" x="605.163727" y="470.728203" style="fill: #262626; stroke: #262626"/>
      </g>
     </g>
    </g>
    <g id="xtick_90">
     <g id="line2d_112">
      <g>
       <use xlink:href="#me5c0654039" x="613.404318" y="470.728203" style="fill: #262626; stroke: #262626"/>
      </g>
     </g>
    </g>
    <g id="xtick_91">
     <g id="line2d_113">
      <g>
       <use xlink:href="#me5c0654039" x="621.644909" y="470.728203" style="fill: #262626; stroke: #262626"/>
      </g>
     </g>
    </g>
    <g id="xtick_92">
     <g id="line2d_114">
      <g>
       <use xlink:href="#me5c0654039" x="629.8855" y="470.728203" style="fill: #262626; stroke: #262626"/>
      </g>
     </g>
    </g>
    <g id="xtick_93">
     <g id="line2d_115">
      <g>
       <use xlink:href="#me5c0654039" x="638.126091" y="470.728203" style="fill: #262626; stroke: #262626"/>
      </g>
     </g>
    </g>
    <g id="xtick_94">
     <g id="line2d_116">
      <g>
       <use xlink:href="#me5c0654039" x="646.366682" y="470.728203" style="fill: #262626; stroke: #262626"/>
      </g>
     </g>
    </g>
    <g id="xtick_95">
     <g id="line2d_117">
      <g>
       <use xlink:href="#me5c0654039" x="654.607273" y="470.728203" style="fill: #262626; stroke: #262626"/>
      </g>
     </g>
    </g>
    <g id="xtick_96">
     <g id="line2d_118">
      <g>
       <use xlink:href="#me5c0654039" x="662.847864" y="470.728203" style="fill: #262626; stroke: #262626"/>
      </g>
     </g>
    </g>
    <g id="xtick_97">
     <g id="line2d_119">
      <g>
       <use xlink:href="#me5c0654039" x="671.088455" y="470.728203" style="fill: #262626; stroke: #262626"/>
      </g>
     </g>
    </g>
    <g id="xtick_98">
     <g id="line2d_120">
      <g>
       <use xlink:href="#me5c0654039" x="679.329045" y="470.728203" style="fill: #262626; stroke: #262626"/>
      </g>
     </g>
    </g>
    <g id="xtick_99">
     <g id="line2d_121">
      <g>
       <use xlink:href="#me5c0654039" x="687.569636" y="470.728203" style="fill: #262626; stroke: #262626"/>
      </g>
     </g>
    </g>
    <g id="xtick_100">
     <g id="line2d_122">
      <g>
       <use xlink:href="#me5c0654039" x="695.810227" y="470.728203" style="fill: #262626; stroke: #262626"/>
      </g>
     </g>
    </g>
    <g id="xtick_101">
     <g id="line2d_123">
      <g>
       <use xlink:href="#me5c0654039" x="704.050818" y="470.728203" style="fill: #262626; stroke: #262626"/>
      </g>
     </g>
    </g>
    <g id="xtick_102">
     <g id="line2d_124">
      <g>
       <use xlink:href="#me5c0654039" x="712.291409" y="470.728203" style="fill: #262626; stroke: #262626"/>
      </g>
     </g>
    </g>
    <g id="xtick_103">
     <g id="line2d_125">
      <g>
       <use xlink:href="#me5c0654039" x="720.532" y="470.728203" style="fill: #262626; stroke: #262626"/>
      </g>
     </g>
    </g>
    <g id="xtick_104">
     <g id="line2d_126">
      <g>
       <use xlink:href="#me5c0654039" x="728.772591" y="470.728203" style="fill: #262626; stroke: #262626"/>
      </g>
     </g>
    </g>
    <g id="xtick_105">
     <g id="line2d_127">
      <g>
       <use xlink:href="#me5c0654039" x="737.013182" y="470.728203" style="fill: #262626; stroke: #262626"/>
      </g>
     </g>
    </g>
    <g id="xtick_106">
     <g id="line2d_128">
      <g>
       <use xlink:href="#me5c0654039" x="745.253773" y="470.728203" style="fill: #262626; stroke: #262626"/>
      </g>
     </g>
    </g>
    <g id="xtick_107">
     <g id="line2d_129">
      <g>
       <use xlink:href="#me5c0654039" x="753.494364" y="470.728203" style="fill: #262626; stroke: #262626"/>
      </g>
     </g>
    </g>
    <g id="xtick_108">
     <g id="line2d_130">
      <g>
       <use xlink:href="#me5c0654039" x="761.734955" y="470.728203" style="fill: #262626; stroke: #262626"/>
      </g>
     </g>
    </g>
    <g id="xtick_109">
     <g id="line2d_131">
      <g>
       <use xlink:href="#me5c0654039" x="769.975545" y="470.728203" style="fill: #262626; stroke: #262626"/>
      </g>
     </g>
    </g>
    <g id="xtick_110">
     <g id="line2d_132">
      <g>
       <use xlink:href="#me5c0654039" x="778.216136" y="470.728203" style="fill: #262626; stroke: #262626"/>
      </g>
     </g>
    </g>
    <g id="xtick_111">
     <g id="line2d_133">
      <g>
       <use xlink:href="#me5c0654039" x="786.456727" y="470.728203" style="fill: #262626; stroke: #262626"/>
      </g>
     </g>
    </g>
    <g id="xtick_112">
     <g id="line2d_134">
      <g>
       <use xlink:href="#me5c0654039" x="794.697318" y="470.728203" style="fill: #262626; stroke: #262626"/>
      </g>
     </g>
    </g>
    <g id="xtick_113">
     <g id="line2d_135">
      <g>
       <use xlink:href="#me5c0654039" x="802.937909" y="470.728203" style="fill: #262626; stroke: #262626"/>
      </g>
     </g>
    </g>
    <g id="xtick_114">
     <g id="line2d_136">
      <g>
       <use xlink:href="#me5c0654039" x="811.1785" y="470.728203" style="fill: #262626; stroke: #262626"/>
      </g>
     </g>
    </g>
    <g id="xtick_115">
     <g id="line2d_137">
      <g>
       <use xlink:href="#me5c0654039" x="819.419091" y="470.728203" style="fill: #262626; stroke: #262626"/>
      </g>
     </g>
    </g>
    <g id="xtick_116">
     <g id="line2d_138">
      <g>
       <use xlink:href="#me5c0654039" x="827.659682" y="470.728203" style="fill: #262626; stroke: #262626"/>
      </g>
     </g>
    </g>
    <g id="xtick_117">
     <g id="line2d_139">
      <g>
       <use xlink:href="#me5c0654039" x="835.900273" y="470.728203" style="fill: #262626; stroke: #262626"/>
      </g>
     </g>
    </g>
    <g id="text_23">
     <!-- Date -->
     <g style="fill: #262626" transform="translate(434.251562 545.409053)scale(0.12 -0.12)">
      <defs>
       <path id="DejaVuSans-44" d="M 1259 4147 
L 1259 519 
L 2022 519 
Q 2988 519 3436 956 
Q 3884 1394 3884 2338 
Q 3884 3275 3436 3711 
Q 2988 4147 2022 4147 
L 1259 4147 
z
M 628 4666 
L 1925 4666 
Q 3281 4666 3915 4102 
Q 4550 3538 4550 2338 
Q 4550 1131 3912 565 
Q 3275 0 1925 0 
L 628 0 
L 628 4666 
z
" transform="scale(0.015625)"/>
       <path id="DejaVuSans-61" d="M 2194 1759 
Q 1497 1759 1228 1600 
Q 959 1441 959 1056 
Q 959 750 1161 570 
Q 1363 391 1709 391 
Q 2188 391 2477 730 
Q 2766 1069 2766 1631 
L 2766 1759 
L 2194 1759 
z
M 3341 1997 
L 3341 0 
L 2766 0 
L 2766 531 
Q 2569 213 2275 61 
Q 1981 -91 1556 -91 
Q 1019 -91 701 211 
Q 384 513 384 1019 
Q 384 1609 779 1909 
Q 1175 2209 1959 2209 
L 2766 2209 
L 2766 2266 
Q 2766 2663 2505 2880 
Q 2244 3097 1772 3097 
Q 1472 3097 1187 3025 
Q 903 2953 641 2809 
L 641 3341 
Q 956 3463 1253 3523 
Q 1550 3584 1831 3584 
Q 2591 3584 2966 3190 
Q 3341 2797 3341 1997 
z
" transform="scale(0.015625)"/>
       <path id="DejaVuSans-74" d="M 1172 4494 
L 1172 3500 
L 2356 3500 
L 2356 3053 
L 1172 3053 
L 1172 1153 
Q 1172 725 1289 603 
Q 1406 481 1766 481 
L 2356 481 
L 2356 0 
L 1766 0 
Q 1100 0 847 248 
Q 594 497 594 1153 
L 594 3053 
L 172 3053 
L 172 3500 
L 594 3500 
L 594 4494 
L 1172 4494 
z
" transform="scale(0.015625)"/>
       <path id="DejaVuSans-65" d="M 3597 1894 
L 3597 1613 
L 953 1613 
Q 991 1019 1311 708 
Q 1631 397 2203 397 
Q 2534 397 2845 478 
Q 3156 559 3463 722 
L 3463 178 
Q 3153 47 2828 -22 
Q 2503 -91 2169 -91 
Q 1331 -91 842 396 
Q 353 884 353 1716 
Q 353 2575 817 3079 
Q 1281 3584 2069 3584 
Q 2775 3584 3186 3129 
Q 3597 2675 3597 1894 
z
M 3022 2063 
Q 3016 2534 2758 2815 
Q 2500 3097 2075 3097 
Q 1594 3097 1305 2825 
Q 1016 2553 972 2059 
L 3022 2063 
z
" transform="scale(0.015625)"/>
      </defs>
      <use xlink:href="#DejaVuSans-44"/>
      <use xlink:href="#DejaVuSans-61" x="77.001953"/>
      <use xlink:href="#DejaVuSans-74" x="138.28125"/>
      <use xlink:href="#DejaVuSans-65" x="177.490234"/>
     </g>
    </g>
   </g>
   <g id="matplotlib.axis_2">
    <g id="ytick_1">
     <g id="line2d_140">
      <path d="M 60.1075 450.956842 
L 837.0775 450.956842 
" clip-path="url(#p290a18fc45)" style="fill: none; stroke: #cccccc; stroke-linecap: round"/>
     </g>
     <g id="line2d_141">
      <defs>
       <path id="m214ba0d3f0" d="M 0 0 
L -6 0 
" style="stroke: #262626; stroke-width: 1.25"/>
      </defs>
      <g>
       <use xlink:href="#m214ba0d3f0" x="60.1075" y="450.956842" style="fill: #262626; stroke: #262626; stroke-width: 1.25"/>
      </g>
     </g>
     <g id="text_24">
      <!-- 0 -->
      <g style="fill: #262626" transform="translate(43.60875 455.135982)scale(0.11 -0.11)">
       <use xlink:href="#DejaVuSans-30"/>
      </g>
     </g>
    </g>
    <g id="ytick_2">
     <g id="line2d_142">
      <path d="M 60.1075 375.500831 
L 837.0775 375.500831 
" clip-path="url(#p290a18fc45)" style="fill: none; stroke: #cccccc; stroke-linecap: round"/>
     </g>
     <g id="line2d_143">
      <g>
       <use xlink:href="#m214ba0d3f0" x="60.1075" y="375.500831" style="fill: #262626; stroke: #262626; stroke-width: 1.25"/>
      </g>
     </g>
     <g id="text_25">
      <!-- 2000 -->
      <g style="fill: #262626" transform="translate(22.6125 379.679971)scale(0.11 -0.11)">
       <use xlink:href="#DejaVuSans-32"/>
       <use xlink:href="#DejaVuSans-30" x="63.623047"/>
       <use xlink:href="#DejaVuSans-30" x="127.246094"/>
       <use xlink:href="#DejaVuSans-30" x="190.869141"/>
      </g>
     </g>
    </g>
    <g id="ytick_3">
     <g id="line2d_144">
      <path d="M 60.1075 300.044819 
L 837.0775 300.044819 
" clip-path="url(#p290a18fc45)" style="fill: none; stroke: #cccccc; stroke-linecap: round"/>
     </g>
     <g id="line2d_145">
      <g>
       <use xlink:href="#m214ba0d3f0" x="60.1075" y="300.044819" style="fill: #262626; stroke: #262626; stroke-width: 1.25"/>
      </g>
     </g>
     <g id="text_26">
      <!-- 4000 -->
      <g style="fill: #262626" transform="translate(22.6125 304.22396)scale(0.11 -0.11)">
       <use xlink:href="#DejaVuSans-34"/>
       <use xlink:href="#DejaVuSans-30" x="63.623047"/>
       <use xlink:href="#DejaVuSans-30" x="127.246094"/>
       <use xlink:href="#DejaVuSans-30" x="190.869141"/>
      </g>
     </g>
    </g>
    <g id="ytick_4">
     <g id="line2d_146">
      <path d="M 60.1075 224.588808 
L 837.0775 224.588808 
" clip-path="url(#p290a18fc45)" style="fill: none; stroke: #cccccc; stroke-linecap: round"/>
     </g>
     <g id="line2d_147">
      <g>
       <use xlink:href="#m214ba0d3f0" x="60.1075" y="224.588808" style="fill: #262626; stroke: #262626; stroke-width: 1.25"/>
      </g>
     </g>
     <g id="text_27">
      <!-- 6000 -->
      <g style="fill: #262626" transform="translate(22.6125 228.767949)scale(0.11 -0.11)">
       <use xlink:href="#DejaVuSans-36"/>
       <use xlink:href="#DejaVuSans-30" x="63.623047"/>
       <use xlink:href="#DejaVuSans-30" x="127.246094"/>
       <use xlink:href="#DejaVuSans-30" x="190.869141"/>
      </g>
     </g>
    </g>
    <g id="ytick_5">
     <g id="line2d_148">
      <path d="M 60.1075 149.132797 
L 837.0775 149.132797 
" clip-path="url(#p290a18fc45)" style="fill: none; stroke: #cccccc; stroke-linecap: round"/>
     </g>
     <g id="line2d_149">
      <g>
       <use xlink:href="#m214ba0d3f0" x="60.1075" y="149.132797" style="fill: #262626; stroke: #262626; stroke-width: 1.25"/>
      </g>
     </g>
     <g id="text_28">
      <!-- 8000 -->
      <g style="fill: #262626" transform="translate(22.6125 153.311938)scale(0.11 -0.11)">
       <use xlink:href="#DejaVuSans-38"/>
       <use xlink:href="#DejaVuSans-30" x="63.623047"/>
       <use xlink:href="#DejaVuSans-30" x="127.246094"/>
       <use xlink:href="#DejaVuSans-30" x="190.869141"/>
      </g>
     </g>
    </g>
    <g id="ytick_6">
     <g id="line2d_150">
      <path d="M 60.1075 73.676786 
L 837.0775 73.676786 
" clip-path="url(#p290a18fc45)" style="fill: none; stroke: #cccccc; stroke-linecap: round"/>
     </g>
     <g id="line2d_151">
      <g>
       <use xlink:href="#m214ba0d3f0" x="60.1075" y="73.676786" style="fill: #262626; stroke: #262626; stroke-width: 1.25"/>
      </g>
     </g>
     <g id="text_29">
      <!-- 10000 -->
      <g style="fill: #262626" transform="translate(15.61375 77.855927)scale(0.11 -0.11)">
       <use xlink:href="#DejaVuSans-31"/>
       <use xlink:href="#DejaVuSans-30" x="63.623047"/>
       <use xlink:href="#DejaVuSans-30" x="127.246094"/>
       <use xlink:href="#DejaVuSans-30" x="190.869141"/>
       <use xlink:href="#DejaVuSans-30" x="254.492188"/>
      </g>
     </g>
    </g>
    <g id="text_30">
     <!-- Cases -->
     <g style="fill: #262626" transform="translate(9.118125 267.732851)rotate(-90)scale(0.12 -0.12)">
      <defs>
       <path id="DejaVuSans-43" d="M 4122 4306 
L 4122 3641 
Q 3803 3938 3442 4084 
Q 3081 4231 2675 4231 
Q 1875 4231 1450 3742 
Q 1025 3253 1025 2328 
Q 1025 1406 1450 917 
Q 1875 428 2675 428 
Q 3081 428 3442 575 
Q 3803 722 4122 1019 
L 4122 359 
Q 3791 134 3420 21 
Q 3050 -91 2638 -91 
Q 1578 -91 968 557 
Q 359 1206 359 2328 
Q 359 3453 968 4101 
Q 1578 4750 2638 4750 
Q 3056 4750 3426 4639 
Q 3797 4528 4122 4306 
z
" transform="scale(0.015625)"/>
       <path id="DejaVuSans-73" d="M 2834 3397 
L 2834 2853 
Q 2591 2978 2328 3040 
Q 2066 3103 1784 3103 
Q 1356 3103 1142 2972 
Q 928 2841 928 2578 
Q 928 2378 1081 2264 
Q 1234 2150 1697 2047 
L 1894 2003 
Q 2506 1872 2764 1633 
Q 3022 1394 3022 966 
Q 3022 478 2636 193 
Q 2250 -91 1575 -91 
Q 1294 -91 989 -36 
Q 684 19 347 128 
L 347 722 
Q 666 556 975 473 
Q 1284 391 1588 391 
Q 1994 391 2212 530 
Q 2431 669 2431 922 
Q 2431 1156 2273 1281 
Q 2116 1406 1581 1522 
L 1381 1569 
Q 847 1681 609 1914 
Q 372 2147 372 2553 
Q 372 3047 722 3315 
Q 1072 3584 1716 3584 
Q 2034 3584 2315 3537 
Q 2597 3491 2834 3397 
z
" transform="scale(0.015625)"/>
      </defs>
      <use xlink:href="#DejaVuSans-43"/>
      <use xlink:href="#DejaVuSans-61" x="69.824219"/>
      <use xlink:href="#DejaVuSans-73" x="131.103516"/>
      <use xlink:href="#DejaVuSans-65" x="183.203125"/>
      <use xlink:href="#DejaVuSans-73" x="244.726562"/>
     </g>
    </g>
   </g>
   <g id="line2d_152">
    <path d="M 95.424318 443.033961 
L 96.601545 442.920776 
L 97.778773 442.166216 
L 101.310455 442.241672 
L 103.664909 442.2794 
L 104.842136 443.071689 
L 107.196591 442.392584 
L 108.373818 441.751208 
L 109.551045 441.675752 
L 110.728273 441.185288 
L 111.9055 440.845736 
L 113.082727 440.845736 
L 114.259955 440.355272 
L 115.437182 440.77028 
L 117.791636 439.940264 
L 118.968864 439.940264 
L 120.146091 439.600712 
L 121.323318 439.600712 
L 122.500545 440.128904 
L 123.677773 438.997064 
L 124.855 438.997064 
L 126.032227 438.846152 
L 128.386682 438.846152 
L 129.563909 439.034792 
L 130.741136 439.034792 
L 131.918364 437.638856 
L 133.095591 437.5634 
L 134.272818 436.6202 
L 135.450045 436.280648 
L 136.627273 436.43156 
L 137.8045 437.072936 
L 138.981727 437.18612 
L 140.158955 437.18612 
L 141.336182 438.846152 
L 143.690636 438.770696 
L 144.867864 438.544328 
L 146.045091 439.676168 
L 147.222318 440.20436 
L 148.399545 440.128904 
L 149.576773 441.223016 
L 150.754 441.223016 
L 151.931227 442.128488 
L 153.108455 442.09076 
L 154.285682 442.317128 
L 155.462909 442.317128 
L 156.640136 443.486697 
L 157.817364 443.750793 
L 158.994591 444.731721 
L 160.171818 444.882633 
L 161.349045 445.184457 
L 163.7035 445.976745 
L 166.057955 445.335369 
L 167.235182 445.410825 
L 168.412409 445.109001 
L 169.589636 444.995817 
L 170.766864 445.222185 
L 171.944091 444.882633 
L 173.121318 443.901705 
L 174.298545 443.260329 
L 175.475773 442.84532 
L 176.653 441.638024 
L 177.830227 441.751208 
L 179.007455 441.411656 
L 180.184682 440.883464 
L 181.361909 440.543912 
L 182.539136 440.053448 
L 183.716364 439.110248 
L 184.893591 438.808424 
L 186.070818 438.808424 
L 188.425273 437.299304 
L 189.6025 436.242919 
L 190.779727 436.469288 
L 191.956955 436.167463 
L 193.134182 434.997895 
L 194.311409 434.997895 
L 195.488636 434.582887 
L 196.665864 434.545159 
L 197.843091 434.130151 
L 199.020318 434.243335 
L 200.197545 433.979239 
L 201.374773 433.488775 
L 202.552 433.677415 
L 204.906455 432.734215 
L 206.083682 432.168295 
L 207.260909 431.149639 
L 208.438136 431.489191 
L 209.615364 430.885543 
L 210.792591 430.772359 
L 211.969818 430.998727 
L 214.324273 429.263238 
L 215.5015 428.999142 
L 216.678727 428.09367 
L 217.855955 428.131398 
L 219.033182 427.942758 
L 220.210409 427.414566 
L 221.387636 427.490022 
L 223.742091 425.867718 
L 224.919318 425.716806 
L 226.096545 424.773606 
L 227.273773 425.226342 
L 228.451 425.07543 
L 229.628227 424.584966 
L 230.805455 423.717222 
L 233.159909 421.604453 
L 234.337136 421.038533 
L 235.514364 420.246245 
L 236.691591 419.906693 
L 239.046045 418.058021 
L 240.223273 417.982565 
L 241.4005 418.623941 
L 242.577727 418.963493 
L 243.754955 418.925765 
L 246.109409 418.473029 
L 247.286636 419.491685 
L 249.641091 420.359429 
L 250.818318 420.359429 
L 251.995545 420.510341 
L 253.172773 421.981733 
L 254.35 421.453541 
L 255.527227 422.585381 
L 256.704455 422.057189 
L 257.881682 423.264486 
L 259.058909 422.924934 
L 260.236136 422.849478 
L 261.413364 424.019046 
L 262.590591 423.981318 
L 263.767818 423.00039 
L 266.122273 424.094502 
L 267.2995 423.679494 
L 269.653955 423.528582 
L 270.831182 423.151302 
L 272.008409 422.359013 
L 273.185636 422.132645 
L 274.362864 422.170373 
L 275.540091 422.472197 
L 276.717318 422.057189 
L 277.894545 421.793093 
L 280.249 422.547653 
L 281.426227 422.81175 
L 282.603455 423.226758 
L 283.780682 423.18903 
L 284.957909 423.038118 
L 286.135136 423.415398 
L 287.312364 423.264486 
L 288.489591 422.887206 
L 289.666818 422.887206 
L 290.844045 423.490854 
L 294.375727 424.019046 
L 295.552955 423.94359 
L 296.730182 423.56631 
L 297.907409 422.887206 
L 299.084636 421.453541 
L 300.261864 421.113989 
L 301.439091 421.000805 
L 302.616318 421.528997 
L 303.793545 420.246245 
L 306.148 418.623941 
L 307.325227 417.492101 
L 308.502455 416.548901 
L 309.679682 416.360261 
L 310.856909 415.869796 
L 312.034136 414.322948 
L 313.211364 411.983812 
L 314.388591 410.851972 
L 315.565818 408.286467 
L 316.743045 406.098243 
L 319.0975 404.890947 
L 320.274727 401.646338 
L 321.451955 398.892194 
L 322.629182 397.156706 
L 323.806409 396.251234 
L 324.983636 394.968481 
L 326.160864 394.364833 
L 327.338091 392.025697 
L 328.515318 389.347009 
L 329.692545 385.611936 
L 330.869773 383.348256 
L 333.224227 376.406303 
L 334.401455 374.142622 
L 337.933136 363.578781 
L 339.110364 361.3151 
L 340.287591 358.636412 
L 341.464818 352.411291 
L 342.642045 349.845787 
L 343.819273 343.771578 
L 344.9965 340.715609 
L 346.173727 330.566776 
L 347.350955 321.776151 
L 349.705409 310.797301 
L 350.882636 306.760404 
L 353.237091 293.40469 
L 355.591545 271.069711 
L 356.768773 264.240942 
L 357.946 256.053965 
L 359.123227 252.997996 
L 361.477682 244.848747 
L 362.654909 238.585898 
L 363.832136 229.191625 
L 365.009364 226.777033 
L 366.186591 217.307303 
L 367.363818 211.384006 
L 368.541045 214.402247 
L 369.718273 210.818086 
L 370.8955 203.913861 
L 372.072727 199.876965 
L 373.249955 200.178789 
L 374.427182 193.274564 
L 375.604409 191.803171 
L 376.781636 195.04778 
L 377.958864 200.631525 
L 379.136091 200.631525 
L 380.313318 195.689156 
L 381.490545 196.519172 
L 382.667773 188.407651 
L 383.845 186.860803 
L 385.022227 193.614116 
L 386.199455 192.935012 
L 387.376682 186.936259 
L 388.553909 183.69165 
L 390.908364 178.409729 
L 392.085591 177.655169 
L 393.262818 185.163042 
L 394.440045 186.973987 
L 395.617273 185.57805 
L 396.7945 190.633603 
L 397.971727 204.404325 
L 399.148955 200.442885 
L 400.326182 201.046533 
L 401.503409 213.760871 
L 402.680636 219.948264 
L 403.857864 235.379018 
L 405.035091 237.001322 
L 406.212318 240.434571 
L 407.389545 241.755051 
L 408.566773 240.774123 
L 409.744 243.037803 
L 410.921227 261.44907 
L 412.098455 268.692847 
L 413.275682 271.522447 
L 414.452909 271.861999 
L 415.630136 270.390607 
L 416.807364 274.050224 
L 417.984591 284.764977 
L 419.161818 289.25461 
L 420.339045 290.160082 
L 421.516273 290.612818 
L 422.6935 293.02741 
L 423.870727 292.876498 
L 425.047955 292.310578 
L 426.225182 298.309331 
L 427.402409 302.11986 
L 428.579636 312.080053 
L 429.756864 313.966453 
L 430.934091 318.908822 
L 432.111318 319.474742 
L 433.288545 319.474742 
L 434.465773 326.001687 
L 435.643 329.35948 
L 436.820227 329.472664 
L 437.997455 336.075065 
L 439.174682 343.658394 
L 440.351909 343.16793 
L 441.529136 342.526554 
L 442.706364 344.48841 
L 443.883591 344.639322 
L 445.060818 342.866106 
L 446.238045 342.41337 
L 447.415273 343.507482 
L 449.769727 342.073818 
L 450.946955 343.432026 
L 452.124182 341.507898 
L 454.478636 336.527801 
L 455.655864 335.131865 
L 456.833091 332.755 
L 458.010318 333.019096 
L 459.187545 335.622329 
L 460.364773 332.905912 
L 461.542 329.095384 
L 462.719227 326.567607 
L 463.896455 325.813047 
L 465.073682 323.624823 
L 466.250909 321.738423 
L 467.428136 321.889335 
L 470.959818 311.212309 
L 473.314273 305.854932 
L 474.4915 304.57218 
L 475.668727 302.572596 
L 476.845955 298.648883 
L 479.200409 286.160913 
L 480.377636 281.105361 
L 481.554864 274.616144 
L 482.732091 271.975183 
L 483.909318 270.730159 
L 485.086545 261.977262 
L 486.263773 258.808109 
L 487.441 250.734316 
L 490.972682 233.039882 
L 492.149909 228.248425 
L 493.327136 223.947432 
L 494.504364 209.686246 
L 496.858818 193.7273 
L 498.036045 188.822659 
L 499.213273 183.050274 
L 500.3905 176.711969 
L 501.567727 164.223999 
L 502.744955 156.527486 
L 503.922182 146.039101 
L 505.099409 136.607099 
L 506.276636 128.571034 
L 507.453864 124.232313 
L 508.631091 123.138201 
L 509.808318 114.158936 
L 510.985545 106.688791 
L 513.34 95.181749 
L 514.517227 85.976116 
L 515.694455 79.750995 
L 516.871682 85.787476 
L 518.048909 80.807379 
L 519.226136 70.168081 
L 520.403364 67.942129 
L 521.580591 59.264688 
L 523.935045 49.19131 
L 525.112273 58.510128 
L 526.2895 60.283344 
L 527.466727 57.491472 
L 528.643955 58.434672 
L 529.821182 63.452496 
L 530.998409 59.906064 
L 532.175636 59.264688 
L 533.352864 74.808626 
L 534.530091 81.260115 
L 535.707318 85.561108 
L 536.884545 91.673045 
L 538.061773 104.04783 
L 539.239 103.708278 
L 540.416227 102.765078 
L 541.593455 117.66764 
L 542.770682 126.57145 
L 543.947909 132.721115 
L 545.125136 137.474843 
L 546.302364 146.378653 
L 547.479591 145.850461 
L 548.656818 146.114557 
L 549.834045 161.620767 
L 551.011273 168.75136 
L 552.1885 180.522498 
L 553.365727 193.500932 
L 554.542955 190.444963 
L 555.720182 194.783684 
L 556.897409 196.141892 
L 558.074636 197.952836 
L 559.251864 199.311045 
L 560.429091 218.627783 
L 561.606318 219.382343 
L 562.783545 230.059369 
L 565.138 227.908873 
L 566.315227 240.774123 
L 568.669682 252.884812 
L 569.846909 258.015821 
L 571.024136 268.655119 
L 572.201364 268.391023 
L 573.378591 267.674191 
L 574.555818 277.70984 
L 575.733045 285.745905 
L 576.910273 292.46149 
L 578.0875 297.290675 
L 579.264727 305.741748 
L 580.441955 306.949044 
L 581.619182 307.326324 
L 582.796409 308.307253 
L 583.973636 317.663798 
L 585.150864 322.832535 
L 587.505318 330.67996 
L 588.682545 330.340408 
L 589.859773 331.132696 
L 592.214227 339.961049 
L 593.391455 342.262458 
L 594.568682 346.638906 
L 595.745909 351.769915 
L 596.923136 352.147195 
L 598.100364 352.373563 
L 599.277591 355.84454 
L 600.454818 357.881852 
L 601.632045 360.145532 
L 602.809273 362.861949 
L 603.9865 364.559709 
L 605.163727 364.823805 
L 606.340955 364.786077 
L 607.518182 366.483837 
L 609.872636 377.236319 
L 611.049864 384.40464 
L 612.227091 384.857376 
L 613.404318 385.083744 
L 614.581545 385.121472 
L 616.936 388.705632 
L 618.113227 390.101569 
L 620.467682 391.912513 
L 621.644909 392.063425 
L 622.822136 392.101153 
L 623.999364 393.723457 
L 625.176591 394.553473 
L 626.353818 395.081665 
L 627.531045 396.854882 
L 628.708273 401.41997 
L 629.8855 401.344514 
L 631.062727 403.985475 
L 632.239955 408.173283 
L 633.417182 414.700228 
L 634.594409 414.775684 
L 635.771636 417.190277 
L 636.948864 419.868965 
L 638.126091 419.944421 
L 639.303318 419.793509 
L 640.480545 422.81175 
L 642.835 423.528582 
L 644.012227 423.00039 
L 645.189455 423.18903 
L 647.543909 422.887206 
L 648.721136 423.075846 
L 649.898364 423.717222 
L 651.075591 423.56631 
L 652.252818 422.962662 
L 653.430045 424.32087 
L 655.7845 423.94359 
L 656.961727 423.453126 
L 658.138955 422.472197 
L 659.316182 422.509925 
L 660.493409 422.132645 
L 661.670636 420.887621 
L 664.025091 420.397157 
L 665.202318 418.850309 
L 666.379545 416.473445 
L 667.556773 414.926596 
L 668.734 415.681156 
L 669.911227 413.7193 
L 671.088455 412.738372 
L 672.265682 411.002884 
L 673.442909 407.946915 
L 674.620136 405.419139 
L 675.797364 404.853219 
L 676.974591 403.268643 
L 678.151818 397.986722 
L 679.329045 394.742113 
L 680.506273 392.553889 
L 681.6835 388.403808 
L 684.037955 375.463103 
L 686.392409 363.691965 
L 687.569636 360.032348 
L 688.746864 358.447772 
L 689.924091 349.015771 
L 691.101318 342.564282 
L 692.278545 338.338745 
L 693.455773 331.62316 
L 694.633 328.152184 
L 695.810227 323.851191 
L 696.987455 320.757494 
L 700.519136 304.874004 
L 701.696364 300.610739 
L 702.873591 297.403859 
L 705.228045 293.97061 
L 706.405273 289.330066 
L 707.5825 288.462322 
L 708.759727 284.236785 
L 709.936955 281.180817 
L 711.114182 283.142673 
L 712.291409 278.4644 
L 713.468636 277.068464 
L 714.645864 277.89848 
L 717.000318 278.08712 
L 718.177545 276.38936 
L 719.354773 275.559344 
L 720.532 273.522031 
L 721.709227 271.748815 
L 722.886455 266.881902 
L 724.063682 264.769134 
L 725.240909 263.863662 
L 726.418136 264.240942 
L 727.595364 263.486382 
L 728.772591 260.807694 
L 729.949818 259.374029 
L 731.127045 260.50587 
L 732.304273 256.582157 
L 733.4815 255.827597 
L 734.658727 254.733485 
L 735.835955 255.450317 
L 738.190409 252.960268 
L 739.367636 254.620301 
L 740.544864 253.903469 
L 741.722091 250.545676 
L 742.899318 248.20654 
L 744.076545 245.226027 
L 745.253773 243.867819 
L 746.431 243.339627 
L 747.608227 243.264171 
L 748.785455 237.944522 
L 749.962682 235.643114 
L 751.139909 229.606633 
L 752.317136 227.003401 
L 753.494364 223.268328 
L 754.671591 221.796936 
L 755.848818 214.854983 
L 759.3805 201.650181 
L 760.557727 198.745124 
L 761.734955 194.708228 
L 762.912182 190.180867 
L 765.266636 174.599201 
L 766.443864 172.788257 
L 767.621091 165.997216 
L 768.798318 161.205759 
L 769.975545 153.660158 
L 771.152773 150.151453 
L 772.33 148.000957 
L 773.507227 143.511324 
L 774.684455 141.926748 
L 775.861682 135.097979 
L 777.038909 139.24806 
L 778.216136 135.173435 
L 779.393364 130.608346 
L 780.570591 129.665146 
L 781.747818 129.287866 
L 782.925045 134.117051 
L 784.102273 136.720283 
L 785.2795 143.247228 
L 786.456727 142.417212 
L 787.633955 140.530812 
L 788.811182 152.000126 
L 791.165636 166.336768 
L 793.520091 176.447873 
L 794.697318 174.335105 
L 795.874545 173.391905 
L 797.051773 180.522498 
L 799.406227 192.670916 
L 800.583455 195.99098 
L 801.760682 201.725637 
L 801.760682 201.725637 
" clip-path="url(#p290a18fc45)" style="fill: none; stroke: #ffc0cb; stroke-width: 1.5; stroke-linecap: round"/>
   </g>
   <g id="line2d_153">
    <path d="M 95.424318 449.975914 
L 97.778773 449.938186 
L 98.956 449.749545 
L 103.664909 449.598633 
L 104.842136 449.86273 
L 106.019364 449.787273 
L 108.373818 449.296809 
L 109.551045 449.296809 
L 110.728273 449.598633 
L 113.082727 449.674089 
L 114.259955 449.447721 
L 115.437182 449.560905 
L 116.614409 449.409993 
L 117.791636 449.409993 
L 118.968864 449.560905 
L 120.146091 449.409993 
L 122.500545 449.485449 
L 126.032227 449.334537 
L 127.209455 449.447721 
L 128.386682 449.447721 
L 129.563909 449.560905 
L 130.741136 449.485449 
L 131.918364 449.523177 
L 134.272818 449.108169 
L 135.450045 448.844073 
L 136.627273 448.768617 
L 137.8045 449.070441 
L 140.158955 449.032713 
L 144.867864 449.334537 
L 146.045091 449.598633 
L 149.576773 449.86273 
L 150.754 449.86273 
L 151.931227 450.126826 
L 153.108455 450.202282 
L 155.462909 450.126826 
L 158.994591 450.277738 
L 161.349045 450.353194 
L 162.526273 450.202282 
L 163.7035 450.61729 
L 166.057955 450.655018 
L 167.235182 450.504106 
L 169.589636 450.504106 
L 170.766864 450.390922 
L 171.944091 450.466378 
L 173.121318 450.315466 
L 175.475773 450.390922 
L 177.830227 450.390922 
L 182.539136 450.466378 
L 183.716364 450.315466 
L 184.893591 450.466378 
L 188.425273 450.466378 
L 189.6025 450.353194 
L 191.956955 450.277738 
L 193.134182 450.202282 
L 195.488636 449.787273 
L 197.843091 449.749545 
L 203.729227 449.86273 
L 204.906455 449.749545 
L 207.260909 449.900458 
L 208.438136 449.749545 
L 210.792591 449.711817 
L 213.147045 449.938186 
L 215.5015 449.900458 
L 216.678727 449.711817 
L 220.210409 449.674089 
L 221.387636 449.787273 
L 222.564864 450.05137 
L 229.628227 449.447721 
L 231.982682 449.674089 
L 233.159909 449.372265 
L 236.691591 449.334537 
L 237.868818 449.409993 
L 240.223273 449.183625 
L 241.4005 448.881801 
L 244.932182 448.919529 
L 246.109409 448.542249 
L 248.463864 448.579977 
L 250.818318 448.881801 
L 253.172773 448.844073 
L 254.35 448.655433 
L 255.527227 448.693161 
L 256.704455 448.579977 
L 257.881682 448.202697 
L 260.236136 448.164969 
L 261.413364 448.504521 
L 262.590591 448.542249 
L 263.767818 448.693161 
L 264.945045 448.504521 
L 266.122273 448.730889 
L 269.653955 448.504521 
L 270.831182 448.617705 
L 272.008409 448.579977 
L 273.185636 448.655433 
L 274.362864 448.844073 
L 275.540091 448.806345 
L 277.894545 448.957257 
L 280.249 448.693161 
L 281.426227 448.881801 
L 282.603455 448.844073 
L 283.780682 448.957257 
L 284.957909 448.957257 
L 290.844045 449.674089 
L 292.021273 449.560905 
L 296.730182 449.86273 
L 297.907409 449.825002 
L 299.084636 449.598633 
L 300.261864 449.598633 
L 301.439091 449.409993 
L 306.148 449.183625 
L 310.856909 448.730889 
L 313.211364 448.957257 
L 315.565818 448.768617 
L 317.920273 448.617705 
L 319.0975 448.504521 
L 320.274727 448.542249 
L 321.451955 448.429065 
L 322.629182 448.164969 
L 324.983636 447.976329 
L 326.160864 448.164969 
L 327.338091 447.636777 
L 328.515318 447.448137 
L 329.692545 446.919945 
L 330.869773 446.731305 
L 332.047 446.165385 
L 334.401455 445.448553 
L 335.578682 445.335369 
L 336.755909 445.486281 
L 337.933136 444.844905 
L 339.110364 444.656265 
L 340.287591 444.731721 
L 342.642045 444.580809 
L 343.819273 444.165801 
L 346.173727 441.939848 
L 347.350955 441.52484 
L 348.528182 441.260744 
L 349.705409 440.732552 
L 350.882636 440.694824 
L 352.059864 440.77028 
L 353.237091 440.393 
L 354.414318 440.543912 
L 355.591545 440.242088 
L 356.768773 440.091176 
L 357.946 439.82708 
L 359.123227 439.902536 
L 360.300455 440.091176 
L 361.477682 439.525256 
L 362.654909 439.147976 
L 363.832136 437.978408 
L 365.009364 436.507016 
L 366.186591 435.563815 
L 367.363818 435.563815 
L 369.718273 436.167463 
L 372.072727 434.733799 
L 373.249955 434.507431 
L 374.427182 434.696071 
L 375.604409 434.733799 
L 376.781636 433.715143 
L 377.958864 432.356935 
L 379.136091 431.225095 
L 380.313318 431.225095 
L 381.490545 431.941927 
L 382.667773 431.489191 
L 383.845 431.489191 
L 385.022227 431.225095 
L 386.199455 431.564647 
L 387.376682 430.432807 
L 388.553909 430.508263 
L 389.731136 428.772774 
L 390.908364 428.508678 
L 392.085591 428.697318 
L 393.262818 429.074598 
L 394.440045 428.999142 
L 395.617273 429.451878 
L 396.7945 429.565063 
L 397.971727 430.734631 
L 399.148955 430.508263 
L 400.326182 430.734631 
L 401.503409 431.225095 
L 402.680636 431.111911 
L 403.857864 430.847815 
L 406.212318 431.640103 
L 407.389545 431.225095 
L 408.566773 431.225095 
L 409.744 431.941927 
L 410.921227 433.073767 
L 412.098455 433.337863 
L 416.807364 433.866055 
L 417.984591 435.450631 
L 419.161818 436.129735 
L 420.339045 436.657928 
L 421.516273 436.733384 
L 422.6935 436.6202 
L 425.047955 436.6202 
L 426.225182 436.80884 
L 427.402409 437.110664 
L 428.579636 437.827496 
L 429.756864 438.016136 
L 430.934091 438.016136 
L 432.111318 438.12932 
L 433.288545 438.091592 
L 435.643 438.959336 
L 436.820227 438.619784 
L 437.997455 439.751624 
L 439.174682 440.242088 
L 440.351909 440.355272 
L 441.529136 440.279816 
L 442.706364 440.430728 
L 443.883591 440.355272 
L 445.060818 440.95892 
L 446.238045 441.260744 
L 448.5925 441.034376 
L 450.946955 440.95892 
L 452.124182 440.430728 
L 453.301409 440.242088 
L 454.478636 440.506184 
L 455.655864 440.543912 
L 456.833091 440.355272 
L 459.187545 440.619368 
L 460.364773 440.921192 
L 461.542 440.657096 
L 462.719227 439.902536 
L 463.896455 439.487528 
L 466.250909 439.600712 
L 467.428136 440.053448 
L 468.605364 440.242088 
L 469.782591 439.789352 
L 470.959818 439.63844 
L 472.137045 439.034792 
L 473.314273 439.034792 
L 474.4915 438.846152 
L 476.845955 437.789768 
L 478.023182 437.035208 
L 479.200409 436.99748 
L 480.377636 436.695656 
L 481.554864 436.6202 
L 482.732091 436.092007 
L 483.909318 435.337447 
L 485.086545 434.997895 
L 486.263773 434.922439 
L 487.441 434.356519 
L 488.618227 434.469703 
L 489.795455 433.903783 
L 490.972682 433.752871 
L 492.149909 431.979655 
L 493.327136 432.206023 
L 494.504364 432.055111 
L 495.681591 432.017383 
L 496.858818 431.866471 
L 498.036045 431.262823 
L 499.213273 430.847815 
L 500.3905 429.187782 
L 501.567727 427.867302 
L 502.744955 427.980486 
L 503.922182 425.679078 
L 505.099409 424.962246 
L 506.276636 424.88679 
L 508.631091 424.88679 
L 509.808318 423.453126 
L 510.985545 422.924934 
L 512.162773 421.944005 
L 513.34 422.623109 
L 514.517227 421.944005 
L 515.694455 421.793093 
L 516.871682 422.585381 
L 518.048909 422.736294 
L 519.226136 421.830821 
L 520.403364 422.774022 
L 522.757818 422.359013 
L 525.112273 423.264486 
L 527.466727 421.642181 
L 528.643955 420.283973 
L 529.821182 420.321701 
L 530.998409 420.736709 
L 532.175636 420.887621 
L 533.352864 421.679909 
L 534.530091 420.812165 
L 535.707318 420.510341 
L 536.884545 420.359429 
L 538.061773 420.736709 
L 539.239 420.887621 
L 540.416227 421.415813 
L 541.593455 421.528997 
L 542.770682 422.094917 
L 543.947909 421.302629 
L 545.125136 421.491269 
L 546.302364 422.623109 
L 547.479591 423.113574 
L 548.656818 422.81175 
L 549.834045 423.641766 
L 551.011273 424.019046 
L 553.365727 425.226342 
L 554.542955 425.528166 
L 555.720182 425.679078 
L 556.897409 425.980902 
L 559.251864 426.924102 
L 560.429091 428.357766 
L 561.606318 428.810502 
L 562.783545 429.451878 
L 565.138 429.753703 
L 566.315227 430.017799 
L 567.492455 430.772359 
L 569.846909 431.489191 
L 571.024136 431.941927 
L 573.378591 432.130567 
L 574.555818 432.470119 
L 575.733045 432.658759 
L 576.910273 433.601959 
L 578.0875 434.281063 
L 579.264727 435.224263 
L 581.619182 435.790183 
L 582.796409 435.639271 
L 583.973636 436.507016 
L 585.150864 436.80884 
L 586.328091 436.657928 
L 587.505318 437.110664 
L 589.859773 437.412488 
L 591.037 437.827496 
L 592.214227 438.808424 
L 593.391455 438.657512 
L 595.745909 439.902536 
L 596.923136 439.902536 
L 598.100364 440.128904 
L 601.632045 441.298472 
L 602.809273 441.411656 
L 603.9865 441.675752 
L 606.340955 441.638024 
L 607.518182 441.826664 
L 608.695409 441.864392 
L 611.049864 442.84532 
L 612.227091 443.109417 
L 614.581545 443.147145 
L 616.936 443.562153 
L 618.113227 443.373513 
L 619.290455 443.373513 
L 620.467682 443.562153 
L 622.822136 443.524425 
L 623.999364 443.939433 
L 625.176591 444.203529 
L 626.353818 444.203529 
L 627.531045 444.807177 
L 628.708273 445.109001 
L 631.062727 445.222185 
L 632.239955 446.316297 
L 633.417182 446.769033 
L 634.594409 446.693577 
L 636.948864 446.995401 
L 639.303318 447.033129 
L 640.480545 447.372681 
L 648.721136 447.636777 
L 649.898364 447.863145 
L 651.075591 447.938601 
L 652.252818 447.900873 
L 653.430045 448.127241 
L 655.7845 448.051785 
L 656.961727 448.202697 
L 659.316182 447.976329 
L 660.493409 447.976329 
L 661.670636 448.127241 
L 667.556773 447.561321 
L 668.734 447.599049 
L 669.911227 447.523593 
L 671.088455 447.259497 
L 672.265682 447.221769 
L 673.442909 447.410409 
L 675.797364 446.882217 
L 676.974591 446.957673 
L 678.151818 446.278569 
L 681.6835 445.486281 
L 684.037955 444.392169 
L 685.215182 443.637609 
L 686.392409 443.675337 
L 688.746864 443.335785 
L 689.924091 442.543496 
L 691.101318 441.600296 
L 693.455773 440.430728 
L 694.633 439.713896 
L 696.987455 439.713896 
L 698.164682 439.600712 
L 699.341909 438.732968 
L 700.519136 438.431144 
L 702.873591 438.355688 
L 704.050818 438.204776 
L 705.228045 438.431144 
L 706.405273 438.167048 
L 707.5825 438.544328 
L 708.759727 437.261576 
L 709.936955 436.695656 
L 711.114182 436.733384 
L 712.291409 436.6202 
L 713.468636 436.884296 
L 714.645864 436.99748 
L 715.823091 436.393832 
L 717.000318 436.016551 
L 720.532 436.016551 
L 722.886455 436.318376 
L 724.063682 435.676999 
L 725.240909 435.676999 
L 726.418136 435.337447 
L 729.949818 435.186535 
L 733.4815 433.677415 
L 734.658727 433.526503 
L 737.013182 433.413319 
L 738.190409 433.526503 
L 739.367636 434.167879 
L 740.544864 433.601959 
L 741.722091 433.790599 
L 742.899318 433.488775 
L 744.076545 433.526503 
L 745.253773 433.262407 
L 747.608227 433.149223 
L 748.785455 432.658759 
L 749.962682 432.583303 
L 751.139909 432.356935 
L 752.317136 431.753287 
L 753.494364 431.640103 
L 754.671591 431.640103 
L 755.848818 430.696903 
L 757.026045 429.904615 
L 758.203273 429.565063 
L 759.3805 428.697318 
L 761.734955 428.244582 
L 762.912182 428.320038 
L 764.089409 428.018214 
L 766.443864 428.055942 
L 767.621091 426.20727 
L 768.798318 425.45271 
L 769.975545 425.113158 
L 771.152773 425.301798 
L 772.33 425.716806 
L 773.507227 424.69815 
L 774.684455 423.981318 
L 775.861682 424.169958 
L 777.038909 423.641766 
L 778.216136 423.339942 
L 779.393364 423.339942 
L 780.570591 423.679494 
L 781.747818 422.774022 
L 782.925045 422.283557 
L 786.456727 422.849478 
L 787.633955 422.585381 
L 788.811182 423.604038 
L 789.988409 422.019461 
L 791.165636 422.245829 
L 792.342864 421.717637 
L 794.697318 422.321285 
L 795.874545 422.283557 
L 797.051773 421.717637 
L 798.229 421.642181 
L 799.406227 420.887621 
L 801.760682 421.566725 
L 801.760682 421.566725 
" clip-path="url(#p290a18fc45)" style="fill: none; stroke: #800080; stroke-width: 1.5; stroke-linecap: round"/>
   </g>
   <g id="line2d_154"/>
   <g id="line2d_155"/>
   <g id="patch_3">
    <path d="M 60.1075 470.728203 
L 60.1075 29.118125 
" style="fill: none; stroke: #262626; stroke-width: 1.25; stroke-linejoin: miter; stroke-linecap: square"/>
   </g>
   <g id="patch_4">
    <path d="M 837.0775 470.728203 
L 837.0775 29.118125 
" style="fill: none; stroke: #262626; stroke-width: 1.25; stroke-linejoin: miter; stroke-linecap: square"/>
   </g>
   <g id="patch_5">
    <path d="M 60.1075 470.728203 
L 837.0775 470.728203 
" style="fill: none; stroke: #262626; stroke-width: 1.25; stroke-linejoin: miter; stroke-linecap: square"/>
   </g>
   <g id="patch_6">
    <path d="M 60.1075 29.118125 
L 837.0775 29.118125 
" style="fill: none; stroke: #262626; stroke-width: 1.25; stroke-linejoin: miter; stroke-linecap: square"/>
   </g>
   <g id="text_31">
    <!-- Last update: 27.11.2021 -->
    <g style="fill: #262626" transform="translate(387.093672 22.493974)scale(0.09996 -0.09996)">
     <defs>
      <path id="DejaVuSans-4c" d="M 628 4666 
L 1259 4666 
L 1259 531 
L 3531 531 
L 3531 0 
L 628 0 
L 628 4666 
z
" transform="scale(0.015625)"/>
      <path id="DejaVuSans-20" transform="scale(0.015625)"/>
      <path id="DejaVuSans-75" d="M 544 1381 
L 544 3500 
L 1119 3500 
L 1119 1403 
Q 1119 906 1312 657 
Q 1506 409 1894 409 
Q 2359 409 2629 706 
Q 2900 1003 2900 1516 
L 2900 3500 
L 3475 3500 
L 3475 0 
L 2900 0 
L 2900 538 
Q 2691 219 2414 64 
Q 2138 -91 1772 -91 
Q 1169 -91 856 284 
Q 544 659 544 1381 
z
M 1991 3584 
L 1991 3584 
z
" transform="scale(0.015625)"/>
      <path id="DejaVuSans-70" d="M 1159 525 
L 1159 -1331 
L 581 -1331 
L 581 3500 
L 1159 3500 
L 1159 2969 
Q 1341 3281 1617 3432 
Q 1894 3584 2278 3584 
Q 2916 3584 3314 3078 
Q 3713 2572 3713 1747 
Q 3713 922 3314 415 
Q 2916 -91 2278 -91 
Q 1894 -91 1617 61 
Q 1341 213 1159 525 
z
M 3116 1747 
Q 3116 2381 2855 2742 
Q 2594 3103 2138 3103 
Q 1681 3103 1420 2742 
Q 1159 2381 1159 1747 
Q 1159 1113 1420 752 
Q 1681 391 2138 391 
Q 2594 391 2855 752 
Q 3116 1113 3116 1747 
z
" transform="scale(0.015625)"/>
      <path id="DejaVuSans-64" d="M 2906 2969 
L 2906 4863 
L 3481 4863 
L 3481 0 
L 2906 0 
L 2906 525 
Q 2725 213 2448 61 
Q 2172 -91 1784 -91 
Q 1150 -91 751 415 
Q 353 922 353 1747 
Q 353 2572 751 3078 
Q 1150 3584 1784 3584 
Q 2172 3584 2448 3432 
Q 2725 3281 2906 2969 
z
M 947 1747 
Q 947 1113 1208 752 
Q 1469 391 1925 391 
Q 2381 391 2643 752 
Q 2906 1113 2906 1747 
Q 2906 2381 2643 2742 
Q 2381 3103 1925 3103 
Q 1469 3103 1208 2742 
Q 947 2381 947 1747 
z
" transform="scale(0.015625)"/>
      <path id="DejaVuSans-3a" d="M 750 794 
L 1409 794 
L 1409 0 
L 750 0 
L 750 794 
z
M 750 3309 
L 1409 3309 
L 1409 2516 
L 750 2516 
L 750 3309 
z
" transform="scale(0.015625)"/>
     </defs>
     <use xlink:href="#DejaVuSans-4c"/>
     <use xlink:href="#DejaVuSans-61" x="55.712891"/>
     <use xlink:href="#DejaVuSans-73" x="116.992188"/>
     <use xlink:href="#DejaVuSans-74" x="169.091797"/>
     <use xlink:href="#DejaVuSans-20" x="208.300781"/>
     <use xlink:href="#DejaVuSans-75" x="240.087891"/>
     <use xlink:href="#DejaVuSans-70" x="303.466797"/>
     <use xlink:href="#DejaVuSans-64" x="366.943359"/>
     <use xlink:href="#DejaVuSans-61" x="430.419922"/>
     <use xlink:href="#DejaVuSans-74" x="491.699219"/>
     <use xlink:href="#DejaVuSans-65" x="530.908203"/>
     <use xlink:href="#DejaVuSans-3a" x="592.431641"/>
     <use xlink:href="#DejaVuSans-20" x="626.123047"/>
     <use xlink:href="#DejaVuSans-32" x="657.910156"/>
     <use xlink:href="#DejaVuSans-37" x="721.533203"/>
     <use xlink:href="#DejaVuSans-2e" x="785.15625"/>
     <use xlink:href="#DejaVuSans-31" x="816.943359"/>
     <use xlink:href="#DejaVuSans-31" x="880.566406"/>
     <use xlink:href="#DejaVuSans-2e" x="944.189453"/>
     <use xlink:href="#DejaVuSans-32" x="975.976562"/>
     <use xlink:href="#DejaVuSans-30" x="1039.599609"/>
     <use xlink:href="#DejaVuSans-32" x="1103.222656"/>
     <use xlink:href="#DejaVuSans-31" x="1166.845703"/>
    </g>
   </g>
   <g id="text_32">
    <!-- Disease timeline -->
    <g style="fill: #262626" transform="translate(392.434375 9.118125)scale(0.12 -0.12)">
     <defs>
      <path id="DejaVuSans-Bold-44" d="M 1791 3756 
L 1791 909 
L 2222 909 
Q 2959 909 3348 1275 
Q 3738 1641 3738 2338 
Q 3738 3031 3350 3393 
Q 2963 3756 2222 3756 
L 1791 3756 
z
M 588 4666 
L 1856 4666 
Q 2919 4666 3439 4514 
Q 3959 4363 4331 4000 
Q 4659 3684 4818 3271 
Q 4978 2859 4978 2338 
Q 4978 1809 4818 1395 
Q 4659 981 4331 666 
Q 3956 303 3431 151 
Q 2906 0 1856 0 
L 588 0 
L 588 4666 
z
" transform="scale(0.015625)"/>
      <path id="DejaVuSans-Bold-69" d="M 538 3500 
L 1656 3500 
L 1656 0 
L 538 0 
L 538 3500 
z
M 538 4863 
L 1656 4863 
L 1656 3950 
L 538 3950 
L 538 4863 
z
" transform="scale(0.015625)"/>
      <path id="DejaVuSans-Bold-73" d="M 3272 3391 
L 3272 2541 
Q 2913 2691 2578 2766 
Q 2244 2841 1947 2841 
Q 1628 2841 1473 2761 
Q 1319 2681 1319 2516 
Q 1319 2381 1436 2309 
Q 1553 2238 1856 2203 
L 2053 2175 
Q 2913 2066 3209 1816 
Q 3506 1566 3506 1031 
Q 3506 472 3093 190 
Q 2681 -91 1863 -91 
Q 1516 -91 1145 -36 
Q 775 19 384 128 
L 384 978 
Q 719 816 1070 734 
Q 1422 653 1784 653 
Q 2113 653 2278 743 
Q 2444 834 2444 1013 
Q 2444 1163 2330 1236 
Q 2216 1309 1875 1350 
L 1678 1375 
Q 931 1469 631 1722 
Q 331 1975 331 2491 
Q 331 3047 712 3315 
Q 1094 3584 1881 3584 
Q 2191 3584 2531 3537 
Q 2872 3491 3272 3391 
z
" transform="scale(0.015625)"/>
      <path id="DejaVuSans-Bold-65" d="M 4031 1759 
L 4031 1441 
L 1416 1441 
Q 1456 1047 1700 850 
Q 1944 653 2381 653 
Q 2734 653 3104 758 
Q 3475 863 3866 1075 
L 3866 213 
Q 3469 63 3072 -14 
Q 2675 -91 2278 -91 
Q 1328 -91 801 392 
Q 275 875 275 1747 
Q 275 2603 792 3093 
Q 1309 3584 2216 3584 
Q 3041 3584 3536 3087 
Q 4031 2591 4031 1759 
z
M 2881 2131 
Q 2881 2450 2695 2645 
Q 2509 2841 2209 2841 
Q 1884 2841 1681 2658 
Q 1478 2475 1428 2131 
L 2881 2131 
z
" transform="scale(0.015625)"/>
      <path id="DejaVuSans-Bold-61" d="M 2106 1575 
Q 1756 1575 1579 1456 
Q 1403 1338 1403 1106 
Q 1403 894 1545 773 
Q 1688 653 1941 653 
Q 2256 653 2472 879 
Q 2688 1106 2688 1447 
L 2688 1575 
L 2106 1575 
z
M 3816 1997 
L 3816 0 
L 2688 0 
L 2688 519 
Q 2463 200 2181 54 
Q 1900 -91 1497 -91 
Q 953 -91 614 226 
Q 275 544 275 1050 
Q 275 1666 698 1953 
Q 1122 2241 2028 2241 
L 2688 2241 
L 2688 2328 
Q 2688 2594 2478 2717 
Q 2269 2841 1825 2841 
Q 1466 2841 1156 2769 
Q 847 2697 581 2553 
L 581 3406 
Q 941 3494 1303 3539 
Q 1666 3584 2028 3584 
Q 2975 3584 3395 3211 
Q 3816 2838 3816 1997 
z
" transform="scale(0.015625)"/>
      <path id="DejaVuSans-Bold-20" transform="scale(0.015625)"/>
      <path id="DejaVuSans-Bold-74" d="M 1759 4494 
L 1759 3500 
L 2913 3500 
L 2913 2700 
L 1759 2700 
L 1759 1216 
Q 1759 972 1856 886 
Q 1953 800 2241 800 
L 2816 800 
L 2816 0 
L 1856 0 
Q 1194 0 917 276 
Q 641 553 641 1216 
L 641 2700 
L 84 2700 
L 84 3500 
L 641 3500 
L 641 4494 
L 1759 4494 
z
" transform="scale(0.015625)"/>
      <path id="DejaVuSans-Bold-6d" d="M 3781 2919 
Q 3994 3244 4286 3414 
Q 4578 3584 4928 3584 
Q 5531 3584 5847 3212 
Q 6163 2841 6163 2131 
L 6163 0 
L 5038 0 
L 5038 1825 
Q 5041 1866 5042 1909 
Q 5044 1953 5044 2034 
Q 5044 2406 4934 2573 
Q 4825 2741 4581 2741 
Q 4263 2741 4089 2478 
Q 3916 2216 3909 1719 
L 3909 0 
L 2784 0 
L 2784 1825 
Q 2784 2406 2684 2573 
Q 2584 2741 2328 2741 
Q 2006 2741 1831 2477 
Q 1656 2213 1656 1722 
L 1656 0 
L 531 0 
L 531 3500 
L 1656 3500 
L 1656 2988 
Q 1863 3284 2130 3434 
Q 2397 3584 2719 3584 
Q 3081 3584 3359 3409 
Q 3638 3234 3781 2919 
z
" transform="scale(0.015625)"/>
      <path id="DejaVuSans-Bold-6c" d="M 538 4863 
L 1656 4863 
L 1656 0 
L 538 0 
L 538 4863 
z
" transform="scale(0.015625)"/>
      <path id="DejaVuSans-Bold-6e" d="M 4056 2131 
L 4056 0 
L 2931 0 
L 2931 347 
L 2931 1631 
Q 2931 2084 2911 2256 
Q 2891 2428 2841 2509 
Q 2775 2619 2662 2680 
Q 2550 2741 2406 2741 
Q 2056 2741 1856 2470 
Q 1656 2200 1656 1722 
L 1656 0 
L 538 0 
L 538 3500 
L 1656 3500 
L 1656 2988 
Q 1909 3294 2193 3439 
Q 2478 3584 2822 3584 
Q 3428 3584 3742 3212 
Q 4056 2841 4056 2131 
z
" transform="scale(0.015625)"/>
     </defs>
     <use xlink:href="#DejaVuSans-Bold-44"/>
     <use xlink:href="#DejaVuSans-Bold-69" x="83.007812"/>
     <use xlink:href="#DejaVuSans-Bold-73" x="117.285156"/>
     <use xlink:href="#DejaVuSans-Bold-65" x="176.806641"/>
     <use xlink:href="#DejaVuSans-Bold-61" x="244.628906"/>
     <use xlink:href="#DejaVuSans-Bold-73" x="312.109375"/>
     <use xlink:href="#DejaVuSans-Bold-65" x="371.630859"/>
     <use xlink:href="#DejaVuSans-Bold-20" x="439.453125"/>
     <use xlink:href="#DejaVuSans-Bold-74" x="474.267578"/>
     <use xlink:href="#DejaVuSans-Bold-69" x="522.070312"/>
     <use xlink:href="#DejaVuSans-Bold-6d" x="556.347656"/>
     <use xlink:href="#DejaVuSans-Bold-65" x="660.546875"/>
     <use xlink:href="#DejaVuSans-Bold-6c" x="728.369141"/>
     <use xlink:href="#DejaVuSans-Bold-69" x="762.646484"/>
     <use xlink:href="#DejaVuSans-Bold-6e" x="796.923828"/>
     <use xlink:href="#DejaVuSans-Bold-65" x="868.115234"/>
    </g>
   </g>
   <g id="legend_1">
    <g id="patch_7">
     <path d="M 716.515781 70.21 
L 829.3775 70.21 
Q 831.5775 70.21 831.5775 68.01 
L 831.5775 36.818125 
Q 831.5775 34.618125 829.3775 34.618125 
L 716.515781 34.618125 
Q 714.315781 34.618125 714.315781 36.818125 
L 714.315781 68.01 
Q 714.315781 70.21 716.515781 70.21 
z
" style="fill: #ffffff; opacity: 0.8; stroke: #cccccc; stroke-linejoin: miter"/>
    </g>
    <g id="line2d_156">
     <path d="M 718.715781 43.526406 
L 729.715781 43.526406 
L 740.715781 43.526406 
" style="fill: none; stroke: #ffc0cb; stroke-width: 1.5; stroke-linecap: round"/>
    </g>
    <g id="text_33">
     <!-- Hospitalized -->
     <g style="fill: #262626" transform="translate(749.515781 47.376406)scale(0.11 -0.11)">
      <defs>
       <path id="DejaVuSans-48" d="M 628 4666 
L 1259 4666 
L 1259 2753 
L 3553 2753 
L 3553 4666 
L 4184 4666 
L 4184 0 
L 3553 0 
L 3553 2222 
L 1259 2222 
L 1259 0 
L 628 0 
L 628 4666 
z
" transform="scale(0.015625)"/>
       <path id="DejaVuSans-6f" d="M 1959 3097 
Q 1497 3097 1228 2736 
Q 959 2375 959 1747 
Q 959 1119 1226 758 
Q 1494 397 1959 397 
Q 2419 397 2687 759 
Q 2956 1122 2956 1747 
Q 2956 2369 2687 2733 
Q 2419 3097 1959 3097 
z
M 1959 3584 
Q 2709 3584 3137 3096 
Q 3566 2609 3566 1747 
Q 3566 888 3137 398 
Q 2709 -91 1959 -91 
Q 1206 -91 779 398 
Q 353 888 353 1747 
Q 353 2609 779 3096 
Q 1206 3584 1959 3584 
z
" transform="scale(0.015625)"/>
       <path id="DejaVuSans-69" d="M 603 3500 
L 1178 3500 
L 1178 0 
L 603 0 
L 603 3500 
z
M 603 4863 
L 1178 4863 
L 1178 4134 
L 603 4134 
L 603 4863 
z
" transform="scale(0.015625)"/>
       <path id="DejaVuSans-6c" d="M 603 4863 
L 1178 4863 
L 1178 0 
L 603 0 
L 603 4863 
z
" transform="scale(0.015625)"/>
       <path id="DejaVuSans-7a" d="M 353 3500 
L 3084 3500 
L 3084 2975 
L 922 459 
L 3084 459 
L 3084 0 
L 275 0 
L 275 525 
L 2438 3041 
L 353 3041 
L 353 3500 
z
" transform="scale(0.015625)"/>
      </defs>
      <use xlink:href="#DejaVuSans-48"/>
      <use xlink:href="#DejaVuSans-6f" x="75.195312"/>
      <use xlink:href="#DejaVuSans-73" x="136.376953"/>
      <use xlink:href="#DejaVuSans-70" x="188.476562"/>
      <use xlink:href="#DejaVuSans-69" x="251.953125"/>
      <use xlink:href="#DejaVuSans-74" x="279.736328"/>
      <use xlink:href="#DejaVuSans-61" x="318.945312"/>
      <use xlink:href="#DejaVuSans-6c" x="380.224609"/>
      <use xlink:href="#DejaVuSans-69" x="408.007812"/>
      <use xlink:href="#DejaVuSans-7a" x="435.791016"/>
      <use xlink:href="#DejaVuSans-65" x="488.28125"/>
      <use xlink:href="#DejaVuSans-64" x="549.804688"/>
     </g>
    </g>
    <g id="line2d_157">
     <path d="M 718.715781 59.672344 
L 729.715781 59.672344 
L 740.715781 59.672344 
" style="fill: none; stroke: #800080; stroke-width: 1.5; stroke-linecap: round"/>
    </g>
    <g id="text_34">
     <!-- Intensive care -->
     <g style="fill: #262626" transform="translate(749.515781 63.522344)scale(0.11 -0.11)">
      <defs>
       <path id="DejaVuSans-49" d="M 628 4666 
L 1259 4666 
L 1259 0 
L 628 0 
L 628 4666 
z
" transform="scale(0.015625)"/>
       <path id="DejaVuSans-6e" d="M 3513 2113 
L 3513 0 
L 2938 0 
L 2938 2094 
Q 2938 2591 2744 2837 
Q 2550 3084 2163 3084 
Q 1697 3084 1428 2787 
Q 1159 2491 1159 1978 
L 1159 0 
L 581 0 
L 581 3500 
L 1159 3500 
L 1159 2956 
Q 1366 3272 1645 3428 
Q 1925 3584 2291 3584 
Q 2894 3584 3203 3211 
Q 3513 2838 3513 2113 
z
" transform="scale(0.015625)"/>
       <path id="DejaVuSans-76" d="M 191 3500 
L 800 3500 
L 1894 563 
L 2988 3500 
L 3597 3500 
L 2284 0 
L 1503 0 
L 191 3500 
z
" transform="scale(0.015625)"/>
       <path id="DejaVuSans-63" d="M 3122 3366 
L 3122 2828 
Q 2878 2963 2633 3030 
Q 2388 3097 2138 3097 
Q 1578 3097 1268 2742 
Q 959 2388 959 1747 
Q 959 1106 1268 751 
Q 1578 397 2138 397 
Q 2388 397 2633 464 
Q 2878 531 3122 666 
L 3122 134 
Q 2881 22 2623 -34 
Q 2366 -91 2075 -91 
Q 1284 -91 818 406 
Q 353 903 353 1747 
Q 353 2603 823 3093 
Q 1294 3584 2113 3584 
Q 2378 3584 2631 3529 
Q 2884 3475 3122 3366 
z
" transform="scale(0.015625)"/>
       <path id="DejaVuSans-72" d="M 2631 2963 
Q 2534 3019 2420 3045 
Q 2306 3072 2169 3072 
Q 1681 3072 1420 2755 
Q 1159 2438 1159 1844 
L 1159 0 
L 581 0 
L 581 3500 
L 1159 3500 
L 1159 2956 
Q 1341 3275 1631 3429 
Q 1922 3584 2338 3584 
Q 2397 3584 2469 3576 
Q 2541 3569 2628 3553 
L 2631 2963 
z
" transform="scale(0.015625)"/>
      </defs>
      <use xlink:href="#DejaVuSans-49"/>
      <use xlink:href="#DejaVuSans-6e" x="29.492188"/>
      <use xlink:href="#DejaVuSans-74" x="92.871094"/>
      <use xlink:href="#DejaVuSans-65" x="132.080078"/>
      <use xlink:href="#DejaVuSans-6e" x="193.603516"/>
      <use xlink:href="#DejaVuSans-73" x="256.982422"/>
      <use xlink:href="#DejaVuSans-69" x="309.082031"/>
      <use xlink:href="#DejaVuSans-76" x="336.865234"/>
      <use xlink:href="#DejaVuSans-65" x="396.044922"/>
      <use xlink:href="#DejaVuSans-20" x="457.568359"/>
      <use xlink:href="#DejaVuSans-63" x="489.355469"/>
      <use xlink:href="#DejaVuSans-61" x="544.335938"/>
      <use xlink:href="#DejaVuSans-72" x="605.615234"/>
      <use xlink:href="#DejaVuSans-65" x="644.478516"/>
     </g>
    </g>
   </g>
  </g>
 </g>
 <defs>
  <clipPath id="p290a18fc45">
   <rect x="60.1075" y="29.118125" width="776.97" height="441.610078"/>
  </clipPath>
 </defs>
</svg>
