<?xml version="1.0" encoding="utf-8" standalone="no"?>
<!DOCTYPE svg PUBLIC "-//W3C//DTD SVG 1.1//EN"
  "http://www.w3.org/Graphics/SVG/1.1/DTD/svg11.dtd">
<svg xmlns:xlink="http://www.w3.org/1999/xlink" width="837.4pt" height="547.904678pt" viewBox="0 0 837.4 547.904678" xmlns="http://www.w3.org/2000/svg" version="1.1">
 <metadata>
  <rdf:RDF xmlns:dc="http://purl.org/dc/elements/1.1/" xmlns:cc="http://creativecommons.org/ns#" xmlns:rdf="http://www.w3.org/1999/02/22-rdf-syntax-ns#">
   <cc:Work>
    <dc:type rdf:resource="http://purl.org/dc/dcmitype/StillImage"/>
    <dc:date>2021-11-27T01:07:01.524621</dc:date>
    <dc:format>image/svg+xml</dc:format>
    <dc:creator>
     <cc:Agent>
      <dc:title>Matplotlib v3.5.0, https://matplotlib.org/</dc:title>
     </cc:Agent>
    </dc:creator>
   </cc:Work>
  </rdf:RDF>
 </metadata>
 <defs>
  <style type="text/css">*{stroke-linejoin: round; stroke-linecap: butt}</style>
 </defs>
 <g id="figure_1">
  <g id="patch_1">
   <path d="M 0 547.904678 
L 837.4 547.904678 
L 837.4 0 
L 0 0 
L 0 547.904678 
z
" style="fill: none"/>
  </g>
  <g id="axes_1">
   <g id="patch_2">
    <path d="M 67.10625 470.728203 
L 772.90625 470.728203 
L 772.90625 29.118125 
L 67.10625 29.118125 
L 67.10625 470.728203 
z
" style="fill: none"/>
   </g>
   <g id="matplotlib.axis_1">
    <g id="xtick_1">
     <g id="line2d_1">
      <path d="M 99.188068 470.728203 
L 99.188068 29.118125 
" clip-path="url(#pf6fad9c6d5)" style="fill: none; stroke: #cccccc; stroke-linecap: round"/>
     </g>
     <g id="line2d_2">
      <defs>
       <path id="m945cbc9add" d="M 0 0 
L 0 6 
" style="stroke: #262626; stroke-width: 1.25"/>
      </defs>
      <g>
       <use xlink:href="#m945cbc9add" x="99.188068" y="470.728203" style="fill: #262626; stroke: #262626; stroke-width: 1.25"/>
      </g>
     </g>
     <g id="text_1">
      <!-- 07.03.2020 -->
      <g style="fill: #262626" transform="translate(53.03554 530.673311)rotate(-45)scale(0.11 -0.11)">
       <defs>
        <path id="DejaVuSans-30" d="M 2034 4250 
Q 1547 4250 1301 3770 
Q 1056 3291 1056 2328 
Q 1056 1369 1301 889 
Q 1547 409 2034 409 
Q 2525 409 2770 889 
Q 3016 1369 3016 2328 
Q 3016 3291 2770 3770 
Q 2525 4250 2034 4250 
z
M 2034 4750 
Q 2819 4750 3233 4129 
Q 3647 3509 3647 2328 
Q 3647 1150 3233 529 
Q 2819 -91 2034 -91 
Q 1250 -91 836 529 
Q 422 1150 422 2328 
Q 422 3509 836 4129 
Q 1250 4750 2034 4750 
z
" transform="scale(0.015625)"/>
        <path id="DejaVuSans-37" d="M 525 4666 
L 3525 4666 
L 3525 4397 
L 1831 0 
L 1172 0 
L 2766 4134 
L 525 4134 
L 525 4666 
z
" transform="scale(0.015625)"/>
        <path id="DejaVuSans-2e" d="M 684 794 
L 1344 794 
L 1344 0 
L 684 0 
L 684 794 
z
" transform="scale(0.015625)"/>
        <path id="DejaVuSans-33" d="M 2597 2516 
Q 3050 2419 3304 2112 
Q 3559 1806 3559 1356 
Q 3559 666 3084 287 
Q 2609 -91 1734 -91 
Q 1441 -91 1130 -33 
Q 819 25 488 141 
L 488 750 
Q 750 597 1062 519 
Q 1375 441 1716 441 
Q 2309 441 2620 675 
Q 2931 909 2931 1356 
Q 2931 1769 2642 2001 
Q 2353 2234 1838 2234 
L 1294 2234 
L 1294 2753 
L 1863 2753 
Q 2328 2753 2575 2939 
Q 2822 3125 2822 3475 
Q 2822 3834 2567 4026 
Q 2313 4219 1838 4219 
Q 1578 4219 1281 4162 
Q 984 4106 628 3988 
L 628 4550 
Q 988 4650 1302 4700 
Q 1616 4750 1894 4750 
Q 2613 4750 3031 4423 
Q 3450 4097 3450 3541 
Q 3450 3153 3228 2886 
Q 3006 2619 2597 2516 
z
" transform="scale(0.015625)"/>
        <path id="DejaVuSans-32" d="M 1228 531 
L 3431 531 
L 3431 0 
L 469 0 
L 469 531 
Q 828 903 1448 1529 
Q 2069 2156 2228 2338 
Q 2531 2678 2651 2914 
Q 2772 3150 2772 3378 
Q 2772 3750 2511 3984 
Q 2250 4219 1831 4219 
Q 1534 4219 1204 4116 
Q 875 4013 500 3803 
L 500 4441 
Q 881 4594 1212 4672 
Q 1544 4750 1819 4750 
Q 2544 4750 2975 4387 
Q 3406 4025 3406 3419 
Q 3406 3131 3298 2873 
Q 3191 2616 2906 2266 
Q 2828 2175 2409 1742 
Q 1991 1309 1228 531 
z
" transform="scale(0.015625)"/>
       </defs>
       <use xlink:href="#DejaVuSans-30"/>
       <use xlink:href="#DejaVuSans-37" x="63.623047"/>
       <use xlink:href="#DejaVuSans-2e" x="127.246094"/>
       <use xlink:href="#DejaVuSans-30" x="159.033203"/>
       <use xlink:href="#DejaVuSans-33" x="222.65625"/>
       <use xlink:href="#DejaVuSans-2e" x="286.279297"/>
       <use xlink:href="#DejaVuSans-32" x="318.066406"/>
       <use xlink:href="#DejaVuSans-30" x="381.689453"/>
       <use xlink:href="#DejaVuSans-32" x="445.3125"/>
       <use xlink:href="#DejaVuSans-30" x="508.935547"/>
      </g>
     </g>
    </g>
    <g id="xtick_2">
     <g id="line2d_3">
      <path d="M 127.750577 470.728203 
L 127.750577 29.118125 
" clip-path="url(#pf6fad9c6d5)" style="fill: none; stroke: #cccccc; stroke-linecap: round"/>
     </g>
     <g id="line2d_4">
      <g>
       <use xlink:href="#m945cbc9add" x="127.750577" y="470.728203" style="fill: #262626; stroke: #262626; stroke-width: 1.25"/>
      </g>
     </g>
     <g id="text_2">
      <!-- 04.04.2020 -->
      <g style="fill: #262626" transform="translate(81.598049 530.673311)rotate(-45)scale(0.11 -0.11)">
       <defs>
        <path id="DejaVuSans-34" d="M 2419 4116 
L 825 1625 
L 2419 1625 
L 2419 4116 
z
M 2253 4666 
L 3047 4666 
L 3047 1625 
L 3713 1625 
L 3713 1100 
L 3047 1100 
L 3047 0 
L 2419 0 
L 2419 1100 
L 313 1100 
L 313 1709 
L 2253 4666 
z
" transform="scale(0.015625)"/>
       </defs>
       <use xlink:href="#DejaVuSans-30"/>
       <use xlink:href="#DejaVuSans-34" x="63.623047"/>
       <use xlink:href="#DejaVuSans-2e" x="127.246094"/>
       <use xlink:href="#DejaVuSans-30" x="159.033203"/>
       <use xlink:href="#DejaVuSans-34" x="222.65625"/>
       <use xlink:href="#DejaVuSans-2e" x="286.279297"/>
       <use xlink:href="#DejaVuSans-32" x="318.066406"/>
       <use xlink:href="#DejaVuSans-30" x="381.689453"/>
       <use xlink:href="#DejaVuSans-32" x="445.3125"/>
       <use xlink:href="#DejaVuSans-30" x="508.935547"/>
      </g>
     </g>
    </g>
    <g id="xtick_3">
     <g id="line2d_5">
      <path d="M 156.313086 470.728203 
L 156.313086 29.118125 
" clip-path="url(#pf6fad9c6d5)" style="fill: none; stroke: #cccccc; stroke-linecap: round"/>
     </g>
     <g id="line2d_6">
      <g>
       <use xlink:href="#m945cbc9add" x="156.313086" y="470.728203" style="fill: #262626; stroke: #262626; stroke-width: 1.25"/>
      </g>
     </g>
     <g id="text_3">
      <!-- 02.05.2020 -->
      <g style="fill: #262626" transform="translate(110.160558 530.673311)rotate(-45)scale(0.11 -0.11)">
       <defs>
        <path id="DejaVuSans-35" d="M 691 4666 
L 3169 4666 
L 3169 4134 
L 1269 4134 
L 1269 2991 
Q 1406 3038 1543 3061 
Q 1681 3084 1819 3084 
Q 2600 3084 3056 2656 
Q 3513 2228 3513 1497 
Q 3513 744 3044 326 
Q 2575 -91 1722 -91 
Q 1428 -91 1123 -41 
Q 819 9 494 109 
L 494 744 
Q 775 591 1075 516 
Q 1375 441 1709 441 
Q 2250 441 2565 725 
Q 2881 1009 2881 1497 
Q 2881 1984 2565 2268 
Q 2250 2553 1709 2553 
Q 1456 2553 1204 2497 
Q 953 2441 691 2322 
L 691 4666 
z
" transform="scale(0.015625)"/>
       </defs>
       <use xlink:href="#DejaVuSans-30"/>
       <use xlink:href="#DejaVuSans-32" x="63.623047"/>
       <use xlink:href="#DejaVuSans-2e" x="127.246094"/>
       <use xlink:href="#DejaVuSans-30" x="159.033203"/>
       <use xlink:href="#DejaVuSans-35" x="222.65625"/>
       <use xlink:href="#DejaVuSans-2e" x="286.279297"/>
       <use xlink:href="#DejaVuSans-32" x="318.066406"/>
       <use xlink:href="#DejaVuSans-30" x="381.689453"/>
       <use xlink:href="#DejaVuSans-32" x="445.3125"/>
       <use xlink:href="#DejaVuSans-30" x="508.935547"/>
      </g>
     </g>
    </g>
    <g id="xtick_4">
     <g id="line2d_7">
      <path d="M 184.875595 470.728203 
L 184.875595 29.118125 
" clip-path="url(#pf6fad9c6d5)" style="fill: none; stroke: #cccccc; stroke-linecap: round"/>
     </g>
     <g id="line2d_8">
      <g>
       <use xlink:href="#m945cbc9add" x="184.875595" y="470.728203" style="fill: #262626; stroke: #262626; stroke-width: 1.25"/>
      </g>
     </g>
     <g id="text_4">
      <!-- 30.05.2020 -->
      <g style="fill: #262626" transform="translate(138.723067 530.673311)rotate(-45)scale(0.11 -0.11)">
       <use xlink:href="#DejaVuSans-33"/>
       <use xlink:href="#DejaVuSans-30" x="63.623047"/>
       <use xlink:href="#DejaVuSans-2e" x="127.246094"/>
       <use xlink:href="#DejaVuSans-30" x="159.033203"/>
       <use xlink:href="#DejaVuSans-35" x="222.65625"/>
       <use xlink:href="#DejaVuSans-2e" x="286.279297"/>
       <use xlink:href="#DejaVuSans-32" x="318.066406"/>
       <use xlink:href="#DejaVuSans-30" x="381.689453"/>
       <use xlink:href="#DejaVuSans-32" x="445.3125"/>
       <use xlink:href="#DejaVuSans-30" x="508.935547"/>
      </g>
     </g>
    </g>
    <g id="xtick_5">
     <g id="line2d_9">
      <path d="M 213.438104 470.728203 
L 213.438104 29.118125 
" clip-path="url(#pf6fad9c6d5)" style="fill: none; stroke: #cccccc; stroke-linecap: round"/>
     </g>
     <g id="line2d_10">
      <g>
       <use xlink:href="#m945cbc9add" x="213.438104" y="470.728203" style="fill: #262626; stroke: #262626; stroke-width: 1.25"/>
      </g>
     </g>
     <g id="text_5">
      <!-- 27.06.2020 -->
      <g style="fill: #262626" transform="translate(167.285576 530.673311)rotate(-45)scale(0.11 -0.11)">
       <defs>
        <path id="DejaVuSans-36" d="M 2113 2584 
Q 1688 2584 1439 2293 
Q 1191 2003 1191 1497 
Q 1191 994 1439 701 
Q 1688 409 2113 409 
Q 2538 409 2786 701 
Q 3034 994 3034 1497 
Q 3034 2003 2786 2293 
Q 2538 2584 2113 2584 
z
M 3366 4563 
L 3366 3988 
Q 3128 4100 2886 4159 
Q 2644 4219 2406 4219 
Q 1781 4219 1451 3797 
Q 1122 3375 1075 2522 
Q 1259 2794 1537 2939 
Q 1816 3084 2150 3084 
Q 2853 3084 3261 2657 
Q 3669 2231 3669 1497 
Q 3669 778 3244 343 
Q 2819 -91 2113 -91 
Q 1303 -91 875 529 
Q 447 1150 447 2328 
Q 447 3434 972 4092 
Q 1497 4750 2381 4750 
Q 2619 4750 2861 4703 
Q 3103 4656 3366 4563 
z
" transform="scale(0.015625)"/>
       </defs>
       <use xlink:href="#DejaVuSans-32"/>
       <use xlink:href="#DejaVuSans-37" x="63.623047"/>
       <use xlink:href="#DejaVuSans-2e" x="127.246094"/>
       <use xlink:href="#DejaVuSans-30" x="159.033203"/>
       <use xlink:href="#DejaVuSans-36" x="222.65625"/>
       <use xlink:href="#DejaVuSans-2e" x="286.279297"/>
       <use xlink:href="#DejaVuSans-32" x="318.066406"/>
       <use xlink:href="#DejaVuSans-30" x="381.689453"/>
       <use xlink:href="#DejaVuSans-32" x="445.3125"/>
       <use xlink:href="#DejaVuSans-30" x="508.935547"/>
      </g>
     </g>
    </g>
    <g id="xtick_6">
     <g id="line2d_11">
      <path d="M 242.000613 470.728203 
L 242.000613 29.118125 
" clip-path="url(#pf6fad9c6d5)" style="fill: none; stroke: #cccccc; stroke-linecap: round"/>
     </g>
     <g id="line2d_12">
      <g>
       <use xlink:href="#m945cbc9add" x="242.000613" y="470.728203" style="fill: #262626; stroke: #262626; stroke-width: 1.25"/>
      </g>
     </g>
     <g id="text_6">
      <!-- 25.07.2020 -->
      <g style="fill: #262626" transform="translate(195.848085 530.673311)rotate(-45)scale(0.11 -0.11)">
       <use xlink:href="#DejaVuSans-32"/>
       <use xlink:href="#DejaVuSans-35" x="63.623047"/>
       <use xlink:href="#DejaVuSans-2e" x="127.246094"/>
       <use xlink:href="#DejaVuSans-30" x="159.033203"/>
       <use xlink:href="#DejaVuSans-37" x="222.65625"/>
       <use xlink:href="#DejaVuSans-2e" x="286.279297"/>
       <use xlink:href="#DejaVuSans-32" x="318.066406"/>
       <use xlink:href="#DejaVuSans-30" x="381.689453"/>
       <use xlink:href="#DejaVuSans-32" x="445.3125"/>
       <use xlink:href="#DejaVuSans-30" x="508.935547"/>
      </g>
     </g>
    </g>
    <g id="xtick_7">
     <g id="line2d_13">
      <path d="M 270.563122 470.728203 
L 270.563122 29.118125 
" clip-path="url(#pf6fad9c6d5)" style="fill: none; stroke: #cccccc; stroke-linecap: round"/>
     </g>
     <g id="line2d_14">
      <g>
       <use xlink:href="#m945cbc9add" x="270.563122" y="470.728203" style="fill: #262626; stroke: #262626; stroke-width: 1.25"/>
      </g>
     </g>
     <g id="text_7">
      <!-- 22.08.2020 -->
      <g style="fill: #262626" transform="translate(224.410594 530.673311)rotate(-45)scale(0.11 -0.11)">
       <defs>
        <path id="DejaVuSans-38" d="M 2034 2216 
Q 1584 2216 1326 1975 
Q 1069 1734 1069 1313 
Q 1069 891 1326 650 
Q 1584 409 2034 409 
Q 2484 409 2743 651 
Q 3003 894 3003 1313 
Q 3003 1734 2745 1975 
Q 2488 2216 2034 2216 
z
M 1403 2484 
Q 997 2584 770 2862 
Q 544 3141 544 3541 
Q 544 4100 942 4425 
Q 1341 4750 2034 4750 
Q 2731 4750 3128 4425 
Q 3525 4100 3525 3541 
Q 3525 3141 3298 2862 
Q 3072 2584 2669 2484 
Q 3125 2378 3379 2068 
Q 3634 1759 3634 1313 
Q 3634 634 3220 271 
Q 2806 -91 2034 -91 
Q 1263 -91 848 271 
Q 434 634 434 1313 
Q 434 1759 690 2068 
Q 947 2378 1403 2484 
z
M 1172 3481 
Q 1172 3119 1398 2916 
Q 1625 2713 2034 2713 
Q 2441 2713 2670 2916 
Q 2900 3119 2900 3481 
Q 2900 3844 2670 4047 
Q 2441 4250 2034 4250 
Q 1625 4250 1398 4047 
Q 1172 3844 1172 3481 
z
" transform="scale(0.015625)"/>
       </defs>
       <use xlink:href="#DejaVuSans-32"/>
       <use xlink:href="#DejaVuSans-32" x="63.623047"/>
       <use xlink:href="#DejaVuSans-2e" x="127.246094"/>
       <use xlink:href="#DejaVuSans-30" x="159.033203"/>
       <use xlink:href="#DejaVuSans-38" x="222.65625"/>
       <use xlink:href="#DejaVuSans-2e" x="286.279297"/>
       <use xlink:href="#DejaVuSans-32" x="318.066406"/>
       <use xlink:href="#DejaVuSans-30" x="381.689453"/>
       <use xlink:href="#DejaVuSans-32" x="445.3125"/>
       <use xlink:href="#DejaVuSans-30" x="508.935547"/>
      </g>
     </g>
    </g>
    <g id="xtick_8">
     <g id="line2d_15">
      <path d="M 299.125631 470.728203 
L 299.125631 29.118125 
" clip-path="url(#pf6fad9c6d5)" style="fill: none; stroke: #cccccc; stroke-linecap: round"/>
     </g>
     <g id="line2d_16">
      <g>
       <use xlink:href="#m945cbc9add" x="299.125631" y="470.728203" style="fill: #262626; stroke: #262626; stroke-width: 1.25"/>
      </g>
     </g>
     <g id="text_8">
      <!-- 19.09.2020 -->
      <g style="fill: #262626" transform="translate(252.973103 530.673311)rotate(-45)scale(0.11 -0.11)">
       <defs>
        <path id="DejaVuSans-31" d="M 794 531 
L 1825 531 
L 1825 4091 
L 703 3866 
L 703 4441 
L 1819 4666 
L 2450 4666 
L 2450 531 
L 3481 531 
L 3481 0 
L 794 0 
L 794 531 
z
" transform="scale(0.015625)"/>
        <path id="DejaVuSans-39" d="M 703 97 
L 703 672 
Q 941 559 1184 500 
Q 1428 441 1663 441 
Q 2288 441 2617 861 
Q 2947 1281 2994 2138 
Q 2813 1869 2534 1725 
Q 2256 1581 1919 1581 
Q 1219 1581 811 2004 
Q 403 2428 403 3163 
Q 403 3881 828 4315 
Q 1253 4750 1959 4750 
Q 2769 4750 3195 4129 
Q 3622 3509 3622 2328 
Q 3622 1225 3098 567 
Q 2575 -91 1691 -91 
Q 1453 -91 1209 -44 
Q 966 3 703 97 
z
M 1959 2075 
Q 2384 2075 2632 2365 
Q 2881 2656 2881 3163 
Q 2881 3666 2632 3958 
Q 2384 4250 1959 4250 
Q 1534 4250 1286 3958 
Q 1038 3666 1038 3163 
Q 1038 2656 1286 2365 
Q 1534 2075 1959 2075 
z
" transform="scale(0.015625)"/>
       </defs>
       <use xlink:href="#DejaVuSans-31"/>
       <use xlink:href="#DejaVuSans-39" x="63.623047"/>
       <use xlink:href="#DejaVuSans-2e" x="127.246094"/>
       <use xlink:href="#DejaVuSans-30" x="159.033203"/>
       <use xlink:href="#DejaVuSans-39" x="222.65625"/>
       <use xlink:href="#DejaVuSans-2e" x="286.279297"/>
       <use xlink:href="#DejaVuSans-32" x="318.066406"/>
       <use xlink:href="#DejaVuSans-30" x="381.689453"/>
       <use xlink:href="#DejaVuSans-32" x="445.3125"/>
       <use xlink:href="#DejaVuSans-30" x="508.935547"/>
      </g>
     </g>
    </g>
    <g id="xtick_9">
     <g id="line2d_17">
      <path d="M 327.68814 470.728203 
L 327.68814 29.118125 
" clip-path="url(#pf6fad9c6d5)" style="fill: none; stroke: #cccccc; stroke-linecap: round"/>
     </g>
     <g id="line2d_18">
      <g>
       <use xlink:href="#m945cbc9add" x="327.68814" y="470.728203" style="fill: #262626; stroke: #262626; stroke-width: 1.25"/>
      </g>
     </g>
     <g id="text_9">
      <!-- 17.10.2020 -->
      <g style="fill: #262626" transform="translate(281.535612 530.673311)rotate(-45)scale(0.11 -0.11)">
       <use xlink:href="#DejaVuSans-31"/>
       <use xlink:href="#DejaVuSans-37" x="63.623047"/>
       <use xlink:href="#DejaVuSans-2e" x="127.246094"/>
       <use xlink:href="#DejaVuSans-31" x="159.033203"/>
       <use xlink:href="#DejaVuSans-30" x="222.65625"/>
       <use xlink:href="#DejaVuSans-2e" x="286.279297"/>
       <use xlink:href="#DejaVuSans-32" x="318.066406"/>
       <use xlink:href="#DejaVuSans-30" x="381.689453"/>
       <use xlink:href="#DejaVuSans-32" x="445.3125"/>
       <use xlink:href="#DejaVuSans-30" x="508.935547"/>
      </g>
     </g>
    </g>
    <g id="xtick_10">
     <g id="line2d_19">
      <path d="M 356.250649 470.728203 
L 356.250649 29.118125 
" clip-path="url(#pf6fad9c6d5)" style="fill: none; stroke: #cccccc; stroke-linecap: round"/>
     </g>
     <g id="line2d_20">
      <g>
       <use xlink:href="#m945cbc9add" x="356.250649" y="470.728203" style="fill: #262626; stroke: #262626; stroke-width: 1.25"/>
      </g>
     </g>
     <g id="text_10">
      <!-- 14.11.2020 -->
      <g style="fill: #262626" transform="translate(310.098121 530.673311)rotate(-45)scale(0.11 -0.11)">
       <use xlink:href="#DejaVuSans-31"/>
       <use xlink:href="#DejaVuSans-34" x="63.623047"/>
       <use xlink:href="#DejaVuSans-2e" x="127.246094"/>
       <use xlink:href="#DejaVuSans-31" x="159.033203"/>
       <use xlink:href="#DejaVuSans-31" x="222.65625"/>
       <use xlink:href="#DejaVuSans-2e" x="286.279297"/>
       <use xlink:href="#DejaVuSans-32" x="318.066406"/>
       <use xlink:href="#DejaVuSans-30" x="381.689453"/>
       <use xlink:href="#DejaVuSans-32" x="445.3125"/>
       <use xlink:href="#DejaVuSans-30" x="508.935547"/>
      </g>
     </g>
    </g>
    <g id="xtick_11">
     <g id="line2d_21">
      <path d="M 384.813159 470.728203 
L 384.813159 29.118125 
" clip-path="url(#pf6fad9c6d5)" style="fill: none; stroke: #cccccc; stroke-linecap: round"/>
     </g>
     <g id="line2d_22">
      <g>
       <use xlink:href="#m945cbc9add" x="384.813159" y="470.728203" style="fill: #262626; stroke: #262626; stroke-width: 1.25"/>
      </g>
     </g>
     <g id="text_11">
      <!-- 12.12.2020 -->
      <g style="fill: #262626" transform="translate(338.66063 530.673311)rotate(-45)scale(0.11 -0.11)">
       <use xlink:href="#DejaVuSans-31"/>
       <use xlink:href="#DejaVuSans-32" x="63.623047"/>
       <use xlink:href="#DejaVuSans-2e" x="127.246094"/>
       <use xlink:href="#DejaVuSans-31" x="159.033203"/>
       <use xlink:href="#DejaVuSans-32" x="222.65625"/>
       <use xlink:href="#DejaVuSans-2e" x="286.279297"/>
       <use xlink:href="#DejaVuSans-32" x="318.066406"/>
       <use xlink:href="#DejaVuSans-30" x="381.689453"/>
       <use xlink:href="#DejaVuSans-32" x="445.3125"/>
       <use xlink:href="#DejaVuSans-30" x="508.935547"/>
      </g>
     </g>
    </g>
    <g id="xtick_12">
     <g id="line2d_23">
      <path d="M 413.375668 470.728203 
L 413.375668 29.118125 
" clip-path="url(#pf6fad9c6d5)" style="fill: none; stroke: #cccccc; stroke-linecap: round"/>
     </g>
     <g id="line2d_24">
      <g>
       <use xlink:href="#m945cbc9add" x="413.375668" y="470.728203" style="fill: #262626; stroke: #262626; stroke-width: 1.25"/>
      </g>
     </g>
     <g id="text_12">
      <!-- 09.01.2021 -->
      <g style="fill: #262626" transform="translate(367.223139 530.673311)rotate(-45)scale(0.11 -0.11)">
       <use xlink:href="#DejaVuSans-30"/>
       <use xlink:href="#DejaVuSans-39" x="63.623047"/>
       <use xlink:href="#DejaVuSans-2e" x="127.246094"/>
       <use xlink:href="#DejaVuSans-30" x="159.033203"/>
       <use xlink:href="#DejaVuSans-31" x="222.65625"/>
       <use xlink:href="#DejaVuSans-2e" x="286.279297"/>
       <use xlink:href="#DejaVuSans-32" x="318.066406"/>
       <use xlink:href="#DejaVuSans-30" x="381.689453"/>
       <use xlink:href="#DejaVuSans-32" x="445.3125"/>
       <use xlink:href="#DejaVuSans-31" x="508.935547"/>
      </g>
     </g>
    </g>
    <g id="xtick_13">
     <g id="line2d_25">
      <path d="M 441.938177 470.728203 
L 441.938177 29.118125 
" clip-path="url(#pf6fad9c6d5)" style="fill: none; stroke: #cccccc; stroke-linecap: round"/>
     </g>
     <g id="line2d_26">
      <g>
       <use xlink:href="#m945cbc9add" x="441.938177" y="470.728203" style="fill: #262626; stroke: #262626; stroke-width: 1.25"/>
      </g>
     </g>
     <g id="text_13">
      <!-- 06.02.2021 -->
      <g style="fill: #262626" transform="translate(395.785648 530.673311)rotate(-45)scale(0.11 -0.11)">
       <use xlink:href="#DejaVuSans-30"/>
       <use xlink:href="#DejaVuSans-36" x="63.623047"/>
       <use xlink:href="#DejaVuSans-2e" x="127.246094"/>
       <use xlink:href="#DejaVuSans-30" x="159.033203"/>
       <use xlink:href="#DejaVuSans-32" x="222.65625"/>
       <use xlink:href="#DejaVuSans-2e" x="286.279297"/>
       <use xlink:href="#DejaVuSans-32" x="318.066406"/>
       <use xlink:href="#DejaVuSans-30" x="381.689453"/>
       <use xlink:href="#DejaVuSans-32" x="445.3125"/>
       <use xlink:href="#DejaVuSans-31" x="508.935547"/>
      </g>
     </g>
    </g>
    <g id="xtick_14">
     <g id="line2d_27">
      <path d="M 470.500686 470.728203 
L 470.500686 29.118125 
" clip-path="url(#pf6fad9c6d5)" style="fill: none; stroke: #cccccc; stroke-linecap: round"/>
     </g>
     <g id="line2d_28">
      <g>
       <use xlink:href="#m945cbc9add" x="470.500686" y="470.728203" style="fill: #262626; stroke: #262626; stroke-width: 1.25"/>
      </g>
     </g>
     <g id="text_14">
      <!-- 06.03.2021 -->
      <g style="fill: #262626" transform="translate(424.348157 530.673311)rotate(-45)scale(0.11 -0.11)">
       <use xlink:href="#DejaVuSans-30"/>
       <use xlink:href="#DejaVuSans-36" x="63.623047"/>
       <use xlink:href="#DejaVuSans-2e" x="127.246094"/>
       <use xlink:href="#DejaVuSans-30" x="159.033203"/>
       <use xlink:href="#DejaVuSans-33" x="222.65625"/>
       <use xlink:href="#DejaVuSans-2e" x="286.279297"/>
       <use xlink:href="#DejaVuSans-32" x="318.066406"/>
       <use xlink:href="#DejaVuSans-30" x="381.689453"/>
       <use xlink:href="#DejaVuSans-32" x="445.3125"/>
       <use xlink:href="#DejaVuSans-31" x="508.935547"/>
      </g>
     </g>
    </g>
    <g id="xtick_15">
     <g id="line2d_29">
      <path d="M 499.063195 470.728203 
L 499.063195 29.118125 
" clip-path="url(#pf6fad9c6d5)" style="fill: none; stroke: #cccccc; stroke-linecap: round"/>
     </g>
     <g id="line2d_30">
      <g>
       <use xlink:href="#m945cbc9add" x="499.063195" y="470.728203" style="fill: #262626; stroke: #262626; stroke-width: 1.25"/>
      </g>
     </g>
     <g id="text_15">
      <!-- 03.04.2021 -->
      <g style="fill: #262626" transform="translate(452.910666 530.673311)rotate(-45)scale(0.11 -0.11)">
       <use xlink:href="#DejaVuSans-30"/>
       <use xlink:href="#DejaVuSans-33" x="63.623047"/>
       <use xlink:href="#DejaVuSans-2e" x="127.246094"/>
       <use xlink:href="#DejaVuSans-30" x="159.033203"/>
       <use xlink:href="#DejaVuSans-34" x="222.65625"/>
       <use xlink:href="#DejaVuSans-2e" x="286.279297"/>
       <use xlink:href="#DejaVuSans-32" x="318.066406"/>
       <use xlink:href="#DejaVuSans-30" x="381.689453"/>
       <use xlink:href="#DejaVuSans-32" x="445.3125"/>
       <use xlink:href="#DejaVuSans-31" x="508.935547"/>
      </g>
     </g>
    </g>
    <g id="xtick_16">
     <g id="line2d_31">
      <path d="M 527.625704 470.728203 
L 527.625704 29.118125 
" clip-path="url(#pf6fad9c6d5)" style="fill: none; stroke: #cccccc; stroke-linecap: round"/>
     </g>
     <g id="line2d_32">
      <g>
       <use xlink:href="#m945cbc9add" x="527.625704" y="470.728203" style="fill: #262626; stroke: #262626; stroke-width: 1.25"/>
      </g>
     </g>
     <g id="text_16">
      <!-- 01.05.2021 -->
      <g style="fill: #262626" transform="translate(481.473176 530.673311)rotate(-45)scale(0.11 -0.11)">
       <use xlink:href="#DejaVuSans-30"/>
       <use xlink:href="#DejaVuSans-31" x="63.623047"/>
       <use xlink:href="#DejaVuSans-2e" x="127.246094"/>
       <use xlink:href="#DejaVuSans-30" x="159.033203"/>
       <use xlink:href="#DejaVuSans-35" x="222.65625"/>
       <use xlink:href="#DejaVuSans-2e" x="286.279297"/>
       <use xlink:href="#DejaVuSans-32" x="318.066406"/>
       <use xlink:href="#DejaVuSans-30" x="381.689453"/>
       <use xlink:href="#DejaVuSans-32" x="445.3125"/>
       <use xlink:href="#DejaVuSans-31" x="508.935547"/>
      </g>
     </g>
    </g>
    <g id="xtick_17">
     <g id="line2d_33">
      <path d="M 556.188213 470.728203 
L 556.188213 29.118125 
" clip-path="url(#pf6fad9c6d5)" style="fill: none; stroke: #cccccc; stroke-linecap: round"/>
     </g>
     <g id="line2d_34">
      <g>
       <use xlink:href="#m945cbc9add" x="556.188213" y="470.728203" style="fill: #262626; stroke: #262626; stroke-width: 1.25"/>
      </g>
     </g>
     <g id="text_17">
      <!-- 29.05.2021 -->
      <g style="fill: #262626" transform="translate(510.035685 530.673311)rotate(-45)scale(0.11 -0.11)">
       <use xlink:href="#DejaVuSans-32"/>
       <use xlink:href="#DejaVuSans-39" x="63.623047"/>
       <use xlink:href="#DejaVuSans-2e" x="127.246094"/>
       <use xlink:href="#DejaVuSans-30" x="159.033203"/>
       <use xlink:href="#DejaVuSans-35" x="222.65625"/>
       <use xlink:href="#DejaVuSans-2e" x="286.279297"/>
       <use xlink:href="#DejaVuSans-32" x="318.066406"/>
       <use xlink:href="#DejaVuSans-30" x="381.689453"/>
       <use xlink:href="#DejaVuSans-32" x="445.3125"/>
       <use xlink:href="#DejaVuSans-31" x="508.935547"/>
      </g>
     </g>
    </g>
    <g id="xtick_18">
     <g id="line2d_35">
      <path d="M 584.750722 470.728203 
L 584.750722 29.118125 
" clip-path="url(#pf6fad9c6d5)" style="fill: none; stroke: #cccccc; stroke-linecap: round"/>
     </g>
     <g id="line2d_36">
      <g>
       <use xlink:href="#m945cbc9add" x="584.750722" y="470.728203" style="fill: #262626; stroke: #262626; stroke-width: 1.25"/>
      </g>
     </g>
     <g id="text_18">
      <!-- 26.06.2021 -->
      <g style="fill: #262626" transform="translate(538.598194 530.673311)rotate(-45)scale(0.11 -0.11)">
       <use xlink:href="#DejaVuSans-32"/>
       <use xlink:href="#DejaVuSans-36" x="63.623047"/>
       <use xlink:href="#DejaVuSans-2e" x="127.246094"/>
       <use xlink:href="#DejaVuSans-30" x="159.033203"/>
       <use xlink:href="#DejaVuSans-36" x="222.65625"/>
       <use xlink:href="#DejaVuSans-2e" x="286.279297"/>
       <use xlink:href="#DejaVuSans-32" x="318.066406"/>
       <use xlink:href="#DejaVuSans-30" x="381.689453"/>
       <use xlink:href="#DejaVuSans-32" x="445.3125"/>
       <use xlink:href="#DejaVuSans-31" x="508.935547"/>
      </g>
     </g>
    </g>
    <g id="xtick_19">
     <g id="line2d_37">
      <path d="M 613.313231 470.728203 
L 613.313231 29.118125 
" clip-path="url(#pf6fad9c6d5)" style="fill: none; stroke: #cccccc; stroke-linecap: round"/>
     </g>
     <g id="line2d_38">
      <g>
       <use xlink:href="#m945cbc9add" x="613.313231" y="470.728203" style="fill: #262626; stroke: #262626; stroke-width: 1.25"/>
      </g>
     </g>
     <g id="text_19">
      <!-- 24.07.2021 -->
      <g style="fill: #262626" transform="translate(567.160703 530.673311)rotate(-45)scale(0.11 -0.11)">
       <use xlink:href="#DejaVuSans-32"/>
       <use xlink:href="#DejaVuSans-34" x="63.623047"/>
       <use xlink:href="#DejaVuSans-2e" x="127.246094"/>
       <use xlink:href="#DejaVuSans-30" x="159.033203"/>
       <use xlink:href="#DejaVuSans-37" x="222.65625"/>
       <use xlink:href="#DejaVuSans-2e" x="286.279297"/>
       <use xlink:href="#DejaVuSans-32" x="318.066406"/>
       <use xlink:href="#DejaVuSans-30" x="381.689453"/>
       <use xlink:href="#DejaVuSans-32" x="445.3125"/>
       <use xlink:href="#DejaVuSans-31" x="508.935547"/>
      </g>
     </g>
    </g>
    <g id="xtick_20">
     <g id="line2d_39">
      <path d="M 641.87574 470.728203 
L 641.87574 29.118125 
" clip-path="url(#pf6fad9c6d5)" style="fill: none; stroke: #cccccc; stroke-linecap: round"/>
     </g>
     <g id="line2d_40">
      <g>
       <use xlink:href="#m945cbc9add" x="641.87574" y="470.728203" style="fill: #262626; stroke: #262626; stroke-width: 1.25"/>
      </g>
     </g>
     <g id="text_20">
      <!-- 21.08.2021 -->
      <g style="fill: #262626" transform="translate(595.723212 530.673311)rotate(-45)scale(0.11 -0.11)">
       <use xlink:href="#DejaVuSans-32"/>
       <use xlink:href="#DejaVuSans-31" x="63.623047"/>
       <use xlink:href="#DejaVuSans-2e" x="127.246094"/>
       <use xlink:href="#DejaVuSans-30" x="159.033203"/>
       <use xlink:href="#DejaVuSans-38" x="222.65625"/>
       <use xlink:href="#DejaVuSans-2e" x="286.279297"/>
       <use xlink:href="#DejaVuSans-32" x="318.066406"/>
       <use xlink:href="#DejaVuSans-30" x="381.689453"/>
       <use xlink:href="#DejaVuSans-32" x="445.3125"/>
       <use xlink:href="#DejaVuSans-31" x="508.935547"/>
      </g>
     </g>
    </g>
    <g id="xtick_21">
     <g id="line2d_41">
      <path d="M 670.438249 470.728203 
L 670.438249 29.118125 
" clip-path="url(#pf6fad9c6d5)" style="fill: none; stroke: #cccccc; stroke-linecap: round"/>
     </g>
     <g id="line2d_42">
      <g>
       <use xlink:href="#m945cbc9add" x="670.438249" y="470.728203" style="fill: #262626; stroke: #262626; stroke-width: 1.25"/>
      </g>
     </g>
     <g id="text_21">
      <!-- 18.09.2021 -->
      <g style="fill: #262626" transform="translate(624.285721 530.673311)rotate(-45)scale(0.11 -0.11)">
       <use xlink:href="#DejaVuSans-31"/>
       <use xlink:href="#DejaVuSans-38" x="63.623047"/>
       <use xlink:href="#DejaVuSans-2e" x="127.246094"/>
       <use xlink:href="#DejaVuSans-30" x="159.033203"/>
       <use xlink:href="#DejaVuSans-39" x="222.65625"/>
       <use xlink:href="#DejaVuSans-2e" x="286.279297"/>
       <use xlink:href="#DejaVuSans-32" x="318.066406"/>
       <use xlink:href="#DejaVuSans-30" x="381.689453"/>
       <use xlink:href="#DejaVuSans-32" x="445.3125"/>
       <use xlink:href="#DejaVuSans-31" x="508.935547"/>
      </g>
     </g>
    </g>
    <g id="xtick_22">
     <g id="line2d_43">
      <path d="M 699.000758 470.728203 
L 699.000758 29.118125 
" clip-path="url(#pf6fad9c6d5)" style="fill: none; stroke: #cccccc; stroke-linecap: round"/>
     </g>
     <g id="line2d_44">
      <g>
       <use xlink:href="#m945cbc9add" x="699.000758" y="470.728203" style="fill: #262626; stroke: #262626; stroke-width: 1.25"/>
      </g>
     </g>
     <g id="text_22">
      <!-- 16.10.2021 -->
      <g style="fill: #262626" transform="translate(652.84823 530.673311)rotate(-45)scale(0.11 -0.11)">
       <use xlink:href="#DejaVuSans-31"/>
       <use xlink:href="#DejaVuSans-36" x="63.623047"/>
       <use xlink:href="#DejaVuSans-2e" x="127.246094"/>
       <use xlink:href="#DejaVuSans-31" x="159.033203"/>
       <use xlink:href="#DejaVuSans-30" x="222.65625"/>
       <use xlink:href="#DejaVuSans-2e" x="286.279297"/>
       <use xlink:href="#DejaVuSans-32" x="318.066406"/>
       <use xlink:href="#DejaVuSans-30" x="381.689453"/>
       <use xlink:href="#DejaVuSans-32" x="445.3125"/>
       <use xlink:href="#DejaVuSans-31" x="508.935547"/>
      </g>
     </g>
    </g>
    <g id="xtick_23">
     <g id="line2d_45">
      <path d="M 727.563267 470.728203 
L 727.563267 29.118125 
" clip-path="url(#pf6fad9c6d5)" style="fill: none; stroke: #cccccc; stroke-linecap: round"/>
     </g>
     <g id="line2d_46">
      <g>
       <use xlink:href="#m945cbc9add" x="727.563267" y="470.728203" style="fill: #262626; stroke: #262626; stroke-width: 1.25"/>
      </g>
     </g>
     <g id="text_23">
      <!-- 13.11.2021 -->
      <g style="fill: #262626" transform="translate(681.410739 530.673311)rotate(-45)scale(0.11 -0.11)">
       <use xlink:href="#DejaVuSans-31"/>
       <use xlink:href="#DejaVuSans-33" x="63.623047"/>
       <use xlink:href="#DejaVuSans-2e" x="127.246094"/>
       <use xlink:href="#DejaVuSans-31" x="159.033203"/>
       <use xlink:href="#DejaVuSans-31" x="222.65625"/>
       <use xlink:href="#DejaVuSans-2e" x="286.279297"/>
       <use xlink:href="#DejaVuSans-32" x="318.066406"/>
       <use xlink:href="#DejaVuSans-30" x="381.689453"/>
       <use xlink:href="#DejaVuSans-32" x="445.3125"/>
       <use xlink:href="#DejaVuSans-31" x="508.935547"/>
      </g>
     </g>
    </g>
    <g id="xtick_24">
     <g id="line2d_47">
      <defs>
       <path id="mb9cf763c09" d="M 0 0 
L 0 4 
" style="stroke: #262626"/>
      </defs>
      <g>
       <use xlink:href="#mb9cf763c09" x="70.625559" y="470.728203" style="fill: #262626; stroke: #262626"/>
      </g>
     </g>
    </g>
    <g id="xtick_25">
     <g id="line2d_48">
      <g>
       <use xlink:href="#mb9cf763c09" x="77.766186" y="470.728203" style="fill: #262626; stroke: #262626"/>
      </g>
     </g>
    </g>
    <g id="xtick_26">
     <g id="line2d_49">
      <g>
       <use xlink:href="#mb9cf763c09" x="84.906814" y="470.728203" style="fill: #262626; stroke: #262626"/>
      </g>
     </g>
    </g>
    <g id="xtick_27">
     <g id="line2d_50">
      <g>
       <use xlink:href="#mb9cf763c09" x="92.047441" y="470.728203" style="fill: #262626; stroke: #262626"/>
      </g>
     </g>
    </g>
    <g id="xtick_28">
     <g id="line2d_51">
      <g>
       <use xlink:href="#mb9cf763c09" x="106.328695" y="470.728203" style="fill: #262626; stroke: #262626"/>
      </g>
     </g>
    </g>
    <g id="xtick_29">
     <g id="line2d_52">
      <g>
       <use xlink:href="#mb9cf763c09" x="113.469323" y="470.728203" style="fill: #262626; stroke: #262626"/>
      </g>
     </g>
    </g>
    <g id="xtick_30">
     <g id="line2d_53">
      <g>
       <use xlink:href="#mb9cf763c09" x="120.60995" y="470.728203" style="fill: #262626; stroke: #262626"/>
      </g>
     </g>
    </g>
    <g id="xtick_31">
     <g id="line2d_54">
      <g>
       <use xlink:href="#mb9cf763c09" x="134.891204" y="470.728203" style="fill: #262626; stroke: #262626"/>
      </g>
     </g>
    </g>
    <g id="xtick_32">
     <g id="line2d_55">
      <g>
       <use xlink:href="#mb9cf763c09" x="142.031832" y="470.728203" style="fill: #262626; stroke: #262626"/>
      </g>
     </g>
    </g>
    <g id="xtick_33">
     <g id="line2d_56">
      <g>
       <use xlink:href="#mb9cf763c09" x="149.172459" y="470.728203" style="fill: #262626; stroke: #262626"/>
      </g>
     </g>
    </g>
    <g id="xtick_34">
     <g id="line2d_57">
      <g>
       <use xlink:href="#mb9cf763c09" x="163.453714" y="470.728203" style="fill: #262626; stroke: #262626"/>
      </g>
     </g>
    </g>
    <g id="xtick_35">
     <g id="line2d_58">
      <g>
       <use xlink:href="#mb9cf763c09" x="170.594341" y="470.728203" style="fill: #262626; stroke: #262626"/>
      </g>
     </g>
    </g>
    <g id="xtick_36">
     <g id="line2d_59">
      <g>
       <use xlink:href="#mb9cf763c09" x="177.734968" y="470.728203" style="fill: #262626; stroke: #262626"/>
      </g>
     </g>
    </g>
    <g id="xtick_37">
     <g id="line2d_60">
      <g>
       <use xlink:href="#mb9cf763c09" x="192.016223" y="470.728203" style="fill: #262626; stroke: #262626"/>
      </g>
     </g>
    </g>
    <g id="xtick_38">
     <g id="line2d_61">
      <g>
       <use xlink:href="#mb9cf763c09" x="199.15685" y="470.728203" style="fill: #262626; stroke: #262626"/>
      </g>
     </g>
    </g>
    <g id="xtick_39">
     <g id="line2d_62">
      <g>
       <use xlink:href="#mb9cf763c09" x="206.297477" y="470.728203" style="fill: #262626; stroke: #262626"/>
      </g>
     </g>
    </g>
    <g id="xtick_40">
     <g id="line2d_63">
      <g>
       <use xlink:href="#mb9cf763c09" x="220.578732" y="470.728203" style="fill: #262626; stroke: #262626"/>
      </g>
     </g>
    </g>
    <g id="xtick_41">
     <g id="line2d_64">
      <g>
       <use xlink:href="#mb9cf763c09" x="227.719359" y="470.728203" style="fill: #262626; stroke: #262626"/>
      </g>
     </g>
    </g>
    <g id="xtick_42">
     <g id="line2d_65">
      <g>
       <use xlink:href="#mb9cf763c09" x="234.859986" y="470.728203" style="fill: #262626; stroke: #262626"/>
      </g>
     </g>
    </g>
    <g id="xtick_43">
     <g id="line2d_66">
      <g>
       <use xlink:href="#mb9cf763c09" x="249.141241" y="470.728203" style="fill: #262626; stroke: #262626"/>
      </g>
     </g>
    </g>
    <g id="xtick_44">
     <g id="line2d_67">
      <g>
       <use xlink:href="#mb9cf763c09" x="256.281868" y="470.728203" style="fill: #262626; stroke: #262626"/>
      </g>
     </g>
    </g>
    <g id="xtick_45">
     <g id="line2d_68">
      <g>
       <use xlink:href="#mb9cf763c09" x="263.422495" y="470.728203" style="fill: #262626; stroke: #262626"/>
      </g>
     </g>
    </g>
    <g id="xtick_46">
     <g id="line2d_69">
      <g>
       <use xlink:href="#mb9cf763c09" x="277.70375" y="470.728203" style="fill: #262626; stroke: #262626"/>
      </g>
     </g>
    </g>
    <g id="xtick_47">
     <g id="line2d_70">
      <g>
       <use xlink:href="#mb9cf763c09" x="284.844377" y="470.728203" style="fill: #262626; stroke: #262626"/>
      </g>
     </g>
    </g>
    <g id="xtick_48">
     <g id="line2d_71">
      <g>
       <use xlink:href="#mb9cf763c09" x="291.985004" y="470.728203" style="fill: #262626; stroke: #262626"/>
      </g>
     </g>
    </g>
    <g id="xtick_49">
     <g id="line2d_72">
      <g>
       <use xlink:href="#mb9cf763c09" x="306.266259" y="470.728203" style="fill: #262626; stroke: #262626"/>
      </g>
     </g>
    </g>
    <g id="xtick_50">
     <g id="line2d_73">
      <g>
       <use xlink:href="#mb9cf763c09" x="313.406886" y="470.728203" style="fill: #262626; stroke: #262626"/>
      </g>
     </g>
    </g>
    <g id="xtick_51">
     <g id="line2d_74">
      <g>
       <use xlink:href="#mb9cf763c09" x="320.547513" y="470.728203" style="fill: #262626; stroke: #262626"/>
      </g>
     </g>
    </g>
    <g id="xtick_52">
     <g id="line2d_75">
      <g>
       <use xlink:href="#mb9cf763c09" x="334.828768" y="470.728203" style="fill: #262626; stroke: #262626"/>
      </g>
     </g>
    </g>
    <g id="xtick_53">
     <g id="line2d_76">
      <g>
       <use xlink:href="#mb9cf763c09" x="341.969395" y="470.728203" style="fill: #262626; stroke: #262626"/>
      </g>
     </g>
    </g>
    <g id="xtick_54">
     <g id="line2d_77">
      <g>
       <use xlink:href="#mb9cf763c09" x="349.110022" y="470.728203" style="fill: #262626; stroke: #262626"/>
      </g>
     </g>
    </g>
    <g id="xtick_55">
     <g id="line2d_78">
      <g>
       <use xlink:href="#mb9cf763c09" x="363.391277" y="470.728203" style="fill: #262626; stroke: #262626"/>
      </g>
     </g>
    </g>
    <g id="xtick_56">
     <g id="line2d_79">
      <g>
       <use xlink:href="#mb9cf763c09" x="370.531904" y="470.728203" style="fill: #262626; stroke: #262626"/>
      </g>
     </g>
    </g>
    <g id="xtick_57">
     <g id="line2d_80">
      <g>
       <use xlink:href="#mb9cf763c09" x="377.672531" y="470.728203" style="fill: #262626; stroke: #262626"/>
      </g>
     </g>
    </g>
    <g id="xtick_58">
     <g id="line2d_81">
      <g>
       <use xlink:href="#mb9cf763c09" x="391.953786" y="470.728203" style="fill: #262626; stroke: #262626"/>
      </g>
     </g>
    </g>
    <g id="xtick_59">
     <g id="line2d_82">
      <g>
       <use xlink:href="#mb9cf763c09" x="399.094413" y="470.728203" style="fill: #262626; stroke: #262626"/>
      </g>
     </g>
    </g>
    <g id="xtick_60">
     <g id="line2d_83">
      <g>
       <use xlink:href="#mb9cf763c09" x="406.23504" y="470.728203" style="fill: #262626; stroke: #262626"/>
      </g>
     </g>
    </g>
    <g id="xtick_61">
     <g id="line2d_84">
      <g>
       <use xlink:href="#mb9cf763c09" x="420.516295" y="470.728203" style="fill: #262626; stroke: #262626"/>
      </g>
     </g>
    </g>
    <g id="xtick_62">
     <g id="line2d_85">
      <g>
       <use xlink:href="#mb9cf763c09" x="427.656922" y="470.728203" style="fill: #262626; stroke: #262626"/>
      </g>
     </g>
    </g>
    <g id="xtick_63">
     <g id="line2d_86">
      <g>
       <use xlink:href="#mb9cf763c09" x="434.797549" y="470.728203" style="fill: #262626; stroke: #262626"/>
      </g>
     </g>
    </g>
    <g id="xtick_64">
     <g id="line2d_87">
      <g>
       <use xlink:href="#mb9cf763c09" x="449.078804" y="470.728203" style="fill: #262626; stroke: #262626"/>
      </g>
     </g>
    </g>
    <g id="xtick_65">
     <g id="line2d_88">
      <g>
       <use xlink:href="#mb9cf763c09" x="456.219431" y="470.728203" style="fill: #262626; stroke: #262626"/>
      </g>
     </g>
    </g>
    <g id="xtick_66">
     <g id="line2d_89">
      <g>
       <use xlink:href="#mb9cf763c09" x="463.360058" y="470.728203" style="fill: #262626; stroke: #262626"/>
      </g>
     </g>
    </g>
    <g id="xtick_67">
     <g id="line2d_90">
      <g>
       <use xlink:href="#mb9cf763c09" x="477.641313" y="470.728203" style="fill: #262626; stroke: #262626"/>
      </g>
     </g>
    </g>
    <g id="xtick_68">
     <g id="line2d_91">
      <g>
       <use xlink:href="#mb9cf763c09" x="484.78194" y="470.728203" style="fill: #262626; stroke: #262626"/>
      </g>
     </g>
    </g>
    <g id="xtick_69">
     <g id="line2d_92">
      <g>
       <use xlink:href="#mb9cf763c09" x="491.922567" y="470.728203" style="fill: #262626; stroke: #262626"/>
      </g>
     </g>
    </g>
    <g id="xtick_70">
     <g id="line2d_93">
      <g>
       <use xlink:href="#mb9cf763c09" x="506.203822" y="470.728203" style="fill: #262626; stroke: #262626"/>
      </g>
     </g>
    </g>
    <g id="xtick_71">
     <g id="line2d_94">
      <g>
       <use xlink:href="#mb9cf763c09" x="513.344449" y="470.728203" style="fill: #262626; stroke: #262626"/>
      </g>
     </g>
    </g>
    <g id="xtick_72">
     <g id="line2d_95">
      <g>
       <use xlink:href="#mb9cf763c09" x="520.485076" y="470.728203" style="fill: #262626; stroke: #262626"/>
      </g>
     </g>
    </g>
    <g id="xtick_73">
     <g id="line2d_96">
      <g>
       <use xlink:href="#mb9cf763c09" x="534.766331" y="470.728203" style="fill: #262626; stroke: #262626"/>
      </g>
     </g>
    </g>
    <g id="xtick_74">
     <g id="line2d_97">
      <g>
       <use xlink:href="#mb9cf763c09" x="541.906958" y="470.728203" style="fill: #262626; stroke: #262626"/>
      </g>
     </g>
    </g>
    <g id="xtick_75">
     <g id="line2d_98">
      <g>
       <use xlink:href="#mb9cf763c09" x="549.047585" y="470.728203" style="fill: #262626; stroke: #262626"/>
      </g>
     </g>
    </g>
    <g id="xtick_76">
     <g id="line2d_99">
      <g>
       <use xlink:href="#mb9cf763c09" x="563.32884" y="470.728203" style="fill: #262626; stroke: #262626"/>
      </g>
     </g>
    </g>
    <g id="xtick_77">
     <g id="line2d_100">
      <g>
       <use xlink:href="#mb9cf763c09" x="570.469467" y="470.728203" style="fill: #262626; stroke: #262626"/>
      </g>
     </g>
    </g>
    <g id="xtick_78">
     <g id="line2d_101">
      <g>
       <use xlink:href="#mb9cf763c09" x="577.610094" y="470.728203" style="fill: #262626; stroke: #262626"/>
      </g>
     </g>
    </g>
    <g id="xtick_79">
     <g id="line2d_102">
      <g>
       <use xlink:href="#mb9cf763c09" x="591.891349" y="470.728203" style="fill: #262626; stroke: #262626"/>
      </g>
     </g>
    </g>
    <g id="xtick_80">
     <g id="line2d_103">
      <g>
       <use xlink:href="#mb9cf763c09" x="599.031976" y="470.728203" style="fill: #262626; stroke: #262626"/>
      </g>
     </g>
    </g>
    <g id="xtick_81">
     <g id="line2d_104">
      <g>
       <use xlink:href="#mb9cf763c09" x="606.172604" y="470.728203" style="fill: #262626; stroke: #262626"/>
      </g>
     </g>
    </g>
    <g id="xtick_82">
     <g id="line2d_105">
      <g>
       <use xlink:href="#mb9cf763c09" x="620.453858" y="470.728203" style="fill: #262626; stroke: #262626"/>
      </g>
     </g>
    </g>
    <g id="xtick_83">
     <g id="line2d_106">
      <g>
       <use xlink:href="#mb9cf763c09" x="627.594485" y="470.728203" style="fill: #262626; stroke: #262626"/>
      </g>
     </g>
    </g>
    <g id="xtick_84">
     <g id="line2d_107">
      <g>
       <use xlink:href="#mb9cf763c09" x="634.735113" y="470.728203" style="fill: #262626; stroke: #262626"/>
      </g>
     </g>
    </g>
    <g id="xtick_85">
     <g id="line2d_108">
      <g>
       <use xlink:href="#mb9cf763c09" x="649.016367" y="470.728203" style="fill: #262626; stroke: #262626"/>
      </g>
     </g>
    </g>
    <g id="xtick_86">
     <g id="line2d_109">
      <g>
       <use xlink:href="#mb9cf763c09" x="656.156994" y="470.728203" style="fill: #262626; stroke: #262626"/>
      </g>
     </g>
    </g>
    <g id="xtick_87">
     <g id="line2d_110">
      <g>
       <use xlink:href="#mb9cf763c09" x="663.297622" y="470.728203" style="fill: #262626; stroke: #262626"/>
      </g>
     </g>
    </g>
    <g id="xtick_88">
     <g id="line2d_111">
      <g>
       <use xlink:href="#mb9cf763c09" x="677.578876" y="470.728203" style="fill: #262626; stroke: #262626"/>
      </g>
     </g>
    </g>
    <g id="xtick_89">
     <g id="line2d_112">
      <g>
       <use xlink:href="#mb9cf763c09" x="684.719503" y="470.728203" style="fill: #262626; stroke: #262626"/>
      </g>
     </g>
    </g>
    <g id="xtick_90">
     <g id="line2d_113">
      <g>
       <use xlink:href="#mb9cf763c09" x="691.860131" y="470.728203" style="fill: #262626; stroke: #262626"/>
      </g>
     </g>
    </g>
    <g id="xtick_91">
     <g id="line2d_114">
      <g>
       <use xlink:href="#mb9cf763c09" x="706.141385" y="470.728203" style="fill: #262626; stroke: #262626"/>
      </g>
     </g>
    </g>
    <g id="xtick_92">
     <g id="line2d_115">
      <g>
       <use xlink:href="#mb9cf763c09" x="713.282012" y="470.728203" style="fill: #262626; stroke: #262626"/>
      </g>
     </g>
    </g>
    <g id="xtick_93">
     <g id="line2d_116">
      <g>
       <use xlink:href="#mb9cf763c09" x="720.42264" y="470.728203" style="fill: #262626; stroke: #262626"/>
      </g>
     </g>
    </g>
    <g id="xtick_94">
     <g id="line2d_117">
      <g>
       <use xlink:href="#mb9cf763c09" x="734.703894" y="470.728203" style="fill: #262626; stroke: #262626"/>
      </g>
     </g>
    </g>
    <g id="xtick_95">
     <g id="line2d_118">
      <g>
       <use xlink:href="#mb9cf763c09" x="741.844521" y="470.728203" style="fill: #262626; stroke: #262626"/>
      </g>
     </g>
    </g>
    <g id="xtick_96">
     <g id="line2d_119">
      <g>
       <use xlink:href="#mb9cf763c09" x="748.985149" y="470.728203" style="fill: #262626; stroke: #262626"/>
      </g>
     </g>
    </g>
    <g id="xtick_97">
     <g id="line2d_120">
      <g>
       <use xlink:href="#mb9cf763c09" x="756.125776" y="470.728203" style="fill: #262626; stroke: #262626"/>
      </g>
     </g>
    </g>
    <g id="xtick_98">
     <g id="line2d_121">
      <g>
       <use xlink:href="#mb9cf763c09" x="763.266403" y="470.728203" style="fill: #262626; stroke: #262626"/>
      </g>
     </g>
    </g>
    <g id="xtick_99">
     <g id="line2d_122">
      <g>
       <use xlink:href="#mb9cf763c09" x="770.40703" y="470.728203" style="fill: #262626; stroke: #262626"/>
      </g>
     </g>
    </g>
    <g id="text_24">
     <!-- Date -->
     <g style="fill: #262626" transform="translate(405.665312 545.409053)scale(0.12 -0.12)">
      <defs>
       <path id="DejaVuSans-44" d="M 1259 4147 
L 1259 519 
L 2022 519 
Q 2988 519 3436 956 
Q 3884 1394 3884 2338 
Q 3884 3275 3436 3711 
Q 2988 4147 2022 4147 
L 1259 4147 
z
M 628 4666 
L 1925 4666 
Q 3281 4666 3915 4102 
Q 4550 3538 4550 2338 
Q 4550 1131 3912 565 
Q 3275 0 1925 0 
L 628 0 
L 628 4666 
z
" transform="scale(0.015625)"/>
       <path id="DejaVuSans-61" d="M 2194 1759 
Q 1497 1759 1228 1600 
Q 959 1441 959 1056 
Q 959 750 1161 570 
Q 1363 391 1709 391 
Q 2188 391 2477 730 
Q 2766 1069 2766 1631 
L 2766 1759 
L 2194 1759 
z
M 3341 1997 
L 3341 0 
L 2766 0 
L 2766 531 
Q 2569 213 2275 61 
Q 1981 -91 1556 -91 
Q 1019 -91 701 211 
Q 384 513 384 1019 
Q 384 1609 779 1909 
Q 1175 2209 1959 2209 
L 2766 2209 
L 2766 2266 
Q 2766 2663 2505 2880 
Q 2244 3097 1772 3097 
Q 1472 3097 1187 3025 
Q 903 2953 641 2809 
L 641 3341 
Q 956 3463 1253 3523 
Q 1550 3584 1831 3584 
Q 2591 3584 2966 3190 
Q 3341 2797 3341 1997 
z
" transform="scale(0.015625)"/>
       <path id="DejaVuSans-74" d="M 1172 4494 
L 1172 3500 
L 2356 3500 
L 2356 3053 
L 1172 3053 
L 1172 1153 
Q 1172 725 1289 603 
Q 1406 481 1766 481 
L 2356 481 
L 2356 0 
L 1766 0 
Q 1100 0 847 248 
Q 594 497 594 1153 
L 594 3053 
L 172 3053 
L 172 3500 
L 594 3500 
L 594 4494 
L 1172 4494 
z
" transform="scale(0.015625)"/>
       <path id="DejaVuSans-65" d="M 3597 1894 
L 3597 1613 
L 953 1613 
Q 991 1019 1311 708 
Q 1631 397 2203 397 
Q 2534 397 2845 478 
Q 3156 559 3463 722 
L 3463 178 
Q 3153 47 2828 -22 
Q 2503 -91 2169 -91 
Q 1331 -91 842 396 
Q 353 884 353 1716 
Q 353 2575 817 3079 
Q 1281 3584 2069 3584 
Q 2775 3584 3186 3129 
Q 3597 2675 3597 1894 
z
M 3022 2063 
Q 3016 2534 2758 2815 
Q 2500 3097 2075 3097 
Q 1594 3097 1305 2825 
Q 1016 2553 972 2059 
L 3022 2063 
z
" transform="scale(0.015625)"/>
      </defs>
      <use xlink:href="#DejaVuSans-44"/>
      <use xlink:href="#DejaVuSans-61" x="77.001953"/>
      <use xlink:href="#DejaVuSans-74" x="138.28125"/>
      <use xlink:href="#DejaVuSans-65" x="177.490234"/>
     </g>
    </g>
   </g>
   <g id="matplotlib.axis_2">
    <g id="ytick_1">
     <g id="line2d_123">
      <path d="M 67.10625 450.655018 
L 772.90625 450.655018 
" clip-path="url(#pf6fad9c6d5)" style="fill: none; stroke: #cccccc; stroke-linecap: round"/>
     </g>
     <g id="line2d_124">
      <defs>
       <path id="m7dce4c7df9" d="M 0 0 
L -6 0 
" style="stroke: #262626; stroke-width: 1.25"/>
      </defs>
      <g>
       <use xlink:href="#m7dce4c7df9" x="67.10625" y="450.655018" style="fill: #262626; stroke: #262626; stroke-width: 1.25"/>
      </g>
     </g>
     <g id="text_25">
      <!-- 0 -->
      <g style="fill: #262626" transform="translate(50.6075 454.834158)scale(0.11 -0.11)">
       <use xlink:href="#DejaVuSans-30"/>
      </g>
     </g>
    </g>
    <g id="ytick_2">
     <g id="line2d_125">
      <path d="M 67.10625 392.252651 
L 772.90625 392.252651 
" clip-path="url(#pf6fad9c6d5)" style="fill: none; stroke: #cccccc; stroke-linecap: round"/>
     </g>
     <g id="line2d_126">
      <g>
       <use xlink:href="#m7dce4c7df9" x="67.10625" y="392.252651" style="fill: #262626; stroke: #262626; stroke-width: 1.25"/>
      </g>
     </g>
     <g id="text_26">
      <!-- 100000 -->
      <g style="fill: #262626" transform="translate(15.61375 396.431792)scale(0.11 -0.11)">
       <use xlink:href="#DejaVuSans-31"/>
       <use xlink:href="#DejaVuSans-30" x="63.623047"/>
       <use xlink:href="#DejaVuSans-30" x="127.246094"/>
       <use xlink:href="#DejaVuSans-30" x="190.869141"/>
       <use xlink:href="#DejaVuSans-30" x="254.492188"/>
       <use xlink:href="#DejaVuSans-30" x="318.115234"/>
      </g>
     </g>
    </g>
    <g id="ytick_3">
     <g id="line2d_127">
      <path d="M 67.10625 333.850285 
L 772.90625 333.850285 
" clip-path="url(#pf6fad9c6d5)" style="fill: none; stroke: #cccccc; stroke-linecap: round"/>
     </g>
     <g id="line2d_128">
      <g>
       <use xlink:href="#m7dce4c7df9" x="67.10625" y="333.850285" style="fill: #262626; stroke: #262626; stroke-width: 1.25"/>
      </g>
     </g>
     <g id="text_27">
      <!-- 200000 -->
      <g style="fill: #262626" transform="translate(15.61375 338.029425)scale(0.11 -0.11)">
       <use xlink:href="#DejaVuSans-32"/>
       <use xlink:href="#DejaVuSans-30" x="63.623047"/>
       <use xlink:href="#DejaVuSans-30" x="127.246094"/>
       <use xlink:href="#DejaVuSans-30" x="190.869141"/>
       <use xlink:href="#DejaVuSans-30" x="254.492188"/>
       <use xlink:href="#DejaVuSans-30" x="318.115234"/>
      </g>
     </g>
    </g>
    <g id="ytick_4">
     <g id="line2d_129">
      <path d="M 67.10625 275.447918 
L 772.90625 275.447918 
" clip-path="url(#pf6fad9c6d5)" style="fill: none; stroke: #cccccc; stroke-linecap: round"/>
     </g>
     <g id="line2d_130">
      <g>
       <use xlink:href="#m7dce4c7df9" x="67.10625" y="275.447918" style="fill: #262626; stroke: #262626; stroke-width: 1.25"/>
      </g>
     </g>
     <g id="text_28">
      <!-- 300000 -->
      <g style="fill: #262626" transform="translate(15.61375 279.627059)scale(0.11 -0.11)">
       <use xlink:href="#DejaVuSans-33"/>
       <use xlink:href="#DejaVuSans-30" x="63.623047"/>
       <use xlink:href="#DejaVuSans-30" x="127.246094"/>
       <use xlink:href="#DejaVuSans-30" x="190.869141"/>
       <use xlink:href="#DejaVuSans-30" x="254.492188"/>
       <use xlink:href="#DejaVuSans-30" x="318.115234"/>
      </g>
     </g>
    </g>
    <g id="ytick_5">
     <g id="line2d_131">
      <path d="M 67.10625 217.045552 
L 772.90625 217.045552 
" clip-path="url(#pf6fad9c6d5)" style="fill: none; stroke: #cccccc; stroke-linecap: round"/>
     </g>
     <g id="line2d_132">
      <g>
       <use xlink:href="#m7dce4c7df9" x="67.10625" y="217.045552" style="fill: #262626; stroke: #262626; stroke-width: 1.25"/>
      </g>
     </g>
     <g id="text_29">
      <!-- 400000 -->
      <g style="fill: #262626" transform="translate(15.61375 221.224692)scale(0.11 -0.11)">
       <use xlink:href="#DejaVuSans-34"/>
       <use xlink:href="#DejaVuSans-30" x="63.623047"/>
       <use xlink:href="#DejaVuSans-30" x="127.246094"/>
       <use xlink:href="#DejaVuSans-30" x="190.869141"/>
       <use xlink:href="#DejaVuSans-30" x="254.492188"/>
       <use xlink:href="#DejaVuSans-30" x="318.115234"/>
      </g>
     </g>
    </g>
    <g id="ytick_6">
     <g id="line2d_133">
      <path d="M 67.10625 158.643185 
L 772.90625 158.643185 
" clip-path="url(#pf6fad9c6d5)" style="fill: none; stroke: #cccccc; stroke-linecap: round"/>
     </g>
     <g id="line2d_134">
      <g>
       <use xlink:href="#m7dce4c7df9" x="67.10625" y="158.643185" style="fill: #262626; stroke: #262626; stroke-width: 1.25"/>
      </g>
     </g>
     <g id="text_30">
      <!-- 500000 -->
      <g style="fill: #262626" transform="translate(15.61375 162.822326)scale(0.11 -0.11)">
       <use xlink:href="#DejaVuSans-35"/>
       <use xlink:href="#DejaVuSans-30" x="63.623047"/>
       <use xlink:href="#DejaVuSans-30" x="127.246094"/>
       <use xlink:href="#DejaVuSans-30" x="190.869141"/>
       <use xlink:href="#DejaVuSans-30" x="254.492188"/>
       <use xlink:href="#DejaVuSans-30" x="318.115234"/>
      </g>
     </g>
    </g>
    <g id="ytick_7">
     <g id="line2d_135">
      <path d="M 67.10625 100.240819 
L 772.90625 100.240819 
" clip-path="url(#pf6fad9c6d5)" style="fill: none; stroke: #cccccc; stroke-linecap: round"/>
     </g>
     <g id="line2d_136">
      <g>
       <use xlink:href="#m7dce4c7df9" x="67.10625" y="100.240819" style="fill: #262626; stroke: #262626; stroke-width: 1.25"/>
      </g>
     </g>
     <g id="text_31">
      <!-- 600000 -->
      <g style="fill: #262626" transform="translate(15.61375 104.41996)scale(0.11 -0.11)">
       <use xlink:href="#DejaVuSans-36"/>
       <use xlink:href="#DejaVuSans-30" x="63.623047"/>
       <use xlink:href="#DejaVuSans-30" x="127.246094"/>
       <use xlink:href="#DejaVuSans-30" x="190.869141"/>
       <use xlink:href="#DejaVuSans-30" x="254.492188"/>
       <use xlink:href="#DejaVuSans-30" x="318.115234"/>
      </g>
     </g>
    </g>
    <g id="ytick_8">
     <g id="line2d_137">
      <path d="M 67.10625 41.838452 
L 772.90625 41.838452 
" clip-path="url(#pf6fad9c6d5)" style="fill: none; stroke: #cccccc; stroke-linecap: round"/>
     </g>
     <g id="line2d_138">
      <g>
       <use xlink:href="#m7dce4c7df9" x="67.10625" y="41.838452" style="fill: #262626; stroke: #262626; stroke-width: 1.25"/>
      </g>
     </g>
     <g id="text_32">
      <!-- 700000 -->
      <g style="fill: #262626" transform="translate(15.61375 46.017593)scale(0.11 -0.11)">
       <use xlink:href="#DejaVuSans-37"/>
       <use xlink:href="#DejaVuSans-30" x="63.623047"/>
       <use xlink:href="#DejaVuSans-30" x="127.246094"/>
       <use xlink:href="#DejaVuSans-30" x="190.869141"/>
       <use xlink:href="#DejaVuSans-30" x="254.492188"/>
       <use xlink:href="#DejaVuSans-30" x="318.115234"/>
      </g>
     </g>
    </g>
    <g id="text_33">
     <!-- Cases -->
     <g style="fill: #262626" transform="translate(9.118125 267.732851)rotate(-90)scale(0.12 -0.12)">
      <defs>
       <path id="DejaVuSans-43" d="M 4122 4306 
L 4122 3641 
Q 3803 3938 3442 4084 
Q 3081 4231 2675 4231 
Q 1875 4231 1450 3742 
Q 1025 3253 1025 2328 
Q 1025 1406 1450 917 
Q 1875 428 2675 428 
Q 3081 428 3442 575 
Q 3803 722 4122 1019 
L 4122 359 
Q 3791 134 3420 21 
Q 3050 -91 2638 -91 
Q 1578 -91 968 557 
Q 359 1206 359 2328 
Q 359 3453 968 4101 
Q 1578 4750 2638 4750 
Q 3056 4750 3426 4639 
Q 3797 4528 4122 4306 
z
" transform="scale(0.015625)"/>
       <path id="DejaVuSans-73" d="M 2834 3397 
L 2834 2853 
Q 2591 2978 2328 3040 
Q 2066 3103 1784 3103 
Q 1356 3103 1142 2972 
Q 928 2841 928 2578 
Q 928 2378 1081 2264 
Q 1234 2150 1697 2047 
L 1894 2003 
Q 2506 1872 2764 1633 
Q 3022 1394 3022 966 
Q 3022 478 2636 193 
Q 2250 -91 1575 -91 
Q 1294 -91 989 -36 
Q 684 19 347 128 
L 347 722 
Q 666 556 975 473 
Q 1284 391 1588 391 
Q 1994 391 2212 530 
Q 2431 669 2431 922 
Q 2431 1156 2273 1281 
Q 2116 1406 1581 1522 
L 1381 1569 
Q 847 1681 609 1914 
Q 372 2147 372 2553 
Q 372 3047 722 3315 
Q 1072 3584 1716 3584 
Q 2034 3584 2315 3537 
Q 2597 3491 2834 3397 
z
" transform="scale(0.015625)"/>
      </defs>
      <use xlink:href="#DejaVuSans-43"/>
      <use xlink:href="#DejaVuSans-61" x="69.824219"/>
      <use xlink:href="#DejaVuSans-73" x="131.103516"/>
      <use xlink:href="#DejaVuSans-65" x="183.203125"/>
      <use xlink:href="#DejaVuSans-73" x="244.726562"/>
     </g>
    </g>
   </g>
   <g id="line2d_139">
    <path d="M 99.188068 450.652682 
L 113.469323 450.545805 
L 132.851025 450.284163 
L 147.13228 449.961198 
L 163.453714 449.507411 
L 195.076491 448.967773 
L 206.297477 448.393678 
L 209.357746 448.252344 
L 222.618911 447.201102 
L 224.65909 446.95114 
L 227.719359 446.464648 
L 229.759538 446.326818 
L 256.281868 442.86239 
L 258.322047 442.76369 
L 262.402406 442.336769 
L 268.522943 441.916856 
L 271.583212 441.727048 
L 274.643481 441.456061 
L 278.723839 441.199674 
L 280.764018 441.045492 
L 285.864467 440.674637 
L 288.924735 440.472565 
L 294.025183 440.106966 
L 309.326527 438.655083 
L 313.406886 438.087996 
L 314.426976 438.047699 
L 316.467155 437.627786 
L 318.507334 437.071211 
L 320.547513 436.452146 
L 321.567603 436.403672 
L 323.607782 435.602392 
L 325.647961 434.590279 
L 326.668051 434.007423 
L 327.68814 433.655257 
L 328.70823 433.424567 
L 329.72832 432.826527 
L 331.768499 431.186589 
L 333.808678 429.327057 
L 334.828768 428.717921 
L 335.848857 428.526945 
L 336.868947 427.21698 
L 339.929216 422.534278 
L 340.949305 420.845866 
L 341.969395 419.792871 
L 342.989485 419.077442 
L 344.009574 417.660017 
L 348.089933 408.497853 
L 349.110022 407.154015 
L 350.130112 406.759799 
L 351.150201 404.531165 
L 353.190381 399.663327 
L 354.21047 397.669471 
L 355.23056 395.209563 
L 356.250649 393.750672 
L 357.270739 393.274109 
L 358.290829 391.218929 
L 359.310918 388.399263 
L 362.371187 381.496103 
L 363.391277 380.165113 
L 364.411366 379.509255 
L 365.431456 377.671916 
L 366.451546 375.112725 
L 368.491725 370.861032 
L 369.511814 368.917986 
L 370.531904 367.871415 
L 371.551994 367.439822 
L 372.572083 365.796379 
L 374.612262 361.934231 
L 376.652442 357.907972 
L 377.672531 356.718315 
L 378.692621 356.381334 
L 379.71271 354.767092 
L 380.7328 352.442678 
L 382.772979 348.703175 
L 383.793069 346.894453 
L 384.813159 346.142815 
L 385.833248 345.852555 
L 386.853338 344.629025 
L 387.873427 343.027049 
L 390.933696 339.674753 
L 391.953786 339.089561 
L 392.973875 338.992613 
L 393.993965 338.246815 
L 396.034144 336.252958 
L 397.054234 335.802092 
L 398.074323 335.651998 
L 400.114503 335.184195 
L 401.134592 334.987379 
L 402.154682 334.147553 
L 403.174771 333.137776 
L 404.194861 332.526887 
L 407.25513 332.068429 
L 408.27522 331.467468 
L 409.295309 330.702397 
L 411.335488 329.610857 
L 412.355578 329.171087 
L 413.375668 328.940982 
L 414.395757 328.879659 
L 419.496205 327.13226 
L 422.556474 326.61832 
L 426.636832 325.422823 
L 428.677012 325.196806 
L 431.73728 323.913706 
L 434.797549 322.976932 
L 435.817639 322.901009 
L 441.938177 320.095359 
L 442.958266 319.989067 
L 447.038625 317.471925 
L 448.058714 316.907758 
L 449.078804 316.612242 
L 450.098893 316.517046 
L 451.118983 315.893309 
L 453.159162 314.377768 
L 454.179252 313.743518 
L 455.199341 312.889091 
L 456.219431 312.569046 
L 457.239521 312.436473 
L 459.2797 310.260985 
L 462.339969 307.203037 
L 463.360058 306.572875 
L 464.380148 306.37898 
L 466.420327 303.464117 
L 467.440417 302.790154 
L 468.460506 301.50647 
L 469.480596 299.752063 
L 470.500686 298.919245 
L 471.520775 298.628986 
L 472.540865 296.879835 
L 473.560954 294.834584 
L 475.601134 291.391764 
L 476.621223 289.546834 
L 477.641313 288.36769 
L 478.661402 287.971138 
L 480.701582 282.7085 
L 483.761851 275.483544 
L 484.78194 273.99954 
L 485.80203 273.448805 
L 489.882388 263.122683 
L 490.902478 260.711249 
L 491.922567 259.229581 
L 492.942657 258.655486 
L 493.962747 256.029131 
L 494.982836 253.006225 
L 496.002926 250.549237 
L 498.043105 246.048167 
L 499.063195 244.927426 
L 500.083284 244.495248 
L 503.143553 237.825698 
L 505.183732 234.461721 
L 506.203822 233.672122 
L 507.223912 233.402303 
L 509.264091 229.859615 
L 511.30427 227.113536 
L 512.32436 225.871901 
L 513.344449 225.243492 
L 514.364539 224.99937 
L 515.384628 223.577856 
L 517.424808 221.184528 
L 519.464987 219.205271 
L 520.485076 218.73922 
L 521.505166 218.505611 
L 523.545345 216.39787 
L 525.585524 214.868312 
L 527.625704 214.215373 
L 528.645793 214.012133 
L 529.665883 213.643614 
L 530.685973 213.429277 
L 531.706062 212.474399 
L 532.726152 212.156106 
L 533.746241 211.500247 
L 534.766331 211.228092 
L 535.786421 211.087342 
L 537.8266 209.945576 
L 539.866779 209.266357 
L 540.886869 208.963832 
L 542.927048 208.757088 
L 543.947137 208.361704 
L 547.007406 207.669052 
L 548.027496 207.457635 
L 552.107854 207.039474 
L 554.148033 206.638834 
L 556.188213 206.404057 
L 557.208302 206.373103 
L 560.268571 205.943262 
L 563.32884 205.700308 
L 565.369019 205.551382 
L 569.449378 205.240681 
L 605.152514 203.687179 
L 610.252962 203.426704 
L 617.393589 202.856697 
L 622.494037 202.129003 
L 627.594485 200.76706 
L 628.614575 200.664272 
L 632.694933 198.770283 
L 633.715023 198.158811 
L 634.735113 197.794964 
L 635.755202 197.636109 
L 638.815471 195.2457 
L 640.85565 193.64606 
L 641.87574 193.15256 
L 642.895829 192.928295 
L 645.956098 189.772815 
L 647.996277 187.760269 
L 649.016367 187.173909 
L 650.036457 186.910515 
L 652.076636 184.490905 
L 654.116815 182.55837 
L 655.136905 181.600572 
L 656.156994 181.101815 
L 658.197174 180.421428 
L 660.237353 178.10811 
L 662.277532 176.207113 
L 663.297622 175.676236 
L 664.317711 175.421017 
L 667.37798 171.981702 
L 669.418159 169.869872 
L 670.438249 169.314466 
L 671.458338 169.046983 
L 673.498518 166.388507 
L 674.518607 165.892087 
L 676.558786 163.708423 
L 677.578876 163.102206 
L 678.598966 162.81253 
L 680.639145 159.828753 
L 683.699414 156.159333 
L 684.719503 155.442152 
L 685.739593 155.142547 
L 688.799862 150.345377 
L 690.840041 147.549656 
L 691.860131 146.821962 
L 692.88022 146.459284 
L 695.940489 140.463113 
L 697.980668 136.595124 
L 699.000758 135.504752 
L 700.020847 134.920728 
L 703.081116 126.476914 
L 705.121296 120.845758 
L 706.141385 118.886942 
L 707.161475 118.08683 
L 708.181564 114.662699 
L 709.201654 110.681994 
L 711.241833 104.362274 
L 712.261923 101.292646 
L 713.282012 99.636354 
L 714.302102 98.785432 
L 716.342281 91.853071 
L 719.40255 83.49102 
L 720.42264 81.840569 
L 721.442729 81.107036 
L 723.482908 75.126049 
L 724.502998 72.875806 
L 726.543177 69.165504 
L 727.563267 68.225226 
L 728.583357 67.741654 
L 729.603446 65.859346 
L 730.623536 63.599758 
L 733.683805 58.716736 
L 734.703894 57.866982 
L 735.723984 57.438893 
L 737.764163 53.528854 
L 740.824432 49.19131 
L 740.824432 49.19131 
" clip-path="url(#pf6fad9c6d5)" style="fill: none; stroke: #ffa500; stroke-width: 1.5; stroke-linecap: round"/>
   </g>
   <g id="line2d_140">
    <path d="M 99.188068 450.655018 
L 146.11219 450.544053 
L 162.433624 450.40856 
L 186.915774 449.999159 
L 195.076491 449.707147 
L 215.478284 449.147069 
L 220.578732 448.962517 
L 223.639 448.881338 
L 226.699269 448.723067 
L 228.739448 448.716643 
L 232.819807 448.361557 
L 238.940345 447.943396 
L 240.980524 447.587725 
L 244.040793 447.393245 
L 249.141241 446.919602 
L 250.16133 446.905586 
L 255.261778 446.203589 
L 259.342137 445.892889 
L 262.402406 445.332226 
L 265.462674 445.140666 
L 269.543033 444.650086 
L 273.623391 444.463783 
L 284.844377 443.569643 
L 287.904646 443.473279 
L 290.964915 443.208716 
L 294.025183 443.103592 
L 301.165811 442.638125 
L 303.20599 442.556361 
L 306.266259 442.385243 
L 308.306438 442.280702 
L 313.406886 441.904007 
L 315.447065 441.790122 
L 325.647961 440.914671 
L 327.68814 440.778009 
L 329.72832 440.63726 
L 333.808678 440.083021 
L 336.868947 439.762976 
L 342.989485 438.665012 
L 347.069843 437.392424 
L 348.089933 436.967839 
L 349.110022 436.752334 
L 350.130112 436.400168 
L 351.150201 435.889147 
L 352.170291 435.587791 
L 354.21047 434.543557 
L 356.250649 433.832216 
L 357.270739 433.499322 
L 358.290829 432.949172 
L 359.310918 432.237247 
L 362.371187 430.571612 
L 363.391277 429.775004 
L 364.411366 429.324137 
L 366.451546 427.234501 
L 368.491725 424.446956 
L 369.511814 423.357752 
L 370.531904 422.750951 
L 371.551994 422.274972 
L 372.572083 421.123861 
L 374.612262 418.413407 
L 375.632352 417.283321 
L 376.652442 415.802237 
L 377.672531 415.22055 
L 378.692621 414.301881 
L 381.75289 408.55976 
L 382.772979 406.717749 
L 383.793069 404.212288 
L 385.833248 401.760556 
L 386.853338 400.67544 
L 388.893517 397.795036 
L 390.933696 394.225483 
L 391.953786 393.405514 
L 392.973875 392.393985 
L 393.993965 390.695644 
L 395.014055 389.279971 
L 397.054234 387.767349 
L 398.074323 387.074697 
L 399.094413 386.563093 
L 401.134592 384.962284 
L 403.174771 381.544577 
L 404.194861 380.848421 
L 405.214951 380.371858 
L 407.25513 379.164097 
L 410.315399 375.439194 
L 411.335488 374.620393 
L 412.355578 372.382998 
L 414.395757 371.660561 
L 416.435936 368.57166 
L 417.456026 366.76469 
L 418.476116 362.835379 
L 419.496205 359.529805 
L 421.536384 359.125661 
L 422.556474 354.726211 
L 423.576564 351.080151 
L 424.596653 348.393642 
L 425.616743 347.076085 
L 426.636832 346.347223 
L 428.677012 346.075068 
L 430.717191 344.949654 
L 431.73728 344.583472 
L 435.817639 341.412223 
L 436.837729 340.290898 
L 437.857818 339.407854 
L 438.877908 338.784117 
L 440.918087 337.92093 
L 442.958266 337.79186 
L 443.978356 337.322305 
L 444.998445 337.054239 
L 446.018535 336.647174 
L 451.118983 335.265958 
L 454.179252 334.065205 
L 456.219431 333.769689 
L 457.239521 333.703111 
L 458.25961 333.249324 
L 460.29979 332.679317 
L 462.339969 331.809706 
L 463.360058 330.850155 
L 464.380148 330.611873 
L 465.400238 329.978208 
L 466.420327 328.938062 
L 467.440417 328.594072 
L 468.460506 327.637441 
L 469.480596 326.889891 
L 471.520775 326.323972 
L 472.540865 325.606791 
L 473.560954 323.619358 
L 474.581044 322.141194 
L 476.621223 320.137409 
L 477.641313 319.484471 
L 478.661402 319.143401 
L 480.701582 317.021059 
L 483.761851 314.229426 
L 485.80203 313.543198 
L 487.842209 310.72178 
L 488.862299 309.139659 
L 489.882388 307.877584 
L 490.902478 306.137778 
L 491.922567 305.289191 
L 492.942657 305.022293 
L 494.982836 301.324839 
L 496.002926 299.065251 
L 497.023015 297.585335 
L 498.043105 295.251577 
L 499.063195 293.216838 
L 500.083284 292.715746 
L 502.123463 289.35469 
L 503.143553 287.908063 
L 504.163643 285.972609 
L 505.183732 284.28478 
L 506.203822 283.741638 
L 507.223912 283.473571 
L 508.244001 281.664266 
L 510.28418 277.201157 
L 512.32436 273.092551 
L 513.344449 272.389386 
L 514.364539 271.547808 
L 515.384628 269.069212 
L 516.404718 267.112148 
L 517.424808 264.814015 
L 518.444897 262.949812 
L 519.464987 261.503185 
L 521.505166 260.880616 
L 522.525256 258.486119 
L 524.565435 254.755376 
L 525.585524 253.072804 
L 526.605614 252.359127 
L 527.625704 252.151798 
L 529.665883 251.404832 
L 530.685973 250.786935 
L 531.706062 249.228176 
L 532.726152 248.881266 
L 533.746241 247.490705 
L 535.786421 247.185845 
L 536.80651 245.430854 
L 537.8266 244.133153 
L 538.846689 242.07155 
L 539.866779 240.40533 
L 540.886869 239.242539 
L 542.927048 238.96104 
L 543.947137 237.6721 
L 544.967227 236.047346 
L 545.987317 234.694163 
L 547.007406 233.658105 
L 548.027496 232.832879 
L 551.087765 232.403622 
L 552.107854 230.988533 
L 553.127944 230.292377 
L 554.148033 229.218941 
L 555.168123 228.577683 
L 557.208302 228.412404 
L 559.248482 226.527176 
L 560.268571 225.936144 
L 563.32884 225.182169 
L 564.34893 225.164065 
L 568.429288 223.712182 
L 569.449378 223.254891 
L 571.489557 223.18072 
L 572.509646 222.659187 
L 573.529736 222.318701 
L 574.549826 221.6973 
L 576.590005 221.266875 
L 578.630184 221.241178 
L 581.690453 220.625617 
L 587.810991 220.275787 
L 589.85117 220.006552 
L 590.871259 219.800975 
L 592.911439 219.743157 
L 596.991797 219.253745 
L 602.092245 219.006703 
L 603.112335 218.795871 
L 608.212783 218.585622 
L 610.252962 218.312299 
L 630.654754 217.448528 
L 633.715023 217.092858 
L 635.755202 216.954444 
L 641.87574 216.11345 
L 642.895829 216.086585 
L 644.936009 215.458175 
L 646.976188 214.839694 
L 647.996277 214.63879 
L 650.036457 214.501545 
L 652.076636 213.678655 
L 654.116815 212.940449 
L 655.136905 212.460382 
L 656.156994 212.348249 
L 658.197174 211.757802 
L 661.257442 209.841036 
L 662.277532 209.126191 
L 663.297622 209.025155 
L 664.317711 208.777529 
L 665.337801 208.141527 
L 666.35789 207.695917 
L 667.37798 206.856675 
L 668.39807 205.709652 
L 669.418159 204.289307 
L 670.438249 203.989703 
L 673.498518 202.046656 
L 674.518607 201.705586 
L 675.538697 201.089441 
L 676.558786 200.091345 
L 678.598966 199.497393 
L 680.639145 196.91192 
L 683.699414 194.719495 
L 685.739593 194.208474 
L 686.759683 193.416538 
L 687.779772 192.231554 
L 689.819951 190.383119 
L 690.840041 189.257122 
L 692.88022 188.545197 
L 693.90031 187.457745 
L 694.920399 186.775021 
L 695.940489 185.702754 
L 697.980668 183.873008 
L 700.020847 183.253943 
L 701.040937 182.080639 
L 702.061027 180.478662 
L 703.081116 179.912159 
L 704.101206 179.065325 
L 705.121296 178.376177 
L 706.141385 178.19513 
L 707.161475 177.882093 
L 708.181564 176.701197 
L 711.241833 172.689538 
L 712.261923 171.766197 
L 714.302102 171.042592 
L 715.322192 169.285265 
L 717.362371 166.383251 
L 718.38246 164.220611 
L 719.40255 162.620971 
L 720.42264 162.234931 
L 721.442729 161.654995 
L 722.462819 159.613249 
L 725.523088 152.286672 
L 726.543177 150.530513 
L 727.563267 150.006643 
L 728.583357 149.216459 
L 730.623536 144.392424 
L 731.643625 142.436529 
L 732.663715 139.817767 
L 733.683805 137.9851 
L 734.703894 136.967147 
L 735.723984 136.479487 
L 736.744073 133.689606 
L 739.804342 128.359806 
L 740.824432 126.933036 
L 740.824432 126.933036 
" clip-path="url(#pf6fad9c6d5)" style="fill: none; stroke: #008000; stroke-width: 1.5; stroke-linecap: round"/>
   </g>
   <g id="line2d_141"/>
   <g id="line2d_142"/>
   <g id="patch_3">
    <path d="M 67.10625 470.728203 
L 67.10625 29.118125 
" style="fill: none; stroke: #262626; stroke-width: 1.25; stroke-linejoin: miter; stroke-linecap: square"/>
   </g>
   <g id="patch_4">
    <path d="M 772.90625 470.728203 
L 772.90625 29.118125 
" style="fill: none; stroke: #262626; stroke-width: 1.25; stroke-linejoin: miter; stroke-linecap: square"/>
   </g>
   <g id="patch_5">
    <path d="M 67.10625 470.728203 
L 772.90625 470.728203 
" style="fill: none; stroke: #262626; stroke-width: 1.25; stroke-linejoin: miter; stroke-linecap: square"/>
   </g>
   <g id="patch_6">
    <path d="M 67.10625 29.118125 
L 772.90625 29.118125 
" style="fill: none; stroke: #262626; stroke-width: 1.25; stroke-linejoin: miter; stroke-linecap: square"/>
   </g>
   <g id="text_34">
    <!-- Last update: 27.11.2021 -->
    <g style="fill: #262626" transform="translate(358.507422 22.493974)scale(0.09996 -0.09996)">
     <defs>
      <path id="DejaVuSans-4c" d="M 628 4666 
L 1259 4666 
L 1259 531 
L 3531 531 
L 3531 0 
L 628 0 
L 628 4666 
z
" transform="scale(0.015625)"/>
      <path id="DejaVuSans-20" transform="scale(0.015625)"/>
      <path id="DejaVuSans-75" d="M 544 1381 
L 544 3500 
L 1119 3500 
L 1119 1403 
Q 1119 906 1312 657 
Q 1506 409 1894 409 
Q 2359 409 2629 706 
Q 2900 1003 2900 1516 
L 2900 3500 
L 3475 3500 
L 3475 0 
L 2900 0 
L 2900 538 
Q 2691 219 2414 64 
Q 2138 -91 1772 -91 
Q 1169 -91 856 284 
Q 544 659 544 1381 
z
M 1991 3584 
L 1991 3584 
z
" transform="scale(0.015625)"/>
      <path id="DejaVuSans-70" d="M 1159 525 
L 1159 -1331 
L 581 -1331 
L 581 3500 
L 1159 3500 
L 1159 2969 
Q 1341 3281 1617 3432 
Q 1894 3584 2278 3584 
Q 2916 3584 3314 3078 
Q 3713 2572 3713 1747 
Q 3713 922 3314 415 
Q 2916 -91 2278 -91 
Q 1894 -91 1617 61 
Q 1341 213 1159 525 
z
M 3116 1747 
Q 3116 2381 2855 2742 
Q 2594 3103 2138 3103 
Q 1681 3103 1420 2742 
Q 1159 2381 1159 1747 
Q 1159 1113 1420 752 
Q 1681 391 2138 391 
Q 2594 391 2855 752 
Q 3116 1113 3116 1747 
z
" transform="scale(0.015625)"/>
      <path id="DejaVuSans-64" d="M 2906 2969 
L 2906 4863 
L 3481 4863 
L 3481 0 
L 2906 0 
L 2906 525 
Q 2725 213 2448 61 
Q 2172 -91 1784 -91 
Q 1150 -91 751 415 
Q 353 922 353 1747 
Q 353 2572 751 3078 
Q 1150 3584 1784 3584 
Q 2172 3584 2448 3432 
Q 2725 3281 2906 2969 
z
M 947 1747 
Q 947 1113 1208 752 
Q 1469 391 1925 391 
Q 2381 391 2643 752 
Q 2906 1113 2906 1747 
Q 2906 2381 2643 2742 
Q 2381 3103 1925 3103 
Q 1469 3103 1208 2742 
Q 947 2381 947 1747 
z
" transform="scale(0.015625)"/>
      <path id="DejaVuSans-3a" d="M 750 794 
L 1409 794 
L 1409 0 
L 750 0 
L 750 794 
z
M 750 3309 
L 1409 3309 
L 1409 2516 
L 750 2516 
L 750 3309 
z
" transform="scale(0.015625)"/>
     </defs>
     <use xlink:href="#DejaVuSans-4c"/>
     <use xlink:href="#DejaVuSans-61" x="55.712891"/>
     <use xlink:href="#DejaVuSans-73" x="116.992188"/>
     <use xlink:href="#DejaVuSans-74" x="169.091797"/>
     <use xlink:href="#DejaVuSans-20" x="208.300781"/>
     <use xlink:href="#DejaVuSans-75" x="240.087891"/>
     <use xlink:href="#DejaVuSans-70" x="303.466797"/>
     <use xlink:href="#DejaVuSans-64" x="366.943359"/>
     <use xlink:href="#DejaVuSans-61" x="430.419922"/>
     <use xlink:href="#DejaVuSans-74" x="491.699219"/>
     <use xlink:href="#DejaVuSans-65" x="530.908203"/>
     <use xlink:href="#DejaVuSans-3a" x="592.431641"/>
     <use xlink:href="#DejaVuSans-20" x="626.123047"/>
     <use xlink:href="#DejaVuSans-32" x="657.910156"/>
     <use xlink:href="#DejaVuSans-37" x="721.533203"/>
     <use xlink:href="#DejaVuSans-2e" x="785.15625"/>
     <use xlink:href="#DejaVuSans-31" x="816.943359"/>
     <use xlink:href="#DejaVuSans-31" x="880.566406"/>
     <use xlink:href="#DejaVuSans-2e" x="944.189453"/>
     <use xlink:href="#DejaVuSans-32" x="975.976562"/>
     <use xlink:href="#DejaVuSans-30" x="1039.599609"/>
     <use xlink:href="#DejaVuSans-32" x="1103.222656"/>
     <use xlink:href="#DejaVuSans-31" x="1166.845703"/>
    </g>
   </g>
   <g id="text_35">
    <!-- Disease timeline -->
    <g style="fill: #262626" transform="translate(363.848125 9.118125)scale(0.12 -0.12)">
     <defs>
      <path id="DejaVuSans-Bold-44" d="M 1791 3756 
L 1791 909 
L 2222 909 
Q 2959 909 3348 1275 
Q 3738 1641 3738 2338 
Q 3738 3031 3350 3393 
Q 2963 3756 2222 3756 
L 1791 3756 
z
M 588 4666 
L 1856 4666 
Q 2919 4666 3439 4514 
Q 3959 4363 4331 4000 
Q 4659 3684 4818 3271 
Q 4978 2859 4978 2338 
Q 4978 1809 4818 1395 
Q 4659 981 4331 666 
Q 3956 303 3431 151 
Q 2906 0 1856 0 
L 588 0 
L 588 4666 
z
" transform="scale(0.015625)"/>
      <path id="DejaVuSans-Bold-69" d="M 538 3500 
L 1656 3500 
L 1656 0 
L 538 0 
L 538 3500 
z
M 538 4863 
L 1656 4863 
L 1656 3950 
L 538 3950 
L 538 4863 
z
" transform="scale(0.015625)"/>
      <path id="DejaVuSans-Bold-73" d="M 3272 3391 
L 3272 2541 
Q 2913 2691 2578 2766 
Q 2244 2841 1947 2841 
Q 1628 2841 1473 2761 
Q 1319 2681 1319 2516 
Q 1319 2381 1436 2309 
Q 1553 2238 1856 2203 
L 2053 2175 
Q 2913 2066 3209 1816 
Q 3506 1566 3506 1031 
Q 3506 472 3093 190 
Q 2681 -91 1863 -91 
Q 1516 -91 1145 -36 
Q 775 19 384 128 
L 384 978 
Q 719 816 1070 734 
Q 1422 653 1784 653 
Q 2113 653 2278 743 
Q 2444 834 2444 1013 
Q 2444 1163 2330 1236 
Q 2216 1309 1875 1350 
L 1678 1375 
Q 931 1469 631 1722 
Q 331 1975 331 2491 
Q 331 3047 712 3315 
Q 1094 3584 1881 3584 
Q 2191 3584 2531 3537 
Q 2872 3491 3272 3391 
z
" transform="scale(0.015625)"/>
      <path id="DejaVuSans-Bold-65" d="M 4031 1759 
L 4031 1441 
L 1416 1441 
Q 1456 1047 1700 850 
Q 1944 653 2381 653 
Q 2734 653 3104 758 
Q 3475 863 3866 1075 
L 3866 213 
Q 3469 63 3072 -14 
Q 2675 -91 2278 -91 
Q 1328 -91 801 392 
Q 275 875 275 1747 
Q 275 2603 792 3093 
Q 1309 3584 2216 3584 
Q 3041 3584 3536 3087 
Q 4031 2591 4031 1759 
z
M 2881 2131 
Q 2881 2450 2695 2645 
Q 2509 2841 2209 2841 
Q 1884 2841 1681 2658 
Q 1478 2475 1428 2131 
L 2881 2131 
z
" transform="scale(0.015625)"/>
      <path id="DejaVuSans-Bold-61" d="M 2106 1575 
Q 1756 1575 1579 1456 
Q 1403 1338 1403 1106 
Q 1403 894 1545 773 
Q 1688 653 1941 653 
Q 2256 653 2472 879 
Q 2688 1106 2688 1447 
L 2688 1575 
L 2106 1575 
z
M 3816 1997 
L 3816 0 
L 2688 0 
L 2688 519 
Q 2463 200 2181 54 
Q 1900 -91 1497 -91 
Q 953 -91 614 226 
Q 275 544 275 1050 
Q 275 1666 698 1953 
Q 1122 2241 2028 2241 
L 2688 2241 
L 2688 2328 
Q 2688 2594 2478 2717 
Q 2269 2841 1825 2841 
Q 1466 2841 1156 2769 
Q 847 2697 581 2553 
L 581 3406 
Q 941 3494 1303 3539 
Q 1666 3584 2028 3584 
Q 2975 3584 3395 3211 
Q 3816 2838 3816 1997 
z
" transform="scale(0.015625)"/>
      <path id="DejaVuSans-Bold-20" transform="scale(0.015625)"/>
      <path id="DejaVuSans-Bold-74" d="M 1759 4494 
L 1759 3500 
L 2913 3500 
L 2913 2700 
L 1759 2700 
L 1759 1216 
Q 1759 972 1856 886 
Q 1953 800 2241 800 
L 2816 800 
L 2816 0 
L 1856 0 
Q 1194 0 917 276 
Q 641 553 641 1216 
L 641 2700 
L 84 2700 
L 84 3500 
L 641 3500 
L 641 4494 
L 1759 4494 
z
" transform="scale(0.015625)"/>
      <path id="DejaVuSans-Bold-6d" d="M 3781 2919 
Q 3994 3244 4286 3414 
Q 4578 3584 4928 3584 
Q 5531 3584 5847 3212 
Q 6163 2841 6163 2131 
L 6163 0 
L 5038 0 
L 5038 1825 
Q 5041 1866 5042 1909 
Q 5044 1953 5044 2034 
Q 5044 2406 4934 2573 
Q 4825 2741 4581 2741 
Q 4263 2741 4089 2478 
Q 3916 2216 3909 1719 
L 3909 0 
L 2784 0 
L 2784 1825 
Q 2784 2406 2684 2573 
Q 2584 2741 2328 2741 
Q 2006 2741 1831 2477 
Q 1656 2213 1656 1722 
L 1656 0 
L 531 0 
L 531 3500 
L 1656 3500 
L 1656 2988 
Q 1863 3284 2130 3434 
Q 2397 3584 2719 3584 
Q 3081 3584 3359 3409 
Q 3638 3234 3781 2919 
z
" transform="scale(0.015625)"/>
      <path id="DejaVuSans-Bold-6c" d="M 538 4863 
L 1656 4863 
L 1656 0 
L 538 0 
L 538 4863 
z
" transform="scale(0.015625)"/>
      <path id="DejaVuSans-Bold-6e" d="M 4056 2131 
L 4056 0 
L 2931 0 
L 2931 347 
L 2931 1631 
Q 2931 2084 2911 2256 
Q 2891 2428 2841 2509 
Q 2775 2619 2662 2680 
Q 2550 2741 2406 2741 
Q 2056 2741 1856 2470 
Q 1656 2200 1656 1722 
L 1656 0 
L 538 0 
L 538 3500 
L 1656 3500 
L 1656 2988 
Q 1909 3294 2193 3439 
Q 2478 3584 2822 3584 
Q 3428 3584 3742 3212 
Q 4056 2841 4056 2131 
z
" transform="scale(0.015625)"/>
     </defs>
     <use xlink:href="#DejaVuSans-Bold-44"/>
     <use xlink:href="#DejaVuSans-Bold-69" x="83.007812"/>
     <use xlink:href="#DejaVuSans-Bold-73" x="117.285156"/>
     <use xlink:href="#DejaVuSans-Bold-65" x="176.806641"/>
     <use xlink:href="#DejaVuSans-Bold-61" x="244.628906"/>
     <use xlink:href="#DejaVuSans-Bold-73" x="312.109375"/>
     <use xlink:href="#DejaVuSans-Bold-65" x="371.630859"/>
     <use xlink:href="#DejaVuSans-Bold-20" x="439.453125"/>
     <use xlink:href="#DejaVuSans-Bold-74" x="474.267578"/>
     <use xlink:href="#DejaVuSans-Bold-69" x="522.070312"/>
     <use xlink:href="#DejaVuSans-Bold-6d" x="556.347656"/>
     <use xlink:href="#DejaVuSans-Bold-65" x="660.546875"/>
     <use xlink:href="#DejaVuSans-Bold-6c" x="728.369141"/>
     <use xlink:href="#DejaVuSans-Bold-69" x="762.646484"/>
     <use xlink:href="#DejaVuSans-Bold-6e" x="796.923828"/>
     <use xlink:href="#DejaVuSans-Bold-65" x="868.115234"/>
    </g>
   </g>
  </g>
  <g id="axes_2">
   <g id="matplotlib.axis_3">
    <g id="ytick_9">
     <g id="line2d_143">
      <defs>
       <path id="m1cd1a4a6ac" d="M 0 0 
L 6 0 
" style="stroke: #262626; stroke-width: 1.25"/>
      </defs>
      <g>
       <use xlink:href="#m1cd1a4a6ac" x="772.90625" y="450.655018" style="fill: #262626; stroke: #262626; stroke-width: 1.25"/>
      </g>
     </g>
     <g id="text_36">
      <!-- 0 -->
      <g style="fill: #262626" transform="translate(782.40625 454.834158)scale(0.11 -0.11)">
       <use xlink:href="#DejaVuSans-30"/>
      </g>
     </g>
    </g>
    <g id="ytick_10">
     <g id="line2d_144">
      <g>
       <use xlink:href="#m1cd1a4a6ac" x="772.90625" y="378.954827" style="fill: #262626; stroke: #262626; stroke-width: 1.25"/>
      </g>
     </g>
     <g id="text_37">
      <!-- 5000 -->
      <g style="fill: #262626" transform="translate(782.40625 383.133968)scale(0.11 -0.11)">
       <use xlink:href="#DejaVuSans-35"/>
       <use xlink:href="#DejaVuSans-30" x="63.623047"/>
       <use xlink:href="#DejaVuSans-30" x="127.246094"/>
       <use xlink:href="#DejaVuSans-30" x="190.869141"/>
      </g>
     </g>
    </g>
    <g id="ytick_11">
     <g id="line2d_145">
      <g>
       <use xlink:href="#m1cd1a4a6ac" x="772.90625" y="307.254636" style="fill: #262626; stroke: #262626; stroke-width: 1.25"/>
      </g>
     </g>
     <g id="text_38">
      <!-- 10000 -->
      <g style="fill: #262626" transform="translate(782.40625 311.433777)scale(0.11 -0.11)">
       <use xlink:href="#DejaVuSans-31"/>
       <use xlink:href="#DejaVuSans-30" x="63.623047"/>
       <use xlink:href="#DejaVuSans-30" x="127.246094"/>
       <use xlink:href="#DejaVuSans-30" x="190.869141"/>
       <use xlink:href="#DejaVuSans-30" x="254.492188"/>
      </g>
     </g>
    </g>
    <g id="ytick_12">
     <g id="line2d_146">
      <g>
       <use xlink:href="#m1cd1a4a6ac" x="772.90625" y="235.554446" style="fill: #262626; stroke: #262626; stroke-width: 1.25"/>
      </g>
     </g>
     <g id="text_39">
      <!-- 15000 -->
      <g style="fill: #262626" transform="translate(782.40625 239.733586)scale(0.11 -0.11)">
       <use xlink:href="#DejaVuSans-31"/>
       <use xlink:href="#DejaVuSans-35" x="63.623047"/>
       <use xlink:href="#DejaVuSans-30" x="127.246094"/>
       <use xlink:href="#DejaVuSans-30" x="190.869141"/>
       <use xlink:href="#DejaVuSans-30" x="254.492188"/>
      </g>
     </g>
    </g>
    <g id="ytick_13">
     <g id="line2d_147">
      <g>
       <use xlink:href="#m1cd1a4a6ac" x="772.90625" y="163.854255" style="fill: #262626; stroke: #262626; stroke-width: 1.25"/>
      </g>
     </g>
     <g id="text_40">
      <!-- 20000 -->
      <g style="fill: #262626" transform="translate(782.40625 168.033396)scale(0.11 -0.11)">
       <use xlink:href="#DejaVuSans-32"/>
       <use xlink:href="#DejaVuSans-30" x="63.623047"/>
       <use xlink:href="#DejaVuSans-30" x="127.246094"/>
       <use xlink:href="#DejaVuSans-30" x="190.869141"/>
       <use xlink:href="#DejaVuSans-30" x="254.492188"/>
      </g>
     </g>
    </g>
    <g id="ytick_14">
     <g id="line2d_148">
      <g>
       <use xlink:href="#m1cd1a4a6ac" x="772.90625" y="92.154065" style="fill: #262626; stroke: #262626; stroke-width: 1.25"/>
      </g>
     </g>
     <g id="text_41">
      <!-- 25000 -->
      <g style="fill: #262626" transform="translate(782.40625 96.333205)scale(0.11 -0.11)">
       <use xlink:href="#DejaVuSans-32"/>
       <use xlink:href="#DejaVuSans-35" x="63.623047"/>
       <use xlink:href="#DejaVuSans-30" x="127.246094"/>
       <use xlink:href="#DejaVuSans-30" x="190.869141"/>
       <use xlink:href="#DejaVuSans-30" x="254.492188"/>
      </g>
     </g>
    </g>
    <g id="text_42">
     <!-- Fatalities -->
     <g style="fill: #262626" transform="translate(828.281875 223.143476)rotate(-270)scale(0.12 -0.12)">
      <defs>
       <path id="DejaVuSans-46" d="M 628 4666 
L 3309 4666 
L 3309 4134 
L 1259 4134 
L 1259 2759 
L 3109 2759 
L 3109 2228 
L 1259 2228 
L 1259 0 
L 628 0 
L 628 4666 
z
" transform="scale(0.015625)"/>
       <path id="DejaVuSans-6c" d="M 603 4863 
L 1178 4863 
L 1178 0 
L 603 0 
L 603 4863 
z
" transform="scale(0.015625)"/>
       <path id="DejaVuSans-69" d="M 603 3500 
L 1178 3500 
L 1178 0 
L 603 0 
L 603 3500 
z
M 603 4863 
L 1178 4863 
L 1178 4134 
L 603 4134 
L 603 4863 
z
" transform="scale(0.015625)"/>
      </defs>
      <use xlink:href="#DejaVuSans-46"/>
      <use xlink:href="#DejaVuSans-61" x="48.394531"/>
      <use xlink:href="#DejaVuSans-74" x="109.673828"/>
      <use xlink:href="#DejaVuSans-61" x="148.882812"/>
      <use xlink:href="#DejaVuSans-6c" x="210.162109"/>
      <use xlink:href="#DejaVuSans-69" x="237.945312"/>
      <use xlink:href="#DejaVuSans-74" x="265.728516"/>
      <use xlink:href="#DejaVuSans-69" x="304.9375"/>
      <use xlink:href="#DejaVuSans-65" x="332.720703"/>
      <use xlink:href="#DejaVuSans-73" x="394.244141"/>
     </g>
    </g>
   </g>
   <g id="line2d_149">
    <path d="M 99.188068 450.655018 
L 119.58986 450.554637 
L 134.891204 450.239157 
L 141.011742 450.067076 
L 149.172459 449.851975 
L 158.353265 449.507815 
L 162.433624 449.364414 
L 168.554162 449.192334 
L 175.694789 448.862513 
L 185.895685 448.647412 
L 192.016223 448.360612 
L 196.096581 448.260231 
L 201.197029 448.131171 
L 208.337656 447.68663 
L 214.458194 447.514549 
L 238.940345 446.051865 
L 242.000613 445.808085 
L 244.040793 445.679024 
L 253.221599 444.574841 
L 255.261778 444.316721 
L 257.301957 444.245021 
L 260.362226 443.743119 
L 263.422495 443.556699 
L 264.442585 443.513679 
L 266.482764 443.212538 
L 270.563122 442.839697 
L 271.583212 442.839697 
L 272.603302 442.581576 
L 285.864467 440.961152 
L 286.884556 440.946812 
L 288.924735 440.588311 
L 294.025183 440.20113 
L 298.105542 439.856969 
L 302.1859 439.656208 
L 304.226079 439.398088 
L 308.306438 439.082607 
L 316.467155 438.293905 
L 318.507334 438.035784 
L 320.547513 437.878044 
L 321.567603 437.863704 
L 322.587692 437.533883 
L 325.647961 437.118022 
L 328.70823 436.51574 
L 329.72832 436.200259 
L 330.748409 436.042519 
L 331.768499 435.626658 
L 333.808678 435.210797 
L 335.848857 434.967016 
L 336.868947 434.364734 
L 337.889037 434.006233 
L 339.929216 433.088471 
L 341.969395 432.314109 
L 342.989485 432.041648 
L 344.009574 431.310306 
L 346.049753 429.632522 
L 348.089933 428.055118 
L 349.110022 427.252075 
L 350.130112 426.778854 
L 351.150201 425.25881 
L 352.170291 424.111607 
L 353.190381 423.437625 
L 354.21047 422.405143 
L 355.23056 421.186239 
L 357.270739 420.110736 
L 358.290829 417.931051 
L 360.331008 414.374721 
L 362.371187 410.818392 
L 363.391277 410.21611 
L 364.411366 409.355708 
L 365.431456 406.645441 
L 369.511814 397.883677 
L 371.551994 395.962112 
L 372.572083 392.792964 
L 376.652442 383.97384 
L 378.692621 381.865855 
L 379.71271 378.811427 
L 380.7328 376.717781 
L 382.772979 373.147112 
L 383.793069 370.895726 
L 385.833248 369.088881 
L 387.873427 364.543089 
L 388.893517 361.804141 
L 390.933696 357.50213 
L 392.973875 355.881706 
L 393.993965 353.64466 
L 395.014055 352.009895 
L 396.034144 350.590232 
L 398.074323 349.227928 
L 400.114503 347.922985 
L 401.134592 346.675401 
L 402.154682 344.467035 
L 403.174771 342.889631 
L 404.194861 342.014889 
L 405.214951 341.613368 
L 407.25513 340.552205 
L 408.27522 338.300819 
L 410.315399 336.493974 
L 412.355578 334.81619 
L 413.375668 334.543729 
L 414.395757 334.127868 
L 415.415847 332.607824 
L 416.435936 331.933842 
L 417.456026 330.930039 
L 418.476116 330.256058 
L 419.496205 329.381315 
L 420.516295 329.137535 
L 421.536384 329.008474 
L 422.556474 327.832591 
L 423.576564 327.129929 
L 424.596653 326.599348 
L 425.616743 325.308744 
L 426.636832 324.477022 
L 428.677012 324.175881 
L 429.697101 323.315479 
L 431.73728 322.397717 
L 434.797549 321.193153 
L 435.817639 320.949373 
L 436.837729 319.558389 
L 438.877908 318.468546 
L 439.897997 317.694184 
L 440.918087 317.263983 
L 441.938177 317.134923 
L 442.958266 316.848122 
L 443.978356 315.571859 
L 444.998445 314.682776 
L 446.018535 314.037474 
L 448.058714 313.076692 
L 450.098893 312.646491 
L 451.118983 311.972509 
L 452.139073 311.513628 
L 455.199341 309.821503 
L 457.239521 309.348282 
L 458.25961 308.215419 
L 460.29979 306.881795 
L 462.339969 305.419112 
L 463.360058 304.85985 
L 464.380148 304.515689 
L 465.400238 302.837905 
L 466.420327 301.647682 
L 467.440417 301.332201 
L 468.460506 299.998577 
L 469.480596 299.066475 
L 471.520775 298.449853 
L 473.560954 294.319922 
L 476.621223 290.103951 
L 477.641313 289.559029 
L 478.661402 288.827687 
L 479.681492 286.1461 
L 480.701582 284.611716 
L 481.721671 282.661471 
L 483.761851 279.549683 
L 484.78194 279.062121 
L 485.80203 278.302099 
L 486.822119 275.878633 
L 488.862299 272.652124 
L 490.902478 269.956197 
L 491.922567 269.253535 
L 492.942657 268.393133 
L 493.962747 265.482105 
L 494.982836 263.259399 
L 497.023015 259.74609 
L 498.043105 257.953585 
L 499.063195 256.964123 
L 500.083284 255.78824 
L 501.103374 252.963252 
L 505.183732 245.477752 
L 506.203822 244.861131 
L 507.223912 243.900348 
L 508.244001 241.018 
L 510.28418 237.404311 
L 512.32436 234.120442 
L 513.344449 233.575521 
L 514.364539 232.758138 
L 515.384628 229.64635 
L 519.464987 223.709574 
L 520.485076 223.236353 
L 521.505166 222.548031 
L 522.525256 219.766064 
L 523.545345 218.604521 
L 525.585524 215.937274 
L 526.605614 215.492732 
L 528.645793 214.159109 
L 530.685973 212.481324 
L 531.706062 210.129558 
L 532.726152 209.742377 
L 533.746241 208.509134 
L 534.766331 208.279693 
L 535.786421 207.892512 
L 536.80651 206.229068 
L 537.8266 205.383006 
L 540.886869 203.38974 
L 542.927048 203.1603 
L 543.947137 201.955736 
L 547.007406 200.464373 
L 548.027496 200.077191 
L 551.087765 199.51793 
L 552.107854 198.542807 
L 553.127944 198.026566 
L 555.168123 197.524665 
L 557.208302 197.381264 
L 558.228392 196.836343 
L 560.268571 196.162361 
L 561.288661 195.517059 
L 562.30875 195.258939 
L 564.34893 195.115538 
L 565.369019 194.627977 
L 567.409198 194.369856 
L 568.429288 194.154756 
L 572.509646 193.753235 
L 573.529736 193.509454 
L 575.569915 192.821132 
L 577.610094 192.692072 
L 578.630184 192.677732 
L 581.690453 192.347911 
L 583.730632 192.16149 
L 585.770811 192.14715 
L 588.83108 191.659589 
L 589.85117 191.573549 
L 590.871259 191.344108 
L 592.911439 191.329768 
L 593.931528 190.741827 
L 601.072155 190.469366 
L 603.112335 190.268605 
L 610.252962 189.852744 
L 621.473948 189.451223 
L 627.594485 188.920642 
L 628.614575 188.877622 
L 629.634665 188.547801 
L 630.654754 188.4044 
L 632.694933 187.931179 
L 634.735113 187.673059 
L 635.755202 187.601358 
L 636.775292 187.142477 
L 641.87574 185.837534 
L 642.895829 185.722813 
L 643.915919 184.905431 
L 644.936009 184.43221 
L 645.956098 183.743888 
L 646.976188 183.256327 
L 647.996277 182.639705 
L 649.016367 182.424605 
L 650.036457 182.051764 
L 651.056546 180.488699 
L 654.116815 178.179953 
L 655.136905 177.462951 
L 658.197174 176.057628 
L 659.217263 174.322483 
L 660.237353 173.390381 
L 661.257442 172.644699 
L 662.277532 171.612216 
L 663.297622 171.468815 
L 664.317711 170.708793 
L 665.337801 168.715528 
L 666.35789 167.525305 
L 668.39807 165.63242 
L 669.418159 164.499557 
L 670.438249 164.069356 
L 671.458338 163.452734 
L 672.478428 161.473809 
L 673.498518 160.642087 
L 674.518607 160.254906 
L 675.538697 158.835242 
L 676.558786 157.788419 
L 677.578876 157.415578 
L 678.598966 156.841977 
L 679.619055 154.705311 
L 681.659235 152.210144 
L 682.679324 151.206342 
L 683.699414 149.958758 
L 684.719503 149.585917 
L 685.739593 148.969296 
L 686.759683 146.416769 
L 688.799862 143.620461 
L 689.819951 142.272498 
L 690.840041 141.110955 
L 691.860131 140.680754 
L 692.88022 140.107152 
L 693.90031 137.855766 
L 697.980668 132.478252 
L 700.020847 131.245008 
L 701.040937 128.17624 
L 702.061027 126.398076 
L 704.101206 123.142887 
L 705.121296 121.192642 
L 706.141385 120.36092 
L 707.161475 119.787318 
L 708.181564 116.302689 
L 709.201654 114.524524 
L 710.221744 112.316158 
L 711.241833 110.537993 
L 712.261923 108.329628 
L 713.282012 107.669986 
L 714.302102 106.508443 
L 715.322192 102.063031 
L 718.38246 95.667374 
L 719.40255 93.014467 
L 721.442729 91.092902 
L 722.462819 86.303329 
L 723.482908 84.195343 
L 725.523088 78.531028 
L 726.543177 76.021522 
L 727.563267 75.075079 
L 728.583357 73.813156 
L 729.603446 69.855305 
L 730.623536 68.120161 
L 732.663715 63.689089 
L 733.683805 61.695824 
L 734.703894 60.892781 
L 735.723984 59.845959 
L 736.744073 56.203589 
L 737.764163 54.038243 
L 739.804342 50.697014 
L 740.824432 49.19131 
L 740.824432 49.19131 
" clip-path="url(#pf6fad9c6d5)" style="fill: none; stroke: #ff0000; stroke-width: 1.5; stroke-linecap: round"/>
   </g>
   <g id="patch_7">
    <path d="M 67.10625 470.728203 
L 67.10625 29.118125 
" style="fill: none; stroke: #262626; stroke-width: 1.25; stroke-linejoin: miter; stroke-linecap: square"/>
   </g>
   <g id="patch_8">
    <path d="M 772.90625 470.728203 
L 772.90625 29.118125 
" style="fill: none; stroke: #262626; stroke-width: 1.25; stroke-linejoin: miter; stroke-linecap: square"/>
   </g>
   <g id="patch_9">
    <path d="M 67.10625 470.728203 
L 772.90625 470.728203 
" style="fill: none; stroke: #262626; stroke-width: 1.25; stroke-linejoin: miter; stroke-linecap: square"/>
   </g>
   <g id="patch_10">
    <path d="M 67.10625 29.118125 
L 772.90625 29.118125 
" style="fill: none; stroke: #262626; stroke-width: 1.25; stroke-linejoin: miter; stroke-linecap: square"/>
   </g>
   <g id="legend_1">
    <g id="patch_11">
     <path d="M 74.80625 86.355938 
L 154.975625 86.355938 
Q 157.175625 86.355938 157.175625 84.155938 
L 157.175625 36.818125 
Q 157.175625 34.618125 154.975625 34.618125 
L 74.80625 34.618125 
Q 72.60625 34.618125 72.60625 36.818125 
L 72.60625 84.155938 
Q 72.60625 86.355938 74.80625 86.355938 
z
" style="fill: #ffffff; opacity: 0.8; stroke: #cccccc; stroke-linejoin: miter"/>
    </g>
    <g id="line2d_150">
     <path d="M 77.00625 43.526406 
L 88.00625 43.526406 
L 99.00625 43.526406 
" style="fill: none; stroke: #ffa500; stroke-width: 1.5; stroke-linecap: round"/>
    </g>
    <g id="text_43">
     <!-- Infected -->
     <g style="fill: #262626" transform="translate(107.80625 47.376406)scale(0.11 -0.11)">
      <defs>
       <path id="DejaVuSans-49" d="M 628 4666 
L 1259 4666 
L 1259 0 
L 628 0 
L 628 4666 
z
" transform="scale(0.015625)"/>
       <path id="DejaVuSans-6e" d="M 3513 2113 
L 3513 0 
L 2938 0 
L 2938 2094 
Q 2938 2591 2744 2837 
Q 2550 3084 2163 3084 
Q 1697 3084 1428 2787 
Q 1159 2491 1159 1978 
L 1159 0 
L 581 0 
L 581 3500 
L 1159 3500 
L 1159 2956 
Q 1366 3272 1645 3428 
Q 1925 3584 2291 3584 
Q 2894 3584 3203 3211 
Q 3513 2838 3513 2113 
z
" transform="scale(0.015625)"/>
       <path id="DejaVuSans-66" d="M 2375 4863 
L 2375 4384 
L 1825 4384 
Q 1516 4384 1395 4259 
Q 1275 4134 1275 3809 
L 1275 3500 
L 2222 3500 
L 2222 3053 
L 1275 3053 
L 1275 0 
L 697 0 
L 697 3053 
L 147 3053 
L 147 3500 
L 697 3500 
L 697 3744 
Q 697 4328 969 4595 
Q 1241 4863 1831 4863 
L 2375 4863 
z
" transform="scale(0.015625)"/>
       <path id="DejaVuSans-63" d="M 3122 3366 
L 3122 2828 
Q 2878 2963 2633 3030 
Q 2388 3097 2138 3097 
Q 1578 3097 1268 2742 
Q 959 2388 959 1747 
Q 959 1106 1268 751 
Q 1578 397 2138 397 
Q 2388 397 2633 464 
Q 2878 531 3122 666 
L 3122 134 
Q 2881 22 2623 -34 
Q 2366 -91 2075 -91 
Q 1284 -91 818 406 
Q 353 903 353 1747 
Q 353 2603 823 3093 
Q 1294 3584 2113 3584 
Q 2378 3584 2631 3529 
Q 2884 3475 3122 3366 
z
" transform="scale(0.015625)"/>
      </defs>
      <use xlink:href="#DejaVuSans-49"/>
      <use xlink:href="#DejaVuSans-6e" x="29.492188"/>
      <use xlink:href="#DejaVuSans-66" x="92.871094"/>
      <use xlink:href="#DejaVuSans-65" x="128.076172"/>
      <use xlink:href="#DejaVuSans-63" x="189.599609"/>
      <use xlink:href="#DejaVuSans-74" x="244.580078"/>
      <use xlink:href="#DejaVuSans-65" x="283.789062"/>
      <use xlink:href="#DejaVuSans-64" x="345.3125"/>
     </g>
    </g>
    <g id="line2d_151">
     <path d="M 77.00625 59.672344 
L 88.00625 59.672344 
L 99.00625 59.672344 
" style="fill: none; stroke: #008000; stroke-width: 1.5; stroke-linecap: round"/>
    </g>
    <g id="text_44">
     <!-- Cured -->
     <g style="fill: #262626" transform="translate(107.80625 63.522344)scale(0.11 -0.11)">
      <defs>
       <path id="DejaVuSans-72" d="M 2631 2963 
Q 2534 3019 2420 3045 
Q 2306 3072 2169 3072 
Q 1681 3072 1420 2755 
Q 1159 2438 1159 1844 
L 1159 0 
L 581 0 
L 581 3500 
L 1159 3500 
L 1159 2956 
Q 1341 3275 1631 3429 
Q 1922 3584 2338 3584 
Q 2397 3584 2469 3576 
Q 2541 3569 2628 3553 
L 2631 2963 
z
" transform="scale(0.015625)"/>
      </defs>
      <use xlink:href="#DejaVuSans-43"/>
      <use xlink:href="#DejaVuSans-75" x="69.824219"/>
      <use xlink:href="#DejaVuSans-72" x="133.203125"/>
      <use xlink:href="#DejaVuSans-65" x="172.066406"/>
      <use xlink:href="#DejaVuSans-64" x="233.589844"/>
     </g>
    </g>
    <g id="line2d_152">
     <path d="M 77.00625 75.818281 
L 88.00625 75.818281 
L 99.00625 75.818281 
" style="fill: none; stroke: #ff0000; stroke-width: 1.5; stroke-linecap: round"/>
    </g>
    <g id="text_45">
     <!-- Fatal -->
     <g style="fill: #262626" transform="translate(107.80625 79.668281)scale(0.11 -0.11)">
      <use xlink:href="#DejaVuSans-46"/>
      <use xlink:href="#DejaVuSans-61" x="48.394531"/>
      <use xlink:href="#DejaVuSans-74" x="109.673828"/>
      <use xlink:href="#DejaVuSans-61" x="148.882812"/>
      <use xlink:href="#DejaVuSans-6c" x="210.162109"/>
     </g>
    </g>
   </g>
  </g>
 </g>
 <defs>
  <clipPath id="pf6fad9c6d5">
   <rect x="67.10625" y="29.118125" width="705.8" height="441.610078"/>
  </clipPath>
 </defs>
</svg>
