<?xml version="1.0" encoding="utf-8" standalone="no"?>
<!DOCTYPE svg PUBLIC "-//W3C//DTD SVG 1.1//EN"
  "http://www.w3.org/Graphics/SVG/1.1/DTD/svg11.dtd">
<svg xmlns:xlink="http://www.w3.org/1999/xlink" width="837.0775pt" height="547.904678pt" viewBox="0 0 837.0775 547.904678" xmlns="http://www.w3.org/2000/svg" version="1.1">
 <metadata>
  <rdf:RDF xmlns:dc="http://purl.org/dc/elements/1.1/" xmlns:cc="http://creativecommons.org/ns#" xmlns:rdf="http://www.w3.org/1999/02/22-rdf-syntax-ns#">
   <cc:Work>
    <dc:type rdf:resource="http://purl.org/dc/dcmitype/StillImage"/>
    <dc:date>2021-12-02T02:37:05.242488</dc:date>
    <dc:format>image/svg+xml</dc:format>
    <dc:creator>
     <cc:Agent>
      <dc:title>Matplotlib v3.5.0, https://matplotlib.org/</dc:title>
     </cc:Agent>
    </dc:creator>
   </cc:Work>
  </rdf:RDF>
 </metadata>
 <defs>
  <style type="text/css">*{stroke-linejoin: round; stroke-linecap: butt}</style>
 </defs>
 <g id="figure_1">
  <g id="patch_1">
   <path d="M -0 547.904678 
L 837.0775 547.904678 
L 837.0775 0 
L -0 0 
L -0 547.904678 
z
" style="fill: none"/>
  </g>
  <g id="axes_1">
   <g id="patch_2">
    <path d="M 60.1075 470.728203 
L 837.0775 470.728203 
L 837.0775 29.118125 
L 60.1075 29.118125 
L 60.1075 470.728203 
z
" style="fill: none"/>
   </g>
   <g id="matplotlib.axis_1">
    <g id="xtick_1">
     <g id="line2d_1">
      <path d="M 95.424318 470.728203 
L 95.424318 29.118125 
" clip-path="url(#p0679438483)" style="fill: none; stroke: #cccccc; stroke-linecap: round"/>
     </g>
     <g id="line2d_2">
      <defs>
       <path id="m7484074f2a" d="M 0 0 
L 0 6 
" style="stroke: #262626; stroke-width: 1.25"/>
      </defs>
      <g>
       <use xlink:href="#m7484074f2a" x="95.424318" y="470.728203" style="fill: #262626; stroke: #262626; stroke-width: 1.25"/>
      </g>
     </g>
     <g id="text_1">
      <!-- 05.04.2020 -->
      <g style="fill: #262626" transform="translate(49.27179 530.673311)rotate(-45)scale(0.11 -0.11)">
       <defs>
        <path id="DejaVuSans-30" d="M 2034 4250 
Q 1547 4250 1301 3770 
Q 1056 3291 1056 2328 
Q 1056 1369 1301 889 
Q 1547 409 2034 409 
Q 2525 409 2770 889 
Q 3016 1369 3016 2328 
Q 3016 3291 2770 3770 
Q 2525 4250 2034 4250 
z
M 2034 4750 
Q 2819 4750 3233 4129 
Q 3647 3509 3647 2328 
Q 3647 1150 3233 529 
Q 2819 -91 2034 -91 
Q 1250 -91 836 529 
Q 422 1150 422 2328 
Q 422 3509 836 4129 
Q 1250 4750 2034 4750 
z
" transform="scale(0.015625)"/>
        <path id="DejaVuSans-35" d="M 691 4666 
L 3169 4666 
L 3169 4134 
L 1269 4134 
L 1269 2991 
Q 1406 3038 1543 3061 
Q 1681 3084 1819 3084 
Q 2600 3084 3056 2656 
Q 3513 2228 3513 1497 
Q 3513 744 3044 326 
Q 2575 -91 1722 -91 
Q 1428 -91 1123 -41 
Q 819 9 494 109 
L 494 744 
Q 775 591 1075 516 
Q 1375 441 1709 441 
Q 2250 441 2565 725 
Q 2881 1009 2881 1497 
Q 2881 1984 2565 2268 
Q 2250 2553 1709 2553 
Q 1456 2553 1204 2497 
Q 953 2441 691 2322 
L 691 4666 
z
" transform="scale(0.015625)"/>
        <path id="DejaVuSans-2e" d="M 684 794 
L 1344 794 
L 1344 0 
L 684 0 
L 684 794 
z
" transform="scale(0.015625)"/>
        <path id="DejaVuSans-34" d="M 2419 4116 
L 825 1625 
L 2419 1625 
L 2419 4116 
z
M 2253 4666 
L 3047 4666 
L 3047 1625 
L 3713 1625 
L 3713 1100 
L 3047 1100 
L 3047 0 
L 2419 0 
L 2419 1100 
L 313 1100 
L 313 1709 
L 2253 4666 
z
" transform="scale(0.015625)"/>
        <path id="DejaVuSans-32" d="M 1228 531 
L 3431 531 
L 3431 0 
L 469 0 
L 469 531 
Q 828 903 1448 1529 
Q 2069 2156 2228 2338 
Q 2531 2678 2651 2914 
Q 2772 3150 2772 3378 
Q 2772 3750 2511 3984 
Q 2250 4219 1831 4219 
Q 1534 4219 1204 4116 
Q 875 4013 500 3803 
L 500 4441 
Q 881 4594 1212 4672 
Q 1544 4750 1819 4750 
Q 2544 4750 2975 4387 
Q 3406 4025 3406 3419 
Q 3406 3131 3298 2873 
Q 3191 2616 2906 2266 
Q 2828 2175 2409 1742 
Q 1991 1309 1228 531 
z
" transform="scale(0.015625)"/>
       </defs>
       <use xlink:href="#DejaVuSans-30"/>
       <use xlink:href="#DejaVuSans-35" x="63.623047"/>
       <use xlink:href="#DejaVuSans-2e" x="127.246094"/>
       <use xlink:href="#DejaVuSans-30" x="159.033203"/>
       <use xlink:href="#DejaVuSans-34" x="222.65625"/>
       <use xlink:href="#DejaVuSans-2e" x="286.279297"/>
       <use xlink:href="#DejaVuSans-32" x="318.066406"/>
       <use xlink:href="#DejaVuSans-30" x="381.689453"/>
       <use xlink:href="#DejaVuSans-32" x="445.3125"/>
       <use xlink:href="#DejaVuSans-30" x="508.935547"/>
      </g>
     </g>
    </g>
    <g id="xtick_2">
     <g id="line2d_3">
      <path d="M 128.114266 470.728203 
L 128.114266 29.118125 
" clip-path="url(#p0679438483)" style="fill: none; stroke: #cccccc; stroke-linecap: round"/>
     </g>
     <g id="line2d_4">
      <g>
       <use xlink:href="#m7484074f2a" x="128.114266" y="470.728203" style="fill: #262626; stroke: #262626; stroke-width: 1.25"/>
      </g>
     </g>
     <g id="text_2">
      <!-- 03.05.2020 -->
      <g style="fill: #262626" transform="translate(81.961737 530.673311)rotate(-45)scale(0.11 -0.11)">
       <defs>
        <path id="DejaVuSans-33" d="M 2597 2516 
Q 3050 2419 3304 2112 
Q 3559 1806 3559 1356 
Q 3559 666 3084 287 
Q 2609 -91 1734 -91 
Q 1441 -91 1130 -33 
Q 819 25 488 141 
L 488 750 
Q 750 597 1062 519 
Q 1375 441 1716 441 
Q 2309 441 2620 675 
Q 2931 909 2931 1356 
Q 2931 1769 2642 2001 
Q 2353 2234 1838 2234 
L 1294 2234 
L 1294 2753 
L 1863 2753 
Q 2328 2753 2575 2939 
Q 2822 3125 2822 3475 
Q 2822 3834 2567 4026 
Q 2313 4219 1838 4219 
Q 1578 4219 1281 4162 
Q 984 4106 628 3988 
L 628 4550 
Q 988 4650 1302 4700 
Q 1616 4750 1894 4750 
Q 2613 4750 3031 4423 
Q 3450 4097 3450 3541 
Q 3450 3153 3228 2886 
Q 3006 2619 2597 2516 
z
" transform="scale(0.015625)"/>
       </defs>
       <use xlink:href="#DejaVuSans-30"/>
       <use xlink:href="#DejaVuSans-33" x="63.623047"/>
       <use xlink:href="#DejaVuSans-2e" x="127.246094"/>
       <use xlink:href="#DejaVuSans-30" x="159.033203"/>
       <use xlink:href="#DejaVuSans-35" x="222.65625"/>
       <use xlink:href="#DejaVuSans-2e" x="286.279297"/>
       <use xlink:href="#DejaVuSans-32" x="318.066406"/>
       <use xlink:href="#DejaVuSans-30" x="381.689453"/>
       <use xlink:href="#DejaVuSans-32" x="445.3125"/>
       <use xlink:href="#DejaVuSans-30" x="508.935547"/>
      </g>
     </g>
    </g>
    <g id="xtick_3">
     <g id="line2d_5">
      <path d="M 160.804213 470.728203 
L 160.804213 29.118125 
" clip-path="url(#p0679438483)" style="fill: none; stroke: #cccccc; stroke-linecap: round"/>
     </g>
     <g id="line2d_6">
      <g>
       <use xlink:href="#m7484074f2a" x="160.804213" y="470.728203" style="fill: #262626; stroke: #262626; stroke-width: 1.25"/>
      </g>
     </g>
     <g id="text_3">
      <!-- 31.05.2020 -->
      <g style="fill: #262626" transform="translate(114.651685 530.673311)rotate(-45)scale(0.11 -0.11)">
       <defs>
        <path id="DejaVuSans-31" d="M 794 531 
L 1825 531 
L 1825 4091 
L 703 3866 
L 703 4441 
L 1819 4666 
L 2450 4666 
L 2450 531 
L 3481 531 
L 3481 0 
L 794 0 
L 794 531 
z
" transform="scale(0.015625)"/>
       </defs>
       <use xlink:href="#DejaVuSans-33"/>
       <use xlink:href="#DejaVuSans-31" x="63.623047"/>
       <use xlink:href="#DejaVuSans-2e" x="127.246094"/>
       <use xlink:href="#DejaVuSans-30" x="159.033203"/>
       <use xlink:href="#DejaVuSans-35" x="222.65625"/>
       <use xlink:href="#DejaVuSans-2e" x="286.279297"/>
       <use xlink:href="#DejaVuSans-32" x="318.066406"/>
       <use xlink:href="#DejaVuSans-30" x="381.689453"/>
       <use xlink:href="#DejaVuSans-32" x="445.3125"/>
       <use xlink:href="#DejaVuSans-30" x="508.935547"/>
      </g>
     </g>
    </g>
    <g id="xtick_4">
     <g id="line2d_7">
      <path d="M 193.49416 470.728203 
L 193.49416 29.118125 
" clip-path="url(#p0679438483)" style="fill: none; stroke: #cccccc; stroke-linecap: round"/>
     </g>
     <g id="line2d_8">
      <g>
       <use xlink:href="#m7484074f2a" x="193.49416" y="470.728203" style="fill: #262626; stroke: #262626; stroke-width: 1.25"/>
      </g>
     </g>
     <g id="text_4">
      <!-- 28.06.2020 -->
      <g style="fill: #262626" transform="translate(147.341632 530.673311)rotate(-45)scale(0.11 -0.11)">
       <defs>
        <path id="DejaVuSans-38" d="M 2034 2216 
Q 1584 2216 1326 1975 
Q 1069 1734 1069 1313 
Q 1069 891 1326 650 
Q 1584 409 2034 409 
Q 2484 409 2743 651 
Q 3003 894 3003 1313 
Q 3003 1734 2745 1975 
Q 2488 2216 2034 2216 
z
M 1403 2484 
Q 997 2584 770 2862 
Q 544 3141 544 3541 
Q 544 4100 942 4425 
Q 1341 4750 2034 4750 
Q 2731 4750 3128 4425 
Q 3525 4100 3525 3541 
Q 3525 3141 3298 2862 
Q 3072 2584 2669 2484 
Q 3125 2378 3379 2068 
Q 3634 1759 3634 1313 
Q 3634 634 3220 271 
Q 2806 -91 2034 -91 
Q 1263 -91 848 271 
Q 434 634 434 1313 
Q 434 1759 690 2068 
Q 947 2378 1403 2484 
z
M 1172 3481 
Q 1172 3119 1398 2916 
Q 1625 2713 2034 2713 
Q 2441 2713 2670 2916 
Q 2900 3119 2900 3481 
Q 2900 3844 2670 4047 
Q 2441 4250 2034 4250 
Q 1625 4250 1398 4047 
Q 1172 3844 1172 3481 
z
" transform="scale(0.015625)"/>
        <path id="DejaVuSans-36" d="M 2113 2584 
Q 1688 2584 1439 2293 
Q 1191 2003 1191 1497 
Q 1191 994 1439 701 
Q 1688 409 2113 409 
Q 2538 409 2786 701 
Q 3034 994 3034 1497 
Q 3034 2003 2786 2293 
Q 2538 2584 2113 2584 
z
M 3366 4563 
L 3366 3988 
Q 3128 4100 2886 4159 
Q 2644 4219 2406 4219 
Q 1781 4219 1451 3797 
Q 1122 3375 1075 2522 
Q 1259 2794 1537 2939 
Q 1816 3084 2150 3084 
Q 2853 3084 3261 2657 
Q 3669 2231 3669 1497 
Q 3669 778 3244 343 
Q 2819 -91 2113 -91 
Q 1303 -91 875 529 
Q 447 1150 447 2328 
Q 447 3434 972 4092 
Q 1497 4750 2381 4750 
Q 2619 4750 2861 4703 
Q 3103 4656 3366 4563 
z
" transform="scale(0.015625)"/>
       </defs>
       <use xlink:href="#DejaVuSans-32"/>
       <use xlink:href="#DejaVuSans-38" x="63.623047"/>
       <use xlink:href="#DejaVuSans-2e" x="127.246094"/>
       <use xlink:href="#DejaVuSans-30" x="159.033203"/>
       <use xlink:href="#DejaVuSans-36" x="222.65625"/>
       <use xlink:href="#DejaVuSans-2e" x="286.279297"/>
       <use xlink:href="#DejaVuSans-32" x="318.066406"/>
       <use xlink:href="#DejaVuSans-30" x="381.689453"/>
       <use xlink:href="#DejaVuSans-32" x="445.3125"/>
       <use xlink:href="#DejaVuSans-30" x="508.935547"/>
      </g>
     </g>
    </g>
    <g id="xtick_5">
     <g id="line2d_9">
      <path d="M 226.184108 470.728203 
L 226.184108 29.118125 
" clip-path="url(#p0679438483)" style="fill: none; stroke: #cccccc; stroke-linecap: round"/>
     </g>
     <g id="line2d_10">
      <g>
       <use xlink:href="#m7484074f2a" x="226.184108" y="470.728203" style="fill: #262626; stroke: #262626; stroke-width: 1.25"/>
      </g>
     </g>
     <g id="text_5">
      <!-- 26.07.2020 -->
      <g style="fill: #262626" transform="translate(180.03158 530.673311)rotate(-45)scale(0.11 -0.11)">
       <defs>
        <path id="DejaVuSans-37" d="M 525 4666 
L 3525 4666 
L 3525 4397 
L 1831 0 
L 1172 0 
L 2766 4134 
L 525 4134 
L 525 4666 
z
" transform="scale(0.015625)"/>
       </defs>
       <use xlink:href="#DejaVuSans-32"/>
       <use xlink:href="#DejaVuSans-36" x="63.623047"/>
       <use xlink:href="#DejaVuSans-2e" x="127.246094"/>
       <use xlink:href="#DejaVuSans-30" x="159.033203"/>
       <use xlink:href="#DejaVuSans-37" x="222.65625"/>
       <use xlink:href="#DejaVuSans-2e" x="286.279297"/>
       <use xlink:href="#DejaVuSans-32" x="318.066406"/>
       <use xlink:href="#DejaVuSans-30" x="381.689453"/>
       <use xlink:href="#DejaVuSans-32" x="445.3125"/>
       <use xlink:href="#DejaVuSans-30" x="508.935547"/>
      </g>
     </g>
    </g>
    <g id="xtick_6">
     <g id="line2d_11">
      <path d="M 258.874055 470.728203 
L 258.874055 29.118125 
" clip-path="url(#p0679438483)" style="fill: none; stroke: #cccccc; stroke-linecap: round"/>
     </g>
     <g id="line2d_12">
      <g>
       <use xlink:href="#m7484074f2a" x="258.874055" y="470.728203" style="fill: #262626; stroke: #262626; stroke-width: 1.25"/>
      </g>
     </g>
     <g id="text_6">
      <!-- 23.08.2020 -->
      <g style="fill: #262626" transform="translate(212.721527 530.673311)rotate(-45)scale(0.11 -0.11)">
       <use xlink:href="#DejaVuSans-32"/>
       <use xlink:href="#DejaVuSans-33" x="63.623047"/>
       <use xlink:href="#DejaVuSans-2e" x="127.246094"/>
       <use xlink:href="#DejaVuSans-30" x="159.033203"/>
       <use xlink:href="#DejaVuSans-38" x="222.65625"/>
       <use xlink:href="#DejaVuSans-2e" x="286.279297"/>
       <use xlink:href="#DejaVuSans-32" x="318.066406"/>
       <use xlink:href="#DejaVuSans-30" x="381.689453"/>
       <use xlink:href="#DejaVuSans-32" x="445.3125"/>
       <use xlink:href="#DejaVuSans-30" x="508.935547"/>
      </g>
     </g>
    </g>
    <g id="xtick_7">
     <g id="line2d_13">
      <path d="M 291.564003 470.728203 
L 291.564003 29.118125 
" clip-path="url(#p0679438483)" style="fill: none; stroke: #cccccc; stroke-linecap: round"/>
     </g>
     <g id="line2d_14">
      <g>
       <use xlink:href="#m7484074f2a" x="291.564003" y="470.728203" style="fill: #262626; stroke: #262626; stroke-width: 1.25"/>
      </g>
     </g>
     <g id="text_7">
      <!-- 20.09.2020 -->
      <g style="fill: #262626" transform="translate(245.411474 530.673311)rotate(-45)scale(0.11 -0.11)">
       <defs>
        <path id="DejaVuSans-39" d="M 703 97 
L 703 672 
Q 941 559 1184 500 
Q 1428 441 1663 441 
Q 2288 441 2617 861 
Q 2947 1281 2994 2138 
Q 2813 1869 2534 1725 
Q 2256 1581 1919 1581 
Q 1219 1581 811 2004 
Q 403 2428 403 3163 
Q 403 3881 828 4315 
Q 1253 4750 1959 4750 
Q 2769 4750 3195 4129 
Q 3622 3509 3622 2328 
Q 3622 1225 3098 567 
Q 2575 -91 1691 -91 
Q 1453 -91 1209 -44 
Q 966 3 703 97 
z
M 1959 2075 
Q 2384 2075 2632 2365 
Q 2881 2656 2881 3163 
Q 2881 3666 2632 3958 
Q 2384 4250 1959 4250 
Q 1534 4250 1286 3958 
Q 1038 3666 1038 3163 
Q 1038 2656 1286 2365 
Q 1534 2075 1959 2075 
z
" transform="scale(0.015625)"/>
       </defs>
       <use xlink:href="#DejaVuSans-32"/>
       <use xlink:href="#DejaVuSans-30" x="63.623047"/>
       <use xlink:href="#DejaVuSans-2e" x="127.246094"/>
       <use xlink:href="#DejaVuSans-30" x="159.033203"/>
       <use xlink:href="#DejaVuSans-39" x="222.65625"/>
       <use xlink:href="#DejaVuSans-2e" x="286.279297"/>
       <use xlink:href="#DejaVuSans-32" x="318.066406"/>
       <use xlink:href="#DejaVuSans-30" x="381.689453"/>
       <use xlink:href="#DejaVuSans-32" x="445.3125"/>
       <use xlink:href="#DejaVuSans-30" x="508.935547"/>
      </g>
     </g>
    </g>
    <g id="xtick_8">
     <g id="line2d_15">
      <path d="M 324.25395 470.728203 
L 324.25395 29.118125 
" clip-path="url(#p0679438483)" style="fill: none; stroke: #cccccc; stroke-linecap: round"/>
     </g>
     <g id="line2d_16">
      <g>
       <use xlink:href="#m7484074f2a" x="324.25395" y="470.728203" style="fill: #262626; stroke: #262626; stroke-width: 1.25"/>
      </g>
     </g>
     <g id="text_8">
      <!-- 18.10.2020 -->
      <g style="fill: #262626" transform="translate(278.101422 530.673311)rotate(-45)scale(0.11 -0.11)">
       <use xlink:href="#DejaVuSans-31"/>
       <use xlink:href="#DejaVuSans-38" x="63.623047"/>
       <use xlink:href="#DejaVuSans-2e" x="127.246094"/>
       <use xlink:href="#DejaVuSans-31" x="159.033203"/>
       <use xlink:href="#DejaVuSans-30" x="222.65625"/>
       <use xlink:href="#DejaVuSans-2e" x="286.279297"/>
       <use xlink:href="#DejaVuSans-32" x="318.066406"/>
       <use xlink:href="#DejaVuSans-30" x="381.689453"/>
       <use xlink:href="#DejaVuSans-32" x="445.3125"/>
       <use xlink:href="#DejaVuSans-30" x="508.935547"/>
      </g>
     </g>
    </g>
    <g id="xtick_9">
     <g id="line2d_17">
      <path d="M 356.943897 470.728203 
L 356.943897 29.118125 
" clip-path="url(#p0679438483)" style="fill: none; stroke: #cccccc; stroke-linecap: round"/>
     </g>
     <g id="line2d_18">
      <g>
       <use xlink:href="#m7484074f2a" x="356.943897" y="470.728203" style="fill: #262626; stroke: #262626; stroke-width: 1.25"/>
      </g>
     </g>
     <g id="text_9">
      <!-- 15.11.2020 -->
      <g style="fill: #262626" transform="translate(310.791369 530.673311)rotate(-45)scale(0.11 -0.11)">
       <use xlink:href="#DejaVuSans-31"/>
       <use xlink:href="#DejaVuSans-35" x="63.623047"/>
       <use xlink:href="#DejaVuSans-2e" x="127.246094"/>
       <use xlink:href="#DejaVuSans-31" x="159.033203"/>
       <use xlink:href="#DejaVuSans-31" x="222.65625"/>
       <use xlink:href="#DejaVuSans-2e" x="286.279297"/>
       <use xlink:href="#DejaVuSans-32" x="318.066406"/>
       <use xlink:href="#DejaVuSans-30" x="381.689453"/>
       <use xlink:href="#DejaVuSans-32" x="445.3125"/>
       <use xlink:href="#DejaVuSans-30" x="508.935547"/>
      </g>
     </g>
    </g>
    <g id="xtick_10">
     <g id="line2d_19">
      <path d="M 389.633845 470.728203 
L 389.633845 29.118125 
" clip-path="url(#p0679438483)" style="fill: none; stroke: #cccccc; stroke-linecap: round"/>
     </g>
     <g id="line2d_20">
      <g>
       <use xlink:href="#m7484074f2a" x="389.633845" y="470.728203" style="fill: #262626; stroke: #262626; stroke-width: 1.25"/>
      </g>
     </g>
     <g id="text_10">
      <!-- 13.12.2020 -->
      <g style="fill: #262626" transform="translate(343.481317 530.673311)rotate(-45)scale(0.11 -0.11)">
       <use xlink:href="#DejaVuSans-31"/>
       <use xlink:href="#DejaVuSans-33" x="63.623047"/>
       <use xlink:href="#DejaVuSans-2e" x="127.246094"/>
       <use xlink:href="#DejaVuSans-31" x="159.033203"/>
       <use xlink:href="#DejaVuSans-32" x="222.65625"/>
       <use xlink:href="#DejaVuSans-2e" x="286.279297"/>
       <use xlink:href="#DejaVuSans-32" x="318.066406"/>
       <use xlink:href="#DejaVuSans-30" x="381.689453"/>
       <use xlink:href="#DejaVuSans-32" x="445.3125"/>
       <use xlink:href="#DejaVuSans-30" x="508.935547"/>
      </g>
     </g>
    </g>
    <g id="xtick_11">
     <g id="line2d_21">
      <path d="M 422.323792 470.728203 
L 422.323792 29.118125 
" clip-path="url(#p0679438483)" style="fill: none; stroke: #cccccc; stroke-linecap: round"/>
     </g>
     <g id="line2d_22">
      <g>
       <use xlink:href="#m7484074f2a" x="422.323792" y="470.728203" style="fill: #262626; stroke: #262626; stroke-width: 1.25"/>
      </g>
     </g>
     <g id="text_11">
      <!-- 10.01.2021 -->
      <g style="fill: #262626" transform="translate(376.171264 530.673311)rotate(-45)scale(0.11 -0.11)">
       <use xlink:href="#DejaVuSans-31"/>
       <use xlink:href="#DejaVuSans-30" x="63.623047"/>
       <use xlink:href="#DejaVuSans-2e" x="127.246094"/>
       <use xlink:href="#DejaVuSans-30" x="159.033203"/>
       <use xlink:href="#DejaVuSans-31" x="222.65625"/>
       <use xlink:href="#DejaVuSans-2e" x="286.279297"/>
       <use xlink:href="#DejaVuSans-32" x="318.066406"/>
       <use xlink:href="#DejaVuSans-30" x="381.689453"/>
       <use xlink:href="#DejaVuSans-32" x="445.3125"/>
       <use xlink:href="#DejaVuSans-31" x="508.935547"/>
      </g>
     </g>
    </g>
    <g id="xtick_12">
     <g id="line2d_23">
      <path d="M 455.01374 470.728203 
L 455.01374 29.118125 
" clip-path="url(#p0679438483)" style="fill: none; stroke: #cccccc; stroke-linecap: round"/>
     </g>
     <g id="line2d_24">
      <g>
       <use xlink:href="#m7484074f2a" x="455.01374" y="470.728203" style="fill: #262626; stroke: #262626; stroke-width: 1.25"/>
      </g>
     </g>
     <g id="text_12">
      <!-- 07.02.2021 -->
      <g style="fill: #262626" transform="translate(408.861212 530.673311)rotate(-45)scale(0.11 -0.11)">
       <use xlink:href="#DejaVuSans-30"/>
       <use xlink:href="#DejaVuSans-37" x="63.623047"/>
       <use xlink:href="#DejaVuSans-2e" x="127.246094"/>
       <use xlink:href="#DejaVuSans-30" x="159.033203"/>
       <use xlink:href="#DejaVuSans-32" x="222.65625"/>
       <use xlink:href="#DejaVuSans-2e" x="286.279297"/>
       <use xlink:href="#DejaVuSans-32" x="318.066406"/>
       <use xlink:href="#DejaVuSans-30" x="381.689453"/>
       <use xlink:href="#DejaVuSans-32" x="445.3125"/>
       <use xlink:href="#DejaVuSans-31" x="508.935547"/>
      </g>
     </g>
    </g>
    <g id="xtick_13">
     <g id="line2d_25">
      <path d="M 487.703687 470.728203 
L 487.703687 29.118125 
" clip-path="url(#p0679438483)" style="fill: none; stroke: #cccccc; stroke-linecap: round"/>
     </g>
     <g id="line2d_26">
      <g>
       <use xlink:href="#m7484074f2a" x="487.703687" y="470.728203" style="fill: #262626; stroke: #262626; stroke-width: 1.25"/>
      </g>
     </g>
     <g id="text_13">
      <!-- 07.03.2021 -->
      <g style="fill: #262626" transform="translate(441.551159 530.673311)rotate(-45)scale(0.11 -0.11)">
       <use xlink:href="#DejaVuSans-30"/>
       <use xlink:href="#DejaVuSans-37" x="63.623047"/>
       <use xlink:href="#DejaVuSans-2e" x="127.246094"/>
       <use xlink:href="#DejaVuSans-30" x="159.033203"/>
       <use xlink:href="#DejaVuSans-33" x="222.65625"/>
       <use xlink:href="#DejaVuSans-2e" x="286.279297"/>
       <use xlink:href="#DejaVuSans-32" x="318.066406"/>
       <use xlink:href="#DejaVuSans-30" x="381.689453"/>
       <use xlink:href="#DejaVuSans-32" x="445.3125"/>
       <use xlink:href="#DejaVuSans-31" x="508.935547"/>
      </g>
     </g>
    </g>
    <g id="xtick_14">
     <g id="line2d_27">
      <path d="M 520.393634 470.728203 
L 520.393634 29.118125 
" clip-path="url(#p0679438483)" style="fill: none; stroke: #cccccc; stroke-linecap: round"/>
     </g>
     <g id="line2d_28">
      <g>
       <use xlink:href="#m7484074f2a" x="520.393634" y="470.728203" style="fill: #262626; stroke: #262626; stroke-width: 1.25"/>
      </g>
     </g>
     <g id="text_14">
      <!-- 04.04.2021 -->
      <g style="fill: #262626" transform="translate(474.241106 530.673311)rotate(-45)scale(0.11 -0.11)">
       <use xlink:href="#DejaVuSans-30"/>
       <use xlink:href="#DejaVuSans-34" x="63.623047"/>
       <use xlink:href="#DejaVuSans-2e" x="127.246094"/>
       <use xlink:href="#DejaVuSans-30" x="159.033203"/>
       <use xlink:href="#DejaVuSans-34" x="222.65625"/>
       <use xlink:href="#DejaVuSans-2e" x="286.279297"/>
       <use xlink:href="#DejaVuSans-32" x="318.066406"/>
       <use xlink:href="#DejaVuSans-30" x="381.689453"/>
       <use xlink:href="#DejaVuSans-32" x="445.3125"/>
       <use xlink:href="#DejaVuSans-31" x="508.935547"/>
      </g>
     </g>
    </g>
    <g id="xtick_15">
     <g id="line2d_29">
      <path d="M 553.083582 470.728203 
L 553.083582 29.118125 
" clip-path="url(#p0679438483)" style="fill: none; stroke: #cccccc; stroke-linecap: round"/>
     </g>
     <g id="line2d_30">
      <g>
       <use xlink:href="#m7484074f2a" x="553.083582" y="470.728203" style="fill: #262626; stroke: #262626; stroke-width: 1.25"/>
      </g>
     </g>
     <g id="text_15">
      <!-- 02.05.2021 -->
      <g style="fill: #262626" transform="translate(506.931054 530.673311)rotate(-45)scale(0.11 -0.11)">
       <use xlink:href="#DejaVuSans-30"/>
       <use xlink:href="#DejaVuSans-32" x="63.623047"/>
       <use xlink:href="#DejaVuSans-2e" x="127.246094"/>
       <use xlink:href="#DejaVuSans-30" x="159.033203"/>
       <use xlink:href="#DejaVuSans-35" x="222.65625"/>
       <use xlink:href="#DejaVuSans-2e" x="286.279297"/>
       <use xlink:href="#DejaVuSans-32" x="318.066406"/>
       <use xlink:href="#DejaVuSans-30" x="381.689453"/>
       <use xlink:href="#DejaVuSans-32" x="445.3125"/>
       <use xlink:href="#DejaVuSans-31" x="508.935547"/>
      </g>
     </g>
    </g>
    <g id="xtick_16">
     <g id="line2d_31">
      <path d="M 585.773529 470.728203 
L 585.773529 29.118125 
" clip-path="url(#p0679438483)" style="fill: none; stroke: #cccccc; stroke-linecap: round"/>
     </g>
     <g id="line2d_32">
      <g>
       <use xlink:href="#m7484074f2a" x="585.773529" y="470.728203" style="fill: #262626; stroke: #262626; stroke-width: 1.25"/>
      </g>
     </g>
     <g id="text_16">
      <!-- 30.05.2021 -->
      <g style="fill: #262626" transform="translate(539.621001 530.673311)rotate(-45)scale(0.11 -0.11)">
       <use xlink:href="#DejaVuSans-33"/>
       <use xlink:href="#DejaVuSans-30" x="63.623047"/>
       <use xlink:href="#DejaVuSans-2e" x="127.246094"/>
       <use xlink:href="#DejaVuSans-30" x="159.033203"/>
       <use xlink:href="#DejaVuSans-35" x="222.65625"/>
       <use xlink:href="#DejaVuSans-2e" x="286.279297"/>
       <use xlink:href="#DejaVuSans-32" x="318.066406"/>
       <use xlink:href="#DejaVuSans-30" x="381.689453"/>
       <use xlink:href="#DejaVuSans-32" x="445.3125"/>
       <use xlink:href="#DejaVuSans-31" x="508.935547"/>
      </g>
     </g>
    </g>
    <g id="xtick_17">
     <g id="line2d_33">
      <path d="M 618.463477 470.728203 
L 618.463477 29.118125 
" clip-path="url(#p0679438483)" style="fill: none; stroke: #cccccc; stroke-linecap: round"/>
     </g>
     <g id="line2d_34">
      <g>
       <use xlink:href="#m7484074f2a" x="618.463477" y="470.728203" style="fill: #262626; stroke: #262626; stroke-width: 1.25"/>
      </g>
     </g>
     <g id="text_17">
      <!-- 27.06.2021 -->
      <g style="fill: #262626" transform="translate(572.310949 530.673311)rotate(-45)scale(0.11 -0.11)">
       <use xlink:href="#DejaVuSans-32"/>
       <use xlink:href="#DejaVuSans-37" x="63.623047"/>
       <use xlink:href="#DejaVuSans-2e" x="127.246094"/>
       <use xlink:href="#DejaVuSans-30" x="159.033203"/>
       <use xlink:href="#DejaVuSans-36" x="222.65625"/>
       <use xlink:href="#DejaVuSans-2e" x="286.279297"/>
       <use xlink:href="#DejaVuSans-32" x="318.066406"/>
       <use xlink:href="#DejaVuSans-30" x="381.689453"/>
       <use xlink:href="#DejaVuSans-32" x="445.3125"/>
       <use xlink:href="#DejaVuSans-31" x="508.935547"/>
      </g>
     </g>
    </g>
    <g id="xtick_18">
     <g id="line2d_35">
      <path d="M 651.153424 470.728203 
L 651.153424 29.118125 
" clip-path="url(#p0679438483)" style="fill: none; stroke: #cccccc; stroke-linecap: round"/>
     </g>
     <g id="line2d_36">
      <g>
       <use xlink:href="#m7484074f2a" x="651.153424" y="470.728203" style="fill: #262626; stroke: #262626; stroke-width: 1.25"/>
      </g>
     </g>
     <g id="text_18">
      <!-- 25.07.2021 -->
      <g style="fill: #262626" transform="translate(605.000896 530.673311)rotate(-45)scale(0.11 -0.11)">
       <use xlink:href="#DejaVuSans-32"/>
       <use xlink:href="#DejaVuSans-35" x="63.623047"/>
       <use xlink:href="#DejaVuSans-2e" x="127.246094"/>
       <use xlink:href="#DejaVuSans-30" x="159.033203"/>
       <use xlink:href="#DejaVuSans-37" x="222.65625"/>
       <use xlink:href="#DejaVuSans-2e" x="286.279297"/>
       <use xlink:href="#DejaVuSans-32" x="318.066406"/>
       <use xlink:href="#DejaVuSans-30" x="381.689453"/>
       <use xlink:href="#DejaVuSans-32" x="445.3125"/>
       <use xlink:href="#DejaVuSans-31" x="508.935547"/>
      </g>
     </g>
    </g>
    <g id="xtick_19">
     <g id="line2d_37">
      <path d="M 683.843372 470.728203 
L 683.843372 29.118125 
" clip-path="url(#p0679438483)" style="fill: none; stroke: #cccccc; stroke-linecap: round"/>
     </g>
     <g id="line2d_38">
      <g>
       <use xlink:href="#m7484074f2a" x="683.843372" y="470.728203" style="fill: #262626; stroke: #262626; stroke-width: 1.25"/>
      </g>
     </g>
     <g id="text_19">
      <!-- 22.08.2021 -->
      <g style="fill: #262626" transform="translate(637.690843 530.673311)rotate(-45)scale(0.11 -0.11)">
       <use xlink:href="#DejaVuSans-32"/>
       <use xlink:href="#DejaVuSans-32" x="63.623047"/>
       <use xlink:href="#DejaVuSans-2e" x="127.246094"/>
       <use xlink:href="#DejaVuSans-30" x="159.033203"/>
       <use xlink:href="#DejaVuSans-38" x="222.65625"/>
       <use xlink:href="#DejaVuSans-2e" x="286.279297"/>
       <use xlink:href="#DejaVuSans-32" x="318.066406"/>
       <use xlink:href="#DejaVuSans-30" x="381.689453"/>
       <use xlink:href="#DejaVuSans-32" x="445.3125"/>
       <use xlink:href="#DejaVuSans-31" x="508.935547"/>
      </g>
     </g>
    </g>
    <g id="xtick_20">
     <g id="line2d_39">
      <path d="M 716.533319 470.728203 
L 716.533319 29.118125 
" clip-path="url(#p0679438483)" style="fill: none; stroke: #cccccc; stroke-linecap: round"/>
     </g>
     <g id="line2d_40">
      <g>
       <use xlink:href="#m7484074f2a" x="716.533319" y="470.728203" style="fill: #262626; stroke: #262626; stroke-width: 1.25"/>
      </g>
     </g>
     <g id="text_20">
      <!-- 19.09.2021 -->
      <g style="fill: #262626" transform="translate(670.380791 530.673311)rotate(-45)scale(0.11 -0.11)">
       <use xlink:href="#DejaVuSans-31"/>
       <use xlink:href="#DejaVuSans-39" x="63.623047"/>
       <use xlink:href="#DejaVuSans-2e" x="127.246094"/>
       <use xlink:href="#DejaVuSans-30" x="159.033203"/>
       <use xlink:href="#DejaVuSans-39" x="222.65625"/>
       <use xlink:href="#DejaVuSans-2e" x="286.279297"/>
       <use xlink:href="#DejaVuSans-32" x="318.066406"/>
       <use xlink:href="#DejaVuSans-30" x="381.689453"/>
       <use xlink:href="#DejaVuSans-32" x="445.3125"/>
       <use xlink:href="#DejaVuSans-31" x="508.935547"/>
      </g>
     </g>
    </g>
    <g id="xtick_21">
     <g id="line2d_41">
      <path d="M 749.223266 470.728203 
L 749.223266 29.118125 
" clip-path="url(#p0679438483)" style="fill: none; stroke: #cccccc; stroke-linecap: round"/>
     </g>
     <g id="line2d_42">
      <g>
       <use xlink:href="#m7484074f2a" x="749.223266" y="470.728203" style="fill: #262626; stroke: #262626; stroke-width: 1.25"/>
      </g>
     </g>
     <g id="text_21">
      <!-- 17.10.2021 -->
      <g style="fill: #262626" transform="translate(703.070738 530.673311)rotate(-45)scale(0.11 -0.11)">
       <use xlink:href="#DejaVuSans-31"/>
       <use xlink:href="#DejaVuSans-37" x="63.623047"/>
       <use xlink:href="#DejaVuSans-2e" x="127.246094"/>
       <use xlink:href="#DejaVuSans-31" x="159.033203"/>
       <use xlink:href="#DejaVuSans-30" x="222.65625"/>
       <use xlink:href="#DejaVuSans-2e" x="286.279297"/>
       <use xlink:href="#DejaVuSans-32" x="318.066406"/>
       <use xlink:href="#DejaVuSans-30" x="381.689453"/>
       <use xlink:href="#DejaVuSans-32" x="445.3125"/>
       <use xlink:href="#DejaVuSans-31" x="508.935547"/>
      </g>
     </g>
    </g>
    <g id="xtick_22">
     <g id="line2d_43">
      <path d="M 781.913214 470.728203 
L 781.913214 29.118125 
" clip-path="url(#p0679438483)" style="fill: none; stroke: #cccccc; stroke-linecap: round"/>
     </g>
     <g id="line2d_44">
      <g>
       <use xlink:href="#m7484074f2a" x="781.913214" y="470.728203" style="fill: #262626; stroke: #262626; stroke-width: 1.25"/>
      </g>
     </g>
     <g id="text_22">
      <!-- 14.11.2021 -->
      <g style="fill: #262626" transform="translate(735.760686 530.673311)rotate(-45)scale(0.11 -0.11)">
       <use xlink:href="#DejaVuSans-31"/>
       <use xlink:href="#DejaVuSans-34" x="63.623047"/>
       <use xlink:href="#DejaVuSans-2e" x="127.246094"/>
       <use xlink:href="#DejaVuSans-31" x="159.033203"/>
       <use xlink:href="#DejaVuSans-31" x="222.65625"/>
       <use xlink:href="#DejaVuSans-2e" x="286.279297"/>
       <use xlink:href="#DejaVuSans-32" x="318.066406"/>
       <use xlink:href="#DejaVuSans-30" x="381.689453"/>
       <use xlink:href="#DejaVuSans-32" x="445.3125"/>
       <use xlink:href="#DejaVuSans-31" x="508.935547"/>
      </g>
     </g>
    </g>
    <g id="xtick_23">
     <g id="line2d_45">
      <defs>
       <path id="me3bc1901fb" d="M 0 0 
L 0 4 
" style="stroke: #262626"/>
      </defs>
      <g>
       <use xlink:href="#me3bc1901fb" x="61.566873" y="470.728203" style="fill: #262626; stroke: #262626"/>
      </g>
     </g>
    </g>
    <g id="xtick_24">
     <g id="line2d_46">
      <g>
       <use xlink:href="#me3bc1901fb" x="69.73936" y="470.728203" style="fill: #262626; stroke: #262626"/>
      </g>
     </g>
    </g>
    <g id="xtick_25">
     <g id="line2d_47">
      <g>
       <use xlink:href="#me3bc1901fb" x="77.911846" y="470.728203" style="fill: #262626; stroke: #262626"/>
      </g>
     </g>
    </g>
    <g id="xtick_26">
     <g id="line2d_48">
      <g>
       <use xlink:href="#me3bc1901fb" x="86.084333" y="470.728203" style="fill: #262626; stroke: #262626"/>
      </g>
     </g>
    </g>
    <g id="xtick_27">
     <g id="line2d_49">
      <g>
       <use xlink:href="#me3bc1901fb" x="94.25682" y="470.728203" style="fill: #262626; stroke: #262626"/>
      </g>
     </g>
    </g>
    <g id="xtick_28">
     <g id="line2d_50">
      <g>
       <use xlink:href="#me3bc1901fb" x="102.429307" y="470.728203" style="fill: #262626; stroke: #262626"/>
      </g>
     </g>
    </g>
    <g id="xtick_29">
     <g id="line2d_51">
      <g>
       <use xlink:href="#me3bc1901fb" x="110.601794" y="470.728203" style="fill: #262626; stroke: #262626"/>
      </g>
     </g>
    </g>
    <g id="xtick_30">
     <g id="line2d_52">
      <g>
       <use xlink:href="#me3bc1901fb" x="118.774281" y="470.728203" style="fill: #262626; stroke: #262626"/>
      </g>
     </g>
    </g>
    <g id="xtick_31">
     <g id="line2d_53">
      <g>
       <use xlink:href="#me3bc1901fb" x="126.946767" y="470.728203" style="fill: #262626; stroke: #262626"/>
      </g>
     </g>
    </g>
    <g id="xtick_32">
     <g id="line2d_54">
      <g>
       <use xlink:href="#me3bc1901fb" x="135.119254" y="470.728203" style="fill: #262626; stroke: #262626"/>
      </g>
     </g>
    </g>
    <g id="xtick_33">
     <g id="line2d_55">
      <g>
       <use xlink:href="#me3bc1901fb" x="143.291741" y="470.728203" style="fill: #262626; stroke: #262626"/>
      </g>
     </g>
    </g>
    <g id="xtick_34">
     <g id="line2d_56">
      <g>
       <use xlink:href="#me3bc1901fb" x="151.464228" y="470.728203" style="fill: #262626; stroke: #262626"/>
      </g>
     </g>
    </g>
    <g id="xtick_35">
     <g id="line2d_57">
      <g>
       <use xlink:href="#me3bc1901fb" x="159.636715" y="470.728203" style="fill: #262626; stroke: #262626"/>
      </g>
     </g>
    </g>
    <g id="xtick_36">
     <g id="line2d_58">
      <g>
       <use xlink:href="#me3bc1901fb" x="167.809202" y="470.728203" style="fill: #262626; stroke: #262626"/>
      </g>
     </g>
    </g>
    <g id="xtick_37">
     <g id="line2d_59">
      <g>
       <use xlink:href="#me3bc1901fb" x="175.981689" y="470.728203" style="fill: #262626; stroke: #262626"/>
      </g>
     </g>
    </g>
    <g id="xtick_38">
     <g id="line2d_60">
      <g>
       <use xlink:href="#me3bc1901fb" x="184.154175" y="470.728203" style="fill: #262626; stroke: #262626"/>
      </g>
     </g>
    </g>
    <g id="xtick_39">
     <g id="line2d_61">
      <g>
       <use xlink:href="#me3bc1901fb" x="192.326662" y="470.728203" style="fill: #262626; stroke: #262626"/>
      </g>
     </g>
    </g>
    <g id="xtick_40">
     <g id="line2d_62">
      <g>
       <use xlink:href="#me3bc1901fb" x="200.499149" y="470.728203" style="fill: #262626; stroke: #262626"/>
      </g>
     </g>
    </g>
    <g id="xtick_41">
     <g id="line2d_63">
      <g>
       <use xlink:href="#me3bc1901fb" x="208.671636" y="470.728203" style="fill: #262626; stroke: #262626"/>
      </g>
     </g>
    </g>
    <g id="xtick_42">
     <g id="line2d_64">
      <g>
       <use xlink:href="#me3bc1901fb" x="216.844123" y="470.728203" style="fill: #262626; stroke: #262626"/>
      </g>
     </g>
    </g>
    <g id="xtick_43">
     <g id="line2d_65">
      <g>
       <use xlink:href="#me3bc1901fb" x="225.01661" y="470.728203" style="fill: #262626; stroke: #262626"/>
      </g>
     </g>
    </g>
    <g id="xtick_44">
     <g id="line2d_66">
      <g>
       <use xlink:href="#me3bc1901fb" x="233.189097" y="470.728203" style="fill: #262626; stroke: #262626"/>
      </g>
     </g>
    </g>
    <g id="xtick_45">
     <g id="line2d_67">
      <g>
       <use xlink:href="#me3bc1901fb" x="241.361583" y="470.728203" style="fill: #262626; stroke: #262626"/>
      </g>
     </g>
    </g>
    <g id="xtick_46">
     <g id="line2d_68">
      <g>
       <use xlink:href="#me3bc1901fb" x="249.53407" y="470.728203" style="fill: #262626; stroke: #262626"/>
      </g>
     </g>
    </g>
    <g id="xtick_47">
     <g id="line2d_69">
      <g>
       <use xlink:href="#me3bc1901fb" x="257.706557" y="470.728203" style="fill: #262626; stroke: #262626"/>
      </g>
     </g>
    </g>
    <g id="xtick_48">
     <g id="line2d_70">
      <g>
       <use xlink:href="#me3bc1901fb" x="265.879044" y="470.728203" style="fill: #262626; stroke: #262626"/>
      </g>
     </g>
    </g>
    <g id="xtick_49">
     <g id="line2d_71">
      <g>
       <use xlink:href="#me3bc1901fb" x="274.051531" y="470.728203" style="fill: #262626; stroke: #262626"/>
      </g>
     </g>
    </g>
    <g id="xtick_50">
     <g id="line2d_72">
      <g>
       <use xlink:href="#me3bc1901fb" x="282.224018" y="470.728203" style="fill: #262626; stroke: #262626"/>
      </g>
     </g>
    </g>
    <g id="xtick_51">
     <g id="line2d_73">
      <g>
       <use xlink:href="#me3bc1901fb" x="290.396505" y="470.728203" style="fill: #262626; stroke: #262626"/>
      </g>
     </g>
    </g>
    <g id="xtick_52">
     <g id="line2d_74">
      <g>
       <use xlink:href="#me3bc1901fb" x="298.568991" y="470.728203" style="fill: #262626; stroke: #262626"/>
      </g>
     </g>
    </g>
    <g id="xtick_53">
     <g id="line2d_75">
      <g>
       <use xlink:href="#me3bc1901fb" x="306.741478" y="470.728203" style="fill: #262626; stroke: #262626"/>
      </g>
     </g>
    </g>
    <g id="xtick_54">
     <g id="line2d_76">
      <g>
       <use xlink:href="#me3bc1901fb" x="314.913965" y="470.728203" style="fill: #262626; stroke: #262626"/>
      </g>
     </g>
    </g>
    <g id="xtick_55">
     <g id="line2d_77">
      <g>
       <use xlink:href="#me3bc1901fb" x="323.086452" y="470.728203" style="fill: #262626; stroke: #262626"/>
      </g>
     </g>
    </g>
    <g id="xtick_56">
     <g id="line2d_78">
      <g>
       <use xlink:href="#me3bc1901fb" x="331.258939" y="470.728203" style="fill: #262626; stroke: #262626"/>
      </g>
     </g>
    </g>
    <g id="xtick_57">
     <g id="line2d_79">
      <g>
       <use xlink:href="#me3bc1901fb" x="339.431426" y="470.728203" style="fill: #262626; stroke: #262626"/>
      </g>
     </g>
    </g>
    <g id="xtick_58">
     <g id="line2d_80">
      <g>
       <use xlink:href="#me3bc1901fb" x="347.603912" y="470.728203" style="fill: #262626; stroke: #262626"/>
      </g>
     </g>
    </g>
    <g id="xtick_59">
     <g id="line2d_81">
      <g>
       <use xlink:href="#me3bc1901fb" x="355.776399" y="470.728203" style="fill: #262626; stroke: #262626"/>
      </g>
     </g>
    </g>
    <g id="xtick_60">
     <g id="line2d_82">
      <g>
       <use xlink:href="#me3bc1901fb" x="363.948886" y="470.728203" style="fill: #262626; stroke: #262626"/>
      </g>
     </g>
    </g>
    <g id="xtick_61">
     <g id="line2d_83">
      <g>
       <use xlink:href="#me3bc1901fb" x="372.121373" y="470.728203" style="fill: #262626; stroke: #262626"/>
      </g>
     </g>
    </g>
    <g id="xtick_62">
     <g id="line2d_84">
      <g>
       <use xlink:href="#me3bc1901fb" x="380.29386" y="470.728203" style="fill: #262626; stroke: #262626"/>
      </g>
     </g>
    </g>
    <g id="xtick_63">
     <g id="line2d_85">
      <g>
       <use xlink:href="#me3bc1901fb" x="388.466347" y="470.728203" style="fill: #262626; stroke: #262626"/>
      </g>
     </g>
    </g>
    <g id="xtick_64">
     <g id="line2d_86">
      <g>
       <use xlink:href="#me3bc1901fb" x="396.638834" y="470.728203" style="fill: #262626; stroke: #262626"/>
      </g>
     </g>
    </g>
    <g id="xtick_65">
     <g id="line2d_87">
      <g>
       <use xlink:href="#me3bc1901fb" x="404.81132" y="470.728203" style="fill: #262626; stroke: #262626"/>
      </g>
     </g>
    </g>
    <g id="xtick_66">
     <g id="line2d_88">
      <g>
       <use xlink:href="#me3bc1901fb" x="412.983807" y="470.728203" style="fill: #262626; stroke: #262626"/>
      </g>
     </g>
    </g>
    <g id="xtick_67">
     <g id="line2d_89">
      <g>
       <use xlink:href="#me3bc1901fb" x="421.156294" y="470.728203" style="fill: #262626; stroke: #262626"/>
      </g>
     </g>
    </g>
    <g id="xtick_68">
     <g id="line2d_90">
      <g>
       <use xlink:href="#me3bc1901fb" x="429.328781" y="470.728203" style="fill: #262626; stroke: #262626"/>
      </g>
     </g>
    </g>
    <g id="xtick_69">
     <g id="line2d_91">
      <g>
       <use xlink:href="#me3bc1901fb" x="437.501268" y="470.728203" style="fill: #262626; stroke: #262626"/>
      </g>
     </g>
    </g>
    <g id="xtick_70">
     <g id="line2d_92">
      <g>
       <use xlink:href="#me3bc1901fb" x="445.673755" y="470.728203" style="fill: #262626; stroke: #262626"/>
      </g>
     </g>
    </g>
    <g id="xtick_71">
     <g id="line2d_93">
      <g>
       <use xlink:href="#me3bc1901fb" x="453.846242" y="470.728203" style="fill: #262626; stroke: #262626"/>
      </g>
     </g>
    </g>
    <g id="xtick_72">
     <g id="line2d_94">
      <g>
       <use xlink:href="#me3bc1901fb" x="462.018728" y="470.728203" style="fill: #262626; stroke: #262626"/>
      </g>
     </g>
    </g>
    <g id="xtick_73">
     <g id="line2d_95">
      <g>
       <use xlink:href="#me3bc1901fb" x="470.191215" y="470.728203" style="fill: #262626; stroke: #262626"/>
      </g>
     </g>
    </g>
    <g id="xtick_74">
     <g id="line2d_96">
      <g>
       <use xlink:href="#me3bc1901fb" x="478.363702" y="470.728203" style="fill: #262626; stroke: #262626"/>
      </g>
     </g>
    </g>
    <g id="xtick_75">
     <g id="line2d_97">
      <g>
       <use xlink:href="#me3bc1901fb" x="486.536189" y="470.728203" style="fill: #262626; stroke: #262626"/>
      </g>
     </g>
    </g>
    <g id="xtick_76">
     <g id="line2d_98">
      <g>
       <use xlink:href="#me3bc1901fb" x="494.708676" y="470.728203" style="fill: #262626; stroke: #262626"/>
      </g>
     </g>
    </g>
    <g id="xtick_77">
     <g id="line2d_99">
      <g>
       <use xlink:href="#me3bc1901fb" x="502.881163" y="470.728203" style="fill: #262626; stroke: #262626"/>
      </g>
     </g>
    </g>
    <g id="xtick_78">
     <g id="line2d_100">
      <g>
       <use xlink:href="#me3bc1901fb" x="511.05365" y="470.728203" style="fill: #262626; stroke: #262626"/>
      </g>
     </g>
    </g>
    <g id="xtick_79">
     <g id="line2d_101">
      <g>
       <use xlink:href="#me3bc1901fb" x="519.226136" y="470.728203" style="fill: #262626; stroke: #262626"/>
      </g>
     </g>
    </g>
    <g id="xtick_80">
     <g id="line2d_102">
      <g>
       <use xlink:href="#me3bc1901fb" x="527.398623" y="470.728203" style="fill: #262626; stroke: #262626"/>
      </g>
     </g>
    </g>
    <g id="xtick_81">
     <g id="line2d_103">
      <g>
       <use xlink:href="#me3bc1901fb" x="535.57111" y="470.728203" style="fill: #262626; stroke: #262626"/>
      </g>
     </g>
    </g>
    <g id="xtick_82">
     <g id="line2d_104">
      <g>
       <use xlink:href="#me3bc1901fb" x="543.743597" y="470.728203" style="fill: #262626; stroke: #262626"/>
      </g>
     </g>
    </g>
    <g id="xtick_83">
     <g id="line2d_105">
      <g>
       <use xlink:href="#me3bc1901fb" x="551.916084" y="470.728203" style="fill: #262626; stroke: #262626"/>
      </g>
     </g>
    </g>
    <g id="xtick_84">
     <g id="line2d_106">
      <g>
       <use xlink:href="#me3bc1901fb" x="560.088571" y="470.728203" style="fill: #262626; stroke: #262626"/>
      </g>
     </g>
    </g>
    <g id="xtick_85">
     <g id="line2d_107">
      <g>
       <use xlink:href="#me3bc1901fb" x="568.261057" y="470.728203" style="fill: #262626; stroke: #262626"/>
      </g>
     </g>
    </g>
    <g id="xtick_86">
     <g id="line2d_108">
      <g>
       <use xlink:href="#me3bc1901fb" x="576.433544" y="470.728203" style="fill: #262626; stroke: #262626"/>
      </g>
     </g>
    </g>
    <g id="xtick_87">
     <g id="line2d_109">
      <g>
       <use xlink:href="#me3bc1901fb" x="584.606031" y="470.728203" style="fill: #262626; stroke: #262626"/>
      </g>
     </g>
    </g>
    <g id="xtick_88">
     <g id="line2d_110">
      <g>
       <use xlink:href="#me3bc1901fb" x="592.778518" y="470.728203" style="fill: #262626; stroke: #262626"/>
      </g>
     </g>
    </g>
    <g id="xtick_89">
     <g id="line2d_111">
      <g>
       <use xlink:href="#me3bc1901fb" x="600.951005" y="470.728203" style="fill: #262626; stroke: #262626"/>
      </g>
     </g>
    </g>
    <g id="xtick_90">
     <g id="line2d_112">
      <g>
       <use xlink:href="#me3bc1901fb" x="609.123492" y="470.728203" style="fill: #262626; stroke: #262626"/>
      </g>
     </g>
    </g>
    <g id="xtick_91">
     <g id="line2d_113">
      <g>
       <use xlink:href="#me3bc1901fb" x="617.295979" y="470.728203" style="fill: #262626; stroke: #262626"/>
      </g>
     </g>
    </g>
    <g id="xtick_92">
     <g id="line2d_114">
      <g>
       <use xlink:href="#me3bc1901fb" x="625.468465" y="470.728203" style="fill: #262626; stroke: #262626"/>
      </g>
     </g>
    </g>
    <g id="xtick_93">
     <g id="line2d_115">
      <g>
       <use xlink:href="#me3bc1901fb" x="633.640952" y="470.728203" style="fill: #262626; stroke: #262626"/>
      </g>
     </g>
    </g>
    <g id="xtick_94">
     <g id="line2d_116">
      <g>
       <use xlink:href="#me3bc1901fb" x="641.813439" y="470.728203" style="fill: #262626; stroke: #262626"/>
      </g>
     </g>
    </g>
    <g id="xtick_95">
     <g id="line2d_117">
      <g>
       <use xlink:href="#me3bc1901fb" x="649.985926" y="470.728203" style="fill: #262626; stroke: #262626"/>
      </g>
     </g>
    </g>
    <g id="xtick_96">
     <g id="line2d_118">
      <g>
       <use xlink:href="#me3bc1901fb" x="658.158413" y="470.728203" style="fill: #262626; stroke: #262626"/>
      </g>
     </g>
    </g>
    <g id="xtick_97">
     <g id="line2d_119">
      <g>
       <use xlink:href="#me3bc1901fb" x="666.3309" y="470.728203" style="fill: #262626; stroke: #262626"/>
      </g>
     </g>
    </g>
    <g id="xtick_98">
     <g id="line2d_120">
      <g>
       <use xlink:href="#me3bc1901fb" x="674.503387" y="470.728203" style="fill: #262626; stroke: #262626"/>
      </g>
     </g>
    </g>
    <g id="xtick_99">
     <g id="line2d_121">
      <g>
       <use xlink:href="#me3bc1901fb" x="682.675873" y="470.728203" style="fill: #262626; stroke: #262626"/>
      </g>
     </g>
    </g>
    <g id="xtick_100">
     <g id="line2d_122">
      <g>
       <use xlink:href="#me3bc1901fb" x="690.84836" y="470.728203" style="fill: #262626; stroke: #262626"/>
      </g>
     </g>
    </g>
    <g id="xtick_101">
     <g id="line2d_123">
      <g>
       <use xlink:href="#me3bc1901fb" x="699.020847" y="470.728203" style="fill: #262626; stroke: #262626"/>
      </g>
     </g>
    </g>
    <g id="xtick_102">
     <g id="line2d_124">
      <g>
       <use xlink:href="#me3bc1901fb" x="707.193334" y="470.728203" style="fill: #262626; stroke: #262626"/>
      </g>
     </g>
    </g>
    <g id="xtick_103">
     <g id="line2d_125">
      <g>
       <use xlink:href="#me3bc1901fb" x="715.365821" y="470.728203" style="fill: #262626; stroke: #262626"/>
      </g>
     </g>
    </g>
    <g id="xtick_104">
     <g id="line2d_126">
      <g>
       <use xlink:href="#me3bc1901fb" x="723.538308" y="470.728203" style="fill: #262626; stroke: #262626"/>
      </g>
     </g>
    </g>
    <g id="xtick_105">
     <g id="line2d_127">
      <g>
       <use xlink:href="#me3bc1901fb" x="731.710795" y="470.728203" style="fill: #262626; stroke: #262626"/>
      </g>
     </g>
    </g>
    <g id="xtick_106">
     <g id="line2d_128">
      <g>
       <use xlink:href="#me3bc1901fb" x="739.883281" y="470.728203" style="fill: #262626; stroke: #262626"/>
      </g>
     </g>
    </g>
    <g id="xtick_107">
     <g id="line2d_129">
      <g>
       <use xlink:href="#me3bc1901fb" x="748.055768" y="470.728203" style="fill: #262626; stroke: #262626"/>
      </g>
     </g>
    </g>
    <g id="xtick_108">
     <g id="line2d_130">
      <g>
       <use xlink:href="#me3bc1901fb" x="756.228255" y="470.728203" style="fill: #262626; stroke: #262626"/>
      </g>
     </g>
    </g>
    <g id="xtick_109">
     <g id="line2d_131">
      <g>
       <use xlink:href="#me3bc1901fb" x="764.400742" y="470.728203" style="fill: #262626; stroke: #262626"/>
      </g>
     </g>
    </g>
    <g id="xtick_110">
     <g id="line2d_132">
      <g>
       <use xlink:href="#me3bc1901fb" x="772.573229" y="470.728203" style="fill: #262626; stroke: #262626"/>
      </g>
     </g>
    </g>
    <g id="xtick_111">
     <g id="line2d_133">
      <g>
       <use xlink:href="#me3bc1901fb" x="780.745716" y="470.728203" style="fill: #262626; stroke: #262626"/>
      </g>
     </g>
    </g>
    <g id="xtick_112">
     <g id="line2d_134">
      <g>
       <use xlink:href="#me3bc1901fb" x="788.918202" y="470.728203" style="fill: #262626; stroke: #262626"/>
      </g>
     </g>
    </g>
    <g id="xtick_113">
     <g id="line2d_135">
      <g>
       <use xlink:href="#me3bc1901fb" x="797.090689" y="470.728203" style="fill: #262626; stroke: #262626"/>
      </g>
     </g>
    </g>
    <g id="xtick_114">
     <g id="line2d_136">
      <g>
       <use xlink:href="#me3bc1901fb" x="805.263176" y="470.728203" style="fill: #262626; stroke: #262626"/>
      </g>
     </g>
    </g>
    <g id="xtick_115">
     <g id="line2d_137">
      <g>
       <use xlink:href="#me3bc1901fb" x="813.435663" y="470.728203" style="fill: #262626; stroke: #262626"/>
      </g>
     </g>
    </g>
    <g id="xtick_116">
     <g id="line2d_138">
      <g>
       <use xlink:href="#me3bc1901fb" x="821.60815" y="470.728203" style="fill: #262626; stroke: #262626"/>
      </g>
     </g>
    </g>
    <g id="xtick_117">
     <g id="line2d_139">
      <g>
       <use xlink:href="#me3bc1901fb" x="829.780637" y="470.728203" style="fill: #262626; stroke: #262626"/>
      </g>
     </g>
    </g>
    <g id="text_23">
     <!-- Date -->
     <g style="fill: #262626" transform="translate(434.251562 545.409053)scale(0.12 -0.12)">
      <defs>
       <path id="DejaVuSans-44" d="M 1259 4147 
L 1259 519 
L 2022 519 
Q 2988 519 3436 956 
Q 3884 1394 3884 2338 
Q 3884 3275 3436 3711 
Q 2988 4147 2022 4147 
L 1259 4147 
z
M 628 4666 
L 1925 4666 
Q 3281 4666 3915 4102 
Q 4550 3538 4550 2338 
Q 4550 1131 3912 565 
Q 3275 0 1925 0 
L 628 0 
L 628 4666 
z
" transform="scale(0.015625)"/>
       <path id="DejaVuSans-61" d="M 2194 1759 
Q 1497 1759 1228 1600 
Q 959 1441 959 1056 
Q 959 750 1161 570 
Q 1363 391 1709 391 
Q 2188 391 2477 730 
Q 2766 1069 2766 1631 
L 2766 1759 
L 2194 1759 
z
M 3341 1997 
L 3341 0 
L 2766 0 
L 2766 531 
Q 2569 213 2275 61 
Q 1981 -91 1556 -91 
Q 1019 -91 701 211 
Q 384 513 384 1019 
Q 384 1609 779 1909 
Q 1175 2209 1959 2209 
L 2766 2209 
L 2766 2266 
Q 2766 2663 2505 2880 
Q 2244 3097 1772 3097 
Q 1472 3097 1187 3025 
Q 903 2953 641 2809 
L 641 3341 
Q 956 3463 1253 3523 
Q 1550 3584 1831 3584 
Q 2591 3584 2966 3190 
Q 3341 2797 3341 1997 
z
" transform="scale(0.015625)"/>
       <path id="DejaVuSans-74" d="M 1172 4494 
L 1172 3500 
L 2356 3500 
L 2356 3053 
L 1172 3053 
L 1172 1153 
Q 1172 725 1289 603 
Q 1406 481 1766 481 
L 2356 481 
L 2356 0 
L 1766 0 
Q 1100 0 847 248 
Q 594 497 594 1153 
L 594 3053 
L 172 3053 
L 172 3500 
L 594 3500 
L 594 4494 
L 1172 4494 
z
" transform="scale(0.015625)"/>
       <path id="DejaVuSans-65" d="M 3597 1894 
L 3597 1613 
L 953 1613 
Q 991 1019 1311 708 
Q 1631 397 2203 397 
Q 2534 397 2845 478 
Q 3156 559 3463 722 
L 3463 178 
Q 3153 47 2828 -22 
Q 2503 -91 2169 -91 
Q 1331 -91 842 396 
Q 353 884 353 1716 
Q 353 2575 817 3079 
Q 1281 3584 2069 3584 
Q 2775 3584 3186 3129 
Q 3597 2675 3597 1894 
z
M 3022 2063 
Q 3016 2534 2758 2815 
Q 2500 3097 2075 3097 
Q 1594 3097 1305 2825 
Q 1016 2553 972 2059 
L 3022 2063 
z
" transform="scale(0.015625)"/>
      </defs>
      <use xlink:href="#DejaVuSans-44"/>
      <use xlink:href="#DejaVuSans-61" x="77.001953"/>
      <use xlink:href="#DejaVuSans-74" x="138.28125"/>
      <use xlink:href="#DejaVuSans-65" x="177.490234"/>
     </g>
    </g>
   </g>
   <g id="matplotlib.axis_2">
    <g id="ytick_1">
     <g id="line2d_140">
      <path d="M 60.1075 450.956842 
L 837.0775 450.956842 
" clip-path="url(#p0679438483)" style="fill: none; stroke: #cccccc; stroke-linecap: round"/>
     </g>
     <g id="line2d_141">
      <defs>
       <path id="m70c8483c4e" d="M 0 0 
L -6 0 
" style="stroke: #262626; stroke-width: 1.25"/>
      </defs>
      <g>
       <use xlink:href="#m70c8483c4e" x="60.1075" y="450.956842" style="fill: #262626; stroke: #262626; stroke-width: 1.25"/>
      </g>
     </g>
     <g id="text_24">
      <!-- 0 -->
      <g style="fill: #262626" transform="translate(43.60875 455.135982)scale(0.11 -0.11)">
       <use xlink:href="#DejaVuSans-30"/>
      </g>
     </g>
    </g>
    <g id="ytick_2">
     <g id="line2d_142">
      <path d="M 60.1075 375.500831 
L 837.0775 375.500831 
" clip-path="url(#p0679438483)" style="fill: none; stroke: #cccccc; stroke-linecap: round"/>
     </g>
     <g id="line2d_143">
      <g>
       <use xlink:href="#m70c8483c4e" x="60.1075" y="375.500831" style="fill: #262626; stroke: #262626; stroke-width: 1.25"/>
      </g>
     </g>
     <g id="text_25">
      <!-- 2000 -->
      <g style="fill: #262626" transform="translate(22.6125 379.679971)scale(0.11 -0.11)">
       <use xlink:href="#DejaVuSans-32"/>
       <use xlink:href="#DejaVuSans-30" x="63.623047"/>
       <use xlink:href="#DejaVuSans-30" x="127.246094"/>
       <use xlink:href="#DejaVuSans-30" x="190.869141"/>
      </g>
     </g>
    </g>
    <g id="ytick_3">
     <g id="line2d_144">
      <path d="M 60.1075 300.044819 
L 837.0775 300.044819 
" clip-path="url(#p0679438483)" style="fill: none; stroke: #cccccc; stroke-linecap: round"/>
     </g>
     <g id="line2d_145">
      <g>
       <use xlink:href="#m70c8483c4e" x="60.1075" y="300.044819" style="fill: #262626; stroke: #262626; stroke-width: 1.25"/>
      </g>
     </g>
     <g id="text_26">
      <!-- 4000 -->
      <g style="fill: #262626" transform="translate(22.6125 304.22396)scale(0.11 -0.11)">
       <use xlink:href="#DejaVuSans-34"/>
       <use xlink:href="#DejaVuSans-30" x="63.623047"/>
       <use xlink:href="#DejaVuSans-30" x="127.246094"/>
       <use xlink:href="#DejaVuSans-30" x="190.869141"/>
      </g>
     </g>
    </g>
    <g id="ytick_4">
     <g id="line2d_146">
      <path d="M 60.1075 224.588808 
L 837.0775 224.588808 
" clip-path="url(#p0679438483)" style="fill: none; stroke: #cccccc; stroke-linecap: round"/>
     </g>
     <g id="line2d_147">
      <g>
       <use xlink:href="#m70c8483c4e" x="60.1075" y="224.588808" style="fill: #262626; stroke: #262626; stroke-width: 1.25"/>
      </g>
     </g>
     <g id="text_27">
      <!-- 6000 -->
      <g style="fill: #262626" transform="translate(22.6125 228.767949)scale(0.11 -0.11)">
       <use xlink:href="#DejaVuSans-36"/>
       <use xlink:href="#DejaVuSans-30" x="63.623047"/>
       <use xlink:href="#DejaVuSans-30" x="127.246094"/>
       <use xlink:href="#DejaVuSans-30" x="190.869141"/>
      </g>
     </g>
    </g>
    <g id="ytick_5">
     <g id="line2d_148">
      <path d="M 60.1075 149.132797 
L 837.0775 149.132797 
" clip-path="url(#p0679438483)" style="fill: none; stroke: #cccccc; stroke-linecap: round"/>
     </g>
     <g id="line2d_149">
      <g>
       <use xlink:href="#m70c8483c4e" x="60.1075" y="149.132797" style="fill: #262626; stroke: #262626; stroke-width: 1.25"/>
      </g>
     </g>
     <g id="text_28">
      <!-- 8000 -->
      <g style="fill: #262626" transform="translate(22.6125 153.311938)scale(0.11 -0.11)">
       <use xlink:href="#DejaVuSans-38"/>
       <use xlink:href="#DejaVuSans-30" x="63.623047"/>
       <use xlink:href="#DejaVuSans-30" x="127.246094"/>
       <use xlink:href="#DejaVuSans-30" x="190.869141"/>
      </g>
     </g>
    </g>
    <g id="ytick_6">
     <g id="line2d_150">
      <path d="M 60.1075 73.676786 
L 837.0775 73.676786 
" clip-path="url(#p0679438483)" style="fill: none; stroke: #cccccc; stroke-linecap: round"/>
     </g>
     <g id="line2d_151">
      <g>
       <use xlink:href="#m70c8483c4e" x="60.1075" y="73.676786" style="fill: #262626; stroke: #262626; stroke-width: 1.25"/>
      </g>
     </g>
     <g id="text_29">
      <!-- 10000 -->
      <g style="fill: #262626" transform="translate(15.61375 77.855927)scale(0.11 -0.11)">
       <use xlink:href="#DejaVuSans-31"/>
       <use xlink:href="#DejaVuSans-30" x="63.623047"/>
       <use xlink:href="#DejaVuSans-30" x="127.246094"/>
       <use xlink:href="#DejaVuSans-30" x="190.869141"/>
       <use xlink:href="#DejaVuSans-30" x="254.492188"/>
      </g>
     </g>
    </g>
    <g id="text_30">
     <!-- Cases -->
     <g style="fill: #262626" transform="translate(9.118125 267.732851)rotate(-90)scale(0.12 -0.12)">
      <defs>
       <path id="DejaVuSans-43" d="M 4122 4306 
L 4122 3641 
Q 3803 3938 3442 4084 
Q 3081 4231 2675 4231 
Q 1875 4231 1450 3742 
Q 1025 3253 1025 2328 
Q 1025 1406 1450 917 
Q 1875 428 2675 428 
Q 3081 428 3442 575 
Q 3803 722 4122 1019 
L 4122 359 
Q 3791 134 3420 21 
Q 3050 -91 2638 -91 
Q 1578 -91 968 557 
Q 359 1206 359 2328 
Q 359 3453 968 4101 
Q 1578 4750 2638 4750 
Q 3056 4750 3426 4639 
Q 3797 4528 4122 4306 
z
" transform="scale(0.015625)"/>
       <path id="DejaVuSans-73" d="M 2834 3397 
L 2834 2853 
Q 2591 2978 2328 3040 
Q 2066 3103 1784 3103 
Q 1356 3103 1142 2972 
Q 928 2841 928 2578 
Q 928 2378 1081 2264 
Q 1234 2150 1697 2047 
L 1894 2003 
Q 2506 1872 2764 1633 
Q 3022 1394 3022 966 
Q 3022 478 2636 193 
Q 2250 -91 1575 -91 
Q 1294 -91 989 -36 
Q 684 19 347 128 
L 347 722 
Q 666 556 975 473 
Q 1284 391 1588 391 
Q 1994 391 2212 530 
Q 2431 669 2431 922 
Q 2431 1156 2273 1281 
Q 2116 1406 1581 1522 
L 1381 1569 
Q 847 1681 609 1914 
Q 372 2147 372 2553 
Q 372 3047 722 3315 
Q 1072 3584 1716 3584 
Q 2034 3584 2315 3537 
Q 2597 3491 2834 3397 
z
" transform="scale(0.015625)"/>
      </defs>
      <use xlink:href="#DejaVuSans-43"/>
      <use xlink:href="#DejaVuSans-61" x="69.824219"/>
      <use xlink:href="#DejaVuSans-73" x="131.103516"/>
      <use xlink:href="#DejaVuSans-65" x="183.203125"/>
      <use xlink:href="#DejaVuSans-73" x="244.726562"/>
     </g>
    </g>
   </g>
   <g id="line2d_152">
    <path d="M 95.424318 443.033961 
L 96.591816 442.920776 
L 97.759314 442.166216 
L 101.261809 442.241672 
L 103.596805 442.2794 
L 104.764303 443.071689 
L 107.099299 442.392584 
L 108.266798 441.751208 
L 109.434296 441.675752 
L 110.601794 441.185288 
L 111.769292 440.845736 
L 112.93679 440.845736 
L 114.104288 440.355272 
L 115.271786 440.77028 
L 117.606782 439.940264 
L 118.774281 439.940264 
L 119.941779 439.600712 
L 121.109277 439.600712 
L 122.276775 440.128904 
L 123.444273 438.997064 
L 124.611771 438.997064 
L 125.779269 438.846152 
L 128.114266 438.846152 
L 129.281764 439.034792 
L 130.449262 439.034792 
L 131.61676 437.638856 
L 132.784258 437.5634 
L 133.951756 436.6202 
L 135.119254 436.280648 
L 136.286752 436.43156 
L 137.454251 437.072936 
L 138.621749 437.18612 
L 139.789247 437.18612 
L 140.956745 438.846152 
L 143.291741 438.770696 
L 144.459239 438.544328 
L 145.626737 439.676168 
L 146.794236 440.20436 
L 147.961734 440.128904 
L 149.129232 441.223016 
L 150.29673 441.223016 
L 151.464228 442.128488 
L 152.631726 442.09076 
L 153.799224 442.317128 
L 154.966722 442.317128 
L 156.134221 443.486697 
L 157.301719 443.750793 
L 158.469217 444.731721 
L 159.636715 444.882633 
L 160.804213 445.184457 
L 163.139209 445.976745 
L 165.474205 445.335369 
L 166.641704 445.410825 
L 167.809202 445.109001 
L 168.9767 444.995817 
L 170.144198 445.222185 
L 171.311696 444.882633 
L 172.479194 443.901705 
L 173.646692 443.260329 
L 174.81419 442.84532 
L 175.981689 441.638024 
L 177.149187 441.751208 
L 178.316685 441.411656 
L 179.484183 440.883464 
L 180.651681 440.543912 
L 181.819179 440.053448 
L 182.986677 439.110248 
L 184.154175 438.808424 
L 185.321674 438.808424 
L 187.65667 437.299304 
L 188.824168 436.242919 
L 189.991666 436.469288 
L 191.159164 436.167463 
L 192.326662 434.997895 
L 193.49416 434.997895 
L 194.661659 434.582887 
L 195.829157 434.545159 
L 196.996655 434.130151 
L 198.164153 434.243335 
L 199.331651 433.979239 
L 200.499149 433.488775 
L 201.666647 433.677415 
L 204.001644 432.734215 
L 205.169142 432.168295 
L 206.33664 431.149639 
L 207.504138 431.489191 
L 208.671636 430.885543 
L 209.839134 430.772359 
L 211.006632 430.998727 
L 213.341628 429.263238 
L 214.509127 428.999142 
L 215.676625 428.09367 
L 216.844123 428.131398 
L 218.011621 427.942758 
L 219.179119 427.414566 
L 220.346617 427.490022 
L 222.681613 425.867718 
L 223.849112 425.716806 
L 225.01661 424.773606 
L 226.184108 425.226342 
L 227.351606 425.07543 
L 228.519104 424.584966 
L 229.686602 423.717222 
L 232.021598 421.604453 
L 233.189097 421.038533 
L 234.356595 420.246245 
L 235.524093 419.906693 
L 237.859089 418.058021 
L 239.026587 417.982565 
L 240.194085 418.623941 
L 241.361583 418.963493 
L 242.529082 418.925765 
L 244.864078 418.473029 
L 246.031576 419.491685 
L 248.366572 420.359429 
L 249.53407 420.359429 
L 250.701568 420.510341 
L 251.869066 421.981733 
L 253.036565 421.453541 
L 254.204063 422.585381 
L 255.371561 422.057189 
L 256.539059 423.264486 
L 257.706557 422.924934 
L 258.874055 422.849478 
L 260.041553 424.019046 
L 261.209051 423.981318 
L 262.37655 423.00039 
L 264.711546 424.094502 
L 265.879044 423.679494 
L 268.21404 423.528582 
L 269.381538 423.151302 
L 270.549036 422.359013 
L 271.716535 422.132645 
L 272.884033 422.170373 
L 274.051531 422.472197 
L 275.219029 422.057189 
L 276.386527 421.793093 
L 278.721523 422.547653 
L 279.889021 422.81175 
L 281.05652 423.226758 
L 282.224018 423.18903 
L 283.391516 423.038118 
L 284.559014 423.415398 
L 285.726512 423.264486 
L 286.89401 422.887206 
L 288.061508 422.887206 
L 289.229006 423.490854 
L 292.731501 424.019046 
L 293.898999 423.94359 
L 295.066497 423.56631 
L 296.233995 422.887206 
L 297.401493 421.453541 
L 298.568991 421.113989 
L 299.736489 421.000805 
L 300.903988 421.528997 
L 302.071486 420.246245 
L 304.406482 418.623941 
L 305.57398 417.492101 
L 306.741478 416.548901 
L 307.908976 416.360261 
L 309.076474 415.869796 
L 310.243973 414.322948 
L 311.411471 411.983812 
L 312.578969 410.851972 
L 313.746467 408.286467 
L 314.913965 406.098243 
L 317.248961 404.890947 
L 318.416459 401.646338 
L 319.583958 398.892194 
L 320.751456 397.156706 
L 321.918954 396.251234 
L 323.086452 394.968481 
L 324.25395 394.364833 
L 325.421448 392.025697 
L 326.588946 389.347009 
L 327.756444 385.611936 
L 328.923943 383.348256 
L 331.258939 376.406303 
L 332.426437 374.142622 
L 335.928931 363.578781 
L 337.096429 361.3151 
L 338.263927 358.636412 
L 339.431426 352.411291 
L 340.598924 349.845787 
L 341.766422 343.771578 
L 342.93392 340.715609 
L 344.101418 330.566776 
L 345.268916 321.776151 
L 347.603912 310.797301 
L 348.771411 306.760404 
L 351.106407 293.40469 
L 353.441403 271.069711 
L 354.608901 264.240942 
L 355.776399 256.053965 
L 356.943897 252.997996 
L 359.278894 244.848747 
L 360.446392 238.585898 
L 361.61389 229.191625 
L 362.781388 226.777033 
L 363.948886 217.307303 
L 365.116384 211.384006 
L 366.283882 214.402247 
L 367.451381 210.818086 
L 368.618879 203.913861 
L 369.786377 199.876965 
L 370.953875 200.178789 
L 372.121373 193.274564 
L 373.288871 191.803171 
L 374.456369 195.04778 
L 375.623867 200.631525 
L 376.791366 200.631525 
L 377.958864 195.689156 
L 379.126362 196.519172 
L 380.29386 188.407651 
L 381.461358 186.860803 
L 382.628856 193.614116 
L 383.796354 192.935012 
L 384.963852 186.936259 
L 386.13135 183.69165 
L 388.466347 178.409729 
L 389.633845 177.655169 
L 390.801343 185.163042 
L 391.968841 186.973987 
L 393.136339 185.57805 
L 394.303837 190.633603 
L 395.471335 204.404325 
L 396.638834 200.442885 
L 397.806332 201.046533 
L 398.97383 213.760871 
L 400.141328 219.948264 
L 401.308826 235.379018 
L 402.476324 237.001322 
L 403.643822 240.434571 
L 404.81132 241.755051 
L 405.978819 240.774123 
L 407.146317 243.037803 
L 408.313815 261.44907 
L 409.481313 268.692847 
L 410.648811 271.522447 
L 411.816309 271.861999 
L 412.983807 270.390607 
L 414.151305 274.050224 
L 415.318804 284.764977 
L 416.486302 289.25461 
L 417.6538 290.160082 
L 418.821298 290.612818 
L 419.988796 293.02741 
L 421.156294 292.876498 
L 422.323792 292.310578 
L 423.49129 298.309331 
L 424.658789 302.11986 
L 425.826287 312.080053 
L 426.993785 313.966453 
L 428.161283 318.908822 
L 429.328781 319.474742 
L 430.496279 319.474742 
L 431.663777 326.001687 
L 432.831275 329.35948 
L 433.998773 329.472664 
L 435.166272 336.075065 
L 436.33377 343.658394 
L 437.501268 343.16793 
L 438.668766 342.526554 
L 439.836264 344.48841 
L 441.003762 344.639322 
L 442.17126 342.866106 
L 443.338758 342.41337 
L 444.506257 343.507482 
L 446.841253 342.073818 
L 448.008751 343.432026 
L 449.176249 341.507898 
L 451.511245 336.527801 
L 452.678743 335.131865 
L 453.846242 332.755 
L 455.01374 333.019096 
L 456.181238 335.622329 
L 457.348736 332.905912 
L 458.516234 329.095384 
L 459.683732 326.567607 
L 460.85123 325.813047 
L 462.018728 323.624823 
L 463.186227 321.738423 
L 464.353725 321.889335 
L 467.856219 311.212309 
L 470.191215 305.854932 
L 471.358713 304.57218 
L 472.526211 302.572596 
L 473.69371 298.648883 
L 476.028706 286.160913 
L 477.196204 281.105361 
L 478.363702 274.616144 
L 479.5312 271.975183 
L 480.698698 270.730159 
L 481.866196 261.977262 
L 483.033695 258.808109 
L 484.201193 250.734316 
L 487.703687 233.039882 
L 488.871185 228.248425 
L 490.038683 223.947432 
L 491.206181 209.686246 
L 493.541178 193.7273 
L 494.708676 188.822659 
L 495.876174 183.050274 
L 497.043672 176.711969 
L 498.21117 164.223999 
L 499.378668 156.527486 
L 500.546166 146.039101 
L 501.713665 136.607099 
L 502.881163 128.571034 
L 504.048661 124.232313 
L 505.216159 123.138201 
L 506.383657 114.158936 
L 507.551155 106.688791 
L 509.886151 95.181749 
L 511.05365 85.976116 
L 512.221148 79.750995 
L 513.388646 85.787476 
L 514.556144 80.807379 
L 515.723642 70.168081 
L 516.89114 67.942129 
L 518.058638 59.264688 
L 520.393634 49.19131 
L 521.561133 58.510128 
L 522.728631 60.283344 
L 523.896129 57.491472 
L 525.063627 58.434672 
L 526.231125 63.452496 
L 527.398623 59.906064 
L 528.566121 59.264688 
L 529.733619 74.808626 
L 530.901118 81.260115 
L 532.068616 85.561108 
L 533.236114 91.673045 
L 534.403612 104.04783 
L 535.57111 103.708278 
L 536.738608 102.765078 
L 537.906106 117.66764 
L 539.073604 126.57145 
L 540.241103 132.721115 
L 541.408601 137.474843 
L 542.576099 146.378653 
L 543.743597 145.850461 
L 544.911095 146.114557 
L 546.078593 161.620767 
L 547.246091 168.75136 
L 548.413589 180.522498 
L 549.581088 193.500932 
L 550.748586 190.444963 
L 551.916084 194.783684 
L 553.083582 196.141892 
L 554.25108 197.952836 
L 555.418578 199.311045 
L 556.586076 218.627783 
L 557.753574 219.382343 
L 558.921073 230.059369 
L 561.256069 227.908873 
L 562.423567 240.774123 
L 564.758563 252.884812 
L 565.926061 258.015821 
L 567.093559 268.655119 
L 568.261057 268.391023 
L 569.428556 267.674191 
L 570.596054 277.70984 
L 571.763552 285.745905 
L 572.93105 292.46149 
L 574.098548 297.290675 
L 575.266046 305.741748 
L 576.433544 306.949044 
L 577.601042 307.326324 
L 578.768541 308.307253 
L 579.936039 317.663798 
L 581.103537 322.832535 
L 583.438533 330.67996 
L 584.606031 330.340408 
L 585.773529 331.132696 
L 588.108526 339.961049 
L 589.276024 342.262458 
L 590.443522 346.638906 
L 591.61102 351.769915 
L 592.778518 352.147195 
L 593.946016 352.373563 
L 595.113514 355.84454 
L 596.281012 357.881852 
L 597.448511 360.145532 
L 598.616009 362.861949 
L 599.783507 364.559709 
L 600.951005 364.823805 
L 602.118503 364.786077 
L 603.286001 366.483837 
L 605.620997 377.236319 
L 606.788495 384.40464 
L 607.955994 384.857376 
L 609.123492 385.083744 
L 610.29099 385.121472 
L 612.625986 388.705632 
L 613.793484 390.101569 
L 616.12848 391.912513 
L 617.295979 392.063425 
L 618.463477 392.101153 
L 619.630975 393.723457 
L 620.798473 394.553473 
L 621.965971 395.081665 
L 623.133469 396.854882 
L 624.300967 401.41997 
L 625.468465 401.344514 
L 626.635964 403.985475 
L 627.803462 408.173283 
L 628.97096 414.700228 
L 630.138458 414.775684 
L 631.305956 417.190277 
L 632.473454 419.868965 
L 633.640952 419.944421 
L 634.80845 419.793509 
L 635.975949 422.81175 
L 638.310945 423.528582 
L 639.478443 423.00039 
L 640.645941 423.18903 
L 642.980937 422.887206 
L 644.148435 423.075846 
L 645.315934 423.717222 
L 646.483432 423.56631 
L 647.65093 422.962662 
L 648.818428 424.32087 
L 651.153424 423.94359 
L 652.320922 423.453126 
L 653.48842 422.472197 
L 654.655918 422.509925 
L 655.823417 422.132645 
L 656.990915 420.887621 
L 659.325911 420.397157 
L 660.493409 418.850309 
L 661.660907 416.473445 
L 662.828405 414.926596 
L 663.995903 415.681156 
L 665.163402 413.7193 
L 666.3309 412.738372 
L 667.498398 411.002884 
L 668.665896 407.946915 
L 669.833394 405.419139 
L 671.000892 404.853219 
L 672.16839 403.268643 
L 673.335888 397.986722 
L 674.503387 394.742113 
L 675.670885 392.553889 
L 676.838383 388.403808 
L 679.173379 375.463103 
L 681.508375 363.691965 
L 682.675873 360.032348 
L 683.843372 358.447772 
L 685.01087 349.015771 
L 686.178368 342.564282 
L 687.345866 338.338745 
L 688.513364 331.62316 
L 689.680862 328.152184 
L 690.84836 323.851191 
L 692.015858 320.757494 
L 695.518353 304.874004 
L 696.685851 300.610739 
L 697.853349 297.403859 
L 700.188345 293.97061 
L 701.355843 289.330066 
L 702.523341 288.462322 
L 703.69084 284.236785 
L 704.858338 281.180817 
L 706.025836 283.142673 
L 707.193334 278.4644 
L 708.360832 277.068464 
L 709.52833 277.89848 
L 711.863326 278.08712 
L 713.030825 276.38936 
L 714.198323 275.559344 
L 715.365821 273.522031 
L 716.533319 271.748815 
L 717.700817 266.881902 
L 718.868315 264.769134 
L 720.035813 263.863662 
L 721.203311 264.240942 
L 722.37081 263.486382 
L 723.538308 260.807694 
L 724.705806 259.374029 
L 725.873304 260.50587 
L 727.040802 256.582157 
L 728.2083 255.827597 
L 729.375798 254.733485 
L 730.543296 255.450317 
L 732.878293 252.960268 
L 734.045791 254.620301 
L 735.213289 253.903469 
L 736.380787 250.545676 
L 737.548285 248.20654 
L 738.715783 245.226027 
L 739.883281 243.867819 
L 741.050779 243.339627 
L 742.218278 243.264171 
L 743.385776 237.944522 
L 744.553274 235.643114 
L 745.720772 229.606633 
L 746.88827 227.003401 
L 748.055768 223.268328 
L 749.223266 221.796936 
L 750.390764 214.854983 
L 753.893259 201.650181 
L 755.060757 198.745124 
L 756.228255 194.708228 
L 757.395753 190.180867 
L 759.730749 174.599201 
L 760.898248 172.788257 
L 762.065746 165.997216 
L 763.233244 161.205759 
L 764.400742 153.660158 
L 765.56824 150.151453 
L 766.735738 148.000957 
L 767.903236 143.511324 
L 769.070734 141.926748 
L 770.238233 135.097979 
L 771.405731 139.24806 
L 772.573229 135.173435 
L 773.740727 130.608346 
L 774.908225 129.665146 
L 776.075723 129.287866 
L 777.243221 134.117051 
L 778.410719 136.720283 
L 779.578218 143.247228 
L 780.745716 142.417212 
L 781.913214 140.530812 
L 783.080712 152.000126 
L 785.415708 166.336768 
L 787.750704 176.447873 
L 788.918202 174.335105 
L 790.085701 173.391905 
L 791.253199 180.522498 
L 793.588195 192.670916 
L 794.755693 195.99098 
L 795.923191 201.725637 
L 797.090689 199.160133 
L 798.258187 197.915108 
L 799.425686 204.743877 
L 800.593184 206.856646 
L 801.760682 213.194951 
L 801.760682 213.194951 
" clip-path="url(#p0679438483)" style="fill: none; stroke: #ffc0cb; stroke-width: 1.5; stroke-linecap: round"/>
   </g>
   <g id="line2d_153">
    <path d="M 95.424318 449.975914 
L 97.759314 449.938186 
L 98.926813 449.749545 
L 103.596805 449.598633 
L 104.764303 449.86273 
L 105.931801 449.787273 
L 108.266798 449.296809 
L 109.434296 449.296809 
L 110.601794 449.598633 
L 112.93679 449.674089 
L 114.104288 449.447721 
L 115.271786 449.560905 
L 116.439284 449.409993 
L 117.606782 449.409993 
L 118.774281 449.560905 
L 119.941779 449.409993 
L 122.276775 449.485449 
L 125.779269 449.334537 
L 126.946767 449.447721 
L 128.114266 449.447721 
L 129.281764 449.560905 
L 130.449262 449.485449 
L 131.61676 449.523177 
L 133.951756 449.108169 
L 135.119254 448.844073 
L 136.286752 448.768617 
L 137.454251 449.070441 
L 139.789247 449.032713 
L 144.459239 449.334537 
L 145.626737 449.598633 
L 149.129232 449.86273 
L 150.29673 449.86273 
L 151.464228 450.126826 
L 152.631726 450.202282 
L 154.966722 450.126826 
L 158.469217 450.277738 
L 160.804213 450.353194 
L 161.971711 450.202282 
L 163.139209 450.61729 
L 165.474205 450.655018 
L 166.641704 450.504106 
L 168.9767 450.504106 
L 170.144198 450.390922 
L 171.311696 450.466378 
L 172.479194 450.315466 
L 174.81419 450.390922 
L 177.149187 450.390922 
L 181.819179 450.466378 
L 182.986677 450.315466 
L 184.154175 450.466378 
L 187.65667 450.466378 
L 188.824168 450.353194 
L 191.159164 450.277738 
L 192.326662 450.202282 
L 194.661659 449.787273 
L 196.996655 449.749545 
L 202.834145 449.86273 
L 204.001644 449.749545 
L 206.33664 449.900458 
L 207.504138 449.749545 
L 209.839134 449.711817 
L 212.17413 449.938186 
L 214.509127 449.900458 
L 215.676625 449.711817 
L 219.179119 449.674089 
L 220.346617 449.787273 
L 221.514115 450.05137 
L 228.519104 449.447721 
L 230.8541 449.674089 
L 232.021598 449.372265 
L 235.524093 449.334537 
L 236.691591 449.409993 
L 239.026587 449.183625 
L 240.194085 448.881801 
L 243.69658 448.919529 
L 244.864078 448.542249 
L 247.199074 448.579977 
L 249.53407 448.881801 
L 251.869066 448.844073 
L 253.036565 448.655433 
L 254.204063 448.693161 
L 255.371561 448.579977 
L 256.539059 448.202697 
L 258.874055 448.164969 
L 260.041553 448.504521 
L 261.209051 448.542249 
L 262.37655 448.693161 
L 263.544048 448.504521 
L 264.711546 448.730889 
L 268.21404 448.504521 
L 269.381538 448.617705 
L 270.549036 448.579977 
L 271.716535 448.655433 
L 272.884033 448.844073 
L 274.051531 448.806345 
L 276.386527 448.957257 
L 278.721523 448.693161 
L 279.889021 448.881801 
L 281.05652 448.844073 
L 282.224018 448.957257 
L 283.391516 448.957257 
L 289.229006 449.674089 
L 290.396505 449.560905 
L 295.066497 449.86273 
L 296.233995 449.825002 
L 297.401493 449.598633 
L 298.568991 449.598633 
L 299.736489 449.409993 
L 304.406482 449.183625 
L 309.076474 448.730889 
L 311.411471 448.957257 
L 313.746467 448.768617 
L 316.081463 448.617705 
L 317.248961 448.504521 
L 318.416459 448.542249 
L 319.583958 448.429065 
L 320.751456 448.164969 
L 323.086452 447.976329 
L 324.25395 448.164969 
L 325.421448 447.636777 
L 326.588946 447.448137 
L 327.756444 446.919945 
L 328.923943 446.731305 
L 330.091441 446.165385 
L 332.426437 445.448553 
L 333.593935 445.335369 
L 334.761433 445.486281 
L 335.928931 444.844905 
L 337.096429 444.656265 
L 338.263927 444.731721 
L 340.598924 444.580809 
L 341.766422 444.165801 
L 344.101418 441.939848 
L 345.268916 441.52484 
L 346.436414 441.260744 
L 347.603912 440.732552 
L 348.771411 440.694824 
L 349.938909 440.77028 
L 351.106407 440.393 
L 352.273905 440.543912 
L 353.441403 440.242088 
L 354.608901 440.091176 
L 355.776399 439.82708 
L 356.943897 439.902536 
L 358.111396 440.091176 
L 359.278894 439.525256 
L 360.446392 439.147976 
L 361.61389 437.978408 
L 362.781388 436.507016 
L 363.948886 435.563815 
L 365.116384 435.563815 
L 367.451381 436.167463 
L 369.786377 434.733799 
L 370.953875 434.507431 
L 372.121373 434.696071 
L 373.288871 434.733799 
L 374.456369 433.715143 
L 375.623867 432.356935 
L 376.791366 431.225095 
L 377.958864 431.225095 
L 379.126362 431.941927 
L 380.29386 431.489191 
L 381.461358 431.489191 
L 382.628856 431.225095 
L 383.796354 431.564647 
L 384.963852 430.432807 
L 386.13135 430.508263 
L 387.298849 428.772774 
L 388.466347 428.508678 
L 389.633845 428.697318 
L 390.801343 429.074598 
L 391.968841 428.999142 
L 393.136339 429.451878 
L 394.303837 429.565063 
L 395.471335 430.734631 
L 396.638834 430.508263 
L 397.806332 430.734631 
L 398.97383 431.225095 
L 400.141328 431.111911 
L 401.308826 430.847815 
L 403.643822 431.640103 
L 404.81132 431.225095 
L 405.978819 431.225095 
L 407.146317 431.941927 
L 408.313815 433.073767 
L 409.481313 433.337863 
L 414.151305 433.866055 
L 415.318804 435.450631 
L 416.486302 436.129735 
L 417.6538 436.657928 
L 418.821298 436.733384 
L 419.988796 436.6202 
L 422.323792 436.6202 
L 423.49129 436.80884 
L 424.658789 437.110664 
L 425.826287 437.827496 
L 426.993785 438.016136 
L 428.161283 438.016136 
L 429.328781 438.12932 
L 430.496279 438.091592 
L 432.831275 438.959336 
L 433.998773 438.619784 
L 435.166272 439.751624 
L 436.33377 440.242088 
L 437.501268 440.355272 
L 438.668766 440.279816 
L 439.836264 440.430728 
L 441.003762 440.355272 
L 442.17126 440.95892 
L 443.338758 441.260744 
L 445.673755 441.034376 
L 448.008751 440.95892 
L 449.176249 440.430728 
L 450.343747 440.242088 
L 451.511245 440.506184 
L 452.678743 440.543912 
L 453.846242 440.355272 
L 456.181238 440.619368 
L 457.348736 440.921192 
L 458.516234 440.657096 
L 459.683732 439.902536 
L 460.85123 439.487528 
L 463.186227 439.600712 
L 464.353725 440.053448 
L 465.521223 440.242088 
L 466.688721 439.789352 
L 467.856219 439.63844 
L 469.023717 439.034792 
L 470.191215 439.034792 
L 471.358713 438.846152 
L 473.69371 437.789768 
L 474.861208 437.035208 
L 476.028706 436.99748 
L 477.196204 436.695656 
L 478.363702 436.6202 
L 479.5312 436.092007 
L 480.698698 435.337447 
L 481.866196 434.997895 
L 483.033695 434.922439 
L 484.201193 434.356519 
L 485.368691 434.469703 
L 486.536189 433.903783 
L 487.703687 433.752871 
L 488.871185 431.979655 
L 490.038683 432.206023 
L 491.206181 432.055111 
L 492.37368 432.017383 
L 493.541178 431.866471 
L 494.708676 431.262823 
L 495.876174 430.847815 
L 497.043672 429.187782 
L 498.21117 427.867302 
L 499.378668 427.980486 
L 500.546166 425.679078 
L 501.713665 424.962246 
L 502.881163 424.88679 
L 505.216159 424.88679 
L 506.383657 423.453126 
L 507.551155 422.924934 
L 508.718653 421.944005 
L 509.886151 422.623109 
L 511.05365 421.944005 
L 512.221148 421.793093 
L 513.388646 422.585381 
L 514.556144 422.736294 
L 515.723642 421.830821 
L 516.89114 422.774022 
L 519.226136 422.359013 
L 521.561133 423.264486 
L 523.896129 421.642181 
L 525.063627 420.283973 
L 526.231125 420.321701 
L 527.398623 420.736709 
L 528.566121 420.887621 
L 529.733619 421.679909 
L 530.901118 420.812165 
L 532.068616 420.510341 
L 533.236114 420.359429 
L 534.403612 420.736709 
L 535.57111 420.887621 
L 536.738608 421.415813 
L 537.906106 421.528997 
L 539.073604 422.094917 
L 540.241103 421.302629 
L 541.408601 421.491269 
L 542.576099 422.623109 
L 543.743597 423.113574 
L 544.911095 422.81175 
L 546.078593 423.641766 
L 547.246091 424.019046 
L 549.581088 425.226342 
L 550.748586 425.528166 
L 551.916084 425.679078 
L 553.083582 425.980902 
L 555.418578 426.924102 
L 556.586076 428.357766 
L 557.753574 428.810502 
L 558.921073 429.451878 
L 561.256069 429.753703 
L 562.423567 430.017799 
L 563.591065 430.772359 
L 565.926061 431.489191 
L 567.093559 431.941927 
L 569.428556 432.130567 
L 570.596054 432.470119 
L 571.763552 432.658759 
L 572.93105 433.601959 
L 574.098548 434.281063 
L 575.266046 435.224263 
L 577.601042 435.790183 
L 578.768541 435.639271 
L 579.936039 436.507016 
L 581.103537 436.80884 
L 582.271035 436.657928 
L 583.438533 437.110664 
L 585.773529 437.412488 
L 586.941027 437.827496 
L 588.108526 438.808424 
L 589.276024 438.657512 
L 591.61102 439.902536 
L 592.778518 439.902536 
L 593.946016 440.128904 
L 597.448511 441.298472 
L 598.616009 441.411656 
L 599.783507 441.675752 
L 602.118503 441.638024 
L 603.286001 441.826664 
L 604.453499 441.864392 
L 606.788495 442.84532 
L 607.955994 443.109417 
L 610.29099 443.147145 
L 612.625986 443.562153 
L 613.793484 443.373513 
L 614.960982 443.373513 
L 616.12848 443.562153 
L 618.463477 443.524425 
L 619.630975 443.939433 
L 620.798473 444.203529 
L 621.965971 444.203529 
L 623.133469 444.807177 
L 624.300967 445.109001 
L 626.635964 445.222185 
L 627.803462 446.316297 
L 628.97096 446.769033 
L 630.138458 446.693577 
L 632.473454 446.995401 
L 634.80845 447.033129 
L 635.975949 447.372681 
L 644.148435 447.636777 
L 645.315934 447.863145 
L 646.483432 447.938601 
L 647.65093 447.900873 
L 648.818428 448.127241 
L 651.153424 448.051785 
L 652.320922 448.202697 
L 654.655918 447.976329 
L 655.823417 447.976329 
L 656.990915 448.127241 
L 662.828405 447.561321 
L 663.995903 447.599049 
L 665.163402 447.523593 
L 666.3309 447.259497 
L 667.498398 447.221769 
L 668.665896 447.410409 
L 671.000892 446.882217 
L 672.16839 446.957673 
L 673.335888 446.278569 
L 676.838383 445.486281 
L 679.173379 444.392169 
L 680.340877 443.637609 
L 681.508375 443.675337 
L 683.843372 443.335785 
L 685.01087 442.543496 
L 686.178368 441.600296 
L 688.513364 440.430728 
L 689.680862 439.713896 
L 692.015858 439.713896 
L 693.183356 439.600712 
L 694.350855 438.732968 
L 695.518353 438.431144 
L 697.853349 438.355688 
L 699.020847 438.204776 
L 700.188345 438.431144 
L 701.355843 438.167048 
L 702.523341 438.544328 
L 703.69084 437.261576 
L 704.858338 436.695656 
L 706.025836 436.733384 
L 707.193334 436.6202 
L 708.360832 436.884296 
L 709.52833 436.99748 
L 710.695828 436.393832 
L 711.863326 436.016551 
L 715.365821 436.016551 
L 717.700817 436.318376 
L 718.868315 435.676999 
L 720.035813 435.676999 
L 721.203311 435.337447 
L 724.705806 435.186535 
L 728.2083 433.677415 
L 729.375798 433.526503 
L 731.710795 433.413319 
L 732.878293 433.526503 
L 734.045791 434.167879 
L 735.213289 433.601959 
L 736.380787 433.790599 
L 737.548285 433.488775 
L 738.715783 433.526503 
L 739.883281 433.262407 
L 742.218278 433.149223 
L 743.385776 432.658759 
L 744.553274 432.583303 
L 745.720772 432.356935 
L 746.88827 431.753287 
L 748.055768 431.640103 
L 749.223266 431.640103 
L 750.390764 430.696903 
L 751.558263 429.904615 
L 752.725761 429.565063 
L 753.893259 428.697318 
L 756.228255 428.244582 
L 757.395753 428.320038 
L 758.563251 428.018214 
L 760.898248 428.055942 
L 762.065746 426.20727 
L 763.233244 425.45271 
L 764.400742 425.113158 
L 765.56824 425.301798 
L 766.735738 425.716806 
L 767.903236 424.69815 
L 769.070734 423.981318 
L 770.238233 424.169958 
L 771.405731 423.641766 
L 772.573229 423.339942 
L 773.740727 423.339942 
L 774.908225 423.679494 
L 776.075723 422.774022 
L 777.243221 422.283557 
L 780.745716 422.849478 
L 781.913214 422.585381 
L 783.080712 423.604038 
L 784.24821 422.019461 
L 785.415708 422.245829 
L 786.583206 421.717637 
L 788.918202 422.321285 
L 790.085701 422.283557 
L 791.253199 421.717637 
L 792.420697 421.642181 
L 793.588195 420.887621 
L 795.923191 421.566725 
L 797.090689 421.415813 
L 798.258187 422.434469 
L 799.425686 423.679494 
L 800.593184 423.905862 
L 801.760682 424.773606 
L 801.760682 424.773606 
" clip-path="url(#p0679438483)" style="fill: none; stroke: #800080; stroke-width: 1.5; stroke-linecap: round"/>
   </g>
   <g id="line2d_154"/>
   <g id="line2d_155"/>
   <g id="patch_3">
    <path d="M 60.1075 470.728203 
L 60.1075 29.118125 
" style="fill: none; stroke: #262626; stroke-width: 1.25; stroke-linejoin: miter; stroke-linecap: square"/>
   </g>
   <g id="patch_4">
    <path d="M 837.0775 470.728203 
L 837.0775 29.118125 
" style="fill: none; stroke: #262626; stroke-width: 1.25; stroke-linejoin: miter; stroke-linecap: square"/>
   </g>
   <g id="patch_5">
    <path d="M 60.1075 470.728203 
L 837.0775 470.728203 
" style="fill: none; stroke: #262626; stroke-width: 1.25; stroke-linejoin: miter; stroke-linecap: square"/>
   </g>
   <g id="patch_6">
    <path d="M 60.1075 29.118125 
L 837.0775 29.118125 
" style="fill: none; stroke: #262626; stroke-width: 1.25; stroke-linejoin: miter; stroke-linecap: square"/>
   </g>
   <g id="text_31">
    <!-- Last update: 02.12.2021 -->
    <g style="fill: #262626" transform="translate(387.093672 22.493974)scale(0.09996 -0.09996)">
     <defs>
      <path id="DejaVuSans-4c" d="M 628 4666 
L 1259 4666 
L 1259 531 
L 3531 531 
L 3531 0 
L 628 0 
L 628 4666 
z
" transform="scale(0.015625)"/>
      <path id="DejaVuSans-20" transform="scale(0.015625)"/>
      <path id="DejaVuSans-75" d="M 544 1381 
L 544 3500 
L 1119 3500 
L 1119 1403 
Q 1119 906 1312 657 
Q 1506 409 1894 409 
Q 2359 409 2629 706 
Q 2900 1003 2900 1516 
L 2900 3500 
L 3475 3500 
L 3475 0 
L 2900 0 
L 2900 538 
Q 2691 219 2414 64 
Q 2138 -91 1772 -91 
Q 1169 -91 856 284 
Q 544 659 544 1381 
z
M 1991 3584 
L 1991 3584 
z
" transform="scale(0.015625)"/>
      <path id="DejaVuSans-70" d="M 1159 525 
L 1159 -1331 
L 581 -1331 
L 581 3500 
L 1159 3500 
L 1159 2969 
Q 1341 3281 1617 3432 
Q 1894 3584 2278 3584 
Q 2916 3584 3314 3078 
Q 3713 2572 3713 1747 
Q 3713 922 3314 415 
Q 2916 -91 2278 -91 
Q 1894 -91 1617 61 
Q 1341 213 1159 525 
z
M 3116 1747 
Q 3116 2381 2855 2742 
Q 2594 3103 2138 3103 
Q 1681 3103 1420 2742 
Q 1159 2381 1159 1747 
Q 1159 1113 1420 752 
Q 1681 391 2138 391 
Q 2594 391 2855 752 
Q 3116 1113 3116 1747 
z
" transform="scale(0.015625)"/>
      <path id="DejaVuSans-64" d="M 2906 2969 
L 2906 4863 
L 3481 4863 
L 3481 0 
L 2906 0 
L 2906 525 
Q 2725 213 2448 61 
Q 2172 -91 1784 -91 
Q 1150 -91 751 415 
Q 353 922 353 1747 
Q 353 2572 751 3078 
Q 1150 3584 1784 3584 
Q 2172 3584 2448 3432 
Q 2725 3281 2906 2969 
z
M 947 1747 
Q 947 1113 1208 752 
Q 1469 391 1925 391 
Q 2381 391 2643 752 
Q 2906 1113 2906 1747 
Q 2906 2381 2643 2742 
Q 2381 3103 1925 3103 
Q 1469 3103 1208 2742 
Q 947 2381 947 1747 
z
" transform="scale(0.015625)"/>
      <path id="DejaVuSans-3a" d="M 750 794 
L 1409 794 
L 1409 0 
L 750 0 
L 750 794 
z
M 750 3309 
L 1409 3309 
L 1409 2516 
L 750 2516 
L 750 3309 
z
" transform="scale(0.015625)"/>
     </defs>
     <use xlink:href="#DejaVuSans-4c"/>
     <use xlink:href="#DejaVuSans-61" x="55.712891"/>
     <use xlink:href="#DejaVuSans-73" x="116.992188"/>
     <use xlink:href="#DejaVuSans-74" x="169.091797"/>
     <use xlink:href="#DejaVuSans-20" x="208.300781"/>
     <use xlink:href="#DejaVuSans-75" x="240.087891"/>
     <use xlink:href="#DejaVuSans-70" x="303.466797"/>
     <use xlink:href="#DejaVuSans-64" x="366.943359"/>
     <use xlink:href="#DejaVuSans-61" x="430.419922"/>
     <use xlink:href="#DejaVuSans-74" x="491.699219"/>
     <use xlink:href="#DejaVuSans-65" x="530.908203"/>
     <use xlink:href="#DejaVuSans-3a" x="592.431641"/>
     <use xlink:href="#DejaVuSans-20" x="626.123047"/>
     <use xlink:href="#DejaVuSans-30" x="657.910156"/>
     <use xlink:href="#DejaVuSans-32" x="721.533203"/>
     <use xlink:href="#DejaVuSans-2e" x="785.15625"/>
     <use xlink:href="#DejaVuSans-31" x="816.943359"/>
     <use xlink:href="#DejaVuSans-32" x="880.566406"/>
     <use xlink:href="#DejaVuSans-2e" x="944.189453"/>
     <use xlink:href="#DejaVuSans-32" x="975.976562"/>
     <use xlink:href="#DejaVuSans-30" x="1039.599609"/>
     <use xlink:href="#DejaVuSans-32" x="1103.222656"/>
     <use xlink:href="#DejaVuSans-31" x="1166.845703"/>
    </g>
   </g>
   <g id="text_32">
    <!-- Disease timeline -->
    <g style="fill: #262626" transform="translate(392.434375 9.118125)scale(0.12 -0.12)">
     <defs>
      <path id="DejaVuSans-Bold-44" d="M 1791 3756 
L 1791 909 
L 2222 909 
Q 2959 909 3348 1275 
Q 3738 1641 3738 2338 
Q 3738 3031 3350 3393 
Q 2963 3756 2222 3756 
L 1791 3756 
z
M 588 4666 
L 1856 4666 
Q 2919 4666 3439 4514 
Q 3959 4363 4331 4000 
Q 4659 3684 4818 3271 
Q 4978 2859 4978 2338 
Q 4978 1809 4818 1395 
Q 4659 981 4331 666 
Q 3956 303 3431 151 
Q 2906 0 1856 0 
L 588 0 
L 588 4666 
z
" transform="scale(0.015625)"/>
      <path id="DejaVuSans-Bold-69" d="M 538 3500 
L 1656 3500 
L 1656 0 
L 538 0 
L 538 3500 
z
M 538 4863 
L 1656 4863 
L 1656 3950 
L 538 3950 
L 538 4863 
z
" transform="scale(0.015625)"/>
      <path id="DejaVuSans-Bold-73" d="M 3272 3391 
L 3272 2541 
Q 2913 2691 2578 2766 
Q 2244 2841 1947 2841 
Q 1628 2841 1473 2761 
Q 1319 2681 1319 2516 
Q 1319 2381 1436 2309 
Q 1553 2238 1856 2203 
L 2053 2175 
Q 2913 2066 3209 1816 
Q 3506 1566 3506 1031 
Q 3506 472 3093 190 
Q 2681 -91 1863 -91 
Q 1516 -91 1145 -36 
Q 775 19 384 128 
L 384 978 
Q 719 816 1070 734 
Q 1422 653 1784 653 
Q 2113 653 2278 743 
Q 2444 834 2444 1013 
Q 2444 1163 2330 1236 
Q 2216 1309 1875 1350 
L 1678 1375 
Q 931 1469 631 1722 
Q 331 1975 331 2491 
Q 331 3047 712 3315 
Q 1094 3584 1881 3584 
Q 2191 3584 2531 3537 
Q 2872 3491 3272 3391 
z
" transform="scale(0.015625)"/>
      <path id="DejaVuSans-Bold-65" d="M 4031 1759 
L 4031 1441 
L 1416 1441 
Q 1456 1047 1700 850 
Q 1944 653 2381 653 
Q 2734 653 3104 758 
Q 3475 863 3866 1075 
L 3866 213 
Q 3469 63 3072 -14 
Q 2675 -91 2278 -91 
Q 1328 -91 801 392 
Q 275 875 275 1747 
Q 275 2603 792 3093 
Q 1309 3584 2216 3584 
Q 3041 3584 3536 3087 
Q 4031 2591 4031 1759 
z
M 2881 2131 
Q 2881 2450 2695 2645 
Q 2509 2841 2209 2841 
Q 1884 2841 1681 2658 
Q 1478 2475 1428 2131 
L 2881 2131 
z
" transform="scale(0.015625)"/>
      <path id="DejaVuSans-Bold-61" d="M 2106 1575 
Q 1756 1575 1579 1456 
Q 1403 1338 1403 1106 
Q 1403 894 1545 773 
Q 1688 653 1941 653 
Q 2256 653 2472 879 
Q 2688 1106 2688 1447 
L 2688 1575 
L 2106 1575 
z
M 3816 1997 
L 3816 0 
L 2688 0 
L 2688 519 
Q 2463 200 2181 54 
Q 1900 -91 1497 -91 
Q 953 -91 614 226 
Q 275 544 275 1050 
Q 275 1666 698 1953 
Q 1122 2241 2028 2241 
L 2688 2241 
L 2688 2328 
Q 2688 2594 2478 2717 
Q 2269 2841 1825 2841 
Q 1466 2841 1156 2769 
Q 847 2697 581 2553 
L 581 3406 
Q 941 3494 1303 3539 
Q 1666 3584 2028 3584 
Q 2975 3584 3395 3211 
Q 3816 2838 3816 1997 
z
" transform="scale(0.015625)"/>
      <path id="DejaVuSans-Bold-20" transform="scale(0.015625)"/>
      <path id="DejaVuSans-Bold-74" d="M 1759 4494 
L 1759 3500 
L 2913 3500 
L 2913 2700 
L 1759 2700 
L 1759 1216 
Q 1759 972 1856 886 
Q 1953 800 2241 800 
L 2816 800 
L 2816 0 
L 1856 0 
Q 1194 0 917 276 
Q 641 553 641 1216 
L 641 2700 
L 84 2700 
L 84 3500 
L 641 3500 
L 641 4494 
L 1759 4494 
z
" transform="scale(0.015625)"/>
      <path id="DejaVuSans-Bold-6d" d="M 3781 2919 
Q 3994 3244 4286 3414 
Q 4578 3584 4928 3584 
Q 5531 3584 5847 3212 
Q 6163 2841 6163 2131 
L 6163 0 
L 5038 0 
L 5038 1825 
Q 5041 1866 5042 1909 
Q 5044 1953 5044 2034 
Q 5044 2406 4934 2573 
Q 4825 2741 4581 2741 
Q 4263 2741 4089 2478 
Q 3916 2216 3909 1719 
L 3909 0 
L 2784 0 
L 2784 1825 
Q 2784 2406 2684 2573 
Q 2584 2741 2328 2741 
Q 2006 2741 1831 2477 
Q 1656 2213 1656 1722 
L 1656 0 
L 531 0 
L 531 3500 
L 1656 3500 
L 1656 2988 
Q 1863 3284 2130 3434 
Q 2397 3584 2719 3584 
Q 3081 3584 3359 3409 
Q 3638 3234 3781 2919 
z
" transform="scale(0.015625)"/>
      <path id="DejaVuSans-Bold-6c" d="M 538 4863 
L 1656 4863 
L 1656 0 
L 538 0 
L 538 4863 
z
" transform="scale(0.015625)"/>
      <path id="DejaVuSans-Bold-6e" d="M 4056 2131 
L 4056 0 
L 2931 0 
L 2931 347 
L 2931 1631 
Q 2931 2084 2911 2256 
Q 2891 2428 2841 2509 
Q 2775 2619 2662 2680 
Q 2550 2741 2406 2741 
Q 2056 2741 1856 2470 
Q 1656 2200 1656 1722 
L 1656 0 
L 538 0 
L 538 3500 
L 1656 3500 
L 1656 2988 
Q 1909 3294 2193 3439 
Q 2478 3584 2822 3584 
Q 3428 3584 3742 3212 
Q 4056 2841 4056 2131 
z
" transform="scale(0.015625)"/>
     </defs>
     <use xlink:href="#DejaVuSans-Bold-44"/>
     <use xlink:href="#DejaVuSans-Bold-69" x="83.007812"/>
     <use xlink:href="#DejaVuSans-Bold-73" x="117.285156"/>
     <use xlink:href="#DejaVuSans-Bold-65" x="176.806641"/>
     <use xlink:href="#DejaVuSans-Bold-61" x="244.628906"/>
     <use xlink:href="#DejaVuSans-Bold-73" x="312.109375"/>
     <use xlink:href="#DejaVuSans-Bold-65" x="371.630859"/>
     <use xlink:href="#DejaVuSans-Bold-20" x="439.453125"/>
     <use xlink:href="#DejaVuSans-Bold-74" x="474.267578"/>
     <use xlink:href="#DejaVuSans-Bold-69" x="522.070312"/>
     <use xlink:href="#DejaVuSans-Bold-6d" x="556.347656"/>
     <use xlink:href="#DejaVuSans-Bold-65" x="660.546875"/>
     <use xlink:href="#DejaVuSans-Bold-6c" x="728.369141"/>
     <use xlink:href="#DejaVuSans-Bold-69" x="762.646484"/>
     <use xlink:href="#DejaVuSans-Bold-6e" x="796.923828"/>
     <use xlink:href="#DejaVuSans-Bold-65" x="868.115234"/>
    </g>
   </g>
   <g id="legend_1">
    <g id="patch_7">
     <path d="M 716.515781 70.21 
L 829.3775 70.21 
Q 831.5775 70.21 831.5775 68.01 
L 831.5775 36.818125 
Q 831.5775 34.618125 829.3775 34.618125 
L 716.515781 34.618125 
Q 714.315781 34.618125 714.315781 36.818125 
L 714.315781 68.01 
Q 714.315781 70.21 716.515781 70.21 
z
" style="fill: #ffffff; opacity: 0.8; stroke: #cccccc; stroke-linejoin: miter"/>
    </g>
    <g id="line2d_156">
     <path d="M 718.715781 43.526406 
L 729.715781 43.526406 
L 740.715781 43.526406 
" style="fill: none; stroke: #ffc0cb; stroke-width: 1.5; stroke-linecap: round"/>
    </g>
    <g id="text_33">
     <!-- Hospitalized -->
     <g style="fill: #262626" transform="translate(749.515781 47.376406)scale(0.11 -0.11)">
      <defs>
       <path id="DejaVuSans-48" d="M 628 4666 
L 1259 4666 
L 1259 2753 
L 3553 2753 
L 3553 4666 
L 4184 4666 
L 4184 0 
L 3553 0 
L 3553 2222 
L 1259 2222 
L 1259 0 
L 628 0 
L 628 4666 
z
" transform="scale(0.015625)"/>
       <path id="DejaVuSans-6f" d="M 1959 3097 
Q 1497 3097 1228 2736 
Q 959 2375 959 1747 
Q 959 1119 1226 758 
Q 1494 397 1959 397 
Q 2419 397 2687 759 
Q 2956 1122 2956 1747 
Q 2956 2369 2687 2733 
Q 2419 3097 1959 3097 
z
M 1959 3584 
Q 2709 3584 3137 3096 
Q 3566 2609 3566 1747 
Q 3566 888 3137 398 
Q 2709 -91 1959 -91 
Q 1206 -91 779 398 
Q 353 888 353 1747 
Q 353 2609 779 3096 
Q 1206 3584 1959 3584 
z
" transform="scale(0.015625)"/>
       <path id="DejaVuSans-69" d="M 603 3500 
L 1178 3500 
L 1178 0 
L 603 0 
L 603 3500 
z
M 603 4863 
L 1178 4863 
L 1178 4134 
L 603 4134 
L 603 4863 
z
" transform="scale(0.015625)"/>
       <path id="DejaVuSans-6c" d="M 603 4863 
L 1178 4863 
L 1178 0 
L 603 0 
L 603 4863 
z
" transform="scale(0.015625)"/>
       <path id="DejaVuSans-7a" d="M 353 3500 
L 3084 3500 
L 3084 2975 
L 922 459 
L 3084 459 
L 3084 0 
L 275 0 
L 275 525 
L 2438 3041 
L 353 3041 
L 353 3500 
z
" transform="scale(0.015625)"/>
      </defs>
      <use xlink:href="#DejaVuSans-48"/>
      <use xlink:href="#DejaVuSans-6f" x="75.195312"/>
      <use xlink:href="#DejaVuSans-73" x="136.376953"/>
      <use xlink:href="#DejaVuSans-70" x="188.476562"/>
      <use xlink:href="#DejaVuSans-69" x="251.953125"/>
      <use xlink:href="#DejaVuSans-74" x="279.736328"/>
      <use xlink:href="#DejaVuSans-61" x="318.945312"/>
      <use xlink:href="#DejaVuSans-6c" x="380.224609"/>
      <use xlink:href="#DejaVuSans-69" x="408.007812"/>
      <use xlink:href="#DejaVuSans-7a" x="435.791016"/>
      <use xlink:href="#DejaVuSans-65" x="488.28125"/>
      <use xlink:href="#DejaVuSans-64" x="549.804688"/>
     </g>
    </g>
    <g id="line2d_157">
     <path d="M 718.715781 59.672344 
L 729.715781 59.672344 
L 740.715781 59.672344 
" style="fill: none; stroke: #800080; stroke-width: 1.5; stroke-linecap: round"/>
    </g>
    <g id="text_34">
     <!-- Intensive care -->
     <g style="fill: #262626" transform="translate(749.515781 63.522344)scale(0.11 -0.11)">
      <defs>
       <path id="DejaVuSans-49" d="M 628 4666 
L 1259 4666 
L 1259 0 
L 628 0 
L 628 4666 
z
" transform="scale(0.015625)"/>
       <path id="DejaVuSans-6e" d="M 3513 2113 
L 3513 0 
L 2938 0 
L 2938 2094 
Q 2938 2591 2744 2837 
Q 2550 3084 2163 3084 
Q 1697 3084 1428 2787 
Q 1159 2491 1159 1978 
L 1159 0 
L 581 0 
L 581 3500 
L 1159 3500 
L 1159 2956 
Q 1366 3272 1645 3428 
Q 1925 3584 2291 3584 
Q 2894 3584 3203 3211 
Q 3513 2838 3513 2113 
z
" transform="scale(0.015625)"/>
       <path id="DejaVuSans-76" d="M 191 3500 
L 800 3500 
L 1894 563 
L 2988 3500 
L 3597 3500 
L 2284 0 
L 1503 0 
L 191 3500 
z
" transform="scale(0.015625)"/>
       <path id="DejaVuSans-63" d="M 3122 3366 
L 3122 2828 
Q 2878 2963 2633 3030 
Q 2388 3097 2138 3097 
Q 1578 3097 1268 2742 
Q 959 2388 959 1747 
Q 959 1106 1268 751 
Q 1578 397 2138 397 
Q 2388 397 2633 464 
Q 2878 531 3122 666 
L 3122 134 
Q 2881 22 2623 -34 
Q 2366 -91 2075 -91 
Q 1284 -91 818 406 
Q 353 903 353 1747 
Q 353 2603 823 3093 
Q 1294 3584 2113 3584 
Q 2378 3584 2631 3529 
Q 2884 3475 3122 3366 
z
" transform="scale(0.015625)"/>
       <path id="DejaVuSans-72" d="M 2631 2963 
Q 2534 3019 2420 3045 
Q 2306 3072 2169 3072 
Q 1681 3072 1420 2755 
Q 1159 2438 1159 1844 
L 1159 0 
L 581 0 
L 581 3500 
L 1159 3500 
L 1159 2956 
Q 1341 3275 1631 3429 
Q 1922 3584 2338 3584 
Q 2397 3584 2469 3576 
Q 2541 3569 2628 3553 
L 2631 2963 
z
" transform="scale(0.015625)"/>
      </defs>
      <use xlink:href="#DejaVuSans-49"/>
      <use xlink:href="#DejaVuSans-6e" x="29.492188"/>
      <use xlink:href="#DejaVuSans-74" x="92.871094"/>
      <use xlink:href="#DejaVuSans-65" x="132.080078"/>
      <use xlink:href="#DejaVuSans-6e" x="193.603516"/>
      <use xlink:href="#DejaVuSans-73" x="256.982422"/>
      <use xlink:href="#DejaVuSans-69" x="309.082031"/>
      <use xlink:href="#DejaVuSans-76" x="336.865234"/>
      <use xlink:href="#DejaVuSans-65" x="396.044922"/>
      <use xlink:href="#DejaVuSans-20" x="457.568359"/>
      <use xlink:href="#DejaVuSans-63" x="489.355469"/>
      <use xlink:href="#DejaVuSans-61" x="544.335938"/>
      <use xlink:href="#DejaVuSans-72" x="605.615234"/>
      <use xlink:href="#DejaVuSans-65" x="644.478516"/>
     </g>
    </g>
   </g>
  </g>
 </g>
 <defs>
  <clipPath id="p0679438483">
   <rect x="60.1075" y="29.118125" width="776.97" height="441.610078"/>
  </clipPath>
 </defs>
</svg>
