<?xml version="1.0" encoding="utf-8" standalone="no"?>
<!DOCTYPE svg PUBLIC "-//W3C//DTD SVG 1.1//EN"
  "http://www.w3.org/Graphics/SVG/1.1/DTD/svg11.dtd">
<svg xmlns:xlink="http://www.w3.org/1999/xlink" width="837.0775pt" height="547.904678pt" viewBox="0 0 837.0775 547.904678" xmlns="http://www.w3.org/2000/svg" version="1.1">
 <metadata>
  <rdf:RDF xmlns:dc="http://purl.org/dc/elements/1.1/" xmlns:cc="http://creativecommons.org/ns#" xmlns:rdf="http://www.w3.org/1999/02/22-rdf-syntax-ns#">
   <cc:Work>
    <dc:type rdf:resource="http://purl.org/dc/dcmitype/StillImage"/>
    <dc:date>2021-11-30T01:52:03.818849</dc:date>
    <dc:format>image/svg+xml</dc:format>
    <dc:creator>
     <cc:Agent>
      <dc:title>Matplotlib v3.5.0, https://matplotlib.org/</dc:title>
     </cc:Agent>
    </dc:creator>
   </cc:Work>
  </rdf:RDF>
 </metadata>
 <defs>
  <style type="text/css">*{stroke-linejoin: round; stroke-linecap: butt}</style>
 </defs>
 <g id="figure_1">
  <g id="patch_1">
   <path d="M -0 547.904678 
L 837.0775 547.904678 
L 837.0775 0 
L -0 0 
L -0 547.904678 
z
" style="fill: none"/>
  </g>
  <g id="axes_1">
   <g id="patch_2">
    <path d="M 60.1075 470.728203 
L 837.0775 470.728203 
L 837.0775 29.118125 
L 60.1075 29.118125 
L 60.1075 470.728203 
z
" style="fill: none"/>
   </g>
   <g id="matplotlib.axis_1">
    <g id="xtick_1">
     <g id="line2d_1">
      <path d="M 95.424318 470.728203 
L 95.424318 29.118125 
" clip-path="url(#pa675f45d9d)" style="fill: none; stroke: #cccccc; stroke-linecap: round"/>
     </g>
     <g id="line2d_2">
      <defs>
       <path id="m6cb0fecb4f" d="M 0 0 
L 0 6 
" style="stroke: #262626; stroke-width: 1.25"/>
      </defs>
      <g>
       <use xlink:href="#m6cb0fecb4f" x="95.424318" y="470.728203" style="fill: #262626; stroke: #262626; stroke-width: 1.25"/>
      </g>
     </g>
     <g id="text_1">
      <!-- 05.04.2020 -->
      <g style="fill: #262626" transform="translate(49.27179 530.673311)rotate(-45)scale(0.11 -0.11)">
       <defs>
        <path id="DejaVuSans-30" d="M 2034 4250 
Q 1547 4250 1301 3770 
Q 1056 3291 1056 2328 
Q 1056 1369 1301 889 
Q 1547 409 2034 409 
Q 2525 409 2770 889 
Q 3016 1369 3016 2328 
Q 3016 3291 2770 3770 
Q 2525 4250 2034 4250 
z
M 2034 4750 
Q 2819 4750 3233 4129 
Q 3647 3509 3647 2328 
Q 3647 1150 3233 529 
Q 2819 -91 2034 -91 
Q 1250 -91 836 529 
Q 422 1150 422 2328 
Q 422 3509 836 4129 
Q 1250 4750 2034 4750 
z
" transform="scale(0.015625)"/>
        <path id="DejaVuSans-35" d="M 691 4666 
L 3169 4666 
L 3169 4134 
L 1269 4134 
L 1269 2991 
Q 1406 3038 1543 3061 
Q 1681 3084 1819 3084 
Q 2600 3084 3056 2656 
Q 3513 2228 3513 1497 
Q 3513 744 3044 326 
Q 2575 -91 1722 -91 
Q 1428 -91 1123 -41 
Q 819 9 494 109 
L 494 744 
Q 775 591 1075 516 
Q 1375 441 1709 441 
Q 2250 441 2565 725 
Q 2881 1009 2881 1497 
Q 2881 1984 2565 2268 
Q 2250 2553 1709 2553 
Q 1456 2553 1204 2497 
Q 953 2441 691 2322 
L 691 4666 
z
" transform="scale(0.015625)"/>
        <path id="DejaVuSans-2e" d="M 684 794 
L 1344 794 
L 1344 0 
L 684 0 
L 684 794 
z
" transform="scale(0.015625)"/>
        <path id="DejaVuSans-34" d="M 2419 4116 
L 825 1625 
L 2419 1625 
L 2419 4116 
z
M 2253 4666 
L 3047 4666 
L 3047 1625 
L 3713 1625 
L 3713 1100 
L 3047 1100 
L 3047 0 
L 2419 0 
L 2419 1100 
L 313 1100 
L 313 1709 
L 2253 4666 
z
" transform="scale(0.015625)"/>
        <path id="DejaVuSans-32" d="M 1228 531 
L 3431 531 
L 3431 0 
L 469 0 
L 469 531 
Q 828 903 1448 1529 
Q 2069 2156 2228 2338 
Q 2531 2678 2651 2914 
Q 2772 3150 2772 3378 
Q 2772 3750 2511 3984 
Q 2250 4219 1831 4219 
Q 1534 4219 1204 4116 
Q 875 4013 500 3803 
L 500 4441 
Q 881 4594 1212 4672 
Q 1544 4750 1819 4750 
Q 2544 4750 2975 4387 
Q 3406 4025 3406 3419 
Q 3406 3131 3298 2873 
Q 3191 2616 2906 2266 
Q 2828 2175 2409 1742 
Q 1991 1309 1228 531 
z
" transform="scale(0.015625)"/>
       </defs>
       <use xlink:href="#DejaVuSans-30"/>
       <use xlink:href="#DejaVuSans-35" x="63.623047"/>
       <use xlink:href="#DejaVuSans-2e" x="127.246094"/>
       <use xlink:href="#DejaVuSans-30" x="159.033203"/>
       <use xlink:href="#DejaVuSans-34" x="222.65625"/>
       <use xlink:href="#DejaVuSans-2e" x="286.279297"/>
       <use xlink:href="#DejaVuSans-32" x="318.066406"/>
       <use xlink:href="#DejaVuSans-30" x="381.689453"/>
       <use xlink:href="#DejaVuSans-32" x="445.3125"/>
       <use xlink:href="#DejaVuSans-30" x="508.935547"/>
      </g>
     </g>
    </g>
    <g id="xtick_2">
     <g id="line2d_3">
      <path d="M 128.22269 470.728203 
L 128.22269 29.118125 
" clip-path="url(#pa675f45d9d)" style="fill: none; stroke: #cccccc; stroke-linecap: round"/>
     </g>
     <g id="line2d_4">
      <g>
       <use xlink:href="#m6cb0fecb4f" x="128.22269" y="470.728203" style="fill: #262626; stroke: #262626; stroke-width: 1.25"/>
      </g>
     </g>
     <g id="text_2">
      <!-- 03.05.2020 -->
      <g style="fill: #262626" transform="translate(82.070162 530.673311)rotate(-45)scale(0.11 -0.11)">
       <defs>
        <path id="DejaVuSans-33" d="M 2597 2516 
Q 3050 2419 3304 2112 
Q 3559 1806 3559 1356 
Q 3559 666 3084 287 
Q 2609 -91 1734 -91 
Q 1441 -91 1130 -33 
Q 819 25 488 141 
L 488 750 
Q 750 597 1062 519 
Q 1375 441 1716 441 
Q 2309 441 2620 675 
Q 2931 909 2931 1356 
Q 2931 1769 2642 2001 
Q 2353 2234 1838 2234 
L 1294 2234 
L 1294 2753 
L 1863 2753 
Q 2328 2753 2575 2939 
Q 2822 3125 2822 3475 
Q 2822 3834 2567 4026 
Q 2313 4219 1838 4219 
Q 1578 4219 1281 4162 
Q 984 4106 628 3988 
L 628 4550 
Q 988 4650 1302 4700 
Q 1616 4750 1894 4750 
Q 2613 4750 3031 4423 
Q 3450 4097 3450 3541 
Q 3450 3153 3228 2886 
Q 3006 2619 2597 2516 
z
" transform="scale(0.015625)"/>
       </defs>
       <use xlink:href="#DejaVuSans-30"/>
       <use xlink:href="#DejaVuSans-33" x="63.623047"/>
       <use xlink:href="#DejaVuSans-2e" x="127.246094"/>
       <use xlink:href="#DejaVuSans-30" x="159.033203"/>
       <use xlink:href="#DejaVuSans-35" x="222.65625"/>
       <use xlink:href="#DejaVuSans-2e" x="286.279297"/>
       <use xlink:href="#DejaVuSans-32" x="318.066406"/>
       <use xlink:href="#DejaVuSans-30" x="381.689453"/>
       <use xlink:href="#DejaVuSans-32" x="445.3125"/>
       <use xlink:href="#DejaVuSans-30" x="508.935547"/>
      </g>
     </g>
    </g>
    <g id="xtick_3">
     <g id="line2d_5">
      <path d="M 161.021062 470.728203 
L 161.021062 29.118125 
" clip-path="url(#pa675f45d9d)" style="fill: none; stroke: #cccccc; stroke-linecap: round"/>
     </g>
     <g id="line2d_6">
      <g>
       <use xlink:href="#m6cb0fecb4f" x="161.021062" y="470.728203" style="fill: #262626; stroke: #262626; stroke-width: 1.25"/>
      </g>
     </g>
     <g id="text_3">
      <!-- 31.05.2020 -->
      <g style="fill: #262626" transform="translate(114.868534 530.673311)rotate(-45)scale(0.11 -0.11)">
       <defs>
        <path id="DejaVuSans-31" d="M 794 531 
L 1825 531 
L 1825 4091 
L 703 3866 
L 703 4441 
L 1819 4666 
L 2450 4666 
L 2450 531 
L 3481 531 
L 3481 0 
L 794 0 
L 794 531 
z
" transform="scale(0.015625)"/>
       </defs>
       <use xlink:href="#DejaVuSans-33"/>
       <use xlink:href="#DejaVuSans-31" x="63.623047"/>
       <use xlink:href="#DejaVuSans-2e" x="127.246094"/>
       <use xlink:href="#DejaVuSans-30" x="159.033203"/>
       <use xlink:href="#DejaVuSans-35" x="222.65625"/>
       <use xlink:href="#DejaVuSans-2e" x="286.279297"/>
       <use xlink:href="#DejaVuSans-32" x="318.066406"/>
       <use xlink:href="#DejaVuSans-30" x="381.689453"/>
       <use xlink:href="#DejaVuSans-32" x="445.3125"/>
       <use xlink:href="#DejaVuSans-30" x="508.935547"/>
      </g>
     </g>
    </g>
    <g id="xtick_4">
     <g id="line2d_7">
      <path d="M 193.819434 470.728203 
L 193.819434 29.118125 
" clip-path="url(#pa675f45d9d)" style="fill: none; stroke: #cccccc; stroke-linecap: round"/>
     </g>
     <g id="line2d_8">
      <g>
       <use xlink:href="#m6cb0fecb4f" x="193.819434" y="470.728203" style="fill: #262626; stroke: #262626; stroke-width: 1.25"/>
      </g>
     </g>
     <g id="text_4">
      <!-- 28.06.2020 -->
      <g style="fill: #262626" transform="translate(147.666905 530.673311)rotate(-45)scale(0.11 -0.11)">
       <defs>
        <path id="DejaVuSans-38" d="M 2034 2216 
Q 1584 2216 1326 1975 
Q 1069 1734 1069 1313 
Q 1069 891 1326 650 
Q 1584 409 2034 409 
Q 2484 409 2743 651 
Q 3003 894 3003 1313 
Q 3003 1734 2745 1975 
Q 2488 2216 2034 2216 
z
M 1403 2484 
Q 997 2584 770 2862 
Q 544 3141 544 3541 
Q 544 4100 942 4425 
Q 1341 4750 2034 4750 
Q 2731 4750 3128 4425 
Q 3525 4100 3525 3541 
Q 3525 3141 3298 2862 
Q 3072 2584 2669 2484 
Q 3125 2378 3379 2068 
Q 3634 1759 3634 1313 
Q 3634 634 3220 271 
Q 2806 -91 2034 -91 
Q 1263 -91 848 271 
Q 434 634 434 1313 
Q 434 1759 690 2068 
Q 947 2378 1403 2484 
z
M 1172 3481 
Q 1172 3119 1398 2916 
Q 1625 2713 2034 2713 
Q 2441 2713 2670 2916 
Q 2900 3119 2900 3481 
Q 2900 3844 2670 4047 
Q 2441 4250 2034 4250 
Q 1625 4250 1398 4047 
Q 1172 3844 1172 3481 
z
" transform="scale(0.015625)"/>
        <path id="DejaVuSans-36" d="M 2113 2584 
Q 1688 2584 1439 2293 
Q 1191 2003 1191 1497 
Q 1191 994 1439 701 
Q 1688 409 2113 409 
Q 2538 409 2786 701 
Q 3034 994 3034 1497 
Q 3034 2003 2786 2293 
Q 2538 2584 2113 2584 
z
M 3366 4563 
L 3366 3988 
Q 3128 4100 2886 4159 
Q 2644 4219 2406 4219 
Q 1781 4219 1451 3797 
Q 1122 3375 1075 2522 
Q 1259 2794 1537 2939 
Q 1816 3084 2150 3084 
Q 2853 3084 3261 2657 
Q 3669 2231 3669 1497 
Q 3669 778 3244 343 
Q 2819 -91 2113 -91 
Q 1303 -91 875 529 
Q 447 1150 447 2328 
Q 447 3434 972 4092 
Q 1497 4750 2381 4750 
Q 2619 4750 2861 4703 
Q 3103 4656 3366 4563 
z
" transform="scale(0.015625)"/>
       </defs>
       <use xlink:href="#DejaVuSans-32"/>
       <use xlink:href="#DejaVuSans-38" x="63.623047"/>
       <use xlink:href="#DejaVuSans-2e" x="127.246094"/>
       <use xlink:href="#DejaVuSans-30" x="159.033203"/>
       <use xlink:href="#DejaVuSans-36" x="222.65625"/>
       <use xlink:href="#DejaVuSans-2e" x="286.279297"/>
       <use xlink:href="#DejaVuSans-32" x="318.066406"/>
       <use xlink:href="#DejaVuSans-30" x="381.689453"/>
       <use xlink:href="#DejaVuSans-32" x="445.3125"/>
       <use xlink:href="#DejaVuSans-30" x="508.935547"/>
      </g>
     </g>
    </g>
    <g id="xtick_5">
     <g id="line2d_9">
      <path d="M 226.617805 470.728203 
L 226.617805 29.118125 
" clip-path="url(#pa675f45d9d)" style="fill: none; stroke: #cccccc; stroke-linecap: round"/>
     </g>
     <g id="line2d_10">
      <g>
       <use xlink:href="#m6cb0fecb4f" x="226.617805" y="470.728203" style="fill: #262626; stroke: #262626; stroke-width: 1.25"/>
      </g>
     </g>
     <g id="text_5">
      <!-- 26.07.2020 -->
      <g style="fill: #262626" transform="translate(180.465277 530.673311)rotate(-45)scale(0.11 -0.11)">
       <defs>
        <path id="DejaVuSans-37" d="M 525 4666 
L 3525 4666 
L 3525 4397 
L 1831 0 
L 1172 0 
L 2766 4134 
L 525 4134 
L 525 4666 
z
" transform="scale(0.015625)"/>
       </defs>
       <use xlink:href="#DejaVuSans-32"/>
       <use xlink:href="#DejaVuSans-36" x="63.623047"/>
       <use xlink:href="#DejaVuSans-2e" x="127.246094"/>
       <use xlink:href="#DejaVuSans-30" x="159.033203"/>
       <use xlink:href="#DejaVuSans-37" x="222.65625"/>
       <use xlink:href="#DejaVuSans-2e" x="286.279297"/>
       <use xlink:href="#DejaVuSans-32" x="318.066406"/>
       <use xlink:href="#DejaVuSans-30" x="381.689453"/>
       <use xlink:href="#DejaVuSans-32" x="445.3125"/>
       <use xlink:href="#DejaVuSans-30" x="508.935547"/>
      </g>
     </g>
    </g>
    <g id="xtick_6">
     <g id="line2d_11">
      <path d="M 259.416177 470.728203 
L 259.416177 29.118125 
" clip-path="url(#pa675f45d9d)" style="fill: none; stroke: #cccccc; stroke-linecap: round"/>
     </g>
     <g id="line2d_12">
      <g>
       <use xlink:href="#m6cb0fecb4f" x="259.416177" y="470.728203" style="fill: #262626; stroke: #262626; stroke-width: 1.25"/>
      </g>
     </g>
     <g id="text_6">
      <!-- 23.08.2020 -->
      <g style="fill: #262626" transform="translate(213.263649 530.673311)rotate(-45)scale(0.11 -0.11)">
       <use xlink:href="#DejaVuSans-32"/>
       <use xlink:href="#DejaVuSans-33" x="63.623047"/>
       <use xlink:href="#DejaVuSans-2e" x="127.246094"/>
       <use xlink:href="#DejaVuSans-30" x="159.033203"/>
       <use xlink:href="#DejaVuSans-38" x="222.65625"/>
       <use xlink:href="#DejaVuSans-2e" x="286.279297"/>
       <use xlink:href="#DejaVuSans-32" x="318.066406"/>
       <use xlink:href="#DejaVuSans-30" x="381.689453"/>
       <use xlink:href="#DejaVuSans-32" x="445.3125"/>
       <use xlink:href="#DejaVuSans-30" x="508.935547"/>
      </g>
     </g>
    </g>
    <g id="xtick_7">
     <g id="line2d_13">
      <path d="M 292.214549 470.728203 
L 292.214549 29.118125 
" clip-path="url(#pa675f45d9d)" style="fill: none; stroke: #cccccc; stroke-linecap: round"/>
     </g>
     <g id="line2d_14">
      <g>
       <use xlink:href="#m6cb0fecb4f" x="292.214549" y="470.728203" style="fill: #262626; stroke: #262626; stroke-width: 1.25"/>
      </g>
     </g>
     <g id="text_7">
      <!-- 20.09.2020 -->
      <g style="fill: #262626" transform="translate(246.062021 530.673311)rotate(-45)scale(0.11 -0.11)">
       <defs>
        <path id="DejaVuSans-39" d="M 703 97 
L 703 672 
Q 941 559 1184 500 
Q 1428 441 1663 441 
Q 2288 441 2617 861 
Q 2947 1281 2994 2138 
Q 2813 1869 2534 1725 
Q 2256 1581 1919 1581 
Q 1219 1581 811 2004 
Q 403 2428 403 3163 
Q 403 3881 828 4315 
Q 1253 4750 1959 4750 
Q 2769 4750 3195 4129 
Q 3622 3509 3622 2328 
Q 3622 1225 3098 567 
Q 2575 -91 1691 -91 
Q 1453 -91 1209 -44 
Q 966 3 703 97 
z
M 1959 2075 
Q 2384 2075 2632 2365 
Q 2881 2656 2881 3163 
Q 2881 3666 2632 3958 
Q 2384 4250 1959 4250 
Q 1534 4250 1286 3958 
Q 1038 3666 1038 3163 
Q 1038 2656 1286 2365 
Q 1534 2075 1959 2075 
z
" transform="scale(0.015625)"/>
       </defs>
       <use xlink:href="#DejaVuSans-32"/>
       <use xlink:href="#DejaVuSans-30" x="63.623047"/>
       <use xlink:href="#DejaVuSans-2e" x="127.246094"/>
       <use xlink:href="#DejaVuSans-30" x="159.033203"/>
       <use xlink:href="#DejaVuSans-39" x="222.65625"/>
       <use xlink:href="#DejaVuSans-2e" x="286.279297"/>
       <use xlink:href="#DejaVuSans-32" x="318.066406"/>
       <use xlink:href="#DejaVuSans-30" x="381.689453"/>
       <use xlink:href="#DejaVuSans-32" x="445.3125"/>
       <use xlink:href="#DejaVuSans-30" x="508.935547"/>
      </g>
     </g>
    </g>
    <g id="xtick_8">
     <g id="line2d_15">
      <path d="M 325.012921 470.728203 
L 325.012921 29.118125 
" clip-path="url(#pa675f45d9d)" style="fill: none; stroke: #cccccc; stroke-linecap: round"/>
     </g>
     <g id="line2d_16">
      <g>
       <use xlink:href="#m6cb0fecb4f" x="325.012921" y="470.728203" style="fill: #262626; stroke: #262626; stroke-width: 1.25"/>
      </g>
     </g>
     <g id="text_8">
      <!-- 18.10.2020 -->
      <g style="fill: #262626" transform="translate(278.860392 530.673311)rotate(-45)scale(0.11 -0.11)">
       <use xlink:href="#DejaVuSans-31"/>
       <use xlink:href="#DejaVuSans-38" x="63.623047"/>
       <use xlink:href="#DejaVuSans-2e" x="127.246094"/>
       <use xlink:href="#DejaVuSans-31" x="159.033203"/>
       <use xlink:href="#DejaVuSans-30" x="222.65625"/>
       <use xlink:href="#DejaVuSans-2e" x="286.279297"/>
       <use xlink:href="#DejaVuSans-32" x="318.066406"/>
       <use xlink:href="#DejaVuSans-30" x="381.689453"/>
       <use xlink:href="#DejaVuSans-32" x="445.3125"/>
       <use xlink:href="#DejaVuSans-30" x="508.935547"/>
      </g>
     </g>
    </g>
    <g id="xtick_9">
     <g id="line2d_17">
      <path d="M 357.811292 470.728203 
L 357.811292 29.118125 
" clip-path="url(#pa675f45d9d)" style="fill: none; stroke: #cccccc; stroke-linecap: round"/>
     </g>
     <g id="line2d_18">
      <g>
       <use xlink:href="#m6cb0fecb4f" x="357.811292" y="470.728203" style="fill: #262626; stroke: #262626; stroke-width: 1.25"/>
      </g>
     </g>
     <g id="text_9">
      <!-- 15.11.2020 -->
      <g style="fill: #262626" transform="translate(311.658764 530.673311)rotate(-45)scale(0.11 -0.11)">
       <use xlink:href="#DejaVuSans-31"/>
       <use xlink:href="#DejaVuSans-35" x="63.623047"/>
       <use xlink:href="#DejaVuSans-2e" x="127.246094"/>
       <use xlink:href="#DejaVuSans-31" x="159.033203"/>
       <use xlink:href="#DejaVuSans-31" x="222.65625"/>
       <use xlink:href="#DejaVuSans-2e" x="286.279297"/>
       <use xlink:href="#DejaVuSans-32" x="318.066406"/>
       <use xlink:href="#DejaVuSans-30" x="381.689453"/>
       <use xlink:href="#DejaVuSans-32" x="445.3125"/>
       <use xlink:href="#DejaVuSans-30" x="508.935547"/>
      </g>
     </g>
    </g>
    <g id="xtick_10">
     <g id="line2d_19">
      <path d="M 390.609664 470.728203 
L 390.609664 29.118125 
" clip-path="url(#pa675f45d9d)" style="fill: none; stroke: #cccccc; stroke-linecap: round"/>
     </g>
     <g id="line2d_20">
      <g>
       <use xlink:href="#m6cb0fecb4f" x="390.609664" y="470.728203" style="fill: #262626; stroke: #262626; stroke-width: 1.25"/>
      </g>
     </g>
     <g id="text_10">
      <!-- 13.12.2020 -->
      <g style="fill: #262626" transform="translate(344.457136 530.673311)rotate(-45)scale(0.11 -0.11)">
       <use xlink:href="#DejaVuSans-31"/>
       <use xlink:href="#DejaVuSans-33" x="63.623047"/>
       <use xlink:href="#DejaVuSans-2e" x="127.246094"/>
       <use xlink:href="#DejaVuSans-31" x="159.033203"/>
       <use xlink:href="#DejaVuSans-32" x="222.65625"/>
       <use xlink:href="#DejaVuSans-2e" x="286.279297"/>
       <use xlink:href="#DejaVuSans-32" x="318.066406"/>
       <use xlink:href="#DejaVuSans-30" x="381.689453"/>
       <use xlink:href="#DejaVuSans-32" x="445.3125"/>
       <use xlink:href="#DejaVuSans-30" x="508.935547"/>
      </g>
     </g>
    </g>
    <g id="xtick_11">
     <g id="line2d_21">
      <path d="M 423.408036 470.728203 
L 423.408036 29.118125 
" clip-path="url(#pa675f45d9d)" style="fill: none; stroke: #cccccc; stroke-linecap: round"/>
     </g>
     <g id="line2d_22">
      <g>
       <use xlink:href="#m6cb0fecb4f" x="423.408036" y="470.728203" style="fill: #262626; stroke: #262626; stroke-width: 1.25"/>
      </g>
     </g>
     <g id="text_11">
      <!-- 10.01.2021 -->
      <g style="fill: #262626" transform="translate(377.255508 530.673311)rotate(-45)scale(0.11 -0.11)">
       <use xlink:href="#DejaVuSans-31"/>
       <use xlink:href="#DejaVuSans-30" x="63.623047"/>
       <use xlink:href="#DejaVuSans-2e" x="127.246094"/>
       <use xlink:href="#DejaVuSans-30" x="159.033203"/>
       <use xlink:href="#DejaVuSans-31" x="222.65625"/>
       <use xlink:href="#DejaVuSans-2e" x="286.279297"/>
       <use xlink:href="#DejaVuSans-32" x="318.066406"/>
       <use xlink:href="#DejaVuSans-30" x="381.689453"/>
       <use xlink:href="#DejaVuSans-32" x="445.3125"/>
       <use xlink:href="#DejaVuSans-31" x="508.935547"/>
      </g>
     </g>
    </g>
    <g id="xtick_12">
     <g id="line2d_23">
      <path d="M 456.206408 470.728203 
L 456.206408 29.118125 
" clip-path="url(#pa675f45d9d)" style="fill: none; stroke: #cccccc; stroke-linecap: round"/>
     </g>
     <g id="line2d_24">
      <g>
       <use xlink:href="#m6cb0fecb4f" x="456.206408" y="470.728203" style="fill: #262626; stroke: #262626; stroke-width: 1.25"/>
      </g>
     </g>
     <g id="text_12">
      <!-- 07.02.2021 -->
      <g style="fill: #262626" transform="translate(410.05388 530.673311)rotate(-45)scale(0.11 -0.11)">
       <use xlink:href="#DejaVuSans-30"/>
       <use xlink:href="#DejaVuSans-37" x="63.623047"/>
       <use xlink:href="#DejaVuSans-2e" x="127.246094"/>
       <use xlink:href="#DejaVuSans-30" x="159.033203"/>
       <use xlink:href="#DejaVuSans-32" x="222.65625"/>
       <use xlink:href="#DejaVuSans-2e" x="286.279297"/>
       <use xlink:href="#DejaVuSans-32" x="318.066406"/>
       <use xlink:href="#DejaVuSans-30" x="381.689453"/>
       <use xlink:href="#DejaVuSans-32" x="445.3125"/>
       <use xlink:href="#DejaVuSans-31" x="508.935547"/>
      </g>
     </g>
    </g>
    <g id="xtick_13">
     <g id="line2d_25">
      <path d="M 489.00478 470.728203 
L 489.00478 29.118125 
" clip-path="url(#pa675f45d9d)" style="fill: none; stroke: #cccccc; stroke-linecap: round"/>
     </g>
     <g id="line2d_26">
      <g>
       <use xlink:href="#m6cb0fecb4f" x="489.00478" y="470.728203" style="fill: #262626; stroke: #262626; stroke-width: 1.25"/>
      </g>
     </g>
     <g id="text_13">
      <!-- 07.03.2021 -->
      <g style="fill: #262626" transform="translate(442.852251 530.673311)rotate(-45)scale(0.11 -0.11)">
       <use xlink:href="#DejaVuSans-30"/>
       <use xlink:href="#DejaVuSans-37" x="63.623047"/>
       <use xlink:href="#DejaVuSans-2e" x="127.246094"/>
       <use xlink:href="#DejaVuSans-30" x="159.033203"/>
       <use xlink:href="#DejaVuSans-33" x="222.65625"/>
       <use xlink:href="#DejaVuSans-2e" x="286.279297"/>
       <use xlink:href="#DejaVuSans-32" x="318.066406"/>
       <use xlink:href="#DejaVuSans-30" x="381.689453"/>
       <use xlink:href="#DejaVuSans-32" x="445.3125"/>
       <use xlink:href="#DejaVuSans-31" x="508.935547"/>
      </g>
     </g>
    </g>
    <g id="xtick_14">
     <g id="line2d_27">
      <path d="M 521.803151 470.728203 
L 521.803151 29.118125 
" clip-path="url(#pa675f45d9d)" style="fill: none; stroke: #cccccc; stroke-linecap: round"/>
     </g>
     <g id="line2d_28">
      <g>
       <use xlink:href="#m6cb0fecb4f" x="521.803151" y="470.728203" style="fill: #262626; stroke: #262626; stroke-width: 1.25"/>
      </g>
     </g>
     <g id="text_14">
      <!-- 04.04.2021 -->
      <g style="fill: #262626" transform="translate(475.650623 530.673311)rotate(-45)scale(0.11 -0.11)">
       <use xlink:href="#DejaVuSans-30"/>
       <use xlink:href="#DejaVuSans-34" x="63.623047"/>
       <use xlink:href="#DejaVuSans-2e" x="127.246094"/>
       <use xlink:href="#DejaVuSans-30" x="159.033203"/>
       <use xlink:href="#DejaVuSans-34" x="222.65625"/>
       <use xlink:href="#DejaVuSans-2e" x="286.279297"/>
       <use xlink:href="#DejaVuSans-32" x="318.066406"/>
       <use xlink:href="#DejaVuSans-30" x="381.689453"/>
       <use xlink:href="#DejaVuSans-32" x="445.3125"/>
       <use xlink:href="#DejaVuSans-31" x="508.935547"/>
      </g>
     </g>
    </g>
    <g id="xtick_15">
     <g id="line2d_29">
      <path d="M 554.601523 470.728203 
L 554.601523 29.118125 
" clip-path="url(#pa675f45d9d)" style="fill: none; stroke: #cccccc; stroke-linecap: round"/>
     </g>
     <g id="line2d_30">
      <g>
       <use xlink:href="#m6cb0fecb4f" x="554.601523" y="470.728203" style="fill: #262626; stroke: #262626; stroke-width: 1.25"/>
      </g>
     </g>
     <g id="text_15">
      <!-- 02.05.2021 -->
      <g style="fill: #262626" transform="translate(508.448995 530.673311)rotate(-45)scale(0.11 -0.11)">
       <use xlink:href="#DejaVuSans-30"/>
       <use xlink:href="#DejaVuSans-32" x="63.623047"/>
       <use xlink:href="#DejaVuSans-2e" x="127.246094"/>
       <use xlink:href="#DejaVuSans-30" x="159.033203"/>
       <use xlink:href="#DejaVuSans-35" x="222.65625"/>
       <use xlink:href="#DejaVuSans-2e" x="286.279297"/>
       <use xlink:href="#DejaVuSans-32" x="318.066406"/>
       <use xlink:href="#DejaVuSans-30" x="381.689453"/>
       <use xlink:href="#DejaVuSans-32" x="445.3125"/>
       <use xlink:href="#DejaVuSans-31" x="508.935547"/>
      </g>
     </g>
    </g>
    <g id="xtick_16">
     <g id="line2d_31">
      <path d="M 587.399895 470.728203 
L 587.399895 29.118125 
" clip-path="url(#pa675f45d9d)" style="fill: none; stroke: #cccccc; stroke-linecap: round"/>
     </g>
     <g id="line2d_32">
      <g>
       <use xlink:href="#m6cb0fecb4f" x="587.399895" y="470.728203" style="fill: #262626; stroke: #262626; stroke-width: 1.25"/>
      </g>
     </g>
     <g id="text_16">
      <!-- 30.05.2021 -->
      <g style="fill: #262626" transform="translate(541.247367 530.673311)rotate(-45)scale(0.11 -0.11)">
       <use xlink:href="#DejaVuSans-33"/>
       <use xlink:href="#DejaVuSans-30" x="63.623047"/>
       <use xlink:href="#DejaVuSans-2e" x="127.246094"/>
       <use xlink:href="#DejaVuSans-30" x="159.033203"/>
       <use xlink:href="#DejaVuSans-35" x="222.65625"/>
       <use xlink:href="#DejaVuSans-2e" x="286.279297"/>
       <use xlink:href="#DejaVuSans-32" x="318.066406"/>
       <use xlink:href="#DejaVuSans-30" x="381.689453"/>
       <use xlink:href="#DejaVuSans-32" x="445.3125"/>
       <use xlink:href="#DejaVuSans-31" x="508.935547"/>
      </g>
     </g>
    </g>
    <g id="xtick_17">
     <g id="line2d_33">
      <path d="M 620.198267 470.728203 
L 620.198267 29.118125 
" clip-path="url(#pa675f45d9d)" style="fill: none; stroke: #cccccc; stroke-linecap: round"/>
     </g>
     <g id="line2d_34">
      <g>
       <use xlink:href="#m6cb0fecb4f" x="620.198267" y="470.728203" style="fill: #262626; stroke: #262626; stroke-width: 1.25"/>
      </g>
     </g>
     <g id="text_17">
      <!-- 27.06.2021 -->
      <g style="fill: #262626" transform="translate(574.045738 530.673311)rotate(-45)scale(0.11 -0.11)">
       <use xlink:href="#DejaVuSans-32"/>
       <use xlink:href="#DejaVuSans-37" x="63.623047"/>
       <use xlink:href="#DejaVuSans-2e" x="127.246094"/>
       <use xlink:href="#DejaVuSans-30" x="159.033203"/>
       <use xlink:href="#DejaVuSans-36" x="222.65625"/>
       <use xlink:href="#DejaVuSans-2e" x="286.279297"/>
       <use xlink:href="#DejaVuSans-32" x="318.066406"/>
       <use xlink:href="#DejaVuSans-30" x="381.689453"/>
       <use xlink:href="#DejaVuSans-32" x="445.3125"/>
       <use xlink:href="#DejaVuSans-31" x="508.935547"/>
      </g>
     </g>
    </g>
    <g id="xtick_18">
     <g id="line2d_35">
      <path d="M 652.996638 470.728203 
L 652.996638 29.118125 
" clip-path="url(#pa675f45d9d)" style="fill: none; stroke: #cccccc; stroke-linecap: round"/>
     </g>
     <g id="line2d_36">
      <g>
       <use xlink:href="#m6cb0fecb4f" x="652.996638" y="470.728203" style="fill: #262626; stroke: #262626; stroke-width: 1.25"/>
      </g>
     </g>
     <g id="text_18">
      <!-- 25.07.2021 -->
      <g style="fill: #262626" transform="translate(606.84411 530.673311)rotate(-45)scale(0.11 -0.11)">
       <use xlink:href="#DejaVuSans-32"/>
       <use xlink:href="#DejaVuSans-35" x="63.623047"/>
       <use xlink:href="#DejaVuSans-2e" x="127.246094"/>
       <use xlink:href="#DejaVuSans-30" x="159.033203"/>
       <use xlink:href="#DejaVuSans-37" x="222.65625"/>
       <use xlink:href="#DejaVuSans-2e" x="286.279297"/>
       <use xlink:href="#DejaVuSans-32" x="318.066406"/>
       <use xlink:href="#DejaVuSans-30" x="381.689453"/>
       <use xlink:href="#DejaVuSans-32" x="445.3125"/>
       <use xlink:href="#DejaVuSans-31" x="508.935547"/>
      </g>
     </g>
    </g>
    <g id="xtick_19">
     <g id="line2d_37">
      <path d="M 685.79501 470.728203 
L 685.79501 29.118125 
" clip-path="url(#pa675f45d9d)" style="fill: none; stroke: #cccccc; stroke-linecap: round"/>
     </g>
     <g id="line2d_38">
      <g>
       <use xlink:href="#m6cb0fecb4f" x="685.79501" y="470.728203" style="fill: #262626; stroke: #262626; stroke-width: 1.25"/>
      </g>
     </g>
     <g id="text_19">
      <!-- 22.08.2021 -->
      <g style="fill: #262626" transform="translate(639.642482 530.673311)rotate(-45)scale(0.11 -0.11)">
       <use xlink:href="#DejaVuSans-32"/>
       <use xlink:href="#DejaVuSans-32" x="63.623047"/>
       <use xlink:href="#DejaVuSans-2e" x="127.246094"/>
       <use xlink:href="#DejaVuSans-30" x="159.033203"/>
       <use xlink:href="#DejaVuSans-38" x="222.65625"/>
       <use xlink:href="#DejaVuSans-2e" x="286.279297"/>
       <use xlink:href="#DejaVuSans-32" x="318.066406"/>
       <use xlink:href="#DejaVuSans-30" x="381.689453"/>
       <use xlink:href="#DejaVuSans-32" x="445.3125"/>
       <use xlink:href="#DejaVuSans-31" x="508.935547"/>
      </g>
     </g>
    </g>
    <g id="xtick_20">
     <g id="line2d_39">
      <path d="M 718.593382 470.728203 
L 718.593382 29.118125 
" clip-path="url(#pa675f45d9d)" style="fill: none; stroke: #cccccc; stroke-linecap: round"/>
     </g>
     <g id="line2d_40">
      <g>
       <use xlink:href="#m6cb0fecb4f" x="718.593382" y="470.728203" style="fill: #262626; stroke: #262626; stroke-width: 1.25"/>
      </g>
     </g>
     <g id="text_20">
      <!-- 19.09.2021 -->
      <g style="fill: #262626" transform="translate(672.440854 530.673311)rotate(-45)scale(0.11 -0.11)">
       <use xlink:href="#DejaVuSans-31"/>
       <use xlink:href="#DejaVuSans-39" x="63.623047"/>
       <use xlink:href="#DejaVuSans-2e" x="127.246094"/>
       <use xlink:href="#DejaVuSans-30" x="159.033203"/>
       <use xlink:href="#DejaVuSans-39" x="222.65625"/>
       <use xlink:href="#DejaVuSans-2e" x="286.279297"/>
       <use xlink:href="#DejaVuSans-32" x="318.066406"/>
       <use xlink:href="#DejaVuSans-30" x="381.689453"/>
       <use xlink:href="#DejaVuSans-32" x="445.3125"/>
       <use xlink:href="#DejaVuSans-31" x="508.935547"/>
      </g>
     </g>
    </g>
    <g id="xtick_21">
     <g id="line2d_41">
      <path d="M 751.391754 470.728203 
L 751.391754 29.118125 
" clip-path="url(#pa675f45d9d)" style="fill: none; stroke: #cccccc; stroke-linecap: round"/>
     </g>
     <g id="line2d_42">
      <g>
       <use xlink:href="#m6cb0fecb4f" x="751.391754" y="470.728203" style="fill: #262626; stroke: #262626; stroke-width: 1.25"/>
      </g>
     </g>
     <g id="text_21">
      <!-- 17.10.2021 -->
      <g style="fill: #262626" transform="translate(705.239226 530.673311)rotate(-45)scale(0.11 -0.11)">
       <use xlink:href="#DejaVuSans-31"/>
       <use xlink:href="#DejaVuSans-37" x="63.623047"/>
       <use xlink:href="#DejaVuSans-2e" x="127.246094"/>
       <use xlink:href="#DejaVuSans-31" x="159.033203"/>
       <use xlink:href="#DejaVuSans-30" x="222.65625"/>
       <use xlink:href="#DejaVuSans-2e" x="286.279297"/>
       <use xlink:href="#DejaVuSans-32" x="318.066406"/>
       <use xlink:href="#DejaVuSans-30" x="381.689453"/>
       <use xlink:href="#DejaVuSans-32" x="445.3125"/>
       <use xlink:href="#DejaVuSans-31" x="508.935547"/>
      </g>
     </g>
    </g>
    <g id="xtick_22">
     <g id="line2d_43">
      <path d="M 784.190126 470.728203 
L 784.190126 29.118125 
" clip-path="url(#pa675f45d9d)" style="fill: none; stroke: #cccccc; stroke-linecap: round"/>
     </g>
     <g id="line2d_44">
      <g>
       <use xlink:href="#m6cb0fecb4f" x="784.190126" y="470.728203" style="fill: #262626; stroke: #262626; stroke-width: 1.25"/>
      </g>
     </g>
     <g id="text_22">
      <!-- 14.11.2021 -->
      <g style="fill: #262626" transform="translate(738.037597 530.673311)rotate(-45)scale(0.11 -0.11)">
       <use xlink:href="#DejaVuSans-31"/>
       <use xlink:href="#DejaVuSans-34" x="63.623047"/>
       <use xlink:href="#DejaVuSans-2e" x="127.246094"/>
       <use xlink:href="#DejaVuSans-31" x="159.033203"/>
       <use xlink:href="#DejaVuSans-31" x="222.65625"/>
       <use xlink:href="#DejaVuSans-2e" x="286.279297"/>
       <use xlink:href="#DejaVuSans-32" x="318.066406"/>
       <use xlink:href="#DejaVuSans-30" x="381.689453"/>
       <use xlink:href="#DejaVuSans-32" x="445.3125"/>
       <use xlink:href="#DejaVuSans-31" x="508.935547"/>
      </g>
     </g>
    </g>
    <g id="xtick_23">
     <g id="line2d_45">
      <defs>
       <path id="m31eccb5c9e" d="M 0 0 
L 0 4 
" style="stroke: #262626"/>
      </defs>
      <g>
       <use xlink:href="#m31eccb5c9e" x="61.454576" y="470.728203" style="fill: #262626; stroke: #262626"/>
      </g>
     </g>
    </g>
    <g id="xtick_24">
     <g id="line2d_46">
      <g>
       <use xlink:href="#m31eccb5c9e" x="69.654169" y="470.728203" style="fill: #262626; stroke: #262626"/>
      </g>
     </g>
    </g>
    <g id="xtick_25">
     <g id="line2d_47">
      <g>
       <use xlink:href="#m31eccb5c9e" x="77.853762" y="470.728203" style="fill: #262626; stroke: #262626"/>
      </g>
     </g>
    </g>
    <g id="xtick_26">
     <g id="line2d_48">
      <g>
       <use xlink:href="#m31eccb5c9e" x="86.053355" y="470.728203" style="fill: #262626; stroke: #262626"/>
      </g>
     </g>
    </g>
    <g id="xtick_27">
     <g id="line2d_49">
      <g>
       <use xlink:href="#m31eccb5c9e" x="94.252948" y="470.728203" style="fill: #262626; stroke: #262626"/>
      </g>
     </g>
    </g>
    <g id="xtick_28">
     <g id="line2d_50">
      <g>
       <use xlink:href="#m31eccb5c9e" x="102.452541" y="470.728203" style="fill: #262626; stroke: #262626"/>
      </g>
     </g>
    </g>
    <g id="xtick_29">
     <g id="line2d_51">
      <g>
       <use xlink:href="#m31eccb5c9e" x="110.652134" y="470.728203" style="fill: #262626; stroke: #262626"/>
      </g>
     </g>
    </g>
    <g id="xtick_30">
     <g id="line2d_52">
      <g>
       <use xlink:href="#m31eccb5c9e" x="118.851727" y="470.728203" style="fill: #262626; stroke: #262626"/>
      </g>
     </g>
    </g>
    <g id="xtick_31">
     <g id="line2d_53">
      <g>
       <use xlink:href="#m31eccb5c9e" x="127.05132" y="470.728203" style="fill: #262626; stroke: #262626"/>
      </g>
     </g>
    </g>
    <g id="xtick_32">
     <g id="line2d_54">
      <g>
       <use xlink:href="#m31eccb5c9e" x="135.250912" y="470.728203" style="fill: #262626; stroke: #262626"/>
      </g>
     </g>
    </g>
    <g id="xtick_33">
     <g id="line2d_55">
      <g>
       <use xlink:href="#m31eccb5c9e" x="143.450505" y="470.728203" style="fill: #262626; stroke: #262626"/>
      </g>
     </g>
    </g>
    <g id="xtick_34">
     <g id="line2d_56">
      <g>
       <use xlink:href="#m31eccb5c9e" x="151.650098" y="470.728203" style="fill: #262626; stroke: #262626"/>
      </g>
     </g>
    </g>
    <g id="xtick_35">
     <g id="line2d_57">
      <g>
       <use xlink:href="#m31eccb5c9e" x="159.849691" y="470.728203" style="fill: #262626; stroke: #262626"/>
      </g>
     </g>
    </g>
    <g id="xtick_36">
     <g id="line2d_58">
      <g>
       <use xlink:href="#m31eccb5c9e" x="168.049284" y="470.728203" style="fill: #262626; stroke: #262626"/>
      </g>
     </g>
    </g>
    <g id="xtick_37">
     <g id="line2d_59">
      <g>
       <use xlink:href="#m31eccb5c9e" x="176.248877" y="470.728203" style="fill: #262626; stroke: #262626"/>
      </g>
     </g>
    </g>
    <g id="xtick_38">
     <g id="line2d_60">
      <g>
       <use xlink:href="#m31eccb5c9e" x="184.44847" y="470.728203" style="fill: #262626; stroke: #262626"/>
      </g>
     </g>
    </g>
    <g id="xtick_39">
     <g id="line2d_61">
      <g>
       <use xlink:href="#m31eccb5c9e" x="192.648063" y="470.728203" style="fill: #262626; stroke: #262626"/>
      </g>
     </g>
    </g>
    <g id="xtick_40">
     <g id="line2d_62">
      <g>
       <use xlink:href="#m31eccb5c9e" x="200.847656" y="470.728203" style="fill: #262626; stroke: #262626"/>
      </g>
     </g>
    </g>
    <g id="xtick_41">
     <g id="line2d_63">
      <g>
       <use xlink:href="#m31eccb5c9e" x="209.047249" y="470.728203" style="fill: #262626; stroke: #262626"/>
      </g>
     </g>
    </g>
    <g id="xtick_42">
     <g id="line2d_64">
      <g>
       <use xlink:href="#m31eccb5c9e" x="217.246842" y="470.728203" style="fill: #262626; stroke: #262626"/>
      </g>
     </g>
    </g>
    <g id="xtick_43">
     <g id="line2d_65">
      <g>
       <use xlink:href="#m31eccb5c9e" x="225.446435" y="470.728203" style="fill: #262626; stroke: #262626"/>
      </g>
     </g>
    </g>
    <g id="xtick_44">
     <g id="line2d_66">
      <g>
       <use xlink:href="#m31eccb5c9e" x="233.646028" y="470.728203" style="fill: #262626; stroke: #262626"/>
      </g>
     </g>
    </g>
    <g id="xtick_45">
     <g id="line2d_67">
      <g>
       <use xlink:href="#m31eccb5c9e" x="241.845621" y="470.728203" style="fill: #262626; stroke: #262626"/>
      </g>
     </g>
    </g>
    <g id="xtick_46">
     <g id="line2d_68">
      <g>
       <use xlink:href="#m31eccb5c9e" x="250.045214" y="470.728203" style="fill: #262626; stroke: #262626"/>
      </g>
     </g>
    </g>
    <g id="xtick_47">
     <g id="line2d_69">
      <g>
       <use xlink:href="#m31eccb5c9e" x="258.244807" y="470.728203" style="fill: #262626; stroke: #262626"/>
      </g>
     </g>
    </g>
    <g id="xtick_48">
     <g id="line2d_70">
      <g>
       <use xlink:href="#m31eccb5c9e" x="266.4444" y="470.728203" style="fill: #262626; stroke: #262626"/>
      </g>
     </g>
    </g>
    <g id="xtick_49">
     <g id="line2d_71">
      <g>
       <use xlink:href="#m31eccb5c9e" x="274.643993" y="470.728203" style="fill: #262626; stroke: #262626"/>
      </g>
     </g>
    </g>
    <g id="xtick_50">
     <g id="line2d_72">
      <g>
       <use xlink:href="#m31eccb5c9e" x="282.843585" y="470.728203" style="fill: #262626; stroke: #262626"/>
      </g>
     </g>
    </g>
    <g id="xtick_51">
     <g id="line2d_73">
      <g>
       <use xlink:href="#m31eccb5c9e" x="291.043178" y="470.728203" style="fill: #262626; stroke: #262626"/>
      </g>
     </g>
    </g>
    <g id="xtick_52">
     <g id="line2d_74">
      <g>
       <use xlink:href="#m31eccb5c9e" x="299.242771" y="470.728203" style="fill: #262626; stroke: #262626"/>
      </g>
     </g>
    </g>
    <g id="xtick_53">
     <g id="line2d_75">
      <g>
       <use xlink:href="#m31eccb5c9e" x="307.442364" y="470.728203" style="fill: #262626; stroke: #262626"/>
      </g>
     </g>
    </g>
    <g id="xtick_54">
     <g id="line2d_76">
      <g>
       <use xlink:href="#m31eccb5c9e" x="315.641957" y="470.728203" style="fill: #262626; stroke: #262626"/>
      </g>
     </g>
    </g>
    <g id="xtick_55">
     <g id="line2d_77">
      <g>
       <use xlink:href="#m31eccb5c9e" x="323.84155" y="470.728203" style="fill: #262626; stroke: #262626"/>
      </g>
     </g>
    </g>
    <g id="xtick_56">
     <g id="line2d_78">
      <g>
       <use xlink:href="#m31eccb5c9e" x="332.041143" y="470.728203" style="fill: #262626; stroke: #262626"/>
      </g>
     </g>
    </g>
    <g id="xtick_57">
     <g id="line2d_79">
      <g>
       <use xlink:href="#m31eccb5c9e" x="340.240736" y="470.728203" style="fill: #262626; stroke: #262626"/>
      </g>
     </g>
    </g>
    <g id="xtick_58">
     <g id="line2d_80">
      <g>
       <use xlink:href="#m31eccb5c9e" x="348.440329" y="470.728203" style="fill: #262626; stroke: #262626"/>
      </g>
     </g>
    </g>
    <g id="xtick_59">
     <g id="line2d_81">
      <g>
       <use xlink:href="#m31eccb5c9e" x="356.639922" y="470.728203" style="fill: #262626; stroke: #262626"/>
      </g>
     </g>
    </g>
    <g id="xtick_60">
     <g id="line2d_82">
      <g>
       <use xlink:href="#m31eccb5c9e" x="364.839515" y="470.728203" style="fill: #262626; stroke: #262626"/>
      </g>
     </g>
    </g>
    <g id="xtick_61">
     <g id="line2d_83">
      <g>
       <use xlink:href="#m31eccb5c9e" x="373.039108" y="470.728203" style="fill: #262626; stroke: #262626"/>
      </g>
     </g>
    </g>
    <g id="xtick_62">
     <g id="line2d_84">
      <g>
       <use xlink:href="#m31eccb5c9e" x="381.238701" y="470.728203" style="fill: #262626; stroke: #262626"/>
      </g>
     </g>
    </g>
    <g id="xtick_63">
     <g id="line2d_85">
      <g>
       <use xlink:href="#m31eccb5c9e" x="389.438294" y="470.728203" style="fill: #262626; stroke: #262626"/>
      </g>
     </g>
    </g>
    <g id="xtick_64">
     <g id="line2d_86">
      <g>
       <use xlink:href="#m31eccb5c9e" x="397.637887" y="470.728203" style="fill: #262626; stroke: #262626"/>
      </g>
     </g>
    </g>
    <g id="xtick_65">
     <g id="line2d_87">
      <g>
       <use xlink:href="#m31eccb5c9e" x="405.83748" y="470.728203" style="fill: #262626; stroke: #262626"/>
      </g>
     </g>
    </g>
    <g id="xtick_66">
     <g id="line2d_88">
      <g>
       <use xlink:href="#m31eccb5c9e" x="414.037073" y="470.728203" style="fill: #262626; stroke: #262626"/>
      </g>
     </g>
    </g>
    <g id="xtick_67">
     <g id="line2d_89">
      <g>
       <use xlink:href="#m31eccb5c9e" x="422.236666" y="470.728203" style="fill: #262626; stroke: #262626"/>
      </g>
     </g>
    </g>
    <g id="xtick_68">
     <g id="line2d_90">
      <g>
       <use xlink:href="#m31eccb5c9e" x="430.436258" y="470.728203" style="fill: #262626; stroke: #262626"/>
      </g>
     </g>
    </g>
    <g id="xtick_69">
     <g id="line2d_91">
      <g>
       <use xlink:href="#m31eccb5c9e" x="438.635851" y="470.728203" style="fill: #262626; stroke: #262626"/>
      </g>
     </g>
    </g>
    <g id="xtick_70">
     <g id="line2d_92">
      <g>
       <use xlink:href="#m31eccb5c9e" x="446.835444" y="470.728203" style="fill: #262626; stroke: #262626"/>
      </g>
     </g>
    </g>
    <g id="xtick_71">
     <g id="line2d_93">
      <g>
       <use xlink:href="#m31eccb5c9e" x="455.035037" y="470.728203" style="fill: #262626; stroke: #262626"/>
      </g>
     </g>
    </g>
    <g id="xtick_72">
     <g id="line2d_94">
      <g>
       <use xlink:href="#m31eccb5c9e" x="463.23463" y="470.728203" style="fill: #262626; stroke: #262626"/>
      </g>
     </g>
    </g>
    <g id="xtick_73">
     <g id="line2d_95">
      <g>
       <use xlink:href="#m31eccb5c9e" x="471.434223" y="470.728203" style="fill: #262626; stroke: #262626"/>
      </g>
     </g>
    </g>
    <g id="xtick_74">
     <g id="line2d_96">
      <g>
       <use xlink:href="#m31eccb5c9e" x="479.633816" y="470.728203" style="fill: #262626; stroke: #262626"/>
      </g>
     </g>
    </g>
    <g id="xtick_75">
     <g id="line2d_97">
      <g>
       <use xlink:href="#m31eccb5c9e" x="487.833409" y="470.728203" style="fill: #262626; stroke: #262626"/>
      </g>
     </g>
    </g>
    <g id="xtick_76">
     <g id="line2d_98">
      <g>
       <use xlink:href="#m31eccb5c9e" x="496.033002" y="470.728203" style="fill: #262626; stroke: #262626"/>
      </g>
     </g>
    </g>
    <g id="xtick_77">
     <g id="line2d_99">
      <g>
       <use xlink:href="#m31eccb5c9e" x="504.232595" y="470.728203" style="fill: #262626; stroke: #262626"/>
      </g>
     </g>
    </g>
    <g id="xtick_78">
     <g id="line2d_100">
      <g>
       <use xlink:href="#m31eccb5c9e" x="512.432188" y="470.728203" style="fill: #262626; stroke: #262626"/>
      </g>
     </g>
    </g>
    <g id="xtick_79">
     <g id="line2d_101">
      <g>
       <use xlink:href="#m31eccb5c9e" x="520.631781" y="470.728203" style="fill: #262626; stroke: #262626"/>
      </g>
     </g>
    </g>
    <g id="xtick_80">
     <g id="line2d_102">
      <g>
       <use xlink:href="#m31eccb5c9e" x="528.831374" y="470.728203" style="fill: #262626; stroke: #262626"/>
      </g>
     </g>
    </g>
    <g id="xtick_81">
     <g id="line2d_103">
      <g>
       <use xlink:href="#m31eccb5c9e" x="537.030967" y="470.728203" style="fill: #262626; stroke: #262626"/>
      </g>
     </g>
    </g>
    <g id="xtick_82">
     <g id="line2d_104">
      <g>
       <use xlink:href="#m31eccb5c9e" x="545.23056" y="470.728203" style="fill: #262626; stroke: #262626"/>
      </g>
     </g>
    </g>
    <g id="xtick_83">
     <g id="line2d_105">
      <g>
       <use xlink:href="#m31eccb5c9e" x="553.430153" y="470.728203" style="fill: #262626; stroke: #262626"/>
      </g>
     </g>
    </g>
    <g id="xtick_84">
     <g id="line2d_106">
      <g>
       <use xlink:href="#m31eccb5c9e" x="561.629746" y="470.728203" style="fill: #262626; stroke: #262626"/>
      </g>
     </g>
    </g>
    <g id="xtick_85">
     <g id="line2d_107">
      <g>
       <use xlink:href="#m31eccb5c9e" x="569.829339" y="470.728203" style="fill: #262626; stroke: #262626"/>
      </g>
     </g>
    </g>
    <g id="xtick_86">
     <g id="line2d_108">
      <g>
       <use xlink:href="#m31eccb5c9e" x="578.028931" y="470.728203" style="fill: #262626; stroke: #262626"/>
      </g>
     </g>
    </g>
    <g id="xtick_87">
     <g id="line2d_109">
      <g>
       <use xlink:href="#m31eccb5c9e" x="586.228524" y="470.728203" style="fill: #262626; stroke: #262626"/>
      </g>
     </g>
    </g>
    <g id="xtick_88">
     <g id="line2d_110">
      <g>
       <use xlink:href="#m31eccb5c9e" x="594.428117" y="470.728203" style="fill: #262626; stroke: #262626"/>
      </g>
     </g>
    </g>
    <g id="xtick_89">
     <g id="line2d_111">
      <g>
       <use xlink:href="#m31eccb5c9e" x="602.62771" y="470.728203" style="fill: #262626; stroke: #262626"/>
      </g>
     </g>
    </g>
    <g id="xtick_90">
     <g id="line2d_112">
      <g>
       <use xlink:href="#m31eccb5c9e" x="610.827303" y="470.728203" style="fill: #262626; stroke: #262626"/>
      </g>
     </g>
    </g>
    <g id="xtick_91">
     <g id="line2d_113">
      <g>
       <use xlink:href="#m31eccb5c9e" x="619.026896" y="470.728203" style="fill: #262626; stroke: #262626"/>
      </g>
     </g>
    </g>
    <g id="xtick_92">
     <g id="line2d_114">
      <g>
       <use xlink:href="#m31eccb5c9e" x="627.226489" y="470.728203" style="fill: #262626; stroke: #262626"/>
      </g>
     </g>
    </g>
    <g id="xtick_93">
     <g id="line2d_115">
      <g>
       <use xlink:href="#m31eccb5c9e" x="635.426082" y="470.728203" style="fill: #262626; stroke: #262626"/>
      </g>
     </g>
    </g>
    <g id="xtick_94">
     <g id="line2d_116">
      <g>
       <use xlink:href="#m31eccb5c9e" x="643.625675" y="470.728203" style="fill: #262626; stroke: #262626"/>
      </g>
     </g>
    </g>
    <g id="xtick_95">
     <g id="line2d_117">
      <g>
       <use xlink:href="#m31eccb5c9e" x="651.825268" y="470.728203" style="fill: #262626; stroke: #262626"/>
      </g>
     </g>
    </g>
    <g id="xtick_96">
     <g id="line2d_118">
      <g>
       <use xlink:href="#m31eccb5c9e" x="660.024861" y="470.728203" style="fill: #262626; stroke: #262626"/>
      </g>
     </g>
    </g>
    <g id="xtick_97">
     <g id="line2d_119">
      <g>
       <use xlink:href="#m31eccb5c9e" x="668.224454" y="470.728203" style="fill: #262626; stroke: #262626"/>
      </g>
     </g>
    </g>
    <g id="xtick_98">
     <g id="line2d_120">
      <g>
       <use xlink:href="#m31eccb5c9e" x="676.424047" y="470.728203" style="fill: #262626; stroke: #262626"/>
      </g>
     </g>
    </g>
    <g id="xtick_99">
     <g id="line2d_121">
      <g>
       <use xlink:href="#m31eccb5c9e" x="684.62364" y="470.728203" style="fill: #262626; stroke: #262626"/>
      </g>
     </g>
    </g>
    <g id="xtick_100">
     <g id="line2d_122">
      <g>
       <use xlink:href="#m31eccb5c9e" x="692.823233" y="470.728203" style="fill: #262626; stroke: #262626"/>
      </g>
     </g>
    </g>
    <g id="xtick_101">
     <g id="line2d_123">
      <g>
       <use xlink:href="#m31eccb5c9e" x="701.022826" y="470.728203" style="fill: #262626; stroke: #262626"/>
      </g>
     </g>
    </g>
    <g id="xtick_102">
     <g id="line2d_124">
      <g>
       <use xlink:href="#m31eccb5c9e" x="709.222419" y="470.728203" style="fill: #262626; stroke: #262626"/>
      </g>
     </g>
    </g>
    <g id="xtick_103">
     <g id="line2d_125">
      <g>
       <use xlink:href="#m31eccb5c9e" x="717.422012" y="470.728203" style="fill: #262626; stroke: #262626"/>
      </g>
     </g>
    </g>
    <g id="xtick_104">
     <g id="line2d_126">
      <g>
       <use xlink:href="#m31eccb5c9e" x="725.621604" y="470.728203" style="fill: #262626; stroke: #262626"/>
      </g>
     </g>
    </g>
    <g id="xtick_105">
     <g id="line2d_127">
      <g>
       <use xlink:href="#m31eccb5c9e" x="733.821197" y="470.728203" style="fill: #262626; stroke: #262626"/>
      </g>
     </g>
    </g>
    <g id="xtick_106">
     <g id="line2d_128">
      <g>
       <use xlink:href="#m31eccb5c9e" x="742.02079" y="470.728203" style="fill: #262626; stroke: #262626"/>
      </g>
     </g>
    </g>
    <g id="xtick_107">
     <g id="line2d_129">
      <g>
       <use xlink:href="#m31eccb5c9e" x="750.220383" y="470.728203" style="fill: #262626; stroke: #262626"/>
      </g>
     </g>
    </g>
    <g id="xtick_108">
     <g id="line2d_130">
      <g>
       <use xlink:href="#m31eccb5c9e" x="758.419976" y="470.728203" style="fill: #262626; stroke: #262626"/>
      </g>
     </g>
    </g>
    <g id="xtick_109">
     <g id="line2d_131">
      <g>
       <use xlink:href="#m31eccb5c9e" x="766.619569" y="470.728203" style="fill: #262626; stroke: #262626"/>
      </g>
     </g>
    </g>
    <g id="xtick_110">
     <g id="line2d_132">
      <g>
       <use xlink:href="#m31eccb5c9e" x="774.819162" y="470.728203" style="fill: #262626; stroke: #262626"/>
      </g>
     </g>
    </g>
    <g id="xtick_111">
     <g id="line2d_133">
      <g>
       <use xlink:href="#m31eccb5c9e" x="783.018755" y="470.728203" style="fill: #262626; stroke: #262626"/>
      </g>
     </g>
    </g>
    <g id="xtick_112">
     <g id="line2d_134">
      <g>
       <use xlink:href="#m31eccb5c9e" x="791.218348" y="470.728203" style="fill: #262626; stroke: #262626"/>
      </g>
     </g>
    </g>
    <g id="xtick_113">
     <g id="line2d_135">
      <g>
       <use xlink:href="#m31eccb5c9e" x="799.417941" y="470.728203" style="fill: #262626; stroke: #262626"/>
      </g>
     </g>
    </g>
    <g id="xtick_114">
     <g id="line2d_136">
      <g>
       <use xlink:href="#m31eccb5c9e" x="807.617534" y="470.728203" style="fill: #262626; stroke: #262626"/>
      </g>
     </g>
    </g>
    <g id="xtick_115">
     <g id="line2d_137">
      <g>
       <use xlink:href="#m31eccb5c9e" x="815.817127" y="470.728203" style="fill: #262626; stroke: #262626"/>
      </g>
     </g>
    </g>
    <g id="xtick_116">
     <g id="line2d_138">
      <g>
       <use xlink:href="#m31eccb5c9e" x="824.01672" y="470.728203" style="fill: #262626; stroke: #262626"/>
      </g>
     </g>
    </g>
    <g id="xtick_117">
     <g id="line2d_139">
      <g>
       <use xlink:href="#m31eccb5c9e" x="832.216313" y="470.728203" style="fill: #262626; stroke: #262626"/>
      </g>
     </g>
    </g>
    <g id="text_23">
     <!-- Date -->
     <g style="fill: #262626" transform="translate(434.251562 545.409053)scale(0.12 -0.12)">
      <defs>
       <path id="DejaVuSans-44" d="M 1259 4147 
L 1259 519 
L 2022 519 
Q 2988 519 3436 956 
Q 3884 1394 3884 2338 
Q 3884 3275 3436 3711 
Q 2988 4147 2022 4147 
L 1259 4147 
z
M 628 4666 
L 1925 4666 
Q 3281 4666 3915 4102 
Q 4550 3538 4550 2338 
Q 4550 1131 3912 565 
Q 3275 0 1925 0 
L 628 0 
L 628 4666 
z
" transform="scale(0.015625)"/>
       <path id="DejaVuSans-61" d="M 2194 1759 
Q 1497 1759 1228 1600 
Q 959 1441 959 1056 
Q 959 750 1161 570 
Q 1363 391 1709 391 
Q 2188 391 2477 730 
Q 2766 1069 2766 1631 
L 2766 1759 
L 2194 1759 
z
M 3341 1997 
L 3341 0 
L 2766 0 
L 2766 531 
Q 2569 213 2275 61 
Q 1981 -91 1556 -91 
Q 1019 -91 701 211 
Q 384 513 384 1019 
Q 384 1609 779 1909 
Q 1175 2209 1959 2209 
L 2766 2209 
L 2766 2266 
Q 2766 2663 2505 2880 
Q 2244 3097 1772 3097 
Q 1472 3097 1187 3025 
Q 903 2953 641 2809 
L 641 3341 
Q 956 3463 1253 3523 
Q 1550 3584 1831 3584 
Q 2591 3584 2966 3190 
Q 3341 2797 3341 1997 
z
" transform="scale(0.015625)"/>
       <path id="DejaVuSans-74" d="M 1172 4494 
L 1172 3500 
L 2356 3500 
L 2356 3053 
L 1172 3053 
L 1172 1153 
Q 1172 725 1289 603 
Q 1406 481 1766 481 
L 2356 481 
L 2356 0 
L 1766 0 
Q 1100 0 847 248 
Q 594 497 594 1153 
L 594 3053 
L 172 3053 
L 172 3500 
L 594 3500 
L 594 4494 
L 1172 4494 
z
" transform="scale(0.015625)"/>
       <path id="DejaVuSans-65" d="M 3597 1894 
L 3597 1613 
L 953 1613 
Q 991 1019 1311 708 
Q 1631 397 2203 397 
Q 2534 397 2845 478 
Q 3156 559 3463 722 
L 3463 178 
Q 3153 47 2828 -22 
Q 2503 -91 2169 -91 
Q 1331 -91 842 396 
Q 353 884 353 1716 
Q 353 2575 817 3079 
Q 1281 3584 2069 3584 
Q 2775 3584 3186 3129 
Q 3597 2675 3597 1894 
z
M 3022 2063 
Q 3016 2534 2758 2815 
Q 2500 3097 2075 3097 
Q 1594 3097 1305 2825 
Q 1016 2553 972 2059 
L 3022 2063 
z
" transform="scale(0.015625)"/>
      </defs>
      <use xlink:href="#DejaVuSans-44"/>
      <use xlink:href="#DejaVuSans-61" x="77.001953"/>
      <use xlink:href="#DejaVuSans-74" x="138.28125"/>
      <use xlink:href="#DejaVuSans-65" x="177.490234"/>
     </g>
    </g>
   </g>
   <g id="matplotlib.axis_2">
    <g id="ytick_1">
     <g id="line2d_140">
      <path d="M 60.1075 450.956842 
L 837.0775 450.956842 
" clip-path="url(#pa675f45d9d)" style="fill: none; stroke: #cccccc; stroke-linecap: round"/>
     </g>
     <g id="line2d_141">
      <defs>
       <path id="mc456febfbc" d="M 0 0 
L -6 0 
" style="stroke: #262626; stroke-width: 1.25"/>
      </defs>
      <g>
       <use xlink:href="#mc456febfbc" x="60.1075" y="450.956842" style="fill: #262626; stroke: #262626; stroke-width: 1.25"/>
      </g>
     </g>
     <g id="text_24">
      <!-- 0 -->
      <g style="fill: #262626" transform="translate(43.60875 455.135982)scale(0.11 -0.11)">
       <use xlink:href="#DejaVuSans-30"/>
      </g>
     </g>
    </g>
    <g id="ytick_2">
     <g id="line2d_142">
      <path d="M 60.1075 375.500831 
L 837.0775 375.500831 
" clip-path="url(#pa675f45d9d)" style="fill: none; stroke: #cccccc; stroke-linecap: round"/>
     </g>
     <g id="line2d_143">
      <g>
       <use xlink:href="#mc456febfbc" x="60.1075" y="375.500831" style="fill: #262626; stroke: #262626; stroke-width: 1.25"/>
      </g>
     </g>
     <g id="text_25">
      <!-- 2000 -->
      <g style="fill: #262626" transform="translate(22.6125 379.679971)scale(0.11 -0.11)">
       <use xlink:href="#DejaVuSans-32"/>
       <use xlink:href="#DejaVuSans-30" x="63.623047"/>
       <use xlink:href="#DejaVuSans-30" x="127.246094"/>
       <use xlink:href="#DejaVuSans-30" x="190.869141"/>
      </g>
     </g>
    </g>
    <g id="ytick_3">
     <g id="line2d_144">
      <path d="M 60.1075 300.044819 
L 837.0775 300.044819 
" clip-path="url(#pa675f45d9d)" style="fill: none; stroke: #cccccc; stroke-linecap: round"/>
     </g>
     <g id="line2d_145">
      <g>
       <use xlink:href="#mc456febfbc" x="60.1075" y="300.044819" style="fill: #262626; stroke: #262626; stroke-width: 1.25"/>
      </g>
     </g>
     <g id="text_26">
      <!-- 4000 -->
      <g style="fill: #262626" transform="translate(22.6125 304.22396)scale(0.11 -0.11)">
       <use xlink:href="#DejaVuSans-34"/>
       <use xlink:href="#DejaVuSans-30" x="63.623047"/>
       <use xlink:href="#DejaVuSans-30" x="127.246094"/>
       <use xlink:href="#DejaVuSans-30" x="190.869141"/>
      </g>
     </g>
    </g>
    <g id="ytick_4">
     <g id="line2d_146">
      <path d="M 60.1075 224.588808 
L 837.0775 224.588808 
" clip-path="url(#pa675f45d9d)" style="fill: none; stroke: #cccccc; stroke-linecap: round"/>
     </g>
     <g id="line2d_147">
      <g>
       <use xlink:href="#mc456febfbc" x="60.1075" y="224.588808" style="fill: #262626; stroke: #262626; stroke-width: 1.25"/>
      </g>
     </g>
     <g id="text_27">
      <!-- 6000 -->
      <g style="fill: #262626" transform="translate(22.6125 228.767949)scale(0.11 -0.11)">
       <use xlink:href="#DejaVuSans-36"/>
       <use xlink:href="#DejaVuSans-30" x="63.623047"/>
       <use xlink:href="#DejaVuSans-30" x="127.246094"/>
       <use xlink:href="#DejaVuSans-30" x="190.869141"/>
      </g>
     </g>
    </g>
    <g id="ytick_5">
     <g id="line2d_148">
      <path d="M 60.1075 149.132797 
L 837.0775 149.132797 
" clip-path="url(#pa675f45d9d)" style="fill: none; stroke: #cccccc; stroke-linecap: round"/>
     </g>
     <g id="line2d_149">
      <g>
       <use xlink:href="#mc456febfbc" x="60.1075" y="149.132797" style="fill: #262626; stroke: #262626; stroke-width: 1.25"/>
      </g>
     </g>
     <g id="text_28">
      <!-- 8000 -->
      <g style="fill: #262626" transform="translate(22.6125 153.311938)scale(0.11 -0.11)">
       <use xlink:href="#DejaVuSans-38"/>
       <use xlink:href="#DejaVuSans-30" x="63.623047"/>
       <use xlink:href="#DejaVuSans-30" x="127.246094"/>
       <use xlink:href="#DejaVuSans-30" x="190.869141"/>
      </g>
     </g>
    </g>
    <g id="ytick_6">
     <g id="line2d_150">
      <path d="M 60.1075 73.676786 
L 837.0775 73.676786 
" clip-path="url(#pa675f45d9d)" style="fill: none; stroke: #cccccc; stroke-linecap: round"/>
     </g>
     <g id="line2d_151">
      <g>
       <use xlink:href="#mc456febfbc" x="60.1075" y="73.676786" style="fill: #262626; stroke: #262626; stroke-width: 1.25"/>
      </g>
     </g>
     <g id="text_29">
      <!-- 10000 -->
      <g style="fill: #262626" transform="translate(15.61375 77.855927)scale(0.11 -0.11)">
       <use xlink:href="#DejaVuSans-31"/>
       <use xlink:href="#DejaVuSans-30" x="63.623047"/>
       <use xlink:href="#DejaVuSans-30" x="127.246094"/>
       <use xlink:href="#DejaVuSans-30" x="190.869141"/>
       <use xlink:href="#DejaVuSans-30" x="254.492188"/>
      </g>
     </g>
    </g>
    <g id="text_30">
     <!-- Cases -->
     <g style="fill: #262626" transform="translate(9.118125 267.732851)rotate(-90)scale(0.12 -0.12)">
      <defs>
       <path id="DejaVuSans-43" d="M 4122 4306 
L 4122 3641 
Q 3803 3938 3442 4084 
Q 3081 4231 2675 4231 
Q 1875 4231 1450 3742 
Q 1025 3253 1025 2328 
Q 1025 1406 1450 917 
Q 1875 428 2675 428 
Q 3081 428 3442 575 
Q 3803 722 4122 1019 
L 4122 359 
Q 3791 134 3420 21 
Q 3050 -91 2638 -91 
Q 1578 -91 968 557 
Q 359 1206 359 2328 
Q 359 3453 968 4101 
Q 1578 4750 2638 4750 
Q 3056 4750 3426 4639 
Q 3797 4528 4122 4306 
z
" transform="scale(0.015625)"/>
       <path id="DejaVuSans-73" d="M 2834 3397 
L 2834 2853 
Q 2591 2978 2328 3040 
Q 2066 3103 1784 3103 
Q 1356 3103 1142 2972 
Q 928 2841 928 2578 
Q 928 2378 1081 2264 
Q 1234 2150 1697 2047 
L 1894 2003 
Q 2506 1872 2764 1633 
Q 3022 1394 3022 966 
Q 3022 478 2636 193 
Q 2250 -91 1575 -91 
Q 1294 -91 989 -36 
Q 684 19 347 128 
L 347 722 
Q 666 556 975 473 
Q 1284 391 1588 391 
Q 1994 391 2212 530 
Q 2431 669 2431 922 
Q 2431 1156 2273 1281 
Q 2116 1406 1581 1522 
L 1381 1569 
Q 847 1681 609 1914 
Q 372 2147 372 2553 
Q 372 3047 722 3315 
Q 1072 3584 1716 3584 
Q 2034 3584 2315 3537 
Q 2597 3491 2834 3397 
z
" transform="scale(0.015625)"/>
      </defs>
      <use xlink:href="#DejaVuSans-43"/>
      <use xlink:href="#DejaVuSans-61" x="69.824219"/>
      <use xlink:href="#DejaVuSans-73" x="131.103516"/>
      <use xlink:href="#DejaVuSans-65" x="183.203125"/>
      <use xlink:href="#DejaVuSans-73" x="244.726562"/>
     </g>
    </g>
   </g>
   <g id="line2d_152">
    <path d="M 95.424318 443.033961 
L 96.595689 442.920776 
L 97.767059 442.166216 
L 101.28117 442.241672 
L 103.623911 442.2794 
L 104.795282 443.071689 
L 107.138022 442.392584 
L 108.309393 441.751208 
L 109.480763 441.675752 
L 110.652134 441.185288 
L 111.823504 440.845736 
L 112.994874 440.845736 
L 114.166245 440.355272 
L 115.337615 440.77028 
L 117.680356 439.940264 
L 118.851727 439.940264 
L 120.023097 439.600712 
L 121.194467 439.600712 
L 122.365838 440.128904 
L 123.537208 438.997064 
L 124.708579 438.997064 
L 125.879949 438.846152 
L 128.22269 438.846152 
L 129.39406 439.034792 
L 130.565431 439.034792 
L 131.736801 437.638856 
L 132.908172 437.5634 
L 134.079542 436.6202 
L 135.250912 436.280648 
L 136.422283 436.43156 
L 137.593653 437.072936 
L 138.765024 437.18612 
L 139.936394 437.18612 
L 141.107765 438.846152 
L 143.450505 438.770696 
L 144.621876 438.544328 
L 145.793246 439.676168 
L 146.964617 440.20436 
L 148.135987 440.128904 
L 149.307358 441.223016 
L 150.478728 441.223016 
L 151.650098 442.128488 
L 152.821469 442.09076 
L 153.992839 442.317128 
L 155.16421 442.317128 
L 156.33558 443.486697 
L 157.50695 443.750793 
L 158.678321 444.731721 
L 159.849691 444.882633 
L 161.021062 445.184457 
L 163.363803 445.976745 
L 165.706543 445.335369 
L 166.877914 445.410825 
L 168.049284 445.109001 
L 169.220655 444.995817 
L 170.392025 445.222185 
L 171.563396 444.882633 
L 172.734766 443.901705 
L 173.906136 443.260329 
L 175.077507 442.84532 
L 176.248877 441.638024 
L 177.420248 441.751208 
L 178.591618 441.411656 
L 179.762988 440.883464 
L 180.934359 440.543912 
L 182.105729 440.053448 
L 183.2771 439.110248 
L 184.44847 438.808424 
L 185.619841 438.808424 
L 187.962581 437.299304 
L 189.133952 436.242919 
L 190.305322 436.469288 
L 191.476693 436.167463 
L 192.648063 434.997895 
L 193.819434 434.997895 
L 194.990804 434.582887 
L 196.162174 434.545159 
L 197.333545 434.130151 
L 198.504915 434.243335 
L 199.676286 433.979239 
L 200.847656 433.488775 
L 202.019026 433.677415 
L 204.361767 432.734215 
L 205.533138 432.168295 
L 206.704508 431.149639 
L 207.875879 431.489191 
L 209.047249 430.885543 
L 210.218619 430.772359 
L 211.38999 430.998727 
L 213.732731 429.263238 
L 214.904101 428.999142 
L 216.075472 428.09367 
L 217.246842 428.131398 
L 218.418212 427.942758 
L 219.589583 427.414566 
L 220.760953 427.490022 
L 223.103694 425.867718 
L 224.275064 425.716806 
L 225.446435 424.773606 
L 226.617805 425.226342 
L 227.789176 425.07543 
L 228.960546 424.584966 
L 230.131917 423.717222 
L 232.474657 421.604453 
L 233.646028 421.038533 
L 234.817398 420.246245 
L 235.988769 419.906693 
L 238.331509 418.058021 
L 239.50288 417.982565 
L 240.67425 418.623941 
L 241.845621 418.963493 
L 243.016991 418.925765 
L 245.359732 418.473029 
L 246.531102 419.491685 
L 248.873843 420.359429 
L 250.045214 420.359429 
L 251.216584 420.510341 
L 252.387955 421.981733 
L 253.559325 421.453541 
L 254.730695 422.585381 
L 255.902066 422.057189 
L 257.073436 423.264486 
L 258.244807 422.924934 
L 259.416177 422.849478 
L 260.587547 424.019046 
L 261.758918 423.981318 
L 262.930288 423.00039 
L 265.273029 424.094502 
L 266.4444 423.679494 
L 268.78714 423.528582 
L 269.958511 423.151302 
L 271.129881 422.359013 
L 272.301252 422.132645 
L 273.472622 422.170373 
L 274.643993 422.472197 
L 275.815363 422.057189 
L 276.986733 421.793093 
L 279.329474 422.547653 
L 280.500845 422.81175 
L 281.672215 423.226758 
L 282.843585 423.18903 
L 284.014956 423.038118 
L 285.186326 423.415398 
L 286.357697 423.264486 
L 287.529067 422.887206 
L 288.700438 422.887206 
L 289.871808 423.490854 
L 293.385919 424.019046 
L 294.55729 423.94359 
L 295.72866 423.56631 
L 296.900031 422.887206 
L 298.071401 421.453541 
L 299.242771 421.113989 
L 300.414142 421.000805 
L 301.585512 421.528997 
L 302.756883 420.246245 
L 305.099623 418.623941 
L 306.270994 417.492101 
L 307.442364 416.548901 
L 308.613735 416.360261 
L 309.785105 415.869796 
L 310.956476 414.322948 
L 312.127846 411.983812 
L 313.299216 410.851972 
L 314.470587 408.286467 
L 315.641957 406.098243 
L 317.984698 404.890947 
L 319.156069 401.646338 
L 320.327439 398.892194 
L 321.498809 397.156706 
L 322.67018 396.251234 
L 323.84155 394.968481 
L 325.012921 394.364833 
L 326.184291 392.025697 
L 327.355661 389.347009 
L 328.527032 385.611936 
L 329.698402 383.348256 
L 332.041143 376.406303 
L 333.212514 374.142622 
L 336.726625 363.578781 
L 337.897995 361.3151 
L 339.069366 358.636412 
L 340.240736 352.411291 
L 341.412107 349.845787 
L 342.583477 343.771578 
L 343.754847 340.715609 
L 344.926218 330.566776 
L 346.097588 321.776151 
L 348.440329 310.797301 
L 349.611699 306.760404 
L 351.95444 293.40469 
L 354.297181 271.069711 
L 355.468552 264.240942 
L 356.639922 256.053965 
L 357.811292 252.997996 
L 360.154033 244.848747 
L 361.325404 238.585898 
L 362.496774 229.191625 
L 363.668145 226.777033 
L 364.839515 217.307303 
L 366.010885 211.384006 
L 367.182256 214.402247 
L 368.353626 210.818086 
L 369.524997 203.913861 
L 370.696367 199.876965 
L 371.867737 200.178789 
L 373.039108 193.274564 
L 374.210478 191.803171 
L 375.381849 195.04778 
L 376.553219 200.631525 
L 377.72459 200.631525 
L 378.89596 195.689156 
L 380.06733 196.519172 
L 381.238701 188.407651 
L 382.410071 186.860803 
L 383.581442 193.614116 
L 384.752812 192.935012 
L 385.924182 186.936259 
L 387.095553 183.69165 
L 389.438294 178.409729 
L 390.609664 177.655169 
L 391.781035 185.163042 
L 392.952405 186.973987 
L 394.123775 185.57805 
L 395.295146 190.633603 
L 396.466516 204.404325 
L 397.637887 200.442885 
L 398.809257 201.046533 
L 399.980628 213.760871 
L 401.151998 219.948264 
L 402.323368 235.379018 
L 403.494739 237.001322 
L 404.666109 240.434571 
L 405.83748 241.755051 
L 407.00885 240.774123 
L 408.18022 243.037803 
L 409.351591 261.44907 
L 410.522961 268.692847 
L 411.694332 271.522447 
L 412.865702 271.861999 
L 414.037073 270.390607 
L 415.208443 274.050224 
L 416.379813 284.764977 
L 417.551184 289.25461 
L 418.722554 290.160082 
L 419.893925 290.612818 
L 421.065295 293.02741 
L 422.236666 292.876498 
L 423.408036 292.310578 
L 424.579406 298.309331 
L 425.750777 302.11986 
L 426.922147 312.080053 
L 428.093518 313.966453 
L 429.264888 318.908822 
L 430.436258 319.474742 
L 431.607629 319.474742 
L 432.778999 326.001687 
L 433.95037 329.35948 
L 435.12174 329.472664 
L 436.293111 336.075065 
L 437.464481 343.658394 
L 438.635851 343.16793 
L 439.807222 342.526554 
L 440.978592 344.48841 
L 442.149963 344.639322 
L 443.321333 342.866106 
L 444.492704 342.41337 
L 445.664074 343.507482 
L 448.006815 342.073818 
L 449.178185 343.432026 
L 450.349556 341.507898 
L 452.692296 336.527801 
L 453.863667 335.131865 
L 455.035037 332.755 
L 456.206408 333.019096 
L 457.377778 335.622329 
L 458.549149 332.905912 
L 459.720519 329.095384 
L 460.891889 326.567607 
L 462.06326 325.813047 
L 463.23463 323.624823 
L 464.406001 321.738423 
L 465.577371 321.889335 
L 469.091482 311.212309 
L 471.434223 305.854932 
L 472.605594 304.57218 
L 473.776964 302.572596 
L 474.948334 298.648883 
L 477.291075 286.160913 
L 478.462446 281.105361 
L 479.633816 274.616144 
L 480.805187 271.975183 
L 481.976557 270.730159 
L 483.147927 261.977262 
L 484.319298 258.808109 
L 485.490668 250.734316 
L 489.00478 233.039882 
L 490.17615 228.248425 
L 491.34752 223.947432 
L 492.518891 209.686246 
L 494.861632 193.7273 
L 496.033002 188.822659 
L 497.204372 183.050274 
L 498.375743 176.711969 
L 499.547113 164.223999 
L 500.718484 156.527486 
L 501.889854 146.039101 
L 503.061225 136.607099 
L 504.232595 128.571034 
L 505.403965 124.232313 
L 506.575336 123.138201 
L 507.746706 114.158936 
L 508.918077 106.688791 
L 511.260818 95.181749 
L 512.432188 85.976116 
L 513.603558 79.750995 
L 514.774929 85.787476 
L 515.946299 80.807379 
L 517.11767 70.168081 
L 518.28904 67.942129 
L 519.46041 59.264688 
L 521.803151 49.19131 
L 522.974522 58.510128 
L 524.145892 60.283344 
L 525.317263 57.491472 
L 526.488633 58.434672 
L 527.660003 63.452496 
L 528.831374 59.906064 
L 530.002744 59.264688 
L 531.174115 74.808626 
L 532.345485 81.260115 
L 533.516855 85.561108 
L 534.688226 91.673045 
L 535.859596 104.04783 
L 537.030967 103.708278 
L 538.202337 102.765078 
L 539.373708 117.66764 
L 540.545078 126.57145 
L 541.716448 132.721115 
L 542.887819 137.474843 
L 544.059189 146.378653 
L 545.23056 145.850461 
L 546.40193 146.114557 
L 547.573301 161.620767 
L 548.744671 168.75136 
L 549.916041 180.522498 
L 551.087412 193.500932 
L 552.258782 190.444963 
L 553.430153 194.783684 
L 554.601523 196.141892 
L 555.772893 197.952836 
L 556.944264 199.311045 
L 558.115634 218.627783 
L 559.287005 219.382343 
L 560.458375 230.059369 
L 562.801116 227.908873 
L 563.972486 240.774123 
L 566.315227 252.884812 
L 567.486598 258.015821 
L 568.657968 268.655119 
L 569.829339 268.391023 
L 571.000709 267.674191 
L 572.172079 277.70984 
L 573.34345 285.745905 
L 574.51482 292.46149 
L 575.686191 297.290675 
L 576.857561 305.741748 
L 578.028931 306.949044 
L 579.200302 307.326324 
L 580.371672 308.307253 
L 581.543043 317.663798 
L 582.714413 322.832535 
L 585.057154 330.67996 
L 586.228524 330.340408 
L 587.399895 331.132696 
L 589.742636 339.961049 
L 590.914006 342.262458 
L 592.085377 346.638906 
L 593.256747 351.769915 
L 594.428117 352.147195 
L 595.599488 352.373563 
L 596.770858 355.84454 
L 597.942229 357.881852 
L 599.113599 360.145532 
L 600.284969 362.861949 
L 601.45634 364.559709 
L 602.62771 364.823805 
L 603.799081 364.786077 
L 604.970451 366.483837 
L 607.313192 377.236319 
L 608.484562 384.40464 
L 609.655933 384.857376 
L 610.827303 385.083744 
L 611.998674 385.121472 
L 614.341415 388.705632 
L 615.512785 390.101569 
L 617.855526 391.912513 
L 619.026896 392.063425 
L 620.198267 392.101153 
L 621.369637 393.723457 
L 622.541007 394.553473 
L 623.712378 395.081665 
L 624.883748 396.854882 
L 626.055119 401.41997 
L 627.226489 401.344514 
L 628.39786 403.985475 
L 629.56923 408.173283 
L 630.7406 414.700228 
L 631.911971 414.775684 
L 633.083341 417.190277 
L 634.254712 419.868965 
L 635.426082 419.944421 
L 636.597453 419.793509 
L 637.768823 422.81175 
L 640.111564 423.528582 
L 641.282934 423.00039 
L 642.454305 423.18903 
L 644.797045 422.887206 
L 645.968416 423.075846 
L 647.139786 423.717222 
L 648.311157 423.56631 
L 649.482527 422.962662 
L 650.653898 424.32087 
L 652.996638 423.94359 
L 654.168009 423.453126 
L 655.339379 422.472197 
L 656.51075 422.509925 
L 657.68212 422.132645 
L 658.853491 420.887621 
L 661.196231 420.397157 
L 662.367602 418.850309 
L 663.538972 416.473445 
L 664.710343 414.926596 
L 665.881713 415.681156 
L 667.053083 413.7193 
L 668.224454 412.738372 
L 669.395824 411.002884 
L 670.567195 407.946915 
L 671.738565 405.419139 
L 672.909936 404.853219 
L 674.081306 403.268643 
L 675.252676 397.986722 
L 676.424047 394.742113 
L 677.595417 392.553889 
L 678.766788 388.403808 
L 681.109528 375.463103 
L 683.452269 363.691965 
L 684.62364 360.032348 
L 685.79501 358.447772 
L 686.966381 349.015771 
L 688.137751 342.564282 
L 689.309121 338.338745 
L 690.480492 331.62316 
L 691.651862 328.152184 
L 692.823233 323.851191 
L 693.994603 320.757494 
L 697.508714 304.874004 
L 698.680085 300.610739 
L 699.851455 297.403859 
L 702.194196 293.97061 
L 703.365566 289.330066 
L 704.536937 288.462322 
L 705.708307 284.236785 
L 706.879678 281.180817 
L 708.051048 283.142673 
L 709.222419 278.4644 
L 710.393789 277.068464 
L 711.565159 277.89848 
L 713.9079 278.08712 
L 715.079271 276.38936 
L 716.250641 275.559344 
L 717.422012 273.522031 
L 718.593382 271.748815 
L 719.764752 266.881902 
L 720.936123 264.769134 
L 722.107493 263.863662 
L 723.278864 264.240942 
L 724.450234 263.486382 
L 725.621604 260.807694 
L 726.792975 259.374029 
L 727.964345 260.50587 
L 729.135716 256.582157 
L 730.307086 255.827597 
L 731.478457 254.733485 
L 732.649827 255.450317 
L 734.992568 252.960268 
L 736.163938 254.620301 
L 737.335309 253.903469 
L 738.506679 250.545676 
L 739.67805 248.20654 
L 740.84942 245.226027 
L 742.02079 243.867819 
L 743.192161 243.339627 
L 744.363531 243.264171 
L 745.534902 237.944522 
L 746.706272 235.643114 
L 747.877642 229.606633 
L 749.049013 227.003401 
L 750.220383 223.268328 
L 751.391754 221.796936 
L 752.563124 214.854983 
L 756.077235 201.650181 
L 757.248606 198.745124 
L 758.419976 194.708228 
L 759.591347 190.180867 
L 761.934088 174.599201 
L 763.105458 172.788257 
L 764.276828 165.997216 
L 765.448199 161.205759 
L 766.619569 153.660158 
L 767.79094 150.151453 
L 768.96231 148.000957 
L 770.13368 143.511324 
L 771.305051 141.926748 
L 772.476421 135.097979 
L 773.647792 139.24806 
L 774.819162 135.173435 
L 775.990533 130.608346 
L 777.161903 129.665146 
L 778.333273 129.287866 
L 779.504644 134.117051 
L 780.676014 136.720283 
L 781.847385 143.247228 
L 783.018755 142.417212 
L 784.190126 140.530812 
L 785.361496 152.000126 
L 787.704237 166.336768 
L 790.046978 176.447873 
L 791.218348 174.335105 
L 792.389718 173.391905 
L 793.561089 180.522498 
L 795.90383 192.670916 
L 797.0752 195.99098 
L 798.246571 201.725637 
L 799.417941 199.160133 
L 800.589311 197.915108 
L 801.760682 204.743877 
L 801.760682 204.743877 
" clip-path="url(#pa675f45d9d)" style="fill: none; stroke: #ffc0cb; stroke-width: 1.5; stroke-linecap: round"/>
   </g>
   <g id="line2d_153">
    <path d="M 95.424318 449.975914 
L 97.767059 449.938186 
L 98.938429 449.749545 
L 103.623911 449.598633 
L 104.795282 449.86273 
L 105.966652 449.787273 
L 108.309393 449.296809 
L 109.480763 449.296809 
L 110.652134 449.598633 
L 112.994874 449.674089 
L 114.166245 449.447721 
L 115.337615 449.560905 
L 116.508986 449.409993 
L 117.680356 449.409993 
L 118.851727 449.560905 
L 120.023097 449.409993 
L 122.365838 449.485449 
L 125.879949 449.334537 
L 127.05132 449.447721 
L 128.22269 449.447721 
L 129.39406 449.560905 
L 130.565431 449.485449 
L 131.736801 449.523177 
L 134.079542 449.108169 
L 135.250912 448.844073 
L 136.422283 448.768617 
L 137.593653 449.070441 
L 139.936394 449.032713 
L 144.621876 449.334537 
L 145.793246 449.598633 
L 149.307358 449.86273 
L 150.478728 449.86273 
L 151.650098 450.126826 
L 152.821469 450.202282 
L 155.16421 450.126826 
L 158.678321 450.277738 
L 161.021062 450.353194 
L 162.192432 450.202282 
L 163.363803 450.61729 
L 165.706543 450.655018 
L 166.877914 450.504106 
L 169.220655 450.504106 
L 170.392025 450.390922 
L 171.563396 450.466378 
L 172.734766 450.315466 
L 175.077507 450.390922 
L 177.420248 450.390922 
L 182.105729 450.466378 
L 183.2771 450.315466 
L 184.44847 450.466378 
L 187.962581 450.466378 
L 189.133952 450.353194 
L 191.476693 450.277738 
L 192.648063 450.202282 
L 194.990804 449.787273 
L 197.333545 449.749545 
L 203.190397 449.86273 
L 204.361767 449.749545 
L 206.704508 449.900458 
L 207.875879 449.749545 
L 210.218619 449.711817 
L 212.56136 449.938186 
L 214.904101 449.900458 
L 216.075472 449.711817 
L 219.589583 449.674089 
L 220.760953 449.787273 
L 221.932324 450.05137 
L 228.960546 449.447721 
L 231.303287 449.674089 
L 232.474657 449.372265 
L 235.988769 449.334537 
L 237.160139 449.409993 
L 239.50288 449.183625 
L 240.67425 448.881801 
L 244.188362 448.919529 
L 245.359732 448.542249 
L 247.702473 448.579977 
L 250.045214 448.881801 
L 252.387955 448.844073 
L 253.559325 448.655433 
L 254.730695 448.693161 
L 255.902066 448.579977 
L 257.073436 448.202697 
L 259.416177 448.164969 
L 260.587547 448.504521 
L 261.758918 448.542249 
L 262.930288 448.693161 
L 264.101659 448.504521 
L 265.273029 448.730889 
L 268.78714 448.504521 
L 269.958511 448.617705 
L 271.129881 448.579977 
L 272.301252 448.655433 
L 273.472622 448.844073 
L 274.643993 448.806345 
L 276.986733 448.957257 
L 279.329474 448.693161 
L 280.500845 448.881801 
L 281.672215 448.844073 
L 282.843585 448.957257 
L 284.014956 448.957257 
L 289.871808 449.674089 
L 291.043178 449.560905 
L 295.72866 449.86273 
L 296.900031 449.825002 
L 298.071401 449.598633 
L 299.242771 449.598633 
L 300.414142 449.409993 
L 305.099623 449.183625 
L 309.785105 448.730889 
L 312.127846 448.957257 
L 314.470587 448.768617 
L 316.813328 448.617705 
L 317.984698 448.504521 
L 319.156069 448.542249 
L 320.327439 448.429065 
L 321.498809 448.164969 
L 323.84155 447.976329 
L 325.012921 448.164969 
L 326.184291 447.636777 
L 327.355661 447.448137 
L 328.527032 446.919945 
L 329.698402 446.731305 
L 330.869773 446.165385 
L 333.212514 445.448553 
L 334.383884 445.335369 
L 335.555254 445.486281 
L 336.726625 444.844905 
L 337.897995 444.656265 
L 339.069366 444.731721 
L 341.412107 444.580809 
L 342.583477 444.165801 
L 344.926218 441.939848 
L 346.097588 441.52484 
L 347.268959 441.260744 
L 348.440329 440.732552 
L 349.611699 440.694824 
L 350.78307 440.77028 
L 351.95444 440.393 
L 353.125811 440.543912 
L 354.297181 440.242088 
L 355.468552 440.091176 
L 356.639922 439.82708 
L 357.811292 439.902536 
L 358.982663 440.091176 
L 360.154033 439.525256 
L 361.325404 439.147976 
L 362.496774 437.978408 
L 363.668145 436.507016 
L 364.839515 435.563815 
L 366.010885 435.563815 
L 368.353626 436.167463 
L 370.696367 434.733799 
L 371.867737 434.507431 
L 373.039108 434.696071 
L 374.210478 434.733799 
L 375.381849 433.715143 
L 376.553219 432.356935 
L 377.72459 431.225095 
L 378.89596 431.225095 
L 380.06733 431.941927 
L 381.238701 431.489191 
L 382.410071 431.489191 
L 383.581442 431.225095 
L 384.752812 431.564647 
L 385.924182 430.432807 
L 387.095553 430.508263 
L 388.266923 428.772774 
L 389.438294 428.508678 
L 390.609664 428.697318 
L 391.781035 429.074598 
L 392.952405 428.999142 
L 394.123775 429.451878 
L 395.295146 429.565063 
L 396.466516 430.734631 
L 397.637887 430.508263 
L 398.809257 430.734631 
L 399.980628 431.225095 
L 401.151998 431.111911 
L 402.323368 430.847815 
L 404.666109 431.640103 
L 405.83748 431.225095 
L 407.00885 431.225095 
L 408.18022 431.941927 
L 409.351591 433.073767 
L 410.522961 433.337863 
L 415.208443 433.866055 
L 416.379813 435.450631 
L 417.551184 436.129735 
L 418.722554 436.657928 
L 419.893925 436.733384 
L 421.065295 436.6202 
L 423.408036 436.6202 
L 424.579406 436.80884 
L 425.750777 437.110664 
L 426.922147 437.827496 
L 428.093518 438.016136 
L 429.264888 438.016136 
L 430.436258 438.12932 
L 431.607629 438.091592 
L 433.95037 438.959336 
L 435.12174 438.619784 
L 436.293111 439.751624 
L 437.464481 440.242088 
L 438.635851 440.355272 
L 439.807222 440.279816 
L 440.978592 440.430728 
L 442.149963 440.355272 
L 443.321333 440.95892 
L 444.492704 441.260744 
L 446.835444 441.034376 
L 449.178185 440.95892 
L 450.349556 440.430728 
L 451.520926 440.242088 
L 452.692296 440.506184 
L 453.863667 440.543912 
L 455.035037 440.355272 
L 457.377778 440.619368 
L 458.549149 440.921192 
L 459.720519 440.657096 
L 460.891889 439.902536 
L 462.06326 439.487528 
L 464.406001 439.600712 
L 465.577371 440.053448 
L 466.748742 440.242088 
L 467.920112 439.789352 
L 469.091482 439.63844 
L 470.262853 439.034792 
L 471.434223 439.034792 
L 472.605594 438.846152 
L 474.948334 437.789768 
L 476.119705 437.035208 
L 477.291075 436.99748 
L 478.462446 436.695656 
L 479.633816 436.6202 
L 480.805187 436.092007 
L 481.976557 435.337447 
L 483.147927 434.997895 
L 484.319298 434.922439 
L 485.490668 434.356519 
L 486.662039 434.469703 
L 487.833409 433.903783 
L 489.00478 433.752871 
L 490.17615 431.979655 
L 491.34752 432.206023 
L 492.518891 432.055111 
L 493.690261 432.017383 
L 494.861632 431.866471 
L 496.033002 431.262823 
L 497.204372 430.847815 
L 498.375743 429.187782 
L 499.547113 427.867302 
L 500.718484 427.980486 
L 501.889854 425.679078 
L 503.061225 424.962246 
L 504.232595 424.88679 
L 506.575336 424.88679 
L 507.746706 423.453126 
L 508.918077 422.924934 
L 510.089447 421.944005 
L 511.260818 422.623109 
L 512.432188 421.944005 
L 513.603558 421.793093 
L 514.774929 422.585381 
L 515.946299 422.736294 
L 517.11767 421.830821 
L 518.28904 422.774022 
L 520.631781 422.359013 
L 522.974522 423.264486 
L 525.317263 421.642181 
L 526.488633 420.283973 
L 527.660003 420.321701 
L 528.831374 420.736709 
L 530.002744 420.887621 
L 531.174115 421.679909 
L 532.345485 420.812165 
L 533.516855 420.510341 
L 534.688226 420.359429 
L 535.859596 420.736709 
L 537.030967 420.887621 
L 538.202337 421.415813 
L 539.373708 421.528997 
L 540.545078 422.094917 
L 541.716448 421.302629 
L 542.887819 421.491269 
L 544.059189 422.623109 
L 545.23056 423.113574 
L 546.40193 422.81175 
L 547.573301 423.641766 
L 548.744671 424.019046 
L 551.087412 425.226342 
L 552.258782 425.528166 
L 553.430153 425.679078 
L 554.601523 425.980902 
L 556.944264 426.924102 
L 558.115634 428.357766 
L 559.287005 428.810502 
L 560.458375 429.451878 
L 562.801116 429.753703 
L 563.972486 430.017799 
L 565.143857 430.772359 
L 567.486598 431.489191 
L 568.657968 431.941927 
L 571.000709 432.130567 
L 572.172079 432.470119 
L 573.34345 432.658759 
L 574.51482 433.601959 
L 575.686191 434.281063 
L 576.857561 435.224263 
L 579.200302 435.790183 
L 580.371672 435.639271 
L 581.543043 436.507016 
L 582.714413 436.80884 
L 583.885784 436.657928 
L 585.057154 437.110664 
L 587.399895 437.412488 
L 588.571265 437.827496 
L 589.742636 438.808424 
L 590.914006 438.657512 
L 593.256747 439.902536 
L 594.428117 439.902536 
L 595.599488 440.128904 
L 599.113599 441.298472 
L 600.284969 441.411656 
L 601.45634 441.675752 
L 603.799081 441.638024 
L 604.970451 441.826664 
L 606.141822 441.864392 
L 608.484562 442.84532 
L 609.655933 443.109417 
L 611.998674 443.147145 
L 614.341415 443.562153 
L 615.512785 443.373513 
L 616.684155 443.373513 
L 617.855526 443.562153 
L 620.198267 443.524425 
L 621.369637 443.939433 
L 622.541007 444.203529 
L 623.712378 444.203529 
L 624.883748 444.807177 
L 626.055119 445.109001 
L 628.39786 445.222185 
L 629.56923 446.316297 
L 630.7406 446.769033 
L 631.911971 446.693577 
L 634.254712 446.995401 
L 636.597453 447.033129 
L 637.768823 447.372681 
L 645.968416 447.636777 
L 647.139786 447.863145 
L 648.311157 447.938601 
L 649.482527 447.900873 
L 650.653898 448.127241 
L 652.996638 448.051785 
L 654.168009 448.202697 
L 656.51075 447.976329 
L 657.68212 447.976329 
L 658.853491 448.127241 
L 664.710343 447.561321 
L 665.881713 447.599049 
L 667.053083 447.523593 
L 668.224454 447.259497 
L 669.395824 447.221769 
L 670.567195 447.410409 
L 672.909936 446.882217 
L 674.081306 446.957673 
L 675.252676 446.278569 
L 678.766788 445.486281 
L 681.109528 444.392169 
L 682.280899 443.637609 
L 683.452269 443.675337 
L 685.79501 443.335785 
L 686.966381 442.543496 
L 688.137751 441.600296 
L 690.480492 440.430728 
L 691.651862 439.713896 
L 693.994603 439.713896 
L 695.165974 439.600712 
L 696.337344 438.732968 
L 697.508714 438.431144 
L 699.851455 438.355688 
L 701.022826 438.204776 
L 702.194196 438.431144 
L 703.365566 438.167048 
L 704.536937 438.544328 
L 705.708307 437.261576 
L 706.879678 436.695656 
L 708.051048 436.733384 
L 709.222419 436.6202 
L 710.393789 436.884296 
L 711.565159 436.99748 
L 712.73653 436.393832 
L 713.9079 436.016551 
L 717.422012 436.016551 
L 719.764752 436.318376 
L 720.936123 435.676999 
L 722.107493 435.676999 
L 723.278864 435.337447 
L 726.792975 435.186535 
L 730.307086 433.677415 
L 731.478457 433.526503 
L 733.821197 433.413319 
L 734.992568 433.526503 
L 736.163938 434.167879 
L 737.335309 433.601959 
L 738.506679 433.790599 
L 739.67805 433.488775 
L 740.84942 433.526503 
L 742.02079 433.262407 
L 744.363531 433.149223 
L 745.534902 432.658759 
L 746.706272 432.583303 
L 747.877642 432.356935 
L 749.049013 431.753287 
L 750.220383 431.640103 
L 751.391754 431.640103 
L 752.563124 430.696903 
L 753.734495 429.904615 
L 754.905865 429.565063 
L 756.077235 428.697318 
L 758.419976 428.244582 
L 759.591347 428.320038 
L 760.762717 428.018214 
L 763.105458 428.055942 
L 764.276828 426.20727 
L 765.448199 425.45271 
L 766.619569 425.113158 
L 767.79094 425.301798 
L 768.96231 425.716806 
L 770.13368 424.69815 
L 771.305051 423.981318 
L 772.476421 424.169958 
L 773.647792 423.641766 
L 774.819162 423.339942 
L 775.990533 423.339942 
L 777.161903 423.679494 
L 778.333273 422.774022 
L 779.504644 422.283557 
L 783.018755 422.849478 
L 784.190126 422.585381 
L 785.361496 423.604038 
L 786.532866 422.019461 
L 787.704237 422.245829 
L 788.875607 421.717637 
L 791.218348 422.321285 
L 792.389718 422.283557 
L 793.561089 421.717637 
L 794.732459 421.642181 
L 795.90383 420.887621 
L 798.246571 421.566725 
L 799.417941 421.415813 
L 800.589311 422.434469 
L 801.760682 423.679494 
L 801.760682 423.679494 
" clip-path="url(#pa675f45d9d)" style="fill: none; stroke: #800080; stroke-width: 1.5; stroke-linecap: round"/>
   </g>
   <g id="line2d_154"/>
   <g id="line2d_155"/>
   <g id="patch_3">
    <path d="M 60.1075 470.728203 
L 60.1075 29.118125 
" style="fill: none; stroke: #262626; stroke-width: 1.25; stroke-linejoin: miter; stroke-linecap: square"/>
   </g>
   <g id="patch_4">
    <path d="M 837.0775 470.728203 
L 837.0775 29.118125 
" style="fill: none; stroke: #262626; stroke-width: 1.25; stroke-linejoin: miter; stroke-linecap: square"/>
   </g>
   <g id="patch_5">
    <path d="M 60.1075 470.728203 
L 837.0775 470.728203 
" style="fill: none; stroke: #262626; stroke-width: 1.25; stroke-linejoin: miter; stroke-linecap: square"/>
   </g>
   <g id="patch_6">
    <path d="M 60.1075 29.118125 
L 837.0775 29.118125 
" style="fill: none; stroke: #262626; stroke-width: 1.25; stroke-linejoin: miter; stroke-linecap: square"/>
   </g>
   <g id="text_31">
    <!-- Last update: 30.11.2021 -->
    <g style="fill: #262626" transform="translate(387.093672 22.493974)scale(0.09996 -0.09996)">
     <defs>
      <path id="DejaVuSans-4c" d="M 628 4666 
L 1259 4666 
L 1259 531 
L 3531 531 
L 3531 0 
L 628 0 
L 628 4666 
z
" transform="scale(0.015625)"/>
      <path id="DejaVuSans-20" transform="scale(0.015625)"/>
      <path id="DejaVuSans-75" d="M 544 1381 
L 544 3500 
L 1119 3500 
L 1119 1403 
Q 1119 906 1312 657 
Q 1506 409 1894 409 
Q 2359 409 2629 706 
Q 2900 1003 2900 1516 
L 2900 3500 
L 3475 3500 
L 3475 0 
L 2900 0 
L 2900 538 
Q 2691 219 2414 64 
Q 2138 -91 1772 -91 
Q 1169 -91 856 284 
Q 544 659 544 1381 
z
M 1991 3584 
L 1991 3584 
z
" transform="scale(0.015625)"/>
      <path id="DejaVuSans-70" d="M 1159 525 
L 1159 -1331 
L 581 -1331 
L 581 3500 
L 1159 3500 
L 1159 2969 
Q 1341 3281 1617 3432 
Q 1894 3584 2278 3584 
Q 2916 3584 3314 3078 
Q 3713 2572 3713 1747 
Q 3713 922 3314 415 
Q 2916 -91 2278 -91 
Q 1894 -91 1617 61 
Q 1341 213 1159 525 
z
M 3116 1747 
Q 3116 2381 2855 2742 
Q 2594 3103 2138 3103 
Q 1681 3103 1420 2742 
Q 1159 2381 1159 1747 
Q 1159 1113 1420 752 
Q 1681 391 2138 391 
Q 2594 391 2855 752 
Q 3116 1113 3116 1747 
z
" transform="scale(0.015625)"/>
      <path id="DejaVuSans-64" d="M 2906 2969 
L 2906 4863 
L 3481 4863 
L 3481 0 
L 2906 0 
L 2906 525 
Q 2725 213 2448 61 
Q 2172 -91 1784 -91 
Q 1150 -91 751 415 
Q 353 922 353 1747 
Q 353 2572 751 3078 
Q 1150 3584 1784 3584 
Q 2172 3584 2448 3432 
Q 2725 3281 2906 2969 
z
M 947 1747 
Q 947 1113 1208 752 
Q 1469 391 1925 391 
Q 2381 391 2643 752 
Q 2906 1113 2906 1747 
Q 2906 2381 2643 2742 
Q 2381 3103 1925 3103 
Q 1469 3103 1208 2742 
Q 947 2381 947 1747 
z
" transform="scale(0.015625)"/>
      <path id="DejaVuSans-3a" d="M 750 794 
L 1409 794 
L 1409 0 
L 750 0 
L 750 794 
z
M 750 3309 
L 1409 3309 
L 1409 2516 
L 750 2516 
L 750 3309 
z
" transform="scale(0.015625)"/>
     </defs>
     <use xlink:href="#DejaVuSans-4c"/>
     <use xlink:href="#DejaVuSans-61" x="55.712891"/>
     <use xlink:href="#DejaVuSans-73" x="116.992188"/>
     <use xlink:href="#DejaVuSans-74" x="169.091797"/>
     <use xlink:href="#DejaVuSans-20" x="208.300781"/>
     <use xlink:href="#DejaVuSans-75" x="240.087891"/>
     <use xlink:href="#DejaVuSans-70" x="303.466797"/>
     <use xlink:href="#DejaVuSans-64" x="366.943359"/>
     <use xlink:href="#DejaVuSans-61" x="430.419922"/>
     <use xlink:href="#DejaVuSans-74" x="491.699219"/>
     <use xlink:href="#DejaVuSans-65" x="530.908203"/>
     <use xlink:href="#DejaVuSans-3a" x="592.431641"/>
     <use xlink:href="#DejaVuSans-20" x="626.123047"/>
     <use xlink:href="#DejaVuSans-33" x="657.910156"/>
     <use xlink:href="#DejaVuSans-30" x="721.533203"/>
     <use xlink:href="#DejaVuSans-2e" x="785.15625"/>
     <use xlink:href="#DejaVuSans-31" x="816.943359"/>
     <use xlink:href="#DejaVuSans-31" x="880.566406"/>
     <use xlink:href="#DejaVuSans-2e" x="944.189453"/>
     <use xlink:href="#DejaVuSans-32" x="975.976562"/>
     <use xlink:href="#DejaVuSans-30" x="1039.599609"/>
     <use xlink:href="#DejaVuSans-32" x="1103.222656"/>
     <use xlink:href="#DejaVuSans-31" x="1166.845703"/>
    </g>
   </g>
   <g id="text_32">
    <!-- Disease timeline -->
    <g style="fill: #262626" transform="translate(392.434375 9.118125)scale(0.12 -0.12)">
     <defs>
      <path id="DejaVuSans-Bold-44" d="M 1791 3756 
L 1791 909 
L 2222 909 
Q 2959 909 3348 1275 
Q 3738 1641 3738 2338 
Q 3738 3031 3350 3393 
Q 2963 3756 2222 3756 
L 1791 3756 
z
M 588 4666 
L 1856 4666 
Q 2919 4666 3439 4514 
Q 3959 4363 4331 4000 
Q 4659 3684 4818 3271 
Q 4978 2859 4978 2338 
Q 4978 1809 4818 1395 
Q 4659 981 4331 666 
Q 3956 303 3431 151 
Q 2906 0 1856 0 
L 588 0 
L 588 4666 
z
" transform="scale(0.015625)"/>
      <path id="DejaVuSans-Bold-69" d="M 538 3500 
L 1656 3500 
L 1656 0 
L 538 0 
L 538 3500 
z
M 538 4863 
L 1656 4863 
L 1656 3950 
L 538 3950 
L 538 4863 
z
" transform="scale(0.015625)"/>
      <path id="DejaVuSans-Bold-73" d="M 3272 3391 
L 3272 2541 
Q 2913 2691 2578 2766 
Q 2244 2841 1947 2841 
Q 1628 2841 1473 2761 
Q 1319 2681 1319 2516 
Q 1319 2381 1436 2309 
Q 1553 2238 1856 2203 
L 2053 2175 
Q 2913 2066 3209 1816 
Q 3506 1566 3506 1031 
Q 3506 472 3093 190 
Q 2681 -91 1863 -91 
Q 1516 -91 1145 -36 
Q 775 19 384 128 
L 384 978 
Q 719 816 1070 734 
Q 1422 653 1784 653 
Q 2113 653 2278 743 
Q 2444 834 2444 1013 
Q 2444 1163 2330 1236 
Q 2216 1309 1875 1350 
L 1678 1375 
Q 931 1469 631 1722 
Q 331 1975 331 2491 
Q 331 3047 712 3315 
Q 1094 3584 1881 3584 
Q 2191 3584 2531 3537 
Q 2872 3491 3272 3391 
z
" transform="scale(0.015625)"/>
      <path id="DejaVuSans-Bold-65" d="M 4031 1759 
L 4031 1441 
L 1416 1441 
Q 1456 1047 1700 850 
Q 1944 653 2381 653 
Q 2734 653 3104 758 
Q 3475 863 3866 1075 
L 3866 213 
Q 3469 63 3072 -14 
Q 2675 -91 2278 -91 
Q 1328 -91 801 392 
Q 275 875 275 1747 
Q 275 2603 792 3093 
Q 1309 3584 2216 3584 
Q 3041 3584 3536 3087 
Q 4031 2591 4031 1759 
z
M 2881 2131 
Q 2881 2450 2695 2645 
Q 2509 2841 2209 2841 
Q 1884 2841 1681 2658 
Q 1478 2475 1428 2131 
L 2881 2131 
z
" transform="scale(0.015625)"/>
      <path id="DejaVuSans-Bold-61" d="M 2106 1575 
Q 1756 1575 1579 1456 
Q 1403 1338 1403 1106 
Q 1403 894 1545 773 
Q 1688 653 1941 653 
Q 2256 653 2472 879 
Q 2688 1106 2688 1447 
L 2688 1575 
L 2106 1575 
z
M 3816 1997 
L 3816 0 
L 2688 0 
L 2688 519 
Q 2463 200 2181 54 
Q 1900 -91 1497 -91 
Q 953 -91 614 226 
Q 275 544 275 1050 
Q 275 1666 698 1953 
Q 1122 2241 2028 2241 
L 2688 2241 
L 2688 2328 
Q 2688 2594 2478 2717 
Q 2269 2841 1825 2841 
Q 1466 2841 1156 2769 
Q 847 2697 581 2553 
L 581 3406 
Q 941 3494 1303 3539 
Q 1666 3584 2028 3584 
Q 2975 3584 3395 3211 
Q 3816 2838 3816 1997 
z
" transform="scale(0.015625)"/>
      <path id="DejaVuSans-Bold-20" transform="scale(0.015625)"/>
      <path id="DejaVuSans-Bold-74" d="M 1759 4494 
L 1759 3500 
L 2913 3500 
L 2913 2700 
L 1759 2700 
L 1759 1216 
Q 1759 972 1856 886 
Q 1953 800 2241 800 
L 2816 800 
L 2816 0 
L 1856 0 
Q 1194 0 917 276 
Q 641 553 641 1216 
L 641 2700 
L 84 2700 
L 84 3500 
L 641 3500 
L 641 4494 
L 1759 4494 
z
" transform="scale(0.015625)"/>
      <path id="DejaVuSans-Bold-6d" d="M 3781 2919 
Q 3994 3244 4286 3414 
Q 4578 3584 4928 3584 
Q 5531 3584 5847 3212 
Q 6163 2841 6163 2131 
L 6163 0 
L 5038 0 
L 5038 1825 
Q 5041 1866 5042 1909 
Q 5044 1953 5044 2034 
Q 5044 2406 4934 2573 
Q 4825 2741 4581 2741 
Q 4263 2741 4089 2478 
Q 3916 2216 3909 1719 
L 3909 0 
L 2784 0 
L 2784 1825 
Q 2784 2406 2684 2573 
Q 2584 2741 2328 2741 
Q 2006 2741 1831 2477 
Q 1656 2213 1656 1722 
L 1656 0 
L 531 0 
L 531 3500 
L 1656 3500 
L 1656 2988 
Q 1863 3284 2130 3434 
Q 2397 3584 2719 3584 
Q 3081 3584 3359 3409 
Q 3638 3234 3781 2919 
z
" transform="scale(0.015625)"/>
      <path id="DejaVuSans-Bold-6c" d="M 538 4863 
L 1656 4863 
L 1656 0 
L 538 0 
L 538 4863 
z
" transform="scale(0.015625)"/>
      <path id="DejaVuSans-Bold-6e" d="M 4056 2131 
L 4056 0 
L 2931 0 
L 2931 347 
L 2931 1631 
Q 2931 2084 2911 2256 
Q 2891 2428 2841 2509 
Q 2775 2619 2662 2680 
Q 2550 2741 2406 2741 
Q 2056 2741 1856 2470 
Q 1656 2200 1656 1722 
L 1656 0 
L 538 0 
L 538 3500 
L 1656 3500 
L 1656 2988 
Q 1909 3294 2193 3439 
Q 2478 3584 2822 3584 
Q 3428 3584 3742 3212 
Q 4056 2841 4056 2131 
z
" transform="scale(0.015625)"/>
     </defs>
     <use xlink:href="#DejaVuSans-Bold-44"/>
     <use xlink:href="#DejaVuSans-Bold-69" x="83.007812"/>
     <use xlink:href="#DejaVuSans-Bold-73" x="117.285156"/>
     <use xlink:href="#DejaVuSans-Bold-65" x="176.806641"/>
     <use xlink:href="#DejaVuSans-Bold-61" x="244.628906"/>
     <use xlink:href="#DejaVuSans-Bold-73" x="312.109375"/>
     <use xlink:href="#DejaVuSans-Bold-65" x="371.630859"/>
     <use xlink:href="#DejaVuSans-Bold-20" x="439.453125"/>
     <use xlink:href="#DejaVuSans-Bold-74" x="474.267578"/>
     <use xlink:href="#DejaVuSans-Bold-69" x="522.070312"/>
     <use xlink:href="#DejaVuSans-Bold-6d" x="556.347656"/>
     <use xlink:href="#DejaVuSans-Bold-65" x="660.546875"/>
     <use xlink:href="#DejaVuSans-Bold-6c" x="728.369141"/>
     <use xlink:href="#DejaVuSans-Bold-69" x="762.646484"/>
     <use xlink:href="#DejaVuSans-Bold-6e" x="796.923828"/>
     <use xlink:href="#DejaVuSans-Bold-65" x="868.115234"/>
    </g>
   </g>
   <g id="legend_1">
    <g id="patch_7">
     <path d="M 716.515781 70.21 
L 829.3775 70.21 
Q 831.5775 70.21 831.5775 68.01 
L 831.5775 36.818125 
Q 831.5775 34.618125 829.3775 34.618125 
L 716.515781 34.618125 
Q 714.315781 34.618125 714.315781 36.818125 
L 714.315781 68.01 
Q 714.315781 70.21 716.515781 70.21 
z
" style="fill: #ffffff; opacity: 0.8; stroke: #cccccc; stroke-linejoin: miter"/>
    </g>
    <g id="line2d_156">
     <path d="M 718.715781 43.526406 
L 729.715781 43.526406 
L 740.715781 43.526406 
" style="fill: none; stroke: #ffc0cb; stroke-width: 1.5; stroke-linecap: round"/>
    </g>
    <g id="text_33">
     <!-- Hospitalized -->
     <g style="fill: #262626" transform="translate(749.515781 47.376406)scale(0.11 -0.11)">
      <defs>
       <path id="DejaVuSans-48" d="M 628 4666 
L 1259 4666 
L 1259 2753 
L 3553 2753 
L 3553 4666 
L 4184 4666 
L 4184 0 
L 3553 0 
L 3553 2222 
L 1259 2222 
L 1259 0 
L 628 0 
L 628 4666 
z
" transform="scale(0.015625)"/>
       <path id="DejaVuSans-6f" d="M 1959 3097 
Q 1497 3097 1228 2736 
Q 959 2375 959 1747 
Q 959 1119 1226 758 
Q 1494 397 1959 397 
Q 2419 397 2687 759 
Q 2956 1122 2956 1747 
Q 2956 2369 2687 2733 
Q 2419 3097 1959 3097 
z
M 1959 3584 
Q 2709 3584 3137 3096 
Q 3566 2609 3566 1747 
Q 3566 888 3137 398 
Q 2709 -91 1959 -91 
Q 1206 -91 779 398 
Q 353 888 353 1747 
Q 353 2609 779 3096 
Q 1206 3584 1959 3584 
z
" transform="scale(0.015625)"/>
       <path id="DejaVuSans-69" d="M 603 3500 
L 1178 3500 
L 1178 0 
L 603 0 
L 603 3500 
z
M 603 4863 
L 1178 4863 
L 1178 4134 
L 603 4134 
L 603 4863 
z
" transform="scale(0.015625)"/>
       <path id="DejaVuSans-6c" d="M 603 4863 
L 1178 4863 
L 1178 0 
L 603 0 
L 603 4863 
z
" transform="scale(0.015625)"/>
       <path id="DejaVuSans-7a" d="M 353 3500 
L 3084 3500 
L 3084 2975 
L 922 459 
L 3084 459 
L 3084 0 
L 275 0 
L 275 525 
L 2438 3041 
L 353 3041 
L 353 3500 
z
" transform="scale(0.015625)"/>
      </defs>
      <use xlink:href="#DejaVuSans-48"/>
      <use xlink:href="#DejaVuSans-6f" x="75.195312"/>
      <use xlink:href="#DejaVuSans-73" x="136.376953"/>
      <use xlink:href="#DejaVuSans-70" x="188.476562"/>
      <use xlink:href="#DejaVuSans-69" x="251.953125"/>
      <use xlink:href="#DejaVuSans-74" x="279.736328"/>
      <use xlink:href="#DejaVuSans-61" x="318.945312"/>
      <use xlink:href="#DejaVuSans-6c" x="380.224609"/>
      <use xlink:href="#DejaVuSans-69" x="408.007812"/>
      <use xlink:href="#DejaVuSans-7a" x="435.791016"/>
      <use xlink:href="#DejaVuSans-65" x="488.28125"/>
      <use xlink:href="#DejaVuSans-64" x="549.804688"/>
     </g>
    </g>
    <g id="line2d_157">
     <path d="M 718.715781 59.672344 
L 729.715781 59.672344 
L 740.715781 59.672344 
" style="fill: none; stroke: #800080; stroke-width: 1.5; stroke-linecap: round"/>
    </g>
    <g id="text_34">
     <!-- Intensive care -->
     <g style="fill: #262626" transform="translate(749.515781 63.522344)scale(0.11 -0.11)">
      <defs>
       <path id="DejaVuSans-49" d="M 628 4666 
L 1259 4666 
L 1259 0 
L 628 0 
L 628 4666 
z
" transform="scale(0.015625)"/>
       <path id="DejaVuSans-6e" d="M 3513 2113 
L 3513 0 
L 2938 0 
L 2938 2094 
Q 2938 2591 2744 2837 
Q 2550 3084 2163 3084 
Q 1697 3084 1428 2787 
Q 1159 2491 1159 1978 
L 1159 0 
L 581 0 
L 581 3500 
L 1159 3500 
L 1159 2956 
Q 1366 3272 1645 3428 
Q 1925 3584 2291 3584 
Q 2894 3584 3203 3211 
Q 3513 2838 3513 2113 
z
" transform="scale(0.015625)"/>
       <path id="DejaVuSans-76" d="M 191 3500 
L 800 3500 
L 1894 563 
L 2988 3500 
L 3597 3500 
L 2284 0 
L 1503 0 
L 191 3500 
z
" transform="scale(0.015625)"/>
       <path id="DejaVuSans-63" d="M 3122 3366 
L 3122 2828 
Q 2878 2963 2633 3030 
Q 2388 3097 2138 3097 
Q 1578 3097 1268 2742 
Q 959 2388 959 1747 
Q 959 1106 1268 751 
Q 1578 397 2138 397 
Q 2388 397 2633 464 
Q 2878 531 3122 666 
L 3122 134 
Q 2881 22 2623 -34 
Q 2366 -91 2075 -91 
Q 1284 -91 818 406 
Q 353 903 353 1747 
Q 353 2603 823 3093 
Q 1294 3584 2113 3584 
Q 2378 3584 2631 3529 
Q 2884 3475 3122 3366 
z
" transform="scale(0.015625)"/>
       <path id="DejaVuSans-72" d="M 2631 2963 
Q 2534 3019 2420 3045 
Q 2306 3072 2169 3072 
Q 1681 3072 1420 2755 
Q 1159 2438 1159 1844 
L 1159 0 
L 581 0 
L 581 3500 
L 1159 3500 
L 1159 2956 
Q 1341 3275 1631 3429 
Q 1922 3584 2338 3584 
Q 2397 3584 2469 3576 
Q 2541 3569 2628 3553 
L 2631 2963 
z
" transform="scale(0.015625)"/>
      </defs>
      <use xlink:href="#DejaVuSans-49"/>
      <use xlink:href="#DejaVuSans-6e" x="29.492188"/>
      <use xlink:href="#DejaVuSans-74" x="92.871094"/>
      <use xlink:href="#DejaVuSans-65" x="132.080078"/>
      <use xlink:href="#DejaVuSans-6e" x="193.603516"/>
      <use xlink:href="#DejaVuSans-73" x="256.982422"/>
      <use xlink:href="#DejaVuSans-69" x="309.082031"/>
      <use xlink:href="#DejaVuSans-76" x="336.865234"/>
      <use xlink:href="#DejaVuSans-65" x="396.044922"/>
      <use xlink:href="#DejaVuSans-20" x="457.568359"/>
      <use xlink:href="#DejaVuSans-63" x="489.355469"/>
      <use xlink:href="#DejaVuSans-61" x="544.335938"/>
      <use xlink:href="#DejaVuSans-72" x="605.615234"/>
      <use xlink:href="#DejaVuSans-65" x="644.478516"/>
     </g>
    </g>
   </g>
  </g>
 </g>
 <defs>
  <clipPath id="pa675f45d9d">
   <rect x="60.1075" y="29.118125" width="776.97" height="441.610078"/>
  </clipPath>
 </defs>
</svg>
