<?xml version="1.0" encoding="utf-8" standalone="no"?>
<!DOCTYPE svg PUBLIC "-//W3C//DTD SVG 1.1//EN"
  "http://www.w3.org/Graphics/SVG/1.1/DTD/svg11.dtd">
<svg height="570.462488pt" version="1.1" viewBox="0 0 851.1301 570.462488" width="851.1301pt" xmlns="http://www.w3.org/2000/svg" xmlns:xlink="http://www.w3.org/1999/xlink">
 <metadata>
  <rdf:RDF xmlns:cc="http://creativecommons.org/ns#" xmlns:dc="http://purl.org/dc/elements/1.1/" xmlns:rdf="http://www.w3.org/1999/02/22-rdf-syntax-ns#">
   <cc:Work>
    <dc:type rdf:resource="http://purl.org/dc/dcmitype/StillImage"/>
    <dc:date>2021-11-07T01:52:07.496977</dc:date>
    <dc:format>image/svg+xml</dc:format>
    <dc:creator>
     <cc:Agent>
      <dc:title>Matplotlib v3.4.3, https://matplotlib.org/</dc:title>
     </cc:Agent>
    </dc:creator>
   </cc:Work>
  </rdf:RDF>
 </metadata>
 <defs>
  <style type="text/css">*{stroke-linecap:butt;stroke-linejoin:round;}</style>
 </defs>
 <g id="figure_1">
  <g id="patch_1">
   <path d="M 0 570.462488 
L 851.1301 570.462488 
L 851.1301 0 
L 0 0 
z
" style="fill:none;"/>
  </g>
  <g id="axes_1">
   <g id="patch_2">
    <path d="M 60.1075 493.286013 
L 851.1301 493.286013 
L 851.1301 29.118125 
L 60.1075 29.118125 
z
" style="fill:none;"/>
   </g>
   <g id="matplotlib.axis_1">
    <g id="xtick_1">
     <g id="line2d_1">
      <path clip-path="url(#p427b7a471d)" d="M 96.063073 493.286013 
L 96.063073 29.118125 
" style="fill:none;stroke:#cccccc;stroke-linecap:round;"/>
     </g>
     <g id="line2d_2">
      <defs>
       <path d="M 0 0 
L 0 6 
" id="m772fd79d1b" style="stroke:#262626;stroke-width:1.25;"/>
      </defs>
      <g>
       <use style="fill:#262626;stroke:#262626;stroke-width:1.25;" x="96.063073" xlink:href="#m772fd79d1b" y="493.286013"/>
      </g>
     </g>
     <g id="text_1">
      <!-- 05.04.2020 -->
      <g style="fill:#262626;" transform="translate(49.910545 553.231121)rotate(-45)scale(0.11 -0.11)">
       <defs>
        <path d="M 2034 4250 
Q 1547 4250 1301 3770 
Q 1056 3291 1056 2328 
Q 1056 1369 1301 889 
Q 1547 409 2034 409 
Q 2525 409 2770 889 
Q 3016 1369 3016 2328 
Q 3016 3291 2770 3770 
Q 2525 4250 2034 4250 
z
M 2034 4750 
Q 2819 4750 3233 4129 
Q 3647 3509 3647 2328 
Q 3647 1150 3233 529 
Q 2819 -91 2034 -91 
Q 1250 -91 836 529 
Q 422 1150 422 2328 
Q 422 3509 836 4129 
Q 1250 4750 2034 4750 
z
" id="DejaVuSans-30" transform="scale(0.015625)"/>
        <path d="M 691 4666 
L 3169 4666 
L 3169 4134 
L 1269 4134 
L 1269 2991 
Q 1406 3038 1543 3061 
Q 1681 3084 1819 3084 
Q 2600 3084 3056 2656 
Q 3513 2228 3513 1497 
Q 3513 744 3044 326 
Q 2575 -91 1722 -91 
Q 1428 -91 1123 -41 
Q 819 9 494 109 
L 494 744 
Q 775 591 1075 516 
Q 1375 441 1709 441 
Q 2250 441 2565 725 
Q 2881 1009 2881 1497 
Q 2881 1984 2565 2268 
Q 2250 2553 1709 2553 
Q 1456 2553 1204 2497 
Q 953 2441 691 2322 
L 691 4666 
z
" id="DejaVuSans-35" transform="scale(0.015625)"/>
        <path d="M 684 794 
L 1344 794 
L 1344 0 
L 684 0 
L 684 794 
z
" id="DejaVuSans-2e" transform="scale(0.015625)"/>
        <path d="M 2419 4116 
L 825 1625 
L 2419 1625 
L 2419 4116 
z
M 2253 4666 
L 3047 4666 
L 3047 1625 
L 3713 1625 
L 3713 1100 
L 3047 1100 
L 3047 0 
L 2419 0 
L 2419 1100 
L 313 1100 
L 313 1709 
L 2253 4666 
z
" id="DejaVuSans-34" transform="scale(0.015625)"/>
        <path d="M 1228 531 
L 3431 531 
L 3431 0 
L 469 0 
L 469 531 
Q 828 903 1448 1529 
Q 2069 2156 2228 2338 
Q 2531 2678 2651 2914 
Q 2772 3150 2772 3378 
Q 2772 3750 2511 3984 
Q 2250 4219 1831 4219 
Q 1534 4219 1204 4116 
Q 875 4013 500 3803 
L 500 4441 
Q 881 4594 1212 4672 
Q 1544 4750 1819 4750 
Q 2544 4750 2975 4387 
Q 3406 4025 3406 3419 
Q 3406 3131 3298 2873 
Q 3191 2616 2906 2266 
Q 2828 2175 2409 1742 
Q 1991 1309 1228 531 
z
" id="DejaVuSans-32" transform="scale(0.015625)"/>
       </defs>
       <use xlink:href="#DejaVuSans-30"/>
       <use x="63.623047" xlink:href="#DejaVuSans-35"/>
       <use x="127.246094" xlink:href="#DejaVuSans-2e"/>
       <use x="159.033203" xlink:href="#DejaVuSans-30"/>
       <use x="222.65625" xlink:href="#DejaVuSans-34"/>
       <use x="286.279297" xlink:href="#DejaVuSans-2e"/>
       <use x="318.066406" xlink:href="#DejaVuSans-32"/>
       <use x="381.689453" xlink:href="#DejaVuSans-30"/>
       <use x="445.3125" xlink:href="#DejaVuSans-32"/>
       <use x="508.935547" xlink:href="#DejaVuSans-30"/>
      </g>
     </g>
    </g>
    <g id="xtick_2">
     <g id="line2d_3">
      <path clip-path="url(#p427b7a471d)" d="M 130.778798 493.286013 
L 130.778798 29.118125 
" style="fill:none;stroke:#cccccc;stroke-linecap:round;"/>
     </g>
     <g id="line2d_4">
      <g>
       <use style="fill:#262626;stroke:#262626;stroke-width:1.25;" x="130.778798" xlink:href="#m772fd79d1b" y="493.286013"/>
      </g>
     </g>
     <g id="text_2">
      <!-- 03.05.2020 -->
      <g style="fill:#262626;" transform="translate(84.62627 553.231121)rotate(-45)scale(0.11 -0.11)">
       <defs>
        <path d="M 2597 2516 
Q 3050 2419 3304 2112 
Q 3559 1806 3559 1356 
Q 3559 666 3084 287 
Q 2609 -91 1734 -91 
Q 1441 -91 1130 -33 
Q 819 25 488 141 
L 488 750 
Q 750 597 1062 519 
Q 1375 441 1716 441 
Q 2309 441 2620 675 
Q 2931 909 2931 1356 
Q 2931 1769 2642 2001 
Q 2353 2234 1838 2234 
L 1294 2234 
L 1294 2753 
L 1863 2753 
Q 2328 2753 2575 2939 
Q 2822 3125 2822 3475 
Q 2822 3834 2567 4026 
Q 2313 4219 1838 4219 
Q 1578 4219 1281 4162 
Q 984 4106 628 3988 
L 628 4550 
Q 988 4650 1302 4700 
Q 1616 4750 1894 4750 
Q 2613 4750 3031 4423 
Q 3450 4097 3450 3541 
Q 3450 3153 3228 2886 
Q 3006 2619 2597 2516 
z
" id="DejaVuSans-33" transform="scale(0.015625)"/>
       </defs>
       <use xlink:href="#DejaVuSans-30"/>
       <use x="63.623047" xlink:href="#DejaVuSans-33"/>
       <use x="127.246094" xlink:href="#DejaVuSans-2e"/>
       <use x="159.033203" xlink:href="#DejaVuSans-30"/>
       <use x="222.65625" xlink:href="#DejaVuSans-35"/>
       <use x="286.279297" xlink:href="#DejaVuSans-2e"/>
       <use x="318.066406" xlink:href="#DejaVuSans-32"/>
       <use x="381.689453" xlink:href="#DejaVuSans-30"/>
       <use x="445.3125" xlink:href="#DejaVuSans-32"/>
       <use x="508.935547" xlink:href="#DejaVuSans-30"/>
      </g>
     </g>
    </g>
    <g id="xtick_3">
     <g id="line2d_5">
      <path clip-path="url(#p427b7a471d)" d="M 165.494524 493.286013 
L 165.494524 29.118125 
" style="fill:none;stroke:#cccccc;stroke-linecap:round;"/>
     </g>
     <g id="line2d_6">
      <g>
       <use style="fill:#262626;stroke:#262626;stroke-width:1.25;" x="165.494524" xlink:href="#m772fd79d1b" y="493.286013"/>
      </g>
     </g>
     <g id="text_3">
      <!-- 31.05.2020 -->
      <g style="fill:#262626;" transform="translate(119.341995 553.231121)rotate(-45)scale(0.11 -0.11)">
       <defs>
        <path d="M 794 531 
L 1825 531 
L 1825 4091 
L 703 3866 
L 703 4441 
L 1819 4666 
L 2450 4666 
L 2450 531 
L 3481 531 
L 3481 0 
L 794 0 
L 794 531 
z
" id="DejaVuSans-31" transform="scale(0.015625)"/>
       </defs>
       <use xlink:href="#DejaVuSans-33"/>
       <use x="63.623047" xlink:href="#DejaVuSans-31"/>
       <use x="127.246094" xlink:href="#DejaVuSans-2e"/>
       <use x="159.033203" xlink:href="#DejaVuSans-30"/>
       <use x="222.65625" xlink:href="#DejaVuSans-35"/>
       <use x="286.279297" xlink:href="#DejaVuSans-2e"/>
       <use x="318.066406" xlink:href="#DejaVuSans-32"/>
       <use x="381.689453" xlink:href="#DejaVuSans-30"/>
       <use x="445.3125" xlink:href="#DejaVuSans-32"/>
       <use x="508.935547" xlink:href="#DejaVuSans-30"/>
      </g>
     </g>
    </g>
    <g id="xtick_4">
     <g id="line2d_7">
      <path clip-path="url(#p427b7a471d)" d="M 200.210249 493.286013 
L 200.210249 29.118125 
" style="fill:none;stroke:#cccccc;stroke-linecap:round;"/>
     </g>
     <g id="line2d_8">
      <g>
       <use style="fill:#262626;stroke:#262626;stroke-width:1.25;" x="200.210249" xlink:href="#m772fd79d1b" y="493.286013"/>
      </g>
     </g>
     <g id="text_4">
      <!-- 28.06.2020 -->
      <g style="fill:#262626;" transform="translate(154.057721 553.231121)rotate(-45)scale(0.11 -0.11)">
       <defs>
        <path d="M 2034 2216 
Q 1584 2216 1326 1975 
Q 1069 1734 1069 1313 
Q 1069 891 1326 650 
Q 1584 409 2034 409 
Q 2484 409 2743 651 
Q 3003 894 3003 1313 
Q 3003 1734 2745 1975 
Q 2488 2216 2034 2216 
z
M 1403 2484 
Q 997 2584 770 2862 
Q 544 3141 544 3541 
Q 544 4100 942 4425 
Q 1341 4750 2034 4750 
Q 2731 4750 3128 4425 
Q 3525 4100 3525 3541 
Q 3525 3141 3298 2862 
Q 3072 2584 2669 2484 
Q 3125 2378 3379 2068 
Q 3634 1759 3634 1313 
Q 3634 634 3220 271 
Q 2806 -91 2034 -91 
Q 1263 -91 848 271 
Q 434 634 434 1313 
Q 434 1759 690 2068 
Q 947 2378 1403 2484 
z
M 1172 3481 
Q 1172 3119 1398 2916 
Q 1625 2713 2034 2713 
Q 2441 2713 2670 2916 
Q 2900 3119 2900 3481 
Q 2900 3844 2670 4047 
Q 2441 4250 2034 4250 
Q 1625 4250 1398 4047 
Q 1172 3844 1172 3481 
z
" id="DejaVuSans-38" transform="scale(0.015625)"/>
        <path d="M 2113 2584 
Q 1688 2584 1439 2293 
Q 1191 2003 1191 1497 
Q 1191 994 1439 701 
Q 1688 409 2113 409 
Q 2538 409 2786 701 
Q 3034 994 3034 1497 
Q 3034 2003 2786 2293 
Q 2538 2584 2113 2584 
z
M 3366 4563 
L 3366 3988 
Q 3128 4100 2886 4159 
Q 2644 4219 2406 4219 
Q 1781 4219 1451 3797 
Q 1122 3375 1075 2522 
Q 1259 2794 1537 2939 
Q 1816 3084 2150 3084 
Q 2853 3084 3261 2657 
Q 3669 2231 3669 1497 
Q 3669 778 3244 343 
Q 2819 -91 2113 -91 
Q 1303 -91 875 529 
Q 447 1150 447 2328 
Q 447 3434 972 4092 
Q 1497 4750 2381 4750 
Q 2619 4750 2861 4703 
Q 3103 4656 3366 4563 
z
" id="DejaVuSans-36" transform="scale(0.015625)"/>
       </defs>
       <use xlink:href="#DejaVuSans-32"/>
       <use x="63.623047" xlink:href="#DejaVuSans-38"/>
       <use x="127.246094" xlink:href="#DejaVuSans-2e"/>
       <use x="159.033203" xlink:href="#DejaVuSans-30"/>
       <use x="222.65625" xlink:href="#DejaVuSans-36"/>
       <use x="286.279297" xlink:href="#DejaVuSans-2e"/>
       <use x="318.066406" xlink:href="#DejaVuSans-32"/>
       <use x="381.689453" xlink:href="#DejaVuSans-30"/>
       <use x="445.3125" xlink:href="#DejaVuSans-32"/>
       <use x="508.935547" xlink:href="#DejaVuSans-30"/>
      </g>
     </g>
    </g>
    <g id="xtick_5">
     <g id="line2d_9">
      <path clip-path="url(#p427b7a471d)" d="M 234.925974 493.286013 
L 234.925974 29.118125 
" style="fill:none;stroke:#cccccc;stroke-linecap:round;"/>
     </g>
     <g id="line2d_10">
      <g>
       <use style="fill:#262626;stroke:#262626;stroke-width:1.25;" x="234.925974" xlink:href="#m772fd79d1b" y="493.286013"/>
      </g>
     </g>
     <g id="text_5">
      <!-- 26.07.2020 -->
      <g style="fill:#262626;" transform="translate(188.773446 553.231121)rotate(-45)scale(0.11 -0.11)">
       <defs>
        <path d="M 525 4666 
L 3525 4666 
L 3525 4397 
L 1831 0 
L 1172 0 
L 2766 4134 
L 525 4134 
L 525 4666 
z
" id="DejaVuSans-37" transform="scale(0.015625)"/>
       </defs>
       <use xlink:href="#DejaVuSans-32"/>
       <use x="63.623047" xlink:href="#DejaVuSans-36"/>
       <use x="127.246094" xlink:href="#DejaVuSans-2e"/>
       <use x="159.033203" xlink:href="#DejaVuSans-30"/>
       <use x="222.65625" xlink:href="#DejaVuSans-37"/>
       <use x="286.279297" xlink:href="#DejaVuSans-2e"/>
       <use x="318.066406" xlink:href="#DejaVuSans-32"/>
       <use x="381.689453" xlink:href="#DejaVuSans-30"/>
       <use x="445.3125" xlink:href="#DejaVuSans-32"/>
       <use x="508.935547" xlink:href="#DejaVuSans-30"/>
      </g>
     </g>
    </g>
    <g id="xtick_6">
     <g id="line2d_11">
      <path clip-path="url(#p427b7a471d)" d="M 269.6417 493.286013 
L 269.6417 29.118125 
" style="fill:none;stroke:#cccccc;stroke-linecap:round;"/>
     </g>
     <g id="line2d_12">
      <g>
       <use style="fill:#262626;stroke:#262626;stroke-width:1.25;" x="269.6417" xlink:href="#m772fd79d1b" y="493.286013"/>
      </g>
     </g>
     <g id="text_6">
      <!-- 23.08.2020 -->
      <g style="fill:#262626;" transform="translate(223.489172 553.231121)rotate(-45)scale(0.11 -0.11)">
       <use xlink:href="#DejaVuSans-32"/>
       <use x="63.623047" xlink:href="#DejaVuSans-33"/>
       <use x="127.246094" xlink:href="#DejaVuSans-2e"/>
       <use x="159.033203" xlink:href="#DejaVuSans-30"/>
       <use x="222.65625" xlink:href="#DejaVuSans-38"/>
       <use x="286.279297" xlink:href="#DejaVuSans-2e"/>
       <use x="318.066406" xlink:href="#DejaVuSans-32"/>
       <use x="381.689453" xlink:href="#DejaVuSans-30"/>
       <use x="445.3125" xlink:href="#DejaVuSans-32"/>
       <use x="508.935547" xlink:href="#DejaVuSans-30"/>
      </g>
     </g>
    </g>
    <g id="xtick_7">
     <g id="line2d_13">
      <path clip-path="url(#p427b7a471d)" d="M 304.357425 493.286013 
L 304.357425 29.118125 
" style="fill:none;stroke:#cccccc;stroke-linecap:round;"/>
     </g>
     <g id="line2d_14">
      <g>
       <use style="fill:#262626;stroke:#262626;stroke-width:1.25;" x="304.357425" xlink:href="#m772fd79d1b" y="493.286013"/>
      </g>
     </g>
     <g id="text_7">
      <!-- 20.09.2020 -->
      <g style="fill:#262626;" transform="translate(258.204897 553.231121)rotate(-45)scale(0.11 -0.11)">
       <defs>
        <path d="M 703 97 
L 703 672 
Q 941 559 1184 500 
Q 1428 441 1663 441 
Q 2288 441 2617 861 
Q 2947 1281 2994 2138 
Q 2813 1869 2534 1725 
Q 2256 1581 1919 1581 
Q 1219 1581 811 2004 
Q 403 2428 403 3163 
Q 403 3881 828 4315 
Q 1253 4750 1959 4750 
Q 2769 4750 3195 4129 
Q 3622 3509 3622 2328 
Q 3622 1225 3098 567 
Q 2575 -91 1691 -91 
Q 1453 -91 1209 -44 
Q 966 3 703 97 
z
M 1959 2075 
Q 2384 2075 2632 2365 
Q 2881 2656 2881 3163 
Q 2881 3666 2632 3958 
Q 2384 4250 1959 4250 
Q 1534 4250 1286 3958 
Q 1038 3666 1038 3163 
Q 1038 2656 1286 2365 
Q 1534 2075 1959 2075 
z
" id="DejaVuSans-39" transform="scale(0.015625)"/>
       </defs>
       <use xlink:href="#DejaVuSans-32"/>
       <use x="63.623047" xlink:href="#DejaVuSans-30"/>
       <use x="127.246094" xlink:href="#DejaVuSans-2e"/>
       <use x="159.033203" xlink:href="#DejaVuSans-30"/>
       <use x="222.65625" xlink:href="#DejaVuSans-39"/>
       <use x="286.279297" xlink:href="#DejaVuSans-2e"/>
       <use x="318.066406" xlink:href="#DejaVuSans-32"/>
       <use x="381.689453" xlink:href="#DejaVuSans-30"/>
       <use x="445.3125" xlink:href="#DejaVuSans-32"/>
       <use x="508.935547" xlink:href="#DejaVuSans-30"/>
      </g>
     </g>
    </g>
    <g id="xtick_8">
     <g id="line2d_15">
      <path clip-path="url(#p427b7a471d)" d="M 339.07315 493.286013 
L 339.07315 29.118125 
" style="fill:none;stroke:#cccccc;stroke-linecap:round;"/>
     </g>
     <g id="line2d_16">
      <g>
       <use style="fill:#262626;stroke:#262626;stroke-width:1.25;" x="339.07315" xlink:href="#m772fd79d1b" y="493.286013"/>
      </g>
     </g>
     <g id="text_8">
      <!-- 18.10.2020 -->
      <g style="fill:#262626;" transform="translate(292.920622 553.231121)rotate(-45)scale(0.11 -0.11)">
       <use xlink:href="#DejaVuSans-31"/>
       <use x="63.623047" xlink:href="#DejaVuSans-38"/>
       <use x="127.246094" xlink:href="#DejaVuSans-2e"/>
       <use x="159.033203" xlink:href="#DejaVuSans-31"/>
       <use x="222.65625" xlink:href="#DejaVuSans-30"/>
       <use x="286.279297" xlink:href="#DejaVuSans-2e"/>
       <use x="318.066406" xlink:href="#DejaVuSans-32"/>
       <use x="381.689453" xlink:href="#DejaVuSans-30"/>
       <use x="445.3125" xlink:href="#DejaVuSans-32"/>
       <use x="508.935547" xlink:href="#DejaVuSans-30"/>
      </g>
     </g>
    </g>
    <g id="xtick_9">
     <g id="line2d_17">
      <path clip-path="url(#p427b7a471d)" d="M 373.788876 493.286013 
L 373.788876 29.118125 
" style="fill:none;stroke:#cccccc;stroke-linecap:round;"/>
     </g>
     <g id="line2d_18">
      <g>
       <use style="fill:#262626;stroke:#262626;stroke-width:1.25;" x="373.788876" xlink:href="#m772fd79d1b" y="493.286013"/>
      </g>
     </g>
     <g id="text_9">
      <!-- 15.11.2020 -->
      <g style="fill:#262626;" transform="translate(327.636348 553.231121)rotate(-45)scale(0.11 -0.11)">
       <use xlink:href="#DejaVuSans-31"/>
       <use x="63.623047" xlink:href="#DejaVuSans-35"/>
       <use x="127.246094" xlink:href="#DejaVuSans-2e"/>
       <use x="159.033203" xlink:href="#DejaVuSans-31"/>
       <use x="222.65625" xlink:href="#DejaVuSans-31"/>
       <use x="286.279297" xlink:href="#DejaVuSans-2e"/>
       <use x="318.066406" xlink:href="#DejaVuSans-32"/>
       <use x="381.689453" xlink:href="#DejaVuSans-30"/>
       <use x="445.3125" xlink:href="#DejaVuSans-32"/>
       <use x="508.935547" xlink:href="#DejaVuSans-30"/>
      </g>
     </g>
    </g>
    <g id="xtick_10">
     <g id="line2d_19">
      <path clip-path="url(#p427b7a471d)" d="M 408.504601 493.286013 
L 408.504601 29.118125 
" style="fill:none;stroke:#cccccc;stroke-linecap:round;"/>
     </g>
     <g id="line2d_20">
      <g>
       <use style="fill:#262626;stroke:#262626;stroke-width:1.25;" x="408.504601" xlink:href="#m772fd79d1b" y="493.286013"/>
      </g>
     </g>
     <g id="text_10">
      <!-- 13.12.2020 -->
      <g style="fill:#262626;" transform="translate(362.352073 553.231121)rotate(-45)scale(0.11 -0.11)">
       <use xlink:href="#DejaVuSans-31"/>
       <use x="63.623047" xlink:href="#DejaVuSans-33"/>
       <use x="127.246094" xlink:href="#DejaVuSans-2e"/>
       <use x="159.033203" xlink:href="#DejaVuSans-31"/>
       <use x="222.65625" xlink:href="#DejaVuSans-32"/>
       <use x="286.279297" xlink:href="#DejaVuSans-2e"/>
       <use x="318.066406" xlink:href="#DejaVuSans-32"/>
       <use x="381.689453" xlink:href="#DejaVuSans-30"/>
       <use x="445.3125" xlink:href="#DejaVuSans-32"/>
       <use x="508.935547" xlink:href="#DejaVuSans-30"/>
      </g>
     </g>
    </g>
    <g id="xtick_11">
     <g id="line2d_21">
      <path clip-path="url(#p427b7a471d)" d="M 443.220327 493.286013 
L 443.220327 29.118125 
" style="fill:none;stroke:#cccccc;stroke-linecap:round;"/>
     </g>
     <g id="line2d_22">
      <g>
       <use style="fill:#262626;stroke:#262626;stroke-width:1.25;" x="443.220327" xlink:href="#m772fd79d1b" y="493.286013"/>
      </g>
     </g>
     <g id="text_11">
      <!-- 10.01.2021 -->
      <g style="fill:#262626;" transform="translate(397.067798 553.231121)rotate(-45)scale(0.11 -0.11)">
       <use xlink:href="#DejaVuSans-31"/>
       <use x="63.623047" xlink:href="#DejaVuSans-30"/>
       <use x="127.246094" xlink:href="#DejaVuSans-2e"/>
       <use x="159.033203" xlink:href="#DejaVuSans-30"/>
       <use x="222.65625" xlink:href="#DejaVuSans-31"/>
       <use x="286.279297" xlink:href="#DejaVuSans-2e"/>
       <use x="318.066406" xlink:href="#DejaVuSans-32"/>
       <use x="381.689453" xlink:href="#DejaVuSans-30"/>
       <use x="445.3125" xlink:href="#DejaVuSans-32"/>
       <use x="508.935547" xlink:href="#DejaVuSans-31"/>
      </g>
     </g>
    </g>
    <g id="xtick_12">
     <g id="line2d_23">
      <path clip-path="url(#p427b7a471d)" d="M 477.936052 493.286013 
L 477.936052 29.118125 
" style="fill:none;stroke:#cccccc;stroke-linecap:round;"/>
     </g>
     <g id="line2d_24">
      <g>
       <use style="fill:#262626;stroke:#262626;stroke-width:1.25;" x="477.936052" xlink:href="#m772fd79d1b" y="493.286013"/>
      </g>
     </g>
     <g id="text_12">
      <!-- 07.02.2021 -->
      <g style="fill:#262626;" transform="translate(431.783524 553.231121)rotate(-45)scale(0.11 -0.11)">
       <use xlink:href="#DejaVuSans-30"/>
       <use x="63.623047" xlink:href="#DejaVuSans-37"/>
       <use x="127.246094" xlink:href="#DejaVuSans-2e"/>
       <use x="159.033203" xlink:href="#DejaVuSans-30"/>
       <use x="222.65625" xlink:href="#DejaVuSans-32"/>
       <use x="286.279297" xlink:href="#DejaVuSans-2e"/>
       <use x="318.066406" xlink:href="#DejaVuSans-32"/>
       <use x="381.689453" xlink:href="#DejaVuSans-30"/>
       <use x="445.3125" xlink:href="#DejaVuSans-32"/>
       <use x="508.935547" xlink:href="#DejaVuSans-31"/>
      </g>
     </g>
    </g>
    <g id="xtick_13">
     <g id="line2d_25">
      <path clip-path="url(#p427b7a471d)" d="M 512.651777 493.286013 
L 512.651777 29.118125 
" style="fill:none;stroke:#cccccc;stroke-linecap:round;"/>
     </g>
     <g id="line2d_26">
      <g>
       <use style="fill:#262626;stroke:#262626;stroke-width:1.25;" x="512.651777" xlink:href="#m772fd79d1b" y="493.286013"/>
      </g>
     </g>
     <g id="text_13">
      <!-- 07.03.2021 -->
      <g style="fill:#262626;" transform="translate(466.499249 553.231121)rotate(-45)scale(0.11 -0.11)">
       <use xlink:href="#DejaVuSans-30"/>
       <use x="63.623047" xlink:href="#DejaVuSans-37"/>
       <use x="127.246094" xlink:href="#DejaVuSans-2e"/>
       <use x="159.033203" xlink:href="#DejaVuSans-30"/>
       <use x="222.65625" xlink:href="#DejaVuSans-33"/>
       <use x="286.279297" xlink:href="#DejaVuSans-2e"/>
       <use x="318.066406" xlink:href="#DejaVuSans-32"/>
       <use x="381.689453" xlink:href="#DejaVuSans-30"/>
       <use x="445.3125" xlink:href="#DejaVuSans-32"/>
       <use x="508.935547" xlink:href="#DejaVuSans-31"/>
      </g>
     </g>
    </g>
    <g id="xtick_14">
     <g id="line2d_27">
      <path clip-path="url(#p427b7a471d)" d="M 547.367503 493.286013 
L 547.367503 29.118125 
" style="fill:none;stroke:#cccccc;stroke-linecap:round;"/>
     </g>
     <g id="line2d_28">
      <g>
       <use style="fill:#262626;stroke:#262626;stroke-width:1.25;" x="547.367503" xlink:href="#m772fd79d1b" y="493.286013"/>
      </g>
     </g>
     <g id="text_14">
      <!-- 04.04.2021 -->
      <g style="fill:#262626;" transform="translate(501.214975 553.231121)rotate(-45)scale(0.11 -0.11)">
       <use xlink:href="#DejaVuSans-30"/>
       <use x="63.623047" xlink:href="#DejaVuSans-34"/>
       <use x="127.246094" xlink:href="#DejaVuSans-2e"/>
       <use x="159.033203" xlink:href="#DejaVuSans-30"/>
       <use x="222.65625" xlink:href="#DejaVuSans-34"/>
       <use x="286.279297" xlink:href="#DejaVuSans-2e"/>
       <use x="318.066406" xlink:href="#DejaVuSans-32"/>
       <use x="381.689453" xlink:href="#DejaVuSans-30"/>
       <use x="445.3125" xlink:href="#DejaVuSans-32"/>
       <use x="508.935547" xlink:href="#DejaVuSans-31"/>
      </g>
     </g>
    </g>
    <g id="xtick_15">
     <g id="line2d_29">
      <path clip-path="url(#p427b7a471d)" d="M 582.083228 493.286013 
L 582.083228 29.118125 
" style="fill:none;stroke:#cccccc;stroke-linecap:round;"/>
     </g>
     <g id="line2d_30">
      <g>
       <use style="fill:#262626;stroke:#262626;stroke-width:1.25;" x="582.083228" xlink:href="#m772fd79d1b" y="493.286013"/>
      </g>
     </g>
     <g id="text_15">
      <!-- 02.05.2021 -->
      <g style="fill:#262626;" transform="translate(535.9307 553.231121)rotate(-45)scale(0.11 -0.11)">
       <use xlink:href="#DejaVuSans-30"/>
       <use x="63.623047" xlink:href="#DejaVuSans-32"/>
       <use x="127.246094" xlink:href="#DejaVuSans-2e"/>
       <use x="159.033203" xlink:href="#DejaVuSans-30"/>
       <use x="222.65625" xlink:href="#DejaVuSans-35"/>
       <use x="286.279297" xlink:href="#DejaVuSans-2e"/>
       <use x="318.066406" xlink:href="#DejaVuSans-32"/>
       <use x="381.689453" xlink:href="#DejaVuSans-30"/>
       <use x="445.3125" xlink:href="#DejaVuSans-32"/>
       <use x="508.935547" xlink:href="#DejaVuSans-31"/>
      </g>
     </g>
    </g>
    <g id="xtick_16">
     <g id="line2d_31">
      <path clip-path="url(#p427b7a471d)" d="M 616.798954 493.286013 
L 616.798954 29.118125 
" style="fill:none;stroke:#cccccc;stroke-linecap:round;"/>
     </g>
     <g id="line2d_32">
      <g>
       <use style="fill:#262626;stroke:#262626;stroke-width:1.25;" x="616.798954" xlink:href="#m772fd79d1b" y="493.286013"/>
      </g>
     </g>
     <g id="text_16">
      <!-- 30.05.2021 -->
      <g style="fill:#262626;" transform="translate(570.646425 553.231121)rotate(-45)scale(0.11 -0.11)">
       <use xlink:href="#DejaVuSans-33"/>
       <use x="63.623047" xlink:href="#DejaVuSans-30"/>
       <use x="127.246094" xlink:href="#DejaVuSans-2e"/>
       <use x="159.033203" xlink:href="#DejaVuSans-30"/>
       <use x="222.65625" xlink:href="#DejaVuSans-35"/>
       <use x="286.279297" xlink:href="#DejaVuSans-2e"/>
       <use x="318.066406" xlink:href="#DejaVuSans-32"/>
       <use x="381.689453" xlink:href="#DejaVuSans-30"/>
       <use x="445.3125" xlink:href="#DejaVuSans-32"/>
       <use x="508.935547" xlink:href="#DejaVuSans-31"/>
      </g>
     </g>
    </g>
    <g id="xtick_17">
     <g id="line2d_33">
      <path clip-path="url(#p427b7a471d)" d="M 651.514679 493.286013 
L 651.514679 29.118125 
" style="fill:none;stroke:#cccccc;stroke-linecap:round;"/>
     </g>
     <g id="line2d_34">
      <g>
       <use style="fill:#262626;stroke:#262626;stroke-width:1.25;" x="651.514679" xlink:href="#m772fd79d1b" y="493.286013"/>
      </g>
     </g>
     <g id="text_17">
      <!-- 27.06.2021 -->
      <g style="fill:#262626;" transform="translate(605.362151 553.231121)rotate(-45)scale(0.11 -0.11)">
       <use xlink:href="#DejaVuSans-32"/>
       <use x="63.623047" xlink:href="#DejaVuSans-37"/>
       <use x="127.246094" xlink:href="#DejaVuSans-2e"/>
       <use x="159.033203" xlink:href="#DejaVuSans-30"/>
       <use x="222.65625" xlink:href="#DejaVuSans-36"/>
       <use x="286.279297" xlink:href="#DejaVuSans-2e"/>
       <use x="318.066406" xlink:href="#DejaVuSans-32"/>
       <use x="381.689453" xlink:href="#DejaVuSans-30"/>
       <use x="445.3125" xlink:href="#DejaVuSans-32"/>
       <use x="508.935547" xlink:href="#DejaVuSans-31"/>
      </g>
     </g>
    </g>
    <g id="xtick_18">
     <g id="line2d_35">
      <path clip-path="url(#p427b7a471d)" d="M 686.230404 493.286013 
L 686.230404 29.118125 
" style="fill:none;stroke:#cccccc;stroke-linecap:round;"/>
     </g>
     <g id="line2d_36">
      <g>
       <use style="fill:#262626;stroke:#262626;stroke-width:1.25;" x="686.230404" xlink:href="#m772fd79d1b" y="493.286013"/>
      </g>
     </g>
     <g id="text_18">
      <!-- 25.07.2021 -->
      <g style="fill:#262626;" transform="translate(640.077876 553.231121)rotate(-45)scale(0.11 -0.11)">
       <use xlink:href="#DejaVuSans-32"/>
       <use x="63.623047" xlink:href="#DejaVuSans-35"/>
       <use x="127.246094" xlink:href="#DejaVuSans-2e"/>
       <use x="159.033203" xlink:href="#DejaVuSans-30"/>
       <use x="222.65625" xlink:href="#DejaVuSans-37"/>
       <use x="286.279297" xlink:href="#DejaVuSans-2e"/>
       <use x="318.066406" xlink:href="#DejaVuSans-32"/>
       <use x="381.689453" xlink:href="#DejaVuSans-30"/>
       <use x="445.3125" xlink:href="#DejaVuSans-32"/>
       <use x="508.935547" xlink:href="#DejaVuSans-31"/>
      </g>
     </g>
    </g>
    <g id="xtick_19">
     <g id="line2d_37">
      <path clip-path="url(#p427b7a471d)" d="M 720.94613 493.286013 
L 720.94613 29.118125 
" style="fill:none;stroke:#cccccc;stroke-linecap:round;"/>
     </g>
     <g id="line2d_38">
      <g>
       <use style="fill:#262626;stroke:#262626;stroke-width:1.25;" x="720.94613" xlink:href="#m772fd79d1b" y="493.286013"/>
      </g>
     </g>
     <g id="text_19">
      <!-- 22.08.2021 -->
      <g style="fill:#262626;" transform="translate(674.793602 553.231121)rotate(-45)scale(0.11 -0.11)">
       <use xlink:href="#DejaVuSans-32"/>
       <use x="63.623047" xlink:href="#DejaVuSans-32"/>
       <use x="127.246094" xlink:href="#DejaVuSans-2e"/>
       <use x="159.033203" xlink:href="#DejaVuSans-30"/>
       <use x="222.65625" xlink:href="#DejaVuSans-38"/>
       <use x="286.279297" xlink:href="#DejaVuSans-2e"/>
       <use x="318.066406" xlink:href="#DejaVuSans-32"/>
       <use x="381.689453" xlink:href="#DejaVuSans-30"/>
       <use x="445.3125" xlink:href="#DejaVuSans-32"/>
       <use x="508.935547" xlink:href="#DejaVuSans-31"/>
      </g>
     </g>
    </g>
    <g id="xtick_20">
     <g id="line2d_39">
      <path clip-path="url(#p427b7a471d)" d="M 755.661855 493.286013 
L 755.661855 29.118125 
" style="fill:none;stroke:#cccccc;stroke-linecap:round;"/>
     </g>
     <g id="line2d_40">
      <g>
       <use style="fill:#262626;stroke:#262626;stroke-width:1.25;" x="755.661855" xlink:href="#m772fd79d1b" y="493.286013"/>
      </g>
     </g>
     <g id="text_20">
      <!-- 19.09.2021 -->
      <g style="fill:#262626;" transform="translate(709.509327 553.231121)rotate(-45)scale(0.11 -0.11)">
       <use xlink:href="#DejaVuSans-31"/>
       <use x="63.623047" xlink:href="#DejaVuSans-39"/>
       <use x="127.246094" xlink:href="#DejaVuSans-2e"/>
       <use x="159.033203" xlink:href="#DejaVuSans-30"/>
       <use x="222.65625" xlink:href="#DejaVuSans-39"/>
       <use x="286.279297" xlink:href="#DejaVuSans-2e"/>
       <use x="318.066406" xlink:href="#DejaVuSans-32"/>
       <use x="381.689453" xlink:href="#DejaVuSans-30"/>
       <use x="445.3125" xlink:href="#DejaVuSans-32"/>
       <use x="508.935547" xlink:href="#DejaVuSans-31"/>
      </g>
     </g>
    </g>
    <g id="xtick_21">
     <g id="line2d_41">
      <path clip-path="url(#p427b7a471d)" d="M 790.377581 493.286013 
L 790.377581 29.118125 
" style="fill:none;stroke:#cccccc;stroke-linecap:round;"/>
     </g>
     <g id="line2d_42">
      <g>
       <use style="fill:#262626;stroke:#262626;stroke-width:1.25;" x="790.377581" xlink:href="#m772fd79d1b" y="493.286013"/>
      </g>
     </g>
     <g id="text_21">
      <!-- 17.10.2021 -->
      <g style="fill:#262626;" transform="translate(744.225052 553.231121)rotate(-45)scale(0.11 -0.11)">
       <use xlink:href="#DejaVuSans-31"/>
       <use x="63.623047" xlink:href="#DejaVuSans-37"/>
       <use x="127.246094" xlink:href="#DejaVuSans-2e"/>
       <use x="159.033203" xlink:href="#DejaVuSans-31"/>
       <use x="222.65625" xlink:href="#DejaVuSans-30"/>
       <use x="286.279297" xlink:href="#DejaVuSans-2e"/>
       <use x="318.066406" xlink:href="#DejaVuSans-32"/>
       <use x="381.689453" xlink:href="#DejaVuSans-30"/>
       <use x="445.3125" xlink:href="#DejaVuSans-32"/>
       <use x="508.935547" xlink:href="#DejaVuSans-31"/>
      </g>
     </g>
    </g>
    <g id="xtick_22">
     <g id="line2d_43">
      <defs>
       <path d="M 0 0 
L 0 4 
" id="md866041c5c" style="stroke:#262626;"/>
      </defs>
      <g>
       <use style="fill:#262626;stroke:#262626;" x="60.1075" xlink:href="#md866041c5c" y="493.286013"/>
      </g>
     </g>
    </g>
    <g id="xtick_23">
     <g id="line2d_44">
      <g>
       <use style="fill:#262626;stroke:#262626;" x="68.786431" xlink:href="#md866041c5c" y="493.286013"/>
      </g>
     </g>
    </g>
    <g id="xtick_24">
     <g id="line2d_45">
      <g>
       <use style="fill:#262626;stroke:#262626;" x="77.465363" xlink:href="#md866041c5c" y="493.286013"/>
      </g>
     </g>
    </g>
    <g id="xtick_25">
     <g id="line2d_46">
      <g>
       <use style="fill:#262626;stroke:#262626;" x="86.144294" xlink:href="#md866041c5c" y="493.286013"/>
      </g>
     </g>
    </g>
    <g id="xtick_26">
     <g id="line2d_47">
      <g>
       <use style="fill:#262626;stroke:#262626;" x="94.823225" xlink:href="#md866041c5c" y="493.286013"/>
      </g>
     </g>
    </g>
    <g id="xtick_27">
     <g id="line2d_48">
      <g>
       <use style="fill:#262626;stroke:#262626;" x="103.502157" xlink:href="#md866041c5c" y="493.286013"/>
      </g>
     </g>
    </g>
    <g id="xtick_28">
     <g id="line2d_49">
      <g>
       <use style="fill:#262626;stroke:#262626;" x="112.181088" xlink:href="#md866041c5c" y="493.286013"/>
      </g>
     </g>
    </g>
    <g id="xtick_29">
     <g id="line2d_50">
      <g>
       <use style="fill:#262626;stroke:#262626;" x="120.860019" xlink:href="#md866041c5c" y="493.286013"/>
      </g>
     </g>
    </g>
    <g id="xtick_30">
     <g id="line2d_51">
      <g>
       <use style="fill:#262626;stroke:#262626;" x="129.538951" xlink:href="#md866041c5c" y="493.286013"/>
      </g>
     </g>
    </g>
    <g id="xtick_31">
     <g id="line2d_52">
      <g>
       <use style="fill:#262626;stroke:#262626;" x="138.217882" xlink:href="#md866041c5c" y="493.286013"/>
      </g>
     </g>
    </g>
    <g id="xtick_32">
     <g id="line2d_53">
      <g>
       <use style="fill:#262626;stroke:#262626;" x="146.896813" xlink:href="#md866041c5c" y="493.286013"/>
      </g>
     </g>
    </g>
    <g id="xtick_33">
     <g id="line2d_54">
      <g>
       <use style="fill:#262626;stroke:#262626;" x="155.575745" xlink:href="#md866041c5c" y="493.286013"/>
      </g>
     </g>
    </g>
    <g id="xtick_34">
     <g id="line2d_55">
      <g>
       <use style="fill:#262626;stroke:#262626;" x="164.254676" xlink:href="#md866041c5c" y="493.286013"/>
      </g>
     </g>
    </g>
    <g id="xtick_35">
     <g id="line2d_56">
      <g>
       <use style="fill:#262626;stroke:#262626;" x="172.933608" xlink:href="#md866041c5c" y="493.286013"/>
      </g>
     </g>
    </g>
    <g id="xtick_36">
     <g id="line2d_57">
      <g>
       <use style="fill:#262626;stroke:#262626;" x="181.612539" xlink:href="#md866041c5c" y="493.286013"/>
      </g>
     </g>
    </g>
    <g id="xtick_37">
     <g id="line2d_58">
      <g>
       <use style="fill:#262626;stroke:#262626;" x="190.29147" xlink:href="#md866041c5c" y="493.286013"/>
      </g>
     </g>
    </g>
    <g id="xtick_38">
     <g id="line2d_59">
      <g>
       <use style="fill:#262626;stroke:#262626;" x="198.970402" xlink:href="#md866041c5c" y="493.286013"/>
      </g>
     </g>
    </g>
    <g id="xtick_39">
     <g id="line2d_60">
      <g>
       <use style="fill:#262626;stroke:#262626;" x="207.649333" xlink:href="#md866041c5c" y="493.286013"/>
      </g>
     </g>
    </g>
    <g id="xtick_40">
     <g id="line2d_61">
      <g>
       <use style="fill:#262626;stroke:#262626;" x="216.328264" xlink:href="#md866041c5c" y="493.286013"/>
      </g>
     </g>
    </g>
    <g id="xtick_41">
     <g id="line2d_62">
      <g>
       <use style="fill:#262626;stroke:#262626;" x="225.007196" xlink:href="#md866041c5c" y="493.286013"/>
      </g>
     </g>
    </g>
    <g id="xtick_42">
     <g id="line2d_63">
      <g>
       <use style="fill:#262626;stroke:#262626;" x="233.686127" xlink:href="#md866041c5c" y="493.286013"/>
      </g>
     </g>
    </g>
    <g id="xtick_43">
     <g id="line2d_64">
      <g>
       <use style="fill:#262626;stroke:#262626;" x="242.365058" xlink:href="#md866041c5c" y="493.286013"/>
      </g>
     </g>
    </g>
    <g id="xtick_44">
     <g id="line2d_65">
      <g>
       <use style="fill:#262626;stroke:#262626;" x="251.04399" xlink:href="#md866041c5c" y="493.286013"/>
      </g>
     </g>
    </g>
    <g id="xtick_45">
     <g id="line2d_66">
      <g>
       <use style="fill:#262626;stroke:#262626;" x="259.722921" xlink:href="#md866041c5c" y="493.286013"/>
      </g>
     </g>
    </g>
    <g id="xtick_46">
     <g id="line2d_67">
      <g>
       <use style="fill:#262626;stroke:#262626;" x="268.401852" xlink:href="#md866041c5c" y="493.286013"/>
      </g>
     </g>
    </g>
    <g id="xtick_47">
     <g id="line2d_68">
      <g>
       <use style="fill:#262626;stroke:#262626;" x="277.080784" xlink:href="#md866041c5c" y="493.286013"/>
      </g>
     </g>
    </g>
    <g id="xtick_48">
     <g id="line2d_69">
      <g>
       <use style="fill:#262626;stroke:#262626;" x="285.759715" xlink:href="#md866041c5c" y="493.286013"/>
      </g>
     </g>
    </g>
    <g id="xtick_49">
     <g id="line2d_70">
      <g>
       <use style="fill:#262626;stroke:#262626;" x="294.438646" xlink:href="#md866041c5c" y="493.286013"/>
      </g>
     </g>
    </g>
    <g id="xtick_50">
     <g id="line2d_71">
      <g>
       <use style="fill:#262626;stroke:#262626;" x="303.117578" xlink:href="#md866041c5c" y="493.286013"/>
      </g>
     </g>
    </g>
    <g id="xtick_51">
     <g id="line2d_72">
      <g>
       <use style="fill:#262626;stroke:#262626;" x="311.796509" xlink:href="#md866041c5c" y="493.286013"/>
      </g>
     </g>
    </g>
    <g id="xtick_52">
     <g id="line2d_73">
      <g>
       <use style="fill:#262626;stroke:#262626;" x="320.47544" xlink:href="#md866041c5c" y="493.286013"/>
      </g>
     </g>
    </g>
    <g id="xtick_53">
     <g id="line2d_74">
      <g>
       <use style="fill:#262626;stroke:#262626;" x="329.154372" xlink:href="#md866041c5c" y="493.286013"/>
      </g>
     </g>
    </g>
    <g id="xtick_54">
     <g id="line2d_75">
      <g>
       <use style="fill:#262626;stroke:#262626;" x="337.833303" xlink:href="#md866041c5c" y="493.286013"/>
      </g>
     </g>
    </g>
    <g id="xtick_55">
     <g id="line2d_76">
      <g>
       <use style="fill:#262626;stroke:#262626;" x="346.512234" xlink:href="#md866041c5c" y="493.286013"/>
      </g>
     </g>
    </g>
    <g id="xtick_56">
     <g id="line2d_77">
      <g>
       <use style="fill:#262626;stroke:#262626;" x="355.191166" xlink:href="#md866041c5c" y="493.286013"/>
      </g>
     </g>
    </g>
    <g id="xtick_57">
     <g id="line2d_78">
      <g>
       <use style="fill:#262626;stroke:#262626;" x="363.870097" xlink:href="#md866041c5c" y="493.286013"/>
      </g>
     </g>
    </g>
    <g id="xtick_58">
     <g id="line2d_79">
      <g>
       <use style="fill:#262626;stroke:#262626;" x="372.549029" xlink:href="#md866041c5c" y="493.286013"/>
      </g>
     </g>
    </g>
    <g id="xtick_59">
     <g id="line2d_80">
      <g>
       <use style="fill:#262626;stroke:#262626;" x="381.22796" xlink:href="#md866041c5c" y="493.286013"/>
      </g>
     </g>
    </g>
    <g id="xtick_60">
     <g id="line2d_81">
      <g>
       <use style="fill:#262626;stroke:#262626;" x="389.906891" xlink:href="#md866041c5c" y="493.286013"/>
      </g>
     </g>
    </g>
    <g id="xtick_61">
     <g id="line2d_82">
      <g>
       <use style="fill:#262626;stroke:#262626;" x="398.585823" xlink:href="#md866041c5c" y="493.286013"/>
      </g>
     </g>
    </g>
    <g id="xtick_62">
     <g id="line2d_83">
      <g>
       <use style="fill:#262626;stroke:#262626;" x="407.264754" xlink:href="#md866041c5c" y="493.286013"/>
      </g>
     </g>
    </g>
    <g id="xtick_63">
     <g id="line2d_84">
      <g>
       <use style="fill:#262626;stroke:#262626;" x="415.943685" xlink:href="#md866041c5c" y="493.286013"/>
      </g>
     </g>
    </g>
    <g id="xtick_64">
     <g id="line2d_85">
      <g>
       <use style="fill:#262626;stroke:#262626;" x="424.622617" xlink:href="#md866041c5c" y="493.286013"/>
      </g>
     </g>
    </g>
    <g id="xtick_65">
     <g id="line2d_86">
      <g>
       <use style="fill:#262626;stroke:#262626;" x="433.301548" xlink:href="#md866041c5c" y="493.286013"/>
      </g>
     </g>
    </g>
    <g id="xtick_66">
     <g id="line2d_87">
      <g>
       <use style="fill:#262626;stroke:#262626;" x="441.980479" xlink:href="#md866041c5c" y="493.286013"/>
      </g>
     </g>
    </g>
    <g id="xtick_67">
     <g id="line2d_88">
      <g>
       <use style="fill:#262626;stroke:#262626;" x="450.659411" xlink:href="#md866041c5c" y="493.286013"/>
      </g>
     </g>
    </g>
    <g id="xtick_68">
     <g id="line2d_89">
      <g>
       <use style="fill:#262626;stroke:#262626;" x="459.338342" xlink:href="#md866041c5c" y="493.286013"/>
      </g>
     </g>
    </g>
    <g id="xtick_69">
     <g id="line2d_90">
      <g>
       <use style="fill:#262626;stroke:#262626;" x="468.017273" xlink:href="#md866041c5c" y="493.286013"/>
      </g>
     </g>
    </g>
    <g id="xtick_70">
     <g id="line2d_91">
      <g>
       <use style="fill:#262626;stroke:#262626;" x="476.696205" xlink:href="#md866041c5c" y="493.286013"/>
      </g>
     </g>
    </g>
    <g id="xtick_71">
     <g id="line2d_92">
      <g>
       <use style="fill:#262626;stroke:#262626;" x="485.375136" xlink:href="#md866041c5c" y="493.286013"/>
      </g>
     </g>
    </g>
    <g id="xtick_72">
     <g id="line2d_93">
      <g>
       <use style="fill:#262626;stroke:#262626;" x="494.054067" xlink:href="#md866041c5c" y="493.286013"/>
      </g>
     </g>
    </g>
    <g id="xtick_73">
     <g id="line2d_94">
      <g>
       <use style="fill:#262626;stroke:#262626;" x="502.732999" xlink:href="#md866041c5c" y="493.286013"/>
      </g>
     </g>
    </g>
    <g id="xtick_74">
     <g id="line2d_95">
      <g>
       <use style="fill:#262626;stroke:#262626;" x="511.41193" xlink:href="#md866041c5c" y="493.286013"/>
      </g>
     </g>
    </g>
    <g id="xtick_75">
     <g id="line2d_96">
      <g>
       <use style="fill:#262626;stroke:#262626;" x="520.090861" xlink:href="#md866041c5c" y="493.286013"/>
      </g>
     </g>
    </g>
    <g id="xtick_76">
     <g id="line2d_97">
      <g>
       <use style="fill:#262626;stroke:#262626;" x="528.769793" xlink:href="#md866041c5c" y="493.286013"/>
      </g>
     </g>
    </g>
    <g id="xtick_77">
     <g id="line2d_98">
      <g>
       <use style="fill:#262626;stroke:#262626;" x="537.448724" xlink:href="#md866041c5c" y="493.286013"/>
      </g>
     </g>
    </g>
    <g id="xtick_78">
     <g id="line2d_99">
      <g>
       <use style="fill:#262626;stroke:#262626;" x="546.127655" xlink:href="#md866041c5c" y="493.286013"/>
      </g>
     </g>
    </g>
    <g id="xtick_79">
     <g id="line2d_100">
      <g>
       <use style="fill:#262626;stroke:#262626;" x="554.806587" xlink:href="#md866041c5c" y="493.286013"/>
      </g>
     </g>
    </g>
    <g id="xtick_80">
     <g id="line2d_101">
      <g>
       <use style="fill:#262626;stroke:#262626;" x="563.485518" xlink:href="#md866041c5c" y="493.286013"/>
      </g>
     </g>
    </g>
    <g id="xtick_81">
     <g id="line2d_102">
      <g>
       <use style="fill:#262626;stroke:#262626;" x="572.16445" xlink:href="#md866041c5c" y="493.286013"/>
      </g>
     </g>
    </g>
    <g id="xtick_82">
     <g id="line2d_103">
      <g>
       <use style="fill:#262626;stroke:#262626;" x="580.843381" xlink:href="#md866041c5c" y="493.286013"/>
      </g>
     </g>
    </g>
    <g id="xtick_83">
     <g id="line2d_104">
      <g>
       <use style="fill:#262626;stroke:#262626;" x="589.522312" xlink:href="#md866041c5c" y="493.286013"/>
      </g>
     </g>
    </g>
    <g id="xtick_84">
     <g id="line2d_105">
      <g>
       <use style="fill:#262626;stroke:#262626;" x="598.201244" xlink:href="#md866041c5c" y="493.286013"/>
      </g>
     </g>
    </g>
    <g id="xtick_85">
     <g id="line2d_106">
      <g>
       <use style="fill:#262626;stroke:#262626;" x="606.880175" xlink:href="#md866041c5c" y="493.286013"/>
      </g>
     </g>
    </g>
    <g id="xtick_86">
     <g id="line2d_107">
      <g>
       <use style="fill:#262626;stroke:#262626;" x="615.559106" xlink:href="#md866041c5c" y="493.286013"/>
      </g>
     </g>
    </g>
    <g id="xtick_87">
     <g id="line2d_108">
      <g>
       <use style="fill:#262626;stroke:#262626;" x="624.238038" xlink:href="#md866041c5c" y="493.286013"/>
      </g>
     </g>
    </g>
    <g id="xtick_88">
     <g id="line2d_109">
      <g>
       <use style="fill:#262626;stroke:#262626;" x="632.916969" xlink:href="#md866041c5c" y="493.286013"/>
      </g>
     </g>
    </g>
    <g id="xtick_89">
     <g id="line2d_110">
      <g>
       <use style="fill:#262626;stroke:#262626;" x="641.5959" xlink:href="#md866041c5c" y="493.286013"/>
      </g>
     </g>
    </g>
    <g id="xtick_90">
     <g id="line2d_111">
      <g>
       <use style="fill:#262626;stroke:#262626;" x="650.274832" xlink:href="#md866041c5c" y="493.286013"/>
      </g>
     </g>
    </g>
    <g id="xtick_91">
     <g id="line2d_112">
      <g>
       <use style="fill:#262626;stroke:#262626;" x="658.953763" xlink:href="#md866041c5c" y="493.286013"/>
      </g>
     </g>
    </g>
    <g id="xtick_92">
     <g id="line2d_113">
      <g>
       <use style="fill:#262626;stroke:#262626;" x="667.632694" xlink:href="#md866041c5c" y="493.286013"/>
      </g>
     </g>
    </g>
    <g id="xtick_93">
     <g id="line2d_114">
      <g>
       <use style="fill:#262626;stroke:#262626;" x="676.311626" xlink:href="#md866041c5c" y="493.286013"/>
      </g>
     </g>
    </g>
    <g id="xtick_94">
     <g id="line2d_115">
      <g>
       <use style="fill:#262626;stroke:#262626;" x="684.990557" xlink:href="#md866041c5c" y="493.286013"/>
      </g>
     </g>
    </g>
    <g id="xtick_95">
     <g id="line2d_116">
      <g>
       <use style="fill:#262626;stroke:#262626;" x="693.669488" xlink:href="#md866041c5c" y="493.286013"/>
      </g>
     </g>
    </g>
    <g id="xtick_96">
     <g id="line2d_117">
      <g>
       <use style="fill:#262626;stroke:#262626;" x="702.34842" xlink:href="#md866041c5c" y="493.286013"/>
      </g>
     </g>
    </g>
    <g id="xtick_97">
     <g id="line2d_118">
      <g>
       <use style="fill:#262626;stroke:#262626;" x="711.027351" xlink:href="#md866041c5c" y="493.286013"/>
      </g>
     </g>
    </g>
    <g id="xtick_98">
     <g id="line2d_119">
      <g>
       <use style="fill:#262626;stroke:#262626;" x="719.706282" xlink:href="#md866041c5c" y="493.286013"/>
      </g>
     </g>
    </g>
    <g id="xtick_99">
     <g id="line2d_120">
      <g>
       <use style="fill:#262626;stroke:#262626;" x="728.385214" xlink:href="#md866041c5c" y="493.286013"/>
      </g>
     </g>
    </g>
    <g id="xtick_100">
     <g id="line2d_121">
      <g>
       <use style="fill:#262626;stroke:#262626;" x="737.064145" xlink:href="#md866041c5c" y="493.286013"/>
      </g>
     </g>
    </g>
    <g id="xtick_101">
     <g id="line2d_122">
      <g>
       <use style="fill:#262626;stroke:#262626;" x="745.743076" xlink:href="#md866041c5c" y="493.286013"/>
      </g>
     </g>
    </g>
    <g id="xtick_102">
     <g id="line2d_123">
      <g>
       <use style="fill:#262626;stroke:#262626;" x="754.422008" xlink:href="#md866041c5c" y="493.286013"/>
      </g>
     </g>
    </g>
    <g id="xtick_103">
     <g id="line2d_124">
      <g>
       <use style="fill:#262626;stroke:#262626;" x="763.100939" xlink:href="#md866041c5c" y="493.286013"/>
      </g>
     </g>
    </g>
    <g id="xtick_104">
     <g id="line2d_125">
      <g>
       <use style="fill:#262626;stroke:#262626;" x="771.779871" xlink:href="#md866041c5c" y="493.286013"/>
      </g>
     </g>
    </g>
    <g id="xtick_105">
     <g id="line2d_126">
      <g>
       <use style="fill:#262626;stroke:#262626;" x="780.458802" xlink:href="#md866041c5c" y="493.286013"/>
      </g>
     </g>
    </g>
    <g id="xtick_106">
     <g id="line2d_127">
      <g>
       <use style="fill:#262626;stroke:#262626;" x="789.137733" xlink:href="#md866041c5c" y="493.286013"/>
      </g>
     </g>
    </g>
    <g id="xtick_107">
     <g id="line2d_128">
      <g>
       <use style="fill:#262626;stroke:#262626;" x="797.816665" xlink:href="#md866041c5c" y="493.286013"/>
      </g>
     </g>
    </g>
    <g id="xtick_108">
     <g id="line2d_129">
      <g>
       <use style="fill:#262626;stroke:#262626;" x="806.495596" xlink:href="#md866041c5c" y="493.286013"/>
      </g>
     </g>
    </g>
    <g id="xtick_109">
     <g id="line2d_130">
      <g>
       <use style="fill:#262626;stroke:#262626;" x="815.174527" xlink:href="#md866041c5c" y="493.286013"/>
      </g>
     </g>
    </g>
    <g id="xtick_110">
     <g id="line2d_131">
      <g>
       <use style="fill:#262626;stroke:#262626;" x="823.853459" xlink:href="#md866041c5c" y="493.286013"/>
      </g>
     </g>
    </g>
    <g id="xtick_111">
     <g id="line2d_132">
      <g>
       <use style="fill:#262626;stroke:#262626;" x="832.53239" xlink:href="#md866041c5c" y="493.286013"/>
      </g>
     </g>
    </g>
    <g id="xtick_112">
     <g id="line2d_133">
      <g>
       <use style="fill:#262626;stroke:#262626;" x="841.211321" xlink:href="#md866041c5c" y="493.286013"/>
      </g>
     </g>
    </g>
    <g id="xtick_113">
     <g id="line2d_134">
      <g>
       <use style="fill:#262626;stroke:#262626;" x="849.890253" xlink:href="#md866041c5c" y="493.286013"/>
      </g>
     </g>
    </g>
    <g id="text_22">
     <!-- Date -->
     <g style="fill:#262626;" transform="translate(441.277862 567.966863)scale(0.12 -0.12)">
      <defs>
       <path d="M 1259 4147 
L 1259 519 
L 2022 519 
Q 2988 519 3436 956 
Q 3884 1394 3884 2338 
Q 3884 3275 3436 3711 
Q 2988 4147 2022 4147 
L 1259 4147 
z
M 628 4666 
L 1925 4666 
Q 3281 4666 3915 4102 
Q 4550 3538 4550 2338 
Q 4550 1131 3912 565 
Q 3275 0 1925 0 
L 628 0 
L 628 4666 
z
" id="DejaVuSans-44" transform="scale(0.015625)"/>
       <path d="M 2194 1759 
Q 1497 1759 1228 1600 
Q 959 1441 959 1056 
Q 959 750 1161 570 
Q 1363 391 1709 391 
Q 2188 391 2477 730 
Q 2766 1069 2766 1631 
L 2766 1759 
L 2194 1759 
z
M 3341 1997 
L 3341 0 
L 2766 0 
L 2766 531 
Q 2569 213 2275 61 
Q 1981 -91 1556 -91 
Q 1019 -91 701 211 
Q 384 513 384 1019 
Q 384 1609 779 1909 
Q 1175 2209 1959 2209 
L 2766 2209 
L 2766 2266 
Q 2766 2663 2505 2880 
Q 2244 3097 1772 3097 
Q 1472 3097 1187 3025 
Q 903 2953 641 2809 
L 641 3341 
Q 956 3463 1253 3523 
Q 1550 3584 1831 3584 
Q 2591 3584 2966 3190 
Q 3341 2797 3341 1997 
z
" id="DejaVuSans-61" transform="scale(0.015625)"/>
       <path d="M 1172 4494 
L 1172 3500 
L 2356 3500 
L 2356 3053 
L 1172 3053 
L 1172 1153 
Q 1172 725 1289 603 
Q 1406 481 1766 481 
L 2356 481 
L 2356 0 
L 1766 0 
Q 1100 0 847 248 
Q 594 497 594 1153 
L 594 3053 
L 172 3053 
L 172 3500 
L 594 3500 
L 594 4494 
L 1172 4494 
z
" id="DejaVuSans-74" transform="scale(0.015625)"/>
       <path d="M 3597 1894 
L 3597 1613 
L 953 1613 
Q 991 1019 1311 708 
Q 1631 397 2203 397 
Q 2534 397 2845 478 
Q 3156 559 3463 722 
L 3463 178 
Q 3153 47 2828 -22 
Q 2503 -91 2169 -91 
Q 1331 -91 842 396 
Q 353 884 353 1716 
Q 353 2575 817 3079 
Q 1281 3584 2069 3584 
Q 2775 3584 3186 3129 
Q 3597 2675 3597 1894 
z
M 3022 2063 
Q 3016 2534 2758 2815 
Q 2500 3097 2075 3097 
Q 1594 3097 1305 2825 
Q 1016 2553 972 2059 
L 3022 2063 
z
" id="DejaVuSans-65" transform="scale(0.015625)"/>
      </defs>
      <use xlink:href="#DejaVuSans-44"/>
      <use x="77.001953" xlink:href="#DejaVuSans-61"/>
      <use x="138.28125" xlink:href="#DejaVuSans-74"/>
      <use x="177.490234" xlink:href="#DejaVuSans-65"/>
     </g>
    </g>
   </g>
   <g id="matplotlib.axis_2">
    <g id="ytick_1">
     <g id="line2d_135">
      <path clip-path="url(#p427b7a471d)" d="M 60.1075 472.504714 
L 851.1301 472.504714 
" style="fill:none;stroke:#cccccc;stroke-linecap:round;"/>
     </g>
     <g id="line2d_136">
      <defs>
       <path d="M 0 0 
L -6 0 
" id="m48b0e4c32b" style="stroke:#262626;stroke-width:1.25;"/>
      </defs>
      <g>
       <use style="fill:#262626;stroke:#262626;stroke-width:1.25;" x="60.1075" xlink:href="#m48b0e4c32b" y="472.504714"/>
      </g>
     </g>
     <g id="text_23">
      <!-- 0 -->
      <g style="fill:#262626;" transform="translate(43.60875 476.683854)scale(0.11 -0.11)">
       <use xlink:href="#DejaVuSans-30"/>
      </g>
     </g>
    </g>
    <g id="ytick_2">
     <g id="line2d_137">
      <path clip-path="url(#p427b7a471d)" d="M 60.1075 393.194347 
L 851.1301 393.194347 
" style="fill:none;stroke:#cccccc;stroke-linecap:round;"/>
     </g>
     <g id="line2d_138">
      <g>
       <use style="fill:#262626;stroke:#262626;stroke-width:1.25;" x="60.1075" xlink:href="#m48b0e4c32b" y="393.194347"/>
      </g>
     </g>
     <g id="text_24">
      <!-- 2000 -->
      <g style="fill:#262626;" transform="translate(22.6125 397.373488)scale(0.11 -0.11)">
       <use xlink:href="#DejaVuSans-32"/>
       <use x="63.623047" xlink:href="#DejaVuSans-30"/>
       <use x="127.246094" xlink:href="#DejaVuSans-30"/>
       <use x="190.869141" xlink:href="#DejaVuSans-30"/>
      </g>
     </g>
    </g>
    <g id="ytick_3">
     <g id="line2d_139">
      <path clip-path="url(#p427b7a471d)" d="M 60.1075 313.88398 
L 851.1301 313.88398 
" style="fill:none;stroke:#cccccc;stroke-linecap:round;"/>
     </g>
     <g id="line2d_140">
      <g>
       <use style="fill:#262626;stroke:#262626;stroke-width:1.25;" x="60.1075" xlink:href="#m48b0e4c32b" y="313.88398"/>
      </g>
     </g>
     <g id="text_25">
      <!-- 4000 -->
      <g style="fill:#262626;" transform="translate(22.6125 318.063121)scale(0.11 -0.11)">
       <use xlink:href="#DejaVuSans-34"/>
       <use x="63.623047" xlink:href="#DejaVuSans-30"/>
       <use x="127.246094" xlink:href="#DejaVuSans-30"/>
       <use x="190.869141" xlink:href="#DejaVuSans-30"/>
      </g>
     </g>
    </g>
    <g id="ytick_4">
     <g id="line2d_141">
      <path clip-path="url(#p427b7a471d)" d="M 60.1075 234.573613 
L 851.1301 234.573613 
" style="fill:none;stroke:#cccccc;stroke-linecap:round;"/>
     </g>
     <g id="line2d_142">
      <g>
       <use style="fill:#262626;stroke:#262626;stroke-width:1.25;" x="60.1075" xlink:href="#m48b0e4c32b" y="234.573613"/>
      </g>
     </g>
     <g id="text_26">
      <!-- 6000 -->
      <g style="fill:#262626;" transform="translate(22.6125 238.752754)scale(0.11 -0.11)">
       <use xlink:href="#DejaVuSans-36"/>
       <use x="63.623047" xlink:href="#DejaVuSans-30"/>
       <use x="127.246094" xlink:href="#DejaVuSans-30"/>
       <use x="190.869141" xlink:href="#DejaVuSans-30"/>
      </g>
     </g>
    </g>
    <g id="ytick_5">
     <g id="line2d_143">
      <path clip-path="url(#p427b7a471d)" d="M 60.1075 155.263246 
L 851.1301 155.263246 
" style="fill:none;stroke:#cccccc;stroke-linecap:round;"/>
     </g>
     <g id="line2d_144">
      <g>
       <use style="fill:#262626;stroke:#262626;stroke-width:1.25;" x="60.1075" xlink:href="#m48b0e4c32b" y="155.263246"/>
      </g>
     </g>
     <g id="text_27">
      <!-- 8000 -->
      <g style="fill:#262626;" transform="translate(22.6125 159.442387)scale(0.11 -0.11)">
       <use xlink:href="#DejaVuSans-38"/>
       <use x="63.623047" xlink:href="#DejaVuSans-30"/>
       <use x="127.246094" xlink:href="#DejaVuSans-30"/>
       <use x="190.869141" xlink:href="#DejaVuSans-30"/>
      </g>
     </g>
    </g>
    <g id="ytick_6">
     <g id="line2d_145">
      <path clip-path="url(#p427b7a471d)" d="M 60.1075 75.952879 
L 851.1301 75.952879 
" style="fill:none;stroke:#cccccc;stroke-linecap:round;"/>
     </g>
     <g id="line2d_146">
      <g>
       <use style="fill:#262626;stroke:#262626;stroke-width:1.25;" x="60.1075" xlink:href="#m48b0e4c32b" y="75.952879"/>
      </g>
     </g>
     <g id="text_28">
      <!-- 10000 -->
      <g style="fill:#262626;" transform="translate(15.61375 80.13202)scale(0.11 -0.11)">
       <use xlink:href="#DejaVuSans-31"/>
       <use x="63.623047" xlink:href="#DejaVuSans-30"/>
       <use x="127.246094" xlink:href="#DejaVuSans-30"/>
       <use x="190.869141" xlink:href="#DejaVuSans-30"/>
       <use x="254.492188" xlink:href="#DejaVuSans-30"/>
      </g>
     </g>
    </g>
    <g id="text_29">
     <!-- Cases -->
     <g style="fill:#262626;" transform="translate(9.118125 279.011756)rotate(-90)scale(0.12 -0.12)">
      <defs>
       <path d="M 4122 4306 
L 4122 3641 
Q 3803 3938 3442 4084 
Q 3081 4231 2675 4231 
Q 1875 4231 1450 3742 
Q 1025 3253 1025 2328 
Q 1025 1406 1450 917 
Q 1875 428 2675 428 
Q 3081 428 3442 575 
Q 3803 722 4122 1019 
L 4122 359 
Q 3791 134 3420 21 
Q 3050 -91 2638 -91 
Q 1578 -91 968 557 
Q 359 1206 359 2328 
Q 359 3453 968 4101 
Q 1578 4750 2638 4750 
Q 3056 4750 3426 4639 
Q 3797 4528 4122 4306 
z
" id="DejaVuSans-43" transform="scale(0.015625)"/>
       <path d="M 2834 3397 
L 2834 2853 
Q 2591 2978 2328 3040 
Q 2066 3103 1784 3103 
Q 1356 3103 1142 2972 
Q 928 2841 928 2578 
Q 928 2378 1081 2264 
Q 1234 2150 1697 2047 
L 1894 2003 
Q 2506 1872 2764 1633 
Q 3022 1394 3022 966 
Q 3022 478 2636 193 
Q 2250 -91 1575 -91 
Q 1294 -91 989 -36 
Q 684 19 347 128 
L 347 722 
Q 666 556 975 473 
Q 1284 391 1588 391 
Q 1994 391 2212 530 
Q 2431 669 2431 922 
Q 2431 1156 2273 1281 
Q 2116 1406 1581 1522 
L 1381 1569 
Q 847 1681 609 1914 
Q 372 2147 372 2553 
Q 372 3047 722 3315 
Q 1072 3584 1716 3584 
Q 2034 3584 2315 3537 
Q 2597 3491 2834 3397 
z
" id="DejaVuSans-73" transform="scale(0.015625)"/>
      </defs>
      <use xlink:href="#DejaVuSans-43"/>
      <use x="69.824219" xlink:href="#DejaVuSans-61"/>
      <use x="131.103516" xlink:href="#DejaVuSans-73"/>
      <use x="183.203125" xlink:href="#DejaVuSans-65"/>
      <use x="244.726562" xlink:href="#DejaVuSans-73"/>
     </g>
    </g>
   </g>
   <g id="line2d_147">
    <path clip-path="url(#p427b7a471d)" d="M 96.063073 464.177125 
L 97.30292 464.05816 
L 98.542767 463.265056 
L 102.262309 463.344366 
L 104.742004 463.384022 
L 105.981851 464.21678 
L 108.461546 463.502987 
L 109.701393 462.828849 
L 110.941241 462.749539 
L 112.181088 462.234021 
L 113.420935 461.877125 
L 114.660783 461.877125 
L 115.90063 461.361607 
L 117.140477 461.797814 
L 119.620172 460.9254 
L 120.860019 460.9254 
L 122.099867 460.568504 
L 123.339714 460.568504 
L 124.579561 461.123676 
L 125.819409 459.934021 
L 127.059256 459.934021 
L 128.299103 459.7754 
L 130.778798 459.7754 
L 132.018645 459.973676 
L 133.258493 459.973676 
L 134.49834 458.506434 
L 135.738187 458.427124 
L 136.978035 457.435744 
L 138.217882 457.078847 
L 139.457729 457.237468 
L 140.697577 457.911606 
L 141.937424 458.030572 
L 143.177271 458.030572 
L 144.417119 459.7754 
L 146.896813 459.69609 
L 148.136661 459.458158 
L 149.376508 460.647814 
L 150.616355 461.202986 
L 151.856203 461.123676 
L 153.09605 462.273676 
L 154.335897 462.273676 
L 155.575745 463.225401 
L 156.815592 463.185746 
L 158.055439 463.423677 
L 159.295287 463.423677 
L 160.535134 464.652987 
L 161.774982 464.930574 
L 163.014829 465.961608 
L 164.254676 466.120229 
L 165.494524 466.437471 
L 167.974218 467.27023 
L 170.453913 466.596091 
L 171.69376 466.675402 
L 172.933608 466.35816 
L 174.173455 466.239195 
L 175.413302 466.477126 
L 176.65315 466.120229 
L 177.892997 465.089194 
L 179.132844 464.415056 
L 180.372692 463.978849 
L 181.612539 462.709883 
L 182.852386 462.828849 
L 184.092234 462.471952 
L 185.332081 461.91678 
L 186.571928 461.559883 
L 187.811776 461.044366 
L 189.051623 460.052986 
L 190.29147 459.735745 
L 191.531318 459.735745 
L 194.011012 458.149537 
L 195.25086 457.039192 
L 196.490707 457.277123 
L 197.730554 456.959882 
L 198.970402 455.730571 
L 200.210249 455.730571 
L 201.450096 455.294364 
L 202.689944 455.254709 
L 203.929791 454.818502 
L 205.169638 454.937467 
L 206.409486 454.659881 
L 207.649333 454.144364 
L 208.88918 454.34264 
L 211.368875 453.35126 
L 212.608722 452.756432 
L 213.84857 451.685742 
L 215.088417 452.042639 
L 216.328264 451.408156 
L 217.568112 451.289191 
L 218.807959 451.527122 
L 221.287654 449.702983 
L 222.527501 449.425397 
L 223.767348 448.473673 
L 225.007196 448.513328 
L 226.247043 448.315052 
L 227.48689 447.759879 
L 228.726738 447.83919 
L 231.206432 446.134017 
L 232.44628 445.975396 
L 233.686127 444.984016 
L 234.925974 445.459879 
L 236.165822 445.301258 
L 237.405669 444.785741 
L 238.645516 443.873671 
L 241.125211 441.652981 
L 242.365058 441.058153 
L 243.604906 440.225394 
L 244.844753 439.868498 
L 247.324448 437.925394 
L 248.564295 437.846083 
L 249.804142 438.520222 
L 251.04399 438.877118 
L 252.283837 438.837463 
L 254.763532 438.361601 
L 256.003379 439.432291 
L 257.243226 439.828843 
L 258.483074 440.34436 
L 259.722921 440.34436 
L 260.962768 440.502981 
L 262.202616 442.049533 
L 263.442463 441.49436 
L 264.68231 442.684016 
L 265.922158 442.128843 
L 267.162005 443.397809 
L 268.401852 443.040912 
L 269.6417 442.961602 
L 270.881547 444.190913 
L 272.121394 444.151258 
L 273.361242 443.120223 
L 275.840936 444.270223 
L 277.080784 443.834016 
L 279.560478 443.675395 
L 280.800326 443.278844 
L 282.040173 442.446085 
L 283.28002 442.208154 
L 284.519868 442.247809 
L 285.759715 442.56505 
L 286.999562 442.128843 
L 288.23941 441.851257 
L 290.719104 442.644361 
L 291.958952 442.921947 
L 293.198799 443.358154 
L 294.438646 443.318499 
L 295.678494 443.159878 
L 296.918341 443.55643 
L 298.158188 443.397809 
L 299.398036 443.001257 
L 300.637883 443.001257 
L 301.87773 443.63574 
L 305.597272 444.190913 
L 306.83712 444.111602 
L 308.076967 443.715051 
L 309.316814 443.001257 
L 310.556662 441.49436 
L 311.796509 441.137464 
L 313.036356 441.018498 
L 314.276204 441.573671 
L 315.516051 440.225394 
L 317.995746 438.520222 
L 319.235593 437.330566 
L 320.47544 436.339186 
L 321.715288 436.140911 
L 322.955135 435.625393 
L 324.194982 433.999531 
L 325.43483 431.540909 
L 326.674677 430.351254 
L 327.914524 427.654701 
L 329.154372 425.354701 
L 331.634066 424.085735 
L 332.873914 420.675389 
L 334.113761 417.780561 
L 335.353608 415.956422 
L 336.593456 415.004698 
L 337.833303 413.656422 
L 339.07315 413.021939 
L 340.312998 410.563317 
L 341.552845 407.747799 
L 342.792692 403.821936 
L 344.03254 401.442625 
L 346.512234 394.146071 
L 347.752082 391.76676 
L 351.471624 380.663309 
L 352.711471 378.283998 
L 353.951318 375.46848 
L 355.191166 368.925375 
L 356.431013 366.228822 
L 357.670861 359.844338 
L 358.910708 356.632268 
L 360.150555 345.965023 
L 361.390403 336.725366 
L 362.63025 331.213295 
L 363.870097 325.185707 
L 365.109945 320.942603 
L 367.589639 306.904668 
L 370.069334 283.428799 
L 371.309181 276.251211 
L 372.549029 267.646036 
L 373.788876 264.433966 
L 376.268571 255.868447 
L 377.508418 249.285686 
L 378.748265 239.411546 
L 379.988113 236.873614 
L 381.22796 226.920163 
L 382.467807 220.694299 
L 383.707655 223.866714 
L 384.947502 220.099471 
L 386.187349 212.842573 
L 387.427197 208.599468 
L 388.667044 208.916709 
L 389.906891 201.659811 
L 391.146739 200.113259 
L 392.386586 203.523605 
L 393.626433 209.392572 
L 394.866281 209.392572 
L 396.106128 204.197743 
L 397.345975 205.070157 
L 398.585823 196.544292 
L 399.82567 194.91843 
L 401.065517 202.016708 
L 402.305365 201.302914 
L 403.545212 194.99774 
L 404.785059 191.587394 
L 407.264754 186.035669 
L 408.504601 185.242565 
L 409.744449 193.133946 
L 410.984296 195.037395 
L 412.224143 193.570153 
L 413.463991 198.883948 
L 414.703838 213.35809 
L 415.943685 209.194296 
L 417.183533 209.828779 
L 418.42338 223.192575 
L 419.663227 229.696026 
L 420.903075 245.914996 
L 422.142922 247.620168 
L 423.382769 251.22879 
L 424.622617 252.616722 
L 425.862464 251.585687 
L 427.102311 253.964998 
L 428.342159 273.316727 
L 429.582006 280.930523 
L 430.821853 283.904661 
L 432.061701 284.261558 
L 433.301548 282.715006 
L 434.541395 286.561559 
L 435.781243 297.823631 
L 437.02109 302.542598 
L 438.260937 303.494322 
L 439.500785 303.970184 
L 440.740632 306.508116 
L 441.980479 306.349495 
L 443.220327 305.754667 
L 444.460174 312.059842 
L 445.700021 316.065015 
L 446.939869 326.533984 
L 448.179716 328.516743 
L 449.419563 333.711572 
L 450.659411 334.306399 
L 451.899258 334.306399 
L 453.139105 341.166746 
L 454.378953 344.696058 
L 455.6188 344.815023 
L 456.858647 351.75468 
L 458.098495 359.725372 
L 459.338342 359.209855 
L 460.578189 358.535717 
L 461.818037 360.597786 
L 463.057884 360.756407 
L 464.297731 358.892613 
L 465.537579 358.416751 
L 466.777426 359.566751 
L 469.257121 358.059854 
L 470.496968 359.487441 
L 471.736815 357.465027 
L 474.21651 352.230542 
L 475.456357 350.763301 
L 476.696205 348.265024 
L 477.936052 348.54261 
L 479.175899 351.278818 
L 480.415747 348.423645 
L 481.655594 344.418471 
L 482.895441 341.761574 
L 484.135289 340.96847 
L 485.375136 338.66847 
L 486.614983 336.68571 
L 487.854831 336.844331 
L 491.574373 325.621914 
L 494.054067 319.990878 
L 495.293915 318.642602 
L 496.533762 316.540877 
L 497.773609 312.416738 
L 500.253304 299.290873 
L 501.493151 293.977078 
L 502.732999 287.156386 
L 503.972846 284.380524 
L 505.212693 283.071902 
L 506.452541 273.8719 
L 507.692388 270.540865 
L 508.932235 262.054655 
L 512.651777 243.456374 
L 513.891625 238.420166 
L 515.131472 233.899475 
L 516.371319 218.909816 
L 518.851014 202.135673 
L 520.090861 196.980499 
L 521.330709 190.913256 
L 522.570556 184.251185 
L 523.810403 171.12532 
L 525.050251 163.035662 
L 526.290098 152.011521 
L 527.529945 142.097725 
L 528.769793 133.651171 
L 530.00964 129.090825 
L 531.249487 127.940825 
L 532.489335 118.502891 
L 533.729182 110.651165 
L 536.208877 98.556334 
L 537.448724 88.880469 
L 538.688571 82.337364 
L 539.928419 88.682193 
L 541.168266 83.447709 
L 542.408113 72.264947 
L 543.647961 69.925292 
L 544.887808 60.804599 
L 547.367503 50.216665 
L 548.60735 60.011496 
L 549.847197 61.875289 
L 551.087045 58.940806 
L 552.326892 59.932185 
L 553.566739 65.206325 
L 554.806587 61.478737 
L 556.046434 60.804599 
L 557.286282 77.142535 
L 558.526129 83.923571 
L 559.765976 88.444262 
L 561.005824 94.868402 
L 562.245671 107.875302 
L 563.485518 107.518405 
L 564.725366 106.527026 
L 565.965213 122.190823 
L 567.20506 131.549447 
L 568.444908 138.013241 
L 569.684755 143.009795 
L 570.924602 152.368418 
L 572.16445 151.813245 
L 573.404297 152.090832 
L 574.644144 168.389112 
L 575.883992 175.883942 
L 577.123839 188.256359 
L 578.363686 201.897742 
L 579.603534 198.685672 
L 580.843381 203.246018 
L 582.083228 204.673605 
L 583.323076 206.577054 
L 584.562923 208.00464 
L 585.80277 228.308094 
L 587.042618 229.101198 
L 588.282465 240.323615 
L 590.76216 238.063269 
L 592.002007 251.585687 
L 594.481702 264.315001 
L 595.721549 269.708106 
L 596.961396 280.890867 
L 598.201244 280.613281 
L 599.441091 279.859833 
L 600.680938 290.408111 
L 601.920786 298.854665 
L 603.160633 305.913288 
L 604.40048 310.989152 
L 605.640328 319.871913 
L 606.880175 321.140879 
L 608.120022 321.53743 
L 609.35987 322.568465 
L 610.599717 332.402951 
L 611.839564 337.835711 
L 614.319259 346.083989 
L 615.559106 345.727092 
L 616.798954 346.559851 
L 619.278648 355.839164 
L 620.518496 358.25813 
L 621.758343 362.858132 
L 622.99819 368.251237 
L 624.238038 368.647788 
L 625.477885 368.885719 
L 626.717732 372.533996 
L 627.95758 374.675376 
L 629.197427 377.054687 
L 630.437274 379.90986 
L 631.677122 381.694344 
L 632.916969 381.97193 
L 634.156816 381.932275 
L 635.396664 383.716758 
L 637.876358 395.018485 
L 639.116206 402.55297 
L 640.356053 403.028832 
L 641.5959 403.266763 
L 642.835748 403.306419 
L 645.315442 407.073661 
L 646.55529 408.540903 
L 649.034984 410.444352 
L 650.274832 410.602972 
L 651.514679 410.642628 
L 652.754526 412.3478 
L 653.994374 413.220215 
L 655.234221 413.775387 
L 656.474068 415.639181 
L 657.713916 420.437458 
L 658.953763 420.358148 
L 660.19361 423.13401 
L 661.433458 427.535736 
L 662.673305 434.396082 
L 663.913152 434.475393 
L 665.153 437.013325 
L 666.392847 439.828843 
L 667.632694 439.908153 
L 668.872542 439.749532 
L 670.112389 442.921947 
L 671.352236 443.239188 
L 672.592084 443.675395 
L 673.831931 443.120223 
L 675.071778 443.318499 
L 677.551473 443.001257 
L 678.79132 443.199533 
L 680.031168 443.873671 
L 681.271015 443.715051 
L 682.510862 443.080568 
L 683.75071 444.508154 
L 686.230404 444.111602 
L 687.470252 443.596085 
L 688.710099 442.56505 
L 689.949946 442.604705 
L 691.189794 442.208154 
L 692.429641 440.899533 
L 693.669488 440.582291 
L 694.909336 440.384015 
L 696.149183 438.758153 
L 697.38903 436.259876 
L 698.628878 434.634014 
L 699.868725 435.427117 
L 701.108572 433.365048 
L 702.34842 432.334013 
L 703.588267 430.509874 
L 704.828114 427.297805 
L 706.067962 424.640907 
L 707.307809 424.04608 
L 708.547656 422.380562 
L 709.787504 416.828836 
L 711.027351 413.41849 
L 712.267198 411.11849 
L 713.507046 406.75642 
L 715.98674 393.154692 
L 718.466435 380.782274 
L 719.706282 376.935722 
L 720.94613 375.270204 
L 722.185977 365.356408 
L 723.425824 358.575372 
L 724.665672 354.133991 
L 725.905519 347.075369 
L 727.145366 343.427092 
L 728.385214 338.906401 
L 729.625061 335.654676 
L 733.344603 318.959843 
L 734.58445 314.478808 
L 735.824298 311.108117 
L 738.303992 307.499495 
L 739.54384 302.621908 
L 740.783687 301.709839 
L 742.023534 297.268458 
L 743.263382 294.056388 
L 744.503229 296.118458 
L 745.743076 291.201215 
L 746.982924 289.733973 
L 748.222771 290.606387 
L 750.702466 290.804663 
L 751.942313 289.02018 
L 753.182161 288.147766 
L 754.422008 286.006386 
L 755.661855 284.142592 
L 756.901703 279.027074 
L 758.14155 276.806384 
L 759.381397 275.854659 
L 760.621245 276.251211 
L 761.861092 275.458107 
L 763.100939 272.642589 
L 764.340787 271.135692 
L 765.580634 272.325348 
L 766.820481 268.201209 
L 768.060329 267.408105 
L 769.300176 266.258105 
L 770.540023 267.011553 
L 773.019718 264.394311 
L 774.259565 266.139139 
L 775.499413 265.385691 
L 776.73926 261.856379 
L 777.979107 259.397758 
L 779.218955 256.264998 
L 780.458802 254.837412 
L 781.698649 254.282239 
L 782.938497 254.202929 
L 784.178344 248.611548 
L 785.418191 246.192582 
L 786.658039 239.847753 
L 787.897886 237.111545 
L 789.137733 233.185682 
L 790.377581 231.63913 
L 791.617428 224.342576 
L 795.33697 210.463262 
L 796.576817 207.409812 
L 797.816665 203.166708 
L 799.056512 198.408086 
L 801.536207 182.030495 
L 802.776054 180.127046 
L 804.015901 172.989113 
L 805.255749 167.952905 
L 806.495596 160.021868 
L 807.735443 156.333936 
L 808.975291 154.073591 
L 810.215138 149.354624 
L 811.454985 147.689106 
L 812.694833 140.511518 
L 813.93468 144.873588 
L 815.174527 140.590828 
L 815.174527 140.590828 
" style="fill:none;stroke:#ffc0cb;stroke-linecap:round;stroke-width:1.5;"/>
   </g>
   <g id="line2d_148">
    <path clip-path="url(#p427b7a471d)" d="M 96.063073 471.473679 
L 98.542767 471.434024 
L 99.782615 471.235748 
L 104.742004 471.077127 
L 105.981851 471.354713 
L 107.221699 471.275403 
L 109.701393 470.759886 
L 110.941241 470.759886 
L 112.181088 471.077127 
L 114.660783 471.156438 
L 115.90063 470.918506 
L 117.140477 471.037472 
L 118.380325 470.878851 
L 119.620172 470.878851 
L 120.860019 471.037472 
L 122.099867 470.878851 
L 124.579561 470.958162 
L 128.299103 470.799541 
L 129.538951 470.918506 
L 130.778798 470.918506 
L 132.018645 471.037472 
L 133.258493 470.958162 
L 134.49834 470.997817 
L 136.978035 470.56161 
L 138.217882 470.284023 
L 139.457729 470.204713 
L 140.697577 470.521955 
L 143.177271 470.482299 
L 148.136661 470.799541 
L 149.376508 471.077127 
L 153.09605 471.354713 
L 154.335897 471.354713 
L 155.575745 471.6323 
L 156.815592 471.71161 
L 159.295287 471.6323 
L 163.014829 471.79092 
L 165.494524 471.870231 
L 166.734371 471.71161 
L 167.974218 472.147817 
L 170.453913 472.187472 
L 171.69376 472.028852 
L 174.173455 472.028852 
L 175.413302 471.909886 
L 176.65315 471.989196 
L 177.892997 471.830576 
L 180.372692 471.909886 
L 182.852386 471.909886 
L 187.811776 471.989196 
L 189.051623 471.830576 
L 190.29147 471.989196 
L 194.011012 471.989196 
L 195.25086 471.870231 
L 197.730554 471.79092 
L 198.970402 471.71161 
L 201.450096 471.275403 
L 203.929791 471.235748 
L 210.129028 471.354713 
L 211.368875 471.235748 
L 213.84857 471.394369 
L 215.088417 471.235748 
L 217.568112 471.196093 
L 220.047806 471.434024 
L 222.527501 471.394369 
L 223.767348 471.196093 
L 227.48689 471.156438 
L 228.726738 471.275403 
L 229.966585 471.552989 
L 237.405669 470.918506 
L 239.885364 471.156438 
L 241.125211 470.839196 
L 244.844753 470.799541 
L 246.0846 470.878851 
L 248.564295 470.64092 
L 249.804142 470.323679 
L 253.523684 470.363334 
L 254.763532 469.966782 
L 257.243226 470.006437 
L 259.722921 470.323679 
L 262.202616 470.284023 
L 263.442463 470.085748 
L 264.68231 470.125403 
L 265.922158 470.006437 
L 267.162005 469.609885 
L 269.6417 469.57023 
L 270.881547 469.927127 
L 272.121394 469.966782 
L 273.361242 470.125403 
L 274.601089 469.927127 
L 275.840936 470.165058 
L 279.560478 469.927127 
L 280.800326 470.046092 
L 282.040173 470.006437 
L 283.28002 470.085748 
L 284.519868 470.284023 
L 285.759715 470.244368 
L 288.23941 470.402989 
L 290.719104 470.125403 
L 291.958952 470.323679 
L 293.198799 470.284023 
L 294.438646 470.402989 
L 295.678494 470.402989 
L 301.87773 471.156438 
L 303.117578 471.037472 
L 308.076967 471.354713 
L 309.316814 471.315058 
L 310.556662 471.077127 
L 311.796509 471.077127 
L 313.036356 470.878851 
L 317.995746 470.64092 
L 322.955135 470.165058 
L 325.43483 470.402989 
L 327.914524 470.204713 
L 330.394219 470.046092 
L 331.634066 469.927127 
L 332.873914 469.966782 
L 334.113761 469.847816 
L 335.353608 469.57023 
L 337.833303 469.371954 
L 339.07315 469.57023 
L 340.312998 469.015058 
L 341.552845 468.816782 
L 342.792692 468.261609 
L 344.03254 468.063333 
L 345.272387 467.468505 
L 346.512234 467.032298 
L 347.752082 466.715057 
L 348.991929 466.596091 
L 350.231776 466.754712 
L 351.471624 466.080574 
L 352.711471 465.882298 
L 353.951318 465.961608 
L 356.431013 465.802988 
L 357.670861 465.366781 
L 360.150555 463.027125 
L 361.390403 462.590918 
L 362.63025 462.313332 
L 363.870097 461.758159 
L 365.109945 461.718504 
L 366.349792 461.797814 
L 367.589639 461.401262 
L 368.829487 461.559883 
L 370.069334 461.242642 
L 371.309181 461.084021 
L 372.549029 460.806435 
L 373.788876 460.885745 
L 375.028723 461.084021 
L 376.268571 460.489193 
L 377.508418 460.092641 
L 378.748265 458.863331 
L 379.988113 457.316779 
L 381.22796 456.325399 
L 382.467807 456.325399 
L 384.947502 456.959882 
L 387.427197 455.452985 
L 388.667044 455.215054 
L 389.906891 455.41333 
L 391.146739 455.452985 
L 392.386586 454.382295 
L 393.626433 452.954708 
L 394.866281 451.765053 
L 396.106128 451.765053 
L 397.345975 452.518501 
L 398.585823 452.042639 
L 399.82567 452.042639 
L 401.065517 451.765053 
L 402.305365 452.121949 
L 403.545212 450.932294 
L 404.785059 451.011604 
L 406.024907 449.187466 
L 407.264754 448.90988 
L 408.504601 449.108156 
L 409.744449 449.504707 
L 410.984296 449.425397 
L 412.224143 449.901259 
L 413.463991 450.020225 
L 414.703838 451.249535 
L 415.943685 451.011604 
L 417.183533 451.249535 
L 418.42338 451.765053 
L 419.663227 451.646087 
L 420.903075 451.368501 
L 423.382769 452.20126 
L 424.622617 451.765053 
L 425.862464 451.765053 
L 427.102311 452.518501 
L 428.342159 453.708157 
L 429.582006 453.985743 
L 434.541395 454.540916 
L 435.781243 456.206433 
L 437.02109 456.920227 
L 438.260937 457.475399 
L 439.500785 457.55471 
L 440.740632 457.435744 
L 443.220327 457.435744 
L 444.460174 457.63402 
L 445.700021 457.951261 
L 446.939869 458.70471 
L 448.179716 458.902986 
L 449.419563 458.902986 
L 450.659411 459.021951 
L 451.899258 458.982296 
L 454.378953 459.894365 
L 455.6188 459.537469 
L 456.858647 460.727124 
L 458.098495 461.242642 
L 459.338342 461.361607 
L 460.578189 461.282297 
L 461.818037 461.440918 
L 463.057884 461.361607 
L 464.297731 461.99609 
L 465.537579 462.313332 
L 468.017273 462.075401 
L 470.496968 461.99609 
L 471.736815 461.440918 
L 472.976663 461.242642 
L 474.21651 461.520228 
L 475.456357 461.559883 
L 476.696205 461.361607 
L 479.175899 461.639193 
L 480.415747 461.956435 
L 481.655594 461.678849 
L 482.895441 460.885745 
L 484.135289 460.449538 
L 486.614983 460.568504 
L 487.854831 461.044366 
L 489.094678 461.242642 
L 490.334525 460.766779 
L 491.574373 460.608159 
L 492.81422 459.973676 
L 494.054067 459.973676 
L 495.293915 459.7754 
L 497.773609 458.665055 
L 499.013457 457.871951 
L 500.253304 457.832296 
L 501.493151 457.515054 
L 502.732999 457.435744 
L 503.972846 456.880571 
L 505.212693 456.087468 
L 506.452541 455.730571 
L 507.692388 455.651261 
L 508.932235 455.056433 
L 510.172083 455.175399 
L 511.41193 454.580571 
L 512.651777 454.42195 
L 513.891625 452.558156 
L 515.131472 452.796088 
L 516.371319 452.637467 
L 517.611167 452.597812 
L 518.851014 452.439191 
L 520.090861 451.804708 
L 521.330709 451.368501 
L 522.570556 449.623673 
L 523.810403 448.235741 
L 525.050251 448.354707 
L 526.290098 445.935741 
L 527.529945 445.182292 
L 528.769793 445.102982 
L 531.249487 445.102982 
L 532.489335 443.596085 
L 533.729182 443.040912 
L 534.969029 442.009878 
L 536.208877 442.723671 
L 537.448724 442.009878 
L 538.688571 441.851257 
L 539.928419 442.684016 
L 541.168266 442.842637 
L 542.408113 441.890912 
L 543.647961 442.882292 
L 546.127655 442.446085 
L 548.60735 443.397809 
L 551.087045 441.692636 
L 552.326892 440.26505 
L 553.566739 440.304705 
L 554.806587 440.740912 
L 556.046434 440.899533 
L 557.286282 441.732291 
L 558.526129 440.820222 
L 559.765976 440.502981 
L 561.005824 440.34436 
L 562.245671 440.740912 
L 563.485518 440.899533 
L 564.725366 441.454705 
L 565.965213 441.573671 
L 567.20506 442.168498 
L 568.444908 441.33574 
L 569.684755 441.534015 
L 570.924602 442.723671 
L 572.16445 443.239188 
L 573.404297 442.921947 
L 574.644144 443.794361 
L 575.883992 444.190913 
L 578.363686 445.459879 
L 579.603534 445.77712 
L 580.843381 445.935741 
L 582.083228 446.252982 
L 584.562923 447.244362 
L 585.80277 448.751259 
L 587.042618 449.227121 
L 588.282465 449.901259 
L 590.76216 450.218501 
L 592.002007 450.496087 
L 593.241854 451.289191 
L 595.721549 452.042639 
L 596.961396 452.518501 
L 599.441091 452.716777 
L 600.680938 453.073674 
L 601.920786 453.27195 
L 603.160633 454.263329 
L 604.40048 454.977123 
L 605.640328 455.968502 
L 608.120022 456.56333 
L 609.35987 456.404709 
L 610.599717 457.316779 
L 611.839564 457.63402 
L 613.079412 457.475399 
L 614.319259 457.951261 
L 616.798954 458.268503 
L 618.038801 458.70471 
L 619.278648 459.735745 
L 620.518496 459.577124 
L 622.99819 460.885745 
L 624.238038 460.885745 
L 625.477885 461.123676 
L 629.197427 462.352987 
L 630.437274 462.471952 
L 631.677122 462.749539 
L 634.156816 462.709883 
L 635.396664 462.908159 
L 636.636511 462.947815 
L 639.116206 463.978849 
L 640.356053 464.256436 
L 642.835748 464.296091 
L 644.075595 464.573677 
L 645.315442 464.732298 
L 646.55529 464.534022 
L 647.795137 464.534022 
L 649.034984 464.732298 
L 651.514679 464.692643 
L 652.754526 465.12885 
L 653.994374 465.406436 
L 655.234221 465.406436 
L 656.474068 466.040919 
L 657.713916 466.35816 
L 660.19361 466.477126 
L 661.433458 467.627126 
L 662.673305 468.102988 
L 663.913152 468.023678 
L 666.392847 468.340919 
L 668.872542 468.380575 
L 670.112389 468.737471 
L 678.79132 469.015058 
L 680.031168 469.252989 
L 681.271015 469.332299 
L 682.510862 469.292644 
L 683.75071 469.530575 
L 686.230404 469.451265 
L 687.470252 469.609885 
L 689.949946 469.371954 
L 691.189794 469.371954 
L 692.429641 469.530575 
L 698.628878 468.935747 
L 699.868725 468.975402 
L 701.108572 468.896092 
L 702.34842 468.618506 
L 703.588267 468.578851 
L 704.828114 468.777127 
L 707.307809 468.221954 
L 708.547656 468.301264 
L 709.787504 467.587471 
L 711.027351 467.309885 
L 712.267198 466.913333 
L 713.507046 466.754712 
L 715.98674 465.604712 
L 717.226588 464.811608 
L 718.466435 464.851263 
L 720.94613 464.494367 
L 722.185977 463.661608 
L 723.425824 462.670228 
L 725.905519 461.440918 
L 727.145366 460.687469 
L 729.625061 460.687469 
L 730.864908 460.568504 
L 732.104756 459.656434 
L 733.344603 459.339193 
L 735.824298 459.259882 
L 737.064145 459.101262 
L 738.303992 459.339193 
L 739.54384 459.061607 
L 740.783687 459.458158 
L 742.023534 458.109882 
L 743.263382 457.515054 
L 744.503229 457.55471 
L 745.743076 457.435744 
L 746.982924 457.71333 
L 748.222771 457.832296 
L 749.462618 457.197813 
L 750.702466 456.801261 
L 754.422008 456.801261 
L 756.901703 457.118503 
L 758.14155 456.444364 
L 759.381397 456.444364 
L 760.621245 456.087468 
L 764.340787 455.928847 
L 768.060329 454.34264 
L 769.300176 454.184019 
L 771.779871 454.065053 
L 773.019718 454.184019 
L 774.259565 454.858157 
L 775.499413 454.263329 
L 776.73926 454.461605 
L 777.979107 454.144364 
L 779.218955 454.184019 
L 780.458802 453.906433 
L 782.938497 453.787467 
L 784.178344 453.27195 
L 785.418191 453.192639 
L 786.658039 452.954708 
L 787.897886 452.320225 
L 789.137733 452.20126 
L 790.377581 452.20126 
L 791.617428 451.20988 
L 792.857275 450.377121 
L 794.097123 450.020225 
L 795.33697 449.108156 
L 797.816665 448.632293 
L 799.056512 448.711604 
L 800.296359 448.394362 
L 802.776054 448.434017 
L 804.015901 446.490913 
L 805.255749 445.69781 
L 806.495596 445.340913 
L 807.735443 445.539189 
L 808.975291 445.975396 
L 810.215138 444.904706 
L 811.454985 444.151258 
L 812.694833 444.349534 
L 813.93468 443.794361 
L 815.174527 443.477119 
L 815.174527 443.477119 
" style="fill:none;stroke:#800080;stroke-linecap:round;stroke-width:1.5;"/>
   </g>
   <g id="line2d_149"/>
   <g id="line2d_150"/>
   <g id="patch_3">
    <path d="M 60.1075 493.286013 
L 60.1075 29.118125 
" style="fill:none;stroke:#262626;stroke-linecap:square;stroke-linejoin:miter;stroke-width:1.25;"/>
   </g>
   <g id="patch_4">
    <path d="M 851.1301 493.286013 
L 851.1301 29.118125 
" style="fill:none;stroke:#262626;stroke-linecap:square;stroke-linejoin:miter;stroke-width:1.25;"/>
   </g>
   <g id="patch_5">
    <path d="M 60.1075 493.286013 
L 851.1301 493.286013 
" style="fill:none;stroke:#262626;stroke-linecap:square;stroke-linejoin:miter;stroke-width:1.25;"/>
   </g>
   <g id="patch_6">
    <path d="M 60.1075 29.118125 
L 851.1301 29.118125 
" style="fill:none;stroke:#262626;stroke-linecap:square;stroke-linejoin:miter;stroke-width:1.25;"/>
   </g>
   <g id="text_30">
    <!-- Last update: 07.11.2021 -->
    <g style="fill:#262626;" transform="translate(394.119972 22.155607)scale(0.09996 -0.09996)">
     <defs>
      <path d="M 628 4666 
L 1259 4666 
L 1259 531 
L 3531 531 
L 3531 0 
L 628 0 
L 628 4666 
z
" id="DejaVuSans-4c" transform="scale(0.015625)"/>
      <path id="DejaVuSans-20" transform="scale(0.015625)"/>
      <path d="M 544 1381 
L 544 3500 
L 1119 3500 
L 1119 1403 
Q 1119 906 1312 657 
Q 1506 409 1894 409 
Q 2359 409 2629 706 
Q 2900 1003 2900 1516 
L 2900 3500 
L 3475 3500 
L 3475 0 
L 2900 0 
L 2900 538 
Q 2691 219 2414 64 
Q 2138 -91 1772 -91 
Q 1169 -91 856 284 
Q 544 659 544 1381 
z
M 1991 3584 
L 1991 3584 
z
" id="DejaVuSans-75" transform="scale(0.015625)"/>
      <path d="M 1159 525 
L 1159 -1331 
L 581 -1331 
L 581 3500 
L 1159 3500 
L 1159 2969 
Q 1341 3281 1617 3432 
Q 1894 3584 2278 3584 
Q 2916 3584 3314 3078 
Q 3713 2572 3713 1747 
Q 3713 922 3314 415 
Q 2916 -91 2278 -91 
Q 1894 -91 1617 61 
Q 1341 213 1159 525 
z
M 3116 1747 
Q 3116 2381 2855 2742 
Q 2594 3103 2138 3103 
Q 1681 3103 1420 2742 
Q 1159 2381 1159 1747 
Q 1159 1113 1420 752 
Q 1681 391 2138 391 
Q 2594 391 2855 752 
Q 3116 1113 3116 1747 
z
" id="DejaVuSans-70" transform="scale(0.015625)"/>
      <path d="M 2906 2969 
L 2906 4863 
L 3481 4863 
L 3481 0 
L 2906 0 
L 2906 525 
Q 2725 213 2448 61 
Q 2172 -91 1784 -91 
Q 1150 -91 751 415 
Q 353 922 353 1747 
Q 353 2572 751 3078 
Q 1150 3584 1784 3584 
Q 2172 3584 2448 3432 
Q 2725 3281 2906 2969 
z
M 947 1747 
Q 947 1113 1208 752 
Q 1469 391 1925 391 
Q 2381 391 2643 752 
Q 2906 1113 2906 1747 
Q 2906 2381 2643 2742 
Q 2381 3103 1925 3103 
Q 1469 3103 1208 2742 
Q 947 2381 947 1747 
z
" id="DejaVuSans-64" transform="scale(0.015625)"/>
      <path d="M 750 794 
L 1409 794 
L 1409 0 
L 750 0 
L 750 794 
z
M 750 3309 
L 1409 3309 
L 1409 2516 
L 750 2516 
L 750 3309 
z
" id="DejaVuSans-3a" transform="scale(0.015625)"/>
     </defs>
     <use xlink:href="#DejaVuSans-4c"/>
     <use x="55.712891" xlink:href="#DejaVuSans-61"/>
     <use x="116.992188" xlink:href="#DejaVuSans-73"/>
     <use x="169.091797" xlink:href="#DejaVuSans-74"/>
     <use x="208.300781" xlink:href="#DejaVuSans-20"/>
     <use x="240.087891" xlink:href="#DejaVuSans-75"/>
     <use x="303.466797" xlink:href="#DejaVuSans-70"/>
     <use x="366.943359" xlink:href="#DejaVuSans-64"/>
     <use x="430.419922" xlink:href="#DejaVuSans-61"/>
     <use x="491.699219" xlink:href="#DejaVuSans-74"/>
     <use x="530.908203" xlink:href="#DejaVuSans-65"/>
     <use x="592.431641" xlink:href="#DejaVuSans-3a"/>
     <use x="626.123047" xlink:href="#DejaVuSans-20"/>
     <use x="657.910156" xlink:href="#DejaVuSans-30"/>
     <use x="721.533203" xlink:href="#DejaVuSans-37"/>
     <use x="785.15625" xlink:href="#DejaVuSans-2e"/>
     <use x="816.943359" xlink:href="#DejaVuSans-31"/>
     <use x="880.566406" xlink:href="#DejaVuSans-31"/>
     <use x="944.189453" xlink:href="#DejaVuSans-2e"/>
     <use x="975.976562" xlink:href="#DejaVuSans-32"/>
     <use x="1039.599609" xlink:href="#DejaVuSans-30"/>
     <use x="1103.222656" xlink:href="#DejaVuSans-32"/>
     <use x="1166.845703" xlink:href="#DejaVuSans-31"/>
    </g>
   </g>
   <g id="text_31">
    <!-- Disease timeline -->
    <g style="fill:#262626;" transform="translate(399.460675 9.118125)scale(0.12 -0.12)">
     <defs>
      <path d="M 1791 3756 
L 1791 909 
L 2222 909 
Q 2959 909 3348 1275 
Q 3738 1641 3738 2338 
Q 3738 3031 3350 3393 
Q 2963 3756 2222 3756 
L 1791 3756 
z
M 588 4666 
L 1856 4666 
Q 2919 4666 3439 4514 
Q 3959 4363 4331 4000 
Q 4659 3684 4818 3271 
Q 4978 2859 4978 2338 
Q 4978 1809 4818 1395 
Q 4659 981 4331 666 
Q 3956 303 3431 151 
Q 2906 0 1856 0 
L 588 0 
L 588 4666 
z
" id="DejaVuSans-Bold-44" transform="scale(0.015625)"/>
      <path d="M 538 3500 
L 1656 3500 
L 1656 0 
L 538 0 
L 538 3500 
z
M 538 4863 
L 1656 4863 
L 1656 3950 
L 538 3950 
L 538 4863 
z
" id="DejaVuSans-Bold-69" transform="scale(0.015625)"/>
      <path d="M 3272 3391 
L 3272 2541 
Q 2913 2691 2578 2766 
Q 2244 2841 1947 2841 
Q 1628 2841 1473 2761 
Q 1319 2681 1319 2516 
Q 1319 2381 1436 2309 
Q 1553 2238 1856 2203 
L 2053 2175 
Q 2913 2066 3209 1816 
Q 3506 1566 3506 1031 
Q 3506 472 3093 190 
Q 2681 -91 1863 -91 
Q 1516 -91 1145 -36 
Q 775 19 384 128 
L 384 978 
Q 719 816 1070 734 
Q 1422 653 1784 653 
Q 2113 653 2278 743 
Q 2444 834 2444 1013 
Q 2444 1163 2330 1236 
Q 2216 1309 1875 1350 
L 1678 1375 
Q 931 1469 631 1722 
Q 331 1975 331 2491 
Q 331 3047 712 3315 
Q 1094 3584 1881 3584 
Q 2191 3584 2531 3537 
Q 2872 3491 3272 3391 
z
" id="DejaVuSans-Bold-73" transform="scale(0.015625)"/>
      <path d="M 4031 1759 
L 4031 1441 
L 1416 1441 
Q 1456 1047 1700 850 
Q 1944 653 2381 653 
Q 2734 653 3104 758 
Q 3475 863 3866 1075 
L 3866 213 
Q 3469 63 3072 -14 
Q 2675 -91 2278 -91 
Q 1328 -91 801 392 
Q 275 875 275 1747 
Q 275 2603 792 3093 
Q 1309 3584 2216 3584 
Q 3041 3584 3536 3087 
Q 4031 2591 4031 1759 
z
M 2881 2131 
Q 2881 2450 2695 2645 
Q 2509 2841 2209 2841 
Q 1884 2841 1681 2658 
Q 1478 2475 1428 2131 
L 2881 2131 
z
" id="DejaVuSans-Bold-65" transform="scale(0.015625)"/>
      <path d="M 2106 1575 
Q 1756 1575 1579 1456 
Q 1403 1338 1403 1106 
Q 1403 894 1545 773 
Q 1688 653 1941 653 
Q 2256 653 2472 879 
Q 2688 1106 2688 1447 
L 2688 1575 
L 2106 1575 
z
M 3816 1997 
L 3816 0 
L 2688 0 
L 2688 519 
Q 2463 200 2181 54 
Q 1900 -91 1497 -91 
Q 953 -91 614 226 
Q 275 544 275 1050 
Q 275 1666 698 1953 
Q 1122 2241 2028 2241 
L 2688 2241 
L 2688 2328 
Q 2688 2594 2478 2717 
Q 2269 2841 1825 2841 
Q 1466 2841 1156 2769 
Q 847 2697 581 2553 
L 581 3406 
Q 941 3494 1303 3539 
Q 1666 3584 2028 3584 
Q 2975 3584 3395 3211 
Q 3816 2838 3816 1997 
z
" id="DejaVuSans-Bold-61" transform="scale(0.015625)"/>
      <path id="DejaVuSans-Bold-20" transform="scale(0.015625)"/>
      <path d="M 1759 4494 
L 1759 3500 
L 2913 3500 
L 2913 2700 
L 1759 2700 
L 1759 1216 
Q 1759 972 1856 886 
Q 1953 800 2241 800 
L 2816 800 
L 2816 0 
L 1856 0 
Q 1194 0 917 276 
Q 641 553 641 1216 
L 641 2700 
L 84 2700 
L 84 3500 
L 641 3500 
L 641 4494 
L 1759 4494 
z
" id="DejaVuSans-Bold-74" transform="scale(0.015625)"/>
      <path d="M 3781 2919 
Q 3994 3244 4286 3414 
Q 4578 3584 4928 3584 
Q 5531 3584 5847 3212 
Q 6163 2841 6163 2131 
L 6163 0 
L 5038 0 
L 5038 1825 
Q 5041 1866 5042 1909 
Q 5044 1953 5044 2034 
Q 5044 2406 4934 2573 
Q 4825 2741 4581 2741 
Q 4263 2741 4089 2478 
Q 3916 2216 3909 1719 
L 3909 0 
L 2784 0 
L 2784 1825 
Q 2784 2406 2684 2573 
Q 2584 2741 2328 2741 
Q 2006 2741 1831 2477 
Q 1656 2213 1656 1722 
L 1656 0 
L 531 0 
L 531 3500 
L 1656 3500 
L 1656 2988 
Q 1863 3284 2130 3434 
Q 2397 3584 2719 3584 
Q 3081 3584 3359 3409 
Q 3638 3234 3781 2919 
z
" id="DejaVuSans-Bold-6d" transform="scale(0.015625)"/>
      <path d="M 538 4863 
L 1656 4863 
L 1656 0 
L 538 0 
L 538 4863 
z
" id="DejaVuSans-Bold-6c" transform="scale(0.015625)"/>
      <path d="M 4056 2131 
L 4056 0 
L 2931 0 
L 2931 347 
L 2931 1631 
Q 2931 2084 2911 2256 
Q 2891 2428 2841 2509 
Q 2775 2619 2662 2680 
Q 2550 2741 2406 2741 
Q 2056 2741 1856 2470 
Q 1656 2200 1656 1722 
L 1656 0 
L 538 0 
L 538 3500 
L 1656 3500 
L 1656 2988 
Q 1909 3294 2193 3439 
Q 2478 3584 2822 3584 
Q 3428 3584 3742 3212 
Q 4056 2841 4056 2131 
z
" id="DejaVuSans-Bold-6e" transform="scale(0.015625)"/>
     </defs>
     <use xlink:href="#DejaVuSans-Bold-44"/>
     <use x="83.007812" xlink:href="#DejaVuSans-Bold-69"/>
     <use x="117.285156" xlink:href="#DejaVuSans-Bold-73"/>
     <use x="176.806641" xlink:href="#DejaVuSans-Bold-65"/>
     <use x="244.628906" xlink:href="#DejaVuSans-Bold-61"/>
     <use x="312.109375" xlink:href="#DejaVuSans-Bold-73"/>
     <use x="371.630859" xlink:href="#DejaVuSans-Bold-65"/>
     <use x="439.453125" xlink:href="#DejaVuSans-Bold-20"/>
     <use x="474.267578" xlink:href="#DejaVuSans-Bold-74"/>
     <use x="522.070312" xlink:href="#DejaVuSans-Bold-69"/>
     <use x="556.347656" xlink:href="#DejaVuSans-Bold-6d"/>
     <use x="660.546875" xlink:href="#DejaVuSans-Bold-65"/>
     <use x="728.369141" xlink:href="#DejaVuSans-Bold-6c"/>
     <use x="762.646484" xlink:href="#DejaVuSans-Bold-69"/>
     <use x="796.923828" xlink:href="#DejaVuSans-Bold-6e"/>
     <use x="868.115234" xlink:href="#DejaVuSans-Bold-65"/>
    </g>
   </g>
   <g id="legend_1">
    <g id="patch_7">
     <path d="M 730.568381 70.21 
L 843.4301 70.21 
Q 845.6301 70.21 845.6301 68.01 
L 845.6301 36.818125 
Q 845.6301 34.618125 843.4301 34.618125 
L 730.568381 34.618125 
Q 728.368381 34.618125 728.368381 36.818125 
L 728.368381 68.01 
Q 728.368381 70.21 730.568381 70.21 
z
" style="fill:#ffffff;opacity:0.8;stroke:#cccccc;stroke-linejoin:miter;"/>
    </g>
    <g id="line2d_151">
     <path d="M 732.768381 43.526406 
L 754.768381 43.526406 
" style="fill:none;stroke:#ffc0cb;stroke-linecap:round;stroke-width:1.5;"/>
    </g>
    <g id="line2d_152"/>
    <g id="text_32">
     <!-- Hospitalized -->
     <g style="fill:#262626;" transform="translate(763.568381 47.376406)scale(0.11 -0.11)">
      <defs>
       <path d="M 628 4666 
L 1259 4666 
L 1259 2753 
L 3553 2753 
L 3553 4666 
L 4184 4666 
L 4184 0 
L 3553 0 
L 3553 2222 
L 1259 2222 
L 1259 0 
L 628 0 
L 628 4666 
z
" id="DejaVuSans-48" transform="scale(0.015625)"/>
       <path d="M 1959 3097 
Q 1497 3097 1228 2736 
Q 959 2375 959 1747 
Q 959 1119 1226 758 
Q 1494 397 1959 397 
Q 2419 397 2687 759 
Q 2956 1122 2956 1747 
Q 2956 2369 2687 2733 
Q 2419 3097 1959 3097 
z
M 1959 3584 
Q 2709 3584 3137 3096 
Q 3566 2609 3566 1747 
Q 3566 888 3137 398 
Q 2709 -91 1959 -91 
Q 1206 -91 779 398 
Q 353 888 353 1747 
Q 353 2609 779 3096 
Q 1206 3584 1959 3584 
z
" id="DejaVuSans-6f" transform="scale(0.015625)"/>
       <path d="M 603 3500 
L 1178 3500 
L 1178 0 
L 603 0 
L 603 3500 
z
M 603 4863 
L 1178 4863 
L 1178 4134 
L 603 4134 
L 603 4863 
z
" id="DejaVuSans-69" transform="scale(0.015625)"/>
       <path d="M 603 4863 
L 1178 4863 
L 1178 0 
L 603 0 
L 603 4863 
z
" id="DejaVuSans-6c" transform="scale(0.015625)"/>
       <path d="M 353 3500 
L 3084 3500 
L 3084 2975 
L 922 459 
L 3084 459 
L 3084 0 
L 275 0 
L 275 525 
L 2438 3041 
L 353 3041 
L 353 3500 
z
" id="DejaVuSans-7a" transform="scale(0.015625)"/>
      </defs>
      <use xlink:href="#DejaVuSans-48"/>
      <use x="75.195312" xlink:href="#DejaVuSans-6f"/>
      <use x="136.376953" xlink:href="#DejaVuSans-73"/>
      <use x="188.476562" xlink:href="#DejaVuSans-70"/>
      <use x="251.953125" xlink:href="#DejaVuSans-69"/>
      <use x="279.736328" xlink:href="#DejaVuSans-74"/>
      <use x="318.945312" xlink:href="#DejaVuSans-61"/>
      <use x="380.224609" xlink:href="#DejaVuSans-6c"/>
      <use x="408.007812" xlink:href="#DejaVuSans-69"/>
      <use x="435.791016" xlink:href="#DejaVuSans-7a"/>
      <use x="488.28125" xlink:href="#DejaVuSans-65"/>
      <use x="549.804688" xlink:href="#DejaVuSans-64"/>
     </g>
    </g>
    <g id="line2d_153">
     <path d="M 732.768381 59.672344 
L 754.768381 59.672344 
" style="fill:none;stroke:#800080;stroke-linecap:round;stroke-width:1.5;"/>
    </g>
    <g id="line2d_154"/>
    <g id="text_33">
     <!-- Intensive care -->
     <g style="fill:#262626;" transform="translate(763.568381 63.522344)scale(0.11 -0.11)">
      <defs>
       <path d="M 628 4666 
L 1259 4666 
L 1259 0 
L 628 0 
L 628 4666 
z
" id="DejaVuSans-49" transform="scale(0.015625)"/>
       <path d="M 3513 2113 
L 3513 0 
L 2938 0 
L 2938 2094 
Q 2938 2591 2744 2837 
Q 2550 3084 2163 3084 
Q 1697 3084 1428 2787 
Q 1159 2491 1159 1978 
L 1159 0 
L 581 0 
L 581 3500 
L 1159 3500 
L 1159 2956 
Q 1366 3272 1645 3428 
Q 1925 3584 2291 3584 
Q 2894 3584 3203 3211 
Q 3513 2838 3513 2113 
z
" id="DejaVuSans-6e" transform="scale(0.015625)"/>
       <path d="M 191 3500 
L 800 3500 
L 1894 563 
L 2988 3500 
L 3597 3500 
L 2284 0 
L 1503 0 
L 191 3500 
z
" id="DejaVuSans-76" transform="scale(0.015625)"/>
       <path d="M 3122 3366 
L 3122 2828 
Q 2878 2963 2633 3030 
Q 2388 3097 2138 3097 
Q 1578 3097 1268 2742 
Q 959 2388 959 1747 
Q 959 1106 1268 751 
Q 1578 397 2138 397 
Q 2388 397 2633 464 
Q 2878 531 3122 666 
L 3122 134 
Q 2881 22 2623 -34 
Q 2366 -91 2075 -91 
Q 1284 -91 818 406 
Q 353 903 353 1747 
Q 353 2603 823 3093 
Q 1294 3584 2113 3584 
Q 2378 3584 2631 3529 
Q 2884 3475 3122 3366 
z
" id="DejaVuSans-63" transform="scale(0.015625)"/>
       <path d="M 2631 2963 
Q 2534 3019 2420 3045 
Q 2306 3072 2169 3072 
Q 1681 3072 1420 2755 
Q 1159 2438 1159 1844 
L 1159 0 
L 581 0 
L 581 3500 
L 1159 3500 
L 1159 2956 
Q 1341 3275 1631 3429 
Q 1922 3584 2338 3584 
Q 2397 3584 2469 3576 
Q 2541 3569 2628 3553 
L 2631 2963 
z
" id="DejaVuSans-72" transform="scale(0.015625)"/>
      </defs>
      <use xlink:href="#DejaVuSans-49"/>
      <use x="29.492188" xlink:href="#DejaVuSans-6e"/>
      <use x="92.871094" xlink:href="#DejaVuSans-74"/>
      <use x="132.080078" xlink:href="#DejaVuSans-65"/>
      <use x="193.603516" xlink:href="#DejaVuSans-6e"/>
      <use x="256.982422" xlink:href="#DejaVuSans-73"/>
      <use x="309.082031" xlink:href="#DejaVuSans-69"/>
      <use x="336.865234" xlink:href="#DejaVuSans-76"/>
      <use x="396.044922" xlink:href="#DejaVuSans-65"/>
      <use x="457.568359" xlink:href="#DejaVuSans-20"/>
      <use x="489.355469" xlink:href="#DejaVuSans-63"/>
      <use x="544.335938" xlink:href="#DejaVuSans-61"/>
      <use x="605.615234" xlink:href="#DejaVuSans-72"/>
      <use x="644.478516" xlink:href="#DejaVuSans-65"/>
     </g>
    </g>
   </g>
  </g>
 </g>
 <defs>
  <clipPath id="p427b7a471d">
   <rect height="464.167888" width="791.0226" x="60.1075" y="29.118125"/>
  </clipPath>
 </defs>
</svg>
