<?xml version="1.0" encoding="utf-8" standalone="no"?>
<!DOCTYPE svg PUBLIC "-//W3C//DTD SVG 1.1//EN"
  "http://www.w3.org/Graphics/SVG/1.1/DTD/svg11.dtd">
<svg height="714.462488pt" version="1.1" viewBox="0 0 1294.888 714.462488" width="1294.888pt" xmlns="http://www.w3.org/2000/svg" xmlns:xlink="http://www.w3.org/1999/xlink">
 <metadata>
  <rdf:RDF xmlns:cc="http://creativecommons.org/ns#" xmlns:dc="http://purl.org/dc/elements/1.1/" xmlns:rdf="http://www.w3.org/1999/02/22-rdf-syntax-ns#">
   <cc:Work>
    <dc:type rdf:resource="http://purl.org/dc/dcmitype/StillImage"/>
    <dc:date>2021-10-30T01:05:54.728443</dc:date>
    <dc:format>image/svg+xml</dc:format>
    <dc:creator>
     <cc:Agent>
      <dc:title>Matplotlib v3.4.3, https://matplotlib.org/</dc:title>
     </cc:Agent>
    </dc:creator>
   </cc:Work>
  </rdf:RDF>
 </metadata>
 <defs>
  <style type="text/css">*{stroke-linecap:butt;stroke-linejoin:round;}</style>
 </defs>
 <g id="figure_1">
  <g id="patch_1">
   <path d="M 0 714.462488 
L 1294.888 714.462488 
L 1294.888 0 
L 0 0 
z
" style="fill:none;"/>
  </g>
  <g id="axes_1">
   <g id="patch_2">
    <path d="M 67.10625 637.286013 
L 1230.39425 637.286013 
L 1230.39425 29.118125 
L 67.10625 29.118125 
z
" style="fill:none;"/>
   </g>
   <g id="matplotlib.axis_1">
    <g id="xtick_1">
     <g id="line2d_1">
      <path clip-path="url(#pc8eadd1d8f)" d="M 119.982977 637.286013 
L 119.982977 29.118125 
" style="fill:none;stroke:#cccccc;stroke-linecap:round;"/>
     </g>
     <g id="line2d_2">
      <defs>
       <path d="M 0 0 
L 0 6 
" id="m3e4284cfe8" style="stroke:#262626;stroke-width:1.25;"/>
      </defs>
      <g>
       <use style="fill:#262626;stroke:#262626;stroke-width:1.25;" x="119.982977" xlink:href="#m3e4284cfe8" y="637.286013"/>
      </g>
     </g>
     <g id="text_1">
      <!-- 07.03.2020 -->
      <g style="fill:#262626;" transform="translate(73.830449 697.231121)rotate(-45)scale(0.11 -0.11)">
       <defs>
        <path d="M 2034 4250 
Q 1547 4250 1301 3770 
Q 1056 3291 1056 2328 
Q 1056 1369 1301 889 
Q 1547 409 2034 409 
Q 2525 409 2770 889 
Q 3016 1369 3016 2328 
Q 3016 3291 2770 3770 
Q 2525 4250 2034 4250 
z
M 2034 4750 
Q 2819 4750 3233 4129 
Q 3647 3509 3647 2328 
Q 3647 1150 3233 529 
Q 2819 -91 2034 -91 
Q 1250 -91 836 529 
Q 422 1150 422 2328 
Q 422 3509 836 4129 
Q 1250 4750 2034 4750 
z
" id="DejaVuSans-30" transform="scale(0.015625)"/>
        <path d="M 525 4666 
L 3525 4666 
L 3525 4397 
L 1831 0 
L 1172 0 
L 2766 4134 
L 525 4134 
L 525 4666 
z
" id="DejaVuSans-37" transform="scale(0.015625)"/>
        <path d="M 684 794 
L 1344 794 
L 1344 0 
L 684 0 
L 684 794 
z
" id="DejaVuSans-2e" transform="scale(0.015625)"/>
        <path d="M 2597 2516 
Q 3050 2419 3304 2112 
Q 3559 1806 3559 1356 
Q 3559 666 3084 287 
Q 2609 -91 1734 -91 
Q 1441 -91 1130 -33 
Q 819 25 488 141 
L 488 750 
Q 750 597 1062 519 
Q 1375 441 1716 441 
Q 2309 441 2620 675 
Q 2931 909 2931 1356 
Q 2931 1769 2642 2001 
Q 2353 2234 1838 2234 
L 1294 2234 
L 1294 2753 
L 1863 2753 
Q 2328 2753 2575 2939 
Q 2822 3125 2822 3475 
Q 2822 3834 2567 4026 
Q 2313 4219 1838 4219 
Q 1578 4219 1281 4162 
Q 984 4106 628 3988 
L 628 4550 
Q 988 4650 1302 4700 
Q 1616 4750 1894 4750 
Q 2613 4750 3031 4423 
Q 3450 4097 3450 3541 
Q 3450 3153 3228 2886 
Q 3006 2619 2597 2516 
z
" id="DejaVuSans-33" transform="scale(0.015625)"/>
        <path d="M 1228 531 
L 3431 531 
L 3431 0 
L 469 0 
L 469 531 
Q 828 903 1448 1529 
Q 2069 2156 2228 2338 
Q 2531 2678 2651 2914 
Q 2772 3150 2772 3378 
Q 2772 3750 2511 3984 
Q 2250 4219 1831 4219 
Q 1534 4219 1204 4116 
Q 875 4013 500 3803 
L 500 4441 
Q 881 4594 1212 4672 
Q 1544 4750 1819 4750 
Q 2544 4750 2975 4387 
Q 3406 4025 3406 3419 
Q 3406 3131 3298 2873 
Q 3191 2616 2906 2266 
Q 2828 2175 2409 1742 
Q 1991 1309 1228 531 
z
" id="DejaVuSans-32" transform="scale(0.015625)"/>
       </defs>
       <use xlink:href="#DejaVuSans-30"/>
       <use x="63.623047" xlink:href="#DejaVuSans-37"/>
       <use x="127.246094" xlink:href="#DejaVuSans-2e"/>
       <use x="159.033203" xlink:href="#DejaVuSans-30"/>
       <use x="222.65625" xlink:href="#DejaVuSans-33"/>
       <use x="286.279297" xlink:href="#DejaVuSans-2e"/>
       <use x="318.066406" xlink:href="#DejaVuSans-32"/>
       <use x="381.689453" xlink:href="#DejaVuSans-30"/>
       <use x="445.3125" xlink:href="#DejaVuSans-32"/>
       <use x="508.935547" xlink:href="#DejaVuSans-30"/>
      </g>
     </g>
    </g>
    <g id="xtick_2">
     <g id="line2d_3">
      <path clip-path="url(#pc8eadd1d8f)" d="M 169.252474 637.286013 
L 169.252474 29.118125 
" style="fill:none;stroke:#cccccc;stroke-linecap:round;"/>
     </g>
     <g id="line2d_4">
      <g>
       <use style="fill:#262626;stroke:#262626;stroke-width:1.25;" x="169.252474" xlink:href="#m3e4284cfe8" y="637.286013"/>
      </g>
     </g>
     <g id="text_2">
      <!-- 04.04.2020 -->
      <g style="fill:#262626;" transform="translate(123.099945 697.231121)rotate(-45)scale(0.11 -0.11)">
       <defs>
        <path d="M 2419 4116 
L 825 1625 
L 2419 1625 
L 2419 4116 
z
M 2253 4666 
L 3047 4666 
L 3047 1625 
L 3713 1625 
L 3713 1100 
L 3047 1100 
L 3047 0 
L 2419 0 
L 2419 1100 
L 313 1100 
L 313 1709 
L 2253 4666 
z
" id="DejaVuSans-34" transform="scale(0.015625)"/>
       </defs>
       <use xlink:href="#DejaVuSans-30"/>
       <use x="63.623047" xlink:href="#DejaVuSans-34"/>
       <use x="127.246094" xlink:href="#DejaVuSans-2e"/>
       <use x="159.033203" xlink:href="#DejaVuSans-30"/>
       <use x="222.65625" xlink:href="#DejaVuSans-34"/>
       <use x="286.279297" xlink:href="#DejaVuSans-2e"/>
       <use x="318.066406" xlink:href="#DejaVuSans-32"/>
       <use x="381.689453" xlink:href="#DejaVuSans-30"/>
       <use x="445.3125" xlink:href="#DejaVuSans-32"/>
       <use x="508.935547" xlink:href="#DejaVuSans-30"/>
      </g>
     </g>
    </g>
    <g id="xtick_3">
     <g id="line2d_5">
      <path clip-path="url(#pc8eadd1d8f)" d="M 218.52197 637.286013 
L 218.52197 29.118125 
" style="fill:none;stroke:#cccccc;stroke-linecap:round;"/>
     </g>
     <g id="line2d_6">
      <g>
       <use style="fill:#262626;stroke:#262626;stroke-width:1.25;" x="218.52197" xlink:href="#m3e4284cfe8" y="637.286013"/>
      </g>
     </g>
     <g id="text_3">
      <!-- 02.05.2020 -->
      <g style="fill:#262626;" transform="translate(172.369442 697.231121)rotate(-45)scale(0.11 -0.11)">
       <defs>
        <path d="M 691 4666 
L 3169 4666 
L 3169 4134 
L 1269 4134 
L 1269 2991 
Q 1406 3038 1543 3061 
Q 1681 3084 1819 3084 
Q 2600 3084 3056 2656 
Q 3513 2228 3513 1497 
Q 3513 744 3044 326 
Q 2575 -91 1722 -91 
Q 1428 -91 1123 -41 
Q 819 9 494 109 
L 494 744 
Q 775 591 1075 516 
Q 1375 441 1709 441 
Q 2250 441 2565 725 
Q 2881 1009 2881 1497 
Q 2881 1984 2565 2268 
Q 2250 2553 1709 2553 
Q 1456 2553 1204 2497 
Q 953 2441 691 2322 
L 691 4666 
z
" id="DejaVuSans-35" transform="scale(0.015625)"/>
       </defs>
       <use xlink:href="#DejaVuSans-30"/>
       <use x="63.623047" xlink:href="#DejaVuSans-32"/>
       <use x="127.246094" xlink:href="#DejaVuSans-2e"/>
       <use x="159.033203" xlink:href="#DejaVuSans-30"/>
       <use x="222.65625" xlink:href="#DejaVuSans-35"/>
       <use x="286.279297" xlink:href="#DejaVuSans-2e"/>
       <use x="318.066406" xlink:href="#DejaVuSans-32"/>
       <use x="381.689453" xlink:href="#DejaVuSans-30"/>
       <use x="445.3125" xlink:href="#DejaVuSans-32"/>
       <use x="508.935547" xlink:href="#DejaVuSans-30"/>
      </g>
     </g>
    </g>
    <g id="xtick_4">
     <g id="line2d_7">
      <path clip-path="url(#pc8eadd1d8f)" d="M 267.791466 637.286013 
L 267.791466 29.118125 
" style="fill:none;stroke:#cccccc;stroke-linecap:round;"/>
     </g>
     <g id="line2d_8">
      <g>
       <use style="fill:#262626;stroke:#262626;stroke-width:1.25;" x="267.791466" xlink:href="#m3e4284cfe8" y="637.286013"/>
      </g>
     </g>
     <g id="text_4">
      <!-- 30.05.2020 -->
      <g style="fill:#262626;" transform="translate(221.638938 697.231121)rotate(-45)scale(0.11 -0.11)">
       <use xlink:href="#DejaVuSans-33"/>
       <use x="63.623047" xlink:href="#DejaVuSans-30"/>
       <use x="127.246094" xlink:href="#DejaVuSans-2e"/>
       <use x="159.033203" xlink:href="#DejaVuSans-30"/>
       <use x="222.65625" xlink:href="#DejaVuSans-35"/>
       <use x="286.279297" xlink:href="#DejaVuSans-2e"/>
       <use x="318.066406" xlink:href="#DejaVuSans-32"/>
       <use x="381.689453" xlink:href="#DejaVuSans-30"/>
       <use x="445.3125" xlink:href="#DejaVuSans-32"/>
       <use x="508.935547" xlink:href="#DejaVuSans-30"/>
      </g>
     </g>
    </g>
    <g id="xtick_5">
     <g id="line2d_9">
      <path clip-path="url(#pc8eadd1d8f)" d="M 317.060962 637.286013 
L 317.060962 29.118125 
" style="fill:none;stroke:#cccccc;stroke-linecap:round;"/>
     </g>
     <g id="line2d_10">
      <g>
       <use style="fill:#262626;stroke:#262626;stroke-width:1.25;" x="317.060962" xlink:href="#m3e4284cfe8" y="637.286013"/>
      </g>
     </g>
     <g id="text_5">
      <!-- 27.06.2020 -->
      <g style="fill:#262626;" transform="translate(270.908434 697.231121)rotate(-45)scale(0.11 -0.11)">
       <defs>
        <path d="M 2113 2584 
Q 1688 2584 1439 2293 
Q 1191 2003 1191 1497 
Q 1191 994 1439 701 
Q 1688 409 2113 409 
Q 2538 409 2786 701 
Q 3034 994 3034 1497 
Q 3034 2003 2786 2293 
Q 2538 2584 2113 2584 
z
M 3366 4563 
L 3366 3988 
Q 3128 4100 2886 4159 
Q 2644 4219 2406 4219 
Q 1781 4219 1451 3797 
Q 1122 3375 1075 2522 
Q 1259 2794 1537 2939 
Q 1816 3084 2150 3084 
Q 2853 3084 3261 2657 
Q 3669 2231 3669 1497 
Q 3669 778 3244 343 
Q 2819 -91 2113 -91 
Q 1303 -91 875 529 
Q 447 1150 447 2328 
Q 447 3434 972 4092 
Q 1497 4750 2381 4750 
Q 2619 4750 2861 4703 
Q 3103 4656 3366 4563 
z
" id="DejaVuSans-36" transform="scale(0.015625)"/>
       </defs>
       <use xlink:href="#DejaVuSans-32"/>
       <use x="63.623047" xlink:href="#DejaVuSans-37"/>
       <use x="127.246094" xlink:href="#DejaVuSans-2e"/>
       <use x="159.033203" xlink:href="#DejaVuSans-30"/>
       <use x="222.65625" xlink:href="#DejaVuSans-36"/>
       <use x="286.279297" xlink:href="#DejaVuSans-2e"/>
       <use x="318.066406" xlink:href="#DejaVuSans-32"/>
       <use x="381.689453" xlink:href="#DejaVuSans-30"/>
       <use x="445.3125" xlink:href="#DejaVuSans-32"/>
       <use x="508.935547" xlink:href="#DejaVuSans-30"/>
      </g>
     </g>
    </g>
    <g id="xtick_6">
     <g id="line2d_11">
      <path clip-path="url(#pc8eadd1d8f)" d="M 366.330459 637.286013 
L 366.330459 29.118125 
" style="fill:none;stroke:#cccccc;stroke-linecap:round;"/>
     </g>
     <g id="line2d_12">
      <g>
       <use style="fill:#262626;stroke:#262626;stroke-width:1.25;" x="366.330459" xlink:href="#m3e4284cfe8" y="637.286013"/>
      </g>
     </g>
     <g id="text_6">
      <!-- 25.07.2020 -->
      <g style="fill:#262626;" transform="translate(320.177931 697.231121)rotate(-45)scale(0.11 -0.11)">
       <use xlink:href="#DejaVuSans-32"/>
       <use x="63.623047" xlink:href="#DejaVuSans-35"/>
       <use x="127.246094" xlink:href="#DejaVuSans-2e"/>
       <use x="159.033203" xlink:href="#DejaVuSans-30"/>
       <use x="222.65625" xlink:href="#DejaVuSans-37"/>
       <use x="286.279297" xlink:href="#DejaVuSans-2e"/>
       <use x="318.066406" xlink:href="#DejaVuSans-32"/>
       <use x="381.689453" xlink:href="#DejaVuSans-30"/>
       <use x="445.3125" xlink:href="#DejaVuSans-32"/>
       <use x="508.935547" xlink:href="#DejaVuSans-30"/>
      </g>
     </g>
    </g>
    <g id="xtick_7">
     <g id="line2d_13">
      <path clip-path="url(#pc8eadd1d8f)" d="M 415.599955 637.286013 
L 415.599955 29.118125 
" style="fill:none;stroke:#cccccc;stroke-linecap:round;"/>
     </g>
     <g id="line2d_14">
      <g>
       <use style="fill:#262626;stroke:#262626;stroke-width:1.25;" x="415.599955" xlink:href="#m3e4284cfe8" y="637.286013"/>
      </g>
     </g>
     <g id="text_7">
      <!-- 22.08.2020 -->
      <g style="fill:#262626;" transform="translate(369.447427 697.231121)rotate(-45)scale(0.11 -0.11)">
       <defs>
        <path d="M 2034 2216 
Q 1584 2216 1326 1975 
Q 1069 1734 1069 1313 
Q 1069 891 1326 650 
Q 1584 409 2034 409 
Q 2484 409 2743 651 
Q 3003 894 3003 1313 
Q 3003 1734 2745 1975 
Q 2488 2216 2034 2216 
z
M 1403 2484 
Q 997 2584 770 2862 
Q 544 3141 544 3541 
Q 544 4100 942 4425 
Q 1341 4750 2034 4750 
Q 2731 4750 3128 4425 
Q 3525 4100 3525 3541 
Q 3525 3141 3298 2862 
Q 3072 2584 2669 2484 
Q 3125 2378 3379 2068 
Q 3634 1759 3634 1313 
Q 3634 634 3220 271 
Q 2806 -91 2034 -91 
Q 1263 -91 848 271 
Q 434 634 434 1313 
Q 434 1759 690 2068 
Q 947 2378 1403 2484 
z
M 1172 3481 
Q 1172 3119 1398 2916 
Q 1625 2713 2034 2713 
Q 2441 2713 2670 2916 
Q 2900 3119 2900 3481 
Q 2900 3844 2670 4047 
Q 2441 4250 2034 4250 
Q 1625 4250 1398 4047 
Q 1172 3844 1172 3481 
z
" id="DejaVuSans-38" transform="scale(0.015625)"/>
       </defs>
       <use xlink:href="#DejaVuSans-32"/>
       <use x="63.623047" xlink:href="#DejaVuSans-32"/>
       <use x="127.246094" xlink:href="#DejaVuSans-2e"/>
       <use x="159.033203" xlink:href="#DejaVuSans-30"/>
       <use x="222.65625" xlink:href="#DejaVuSans-38"/>
       <use x="286.279297" xlink:href="#DejaVuSans-2e"/>
       <use x="318.066406" xlink:href="#DejaVuSans-32"/>
       <use x="381.689453" xlink:href="#DejaVuSans-30"/>
       <use x="445.3125" xlink:href="#DejaVuSans-32"/>
       <use x="508.935547" xlink:href="#DejaVuSans-30"/>
      </g>
     </g>
    </g>
    <g id="xtick_8">
     <g id="line2d_15">
      <path clip-path="url(#pc8eadd1d8f)" d="M 464.869451 637.286013 
L 464.869451 29.118125 
" style="fill:none;stroke:#cccccc;stroke-linecap:round;"/>
     </g>
     <g id="line2d_16">
      <g>
       <use style="fill:#262626;stroke:#262626;stroke-width:1.25;" x="464.869451" xlink:href="#m3e4284cfe8" y="637.286013"/>
      </g>
     </g>
     <g id="text_8">
      <!-- 19.09.2020 -->
      <g style="fill:#262626;" transform="translate(418.716923 697.231121)rotate(-45)scale(0.11 -0.11)">
       <defs>
        <path d="M 794 531 
L 1825 531 
L 1825 4091 
L 703 3866 
L 703 4441 
L 1819 4666 
L 2450 4666 
L 2450 531 
L 3481 531 
L 3481 0 
L 794 0 
L 794 531 
z
" id="DejaVuSans-31" transform="scale(0.015625)"/>
        <path d="M 703 97 
L 703 672 
Q 941 559 1184 500 
Q 1428 441 1663 441 
Q 2288 441 2617 861 
Q 2947 1281 2994 2138 
Q 2813 1869 2534 1725 
Q 2256 1581 1919 1581 
Q 1219 1581 811 2004 
Q 403 2428 403 3163 
Q 403 3881 828 4315 
Q 1253 4750 1959 4750 
Q 2769 4750 3195 4129 
Q 3622 3509 3622 2328 
Q 3622 1225 3098 567 
Q 2575 -91 1691 -91 
Q 1453 -91 1209 -44 
Q 966 3 703 97 
z
M 1959 2075 
Q 2384 2075 2632 2365 
Q 2881 2656 2881 3163 
Q 2881 3666 2632 3958 
Q 2384 4250 1959 4250 
Q 1534 4250 1286 3958 
Q 1038 3666 1038 3163 
Q 1038 2656 1286 2365 
Q 1534 2075 1959 2075 
z
" id="DejaVuSans-39" transform="scale(0.015625)"/>
       </defs>
       <use xlink:href="#DejaVuSans-31"/>
       <use x="63.623047" xlink:href="#DejaVuSans-39"/>
       <use x="127.246094" xlink:href="#DejaVuSans-2e"/>
       <use x="159.033203" xlink:href="#DejaVuSans-30"/>
       <use x="222.65625" xlink:href="#DejaVuSans-39"/>
       <use x="286.279297" xlink:href="#DejaVuSans-2e"/>
       <use x="318.066406" xlink:href="#DejaVuSans-32"/>
       <use x="381.689453" xlink:href="#DejaVuSans-30"/>
       <use x="445.3125" xlink:href="#DejaVuSans-32"/>
       <use x="508.935547" xlink:href="#DejaVuSans-30"/>
      </g>
     </g>
    </g>
    <g id="xtick_9">
     <g id="line2d_17">
      <path clip-path="url(#pc8eadd1d8f)" d="M 514.138948 637.286013 
L 514.138948 29.118125 
" style="fill:none;stroke:#cccccc;stroke-linecap:round;"/>
     </g>
     <g id="line2d_18">
      <g>
       <use style="fill:#262626;stroke:#262626;stroke-width:1.25;" x="514.138948" xlink:href="#m3e4284cfe8" y="637.286013"/>
      </g>
     </g>
     <g id="text_9">
      <!-- 17.10.2020 -->
      <g style="fill:#262626;" transform="translate(467.986419 697.231121)rotate(-45)scale(0.11 -0.11)">
       <use xlink:href="#DejaVuSans-31"/>
       <use x="63.623047" xlink:href="#DejaVuSans-37"/>
       <use x="127.246094" xlink:href="#DejaVuSans-2e"/>
       <use x="159.033203" xlink:href="#DejaVuSans-31"/>
       <use x="222.65625" xlink:href="#DejaVuSans-30"/>
       <use x="286.279297" xlink:href="#DejaVuSans-2e"/>
       <use x="318.066406" xlink:href="#DejaVuSans-32"/>
       <use x="381.689453" xlink:href="#DejaVuSans-30"/>
       <use x="445.3125" xlink:href="#DejaVuSans-32"/>
       <use x="508.935547" xlink:href="#DejaVuSans-30"/>
      </g>
     </g>
    </g>
    <g id="xtick_10">
     <g id="line2d_19">
      <path clip-path="url(#pc8eadd1d8f)" d="M 563.408444 637.286013 
L 563.408444 29.118125 
" style="fill:none;stroke:#cccccc;stroke-linecap:round;"/>
     </g>
     <g id="line2d_20">
      <g>
       <use style="fill:#262626;stroke:#262626;stroke-width:1.25;" x="563.408444" xlink:href="#m3e4284cfe8" y="637.286013"/>
      </g>
     </g>
     <g id="text_10">
      <!-- 14.11.2020 -->
      <g style="fill:#262626;" transform="translate(517.255916 697.231121)rotate(-45)scale(0.11 -0.11)">
       <use xlink:href="#DejaVuSans-31"/>
       <use x="63.623047" xlink:href="#DejaVuSans-34"/>
       <use x="127.246094" xlink:href="#DejaVuSans-2e"/>
       <use x="159.033203" xlink:href="#DejaVuSans-31"/>
       <use x="222.65625" xlink:href="#DejaVuSans-31"/>
       <use x="286.279297" xlink:href="#DejaVuSans-2e"/>
       <use x="318.066406" xlink:href="#DejaVuSans-32"/>
       <use x="381.689453" xlink:href="#DejaVuSans-30"/>
       <use x="445.3125" xlink:href="#DejaVuSans-32"/>
       <use x="508.935547" xlink:href="#DejaVuSans-30"/>
      </g>
     </g>
    </g>
    <g id="xtick_11">
     <g id="line2d_21">
      <path clip-path="url(#pc8eadd1d8f)" d="M 612.67794 637.286013 
L 612.67794 29.118125 
" style="fill:none;stroke:#cccccc;stroke-linecap:round;"/>
     </g>
     <g id="line2d_22">
      <g>
       <use style="fill:#262626;stroke:#262626;stroke-width:1.25;" x="612.67794" xlink:href="#m3e4284cfe8" y="637.286013"/>
      </g>
     </g>
     <g id="text_11">
      <!-- 12.12.2020 -->
      <g style="fill:#262626;" transform="translate(566.525412 697.231121)rotate(-45)scale(0.11 -0.11)">
       <use xlink:href="#DejaVuSans-31"/>
       <use x="63.623047" xlink:href="#DejaVuSans-32"/>
       <use x="127.246094" xlink:href="#DejaVuSans-2e"/>
       <use x="159.033203" xlink:href="#DejaVuSans-31"/>
       <use x="222.65625" xlink:href="#DejaVuSans-32"/>
       <use x="286.279297" xlink:href="#DejaVuSans-2e"/>
       <use x="318.066406" xlink:href="#DejaVuSans-32"/>
       <use x="381.689453" xlink:href="#DejaVuSans-30"/>
       <use x="445.3125" xlink:href="#DejaVuSans-32"/>
       <use x="508.935547" xlink:href="#DejaVuSans-30"/>
      </g>
     </g>
    </g>
    <g id="xtick_12">
     <g id="line2d_23">
      <path clip-path="url(#pc8eadd1d8f)" d="M 661.947437 637.286013 
L 661.947437 29.118125 
" style="fill:none;stroke:#cccccc;stroke-linecap:round;"/>
     </g>
     <g id="line2d_24">
      <g>
       <use style="fill:#262626;stroke:#262626;stroke-width:1.25;" x="661.947437" xlink:href="#m3e4284cfe8" y="637.286013"/>
      </g>
     </g>
     <g id="text_12">
      <!-- 09.01.2021 -->
      <g style="fill:#262626;" transform="translate(615.794908 697.231121)rotate(-45)scale(0.11 -0.11)">
       <use xlink:href="#DejaVuSans-30"/>
       <use x="63.623047" xlink:href="#DejaVuSans-39"/>
       <use x="127.246094" xlink:href="#DejaVuSans-2e"/>
       <use x="159.033203" xlink:href="#DejaVuSans-30"/>
       <use x="222.65625" xlink:href="#DejaVuSans-31"/>
       <use x="286.279297" xlink:href="#DejaVuSans-2e"/>
       <use x="318.066406" xlink:href="#DejaVuSans-32"/>
       <use x="381.689453" xlink:href="#DejaVuSans-30"/>
       <use x="445.3125" xlink:href="#DejaVuSans-32"/>
       <use x="508.935547" xlink:href="#DejaVuSans-31"/>
      </g>
     </g>
    </g>
    <g id="xtick_13">
     <g id="line2d_25">
      <path clip-path="url(#pc8eadd1d8f)" d="M 711.216933 637.286013 
L 711.216933 29.118125 
" style="fill:none;stroke:#cccccc;stroke-linecap:round;"/>
     </g>
     <g id="line2d_26">
      <g>
       <use style="fill:#262626;stroke:#262626;stroke-width:1.25;" x="711.216933" xlink:href="#m3e4284cfe8" y="637.286013"/>
      </g>
     </g>
     <g id="text_13">
      <!-- 06.02.2021 -->
      <g style="fill:#262626;" transform="translate(665.064405 697.231121)rotate(-45)scale(0.11 -0.11)">
       <use xlink:href="#DejaVuSans-30"/>
       <use x="63.623047" xlink:href="#DejaVuSans-36"/>
       <use x="127.246094" xlink:href="#DejaVuSans-2e"/>
       <use x="159.033203" xlink:href="#DejaVuSans-30"/>
       <use x="222.65625" xlink:href="#DejaVuSans-32"/>
       <use x="286.279297" xlink:href="#DejaVuSans-2e"/>
       <use x="318.066406" xlink:href="#DejaVuSans-32"/>
       <use x="381.689453" xlink:href="#DejaVuSans-30"/>
       <use x="445.3125" xlink:href="#DejaVuSans-32"/>
       <use x="508.935547" xlink:href="#DejaVuSans-31"/>
      </g>
     </g>
    </g>
    <g id="xtick_14">
     <g id="line2d_27">
      <path clip-path="url(#pc8eadd1d8f)" d="M 760.486429 637.286013 
L 760.486429 29.118125 
" style="fill:none;stroke:#cccccc;stroke-linecap:round;"/>
     </g>
     <g id="line2d_28">
      <g>
       <use style="fill:#262626;stroke:#262626;stroke-width:1.25;" x="760.486429" xlink:href="#m3e4284cfe8" y="637.286013"/>
      </g>
     </g>
     <g id="text_14">
      <!-- 06.03.2021 -->
      <g style="fill:#262626;" transform="translate(714.333901 697.231121)rotate(-45)scale(0.11 -0.11)">
       <use xlink:href="#DejaVuSans-30"/>
       <use x="63.623047" xlink:href="#DejaVuSans-36"/>
       <use x="127.246094" xlink:href="#DejaVuSans-2e"/>
       <use x="159.033203" xlink:href="#DejaVuSans-30"/>
       <use x="222.65625" xlink:href="#DejaVuSans-33"/>
       <use x="286.279297" xlink:href="#DejaVuSans-2e"/>
       <use x="318.066406" xlink:href="#DejaVuSans-32"/>
       <use x="381.689453" xlink:href="#DejaVuSans-30"/>
       <use x="445.3125" xlink:href="#DejaVuSans-32"/>
       <use x="508.935547" xlink:href="#DejaVuSans-31"/>
      </g>
     </g>
    </g>
    <g id="xtick_15">
     <g id="line2d_29">
      <path clip-path="url(#pc8eadd1d8f)" d="M 809.755925 637.286013 
L 809.755925 29.118125 
" style="fill:none;stroke:#cccccc;stroke-linecap:round;"/>
     </g>
     <g id="line2d_30">
      <g>
       <use style="fill:#262626;stroke:#262626;stroke-width:1.25;" x="809.755925" xlink:href="#m3e4284cfe8" y="637.286013"/>
      </g>
     </g>
     <g id="text_15">
      <!-- 03.04.2021 -->
      <g style="fill:#262626;" transform="translate(763.603397 697.231121)rotate(-45)scale(0.11 -0.11)">
       <use xlink:href="#DejaVuSans-30"/>
       <use x="63.623047" xlink:href="#DejaVuSans-33"/>
       <use x="127.246094" xlink:href="#DejaVuSans-2e"/>
       <use x="159.033203" xlink:href="#DejaVuSans-30"/>
       <use x="222.65625" xlink:href="#DejaVuSans-34"/>
       <use x="286.279297" xlink:href="#DejaVuSans-2e"/>
       <use x="318.066406" xlink:href="#DejaVuSans-32"/>
       <use x="381.689453" xlink:href="#DejaVuSans-30"/>
       <use x="445.3125" xlink:href="#DejaVuSans-32"/>
       <use x="508.935547" xlink:href="#DejaVuSans-31"/>
      </g>
     </g>
    </g>
    <g id="xtick_16">
     <g id="line2d_31">
      <path clip-path="url(#pc8eadd1d8f)" d="M 859.025422 637.286013 
L 859.025422 29.118125 
" style="fill:none;stroke:#cccccc;stroke-linecap:round;"/>
     </g>
     <g id="line2d_32">
      <g>
       <use style="fill:#262626;stroke:#262626;stroke-width:1.25;" x="859.025422" xlink:href="#m3e4284cfe8" y="637.286013"/>
      </g>
     </g>
     <g id="text_16">
      <!-- 01.05.2021 -->
      <g style="fill:#262626;" transform="translate(812.872894 697.231121)rotate(-45)scale(0.11 -0.11)">
       <use xlink:href="#DejaVuSans-30"/>
       <use x="63.623047" xlink:href="#DejaVuSans-31"/>
       <use x="127.246094" xlink:href="#DejaVuSans-2e"/>
       <use x="159.033203" xlink:href="#DejaVuSans-30"/>
       <use x="222.65625" xlink:href="#DejaVuSans-35"/>
       <use x="286.279297" xlink:href="#DejaVuSans-2e"/>
       <use x="318.066406" xlink:href="#DejaVuSans-32"/>
       <use x="381.689453" xlink:href="#DejaVuSans-30"/>
       <use x="445.3125" xlink:href="#DejaVuSans-32"/>
       <use x="508.935547" xlink:href="#DejaVuSans-31"/>
      </g>
     </g>
    </g>
    <g id="xtick_17">
     <g id="line2d_33">
      <path clip-path="url(#pc8eadd1d8f)" d="M 908.294918 637.286013 
L 908.294918 29.118125 
" style="fill:none;stroke:#cccccc;stroke-linecap:round;"/>
     </g>
     <g id="line2d_34">
      <g>
       <use style="fill:#262626;stroke:#262626;stroke-width:1.25;" x="908.294918" xlink:href="#m3e4284cfe8" y="637.286013"/>
      </g>
     </g>
     <g id="text_17">
      <!-- 29.05.2021 -->
      <g style="fill:#262626;" transform="translate(862.14239 697.231121)rotate(-45)scale(0.11 -0.11)">
       <use xlink:href="#DejaVuSans-32"/>
       <use x="63.623047" xlink:href="#DejaVuSans-39"/>
       <use x="127.246094" xlink:href="#DejaVuSans-2e"/>
       <use x="159.033203" xlink:href="#DejaVuSans-30"/>
       <use x="222.65625" xlink:href="#DejaVuSans-35"/>
       <use x="286.279297" xlink:href="#DejaVuSans-2e"/>
       <use x="318.066406" xlink:href="#DejaVuSans-32"/>
       <use x="381.689453" xlink:href="#DejaVuSans-30"/>
       <use x="445.3125" xlink:href="#DejaVuSans-32"/>
       <use x="508.935547" xlink:href="#DejaVuSans-31"/>
      </g>
     </g>
    </g>
    <g id="xtick_18">
     <g id="line2d_35">
      <path clip-path="url(#pc8eadd1d8f)" d="M 957.564414 637.286013 
L 957.564414 29.118125 
" style="fill:none;stroke:#cccccc;stroke-linecap:round;"/>
     </g>
     <g id="line2d_36">
      <g>
       <use style="fill:#262626;stroke:#262626;stroke-width:1.25;" x="957.564414" xlink:href="#m3e4284cfe8" y="637.286013"/>
      </g>
     </g>
     <g id="text_18">
      <!-- 26.06.2021 -->
      <g style="fill:#262626;" transform="translate(911.411886 697.231121)rotate(-45)scale(0.11 -0.11)">
       <use xlink:href="#DejaVuSans-32"/>
       <use x="63.623047" xlink:href="#DejaVuSans-36"/>
       <use x="127.246094" xlink:href="#DejaVuSans-2e"/>
       <use x="159.033203" xlink:href="#DejaVuSans-30"/>
       <use x="222.65625" xlink:href="#DejaVuSans-36"/>
       <use x="286.279297" xlink:href="#DejaVuSans-2e"/>
       <use x="318.066406" xlink:href="#DejaVuSans-32"/>
       <use x="381.689453" xlink:href="#DejaVuSans-30"/>
       <use x="445.3125" xlink:href="#DejaVuSans-32"/>
       <use x="508.935547" xlink:href="#DejaVuSans-31"/>
      </g>
     </g>
    </g>
    <g id="xtick_19">
     <g id="line2d_37">
      <path clip-path="url(#pc8eadd1d8f)" d="M 1006.833911 637.286013 
L 1006.833911 29.118125 
" style="fill:none;stroke:#cccccc;stroke-linecap:round;"/>
     </g>
     <g id="line2d_38">
      <g>
       <use style="fill:#262626;stroke:#262626;stroke-width:1.25;" x="1006.833911" xlink:href="#m3e4284cfe8" y="637.286013"/>
      </g>
     </g>
     <g id="text_19">
      <!-- 24.07.2021 -->
      <g style="fill:#262626;" transform="translate(960.681382 697.231121)rotate(-45)scale(0.11 -0.11)">
       <use xlink:href="#DejaVuSans-32"/>
       <use x="63.623047" xlink:href="#DejaVuSans-34"/>
       <use x="127.246094" xlink:href="#DejaVuSans-2e"/>
       <use x="159.033203" xlink:href="#DejaVuSans-30"/>
       <use x="222.65625" xlink:href="#DejaVuSans-37"/>
       <use x="286.279297" xlink:href="#DejaVuSans-2e"/>
       <use x="318.066406" xlink:href="#DejaVuSans-32"/>
       <use x="381.689453" xlink:href="#DejaVuSans-30"/>
       <use x="445.3125" xlink:href="#DejaVuSans-32"/>
       <use x="508.935547" xlink:href="#DejaVuSans-31"/>
      </g>
     </g>
    </g>
    <g id="xtick_20">
     <g id="line2d_39">
      <path clip-path="url(#pc8eadd1d8f)" d="M 1056.103407 637.286013 
L 1056.103407 29.118125 
" style="fill:none;stroke:#cccccc;stroke-linecap:round;"/>
     </g>
     <g id="line2d_40">
      <g>
       <use style="fill:#262626;stroke:#262626;stroke-width:1.25;" x="1056.103407" xlink:href="#m3e4284cfe8" y="637.286013"/>
      </g>
     </g>
     <g id="text_20">
      <!-- 21.08.2021 -->
      <g style="fill:#262626;" transform="translate(1009.950879 697.231121)rotate(-45)scale(0.11 -0.11)">
       <use xlink:href="#DejaVuSans-32"/>
       <use x="63.623047" xlink:href="#DejaVuSans-31"/>
       <use x="127.246094" xlink:href="#DejaVuSans-2e"/>
       <use x="159.033203" xlink:href="#DejaVuSans-30"/>
       <use x="222.65625" xlink:href="#DejaVuSans-38"/>
       <use x="286.279297" xlink:href="#DejaVuSans-2e"/>
       <use x="318.066406" xlink:href="#DejaVuSans-32"/>
       <use x="381.689453" xlink:href="#DejaVuSans-30"/>
       <use x="445.3125" xlink:href="#DejaVuSans-32"/>
       <use x="508.935547" xlink:href="#DejaVuSans-31"/>
      </g>
     </g>
    </g>
    <g id="xtick_21">
     <g id="line2d_41">
      <path clip-path="url(#pc8eadd1d8f)" d="M 1105.372903 637.286013 
L 1105.372903 29.118125 
" style="fill:none;stroke:#cccccc;stroke-linecap:round;"/>
     </g>
     <g id="line2d_42">
      <g>
       <use style="fill:#262626;stroke:#262626;stroke-width:1.25;" x="1105.372903" xlink:href="#m3e4284cfe8" y="637.286013"/>
      </g>
     </g>
     <g id="text_21">
      <!-- 18.09.2021 -->
      <g style="fill:#262626;" transform="translate(1059.220375 697.231121)rotate(-45)scale(0.11 -0.11)">
       <use xlink:href="#DejaVuSans-31"/>
       <use x="63.623047" xlink:href="#DejaVuSans-38"/>
       <use x="127.246094" xlink:href="#DejaVuSans-2e"/>
       <use x="159.033203" xlink:href="#DejaVuSans-30"/>
       <use x="222.65625" xlink:href="#DejaVuSans-39"/>
       <use x="286.279297" xlink:href="#DejaVuSans-2e"/>
       <use x="318.066406" xlink:href="#DejaVuSans-32"/>
       <use x="381.689453" xlink:href="#DejaVuSans-30"/>
       <use x="445.3125" xlink:href="#DejaVuSans-32"/>
       <use x="508.935547" xlink:href="#DejaVuSans-31"/>
      </g>
     </g>
    </g>
    <g id="xtick_22">
     <g id="line2d_43">
      <path clip-path="url(#pc8eadd1d8f)" d="M 1154.642399 637.286013 
L 1154.642399 29.118125 
" style="fill:none;stroke:#cccccc;stroke-linecap:round;"/>
     </g>
     <g id="line2d_44">
      <g>
       <use style="fill:#262626;stroke:#262626;stroke-width:1.25;" x="1154.642399" xlink:href="#m3e4284cfe8" y="637.286013"/>
      </g>
     </g>
     <g id="text_22">
      <!-- 16.10.2021 -->
      <g style="fill:#262626;" transform="translate(1108.489871 697.231121)rotate(-45)scale(0.11 -0.11)">
       <use xlink:href="#DejaVuSans-31"/>
       <use x="63.623047" xlink:href="#DejaVuSans-36"/>
       <use x="127.246094" xlink:href="#DejaVuSans-2e"/>
       <use x="159.033203" xlink:href="#DejaVuSans-31"/>
       <use x="222.65625" xlink:href="#DejaVuSans-30"/>
       <use x="286.279297" xlink:href="#DejaVuSans-2e"/>
       <use x="318.066406" xlink:href="#DejaVuSans-32"/>
       <use x="381.689453" xlink:href="#DejaVuSans-30"/>
       <use x="445.3125" xlink:href="#DejaVuSans-32"/>
       <use x="508.935547" xlink:href="#DejaVuSans-31"/>
      </g>
     </g>
    </g>
    <g id="xtick_23">
     <g id="line2d_45">
      <defs>
       <path d="M 0 0 
L 0 4 
" id="mefc0daf883" style="stroke:#262626;"/>
      </defs>
      <g>
       <use style="fill:#262626;stroke:#262626;" x="70.713481" xlink:href="#mefc0daf883" y="637.286013"/>
      </g>
     </g>
    </g>
    <g id="xtick_24">
     <g id="line2d_46">
      <g>
       <use style="fill:#262626;stroke:#262626;" x="83.030855" xlink:href="#mefc0daf883" y="637.286013"/>
      </g>
     </g>
    </g>
    <g id="xtick_25">
     <g id="line2d_47">
      <g>
       <use style="fill:#262626;stroke:#262626;" x="95.348229" xlink:href="#mefc0daf883" y="637.286013"/>
      </g>
     </g>
    </g>
    <g id="xtick_26">
     <g id="line2d_48">
      <g>
       <use style="fill:#262626;stroke:#262626;" x="107.665603" xlink:href="#mefc0daf883" y="637.286013"/>
      </g>
     </g>
    </g>
    <g id="xtick_27">
     <g id="line2d_49">
      <g>
       <use style="fill:#262626;stroke:#262626;" x="132.300351" xlink:href="#mefc0daf883" y="637.286013"/>
      </g>
     </g>
    </g>
    <g id="xtick_28">
     <g id="line2d_50">
      <g>
       <use style="fill:#262626;stroke:#262626;" x="144.617725" xlink:href="#mefc0daf883" y="637.286013"/>
      </g>
     </g>
    </g>
    <g id="xtick_29">
     <g id="line2d_51">
      <g>
       <use style="fill:#262626;stroke:#262626;" x="156.935099" xlink:href="#mefc0daf883" y="637.286013"/>
      </g>
     </g>
    </g>
    <g id="xtick_30">
     <g id="line2d_52">
      <g>
       <use style="fill:#262626;stroke:#262626;" x="181.569848" xlink:href="#mefc0daf883" y="637.286013"/>
      </g>
     </g>
    </g>
    <g id="xtick_31">
     <g id="line2d_53">
      <g>
       <use style="fill:#262626;stroke:#262626;" x="193.887222" xlink:href="#mefc0daf883" y="637.286013"/>
      </g>
     </g>
    </g>
    <g id="xtick_32">
     <g id="line2d_54">
      <g>
       <use style="fill:#262626;stroke:#262626;" x="206.204596" xlink:href="#mefc0daf883" y="637.286013"/>
      </g>
     </g>
    </g>
    <g id="xtick_33">
     <g id="line2d_55">
      <g>
       <use style="fill:#262626;stroke:#262626;" x="230.839344" xlink:href="#mefc0daf883" y="637.286013"/>
      </g>
     </g>
    </g>
    <g id="xtick_34">
     <g id="line2d_56">
      <g>
       <use style="fill:#262626;stroke:#262626;" x="243.156718" xlink:href="#mefc0daf883" y="637.286013"/>
      </g>
     </g>
    </g>
    <g id="xtick_35">
     <g id="line2d_57">
      <g>
       <use style="fill:#262626;stroke:#262626;" x="255.474092" xlink:href="#mefc0daf883" y="637.286013"/>
      </g>
     </g>
    </g>
    <g id="xtick_36">
     <g id="line2d_58">
      <g>
       <use style="fill:#262626;stroke:#262626;" x="280.10884" xlink:href="#mefc0daf883" y="637.286013"/>
      </g>
     </g>
    </g>
    <g id="xtick_37">
     <g id="line2d_59">
      <g>
       <use style="fill:#262626;stroke:#262626;" x="292.426214" xlink:href="#mefc0daf883" y="637.286013"/>
      </g>
     </g>
    </g>
    <g id="xtick_38">
     <g id="line2d_60">
      <g>
       <use style="fill:#262626;stroke:#262626;" x="304.743588" xlink:href="#mefc0daf883" y="637.286013"/>
      </g>
     </g>
    </g>
    <g id="xtick_39">
     <g id="line2d_61">
      <g>
       <use style="fill:#262626;stroke:#262626;" x="329.378337" xlink:href="#mefc0daf883" y="637.286013"/>
      </g>
     </g>
    </g>
    <g id="xtick_40">
     <g id="line2d_62">
      <g>
       <use style="fill:#262626;stroke:#262626;" x="341.695711" xlink:href="#mefc0daf883" y="637.286013"/>
      </g>
     </g>
    </g>
    <g id="xtick_41">
     <g id="line2d_63">
      <g>
       <use style="fill:#262626;stroke:#262626;" x="354.013085" xlink:href="#mefc0daf883" y="637.286013"/>
      </g>
     </g>
    </g>
    <g id="xtick_42">
     <g id="line2d_64">
      <g>
       <use style="fill:#262626;stroke:#262626;" x="378.647833" xlink:href="#mefc0daf883" y="637.286013"/>
      </g>
     </g>
    </g>
    <g id="xtick_43">
     <g id="line2d_65">
      <g>
       <use style="fill:#262626;stroke:#262626;" x="390.965207" xlink:href="#mefc0daf883" y="637.286013"/>
      </g>
     </g>
    </g>
    <g id="xtick_44">
     <g id="line2d_66">
      <g>
       <use style="fill:#262626;stroke:#262626;" x="403.282581" xlink:href="#mefc0daf883" y="637.286013"/>
      </g>
     </g>
    </g>
    <g id="xtick_45">
     <g id="line2d_67">
      <g>
       <use style="fill:#262626;stroke:#262626;" x="427.917329" xlink:href="#mefc0daf883" y="637.286013"/>
      </g>
     </g>
    </g>
    <g id="xtick_46">
     <g id="line2d_68">
      <g>
       <use style="fill:#262626;stroke:#262626;" x="440.234703" xlink:href="#mefc0daf883" y="637.286013"/>
      </g>
     </g>
    </g>
    <g id="xtick_47">
     <g id="line2d_69">
      <g>
       <use style="fill:#262626;stroke:#262626;" x="452.552077" xlink:href="#mefc0daf883" y="637.286013"/>
      </g>
     </g>
    </g>
    <g id="xtick_48">
     <g id="line2d_70">
      <g>
       <use style="fill:#262626;stroke:#262626;" x="477.186825" xlink:href="#mefc0daf883" y="637.286013"/>
      </g>
     </g>
    </g>
    <g id="xtick_49">
     <g id="line2d_71">
      <g>
       <use style="fill:#262626;stroke:#262626;" x="489.504199" xlink:href="#mefc0daf883" y="637.286013"/>
      </g>
     </g>
    </g>
    <g id="xtick_50">
     <g id="line2d_72">
      <g>
       <use style="fill:#262626;stroke:#262626;" x="501.821574" xlink:href="#mefc0daf883" y="637.286013"/>
      </g>
     </g>
    </g>
    <g id="xtick_51">
     <g id="line2d_73">
      <g>
       <use style="fill:#262626;stroke:#262626;" x="526.456322" xlink:href="#mefc0daf883" y="637.286013"/>
      </g>
     </g>
    </g>
    <g id="xtick_52">
     <g id="line2d_74">
      <g>
       <use style="fill:#262626;stroke:#262626;" x="538.773696" xlink:href="#mefc0daf883" y="637.286013"/>
      </g>
     </g>
    </g>
    <g id="xtick_53">
     <g id="line2d_75">
      <g>
       <use style="fill:#262626;stroke:#262626;" x="551.09107" xlink:href="#mefc0daf883" y="637.286013"/>
      </g>
     </g>
    </g>
    <g id="xtick_54">
     <g id="line2d_76">
      <g>
       <use style="fill:#262626;stroke:#262626;" x="575.725818" xlink:href="#mefc0daf883" y="637.286013"/>
      </g>
     </g>
    </g>
    <g id="xtick_55">
     <g id="line2d_77">
      <g>
       <use style="fill:#262626;stroke:#262626;" x="588.043192" xlink:href="#mefc0daf883" y="637.286013"/>
      </g>
     </g>
    </g>
    <g id="xtick_56">
     <g id="line2d_78">
      <g>
       <use style="fill:#262626;stroke:#262626;" x="600.360566" xlink:href="#mefc0daf883" y="637.286013"/>
      </g>
     </g>
    </g>
    <g id="xtick_57">
     <g id="line2d_79">
      <g>
       <use style="fill:#262626;stroke:#262626;" x="624.995314" xlink:href="#mefc0daf883" y="637.286013"/>
      </g>
     </g>
    </g>
    <g id="xtick_58">
     <g id="line2d_80">
      <g>
       <use style="fill:#262626;stroke:#262626;" x="637.312688" xlink:href="#mefc0daf883" y="637.286013"/>
      </g>
     </g>
    </g>
    <g id="xtick_59">
     <g id="line2d_81">
      <g>
       <use style="fill:#262626;stroke:#262626;" x="649.630062" xlink:href="#mefc0daf883" y="637.286013"/>
      </g>
     </g>
    </g>
    <g id="xtick_60">
     <g id="line2d_82">
      <g>
       <use style="fill:#262626;stroke:#262626;" x="674.264811" xlink:href="#mefc0daf883" y="637.286013"/>
      </g>
     </g>
    </g>
    <g id="xtick_61">
     <g id="line2d_83">
      <g>
       <use style="fill:#262626;stroke:#262626;" x="686.582185" xlink:href="#mefc0daf883" y="637.286013"/>
      </g>
     </g>
    </g>
    <g id="xtick_62">
     <g id="line2d_84">
      <g>
       <use style="fill:#262626;stroke:#262626;" x="698.899559" xlink:href="#mefc0daf883" y="637.286013"/>
      </g>
     </g>
    </g>
    <g id="xtick_63">
     <g id="line2d_85">
      <g>
       <use style="fill:#262626;stroke:#262626;" x="723.534307" xlink:href="#mefc0daf883" y="637.286013"/>
      </g>
     </g>
    </g>
    <g id="xtick_64">
     <g id="line2d_86">
      <g>
       <use style="fill:#262626;stroke:#262626;" x="735.851681" xlink:href="#mefc0daf883" y="637.286013"/>
      </g>
     </g>
    </g>
    <g id="xtick_65">
     <g id="line2d_87">
      <g>
       <use style="fill:#262626;stroke:#262626;" x="748.169055" xlink:href="#mefc0daf883" y="637.286013"/>
      </g>
     </g>
    </g>
    <g id="xtick_66">
     <g id="line2d_88">
      <g>
       <use style="fill:#262626;stroke:#262626;" x="772.803803" xlink:href="#mefc0daf883" y="637.286013"/>
      </g>
     </g>
    </g>
    <g id="xtick_67">
     <g id="line2d_89">
      <g>
       <use style="fill:#262626;stroke:#262626;" x="785.121177" xlink:href="#mefc0daf883" y="637.286013"/>
      </g>
     </g>
    </g>
    <g id="xtick_68">
     <g id="line2d_90">
      <g>
       <use style="fill:#262626;stroke:#262626;" x="797.438551" xlink:href="#mefc0daf883" y="637.286013"/>
      </g>
     </g>
    </g>
    <g id="xtick_69">
     <g id="line2d_91">
      <g>
       <use style="fill:#262626;stroke:#262626;" x="822.073299" xlink:href="#mefc0daf883" y="637.286013"/>
      </g>
     </g>
    </g>
    <g id="xtick_70">
     <g id="line2d_92">
      <g>
       <use style="fill:#262626;stroke:#262626;" x="834.390674" xlink:href="#mefc0daf883" y="637.286013"/>
      </g>
     </g>
    </g>
    <g id="xtick_71">
     <g id="line2d_93">
      <g>
       <use style="fill:#262626;stroke:#262626;" x="846.708048" xlink:href="#mefc0daf883" y="637.286013"/>
      </g>
     </g>
    </g>
    <g id="xtick_72">
     <g id="line2d_94">
      <g>
       <use style="fill:#262626;stroke:#262626;" x="871.342796" xlink:href="#mefc0daf883" y="637.286013"/>
      </g>
     </g>
    </g>
    <g id="xtick_73">
     <g id="line2d_95">
      <g>
       <use style="fill:#262626;stroke:#262626;" x="883.66017" xlink:href="#mefc0daf883" y="637.286013"/>
      </g>
     </g>
    </g>
    <g id="xtick_74">
     <g id="line2d_96">
      <g>
       <use style="fill:#262626;stroke:#262626;" x="895.977544" xlink:href="#mefc0daf883" y="637.286013"/>
      </g>
     </g>
    </g>
    <g id="xtick_75">
     <g id="line2d_97">
      <g>
       <use style="fill:#262626;stroke:#262626;" x="920.612292" xlink:href="#mefc0daf883" y="637.286013"/>
      </g>
     </g>
    </g>
    <g id="xtick_76">
     <g id="line2d_98">
      <g>
       <use style="fill:#262626;stroke:#262626;" x="932.929666" xlink:href="#mefc0daf883" y="637.286013"/>
      </g>
     </g>
    </g>
    <g id="xtick_77">
     <g id="line2d_99">
      <g>
       <use style="fill:#262626;stroke:#262626;" x="945.24704" xlink:href="#mefc0daf883" y="637.286013"/>
      </g>
     </g>
    </g>
    <g id="xtick_78">
     <g id="line2d_100">
      <g>
       <use style="fill:#262626;stroke:#262626;" x="969.881788" xlink:href="#mefc0daf883" y="637.286013"/>
      </g>
     </g>
    </g>
    <g id="xtick_79">
     <g id="line2d_101">
      <g>
       <use style="fill:#262626;stroke:#262626;" x="982.199162" xlink:href="#mefc0daf883" y="637.286013"/>
      </g>
     </g>
    </g>
    <g id="xtick_80">
     <g id="line2d_102">
      <g>
       <use style="fill:#262626;stroke:#262626;" x="994.516536" xlink:href="#mefc0daf883" y="637.286013"/>
      </g>
     </g>
    </g>
    <g id="xtick_81">
     <g id="line2d_103">
      <g>
       <use style="fill:#262626;stroke:#262626;" x="1019.151285" xlink:href="#mefc0daf883" y="637.286013"/>
      </g>
     </g>
    </g>
    <g id="xtick_82">
     <g id="line2d_104">
      <g>
       <use style="fill:#262626;stroke:#262626;" x="1031.468659" xlink:href="#mefc0daf883" y="637.286013"/>
      </g>
     </g>
    </g>
    <g id="xtick_83">
     <g id="line2d_105">
      <g>
       <use style="fill:#262626;stroke:#262626;" x="1043.786033" xlink:href="#mefc0daf883" y="637.286013"/>
      </g>
     </g>
    </g>
    <g id="xtick_84">
     <g id="line2d_106">
      <g>
       <use style="fill:#262626;stroke:#262626;" x="1068.420781" xlink:href="#mefc0daf883" y="637.286013"/>
      </g>
     </g>
    </g>
    <g id="xtick_85">
     <g id="line2d_107">
      <g>
       <use style="fill:#262626;stroke:#262626;" x="1080.738155" xlink:href="#mefc0daf883" y="637.286013"/>
      </g>
     </g>
    </g>
    <g id="xtick_86">
     <g id="line2d_108">
      <g>
       <use style="fill:#262626;stroke:#262626;" x="1093.055529" xlink:href="#mefc0daf883" y="637.286013"/>
      </g>
     </g>
    </g>
    <g id="xtick_87">
     <g id="line2d_109">
      <g>
       <use style="fill:#262626;stroke:#262626;" x="1117.690277" xlink:href="#mefc0daf883" y="637.286013"/>
      </g>
     </g>
    </g>
    <g id="xtick_88">
     <g id="line2d_110">
      <g>
       <use style="fill:#262626;stroke:#262626;" x="1130.007651" xlink:href="#mefc0daf883" y="637.286013"/>
      </g>
     </g>
    </g>
    <g id="xtick_89">
     <g id="line2d_111">
      <g>
       <use style="fill:#262626;stroke:#262626;" x="1142.325025" xlink:href="#mefc0daf883" y="637.286013"/>
      </g>
     </g>
    </g>
    <g id="xtick_90">
     <g id="line2d_112">
      <g>
       <use style="fill:#262626;stroke:#262626;" x="1166.959774" xlink:href="#mefc0daf883" y="637.286013"/>
      </g>
     </g>
    </g>
    <g id="xtick_91">
     <g id="line2d_113">
      <g>
       <use style="fill:#262626;stroke:#262626;" x="1179.277148" xlink:href="#mefc0daf883" y="637.286013"/>
      </g>
     </g>
    </g>
    <g id="xtick_92">
     <g id="line2d_114">
      <g>
       <use style="fill:#262626;stroke:#262626;" x="1191.594522" xlink:href="#mefc0daf883" y="637.286013"/>
      </g>
     </g>
    </g>
    <g id="xtick_93">
     <g id="line2d_115">
      <g>
       <use style="fill:#262626;stroke:#262626;" x="1203.911896" xlink:href="#mefc0daf883" y="637.286013"/>
      </g>
     </g>
    </g>
    <g id="xtick_94">
     <g id="line2d_116">
      <g>
       <use style="fill:#262626;stroke:#262626;" x="1216.22927" xlink:href="#mefc0daf883" y="637.286013"/>
      </g>
     </g>
    </g>
    <g id="xtick_95">
     <g id="line2d_117">
      <g>
       <use style="fill:#262626;stroke:#262626;" x="1228.546644" xlink:href="#mefc0daf883" y="637.286013"/>
      </g>
     </g>
    </g>
    <g id="text_23">
     <!-- Date -->
     <g style="fill:#262626;" transform="translate(634.409312 711.966863)scale(0.12 -0.12)">
      <defs>
       <path d="M 1259 4147 
L 1259 519 
L 2022 519 
Q 2988 519 3436 956 
Q 3884 1394 3884 2338 
Q 3884 3275 3436 3711 
Q 2988 4147 2022 4147 
L 1259 4147 
z
M 628 4666 
L 1925 4666 
Q 3281 4666 3915 4102 
Q 4550 3538 4550 2338 
Q 4550 1131 3912 565 
Q 3275 0 1925 0 
L 628 0 
L 628 4666 
z
" id="DejaVuSans-44" transform="scale(0.015625)"/>
       <path d="M 2194 1759 
Q 1497 1759 1228 1600 
Q 959 1441 959 1056 
Q 959 750 1161 570 
Q 1363 391 1709 391 
Q 2188 391 2477 730 
Q 2766 1069 2766 1631 
L 2766 1759 
L 2194 1759 
z
M 3341 1997 
L 3341 0 
L 2766 0 
L 2766 531 
Q 2569 213 2275 61 
Q 1981 -91 1556 -91 
Q 1019 -91 701 211 
Q 384 513 384 1019 
Q 384 1609 779 1909 
Q 1175 2209 1959 2209 
L 2766 2209 
L 2766 2266 
Q 2766 2663 2505 2880 
Q 2244 3097 1772 3097 
Q 1472 3097 1187 3025 
Q 903 2953 641 2809 
L 641 3341 
Q 956 3463 1253 3523 
Q 1550 3584 1831 3584 
Q 2591 3584 2966 3190 
Q 3341 2797 3341 1997 
z
" id="DejaVuSans-61" transform="scale(0.015625)"/>
       <path d="M 1172 4494 
L 1172 3500 
L 2356 3500 
L 2356 3053 
L 1172 3053 
L 1172 1153 
Q 1172 725 1289 603 
Q 1406 481 1766 481 
L 2356 481 
L 2356 0 
L 1766 0 
Q 1100 0 847 248 
Q 594 497 594 1153 
L 594 3053 
L 172 3053 
L 172 3500 
L 594 3500 
L 594 4494 
L 1172 4494 
z
" id="DejaVuSans-74" transform="scale(0.015625)"/>
       <path d="M 3597 1894 
L 3597 1613 
L 953 1613 
Q 991 1019 1311 708 
Q 1631 397 2203 397 
Q 2534 397 2845 478 
Q 3156 559 3463 722 
L 3463 178 
Q 3153 47 2828 -22 
Q 2503 -91 2169 -91 
Q 1331 -91 842 396 
Q 353 884 353 1716 
Q 353 2575 817 3079 
Q 1281 3584 2069 3584 
Q 2775 3584 3186 3129 
Q 3597 2675 3597 1894 
z
M 3022 2063 
Q 3016 2534 2758 2815 
Q 2500 3097 2075 3097 
Q 1594 3097 1305 2825 
Q 1016 2553 972 2059 
L 3022 2063 
z
" id="DejaVuSans-65" transform="scale(0.015625)"/>
      </defs>
      <use xlink:href="#DejaVuSans-44"/>
      <use x="77.001953" xlink:href="#DejaVuSans-61"/>
      <use x="138.28125" xlink:href="#DejaVuSans-74"/>
      <use x="177.490234" xlink:href="#DejaVuSans-65"/>
     </g>
    </g>
   </g>
   <g id="matplotlib.axis_2">
    <g id="ytick_1">
     <g id="line2d_118">
      <path clip-path="url(#pc8eadd1d8f)" d="M 67.10625 609.642018 
L 1230.39425 609.642018 
" style="fill:none;stroke:#cccccc;stroke-linecap:round;"/>
     </g>
     <g id="line2d_119">
      <defs>
       <path d="M 0 0 
L -6 0 
" id="m2a010d2811" style="stroke:#262626;stroke-width:1.25;"/>
      </defs>
      <g>
       <use style="fill:#262626;stroke:#262626;stroke-width:1.25;" x="67.10625" xlink:href="#m2a010d2811" y="609.642018"/>
      </g>
     </g>
     <g id="text_24">
      <!-- 0 -->
      <g style="fill:#262626;" transform="translate(50.6075 613.821158)scale(0.11 -0.11)">
       <use xlink:href="#DejaVuSans-30"/>
      </g>
     </g>
    </g>
    <g id="ytick_2">
     <g id="line2d_120">
      <path clip-path="url(#pc8eadd1d8f)" d="M 67.10625 517.217942 
L 1230.39425 517.217942 
" style="fill:none;stroke:#cccccc;stroke-linecap:round;"/>
     </g>
     <g id="line2d_121">
      <g>
       <use style="fill:#262626;stroke:#262626;stroke-width:1.25;" x="67.10625" xlink:href="#m2a010d2811" y="517.217942"/>
      </g>
     </g>
     <g id="text_25">
      <!-- 100000 -->
      <g style="fill:#262626;" transform="translate(15.61375 521.397082)scale(0.11 -0.11)">
       <use xlink:href="#DejaVuSans-31"/>
       <use x="63.623047" xlink:href="#DejaVuSans-30"/>
       <use x="127.246094" xlink:href="#DejaVuSans-30"/>
       <use x="190.869141" xlink:href="#DejaVuSans-30"/>
       <use x="254.492188" xlink:href="#DejaVuSans-30"/>
       <use x="318.115234" xlink:href="#DejaVuSans-30"/>
      </g>
     </g>
    </g>
    <g id="ytick_3">
     <g id="line2d_122">
      <path clip-path="url(#pc8eadd1d8f)" d="M 67.10625 424.793866 
L 1230.39425 424.793866 
" style="fill:none;stroke:#cccccc;stroke-linecap:round;"/>
     </g>
     <g id="line2d_123">
      <g>
       <use style="fill:#262626;stroke:#262626;stroke-width:1.25;" x="67.10625" xlink:href="#m2a010d2811" y="424.793866"/>
      </g>
     </g>
     <g id="text_26">
      <!-- 200000 -->
      <g style="fill:#262626;" transform="translate(15.61375 428.973007)scale(0.11 -0.11)">
       <use xlink:href="#DejaVuSans-32"/>
       <use x="63.623047" xlink:href="#DejaVuSans-30"/>
       <use x="127.246094" xlink:href="#DejaVuSans-30"/>
       <use x="190.869141" xlink:href="#DejaVuSans-30"/>
       <use x="254.492188" xlink:href="#DejaVuSans-30"/>
       <use x="318.115234" xlink:href="#DejaVuSans-30"/>
      </g>
     </g>
    </g>
    <g id="ytick_4">
     <g id="line2d_124">
      <path clip-path="url(#pc8eadd1d8f)" d="M 67.10625 332.36979 
L 1230.39425 332.36979 
" style="fill:none;stroke:#cccccc;stroke-linecap:round;"/>
     </g>
     <g id="line2d_125">
      <g>
       <use style="fill:#262626;stroke:#262626;stroke-width:1.25;" x="67.10625" xlink:href="#m2a010d2811" y="332.36979"/>
      </g>
     </g>
     <g id="text_27">
      <!-- 300000 -->
      <g style="fill:#262626;" transform="translate(15.61375 336.548931)scale(0.11 -0.11)">
       <use xlink:href="#DejaVuSans-33"/>
       <use x="63.623047" xlink:href="#DejaVuSans-30"/>
       <use x="127.246094" xlink:href="#DejaVuSans-30"/>
       <use x="190.869141" xlink:href="#DejaVuSans-30"/>
       <use x="254.492188" xlink:href="#DejaVuSans-30"/>
       <use x="318.115234" xlink:href="#DejaVuSans-30"/>
      </g>
     </g>
    </g>
    <g id="ytick_5">
     <g id="line2d_126">
      <path clip-path="url(#pc8eadd1d8f)" d="M 67.10625 239.945714 
L 1230.39425 239.945714 
" style="fill:none;stroke:#cccccc;stroke-linecap:round;"/>
     </g>
     <g id="line2d_127">
      <g>
       <use style="fill:#262626;stroke:#262626;stroke-width:1.25;" x="67.10625" xlink:href="#m2a010d2811" y="239.945714"/>
      </g>
     </g>
     <g id="text_28">
      <!-- 400000 -->
      <g style="fill:#262626;" transform="translate(15.61375 244.124855)scale(0.11 -0.11)">
       <use xlink:href="#DejaVuSans-34"/>
       <use x="63.623047" xlink:href="#DejaVuSans-30"/>
       <use x="127.246094" xlink:href="#DejaVuSans-30"/>
       <use x="190.869141" xlink:href="#DejaVuSans-30"/>
       <use x="254.492188" xlink:href="#DejaVuSans-30"/>
       <use x="318.115234" xlink:href="#DejaVuSans-30"/>
      </g>
     </g>
    </g>
    <g id="ytick_6">
     <g id="line2d_128">
      <path clip-path="url(#pc8eadd1d8f)" d="M 67.10625 147.521638 
L 1230.39425 147.521638 
" style="fill:none;stroke:#cccccc;stroke-linecap:round;"/>
     </g>
     <g id="line2d_129">
      <g>
       <use style="fill:#262626;stroke:#262626;stroke-width:1.25;" x="67.10625" xlink:href="#m2a010d2811" y="147.521638"/>
      </g>
     </g>
     <g id="text_29">
      <!-- 500000 -->
      <g style="fill:#262626;" transform="translate(15.61375 151.700779)scale(0.11 -0.11)">
       <use xlink:href="#DejaVuSans-35"/>
       <use x="63.623047" xlink:href="#DejaVuSans-30"/>
       <use x="127.246094" xlink:href="#DejaVuSans-30"/>
       <use x="190.869141" xlink:href="#DejaVuSans-30"/>
       <use x="254.492188" xlink:href="#DejaVuSans-30"/>
       <use x="318.115234" xlink:href="#DejaVuSans-30"/>
      </g>
     </g>
    </g>
    <g id="ytick_7">
     <g id="line2d_130">
      <path clip-path="url(#pc8eadd1d8f)" d="M 67.10625 55.097562 
L 1230.39425 55.097562 
" style="fill:none;stroke:#cccccc;stroke-linecap:round;"/>
     </g>
     <g id="line2d_131">
      <g>
       <use style="fill:#262626;stroke:#262626;stroke-width:1.25;" x="67.10625" xlink:href="#m2a010d2811" y="55.097562"/>
      </g>
     </g>
     <g id="text_30">
      <!-- 600000 -->
      <g style="fill:#262626;" transform="translate(15.61375 59.276703)scale(0.11 -0.11)">
       <use xlink:href="#DejaVuSans-36"/>
       <use x="63.623047" xlink:href="#DejaVuSans-30"/>
       <use x="127.246094" xlink:href="#DejaVuSans-30"/>
       <use x="190.869141" xlink:href="#DejaVuSans-30"/>
       <use x="254.492188" xlink:href="#DejaVuSans-30"/>
       <use x="318.115234" xlink:href="#DejaVuSans-30"/>
      </g>
     </g>
    </g>
    <g id="text_31">
     <!-- Cases -->
     <g style="fill:#262626;" transform="translate(9.118125 351.011756)rotate(-90)scale(0.12 -0.12)">
      <defs>
       <path d="M 4122 4306 
L 4122 3641 
Q 3803 3938 3442 4084 
Q 3081 4231 2675 4231 
Q 1875 4231 1450 3742 
Q 1025 3253 1025 2328 
Q 1025 1406 1450 917 
Q 1875 428 2675 428 
Q 3081 428 3442 575 
Q 3803 722 4122 1019 
L 4122 359 
Q 3791 134 3420 21 
Q 3050 -91 2638 -91 
Q 1578 -91 968 557 
Q 359 1206 359 2328 
Q 359 3453 968 4101 
Q 1578 4750 2638 4750 
Q 3056 4750 3426 4639 
Q 3797 4528 4122 4306 
z
" id="DejaVuSans-43" transform="scale(0.015625)"/>
       <path d="M 2834 3397 
L 2834 2853 
Q 2591 2978 2328 3040 
Q 2066 3103 1784 3103 
Q 1356 3103 1142 2972 
Q 928 2841 928 2578 
Q 928 2378 1081 2264 
Q 1234 2150 1697 2047 
L 1894 2003 
Q 2506 1872 2764 1633 
Q 3022 1394 3022 966 
Q 3022 478 2636 193 
Q 2250 -91 1575 -91 
Q 1294 -91 989 -36 
Q 684 19 347 128 
L 347 722 
Q 666 556 975 473 
Q 1284 391 1588 391 
Q 1994 391 2212 530 
Q 2431 669 2431 922 
Q 2431 1156 2273 1281 
Q 2116 1406 1581 1522 
L 1381 1569 
Q 847 1681 609 1914 
Q 372 2147 372 2553 
Q 372 3047 722 3315 
Q 1072 3584 1716 3584 
Q 2034 3584 2315 3537 
Q 2597 3491 2834 3397 
z
" id="DejaVuSans-73" transform="scale(0.015625)"/>
      </defs>
      <use xlink:href="#DejaVuSans-43"/>
      <use x="69.824219" xlink:href="#DejaVuSans-61"/>
      <use x="131.103516" xlink:href="#DejaVuSans-73"/>
      <use x="183.203125" xlink:href="#DejaVuSans-65"/>
      <use x="244.726562" xlink:href="#DejaVuSans-73"/>
     </g>
    </g>
   </g>
   <g id="line2d_132">
    <path clip-path="url(#pc8eadd1d8f)" d="M 119.982977 609.638321 
L 139.338851 609.543124 
L 186.848722 608.95161 
L 230.839344 607.825885 
L 283.62809 607.044901 
L 310.022463 605.839691 
L 327.618712 604.561466 
L 331.137961 604.336876 
L 336.416836 603.780483 
L 339.936086 603.205605 
L 341.695711 603.01059 
L 345.21496 602.792469 
L 362.811209 600.535474 
L 366.330459 600.111247 
L 369.849708 599.825657 
L 378.647833 598.702704 
L 382.167083 598.404174 
L 390.965207 597.309873 
L 394.484457 597.153677 
L 401.522956 596.478057 
L 408.561456 596.08433 
L 415.599955 595.568604 
L 419.119205 595.421649 
L 424.398079 594.939196 
L 427.917329 594.70259 
L 431.436579 594.608318 
L 438.475078 593.97244 
L 449.032828 593.377229 
L 452.552077 593.106426 
L 456.071327 592.949305 
L 464.869451 592.248731 
L 468.388701 592.068504 
L 471.907951 591.819883 
L 475.427201 591.316172 
L 482.4657 590.651643 
L 487.744575 589.922417 
L 493.023449 589.428872 
L 498.302324 588.145102 
L 500.061949 587.579467 
L 501.821574 587.165407 
L 503.581198 587.088695 
L 505.340823 586.546165 
L 508.860073 585.063683 
L 512.379323 583.296535 
L 514.138948 582.739218 
L 515.898572 582.374143 
L 517.658197 581.42772 
L 521.177447 578.832452 
L 524.696697 575.889669 
L 526.456322 574.925686 
L 528.215947 574.62346 
L 529.975571 572.550388 
L 533.494821 567.625109 
L 537.014071 562.467845 
L 538.773696 560.801439 
L 540.533321 559.669244 
L 542.292946 557.426112 
L 547.57182 546.474783 
L 549.331445 542.926623 
L 551.09107 540.799945 
L 552.850695 540.176082 
L 554.61032 536.64918 
L 556.369944 532.591763 
L 558.129569 528.945633 
L 559.889194 525.790275 
L 561.648819 521.897373 
L 563.408444 519.588619 
L 565.168069 518.834439 
L 566.927694 515.582036 
L 568.687319 511.119801 
L 573.966193 500.195276 
L 575.725818 498.088931 
L 577.485443 497.051008 
L 579.245068 494.143347 
L 581.004693 490.093324 
L 584.523942 483.364851 
L 586.283567 480.289902 
L 588.043192 478.633663 
L 589.802817 477.950649 
L 591.562442 475.349835 
L 593.322067 472.138099 
L 596.841316 466.206322 
L 598.600941 462.866116 
L 600.360566 460.983437 
L 602.120191 460.45015 
L 603.879816 457.895549 
L 605.639441 454.21707 
L 607.399066 451.141197 
L 610.918315 445.436783 
L 612.67794 444.247285 
L 614.437565 443.787938 
L 616.19719 441.851653 
L 617.956815 439.316461 
L 623.235689 434.011319 
L 624.995314 433.08523 
L 626.754939 432.931806 
L 628.514564 431.75155 
L 630.274189 430.088841 
L 632.033814 428.596192 
L 633.793439 427.882679 
L 635.553063 427.645149 
L 637.312688 427.21168 
L 640.831938 426.593363 
L 642.591563 425.264304 
L 644.351188 423.666292 
L 646.110813 422.699536 
L 651.389687 421.974007 
L 653.149312 421.022964 
L 654.908937 419.812208 
L 658.428187 418.084802 
L 660.187812 417.388849 
L 661.947437 417.024698 
L 663.707061 416.927653 
L 665.466686 416.354624 
L 667.226311 415.661443 
L 672.505186 414.162324 
L 674.264811 413.946976 
L 676.024435 413.87581 
L 681.30331 412.400722 
L 686.582185 411.211224 
L 688.34181 411.099391 
L 693.620684 409.068834 
L 695.380309 408.551259 
L 697.139934 407.908911 
L 698.899559 407.586351 
L 700.659184 407.4662 
L 702.418808 406.697232 
L 704.178433 405.803491 
L 705.938058 405.138962 
L 709.457308 403.481798 
L 711.216933 403.026148 
L 712.976558 402.857936 
L 718.255432 399.863396 
L 721.774682 397.981642 
L 723.534307 397.513976 
L 725.293932 397.363324 
L 727.053557 396.376235 
L 730.572806 393.977831 
L 732.332431 392.974105 
L 734.092056 391.621941 
L 735.851681 391.115457 
L 737.611306 390.905654 
L 741.130556 387.462857 
L 746.40943 382.623533 
L 748.169055 381.626277 
L 749.92868 381.319429 
L 753.44793 376.706543 
L 755.207554 375.63997 
L 756.967179 373.608488 
L 758.726804 370.832069 
L 760.486429 369.514102 
L 762.246054 369.054754 
L 764.005679 366.286653 
L 765.765304 363.049962 
L 767.524929 360.486118 
L 771.044178 354.681886 
L 772.803803 352.815844 
L 774.563428 352.188285 
L 778.082678 343.859951 
L 783.361552 332.426169 
L 785.121177 330.077673 
L 786.880802 329.206114 
L 788.640427 325.07753 
L 790.400052 320.594039 
L 792.159677 316.550485 
L 795.678926 309.048423 
L 797.438551 306.703624 
L 799.198176 305.795095 
L 800.957801 301.638785 
L 802.717426 296.854915 
L 804.477051 292.966634 
L 806.236676 289.552488 
L 807.996301 285.84351 
L 809.755925 284.069892 
L 811.51555 283.385954 
L 816.794425 272.831125 
L 820.313675 267.507498 
L 822.073299 266.257924 
L 823.832924 265.830925 
L 827.352174 260.224481 
L 829.111799 257.898167 
L 832.631049 253.913765 
L 834.390674 252.919282 
L 836.150298 252.532949 
L 837.909923 250.283347 
L 841.429173 246.495808 
L 844.948423 243.363556 
L 846.708048 242.626012 
L 848.467672 242.256316 
L 851.986922 238.920731 
L 855.506172 236.500145 
L 857.265797 235.89754 
L 864.304296 234.222815 
L 866.063921 232.711682 
L 867.823546 232.20797 
L 869.583171 231.170048 
L 871.342796 230.739352 
L 873.102421 230.51661 
L 874.862045 229.520278 
L 876.62167 228.709719 
L 878.381295 228.102493 
L 881.900545 227.15607 
L 885.419795 226.828889 
L 887.17942 226.203178 
L 890.698669 225.447149 
L 894.217919 224.772454 
L 897.737169 224.560802 
L 899.496794 224.485939 
L 903.016043 223.747471 
L 906.535293 223.211411 
L 910.054543 223.056138 
L 913.573793 222.557973 
L 918.852667 222.073671 
L 924.131542 221.755732 
L 927.650792 221.470141 
L 955.804789 220.086553 
L 961.083664 219.939599 
L 968.122163 219.628129 
L 989.237662 218.962676 
L 1010.35316 217.875769 
L 1015.632035 217.277785 
L 1017.39166 216.957998 
L 1020.91091 216.702907 
L 1026.189784 215.516182 
L 1031.468659 214.184351 
L 1033.228284 214.021685 
L 1038.507158 211.839553 
L 1040.266783 211.024372 
L 1042.026408 210.056692 
L 1043.786033 209.48089 
L 1045.545658 209.229497 
L 1049.064907 206.728501 
L 1054.343782 202.915084 
L 1056.103407 202.1341 
L 1057.863032 201.779192 
L 1061.382281 198.265229 
L 1064.901531 195.18381 
L 1066.661156 193.600585 
L 1068.420781 192.672648 
L 1070.180406 192.255815 
L 1073.699656 188.426686 
L 1075.45928 186.813886 
L 1078.97853 183.852618 
L 1080.738155 183.063317 
L 1082.49778 182.612287 
L 1084.257405 181.986576 
L 1087.776654 178.325658 
L 1091.295904 175.317255 
L 1093.055529 174.47712 
L 1094.815154 174.073227 
L 1100.094029 168.630373 
L 1101.853653 167.036982 
L 1103.613278 165.288318 
L 1105.372903 164.409365 
L 1107.132528 163.986063 
L 1110.651778 159.778919 
L 1112.411403 158.993314 
L 1115.930652 155.537578 
L 1117.690277 154.578216 
L 1119.449902 154.119793 
L 1122.969152 149.397847 
L 1128.248026 143.590842 
L 1130.007651 142.455875 
L 1131.767276 141.981739 
L 1137.046151 134.390025 
L 1140.565401 129.965685 
L 1142.325025 128.814081 
L 1144.08465 128.240127 
L 1149.363525 118.750948 
L 1151.12315 115.809089 
L 1152.882775 112.629701 
L 1154.642399 110.904144 
L 1156.402024 109.979903 
L 1159.921274 100.796647 
L 1163.440524 92.166086 
L 1165.200149 87.705701 
L 1166.959774 84.605797 
L 1168.719398 83.339587 
L 1170.479023 77.920764 
L 1172.238648 71.621139 
L 1173.998273 66.405648 
L 1177.517523 56.76212 
L 1177.517523 56.76212 
" style="fill:none;stroke:#ffa500;stroke-linecap:round;stroke-width:1.5;"/>
   </g>
   <g id="line2d_133">
    <path clip-path="url(#pc8eadd1d8f)" d="M 119.982977 609.642018 
L 186.848722 609.544972 
L 260.752967 608.79911 
L 290.666589 608.056021 
L 297.705089 607.962672 
L 341.695711 606.581857 
L 343.455335 606.574463 
L 348.73421 606.092009 
L 357.532334 605.755585 
L 359.291959 605.463525 
L 361.051584 605.350768 
L 362.811209 604.992162 
L 364.570834 604.787905 
L 368.090084 604.692708 
L 375.128583 603.93668 
L 378.647833 603.730574 
L 380.407458 603.708392 
L 389.205582 602.597455 
L 394.484457 602.266576 
L 396.244081 602.105759 
L 401.522956 601.218487 
L 405.042206 601.151942 
L 410.32108 600.463383 
L 415.599955 600.102005 
L 417.35958 600.087217 
L 427.917329 599.241536 
L 431.436579 599.028961 
L 441.994328 598.406023 
L 445.513578 598.276629 
L 450.792452 597.857948 
L 454.311702 597.842236 
L 463.109826 597.155525 
L 471.907951 596.825571 
L 475.427201 596.580647 
L 478.94645 596.539981 
L 487.744575 595.834785 
L 493.023449 595.612967 
L 503.581198 594.995574 
L 507.100448 594.725696 
L 508.860073 594.402212 
L 512.379323 594.045455 
L 515.898572 593.982607 
L 533.494821 591.934489 
L 535.254446 591.439096 
L 538.773696 591.115612 
L 545.812195 589.357706 
L 549.331445 587.981511 
L 551.09107 587.640466 
L 552.850695 587.083149 
L 554.61032 586.274439 
L 556.369944 585.79753 
L 559.889194 584.144988 
L 561.648819 583.514656 
L 565.168069 582.492445 
L 566.927694 581.621811 
L 568.687319 580.495161 
L 573.966193 577.859227 
L 575.725818 576.598562 
L 577.485443 575.885048 
L 579.245068 574.31199 
L 581.004693 572.578115 
L 582.764317 570.250877 
L 584.523942 568.166714 
L 586.283567 566.443005 
L 588.043192 565.482719 
L 589.802817 564.729462 
L 591.562442 562.907784 
L 593.322067 560.657258 
L 595.081692 558.618382 
L 596.841316 556.829977 
L 598.600941 554.486102 
L 600.360566 553.565558 
L 602.120191 552.111727 
L 605.639441 545.843527 
L 609.15869 540.109537 
L 610.918315 536.144544 
L 612.67794 534.078866 
L 616.19719 530.547342 
L 617.956815 528.368907 
L 619.71644 525.988987 
L 621.476065 523.01478 
L 623.235689 520.340027 
L 624.995314 519.042393 
L 626.754939 517.441608 
L 628.514564 514.753916 
L 630.274189 512.513556 
L 632.033814 511.242725 
L 635.553063 509.023623 
L 637.312688 508.213988 
L 639.072313 507.0439 
L 640.831938 505.680644 
L 644.351188 500.271988 
L 646.110813 499.170293 
L 647.870438 498.416112 
L 649.630062 497.377265 
L 651.389687 496.504782 
L 654.908937 492.479714 
L 656.668562 490.609975 
L 658.428187 489.314189 
L 660.187812 485.773423 
L 661.947437 485.272484 
L 663.707061 484.630137 
L 667.226311 479.741828 
L 668.985936 476.882227 
L 670.745561 470.663935 
L 672.505186 465.432732 
L 676.024435 464.793157 
L 677.78406 457.830852 
L 679.543685 452.060817 
L 681.30331 447.809309 
L 683.062935 445.724222 
L 684.82256 444.57077 
L 688.34181 444.140073 
L 690.101434 443.161303 
L 691.861059 442.359062 
L 693.620684 441.779563 
L 698.899559 438.10016 
L 700.659184 436.760935 
L 702.418808 434.986393 
L 704.178433 433.588941 
L 705.938058 432.601852 
L 709.457308 431.235824 
L 712.976558 431.031567 
L 714.736183 430.288477 
L 716.495807 429.864251 
L 718.255432 429.220055 
L 723.534307 427.942754 
L 725.293932 427.640527 
L 732.332431 425.133987 
L 734.092056 424.814199 
L 737.611306 424.560957 
L 739.370931 423.842822 
L 742.89018 422.940763 
L 746.40943 421.564569 
L 748.169055 420.046041 
L 749.92868 419.668951 
L 751.688305 418.66615 
L 753.44793 417.020077 
L 755.207554 416.475699 
L 756.967179 414.961793 
L 758.726804 413.778765 
L 760.486429 413.239008 
L 762.246054 412.883175 
L 764.005679 411.748208 
L 765.765304 408.603016 
L 767.524929 406.263763 
L 771.044178 403.092693 
L 772.803803 402.059392 
L 774.563428 401.519635 
L 778.082678 398.160944 
L 783.361552 393.743073 
L 786.880802 392.65709 
L 788.640427 390.568306 
L 792.159677 385.688315 
L 793.919302 383.691031 
L 795.678926 380.937718 
L 797.438551 379.594796 
L 799.198176 379.172418 
L 802.717426 373.32105 
L 804.477051 369.745162 
L 806.236676 367.403136 
L 807.996301 363.70987 
L 809.755925 360.489815 
L 811.51555 359.696817 
L 813.275175 356.927791 
L 815.0348 354.377811 
L 816.794425 352.088467 
L 818.55405 349.025533 
L 820.313675 346.354477 
L 822.073299 345.494933 
L 823.832924 345.070707 
L 825.592549 342.207409 
L 827.352174 338.515067 
L 832.631049 328.642327 
L 834.390674 327.529541 
L 836.150298 326.19771 
L 837.909923 322.275232 
L 839.669548 319.178102 
L 841.429173 315.541214 
L 843.188798 312.591038 
L 844.948423 310.301693 
L 848.467672 309.316453 
L 850.227297 305.527066 
L 851.986922 302.407753 
L 855.506172 296.960278 
L 857.265797 295.830856 
L 859.025422 295.50275 
L 860.785047 294.991645 
L 862.544671 294.320646 
L 864.304296 293.3428 
L 866.063921 290.876001 
L 867.823546 290.327002 
L 869.583171 288.126385 
L 873.102421 287.643931 
L 874.862045 284.866588 
L 876.62167 282.812925 
L 878.381295 279.550355 
L 880.14092 276.913496 
L 881.900545 275.073333 
L 883.66017 274.764636 
L 885.419795 274.627849 
L 887.17942 272.588049 
L 888.939044 270.016811 
L 890.698669 267.875346 
L 892.458294 266.235742 
L 894.217919 264.92979 
L 899.496794 264.250473 
L 901.256419 262.011038 
L 903.016043 260.909343 
L 904.775668 259.210588 
L 906.535293 258.195772 
L 910.054543 257.934212 
L 913.573793 254.950763 
L 915.333417 254.015431 
L 917.093042 253.558856 
L 918.852667 252.948857 
L 922.371917 252.793585 
L 924.131542 252.244586 
L 925.891167 251.57636 
L 927.650792 251.115164 
L 931.170041 249.772242 
L 934.689291 249.654863 
L 936.448916 248.829516 
L 938.208541 248.290684 
L 939.968166 247.307292 
L 943.487415 246.626126 
L 947.006665 246.58546 
L 952.28554 245.61131 
L 961.083664 245.267492 
L 966.362539 244.631615 
L 968.122163 244.306282 
L 971.641413 244.214782 
L 978.679913 243.440268 
L 982.199162 243.351541 
L 983.958787 243.350617 
L 990.997287 242.648194 
L 994.516536 242.561315 
L 996.276161 242.557618 
L 1005.074286 241.672196 
L 1010.35316 241.587166 
L 1013.87241 241.43559 
L 1033.228284 240.974394 
L 1042.026408 240.020578 
L 1045.545658 239.801533 
L 1056.103407 238.470626 
L 1057.863032 238.428111 
L 1059.622657 237.849536 
L 1061.382281 237.433628 
L 1064.901531 236.454857 
L 1066.661156 236.136918 
L 1070.180406 235.919721 
L 1073.699656 234.617466 
L 1077.218905 233.449226 
L 1078.97853 232.6895 
L 1080.738155 232.512046 
L 1084.257405 231.577638 
L 1087.776654 229.716217 
L 1091.295904 227.413009 
L 1093.055529 227.253116 
L 1094.815154 226.861238 
L 1096.574779 225.854739 
L 1098.334404 225.149544 
L 1100.094029 223.82141 
L 1101.853653 222.006201 
L 1103.613278 219.758447 
L 1105.372903 219.284312 
L 1107.132528 218.296299 
L 1108.892153 217.161331 
L 1110.651778 216.209363 
L 1112.411403 215.669606 
L 1114.171027 214.694532 
L 1115.930652 213.115005 
L 1119.449902 212.175052 
L 1122.969152 208.083438 
L 1124.728777 206.87638 
L 1126.488402 205.452125 
L 1128.248026 204.613838 
L 1130.007651 204.282036 
L 1131.767276 203.805128 
L 1133.526901 202.551857 
L 1135.286526 200.676573 
L 1138.805776 197.751351 
L 1140.565401 195.969415 
L 1144.08465 194.842765 
L 1145.844275 193.121829 
L 1147.6039 192.041391 
L 1149.363525 190.344485 
L 1151.12315 188.971064 
L 1152.882775 187.448839 
L 1156.402024 186.469144 
L 1158.161649 184.612344 
L 1159.921274 182.077152 
L 1161.680899 181.180638 
L 1163.440524 179.840489 
L 1165.200149 178.749885 
L 1166.959774 178.46337 
L 1168.719398 177.967977 
L 1170.479023 176.099162 
L 1175.757898 169.750553 
L 1177.517523 168.289328 
L 1177.517523 168.289328 
" style="fill:none;stroke:#008000;stroke-linecap:round;stroke-width:1.5;"/>
   </g>
   <g id="line2d_134"/>
   <g id="line2d_135"/>
   <g id="patch_3">
    <path d="M 67.10625 637.286013 
L 67.10625 29.118125 
" style="fill:none;stroke:#262626;stroke-linecap:square;stroke-linejoin:miter;stroke-width:1.25;"/>
   </g>
   <g id="patch_4">
    <path d="M 1230.39425 637.286013 
L 1230.39425 29.118125 
" style="fill:none;stroke:#262626;stroke-linecap:square;stroke-linejoin:miter;stroke-width:1.25;"/>
   </g>
   <g id="patch_5">
    <path d="M 67.10625 637.286013 
L 1230.39425 637.286013 
" style="fill:none;stroke:#262626;stroke-linecap:square;stroke-linejoin:miter;stroke-width:1.25;"/>
   </g>
   <g id="patch_6">
    <path d="M 67.10625 29.118125 
L 1230.39425 29.118125 
" style="fill:none;stroke:#262626;stroke-linecap:square;stroke-linejoin:miter;stroke-width:1.25;"/>
   </g>
   <g id="text_32">
    <!-- Last update: 30.10.2021 -->
    <g style="fill:#262626;" transform="translate(587.251422 19.995607)scale(0.09996 -0.09996)">
     <defs>
      <path d="M 628 4666 
L 1259 4666 
L 1259 531 
L 3531 531 
L 3531 0 
L 628 0 
L 628 4666 
z
" id="DejaVuSans-4c" transform="scale(0.015625)"/>
      <path id="DejaVuSans-20" transform="scale(0.015625)"/>
      <path d="M 544 1381 
L 544 3500 
L 1119 3500 
L 1119 1403 
Q 1119 906 1312 657 
Q 1506 409 1894 409 
Q 2359 409 2629 706 
Q 2900 1003 2900 1516 
L 2900 3500 
L 3475 3500 
L 3475 0 
L 2900 0 
L 2900 538 
Q 2691 219 2414 64 
Q 2138 -91 1772 -91 
Q 1169 -91 856 284 
Q 544 659 544 1381 
z
M 1991 3584 
L 1991 3584 
z
" id="DejaVuSans-75" transform="scale(0.015625)"/>
      <path d="M 1159 525 
L 1159 -1331 
L 581 -1331 
L 581 3500 
L 1159 3500 
L 1159 2969 
Q 1341 3281 1617 3432 
Q 1894 3584 2278 3584 
Q 2916 3584 3314 3078 
Q 3713 2572 3713 1747 
Q 3713 922 3314 415 
Q 2916 -91 2278 -91 
Q 1894 -91 1617 61 
Q 1341 213 1159 525 
z
M 3116 1747 
Q 3116 2381 2855 2742 
Q 2594 3103 2138 3103 
Q 1681 3103 1420 2742 
Q 1159 2381 1159 1747 
Q 1159 1113 1420 752 
Q 1681 391 2138 391 
Q 2594 391 2855 752 
Q 3116 1113 3116 1747 
z
" id="DejaVuSans-70" transform="scale(0.015625)"/>
      <path d="M 2906 2969 
L 2906 4863 
L 3481 4863 
L 3481 0 
L 2906 0 
L 2906 525 
Q 2725 213 2448 61 
Q 2172 -91 1784 -91 
Q 1150 -91 751 415 
Q 353 922 353 1747 
Q 353 2572 751 3078 
Q 1150 3584 1784 3584 
Q 2172 3584 2448 3432 
Q 2725 3281 2906 2969 
z
M 947 1747 
Q 947 1113 1208 752 
Q 1469 391 1925 391 
Q 2381 391 2643 752 
Q 2906 1113 2906 1747 
Q 2906 2381 2643 2742 
Q 2381 3103 1925 3103 
Q 1469 3103 1208 2742 
Q 947 2381 947 1747 
z
" id="DejaVuSans-64" transform="scale(0.015625)"/>
      <path d="M 750 794 
L 1409 794 
L 1409 0 
L 750 0 
L 750 794 
z
M 750 3309 
L 1409 3309 
L 1409 2516 
L 750 2516 
L 750 3309 
z
" id="DejaVuSans-3a" transform="scale(0.015625)"/>
     </defs>
     <use xlink:href="#DejaVuSans-4c"/>
     <use x="55.712891" xlink:href="#DejaVuSans-61"/>
     <use x="116.992188" xlink:href="#DejaVuSans-73"/>
     <use x="169.091797" xlink:href="#DejaVuSans-74"/>
     <use x="208.300781" xlink:href="#DejaVuSans-20"/>
     <use x="240.087891" xlink:href="#DejaVuSans-75"/>
     <use x="303.466797" xlink:href="#DejaVuSans-70"/>
     <use x="366.943359" xlink:href="#DejaVuSans-64"/>
     <use x="430.419922" xlink:href="#DejaVuSans-61"/>
     <use x="491.699219" xlink:href="#DejaVuSans-74"/>
     <use x="530.908203" xlink:href="#DejaVuSans-65"/>
     <use x="592.431641" xlink:href="#DejaVuSans-3a"/>
     <use x="626.123047" xlink:href="#DejaVuSans-20"/>
     <use x="657.910156" xlink:href="#DejaVuSans-33"/>
     <use x="721.533203" xlink:href="#DejaVuSans-30"/>
     <use x="785.15625" xlink:href="#DejaVuSans-2e"/>
     <use x="816.943359" xlink:href="#DejaVuSans-31"/>
     <use x="880.566406" xlink:href="#DejaVuSans-30"/>
     <use x="944.189453" xlink:href="#DejaVuSans-2e"/>
     <use x="975.976562" xlink:href="#DejaVuSans-32"/>
     <use x="1039.599609" xlink:href="#DejaVuSans-30"/>
     <use x="1103.222656" xlink:href="#DejaVuSans-32"/>
     <use x="1166.845703" xlink:href="#DejaVuSans-31"/>
    </g>
   </g>
   <g id="text_33">
    <!-- Disease timeline -->
    <g style="fill:#262626;" transform="translate(592.592125 9.118125)scale(0.12 -0.12)">
     <defs>
      <path d="M 1791 3756 
L 1791 909 
L 2222 909 
Q 2959 909 3348 1275 
Q 3738 1641 3738 2338 
Q 3738 3031 3350 3393 
Q 2963 3756 2222 3756 
L 1791 3756 
z
M 588 4666 
L 1856 4666 
Q 2919 4666 3439 4514 
Q 3959 4363 4331 4000 
Q 4659 3684 4818 3271 
Q 4978 2859 4978 2338 
Q 4978 1809 4818 1395 
Q 4659 981 4331 666 
Q 3956 303 3431 151 
Q 2906 0 1856 0 
L 588 0 
L 588 4666 
z
" id="DejaVuSans-Bold-44" transform="scale(0.015625)"/>
      <path d="M 538 3500 
L 1656 3500 
L 1656 0 
L 538 0 
L 538 3500 
z
M 538 4863 
L 1656 4863 
L 1656 3950 
L 538 3950 
L 538 4863 
z
" id="DejaVuSans-Bold-69" transform="scale(0.015625)"/>
      <path d="M 3272 3391 
L 3272 2541 
Q 2913 2691 2578 2766 
Q 2244 2841 1947 2841 
Q 1628 2841 1473 2761 
Q 1319 2681 1319 2516 
Q 1319 2381 1436 2309 
Q 1553 2238 1856 2203 
L 2053 2175 
Q 2913 2066 3209 1816 
Q 3506 1566 3506 1031 
Q 3506 472 3093 190 
Q 2681 -91 1863 -91 
Q 1516 -91 1145 -36 
Q 775 19 384 128 
L 384 978 
Q 719 816 1070 734 
Q 1422 653 1784 653 
Q 2113 653 2278 743 
Q 2444 834 2444 1013 
Q 2444 1163 2330 1236 
Q 2216 1309 1875 1350 
L 1678 1375 
Q 931 1469 631 1722 
Q 331 1975 331 2491 
Q 331 3047 712 3315 
Q 1094 3584 1881 3584 
Q 2191 3584 2531 3537 
Q 2872 3491 3272 3391 
z
" id="DejaVuSans-Bold-73" transform="scale(0.015625)"/>
      <path d="M 4031 1759 
L 4031 1441 
L 1416 1441 
Q 1456 1047 1700 850 
Q 1944 653 2381 653 
Q 2734 653 3104 758 
Q 3475 863 3866 1075 
L 3866 213 
Q 3469 63 3072 -14 
Q 2675 -91 2278 -91 
Q 1328 -91 801 392 
Q 275 875 275 1747 
Q 275 2603 792 3093 
Q 1309 3584 2216 3584 
Q 3041 3584 3536 3087 
Q 4031 2591 4031 1759 
z
M 2881 2131 
Q 2881 2450 2695 2645 
Q 2509 2841 2209 2841 
Q 1884 2841 1681 2658 
Q 1478 2475 1428 2131 
L 2881 2131 
z
" id="DejaVuSans-Bold-65" transform="scale(0.015625)"/>
      <path d="M 2106 1575 
Q 1756 1575 1579 1456 
Q 1403 1338 1403 1106 
Q 1403 894 1545 773 
Q 1688 653 1941 653 
Q 2256 653 2472 879 
Q 2688 1106 2688 1447 
L 2688 1575 
L 2106 1575 
z
M 3816 1997 
L 3816 0 
L 2688 0 
L 2688 519 
Q 2463 200 2181 54 
Q 1900 -91 1497 -91 
Q 953 -91 614 226 
Q 275 544 275 1050 
Q 275 1666 698 1953 
Q 1122 2241 2028 2241 
L 2688 2241 
L 2688 2328 
Q 2688 2594 2478 2717 
Q 2269 2841 1825 2841 
Q 1466 2841 1156 2769 
Q 847 2697 581 2553 
L 581 3406 
Q 941 3494 1303 3539 
Q 1666 3584 2028 3584 
Q 2975 3584 3395 3211 
Q 3816 2838 3816 1997 
z
" id="DejaVuSans-Bold-61" transform="scale(0.015625)"/>
      <path id="DejaVuSans-Bold-20" transform="scale(0.015625)"/>
      <path d="M 1759 4494 
L 1759 3500 
L 2913 3500 
L 2913 2700 
L 1759 2700 
L 1759 1216 
Q 1759 972 1856 886 
Q 1953 800 2241 800 
L 2816 800 
L 2816 0 
L 1856 0 
Q 1194 0 917 276 
Q 641 553 641 1216 
L 641 2700 
L 84 2700 
L 84 3500 
L 641 3500 
L 641 4494 
L 1759 4494 
z
" id="DejaVuSans-Bold-74" transform="scale(0.015625)"/>
      <path d="M 3781 2919 
Q 3994 3244 4286 3414 
Q 4578 3584 4928 3584 
Q 5531 3584 5847 3212 
Q 6163 2841 6163 2131 
L 6163 0 
L 5038 0 
L 5038 1825 
Q 5041 1866 5042 1909 
Q 5044 1953 5044 2034 
Q 5044 2406 4934 2573 
Q 4825 2741 4581 2741 
Q 4263 2741 4089 2478 
Q 3916 2216 3909 1719 
L 3909 0 
L 2784 0 
L 2784 1825 
Q 2784 2406 2684 2573 
Q 2584 2741 2328 2741 
Q 2006 2741 1831 2477 
Q 1656 2213 1656 1722 
L 1656 0 
L 531 0 
L 531 3500 
L 1656 3500 
L 1656 2988 
Q 1863 3284 2130 3434 
Q 2397 3584 2719 3584 
Q 3081 3584 3359 3409 
Q 3638 3234 3781 2919 
z
" id="DejaVuSans-Bold-6d" transform="scale(0.015625)"/>
      <path d="M 538 4863 
L 1656 4863 
L 1656 0 
L 538 0 
L 538 4863 
z
" id="DejaVuSans-Bold-6c" transform="scale(0.015625)"/>
      <path d="M 4056 2131 
L 4056 0 
L 2931 0 
L 2931 347 
L 2931 1631 
Q 2931 2084 2911 2256 
Q 2891 2428 2841 2509 
Q 2775 2619 2662 2680 
Q 2550 2741 2406 2741 
Q 2056 2741 1856 2470 
Q 1656 2200 1656 1722 
L 1656 0 
L 538 0 
L 538 3500 
L 1656 3500 
L 1656 2988 
Q 1909 3294 2193 3439 
Q 2478 3584 2822 3584 
Q 3428 3584 3742 3212 
Q 4056 2841 4056 2131 
z
" id="DejaVuSans-Bold-6e" transform="scale(0.015625)"/>
     </defs>
     <use xlink:href="#DejaVuSans-Bold-44"/>
     <use x="83.007812" xlink:href="#DejaVuSans-Bold-69"/>
     <use x="117.285156" xlink:href="#DejaVuSans-Bold-73"/>
     <use x="176.806641" xlink:href="#DejaVuSans-Bold-65"/>
     <use x="244.628906" xlink:href="#DejaVuSans-Bold-61"/>
     <use x="312.109375" xlink:href="#DejaVuSans-Bold-73"/>
     <use x="371.630859" xlink:href="#DejaVuSans-Bold-65"/>
     <use x="439.453125" xlink:href="#DejaVuSans-Bold-20"/>
     <use x="474.267578" xlink:href="#DejaVuSans-Bold-74"/>
     <use x="522.070312" xlink:href="#DejaVuSans-Bold-69"/>
     <use x="556.347656" xlink:href="#DejaVuSans-Bold-6d"/>
     <use x="660.546875" xlink:href="#DejaVuSans-Bold-65"/>
     <use x="728.369141" xlink:href="#DejaVuSans-Bold-6c"/>
     <use x="762.646484" xlink:href="#DejaVuSans-Bold-69"/>
     <use x="796.923828" xlink:href="#DejaVuSans-Bold-6e"/>
     <use x="868.115234" xlink:href="#DejaVuSans-Bold-65"/>
    </g>
   </g>
  </g>
  <g id="axes_2">
   <g id="matplotlib.axis_3">
    <g id="ytick_8">
     <g id="line2d_136">
      <defs>
       <path d="M 0 0 
L 6 0 
" id="mfaf2719400" style="stroke:#262626;stroke-width:1.25;"/>
      </defs>
      <g>
       <use style="fill:#262626;stroke:#262626;stroke-width:1.25;" x="1230.39425" xlink:href="#mfaf2719400" y="609.642018"/>
      </g>
     </g>
     <g id="text_34">
      <!-- 0 -->
      <g style="fill:#262626;" transform="translate(1239.89425 613.821158)scale(0.11 -0.11)">
       <use xlink:href="#DejaVuSans-30"/>
      </g>
     </g>
    </g>
    <g id="ytick_9">
     <g id="line2d_137">
      <g>
       <use style="fill:#262626;stroke:#262626;stroke-width:1.25;" x="1230.39425" xlink:href="#mfaf2719400" y="493.841101"/>
      </g>
     </g>
     <g id="text_35">
      <!-- 5000 -->
      <g style="fill:#262626;" transform="translate(1239.89425 498.020241)scale(0.11 -0.11)">
       <use xlink:href="#DejaVuSans-35"/>
       <use x="63.623047" xlink:href="#DejaVuSans-30"/>
       <use x="127.246094" xlink:href="#DejaVuSans-30"/>
       <use x="190.869141" xlink:href="#DejaVuSans-30"/>
      </g>
     </g>
    </g>
    <g id="ytick_10">
     <g id="line2d_138">
      <g>
       <use style="fill:#262626;stroke:#262626;stroke-width:1.25;" x="1230.39425" xlink:href="#mfaf2719400" y="378.040184"/>
      </g>
     </g>
     <g id="text_36">
      <!-- 10000 -->
      <g style="fill:#262626;" transform="translate(1239.89425 382.219324)scale(0.11 -0.11)">
       <use xlink:href="#DejaVuSans-31"/>
       <use x="63.623047" xlink:href="#DejaVuSans-30"/>
       <use x="127.246094" xlink:href="#DejaVuSans-30"/>
       <use x="190.869141" xlink:href="#DejaVuSans-30"/>
       <use x="254.492188" xlink:href="#DejaVuSans-30"/>
      </g>
     </g>
    </g>
    <g id="ytick_11">
     <g id="line2d_139">
      <g>
       <use style="fill:#262626;stroke:#262626;stroke-width:1.25;" x="1230.39425" xlink:href="#mfaf2719400" y="262.239267"/>
      </g>
     </g>
     <g id="text_37">
      <!-- 15000 -->
      <g style="fill:#262626;" transform="translate(1239.89425 266.418408)scale(0.11 -0.11)">
       <use xlink:href="#DejaVuSans-31"/>
       <use x="63.623047" xlink:href="#DejaVuSans-35"/>
       <use x="127.246094" xlink:href="#DejaVuSans-30"/>
       <use x="190.869141" xlink:href="#DejaVuSans-30"/>
       <use x="254.492188" xlink:href="#DejaVuSans-30"/>
      </g>
     </g>
    </g>
    <g id="ytick_12">
     <g id="line2d_140">
      <g>
       <use style="fill:#262626;stroke:#262626;stroke-width:1.25;" x="1230.39425" xlink:href="#mfaf2719400" y="146.43835"/>
      </g>
     </g>
     <g id="text_38">
      <!-- 20000 -->
      <g style="fill:#262626;" transform="translate(1239.89425 150.617491)scale(0.11 -0.11)">
       <use xlink:href="#DejaVuSans-32"/>
       <use x="63.623047" xlink:href="#DejaVuSans-30"/>
       <use x="127.246094" xlink:href="#DejaVuSans-30"/>
       <use x="190.869141" xlink:href="#DejaVuSans-30"/>
       <use x="254.492188" xlink:href="#DejaVuSans-30"/>
      </g>
     </g>
    </g>
    <g id="ytick_13">
     <g id="line2d_141">
      <g>
       <use style="fill:#262626;stroke:#262626;stroke-width:1.25;" x="1230.39425" xlink:href="#mfaf2719400" y="30.637433"/>
      </g>
     </g>
     <g id="text_39">
      <!-- 25000 -->
      <g style="fill:#262626;" transform="translate(1239.89425 34.816574)scale(0.11 -0.11)">
       <use xlink:href="#DejaVuSans-32"/>
       <use x="63.623047" xlink:href="#DejaVuSans-35"/>
       <use x="127.246094" xlink:href="#DejaVuSans-30"/>
       <use x="190.869141" xlink:href="#DejaVuSans-30"/>
       <use x="254.492188" xlink:href="#DejaVuSans-30"/>
      </g>
     </g>
    </g>
    <g id="text_40">
     <!-- Fatalities -->
     <g style="fill:#262626;" transform="translate(1285.769875 306.422381)rotate(-270)scale(0.12 -0.12)">
      <defs>
       <path d="M 628 4666 
L 3309 4666 
L 3309 4134 
L 1259 4134 
L 1259 2759 
L 3109 2759 
L 3109 2228 
L 1259 2228 
L 1259 0 
L 628 0 
L 628 4666 
z
" id="DejaVuSans-46" transform="scale(0.015625)"/>
       <path d="M 603 4863 
L 1178 4863 
L 1178 0 
L 603 0 
L 603 4863 
z
" id="DejaVuSans-6c" transform="scale(0.015625)"/>
       <path d="M 603 3500 
L 1178 3500 
L 1178 0 
L 603 0 
L 603 3500 
z
M 603 4863 
L 1178 4863 
L 1178 4134 
L 603 4134 
L 603 4863 
z
" id="DejaVuSans-69" transform="scale(0.015625)"/>
      </defs>
      <use xlink:href="#DejaVuSans-46"/>
      <use x="48.394531" xlink:href="#DejaVuSans-61"/>
      <use x="109.673828" xlink:href="#DejaVuSans-74"/>
      <use x="148.882812" xlink:href="#DejaVuSans-61"/>
      <use x="210.162109" xlink:href="#DejaVuSans-6c"/>
      <use x="237.945312" xlink:href="#DejaVuSans-69"/>
      <use x="265.728516" xlink:href="#DejaVuSans-74"/>
      <use x="304.9375" xlink:href="#DejaVuSans-69"/>
      <use x="332.720703" xlink:href="#DejaVuSans-65"/>
      <use x="394.244141" xlink:href="#DejaVuSans-73"/>
     </g>
    </g>
   </g>
   <g id="line2d_142">
    <path clip-path="url(#pc8eadd1d8f)" d="M 119.982977 609.642018 
L 153.41585 609.572537 
L 156.935099 609.456736 
L 163.973599 609.410416 
L 171.012098 609.132494 
L 183.329473 608.900892 
L 190.367972 608.69245 
L 197.406471 608.599809 
L 202.685346 608.391368 
L 209.723846 608.298727 
L 213.243095 608.113446 
L 222.04122 607.789203 
L 225.560469 607.696562 
L 246.675968 607.048077 
L 255.474092 606.631194 
L 262.512592 606.538553 
L 274.829966 606.237471 
L 276.58959 605.959549 
L 288.906965 605.751107 
L 292.426214 605.658466 
L 299.464714 605.380544 
L 304.743588 605.033141 
L 306.503213 605.033141 
L 308.262838 604.84786 
L 317.060962 604.639418 
L 320.580212 604.477297 
L 322.339837 604.315176 
L 329.378337 604.060414 
L 339.936086 603.458249 
L 343.455335 603.435089 
L 348.73421 602.948725 
L 354.013085 602.717123 
L 355.77271 602.693963 
L 364.570834 601.837036 
L 368.090084 601.767555 
L 371.609333 601.420153 
L 373.368958 601.11907 
L 380.407458 600.655867 
L 382.167083 600.285304 
L 387.445957 599.567338 
L 390.965207 599.335736 
L 392.724832 599.289416 
L 398.003706 598.478809 
L 399.763331 598.432489 
L 401.522956 598.247208 
L 405.042206 598.108246 
L 406.801831 597.784004 
L 415.599955 597.019718 
L 417.35958 597.019718 
L 419.119205 596.602834 
L 420.87883 596.394393 
L 422.638455 596.07015 
L 426.157704 595.676427 
L 427.917329 595.630107 
L 429.676954 595.444825 
L 433.196204 594.77318 
L 436.715453 594.402617 
L 441.994328 593.985734 
L 443.753953 593.962574 
L 445.513578 593.615171 
L 447.273203 593.383569 
L 454.311702 592.966686 
L 457.830952 592.596123 
L 459.590577 592.526642 
L 461.350202 592.29504 
L 470.148326 591.878157 
L 471.907951 591.600235 
L 475.427201 591.368633 
L 477.186825 591.368633 
L 482.4657 590.812789 
L 484.225325 590.534866 
L 487.744575 590.233784 
L 491.263824 590.094823 
L 498.302324 589.261056 
L 501.821574 589.006294 
L 503.581198 588.983134 
L 505.340823 588.45045 
L 508.860073 588.126207 
L 512.379323 587.454562 
L 514.138948 587.22296 
L 519.417822 586.041791 
L 521.177447 585.370146 
L 524.696697 584.6985 
L 528.215947 584.304777 
L 529.975571 583.332049 
L 531.735196 582.753045 
L 533.494821 581.919278 
L 538.773696 580.020143 
L 540.533321 579.5801 
L 542.292946 578.39893 
L 544.05257 576.939839 
L 551.09107 571.844598 
L 552.850695 571.080312 
L 554.61032 568.625333 
L 556.369944 566.772518 
L 558.129569 565.68399 
L 559.889194 564.016456 
L 561.648819 562.047841 
L 565.168069 560.310827 
L 566.927694 556.790479 
L 568.687319 553.756495 
L 572.206568 548.290692 
L 573.966193 545.303028 
L 575.725818 544.330301 
L 577.485443 542.94069 
L 579.245068 538.563415 
L 581.004693 534.927266 
L 582.764317 531.66168 
L 586.283567 524.412543 
L 589.802817 521.309078 
L 591.562442 516.190678 
L 598.600941 501.947165 
L 600.360566 500.117511 
L 602.120191 498.542618 
L 603.879816 493.609499 
L 605.639441 490.228112 
L 609.15869 484.461227 
L 610.918315 480.825078 
L 614.437565 477.906895 
L 616.19719 474.432867 
L 617.956815 470.565116 
L 619.71644 466.141521 
L 621.476065 462.829615 
L 623.235689 459.193466 
L 626.754939 456.576366 
L 628.514564 452.963377 
L 630.274189 450.323116 
L 632.033814 448.030258 
L 635.553063 445.830041 
L 637.312688 444.672031 
L 639.072313 443.722464 
L 640.831938 441.707528 
L 642.591563 438.14086 
L 644.351188 435.59324 
L 646.110813 434.180468 
L 647.870438 433.531983 
L 649.630062 432.605576 
L 651.389687 431.81813 
L 653.149312 428.181981 
L 654.908937 426.630249 
L 660.187812 422.554056 
L 661.947437 422.114013 
L 663.707061 421.442368 
L 665.466686 418.987388 
L 667.226311 417.898859 
L 668.985936 416.277647 
L 670.745561 415.189118 
L 672.505186 413.776347 
L 674.264811 413.382624 
L 676.024435 413.174182 
L 677.78406 411.275047 
L 679.543685 410.140198 
L 681.30331 409.283271 
L 683.062935 407.198855 
L 684.82256 405.855564 
L 688.34181 405.3692 
L 690.101434 403.979589 
L 691.861059 403.145823 
L 695.380309 401.825692 
L 697.139934 401.015086 
L 700.659184 400.158159 
L 702.418808 397.911621 
L 705.938058 396.151447 
L 707.697683 394.900797 
L 709.457308 394.205992 
L 711.216933 393.99755 
L 712.976558 393.534347 
L 714.736183 391.47309 
L 716.495807 390.037159 
L 718.255432 388.994951 
L 721.774682 387.443218 
L 725.293932 386.748413 
L 727.053557 385.659884 
L 728.813181 384.918758 
L 734.092056 382.185857 
L 737.611306 381.421571 
L 739.370931 379.591916 
L 742.89018 377.438019 
L 746.40943 375.07568 
L 748.169055 374.172433 
L 749.92868 373.616589 
L 751.688305 370.906847 
L 753.44793 368.984552 
L 755.207554 368.475028 
L 756.967179 366.321131 
L 758.726804 364.815719 
L 762.246054 363.819831 
L 764.005679 360.345804 
L 765.765304 357.149698 
L 771.044178 350.340605 
L 772.803803 349.460518 
L 774.563428 348.279348 
L 776.323053 343.948394 
L 778.082678 341.470254 
L 779.842303 338.320469 
L 781.601928 335.958131 
L 783.361552 333.29471 
L 785.121177 332.507263 
L 786.880802 331.279774 
L 788.640427 327.365703 
L 790.400052 324.609641 
L 793.919302 319.861803 
L 795.678926 317.800547 
L 797.438551 316.665698 
L 799.198176 315.276087 
L 800.957801 310.57457 
L 802.717426 306.984741 
L 804.477051 303.997078 
L 806.236676 301.310496 
L 807.996301 298.415473 
L 809.755925 296.817421 
L 811.51555 294.918286 
L 813.275175 290.35573 
L 815.0348 287.298585 
L 816.794425 284.612004 
L 820.313675 278.266114 
L 822.073299 277.270226 
L 823.832924 275.718494 
L 825.592549 271.063297 
L 829.111799 265.226931 
L 830.871424 262.725631 
L 832.631049 259.923249 
L 834.390674 259.043162 
L 836.150298 257.723031 
L 837.909923 252.697271 
L 841.429173 247.926274 
L 844.948423 243.108955 
L 846.708048 242.344669 
L 848.467672 241.232981 
L 850.227297 236.739905 
L 851.986922 234.86393 
L 855.506172 230.556136 
L 857.265797 229.83817 
L 860.785047 227.684273 
L 864.304296 224.974532 
L 866.063921 221.176262 
L 867.823546 220.550937 
L 869.583171 218.559161 
L 871.342796 218.188598 
L 873.102421 217.563273 
L 874.862045 214.876692 
L 876.62167 213.510241 
L 881.900545 210.290976 
L 885.419795 209.920413 
L 887.17942 207.974957 
L 892.458294 205.566298 
L 894.217919 204.940973 
L 899.496794 204.037726 
L 901.256419 202.462834 
L 903.016043 201.629067 
L 904.775668 201.165863 
L 906.535293 200.818461 
L 910.054543 200.586859 
L 911.814168 199.706772 
L 915.333417 198.618243 
L 917.093042 197.576035 
L 918.852667 197.159152 
L 922.371917 196.92755 
L 924.131542 196.140104 
L 925.891167 196.001142 
L 931.170041 195.236856 
L 934.689291 195.074735 
L 938.208541 194.333609 
L 941.72779 193.22192 
L 943.487415 193.059799 
L 947.006665 192.990319 
L 950.525915 192.573435 
L 957.564414 192.133392 
L 959.324039 192.133392 
L 962.843289 191.623868 
L 964.602914 191.345946 
L 966.362539 191.206984 
L 968.122163 190.836422 
L 971.641413 190.813261 
L 973.401038 189.863694 
L 978.679913 189.655252 
L 982.199162 189.516291 
L 985.718412 189.42365 
L 987.478037 189.192049 
L 1005.074286 188.288801 
L 1008.593535 188.265641 
L 1013.87241 188.010879 
L 1026.189784 187.455035 
L 1027.949409 187.130792 
L 1029.709034 186.945511 
L 1033.228284 186.85287 
L 1034.987908 186.320186 
L 1036.747533 186.088584 
L 1040.266783 185.324298 
L 1043.786033 184.907415 
L 1045.545658 184.791614 
L 1047.305283 184.050488 
L 1050.824532 183.239881 
L 1052.584157 182.614556 
L 1054.343782 182.128193 
L 1057.863032 181.75763 
L 1059.622657 180.437499 
L 1061.382281 179.673213 
L 1063.141906 178.561524 
L 1064.901531 177.774078 
L 1066.661156 176.77819 
L 1068.420781 176.430787 
L 1070.180406 175.828623 
L 1071.940031 173.304163 
L 1075.45928 170.756543 
L 1078.97853 168.417364 
L 1084.257405 166.147666 
L 1086.01703 163.345284 
L 1087.776654 161.839872 
L 1089.536279 160.635542 
L 1091.295904 158.968009 
L 1093.055529 158.736407 
L 1094.815154 157.508918 
L 1096.574779 154.289652 
L 1098.334404 152.367357 
L 1101.853653 149.310213 
L 1103.613278 147.480558 
L 1105.372903 146.785753 
L 1107.132528 145.789865 
L 1108.892153 142.59376 
L 1110.651778 141.250469 
L 1112.411403 140.625144 
L 1114.171027 138.332286 
L 1115.930652 136.641592 
L 1117.690277 136.039428 
L 1119.449902 135.11302 
L 1121.209527 131.662153 
L 1124.728777 127.632281 
L 1126.488402 126.011068 
L 1128.248026 123.996132 
L 1130.007651 123.393968 
L 1131.767276 122.39808 
L 1133.526901 118.275567 
L 1135.286526 115.866908 
L 1140.565401 109.706299 
L 1142.325025 109.011494 
L 1144.08465 108.085086 
L 1145.844275 104.448937 
L 1149.363525 100.025342 
L 1151.12315 97.755644 
L 1152.882775 95.763869 
L 1156.402024 93.772093 
L 1158.161649 88.815814 
L 1159.921274 85.943951 
L 1161.680899 83.465811 
L 1163.440524 80.686589 
L 1165.200149 77.536804 
L 1166.959774 76.193514 
L 1168.719398 75.267106 
L 1170.479023 69.639182 
L 1172.238648 66.767319 
L 1173.998273 63.200651 
L 1175.757898 60.328788 
L 1177.517523 56.76212 
L 1177.517523 56.76212 
" style="fill:none;stroke:#ff0000;stroke-linecap:round;stroke-width:1.5;"/>
   </g>
   <g id="patch_7">
    <path d="M 67.10625 637.286013 
L 67.10625 29.118125 
" style="fill:none;stroke:#262626;stroke-linecap:square;stroke-linejoin:miter;stroke-width:1.25;"/>
   </g>
   <g id="patch_8">
    <path d="M 1230.39425 637.286013 
L 1230.39425 29.118125 
" style="fill:none;stroke:#262626;stroke-linecap:square;stroke-linejoin:miter;stroke-width:1.25;"/>
   </g>
   <g id="patch_9">
    <path d="M 67.10625 637.286013 
L 1230.39425 637.286013 
" style="fill:none;stroke:#262626;stroke-linecap:square;stroke-linejoin:miter;stroke-width:1.25;"/>
   </g>
   <g id="patch_10">
    <path d="M 67.10625 29.118125 
L 1230.39425 29.118125 
" style="fill:none;stroke:#262626;stroke-linecap:square;stroke-linejoin:miter;stroke-width:1.25;"/>
   </g>
   <g id="legend_1">
    <g id="patch_11">
     <path d="M 74.80625 86.355937 
L 154.975625 86.355937 
Q 157.175625 86.355937 157.175625 84.155937 
L 157.175625 36.818125 
Q 157.175625 34.618125 154.975625 34.618125 
L 74.80625 34.618125 
Q 72.60625 34.618125 72.60625 36.818125 
L 72.60625 84.155937 
Q 72.60625 86.355937 74.80625 86.355937 
z
" style="fill:#ffffff;opacity:0.8;stroke:#cccccc;stroke-linejoin:miter;"/>
    </g>
    <g id="line2d_143">
     <path d="M 77.00625 43.526406 
L 99.00625 43.526406 
" style="fill:none;stroke:#ffa500;stroke-linecap:round;stroke-width:1.5;"/>
    </g>
    <g id="line2d_144"/>
    <g id="text_41">
     <!-- Infected -->
     <g style="fill:#262626;" transform="translate(107.80625 47.376406)scale(0.11 -0.11)">
      <defs>
       <path d="M 628 4666 
L 1259 4666 
L 1259 0 
L 628 0 
L 628 4666 
z
" id="DejaVuSans-49" transform="scale(0.015625)"/>
       <path d="M 3513 2113 
L 3513 0 
L 2938 0 
L 2938 2094 
Q 2938 2591 2744 2837 
Q 2550 3084 2163 3084 
Q 1697 3084 1428 2787 
Q 1159 2491 1159 1978 
L 1159 0 
L 581 0 
L 581 3500 
L 1159 3500 
L 1159 2956 
Q 1366 3272 1645 3428 
Q 1925 3584 2291 3584 
Q 2894 3584 3203 3211 
Q 3513 2838 3513 2113 
z
" id="DejaVuSans-6e" transform="scale(0.015625)"/>
       <path d="M 2375 4863 
L 2375 4384 
L 1825 4384 
Q 1516 4384 1395 4259 
Q 1275 4134 1275 3809 
L 1275 3500 
L 2222 3500 
L 2222 3053 
L 1275 3053 
L 1275 0 
L 697 0 
L 697 3053 
L 147 3053 
L 147 3500 
L 697 3500 
L 697 3744 
Q 697 4328 969 4595 
Q 1241 4863 1831 4863 
L 2375 4863 
z
" id="DejaVuSans-66" transform="scale(0.015625)"/>
       <path d="M 3122 3366 
L 3122 2828 
Q 2878 2963 2633 3030 
Q 2388 3097 2138 3097 
Q 1578 3097 1268 2742 
Q 959 2388 959 1747 
Q 959 1106 1268 751 
Q 1578 397 2138 397 
Q 2388 397 2633 464 
Q 2878 531 3122 666 
L 3122 134 
Q 2881 22 2623 -34 
Q 2366 -91 2075 -91 
Q 1284 -91 818 406 
Q 353 903 353 1747 
Q 353 2603 823 3093 
Q 1294 3584 2113 3584 
Q 2378 3584 2631 3529 
Q 2884 3475 3122 3366 
z
" id="DejaVuSans-63" transform="scale(0.015625)"/>
      </defs>
      <use xlink:href="#DejaVuSans-49"/>
      <use x="29.492188" xlink:href="#DejaVuSans-6e"/>
      <use x="92.871094" xlink:href="#DejaVuSans-66"/>
      <use x="128.076172" xlink:href="#DejaVuSans-65"/>
      <use x="189.599609" xlink:href="#DejaVuSans-63"/>
      <use x="244.580078" xlink:href="#DejaVuSans-74"/>
      <use x="283.789062" xlink:href="#DejaVuSans-65"/>
      <use x="345.3125" xlink:href="#DejaVuSans-64"/>
     </g>
    </g>
    <g id="line2d_145">
     <path d="M 77.00625 59.672344 
L 99.00625 59.672344 
" style="fill:none;stroke:#008000;stroke-linecap:round;stroke-width:1.5;"/>
    </g>
    <g id="line2d_146"/>
    <g id="text_42">
     <!-- Cured -->
     <g style="fill:#262626;" transform="translate(107.80625 63.522344)scale(0.11 -0.11)">
      <defs>
       <path d="M 2631 2963 
Q 2534 3019 2420 3045 
Q 2306 3072 2169 3072 
Q 1681 3072 1420 2755 
Q 1159 2438 1159 1844 
L 1159 0 
L 581 0 
L 581 3500 
L 1159 3500 
L 1159 2956 
Q 1341 3275 1631 3429 
Q 1922 3584 2338 3584 
Q 2397 3584 2469 3576 
Q 2541 3569 2628 3553 
L 2631 2963 
z
" id="DejaVuSans-72" transform="scale(0.015625)"/>
      </defs>
      <use xlink:href="#DejaVuSans-43"/>
      <use x="69.824219" xlink:href="#DejaVuSans-75"/>
      <use x="133.203125" xlink:href="#DejaVuSans-72"/>
      <use x="172.066406" xlink:href="#DejaVuSans-65"/>
      <use x="233.589844" xlink:href="#DejaVuSans-64"/>
     </g>
    </g>
    <g id="line2d_147">
     <path d="M 77.00625 75.818281 
L 99.00625 75.818281 
" style="fill:none;stroke:#ff0000;stroke-linecap:round;stroke-width:1.5;"/>
    </g>
    <g id="line2d_148"/>
    <g id="text_43">
     <!-- Fatal -->
     <g style="fill:#262626;" transform="translate(107.80625 79.668281)scale(0.11 -0.11)">
      <use xlink:href="#DejaVuSans-46"/>
      <use x="48.394531" xlink:href="#DejaVuSans-61"/>
      <use x="109.673828" xlink:href="#DejaVuSans-74"/>
      <use x="148.882812" xlink:href="#DejaVuSans-61"/>
      <use x="210.162109" xlink:href="#DejaVuSans-6c"/>
     </g>
    </g>
   </g>
  </g>
 </g>
 <defs>
  <clipPath id="pc8eadd1d8f">
   <rect height="608.167888" width="1163.288" x="67.10625" y="29.118125"/>
  </clipPath>
 </defs>
</svg>
