<?xml version="1.0" encoding="utf-8" standalone="no"?>
<!DOCTYPE svg PUBLIC "-//W3C//DTD SVG 1.1//EN"
  "http://www.w3.org/Graphics/SVG/1.1/DTD/svg11.dtd">
<svg height="570.462488pt" version="1.1" viewBox="0 0 851.1301 570.462488" width="851.1301pt" xmlns="http://www.w3.org/2000/svg" xmlns:xlink="http://www.w3.org/1999/xlink">
 <metadata>
  <rdf:RDF xmlns:cc="http://creativecommons.org/ns#" xmlns:dc="http://purl.org/dc/elements/1.1/" xmlns:rdf="http://www.w3.org/1999/02/22-rdf-syntax-ns#">
   <cc:Work>
    <dc:type rdf:resource="http://purl.org/dc/dcmitype/StillImage"/>
    <dc:date>2021-11-14T01:07:11.541231</dc:date>
    <dc:format>image/svg+xml</dc:format>
    <dc:creator>
     <cc:Agent>
      <dc:title>Matplotlib v3.4.3, https://matplotlib.org/</dc:title>
     </cc:Agent>
    </dc:creator>
   </cc:Work>
  </rdf:RDF>
 </metadata>
 <defs>
  <style type="text/css">*{stroke-linecap:butt;stroke-linejoin:round;}</style>
 </defs>
 <g id="figure_1">
  <g id="patch_1">
   <path d="M 0 570.462488 
L 851.1301 570.462488 
L 851.1301 0 
L 0 0 
z
" style="fill:none;"/>
  </g>
  <g id="axes_1">
   <g id="patch_2">
    <path d="M 60.1075 493.286013 
L 851.1301 493.286013 
L 851.1301 29.118125 
L 60.1075 29.118125 
z
" style="fill:none;"/>
   </g>
   <g id="matplotlib.axis_1">
    <g id="xtick_1">
     <g id="line2d_1">
      <path clip-path="url(#p4eb6078321)" d="M 96.063073 493.286013 
L 96.063073 29.118125 
" style="fill:none;stroke:#cccccc;stroke-linecap:round;"/>
     </g>
     <g id="line2d_2">
      <defs>
       <path d="M 0 0 
L 0 6 
" id="m0e239ba2bb" style="stroke:#262626;stroke-width:1.25;"/>
      </defs>
      <g>
       <use style="fill:#262626;stroke:#262626;stroke-width:1.25;" x="96.063073" xlink:href="#m0e239ba2bb" y="493.286013"/>
      </g>
     </g>
     <g id="text_1">
      <!-- 05.04.2020 -->
      <g style="fill:#262626;" transform="translate(49.910545 553.231121)rotate(-45)scale(0.11 -0.11)">
       <defs>
        <path d="M 2034 4250 
Q 1547 4250 1301 3770 
Q 1056 3291 1056 2328 
Q 1056 1369 1301 889 
Q 1547 409 2034 409 
Q 2525 409 2770 889 
Q 3016 1369 3016 2328 
Q 3016 3291 2770 3770 
Q 2525 4250 2034 4250 
z
M 2034 4750 
Q 2819 4750 3233 4129 
Q 3647 3509 3647 2328 
Q 3647 1150 3233 529 
Q 2819 -91 2034 -91 
Q 1250 -91 836 529 
Q 422 1150 422 2328 
Q 422 3509 836 4129 
Q 1250 4750 2034 4750 
z
" id="DejaVuSans-30" transform="scale(0.015625)"/>
        <path d="M 691 4666 
L 3169 4666 
L 3169 4134 
L 1269 4134 
L 1269 2991 
Q 1406 3038 1543 3061 
Q 1681 3084 1819 3084 
Q 2600 3084 3056 2656 
Q 3513 2228 3513 1497 
Q 3513 744 3044 326 
Q 2575 -91 1722 -91 
Q 1428 -91 1123 -41 
Q 819 9 494 109 
L 494 744 
Q 775 591 1075 516 
Q 1375 441 1709 441 
Q 2250 441 2565 725 
Q 2881 1009 2881 1497 
Q 2881 1984 2565 2268 
Q 2250 2553 1709 2553 
Q 1456 2553 1204 2497 
Q 953 2441 691 2322 
L 691 4666 
z
" id="DejaVuSans-35" transform="scale(0.015625)"/>
        <path d="M 684 794 
L 1344 794 
L 1344 0 
L 684 0 
L 684 794 
z
" id="DejaVuSans-2e" transform="scale(0.015625)"/>
        <path d="M 2419 4116 
L 825 1625 
L 2419 1625 
L 2419 4116 
z
M 2253 4666 
L 3047 4666 
L 3047 1625 
L 3713 1625 
L 3713 1100 
L 3047 1100 
L 3047 0 
L 2419 0 
L 2419 1100 
L 313 1100 
L 313 1709 
L 2253 4666 
z
" id="DejaVuSans-34" transform="scale(0.015625)"/>
        <path d="M 1228 531 
L 3431 531 
L 3431 0 
L 469 0 
L 469 531 
Q 828 903 1448 1529 
Q 2069 2156 2228 2338 
Q 2531 2678 2651 2914 
Q 2772 3150 2772 3378 
Q 2772 3750 2511 3984 
Q 2250 4219 1831 4219 
Q 1534 4219 1204 4116 
Q 875 4013 500 3803 
L 500 4441 
Q 881 4594 1212 4672 
Q 1544 4750 1819 4750 
Q 2544 4750 2975 4387 
Q 3406 4025 3406 3419 
Q 3406 3131 3298 2873 
Q 3191 2616 2906 2266 
Q 2828 2175 2409 1742 
Q 1991 1309 1228 531 
z
" id="DejaVuSans-32" transform="scale(0.015625)"/>
       </defs>
       <use xlink:href="#DejaVuSans-30"/>
       <use x="63.623047" xlink:href="#DejaVuSans-35"/>
       <use x="127.246094" xlink:href="#DejaVuSans-2e"/>
       <use x="159.033203" xlink:href="#DejaVuSans-30"/>
       <use x="222.65625" xlink:href="#DejaVuSans-34"/>
       <use x="286.279297" xlink:href="#DejaVuSans-2e"/>
       <use x="318.066406" xlink:href="#DejaVuSans-32"/>
       <use x="381.689453" xlink:href="#DejaVuSans-30"/>
       <use x="445.3125" xlink:href="#DejaVuSans-32"/>
       <use x="508.935547" xlink:href="#DejaVuSans-30"/>
      </g>
     </g>
    </g>
    <g id="xtick_2">
     <g id="line2d_3">
      <path clip-path="url(#p4eb6078321)" d="M 130.364812 493.286013 
L 130.364812 29.118125 
" style="fill:none;stroke:#cccccc;stroke-linecap:round;"/>
     </g>
     <g id="line2d_4">
      <g>
       <use style="fill:#262626;stroke:#262626;stroke-width:1.25;" x="130.364812" xlink:href="#m0e239ba2bb" y="493.286013"/>
      </g>
     </g>
     <g id="text_2">
      <!-- 03.05.2020 -->
      <g style="fill:#262626;" transform="translate(84.212283 553.231121)rotate(-45)scale(0.11 -0.11)">
       <defs>
        <path d="M 2597 2516 
Q 3050 2419 3304 2112 
Q 3559 1806 3559 1356 
Q 3559 666 3084 287 
Q 2609 -91 1734 -91 
Q 1441 -91 1130 -33 
Q 819 25 488 141 
L 488 750 
Q 750 597 1062 519 
Q 1375 441 1716 441 
Q 2309 441 2620 675 
Q 2931 909 2931 1356 
Q 2931 1769 2642 2001 
Q 2353 2234 1838 2234 
L 1294 2234 
L 1294 2753 
L 1863 2753 
Q 2328 2753 2575 2939 
Q 2822 3125 2822 3475 
Q 2822 3834 2567 4026 
Q 2313 4219 1838 4219 
Q 1578 4219 1281 4162 
Q 984 4106 628 3988 
L 628 4550 
Q 988 4650 1302 4700 
Q 1616 4750 1894 4750 
Q 2613 4750 3031 4423 
Q 3450 4097 3450 3541 
Q 3450 3153 3228 2886 
Q 3006 2619 2597 2516 
z
" id="DejaVuSans-33" transform="scale(0.015625)"/>
       </defs>
       <use xlink:href="#DejaVuSans-30"/>
       <use x="63.623047" xlink:href="#DejaVuSans-33"/>
       <use x="127.246094" xlink:href="#DejaVuSans-2e"/>
       <use x="159.033203" xlink:href="#DejaVuSans-30"/>
       <use x="222.65625" xlink:href="#DejaVuSans-35"/>
       <use x="286.279297" xlink:href="#DejaVuSans-2e"/>
       <use x="318.066406" xlink:href="#DejaVuSans-32"/>
       <use x="381.689453" xlink:href="#DejaVuSans-30"/>
       <use x="445.3125" xlink:href="#DejaVuSans-32"/>
       <use x="508.935547" xlink:href="#DejaVuSans-30"/>
      </g>
     </g>
    </g>
    <g id="xtick_3">
     <g id="line2d_5">
      <path clip-path="url(#p4eb6078321)" d="M 164.666551 493.286013 
L 164.666551 29.118125 
" style="fill:none;stroke:#cccccc;stroke-linecap:round;"/>
     </g>
     <g id="line2d_6">
      <g>
       <use style="fill:#262626;stroke:#262626;stroke-width:1.25;" x="164.666551" xlink:href="#m0e239ba2bb" y="493.286013"/>
      </g>
     </g>
     <g id="text_3">
      <!-- 31.05.2020 -->
      <g style="fill:#262626;" transform="translate(118.514022 553.231121)rotate(-45)scale(0.11 -0.11)">
       <defs>
        <path d="M 794 531 
L 1825 531 
L 1825 4091 
L 703 3866 
L 703 4441 
L 1819 4666 
L 2450 4666 
L 2450 531 
L 3481 531 
L 3481 0 
L 794 0 
L 794 531 
z
" id="DejaVuSans-31" transform="scale(0.015625)"/>
       </defs>
       <use xlink:href="#DejaVuSans-33"/>
       <use x="63.623047" xlink:href="#DejaVuSans-31"/>
       <use x="127.246094" xlink:href="#DejaVuSans-2e"/>
       <use x="159.033203" xlink:href="#DejaVuSans-30"/>
       <use x="222.65625" xlink:href="#DejaVuSans-35"/>
       <use x="286.279297" xlink:href="#DejaVuSans-2e"/>
       <use x="318.066406" xlink:href="#DejaVuSans-32"/>
       <use x="381.689453" xlink:href="#DejaVuSans-30"/>
       <use x="445.3125" xlink:href="#DejaVuSans-32"/>
       <use x="508.935547" xlink:href="#DejaVuSans-30"/>
      </g>
     </g>
    </g>
    <g id="xtick_4">
     <g id="line2d_7">
      <path clip-path="url(#p4eb6078321)" d="M 198.968289 493.286013 
L 198.968289 29.118125 
" style="fill:none;stroke:#cccccc;stroke-linecap:round;"/>
     </g>
     <g id="line2d_8">
      <g>
       <use style="fill:#262626;stroke:#262626;stroke-width:1.25;" x="198.968289" xlink:href="#m0e239ba2bb" y="493.286013"/>
      </g>
     </g>
     <g id="text_4">
      <!-- 28.06.2020 -->
      <g style="fill:#262626;" transform="translate(152.815761 553.231121)rotate(-45)scale(0.11 -0.11)">
       <defs>
        <path d="M 2034 2216 
Q 1584 2216 1326 1975 
Q 1069 1734 1069 1313 
Q 1069 891 1326 650 
Q 1584 409 2034 409 
Q 2484 409 2743 651 
Q 3003 894 3003 1313 
Q 3003 1734 2745 1975 
Q 2488 2216 2034 2216 
z
M 1403 2484 
Q 997 2584 770 2862 
Q 544 3141 544 3541 
Q 544 4100 942 4425 
Q 1341 4750 2034 4750 
Q 2731 4750 3128 4425 
Q 3525 4100 3525 3541 
Q 3525 3141 3298 2862 
Q 3072 2584 2669 2484 
Q 3125 2378 3379 2068 
Q 3634 1759 3634 1313 
Q 3634 634 3220 271 
Q 2806 -91 2034 -91 
Q 1263 -91 848 271 
Q 434 634 434 1313 
Q 434 1759 690 2068 
Q 947 2378 1403 2484 
z
M 1172 3481 
Q 1172 3119 1398 2916 
Q 1625 2713 2034 2713 
Q 2441 2713 2670 2916 
Q 2900 3119 2900 3481 
Q 2900 3844 2670 4047 
Q 2441 4250 2034 4250 
Q 1625 4250 1398 4047 
Q 1172 3844 1172 3481 
z
" id="DejaVuSans-38" transform="scale(0.015625)"/>
        <path d="M 2113 2584 
Q 1688 2584 1439 2293 
Q 1191 2003 1191 1497 
Q 1191 994 1439 701 
Q 1688 409 2113 409 
Q 2538 409 2786 701 
Q 3034 994 3034 1497 
Q 3034 2003 2786 2293 
Q 2538 2584 2113 2584 
z
M 3366 4563 
L 3366 3988 
Q 3128 4100 2886 4159 
Q 2644 4219 2406 4219 
Q 1781 4219 1451 3797 
Q 1122 3375 1075 2522 
Q 1259 2794 1537 2939 
Q 1816 3084 2150 3084 
Q 2853 3084 3261 2657 
Q 3669 2231 3669 1497 
Q 3669 778 3244 343 
Q 2819 -91 2113 -91 
Q 1303 -91 875 529 
Q 447 1150 447 2328 
Q 447 3434 972 4092 
Q 1497 4750 2381 4750 
Q 2619 4750 2861 4703 
Q 3103 4656 3366 4563 
z
" id="DejaVuSans-36" transform="scale(0.015625)"/>
       </defs>
       <use xlink:href="#DejaVuSans-32"/>
       <use x="63.623047" xlink:href="#DejaVuSans-38"/>
       <use x="127.246094" xlink:href="#DejaVuSans-2e"/>
       <use x="159.033203" xlink:href="#DejaVuSans-30"/>
       <use x="222.65625" xlink:href="#DejaVuSans-36"/>
       <use x="286.279297" xlink:href="#DejaVuSans-2e"/>
       <use x="318.066406" xlink:href="#DejaVuSans-32"/>
       <use x="381.689453" xlink:href="#DejaVuSans-30"/>
       <use x="445.3125" xlink:href="#DejaVuSans-32"/>
       <use x="508.935547" xlink:href="#DejaVuSans-30"/>
      </g>
     </g>
    </g>
    <g id="xtick_5">
     <g id="line2d_9">
      <path clip-path="url(#p4eb6078321)" d="M 233.270028 493.286013 
L 233.270028 29.118125 
" style="fill:none;stroke:#cccccc;stroke-linecap:round;"/>
     </g>
     <g id="line2d_10">
      <g>
       <use style="fill:#262626;stroke:#262626;stroke-width:1.25;" x="233.270028" xlink:href="#m0e239ba2bb" y="493.286013"/>
      </g>
     </g>
     <g id="text_5">
      <!-- 26.07.2020 -->
      <g style="fill:#262626;" transform="translate(187.1175 553.231121)rotate(-45)scale(0.11 -0.11)">
       <defs>
        <path d="M 525 4666 
L 3525 4666 
L 3525 4397 
L 1831 0 
L 1172 0 
L 2766 4134 
L 525 4134 
L 525 4666 
z
" id="DejaVuSans-37" transform="scale(0.015625)"/>
       </defs>
       <use xlink:href="#DejaVuSans-32"/>
       <use x="63.623047" xlink:href="#DejaVuSans-36"/>
       <use x="127.246094" xlink:href="#DejaVuSans-2e"/>
       <use x="159.033203" xlink:href="#DejaVuSans-30"/>
       <use x="222.65625" xlink:href="#DejaVuSans-37"/>
       <use x="286.279297" xlink:href="#DejaVuSans-2e"/>
       <use x="318.066406" xlink:href="#DejaVuSans-32"/>
       <use x="381.689453" xlink:href="#DejaVuSans-30"/>
       <use x="445.3125" xlink:href="#DejaVuSans-32"/>
       <use x="508.935547" xlink:href="#DejaVuSans-30"/>
      </g>
     </g>
    </g>
    <g id="xtick_6">
     <g id="line2d_11">
      <path clip-path="url(#p4eb6078321)" d="M 267.571767 493.286013 
L 267.571767 29.118125 
" style="fill:none;stroke:#cccccc;stroke-linecap:round;"/>
     </g>
     <g id="line2d_12">
      <g>
       <use style="fill:#262626;stroke:#262626;stroke-width:1.25;" x="267.571767" xlink:href="#m0e239ba2bb" y="493.286013"/>
      </g>
     </g>
     <g id="text_6">
      <!-- 23.08.2020 -->
      <g style="fill:#262626;" transform="translate(221.419239 553.231121)rotate(-45)scale(0.11 -0.11)">
       <use xlink:href="#DejaVuSans-32"/>
       <use x="63.623047" xlink:href="#DejaVuSans-33"/>
       <use x="127.246094" xlink:href="#DejaVuSans-2e"/>
       <use x="159.033203" xlink:href="#DejaVuSans-30"/>
       <use x="222.65625" xlink:href="#DejaVuSans-38"/>
       <use x="286.279297" xlink:href="#DejaVuSans-2e"/>
       <use x="318.066406" xlink:href="#DejaVuSans-32"/>
       <use x="381.689453" xlink:href="#DejaVuSans-30"/>
       <use x="445.3125" xlink:href="#DejaVuSans-32"/>
       <use x="508.935547" xlink:href="#DejaVuSans-30"/>
      </g>
     </g>
    </g>
    <g id="xtick_7">
     <g id="line2d_13">
      <path clip-path="url(#p4eb6078321)" d="M 301.873506 493.286013 
L 301.873506 29.118125 
" style="fill:none;stroke:#cccccc;stroke-linecap:round;"/>
     </g>
     <g id="line2d_14">
      <g>
       <use style="fill:#262626;stroke:#262626;stroke-width:1.25;" x="301.873506" xlink:href="#m0e239ba2bb" y="493.286013"/>
      </g>
     </g>
     <g id="text_7">
      <!-- 20.09.2020 -->
      <g style="fill:#262626;" transform="translate(255.720978 553.231121)rotate(-45)scale(0.11 -0.11)">
       <defs>
        <path d="M 703 97 
L 703 672 
Q 941 559 1184 500 
Q 1428 441 1663 441 
Q 2288 441 2617 861 
Q 2947 1281 2994 2138 
Q 2813 1869 2534 1725 
Q 2256 1581 1919 1581 
Q 1219 1581 811 2004 
Q 403 2428 403 3163 
Q 403 3881 828 4315 
Q 1253 4750 1959 4750 
Q 2769 4750 3195 4129 
Q 3622 3509 3622 2328 
Q 3622 1225 3098 567 
Q 2575 -91 1691 -91 
Q 1453 -91 1209 -44 
Q 966 3 703 97 
z
M 1959 2075 
Q 2384 2075 2632 2365 
Q 2881 2656 2881 3163 
Q 2881 3666 2632 3958 
Q 2384 4250 1959 4250 
Q 1534 4250 1286 3958 
Q 1038 3666 1038 3163 
Q 1038 2656 1286 2365 
Q 1534 2075 1959 2075 
z
" id="DejaVuSans-39" transform="scale(0.015625)"/>
       </defs>
       <use xlink:href="#DejaVuSans-32"/>
       <use x="63.623047" xlink:href="#DejaVuSans-30"/>
       <use x="127.246094" xlink:href="#DejaVuSans-2e"/>
       <use x="159.033203" xlink:href="#DejaVuSans-30"/>
       <use x="222.65625" xlink:href="#DejaVuSans-39"/>
       <use x="286.279297" xlink:href="#DejaVuSans-2e"/>
       <use x="318.066406" xlink:href="#DejaVuSans-32"/>
       <use x="381.689453" xlink:href="#DejaVuSans-30"/>
       <use x="445.3125" xlink:href="#DejaVuSans-32"/>
       <use x="508.935547" xlink:href="#DejaVuSans-30"/>
      </g>
     </g>
    </g>
    <g id="xtick_8">
     <g id="line2d_15">
      <path clip-path="url(#p4eb6078321)" d="M 336.175245 493.286013 
L 336.175245 29.118125 
" style="fill:none;stroke:#cccccc;stroke-linecap:round;"/>
     </g>
     <g id="line2d_16">
      <g>
       <use style="fill:#262626;stroke:#262626;stroke-width:1.25;" x="336.175245" xlink:href="#m0e239ba2bb" y="493.286013"/>
      </g>
     </g>
     <g id="text_8">
      <!-- 18.10.2020 -->
      <g style="fill:#262626;" transform="translate(290.022717 553.231121)rotate(-45)scale(0.11 -0.11)">
       <use xlink:href="#DejaVuSans-31"/>
       <use x="63.623047" xlink:href="#DejaVuSans-38"/>
       <use x="127.246094" xlink:href="#DejaVuSans-2e"/>
       <use x="159.033203" xlink:href="#DejaVuSans-31"/>
       <use x="222.65625" xlink:href="#DejaVuSans-30"/>
       <use x="286.279297" xlink:href="#DejaVuSans-2e"/>
       <use x="318.066406" xlink:href="#DejaVuSans-32"/>
       <use x="381.689453" xlink:href="#DejaVuSans-30"/>
       <use x="445.3125" xlink:href="#DejaVuSans-32"/>
       <use x="508.935547" xlink:href="#DejaVuSans-30"/>
      </g>
     </g>
    </g>
    <g id="xtick_9">
     <g id="line2d_17">
      <path clip-path="url(#p4eb6078321)" d="M 370.476984 493.286013 
L 370.476984 29.118125 
" style="fill:none;stroke:#cccccc;stroke-linecap:round;"/>
     </g>
     <g id="line2d_18">
      <g>
       <use style="fill:#262626;stroke:#262626;stroke-width:1.25;" x="370.476984" xlink:href="#m0e239ba2bb" y="493.286013"/>
      </g>
     </g>
     <g id="text_9">
      <!-- 15.11.2020 -->
      <g style="fill:#262626;" transform="translate(324.324456 553.231121)rotate(-45)scale(0.11 -0.11)">
       <use xlink:href="#DejaVuSans-31"/>
       <use x="63.623047" xlink:href="#DejaVuSans-35"/>
       <use x="127.246094" xlink:href="#DejaVuSans-2e"/>
       <use x="159.033203" xlink:href="#DejaVuSans-31"/>
       <use x="222.65625" xlink:href="#DejaVuSans-31"/>
       <use x="286.279297" xlink:href="#DejaVuSans-2e"/>
       <use x="318.066406" xlink:href="#DejaVuSans-32"/>
       <use x="381.689453" xlink:href="#DejaVuSans-30"/>
       <use x="445.3125" xlink:href="#DejaVuSans-32"/>
       <use x="508.935547" xlink:href="#DejaVuSans-30"/>
      </g>
     </g>
    </g>
    <g id="xtick_10">
     <g id="line2d_19">
      <path clip-path="url(#p4eb6078321)" d="M 404.778723 493.286013 
L 404.778723 29.118125 
" style="fill:none;stroke:#cccccc;stroke-linecap:round;"/>
     </g>
     <g id="line2d_20">
      <g>
       <use style="fill:#262626;stroke:#262626;stroke-width:1.25;" x="404.778723" xlink:href="#m0e239ba2bb" y="493.286013"/>
      </g>
     </g>
     <g id="text_10">
      <!-- 13.12.2020 -->
      <g style="fill:#262626;" transform="translate(358.626195 553.231121)rotate(-45)scale(0.11 -0.11)">
       <use xlink:href="#DejaVuSans-31"/>
       <use x="63.623047" xlink:href="#DejaVuSans-33"/>
       <use x="127.246094" xlink:href="#DejaVuSans-2e"/>
       <use x="159.033203" xlink:href="#DejaVuSans-31"/>
       <use x="222.65625" xlink:href="#DejaVuSans-32"/>
       <use x="286.279297" xlink:href="#DejaVuSans-2e"/>
       <use x="318.066406" xlink:href="#DejaVuSans-32"/>
       <use x="381.689453" xlink:href="#DejaVuSans-30"/>
       <use x="445.3125" xlink:href="#DejaVuSans-32"/>
       <use x="508.935547" xlink:href="#DejaVuSans-30"/>
      </g>
     </g>
    </g>
    <g id="xtick_11">
     <g id="line2d_21">
      <path clip-path="url(#p4eb6078321)" d="M 439.080462 493.286013 
L 439.080462 29.118125 
" style="fill:none;stroke:#cccccc;stroke-linecap:round;"/>
     </g>
     <g id="line2d_22">
      <g>
       <use style="fill:#262626;stroke:#262626;stroke-width:1.25;" x="439.080462" xlink:href="#m0e239ba2bb" y="493.286013"/>
      </g>
     </g>
     <g id="text_11">
      <!-- 10.01.2021 -->
      <g style="fill:#262626;" transform="translate(392.927933 553.231121)rotate(-45)scale(0.11 -0.11)">
       <use xlink:href="#DejaVuSans-31"/>
       <use x="63.623047" xlink:href="#DejaVuSans-30"/>
       <use x="127.246094" xlink:href="#DejaVuSans-2e"/>
       <use x="159.033203" xlink:href="#DejaVuSans-30"/>
       <use x="222.65625" xlink:href="#DejaVuSans-31"/>
       <use x="286.279297" xlink:href="#DejaVuSans-2e"/>
       <use x="318.066406" xlink:href="#DejaVuSans-32"/>
       <use x="381.689453" xlink:href="#DejaVuSans-30"/>
       <use x="445.3125" xlink:href="#DejaVuSans-32"/>
       <use x="508.935547" xlink:href="#DejaVuSans-31"/>
      </g>
     </g>
    </g>
    <g id="xtick_12">
     <g id="line2d_23">
      <path clip-path="url(#p4eb6078321)" d="M 473.3822 493.286013 
L 473.3822 29.118125 
" style="fill:none;stroke:#cccccc;stroke-linecap:round;"/>
     </g>
     <g id="line2d_24">
      <g>
       <use style="fill:#262626;stroke:#262626;stroke-width:1.25;" x="473.3822" xlink:href="#m0e239ba2bb" y="493.286013"/>
      </g>
     </g>
     <g id="text_12">
      <!-- 07.02.2021 -->
      <g style="fill:#262626;" transform="translate(427.229672 553.231121)rotate(-45)scale(0.11 -0.11)">
       <use xlink:href="#DejaVuSans-30"/>
       <use x="63.623047" xlink:href="#DejaVuSans-37"/>
       <use x="127.246094" xlink:href="#DejaVuSans-2e"/>
       <use x="159.033203" xlink:href="#DejaVuSans-30"/>
       <use x="222.65625" xlink:href="#DejaVuSans-32"/>
       <use x="286.279297" xlink:href="#DejaVuSans-2e"/>
       <use x="318.066406" xlink:href="#DejaVuSans-32"/>
       <use x="381.689453" xlink:href="#DejaVuSans-30"/>
       <use x="445.3125" xlink:href="#DejaVuSans-32"/>
       <use x="508.935547" xlink:href="#DejaVuSans-31"/>
      </g>
     </g>
    </g>
    <g id="xtick_13">
     <g id="line2d_25">
      <path clip-path="url(#p4eb6078321)" d="M 507.683939 493.286013 
L 507.683939 29.118125 
" style="fill:none;stroke:#cccccc;stroke-linecap:round;"/>
     </g>
     <g id="line2d_26">
      <g>
       <use style="fill:#262626;stroke:#262626;stroke-width:1.25;" x="507.683939" xlink:href="#m0e239ba2bb" y="493.286013"/>
      </g>
     </g>
     <g id="text_13">
      <!-- 07.03.2021 -->
      <g style="fill:#262626;" transform="translate(461.531411 553.231121)rotate(-45)scale(0.11 -0.11)">
       <use xlink:href="#DejaVuSans-30"/>
       <use x="63.623047" xlink:href="#DejaVuSans-37"/>
       <use x="127.246094" xlink:href="#DejaVuSans-2e"/>
       <use x="159.033203" xlink:href="#DejaVuSans-30"/>
       <use x="222.65625" xlink:href="#DejaVuSans-33"/>
       <use x="286.279297" xlink:href="#DejaVuSans-2e"/>
       <use x="318.066406" xlink:href="#DejaVuSans-32"/>
       <use x="381.689453" xlink:href="#DejaVuSans-30"/>
       <use x="445.3125" xlink:href="#DejaVuSans-32"/>
       <use x="508.935547" xlink:href="#DejaVuSans-31"/>
      </g>
     </g>
    </g>
    <g id="xtick_14">
     <g id="line2d_27">
      <path clip-path="url(#p4eb6078321)" d="M 541.985678 493.286013 
L 541.985678 29.118125 
" style="fill:none;stroke:#cccccc;stroke-linecap:round;"/>
     </g>
     <g id="line2d_28">
      <g>
       <use style="fill:#262626;stroke:#262626;stroke-width:1.25;" x="541.985678" xlink:href="#m0e239ba2bb" y="493.286013"/>
      </g>
     </g>
     <g id="text_14">
      <!-- 04.04.2021 -->
      <g style="fill:#262626;" transform="translate(495.83315 553.231121)rotate(-45)scale(0.11 -0.11)">
       <use xlink:href="#DejaVuSans-30"/>
       <use x="63.623047" xlink:href="#DejaVuSans-34"/>
       <use x="127.246094" xlink:href="#DejaVuSans-2e"/>
       <use x="159.033203" xlink:href="#DejaVuSans-30"/>
       <use x="222.65625" xlink:href="#DejaVuSans-34"/>
       <use x="286.279297" xlink:href="#DejaVuSans-2e"/>
       <use x="318.066406" xlink:href="#DejaVuSans-32"/>
       <use x="381.689453" xlink:href="#DejaVuSans-30"/>
       <use x="445.3125" xlink:href="#DejaVuSans-32"/>
       <use x="508.935547" xlink:href="#DejaVuSans-31"/>
      </g>
     </g>
    </g>
    <g id="xtick_15">
     <g id="line2d_29">
      <path clip-path="url(#p4eb6078321)" d="M 576.287417 493.286013 
L 576.287417 29.118125 
" style="fill:none;stroke:#cccccc;stroke-linecap:round;"/>
     </g>
     <g id="line2d_30">
      <g>
       <use style="fill:#262626;stroke:#262626;stroke-width:1.25;" x="576.287417" xlink:href="#m0e239ba2bb" y="493.286013"/>
      </g>
     </g>
     <g id="text_15">
      <!-- 02.05.2021 -->
      <g style="fill:#262626;" transform="translate(530.134889 553.231121)rotate(-45)scale(0.11 -0.11)">
       <use xlink:href="#DejaVuSans-30"/>
       <use x="63.623047" xlink:href="#DejaVuSans-32"/>
       <use x="127.246094" xlink:href="#DejaVuSans-2e"/>
       <use x="159.033203" xlink:href="#DejaVuSans-30"/>
       <use x="222.65625" xlink:href="#DejaVuSans-35"/>
       <use x="286.279297" xlink:href="#DejaVuSans-2e"/>
       <use x="318.066406" xlink:href="#DejaVuSans-32"/>
       <use x="381.689453" xlink:href="#DejaVuSans-30"/>
       <use x="445.3125" xlink:href="#DejaVuSans-32"/>
       <use x="508.935547" xlink:href="#DejaVuSans-31"/>
      </g>
     </g>
    </g>
    <g id="xtick_16">
     <g id="line2d_31">
      <path clip-path="url(#p4eb6078321)" d="M 610.589156 493.286013 
L 610.589156 29.118125 
" style="fill:none;stroke:#cccccc;stroke-linecap:round;"/>
     </g>
     <g id="line2d_32">
      <g>
       <use style="fill:#262626;stroke:#262626;stroke-width:1.25;" x="610.589156" xlink:href="#m0e239ba2bb" y="493.286013"/>
      </g>
     </g>
     <g id="text_16">
      <!-- 30.05.2021 -->
      <g style="fill:#262626;" transform="translate(564.436628 553.231121)rotate(-45)scale(0.11 -0.11)">
       <use xlink:href="#DejaVuSans-33"/>
       <use x="63.623047" xlink:href="#DejaVuSans-30"/>
       <use x="127.246094" xlink:href="#DejaVuSans-2e"/>
       <use x="159.033203" xlink:href="#DejaVuSans-30"/>
       <use x="222.65625" xlink:href="#DejaVuSans-35"/>
       <use x="286.279297" xlink:href="#DejaVuSans-2e"/>
       <use x="318.066406" xlink:href="#DejaVuSans-32"/>
       <use x="381.689453" xlink:href="#DejaVuSans-30"/>
       <use x="445.3125" xlink:href="#DejaVuSans-32"/>
       <use x="508.935547" xlink:href="#DejaVuSans-31"/>
      </g>
     </g>
    </g>
    <g id="xtick_17">
     <g id="line2d_33">
      <path clip-path="url(#p4eb6078321)" d="M 644.890895 493.286013 
L 644.890895 29.118125 
" style="fill:none;stroke:#cccccc;stroke-linecap:round;"/>
     </g>
     <g id="line2d_34">
      <g>
       <use style="fill:#262626;stroke:#262626;stroke-width:1.25;" x="644.890895" xlink:href="#m0e239ba2bb" y="493.286013"/>
      </g>
     </g>
     <g id="text_17">
      <!-- 27.06.2021 -->
      <g style="fill:#262626;" transform="translate(598.738367 553.231121)rotate(-45)scale(0.11 -0.11)">
       <use xlink:href="#DejaVuSans-32"/>
       <use x="63.623047" xlink:href="#DejaVuSans-37"/>
       <use x="127.246094" xlink:href="#DejaVuSans-2e"/>
       <use x="159.033203" xlink:href="#DejaVuSans-30"/>
       <use x="222.65625" xlink:href="#DejaVuSans-36"/>
       <use x="286.279297" xlink:href="#DejaVuSans-2e"/>
       <use x="318.066406" xlink:href="#DejaVuSans-32"/>
       <use x="381.689453" xlink:href="#DejaVuSans-30"/>
       <use x="445.3125" xlink:href="#DejaVuSans-32"/>
       <use x="508.935547" xlink:href="#DejaVuSans-31"/>
      </g>
     </g>
    </g>
    <g id="xtick_18">
     <g id="line2d_35">
      <path clip-path="url(#p4eb6078321)" d="M 679.192634 493.286013 
L 679.192634 29.118125 
" style="fill:none;stroke:#cccccc;stroke-linecap:round;"/>
     </g>
     <g id="line2d_36">
      <g>
       <use style="fill:#262626;stroke:#262626;stroke-width:1.25;" x="679.192634" xlink:href="#m0e239ba2bb" y="493.286013"/>
      </g>
     </g>
     <g id="text_18">
      <!-- 25.07.2021 -->
      <g style="fill:#262626;" transform="translate(633.040106 553.231121)rotate(-45)scale(0.11 -0.11)">
       <use xlink:href="#DejaVuSans-32"/>
       <use x="63.623047" xlink:href="#DejaVuSans-35"/>
       <use x="127.246094" xlink:href="#DejaVuSans-2e"/>
       <use x="159.033203" xlink:href="#DejaVuSans-30"/>
       <use x="222.65625" xlink:href="#DejaVuSans-37"/>
       <use x="286.279297" xlink:href="#DejaVuSans-2e"/>
       <use x="318.066406" xlink:href="#DejaVuSans-32"/>
       <use x="381.689453" xlink:href="#DejaVuSans-30"/>
       <use x="445.3125" xlink:href="#DejaVuSans-32"/>
       <use x="508.935547" xlink:href="#DejaVuSans-31"/>
      </g>
     </g>
    </g>
    <g id="xtick_19">
     <g id="line2d_37">
      <path clip-path="url(#p4eb6078321)" d="M 713.494373 493.286013 
L 713.494373 29.118125 
" style="fill:none;stroke:#cccccc;stroke-linecap:round;"/>
     </g>
     <g id="line2d_38">
      <g>
       <use style="fill:#262626;stroke:#262626;stroke-width:1.25;" x="713.494373" xlink:href="#m0e239ba2bb" y="493.286013"/>
      </g>
     </g>
     <g id="text_19">
      <!-- 22.08.2021 -->
      <g style="fill:#262626;" transform="translate(667.341845 553.231121)rotate(-45)scale(0.11 -0.11)">
       <use xlink:href="#DejaVuSans-32"/>
       <use x="63.623047" xlink:href="#DejaVuSans-32"/>
       <use x="127.246094" xlink:href="#DejaVuSans-2e"/>
       <use x="159.033203" xlink:href="#DejaVuSans-30"/>
       <use x="222.65625" xlink:href="#DejaVuSans-38"/>
       <use x="286.279297" xlink:href="#DejaVuSans-2e"/>
       <use x="318.066406" xlink:href="#DejaVuSans-32"/>
       <use x="381.689453" xlink:href="#DejaVuSans-30"/>
       <use x="445.3125" xlink:href="#DejaVuSans-32"/>
       <use x="508.935547" xlink:href="#DejaVuSans-31"/>
      </g>
     </g>
    </g>
    <g id="xtick_20">
     <g id="line2d_39">
      <path clip-path="url(#p4eb6078321)" d="M 747.796112 493.286013 
L 747.796112 29.118125 
" style="fill:none;stroke:#cccccc;stroke-linecap:round;"/>
     </g>
     <g id="line2d_40">
      <g>
       <use style="fill:#262626;stroke:#262626;stroke-width:1.25;" x="747.796112" xlink:href="#m0e239ba2bb" y="493.286013"/>
      </g>
     </g>
     <g id="text_20">
      <!-- 19.09.2021 -->
      <g style="fill:#262626;" transform="translate(701.643583 553.231121)rotate(-45)scale(0.11 -0.11)">
       <use xlink:href="#DejaVuSans-31"/>
       <use x="63.623047" xlink:href="#DejaVuSans-39"/>
       <use x="127.246094" xlink:href="#DejaVuSans-2e"/>
       <use x="159.033203" xlink:href="#DejaVuSans-30"/>
       <use x="222.65625" xlink:href="#DejaVuSans-39"/>
       <use x="286.279297" xlink:href="#DejaVuSans-2e"/>
       <use x="318.066406" xlink:href="#DejaVuSans-32"/>
       <use x="381.689453" xlink:href="#DejaVuSans-30"/>
       <use x="445.3125" xlink:href="#DejaVuSans-32"/>
       <use x="508.935547" xlink:href="#DejaVuSans-31"/>
      </g>
     </g>
    </g>
    <g id="xtick_21">
     <g id="line2d_41">
      <path clip-path="url(#p4eb6078321)" d="M 782.09785 493.286013 
L 782.09785 29.118125 
" style="fill:none;stroke:#cccccc;stroke-linecap:round;"/>
     </g>
     <g id="line2d_42">
      <g>
       <use style="fill:#262626;stroke:#262626;stroke-width:1.25;" x="782.09785" xlink:href="#m0e239ba2bb" y="493.286013"/>
      </g>
     </g>
     <g id="text_21">
      <!-- 17.10.2021 -->
      <g style="fill:#262626;" transform="translate(735.945322 553.231121)rotate(-45)scale(0.11 -0.11)">
       <use xlink:href="#DejaVuSans-31"/>
       <use x="63.623047" xlink:href="#DejaVuSans-37"/>
       <use x="127.246094" xlink:href="#DejaVuSans-2e"/>
       <use x="159.033203" xlink:href="#DejaVuSans-31"/>
       <use x="222.65625" xlink:href="#DejaVuSans-30"/>
       <use x="286.279297" xlink:href="#DejaVuSans-2e"/>
       <use x="318.066406" xlink:href="#DejaVuSans-32"/>
       <use x="381.689453" xlink:href="#DejaVuSans-30"/>
       <use x="445.3125" xlink:href="#DejaVuSans-32"/>
       <use x="508.935547" xlink:href="#DejaVuSans-31"/>
      </g>
     </g>
    </g>
    <g id="xtick_22">
     <g id="line2d_43">
      <defs>
       <path d="M 0 0 
L 0 4 
" id="m588c8ffdd8" style="stroke:#262626;"/>
      </defs>
      <g>
       <use style="fill:#262626;stroke:#262626;" x="60.536272" xlink:href="#m588c8ffdd8" y="493.286013"/>
      </g>
     </g>
    </g>
    <g id="xtick_23">
     <g id="line2d_44">
      <g>
       <use style="fill:#262626;stroke:#262626;" x="69.111706" xlink:href="#m588c8ffdd8" y="493.286013"/>
      </g>
     </g>
    </g>
    <g id="xtick_24">
     <g id="line2d_45">
      <g>
       <use style="fill:#262626;stroke:#262626;" x="77.687141" xlink:href="#m588c8ffdd8" y="493.286013"/>
      </g>
     </g>
    </g>
    <g id="xtick_25">
     <g id="line2d_46">
      <g>
       <use style="fill:#262626;stroke:#262626;" x="86.262576" xlink:href="#m588c8ffdd8" y="493.286013"/>
      </g>
     </g>
    </g>
    <g id="xtick_26">
     <g id="line2d_47">
      <g>
       <use style="fill:#262626;stroke:#262626;" x="94.838011" xlink:href="#m588c8ffdd8" y="493.286013"/>
      </g>
     </g>
    </g>
    <g id="xtick_27">
     <g id="line2d_48">
      <g>
       <use style="fill:#262626;stroke:#262626;" x="103.413445" xlink:href="#m588c8ffdd8" y="493.286013"/>
      </g>
     </g>
    </g>
    <g id="xtick_28">
     <g id="line2d_49">
      <g>
       <use style="fill:#262626;stroke:#262626;" x="111.98888" xlink:href="#m588c8ffdd8" y="493.286013"/>
      </g>
     </g>
    </g>
    <g id="xtick_29">
     <g id="line2d_50">
      <g>
       <use style="fill:#262626;stroke:#262626;" x="120.564315" xlink:href="#m588c8ffdd8" y="493.286013"/>
      </g>
     </g>
    </g>
    <g id="xtick_30">
     <g id="line2d_51">
      <g>
       <use style="fill:#262626;stroke:#262626;" x="129.13975" xlink:href="#m588c8ffdd8" y="493.286013"/>
      </g>
     </g>
    </g>
    <g id="xtick_31">
     <g id="line2d_52">
      <g>
       <use style="fill:#262626;stroke:#262626;" x="137.715184" xlink:href="#m588c8ffdd8" y="493.286013"/>
      </g>
     </g>
    </g>
    <g id="xtick_32">
     <g id="line2d_53">
      <g>
       <use style="fill:#262626;stroke:#262626;" x="146.290619" xlink:href="#m588c8ffdd8" y="493.286013"/>
      </g>
     </g>
    </g>
    <g id="xtick_33">
     <g id="line2d_54">
      <g>
       <use style="fill:#262626;stroke:#262626;" x="154.866054" xlink:href="#m588c8ffdd8" y="493.286013"/>
      </g>
     </g>
    </g>
    <g id="xtick_34">
     <g id="line2d_55">
      <g>
       <use style="fill:#262626;stroke:#262626;" x="163.441488" xlink:href="#m588c8ffdd8" y="493.286013"/>
      </g>
     </g>
    </g>
    <g id="xtick_35">
     <g id="line2d_56">
      <g>
       <use style="fill:#262626;stroke:#262626;" x="172.016923" xlink:href="#m588c8ffdd8" y="493.286013"/>
      </g>
     </g>
    </g>
    <g id="xtick_36">
     <g id="line2d_57">
      <g>
       <use style="fill:#262626;stroke:#262626;" x="180.592358" xlink:href="#m588c8ffdd8" y="493.286013"/>
      </g>
     </g>
    </g>
    <g id="xtick_37">
     <g id="line2d_58">
      <g>
       <use style="fill:#262626;stroke:#262626;" x="189.167793" xlink:href="#m588c8ffdd8" y="493.286013"/>
      </g>
     </g>
    </g>
    <g id="xtick_38">
     <g id="line2d_59">
      <g>
       <use style="fill:#262626;stroke:#262626;" x="197.743227" xlink:href="#m588c8ffdd8" y="493.286013"/>
      </g>
     </g>
    </g>
    <g id="xtick_39">
     <g id="line2d_60">
      <g>
       <use style="fill:#262626;stroke:#262626;" x="206.318662" xlink:href="#m588c8ffdd8" y="493.286013"/>
      </g>
     </g>
    </g>
    <g id="xtick_40">
     <g id="line2d_61">
      <g>
       <use style="fill:#262626;stroke:#262626;" x="214.894097" xlink:href="#m588c8ffdd8" y="493.286013"/>
      </g>
     </g>
    </g>
    <g id="xtick_41">
     <g id="line2d_62">
      <g>
       <use style="fill:#262626;stroke:#262626;" x="223.469531" xlink:href="#m588c8ffdd8" y="493.286013"/>
      </g>
     </g>
    </g>
    <g id="xtick_42">
     <g id="line2d_63">
      <g>
       <use style="fill:#262626;stroke:#262626;" x="232.044966" xlink:href="#m588c8ffdd8" y="493.286013"/>
      </g>
     </g>
    </g>
    <g id="xtick_43">
     <g id="line2d_64">
      <g>
       <use style="fill:#262626;stroke:#262626;" x="240.620401" xlink:href="#m588c8ffdd8" y="493.286013"/>
      </g>
     </g>
    </g>
    <g id="xtick_44">
     <g id="line2d_65">
      <g>
       <use style="fill:#262626;stroke:#262626;" x="249.195836" xlink:href="#m588c8ffdd8" y="493.286013"/>
      </g>
     </g>
    </g>
    <g id="xtick_45">
     <g id="line2d_66">
      <g>
       <use style="fill:#262626;stroke:#262626;" x="257.77127" xlink:href="#m588c8ffdd8" y="493.286013"/>
      </g>
     </g>
    </g>
    <g id="xtick_46">
     <g id="line2d_67">
      <g>
       <use style="fill:#262626;stroke:#262626;" x="266.346705" xlink:href="#m588c8ffdd8" y="493.286013"/>
      </g>
     </g>
    </g>
    <g id="xtick_47">
     <g id="line2d_68">
      <g>
       <use style="fill:#262626;stroke:#262626;" x="274.92214" xlink:href="#m588c8ffdd8" y="493.286013"/>
      </g>
     </g>
    </g>
    <g id="xtick_48">
     <g id="line2d_69">
      <g>
       <use style="fill:#262626;stroke:#262626;" x="283.497575" xlink:href="#m588c8ffdd8" y="493.286013"/>
      </g>
     </g>
    </g>
    <g id="xtick_49">
     <g id="line2d_70">
      <g>
       <use style="fill:#262626;stroke:#262626;" x="292.073009" xlink:href="#m588c8ffdd8" y="493.286013"/>
      </g>
     </g>
    </g>
    <g id="xtick_50">
     <g id="line2d_71">
      <g>
       <use style="fill:#262626;stroke:#262626;" x="300.648444" xlink:href="#m588c8ffdd8" y="493.286013"/>
      </g>
     </g>
    </g>
    <g id="xtick_51">
     <g id="line2d_72">
      <g>
       <use style="fill:#262626;stroke:#262626;" x="309.223879" xlink:href="#m588c8ffdd8" y="493.286013"/>
      </g>
     </g>
    </g>
    <g id="xtick_52">
     <g id="line2d_73">
      <g>
       <use style="fill:#262626;stroke:#262626;" x="317.799313" xlink:href="#m588c8ffdd8" y="493.286013"/>
      </g>
     </g>
    </g>
    <g id="xtick_53">
     <g id="line2d_74">
      <g>
       <use style="fill:#262626;stroke:#262626;" x="326.374748" xlink:href="#m588c8ffdd8" y="493.286013"/>
      </g>
     </g>
    </g>
    <g id="xtick_54">
     <g id="line2d_75">
      <g>
       <use style="fill:#262626;stroke:#262626;" x="334.950183" xlink:href="#m588c8ffdd8" y="493.286013"/>
      </g>
     </g>
    </g>
    <g id="xtick_55">
     <g id="line2d_76">
      <g>
       <use style="fill:#262626;stroke:#262626;" x="343.525618" xlink:href="#m588c8ffdd8" y="493.286013"/>
      </g>
     </g>
    </g>
    <g id="xtick_56">
     <g id="line2d_77">
      <g>
       <use style="fill:#262626;stroke:#262626;" x="352.101052" xlink:href="#m588c8ffdd8" y="493.286013"/>
      </g>
     </g>
    </g>
    <g id="xtick_57">
     <g id="line2d_78">
      <g>
       <use style="fill:#262626;stroke:#262626;" x="360.676487" xlink:href="#m588c8ffdd8" y="493.286013"/>
      </g>
     </g>
    </g>
    <g id="xtick_58">
     <g id="line2d_79">
      <g>
       <use style="fill:#262626;stroke:#262626;" x="369.251922" xlink:href="#m588c8ffdd8" y="493.286013"/>
      </g>
     </g>
    </g>
    <g id="xtick_59">
     <g id="line2d_80">
      <g>
       <use style="fill:#262626;stroke:#262626;" x="377.827356" xlink:href="#m588c8ffdd8" y="493.286013"/>
      </g>
     </g>
    </g>
    <g id="xtick_60">
     <g id="line2d_81">
      <g>
       <use style="fill:#262626;stroke:#262626;" x="386.402791" xlink:href="#m588c8ffdd8" y="493.286013"/>
      </g>
     </g>
    </g>
    <g id="xtick_61">
     <g id="line2d_82">
      <g>
       <use style="fill:#262626;stroke:#262626;" x="394.978226" xlink:href="#m588c8ffdd8" y="493.286013"/>
      </g>
     </g>
    </g>
    <g id="xtick_62">
     <g id="line2d_83">
      <g>
       <use style="fill:#262626;stroke:#262626;" x="403.553661" xlink:href="#m588c8ffdd8" y="493.286013"/>
      </g>
     </g>
    </g>
    <g id="xtick_63">
     <g id="line2d_84">
      <g>
       <use style="fill:#262626;stroke:#262626;" x="412.129095" xlink:href="#m588c8ffdd8" y="493.286013"/>
      </g>
     </g>
    </g>
    <g id="xtick_64">
     <g id="line2d_85">
      <g>
       <use style="fill:#262626;stroke:#262626;" x="420.70453" xlink:href="#m588c8ffdd8" y="493.286013"/>
      </g>
     </g>
    </g>
    <g id="xtick_65">
     <g id="line2d_86">
      <g>
       <use style="fill:#262626;stroke:#262626;" x="429.279965" xlink:href="#m588c8ffdd8" y="493.286013"/>
      </g>
     </g>
    </g>
    <g id="xtick_66">
     <g id="line2d_87">
      <g>
       <use style="fill:#262626;stroke:#262626;" x="437.8554" xlink:href="#m588c8ffdd8" y="493.286013"/>
      </g>
     </g>
    </g>
    <g id="xtick_67">
     <g id="line2d_88">
      <g>
       <use style="fill:#262626;stroke:#262626;" x="446.430834" xlink:href="#m588c8ffdd8" y="493.286013"/>
      </g>
     </g>
    </g>
    <g id="xtick_68">
     <g id="line2d_89">
      <g>
       <use style="fill:#262626;stroke:#262626;" x="455.006269" xlink:href="#m588c8ffdd8" y="493.286013"/>
      </g>
     </g>
    </g>
    <g id="xtick_69">
     <g id="line2d_90">
      <g>
       <use style="fill:#262626;stroke:#262626;" x="463.581704" xlink:href="#m588c8ffdd8" y="493.286013"/>
      </g>
     </g>
    </g>
    <g id="xtick_70">
     <g id="line2d_91">
      <g>
       <use style="fill:#262626;stroke:#262626;" x="472.157138" xlink:href="#m588c8ffdd8" y="493.286013"/>
      </g>
     </g>
    </g>
    <g id="xtick_71">
     <g id="line2d_92">
      <g>
       <use style="fill:#262626;stroke:#262626;" x="480.732573" xlink:href="#m588c8ffdd8" y="493.286013"/>
      </g>
     </g>
    </g>
    <g id="xtick_72">
     <g id="line2d_93">
      <g>
       <use style="fill:#262626;stroke:#262626;" x="489.308008" xlink:href="#m588c8ffdd8" y="493.286013"/>
      </g>
     </g>
    </g>
    <g id="xtick_73">
     <g id="line2d_94">
      <g>
       <use style="fill:#262626;stroke:#262626;" x="497.883443" xlink:href="#m588c8ffdd8" y="493.286013"/>
      </g>
     </g>
    </g>
    <g id="xtick_74">
     <g id="line2d_95">
      <g>
       <use style="fill:#262626;stroke:#262626;" x="506.458877" xlink:href="#m588c8ffdd8" y="493.286013"/>
      </g>
     </g>
    </g>
    <g id="xtick_75">
     <g id="line2d_96">
      <g>
       <use style="fill:#262626;stroke:#262626;" x="515.034312" xlink:href="#m588c8ffdd8" y="493.286013"/>
      </g>
     </g>
    </g>
    <g id="xtick_76">
     <g id="line2d_97">
      <g>
       <use style="fill:#262626;stroke:#262626;" x="523.609747" xlink:href="#m588c8ffdd8" y="493.286013"/>
      </g>
     </g>
    </g>
    <g id="xtick_77">
     <g id="line2d_98">
      <g>
       <use style="fill:#262626;stroke:#262626;" x="532.185181" xlink:href="#m588c8ffdd8" y="493.286013"/>
      </g>
     </g>
    </g>
    <g id="xtick_78">
     <g id="line2d_99">
      <g>
       <use style="fill:#262626;stroke:#262626;" x="540.760616" xlink:href="#m588c8ffdd8" y="493.286013"/>
      </g>
     </g>
    </g>
    <g id="xtick_79">
     <g id="line2d_100">
      <g>
       <use style="fill:#262626;stroke:#262626;" x="549.336051" xlink:href="#m588c8ffdd8" y="493.286013"/>
      </g>
     </g>
    </g>
    <g id="xtick_80">
     <g id="line2d_101">
      <g>
       <use style="fill:#262626;stroke:#262626;" x="557.911486" xlink:href="#m588c8ffdd8" y="493.286013"/>
      </g>
     </g>
    </g>
    <g id="xtick_81">
     <g id="line2d_102">
      <g>
       <use style="fill:#262626;stroke:#262626;" x="566.48692" xlink:href="#m588c8ffdd8" y="493.286013"/>
      </g>
     </g>
    </g>
    <g id="xtick_82">
     <g id="line2d_103">
      <g>
       <use style="fill:#262626;stroke:#262626;" x="575.062355" xlink:href="#m588c8ffdd8" y="493.286013"/>
      </g>
     </g>
    </g>
    <g id="xtick_83">
     <g id="line2d_104">
      <g>
       <use style="fill:#262626;stroke:#262626;" x="583.63779" xlink:href="#m588c8ffdd8" y="493.286013"/>
      </g>
     </g>
    </g>
    <g id="xtick_84">
     <g id="line2d_105">
      <g>
       <use style="fill:#262626;stroke:#262626;" x="592.213225" xlink:href="#m588c8ffdd8" y="493.286013"/>
      </g>
     </g>
    </g>
    <g id="xtick_85">
     <g id="line2d_106">
      <g>
       <use style="fill:#262626;stroke:#262626;" x="600.788659" xlink:href="#m588c8ffdd8" y="493.286013"/>
      </g>
     </g>
    </g>
    <g id="xtick_86">
     <g id="line2d_107">
      <g>
       <use style="fill:#262626;stroke:#262626;" x="609.364094" xlink:href="#m588c8ffdd8" y="493.286013"/>
      </g>
     </g>
    </g>
    <g id="xtick_87">
     <g id="line2d_108">
      <g>
       <use style="fill:#262626;stroke:#262626;" x="617.939529" xlink:href="#m588c8ffdd8" y="493.286013"/>
      </g>
     </g>
    </g>
    <g id="xtick_88">
     <g id="line2d_109">
      <g>
       <use style="fill:#262626;stroke:#262626;" x="626.514963" xlink:href="#m588c8ffdd8" y="493.286013"/>
      </g>
     </g>
    </g>
    <g id="xtick_89">
     <g id="line2d_110">
      <g>
       <use style="fill:#262626;stroke:#262626;" x="635.090398" xlink:href="#m588c8ffdd8" y="493.286013"/>
      </g>
     </g>
    </g>
    <g id="xtick_90">
     <g id="line2d_111">
      <g>
       <use style="fill:#262626;stroke:#262626;" x="643.665833" xlink:href="#m588c8ffdd8" y="493.286013"/>
      </g>
     </g>
    </g>
    <g id="xtick_91">
     <g id="line2d_112">
      <g>
       <use style="fill:#262626;stroke:#262626;" x="652.241268" xlink:href="#m588c8ffdd8" y="493.286013"/>
      </g>
     </g>
    </g>
    <g id="xtick_92">
     <g id="line2d_113">
      <g>
       <use style="fill:#262626;stroke:#262626;" x="660.816702" xlink:href="#m588c8ffdd8" y="493.286013"/>
      </g>
     </g>
    </g>
    <g id="xtick_93">
     <g id="line2d_114">
      <g>
       <use style="fill:#262626;stroke:#262626;" x="669.392137" xlink:href="#m588c8ffdd8" y="493.286013"/>
      </g>
     </g>
    </g>
    <g id="xtick_94">
     <g id="line2d_115">
      <g>
       <use style="fill:#262626;stroke:#262626;" x="677.967572" xlink:href="#m588c8ffdd8" y="493.286013"/>
      </g>
     </g>
    </g>
    <g id="xtick_95">
     <g id="line2d_116">
      <g>
       <use style="fill:#262626;stroke:#262626;" x="686.543006" xlink:href="#m588c8ffdd8" y="493.286013"/>
      </g>
     </g>
    </g>
    <g id="xtick_96">
     <g id="line2d_117">
      <g>
       <use style="fill:#262626;stroke:#262626;" x="695.118441" xlink:href="#m588c8ffdd8" y="493.286013"/>
      </g>
     </g>
    </g>
    <g id="xtick_97">
     <g id="line2d_118">
      <g>
       <use style="fill:#262626;stroke:#262626;" x="703.693876" xlink:href="#m588c8ffdd8" y="493.286013"/>
      </g>
     </g>
    </g>
    <g id="xtick_98">
     <g id="line2d_119">
      <g>
       <use style="fill:#262626;stroke:#262626;" x="712.269311" xlink:href="#m588c8ffdd8" y="493.286013"/>
      </g>
     </g>
    </g>
    <g id="xtick_99">
     <g id="line2d_120">
      <g>
       <use style="fill:#262626;stroke:#262626;" x="720.844745" xlink:href="#m588c8ffdd8" y="493.286013"/>
      </g>
     </g>
    </g>
    <g id="xtick_100">
     <g id="line2d_121">
      <g>
       <use style="fill:#262626;stroke:#262626;" x="729.42018" xlink:href="#m588c8ffdd8" y="493.286013"/>
      </g>
     </g>
    </g>
    <g id="xtick_101">
     <g id="line2d_122">
      <g>
       <use style="fill:#262626;stroke:#262626;" x="737.995615" xlink:href="#m588c8ffdd8" y="493.286013"/>
      </g>
     </g>
    </g>
    <g id="xtick_102">
     <g id="line2d_123">
      <g>
       <use style="fill:#262626;stroke:#262626;" x="746.571049" xlink:href="#m588c8ffdd8" y="493.286013"/>
      </g>
     </g>
    </g>
    <g id="xtick_103">
     <g id="line2d_124">
      <g>
       <use style="fill:#262626;stroke:#262626;" x="755.146484" xlink:href="#m588c8ffdd8" y="493.286013"/>
      </g>
     </g>
    </g>
    <g id="xtick_104">
     <g id="line2d_125">
      <g>
       <use style="fill:#262626;stroke:#262626;" x="763.721919" xlink:href="#m588c8ffdd8" y="493.286013"/>
      </g>
     </g>
    </g>
    <g id="xtick_105">
     <g id="line2d_126">
      <g>
       <use style="fill:#262626;stroke:#262626;" x="772.297354" xlink:href="#m588c8ffdd8" y="493.286013"/>
      </g>
     </g>
    </g>
    <g id="xtick_106">
     <g id="line2d_127">
      <g>
       <use style="fill:#262626;stroke:#262626;" x="780.872788" xlink:href="#m588c8ffdd8" y="493.286013"/>
      </g>
     </g>
    </g>
    <g id="xtick_107">
     <g id="line2d_128">
      <g>
       <use style="fill:#262626;stroke:#262626;" x="789.448223" xlink:href="#m588c8ffdd8" y="493.286013"/>
      </g>
     </g>
    </g>
    <g id="xtick_108">
     <g id="line2d_129">
      <g>
       <use style="fill:#262626;stroke:#262626;" x="798.023658" xlink:href="#m588c8ffdd8" y="493.286013"/>
      </g>
     </g>
    </g>
    <g id="xtick_109">
     <g id="line2d_130">
      <g>
       <use style="fill:#262626;stroke:#262626;" x="806.599093" xlink:href="#m588c8ffdd8" y="493.286013"/>
      </g>
     </g>
    </g>
    <g id="xtick_110">
     <g id="line2d_131">
      <g>
       <use style="fill:#262626;stroke:#262626;" x="815.174527" xlink:href="#m588c8ffdd8" y="493.286013"/>
      </g>
     </g>
    </g>
    <g id="xtick_111">
     <g id="line2d_132">
      <g>
       <use style="fill:#262626;stroke:#262626;" x="823.749962" xlink:href="#m588c8ffdd8" y="493.286013"/>
      </g>
     </g>
    </g>
    <g id="xtick_112">
     <g id="line2d_133">
      <g>
       <use style="fill:#262626;stroke:#262626;" x="832.325397" xlink:href="#m588c8ffdd8" y="493.286013"/>
      </g>
     </g>
    </g>
    <g id="xtick_113">
     <g id="line2d_134">
      <g>
       <use style="fill:#262626;stroke:#262626;" x="840.900831" xlink:href="#m588c8ffdd8" y="493.286013"/>
      </g>
     </g>
    </g>
    <g id="xtick_114">
     <g id="line2d_135">
      <g>
       <use style="fill:#262626;stroke:#262626;" x="849.476266" xlink:href="#m588c8ffdd8" y="493.286013"/>
      </g>
     </g>
    </g>
    <g id="text_22">
     <!-- Date -->
     <g style="fill:#262626;" transform="translate(441.277862 567.966863)scale(0.12 -0.12)">
      <defs>
       <path d="M 1259 4147 
L 1259 519 
L 2022 519 
Q 2988 519 3436 956 
Q 3884 1394 3884 2338 
Q 3884 3275 3436 3711 
Q 2988 4147 2022 4147 
L 1259 4147 
z
M 628 4666 
L 1925 4666 
Q 3281 4666 3915 4102 
Q 4550 3538 4550 2338 
Q 4550 1131 3912 565 
Q 3275 0 1925 0 
L 628 0 
L 628 4666 
z
" id="DejaVuSans-44" transform="scale(0.015625)"/>
       <path d="M 2194 1759 
Q 1497 1759 1228 1600 
Q 959 1441 959 1056 
Q 959 750 1161 570 
Q 1363 391 1709 391 
Q 2188 391 2477 730 
Q 2766 1069 2766 1631 
L 2766 1759 
L 2194 1759 
z
M 3341 1997 
L 3341 0 
L 2766 0 
L 2766 531 
Q 2569 213 2275 61 
Q 1981 -91 1556 -91 
Q 1019 -91 701 211 
Q 384 513 384 1019 
Q 384 1609 779 1909 
Q 1175 2209 1959 2209 
L 2766 2209 
L 2766 2266 
Q 2766 2663 2505 2880 
Q 2244 3097 1772 3097 
Q 1472 3097 1187 3025 
Q 903 2953 641 2809 
L 641 3341 
Q 956 3463 1253 3523 
Q 1550 3584 1831 3584 
Q 2591 3584 2966 3190 
Q 3341 2797 3341 1997 
z
" id="DejaVuSans-61" transform="scale(0.015625)"/>
       <path d="M 1172 4494 
L 1172 3500 
L 2356 3500 
L 2356 3053 
L 1172 3053 
L 1172 1153 
Q 1172 725 1289 603 
Q 1406 481 1766 481 
L 2356 481 
L 2356 0 
L 1766 0 
Q 1100 0 847 248 
Q 594 497 594 1153 
L 594 3053 
L 172 3053 
L 172 3500 
L 594 3500 
L 594 4494 
L 1172 4494 
z
" id="DejaVuSans-74" transform="scale(0.015625)"/>
       <path d="M 3597 1894 
L 3597 1613 
L 953 1613 
Q 991 1019 1311 708 
Q 1631 397 2203 397 
Q 2534 397 2845 478 
Q 3156 559 3463 722 
L 3463 178 
Q 3153 47 2828 -22 
Q 2503 -91 2169 -91 
Q 1331 -91 842 396 
Q 353 884 353 1716 
Q 353 2575 817 3079 
Q 1281 3584 2069 3584 
Q 2775 3584 3186 3129 
Q 3597 2675 3597 1894 
z
M 3022 2063 
Q 3016 2534 2758 2815 
Q 2500 3097 2075 3097 
Q 1594 3097 1305 2825 
Q 1016 2553 972 2059 
L 3022 2063 
z
" id="DejaVuSans-65" transform="scale(0.015625)"/>
      </defs>
      <use xlink:href="#DejaVuSans-44"/>
      <use x="77.001953" xlink:href="#DejaVuSans-61"/>
      <use x="138.28125" xlink:href="#DejaVuSans-74"/>
      <use x="177.490234" xlink:href="#DejaVuSans-65"/>
     </g>
    </g>
   </g>
   <g id="matplotlib.axis_2">
    <g id="ytick_1">
     <g id="line2d_136">
      <path clip-path="url(#p4eb6078321)" d="M 60.1075 472.504714 
L 851.1301 472.504714 
" style="fill:none;stroke:#cccccc;stroke-linecap:round;"/>
     </g>
     <g id="line2d_137">
      <defs>
       <path d="M 0 0 
L -6 0 
" id="me7c87d714e" style="stroke:#262626;stroke-width:1.25;"/>
      </defs>
      <g>
       <use style="fill:#262626;stroke:#262626;stroke-width:1.25;" x="60.1075" xlink:href="#me7c87d714e" y="472.504714"/>
      </g>
     </g>
     <g id="text_23">
      <!-- 0 -->
      <g style="fill:#262626;" transform="translate(43.60875 476.683854)scale(0.11 -0.11)">
       <use xlink:href="#DejaVuSans-30"/>
      </g>
     </g>
    </g>
    <g id="ytick_2">
     <g id="line2d_138">
      <path clip-path="url(#p4eb6078321)" d="M 60.1075 393.194347 
L 851.1301 393.194347 
" style="fill:none;stroke:#cccccc;stroke-linecap:round;"/>
     </g>
     <g id="line2d_139">
      <g>
       <use style="fill:#262626;stroke:#262626;stroke-width:1.25;" x="60.1075" xlink:href="#me7c87d714e" y="393.194347"/>
      </g>
     </g>
     <g id="text_24">
      <!-- 2000 -->
      <g style="fill:#262626;" transform="translate(22.6125 397.373488)scale(0.11 -0.11)">
       <use xlink:href="#DejaVuSans-32"/>
       <use x="63.623047" xlink:href="#DejaVuSans-30"/>
       <use x="127.246094" xlink:href="#DejaVuSans-30"/>
       <use x="190.869141" xlink:href="#DejaVuSans-30"/>
      </g>
     </g>
    </g>
    <g id="ytick_3">
     <g id="line2d_140">
      <path clip-path="url(#p4eb6078321)" d="M 60.1075 313.88398 
L 851.1301 313.88398 
" style="fill:none;stroke:#cccccc;stroke-linecap:round;"/>
     </g>
     <g id="line2d_141">
      <g>
       <use style="fill:#262626;stroke:#262626;stroke-width:1.25;" x="60.1075" xlink:href="#me7c87d714e" y="313.88398"/>
      </g>
     </g>
     <g id="text_25">
      <!-- 4000 -->
      <g style="fill:#262626;" transform="translate(22.6125 318.063121)scale(0.11 -0.11)">
       <use xlink:href="#DejaVuSans-34"/>
       <use x="63.623047" xlink:href="#DejaVuSans-30"/>
       <use x="127.246094" xlink:href="#DejaVuSans-30"/>
       <use x="190.869141" xlink:href="#DejaVuSans-30"/>
      </g>
     </g>
    </g>
    <g id="ytick_4">
     <g id="line2d_142">
      <path clip-path="url(#p4eb6078321)" d="M 60.1075 234.573613 
L 851.1301 234.573613 
" style="fill:none;stroke:#cccccc;stroke-linecap:round;"/>
     </g>
     <g id="line2d_143">
      <g>
       <use style="fill:#262626;stroke:#262626;stroke-width:1.25;" x="60.1075" xlink:href="#me7c87d714e" y="234.573613"/>
      </g>
     </g>
     <g id="text_26">
      <!-- 6000 -->
      <g style="fill:#262626;" transform="translate(22.6125 238.752754)scale(0.11 -0.11)">
       <use xlink:href="#DejaVuSans-36"/>
       <use x="63.623047" xlink:href="#DejaVuSans-30"/>
       <use x="127.246094" xlink:href="#DejaVuSans-30"/>
       <use x="190.869141" xlink:href="#DejaVuSans-30"/>
      </g>
     </g>
    </g>
    <g id="ytick_5">
     <g id="line2d_144">
      <path clip-path="url(#p4eb6078321)" d="M 60.1075 155.263246 
L 851.1301 155.263246 
" style="fill:none;stroke:#cccccc;stroke-linecap:round;"/>
     </g>
     <g id="line2d_145">
      <g>
       <use style="fill:#262626;stroke:#262626;stroke-width:1.25;" x="60.1075" xlink:href="#me7c87d714e" y="155.263246"/>
      </g>
     </g>
     <g id="text_27">
      <!-- 8000 -->
      <g style="fill:#262626;" transform="translate(22.6125 159.442387)scale(0.11 -0.11)">
       <use xlink:href="#DejaVuSans-38"/>
       <use x="63.623047" xlink:href="#DejaVuSans-30"/>
       <use x="127.246094" xlink:href="#DejaVuSans-30"/>
       <use x="190.869141" xlink:href="#DejaVuSans-30"/>
      </g>
     </g>
    </g>
    <g id="ytick_6">
     <g id="line2d_146">
      <path clip-path="url(#p4eb6078321)" d="M 60.1075 75.952879 
L 851.1301 75.952879 
" style="fill:none;stroke:#cccccc;stroke-linecap:round;"/>
     </g>
     <g id="line2d_147">
      <g>
       <use style="fill:#262626;stroke:#262626;stroke-width:1.25;" x="60.1075" xlink:href="#me7c87d714e" y="75.952879"/>
      </g>
     </g>
     <g id="text_28">
      <!-- 10000 -->
      <g style="fill:#262626;" transform="translate(15.61375 80.13202)scale(0.11 -0.11)">
       <use xlink:href="#DejaVuSans-31"/>
       <use x="63.623047" xlink:href="#DejaVuSans-30"/>
       <use x="127.246094" xlink:href="#DejaVuSans-30"/>
       <use x="190.869141" xlink:href="#DejaVuSans-30"/>
       <use x="254.492188" xlink:href="#DejaVuSans-30"/>
      </g>
     </g>
    </g>
    <g id="text_29">
     <!-- Cases -->
     <g style="fill:#262626;" transform="translate(9.118125 279.011756)rotate(-90)scale(0.12 -0.12)">
      <defs>
       <path d="M 4122 4306 
L 4122 3641 
Q 3803 3938 3442 4084 
Q 3081 4231 2675 4231 
Q 1875 4231 1450 3742 
Q 1025 3253 1025 2328 
Q 1025 1406 1450 917 
Q 1875 428 2675 428 
Q 3081 428 3442 575 
Q 3803 722 4122 1019 
L 4122 359 
Q 3791 134 3420 21 
Q 3050 -91 2638 -91 
Q 1578 -91 968 557 
Q 359 1206 359 2328 
Q 359 3453 968 4101 
Q 1578 4750 2638 4750 
Q 3056 4750 3426 4639 
Q 3797 4528 4122 4306 
z
" id="DejaVuSans-43" transform="scale(0.015625)"/>
       <path d="M 2834 3397 
L 2834 2853 
Q 2591 2978 2328 3040 
Q 2066 3103 1784 3103 
Q 1356 3103 1142 2972 
Q 928 2841 928 2578 
Q 928 2378 1081 2264 
Q 1234 2150 1697 2047 
L 1894 2003 
Q 2506 1872 2764 1633 
Q 3022 1394 3022 966 
Q 3022 478 2636 193 
Q 2250 -91 1575 -91 
Q 1294 -91 989 -36 
Q 684 19 347 128 
L 347 722 
Q 666 556 975 473 
Q 1284 391 1588 391 
Q 1994 391 2212 530 
Q 2431 669 2431 922 
Q 2431 1156 2273 1281 
Q 2116 1406 1581 1522 
L 1381 1569 
Q 847 1681 609 1914 
Q 372 2147 372 2553 
Q 372 3047 722 3315 
Q 1072 3584 1716 3584 
Q 2034 3584 2315 3537 
Q 2597 3491 2834 3397 
z
" id="DejaVuSans-73" transform="scale(0.015625)"/>
      </defs>
      <use xlink:href="#DejaVuSans-43"/>
      <use x="69.824219" xlink:href="#DejaVuSans-61"/>
      <use x="131.103516" xlink:href="#DejaVuSans-73"/>
      <use x="183.203125" xlink:href="#DejaVuSans-65"/>
      <use x="244.726562" xlink:href="#DejaVuSans-73"/>
     </g>
    </g>
   </g>
   <g id="line2d_148">
    <path clip-path="url(#p4eb6078321)" d="M 96.063073 464.177125 
L 97.288135 464.05816 
L 98.513197 463.265056 
L 102.188383 463.344366 
L 104.638507 463.384022 
L 105.86357 464.21678 
L 108.313694 463.502987 
L 109.538756 462.828849 
L 110.763818 462.749539 
L 111.98888 462.234021 
L 113.213942 461.877125 
L 114.439004 461.877125 
L 115.664066 461.361607 
L 116.889128 461.797814 
L 119.339253 460.9254 
L 120.564315 460.9254 
L 121.789377 460.568504 
L 123.014439 460.568504 
L 124.239501 461.123676 
L 125.464563 459.934021 
L 126.689625 459.934021 
L 127.914687 459.7754 
L 130.364812 459.7754 
L 131.589874 459.973676 
L 132.814936 459.973676 
L 134.039998 458.506434 
L 135.26506 458.427124 
L 136.490122 457.435744 
L 137.715184 457.078847 
L 138.940246 457.237468 
L 140.165308 457.911606 
L 141.390371 458.030572 
L 142.615433 458.030572 
L 143.840495 459.7754 
L 146.290619 459.69609 
L 147.515681 459.458158 
L 148.740743 460.647814 
L 149.965805 461.202986 
L 151.190867 461.123676 
L 152.415929 462.273676 
L 153.640992 462.273676 
L 154.866054 463.225401 
L 156.091116 463.185746 
L 157.316178 463.423677 
L 158.54124 463.423677 
L 159.766302 464.652987 
L 160.991364 464.930574 
L 162.216426 465.961608 
L 163.441488 466.120229 
L 164.666551 466.437471 
L 167.116675 467.27023 
L 169.566799 466.596091 
L 170.791861 466.675402 
L 172.016923 466.35816 
L 173.241985 466.239195 
L 174.467047 466.477126 
L 175.692109 466.120229 
L 176.917172 465.089194 
L 178.142234 464.415056 
L 179.367296 463.978849 
L 180.592358 462.709883 
L 181.81742 462.828849 
L 183.042482 462.471952 
L 184.267544 461.91678 
L 185.492606 461.559883 
L 186.717668 461.044366 
L 187.94273 460.052986 
L 189.167793 459.735745 
L 190.392855 459.735745 
L 192.842979 458.149537 
L 194.068041 457.039192 
L 195.293103 457.277123 
L 196.518165 456.959882 
L 197.743227 455.730571 
L 198.968289 455.730571 
L 200.193351 455.294364 
L 201.418414 455.254709 
L 202.643476 454.818502 
L 203.868538 454.937467 
L 205.0936 454.659881 
L 206.318662 454.144364 
L 207.543724 454.34264 
L 209.993848 453.35126 
L 211.21891 452.756432 
L 212.443973 451.685742 
L 213.669035 452.042639 
L 214.894097 451.408156 
L 216.119159 451.289191 
L 217.344221 451.527122 
L 219.794345 449.702983 
L 221.019407 449.425397 
L 222.244469 448.473673 
L 223.469531 448.513328 
L 224.694594 448.315052 
L 225.919656 447.759879 
L 227.144718 447.83919 
L 229.594842 446.134017 
L 230.819904 445.975396 
L 232.044966 444.984016 
L 233.270028 445.459879 
L 234.49509 445.301258 
L 235.720152 444.785741 
L 236.945215 443.873671 
L 239.395339 441.652981 
L 240.620401 441.058153 
L 241.845463 440.225394 
L 243.070525 439.868498 
L 245.520649 437.925394 
L 246.745711 437.846083 
L 247.970774 438.520222 
L 249.195836 438.877118 
L 250.420898 438.837463 
L 252.871022 438.361601 
L 254.096084 439.432291 
L 255.321146 439.828843 
L 256.546208 440.34436 
L 257.77127 440.34436 
L 258.996332 440.502981 
L 260.221395 442.049533 
L 261.446457 441.49436 
L 262.671519 442.684016 
L 263.896581 442.128843 
L 265.121643 443.397809 
L 266.346705 443.040912 
L 267.571767 442.961602 
L 268.796829 444.190913 
L 270.021891 444.151258 
L 271.246953 443.120223 
L 273.697078 444.270223 
L 274.92214 443.834016 
L 277.372264 443.675395 
L 278.597326 443.278844 
L 279.822388 442.446085 
L 281.04745 442.208154 
L 282.272512 442.247809 
L 283.497575 442.56505 
L 284.722637 442.128843 
L 285.947699 441.851257 
L 288.397823 442.644361 
L 289.622885 442.921947 
L 290.847947 443.358154 
L 292.073009 443.318499 
L 293.298071 443.159878 
L 294.523133 443.55643 
L 295.748196 443.397809 
L 296.973258 443.001257 
L 298.19832 443.001257 
L 299.423382 443.63574 
L 303.098568 444.190913 
L 304.32363 444.111602 
L 305.548692 443.715051 
L 306.773754 443.001257 
L 307.998817 441.49436 
L 309.223879 441.137464 
L 310.448941 441.018498 
L 311.674003 441.573671 
L 312.899065 440.225394 
L 315.349189 438.520222 
L 316.574251 437.330566 
L 317.799313 436.339186 
L 319.024375 436.140911 
L 320.249438 435.625393 
L 321.4745 433.999531 
L 322.699562 431.540909 
L 323.924624 430.351254 
L 325.149686 427.654701 
L 326.374748 425.354701 
L 328.824872 424.085735 
L 330.049934 420.675389 
L 331.274997 417.780561 
L 332.500059 415.956422 
L 333.725121 415.004698 
L 334.950183 413.656422 
L 336.175245 413.021939 
L 337.400307 410.563317 
L 338.625369 407.747799 
L 339.850431 403.821936 
L 341.075493 401.442625 
L 343.525618 394.146071 
L 344.75068 391.76676 
L 348.425866 380.663309 
L 349.650928 378.283998 
L 350.87599 375.46848 
L 352.101052 368.925375 
L 353.326114 366.228822 
L 354.551176 359.844338 
L 355.776239 356.632268 
L 357.001301 345.965023 
L 358.226363 336.725366 
L 359.451425 331.213295 
L 360.676487 325.185707 
L 361.901549 320.942603 
L 364.351673 306.904668 
L 366.801798 283.428799 
L 368.02686 276.251211 
L 369.251922 267.646036 
L 370.476984 264.433966 
L 372.927108 255.868447 
L 374.15217 249.285686 
L 375.377232 239.411546 
L 376.602294 236.873614 
L 377.827356 226.920163 
L 379.052419 220.694299 
L 380.277481 223.866714 
L 381.502543 220.099471 
L 382.727605 212.842573 
L 383.952667 208.599468 
L 385.177729 208.916709 
L 386.402791 201.659811 
L 387.627853 200.113259 
L 388.852915 203.523605 
L 390.077977 209.392572 
L 391.30304 209.392572 
L 392.528102 204.197743 
L 393.753164 205.070157 
L 394.978226 196.544292 
L 396.203288 194.91843 
L 397.42835 202.016708 
L 398.653412 201.302914 
L 399.878474 194.99774 
L 401.103536 191.587394 
L 403.553661 186.035669 
L 404.778723 185.242565 
L 406.003785 193.133946 
L 407.228847 195.037395 
L 408.453909 193.570153 
L 409.678971 198.883948 
L 410.904033 213.35809 
L 412.129095 209.194296 
L 413.354157 209.828779 
L 414.57922 223.192575 
L 415.804282 229.696026 
L 417.029344 245.914996 
L 418.254406 247.620168 
L 419.479468 251.22879 
L 420.70453 252.616722 
L 421.929592 251.585687 
L 423.154654 253.964998 
L 424.379716 273.316727 
L 425.604778 280.930523 
L 426.829841 283.904661 
L 428.054903 284.261558 
L 429.279965 282.715006 
L 430.505027 286.561559 
L 431.730089 297.823631 
L 432.955151 302.542598 
L 434.180213 303.494322 
L 435.405275 303.970184 
L 436.630337 306.508116 
L 437.8554 306.349495 
L 439.080462 305.754667 
L 440.305524 312.059842 
L 441.530586 316.065015 
L 442.755648 326.533984 
L 443.98071 328.516743 
L 445.205772 333.711572 
L 446.430834 334.306399 
L 447.655896 334.306399 
L 448.880958 341.166746 
L 450.106021 344.696058 
L 451.331083 344.815023 
L 452.556145 351.75468 
L 453.781207 359.725372 
L 455.006269 359.209855 
L 456.231331 358.535717 
L 457.456393 360.597786 
L 458.681455 360.756407 
L 459.906517 358.892613 
L 461.131579 358.416751 
L 462.356642 359.566751 
L 464.806766 358.059854 
L 466.031828 359.487441 
L 467.25689 357.465027 
L 469.707014 352.230542 
L 470.932076 350.763301 
L 472.157138 348.265024 
L 473.3822 348.54261 
L 474.607263 351.278818 
L 475.832325 348.423645 
L 477.057387 344.418471 
L 478.282449 341.761574 
L 479.507511 340.96847 
L 480.732573 338.66847 
L 481.957635 336.68571 
L 483.182697 336.844331 
L 486.857884 325.621914 
L 489.308008 319.990878 
L 490.53307 318.642602 
L 491.758132 316.540877 
L 492.983194 312.416738 
L 495.433318 299.290873 
L 496.65838 293.977078 
L 497.883443 287.156386 
L 499.108505 284.380524 
L 500.333567 283.071902 
L 501.558629 273.8719 
L 502.783691 270.540865 
L 504.008753 262.054655 
L 507.683939 243.456374 
L 508.909001 238.420166 
L 510.134064 233.899475 
L 511.359126 218.909816 
L 513.80925 202.135673 
L 515.034312 196.980499 
L 516.259374 190.913256 
L 517.484436 184.251185 
L 518.709498 171.12532 
L 519.93456 163.035662 
L 521.159623 152.011521 
L 522.384685 142.097725 
L 523.609747 133.651171 
L 524.834809 129.090825 
L 526.059871 127.940825 
L 527.284933 118.502891 
L 528.509995 110.651165 
L 530.960119 98.556334 
L 532.185181 88.880469 
L 533.410244 82.337364 
L 534.635306 88.682193 
L 535.860368 83.447709 
L 537.08543 72.264947 
L 538.310492 69.925292 
L 539.535554 60.804599 
L 541.985678 50.216665 
L 543.21074 60.011496 
L 544.435802 61.875289 
L 545.660865 58.940806 
L 546.885927 59.932185 
L 548.110989 65.206325 
L 549.336051 61.478737 
L 550.561113 60.804599 
L 551.786175 77.142535 
L 553.011237 83.923571 
L 554.236299 88.444262 
L 555.461361 94.868402 
L 556.686424 107.875302 
L 557.911486 107.518405 
L 559.136548 106.527026 
L 560.36161 122.190823 
L 561.586672 131.549447 
L 562.811734 138.013241 
L 564.036796 143.009795 
L 565.261858 152.368418 
L 566.48692 151.813245 
L 567.711982 152.090832 
L 568.937045 168.389112 
L 570.162107 175.883942 
L 571.387169 188.256359 
L 572.612231 201.897742 
L 573.837293 198.685672 
L 575.062355 203.246018 
L 576.287417 204.673605 
L 577.512479 206.577054 
L 578.737541 208.00464 
L 579.962603 228.308094 
L 581.187666 229.101198 
L 582.412728 240.323615 
L 584.862852 238.063269 
L 586.087914 251.585687 
L 588.538038 264.315001 
L 589.7631 269.708106 
L 590.988162 280.890867 
L 592.213225 280.613281 
L 593.438287 279.859833 
L 594.663349 290.408111 
L 595.888411 298.854665 
L 597.113473 305.913288 
L 598.338535 310.989152 
L 599.563597 319.871913 
L 600.788659 321.140879 
L 602.013721 321.53743 
L 603.238783 322.568465 
L 604.463846 332.402951 
L 605.688908 337.835711 
L 608.139032 346.083989 
L 609.364094 345.727092 
L 610.589156 346.559851 
L 613.03928 355.839164 
L 614.264342 358.25813 
L 615.489404 362.858132 
L 616.714467 368.251237 
L 617.939529 368.647788 
L 619.164591 368.885719 
L 620.389653 372.533996 
L 621.614715 374.675376 
L 622.839777 377.054687 
L 624.064839 379.90986 
L 625.289901 381.694344 
L 626.514963 381.97193 
L 627.740025 381.932275 
L 628.965088 383.716758 
L 631.415212 395.018485 
L 632.640274 402.55297 
L 633.865336 403.028832 
L 635.090398 403.266763 
L 636.31546 403.306419 
L 638.765584 407.073661 
L 639.990647 408.540903 
L 642.440771 410.444352 
L 643.665833 410.602972 
L 644.890895 410.642628 
L 646.115957 412.3478 
L 647.341019 413.220215 
L 648.566081 413.775387 
L 649.791143 415.639181 
L 651.016205 420.437458 
L 652.241268 420.358148 
L 653.46633 423.13401 
L 654.691392 427.535736 
L 655.916454 434.396082 
L 657.141516 434.475393 
L 658.366578 437.013325 
L 659.59164 439.828843 
L 660.816702 439.908153 
L 662.041764 439.749532 
L 663.266826 442.921947 
L 664.491889 443.239188 
L 665.716951 443.675395 
L 666.942013 443.120223 
L 668.167075 443.318499 
L 670.617199 443.001257 
L 671.842261 443.199533 
L 673.067323 443.873671 
L 674.292385 443.715051 
L 675.517448 443.080568 
L 676.74251 444.508154 
L 679.192634 444.111602 
L 680.417696 443.596085 
L 681.642758 442.56505 
L 682.86782 442.604705 
L 684.092882 442.208154 
L 685.317944 440.899533 
L 686.543006 440.582291 
L 687.768069 440.384015 
L 688.993131 438.758153 
L 690.218193 436.259876 
L 691.443255 434.634014 
L 692.668317 435.427117 
L 693.893379 433.365048 
L 695.118441 432.334013 
L 696.343503 430.509874 
L 697.568565 427.297805 
L 698.793627 424.640907 
L 700.01869 424.04608 
L 701.243752 422.380562 
L 702.468814 416.828836 
L 703.693876 413.41849 
L 704.918938 411.11849 
L 706.144 406.75642 
L 708.594124 393.154692 
L 711.044249 380.782274 
L 712.269311 376.935722 
L 713.494373 375.270204 
L 714.719435 365.356408 
L 715.944497 358.575372 
L 717.169559 354.133991 
L 718.394621 347.075369 
L 719.619683 343.427092 
L 720.844745 338.906401 
L 722.069807 335.654676 
L 725.744994 318.959843 
L 726.970056 314.478808 
L 728.195118 311.108117 
L 730.645242 307.499495 
L 731.870304 302.621908 
L 733.095366 301.709839 
L 734.320428 297.268458 
L 735.545491 294.056388 
L 736.770553 296.118458 
L 737.995615 291.201215 
L 739.220677 289.733973 
L 740.445739 290.606387 
L 742.895863 290.804663 
L 744.120925 289.02018 
L 745.345987 288.147766 
L 746.571049 286.006386 
L 747.796112 284.142592 
L 749.021174 279.027074 
L 750.246236 276.806384 
L 751.471298 275.854659 
L 752.69636 276.251211 
L 753.921422 275.458107 
L 755.146484 272.642589 
L 756.371546 271.135692 
L 757.596608 272.325348 
L 758.821671 268.201209 
L 760.046733 267.408105 
L 761.271795 266.258105 
L 762.496857 267.011553 
L 764.946981 264.394311 
L 766.172043 266.139139 
L 767.397105 265.385691 
L 768.622167 261.856379 
L 769.847229 259.397758 
L 771.072292 256.264998 
L 772.297354 254.837412 
L 773.522416 254.282239 
L 774.747478 254.202929 
L 775.97254 248.611548 
L 777.197602 246.192582 
L 778.422664 239.847753 
L 779.647726 237.111545 
L 780.872788 233.185682 
L 782.09785 231.63913 
L 783.322913 224.342576 
L 786.998099 210.463262 
L 788.223161 207.409812 
L 789.448223 203.166708 
L 790.673285 198.408086 
L 793.123409 182.030495 
L 794.348472 180.127046 
L 795.573534 172.989113 
L 796.798596 167.952905 
L 798.023658 160.021868 
L 799.24872 156.333936 
L 800.473782 154.073591 
L 801.698844 149.354624 
L 802.923906 147.689106 
L 804.148968 140.511518 
L 805.37403 144.873588 
L 806.599093 140.590828 
L 807.824155 135.792551 
L 809.049217 134.801172 
L 810.274279 134.40462 
L 811.499341 139.480483 
L 812.724403 142.216691 
L 813.949465 149.077038 
L 815.174527 148.204624 
L 815.174527 148.204624 
" style="fill:none;stroke:#ffc0cb;stroke-linecap:round;stroke-width:1.5;"/>
   </g>
   <g id="line2d_149">
    <path clip-path="url(#p4eb6078321)" d="M 96.063073 471.473679 
L 98.513197 471.434024 
L 99.738259 471.235748 
L 104.638507 471.077127 
L 105.86357 471.354713 
L 107.088632 471.275403 
L 109.538756 470.759886 
L 110.763818 470.759886 
L 111.98888 471.077127 
L 114.439004 471.156438 
L 115.664066 470.918506 
L 116.889128 471.037472 
L 118.114191 470.878851 
L 119.339253 470.878851 
L 120.564315 471.037472 
L 121.789377 470.878851 
L 124.239501 470.958162 
L 127.914687 470.799541 
L 129.13975 470.918506 
L 130.364812 470.918506 
L 131.589874 471.037472 
L 132.814936 470.958162 
L 134.039998 470.997817 
L 136.490122 470.56161 
L 137.715184 470.284023 
L 138.940246 470.204713 
L 140.165308 470.521955 
L 142.615433 470.482299 
L 147.515681 470.799541 
L 148.740743 471.077127 
L 152.415929 471.354713 
L 153.640992 471.354713 
L 154.866054 471.6323 
L 156.091116 471.71161 
L 158.54124 471.6323 
L 162.216426 471.79092 
L 164.666551 471.870231 
L 165.891613 471.71161 
L 167.116675 472.147817 
L 169.566799 472.187472 
L 170.791861 472.028852 
L 173.241985 472.028852 
L 174.467047 471.909886 
L 175.692109 471.989196 
L 176.917172 471.830576 
L 179.367296 471.909886 
L 181.81742 471.909886 
L 186.717668 471.989196 
L 187.94273 471.830576 
L 189.167793 471.989196 
L 192.842979 471.989196 
L 194.068041 471.870231 
L 196.518165 471.79092 
L 197.743227 471.71161 
L 200.193351 471.275403 
L 202.643476 471.235748 
L 208.768786 471.354713 
L 209.993848 471.235748 
L 212.443973 471.394369 
L 213.669035 471.235748 
L 216.119159 471.196093 
L 218.569283 471.434024 
L 221.019407 471.394369 
L 222.244469 471.196093 
L 225.919656 471.156438 
L 227.144718 471.275403 
L 228.36978 471.552989 
L 235.720152 470.918506 
L 238.170277 471.156438 
L 239.395339 470.839196 
L 243.070525 470.799541 
L 244.295587 470.878851 
L 246.745711 470.64092 
L 247.970774 470.323679 
L 251.64596 470.363334 
L 252.871022 469.966782 
L 255.321146 470.006437 
L 257.77127 470.323679 
L 260.221395 470.284023 
L 261.446457 470.085748 
L 262.671519 470.125403 
L 263.896581 470.006437 
L 265.121643 469.609885 
L 267.571767 469.57023 
L 268.796829 469.927127 
L 270.021891 469.966782 
L 271.246953 470.125403 
L 272.472016 469.927127 
L 273.697078 470.165058 
L 277.372264 469.927127 
L 278.597326 470.046092 
L 279.822388 470.006437 
L 281.04745 470.085748 
L 282.272512 470.284023 
L 283.497575 470.244368 
L 285.947699 470.402989 
L 288.397823 470.125403 
L 289.622885 470.323679 
L 290.847947 470.284023 
L 292.073009 470.402989 
L 293.298071 470.402989 
L 299.423382 471.156438 
L 300.648444 471.037472 
L 305.548692 471.354713 
L 306.773754 471.315058 
L 307.998817 471.077127 
L 309.223879 471.077127 
L 310.448941 470.878851 
L 315.349189 470.64092 
L 320.249438 470.165058 
L 322.699562 470.402989 
L 325.149686 470.204713 
L 327.59981 470.046092 
L 328.824872 469.927127 
L 330.049934 469.966782 
L 331.274997 469.847816 
L 332.500059 469.57023 
L 334.950183 469.371954 
L 336.175245 469.57023 
L 337.400307 469.015058 
L 338.625369 468.816782 
L 339.850431 468.261609 
L 341.075493 468.063333 
L 342.300555 467.468505 
L 343.525618 467.032298 
L 344.75068 466.715057 
L 345.975742 466.596091 
L 347.200804 466.754712 
L 348.425866 466.080574 
L 349.650928 465.882298 
L 350.87599 465.961608 
L 353.326114 465.802988 
L 354.551176 465.366781 
L 357.001301 463.027125 
L 358.226363 462.590918 
L 359.451425 462.313332 
L 360.676487 461.758159 
L 361.901549 461.718504 
L 363.126611 461.797814 
L 364.351673 461.401262 
L 365.576735 461.559883 
L 366.801798 461.242642 
L 368.02686 461.084021 
L 369.251922 460.806435 
L 370.476984 460.885745 
L 371.702046 461.084021 
L 372.927108 460.489193 
L 374.15217 460.092641 
L 375.377232 458.863331 
L 376.602294 457.316779 
L 377.827356 456.325399 
L 379.052419 456.325399 
L 381.502543 456.959882 
L 383.952667 455.452985 
L 385.177729 455.215054 
L 386.402791 455.41333 
L 387.627853 455.452985 
L 388.852915 454.382295 
L 390.077977 452.954708 
L 391.30304 451.765053 
L 392.528102 451.765053 
L 393.753164 452.518501 
L 394.978226 452.042639 
L 396.203288 452.042639 
L 397.42835 451.765053 
L 398.653412 452.121949 
L 399.878474 450.932294 
L 401.103536 451.011604 
L 402.328599 449.187466 
L 403.553661 448.90988 
L 404.778723 449.108156 
L 406.003785 449.504707 
L 407.228847 449.425397 
L 408.453909 449.901259 
L 409.678971 450.020225 
L 410.904033 451.249535 
L 412.129095 451.011604 
L 413.354157 451.249535 
L 414.57922 451.765053 
L 415.804282 451.646087 
L 417.029344 451.368501 
L 419.479468 452.20126 
L 420.70453 451.765053 
L 421.929592 451.765053 
L 423.154654 452.518501 
L 424.379716 453.708157 
L 425.604778 453.985743 
L 430.505027 454.540916 
L 431.730089 456.206433 
L 432.955151 456.920227 
L 434.180213 457.475399 
L 435.405275 457.55471 
L 436.630337 457.435744 
L 439.080462 457.435744 
L 440.305524 457.63402 
L 441.530586 457.951261 
L 442.755648 458.70471 
L 443.98071 458.902986 
L 445.205772 458.902986 
L 446.430834 459.021951 
L 447.655896 458.982296 
L 450.106021 459.894365 
L 451.331083 459.537469 
L 452.556145 460.727124 
L 453.781207 461.242642 
L 455.006269 461.361607 
L 456.231331 461.282297 
L 457.456393 461.440918 
L 458.681455 461.361607 
L 459.906517 461.99609 
L 461.131579 462.313332 
L 463.581704 462.075401 
L 466.031828 461.99609 
L 467.25689 461.440918 
L 468.481952 461.242642 
L 469.707014 461.520228 
L 470.932076 461.559883 
L 472.157138 461.361607 
L 474.607263 461.639193 
L 475.832325 461.956435 
L 477.057387 461.678849 
L 478.282449 460.885745 
L 479.507511 460.449538 
L 481.957635 460.568504 
L 483.182697 461.044366 
L 484.407759 461.242642 
L 485.632822 460.766779 
L 486.857884 460.608159 
L 488.082946 459.973676 
L 489.308008 459.973676 
L 490.53307 459.7754 
L 492.983194 458.665055 
L 494.208256 457.871951 
L 495.433318 457.832296 
L 496.65838 457.515054 
L 497.883443 457.435744 
L 499.108505 456.880571 
L 500.333567 456.087468 
L 501.558629 455.730571 
L 502.783691 455.651261 
L 504.008753 455.056433 
L 505.233815 455.175399 
L 506.458877 454.580571 
L 507.683939 454.42195 
L 508.909001 452.558156 
L 510.134064 452.796088 
L 511.359126 452.637467 
L 512.584188 452.597812 
L 513.80925 452.439191 
L 515.034312 451.804708 
L 516.259374 451.368501 
L 517.484436 449.623673 
L 518.709498 448.235741 
L 519.93456 448.354707 
L 521.159623 445.935741 
L 522.384685 445.182292 
L 523.609747 445.102982 
L 526.059871 445.102982 
L 527.284933 443.596085 
L 528.509995 443.040912 
L 529.735057 442.009878 
L 530.960119 442.723671 
L 532.185181 442.009878 
L 533.410244 441.851257 
L 534.635306 442.684016 
L 535.860368 442.842637 
L 537.08543 441.890912 
L 538.310492 442.882292 
L 540.760616 442.446085 
L 543.21074 443.397809 
L 545.660865 441.692636 
L 546.885927 440.26505 
L 548.110989 440.304705 
L 549.336051 440.740912 
L 550.561113 440.899533 
L 551.786175 441.732291 
L 553.011237 440.820222 
L 554.236299 440.502981 
L 555.461361 440.34436 
L 556.686424 440.740912 
L 557.911486 440.899533 
L 559.136548 441.454705 
L 560.36161 441.573671 
L 561.586672 442.168498 
L 562.811734 441.33574 
L 564.036796 441.534015 
L 565.261858 442.723671 
L 566.48692 443.239188 
L 567.711982 442.921947 
L 568.937045 443.794361 
L 570.162107 444.190913 
L 572.612231 445.459879 
L 573.837293 445.77712 
L 575.062355 445.935741 
L 576.287417 446.252982 
L 578.737541 447.244362 
L 579.962603 448.751259 
L 581.187666 449.227121 
L 582.412728 449.901259 
L 584.862852 450.218501 
L 586.087914 450.496087 
L 587.312976 451.289191 
L 589.7631 452.042639 
L 590.988162 452.518501 
L 593.438287 452.716777 
L 594.663349 453.073674 
L 595.888411 453.27195 
L 597.113473 454.263329 
L 598.338535 454.977123 
L 599.563597 455.968502 
L 602.013721 456.56333 
L 603.238783 456.404709 
L 604.463846 457.316779 
L 605.688908 457.63402 
L 606.91397 457.475399 
L 608.139032 457.951261 
L 610.589156 458.268503 
L 611.814218 458.70471 
L 613.03928 459.735745 
L 614.264342 459.577124 
L 616.714467 460.885745 
L 617.939529 460.885745 
L 619.164591 461.123676 
L 622.839777 462.352987 
L 624.064839 462.471952 
L 625.289901 462.749539 
L 627.740025 462.709883 
L 628.965088 462.908159 
L 630.19015 462.947815 
L 632.640274 463.978849 
L 633.865336 464.256436 
L 636.31546 464.296091 
L 637.540522 464.573677 
L 638.765584 464.732298 
L 639.990647 464.534022 
L 641.215709 464.534022 
L 642.440771 464.732298 
L 644.890895 464.692643 
L 646.115957 465.12885 
L 647.341019 465.406436 
L 648.566081 465.406436 
L 649.791143 466.040919 
L 651.016205 466.35816 
L 653.46633 466.477126 
L 654.691392 467.627126 
L 655.916454 468.102988 
L 657.141516 468.023678 
L 659.59164 468.340919 
L 662.041764 468.380575 
L 663.266826 468.737471 
L 671.842261 469.015058 
L 673.067323 469.252989 
L 674.292385 469.332299 
L 675.517448 469.292644 
L 676.74251 469.530575 
L 679.192634 469.451265 
L 680.417696 469.609885 
L 682.86782 469.371954 
L 684.092882 469.371954 
L 685.317944 469.530575 
L 691.443255 468.935747 
L 692.668317 468.975402 
L 693.893379 468.896092 
L 695.118441 468.618506 
L 696.343503 468.578851 
L 697.568565 468.777127 
L 700.01869 468.221954 
L 701.243752 468.301264 
L 702.468814 467.587471 
L 703.693876 467.309885 
L 704.918938 466.913333 
L 706.144 466.754712 
L 708.594124 465.604712 
L 709.819186 464.811608 
L 711.044249 464.851263 
L 713.494373 464.494367 
L 714.719435 463.661608 
L 715.944497 462.670228 
L 718.394621 461.440918 
L 719.619683 460.687469 
L 722.069807 460.687469 
L 723.29487 460.568504 
L 724.519932 459.656434 
L 725.744994 459.339193 
L 728.195118 459.259882 
L 729.42018 459.101262 
L 730.645242 459.339193 
L 731.870304 459.061607 
L 733.095366 459.458158 
L 734.320428 458.109882 
L 735.545491 457.515054 
L 736.770553 457.55471 
L 737.995615 457.435744 
L 739.220677 457.71333 
L 740.445739 457.832296 
L 741.670801 457.197813 
L 742.895863 456.801261 
L 746.571049 456.801261 
L 749.021174 457.118503 
L 750.246236 456.444364 
L 751.471298 456.444364 
L 752.69636 456.087468 
L 756.371546 455.928847 
L 760.046733 454.34264 
L 761.271795 454.184019 
L 763.721919 454.065053 
L 764.946981 454.184019 
L 766.172043 454.858157 
L 767.397105 454.263329 
L 768.622167 454.461605 
L 769.847229 454.144364 
L 771.072292 454.184019 
L 772.297354 453.906433 
L 774.747478 453.787467 
L 775.97254 453.27195 
L 777.197602 453.192639 
L 778.422664 452.954708 
L 779.647726 452.320225 
L 780.872788 452.20126 
L 782.09785 452.20126 
L 783.322913 451.20988 
L 784.547975 450.377121 
L 785.773037 450.020225 
L 786.998099 449.108156 
L 789.448223 448.632293 
L 790.673285 448.711604 
L 791.898347 448.394362 
L 794.348472 448.434017 
L 795.573534 446.490913 
L 796.798596 445.69781 
L 798.023658 445.340913 
L 799.24872 445.539189 
L 800.473782 445.975396 
L 801.698844 444.904706 
L 802.923906 444.151258 
L 804.148968 444.349534 
L 805.37403 443.794361 
L 806.599093 443.477119 
L 807.824155 443.477119 
L 809.049217 443.834016 
L 810.274279 442.882292 
L 811.499341 442.366774 
L 815.174527 442.961602 
L 815.174527 442.961602 
" style="fill:none;stroke:#800080;stroke-linecap:round;stroke-width:1.5;"/>
   </g>
   <g id="line2d_150"/>
   <g id="line2d_151"/>
   <g id="patch_3">
    <path d="M 60.1075 493.286013 
L 60.1075 29.118125 
" style="fill:none;stroke:#262626;stroke-linecap:square;stroke-linejoin:miter;stroke-width:1.25;"/>
   </g>
   <g id="patch_4">
    <path d="M 851.1301 493.286013 
L 851.1301 29.118125 
" style="fill:none;stroke:#262626;stroke-linecap:square;stroke-linejoin:miter;stroke-width:1.25;"/>
   </g>
   <g id="patch_5">
    <path d="M 60.1075 493.286013 
L 851.1301 493.286013 
" style="fill:none;stroke:#262626;stroke-linecap:square;stroke-linejoin:miter;stroke-width:1.25;"/>
   </g>
   <g id="patch_6">
    <path d="M 60.1075 29.118125 
L 851.1301 29.118125 
" style="fill:none;stroke:#262626;stroke-linecap:square;stroke-linejoin:miter;stroke-width:1.25;"/>
   </g>
   <g id="text_30">
    <!-- Last update: 14.11.2021 -->
    <g style="fill:#262626;" transform="translate(394.119972 22.155607)scale(0.09996 -0.09996)">
     <defs>
      <path d="M 628 4666 
L 1259 4666 
L 1259 531 
L 3531 531 
L 3531 0 
L 628 0 
L 628 4666 
z
" id="DejaVuSans-4c" transform="scale(0.015625)"/>
      <path id="DejaVuSans-20" transform="scale(0.015625)"/>
      <path d="M 544 1381 
L 544 3500 
L 1119 3500 
L 1119 1403 
Q 1119 906 1312 657 
Q 1506 409 1894 409 
Q 2359 409 2629 706 
Q 2900 1003 2900 1516 
L 2900 3500 
L 3475 3500 
L 3475 0 
L 2900 0 
L 2900 538 
Q 2691 219 2414 64 
Q 2138 -91 1772 -91 
Q 1169 -91 856 284 
Q 544 659 544 1381 
z
M 1991 3584 
L 1991 3584 
z
" id="DejaVuSans-75" transform="scale(0.015625)"/>
      <path d="M 1159 525 
L 1159 -1331 
L 581 -1331 
L 581 3500 
L 1159 3500 
L 1159 2969 
Q 1341 3281 1617 3432 
Q 1894 3584 2278 3584 
Q 2916 3584 3314 3078 
Q 3713 2572 3713 1747 
Q 3713 922 3314 415 
Q 2916 -91 2278 -91 
Q 1894 -91 1617 61 
Q 1341 213 1159 525 
z
M 3116 1747 
Q 3116 2381 2855 2742 
Q 2594 3103 2138 3103 
Q 1681 3103 1420 2742 
Q 1159 2381 1159 1747 
Q 1159 1113 1420 752 
Q 1681 391 2138 391 
Q 2594 391 2855 752 
Q 3116 1113 3116 1747 
z
" id="DejaVuSans-70" transform="scale(0.015625)"/>
      <path d="M 2906 2969 
L 2906 4863 
L 3481 4863 
L 3481 0 
L 2906 0 
L 2906 525 
Q 2725 213 2448 61 
Q 2172 -91 1784 -91 
Q 1150 -91 751 415 
Q 353 922 353 1747 
Q 353 2572 751 3078 
Q 1150 3584 1784 3584 
Q 2172 3584 2448 3432 
Q 2725 3281 2906 2969 
z
M 947 1747 
Q 947 1113 1208 752 
Q 1469 391 1925 391 
Q 2381 391 2643 752 
Q 2906 1113 2906 1747 
Q 2906 2381 2643 2742 
Q 2381 3103 1925 3103 
Q 1469 3103 1208 2742 
Q 947 2381 947 1747 
z
" id="DejaVuSans-64" transform="scale(0.015625)"/>
      <path d="M 750 794 
L 1409 794 
L 1409 0 
L 750 0 
L 750 794 
z
M 750 3309 
L 1409 3309 
L 1409 2516 
L 750 2516 
L 750 3309 
z
" id="DejaVuSans-3a" transform="scale(0.015625)"/>
     </defs>
     <use xlink:href="#DejaVuSans-4c"/>
     <use x="55.712891" xlink:href="#DejaVuSans-61"/>
     <use x="116.992188" xlink:href="#DejaVuSans-73"/>
     <use x="169.091797" xlink:href="#DejaVuSans-74"/>
     <use x="208.300781" xlink:href="#DejaVuSans-20"/>
     <use x="240.087891" xlink:href="#DejaVuSans-75"/>
     <use x="303.466797" xlink:href="#DejaVuSans-70"/>
     <use x="366.943359" xlink:href="#DejaVuSans-64"/>
     <use x="430.419922" xlink:href="#DejaVuSans-61"/>
     <use x="491.699219" xlink:href="#DejaVuSans-74"/>
     <use x="530.908203" xlink:href="#DejaVuSans-65"/>
     <use x="592.431641" xlink:href="#DejaVuSans-3a"/>
     <use x="626.123047" xlink:href="#DejaVuSans-20"/>
     <use x="657.910156" xlink:href="#DejaVuSans-31"/>
     <use x="721.533203" xlink:href="#DejaVuSans-34"/>
     <use x="785.15625" xlink:href="#DejaVuSans-2e"/>
     <use x="816.943359" xlink:href="#DejaVuSans-31"/>
     <use x="880.566406" xlink:href="#DejaVuSans-31"/>
     <use x="944.189453" xlink:href="#DejaVuSans-2e"/>
     <use x="975.976562" xlink:href="#DejaVuSans-32"/>
     <use x="1039.599609" xlink:href="#DejaVuSans-30"/>
     <use x="1103.222656" xlink:href="#DejaVuSans-32"/>
     <use x="1166.845703" xlink:href="#DejaVuSans-31"/>
    </g>
   </g>
   <g id="text_31">
    <!-- Disease timeline -->
    <g style="fill:#262626;" transform="translate(399.460675 9.118125)scale(0.12 -0.12)">
     <defs>
      <path d="M 1791 3756 
L 1791 909 
L 2222 909 
Q 2959 909 3348 1275 
Q 3738 1641 3738 2338 
Q 3738 3031 3350 3393 
Q 2963 3756 2222 3756 
L 1791 3756 
z
M 588 4666 
L 1856 4666 
Q 2919 4666 3439 4514 
Q 3959 4363 4331 4000 
Q 4659 3684 4818 3271 
Q 4978 2859 4978 2338 
Q 4978 1809 4818 1395 
Q 4659 981 4331 666 
Q 3956 303 3431 151 
Q 2906 0 1856 0 
L 588 0 
L 588 4666 
z
" id="DejaVuSans-Bold-44" transform="scale(0.015625)"/>
      <path d="M 538 3500 
L 1656 3500 
L 1656 0 
L 538 0 
L 538 3500 
z
M 538 4863 
L 1656 4863 
L 1656 3950 
L 538 3950 
L 538 4863 
z
" id="DejaVuSans-Bold-69" transform="scale(0.015625)"/>
      <path d="M 3272 3391 
L 3272 2541 
Q 2913 2691 2578 2766 
Q 2244 2841 1947 2841 
Q 1628 2841 1473 2761 
Q 1319 2681 1319 2516 
Q 1319 2381 1436 2309 
Q 1553 2238 1856 2203 
L 2053 2175 
Q 2913 2066 3209 1816 
Q 3506 1566 3506 1031 
Q 3506 472 3093 190 
Q 2681 -91 1863 -91 
Q 1516 -91 1145 -36 
Q 775 19 384 128 
L 384 978 
Q 719 816 1070 734 
Q 1422 653 1784 653 
Q 2113 653 2278 743 
Q 2444 834 2444 1013 
Q 2444 1163 2330 1236 
Q 2216 1309 1875 1350 
L 1678 1375 
Q 931 1469 631 1722 
Q 331 1975 331 2491 
Q 331 3047 712 3315 
Q 1094 3584 1881 3584 
Q 2191 3584 2531 3537 
Q 2872 3491 3272 3391 
z
" id="DejaVuSans-Bold-73" transform="scale(0.015625)"/>
      <path d="M 4031 1759 
L 4031 1441 
L 1416 1441 
Q 1456 1047 1700 850 
Q 1944 653 2381 653 
Q 2734 653 3104 758 
Q 3475 863 3866 1075 
L 3866 213 
Q 3469 63 3072 -14 
Q 2675 -91 2278 -91 
Q 1328 -91 801 392 
Q 275 875 275 1747 
Q 275 2603 792 3093 
Q 1309 3584 2216 3584 
Q 3041 3584 3536 3087 
Q 4031 2591 4031 1759 
z
M 2881 2131 
Q 2881 2450 2695 2645 
Q 2509 2841 2209 2841 
Q 1884 2841 1681 2658 
Q 1478 2475 1428 2131 
L 2881 2131 
z
" id="DejaVuSans-Bold-65" transform="scale(0.015625)"/>
      <path d="M 2106 1575 
Q 1756 1575 1579 1456 
Q 1403 1338 1403 1106 
Q 1403 894 1545 773 
Q 1688 653 1941 653 
Q 2256 653 2472 879 
Q 2688 1106 2688 1447 
L 2688 1575 
L 2106 1575 
z
M 3816 1997 
L 3816 0 
L 2688 0 
L 2688 519 
Q 2463 200 2181 54 
Q 1900 -91 1497 -91 
Q 953 -91 614 226 
Q 275 544 275 1050 
Q 275 1666 698 1953 
Q 1122 2241 2028 2241 
L 2688 2241 
L 2688 2328 
Q 2688 2594 2478 2717 
Q 2269 2841 1825 2841 
Q 1466 2841 1156 2769 
Q 847 2697 581 2553 
L 581 3406 
Q 941 3494 1303 3539 
Q 1666 3584 2028 3584 
Q 2975 3584 3395 3211 
Q 3816 2838 3816 1997 
z
" id="DejaVuSans-Bold-61" transform="scale(0.015625)"/>
      <path id="DejaVuSans-Bold-20" transform="scale(0.015625)"/>
      <path d="M 1759 4494 
L 1759 3500 
L 2913 3500 
L 2913 2700 
L 1759 2700 
L 1759 1216 
Q 1759 972 1856 886 
Q 1953 800 2241 800 
L 2816 800 
L 2816 0 
L 1856 0 
Q 1194 0 917 276 
Q 641 553 641 1216 
L 641 2700 
L 84 2700 
L 84 3500 
L 641 3500 
L 641 4494 
L 1759 4494 
z
" id="DejaVuSans-Bold-74" transform="scale(0.015625)"/>
      <path d="M 3781 2919 
Q 3994 3244 4286 3414 
Q 4578 3584 4928 3584 
Q 5531 3584 5847 3212 
Q 6163 2841 6163 2131 
L 6163 0 
L 5038 0 
L 5038 1825 
Q 5041 1866 5042 1909 
Q 5044 1953 5044 2034 
Q 5044 2406 4934 2573 
Q 4825 2741 4581 2741 
Q 4263 2741 4089 2478 
Q 3916 2216 3909 1719 
L 3909 0 
L 2784 0 
L 2784 1825 
Q 2784 2406 2684 2573 
Q 2584 2741 2328 2741 
Q 2006 2741 1831 2477 
Q 1656 2213 1656 1722 
L 1656 0 
L 531 0 
L 531 3500 
L 1656 3500 
L 1656 2988 
Q 1863 3284 2130 3434 
Q 2397 3584 2719 3584 
Q 3081 3584 3359 3409 
Q 3638 3234 3781 2919 
z
" id="DejaVuSans-Bold-6d" transform="scale(0.015625)"/>
      <path d="M 538 4863 
L 1656 4863 
L 1656 0 
L 538 0 
L 538 4863 
z
" id="DejaVuSans-Bold-6c" transform="scale(0.015625)"/>
      <path d="M 4056 2131 
L 4056 0 
L 2931 0 
L 2931 347 
L 2931 1631 
Q 2931 2084 2911 2256 
Q 2891 2428 2841 2509 
Q 2775 2619 2662 2680 
Q 2550 2741 2406 2741 
Q 2056 2741 1856 2470 
Q 1656 2200 1656 1722 
L 1656 0 
L 538 0 
L 538 3500 
L 1656 3500 
L 1656 2988 
Q 1909 3294 2193 3439 
Q 2478 3584 2822 3584 
Q 3428 3584 3742 3212 
Q 4056 2841 4056 2131 
z
" id="DejaVuSans-Bold-6e" transform="scale(0.015625)"/>
     </defs>
     <use xlink:href="#DejaVuSans-Bold-44"/>
     <use x="83.007812" xlink:href="#DejaVuSans-Bold-69"/>
     <use x="117.285156" xlink:href="#DejaVuSans-Bold-73"/>
     <use x="176.806641" xlink:href="#DejaVuSans-Bold-65"/>
     <use x="244.628906" xlink:href="#DejaVuSans-Bold-61"/>
     <use x="312.109375" xlink:href="#DejaVuSans-Bold-73"/>
     <use x="371.630859" xlink:href="#DejaVuSans-Bold-65"/>
     <use x="439.453125" xlink:href="#DejaVuSans-Bold-20"/>
     <use x="474.267578" xlink:href="#DejaVuSans-Bold-74"/>
     <use x="522.070312" xlink:href="#DejaVuSans-Bold-69"/>
     <use x="556.347656" xlink:href="#DejaVuSans-Bold-6d"/>
     <use x="660.546875" xlink:href="#DejaVuSans-Bold-65"/>
     <use x="728.369141" xlink:href="#DejaVuSans-Bold-6c"/>
     <use x="762.646484" xlink:href="#DejaVuSans-Bold-69"/>
     <use x="796.923828" xlink:href="#DejaVuSans-Bold-6e"/>
     <use x="868.115234" xlink:href="#DejaVuSans-Bold-65"/>
    </g>
   </g>
   <g id="legend_1">
    <g id="patch_7">
     <path d="M 730.568381 70.21 
L 843.4301 70.21 
Q 845.6301 70.21 845.6301 68.01 
L 845.6301 36.818125 
Q 845.6301 34.618125 843.4301 34.618125 
L 730.568381 34.618125 
Q 728.368381 34.618125 728.368381 36.818125 
L 728.368381 68.01 
Q 728.368381 70.21 730.568381 70.21 
z
" style="fill:#ffffff;opacity:0.8;stroke:#cccccc;stroke-linejoin:miter;"/>
    </g>
    <g id="line2d_152">
     <path d="M 732.768381 43.526406 
L 754.768381 43.526406 
" style="fill:none;stroke:#ffc0cb;stroke-linecap:round;stroke-width:1.5;"/>
    </g>
    <g id="line2d_153"/>
    <g id="text_32">
     <!-- Hospitalized -->
     <g style="fill:#262626;" transform="translate(763.568381 47.376406)scale(0.11 -0.11)">
      <defs>
       <path d="M 628 4666 
L 1259 4666 
L 1259 2753 
L 3553 2753 
L 3553 4666 
L 4184 4666 
L 4184 0 
L 3553 0 
L 3553 2222 
L 1259 2222 
L 1259 0 
L 628 0 
L 628 4666 
z
" id="DejaVuSans-48" transform="scale(0.015625)"/>
       <path d="M 1959 3097 
Q 1497 3097 1228 2736 
Q 959 2375 959 1747 
Q 959 1119 1226 758 
Q 1494 397 1959 397 
Q 2419 397 2687 759 
Q 2956 1122 2956 1747 
Q 2956 2369 2687 2733 
Q 2419 3097 1959 3097 
z
M 1959 3584 
Q 2709 3584 3137 3096 
Q 3566 2609 3566 1747 
Q 3566 888 3137 398 
Q 2709 -91 1959 -91 
Q 1206 -91 779 398 
Q 353 888 353 1747 
Q 353 2609 779 3096 
Q 1206 3584 1959 3584 
z
" id="DejaVuSans-6f" transform="scale(0.015625)"/>
       <path d="M 603 3500 
L 1178 3500 
L 1178 0 
L 603 0 
L 603 3500 
z
M 603 4863 
L 1178 4863 
L 1178 4134 
L 603 4134 
L 603 4863 
z
" id="DejaVuSans-69" transform="scale(0.015625)"/>
       <path d="M 603 4863 
L 1178 4863 
L 1178 0 
L 603 0 
L 603 4863 
z
" id="DejaVuSans-6c" transform="scale(0.015625)"/>
       <path d="M 353 3500 
L 3084 3500 
L 3084 2975 
L 922 459 
L 3084 459 
L 3084 0 
L 275 0 
L 275 525 
L 2438 3041 
L 353 3041 
L 353 3500 
z
" id="DejaVuSans-7a" transform="scale(0.015625)"/>
      </defs>
      <use xlink:href="#DejaVuSans-48"/>
      <use x="75.195312" xlink:href="#DejaVuSans-6f"/>
      <use x="136.376953" xlink:href="#DejaVuSans-73"/>
      <use x="188.476562" xlink:href="#DejaVuSans-70"/>
      <use x="251.953125" xlink:href="#DejaVuSans-69"/>
      <use x="279.736328" xlink:href="#DejaVuSans-74"/>
      <use x="318.945312" xlink:href="#DejaVuSans-61"/>
      <use x="380.224609" xlink:href="#DejaVuSans-6c"/>
      <use x="408.007812" xlink:href="#DejaVuSans-69"/>
      <use x="435.791016" xlink:href="#DejaVuSans-7a"/>
      <use x="488.28125" xlink:href="#DejaVuSans-65"/>
      <use x="549.804688" xlink:href="#DejaVuSans-64"/>
     </g>
    </g>
    <g id="line2d_154">
     <path d="M 732.768381 59.672344 
L 754.768381 59.672344 
" style="fill:none;stroke:#800080;stroke-linecap:round;stroke-width:1.5;"/>
    </g>
    <g id="line2d_155"/>
    <g id="text_33">
     <!-- Intensive care -->
     <g style="fill:#262626;" transform="translate(763.568381 63.522344)scale(0.11 -0.11)">
      <defs>
       <path d="M 628 4666 
L 1259 4666 
L 1259 0 
L 628 0 
L 628 4666 
z
" id="DejaVuSans-49" transform="scale(0.015625)"/>
       <path d="M 3513 2113 
L 3513 0 
L 2938 0 
L 2938 2094 
Q 2938 2591 2744 2837 
Q 2550 3084 2163 3084 
Q 1697 3084 1428 2787 
Q 1159 2491 1159 1978 
L 1159 0 
L 581 0 
L 581 3500 
L 1159 3500 
L 1159 2956 
Q 1366 3272 1645 3428 
Q 1925 3584 2291 3584 
Q 2894 3584 3203 3211 
Q 3513 2838 3513 2113 
z
" id="DejaVuSans-6e" transform="scale(0.015625)"/>
       <path d="M 191 3500 
L 800 3500 
L 1894 563 
L 2988 3500 
L 3597 3500 
L 2284 0 
L 1503 0 
L 191 3500 
z
" id="DejaVuSans-76" transform="scale(0.015625)"/>
       <path d="M 3122 3366 
L 3122 2828 
Q 2878 2963 2633 3030 
Q 2388 3097 2138 3097 
Q 1578 3097 1268 2742 
Q 959 2388 959 1747 
Q 959 1106 1268 751 
Q 1578 397 2138 397 
Q 2388 397 2633 464 
Q 2878 531 3122 666 
L 3122 134 
Q 2881 22 2623 -34 
Q 2366 -91 2075 -91 
Q 1284 -91 818 406 
Q 353 903 353 1747 
Q 353 2603 823 3093 
Q 1294 3584 2113 3584 
Q 2378 3584 2631 3529 
Q 2884 3475 3122 3366 
z
" id="DejaVuSans-63" transform="scale(0.015625)"/>
       <path d="M 2631 2963 
Q 2534 3019 2420 3045 
Q 2306 3072 2169 3072 
Q 1681 3072 1420 2755 
Q 1159 2438 1159 1844 
L 1159 0 
L 581 0 
L 581 3500 
L 1159 3500 
L 1159 2956 
Q 1341 3275 1631 3429 
Q 1922 3584 2338 3584 
Q 2397 3584 2469 3576 
Q 2541 3569 2628 3553 
L 2631 2963 
z
" id="DejaVuSans-72" transform="scale(0.015625)"/>
      </defs>
      <use xlink:href="#DejaVuSans-49"/>
      <use x="29.492188" xlink:href="#DejaVuSans-6e"/>
      <use x="92.871094" xlink:href="#DejaVuSans-74"/>
      <use x="132.080078" xlink:href="#DejaVuSans-65"/>
      <use x="193.603516" xlink:href="#DejaVuSans-6e"/>
      <use x="256.982422" xlink:href="#DejaVuSans-73"/>
      <use x="309.082031" xlink:href="#DejaVuSans-69"/>
      <use x="336.865234" xlink:href="#DejaVuSans-76"/>
      <use x="396.044922" xlink:href="#DejaVuSans-65"/>
      <use x="457.568359" xlink:href="#DejaVuSans-20"/>
      <use x="489.355469" xlink:href="#DejaVuSans-63"/>
      <use x="544.335938" xlink:href="#DejaVuSans-61"/>
      <use x="605.615234" xlink:href="#DejaVuSans-72"/>
      <use x="644.478516" xlink:href="#DejaVuSans-65"/>
     </g>
    </g>
   </g>
  </g>
 </g>
 <defs>
  <clipPath id="p4eb6078321">
   <rect height="464.167888" width="791.0226" x="60.1075" y="29.118125"/>
  </clipPath>
 </defs>
</svg>
