<?xml version="1.0" encoding="utf-8" standalone="no"?>
<!DOCTYPE svg PUBLIC "-//W3C//DTD SVG 1.1//EN"
  "http://www.w3.org/Graphics/SVG/1.1/DTD/svg11.dtd">
<svg xmlns:xlink="http://www.w3.org/1999/xlink" width="837.4pt" height="547.904678pt" viewBox="0 0 837.4 547.904678" xmlns="http://www.w3.org/2000/svg" version="1.1">
 <metadata>
  <rdf:RDF xmlns:dc="http://purl.org/dc/elements/1.1/" xmlns:cc="http://creativecommons.org/ns#" xmlns:rdf="http://www.w3.org/1999/02/22-rdf-syntax-ns#">
   <cc:Work>
    <dc:type rdf:resource="http://purl.org/dc/dcmitype/StillImage"/>
    <dc:date>2021-11-30T02:06:58.411958</dc:date>
    <dc:format>image/svg+xml</dc:format>
    <dc:creator>
     <cc:Agent>
      <dc:title>Matplotlib v3.5.0, https://matplotlib.org/</dc:title>
     </cc:Agent>
    </dc:creator>
   </cc:Work>
  </rdf:RDF>
 </metadata>
 <defs>
  <style type="text/css">*{stroke-linejoin: round; stroke-linecap: butt}</style>
 </defs>
 <g id="figure_1">
  <g id="patch_1">
   <path d="M 0 547.904678 
L 837.4 547.904678 
L 837.4 0 
L 0 0 
L 0 547.904678 
z
" style="fill: none"/>
  </g>
  <g id="axes_1">
   <g id="patch_2">
    <path d="M 67.10625 470.728203 
L 772.90625 470.728203 
L 772.90625 29.118125 
L 67.10625 29.118125 
L 67.10625 470.728203 
z
" style="fill: none"/>
   </g>
   <g id="matplotlib.axis_1">
    <g id="xtick_1">
     <g id="line2d_1">
      <path d="M 99.188068 470.728203 
L 99.188068 29.118125 
" clip-path="url(#p765bfdb8a7)" style="fill: none; stroke: #cccccc; stroke-linecap: round"/>
     </g>
     <g id="line2d_2">
      <defs>
       <path id="m11b1f2e530" d="M 0 0 
L 0 6 
" style="stroke: #262626; stroke-width: 1.25"/>
      </defs>
      <g>
       <use xlink:href="#m11b1f2e530" x="99.188068" y="470.728203" style="fill: #262626; stroke: #262626; stroke-width: 1.25"/>
      </g>
     </g>
     <g id="text_1">
      <!-- 07.03.2020 -->
      <g style="fill: #262626" transform="translate(53.03554 530.673311)rotate(-45)scale(0.11 -0.11)">
       <defs>
        <path id="DejaVuSans-30" d="M 2034 4250 
Q 1547 4250 1301 3770 
Q 1056 3291 1056 2328 
Q 1056 1369 1301 889 
Q 1547 409 2034 409 
Q 2525 409 2770 889 
Q 3016 1369 3016 2328 
Q 3016 3291 2770 3770 
Q 2525 4250 2034 4250 
z
M 2034 4750 
Q 2819 4750 3233 4129 
Q 3647 3509 3647 2328 
Q 3647 1150 3233 529 
Q 2819 -91 2034 -91 
Q 1250 -91 836 529 
Q 422 1150 422 2328 
Q 422 3509 836 4129 
Q 1250 4750 2034 4750 
z
" transform="scale(0.015625)"/>
        <path id="DejaVuSans-37" d="M 525 4666 
L 3525 4666 
L 3525 4397 
L 1831 0 
L 1172 0 
L 2766 4134 
L 525 4134 
L 525 4666 
z
" transform="scale(0.015625)"/>
        <path id="DejaVuSans-2e" d="M 684 794 
L 1344 794 
L 1344 0 
L 684 0 
L 684 794 
z
" transform="scale(0.015625)"/>
        <path id="DejaVuSans-33" d="M 2597 2516 
Q 3050 2419 3304 2112 
Q 3559 1806 3559 1356 
Q 3559 666 3084 287 
Q 2609 -91 1734 -91 
Q 1441 -91 1130 -33 
Q 819 25 488 141 
L 488 750 
Q 750 597 1062 519 
Q 1375 441 1716 441 
Q 2309 441 2620 675 
Q 2931 909 2931 1356 
Q 2931 1769 2642 2001 
Q 2353 2234 1838 2234 
L 1294 2234 
L 1294 2753 
L 1863 2753 
Q 2328 2753 2575 2939 
Q 2822 3125 2822 3475 
Q 2822 3834 2567 4026 
Q 2313 4219 1838 4219 
Q 1578 4219 1281 4162 
Q 984 4106 628 3988 
L 628 4550 
Q 988 4650 1302 4700 
Q 1616 4750 1894 4750 
Q 2613 4750 3031 4423 
Q 3450 4097 3450 3541 
Q 3450 3153 3228 2886 
Q 3006 2619 2597 2516 
z
" transform="scale(0.015625)"/>
        <path id="DejaVuSans-32" d="M 1228 531 
L 3431 531 
L 3431 0 
L 469 0 
L 469 531 
Q 828 903 1448 1529 
Q 2069 2156 2228 2338 
Q 2531 2678 2651 2914 
Q 2772 3150 2772 3378 
Q 2772 3750 2511 3984 
Q 2250 4219 1831 4219 
Q 1534 4219 1204 4116 
Q 875 4013 500 3803 
L 500 4441 
Q 881 4594 1212 4672 
Q 1544 4750 1819 4750 
Q 2544 4750 2975 4387 
Q 3406 4025 3406 3419 
Q 3406 3131 3298 2873 
Q 3191 2616 2906 2266 
Q 2828 2175 2409 1742 
Q 1991 1309 1228 531 
z
" transform="scale(0.015625)"/>
       </defs>
       <use xlink:href="#DejaVuSans-30"/>
       <use xlink:href="#DejaVuSans-37" x="63.623047"/>
       <use xlink:href="#DejaVuSans-2e" x="127.246094"/>
       <use xlink:href="#DejaVuSans-30" x="159.033203"/>
       <use xlink:href="#DejaVuSans-33" x="222.65625"/>
       <use xlink:href="#DejaVuSans-2e" x="286.279297"/>
       <use xlink:href="#DejaVuSans-32" x="318.066406"/>
       <use xlink:href="#DejaVuSans-30" x="381.689453"/>
       <use xlink:href="#DejaVuSans-32" x="445.3125"/>
       <use xlink:href="#DejaVuSans-30" x="508.935547"/>
      </g>
     </g>
    </g>
    <g id="xtick_2">
     <g id="line2d_3">
      <path d="M 127.614996 470.728203 
L 127.614996 29.118125 
" clip-path="url(#p765bfdb8a7)" style="fill: none; stroke: #cccccc; stroke-linecap: round"/>
     </g>
     <g id="line2d_4">
      <g>
       <use xlink:href="#m11b1f2e530" x="127.614996" y="470.728203" style="fill: #262626; stroke: #262626; stroke-width: 1.25"/>
      </g>
     </g>
     <g id="text_2">
      <!-- 04.04.2020 -->
      <g style="fill: #262626" transform="translate(81.462468 530.673311)rotate(-45)scale(0.11 -0.11)">
       <defs>
        <path id="DejaVuSans-34" d="M 2419 4116 
L 825 1625 
L 2419 1625 
L 2419 4116 
z
M 2253 4666 
L 3047 4666 
L 3047 1625 
L 3713 1625 
L 3713 1100 
L 3047 1100 
L 3047 0 
L 2419 0 
L 2419 1100 
L 313 1100 
L 313 1709 
L 2253 4666 
z
" transform="scale(0.015625)"/>
       </defs>
       <use xlink:href="#DejaVuSans-30"/>
       <use xlink:href="#DejaVuSans-34" x="63.623047"/>
       <use xlink:href="#DejaVuSans-2e" x="127.246094"/>
       <use xlink:href="#DejaVuSans-30" x="159.033203"/>
       <use xlink:href="#DejaVuSans-34" x="222.65625"/>
       <use xlink:href="#DejaVuSans-2e" x="286.279297"/>
       <use xlink:href="#DejaVuSans-32" x="318.066406"/>
       <use xlink:href="#DejaVuSans-30" x="381.689453"/>
       <use xlink:href="#DejaVuSans-32" x="445.3125"/>
       <use xlink:href="#DejaVuSans-30" x="508.935547"/>
      </g>
     </g>
    </g>
    <g id="xtick_3">
     <g id="line2d_5">
      <path d="M 156.041923 470.728203 
L 156.041923 29.118125 
" clip-path="url(#p765bfdb8a7)" style="fill: none; stroke: #cccccc; stroke-linecap: round"/>
     </g>
     <g id="line2d_6">
      <g>
       <use xlink:href="#m11b1f2e530" x="156.041923" y="470.728203" style="fill: #262626; stroke: #262626; stroke-width: 1.25"/>
      </g>
     </g>
     <g id="text_3">
      <!-- 02.05.2020 -->
      <g style="fill: #262626" transform="translate(109.889395 530.673311)rotate(-45)scale(0.11 -0.11)">
       <defs>
        <path id="DejaVuSans-35" d="M 691 4666 
L 3169 4666 
L 3169 4134 
L 1269 4134 
L 1269 2991 
Q 1406 3038 1543 3061 
Q 1681 3084 1819 3084 
Q 2600 3084 3056 2656 
Q 3513 2228 3513 1497 
Q 3513 744 3044 326 
Q 2575 -91 1722 -91 
Q 1428 -91 1123 -41 
Q 819 9 494 109 
L 494 744 
Q 775 591 1075 516 
Q 1375 441 1709 441 
Q 2250 441 2565 725 
Q 2881 1009 2881 1497 
Q 2881 1984 2565 2268 
Q 2250 2553 1709 2553 
Q 1456 2553 1204 2497 
Q 953 2441 691 2322 
L 691 4666 
z
" transform="scale(0.015625)"/>
       </defs>
       <use xlink:href="#DejaVuSans-30"/>
       <use xlink:href="#DejaVuSans-32" x="63.623047"/>
       <use xlink:href="#DejaVuSans-2e" x="127.246094"/>
       <use xlink:href="#DejaVuSans-30" x="159.033203"/>
       <use xlink:href="#DejaVuSans-35" x="222.65625"/>
       <use xlink:href="#DejaVuSans-2e" x="286.279297"/>
       <use xlink:href="#DejaVuSans-32" x="318.066406"/>
       <use xlink:href="#DejaVuSans-30" x="381.689453"/>
       <use xlink:href="#DejaVuSans-32" x="445.3125"/>
       <use xlink:href="#DejaVuSans-30" x="508.935547"/>
      </g>
     </g>
    </g>
    <g id="xtick_4">
     <g id="line2d_7">
      <path d="M 184.468851 470.728203 
L 184.468851 29.118125 
" clip-path="url(#p765bfdb8a7)" style="fill: none; stroke: #cccccc; stroke-linecap: round"/>
     </g>
     <g id="line2d_8">
      <g>
       <use xlink:href="#m11b1f2e530" x="184.468851" y="470.728203" style="fill: #262626; stroke: #262626; stroke-width: 1.25"/>
      </g>
     </g>
     <g id="text_4">
      <!-- 30.05.2020 -->
      <g style="fill: #262626" transform="translate(138.316323 530.673311)rotate(-45)scale(0.11 -0.11)">
       <use xlink:href="#DejaVuSans-33"/>
       <use xlink:href="#DejaVuSans-30" x="63.623047"/>
       <use xlink:href="#DejaVuSans-2e" x="127.246094"/>
       <use xlink:href="#DejaVuSans-30" x="159.033203"/>
       <use xlink:href="#DejaVuSans-35" x="222.65625"/>
       <use xlink:href="#DejaVuSans-2e" x="286.279297"/>
       <use xlink:href="#DejaVuSans-32" x="318.066406"/>
       <use xlink:href="#DejaVuSans-30" x="381.689453"/>
       <use xlink:href="#DejaVuSans-32" x="445.3125"/>
       <use xlink:href="#DejaVuSans-30" x="508.935547"/>
      </g>
     </g>
    </g>
    <g id="xtick_5">
     <g id="line2d_9">
      <path d="M 212.895778 470.728203 
L 212.895778 29.118125 
" clip-path="url(#p765bfdb8a7)" style="fill: none; stroke: #cccccc; stroke-linecap: round"/>
     </g>
     <g id="line2d_10">
      <g>
       <use xlink:href="#m11b1f2e530" x="212.895778" y="470.728203" style="fill: #262626; stroke: #262626; stroke-width: 1.25"/>
      </g>
     </g>
     <g id="text_5">
      <!-- 27.06.2020 -->
      <g style="fill: #262626" transform="translate(166.74325 530.673311)rotate(-45)scale(0.11 -0.11)">
       <defs>
        <path id="DejaVuSans-36" d="M 2113 2584 
Q 1688 2584 1439 2293 
Q 1191 2003 1191 1497 
Q 1191 994 1439 701 
Q 1688 409 2113 409 
Q 2538 409 2786 701 
Q 3034 994 3034 1497 
Q 3034 2003 2786 2293 
Q 2538 2584 2113 2584 
z
M 3366 4563 
L 3366 3988 
Q 3128 4100 2886 4159 
Q 2644 4219 2406 4219 
Q 1781 4219 1451 3797 
Q 1122 3375 1075 2522 
Q 1259 2794 1537 2939 
Q 1816 3084 2150 3084 
Q 2853 3084 3261 2657 
Q 3669 2231 3669 1497 
Q 3669 778 3244 343 
Q 2819 -91 2113 -91 
Q 1303 -91 875 529 
Q 447 1150 447 2328 
Q 447 3434 972 4092 
Q 1497 4750 2381 4750 
Q 2619 4750 2861 4703 
Q 3103 4656 3366 4563 
z
" transform="scale(0.015625)"/>
       </defs>
       <use xlink:href="#DejaVuSans-32"/>
       <use xlink:href="#DejaVuSans-37" x="63.623047"/>
       <use xlink:href="#DejaVuSans-2e" x="127.246094"/>
       <use xlink:href="#DejaVuSans-30" x="159.033203"/>
       <use xlink:href="#DejaVuSans-36" x="222.65625"/>
       <use xlink:href="#DejaVuSans-2e" x="286.279297"/>
       <use xlink:href="#DejaVuSans-32" x="318.066406"/>
       <use xlink:href="#DejaVuSans-30" x="381.689453"/>
       <use xlink:href="#DejaVuSans-32" x="445.3125"/>
       <use xlink:href="#DejaVuSans-30" x="508.935547"/>
      </g>
     </g>
    </g>
    <g id="xtick_6">
     <g id="line2d_11">
      <path d="M 241.322706 470.728203 
L 241.322706 29.118125 
" clip-path="url(#p765bfdb8a7)" style="fill: none; stroke: #cccccc; stroke-linecap: round"/>
     </g>
     <g id="line2d_12">
      <g>
       <use xlink:href="#m11b1f2e530" x="241.322706" y="470.728203" style="fill: #262626; stroke: #262626; stroke-width: 1.25"/>
      </g>
     </g>
     <g id="text_6">
      <!-- 25.07.2020 -->
      <g style="fill: #262626" transform="translate(195.170178 530.673311)rotate(-45)scale(0.11 -0.11)">
       <use xlink:href="#DejaVuSans-32"/>
       <use xlink:href="#DejaVuSans-35" x="63.623047"/>
       <use xlink:href="#DejaVuSans-2e" x="127.246094"/>
       <use xlink:href="#DejaVuSans-30" x="159.033203"/>
       <use xlink:href="#DejaVuSans-37" x="222.65625"/>
       <use xlink:href="#DejaVuSans-2e" x="286.279297"/>
       <use xlink:href="#DejaVuSans-32" x="318.066406"/>
       <use xlink:href="#DejaVuSans-30" x="381.689453"/>
       <use xlink:href="#DejaVuSans-32" x="445.3125"/>
       <use xlink:href="#DejaVuSans-30" x="508.935547"/>
      </g>
     </g>
    </g>
    <g id="xtick_7">
     <g id="line2d_13">
      <path d="M 269.749633 470.728203 
L 269.749633 29.118125 
" clip-path="url(#p765bfdb8a7)" style="fill: none; stroke: #cccccc; stroke-linecap: round"/>
     </g>
     <g id="line2d_14">
      <g>
       <use xlink:href="#m11b1f2e530" x="269.749633" y="470.728203" style="fill: #262626; stroke: #262626; stroke-width: 1.25"/>
      </g>
     </g>
     <g id="text_7">
      <!-- 22.08.2020 -->
      <g style="fill: #262626" transform="translate(223.597105 530.673311)rotate(-45)scale(0.11 -0.11)">
       <defs>
        <path id="DejaVuSans-38" d="M 2034 2216 
Q 1584 2216 1326 1975 
Q 1069 1734 1069 1313 
Q 1069 891 1326 650 
Q 1584 409 2034 409 
Q 2484 409 2743 651 
Q 3003 894 3003 1313 
Q 3003 1734 2745 1975 
Q 2488 2216 2034 2216 
z
M 1403 2484 
Q 997 2584 770 2862 
Q 544 3141 544 3541 
Q 544 4100 942 4425 
Q 1341 4750 2034 4750 
Q 2731 4750 3128 4425 
Q 3525 4100 3525 3541 
Q 3525 3141 3298 2862 
Q 3072 2584 2669 2484 
Q 3125 2378 3379 2068 
Q 3634 1759 3634 1313 
Q 3634 634 3220 271 
Q 2806 -91 2034 -91 
Q 1263 -91 848 271 
Q 434 634 434 1313 
Q 434 1759 690 2068 
Q 947 2378 1403 2484 
z
M 1172 3481 
Q 1172 3119 1398 2916 
Q 1625 2713 2034 2713 
Q 2441 2713 2670 2916 
Q 2900 3119 2900 3481 
Q 2900 3844 2670 4047 
Q 2441 4250 2034 4250 
Q 1625 4250 1398 4047 
Q 1172 3844 1172 3481 
z
" transform="scale(0.015625)"/>
       </defs>
       <use xlink:href="#DejaVuSans-32"/>
       <use xlink:href="#DejaVuSans-32" x="63.623047"/>
       <use xlink:href="#DejaVuSans-2e" x="127.246094"/>
       <use xlink:href="#DejaVuSans-30" x="159.033203"/>
       <use xlink:href="#DejaVuSans-38" x="222.65625"/>
       <use xlink:href="#DejaVuSans-2e" x="286.279297"/>
       <use xlink:href="#DejaVuSans-32" x="318.066406"/>
       <use xlink:href="#DejaVuSans-30" x="381.689453"/>
       <use xlink:href="#DejaVuSans-32" x="445.3125"/>
       <use xlink:href="#DejaVuSans-30" x="508.935547"/>
      </g>
     </g>
    </g>
    <g id="xtick_8">
     <g id="line2d_15">
      <path d="M 298.176561 470.728203 
L 298.176561 29.118125 
" clip-path="url(#p765bfdb8a7)" style="fill: none; stroke: #cccccc; stroke-linecap: round"/>
     </g>
     <g id="line2d_16">
      <g>
       <use xlink:href="#m11b1f2e530" x="298.176561" y="470.728203" style="fill: #262626; stroke: #262626; stroke-width: 1.25"/>
      </g>
     </g>
     <g id="text_8">
      <!-- 19.09.2020 -->
      <g style="fill: #262626" transform="translate(252.024033 530.673311)rotate(-45)scale(0.11 -0.11)">
       <defs>
        <path id="DejaVuSans-31" d="M 794 531 
L 1825 531 
L 1825 4091 
L 703 3866 
L 703 4441 
L 1819 4666 
L 2450 4666 
L 2450 531 
L 3481 531 
L 3481 0 
L 794 0 
L 794 531 
z
" transform="scale(0.015625)"/>
        <path id="DejaVuSans-39" d="M 703 97 
L 703 672 
Q 941 559 1184 500 
Q 1428 441 1663 441 
Q 2288 441 2617 861 
Q 2947 1281 2994 2138 
Q 2813 1869 2534 1725 
Q 2256 1581 1919 1581 
Q 1219 1581 811 2004 
Q 403 2428 403 3163 
Q 403 3881 828 4315 
Q 1253 4750 1959 4750 
Q 2769 4750 3195 4129 
Q 3622 3509 3622 2328 
Q 3622 1225 3098 567 
Q 2575 -91 1691 -91 
Q 1453 -91 1209 -44 
Q 966 3 703 97 
z
M 1959 2075 
Q 2384 2075 2632 2365 
Q 2881 2656 2881 3163 
Q 2881 3666 2632 3958 
Q 2384 4250 1959 4250 
Q 1534 4250 1286 3958 
Q 1038 3666 1038 3163 
Q 1038 2656 1286 2365 
Q 1534 2075 1959 2075 
z
" transform="scale(0.015625)"/>
       </defs>
       <use xlink:href="#DejaVuSans-31"/>
       <use xlink:href="#DejaVuSans-39" x="63.623047"/>
       <use xlink:href="#DejaVuSans-2e" x="127.246094"/>
       <use xlink:href="#DejaVuSans-30" x="159.033203"/>
       <use xlink:href="#DejaVuSans-39" x="222.65625"/>
       <use xlink:href="#DejaVuSans-2e" x="286.279297"/>
       <use xlink:href="#DejaVuSans-32" x="318.066406"/>
       <use xlink:href="#DejaVuSans-30" x="381.689453"/>
       <use xlink:href="#DejaVuSans-32" x="445.3125"/>
       <use xlink:href="#DejaVuSans-30" x="508.935547"/>
      </g>
     </g>
    </g>
    <g id="xtick_9">
     <g id="line2d_17">
      <path d="M 326.603488 470.728203 
L 326.603488 29.118125 
" clip-path="url(#p765bfdb8a7)" style="fill: none; stroke: #cccccc; stroke-linecap: round"/>
     </g>
     <g id="line2d_18">
      <g>
       <use xlink:href="#m11b1f2e530" x="326.603488" y="470.728203" style="fill: #262626; stroke: #262626; stroke-width: 1.25"/>
      </g>
     </g>
     <g id="text_9">
      <!-- 17.10.2020 -->
      <g style="fill: #262626" transform="translate(280.45096 530.673311)rotate(-45)scale(0.11 -0.11)">
       <use xlink:href="#DejaVuSans-31"/>
       <use xlink:href="#DejaVuSans-37" x="63.623047"/>
       <use xlink:href="#DejaVuSans-2e" x="127.246094"/>
       <use xlink:href="#DejaVuSans-31" x="159.033203"/>
       <use xlink:href="#DejaVuSans-30" x="222.65625"/>
       <use xlink:href="#DejaVuSans-2e" x="286.279297"/>
       <use xlink:href="#DejaVuSans-32" x="318.066406"/>
       <use xlink:href="#DejaVuSans-30" x="381.689453"/>
       <use xlink:href="#DejaVuSans-32" x="445.3125"/>
       <use xlink:href="#DejaVuSans-30" x="508.935547"/>
      </g>
     </g>
    </g>
    <g id="xtick_10">
     <g id="line2d_19">
      <path d="M 355.030416 470.728203 
L 355.030416 29.118125 
" clip-path="url(#p765bfdb8a7)" style="fill: none; stroke: #cccccc; stroke-linecap: round"/>
     </g>
     <g id="line2d_20">
      <g>
       <use xlink:href="#m11b1f2e530" x="355.030416" y="470.728203" style="fill: #262626; stroke: #262626; stroke-width: 1.25"/>
      </g>
     </g>
     <g id="text_10">
      <!-- 14.11.2020 -->
      <g style="fill: #262626" transform="translate(308.877888 530.673311)rotate(-45)scale(0.11 -0.11)">
       <use xlink:href="#DejaVuSans-31"/>
       <use xlink:href="#DejaVuSans-34" x="63.623047"/>
       <use xlink:href="#DejaVuSans-2e" x="127.246094"/>
       <use xlink:href="#DejaVuSans-31" x="159.033203"/>
       <use xlink:href="#DejaVuSans-31" x="222.65625"/>
       <use xlink:href="#DejaVuSans-2e" x="286.279297"/>
       <use xlink:href="#DejaVuSans-32" x="318.066406"/>
       <use xlink:href="#DejaVuSans-30" x="381.689453"/>
       <use xlink:href="#DejaVuSans-32" x="445.3125"/>
       <use xlink:href="#DejaVuSans-30" x="508.935547"/>
      </g>
     </g>
    </g>
    <g id="xtick_11">
     <g id="line2d_21">
      <path d="M 383.457343 470.728203 
L 383.457343 29.118125 
" clip-path="url(#p765bfdb8a7)" style="fill: none; stroke: #cccccc; stroke-linecap: round"/>
     </g>
     <g id="line2d_22">
      <g>
       <use xlink:href="#m11b1f2e530" x="383.457343" y="470.728203" style="fill: #262626; stroke: #262626; stroke-width: 1.25"/>
      </g>
     </g>
     <g id="text_11">
      <!-- 12.12.2020 -->
      <g style="fill: #262626" transform="translate(337.304815 530.673311)rotate(-45)scale(0.11 -0.11)">
       <use xlink:href="#DejaVuSans-31"/>
       <use xlink:href="#DejaVuSans-32" x="63.623047"/>
       <use xlink:href="#DejaVuSans-2e" x="127.246094"/>
       <use xlink:href="#DejaVuSans-31" x="159.033203"/>
       <use xlink:href="#DejaVuSans-32" x="222.65625"/>
       <use xlink:href="#DejaVuSans-2e" x="286.279297"/>
       <use xlink:href="#DejaVuSans-32" x="318.066406"/>
       <use xlink:href="#DejaVuSans-30" x="381.689453"/>
       <use xlink:href="#DejaVuSans-32" x="445.3125"/>
       <use xlink:href="#DejaVuSans-30" x="508.935547"/>
      </g>
     </g>
    </g>
    <g id="xtick_12">
     <g id="line2d_23">
      <path d="M 411.884271 470.728203 
L 411.884271 29.118125 
" clip-path="url(#p765bfdb8a7)" style="fill: none; stroke: #cccccc; stroke-linecap: round"/>
     </g>
     <g id="line2d_24">
      <g>
       <use xlink:href="#m11b1f2e530" x="411.884271" y="470.728203" style="fill: #262626; stroke: #262626; stroke-width: 1.25"/>
      </g>
     </g>
     <g id="text_12">
      <!-- 09.01.2021 -->
      <g style="fill: #262626" transform="translate(365.731743 530.673311)rotate(-45)scale(0.11 -0.11)">
       <use xlink:href="#DejaVuSans-30"/>
       <use xlink:href="#DejaVuSans-39" x="63.623047"/>
       <use xlink:href="#DejaVuSans-2e" x="127.246094"/>
       <use xlink:href="#DejaVuSans-30" x="159.033203"/>
       <use xlink:href="#DejaVuSans-31" x="222.65625"/>
       <use xlink:href="#DejaVuSans-2e" x="286.279297"/>
       <use xlink:href="#DejaVuSans-32" x="318.066406"/>
       <use xlink:href="#DejaVuSans-30" x="381.689453"/>
       <use xlink:href="#DejaVuSans-32" x="445.3125"/>
       <use xlink:href="#DejaVuSans-31" x="508.935547"/>
      </g>
     </g>
    </g>
    <g id="xtick_13">
     <g id="line2d_25">
      <path d="M 440.311198 470.728203 
L 440.311198 29.118125 
" clip-path="url(#p765bfdb8a7)" style="fill: none; stroke: #cccccc; stroke-linecap: round"/>
     </g>
     <g id="line2d_26">
      <g>
       <use xlink:href="#m11b1f2e530" x="440.311198" y="470.728203" style="fill: #262626; stroke: #262626; stroke-width: 1.25"/>
      </g>
     </g>
     <g id="text_13">
      <!-- 06.02.2021 -->
      <g style="fill: #262626" transform="translate(394.15867 530.673311)rotate(-45)scale(0.11 -0.11)">
       <use xlink:href="#DejaVuSans-30"/>
       <use xlink:href="#DejaVuSans-36" x="63.623047"/>
       <use xlink:href="#DejaVuSans-2e" x="127.246094"/>
       <use xlink:href="#DejaVuSans-30" x="159.033203"/>
       <use xlink:href="#DejaVuSans-32" x="222.65625"/>
       <use xlink:href="#DejaVuSans-2e" x="286.279297"/>
       <use xlink:href="#DejaVuSans-32" x="318.066406"/>
       <use xlink:href="#DejaVuSans-30" x="381.689453"/>
       <use xlink:href="#DejaVuSans-32" x="445.3125"/>
       <use xlink:href="#DejaVuSans-31" x="508.935547"/>
      </g>
     </g>
    </g>
    <g id="xtick_14">
     <g id="line2d_27">
      <path d="M 468.738126 470.728203 
L 468.738126 29.118125 
" clip-path="url(#p765bfdb8a7)" style="fill: none; stroke: #cccccc; stroke-linecap: round"/>
     </g>
     <g id="line2d_28">
      <g>
       <use xlink:href="#m11b1f2e530" x="468.738126" y="470.728203" style="fill: #262626; stroke: #262626; stroke-width: 1.25"/>
      </g>
     </g>
     <g id="text_14">
      <!-- 06.03.2021 -->
      <g style="fill: #262626" transform="translate(422.585598 530.673311)rotate(-45)scale(0.11 -0.11)">
       <use xlink:href="#DejaVuSans-30"/>
       <use xlink:href="#DejaVuSans-36" x="63.623047"/>
       <use xlink:href="#DejaVuSans-2e" x="127.246094"/>
       <use xlink:href="#DejaVuSans-30" x="159.033203"/>
       <use xlink:href="#DejaVuSans-33" x="222.65625"/>
       <use xlink:href="#DejaVuSans-2e" x="286.279297"/>
       <use xlink:href="#DejaVuSans-32" x="318.066406"/>
       <use xlink:href="#DejaVuSans-30" x="381.689453"/>
       <use xlink:href="#DejaVuSans-32" x="445.3125"/>
       <use xlink:href="#DejaVuSans-31" x="508.935547"/>
      </g>
     </g>
    </g>
    <g id="xtick_15">
     <g id="line2d_29">
      <path d="M 497.165053 470.728203 
L 497.165053 29.118125 
" clip-path="url(#p765bfdb8a7)" style="fill: none; stroke: #cccccc; stroke-linecap: round"/>
     </g>
     <g id="line2d_30">
      <g>
       <use xlink:href="#m11b1f2e530" x="497.165053" y="470.728203" style="fill: #262626; stroke: #262626; stroke-width: 1.25"/>
      </g>
     </g>
     <g id="text_15">
      <!-- 03.04.2021 -->
      <g style="fill: #262626" transform="translate(451.012525 530.673311)rotate(-45)scale(0.11 -0.11)">
       <use xlink:href="#DejaVuSans-30"/>
       <use xlink:href="#DejaVuSans-33" x="63.623047"/>
       <use xlink:href="#DejaVuSans-2e" x="127.246094"/>
       <use xlink:href="#DejaVuSans-30" x="159.033203"/>
       <use xlink:href="#DejaVuSans-34" x="222.65625"/>
       <use xlink:href="#DejaVuSans-2e" x="286.279297"/>
       <use xlink:href="#DejaVuSans-32" x="318.066406"/>
       <use xlink:href="#DejaVuSans-30" x="381.689453"/>
       <use xlink:href="#DejaVuSans-32" x="445.3125"/>
       <use xlink:href="#DejaVuSans-31" x="508.935547"/>
      </g>
     </g>
    </g>
    <g id="xtick_16">
     <g id="line2d_31">
      <path d="M 525.591981 470.728203 
L 525.591981 29.118125 
" clip-path="url(#p765bfdb8a7)" style="fill: none; stroke: #cccccc; stroke-linecap: round"/>
     </g>
     <g id="line2d_32">
      <g>
       <use xlink:href="#m11b1f2e530" x="525.591981" y="470.728203" style="fill: #262626; stroke: #262626; stroke-width: 1.25"/>
      </g>
     </g>
     <g id="text_16">
      <!-- 01.05.2021 -->
      <g style="fill: #262626" transform="translate(479.439453 530.673311)rotate(-45)scale(0.11 -0.11)">
       <use xlink:href="#DejaVuSans-30"/>
       <use xlink:href="#DejaVuSans-31" x="63.623047"/>
       <use xlink:href="#DejaVuSans-2e" x="127.246094"/>
       <use xlink:href="#DejaVuSans-30" x="159.033203"/>
       <use xlink:href="#DejaVuSans-35" x="222.65625"/>
       <use xlink:href="#DejaVuSans-2e" x="286.279297"/>
       <use xlink:href="#DejaVuSans-32" x="318.066406"/>
       <use xlink:href="#DejaVuSans-30" x="381.689453"/>
       <use xlink:href="#DejaVuSans-32" x="445.3125"/>
       <use xlink:href="#DejaVuSans-31" x="508.935547"/>
      </g>
     </g>
    </g>
    <g id="xtick_17">
     <g id="line2d_33">
      <path d="M 554.018908 470.728203 
L 554.018908 29.118125 
" clip-path="url(#p765bfdb8a7)" style="fill: none; stroke: #cccccc; stroke-linecap: round"/>
     </g>
     <g id="line2d_34">
      <g>
       <use xlink:href="#m11b1f2e530" x="554.018908" y="470.728203" style="fill: #262626; stroke: #262626; stroke-width: 1.25"/>
      </g>
     </g>
     <g id="text_17">
      <!-- 29.05.2021 -->
      <g style="fill: #262626" transform="translate(507.86638 530.673311)rotate(-45)scale(0.11 -0.11)">
       <use xlink:href="#DejaVuSans-32"/>
       <use xlink:href="#DejaVuSans-39" x="63.623047"/>
       <use xlink:href="#DejaVuSans-2e" x="127.246094"/>
       <use xlink:href="#DejaVuSans-30" x="159.033203"/>
       <use xlink:href="#DejaVuSans-35" x="222.65625"/>
       <use xlink:href="#DejaVuSans-2e" x="286.279297"/>
       <use xlink:href="#DejaVuSans-32" x="318.066406"/>
       <use xlink:href="#DejaVuSans-30" x="381.689453"/>
       <use xlink:href="#DejaVuSans-32" x="445.3125"/>
       <use xlink:href="#DejaVuSans-31" x="508.935547"/>
      </g>
     </g>
    </g>
    <g id="xtick_18">
     <g id="line2d_35">
      <path d="M 582.445836 470.728203 
L 582.445836 29.118125 
" clip-path="url(#p765bfdb8a7)" style="fill: none; stroke: #cccccc; stroke-linecap: round"/>
     </g>
     <g id="line2d_36">
      <g>
       <use xlink:href="#m11b1f2e530" x="582.445836" y="470.728203" style="fill: #262626; stroke: #262626; stroke-width: 1.25"/>
      </g>
     </g>
     <g id="text_18">
      <!-- 26.06.2021 -->
      <g style="fill: #262626" transform="translate(536.293308 530.673311)rotate(-45)scale(0.11 -0.11)">
       <use xlink:href="#DejaVuSans-32"/>
       <use xlink:href="#DejaVuSans-36" x="63.623047"/>
       <use xlink:href="#DejaVuSans-2e" x="127.246094"/>
       <use xlink:href="#DejaVuSans-30" x="159.033203"/>
       <use xlink:href="#DejaVuSans-36" x="222.65625"/>
       <use xlink:href="#DejaVuSans-2e" x="286.279297"/>
       <use xlink:href="#DejaVuSans-32" x="318.066406"/>
       <use xlink:href="#DejaVuSans-30" x="381.689453"/>
       <use xlink:href="#DejaVuSans-32" x="445.3125"/>
       <use xlink:href="#DejaVuSans-31" x="508.935547"/>
      </g>
     </g>
    </g>
    <g id="xtick_19">
     <g id="line2d_37">
      <path d="M 610.872763 470.728203 
L 610.872763 29.118125 
" clip-path="url(#p765bfdb8a7)" style="fill: none; stroke: #cccccc; stroke-linecap: round"/>
     </g>
     <g id="line2d_38">
      <g>
       <use xlink:href="#m11b1f2e530" x="610.872763" y="470.728203" style="fill: #262626; stroke: #262626; stroke-width: 1.25"/>
      </g>
     </g>
     <g id="text_19">
      <!-- 24.07.2021 -->
      <g style="fill: #262626" transform="translate(564.720235 530.673311)rotate(-45)scale(0.11 -0.11)">
       <use xlink:href="#DejaVuSans-32"/>
       <use xlink:href="#DejaVuSans-34" x="63.623047"/>
       <use xlink:href="#DejaVuSans-2e" x="127.246094"/>
       <use xlink:href="#DejaVuSans-30" x="159.033203"/>
       <use xlink:href="#DejaVuSans-37" x="222.65625"/>
       <use xlink:href="#DejaVuSans-2e" x="286.279297"/>
       <use xlink:href="#DejaVuSans-32" x="318.066406"/>
       <use xlink:href="#DejaVuSans-30" x="381.689453"/>
       <use xlink:href="#DejaVuSans-32" x="445.3125"/>
       <use xlink:href="#DejaVuSans-31" x="508.935547"/>
      </g>
     </g>
    </g>
    <g id="xtick_20">
     <g id="line2d_39">
      <path d="M 639.299691 470.728203 
L 639.299691 29.118125 
" clip-path="url(#p765bfdb8a7)" style="fill: none; stroke: #cccccc; stroke-linecap: round"/>
     </g>
     <g id="line2d_40">
      <g>
       <use xlink:href="#m11b1f2e530" x="639.299691" y="470.728203" style="fill: #262626; stroke: #262626; stroke-width: 1.25"/>
      </g>
     </g>
     <g id="text_20">
      <!-- 21.08.2021 -->
      <g style="fill: #262626" transform="translate(593.147163 530.673311)rotate(-45)scale(0.11 -0.11)">
       <use xlink:href="#DejaVuSans-32"/>
       <use xlink:href="#DejaVuSans-31" x="63.623047"/>
       <use xlink:href="#DejaVuSans-2e" x="127.246094"/>
       <use xlink:href="#DejaVuSans-30" x="159.033203"/>
       <use xlink:href="#DejaVuSans-38" x="222.65625"/>
       <use xlink:href="#DejaVuSans-2e" x="286.279297"/>
       <use xlink:href="#DejaVuSans-32" x="318.066406"/>
       <use xlink:href="#DejaVuSans-30" x="381.689453"/>
       <use xlink:href="#DejaVuSans-32" x="445.3125"/>
       <use xlink:href="#DejaVuSans-31" x="508.935547"/>
      </g>
     </g>
    </g>
    <g id="xtick_21">
     <g id="line2d_41">
      <path d="M 667.726618 470.728203 
L 667.726618 29.118125 
" clip-path="url(#p765bfdb8a7)" style="fill: none; stroke: #cccccc; stroke-linecap: round"/>
     </g>
     <g id="line2d_42">
      <g>
       <use xlink:href="#m11b1f2e530" x="667.726618" y="470.728203" style="fill: #262626; stroke: #262626; stroke-width: 1.25"/>
      </g>
     </g>
     <g id="text_21">
      <!-- 18.09.2021 -->
      <g style="fill: #262626" transform="translate(621.57409 530.673311)rotate(-45)scale(0.11 -0.11)">
       <use xlink:href="#DejaVuSans-31"/>
       <use xlink:href="#DejaVuSans-38" x="63.623047"/>
       <use xlink:href="#DejaVuSans-2e" x="127.246094"/>
       <use xlink:href="#DejaVuSans-30" x="159.033203"/>
       <use xlink:href="#DejaVuSans-39" x="222.65625"/>
       <use xlink:href="#DejaVuSans-2e" x="286.279297"/>
       <use xlink:href="#DejaVuSans-32" x="318.066406"/>
       <use xlink:href="#DejaVuSans-30" x="381.689453"/>
       <use xlink:href="#DejaVuSans-32" x="445.3125"/>
       <use xlink:href="#DejaVuSans-31" x="508.935547"/>
      </g>
     </g>
    </g>
    <g id="xtick_22">
     <g id="line2d_43">
      <path d="M 696.153546 470.728203 
L 696.153546 29.118125 
" clip-path="url(#p765bfdb8a7)" style="fill: none; stroke: #cccccc; stroke-linecap: round"/>
     </g>
     <g id="line2d_44">
      <g>
       <use xlink:href="#m11b1f2e530" x="696.153546" y="470.728203" style="fill: #262626; stroke: #262626; stroke-width: 1.25"/>
      </g>
     </g>
     <g id="text_22">
      <!-- 16.10.2021 -->
      <g style="fill: #262626" transform="translate(650.001018 530.673311)rotate(-45)scale(0.11 -0.11)">
       <use xlink:href="#DejaVuSans-31"/>
       <use xlink:href="#DejaVuSans-36" x="63.623047"/>
       <use xlink:href="#DejaVuSans-2e" x="127.246094"/>
       <use xlink:href="#DejaVuSans-31" x="159.033203"/>
       <use xlink:href="#DejaVuSans-30" x="222.65625"/>
       <use xlink:href="#DejaVuSans-2e" x="286.279297"/>
       <use xlink:href="#DejaVuSans-32" x="318.066406"/>
       <use xlink:href="#DejaVuSans-30" x="381.689453"/>
       <use xlink:href="#DejaVuSans-32" x="445.3125"/>
       <use xlink:href="#DejaVuSans-31" x="508.935547"/>
      </g>
     </g>
    </g>
    <g id="xtick_23">
     <g id="line2d_45">
      <path d="M 724.580473 470.728203 
L 724.580473 29.118125 
" clip-path="url(#p765bfdb8a7)" style="fill: none; stroke: #cccccc; stroke-linecap: round"/>
     </g>
     <g id="line2d_46">
      <g>
       <use xlink:href="#m11b1f2e530" x="724.580473" y="470.728203" style="fill: #262626; stroke: #262626; stroke-width: 1.25"/>
      </g>
     </g>
     <g id="text_23">
      <!-- 13.11.2021 -->
      <g style="fill: #262626" transform="translate(678.427945 530.673311)rotate(-45)scale(0.11 -0.11)">
       <use xlink:href="#DejaVuSans-31"/>
       <use xlink:href="#DejaVuSans-33" x="63.623047"/>
       <use xlink:href="#DejaVuSans-2e" x="127.246094"/>
       <use xlink:href="#DejaVuSans-31" x="159.033203"/>
       <use xlink:href="#DejaVuSans-31" x="222.65625"/>
       <use xlink:href="#DejaVuSans-2e" x="286.279297"/>
       <use xlink:href="#DejaVuSans-32" x="318.066406"/>
       <use xlink:href="#DejaVuSans-30" x="381.689453"/>
       <use xlink:href="#DejaVuSans-32" x="445.3125"/>
       <use xlink:href="#DejaVuSans-31" x="508.935547"/>
      </g>
     </g>
    </g>
    <g id="xtick_24">
     <g id="line2d_47">
      <defs>
       <path id="md19c144bfe" d="M 0 0 
L 0 4 
" style="stroke: #262626"/>
      </defs>
      <g>
       <use xlink:href="#md19c144bfe" x="70.761141" y="470.728203" style="fill: #262626; stroke: #262626"/>
      </g>
     </g>
    </g>
    <g id="xtick_25">
     <g id="line2d_48">
      <g>
       <use xlink:href="#md19c144bfe" x="77.867873" y="470.728203" style="fill: #262626; stroke: #262626"/>
      </g>
     </g>
    </g>
    <g id="xtick_26">
     <g id="line2d_49">
      <g>
       <use xlink:href="#md19c144bfe" x="84.974604" y="470.728203" style="fill: #262626; stroke: #262626"/>
      </g>
     </g>
    </g>
    <g id="xtick_27">
     <g id="line2d_50">
      <g>
       <use xlink:href="#md19c144bfe" x="92.081336" y="470.728203" style="fill: #262626; stroke: #262626"/>
      </g>
     </g>
    </g>
    <g id="xtick_28">
     <g id="line2d_51">
      <g>
       <use xlink:href="#md19c144bfe" x="106.2948" y="470.728203" style="fill: #262626; stroke: #262626"/>
      </g>
     </g>
    </g>
    <g id="xtick_29">
     <g id="line2d_52">
      <g>
       <use xlink:href="#md19c144bfe" x="113.401532" y="470.728203" style="fill: #262626; stroke: #262626"/>
      </g>
     </g>
    </g>
    <g id="xtick_30">
     <g id="line2d_53">
      <g>
       <use xlink:href="#md19c144bfe" x="120.508264" y="470.728203" style="fill: #262626; stroke: #262626"/>
      </g>
     </g>
    </g>
    <g id="xtick_31">
     <g id="line2d_54">
      <g>
       <use xlink:href="#md19c144bfe" x="134.721728" y="470.728203" style="fill: #262626; stroke: #262626"/>
      </g>
     </g>
    </g>
    <g id="xtick_32">
     <g id="line2d_55">
      <g>
       <use xlink:href="#md19c144bfe" x="141.828459" y="470.728203" style="fill: #262626; stroke: #262626"/>
      </g>
     </g>
    </g>
    <g id="xtick_33">
     <g id="line2d_56">
      <g>
       <use xlink:href="#md19c144bfe" x="148.935191" y="470.728203" style="fill: #262626; stroke: #262626"/>
      </g>
     </g>
    </g>
    <g id="xtick_34">
     <g id="line2d_57">
      <g>
       <use xlink:href="#md19c144bfe" x="163.148655" y="470.728203" style="fill: #262626; stroke: #262626"/>
      </g>
     </g>
    </g>
    <g id="xtick_35">
     <g id="line2d_58">
      <g>
       <use xlink:href="#md19c144bfe" x="170.255387" y="470.728203" style="fill: #262626; stroke: #262626"/>
      </g>
     </g>
    </g>
    <g id="xtick_36">
     <g id="line2d_59">
      <g>
       <use xlink:href="#md19c144bfe" x="177.362119" y="470.728203" style="fill: #262626; stroke: #262626"/>
      </g>
     </g>
    </g>
    <g id="xtick_37">
     <g id="line2d_60">
      <g>
       <use xlink:href="#md19c144bfe" x="191.575583" y="470.728203" style="fill: #262626; stroke: #262626"/>
      </g>
     </g>
    </g>
    <g id="xtick_38">
     <g id="line2d_61">
      <g>
       <use xlink:href="#md19c144bfe" x="198.682314" y="470.728203" style="fill: #262626; stroke: #262626"/>
      </g>
     </g>
    </g>
    <g id="xtick_39">
     <g id="line2d_62">
      <g>
       <use xlink:href="#md19c144bfe" x="205.789046" y="470.728203" style="fill: #262626; stroke: #262626"/>
      </g>
     </g>
    </g>
    <g id="xtick_40">
     <g id="line2d_63">
      <g>
       <use xlink:href="#md19c144bfe" x="220.00251" y="470.728203" style="fill: #262626; stroke: #262626"/>
      </g>
     </g>
    </g>
    <g id="xtick_41">
     <g id="line2d_64">
      <g>
       <use xlink:href="#md19c144bfe" x="227.109242" y="470.728203" style="fill: #262626; stroke: #262626"/>
      </g>
     </g>
    </g>
    <g id="xtick_42">
     <g id="line2d_65">
      <g>
       <use xlink:href="#md19c144bfe" x="234.215974" y="470.728203" style="fill: #262626; stroke: #262626"/>
      </g>
     </g>
    </g>
    <g id="xtick_43">
     <g id="line2d_66">
      <g>
       <use xlink:href="#md19c144bfe" x="248.429438" y="470.728203" style="fill: #262626; stroke: #262626"/>
      </g>
     </g>
    </g>
    <g id="xtick_44">
     <g id="line2d_67">
      <g>
       <use xlink:href="#md19c144bfe" x="255.536169" y="470.728203" style="fill: #262626; stroke: #262626"/>
      </g>
     </g>
    </g>
    <g id="xtick_45">
     <g id="line2d_68">
      <g>
       <use xlink:href="#md19c144bfe" x="262.642901" y="470.728203" style="fill: #262626; stroke: #262626"/>
      </g>
     </g>
    </g>
    <g id="xtick_46">
     <g id="line2d_69">
      <g>
       <use xlink:href="#md19c144bfe" x="276.856365" y="470.728203" style="fill: #262626; stroke: #262626"/>
      </g>
     </g>
    </g>
    <g id="xtick_47">
     <g id="line2d_70">
      <g>
       <use xlink:href="#md19c144bfe" x="283.963097" y="470.728203" style="fill: #262626; stroke: #262626"/>
      </g>
     </g>
    </g>
    <g id="xtick_48">
     <g id="line2d_71">
      <g>
       <use xlink:href="#md19c144bfe" x="291.069829" y="470.728203" style="fill: #262626; stroke: #262626"/>
      </g>
     </g>
    </g>
    <g id="xtick_49">
     <g id="line2d_72">
      <g>
       <use xlink:href="#md19c144bfe" x="305.283293" y="470.728203" style="fill: #262626; stroke: #262626"/>
      </g>
     </g>
    </g>
    <g id="xtick_50">
     <g id="line2d_73">
      <g>
       <use xlink:href="#md19c144bfe" x="312.390024" y="470.728203" style="fill: #262626; stroke: #262626"/>
      </g>
     </g>
    </g>
    <g id="xtick_51">
     <g id="line2d_74">
      <g>
       <use xlink:href="#md19c144bfe" x="319.496756" y="470.728203" style="fill: #262626; stroke: #262626"/>
      </g>
     </g>
    </g>
    <g id="xtick_52">
     <g id="line2d_75">
      <g>
       <use xlink:href="#md19c144bfe" x="333.71022" y="470.728203" style="fill: #262626; stroke: #262626"/>
      </g>
     </g>
    </g>
    <g id="xtick_53">
     <g id="line2d_76">
      <g>
       <use xlink:href="#md19c144bfe" x="340.816952" y="470.728203" style="fill: #262626; stroke: #262626"/>
      </g>
     </g>
    </g>
    <g id="xtick_54">
     <g id="line2d_77">
      <g>
       <use xlink:href="#md19c144bfe" x="347.923684" y="470.728203" style="fill: #262626; stroke: #262626"/>
      </g>
     </g>
    </g>
    <g id="xtick_55">
     <g id="line2d_78">
      <g>
       <use xlink:href="#md19c144bfe" x="362.137148" y="470.728203" style="fill: #262626; stroke: #262626"/>
      </g>
     </g>
    </g>
    <g id="xtick_56">
     <g id="line2d_79">
      <g>
       <use xlink:href="#md19c144bfe" x="369.243879" y="470.728203" style="fill: #262626; stroke: #262626"/>
      </g>
     </g>
    </g>
    <g id="xtick_57">
     <g id="line2d_80">
      <g>
       <use xlink:href="#md19c144bfe" x="376.350611" y="470.728203" style="fill: #262626; stroke: #262626"/>
      </g>
     </g>
    </g>
    <g id="xtick_58">
     <g id="line2d_81">
      <g>
       <use xlink:href="#md19c144bfe" x="390.564075" y="470.728203" style="fill: #262626; stroke: #262626"/>
      </g>
     </g>
    </g>
    <g id="xtick_59">
     <g id="line2d_82">
      <g>
       <use xlink:href="#md19c144bfe" x="397.670807" y="470.728203" style="fill: #262626; stroke: #262626"/>
      </g>
     </g>
    </g>
    <g id="xtick_60">
     <g id="line2d_83">
      <g>
       <use xlink:href="#md19c144bfe" x="404.777539" y="470.728203" style="fill: #262626; stroke: #262626"/>
      </g>
     </g>
    </g>
    <g id="xtick_61">
     <g id="line2d_84">
      <g>
       <use xlink:href="#md19c144bfe" x="418.991003" y="470.728203" style="fill: #262626; stroke: #262626"/>
      </g>
     </g>
    </g>
    <g id="xtick_62">
     <g id="line2d_85">
      <g>
       <use xlink:href="#md19c144bfe" x="426.097734" y="470.728203" style="fill: #262626; stroke: #262626"/>
      </g>
     </g>
    </g>
    <g id="xtick_63">
     <g id="line2d_86">
      <g>
       <use xlink:href="#md19c144bfe" x="433.204466" y="470.728203" style="fill: #262626; stroke: #262626"/>
      </g>
     </g>
    </g>
    <g id="xtick_64">
     <g id="line2d_87">
      <g>
       <use xlink:href="#md19c144bfe" x="447.41793" y="470.728203" style="fill: #262626; stroke: #262626"/>
      </g>
     </g>
    </g>
    <g id="xtick_65">
     <g id="line2d_88">
      <g>
       <use xlink:href="#md19c144bfe" x="454.524662" y="470.728203" style="fill: #262626; stroke: #262626"/>
      </g>
     </g>
    </g>
    <g id="xtick_66">
     <g id="line2d_89">
      <g>
       <use xlink:href="#md19c144bfe" x="461.631394" y="470.728203" style="fill: #262626; stroke: #262626"/>
      </g>
     </g>
    </g>
    <g id="xtick_67">
     <g id="line2d_90">
      <g>
       <use xlink:href="#md19c144bfe" x="475.844858" y="470.728203" style="fill: #262626; stroke: #262626"/>
      </g>
     </g>
    </g>
    <g id="xtick_68">
     <g id="line2d_91">
      <g>
       <use xlink:href="#md19c144bfe" x="482.951589" y="470.728203" style="fill: #262626; stroke: #262626"/>
      </g>
     </g>
    </g>
    <g id="xtick_69">
     <g id="line2d_92">
      <g>
       <use xlink:href="#md19c144bfe" x="490.058321" y="470.728203" style="fill: #262626; stroke: #262626"/>
      </g>
     </g>
    </g>
    <g id="xtick_70">
     <g id="line2d_93">
      <g>
       <use xlink:href="#md19c144bfe" x="504.271785" y="470.728203" style="fill: #262626; stroke: #262626"/>
      </g>
     </g>
    </g>
    <g id="xtick_71">
     <g id="line2d_94">
      <g>
       <use xlink:href="#md19c144bfe" x="511.378517" y="470.728203" style="fill: #262626; stroke: #262626"/>
      </g>
     </g>
    </g>
    <g id="xtick_72">
     <g id="line2d_95">
      <g>
       <use xlink:href="#md19c144bfe" x="518.485249" y="470.728203" style="fill: #262626; stroke: #262626"/>
      </g>
     </g>
    </g>
    <g id="xtick_73">
     <g id="line2d_96">
      <g>
       <use xlink:href="#md19c144bfe" x="532.698713" y="470.728203" style="fill: #262626; stroke: #262626"/>
      </g>
     </g>
    </g>
    <g id="xtick_74">
     <g id="line2d_97">
      <g>
       <use xlink:href="#md19c144bfe" x="539.805444" y="470.728203" style="fill: #262626; stroke: #262626"/>
      </g>
     </g>
    </g>
    <g id="xtick_75">
     <g id="line2d_98">
      <g>
       <use xlink:href="#md19c144bfe" x="546.912176" y="470.728203" style="fill: #262626; stroke: #262626"/>
      </g>
     </g>
    </g>
    <g id="xtick_76">
     <g id="line2d_99">
      <g>
       <use xlink:href="#md19c144bfe" x="561.12564" y="470.728203" style="fill: #262626; stroke: #262626"/>
      </g>
     </g>
    </g>
    <g id="xtick_77">
     <g id="line2d_100">
      <g>
       <use xlink:href="#md19c144bfe" x="568.232372" y="470.728203" style="fill: #262626; stroke: #262626"/>
      </g>
     </g>
    </g>
    <g id="xtick_78">
     <g id="line2d_101">
      <g>
       <use xlink:href="#md19c144bfe" x="575.339104" y="470.728203" style="fill: #262626; stroke: #262626"/>
      </g>
     </g>
    </g>
    <g id="xtick_79">
     <g id="line2d_102">
      <g>
       <use xlink:href="#md19c144bfe" x="589.552568" y="470.728203" style="fill: #262626; stroke: #262626"/>
      </g>
     </g>
    </g>
    <g id="xtick_80">
     <g id="line2d_103">
      <g>
       <use xlink:href="#md19c144bfe" x="596.659299" y="470.728203" style="fill: #262626; stroke: #262626"/>
      </g>
     </g>
    </g>
    <g id="xtick_81">
     <g id="line2d_104">
      <g>
       <use xlink:href="#md19c144bfe" x="603.766031" y="470.728203" style="fill: #262626; stroke: #262626"/>
      </g>
     </g>
    </g>
    <g id="xtick_82">
     <g id="line2d_105">
      <g>
       <use xlink:href="#md19c144bfe" x="617.979495" y="470.728203" style="fill: #262626; stroke: #262626"/>
      </g>
     </g>
    </g>
    <g id="xtick_83">
     <g id="line2d_106">
      <g>
       <use xlink:href="#md19c144bfe" x="625.086227" y="470.728203" style="fill: #262626; stroke: #262626"/>
      </g>
     </g>
    </g>
    <g id="xtick_84">
     <g id="line2d_107">
      <g>
       <use xlink:href="#md19c144bfe" x="632.192959" y="470.728203" style="fill: #262626; stroke: #262626"/>
      </g>
     </g>
    </g>
    <g id="xtick_85">
     <g id="line2d_108">
      <g>
       <use xlink:href="#md19c144bfe" x="646.406423" y="470.728203" style="fill: #262626; stroke: #262626"/>
      </g>
     </g>
    </g>
    <g id="xtick_86">
     <g id="line2d_109">
      <g>
       <use xlink:href="#md19c144bfe" x="653.513154" y="470.728203" style="fill: #262626; stroke: #262626"/>
      </g>
     </g>
    </g>
    <g id="xtick_87">
     <g id="line2d_110">
      <g>
       <use xlink:href="#md19c144bfe" x="660.619886" y="470.728203" style="fill: #262626; stroke: #262626"/>
      </g>
     </g>
    </g>
    <g id="xtick_88">
     <g id="line2d_111">
      <g>
       <use xlink:href="#md19c144bfe" x="674.83335" y="470.728203" style="fill: #262626; stroke: #262626"/>
      </g>
     </g>
    </g>
    <g id="xtick_89">
     <g id="line2d_112">
      <g>
       <use xlink:href="#md19c144bfe" x="681.940082" y="470.728203" style="fill: #262626; stroke: #262626"/>
      </g>
     </g>
    </g>
    <g id="xtick_90">
     <g id="line2d_113">
      <g>
       <use xlink:href="#md19c144bfe" x="689.046814" y="470.728203" style="fill: #262626; stroke: #262626"/>
      </g>
     </g>
    </g>
    <g id="xtick_91">
     <g id="line2d_114">
      <g>
       <use xlink:href="#md19c144bfe" x="703.260278" y="470.728203" style="fill: #262626; stroke: #262626"/>
      </g>
     </g>
    </g>
    <g id="xtick_92">
     <g id="line2d_115">
      <g>
       <use xlink:href="#md19c144bfe" x="710.367009" y="470.728203" style="fill: #262626; stroke: #262626"/>
      </g>
     </g>
    </g>
    <g id="xtick_93">
     <g id="line2d_116">
      <g>
       <use xlink:href="#md19c144bfe" x="717.473741" y="470.728203" style="fill: #262626; stroke: #262626"/>
      </g>
     </g>
    </g>
    <g id="xtick_94">
     <g id="line2d_117">
      <g>
       <use xlink:href="#md19c144bfe" x="731.687205" y="470.728203" style="fill: #262626; stroke: #262626"/>
      </g>
     </g>
    </g>
    <g id="xtick_95">
     <g id="line2d_118">
      <g>
       <use xlink:href="#md19c144bfe" x="738.793937" y="470.728203" style="fill: #262626; stroke: #262626"/>
      </g>
     </g>
    </g>
    <g id="xtick_96">
     <g id="line2d_119">
      <g>
       <use xlink:href="#md19c144bfe" x="745.900669" y="470.728203" style="fill: #262626; stroke: #262626"/>
      </g>
     </g>
    </g>
    <g id="xtick_97">
     <g id="line2d_120">
      <g>
       <use xlink:href="#md19c144bfe" x="753.007401" y="470.728203" style="fill: #262626; stroke: #262626"/>
      </g>
     </g>
    </g>
    <g id="xtick_98">
     <g id="line2d_121">
      <g>
       <use xlink:href="#md19c144bfe" x="760.114133" y="470.728203" style="fill: #262626; stroke: #262626"/>
      </g>
     </g>
    </g>
    <g id="xtick_99">
     <g id="line2d_122">
      <g>
       <use xlink:href="#md19c144bfe" x="767.220864" y="470.728203" style="fill: #262626; stroke: #262626"/>
      </g>
     </g>
    </g>
    <g id="text_24">
     <!-- Date -->
     <g style="fill: #262626" transform="translate(405.665312 545.409053)scale(0.12 -0.12)">
      <defs>
       <path id="DejaVuSans-44" d="M 1259 4147 
L 1259 519 
L 2022 519 
Q 2988 519 3436 956 
Q 3884 1394 3884 2338 
Q 3884 3275 3436 3711 
Q 2988 4147 2022 4147 
L 1259 4147 
z
M 628 4666 
L 1925 4666 
Q 3281 4666 3915 4102 
Q 4550 3538 4550 2338 
Q 4550 1131 3912 565 
Q 3275 0 1925 0 
L 628 0 
L 628 4666 
z
" transform="scale(0.015625)"/>
       <path id="DejaVuSans-61" d="M 2194 1759 
Q 1497 1759 1228 1600 
Q 959 1441 959 1056 
Q 959 750 1161 570 
Q 1363 391 1709 391 
Q 2188 391 2477 730 
Q 2766 1069 2766 1631 
L 2766 1759 
L 2194 1759 
z
M 3341 1997 
L 3341 0 
L 2766 0 
L 2766 531 
Q 2569 213 2275 61 
Q 1981 -91 1556 -91 
Q 1019 -91 701 211 
Q 384 513 384 1019 
Q 384 1609 779 1909 
Q 1175 2209 1959 2209 
L 2766 2209 
L 2766 2266 
Q 2766 2663 2505 2880 
Q 2244 3097 1772 3097 
Q 1472 3097 1187 3025 
Q 903 2953 641 2809 
L 641 3341 
Q 956 3463 1253 3523 
Q 1550 3584 1831 3584 
Q 2591 3584 2966 3190 
Q 3341 2797 3341 1997 
z
" transform="scale(0.015625)"/>
       <path id="DejaVuSans-74" d="M 1172 4494 
L 1172 3500 
L 2356 3500 
L 2356 3053 
L 1172 3053 
L 1172 1153 
Q 1172 725 1289 603 
Q 1406 481 1766 481 
L 2356 481 
L 2356 0 
L 1766 0 
Q 1100 0 847 248 
Q 594 497 594 1153 
L 594 3053 
L 172 3053 
L 172 3500 
L 594 3500 
L 594 4494 
L 1172 4494 
z
" transform="scale(0.015625)"/>
       <path id="DejaVuSans-65" d="M 3597 1894 
L 3597 1613 
L 953 1613 
Q 991 1019 1311 708 
Q 1631 397 2203 397 
Q 2534 397 2845 478 
Q 3156 559 3463 722 
L 3463 178 
Q 3153 47 2828 -22 
Q 2503 -91 2169 -91 
Q 1331 -91 842 396 
Q 353 884 353 1716 
Q 353 2575 817 3079 
Q 1281 3584 2069 3584 
Q 2775 3584 3186 3129 
Q 3597 2675 3597 1894 
z
M 3022 2063 
Q 3016 2534 2758 2815 
Q 2500 3097 2075 3097 
Q 1594 3097 1305 2825 
Q 1016 2553 972 2059 
L 3022 2063 
z
" transform="scale(0.015625)"/>
      </defs>
      <use xlink:href="#DejaVuSans-44"/>
      <use xlink:href="#DejaVuSans-61" x="77.001953"/>
      <use xlink:href="#DejaVuSans-74" x="138.28125"/>
      <use xlink:href="#DejaVuSans-65" x="177.490234"/>
     </g>
    </g>
   </g>
   <g id="matplotlib.axis_2">
    <g id="ytick_1">
     <g id="line2d_123">
      <path d="M 67.10625 450.655018 
L 772.90625 450.655018 
" clip-path="url(#p765bfdb8a7)" style="fill: none; stroke: #cccccc; stroke-linecap: round"/>
     </g>
     <g id="line2d_124">
      <defs>
       <path id="m229a307c7b" d="M 0 0 
L -6 0 
" style="stroke: #262626; stroke-width: 1.25"/>
      </defs>
      <g>
       <use xlink:href="#m229a307c7b" x="67.10625" y="450.655018" style="fill: #262626; stroke: #262626; stroke-width: 1.25"/>
      </g>
     </g>
     <g id="text_25">
      <!-- 0 -->
      <g style="fill: #262626" transform="translate(50.6075 454.834158)scale(0.11 -0.11)">
       <use xlink:href="#DejaVuSans-30"/>
      </g>
     </g>
    </g>
    <g id="ytick_2">
     <g id="line2d_125">
      <path d="M 67.10625 392.671537 
L 772.90625 392.671537 
" clip-path="url(#p765bfdb8a7)" style="fill: none; stroke: #cccccc; stroke-linecap: round"/>
     </g>
     <g id="line2d_126">
      <g>
       <use xlink:href="#m229a307c7b" x="67.10625" y="392.671537" style="fill: #262626; stroke: #262626; stroke-width: 1.25"/>
      </g>
     </g>
     <g id="text_26">
      <!-- 100000 -->
      <g style="fill: #262626" transform="translate(15.61375 396.850677)scale(0.11 -0.11)">
       <use xlink:href="#DejaVuSans-31"/>
       <use xlink:href="#DejaVuSans-30" x="63.623047"/>
       <use xlink:href="#DejaVuSans-30" x="127.246094"/>
       <use xlink:href="#DejaVuSans-30" x="190.869141"/>
       <use xlink:href="#DejaVuSans-30" x="254.492188"/>
       <use xlink:href="#DejaVuSans-30" x="318.115234"/>
      </g>
     </g>
    </g>
    <g id="ytick_3">
     <g id="line2d_127">
      <path d="M 67.10625 334.688055 
L 772.90625 334.688055 
" clip-path="url(#p765bfdb8a7)" style="fill: none; stroke: #cccccc; stroke-linecap: round"/>
     </g>
     <g id="line2d_128">
      <g>
       <use xlink:href="#m229a307c7b" x="67.10625" y="334.688055" style="fill: #262626; stroke: #262626; stroke-width: 1.25"/>
      </g>
     </g>
     <g id="text_27">
      <!-- 200000 -->
      <g style="fill: #262626" transform="translate(15.61375 338.867196)scale(0.11 -0.11)">
       <use xlink:href="#DejaVuSans-32"/>
       <use xlink:href="#DejaVuSans-30" x="63.623047"/>
       <use xlink:href="#DejaVuSans-30" x="127.246094"/>
       <use xlink:href="#DejaVuSans-30" x="190.869141"/>
       <use xlink:href="#DejaVuSans-30" x="254.492188"/>
       <use xlink:href="#DejaVuSans-30" x="318.115234"/>
      </g>
     </g>
    </g>
    <g id="ytick_4">
     <g id="line2d_129">
      <path d="M 67.10625 276.704574 
L 772.90625 276.704574 
" clip-path="url(#p765bfdb8a7)" style="fill: none; stroke: #cccccc; stroke-linecap: round"/>
     </g>
     <g id="line2d_130">
      <g>
       <use xlink:href="#m229a307c7b" x="67.10625" y="276.704574" style="fill: #262626; stroke: #262626; stroke-width: 1.25"/>
      </g>
     </g>
     <g id="text_28">
      <!-- 300000 -->
      <g style="fill: #262626" transform="translate(15.61375 280.883715)scale(0.11 -0.11)">
       <use xlink:href="#DejaVuSans-33"/>
       <use xlink:href="#DejaVuSans-30" x="63.623047"/>
       <use xlink:href="#DejaVuSans-30" x="127.246094"/>
       <use xlink:href="#DejaVuSans-30" x="190.869141"/>
       <use xlink:href="#DejaVuSans-30" x="254.492188"/>
       <use xlink:href="#DejaVuSans-30" x="318.115234"/>
      </g>
     </g>
    </g>
    <g id="ytick_5">
     <g id="line2d_131">
      <path d="M 67.10625 218.721093 
L 772.90625 218.721093 
" clip-path="url(#p765bfdb8a7)" style="fill: none; stroke: #cccccc; stroke-linecap: round"/>
     </g>
     <g id="line2d_132">
      <g>
       <use xlink:href="#m229a307c7b" x="67.10625" y="218.721093" style="fill: #262626; stroke: #262626; stroke-width: 1.25"/>
      </g>
     </g>
     <g id="text_29">
      <!-- 400000 -->
      <g style="fill: #262626" transform="translate(15.61375 222.900234)scale(0.11 -0.11)">
       <use xlink:href="#DejaVuSans-34"/>
       <use xlink:href="#DejaVuSans-30" x="63.623047"/>
       <use xlink:href="#DejaVuSans-30" x="127.246094"/>
       <use xlink:href="#DejaVuSans-30" x="190.869141"/>
       <use xlink:href="#DejaVuSans-30" x="254.492188"/>
       <use xlink:href="#DejaVuSans-30" x="318.115234"/>
      </g>
     </g>
    </g>
    <g id="ytick_6">
     <g id="line2d_133">
      <path d="M 67.10625 160.737612 
L 772.90625 160.737612 
" clip-path="url(#p765bfdb8a7)" style="fill: none; stroke: #cccccc; stroke-linecap: round"/>
     </g>
     <g id="line2d_134">
      <g>
       <use xlink:href="#m229a307c7b" x="67.10625" y="160.737612" style="fill: #262626; stroke: #262626; stroke-width: 1.25"/>
      </g>
     </g>
     <g id="text_30">
      <!-- 500000 -->
      <g style="fill: #262626" transform="translate(15.61375 164.916753)scale(0.11 -0.11)">
       <use xlink:href="#DejaVuSans-35"/>
       <use xlink:href="#DejaVuSans-30" x="63.623047"/>
       <use xlink:href="#DejaVuSans-30" x="127.246094"/>
       <use xlink:href="#DejaVuSans-30" x="190.869141"/>
       <use xlink:href="#DejaVuSans-30" x="254.492188"/>
       <use xlink:href="#DejaVuSans-30" x="318.115234"/>
      </g>
     </g>
    </g>
    <g id="ytick_7">
     <g id="line2d_135">
      <path d="M 67.10625 102.754131 
L 772.90625 102.754131 
" clip-path="url(#p765bfdb8a7)" style="fill: none; stroke: #cccccc; stroke-linecap: round"/>
     </g>
     <g id="line2d_136">
      <g>
       <use xlink:href="#m229a307c7b" x="67.10625" y="102.754131" style="fill: #262626; stroke: #262626; stroke-width: 1.25"/>
      </g>
     </g>
     <g id="text_31">
      <!-- 600000 -->
      <g style="fill: #262626" transform="translate(15.61375 106.933272)scale(0.11 -0.11)">
       <use xlink:href="#DejaVuSans-36"/>
       <use xlink:href="#DejaVuSans-30" x="63.623047"/>
       <use xlink:href="#DejaVuSans-30" x="127.246094"/>
       <use xlink:href="#DejaVuSans-30" x="190.869141"/>
       <use xlink:href="#DejaVuSans-30" x="254.492188"/>
       <use xlink:href="#DejaVuSans-30" x="318.115234"/>
      </g>
     </g>
    </g>
    <g id="ytick_8">
     <g id="line2d_137">
      <path d="M 67.10625 44.77065 
L 772.90625 44.77065 
" clip-path="url(#p765bfdb8a7)" style="fill: none; stroke: #cccccc; stroke-linecap: round"/>
     </g>
     <g id="line2d_138">
      <g>
       <use xlink:href="#m229a307c7b" x="67.10625" y="44.77065" style="fill: #262626; stroke: #262626; stroke-width: 1.25"/>
      </g>
     </g>
     <g id="text_32">
      <!-- 700000 -->
      <g style="fill: #262626" transform="translate(15.61375 48.94979)scale(0.11 -0.11)">
       <use xlink:href="#DejaVuSans-37"/>
       <use xlink:href="#DejaVuSans-30" x="63.623047"/>
       <use xlink:href="#DejaVuSans-30" x="127.246094"/>
       <use xlink:href="#DejaVuSans-30" x="190.869141"/>
       <use xlink:href="#DejaVuSans-30" x="254.492188"/>
       <use xlink:href="#DejaVuSans-30" x="318.115234"/>
      </g>
     </g>
    </g>
    <g id="text_33">
     <!-- Cases -->
     <g style="fill: #262626" transform="translate(9.118125 267.732851)rotate(-90)scale(0.12 -0.12)">
      <defs>
       <path id="DejaVuSans-43" d="M 4122 4306 
L 4122 3641 
Q 3803 3938 3442 4084 
Q 3081 4231 2675 4231 
Q 1875 4231 1450 3742 
Q 1025 3253 1025 2328 
Q 1025 1406 1450 917 
Q 1875 428 2675 428 
Q 3081 428 3442 575 
Q 3803 722 4122 1019 
L 4122 359 
Q 3791 134 3420 21 
Q 3050 -91 2638 -91 
Q 1578 -91 968 557 
Q 359 1206 359 2328 
Q 359 3453 968 4101 
Q 1578 4750 2638 4750 
Q 3056 4750 3426 4639 
Q 3797 4528 4122 4306 
z
" transform="scale(0.015625)"/>
       <path id="DejaVuSans-73" d="M 2834 3397 
L 2834 2853 
Q 2591 2978 2328 3040 
Q 2066 3103 1784 3103 
Q 1356 3103 1142 2972 
Q 928 2841 928 2578 
Q 928 2378 1081 2264 
Q 1234 2150 1697 2047 
L 1894 2003 
Q 2506 1872 2764 1633 
Q 3022 1394 3022 966 
Q 3022 478 2636 193 
Q 2250 -91 1575 -91 
Q 1294 -91 989 -36 
Q 684 19 347 128 
L 347 722 
Q 666 556 975 473 
Q 1284 391 1588 391 
Q 1994 391 2212 530 
Q 2431 669 2431 922 
Q 2431 1156 2273 1281 
Q 2116 1406 1581 1522 
L 1381 1569 
Q 847 1681 609 1914 
Q 372 2147 372 2553 
Q 372 3047 722 3315 
Q 1072 3584 1716 3584 
Q 2034 3584 2315 3537 
Q 2597 3491 2834 3397 
z
" transform="scale(0.015625)"/>
      </defs>
      <use xlink:href="#DejaVuSans-43"/>
      <use xlink:href="#DejaVuSans-61" x="69.824219"/>
      <use xlink:href="#DejaVuSans-73" x="131.103516"/>
      <use xlink:href="#DejaVuSans-65" x="183.203125"/>
      <use xlink:href="#DejaVuSans-73" x="244.726562"/>
     </g>
    </g>
   </g>
   <g id="line2d_139">
    <path d="M 99.188068 450.652698 
L 113.401532 450.546589 
L 132.691233 450.286823 
L 146.904696 449.966174 
L 163.148655 449.515642 
L 194.621325 448.979875 
L 205.789046 448.409897 
L 208.834789 448.269577 
L 222.033005 447.225875 
L 224.0635 446.977705 
L 227.109242 446.494703 
L 229.139737 446.357862 
L 255.536169 442.918282 
L 257.566664 442.82029 
L 261.627654 442.39643 
L 267.719138 441.979529 
L 270.764881 441.791083 
L 273.810623 441.52204 
L 277.871612 441.267492 
L 279.902107 441.114416 
L 284.978344 440.746221 
L 288.024087 440.545598 
L 293.100324 440.182621 
L 308.329035 438.741152 
L 312.390024 438.178132 
L 313.405272 438.138124 
L 315.435767 437.721222 
L 317.466262 437.16864 
L 319.496756 436.554015 
L 320.512004 436.505889 
L 322.542499 435.710355 
L 324.572993 434.705501 
L 325.588241 434.126826 
L 326.603488 433.777186 
L 327.618736 433.548151 
L 328.633983 432.9544 
L 330.664478 431.326224 
L 332.694973 429.48003 
L 333.71022 428.875262 
L 334.725467 428.685656 
L 335.740715 427.385087 
L 338.786457 422.735971 
L 339.801705 421.059669 
L 340.816952 420.014227 
L 341.832199 419.303929 
L 342.847447 417.89667 
L 346.908436 408.800222 
L 347.923684 407.466022 
L 348.938931 407.074633 
L 349.954179 404.861984 
L 351.984673 400.02906 
L 352.999921 398.049504 
L 354.015168 395.60724 
L 355.030416 394.158813 
L 356.045663 393.685668 
L 357.060911 391.645229 
L 358.076158 388.845786 
L 361.1219 381.992139 
L 362.137148 380.670695 
L 363.152395 380.019541 
L 364.167642 378.195381 
L 365.18289 375.654544 
L 367.213385 371.433347 
L 368.228632 369.504237 
L 369.243879 368.465173 
L 370.259127 368.036675 
L 371.274374 366.40502 
L 373.304869 362.570572 
L 375.335364 358.573191 
L 376.350611 357.392067 
L 377.365859 357.057503 
L 378.381106 355.454839 
L 379.396354 353.147097 
L 381.426848 349.434414 
L 382.442096 347.638666 
L 383.457343 346.892418 
L 384.472591 346.604241 
L 385.487838 345.389487 
L 386.503085 343.799 
L 389.548828 340.470748 
L 390.564075 339.889753 
L 391.579322 339.793501 
L 392.59457 339.053052 
L 394.625065 337.073496 
L 395.640312 336.625863 
L 396.65556 336.476846 
L 398.686054 336.012398 
L 399.701302 335.816994 
L 400.716549 334.983191 
L 401.731797 333.980657 
L 402.747044 333.37415 
L 405.792786 332.918979 
L 406.808034 332.322329 
L 407.823281 331.562746 
L 409.853776 330.479034 
L 410.869023 330.042419 
L 411.884271 329.813964 
L 412.899518 329.753081 
L 417.975755 328.018216 
L 421.021497 327.507961 
L 425.082487 326.321039 
L 427.112982 326.096643 
L 430.158724 324.822746 
L 433.204466 323.892691 
L 434.219714 323.817312 
L 440.311198 321.031786 
L 441.326446 320.926256 
L 445.387435 318.427168 
L 446.402683 317.867048 
L 447.41793 317.573651 
L 448.433178 317.479138 
L 449.448425 316.859874 
L 451.47892 315.355203 
L 452.494167 314.725502 
L 453.509415 313.877204 
L 454.524662 313.559455 
L 455.539909 313.427832 
L 457.570404 311.267948 
L 460.616146 308.231932 
L 461.631394 307.606291 
L 462.646641 307.413786 
L 464.677136 304.51983 
L 465.692383 303.850701 
L 466.707631 302.576224 
L 467.722878 300.8344 
L 468.738126 300.007555 
L 469.753373 299.719378 
L 470.768621 297.982772 
L 471.783868 295.952191 
L 473.814363 292.534065 
L 474.82961 290.702366 
L 475.844858 289.53168 
L 476.860105 289.137972 
L 478.8906 283.913081 
L 481.936342 276.739944 
L 482.951589 275.266584 
L 483.966837 274.7198 
L 489.043074 262.073602 
L 490.058321 260.602562 
L 491.073569 260.032584 
L 492.088816 257.425067 
L 493.104064 254.423842 
L 494.119311 251.984477 
L 496.149806 247.51569 
L 497.165053 246.402987 
L 498.180301 245.973909 
L 501.226043 239.352196 
L 503.256538 236.012347 
L 504.271785 235.22841 
L 505.287033 234.960527 
L 507.317527 231.443249 
L 509.348022 228.716865 
L 510.36327 227.484137 
L 511.378517 226.860234 
L 512.393764 226.617863 
L 513.409012 225.206545 
L 515.439507 222.830382 
L 517.470001 220.865322 
L 518.485249 220.402614 
L 519.500496 220.17068 
L 521.530991 218.078056 
L 523.561486 216.559469 
L 525.591981 215.911214 
L 526.607228 215.709431 
L 527.622476 215.343555 
L 528.637723 215.130756 
L 529.65297 214.182726 
L 530.668218 213.866716 
L 531.683465 213.215562 
L 532.698713 212.945359 
L 533.71396 212.805618 
L 535.744455 211.672041 
L 537.77495 210.997693 
L 538.790197 210.697339 
L 540.820692 210.492077 
L 541.835939 210.099529 
L 544.881682 209.411845 
L 545.896929 209.201945 
L 549.957919 208.786783 
L 551.988413 208.389017 
L 554.018908 208.155923 
L 555.034156 208.125192 
L 558.079898 207.698433 
L 561.12564 207.457222 
L 563.156135 207.309364 
L 567.217125 207.000892 
L 602.750784 205.458531 
L 607.827021 205.199925 
L 614.933753 204.634006 
L 620.00999 203.911532 
L 625.086227 202.559357 
L 626.101474 202.457307 
L 630.162464 200.576902 
L 631.177711 199.969815 
L 632.192959 199.608578 
L 633.208206 199.450863 
L 636.253949 197.077599 
L 638.284443 195.489432 
L 639.299691 194.999471 
L 640.314938 194.776815 
L 643.36068 191.643967 
L 645.391175 189.645856 
L 646.406423 189.063702 
L 647.42167 188.802197 
L 649.452165 186.399941 
L 651.48266 184.481268 
L 652.497907 183.530339 
L 653.513154 183.03516 
L 655.543649 182.359652 
L 657.574144 180.062926 
L 659.604639 178.175564 
L 660.619886 177.648494 
L 661.635134 177.395106 
L 664.680876 173.980459 
L 666.711371 171.883777 
L 667.726618 171.332354 
L 668.741866 171.066789 
L 670.77236 168.427381 
L 671.787608 167.934522 
L 673.818103 165.766519 
L 674.83335 165.164651 
L 675.848598 164.877053 
L 677.879092 161.914677 
L 680.924835 158.271575 
L 681.940082 157.559537 
L 682.955329 157.262082 
L 686.001072 152.499319 
L 688.031566 149.72365 
L 689.046814 149.001176 
L 690.062061 148.641098 
L 693.107804 142.687934 
L 695.138298 138.847688 
L 696.153546 137.765137 
L 697.168793 137.185302 
L 700.214535 128.80205 
L 702.24503 123.211283 
L 703.260278 121.266517 
L 704.275525 120.472143 
L 705.290772 117.072572 
L 706.30602 113.120418 
L 708.336515 106.846025 
L 709.351762 103.798413 
L 710.367009 102.154002 
L 711.382257 101.309183 
L 713.412752 94.426543 
L 716.458494 86.124468 
L 717.473741 84.485855 
L 718.488989 83.757583 
L 720.519484 77.819494 
L 721.534731 75.585391 
L 723.565226 71.9017 
L 724.580473 70.968166 
L 725.595721 70.488063 
L 726.610968 68.619256 
L 727.626215 66.375875 
L 730.671958 61.527876 
L 731.687205 60.684216 
L 732.702453 60.259197 
L 734.732947 56.377203 
L 737.77869 52.07077 
L 738.793937 51.364531 
L 739.809184 50.942411 
L 740.824432 49.19131 
L 740.824432 49.19131 
" clip-path="url(#p765bfdb8a7)" style="fill: none; stroke: #ffa500; stroke-width: 1.5; stroke-linecap: round"/>
   </g>
   <g id="line2d_140">
    <path d="M 99.188068 450.655018 
L 145.889449 450.544849 
L 162.133408 450.410327 
L 186.499346 450.003863 
L 194.621325 449.713946 
L 214.926273 449.157884 
L 220.00251 448.974656 
L 223.048252 448.894059 
L 226.093995 448.736924 
L 228.124489 448.730546 
L 232.185479 448.378006 
L 238.276963 447.962845 
L 240.307458 447.609725 
L 243.353201 447.41664 
L 248.429438 446.946394 
L 249.444685 446.932478 
L 254.520922 446.235517 
L 258.581912 445.927045 
L 261.627654 445.370403 
L 264.673396 445.180217 
L 268.734386 444.693156 
L 272.795375 444.508189 
L 283.963097 443.620462 
L 287.008839 443.524789 
L 290.054581 443.262124 
L 293.100324 443.157754 
L 300.207056 442.695625 
L 302.23755 442.614448 
L 305.283293 442.444557 
L 307.313787 442.340766 
L 312.390024 441.966773 
L 314.420519 441.853705 
L 324.572993 440.984533 
L 326.603488 440.848851 
L 328.633983 440.709111 
L 332.694973 440.158848 
L 335.740715 439.841098 
L 341.832199 438.751009 
L 345.893189 437.487549 
L 346.908436 437.066009 
L 347.923684 436.85205 
L 348.938931 436.50241 
L 349.954179 435.995054 
L 350.969426 435.695859 
L 352.999921 434.659115 
L 355.030416 433.952876 
L 356.045663 433.62237 
L 357.060911 433.076166 
L 358.076158 432.369347 
L 361.1219 430.715658 
L 362.137148 429.924763 
L 363.152395 429.477131 
L 365.18289 427.402482 
L 367.213385 424.63493 
L 368.228632 423.553539 
L 369.243879 422.95109 
L 370.259127 422.478525 
L 371.274374 421.33567 
L 373.304869 418.644657 
L 374.320117 417.522677 
L 375.335364 416.052216 
L 376.350611 415.4747 
L 377.365859 414.56262 
L 380.411601 408.861684 
L 381.426848 407.032885 
L 382.442096 404.545394 
L 384.472591 402.111247 
L 385.487838 401.033914 
L 387.518333 398.174169 
L 389.548828 394.630218 
L 390.564075 393.81613 
L 391.579322 392.811857 
L 392.59457 391.125697 
L 393.609817 389.720177 
L 395.640312 388.218405 
L 396.65556 387.530721 
L 397.670807 387.022786 
L 399.701302 385.433459 
L 401.731797 382.040265 
L 402.747044 381.349102 
L 403.762291 380.875957 
L 405.792786 379.676859 
L 408.838528 375.978672 
L 409.853776 375.165744 
L 410.869023 372.944397 
L 412.899518 372.227141 
L 414.930013 369.160395 
L 415.94526 367.366386 
L 416.960508 363.465257 
L 417.975755 360.183392 
L 420.00625 359.782146 
L 421.021497 355.414251 
L 422.036745 351.794342 
L 423.051992 349.127102 
L 424.06724 347.818995 
L 425.082487 347.095361 
L 427.112982 346.825158 
L 429.143477 345.707816 
L 430.158724 345.34426 
L 434.219714 342.195757 
L 435.234961 341.082474 
L 436.250209 340.205763 
L 437.265456 339.5865 
L 439.295951 338.729504 
L 441.326446 338.601361 
L 442.341693 338.135173 
L 443.35694 337.869029 
L 444.372188 337.464884 
L 449.448425 336.093575 
L 452.494167 334.901435 
L 454.524662 334.608038 
L 455.539909 334.541937 
L 456.555157 334.091405 
L 458.585652 333.525487 
L 460.616146 332.662113 
L 461.631394 331.709444 
L 462.646641 331.472871 
L 463.661889 330.843751 
L 464.677136 329.811065 
L 465.692383 329.469542 
L 466.707631 328.519773 
L 467.722878 327.777584 
L 469.753373 327.215724 
L 470.768621 326.503687 
L 471.783868 324.530509 
L 472.799115 323.062947 
L 474.82961 321.073534 
L 475.844858 320.425279 
L 476.860105 320.086655 
L 478.8906 317.979535 
L 481.936342 315.207925 
L 483.966837 314.526619 
L 485.997332 311.725437 
L 487.012579 310.154665 
L 488.027827 308.901642 
L 489.043074 307.174314 
L 490.058321 306.331814 
L 491.073569 306.066829 
L 493.104064 302.395895 
L 494.119311 300.152514 
L 495.134558 298.683213 
L 496.149806 296.366193 
L 497.165053 294.346048 
L 498.180301 293.84855 
L 500.210795 290.511601 
L 501.226043 289.07535 
L 502.24129 287.153777 
L 503.256538 285.478055 
L 504.271785 284.938808 
L 505.287033 284.672664 
L 506.30228 282.876336 
L 508.332775 278.445238 
L 510.36327 274.3661 
L 511.378517 273.667979 
L 512.393764 272.832437 
L 513.409012 270.371618 
L 514.424259 268.428592 
L 515.439507 266.146942 
L 516.454754 264.296109 
L 517.470001 262.859858 
L 519.500496 262.241755 
L 520.515744 259.864432 
L 522.546238 256.160447 
L 523.561486 254.489943 
L 524.576733 253.781385 
L 525.591981 253.575543 
L 527.622476 252.833935 
L 528.637723 252.22047 
L 529.65297 250.67289 
L 530.668218 250.328469 
L 531.683465 248.947882 
L 533.71396 248.645208 
L 534.729207 246.902804 
L 535.744455 245.614412 
L 536.759702 243.567595 
L 537.77495 241.913326 
L 538.790197 240.758875 
L 540.820692 240.479394 
L 541.835939 239.199699 
L 542.851187 237.586599 
L 543.866434 236.243121 
L 544.881682 235.214494 
L 545.896929 234.395188 
L 548.942671 233.969009 
L 549.957919 232.564069 
L 550.973166 231.872906 
L 551.988413 230.80717 
L 553.003661 230.170511 
L 555.034156 230.006418 
L 557.06465 228.134711 
L 558.079898 227.547918 
L 561.12564 226.799352 
L 562.140888 226.781377 
L 566.201877 225.339908 
L 567.217125 224.885897 
L 569.247619 224.812258 
L 570.262867 224.294465 
L 571.278114 223.956422 
L 572.293362 223.339477 
L 574.323856 222.912139 
L 576.354351 222.886626 
L 579.400093 222.275481 
L 585.491578 221.928159 
L 587.522073 221.660856 
L 588.53732 221.456754 
L 590.567815 221.39935 
L 594.628805 220.913449 
L 599.705042 220.668178 
L 600.720289 220.458858 
L 605.796526 220.250118 
L 607.827021 219.978755 
L 628.131969 219.121179 
L 631.177711 218.76806 
L 633.208206 218.630639 
L 639.299691 217.795677 
L 640.314938 217.769004 
L 642.345433 217.145102 
L 644.375928 216.531057 
L 645.391175 216.331594 
L 647.42167 216.195333 
L 649.452165 215.378345 
L 651.48266 214.645434 
L 652.497907 214.16881 
L 653.513154 214.057482 
L 655.543649 213.471269 
L 658.589392 211.568251 
L 659.604639 210.858533 
L 660.619886 210.758222 
L 661.635134 210.512372 
L 662.650381 209.880932 
L 663.665629 209.438518 
L 664.680876 208.605295 
L 665.696123 207.466499 
L 666.711371 206.056341 
L 667.726618 205.758886 
L 670.77236 203.829776 
L 671.787608 203.491152 
L 672.802855 202.879426 
L 673.818103 201.888489 
L 675.848598 201.298797 
L 677.879092 198.731868 
L 680.924835 196.555168 
L 682.955329 196.047813 
L 683.970577 195.261557 
L 684.985824 194.085072 
L 687.016319 192.249894 
L 688.031566 191.131973 
L 690.062061 190.425154 
L 691.077309 189.345502 
L 692.092556 188.667675 
L 693.107804 187.603098 
L 695.138298 185.786476 
L 697.168793 185.171851 
L 698.184041 184.006963 
L 699.199288 182.416476 
L 700.214535 181.854036 
L 701.229783 181.013276 
L 702.24503 180.329071 
L 703.260278 180.149322 
L 704.275525 179.83853 
L 705.290772 178.666104 
L 708.336515 174.683219 
L 709.351762 173.7665 
L 711.382257 173.048085 
L 712.397504 171.303362 
L 714.427999 168.422163 
L 715.443247 166.275034 
L 716.458494 164.686867 
L 717.473741 164.303596 
L 718.488989 163.72782 
L 719.504236 161.700718 
L 722.549978 154.42669 
L 723.565226 152.683127 
L 724.580473 152.163015 
L 725.595721 151.378498 
L 727.626215 146.589063 
L 728.641463 144.647196 
L 729.65671 142.047217 
L 730.671958 140.227695 
L 731.687205 139.217043 
L 732.702453 138.732881 
L 733.7177 135.96301 
L 736.763442 130.671438 
L 737.77869 129.254901 
L 738.793937 128.589831 
L 739.809184 128.288316 
L 740.824432 126.569106 
L 740.824432 126.569106 
" clip-path="url(#p765bfdb8a7)" style="fill: none; stroke: #008000; stroke-width: 1.5; stroke-linecap: round"/>
   </g>
   <g id="line2d_141"/>
   <g id="line2d_142"/>
   <g id="patch_3">
    <path d="M 67.10625 470.728203 
L 67.10625 29.118125 
" style="fill: none; stroke: #262626; stroke-width: 1.25; stroke-linejoin: miter; stroke-linecap: square"/>
   </g>
   <g id="patch_4">
    <path d="M 772.90625 470.728203 
L 772.90625 29.118125 
" style="fill: none; stroke: #262626; stroke-width: 1.25; stroke-linejoin: miter; stroke-linecap: square"/>
   </g>
   <g id="patch_5">
    <path d="M 67.10625 470.728203 
L 772.90625 470.728203 
" style="fill: none; stroke: #262626; stroke-width: 1.25; stroke-linejoin: miter; stroke-linecap: square"/>
   </g>
   <g id="patch_6">
    <path d="M 67.10625 29.118125 
L 772.90625 29.118125 
" style="fill: none; stroke: #262626; stroke-width: 1.25; stroke-linejoin: miter; stroke-linecap: square"/>
   </g>
   <g id="text_34">
    <!-- Last update: 30.11.2021 -->
    <g style="fill: #262626" transform="translate(358.507422 22.493974)scale(0.09996 -0.09996)">
     <defs>
      <path id="DejaVuSans-4c" d="M 628 4666 
L 1259 4666 
L 1259 531 
L 3531 531 
L 3531 0 
L 628 0 
L 628 4666 
z
" transform="scale(0.015625)"/>
      <path id="DejaVuSans-20" transform="scale(0.015625)"/>
      <path id="DejaVuSans-75" d="M 544 1381 
L 544 3500 
L 1119 3500 
L 1119 1403 
Q 1119 906 1312 657 
Q 1506 409 1894 409 
Q 2359 409 2629 706 
Q 2900 1003 2900 1516 
L 2900 3500 
L 3475 3500 
L 3475 0 
L 2900 0 
L 2900 538 
Q 2691 219 2414 64 
Q 2138 -91 1772 -91 
Q 1169 -91 856 284 
Q 544 659 544 1381 
z
M 1991 3584 
L 1991 3584 
z
" transform="scale(0.015625)"/>
      <path id="DejaVuSans-70" d="M 1159 525 
L 1159 -1331 
L 581 -1331 
L 581 3500 
L 1159 3500 
L 1159 2969 
Q 1341 3281 1617 3432 
Q 1894 3584 2278 3584 
Q 2916 3584 3314 3078 
Q 3713 2572 3713 1747 
Q 3713 922 3314 415 
Q 2916 -91 2278 -91 
Q 1894 -91 1617 61 
Q 1341 213 1159 525 
z
M 3116 1747 
Q 3116 2381 2855 2742 
Q 2594 3103 2138 3103 
Q 1681 3103 1420 2742 
Q 1159 2381 1159 1747 
Q 1159 1113 1420 752 
Q 1681 391 2138 391 
Q 2594 391 2855 752 
Q 3116 1113 3116 1747 
z
" transform="scale(0.015625)"/>
      <path id="DejaVuSans-64" d="M 2906 2969 
L 2906 4863 
L 3481 4863 
L 3481 0 
L 2906 0 
L 2906 525 
Q 2725 213 2448 61 
Q 2172 -91 1784 -91 
Q 1150 -91 751 415 
Q 353 922 353 1747 
Q 353 2572 751 3078 
Q 1150 3584 1784 3584 
Q 2172 3584 2448 3432 
Q 2725 3281 2906 2969 
z
M 947 1747 
Q 947 1113 1208 752 
Q 1469 391 1925 391 
Q 2381 391 2643 752 
Q 2906 1113 2906 1747 
Q 2906 2381 2643 2742 
Q 2381 3103 1925 3103 
Q 1469 3103 1208 2742 
Q 947 2381 947 1747 
z
" transform="scale(0.015625)"/>
      <path id="DejaVuSans-3a" d="M 750 794 
L 1409 794 
L 1409 0 
L 750 0 
L 750 794 
z
M 750 3309 
L 1409 3309 
L 1409 2516 
L 750 2516 
L 750 3309 
z
" transform="scale(0.015625)"/>
     </defs>
     <use xlink:href="#DejaVuSans-4c"/>
     <use xlink:href="#DejaVuSans-61" x="55.712891"/>
     <use xlink:href="#DejaVuSans-73" x="116.992188"/>
     <use xlink:href="#DejaVuSans-74" x="169.091797"/>
     <use xlink:href="#DejaVuSans-20" x="208.300781"/>
     <use xlink:href="#DejaVuSans-75" x="240.087891"/>
     <use xlink:href="#DejaVuSans-70" x="303.466797"/>
     <use xlink:href="#DejaVuSans-64" x="366.943359"/>
     <use xlink:href="#DejaVuSans-61" x="430.419922"/>
     <use xlink:href="#DejaVuSans-74" x="491.699219"/>
     <use xlink:href="#DejaVuSans-65" x="530.908203"/>
     <use xlink:href="#DejaVuSans-3a" x="592.431641"/>
     <use xlink:href="#DejaVuSans-20" x="626.123047"/>
     <use xlink:href="#DejaVuSans-33" x="657.910156"/>
     <use xlink:href="#DejaVuSans-30" x="721.533203"/>
     <use xlink:href="#DejaVuSans-2e" x="785.15625"/>
     <use xlink:href="#DejaVuSans-31" x="816.943359"/>
     <use xlink:href="#DejaVuSans-31" x="880.566406"/>
     <use xlink:href="#DejaVuSans-2e" x="944.189453"/>
     <use xlink:href="#DejaVuSans-32" x="975.976562"/>
     <use xlink:href="#DejaVuSans-30" x="1039.599609"/>
     <use xlink:href="#DejaVuSans-32" x="1103.222656"/>
     <use xlink:href="#DejaVuSans-31" x="1166.845703"/>
    </g>
   </g>
   <g id="text_35">
    <!-- Disease timeline -->
    <g style="fill: #262626" transform="translate(363.848125 9.118125)scale(0.12 -0.12)">
     <defs>
      <path id="DejaVuSans-Bold-44" d="M 1791 3756 
L 1791 909 
L 2222 909 
Q 2959 909 3348 1275 
Q 3738 1641 3738 2338 
Q 3738 3031 3350 3393 
Q 2963 3756 2222 3756 
L 1791 3756 
z
M 588 4666 
L 1856 4666 
Q 2919 4666 3439 4514 
Q 3959 4363 4331 4000 
Q 4659 3684 4818 3271 
Q 4978 2859 4978 2338 
Q 4978 1809 4818 1395 
Q 4659 981 4331 666 
Q 3956 303 3431 151 
Q 2906 0 1856 0 
L 588 0 
L 588 4666 
z
" transform="scale(0.015625)"/>
      <path id="DejaVuSans-Bold-69" d="M 538 3500 
L 1656 3500 
L 1656 0 
L 538 0 
L 538 3500 
z
M 538 4863 
L 1656 4863 
L 1656 3950 
L 538 3950 
L 538 4863 
z
" transform="scale(0.015625)"/>
      <path id="DejaVuSans-Bold-73" d="M 3272 3391 
L 3272 2541 
Q 2913 2691 2578 2766 
Q 2244 2841 1947 2841 
Q 1628 2841 1473 2761 
Q 1319 2681 1319 2516 
Q 1319 2381 1436 2309 
Q 1553 2238 1856 2203 
L 2053 2175 
Q 2913 2066 3209 1816 
Q 3506 1566 3506 1031 
Q 3506 472 3093 190 
Q 2681 -91 1863 -91 
Q 1516 -91 1145 -36 
Q 775 19 384 128 
L 384 978 
Q 719 816 1070 734 
Q 1422 653 1784 653 
Q 2113 653 2278 743 
Q 2444 834 2444 1013 
Q 2444 1163 2330 1236 
Q 2216 1309 1875 1350 
L 1678 1375 
Q 931 1469 631 1722 
Q 331 1975 331 2491 
Q 331 3047 712 3315 
Q 1094 3584 1881 3584 
Q 2191 3584 2531 3537 
Q 2872 3491 3272 3391 
z
" transform="scale(0.015625)"/>
      <path id="DejaVuSans-Bold-65" d="M 4031 1759 
L 4031 1441 
L 1416 1441 
Q 1456 1047 1700 850 
Q 1944 653 2381 653 
Q 2734 653 3104 758 
Q 3475 863 3866 1075 
L 3866 213 
Q 3469 63 3072 -14 
Q 2675 -91 2278 -91 
Q 1328 -91 801 392 
Q 275 875 275 1747 
Q 275 2603 792 3093 
Q 1309 3584 2216 3584 
Q 3041 3584 3536 3087 
Q 4031 2591 4031 1759 
z
M 2881 2131 
Q 2881 2450 2695 2645 
Q 2509 2841 2209 2841 
Q 1884 2841 1681 2658 
Q 1478 2475 1428 2131 
L 2881 2131 
z
" transform="scale(0.015625)"/>
      <path id="DejaVuSans-Bold-61" d="M 2106 1575 
Q 1756 1575 1579 1456 
Q 1403 1338 1403 1106 
Q 1403 894 1545 773 
Q 1688 653 1941 653 
Q 2256 653 2472 879 
Q 2688 1106 2688 1447 
L 2688 1575 
L 2106 1575 
z
M 3816 1997 
L 3816 0 
L 2688 0 
L 2688 519 
Q 2463 200 2181 54 
Q 1900 -91 1497 -91 
Q 953 -91 614 226 
Q 275 544 275 1050 
Q 275 1666 698 1953 
Q 1122 2241 2028 2241 
L 2688 2241 
L 2688 2328 
Q 2688 2594 2478 2717 
Q 2269 2841 1825 2841 
Q 1466 2841 1156 2769 
Q 847 2697 581 2553 
L 581 3406 
Q 941 3494 1303 3539 
Q 1666 3584 2028 3584 
Q 2975 3584 3395 3211 
Q 3816 2838 3816 1997 
z
" transform="scale(0.015625)"/>
      <path id="DejaVuSans-Bold-20" transform="scale(0.015625)"/>
      <path id="DejaVuSans-Bold-74" d="M 1759 4494 
L 1759 3500 
L 2913 3500 
L 2913 2700 
L 1759 2700 
L 1759 1216 
Q 1759 972 1856 886 
Q 1953 800 2241 800 
L 2816 800 
L 2816 0 
L 1856 0 
Q 1194 0 917 276 
Q 641 553 641 1216 
L 641 2700 
L 84 2700 
L 84 3500 
L 641 3500 
L 641 4494 
L 1759 4494 
z
" transform="scale(0.015625)"/>
      <path id="DejaVuSans-Bold-6d" d="M 3781 2919 
Q 3994 3244 4286 3414 
Q 4578 3584 4928 3584 
Q 5531 3584 5847 3212 
Q 6163 2841 6163 2131 
L 6163 0 
L 5038 0 
L 5038 1825 
Q 5041 1866 5042 1909 
Q 5044 1953 5044 2034 
Q 5044 2406 4934 2573 
Q 4825 2741 4581 2741 
Q 4263 2741 4089 2478 
Q 3916 2216 3909 1719 
L 3909 0 
L 2784 0 
L 2784 1825 
Q 2784 2406 2684 2573 
Q 2584 2741 2328 2741 
Q 2006 2741 1831 2477 
Q 1656 2213 1656 1722 
L 1656 0 
L 531 0 
L 531 3500 
L 1656 3500 
L 1656 2988 
Q 1863 3284 2130 3434 
Q 2397 3584 2719 3584 
Q 3081 3584 3359 3409 
Q 3638 3234 3781 2919 
z
" transform="scale(0.015625)"/>
      <path id="DejaVuSans-Bold-6c" d="M 538 4863 
L 1656 4863 
L 1656 0 
L 538 0 
L 538 4863 
z
" transform="scale(0.015625)"/>
      <path id="DejaVuSans-Bold-6e" d="M 4056 2131 
L 4056 0 
L 2931 0 
L 2931 347 
L 2931 1631 
Q 2931 2084 2911 2256 
Q 2891 2428 2841 2509 
Q 2775 2619 2662 2680 
Q 2550 2741 2406 2741 
Q 2056 2741 1856 2470 
Q 1656 2200 1656 1722 
L 1656 0 
L 538 0 
L 538 3500 
L 1656 3500 
L 1656 2988 
Q 1909 3294 2193 3439 
Q 2478 3584 2822 3584 
Q 3428 3584 3742 3212 
Q 4056 2841 4056 2131 
z
" transform="scale(0.015625)"/>
     </defs>
     <use xlink:href="#DejaVuSans-Bold-44"/>
     <use xlink:href="#DejaVuSans-Bold-69" x="83.007812"/>
     <use xlink:href="#DejaVuSans-Bold-73" x="117.285156"/>
     <use xlink:href="#DejaVuSans-Bold-65" x="176.806641"/>
     <use xlink:href="#DejaVuSans-Bold-61" x="244.628906"/>
     <use xlink:href="#DejaVuSans-Bold-73" x="312.109375"/>
     <use xlink:href="#DejaVuSans-Bold-65" x="371.630859"/>
     <use xlink:href="#DejaVuSans-Bold-20" x="439.453125"/>
     <use xlink:href="#DejaVuSans-Bold-74" x="474.267578"/>
     <use xlink:href="#DejaVuSans-Bold-69" x="522.070312"/>
     <use xlink:href="#DejaVuSans-Bold-6d" x="556.347656"/>
     <use xlink:href="#DejaVuSans-Bold-65" x="660.546875"/>
     <use xlink:href="#DejaVuSans-Bold-6c" x="728.369141"/>
     <use xlink:href="#DejaVuSans-Bold-69" x="762.646484"/>
     <use xlink:href="#DejaVuSans-Bold-6e" x="796.923828"/>
     <use xlink:href="#DejaVuSans-Bold-65" x="868.115234"/>
    </g>
   </g>
  </g>
  <g id="axes_2">
   <g id="matplotlib.axis_3">
    <g id="ytick_9">
     <g id="line2d_143">
      <defs>
       <path id="mc7c229cc0f" d="M 0 0 
L 6 0 
" style="stroke: #262626; stroke-width: 1.25"/>
      </defs>
      <g>
       <use xlink:href="#mc7c229cc0f" x="772.90625" y="450.655018" style="fill: #262626; stroke: #262626; stroke-width: 1.25"/>
      </g>
     </g>
     <g id="text_36">
      <!-- 0 -->
      <g style="fill: #262626" transform="translate(782.40625 454.834158)scale(0.11 -0.11)">
       <use xlink:href="#DejaVuSans-30"/>
      </g>
     </g>
    </g>
    <g id="ytick_10">
     <g id="line2d_144">
      <g>
       <use xlink:href="#mc7c229cc0f" x="772.90625" y="379.787638" style="fill: #262626; stroke: #262626; stroke-width: 1.25"/>
      </g>
     </g>
     <g id="text_37">
      <!-- 5000 -->
      <g style="fill: #262626" transform="translate(782.40625 383.966778)scale(0.11 -0.11)">
       <use xlink:href="#DejaVuSans-35"/>
       <use xlink:href="#DejaVuSans-30" x="63.623047"/>
       <use xlink:href="#DejaVuSans-30" x="127.246094"/>
       <use xlink:href="#DejaVuSans-30" x="190.869141"/>
      </g>
     </g>
    </g>
    <g id="ytick_11">
     <g id="line2d_145">
      <g>
       <use xlink:href="#mc7c229cc0f" x="772.90625" y="308.920258" style="fill: #262626; stroke: #262626; stroke-width: 1.25"/>
      </g>
     </g>
     <g id="text_38">
      <!-- 10000 -->
      <g style="fill: #262626" transform="translate(782.40625 313.099398)scale(0.11 -0.11)">
       <use xlink:href="#DejaVuSans-31"/>
       <use xlink:href="#DejaVuSans-30" x="63.623047"/>
       <use xlink:href="#DejaVuSans-30" x="127.246094"/>
       <use xlink:href="#DejaVuSans-30" x="190.869141"/>
       <use xlink:href="#DejaVuSans-30" x="254.492188"/>
      </g>
     </g>
    </g>
    <g id="ytick_12">
     <g id="line2d_146">
      <g>
       <use xlink:href="#mc7c229cc0f" x="772.90625" y="238.052878" style="fill: #262626; stroke: #262626; stroke-width: 1.25"/>
      </g>
     </g>
     <g id="text_39">
      <!-- 15000 -->
      <g style="fill: #262626" transform="translate(782.40625 242.232018)scale(0.11 -0.11)">
       <use xlink:href="#DejaVuSans-31"/>
       <use xlink:href="#DejaVuSans-35" x="63.623047"/>
       <use xlink:href="#DejaVuSans-30" x="127.246094"/>
       <use xlink:href="#DejaVuSans-30" x="190.869141"/>
       <use xlink:href="#DejaVuSans-30" x="254.492188"/>
      </g>
     </g>
    </g>
    <g id="ytick_13">
     <g id="line2d_147">
      <g>
       <use xlink:href="#mc7c229cc0f" x="772.90625" y="167.185498" style="fill: #262626; stroke: #262626; stroke-width: 1.25"/>
      </g>
     </g>
     <g id="text_40">
      <!-- 20000 -->
      <g style="fill: #262626" transform="translate(782.40625 171.364639)scale(0.11 -0.11)">
       <use xlink:href="#DejaVuSans-32"/>
       <use xlink:href="#DejaVuSans-30" x="63.623047"/>
       <use xlink:href="#DejaVuSans-30" x="127.246094"/>
       <use xlink:href="#DejaVuSans-30" x="190.869141"/>
       <use xlink:href="#DejaVuSans-30" x="254.492188"/>
      </g>
     </g>
    </g>
    <g id="ytick_14">
     <g id="line2d_148">
      <g>
       <use xlink:href="#mc7c229cc0f" x="772.90625" y="96.318118" style="fill: #262626; stroke: #262626; stroke-width: 1.25"/>
      </g>
     </g>
     <g id="text_41">
      <!-- 25000 -->
      <g style="fill: #262626" transform="translate(782.40625 100.497259)scale(0.11 -0.11)">
       <use xlink:href="#DejaVuSans-32"/>
       <use xlink:href="#DejaVuSans-35" x="63.623047"/>
       <use xlink:href="#DejaVuSans-30" x="127.246094"/>
       <use xlink:href="#DejaVuSans-30" x="190.869141"/>
       <use xlink:href="#DejaVuSans-30" x="254.492188"/>
      </g>
     </g>
    </g>
    <g id="text_42">
     <!-- Fatalities -->
     <g style="fill: #262626" transform="translate(828.281875 223.143476)rotate(-270)scale(0.12 -0.12)">
      <defs>
       <path id="DejaVuSans-46" d="M 628 4666 
L 3309 4666 
L 3309 4134 
L 1259 4134 
L 1259 2759 
L 3109 2759 
L 3109 2228 
L 1259 2228 
L 1259 0 
L 628 0 
L 628 4666 
z
" transform="scale(0.015625)"/>
       <path id="DejaVuSans-6c" d="M 603 4863 
L 1178 4863 
L 1178 0 
L 603 0 
L 603 4863 
z
" transform="scale(0.015625)"/>
       <path id="DejaVuSans-69" d="M 603 3500 
L 1178 3500 
L 1178 0 
L 603 0 
L 603 3500 
z
M 603 4863 
L 1178 4863 
L 1178 4134 
L 603 4134 
L 603 4863 
z
" transform="scale(0.015625)"/>
      </defs>
      <use xlink:href="#DejaVuSans-46"/>
      <use xlink:href="#DejaVuSans-61" x="48.394531"/>
      <use xlink:href="#DejaVuSans-74" x="109.673828"/>
      <use xlink:href="#DejaVuSans-61" x="148.882812"/>
      <use xlink:href="#DejaVuSans-6c" x="210.162109"/>
      <use xlink:href="#DejaVuSans-69" x="237.945312"/>
      <use xlink:href="#DejaVuSans-74" x="265.728516"/>
      <use xlink:href="#DejaVuSans-69" x="304.9375"/>
      <use xlink:href="#DejaVuSans-65" x="332.720703"/>
      <use xlink:href="#DejaVuSans-73" x="394.244141"/>
     </g>
    </g>
   </g>
   <g id="line2d_149">
    <path d="M 99.188068 450.655018 
L 119.493016 450.555803 
L 134.721728 450.243987 
L 140.813212 450.073905 
L 148.935191 449.861303 
L 158.072418 449.52114 
L 162.133408 449.379405 
L 168.224892 449.209323 
L 175.331624 448.883333 
L 185.484098 448.670731 
L 191.575583 448.387261 
L 195.636572 448.288047 
L 200.712809 448.160486 
L 207.819541 447.721108 
L 213.911026 447.551026 
L 238.276963 446.105332 
L 241.322706 445.864383 
L 243.353201 445.736821 
L 252.490427 444.645464 
L 254.520922 444.390341 
L 256.551417 444.319474 
L 259.597159 443.823402 
L 262.642901 443.639147 
L 263.658149 443.596627 
L 265.688644 443.298984 
L 269.749633 442.930473 
L 270.764881 442.930473 
L 271.780128 442.675351 
L 284.978344 441.073748 
L 285.993592 441.059574 
L 288.024087 440.705237 
L 293.100324 440.322554 
L 297.161313 439.98239 
L 301.222303 439.783962 
L 303.252798 439.528839 
L 307.313787 439.217023 
L 315.435767 438.437481 
L 317.466262 438.182359 
L 319.496756 438.026451 
L 320.512004 438.012277 
L 321.527251 437.686287 
L 324.572993 437.275256 
L 327.618736 436.67997 
L 328.633983 436.368154 
L 329.64923 436.212246 
L 330.664478 435.801215 
L 332.694973 435.390184 
L 334.725467 435.149235 
L 335.740715 434.553949 
L 336.755962 434.199612 
L 338.786457 433.29251 
L 340.816952 432.527142 
L 341.832199 432.257846 
L 342.847447 431.534999 
L 344.877942 429.876702 
L 346.908436 428.317619 
L 347.923684 427.523905 
L 348.938931 427.05618 
L 349.954179 425.553792 
L 350.969426 424.419914 
L 351.984673 423.75376 
L 352.999921 422.73327 
L 354.015168 421.528524 
L 356.045663 420.465514 
L 357.060911 418.311145 
L 359.091405 414.796123 
L 361.1219 411.281101 
L 362.137148 410.685815 
L 363.152395 409.835407 
L 364.167642 407.15662 
L 368.228632 398.496626 
L 370.259127 396.59738 
L 371.274374 393.465042 
L 375.335364 384.748354 
L 377.365859 382.664853 
L 378.381106 379.645903 
L 379.396354 377.576575 
L 381.426848 374.04738 
L 382.442096 371.822144 
L 384.472591 370.036286 
L 386.503085 365.543294 
L 387.518333 362.83616 
L 389.548828 358.584118 
L 391.579322 356.982515 
L 392.59457 354.771453 
L 393.609817 353.155676 
L 394.625065 351.752502 
L 396.65556 350.406022 
L 398.686054 349.116236 
L 399.701302 347.883143 
L 400.716549 345.700428 
L 401.731797 344.141346 
L 402.747044 343.276764 
L 403.762291 342.879906 
L 405.792786 341.831069 
L 406.808034 339.605833 
L 408.838528 337.819975 
L 410.869023 336.161679 
L 411.884271 335.892383 
L 412.899518 335.481352 
L 413.914766 333.978963 
L 414.930013 333.31281 
L 415.94526 332.320667 
L 416.960508 331.654513 
L 417.975755 330.789931 
L 420.00625 330.421421 
L 421.021497 329.259196 
L 422.036745 328.564695 
L 423.051992 328.040277 
L 424.06724 326.764664 
L 425.082487 325.942602 
L 427.112982 325.644959 
L 428.128229 324.794551 
L 430.158724 323.887448 
L 433.204466 322.696876 
L 434.219714 322.455927 
L 435.234961 321.0811 
L 437.265456 320.003916 
L 438.280703 319.238548 
L 439.295951 318.813344 
L 440.311198 318.685783 
L 441.326446 318.402313 
L 442.341693 317.140874 
L 443.35694 316.262118 
L 444.372188 315.624312 
L 446.402683 314.674689 
L 448.433178 314.249485 
L 449.448425 313.583331 
L 450.463672 313.12978 
L 453.509415 311.45731 
L 455.539909 310.989585 
L 456.555157 309.869881 
L 458.585652 308.551747 
L 460.616146 307.106053 
L 461.631394 306.553287 
L 462.646641 306.213124 
L 463.661889 304.554827 
L 464.677136 303.378429 
L 465.692383 303.066612 
L 466.707631 301.748479 
L 467.722878 300.827203 
L 469.753373 300.217744 
L 471.783868 296.135782 
L 474.82961 291.968781 
L 475.844858 291.430188 
L 476.860105 290.707341 
L 477.875352 288.056901 
L 478.8906 286.540339 
L 479.905847 284.612746 
L 481.936342 281.537102 
L 482.951589 281.055204 
L 483.966837 280.30401 
L 484.982084 277.908692 
L 487.012579 274.71966 
L 489.043074 272.055047 
L 490.058321 271.360546 
L 491.073569 270.510138 
L 492.088816 267.632922 
L 493.104064 265.436033 
L 495.134558 261.963532 
L 496.149806 260.191847 
L 497.165053 259.213878 
L 498.180301 258.051652 
L 499.195548 255.259478 
L 503.256538 247.860923 
L 504.271785 247.251464 
L 505.287033 246.301841 
L 506.30228 243.452972 
L 508.332775 239.881256 
L 510.36327 236.63553 
L 511.378517 236.096938 
L 512.393764 235.28905 
L 513.409012 232.213406 
L 517.470001 226.345587 
L 518.485249 225.877862 
L 519.500496 225.197535 
L 520.515744 222.447881 
L 521.530991 221.299829 
L 523.561486 218.663563 
L 524.576733 218.224185 
L 526.607228 216.906052 
L 528.637723 215.247755 
L 529.65297 212.923305 
L 530.668218 212.540621 
L 531.683465 211.321702 
L 532.698713 211.094927 
L 533.71396 210.712243 
L 534.729207 209.068119 
L 535.744455 208.231884 
L 538.790197 206.261771 
L 540.820692 206.034996 
L 541.835939 204.844424 
L 544.881682 203.370382 
L 545.896929 202.987698 
L 548.942671 202.434933 
L 549.957919 201.471136 
L 550.973166 200.960891 
L 553.003661 200.46482 
L 555.034156 200.323085 
L 556.049403 199.784493 
L 558.079898 199.118339 
L 559.095145 198.480533 
L 560.110393 198.22541 
L 562.140888 198.083676 
L 563.156135 197.601777 
L 565.18663 197.346655 
L 566.201877 197.134053 
L 570.262867 196.737195 
L 572.293362 196.141909 
L 573.308609 195.815919 
L 575.339104 195.688358 
L 576.354351 195.674185 
L 579.400093 195.348195 
L 581.430588 195.16394 
L 583.461083 195.149766 
L 586.506825 194.667868 
L 587.522073 194.582827 
L 588.53732 194.356051 
L 590.567815 194.341878 
L 591.583062 193.760765 
L 598.689794 193.491469 
L 600.720289 193.293041 
L 607.827021 192.88201 
L 618.994743 192.485153 
L 625.086227 191.960734 
L 626.101474 191.918214 
L 627.116722 191.592224 
L 628.131969 191.450489 
L 630.162464 190.982764 
L 632.192959 190.727642 
L 633.208206 190.656774 
L 634.223454 190.203223 
L 639.299691 188.913437 
L 640.314938 188.800049 
L 641.330186 187.992161 
L 642.345433 187.524436 
L 643.36068 186.844109 
L 644.375928 186.362211 
L 645.391175 185.752751 
L 646.406423 185.540149 
L 647.42167 185.171639 
L 648.436917 183.62673 
L 651.48266 181.3448 
L 652.497907 180.636127 
L 655.543649 179.247126 
L 656.558897 177.532135 
L 657.574144 176.610859 
L 658.589392 175.873839 
L 659.604639 174.853348 
L 660.619886 174.711614 
L 661.635134 173.960419 
L 662.650381 171.990306 
L 663.665629 170.813908 
L 665.696123 168.943009 
L 666.711371 167.823304 
L 667.726618 167.3981 
L 668.741866 166.788641 
L 669.757113 164.832701 
L 670.77236 164.010639 
L 671.787608 163.627955 
L 672.802855 162.224781 
L 673.818103 161.190118 
L 674.83335 160.821607 
L 675.848598 160.254668 
L 676.863845 158.14282 
L 678.89434 155.676635 
L 679.909587 154.684492 
L 680.924835 153.4514 
L 681.940082 153.082889 
L 682.955329 152.47343 
L 683.970577 149.950551 
L 686.001072 147.186723 
L 687.016319 145.854417 
L 688.031566 144.706365 
L 689.046814 144.281161 
L 690.062061 143.714222 
L 691.077309 141.488986 
L 695.138298 136.173932 
L 697.168793 134.955014 
L 698.184041 131.92189 
L 699.199288 130.164379 
L 701.229783 126.947 
L 702.24503 125.019407 
L 703.260278 124.197345 
L 704.275525 123.630406 
L 705.290772 120.186252 
L 706.30602 118.428741 
L 707.321267 116.246025 
L 708.336515 114.488514 
L 709.351762 112.305799 
L 710.367009 111.653819 
L 711.382257 110.505767 
L 712.397504 106.11199 
L 715.443247 99.79062 
L 716.458494 97.168527 
L 718.488989 95.269281 
L 719.504236 90.53534 
L 720.519484 88.451839 
L 722.549978 82.853316 
L 723.565226 80.372958 
L 724.580473 79.437508 
L 725.595721 78.190242 
L 726.610968 74.278363 
L 727.626215 72.563372 
L 729.65671 68.183768 
L 730.671958 66.213655 
L 731.687205 65.41994 
L 732.702453 64.385277 
L 733.7177 60.785214 
L 734.732947 58.645019 
L 736.763442 55.342599 
L 737.77869 53.854384 
L 738.793937 53.188231 
L 739.809184 52.366169 
L 740.824432 49.19131 
L 740.824432 49.19131 
" clip-path="url(#p765bfdb8a7)" style="fill: none; stroke: #ff0000; stroke-width: 1.5; stroke-linecap: round"/>
   </g>
   <g id="patch_7">
    <path d="M 67.10625 470.728203 
L 67.10625 29.118125 
" style="fill: none; stroke: #262626; stroke-width: 1.25; stroke-linejoin: miter; stroke-linecap: square"/>
   </g>
   <g id="patch_8">
    <path d="M 772.90625 470.728203 
L 772.90625 29.118125 
" style="fill: none; stroke: #262626; stroke-width: 1.25; stroke-linejoin: miter; stroke-linecap: square"/>
   </g>
   <g id="patch_9">
    <path d="M 67.10625 470.728203 
L 772.90625 470.728203 
" style="fill: none; stroke: #262626; stroke-width: 1.25; stroke-linejoin: miter; stroke-linecap: square"/>
   </g>
   <g id="patch_10">
    <path d="M 67.10625 29.118125 
L 772.90625 29.118125 
" style="fill: none; stroke: #262626; stroke-width: 1.25; stroke-linejoin: miter; stroke-linecap: square"/>
   </g>
   <g id="legend_1">
    <g id="patch_11">
     <path d="M 74.80625 86.355938 
L 154.975625 86.355938 
Q 157.175625 86.355938 157.175625 84.155938 
L 157.175625 36.818125 
Q 157.175625 34.618125 154.975625 34.618125 
L 74.80625 34.618125 
Q 72.60625 34.618125 72.60625 36.818125 
L 72.60625 84.155938 
Q 72.60625 86.355938 74.80625 86.355938 
z
" style="fill: #ffffff; opacity: 0.8; stroke: #cccccc; stroke-linejoin: miter"/>
    </g>
    <g id="line2d_150">
     <path d="M 77.00625 43.526406 
L 88.00625 43.526406 
L 99.00625 43.526406 
" style="fill: none; stroke: #ffa500; stroke-width: 1.5; stroke-linecap: round"/>
    </g>
    <g id="text_43">
     <!-- Infected -->
     <g style="fill: #262626" transform="translate(107.80625 47.376406)scale(0.11 -0.11)">
      <defs>
       <path id="DejaVuSans-49" d="M 628 4666 
L 1259 4666 
L 1259 0 
L 628 0 
L 628 4666 
z
" transform="scale(0.015625)"/>
       <path id="DejaVuSans-6e" d="M 3513 2113 
L 3513 0 
L 2938 0 
L 2938 2094 
Q 2938 2591 2744 2837 
Q 2550 3084 2163 3084 
Q 1697 3084 1428 2787 
Q 1159 2491 1159 1978 
L 1159 0 
L 581 0 
L 581 3500 
L 1159 3500 
L 1159 2956 
Q 1366 3272 1645 3428 
Q 1925 3584 2291 3584 
Q 2894 3584 3203 3211 
Q 3513 2838 3513 2113 
z
" transform="scale(0.015625)"/>
       <path id="DejaVuSans-66" d="M 2375 4863 
L 2375 4384 
L 1825 4384 
Q 1516 4384 1395 4259 
Q 1275 4134 1275 3809 
L 1275 3500 
L 2222 3500 
L 2222 3053 
L 1275 3053 
L 1275 0 
L 697 0 
L 697 3053 
L 147 3053 
L 147 3500 
L 697 3500 
L 697 3744 
Q 697 4328 969 4595 
Q 1241 4863 1831 4863 
L 2375 4863 
z
" transform="scale(0.015625)"/>
       <path id="DejaVuSans-63" d="M 3122 3366 
L 3122 2828 
Q 2878 2963 2633 3030 
Q 2388 3097 2138 3097 
Q 1578 3097 1268 2742 
Q 959 2388 959 1747 
Q 959 1106 1268 751 
Q 1578 397 2138 397 
Q 2388 397 2633 464 
Q 2878 531 3122 666 
L 3122 134 
Q 2881 22 2623 -34 
Q 2366 -91 2075 -91 
Q 1284 -91 818 406 
Q 353 903 353 1747 
Q 353 2603 823 3093 
Q 1294 3584 2113 3584 
Q 2378 3584 2631 3529 
Q 2884 3475 3122 3366 
z
" transform="scale(0.015625)"/>
      </defs>
      <use xlink:href="#DejaVuSans-49"/>
      <use xlink:href="#DejaVuSans-6e" x="29.492188"/>
      <use xlink:href="#DejaVuSans-66" x="92.871094"/>
      <use xlink:href="#DejaVuSans-65" x="128.076172"/>
      <use xlink:href="#DejaVuSans-63" x="189.599609"/>
      <use xlink:href="#DejaVuSans-74" x="244.580078"/>
      <use xlink:href="#DejaVuSans-65" x="283.789062"/>
      <use xlink:href="#DejaVuSans-64" x="345.3125"/>
     </g>
    </g>
    <g id="line2d_151">
     <path d="M 77.00625 59.672344 
L 88.00625 59.672344 
L 99.00625 59.672344 
" style="fill: none; stroke: #008000; stroke-width: 1.5; stroke-linecap: round"/>
    </g>
    <g id="text_44">
     <!-- Cured -->
     <g style="fill: #262626" transform="translate(107.80625 63.522344)scale(0.11 -0.11)">
      <defs>
       <path id="DejaVuSans-72" d="M 2631 2963 
Q 2534 3019 2420 3045 
Q 2306 3072 2169 3072 
Q 1681 3072 1420 2755 
Q 1159 2438 1159 1844 
L 1159 0 
L 581 0 
L 581 3500 
L 1159 3500 
L 1159 2956 
Q 1341 3275 1631 3429 
Q 1922 3584 2338 3584 
Q 2397 3584 2469 3576 
Q 2541 3569 2628 3553 
L 2631 2963 
z
" transform="scale(0.015625)"/>
      </defs>
      <use xlink:href="#DejaVuSans-43"/>
      <use xlink:href="#DejaVuSans-75" x="69.824219"/>
      <use xlink:href="#DejaVuSans-72" x="133.203125"/>
      <use xlink:href="#DejaVuSans-65" x="172.066406"/>
      <use xlink:href="#DejaVuSans-64" x="233.589844"/>
     </g>
    </g>
    <g id="line2d_152">
     <path d="M 77.00625 75.818281 
L 88.00625 75.818281 
L 99.00625 75.818281 
" style="fill: none; stroke: #ff0000; stroke-width: 1.5; stroke-linecap: round"/>
    </g>
    <g id="text_45">
     <!-- Fatal -->
     <g style="fill: #262626" transform="translate(107.80625 79.668281)scale(0.11 -0.11)">
      <use xlink:href="#DejaVuSans-46"/>
      <use xlink:href="#DejaVuSans-61" x="48.394531"/>
      <use xlink:href="#DejaVuSans-74" x="109.673828"/>
      <use xlink:href="#DejaVuSans-61" x="148.882812"/>
      <use xlink:href="#DejaVuSans-6c" x="210.162109"/>
     </g>
    </g>
   </g>
  </g>
 </g>
 <defs>
  <clipPath id="p765bfdb8a7">
   <rect x="67.10625" y="29.118125" width="705.8" height="441.610078"/>
  </clipPath>
 </defs>
</svg>
