<?xml version="1.0" encoding="utf-8" standalone="no"?>
<!DOCTYPE svg PUBLIC "-//W3C//DTD SVG 1.1//EN"
  "http://www.w3.org/Graphics/SVG/1.1/DTD/svg11.dtd">
<svg height="570.462488pt" version="1.1" viewBox="0 0 851.1301 570.462488" width="851.1301pt" xmlns="http://www.w3.org/2000/svg" xmlns:xlink="http://www.w3.org/1999/xlink">
 <metadata>
  <rdf:RDF xmlns:cc="http://creativecommons.org/ns#" xmlns:dc="http://purl.org/dc/elements/1.1/" xmlns:rdf="http://www.w3.org/1999/02/22-rdf-syntax-ns#">
   <cc:Work>
    <dc:type rdf:resource="http://purl.org/dc/dcmitype/StillImage"/>
    <dc:date>2021-11-06T18:36:39.600628</dc:date>
    <dc:format>image/svg+xml</dc:format>
    <dc:creator>
     <cc:Agent>
      <dc:title>Matplotlib v3.4.3, https://matplotlib.org/</dc:title>
     </cc:Agent>
    </dc:creator>
   </cc:Work>
  </rdf:RDF>
 </metadata>
 <defs>
  <style type="text/css">*{stroke-linecap:butt;stroke-linejoin:round;}</style>
 </defs>
 <g id="figure_1">
  <g id="patch_1">
   <path d="M 0 570.462488 
L 851.1301 570.462488 
L 851.1301 0 
L 0 0 
z
" style="fill:none;"/>
  </g>
  <g id="axes_1">
   <g id="patch_2">
    <path d="M 60.1075 493.286013 
L 851.1301 493.286013 
L 851.1301 29.118125 
L 60.1075 29.118125 
z
" style="fill:none;"/>
   </g>
   <g id="matplotlib.axis_1">
    <g id="xtick_1">
     <g id="line2d_1">
      <path clip-path="url(#p9fbc17a61f)" d="M 96.063073 493.286013 
L 96.063073 29.118125 
" style="fill:none;stroke:#cccccc;stroke-linecap:round;"/>
     </g>
     <g id="line2d_2">
      <defs>
       <path d="M 0 0 
L 0 6 
" id="m9388420db4" style="stroke:#262626;stroke-width:1.25;"/>
      </defs>
      <g>
       <use style="fill:#262626;stroke:#262626;stroke-width:1.25;" x="96.063073" xlink:href="#m9388420db4" y="493.286013"/>
      </g>
     </g>
     <g id="text_1">
      <!-- 05.04.2020 -->
      <g style="fill:#262626;" transform="translate(49.910545 553.231121)rotate(-45)scale(0.11 -0.11)">
       <defs>
        <path d="M 2034 4250 
Q 1547 4250 1301 3770 
Q 1056 3291 1056 2328 
Q 1056 1369 1301 889 
Q 1547 409 2034 409 
Q 2525 409 2770 889 
Q 3016 1369 3016 2328 
Q 3016 3291 2770 3770 
Q 2525 4250 2034 4250 
z
M 2034 4750 
Q 2819 4750 3233 4129 
Q 3647 3509 3647 2328 
Q 3647 1150 3233 529 
Q 2819 -91 2034 -91 
Q 1250 -91 836 529 
Q 422 1150 422 2328 
Q 422 3509 836 4129 
Q 1250 4750 2034 4750 
z
" id="DejaVuSans-30" transform="scale(0.015625)"/>
        <path d="M 691 4666 
L 3169 4666 
L 3169 4134 
L 1269 4134 
L 1269 2991 
Q 1406 3038 1543 3061 
Q 1681 3084 1819 3084 
Q 2600 3084 3056 2656 
Q 3513 2228 3513 1497 
Q 3513 744 3044 326 
Q 2575 -91 1722 -91 
Q 1428 -91 1123 -41 
Q 819 9 494 109 
L 494 744 
Q 775 591 1075 516 
Q 1375 441 1709 441 
Q 2250 441 2565 725 
Q 2881 1009 2881 1497 
Q 2881 1984 2565 2268 
Q 2250 2553 1709 2553 
Q 1456 2553 1204 2497 
Q 953 2441 691 2322 
L 691 4666 
z
" id="DejaVuSans-35" transform="scale(0.015625)"/>
        <path d="M 684 794 
L 1344 794 
L 1344 0 
L 684 0 
L 684 794 
z
" id="DejaVuSans-2e" transform="scale(0.015625)"/>
        <path d="M 2419 4116 
L 825 1625 
L 2419 1625 
L 2419 4116 
z
M 2253 4666 
L 3047 4666 
L 3047 1625 
L 3713 1625 
L 3713 1100 
L 3047 1100 
L 3047 0 
L 2419 0 
L 2419 1100 
L 313 1100 
L 313 1709 
L 2253 4666 
z
" id="DejaVuSans-34" transform="scale(0.015625)"/>
        <path d="M 1228 531 
L 3431 531 
L 3431 0 
L 469 0 
L 469 531 
Q 828 903 1448 1529 
Q 2069 2156 2228 2338 
Q 2531 2678 2651 2914 
Q 2772 3150 2772 3378 
Q 2772 3750 2511 3984 
Q 2250 4219 1831 4219 
Q 1534 4219 1204 4116 
Q 875 4013 500 3803 
L 500 4441 
Q 881 4594 1212 4672 
Q 1544 4750 1819 4750 
Q 2544 4750 2975 4387 
Q 3406 4025 3406 3419 
Q 3406 3131 3298 2873 
Q 3191 2616 2906 2266 
Q 2828 2175 2409 1742 
Q 1991 1309 1228 531 
z
" id="DejaVuSans-32" transform="scale(0.015625)"/>
       </defs>
       <use xlink:href="#DejaVuSans-30"/>
       <use x="63.623047" xlink:href="#DejaVuSans-35"/>
       <use x="127.246094" xlink:href="#DejaVuSans-2e"/>
       <use x="159.033203" xlink:href="#DejaVuSans-30"/>
       <use x="222.65625" xlink:href="#DejaVuSans-34"/>
       <use x="286.279297" xlink:href="#DejaVuSans-2e"/>
       <use x="318.066406" xlink:href="#DejaVuSans-32"/>
       <use x="381.689453" xlink:href="#DejaVuSans-30"/>
       <use x="445.3125" xlink:href="#DejaVuSans-32"/>
       <use x="508.935547" xlink:href="#DejaVuSans-30"/>
      </g>
     </g>
    </g>
    <g id="xtick_2">
     <g id="line2d_3">
      <path clip-path="url(#p9fbc17a61f)" d="M 130.838756 493.286013 
L 130.838756 29.118125 
" style="fill:none;stroke:#cccccc;stroke-linecap:round;"/>
     </g>
     <g id="line2d_4">
      <g>
       <use style="fill:#262626;stroke:#262626;stroke-width:1.25;" x="130.838756" xlink:href="#m9388420db4" y="493.286013"/>
      </g>
     </g>
     <g id="text_2">
      <!-- 03.05.2020 -->
      <g style="fill:#262626;" transform="translate(84.686228 553.231121)rotate(-45)scale(0.11 -0.11)">
       <defs>
        <path d="M 2597 2516 
Q 3050 2419 3304 2112 
Q 3559 1806 3559 1356 
Q 3559 666 3084 287 
Q 2609 -91 1734 -91 
Q 1441 -91 1130 -33 
Q 819 25 488 141 
L 488 750 
Q 750 597 1062 519 
Q 1375 441 1716 441 
Q 2309 441 2620 675 
Q 2931 909 2931 1356 
Q 2931 1769 2642 2001 
Q 2353 2234 1838 2234 
L 1294 2234 
L 1294 2753 
L 1863 2753 
Q 2328 2753 2575 2939 
Q 2822 3125 2822 3475 
Q 2822 3834 2567 4026 
Q 2313 4219 1838 4219 
Q 1578 4219 1281 4162 
Q 984 4106 628 3988 
L 628 4550 
Q 988 4650 1302 4700 
Q 1616 4750 1894 4750 
Q 2613 4750 3031 4423 
Q 3450 4097 3450 3541 
Q 3450 3153 3228 2886 
Q 3006 2619 2597 2516 
z
" id="DejaVuSans-33" transform="scale(0.015625)"/>
       </defs>
       <use xlink:href="#DejaVuSans-30"/>
       <use x="63.623047" xlink:href="#DejaVuSans-33"/>
       <use x="127.246094" xlink:href="#DejaVuSans-2e"/>
       <use x="159.033203" xlink:href="#DejaVuSans-30"/>
       <use x="222.65625" xlink:href="#DejaVuSans-35"/>
       <use x="286.279297" xlink:href="#DejaVuSans-2e"/>
       <use x="318.066406" xlink:href="#DejaVuSans-32"/>
       <use x="381.689453" xlink:href="#DejaVuSans-30"/>
       <use x="445.3125" xlink:href="#DejaVuSans-32"/>
       <use x="508.935547" xlink:href="#DejaVuSans-30"/>
      </g>
     </g>
    </g>
    <g id="xtick_3">
     <g id="line2d_5">
      <path clip-path="url(#p9fbc17a61f)" d="M 165.61444 493.286013 
L 165.61444 29.118125 
" style="fill:none;stroke:#cccccc;stroke-linecap:round;"/>
     </g>
     <g id="line2d_6">
      <g>
       <use style="fill:#262626;stroke:#262626;stroke-width:1.25;" x="165.61444" xlink:href="#m9388420db4" y="493.286013"/>
      </g>
     </g>
     <g id="text_3">
      <!-- 31.05.2020 -->
      <g style="fill:#262626;" transform="translate(119.461912 553.231121)rotate(-45)scale(0.11 -0.11)">
       <defs>
        <path d="M 794 531 
L 1825 531 
L 1825 4091 
L 703 3866 
L 703 4441 
L 1819 4666 
L 2450 4666 
L 2450 531 
L 3481 531 
L 3481 0 
L 794 0 
L 794 531 
z
" id="DejaVuSans-31" transform="scale(0.015625)"/>
       </defs>
       <use xlink:href="#DejaVuSans-33"/>
       <use x="63.623047" xlink:href="#DejaVuSans-31"/>
       <use x="127.246094" xlink:href="#DejaVuSans-2e"/>
       <use x="159.033203" xlink:href="#DejaVuSans-30"/>
       <use x="222.65625" xlink:href="#DejaVuSans-35"/>
       <use x="286.279297" xlink:href="#DejaVuSans-2e"/>
       <use x="318.066406" xlink:href="#DejaVuSans-32"/>
       <use x="381.689453" xlink:href="#DejaVuSans-30"/>
       <use x="445.3125" xlink:href="#DejaVuSans-32"/>
       <use x="508.935547" xlink:href="#DejaVuSans-30"/>
      </g>
     </g>
    </g>
    <g id="xtick_4">
     <g id="line2d_7">
      <path clip-path="url(#p9fbc17a61f)" d="M 200.390123 493.286013 
L 200.390123 29.118125 
" style="fill:none;stroke:#cccccc;stroke-linecap:round;"/>
     </g>
     <g id="line2d_8">
      <g>
       <use style="fill:#262626;stroke:#262626;stroke-width:1.25;" x="200.390123" xlink:href="#m9388420db4" y="493.286013"/>
      </g>
     </g>
     <g id="text_4">
      <!-- 28.06.2020 -->
      <g style="fill:#262626;" transform="translate(154.237595 553.231121)rotate(-45)scale(0.11 -0.11)">
       <defs>
        <path d="M 2034 2216 
Q 1584 2216 1326 1975 
Q 1069 1734 1069 1313 
Q 1069 891 1326 650 
Q 1584 409 2034 409 
Q 2484 409 2743 651 
Q 3003 894 3003 1313 
Q 3003 1734 2745 1975 
Q 2488 2216 2034 2216 
z
M 1403 2484 
Q 997 2584 770 2862 
Q 544 3141 544 3541 
Q 544 4100 942 4425 
Q 1341 4750 2034 4750 
Q 2731 4750 3128 4425 
Q 3525 4100 3525 3541 
Q 3525 3141 3298 2862 
Q 3072 2584 2669 2484 
Q 3125 2378 3379 2068 
Q 3634 1759 3634 1313 
Q 3634 634 3220 271 
Q 2806 -91 2034 -91 
Q 1263 -91 848 271 
Q 434 634 434 1313 
Q 434 1759 690 2068 
Q 947 2378 1403 2484 
z
M 1172 3481 
Q 1172 3119 1398 2916 
Q 1625 2713 2034 2713 
Q 2441 2713 2670 2916 
Q 2900 3119 2900 3481 
Q 2900 3844 2670 4047 
Q 2441 4250 2034 4250 
Q 1625 4250 1398 4047 
Q 1172 3844 1172 3481 
z
" id="DejaVuSans-38" transform="scale(0.015625)"/>
        <path d="M 2113 2584 
Q 1688 2584 1439 2293 
Q 1191 2003 1191 1497 
Q 1191 994 1439 701 
Q 1688 409 2113 409 
Q 2538 409 2786 701 
Q 3034 994 3034 1497 
Q 3034 2003 2786 2293 
Q 2538 2584 2113 2584 
z
M 3366 4563 
L 3366 3988 
Q 3128 4100 2886 4159 
Q 2644 4219 2406 4219 
Q 1781 4219 1451 3797 
Q 1122 3375 1075 2522 
Q 1259 2794 1537 2939 
Q 1816 3084 2150 3084 
Q 2853 3084 3261 2657 
Q 3669 2231 3669 1497 
Q 3669 778 3244 343 
Q 2819 -91 2113 -91 
Q 1303 -91 875 529 
Q 447 1150 447 2328 
Q 447 3434 972 4092 
Q 1497 4750 2381 4750 
Q 2619 4750 2861 4703 
Q 3103 4656 3366 4563 
z
" id="DejaVuSans-36" transform="scale(0.015625)"/>
       </defs>
       <use xlink:href="#DejaVuSans-32"/>
       <use x="63.623047" xlink:href="#DejaVuSans-38"/>
       <use x="127.246094" xlink:href="#DejaVuSans-2e"/>
       <use x="159.033203" xlink:href="#DejaVuSans-30"/>
       <use x="222.65625" xlink:href="#DejaVuSans-36"/>
       <use x="286.279297" xlink:href="#DejaVuSans-2e"/>
       <use x="318.066406" xlink:href="#DejaVuSans-32"/>
       <use x="381.689453" xlink:href="#DejaVuSans-30"/>
       <use x="445.3125" xlink:href="#DejaVuSans-32"/>
       <use x="508.935547" xlink:href="#DejaVuSans-30"/>
      </g>
     </g>
    </g>
    <g id="xtick_5">
     <g id="line2d_9">
      <path clip-path="url(#p9fbc17a61f)" d="M 235.165807 493.286013 
L 235.165807 29.118125 
" style="fill:none;stroke:#cccccc;stroke-linecap:round;"/>
     </g>
     <g id="line2d_10">
      <g>
       <use style="fill:#262626;stroke:#262626;stroke-width:1.25;" x="235.165807" xlink:href="#m9388420db4" y="493.286013"/>
      </g>
     </g>
     <g id="text_5">
      <!-- 26.07.2020 -->
      <g style="fill:#262626;" transform="translate(189.013278 553.231121)rotate(-45)scale(0.11 -0.11)">
       <defs>
        <path d="M 525 4666 
L 3525 4666 
L 3525 4397 
L 1831 0 
L 1172 0 
L 2766 4134 
L 525 4134 
L 525 4666 
z
" id="DejaVuSans-37" transform="scale(0.015625)"/>
       </defs>
       <use xlink:href="#DejaVuSans-32"/>
       <use x="63.623047" xlink:href="#DejaVuSans-36"/>
       <use x="127.246094" xlink:href="#DejaVuSans-2e"/>
       <use x="159.033203" xlink:href="#DejaVuSans-30"/>
       <use x="222.65625" xlink:href="#DejaVuSans-37"/>
       <use x="286.279297" xlink:href="#DejaVuSans-2e"/>
       <use x="318.066406" xlink:href="#DejaVuSans-32"/>
       <use x="381.689453" xlink:href="#DejaVuSans-30"/>
       <use x="445.3125" xlink:href="#DejaVuSans-32"/>
       <use x="508.935547" xlink:href="#DejaVuSans-30"/>
      </g>
     </g>
    </g>
    <g id="xtick_6">
     <g id="line2d_11">
      <path clip-path="url(#p9fbc17a61f)" d="M 269.94149 493.286013 
L 269.94149 29.118125 
" style="fill:none;stroke:#cccccc;stroke-linecap:round;"/>
     </g>
     <g id="line2d_12">
      <g>
       <use style="fill:#262626;stroke:#262626;stroke-width:1.25;" x="269.94149" xlink:href="#m9388420db4" y="493.286013"/>
      </g>
     </g>
     <g id="text_6">
      <!-- 23.08.2020 -->
      <g style="fill:#262626;" transform="translate(223.788962 553.231121)rotate(-45)scale(0.11 -0.11)">
       <use xlink:href="#DejaVuSans-32"/>
       <use x="63.623047" xlink:href="#DejaVuSans-33"/>
       <use x="127.246094" xlink:href="#DejaVuSans-2e"/>
       <use x="159.033203" xlink:href="#DejaVuSans-30"/>
       <use x="222.65625" xlink:href="#DejaVuSans-38"/>
       <use x="286.279297" xlink:href="#DejaVuSans-2e"/>
       <use x="318.066406" xlink:href="#DejaVuSans-32"/>
       <use x="381.689453" xlink:href="#DejaVuSans-30"/>
       <use x="445.3125" xlink:href="#DejaVuSans-32"/>
       <use x="508.935547" xlink:href="#DejaVuSans-30"/>
      </g>
     </g>
    </g>
    <g id="xtick_7">
     <g id="line2d_13">
      <path clip-path="url(#p9fbc17a61f)" d="M 304.717174 493.286013 
L 304.717174 29.118125 
" style="fill:none;stroke:#cccccc;stroke-linecap:round;"/>
     </g>
     <g id="line2d_14">
      <g>
       <use style="fill:#262626;stroke:#262626;stroke-width:1.25;" x="304.717174" xlink:href="#m9388420db4" y="493.286013"/>
      </g>
     </g>
     <g id="text_7">
      <!-- 20.09.2020 -->
      <g style="fill:#262626;" transform="translate(258.564645 553.231121)rotate(-45)scale(0.11 -0.11)">
       <defs>
        <path d="M 703 97 
L 703 672 
Q 941 559 1184 500 
Q 1428 441 1663 441 
Q 2288 441 2617 861 
Q 2947 1281 2994 2138 
Q 2813 1869 2534 1725 
Q 2256 1581 1919 1581 
Q 1219 1581 811 2004 
Q 403 2428 403 3163 
Q 403 3881 828 4315 
Q 1253 4750 1959 4750 
Q 2769 4750 3195 4129 
Q 3622 3509 3622 2328 
Q 3622 1225 3098 567 
Q 2575 -91 1691 -91 
Q 1453 -91 1209 -44 
Q 966 3 703 97 
z
M 1959 2075 
Q 2384 2075 2632 2365 
Q 2881 2656 2881 3163 
Q 2881 3666 2632 3958 
Q 2384 4250 1959 4250 
Q 1534 4250 1286 3958 
Q 1038 3666 1038 3163 
Q 1038 2656 1286 2365 
Q 1534 2075 1959 2075 
z
" id="DejaVuSans-39" transform="scale(0.015625)"/>
       </defs>
       <use xlink:href="#DejaVuSans-32"/>
       <use x="63.623047" xlink:href="#DejaVuSans-30"/>
       <use x="127.246094" xlink:href="#DejaVuSans-2e"/>
       <use x="159.033203" xlink:href="#DejaVuSans-30"/>
       <use x="222.65625" xlink:href="#DejaVuSans-39"/>
       <use x="286.279297" xlink:href="#DejaVuSans-2e"/>
       <use x="318.066406" xlink:href="#DejaVuSans-32"/>
       <use x="381.689453" xlink:href="#DejaVuSans-30"/>
       <use x="445.3125" xlink:href="#DejaVuSans-32"/>
       <use x="508.935547" xlink:href="#DejaVuSans-30"/>
      </g>
     </g>
    </g>
    <g id="xtick_8">
     <g id="line2d_15">
      <path clip-path="url(#p9fbc17a61f)" d="M 339.492857 493.286013 
L 339.492857 29.118125 
" style="fill:none;stroke:#cccccc;stroke-linecap:round;"/>
     </g>
     <g id="line2d_16">
      <g>
       <use style="fill:#262626;stroke:#262626;stroke-width:1.25;" x="339.492857" xlink:href="#m9388420db4" y="493.286013"/>
      </g>
     </g>
     <g id="text_8">
      <!-- 18.10.2020 -->
      <g style="fill:#262626;" transform="translate(293.340329 553.231121)rotate(-45)scale(0.11 -0.11)">
       <use xlink:href="#DejaVuSans-31"/>
       <use x="63.623047" xlink:href="#DejaVuSans-38"/>
       <use x="127.246094" xlink:href="#DejaVuSans-2e"/>
       <use x="159.033203" xlink:href="#DejaVuSans-31"/>
       <use x="222.65625" xlink:href="#DejaVuSans-30"/>
       <use x="286.279297" xlink:href="#DejaVuSans-2e"/>
       <use x="318.066406" xlink:href="#DejaVuSans-32"/>
       <use x="381.689453" xlink:href="#DejaVuSans-30"/>
       <use x="445.3125" xlink:href="#DejaVuSans-32"/>
       <use x="508.935547" xlink:href="#DejaVuSans-30"/>
      </g>
     </g>
    </g>
    <g id="xtick_9">
     <g id="line2d_17">
      <path clip-path="url(#p9fbc17a61f)" d="M 374.26854 493.286013 
L 374.26854 29.118125 
" style="fill:none;stroke:#cccccc;stroke-linecap:round;"/>
     </g>
     <g id="line2d_18">
      <g>
       <use style="fill:#262626;stroke:#262626;stroke-width:1.25;" x="374.26854" xlink:href="#m9388420db4" y="493.286013"/>
      </g>
     </g>
     <g id="text_9">
      <!-- 15.11.2020 -->
      <g style="fill:#262626;" transform="translate(328.116012 553.231121)rotate(-45)scale(0.11 -0.11)">
       <use xlink:href="#DejaVuSans-31"/>
       <use x="63.623047" xlink:href="#DejaVuSans-35"/>
       <use x="127.246094" xlink:href="#DejaVuSans-2e"/>
       <use x="159.033203" xlink:href="#DejaVuSans-31"/>
       <use x="222.65625" xlink:href="#DejaVuSans-31"/>
       <use x="286.279297" xlink:href="#DejaVuSans-2e"/>
       <use x="318.066406" xlink:href="#DejaVuSans-32"/>
       <use x="381.689453" xlink:href="#DejaVuSans-30"/>
       <use x="445.3125" xlink:href="#DejaVuSans-32"/>
       <use x="508.935547" xlink:href="#DejaVuSans-30"/>
      </g>
     </g>
    </g>
    <g id="xtick_10">
     <g id="line2d_19">
      <path clip-path="url(#p9fbc17a61f)" d="M 409.044224 493.286013 
L 409.044224 29.118125 
" style="fill:none;stroke:#cccccc;stroke-linecap:round;"/>
     </g>
     <g id="line2d_20">
      <g>
       <use style="fill:#262626;stroke:#262626;stroke-width:1.25;" x="409.044224" xlink:href="#m9388420db4" y="493.286013"/>
      </g>
     </g>
     <g id="text_10">
      <!-- 13.12.2020 -->
      <g style="fill:#262626;" transform="translate(362.891696 553.231121)rotate(-45)scale(0.11 -0.11)">
       <use xlink:href="#DejaVuSans-31"/>
       <use x="63.623047" xlink:href="#DejaVuSans-33"/>
       <use x="127.246094" xlink:href="#DejaVuSans-2e"/>
       <use x="159.033203" xlink:href="#DejaVuSans-31"/>
       <use x="222.65625" xlink:href="#DejaVuSans-32"/>
       <use x="286.279297" xlink:href="#DejaVuSans-2e"/>
       <use x="318.066406" xlink:href="#DejaVuSans-32"/>
       <use x="381.689453" xlink:href="#DejaVuSans-30"/>
       <use x="445.3125" xlink:href="#DejaVuSans-32"/>
       <use x="508.935547" xlink:href="#DejaVuSans-30"/>
      </g>
     </g>
    </g>
    <g id="xtick_11">
     <g id="line2d_21">
      <path clip-path="url(#p9fbc17a61f)" d="M 443.819907 493.286013 
L 443.819907 29.118125 
" style="fill:none;stroke:#cccccc;stroke-linecap:round;"/>
     </g>
     <g id="line2d_22">
      <g>
       <use style="fill:#262626;stroke:#262626;stroke-width:1.25;" x="443.819907" xlink:href="#m9388420db4" y="493.286013"/>
      </g>
     </g>
     <g id="text_11">
      <!-- 10.01.2021 -->
      <g style="fill:#262626;" transform="translate(397.667379 553.231121)rotate(-45)scale(0.11 -0.11)">
       <use xlink:href="#DejaVuSans-31"/>
       <use x="63.623047" xlink:href="#DejaVuSans-30"/>
       <use x="127.246094" xlink:href="#DejaVuSans-2e"/>
       <use x="159.033203" xlink:href="#DejaVuSans-30"/>
       <use x="222.65625" xlink:href="#DejaVuSans-31"/>
       <use x="286.279297" xlink:href="#DejaVuSans-2e"/>
       <use x="318.066406" xlink:href="#DejaVuSans-32"/>
       <use x="381.689453" xlink:href="#DejaVuSans-30"/>
       <use x="445.3125" xlink:href="#DejaVuSans-32"/>
       <use x="508.935547" xlink:href="#DejaVuSans-31"/>
      </g>
     </g>
    </g>
    <g id="xtick_12">
     <g id="line2d_23">
      <path clip-path="url(#p9fbc17a61f)" d="M 478.595591 493.286013 
L 478.595591 29.118125 
" style="fill:none;stroke:#cccccc;stroke-linecap:round;"/>
     </g>
     <g id="line2d_24">
      <g>
       <use style="fill:#262626;stroke:#262626;stroke-width:1.25;" x="478.595591" xlink:href="#m9388420db4" y="493.286013"/>
      </g>
     </g>
     <g id="text_12">
      <!-- 07.02.2021 -->
      <g style="fill:#262626;" transform="translate(432.443063 553.231121)rotate(-45)scale(0.11 -0.11)">
       <use xlink:href="#DejaVuSans-30"/>
       <use x="63.623047" xlink:href="#DejaVuSans-37"/>
       <use x="127.246094" xlink:href="#DejaVuSans-2e"/>
       <use x="159.033203" xlink:href="#DejaVuSans-30"/>
       <use x="222.65625" xlink:href="#DejaVuSans-32"/>
       <use x="286.279297" xlink:href="#DejaVuSans-2e"/>
       <use x="318.066406" xlink:href="#DejaVuSans-32"/>
       <use x="381.689453" xlink:href="#DejaVuSans-30"/>
       <use x="445.3125" xlink:href="#DejaVuSans-32"/>
       <use x="508.935547" xlink:href="#DejaVuSans-31"/>
      </g>
     </g>
    </g>
    <g id="xtick_13">
     <g id="line2d_25">
      <path clip-path="url(#p9fbc17a61f)" d="M 513.371274 493.286013 
L 513.371274 29.118125 
" style="fill:none;stroke:#cccccc;stroke-linecap:round;"/>
     </g>
     <g id="line2d_26">
      <g>
       <use style="fill:#262626;stroke:#262626;stroke-width:1.25;" x="513.371274" xlink:href="#m9388420db4" y="493.286013"/>
      </g>
     </g>
     <g id="text_13">
      <!-- 07.03.2021 -->
      <g style="fill:#262626;" transform="translate(467.218746 553.231121)rotate(-45)scale(0.11 -0.11)">
       <use xlink:href="#DejaVuSans-30"/>
       <use x="63.623047" xlink:href="#DejaVuSans-37"/>
       <use x="127.246094" xlink:href="#DejaVuSans-2e"/>
       <use x="159.033203" xlink:href="#DejaVuSans-30"/>
       <use x="222.65625" xlink:href="#DejaVuSans-33"/>
       <use x="286.279297" xlink:href="#DejaVuSans-2e"/>
       <use x="318.066406" xlink:href="#DejaVuSans-32"/>
       <use x="381.689453" xlink:href="#DejaVuSans-30"/>
       <use x="445.3125" xlink:href="#DejaVuSans-32"/>
       <use x="508.935547" xlink:href="#DejaVuSans-31"/>
      </g>
     </g>
    </g>
    <g id="xtick_14">
     <g id="line2d_27">
      <path clip-path="url(#p9fbc17a61f)" d="M 548.146958 493.286013 
L 548.146958 29.118125 
" style="fill:none;stroke:#cccccc;stroke-linecap:round;"/>
     </g>
     <g id="line2d_28">
      <g>
       <use style="fill:#262626;stroke:#262626;stroke-width:1.25;" x="548.146958" xlink:href="#m9388420db4" y="493.286013"/>
      </g>
     </g>
     <g id="text_14">
      <!-- 04.04.2021 -->
      <g style="fill:#262626;" transform="translate(501.99443 553.231121)rotate(-45)scale(0.11 -0.11)">
       <use xlink:href="#DejaVuSans-30"/>
       <use x="63.623047" xlink:href="#DejaVuSans-34"/>
       <use x="127.246094" xlink:href="#DejaVuSans-2e"/>
       <use x="159.033203" xlink:href="#DejaVuSans-30"/>
       <use x="222.65625" xlink:href="#DejaVuSans-34"/>
       <use x="286.279297" xlink:href="#DejaVuSans-2e"/>
       <use x="318.066406" xlink:href="#DejaVuSans-32"/>
       <use x="381.689453" xlink:href="#DejaVuSans-30"/>
       <use x="445.3125" xlink:href="#DejaVuSans-32"/>
       <use x="508.935547" xlink:href="#DejaVuSans-31"/>
      </g>
     </g>
    </g>
    <g id="xtick_15">
     <g id="line2d_29">
      <path clip-path="url(#p9fbc17a61f)" d="M 582.922641 493.286013 
L 582.922641 29.118125 
" style="fill:none;stroke:#cccccc;stroke-linecap:round;"/>
     </g>
     <g id="line2d_30">
      <g>
       <use style="fill:#262626;stroke:#262626;stroke-width:1.25;" x="582.922641" xlink:href="#m9388420db4" y="493.286013"/>
      </g>
     </g>
     <g id="text_15">
      <!-- 02.05.2021 -->
      <g style="fill:#262626;" transform="translate(536.770113 553.231121)rotate(-45)scale(0.11 -0.11)">
       <use xlink:href="#DejaVuSans-30"/>
       <use x="63.623047" xlink:href="#DejaVuSans-32"/>
       <use x="127.246094" xlink:href="#DejaVuSans-2e"/>
       <use x="159.033203" xlink:href="#DejaVuSans-30"/>
       <use x="222.65625" xlink:href="#DejaVuSans-35"/>
       <use x="286.279297" xlink:href="#DejaVuSans-2e"/>
       <use x="318.066406" xlink:href="#DejaVuSans-32"/>
       <use x="381.689453" xlink:href="#DejaVuSans-30"/>
       <use x="445.3125" xlink:href="#DejaVuSans-32"/>
       <use x="508.935547" xlink:href="#DejaVuSans-31"/>
      </g>
     </g>
    </g>
    <g id="xtick_16">
     <g id="line2d_31">
      <path clip-path="url(#p9fbc17a61f)" d="M 617.698325 493.286013 
L 617.698325 29.118125 
" style="fill:none;stroke:#cccccc;stroke-linecap:round;"/>
     </g>
     <g id="line2d_32">
      <g>
       <use style="fill:#262626;stroke:#262626;stroke-width:1.25;" x="617.698325" xlink:href="#m9388420db4" y="493.286013"/>
      </g>
     </g>
     <g id="text_16">
      <!-- 30.05.2021 -->
      <g style="fill:#262626;" transform="translate(571.545797 553.231121)rotate(-45)scale(0.11 -0.11)">
       <use xlink:href="#DejaVuSans-33"/>
       <use x="63.623047" xlink:href="#DejaVuSans-30"/>
       <use x="127.246094" xlink:href="#DejaVuSans-2e"/>
       <use x="159.033203" xlink:href="#DejaVuSans-30"/>
       <use x="222.65625" xlink:href="#DejaVuSans-35"/>
       <use x="286.279297" xlink:href="#DejaVuSans-2e"/>
       <use x="318.066406" xlink:href="#DejaVuSans-32"/>
       <use x="381.689453" xlink:href="#DejaVuSans-30"/>
       <use x="445.3125" xlink:href="#DejaVuSans-32"/>
       <use x="508.935547" xlink:href="#DejaVuSans-31"/>
      </g>
     </g>
    </g>
    <g id="xtick_17">
     <g id="line2d_33">
      <path clip-path="url(#p9fbc17a61f)" d="M 652.474008 493.286013 
L 652.474008 29.118125 
" style="fill:none;stroke:#cccccc;stroke-linecap:round;"/>
     </g>
     <g id="line2d_34">
      <g>
       <use style="fill:#262626;stroke:#262626;stroke-width:1.25;" x="652.474008" xlink:href="#m9388420db4" y="493.286013"/>
      </g>
     </g>
     <g id="text_17">
      <!-- 27.06.2021 -->
      <g style="fill:#262626;" transform="translate(606.32148 553.231121)rotate(-45)scale(0.11 -0.11)">
       <use xlink:href="#DejaVuSans-32"/>
       <use x="63.623047" xlink:href="#DejaVuSans-37"/>
       <use x="127.246094" xlink:href="#DejaVuSans-2e"/>
       <use x="159.033203" xlink:href="#DejaVuSans-30"/>
       <use x="222.65625" xlink:href="#DejaVuSans-36"/>
       <use x="286.279297" xlink:href="#DejaVuSans-2e"/>
       <use x="318.066406" xlink:href="#DejaVuSans-32"/>
       <use x="381.689453" xlink:href="#DejaVuSans-30"/>
       <use x="445.3125" xlink:href="#DejaVuSans-32"/>
       <use x="508.935547" xlink:href="#DejaVuSans-31"/>
      </g>
     </g>
    </g>
    <g id="xtick_18">
     <g id="line2d_35">
      <path clip-path="url(#p9fbc17a61f)" d="M 687.249692 493.286013 
L 687.249692 29.118125 
" style="fill:none;stroke:#cccccc;stroke-linecap:round;"/>
     </g>
     <g id="line2d_36">
      <g>
       <use style="fill:#262626;stroke:#262626;stroke-width:1.25;" x="687.249692" xlink:href="#m9388420db4" y="493.286013"/>
      </g>
     </g>
     <g id="text_18">
      <!-- 25.07.2021 -->
      <g style="fill:#262626;" transform="translate(641.097164 553.231121)rotate(-45)scale(0.11 -0.11)">
       <use xlink:href="#DejaVuSans-32"/>
       <use x="63.623047" xlink:href="#DejaVuSans-35"/>
       <use x="127.246094" xlink:href="#DejaVuSans-2e"/>
       <use x="159.033203" xlink:href="#DejaVuSans-30"/>
       <use x="222.65625" xlink:href="#DejaVuSans-37"/>
       <use x="286.279297" xlink:href="#DejaVuSans-2e"/>
       <use x="318.066406" xlink:href="#DejaVuSans-32"/>
       <use x="381.689453" xlink:href="#DejaVuSans-30"/>
       <use x="445.3125" xlink:href="#DejaVuSans-32"/>
       <use x="508.935547" xlink:href="#DejaVuSans-31"/>
      </g>
     </g>
    </g>
    <g id="xtick_19">
     <g id="line2d_37">
      <path clip-path="url(#p9fbc17a61f)" d="M 722.025375 493.286013 
L 722.025375 29.118125 
" style="fill:none;stroke:#cccccc;stroke-linecap:round;"/>
     </g>
     <g id="line2d_38">
      <g>
       <use style="fill:#262626;stroke:#262626;stroke-width:1.25;" x="722.025375" xlink:href="#m9388420db4" y="493.286013"/>
      </g>
     </g>
     <g id="text_19">
      <!-- 22.08.2021 -->
      <g style="fill:#262626;" transform="translate(675.872847 553.231121)rotate(-45)scale(0.11 -0.11)">
       <use xlink:href="#DejaVuSans-32"/>
       <use x="63.623047" xlink:href="#DejaVuSans-32"/>
       <use x="127.246094" xlink:href="#DejaVuSans-2e"/>
       <use x="159.033203" xlink:href="#DejaVuSans-30"/>
       <use x="222.65625" xlink:href="#DejaVuSans-38"/>
       <use x="286.279297" xlink:href="#DejaVuSans-2e"/>
       <use x="318.066406" xlink:href="#DejaVuSans-32"/>
       <use x="381.689453" xlink:href="#DejaVuSans-30"/>
       <use x="445.3125" xlink:href="#DejaVuSans-32"/>
       <use x="508.935547" xlink:href="#DejaVuSans-31"/>
      </g>
     </g>
    </g>
    <g id="xtick_20">
     <g id="line2d_39">
      <path clip-path="url(#p9fbc17a61f)" d="M 756.801059 493.286013 
L 756.801059 29.118125 
" style="fill:none;stroke:#cccccc;stroke-linecap:round;"/>
     </g>
     <g id="line2d_40">
      <g>
       <use style="fill:#262626;stroke:#262626;stroke-width:1.25;" x="756.801059" xlink:href="#m9388420db4" y="493.286013"/>
      </g>
     </g>
     <g id="text_20">
      <!-- 19.09.2021 -->
      <g style="fill:#262626;" transform="translate(710.64853 553.231121)rotate(-45)scale(0.11 -0.11)">
       <use xlink:href="#DejaVuSans-31"/>
       <use x="63.623047" xlink:href="#DejaVuSans-39"/>
       <use x="127.246094" xlink:href="#DejaVuSans-2e"/>
       <use x="159.033203" xlink:href="#DejaVuSans-30"/>
       <use x="222.65625" xlink:href="#DejaVuSans-39"/>
       <use x="286.279297" xlink:href="#DejaVuSans-2e"/>
       <use x="318.066406" xlink:href="#DejaVuSans-32"/>
       <use x="381.689453" xlink:href="#DejaVuSans-30"/>
       <use x="445.3125" xlink:href="#DejaVuSans-32"/>
       <use x="508.935547" xlink:href="#DejaVuSans-31"/>
      </g>
     </g>
    </g>
    <g id="xtick_21">
     <g id="line2d_41">
      <path clip-path="url(#p9fbc17a61f)" d="M 791.576742 493.286013 
L 791.576742 29.118125 
" style="fill:none;stroke:#cccccc;stroke-linecap:round;"/>
     </g>
     <g id="line2d_42">
      <g>
       <use style="fill:#262626;stroke:#262626;stroke-width:1.25;" x="791.576742" xlink:href="#m9388420db4" y="493.286013"/>
      </g>
     </g>
     <g id="text_21">
      <!-- 17.10.2021 -->
      <g style="fill:#262626;" transform="translate(745.424214 553.231121)rotate(-45)scale(0.11 -0.11)">
       <use xlink:href="#DejaVuSans-31"/>
       <use x="63.623047" xlink:href="#DejaVuSans-37"/>
       <use x="127.246094" xlink:href="#DejaVuSans-2e"/>
       <use x="159.033203" xlink:href="#DejaVuSans-31"/>
       <use x="222.65625" xlink:href="#DejaVuSans-30"/>
       <use x="286.279297" xlink:href="#DejaVuSans-2e"/>
       <use x="318.066406" xlink:href="#DejaVuSans-32"/>
       <use x="381.689453" xlink:href="#DejaVuSans-30"/>
       <use x="445.3125" xlink:href="#DejaVuSans-32"/>
       <use x="508.935547" xlink:href="#DejaVuSans-31"/>
      </g>
     </g>
    </g>
    <g id="xtick_22">
     <g id="line2d_43">
      <defs>
       <path d="M 0 0 
L 0 4 
" id="m09aef4b4b0" style="stroke:#262626;"/>
      </defs>
      <g>
       <use style="fill:#262626;stroke:#262626;" x="68.739321" xlink:href="#m09aef4b4b0" y="493.286013"/>
      </g>
     </g>
    </g>
    <g id="xtick_23">
     <g id="line2d_44">
      <g>
       <use style="fill:#262626;stroke:#262626;" x="77.433242" xlink:href="#m09aef4b4b0" y="493.286013"/>
      </g>
     </g>
    </g>
    <g id="xtick_24">
     <g id="line2d_45">
      <g>
       <use style="fill:#262626;stroke:#262626;" x="86.127163" xlink:href="#m09aef4b4b0" y="493.286013"/>
      </g>
     </g>
    </g>
    <g id="xtick_25">
     <g id="line2d_46">
      <g>
       <use style="fill:#262626;stroke:#262626;" x="94.821084" xlink:href="#m09aef4b4b0" y="493.286013"/>
      </g>
     </g>
    </g>
    <g id="xtick_26">
     <g id="line2d_47">
      <g>
       <use style="fill:#262626;stroke:#262626;" x="103.515005" xlink:href="#m09aef4b4b0" y="493.286013"/>
      </g>
     </g>
    </g>
    <g id="xtick_27">
     <g id="line2d_48">
      <g>
       <use style="fill:#262626;stroke:#262626;" x="112.208926" xlink:href="#m09aef4b4b0" y="493.286013"/>
      </g>
     </g>
    </g>
    <g id="xtick_28">
     <g id="line2d_49">
      <g>
       <use style="fill:#262626;stroke:#262626;" x="120.902847" xlink:href="#m09aef4b4b0" y="493.286013"/>
      </g>
     </g>
    </g>
    <g id="xtick_29">
     <g id="line2d_50">
      <g>
       <use style="fill:#262626;stroke:#262626;" x="129.596767" xlink:href="#m09aef4b4b0" y="493.286013"/>
      </g>
     </g>
    </g>
    <g id="xtick_30">
     <g id="line2d_51">
      <g>
       <use style="fill:#262626;stroke:#262626;" x="138.290688" xlink:href="#m09aef4b4b0" y="493.286013"/>
      </g>
     </g>
    </g>
    <g id="xtick_31">
     <g id="line2d_52">
      <g>
       <use style="fill:#262626;stroke:#262626;" x="146.984609" xlink:href="#m09aef4b4b0" y="493.286013"/>
      </g>
     </g>
    </g>
    <g id="xtick_32">
     <g id="line2d_53">
      <g>
       <use style="fill:#262626;stroke:#262626;" x="155.67853" xlink:href="#m09aef4b4b0" y="493.286013"/>
      </g>
     </g>
    </g>
    <g id="xtick_33">
     <g id="line2d_54">
      <g>
       <use style="fill:#262626;stroke:#262626;" x="164.372451" xlink:href="#m09aef4b4b0" y="493.286013"/>
      </g>
     </g>
    </g>
    <g id="xtick_34">
     <g id="line2d_55">
      <g>
       <use style="fill:#262626;stroke:#262626;" x="173.066372" xlink:href="#m09aef4b4b0" y="493.286013"/>
      </g>
     </g>
    </g>
    <g id="xtick_35">
     <g id="line2d_56">
      <g>
       <use style="fill:#262626;stroke:#262626;" x="181.760293" xlink:href="#m09aef4b4b0" y="493.286013"/>
      </g>
     </g>
    </g>
    <g id="xtick_36">
     <g id="line2d_57">
      <g>
       <use style="fill:#262626;stroke:#262626;" x="190.454214" xlink:href="#m09aef4b4b0" y="493.286013"/>
      </g>
     </g>
    </g>
    <g id="xtick_37">
     <g id="line2d_58">
      <g>
       <use style="fill:#262626;stroke:#262626;" x="199.148134" xlink:href="#m09aef4b4b0" y="493.286013"/>
      </g>
     </g>
    </g>
    <g id="xtick_38">
     <g id="line2d_59">
      <g>
       <use style="fill:#262626;stroke:#262626;" x="207.842055" xlink:href="#m09aef4b4b0" y="493.286013"/>
      </g>
     </g>
    </g>
    <g id="xtick_39">
     <g id="line2d_60">
      <g>
       <use style="fill:#262626;stroke:#262626;" x="216.535976" xlink:href="#m09aef4b4b0" y="493.286013"/>
      </g>
     </g>
    </g>
    <g id="xtick_40">
     <g id="line2d_61">
      <g>
       <use style="fill:#262626;stroke:#262626;" x="225.229897" xlink:href="#m09aef4b4b0" y="493.286013"/>
      </g>
     </g>
    </g>
    <g id="xtick_41">
     <g id="line2d_62">
      <g>
       <use style="fill:#262626;stroke:#262626;" x="233.923818" xlink:href="#m09aef4b4b0" y="493.286013"/>
      </g>
     </g>
    </g>
    <g id="xtick_42">
     <g id="line2d_63">
      <g>
       <use style="fill:#262626;stroke:#262626;" x="242.617739" xlink:href="#m09aef4b4b0" y="493.286013"/>
      </g>
     </g>
    </g>
    <g id="xtick_43">
     <g id="line2d_64">
      <g>
       <use style="fill:#262626;stroke:#262626;" x="251.31166" xlink:href="#m09aef4b4b0" y="493.286013"/>
      </g>
     </g>
    </g>
    <g id="xtick_44">
     <g id="line2d_65">
      <g>
       <use style="fill:#262626;stroke:#262626;" x="260.00558" xlink:href="#m09aef4b4b0" y="493.286013"/>
      </g>
     </g>
    </g>
    <g id="xtick_45">
     <g id="line2d_66">
      <g>
       <use style="fill:#262626;stroke:#262626;" x="268.699501" xlink:href="#m09aef4b4b0" y="493.286013"/>
      </g>
     </g>
    </g>
    <g id="xtick_46">
     <g id="line2d_67">
      <g>
       <use style="fill:#262626;stroke:#262626;" x="277.393422" xlink:href="#m09aef4b4b0" y="493.286013"/>
      </g>
     </g>
    </g>
    <g id="xtick_47">
     <g id="line2d_68">
      <g>
       <use style="fill:#262626;stroke:#262626;" x="286.087343" xlink:href="#m09aef4b4b0" y="493.286013"/>
      </g>
     </g>
    </g>
    <g id="xtick_48">
     <g id="line2d_69">
      <g>
       <use style="fill:#262626;stroke:#262626;" x="294.781264" xlink:href="#m09aef4b4b0" y="493.286013"/>
      </g>
     </g>
    </g>
    <g id="xtick_49">
     <g id="line2d_70">
      <g>
       <use style="fill:#262626;stroke:#262626;" x="303.475185" xlink:href="#m09aef4b4b0" y="493.286013"/>
      </g>
     </g>
    </g>
    <g id="xtick_50">
     <g id="line2d_71">
      <g>
       <use style="fill:#262626;stroke:#262626;" x="312.169106" xlink:href="#m09aef4b4b0" y="493.286013"/>
      </g>
     </g>
    </g>
    <g id="xtick_51">
     <g id="line2d_72">
      <g>
       <use style="fill:#262626;stroke:#262626;" x="320.863027" xlink:href="#m09aef4b4b0" y="493.286013"/>
      </g>
     </g>
    </g>
    <g id="xtick_52">
     <g id="line2d_73">
      <g>
       <use style="fill:#262626;stroke:#262626;" x="329.556947" xlink:href="#m09aef4b4b0" y="493.286013"/>
      </g>
     </g>
    </g>
    <g id="xtick_53">
     <g id="line2d_74">
      <g>
       <use style="fill:#262626;stroke:#262626;" x="338.250868" xlink:href="#m09aef4b4b0" y="493.286013"/>
      </g>
     </g>
    </g>
    <g id="xtick_54">
     <g id="line2d_75">
      <g>
       <use style="fill:#262626;stroke:#262626;" x="346.944789" xlink:href="#m09aef4b4b0" y="493.286013"/>
      </g>
     </g>
    </g>
    <g id="xtick_55">
     <g id="line2d_76">
      <g>
       <use style="fill:#262626;stroke:#262626;" x="355.63871" xlink:href="#m09aef4b4b0" y="493.286013"/>
      </g>
     </g>
    </g>
    <g id="xtick_56">
     <g id="line2d_77">
      <g>
       <use style="fill:#262626;stroke:#262626;" x="364.332631" xlink:href="#m09aef4b4b0" y="493.286013"/>
      </g>
     </g>
    </g>
    <g id="xtick_57">
     <g id="line2d_78">
      <g>
       <use style="fill:#262626;stroke:#262626;" x="373.026552" xlink:href="#m09aef4b4b0" y="493.286013"/>
      </g>
     </g>
    </g>
    <g id="xtick_58">
     <g id="line2d_79">
      <g>
       <use style="fill:#262626;stroke:#262626;" x="381.720473" xlink:href="#m09aef4b4b0" y="493.286013"/>
      </g>
     </g>
    </g>
    <g id="xtick_59">
     <g id="line2d_80">
      <g>
       <use style="fill:#262626;stroke:#262626;" x="390.414393" xlink:href="#m09aef4b4b0" y="493.286013"/>
      </g>
     </g>
    </g>
    <g id="xtick_60">
     <g id="line2d_81">
      <g>
       <use style="fill:#262626;stroke:#262626;" x="399.108314" xlink:href="#m09aef4b4b0" y="493.286013"/>
      </g>
     </g>
    </g>
    <g id="xtick_61">
     <g id="line2d_82">
      <g>
       <use style="fill:#262626;stroke:#262626;" x="407.802235" xlink:href="#m09aef4b4b0" y="493.286013"/>
      </g>
     </g>
    </g>
    <g id="xtick_62">
     <g id="line2d_83">
      <g>
       <use style="fill:#262626;stroke:#262626;" x="416.496156" xlink:href="#m09aef4b4b0" y="493.286013"/>
      </g>
     </g>
    </g>
    <g id="xtick_63">
     <g id="line2d_84">
      <g>
       <use style="fill:#262626;stroke:#262626;" x="425.190077" xlink:href="#m09aef4b4b0" y="493.286013"/>
      </g>
     </g>
    </g>
    <g id="xtick_64">
     <g id="line2d_85">
      <g>
       <use style="fill:#262626;stroke:#262626;" x="433.883998" xlink:href="#m09aef4b4b0" y="493.286013"/>
      </g>
     </g>
    </g>
    <g id="xtick_65">
     <g id="line2d_86">
      <g>
       <use style="fill:#262626;stroke:#262626;" x="442.577919" xlink:href="#m09aef4b4b0" y="493.286013"/>
      </g>
     </g>
    </g>
    <g id="xtick_66">
     <g id="line2d_87">
      <g>
       <use style="fill:#262626;stroke:#262626;" x="451.27184" xlink:href="#m09aef4b4b0" y="493.286013"/>
      </g>
     </g>
    </g>
    <g id="xtick_67">
     <g id="line2d_88">
      <g>
       <use style="fill:#262626;stroke:#262626;" x="459.96576" xlink:href="#m09aef4b4b0" y="493.286013"/>
      </g>
     </g>
    </g>
    <g id="xtick_68">
     <g id="line2d_89">
      <g>
       <use style="fill:#262626;stroke:#262626;" x="468.659681" xlink:href="#m09aef4b4b0" y="493.286013"/>
      </g>
     </g>
    </g>
    <g id="xtick_69">
     <g id="line2d_90">
      <g>
       <use style="fill:#262626;stroke:#262626;" x="477.353602" xlink:href="#m09aef4b4b0" y="493.286013"/>
      </g>
     </g>
    </g>
    <g id="xtick_70">
     <g id="line2d_91">
      <g>
       <use style="fill:#262626;stroke:#262626;" x="486.047523" xlink:href="#m09aef4b4b0" y="493.286013"/>
      </g>
     </g>
    </g>
    <g id="xtick_71">
     <g id="line2d_92">
      <g>
       <use style="fill:#262626;stroke:#262626;" x="494.741444" xlink:href="#m09aef4b4b0" y="493.286013"/>
      </g>
     </g>
    </g>
    <g id="xtick_72">
     <g id="line2d_93">
      <g>
       <use style="fill:#262626;stroke:#262626;" x="503.435365" xlink:href="#m09aef4b4b0" y="493.286013"/>
      </g>
     </g>
    </g>
    <g id="xtick_73">
     <g id="line2d_94">
      <g>
       <use style="fill:#262626;stroke:#262626;" x="512.129286" xlink:href="#m09aef4b4b0" y="493.286013"/>
      </g>
     </g>
    </g>
    <g id="xtick_74">
     <g id="line2d_95">
      <g>
       <use style="fill:#262626;stroke:#262626;" x="520.823207" xlink:href="#m09aef4b4b0" y="493.286013"/>
      </g>
     </g>
    </g>
    <g id="xtick_75">
     <g id="line2d_96">
      <g>
       <use style="fill:#262626;stroke:#262626;" x="529.517127" xlink:href="#m09aef4b4b0" y="493.286013"/>
      </g>
     </g>
    </g>
    <g id="xtick_76">
     <g id="line2d_97">
      <g>
       <use style="fill:#262626;stroke:#262626;" x="538.211048" xlink:href="#m09aef4b4b0" y="493.286013"/>
      </g>
     </g>
    </g>
    <g id="xtick_77">
     <g id="line2d_98">
      <g>
       <use style="fill:#262626;stroke:#262626;" x="546.904969" xlink:href="#m09aef4b4b0" y="493.286013"/>
      </g>
     </g>
    </g>
    <g id="xtick_78">
     <g id="line2d_99">
      <g>
       <use style="fill:#262626;stroke:#262626;" x="555.59889" xlink:href="#m09aef4b4b0" y="493.286013"/>
      </g>
     </g>
    </g>
    <g id="xtick_79">
     <g id="line2d_100">
      <g>
       <use style="fill:#262626;stroke:#262626;" x="564.292811" xlink:href="#m09aef4b4b0" y="493.286013"/>
      </g>
     </g>
    </g>
    <g id="xtick_80">
     <g id="line2d_101">
      <g>
       <use style="fill:#262626;stroke:#262626;" x="572.986732" xlink:href="#m09aef4b4b0" y="493.286013"/>
      </g>
     </g>
    </g>
    <g id="xtick_81">
     <g id="line2d_102">
      <g>
       <use style="fill:#262626;stroke:#262626;" x="581.680653" xlink:href="#m09aef4b4b0" y="493.286013"/>
      </g>
     </g>
    </g>
    <g id="xtick_82">
     <g id="line2d_103">
      <g>
       <use style="fill:#262626;stroke:#262626;" x="590.374573" xlink:href="#m09aef4b4b0" y="493.286013"/>
      </g>
     </g>
    </g>
    <g id="xtick_83">
     <g id="line2d_104">
      <g>
       <use style="fill:#262626;stroke:#262626;" x="599.068494" xlink:href="#m09aef4b4b0" y="493.286013"/>
      </g>
     </g>
    </g>
    <g id="xtick_84">
     <g id="line2d_105">
      <g>
       <use style="fill:#262626;stroke:#262626;" x="607.762415" xlink:href="#m09aef4b4b0" y="493.286013"/>
      </g>
     </g>
    </g>
    <g id="xtick_85">
     <g id="line2d_106">
      <g>
       <use style="fill:#262626;stroke:#262626;" x="616.456336" xlink:href="#m09aef4b4b0" y="493.286013"/>
      </g>
     </g>
    </g>
    <g id="xtick_86">
     <g id="line2d_107">
      <g>
       <use style="fill:#262626;stroke:#262626;" x="625.150257" xlink:href="#m09aef4b4b0" y="493.286013"/>
      </g>
     </g>
    </g>
    <g id="xtick_87">
     <g id="line2d_108">
      <g>
       <use style="fill:#262626;stroke:#262626;" x="633.844178" xlink:href="#m09aef4b4b0" y="493.286013"/>
      </g>
     </g>
    </g>
    <g id="xtick_88">
     <g id="line2d_109">
      <g>
       <use style="fill:#262626;stroke:#262626;" x="642.538099" xlink:href="#m09aef4b4b0" y="493.286013"/>
      </g>
     </g>
    </g>
    <g id="xtick_89">
     <g id="line2d_110">
      <g>
       <use style="fill:#262626;stroke:#262626;" x="651.23202" xlink:href="#m09aef4b4b0" y="493.286013"/>
      </g>
     </g>
    </g>
    <g id="xtick_90">
     <g id="line2d_111">
      <g>
       <use style="fill:#262626;stroke:#262626;" x="659.92594" xlink:href="#m09aef4b4b0" y="493.286013"/>
      </g>
     </g>
    </g>
    <g id="xtick_91">
     <g id="line2d_112">
      <g>
       <use style="fill:#262626;stroke:#262626;" x="668.619861" xlink:href="#m09aef4b4b0" y="493.286013"/>
      </g>
     </g>
    </g>
    <g id="xtick_92">
     <g id="line2d_113">
      <g>
       <use style="fill:#262626;stroke:#262626;" x="677.313782" xlink:href="#m09aef4b4b0" y="493.286013"/>
      </g>
     </g>
    </g>
    <g id="xtick_93">
     <g id="line2d_114">
      <g>
       <use style="fill:#262626;stroke:#262626;" x="686.007703" xlink:href="#m09aef4b4b0" y="493.286013"/>
      </g>
     </g>
    </g>
    <g id="xtick_94">
     <g id="line2d_115">
      <g>
       <use style="fill:#262626;stroke:#262626;" x="694.701624" xlink:href="#m09aef4b4b0" y="493.286013"/>
      </g>
     </g>
    </g>
    <g id="xtick_95">
     <g id="line2d_116">
      <g>
       <use style="fill:#262626;stroke:#262626;" x="703.395545" xlink:href="#m09aef4b4b0" y="493.286013"/>
      </g>
     </g>
    </g>
    <g id="xtick_96">
     <g id="line2d_117">
      <g>
       <use style="fill:#262626;stroke:#262626;" x="712.089466" xlink:href="#m09aef4b4b0" y="493.286013"/>
      </g>
     </g>
    </g>
    <g id="xtick_97">
     <g id="line2d_118">
      <g>
       <use style="fill:#262626;stroke:#262626;" x="720.783386" xlink:href="#m09aef4b4b0" y="493.286013"/>
      </g>
     </g>
    </g>
    <g id="xtick_98">
     <g id="line2d_119">
      <g>
       <use style="fill:#262626;stroke:#262626;" x="729.477307" xlink:href="#m09aef4b4b0" y="493.286013"/>
      </g>
     </g>
    </g>
    <g id="xtick_99">
     <g id="line2d_120">
      <g>
       <use style="fill:#262626;stroke:#262626;" x="738.171228" xlink:href="#m09aef4b4b0" y="493.286013"/>
      </g>
     </g>
    </g>
    <g id="xtick_100">
     <g id="line2d_121">
      <g>
       <use style="fill:#262626;stroke:#262626;" x="746.865149" xlink:href="#m09aef4b4b0" y="493.286013"/>
      </g>
     </g>
    </g>
    <g id="xtick_101">
     <g id="line2d_122">
      <g>
       <use style="fill:#262626;stroke:#262626;" x="755.55907" xlink:href="#m09aef4b4b0" y="493.286013"/>
      </g>
     </g>
    </g>
    <g id="xtick_102">
     <g id="line2d_123">
      <g>
       <use style="fill:#262626;stroke:#262626;" x="764.252991" xlink:href="#m09aef4b4b0" y="493.286013"/>
      </g>
     </g>
    </g>
    <g id="xtick_103">
     <g id="line2d_124">
      <g>
       <use style="fill:#262626;stroke:#262626;" x="772.946912" xlink:href="#m09aef4b4b0" y="493.286013"/>
      </g>
     </g>
    </g>
    <g id="xtick_104">
     <g id="line2d_125">
      <g>
       <use style="fill:#262626;stroke:#262626;" x="781.640833" xlink:href="#m09aef4b4b0" y="493.286013"/>
      </g>
     </g>
    </g>
    <g id="xtick_105">
     <g id="line2d_126">
      <g>
       <use style="fill:#262626;stroke:#262626;" x="790.334753" xlink:href="#m09aef4b4b0" y="493.286013"/>
      </g>
     </g>
    </g>
    <g id="xtick_106">
     <g id="line2d_127">
      <g>
       <use style="fill:#262626;stroke:#262626;" x="799.028674" xlink:href="#m09aef4b4b0" y="493.286013"/>
      </g>
     </g>
    </g>
    <g id="xtick_107">
     <g id="line2d_128">
      <g>
       <use style="fill:#262626;stroke:#262626;" x="807.722595" xlink:href="#m09aef4b4b0" y="493.286013"/>
      </g>
     </g>
    </g>
    <g id="xtick_108">
     <g id="line2d_129">
      <g>
       <use style="fill:#262626;stroke:#262626;" x="816.416516" xlink:href="#m09aef4b4b0" y="493.286013"/>
      </g>
     </g>
    </g>
    <g id="xtick_109">
     <g id="line2d_130">
      <g>
       <use style="fill:#262626;stroke:#262626;" x="825.110437" xlink:href="#m09aef4b4b0" y="493.286013"/>
      </g>
     </g>
    </g>
    <g id="xtick_110">
     <g id="line2d_131">
      <g>
       <use style="fill:#262626;stroke:#262626;" x="833.804358" xlink:href="#m09aef4b4b0" y="493.286013"/>
      </g>
     </g>
    </g>
    <g id="xtick_111">
     <g id="line2d_132">
      <g>
       <use style="fill:#262626;stroke:#262626;" x="842.498279" xlink:href="#m09aef4b4b0" y="493.286013"/>
      </g>
     </g>
    </g>
    <g id="text_22">
     <!-- Date -->
     <g style="fill:#262626;" transform="translate(441.277862 567.966863)scale(0.12 -0.12)">
      <defs>
       <path d="M 1259 4147 
L 1259 519 
L 2022 519 
Q 2988 519 3436 956 
Q 3884 1394 3884 2338 
Q 3884 3275 3436 3711 
Q 2988 4147 2022 4147 
L 1259 4147 
z
M 628 4666 
L 1925 4666 
Q 3281 4666 3915 4102 
Q 4550 3538 4550 2338 
Q 4550 1131 3912 565 
Q 3275 0 1925 0 
L 628 0 
L 628 4666 
z
" id="DejaVuSans-44" transform="scale(0.015625)"/>
       <path d="M 2194 1759 
Q 1497 1759 1228 1600 
Q 959 1441 959 1056 
Q 959 750 1161 570 
Q 1363 391 1709 391 
Q 2188 391 2477 730 
Q 2766 1069 2766 1631 
L 2766 1759 
L 2194 1759 
z
M 3341 1997 
L 3341 0 
L 2766 0 
L 2766 531 
Q 2569 213 2275 61 
Q 1981 -91 1556 -91 
Q 1019 -91 701 211 
Q 384 513 384 1019 
Q 384 1609 779 1909 
Q 1175 2209 1959 2209 
L 2766 2209 
L 2766 2266 
Q 2766 2663 2505 2880 
Q 2244 3097 1772 3097 
Q 1472 3097 1187 3025 
Q 903 2953 641 2809 
L 641 3341 
Q 956 3463 1253 3523 
Q 1550 3584 1831 3584 
Q 2591 3584 2966 3190 
Q 3341 2797 3341 1997 
z
" id="DejaVuSans-61" transform="scale(0.015625)"/>
       <path d="M 1172 4494 
L 1172 3500 
L 2356 3500 
L 2356 3053 
L 1172 3053 
L 1172 1153 
Q 1172 725 1289 603 
Q 1406 481 1766 481 
L 2356 481 
L 2356 0 
L 1766 0 
Q 1100 0 847 248 
Q 594 497 594 1153 
L 594 3053 
L 172 3053 
L 172 3500 
L 594 3500 
L 594 4494 
L 1172 4494 
z
" id="DejaVuSans-74" transform="scale(0.015625)"/>
       <path d="M 3597 1894 
L 3597 1613 
L 953 1613 
Q 991 1019 1311 708 
Q 1631 397 2203 397 
Q 2534 397 2845 478 
Q 3156 559 3463 722 
L 3463 178 
Q 3153 47 2828 -22 
Q 2503 -91 2169 -91 
Q 1331 -91 842 396 
Q 353 884 353 1716 
Q 353 2575 817 3079 
Q 1281 3584 2069 3584 
Q 2775 3584 3186 3129 
Q 3597 2675 3597 1894 
z
M 3022 2063 
Q 3016 2534 2758 2815 
Q 2500 3097 2075 3097 
Q 1594 3097 1305 2825 
Q 1016 2553 972 2059 
L 3022 2063 
z
" id="DejaVuSans-65" transform="scale(0.015625)"/>
      </defs>
      <use xlink:href="#DejaVuSans-44"/>
      <use x="77.001953" xlink:href="#DejaVuSans-61"/>
      <use x="138.28125" xlink:href="#DejaVuSans-74"/>
      <use x="177.490234" xlink:href="#DejaVuSans-65"/>
     </g>
    </g>
   </g>
   <g id="matplotlib.axis_2">
    <g id="ytick_1">
     <g id="line2d_133">
      <path clip-path="url(#p9fbc17a61f)" d="M 60.1075 472.504714 
L 851.1301 472.504714 
" style="fill:none;stroke:#cccccc;stroke-linecap:round;"/>
     </g>
     <g id="line2d_134">
      <defs>
       <path d="M 0 0 
L -6 0 
" id="m0d93edbbc5" style="stroke:#262626;stroke-width:1.25;"/>
      </defs>
      <g>
       <use style="fill:#262626;stroke:#262626;stroke-width:1.25;" x="60.1075" xlink:href="#m0d93edbbc5" y="472.504714"/>
      </g>
     </g>
     <g id="text_23">
      <!-- 0 -->
      <g style="fill:#262626;" transform="translate(43.60875 476.683854)scale(0.11 -0.11)">
       <use xlink:href="#DejaVuSans-30"/>
      </g>
     </g>
    </g>
    <g id="ytick_2">
     <g id="line2d_135">
      <path clip-path="url(#p9fbc17a61f)" d="M 60.1075 393.194347 
L 851.1301 393.194347 
" style="fill:none;stroke:#cccccc;stroke-linecap:round;"/>
     </g>
     <g id="line2d_136">
      <g>
       <use style="fill:#262626;stroke:#262626;stroke-width:1.25;" x="60.1075" xlink:href="#m0d93edbbc5" y="393.194347"/>
      </g>
     </g>
     <g id="text_24">
      <!-- 2000 -->
      <g style="fill:#262626;" transform="translate(22.6125 397.373488)scale(0.11 -0.11)">
       <use xlink:href="#DejaVuSans-32"/>
       <use x="63.623047" xlink:href="#DejaVuSans-30"/>
       <use x="127.246094" xlink:href="#DejaVuSans-30"/>
       <use x="190.869141" xlink:href="#DejaVuSans-30"/>
      </g>
     </g>
    </g>
    <g id="ytick_3">
     <g id="line2d_137">
      <path clip-path="url(#p9fbc17a61f)" d="M 60.1075 313.88398 
L 851.1301 313.88398 
" style="fill:none;stroke:#cccccc;stroke-linecap:round;"/>
     </g>
     <g id="line2d_138">
      <g>
       <use style="fill:#262626;stroke:#262626;stroke-width:1.25;" x="60.1075" xlink:href="#m0d93edbbc5" y="313.88398"/>
      </g>
     </g>
     <g id="text_25">
      <!-- 4000 -->
      <g style="fill:#262626;" transform="translate(22.6125 318.063121)scale(0.11 -0.11)">
       <use xlink:href="#DejaVuSans-34"/>
       <use x="63.623047" xlink:href="#DejaVuSans-30"/>
       <use x="127.246094" xlink:href="#DejaVuSans-30"/>
       <use x="190.869141" xlink:href="#DejaVuSans-30"/>
      </g>
     </g>
    </g>
    <g id="ytick_4">
     <g id="line2d_139">
      <path clip-path="url(#p9fbc17a61f)" d="M 60.1075 234.573613 
L 851.1301 234.573613 
" style="fill:none;stroke:#cccccc;stroke-linecap:round;"/>
     </g>
     <g id="line2d_140">
      <g>
       <use style="fill:#262626;stroke:#262626;stroke-width:1.25;" x="60.1075" xlink:href="#m0d93edbbc5" y="234.573613"/>
      </g>
     </g>
     <g id="text_26">
      <!-- 6000 -->
      <g style="fill:#262626;" transform="translate(22.6125 238.752754)scale(0.11 -0.11)">
       <use xlink:href="#DejaVuSans-36"/>
       <use x="63.623047" xlink:href="#DejaVuSans-30"/>
       <use x="127.246094" xlink:href="#DejaVuSans-30"/>
       <use x="190.869141" xlink:href="#DejaVuSans-30"/>
      </g>
     </g>
    </g>
    <g id="ytick_5">
     <g id="line2d_141">
      <path clip-path="url(#p9fbc17a61f)" d="M 60.1075 155.263246 
L 851.1301 155.263246 
" style="fill:none;stroke:#cccccc;stroke-linecap:round;"/>
     </g>
     <g id="line2d_142">
      <g>
       <use style="fill:#262626;stroke:#262626;stroke-width:1.25;" x="60.1075" xlink:href="#m0d93edbbc5" y="155.263246"/>
      </g>
     </g>
     <g id="text_27">
      <!-- 8000 -->
      <g style="fill:#262626;" transform="translate(22.6125 159.442387)scale(0.11 -0.11)">
       <use xlink:href="#DejaVuSans-38"/>
       <use x="63.623047" xlink:href="#DejaVuSans-30"/>
       <use x="127.246094" xlink:href="#DejaVuSans-30"/>
       <use x="190.869141" xlink:href="#DejaVuSans-30"/>
      </g>
     </g>
    </g>
    <g id="ytick_6">
     <g id="line2d_143">
      <path clip-path="url(#p9fbc17a61f)" d="M 60.1075 75.952879 
L 851.1301 75.952879 
" style="fill:none;stroke:#cccccc;stroke-linecap:round;"/>
     </g>
     <g id="line2d_144">
      <g>
       <use style="fill:#262626;stroke:#262626;stroke-width:1.25;" x="60.1075" xlink:href="#m0d93edbbc5" y="75.952879"/>
      </g>
     </g>
     <g id="text_28">
      <!-- 10000 -->
      <g style="fill:#262626;" transform="translate(15.61375 80.13202)scale(0.11 -0.11)">
       <use xlink:href="#DejaVuSans-31"/>
       <use x="63.623047" xlink:href="#DejaVuSans-30"/>
       <use x="127.246094" xlink:href="#DejaVuSans-30"/>
       <use x="190.869141" xlink:href="#DejaVuSans-30"/>
       <use x="254.492188" xlink:href="#DejaVuSans-30"/>
      </g>
     </g>
    </g>
    <g id="text_29">
     <!-- Cases -->
     <g style="fill:#262626;" transform="translate(9.118125 279.011756)rotate(-90)scale(0.12 -0.12)">
      <defs>
       <path d="M 4122 4306 
L 4122 3641 
Q 3803 3938 3442 4084 
Q 3081 4231 2675 4231 
Q 1875 4231 1450 3742 
Q 1025 3253 1025 2328 
Q 1025 1406 1450 917 
Q 1875 428 2675 428 
Q 3081 428 3442 575 
Q 3803 722 4122 1019 
L 4122 359 
Q 3791 134 3420 21 
Q 3050 -91 2638 -91 
Q 1578 -91 968 557 
Q 359 1206 359 2328 
Q 359 3453 968 4101 
Q 1578 4750 2638 4750 
Q 3056 4750 3426 4639 
Q 3797 4528 4122 4306 
z
" id="DejaVuSans-43" transform="scale(0.015625)"/>
       <path d="M 2834 3397 
L 2834 2853 
Q 2591 2978 2328 3040 
Q 2066 3103 1784 3103 
Q 1356 3103 1142 2972 
Q 928 2841 928 2578 
Q 928 2378 1081 2264 
Q 1234 2150 1697 2047 
L 1894 2003 
Q 2506 1872 2764 1633 
Q 3022 1394 3022 966 
Q 3022 478 2636 193 
Q 2250 -91 1575 -91 
Q 1294 -91 989 -36 
Q 684 19 347 128 
L 347 722 
Q 666 556 975 473 
Q 1284 391 1588 391 
Q 1994 391 2212 530 
Q 2431 669 2431 922 
Q 2431 1156 2273 1281 
Q 2116 1406 1581 1522 
L 1381 1569 
Q 847 1681 609 1914 
Q 372 2147 372 2553 
Q 372 3047 722 3315 
Q 1072 3584 1716 3584 
Q 2034 3584 2315 3537 
Q 2597 3491 2834 3397 
z
" id="DejaVuSans-73" transform="scale(0.015625)"/>
      </defs>
      <use xlink:href="#DejaVuSans-43"/>
      <use x="69.824219" xlink:href="#DejaVuSans-61"/>
      <use x="131.103516" xlink:href="#DejaVuSans-73"/>
      <use x="183.203125" xlink:href="#DejaVuSans-65"/>
      <use x="244.726562" xlink:href="#DejaVuSans-73"/>
     </g>
    </g>
   </g>
   <g id="line2d_145">
    <path clip-path="url(#p9fbc17a61f)" d="M 96.063073 464.177125 
L 97.305061 464.05816 
L 98.54705 463.265056 
L 102.273016 463.344366 
L 104.756994 463.384022 
L 105.998982 464.21678 
L 108.48296 463.502987 
L 109.724948 462.828849 
L 110.966937 462.749539 
L 112.208926 462.234021 
L 113.450914 461.877125 
L 114.692903 461.877125 
L 115.934892 461.361607 
L 117.176881 461.797814 
L 119.660858 460.9254 
L 120.902847 460.9254 
L 122.144835 460.568504 
L 123.386824 460.568504 
L 124.628813 461.123676 
L 125.870801 459.934021 
L 127.11279 459.934021 
L 128.354779 459.7754 
L 130.838756 459.7754 
L 132.080745 459.973676 
L 133.322734 459.973676 
L 134.564722 458.506434 
L 135.806711 458.427124 
L 137.0487 457.435744 
L 138.290688 457.078847 
L 139.532677 457.237468 
L 140.774666 457.911606 
L 142.016654 458.030572 
L 143.258643 458.030572 
L 144.500632 459.7754 
L 146.984609 459.69609 
L 148.226598 459.458158 
L 149.468587 460.647814 
L 150.710575 461.202986 
L 151.952564 461.123676 
L 153.194553 462.273676 
L 154.436541 462.273676 
L 155.67853 463.225401 
L 156.920519 463.185746 
L 158.162507 463.423677 
L 159.404496 463.423677 
L 160.646485 464.652987 
L 161.888474 464.930574 
L 163.130462 465.961608 
L 164.372451 466.120229 
L 165.61444 466.437471 
L 168.098417 467.27023 
L 170.582394 466.596091 
L 171.824383 466.675402 
L 173.066372 466.35816 
L 174.308361 466.239195 
L 175.550349 466.477126 
L 176.792338 466.120229 
L 178.034327 465.089194 
L 179.276315 464.415056 
L 180.518304 463.978849 
L 181.760293 462.709883 
L 183.002281 462.828849 
L 184.24427 462.471952 
L 185.486259 461.91678 
L 186.728247 461.559883 
L 187.970236 461.044366 
L 189.212225 460.052986 
L 190.454214 459.735745 
L 191.696202 459.735745 
L 194.18018 458.149537 
L 195.422168 457.039192 
L 196.664157 457.277123 
L 197.906146 456.959882 
L 199.148134 455.730571 
L 200.390123 455.730571 
L 201.632112 455.294364 
L 202.874101 455.254709 
L 204.116089 454.818502 
L 205.358078 454.937467 
L 206.600067 454.659881 
L 207.842055 454.144364 
L 209.084044 454.34264 
L 211.568021 453.35126 
L 212.81001 452.756432 
L 214.051999 451.685742 
L 215.293987 452.042639 
L 216.535976 451.408156 
L 217.777965 451.289191 
L 219.019954 451.527122 
L 221.503931 449.702983 
L 222.74592 449.425397 
L 223.987908 448.473673 
L 225.229897 448.513328 
L 226.471886 448.315052 
L 227.713874 447.759879 
L 228.955863 447.83919 
L 231.439841 446.134017 
L 232.681829 445.975396 
L 233.923818 444.984016 
L 235.165807 445.459879 
L 236.407795 445.301258 
L 237.649784 444.785741 
L 238.891773 443.873671 
L 241.37575 441.652981 
L 242.617739 441.058153 
L 243.859727 440.225394 
L 245.101716 439.868498 
L 247.585694 437.925394 
L 248.827682 437.846083 
L 250.069671 438.520222 
L 251.31166 438.877118 
L 252.553648 438.837463 
L 255.037626 438.361601 
L 256.279614 439.432291 
L 257.521603 439.828843 
L 258.763592 440.34436 
L 260.00558 440.34436 
L 261.247569 440.502981 
L 262.489558 442.049533 
L 263.731547 441.49436 
L 264.973535 442.684016 
L 266.215524 442.128843 
L 267.457513 443.397809 
L 268.699501 443.040912 
L 269.94149 442.961602 
L 271.183479 444.190913 
L 272.425467 444.151258 
L 273.667456 443.120223 
L 276.151434 444.270223 
L 277.393422 443.834016 
L 279.8774 443.675395 
L 281.119388 443.278844 
L 282.361377 442.446085 
L 283.603366 442.208154 
L 284.845354 442.247809 
L 286.087343 442.56505 
L 287.329332 442.128843 
L 288.57132 441.851257 
L 291.055298 442.644361 
L 292.297287 442.921947 
L 293.539275 443.358154 
L 294.781264 443.318499 
L 296.023253 443.159878 
L 297.265241 443.55643 
L 298.50723 443.397809 
L 299.749219 443.001257 
L 300.991207 443.001257 
L 302.233196 443.63574 
L 305.959162 444.190913 
L 307.201151 444.111602 
L 308.44314 443.715051 
L 309.685128 443.001257 
L 310.927117 441.49436 
L 312.169106 441.137464 
L 313.411094 441.018498 
L 314.653083 441.573671 
L 315.895072 440.225394 
L 318.379049 438.520222 
L 319.621038 437.330566 
L 320.863027 436.339186 
L 322.105015 436.140911 
L 323.347004 435.625393 
L 324.588993 433.999531 
L 325.830981 431.540909 
L 327.07297 430.351254 
L 328.314959 427.654701 
L 329.556947 425.354701 
L 332.040925 424.085735 
L 333.282914 420.675389 
L 334.524902 417.780561 
L 335.766891 415.956422 
L 337.00888 415.004698 
L 338.250868 413.656422 
L 339.492857 413.021939 
L 340.734846 410.563317 
L 341.976834 407.747799 
L 343.218823 403.821936 
L 344.460812 401.442625 
L 346.944789 394.146071 
L 348.186778 391.76676 
L 351.912744 380.663309 
L 353.154733 378.283998 
L 354.396721 375.46848 
L 355.63871 368.925375 
L 356.880699 366.228822 
L 358.122687 359.844338 
L 359.364676 356.632268 
L 360.606665 345.965023 
L 361.848654 336.725366 
L 363.090642 331.213295 
L 364.332631 325.185707 
L 365.57462 320.942603 
L 368.058597 306.904668 
L 370.542574 283.428799 
L 371.784563 276.251211 
L 373.026552 267.646036 
L 374.26854 264.433966 
L 376.752518 255.868447 
L 377.994507 249.285686 
L 379.236495 239.411546 
L 380.478484 236.873614 
L 381.720473 226.920163 
L 382.962461 220.694299 
L 384.20445 223.866714 
L 385.446439 220.099471 
L 386.688427 212.842573 
L 387.930416 208.599468 
L 389.172405 208.916709 
L 390.414393 201.659811 
L 391.656382 200.113259 
L 392.898371 203.523605 
L 394.14036 209.392572 
L 395.382348 209.392572 
L 396.624337 204.197743 
L 397.866326 205.070157 
L 399.108314 196.544292 
L 400.350303 194.91843 
L 401.592292 202.016708 
L 402.83428 201.302914 
L 404.076269 194.99774 
L 405.318258 191.587394 
L 407.802235 186.035669 
L 409.044224 185.242565 
L 410.286213 193.133946 
L 411.528201 195.037395 
L 412.77019 193.570153 
L 414.012179 198.883948 
L 415.254167 213.35809 
L 416.496156 209.194296 
L 417.738145 209.828779 
L 418.980133 223.192575 
L 420.222122 229.696026 
L 421.464111 245.914996 
L 422.7061 247.620168 
L 423.948088 251.22879 
L 425.190077 252.616722 
L 426.432066 251.585687 
L 427.674054 253.964998 
L 428.916043 273.316727 
L 430.158032 280.930523 
L 431.40002 283.904661 
L 432.642009 284.261558 
L 433.883998 282.715006 
L 435.125987 286.561559 
L 436.367975 297.823631 
L 437.609964 302.542598 
L 438.851953 303.494322 
L 440.093941 303.970184 
L 441.33593 306.508116 
L 442.577919 306.349495 
L 443.819907 305.754667 
L 445.061896 312.059842 
L 446.303885 316.065015 
L 447.545873 326.533984 
L 448.787862 328.516743 
L 450.029851 333.711572 
L 451.27184 334.306399 
L 452.513828 334.306399 
L 453.755817 341.166746 
L 454.997806 344.696058 
L 456.239794 344.815023 
L 457.481783 351.75468 
L 458.723772 359.725372 
L 459.96576 359.209855 
L 461.207749 358.535717 
L 462.449738 360.597786 
L 463.691727 360.756407 
L 464.933715 358.892613 
L 466.175704 358.416751 
L 467.417693 359.566751 
L 469.90167 358.059854 
L 471.143659 359.487441 
L 472.385647 357.465027 
L 474.869625 352.230542 
L 476.111613 350.763301 
L 477.353602 348.265024 
L 478.595591 348.54261 
L 479.83758 351.278818 
L 481.079568 348.423645 
L 482.321557 344.418471 
L 483.563546 341.761574 
L 484.805534 340.96847 
L 486.047523 338.66847 
L 487.289512 336.68571 
L 488.5315 336.844331 
L 492.257467 325.621914 
L 494.741444 319.990878 
L 495.983433 318.642602 
L 497.225421 316.540877 
L 498.46741 312.416738 
L 500.951387 299.290873 
L 502.193376 293.977078 
L 503.435365 287.156386 
L 504.677353 284.380524 
L 505.919342 283.071902 
L 507.161331 273.8719 
L 508.40332 270.540865 
L 509.645308 262.054655 
L 513.371274 243.456374 
L 514.613263 238.420166 
L 515.855252 233.899475 
L 517.09724 218.909816 
L 519.581218 202.135673 
L 520.823207 196.980499 
L 522.065195 190.913256 
L 523.307184 184.251185 
L 524.549173 171.12532 
L 525.791161 163.035662 
L 527.03315 152.011521 
L 528.275139 142.097725 
L 529.517127 133.651171 
L 530.759116 129.090825 
L 532.001105 127.940825 
L 533.243093 118.502891 
L 534.485082 110.651165 
L 536.96906 98.556334 
L 538.211048 88.880469 
L 539.453037 82.337364 
L 540.695026 88.682193 
L 541.937014 83.447709 
L 543.179003 72.264947 
L 544.420992 69.925292 
L 545.66298 60.804599 
L 548.146958 50.216665 
L 549.388946 60.011496 
L 550.630935 61.875289 
L 551.872924 58.940806 
L 553.114913 59.932185 
L 554.356901 65.206325 
L 555.59889 61.478737 
L 556.840879 60.804599 
L 558.082867 77.142535 
L 559.324856 83.923571 
L 560.566845 88.444262 
L 561.808833 94.868402 
L 563.050822 107.875302 
L 564.292811 107.518405 
L 565.5348 106.527026 
L 566.776788 122.190823 
L 568.018777 131.549447 
L 569.260766 138.013241 
L 570.502754 143.009795 
L 571.744743 152.368418 
L 572.986732 151.813245 
L 574.22872 152.090832 
L 575.470709 168.389112 
L 576.712698 175.883942 
L 577.954686 188.256359 
L 579.196675 201.897742 
L 580.438664 198.685672 
L 581.680653 203.246018 
L 582.922641 204.673605 
L 584.16463 206.577054 
L 585.406619 208.00464 
L 586.648607 228.308094 
L 587.890596 229.101198 
L 589.132585 240.323615 
L 591.616562 238.063269 
L 592.858551 251.585687 
L 595.342528 264.315001 
L 596.584517 269.708106 
L 597.826506 280.890867 
L 599.068494 280.613281 
L 600.310483 279.859833 
L 601.552472 290.408111 
L 602.79446 298.854665 
L 604.036449 305.913288 
L 605.278438 310.989152 
L 606.520426 319.871913 
L 607.762415 321.140879 
L 609.004404 321.53743 
L 610.246393 322.568465 
L 611.488381 332.402951 
L 612.73037 337.835711 
L 615.214347 346.083989 
L 616.456336 345.727092 
L 617.698325 346.559851 
L 620.182302 355.839164 
L 621.424291 358.25813 
L 622.66628 362.858132 
L 623.908268 368.251237 
L 625.150257 368.647788 
L 626.392246 368.885719 
L 627.634234 372.533996 
L 628.876223 374.675376 
L 630.118212 377.054687 
L 631.3602 379.90986 
L 632.602189 381.694344 
L 633.844178 381.97193 
L 635.086166 381.932275 
L 636.328155 383.716758 
L 638.812133 395.018485 
L 640.054121 402.55297 
L 641.29611 403.028832 
L 642.538099 403.266763 
L 643.780087 403.306419 
L 646.264065 407.073661 
L 647.506053 408.540903 
L 649.990031 410.444352 
L 651.23202 410.602972 
L 652.474008 410.642628 
L 653.715997 412.3478 
L 654.957986 413.220215 
L 656.199974 413.775387 
L 657.441963 415.639181 
L 658.683952 420.437458 
L 659.92594 420.358148 
L 661.167929 423.13401 
L 662.409918 427.535736 
L 663.651906 434.396082 
L 664.893895 434.475393 
L 666.135884 437.013325 
L 667.377873 439.828843 
L 668.619861 439.908153 
L 669.86185 439.749532 
L 671.103839 442.921947 
L 672.345827 443.239188 
L 673.587816 443.675395 
L 674.829805 443.120223 
L 676.071793 443.318499 
L 678.555771 443.001257 
L 679.797759 443.199533 
L 681.039748 443.873671 
L 682.281737 443.715051 
L 683.523726 443.080568 
L 684.765714 444.508154 
L 687.249692 444.111602 
L 688.49168 443.596085 
L 689.733669 442.56505 
L 690.975658 442.604705 
L 692.217646 442.208154 
L 693.459635 440.899533 
L 694.701624 440.582291 
L 695.943613 440.384015 
L 697.185601 438.758153 
L 698.42759 436.259876 
L 699.669579 434.634014 
L 700.911567 435.427117 
L 702.153556 433.365048 
L 703.395545 432.334013 
L 704.637533 430.509874 
L 705.879522 427.297805 
L 707.121511 424.640907 
L 708.363499 424.04608 
L 709.605488 422.380562 
L 710.847477 416.828836 
L 712.089466 413.41849 
L 713.331454 411.11849 
L 714.573443 406.75642 
L 717.05742 393.154692 
L 719.541398 380.782274 
L 720.783386 376.935722 
L 722.025375 375.270204 
L 723.267364 365.356408 
L 724.509353 358.575372 
L 725.751341 354.133991 
L 726.99333 347.075369 
L 728.235319 343.427092 
L 729.477307 338.906401 
L 730.719296 335.654676 
L 734.445262 318.959843 
L 735.687251 314.478808 
L 736.929239 311.108117 
L 739.413217 307.499495 
L 740.655206 302.621908 
L 741.897194 301.709839 
L 743.139183 297.268458 
L 744.381172 294.056388 
L 745.62316 296.118458 
L 746.865149 291.201215 
L 748.107138 289.733973 
L 749.349126 290.606387 
L 751.833104 290.804663 
L 753.075093 289.02018 
L 754.317081 288.147766 
L 755.55907 286.006386 
L 756.801059 284.142592 
L 758.043047 279.027074 
L 759.285036 276.806384 
L 760.527025 275.854659 
L 761.769013 276.251211 
L 763.011002 275.458107 
L 764.252991 272.642589 
L 765.494979 271.135692 
L 766.736968 272.325348 
L 767.978957 268.201209 
L 769.220946 267.408105 
L 770.462934 266.258105 
L 771.704923 267.011553 
L 774.1889 264.394311 
L 775.430889 266.139139 
L 776.672878 265.385691 
L 777.914866 261.856379 
L 779.156855 259.397758 
L 780.398844 256.264998 
L 781.640833 254.837412 
L 782.882821 254.282239 
L 784.12481 254.202929 
L 785.366799 248.611548 
L 786.608787 246.192582 
L 787.850776 239.847753 
L 789.092765 237.111545 
L 790.334753 233.185682 
L 791.576742 231.63913 
L 792.818731 224.342576 
L 796.544697 210.463262 
L 797.786686 207.409812 
L 799.028674 203.166708 
L 800.270663 198.408086 
L 802.75464 182.030495 
L 803.996629 180.127046 
L 805.238618 172.989113 
L 806.480606 167.952905 
L 807.722595 160.021868 
L 808.964584 156.333936 
L 810.206572 154.073591 
L 811.448561 149.354624 
L 812.69055 147.689106 
L 813.932539 140.511518 
L 815.174527 144.873588 
L 815.174527 144.873588 
" style="fill:none;stroke:#ffc0cb;stroke-linecap:round;stroke-width:1.5;"/>
   </g>
   <g id="line2d_146">
    <path clip-path="url(#p9fbc17a61f)" d="M 96.063073 471.473679 
L 98.54705 471.434024 
L 99.789039 471.235748 
L 104.756994 471.077127 
L 105.998982 471.354713 
L 107.240971 471.275403 
L 109.724948 470.759886 
L 110.966937 470.759886 
L 112.208926 471.077127 
L 114.692903 471.156438 
L 115.934892 470.918506 
L 117.176881 471.037472 
L 118.418869 470.878851 
L 119.660858 470.878851 
L 120.902847 471.037472 
L 122.144835 470.878851 
L 124.628813 470.958162 
L 128.354779 470.799541 
L 129.596767 470.918506 
L 130.838756 470.918506 
L 132.080745 471.037472 
L 133.322734 470.958162 
L 134.564722 470.997817 
L 137.0487 470.56161 
L 138.290688 470.284023 
L 139.532677 470.204713 
L 140.774666 470.521955 
L 143.258643 470.482299 
L 148.226598 470.799541 
L 149.468587 471.077127 
L 153.194553 471.354713 
L 154.436541 471.354713 
L 155.67853 471.6323 
L 156.920519 471.71161 
L 159.404496 471.6323 
L 163.130462 471.79092 
L 165.61444 471.870231 
L 166.856428 471.71161 
L 168.098417 472.147817 
L 170.582394 472.187472 
L 171.824383 472.028852 
L 174.308361 472.028852 
L 175.550349 471.909886 
L 176.792338 471.989196 
L 178.034327 471.830576 
L 180.518304 471.909886 
L 183.002281 471.909886 
L 187.970236 471.989196 
L 189.212225 471.830576 
L 190.454214 471.989196 
L 194.18018 471.989196 
L 195.422168 471.870231 
L 197.906146 471.79092 
L 199.148134 471.71161 
L 201.632112 471.275403 
L 204.116089 471.235748 
L 210.326033 471.354713 
L 211.568021 471.235748 
L 214.051999 471.394369 
L 215.293987 471.235748 
L 217.777965 471.196093 
L 220.261942 471.434024 
L 222.74592 471.394369 
L 223.987908 471.196093 
L 227.713874 471.156438 
L 228.955863 471.275403 
L 230.197852 471.552989 
L 237.649784 470.918506 
L 240.133761 471.156438 
L 241.37575 470.839196 
L 245.101716 470.799541 
L 246.343705 470.878851 
L 248.827682 470.64092 
L 250.069671 470.323679 
L 253.795637 470.363334 
L 255.037626 469.966782 
L 257.521603 470.006437 
L 260.00558 470.323679 
L 262.489558 470.284023 
L 263.731547 470.085748 
L 264.973535 470.125403 
L 266.215524 470.006437 
L 267.457513 469.609885 
L 269.94149 469.57023 
L 271.183479 469.927127 
L 272.425467 469.966782 
L 273.667456 470.125403 
L 274.909445 469.927127 
L 276.151434 470.165058 
L 279.8774 469.927127 
L 281.119388 470.046092 
L 282.361377 470.006437 
L 283.603366 470.085748 
L 284.845354 470.284023 
L 286.087343 470.244368 
L 288.57132 470.402989 
L 291.055298 470.125403 
L 292.297287 470.323679 
L 293.539275 470.284023 
L 294.781264 470.402989 
L 296.023253 470.402989 
L 302.233196 471.156438 
L 303.475185 471.037472 
L 308.44314 471.354713 
L 309.685128 471.315058 
L 310.927117 471.077127 
L 312.169106 471.077127 
L 313.411094 470.878851 
L 318.379049 470.64092 
L 323.347004 470.165058 
L 325.830981 470.402989 
L 328.314959 470.204713 
L 330.798936 470.046092 
L 332.040925 469.927127 
L 333.282914 469.966782 
L 334.524902 469.847816 
L 335.766891 469.57023 
L 338.250868 469.371954 
L 339.492857 469.57023 
L 340.734846 469.015058 
L 341.976834 468.816782 
L 343.218823 468.261609 
L 344.460812 468.063333 
L 345.7028 467.468505 
L 346.944789 467.032298 
L 348.186778 466.715057 
L 349.428767 466.596091 
L 350.670755 466.754712 
L 351.912744 466.080574 
L 353.154733 465.882298 
L 354.396721 465.961608 
L 356.880699 465.802988 
L 358.122687 465.366781 
L 360.606665 463.027125 
L 361.848654 462.590918 
L 363.090642 462.313332 
L 364.332631 461.758159 
L 365.57462 461.718504 
L 366.816608 461.797814 
L 368.058597 461.401262 
L 369.300586 461.559883 
L 370.542574 461.242642 
L 371.784563 461.084021 
L 373.026552 460.806435 
L 374.26854 460.885745 
L 375.510529 461.084021 
L 376.752518 460.489193 
L 377.994507 460.092641 
L 379.236495 458.863331 
L 380.478484 457.316779 
L 381.720473 456.325399 
L 382.962461 456.325399 
L 385.446439 456.959882 
L 387.930416 455.452985 
L 389.172405 455.215054 
L 390.414393 455.41333 
L 391.656382 455.452985 
L 392.898371 454.382295 
L 394.14036 452.954708 
L 395.382348 451.765053 
L 396.624337 451.765053 
L 397.866326 452.518501 
L 399.108314 452.042639 
L 400.350303 452.042639 
L 401.592292 451.765053 
L 402.83428 452.121949 
L 404.076269 450.932294 
L 405.318258 451.011604 
L 406.560247 449.187466 
L 407.802235 448.90988 
L 409.044224 449.108156 
L 410.286213 449.504707 
L 411.528201 449.425397 
L 412.77019 449.901259 
L 414.012179 450.020225 
L 415.254167 451.249535 
L 416.496156 451.011604 
L 417.738145 451.249535 
L 418.980133 451.765053 
L 420.222122 451.646087 
L 421.464111 451.368501 
L 423.948088 452.20126 
L 425.190077 451.765053 
L 426.432066 451.765053 
L 427.674054 452.518501 
L 428.916043 453.708157 
L 430.158032 453.985743 
L 435.125987 454.540916 
L 436.367975 456.206433 
L 437.609964 456.920227 
L 438.851953 457.475399 
L 440.093941 457.55471 
L 441.33593 457.435744 
L 443.819907 457.435744 
L 445.061896 457.63402 
L 446.303885 457.951261 
L 447.545873 458.70471 
L 448.787862 458.902986 
L 450.029851 458.902986 
L 451.27184 459.021951 
L 452.513828 458.982296 
L 454.997806 459.894365 
L 456.239794 459.537469 
L 457.481783 460.727124 
L 458.723772 461.242642 
L 459.96576 461.361607 
L 461.207749 461.282297 
L 462.449738 461.440918 
L 463.691727 461.361607 
L 464.933715 461.99609 
L 466.175704 462.313332 
L 468.659681 462.075401 
L 471.143659 461.99609 
L 472.385647 461.440918 
L 473.627636 461.242642 
L 474.869625 461.520228 
L 476.111613 461.559883 
L 477.353602 461.361607 
L 479.83758 461.639193 
L 481.079568 461.956435 
L 482.321557 461.678849 
L 483.563546 460.885745 
L 484.805534 460.449538 
L 487.289512 460.568504 
L 488.5315 461.044366 
L 489.773489 461.242642 
L 491.015478 460.766779 
L 492.257467 460.608159 
L 493.499455 459.973676 
L 494.741444 459.973676 
L 495.983433 459.7754 
L 498.46741 458.665055 
L 499.709399 457.871951 
L 500.951387 457.832296 
L 502.193376 457.515054 
L 503.435365 457.435744 
L 504.677353 456.880571 
L 505.919342 456.087468 
L 507.161331 455.730571 
L 508.40332 455.651261 
L 509.645308 455.056433 
L 510.887297 455.175399 
L 512.129286 454.580571 
L 513.371274 454.42195 
L 514.613263 452.558156 
L 515.855252 452.796088 
L 517.09724 452.637467 
L 518.339229 452.597812 
L 519.581218 452.439191 
L 520.823207 451.804708 
L 522.065195 451.368501 
L 523.307184 449.623673 
L 524.549173 448.235741 
L 525.791161 448.354707 
L 527.03315 445.935741 
L 528.275139 445.182292 
L 529.517127 445.102982 
L 532.001105 445.102982 
L 533.243093 443.596085 
L 534.485082 443.040912 
L 535.727071 442.009878 
L 536.96906 442.723671 
L 538.211048 442.009878 
L 539.453037 441.851257 
L 540.695026 442.684016 
L 541.937014 442.842637 
L 543.179003 441.890912 
L 544.420992 442.882292 
L 546.904969 442.446085 
L 549.388946 443.397809 
L 551.872924 441.692636 
L 553.114913 440.26505 
L 554.356901 440.304705 
L 555.59889 440.740912 
L 556.840879 440.899533 
L 558.082867 441.732291 
L 559.324856 440.820222 
L 560.566845 440.502981 
L 561.808833 440.34436 
L 563.050822 440.740912 
L 564.292811 440.899533 
L 565.5348 441.454705 
L 566.776788 441.573671 
L 568.018777 442.168498 
L 569.260766 441.33574 
L 570.502754 441.534015 
L 571.744743 442.723671 
L 572.986732 443.239188 
L 574.22872 442.921947 
L 575.470709 443.794361 
L 576.712698 444.190913 
L 579.196675 445.459879 
L 580.438664 445.77712 
L 581.680653 445.935741 
L 582.922641 446.252982 
L 585.406619 447.244362 
L 586.648607 448.751259 
L 587.890596 449.227121 
L 589.132585 449.901259 
L 591.616562 450.218501 
L 592.858551 450.496087 
L 594.10054 451.289191 
L 596.584517 452.042639 
L 597.826506 452.518501 
L 600.310483 452.716777 
L 601.552472 453.073674 
L 602.79446 453.27195 
L 604.036449 454.263329 
L 605.278438 454.977123 
L 606.520426 455.968502 
L 609.004404 456.56333 
L 610.246393 456.404709 
L 611.488381 457.316779 
L 612.73037 457.63402 
L 613.972359 457.475399 
L 615.214347 457.951261 
L 617.698325 458.268503 
L 618.940313 458.70471 
L 620.182302 459.735745 
L 621.424291 459.577124 
L 623.908268 460.885745 
L 625.150257 460.885745 
L 626.392246 461.123676 
L 630.118212 462.352987 
L 631.3602 462.471952 
L 632.602189 462.749539 
L 635.086166 462.709883 
L 636.328155 462.908159 
L 637.570144 462.947815 
L 640.054121 463.978849 
L 641.29611 464.256436 
L 643.780087 464.296091 
L 645.022076 464.573677 
L 646.264065 464.732298 
L 647.506053 464.534022 
L 648.748042 464.534022 
L 649.990031 464.732298 
L 652.474008 464.692643 
L 653.715997 465.12885 
L 654.957986 465.406436 
L 656.199974 465.406436 
L 657.441963 466.040919 
L 658.683952 466.35816 
L 661.167929 466.477126 
L 662.409918 467.627126 
L 663.651906 468.102988 
L 664.893895 468.023678 
L 667.377873 468.340919 
L 669.86185 468.380575 
L 671.103839 468.737471 
L 679.797759 469.015058 
L 681.039748 469.252989 
L 682.281737 469.332299 
L 683.523726 469.292644 
L 684.765714 469.530575 
L 687.249692 469.451265 
L 688.49168 469.609885 
L 690.975658 469.371954 
L 692.217646 469.371954 
L 693.459635 469.530575 
L 699.669579 468.935747 
L 700.911567 468.975402 
L 702.153556 468.896092 
L 703.395545 468.618506 
L 704.637533 468.578851 
L 705.879522 468.777127 
L 708.363499 468.221954 
L 709.605488 468.301264 
L 710.847477 467.587471 
L 712.089466 467.309885 
L 713.331454 466.913333 
L 714.573443 466.754712 
L 717.05742 465.604712 
L 718.299409 464.811608 
L 719.541398 464.851263 
L 722.025375 464.494367 
L 723.267364 463.661608 
L 724.509353 462.670228 
L 726.99333 461.440918 
L 728.235319 460.687469 
L 730.719296 460.687469 
L 731.961285 460.568504 
L 733.203273 459.656434 
L 734.445262 459.339193 
L 736.929239 459.259882 
L 738.171228 459.101262 
L 739.413217 459.339193 
L 740.655206 459.061607 
L 741.897194 459.458158 
L 743.139183 458.109882 
L 744.381172 457.515054 
L 745.62316 457.55471 
L 746.865149 457.435744 
L 748.107138 457.71333 
L 749.349126 457.832296 
L 750.591115 457.197813 
L 751.833104 456.801261 
L 755.55907 456.801261 
L 758.043047 457.118503 
L 759.285036 456.444364 
L 760.527025 456.444364 
L 761.769013 456.087468 
L 765.494979 455.928847 
L 769.220946 454.34264 
L 770.462934 454.184019 
L 772.946912 454.065053 
L 774.1889 454.184019 
L 775.430889 454.858157 
L 776.672878 454.263329 
L 777.914866 454.461605 
L 779.156855 454.144364 
L 780.398844 454.184019 
L 781.640833 453.906433 
L 784.12481 453.787467 
L 785.366799 453.27195 
L 786.608787 453.192639 
L 787.850776 452.954708 
L 789.092765 452.320225 
L 790.334753 452.20126 
L 791.576742 452.20126 
L 792.818731 451.20988 
L 794.060719 450.377121 
L 795.302708 450.020225 
L 796.544697 449.108156 
L 799.028674 448.632293 
L 800.270663 448.711604 
L 801.512652 448.394362 
L 803.996629 448.434017 
L 805.238618 446.490913 
L 806.480606 445.69781 
L 807.722595 445.340913 
L 808.964584 445.539189 
L 810.206572 445.975396 
L 811.448561 444.904706 
L 812.69055 444.151258 
L 813.932539 444.349534 
L 815.174527 443.794361 
L 815.174527 443.794361 
" style="fill:none;stroke:#800080;stroke-linecap:round;stroke-width:1.5;"/>
   </g>
   <g id="line2d_147"/>
   <g id="line2d_148"/>
   <g id="patch_3">
    <path d="M 60.1075 493.286013 
L 60.1075 29.118125 
" style="fill:none;stroke:#262626;stroke-linecap:square;stroke-linejoin:miter;stroke-width:1.25;"/>
   </g>
   <g id="patch_4">
    <path d="M 851.1301 493.286013 
L 851.1301 29.118125 
" style="fill:none;stroke:#262626;stroke-linecap:square;stroke-linejoin:miter;stroke-width:1.25;"/>
   </g>
   <g id="patch_5">
    <path d="M 60.1075 493.286013 
L 851.1301 493.286013 
" style="fill:none;stroke:#262626;stroke-linecap:square;stroke-linejoin:miter;stroke-width:1.25;"/>
   </g>
   <g id="patch_6">
    <path d="M 60.1075 29.118125 
L 851.1301 29.118125 
" style="fill:none;stroke:#262626;stroke-linecap:square;stroke-linejoin:miter;stroke-width:1.25;"/>
   </g>
   <g id="text_30">
    <!-- Last update: 06.11.2021 -->
    <g style="fill:#262626;" transform="translate(394.119972 22.155607)scale(0.09996 -0.09996)">
     <defs>
      <path d="M 628 4666 
L 1259 4666 
L 1259 531 
L 3531 531 
L 3531 0 
L 628 0 
L 628 4666 
z
" id="DejaVuSans-4c" transform="scale(0.015625)"/>
      <path id="DejaVuSans-20" transform="scale(0.015625)"/>
      <path d="M 544 1381 
L 544 3500 
L 1119 3500 
L 1119 1403 
Q 1119 906 1312 657 
Q 1506 409 1894 409 
Q 2359 409 2629 706 
Q 2900 1003 2900 1516 
L 2900 3500 
L 3475 3500 
L 3475 0 
L 2900 0 
L 2900 538 
Q 2691 219 2414 64 
Q 2138 -91 1772 -91 
Q 1169 -91 856 284 
Q 544 659 544 1381 
z
M 1991 3584 
L 1991 3584 
z
" id="DejaVuSans-75" transform="scale(0.015625)"/>
      <path d="M 1159 525 
L 1159 -1331 
L 581 -1331 
L 581 3500 
L 1159 3500 
L 1159 2969 
Q 1341 3281 1617 3432 
Q 1894 3584 2278 3584 
Q 2916 3584 3314 3078 
Q 3713 2572 3713 1747 
Q 3713 922 3314 415 
Q 2916 -91 2278 -91 
Q 1894 -91 1617 61 
Q 1341 213 1159 525 
z
M 3116 1747 
Q 3116 2381 2855 2742 
Q 2594 3103 2138 3103 
Q 1681 3103 1420 2742 
Q 1159 2381 1159 1747 
Q 1159 1113 1420 752 
Q 1681 391 2138 391 
Q 2594 391 2855 752 
Q 3116 1113 3116 1747 
z
" id="DejaVuSans-70" transform="scale(0.015625)"/>
      <path d="M 2906 2969 
L 2906 4863 
L 3481 4863 
L 3481 0 
L 2906 0 
L 2906 525 
Q 2725 213 2448 61 
Q 2172 -91 1784 -91 
Q 1150 -91 751 415 
Q 353 922 353 1747 
Q 353 2572 751 3078 
Q 1150 3584 1784 3584 
Q 2172 3584 2448 3432 
Q 2725 3281 2906 2969 
z
M 947 1747 
Q 947 1113 1208 752 
Q 1469 391 1925 391 
Q 2381 391 2643 752 
Q 2906 1113 2906 1747 
Q 2906 2381 2643 2742 
Q 2381 3103 1925 3103 
Q 1469 3103 1208 2742 
Q 947 2381 947 1747 
z
" id="DejaVuSans-64" transform="scale(0.015625)"/>
      <path d="M 750 794 
L 1409 794 
L 1409 0 
L 750 0 
L 750 794 
z
M 750 3309 
L 1409 3309 
L 1409 2516 
L 750 2516 
L 750 3309 
z
" id="DejaVuSans-3a" transform="scale(0.015625)"/>
     </defs>
     <use xlink:href="#DejaVuSans-4c"/>
     <use x="55.712891" xlink:href="#DejaVuSans-61"/>
     <use x="116.992188" xlink:href="#DejaVuSans-73"/>
     <use x="169.091797" xlink:href="#DejaVuSans-74"/>
     <use x="208.300781" xlink:href="#DejaVuSans-20"/>
     <use x="240.087891" xlink:href="#DejaVuSans-75"/>
     <use x="303.466797" xlink:href="#DejaVuSans-70"/>
     <use x="366.943359" xlink:href="#DejaVuSans-64"/>
     <use x="430.419922" xlink:href="#DejaVuSans-61"/>
     <use x="491.699219" xlink:href="#DejaVuSans-74"/>
     <use x="530.908203" xlink:href="#DejaVuSans-65"/>
     <use x="592.431641" xlink:href="#DejaVuSans-3a"/>
     <use x="626.123047" xlink:href="#DejaVuSans-20"/>
     <use x="657.910156" xlink:href="#DejaVuSans-30"/>
     <use x="721.533203" xlink:href="#DejaVuSans-36"/>
     <use x="785.15625" xlink:href="#DejaVuSans-2e"/>
     <use x="816.943359" xlink:href="#DejaVuSans-31"/>
     <use x="880.566406" xlink:href="#DejaVuSans-31"/>
     <use x="944.189453" xlink:href="#DejaVuSans-2e"/>
     <use x="975.976562" xlink:href="#DejaVuSans-32"/>
     <use x="1039.599609" xlink:href="#DejaVuSans-30"/>
     <use x="1103.222656" xlink:href="#DejaVuSans-32"/>
     <use x="1166.845703" xlink:href="#DejaVuSans-31"/>
    </g>
   </g>
   <g id="text_31">
    <!-- Disease timeline -->
    <g style="fill:#262626;" transform="translate(399.460675 9.118125)scale(0.12 -0.12)">
     <defs>
      <path d="M 1791 3756 
L 1791 909 
L 2222 909 
Q 2959 909 3348 1275 
Q 3738 1641 3738 2338 
Q 3738 3031 3350 3393 
Q 2963 3756 2222 3756 
L 1791 3756 
z
M 588 4666 
L 1856 4666 
Q 2919 4666 3439 4514 
Q 3959 4363 4331 4000 
Q 4659 3684 4818 3271 
Q 4978 2859 4978 2338 
Q 4978 1809 4818 1395 
Q 4659 981 4331 666 
Q 3956 303 3431 151 
Q 2906 0 1856 0 
L 588 0 
L 588 4666 
z
" id="DejaVuSans-Bold-44" transform="scale(0.015625)"/>
      <path d="M 538 3500 
L 1656 3500 
L 1656 0 
L 538 0 
L 538 3500 
z
M 538 4863 
L 1656 4863 
L 1656 3950 
L 538 3950 
L 538 4863 
z
" id="DejaVuSans-Bold-69" transform="scale(0.015625)"/>
      <path d="M 3272 3391 
L 3272 2541 
Q 2913 2691 2578 2766 
Q 2244 2841 1947 2841 
Q 1628 2841 1473 2761 
Q 1319 2681 1319 2516 
Q 1319 2381 1436 2309 
Q 1553 2238 1856 2203 
L 2053 2175 
Q 2913 2066 3209 1816 
Q 3506 1566 3506 1031 
Q 3506 472 3093 190 
Q 2681 -91 1863 -91 
Q 1516 -91 1145 -36 
Q 775 19 384 128 
L 384 978 
Q 719 816 1070 734 
Q 1422 653 1784 653 
Q 2113 653 2278 743 
Q 2444 834 2444 1013 
Q 2444 1163 2330 1236 
Q 2216 1309 1875 1350 
L 1678 1375 
Q 931 1469 631 1722 
Q 331 1975 331 2491 
Q 331 3047 712 3315 
Q 1094 3584 1881 3584 
Q 2191 3584 2531 3537 
Q 2872 3491 3272 3391 
z
" id="DejaVuSans-Bold-73" transform="scale(0.015625)"/>
      <path d="M 4031 1759 
L 4031 1441 
L 1416 1441 
Q 1456 1047 1700 850 
Q 1944 653 2381 653 
Q 2734 653 3104 758 
Q 3475 863 3866 1075 
L 3866 213 
Q 3469 63 3072 -14 
Q 2675 -91 2278 -91 
Q 1328 -91 801 392 
Q 275 875 275 1747 
Q 275 2603 792 3093 
Q 1309 3584 2216 3584 
Q 3041 3584 3536 3087 
Q 4031 2591 4031 1759 
z
M 2881 2131 
Q 2881 2450 2695 2645 
Q 2509 2841 2209 2841 
Q 1884 2841 1681 2658 
Q 1478 2475 1428 2131 
L 2881 2131 
z
" id="DejaVuSans-Bold-65" transform="scale(0.015625)"/>
      <path d="M 2106 1575 
Q 1756 1575 1579 1456 
Q 1403 1338 1403 1106 
Q 1403 894 1545 773 
Q 1688 653 1941 653 
Q 2256 653 2472 879 
Q 2688 1106 2688 1447 
L 2688 1575 
L 2106 1575 
z
M 3816 1997 
L 3816 0 
L 2688 0 
L 2688 519 
Q 2463 200 2181 54 
Q 1900 -91 1497 -91 
Q 953 -91 614 226 
Q 275 544 275 1050 
Q 275 1666 698 1953 
Q 1122 2241 2028 2241 
L 2688 2241 
L 2688 2328 
Q 2688 2594 2478 2717 
Q 2269 2841 1825 2841 
Q 1466 2841 1156 2769 
Q 847 2697 581 2553 
L 581 3406 
Q 941 3494 1303 3539 
Q 1666 3584 2028 3584 
Q 2975 3584 3395 3211 
Q 3816 2838 3816 1997 
z
" id="DejaVuSans-Bold-61" transform="scale(0.015625)"/>
      <path id="DejaVuSans-Bold-20" transform="scale(0.015625)"/>
      <path d="M 1759 4494 
L 1759 3500 
L 2913 3500 
L 2913 2700 
L 1759 2700 
L 1759 1216 
Q 1759 972 1856 886 
Q 1953 800 2241 800 
L 2816 800 
L 2816 0 
L 1856 0 
Q 1194 0 917 276 
Q 641 553 641 1216 
L 641 2700 
L 84 2700 
L 84 3500 
L 641 3500 
L 641 4494 
L 1759 4494 
z
" id="DejaVuSans-Bold-74" transform="scale(0.015625)"/>
      <path d="M 3781 2919 
Q 3994 3244 4286 3414 
Q 4578 3584 4928 3584 
Q 5531 3584 5847 3212 
Q 6163 2841 6163 2131 
L 6163 0 
L 5038 0 
L 5038 1825 
Q 5041 1866 5042 1909 
Q 5044 1953 5044 2034 
Q 5044 2406 4934 2573 
Q 4825 2741 4581 2741 
Q 4263 2741 4089 2478 
Q 3916 2216 3909 1719 
L 3909 0 
L 2784 0 
L 2784 1825 
Q 2784 2406 2684 2573 
Q 2584 2741 2328 2741 
Q 2006 2741 1831 2477 
Q 1656 2213 1656 1722 
L 1656 0 
L 531 0 
L 531 3500 
L 1656 3500 
L 1656 2988 
Q 1863 3284 2130 3434 
Q 2397 3584 2719 3584 
Q 3081 3584 3359 3409 
Q 3638 3234 3781 2919 
z
" id="DejaVuSans-Bold-6d" transform="scale(0.015625)"/>
      <path d="M 538 4863 
L 1656 4863 
L 1656 0 
L 538 0 
L 538 4863 
z
" id="DejaVuSans-Bold-6c" transform="scale(0.015625)"/>
      <path d="M 4056 2131 
L 4056 0 
L 2931 0 
L 2931 347 
L 2931 1631 
Q 2931 2084 2911 2256 
Q 2891 2428 2841 2509 
Q 2775 2619 2662 2680 
Q 2550 2741 2406 2741 
Q 2056 2741 1856 2470 
Q 1656 2200 1656 1722 
L 1656 0 
L 538 0 
L 538 3500 
L 1656 3500 
L 1656 2988 
Q 1909 3294 2193 3439 
Q 2478 3584 2822 3584 
Q 3428 3584 3742 3212 
Q 4056 2841 4056 2131 
z
" id="DejaVuSans-Bold-6e" transform="scale(0.015625)"/>
     </defs>
     <use xlink:href="#DejaVuSans-Bold-44"/>
     <use x="83.007812" xlink:href="#DejaVuSans-Bold-69"/>
     <use x="117.285156" xlink:href="#DejaVuSans-Bold-73"/>
     <use x="176.806641" xlink:href="#DejaVuSans-Bold-65"/>
     <use x="244.628906" xlink:href="#DejaVuSans-Bold-61"/>
     <use x="312.109375" xlink:href="#DejaVuSans-Bold-73"/>
     <use x="371.630859" xlink:href="#DejaVuSans-Bold-65"/>
     <use x="439.453125" xlink:href="#DejaVuSans-Bold-20"/>
     <use x="474.267578" xlink:href="#DejaVuSans-Bold-74"/>
     <use x="522.070312" xlink:href="#DejaVuSans-Bold-69"/>
     <use x="556.347656" xlink:href="#DejaVuSans-Bold-6d"/>
     <use x="660.546875" xlink:href="#DejaVuSans-Bold-65"/>
     <use x="728.369141" xlink:href="#DejaVuSans-Bold-6c"/>
     <use x="762.646484" xlink:href="#DejaVuSans-Bold-69"/>
     <use x="796.923828" xlink:href="#DejaVuSans-Bold-6e"/>
     <use x="868.115234" xlink:href="#DejaVuSans-Bold-65"/>
    </g>
   </g>
   <g id="legend_1">
    <g id="patch_7">
     <path d="M 730.568381 70.21 
L 843.4301 70.21 
Q 845.6301 70.21 845.6301 68.01 
L 845.6301 36.818125 
Q 845.6301 34.618125 843.4301 34.618125 
L 730.568381 34.618125 
Q 728.368381 34.618125 728.368381 36.818125 
L 728.368381 68.01 
Q 728.368381 70.21 730.568381 70.21 
z
" style="fill:#ffffff;opacity:0.8;stroke:#cccccc;stroke-linejoin:miter;"/>
    </g>
    <g id="line2d_149">
     <path d="M 732.768381 43.526406 
L 754.768381 43.526406 
" style="fill:none;stroke:#ffc0cb;stroke-linecap:round;stroke-width:1.5;"/>
    </g>
    <g id="line2d_150"/>
    <g id="text_32">
     <!-- Hospitalized -->
     <g style="fill:#262626;" transform="translate(763.568381 47.376406)scale(0.11 -0.11)">
      <defs>
       <path d="M 628 4666 
L 1259 4666 
L 1259 2753 
L 3553 2753 
L 3553 4666 
L 4184 4666 
L 4184 0 
L 3553 0 
L 3553 2222 
L 1259 2222 
L 1259 0 
L 628 0 
L 628 4666 
z
" id="DejaVuSans-48" transform="scale(0.015625)"/>
       <path d="M 1959 3097 
Q 1497 3097 1228 2736 
Q 959 2375 959 1747 
Q 959 1119 1226 758 
Q 1494 397 1959 397 
Q 2419 397 2687 759 
Q 2956 1122 2956 1747 
Q 2956 2369 2687 2733 
Q 2419 3097 1959 3097 
z
M 1959 3584 
Q 2709 3584 3137 3096 
Q 3566 2609 3566 1747 
Q 3566 888 3137 398 
Q 2709 -91 1959 -91 
Q 1206 -91 779 398 
Q 353 888 353 1747 
Q 353 2609 779 3096 
Q 1206 3584 1959 3584 
z
" id="DejaVuSans-6f" transform="scale(0.015625)"/>
       <path d="M 603 3500 
L 1178 3500 
L 1178 0 
L 603 0 
L 603 3500 
z
M 603 4863 
L 1178 4863 
L 1178 4134 
L 603 4134 
L 603 4863 
z
" id="DejaVuSans-69" transform="scale(0.015625)"/>
       <path d="M 603 4863 
L 1178 4863 
L 1178 0 
L 603 0 
L 603 4863 
z
" id="DejaVuSans-6c" transform="scale(0.015625)"/>
       <path d="M 353 3500 
L 3084 3500 
L 3084 2975 
L 922 459 
L 3084 459 
L 3084 0 
L 275 0 
L 275 525 
L 2438 3041 
L 353 3041 
L 353 3500 
z
" id="DejaVuSans-7a" transform="scale(0.015625)"/>
      </defs>
      <use xlink:href="#DejaVuSans-48"/>
      <use x="75.195312" xlink:href="#DejaVuSans-6f"/>
      <use x="136.376953" xlink:href="#DejaVuSans-73"/>
      <use x="188.476562" xlink:href="#DejaVuSans-70"/>
      <use x="251.953125" xlink:href="#DejaVuSans-69"/>
      <use x="279.736328" xlink:href="#DejaVuSans-74"/>
      <use x="318.945312" xlink:href="#DejaVuSans-61"/>
      <use x="380.224609" xlink:href="#DejaVuSans-6c"/>
      <use x="408.007812" xlink:href="#DejaVuSans-69"/>
      <use x="435.791016" xlink:href="#DejaVuSans-7a"/>
      <use x="488.28125" xlink:href="#DejaVuSans-65"/>
      <use x="549.804688" xlink:href="#DejaVuSans-64"/>
     </g>
    </g>
    <g id="line2d_151">
     <path d="M 732.768381 59.672344 
L 754.768381 59.672344 
" style="fill:none;stroke:#800080;stroke-linecap:round;stroke-width:1.5;"/>
    </g>
    <g id="line2d_152"/>
    <g id="text_33">
     <!-- Intensive care -->
     <g style="fill:#262626;" transform="translate(763.568381 63.522344)scale(0.11 -0.11)">
      <defs>
       <path d="M 628 4666 
L 1259 4666 
L 1259 0 
L 628 0 
L 628 4666 
z
" id="DejaVuSans-49" transform="scale(0.015625)"/>
       <path d="M 3513 2113 
L 3513 0 
L 2938 0 
L 2938 2094 
Q 2938 2591 2744 2837 
Q 2550 3084 2163 3084 
Q 1697 3084 1428 2787 
Q 1159 2491 1159 1978 
L 1159 0 
L 581 0 
L 581 3500 
L 1159 3500 
L 1159 2956 
Q 1366 3272 1645 3428 
Q 1925 3584 2291 3584 
Q 2894 3584 3203 3211 
Q 3513 2838 3513 2113 
z
" id="DejaVuSans-6e" transform="scale(0.015625)"/>
       <path d="M 191 3500 
L 800 3500 
L 1894 563 
L 2988 3500 
L 3597 3500 
L 2284 0 
L 1503 0 
L 191 3500 
z
" id="DejaVuSans-76" transform="scale(0.015625)"/>
       <path d="M 3122 3366 
L 3122 2828 
Q 2878 2963 2633 3030 
Q 2388 3097 2138 3097 
Q 1578 3097 1268 2742 
Q 959 2388 959 1747 
Q 959 1106 1268 751 
Q 1578 397 2138 397 
Q 2388 397 2633 464 
Q 2878 531 3122 666 
L 3122 134 
Q 2881 22 2623 -34 
Q 2366 -91 2075 -91 
Q 1284 -91 818 406 
Q 353 903 353 1747 
Q 353 2603 823 3093 
Q 1294 3584 2113 3584 
Q 2378 3584 2631 3529 
Q 2884 3475 3122 3366 
z
" id="DejaVuSans-63" transform="scale(0.015625)"/>
       <path d="M 2631 2963 
Q 2534 3019 2420 3045 
Q 2306 3072 2169 3072 
Q 1681 3072 1420 2755 
Q 1159 2438 1159 1844 
L 1159 0 
L 581 0 
L 581 3500 
L 1159 3500 
L 1159 2956 
Q 1341 3275 1631 3429 
Q 1922 3584 2338 3584 
Q 2397 3584 2469 3576 
Q 2541 3569 2628 3553 
L 2631 2963 
z
" id="DejaVuSans-72" transform="scale(0.015625)"/>
      </defs>
      <use xlink:href="#DejaVuSans-49"/>
      <use x="29.492188" xlink:href="#DejaVuSans-6e"/>
      <use x="92.871094" xlink:href="#DejaVuSans-74"/>
      <use x="132.080078" xlink:href="#DejaVuSans-65"/>
      <use x="193.603516" xlink:href="#DejaVuSans-6e"/>
      <use x="256.982422" xlink:href="#DejaVuSans-73"/>
      <use x="309.082031" xlink:href="#DejaVuSans-69"/>
      <use x="336.865234" xlink:href="#DejaVuSans-76"/>
      <use x="396.044922" xlink:href="#DejaVuSans-65"/>
      <use x="457.568359" xlink:href="#DejaVuSans-20"/>
      <use x="489.355469" xlink:href="#DejaVuSans-63"/>
      <use x="544.335938" xlink:href="#DejaVuSans-61"/>
      <use x="605.615234" xlink:href="#DejaVuSans-72"/>
      <use x="644.478516" xlink:href="#DejaVuSans-65"/>
     </g>
    </g>
   </g>
  </g>
 </g>
 <defs>
  <clipPath id="p9fbc17a61f">
   <rect height="464.167888" width="791.0226" x="60.1075" y="29.118125"/>
  </clipPath>
 </defs>
</svg>
