<?xml version="1.0" encoding="utf-8" standalone="no"?>
<!DOCTYPE svg PUBLIC "-//W3C//DTD SVG 1.1//EN"
  "http://www.w3.org/Graphics/SVG/1.1/DTD/svg11.dtd">
<svg height="570.462488pt" version="1.1" viewBox="0 0 862.605025 570.462488" width="862.605025pt" xmlns="http://www.w3.org/2000/svg" xmlns:xlink="http://www.w3.org/1999/xlink">
 <metadata>
  <rdf:RDF xmlns:cc="http://creativecommons.org/ns#" xmlns:dc="http://purl.org/dc/elements/1.1/" xmlns:rdf="http://www.w3.org/1999/02/22-rdf-syntax-ns#">
   <cc:Work>
    <dc:type rdf:resource="http://purl.org/dc/dcmitype/StillImage"/>
    <dc:date>2021-11-02T10:28:56.388449</dc:date>
    <dc:format>image/svg+xml</dc:format>
    <dc:creator>
     <cc:Agent>
      <dc:title>Matplotlib v3.4.3, https://matplotlib.org/</dc:title>
     </cc:Agent>
    </dc:creator>
   </cc:Work>
  </rdf:RDF>
 </metadata>
 <defs>
  <style type="text/css">*{stroke-linecap:butt;stroke-linejoin:round;}</style>
 </defs>
 <g id="figure_1">
  <g id="patch_1">
   <path d="M 0 570.462488 
L 862.605025 570.462488 
L 862.605025 0 
L 0 0 
z
" style="fill:none;"/>
  </g>
  <g id="axes_1">
   <g id="patch_2">
    <path d="M 59.096875 493.286013 
L 791.112525 493.286013 
L 791.112525 29.118125 
L 59.096875 29.118125 
z
" style="fill:none;"/>
   </g>
   <g id="matplotlib.axis_1">
    <g id="xtick_1">
     <g id="line2d_1">
      <path clip-path="url(#p2f0506fa0c)" d="M 100.901965 493.286013 
L 100.901965 29.118125 
" style="fill:none;stroke:#cccccc;stroke-linecap:round;"/>
     </g>
     <g id="line2d_2">
      <defs>
       <path d="M 0 0 
L 0 6 
" id="m4aab6bdc0a" style="stroke:#262626;stroke-width:1.25;"/>
      </defs>
      <g>
       <use style="fill:#262626;stroke:#262626;stroke-width:1.25;" x="100.901965" xlink:href="#m4aab6bdc0a" y="493.286013"/>
      </g>
     </g>
     <g id="text_1">
      <!-- 02.01.2021 -->
      <g style="fill:#262626;" transform="translate(54.749436 553.231121)rotate(-45)scale(0.11 -0.11)">
       <defs>
        <path d="M 2034 4250 
Q 1547 4250 1301 3770 
Q 1056 3291 1056 2328 
Q 1056 1369 1301 889 
Q 1547 409 2034 409 
Q 2525 409 2770 889 
Q 3016 1369 3016 2328 
Q 3016 3291 2770 3770 
Q 2525 4250 2034 4250 
z
M 2034 4750 
Q 2819 4750 3233 4129 
Q 3647 3509 3647 2328 
Q 3647 1150 3233 529 
Q 2819 -91 2034 -91 
Q 1250 -91 836 529 
Q 422 1150 422 2328 
Q 422 3509 836 4129 
Q 1250 4750 2034 4750 
z
" id="DejaVuSans-30" transform="scale(0.015625)"/>
        <path d="M 1228 531 
L 3431 531 
L 3431 0 
L 469 0 
L 469 531 
Q 828 903 1448 1529 
Q 2069 2156 2228 2338 
Q 2531 2678 2651 2914 
Q 2772 3150 2772 3378 
Q 2772 3750 2511 3984 
Q 2250 4219 1831 4219 
Q 1534 4219 1204 4116 
Q 875 4013 500 3803 
L 500 4441 
Q 881 4594 1212 4672 
Q 1544 4750 1819 4750 
Q 2544 4750 2975 4387 
Q 3406 4025 3406 3419 
Q 3406 3131 3298 2873 
Q 3191 2616 2906 2266 
Q 2828 2175 2409 1742 
Q 1991 1309 1228 531 
z
" id="DejaVuSans-32" transform="scale(0.015625)"/>
        <path d="M 684 794 
L 1344 794 
L 1344 0 
L 684 0 
L 684 794 
z
" id="DejaVuSans-2e" transform="scale(0.015625)"/>
        <path d="M 794 531 
L 1825 531 
L 1825 4091 
L 703 3866 
L 703 4441 
L 1819 4666 
L 2450 4666 
L 2450 531 
L 3481 531 
L 3481 0 
L 794 0 
L 794 531 
z
" id="DejaVuSans-31" transform="scale(0.015625)"/>
       </defs>
       <use xlink:href="#DejaVuSans-30"/>
       <use x="63.623047" xlink:href="#DejaVuSans-32"/>
       <use x="127.246094" xlink:href="#DejaVuSans-2e"/>
       <use x="159.033203" xlink:href="#DejaVuSans-30"/>
       <use x="222.65625" xlink:href="#DejaVuSans-31"/>
       <use x="286.279297" xlink:href="#DejaVuSans-2e"/>
       <use x="318.066406" xlink:href="#DejaVuSans-32"/>
       <use x="381.689453" xlink:href="#DejaVuSans-30"/>
       <use x="445.3125" xlink:href="#DejaVuSans-32"/>
       <use x="508.935547" xlink:href="#DejaVuSans-31"/>
      </g>
     </g>
    </g>
    <g id="xtick_2">
     <g id="line2d_3">
      <path clip-path="url(#p2f0506fa0c)" d="M 130.762743 493.286013 
L 130.762743 29.118125 
" style="fill:none;stroke:#cccccc;stroke-linecap:round;"/>
     </g>
     <g id="line2d_4">
      <g>
       <use style="fill:#262626;stroke:#262626;stroke-width:1.25;" x="130.762743" xlink:href="#m4aab6bdc0a" y="493.286013"/>
      </g>
     </g>
     <g id="text_2">
      <!-- 16.01.2021 -->
      <g style="fill:#262626;" transform="translate(84.610215 553.231121)rotate(-45)scale(0.11 -0.11)">
       <defs>
        <path d="M 2113 2584 
Q 1688 2584 1439 2293 
Q 1191 2003 1191 1497 
Q 1191 994 1439 701 
Q 1688 409 2113 409 
Q 2538 409 2786 701 
Q 3034 994 3034 1497 
Q 3034 2003 2786 2293 
Q 2538 2584 2113 2584 
z
M 3366 4563 
L 3366 3988 
Q 3128 4100 2886 4159 
Q 2644 4219 2406 4219 
Q 1781 4219 1451 3797 
Q 1122 3375 1075 2522 
Q 1259 2794 1537 2939 
Q 1816 3084 2150 3084 
Q 2853 3084 3261 2657 
Q 3669 2231 3669 1497 
Q 3669 778 3244 343 
Q 2819 -91 2113 -91 
Q 1303 -91 875 529 
Q 447 1150 447 2328 
Q 447 3434 972 4092 
Q 1497 4750 2381 4750 
Q 2619 4750 2861 4703 
Q 3103 4656 3366 4563 
z
" id="DejaVuSans-36" transform="scale(0.015625)"/>
       </defs>
       <use xlink:href="#DejaVuSans-31"/>
       <use x="63.623047" xlink:href="#DejaVuSans-36"/>
       <use x="127.246094" xlink:href="#DejaVuSans-2e"/>
       <use x="159.033203" xlink:href="#DejaVuSans-30"/>
       <use x="222.65625" xlink:href="#DejaVuSans-31"/>
       <use x="286.279297" xlink:href="#DejaVuSans-2e"/>
       <use x="318.066406" xlink:href="#DejaVuSans-32"/>
       <use x="381.689453" xlink:href="#DejaVuSans-30"/>
       <use x="445.3125" xlink:href="#DejaVuSans-32"/>
       <use x="508.935547" xlink:href="#DejaVuSans-31"/>
      </g>
     </g>
    </g>
    <g id="xtick_3">
     <g id="line2d_5">
      <path clip-path="url(#p2f0506fa0c)" d="M 160.623521 493.286013 
L 160.623521 29.118125 
" style="fill:none;stroke:#cccccc;stroke-linecap:round;"/>
     </g>
     <g id="line2d_6">
      <g>
       <use style="fill:#262626;stroke:#262626;stroke-width:1.25;" x="160.623521" xlink:href="#m4aab6bdc0a" y="493.286013"/>
      </g>
     </g>
     <g id="text_3">
      <!-- 30.01.2021 -->
      <g style="fill:#262626;" transform="translate(114.470993 553.231121)rotate(-45)scale(0.11 -0.11)">
       <defs>
        <path d="M 2597 2516 
Q 3050 2419 3304 2112 
Q 3559 1806 3559 1356 
Q 3559 666 3084 287 
Q 2609 -91 1734 -91 
Q 1441 -91 1130 -33 
Q 819 25 488 141 
L 488 750 
Q 750 597 1062 519 
Q 1375 441 1716 441 
Q 2309 441 2620 675 
Q 2931 909 2931 1356 
Q 2931 1769 2642 2001 
Q 2353 2234 1838 2234 
L 1294 2234 
L 1294 2753 
L 1863 2753 
Q 2328 2753 2575 2939 
Q 2822 3125 2822 3475 
Q 2822 3834 2567 4026 
Q 2313 4219 1838 4219 
Q 1578 4219 1281 4162 
Q 984 4106 628 3988 
L 628 4550 
Q 988 4650 1302 4700 
Q 1616 4750 1894 4750 
Q 2613 4750 3031 4423 
Q 3450 4097 3450 3541 
Q 3450 3153 3228 2886 
Q 3006 2619 2597 2516 
z
" id="DejaVuSans-33" transform="scale(0.015625)"/>
       </defs>
       <use xlink:href="#DejaVuSans-33"/>
       <use x="63.623047" xlink:href="#DejaVuSans-30"/>
       <use x="127.246094" xlink:href="#DejaVuSans-2e"/>
       <use x="159.033203" xlink:href="#DejaVuSans-30"/>
       <use x="222.65625" xlink:href="#DejaVuSans-31"/>
       <use x="286.279297" xlink:href="#DejaVuSans-2e"/>
       <use x="318.066406" xlink:href="#DejaVuSans-32"/>
       <use x="381.689453" xlink:href="#DejaVuSans-30"/>
       <use x="445.3125" xlink:href="#DejaVuSans-32"/>
       <use x="508.935547" xlink:href="#DejaVuSans-31"/>
      </g>
     </g>
    </g>
    <g id="xtick_4">
     <g id="line2d_7">
      <path clip-path="url(#p2f0506fa0c)" d="M 190.484299 493.286013 
L 190.484299 29.118125 
" style="fill:none;stroke:#cccccc;stroke-linecap:round;"/>
     </g>
     <g id="line2d_8">
      <g>
       <use style="fill:#262626;stroke:#262626;stroke-width:1.25;" x="190.484299" xlink:href="#m4aab6bdc0a" y="493.286013"/>
      </g>
     </g>
     <g id="text_4">
      <!-- 13.02.2021 -->
      <g style="fill:#262626;" transform="translate(144.331771 553.231121)rotate(-45)scale(0.11 -0.11)">
       <use xlink:href="#DejaVuSans-31"/>
       <use x="63.623047" xlink:href="#DejaVuSans-33"/>
       <use x="127.246094" xlink:href="#DejaVuSans-2e"/>
       <use x="159.033203" xlink:href="#DejaVuSans-30"/>
       <use x="222.65625" xlink:href="#DejaVuSans-32"/>
       <use x="286.279297" xlink:href="#DejaVuSans-2e"/>
       <use x="318.066406" xlink:href="#DejaVuSans-32"/>
       <use x="381.689453" xlink:href="#DejaVuSans-30"/>
       <use x="445.3125" xlink:href="#DejaVuSans-32"/>
       <use x="508.935547" xlink:href="#DejaVuSans-31"/>
      </g>
     </g>
    </g>
    <g id="xtick_5">
     <g id="line2d_9">
      <path clip-path="url(#p2f0506fa0c)" d="M 220.345078 493.286013 
L 220.345078 29.118125 
" style="fill:none;stroke:#cccccc;stroke-linecap:round;"/>
     </g>
     <g id="line2d_10">
      <g>
       <use style="fill:#262626;stroke:#262626;stroke-width:1.25;" x="220.345078" xlink:href="#m4aab6bdc0a" y="493.286013"/>
      </g>
     </g>
     <g id="text_5">
      <!-- 27.02.2021 -->
      <g style="fill:#262626;" transform="translate(174.192549 553.231121)rotate(-45)scale(0.11 -0.11)">
       <defs>
        <path d="M 525 4666 
L 3525 4666 
L 3525 4397 
L 1831 0 
L 1172 0 
L 2766 4134 
L 525 4134 
L 525 4666 
z
" id="DejaVuSans-37" transform="scale(0.015625)"/>
       </defs>
       <use xlink:href="#DejaVuSans-32"/>
       <use x="63.623047" xlink:href="#DejaVuSans-37"/>
       <use x="127.246094" xlink:href="#DejaVuSans-2e"/>
       <use x="159.033203" xlink:href="#DejaVuSans-30"/>
       <use x="222.65625" xlink:href="#DejaVuSans-32"/>
       <use x="286.279297" xlink:href="#DejaVuSans-2e"/>
       <use x="318.066406" xlink:href="#DejaVuSans-32"/>
       <use x="381.689453" xlink:href="#DejaVuSans-30"/>
       <use x="445.3125" xlink:href="#DejaVuSans-32"/>
       <use x="508.935547" xlink:href="#DejaVuSans-31"/>
      </g>
     </g>
    </g>
    <g id="xtick_6">
     <g id="line2d_11">
      <path clip-path="url(#p2f0506fa0c)" d="M 250.205856 493.286013 
L 250.205856 29.118125 
" style="fill:none;stroke:#cccccc;stroke-linecap:round;"/>
     </g>
     <g id="line2d_12">
      <g>
       <use style="fill:#262626;stroke:#262626;stroke-width:1.25;" x="250.205856" xlink:href="#m4aab6bdc0a" y="493.286013"/>
      </g>
     </g>
     <g id="text_6">
      <!-- 13.03.2021 -->
      <g style="fill:#262626;" transform="translate(204.053328 553.231121)rotate(-45)scale(0.11 -0.11)">
       <use xlink:href="#DejaVuSans-31"/>
       <use x="63.623047" xlink:href="#DejaVuSans-33"/>
       <use x="127.246094" xlink:href="#DejaVuSans-2e"/>
       <use x="159.033203" xlink:href="#DejaVuSans-30"/>
       <use x="222.65625" xlink:href="#DejaVuSans-33"/>
       <use x="286.279297" xlink:href="#DejaVuSans-2e"/>
       <use x="318.066406" xlink:href="#DejaVuSans-32"/>
       <use x="381.689453" xlink:href="#DejaVuSans-30"/>
       <use x="445.3125" xlink:href="#DejaVuSans-32"/>
       <use x="508.935547" xlink:href="#DejaVuSans-31"/>
      </g>
     </g>
    </g>
    <g id="xtick_7">
     <g id="line2d_13">
      <path clip-path="url(#p2f0506fa0c)" d="M 280.066634 493.286013 
L 280.066634 29.118125 
" style="fill:none;stroke:#cccccc;stroke-linecap:round;"/>
     </g>
     <g id="line2d_14">
      <g>
       <use style="fill:#262626;stroke:#262626;stroke-width:1.25;" x="280.066634" xlink:href="#m4aab6bdc0a" y="493.286013"/>
      </g>
     </g>
     <g id="text_7">
      <!-- 27.03.2021 -->
      <g style="fill:#262626;" transform="translate(233.914106 553.231121)rotate(-45)scale(0.11 -0.11)">
       <use xlink:href="#DejaVuSans-32"/>
       <use x="63.623047" xlink:href="#DejaVuSans-37"/>
       <use x="127.246094" xlink:href="#DejaVuSans-2e"/>
       <use x="159.033203" xlink:href="#DejaVuSans-30"/>
       <use x="222.65625" xlink:href="#DejaVuSans-33"/>
       <use x="286.279297" xlink:href="#DejaVuSans-2e"/>
       <use x="318.066406" xlink:href="#DejaVuSans-32"/>
       <use x="381.689453" xlink:href="#DejaVuSans-30"/>
       <use x="445.3125" xlink:href="#DejaVuSans-32"/>
       <use x="508.935547" xlink:href="#DejaVuSans-31"/>
      </g>
     </g>
    </g>
    <g id="xtick_8">
     <g id="line2d_15">
      <path clip-path="url(#p2f0506fa0c)" d="M 309.927412 493.286013 
L 309.927412 29.118125 
" style="fill:none;stroke:#cccccc;stroke-linecap:round;"/>
     </g>
     <g id="line2d_16">
      <g>
       <use style="fill:#262626;stroke:#262626;stroke-width:1.25;" x="309.927412" xlink:href="#m4aab6bdc0a" y="493.286013"/>
      </g>
     </g>
     <g id="text_8">
      <!-- 10.04.2021 -->
      <g style="fill:#262626;" transform="translate(263.774884 553.231121)rotate(-45)scale(0.11 -0.11)">
       <defs>
        <path d="M 2419 4116 
L 825 1625 
L 2419 1625 
L 2419 4116 
z
M 2253 4666 
L 3047 4666 
L 3047 1625 
L 3713 1625 
L 3713 1100 
L 3047 1100 
L 3047 0 
L 2419 0 
L 2419 1100 
L 313 1100 
L 313 1709 
L 2253 4666 
z
" id="DejaVuSans-34" transform="scale(0.015625)"/>
       </defs>
       <use xlink:href="#DejaVuSans-31"/>
       <use x="63.623047" xlink:href="#DejaVuSans-30"/>
       <use x="127.246094" xlink:href="#DejaVuSans-2e"/>
       <use x="159.033203" xlink:href="#DejaVuSans-30"/>
       <use x="222.65625" xlink:href="#DejaVuSans-34"/>
       <use x="286.279297" xlink:href="#DejaVuSans-2e"/>
       <use x="318.066406" xlink:href="#DejaVuSans-32"/>
       <use x="381.689453" xlink:href="#DejaVuSans-30"/>
       <use x="445.3125" xlink:href="#DejaVuSans-32"/>
       <use x="508.935547" xlink:href="#DejaVuSans-31"/>
      </g>
     </g>
    </g>
    <g id="xtick_9">
     <g id="line2d_17">
      <path clip-path="url(#p2f0506fa0c)" d="M 339.788191 493.286013 
L 339.788191 29.118125 
" style="fill:none;stroke:#cccccc;stroke-linecap:round;"/>
     </g>
     <g id="line2d_18">
      <g>
       <use style="fill:#262626;stroke:#262626;stroke-width:1.25;" x="339.788191" xlink:href="#m4aab6bdc0a" y="493.286013"/>
      </g>
     </g>
     <g id="text_9">
      <!-- 24.04.2021 -->
      <g style="fill:#262626;" transform="translate(293.635663 553.231121)rotate(-45)scale(0.11 -0.11)">
       <use xlink:href="#DejaVuSans-32"/>
       <use x="63.623047" xlink:href="#DejaVuSans-34"/>
       <use x="127.246094" xlink:href="#DejaVuSans-2e"/>
       <use x="159.033203" xlink:href="#DejaVuSans-30"/>
       <use x="222.65625" xlink:href="#DejaVuSans-34"/>
       <use x="286.279297" xlink:href="#DejaVuSans-2e"/>
       <use x="318.066406" xlink:href="#DejaVuSans-32"/>
       <use x="381.689453" xlink:href="#DejaVuSans-30"/>
       <use x="445.3125" xlink:href="#DejaVuSans-32"/>
       <use x="508.935547" xlink:href="#DejaVuSans-31"/>
      </g>
     </g>
    </g>
    <g id="xtick_10">
     <g id="line2d_19">
      <path clip-path="url(#p2f0506fa0c)" d="M 369.648969 493.286013 
L 369.648969 29.118125 
" style="fill:none;stroke:#cccccc;stroke-linecap:round;"/>
     </g>
     <g id="line2d_20">
      <g>
       <use style="fill:#262626;stroke:#262626;stroke-width:1.25;" x="369.648969" xlink:href="#m4aab6bdc0a" y="493.286013"/>
      </g>
     </g>
     <g id="text_10">
      <!-- 08.05.2021 -->
      <g style="fill:#262626;" transform="translate(323.496441 553.231121)rotate(-45)scale(0.11 -0.11)">
       <defs>
        <path d="M 2034 2216 
Q 1584 2216 1326 1975 
Q 1069 1734 1069 1313 
Q 1069 891 1326 650 
Q 1584 409 2034 409 
Q 2484 409 2743 651 
Q 3003 894 3003 1313 
Q 3003 1734 2745 1975 
Q 2488 2216 2034 2216 
z
M 1403 2484 
Q 997 2584 770 2862 
Q 544 3141 544 3541 
Q 544 4100 942 4425 
Q 1341 4750 2034 4750 
Q 2731 4750 3128 4425 
Q 3525 4100 3525 3541 
Q 3525 3141 3298 2862 
Q 3072 2584 2669 2484 
Q 3125 2378 3379 2068 
Q 3634 1759 3634 1313 
Q 3634 634 3220 271 
Q 2806 -91 2034 -91 
Q 1263 -91 848 271 
Q 434 634 434 1313 
Q 434 1759 690 2068 
Q 947 2378 1403 2484 
z
M 1172 3481 
Q 1172 3119 1398 2916 
Q 1625 2713 2034 2713 
Q 2441 2713 2670 2916 
Q 2900 3119 2900 3481 
Q 2900 3844 2670 4047 
Q 2441 4250 2034 4250 
Q 1625 4250 1398 4047 
Q 1172 3844 1172 3481 
z
" id="DejaVuSans-38" transform="scale(0.015625)"/>
        <path d="M 691 4666 
L 3169 4666 
L 3169 4134 
L 1269 4134 
L 1269 2991 
Q 1406 3038 1543 3061 
Q 1681 3084 1819 3084 
Q 2600 3084 3056 2656 
Q 3513 2228 3513 1497 
Q 3513 744 3044 326 
Q 2575 -91 1722 -91 
Q 1428 -91 1123 -41 
Q 819 9 494 109 
L 494 744 
Q 775 591 1075 516 
Q 1375 441 1709 441 
Q 2250 441 2565 725 
Q 2881 1009 2881 1497 
Q 2881 1984 2565 2268 
Q 2250 2553 1709 2553 
Q 1456 2553 1204 2497 
Q 953 2441 691 2322 
L 691 4666 
z
" id="DejaVuSans-35" transform="scale(0.015625)"/>
       </defs>
       <use xlink:href="#DejaVuSans-30"/>
       <use x="63.623047" xlink:href="#DejaVuSans-38"/>
       <use x="127.246094" xlink:href="#DejaVuSans-2e"/>
       <use x="159.033203" xlink:href="#DejaVuSans-30"/>
       <use x="222.65625" xlink:href="#DejaVuSans-35"/>
       <use x="286.279297" xlink:href="#DejaVuSans-2e"/>
       <use x="318.066406" xlink:href="#DejaVuSans-32"/>
       <use x="381.689453" xlink:href="#DejaVuSans-30"/>
       <use x="445.3125" xlink:href="#DejaVuSans-32"/>
       <use x="508.935547" xlink:href="#DejaVuSans-31"/>
      </g>
     </g>
    </g>
    <g id="xtick_11">
     <g id="line2d_21">
      <path clip-path="url(#p2f0506fa0c)" d="M 399.509747 493.286013 
L 399.509747 29.118125 
" style="fill:none;stroke:#cccccc;stroke-linecap:round;"/>
     </g>
     <g id="line2d_22">
      <g>
       <use style="fill:#262626;stroke:#262626;stroke-width:1.25;" x="399.509747" xlink:href="#m4aab6bdc0a" y="493.286013"/>
      </g>
     </g>
     <g id="text_11">
      <!-- 22.05.2021 -->
      <g style="fill:#262626;" transform="translate(353.357219 553.231121)rotate(-45)scale(0.11 -0.11)">
       <use xlink:href="#DejaVuSans-32"/>
       <use x="63.623047" xlink:href="#DejaVuSans-32"/>
       <use x="127.246094" xlink:href="#DejaVuSans-2e"/>
       <use x="159.033203" xlink:href="#DejaVuSans-30"/>
       <use x="222.65625" xlink:href="#DejaVuSans-35"/>
       <use x="286.279297" xlink:href="#DejaVuSans-2e"/>
       <use x="318.066406" xlink:href="#DejaVuSans-32"/>
       <use x="381.689453" xlink:href="#DejaVuSans-30"/>
       <use x="445.3125" xlink:href="#DejaVuSans-32"/>
       <use x="508.935547" xlink:href="#DejaVuSans-31"/>
      </g>
     </g>
    </g>
    <g id="xtick_12">
     <g id="line2d_23">
      <path clip-path="url(#p2f0506fa0c)" d="M 429.370525 493.286013 
L 429.370525 29.118125 
" style="fill:none;stroke:#cccccc;stroke-linecap:round;"/>
     </g>
     <g id="line2d_24">
      <g>
       <use style="fill:#262626;stroke:#262626;stroke-width:1.25;" x="429.370525" xlink:href="#m4aab6bdc0a" y="493.286013"/>
      </g>
     </g>
     <g id="text_12">
      <!-- 05.06.2021 -->
      <g style="fill:#262626;" transform="translate(383.217997 553.231121)rotate(-45)scale(0.11 -0.11)">
       <use xlink:href="#DejaVuSans-30"/>
       <use x="63.623047" xlink:href="#DejaVuSans-35"/>
       <use x="127.246094" xlink:href="#DejaVuSans-2e"/>
       <use x="159.033203" xlink:href="#DejaVuSans-30"/>
       <use x="222.65625" xlink:href="#DejaVuSans-36"/>
       <use x="286.279297" xlink:href="#DejaVuSans-2e"/>
       <use x="318.066406" xlink:href="#DejaVuSans-32"/>
       <use x="381.689453" xlink:href="#DejaVuSans-30"/>
       <use x="445.3125" xlink:href="#DejaVuSans-32"/>
       <use x="508.935547" xlink:href="#DejaVuSans-31"/>
      </g>
     </g>
    </g>
    <g id="xtick_13">
     <g id="line2d_25">
      <path clip-path="url(#p2f0506fa0c)" d="M 459.231304 493.286013 
L 459.231304 29.118125 
" style="fill:none;stroke:#cccccc;stroke-linecap:round;"/>
     </g>
     <g id="line2d_26">
      <g>
       <use style="fill:#262626;stroke:#262626;stroke-width:1.25;" x="459.231304" xlink:href="#m4aab6bdc0a" y="493.286013"/>
      </g>
     </g>
     <g id="text_13">
      <!-- 19.06.2021 -->
      <g style="fill:#262626;" transform="translate(413.078776 553.231121)rotate(-45)scale(0.11 -0.11)">
       <defs>
        <path d="M 703 97 
L 703 672 
Q 941 559 1184 500 
Q 1428 441 1663 441 
Q 2288 441 2617 861 
Q 2947 1281 2994 2138 
Q 2813 1869 2534 1725 
Q 2256 1581 1919 1581 
Q 1219 1581 811 2004 
Q 403 2428 403 3163 
Q 403 3881 828 4315 
Q 1253 4750 1959 4750 
Q 2769 4750 3195 4129 
Q 3622 3509 3622 2328 
Q 3622 1225 3098 567 
Q 2575 -91 1691 -91 
Q 1453 -91 1209 -44 
Q 966 3 703 97 
z
M 1959 2075 
Q 2384 2075 2632 2365 
Q 2881 2656 2881 3163 
Q 2881 3666 2632 3958 
Q 2384 4250 1959 4250 
Q 1534 4250 1286 3958 
Q 1038 3666 1038 3163 
Q 1038 2656 1286 2365 
Q 1534 2075 1959 2075 
z
" id="DejaVuSans-39" transform="scale(0.015625)"/>
       </defs>
       <use xlink:href="#DejaVuSans-31"/>
       <use x="63.623047" xlink:href="#DejaVuSans-39"/>
       <use x="127.246094" xlink:href="#DejaVuSans-2e"/>
       <use x="159.033203" xlink:href="#DejaVuSans-30"/>
       <use x="222.65625" xlink:href="#DejaVuSans-36"/>
       <use x="286.279297" xlink:href="#DejaVuSans-2e"/>
       <use x="318.066406" xlink:href="#DejaVuSans-32"/>
       <use x="381.689453" xlink:href="#DejaVuSans-30"/>
       <use x="445.3125" xlink:href="#DejaVuSans-32"/>
       <use x="508.935547" xlink:href="#DejaVuSans-31"/>
      </g>
     </g>
    </g>
    <g id="xtick_14">
     <g id="line2d_27">
      <path clip-path="url(#p2f0506fa0c)" d="M 489.092082 493.286013 
L 489.092082 29.118125 
" style="fill:none;stroke:#cccccc;stroke-linecap:round;"/>
     </g>
     <g id="line2d_28">
      <g>
       <use style="fill:#262626;stroke:#262626;stroke-width:1.25;" x="489.092082" xlink:href="#m4aab6bdc0a" y="493.286013"/>
      </g>
     </g>
     <g id="text_14">
      <!-- 03.07.2021 -->
      <g style="fill:#262626;" transform="translate(442.939554 553.231121)rotate(-45)scale(0.11 -0.11)">
       <use xlink:href="#DejaVuSans-30"/>
       <use x="63.623047" xlink:href="#DejaVuSans-33"/>
       <use x="127.246094" xlink:href="#DejaVuSans-2e"/>
       <use x="159.033203" xlink:href="#DejaVuSans-30"/>
       <use x="222.65625" xlink:href="#DejaVuSans-37"/>
       <use x="286.279297" xlink:href="#DejaVuSans-2e"/>
       <use x="318.066406" xlink:href="#DejaVuSans-32"/>
       <use x="381.689453" xlink:href="#DejaVuSans-30"/>
       <use x="445.3125" xlink:href="#DejaVuSans-32"/>
       <use x="508.935547" xlink:href="#DejaVuSans-31"/>
      </g>
     </g>
    </g>
    <g id="xtick_15">
     <g id="line2d_29">
      <path clip-path="url(#p2f0506fa0c)" d="M 518.95286 493.286013 
L 518.95286 29.118125 
" style="fill:none;stroke:#cccccc;stroke-linecap:round;"/>
     </g>
     <g id="line2d_30">
      <g>
       <use style="fill:#262626;stroke:#262626;stroke-width:1.25;" x="518.95286" xlink:href="#m4aab6bdc0a" y="493.286013"/>
      </g>
     </g>
     <g id="text_15">
      <!-- 17.07.2021 -->
      <g style="fill:#262626;" transform="translate(472.800332 553.231121)rotate(-45)scale(0.11 -0.11)">
       <use xlink:href="#DejaVuSans-31"/>
       <use x="63.623047" xlink:href="#DejaVuSans-37"/>
       <use x="127.246094" xlink:href="#DejaVuSans-2e"/>
       <use x="159.033203" xlink:href="#DejaVuSans-30"/>
       <use x="222.65625" xlink:href="#DejaVuSans-37"/>
       <use x="286.279297" xlink:href="#DejaVuSans-2e"/>
       <use x="318.066406" xlink:href="#DejaVuSans-32"/>
       <use x="381.689453" xlink:href="#DejaVuSans-30"/>
       <use x="445.3125" xlink:href="#DejaVuSans-32"/>
       <use x="508.935547" xlink:href="#DejaVuSans-31"/>
      </g>
     </g>
    </g>
    <g id="xtick_16">
     <g id="line2d_31">
      <path clip-path="url(#p2f0506fa0c)" d="M 548.813639 493.286013 
L 548.813639 29.118125 
" style="fill:none;stroke:#cccccc;stroke-linecap:round;"/>
     </g>
     <g id="line2d_32">
      <g>
       <use style="fill:#262626;stroke:#262626;stroke-width:1.25;" x="548.813639" xlink:href="#m4aab6bdc0a" y="493.286013"/>
      </g>
     </g>
     <g id="text_16">
      <!-- 31.07.2021 -->
      <g style="fill:#262626;" transform="translate(502.66111 553.231121)rotate(-45)scale(0.11 -0.11)">
       <use xlink:href="#DejaVuSans-33"/>
       <use x="63.623047" xlink:href="#DejaVuSans-31"/>
       <use x="127.246094" xlink:href="#DejaVuSans-2e"/>
       <use x="159.033203" xlink:href="#DejaVuSans-30"/>
       <use x="222.65625" xlink:href="#DejaVuSans-37"/>
       <use x="286.279297" xlink:href="#DejaVuSans-2e"/>
       <use x="318.066406" xlink:href="#DejaVuSans-32"/>
       <use x="381.689453" xlink:href="#DejaVuSans-30"/>
       <use x="445.3125" xlink:href="#DejaVuSans-32"/>
       <use x="508.935547" xlink:href="#DejaVuSans-31"/>
      </g>
     </g>
    </g>
    <g id="xtick_17">
     <g id="line2d_33">
      <path clip-path="url(#p2f0506fa0c)" d="M 578.674417 493.286013 
L 578.674417 29.118125 
" style="fill:none;stroke:#cccccc;stroke-linecap:round;"/>
     </g>
     <g id="line2d_34">
      <g>
       <use style="fill:#262626;stroke:#262626;stroke-width:1.25;" x="578.674417" xlink:href="#m4aab6bdc0a" y="493.286013"/>
      </g>
     </g>
     <g id="text_17">
      <!-- 14.08.2021 -->
      <g style="fill:#262626;" transform="translate(532.521889 553.231121)rotate(-45)scale(0.11 -0.11)">
       <use xlink:href="#DejaVuSans-31"/>
       <use x="63.623047" xlink:href="#DejaVuSans-34"/>
       <use x="127.246094" xlink:href="#DejaVuSans-2e"/>
       <use x="159.033203" xlink:href="#DejaVuSans-30"/>
       <use x="222.65625" xlink:href="#DejaVuSans-38"/>
       <use x="286.279297" xlink:href="#DejaVuSans-2e"/>
       <use x="318.066406" xlink:href="#DejaVuSans-32"/>
       <use x="381.689453" xlink:href="#DejaVuSans-30"/>
       <use x="445.3125" xlink:href="#DejaVuSans-32"/>
       <use x="508.935547" xlink:href="#DejaVuSans-31"/>
      </g>
     </g>
    </g>
    <g id="xtick_18">
     <g id="line2d_35">
      <path clip-path="url(#p2f0506fa0c)" d="M 608.535195 493.286013 
L 608.535195 29.118125 
" style="fill:none;stroke:#cccccc;stroke-linecap:round;"/>
     </g>
     <g id="line2d_36">
      <g>
       <use style="fill:#262626;stroke:#262626;stroke-width:1.25;" x="608.535195" xlink:href="#m4aab6bdc0a" y="493.286013"/>
      </g>
     </g>
     <g id="text_18">
      <!-- 28.08.2021 -->
      <g style="fill:#262626;" transform="translate(562.382667 553.231121)rotate(-45)scale(0.11 -0.11)">
       <use xlink:href="#DejaVuSans-32"/>
       <use x="63.623047" xlink:href="#DejaVuSans-38"/>
       <use x="127.246094" xlink:href="#DejaVuSans-2e"/>
       <use x="159.033203" xlink:href="#DejaVuSans-30"/>
       <use x="222.65625" xlink:href="#DejaVuSans-38"/>
       <use x="286.279297" xlink:href="#DejaVuSans-2e"/>
       <use x="318.066406" xlink:href="#DejaVuSans-32"/>
       <use x="381.689453" xlink:href="#DejaVuSans-30"/>
       <use x="445.3125" xlink:href="#DejaVuSans-32"/>
       <use x="508.935547" xlink:href="#DejaVuSans-31"/>
      </g>
     </g>
    </g>
    <g id="xtick_19">
     <g id="line2d_37">
      <path clip-path="url(#p2f0506fa0c)" d="M 638.395973 493.286013 
L 638.395973 29.118125 
" style="fill:none;stroke:#cccccc;stroke-linecap:round;"/>
     </g>
     <g id="line2d_38">
      <g>
       <use style="fill:#262626;stroke:#262626;stroke-width:1.25;" x="638.395973" xlink:href="#m4aab6bdc0a" y="493.286013"/>
      </g>
     </g>
     <g id="text_19">
      <!-- 11.09.2021 -->
      <g style="fill:#262626;" transform="translate(592.243445 553.231121)rotate(-45)scale(0.11 -0.11)">
       <use xlink:href="#DejaVuSans-31"/>
       <use x="63.623047" xlink:href="#DejaVuSans-31"/>
       <use x="127.246094" xlink:href="#DejaVuSans-2e"/>
       <use x="159.033203" xlink:href="#DejaVuSans-30"/>
       <use x="222.65625" xlink:href="#DejaVuSans-39"/>
       <use x="286.279297" xlink:href="#DejaVuSans-2e"/>
       <use x="318.066406" xlink:href="#DejaVuSans-32"/>
       <use x="381.689453" xlink:href="#DejaVuSans-30"/>
       <use x="445.3125" xlink:href="#DejaVuSans-32"/>
       <use x="508.935547" xlink:href="#DejaVuSans-31"/>
      </g>
     </g>
    </g>
    <g id="xtick_20">
     <g id="line2d_39">
      <path clip-path="url(#p2f0506fa0c)" d="M 668.256752 493.286013 
L 668.256752 29.118125 
" style="fill:none;stroke:#cccccc;stroke-linecap:round;"/>
     </g>
     <g id="line2d_40">
      <g>
       <use style="fill:#262626;stroke:#262626;stroke-width:1.25;" x="668.256752" xlink:href="#m4aab6bdc0a" y="493.286013"/>
      </g>
     </g>
     <g id="text_20">
      <!-- 25.09.2021 -->
      <g style="fill:#262626;" transform="translate(622.104223 553.231121)rotate(-45)scale(0.11 -0.11)">
       <use xlink:href="#DejaVuSans-32"/>
       <use x="63.623047" xlink:href="#DejaVuSans-35"/>
       <use x="127.246094" xlink:href="#DejaVuSans-2e"/>
       <use x="159.033203" xlink:href="#DejaVuSans-30"/>
       <use x="222.65625" xlink:href="#DejaVuSans-39"/>
       <use x="286.279297" xlink:href="#DejaVuSans-2e"/>
       <use x="318.066406" xlink:href="#DejaVuSans-32"/>
       <use x="381.689453" xlink:href="#DejaVuSans-30"/>
       <use x="445.3125" xlink:href="#DejaVuSans-32"/>
       <use x="508.935547" xlink:href="#DejaVuSans-31"/>
      </g>
     </g>
    </g>
    <g id="xtick_21">
     <g id="line2d_41">
      <path clip-path="url(#p2f0506fa0c)" d="M 698.11753 493.286013 
L 698.11753 29.118125 
" style="fill:none;stroke:#cccccc;stroke-linecap:round;"/>
     </g>
     <g id="line2d_42">
      <g>
       <use style="fill:#262626;stroke:#262626;stroke-width:1.25;" x="698.11753" xlink:href="#m4aab6bdc0a" y="493.286013"/>
      </g>
     </g>
     <g id="text_21">
      <!-- 09.10.2021 -->
      <g style="fill:#262626;" transform="translate(651.965002 553.231121)rotate(-45)scale(0.11 -0.11)">
       <use xlink:href="#DejaVuSans-30"/>
       <use x="63.623047" xlink:href="#DejaVuSans-39"/>
       <use x="127.246094" xlink:href="#DejaVuSans-2e"/>
       <use x="159.033203" xlink:href="#DejaVuSans-31"/>
       <use x="222.65625" xlink:href="#DejaVuSans-30"/>
       <use x="286.279297" xlink:href="#DejaVuSans-2e"/>
       <use x="318.066406" xlink:href="#DejaVuSans-32"/>
       <use x="381.689453" xlink:href="#DejaVuSans-30"/>
       <use x="445.3125" xlink:href="#DejaVuSans-32"/>
       <use x="508.935547" xlink:href="#DejaVuSans-31"/>
      </g>
     </g>
    </g>
    <g id="xtick_22">
     <g id="line2d_43">
      <path clip-path="url(#p2f0506fa0c)" d="M 727.978308 493.286013 
L 727.978308 29.118125 
" style="fill:none;stroke:#cccccc;stroke-linecap:round;"/>
     </g>
     <g id="line2d_44">
      <g>
       <use style="fill:#262626;stroke:#262626;stroke-width:1.25;" x="727.978308" xlink:href="#m4aab6bdc0a" y="493.286013"/>
      </g>
     </g>
     <g id="text_22">
      <!-- 23.10.2021 -->
      <g style="fill:#262626;" transform="translate(681.82578 553.231121)rotate(-45)scale(0.11 -0.11)">
       <use xlink:href="#DejaVuSans-32"/>
       <use x="63.623047" xlink:href="#DejaVuSans-33"/>
       <use x="127.246094" xlink:href="#DejaVuSans-2e"/>
       <use x="159.033203" xlink:href="#DejaVuSans-31"/>
       <use x="222.65625" xlink:href="#DejaVuSans-30"/>
       <use x="286.279297" xlink:href="#DejaVuSans-2e"/>
       <use x="318.066406" xlink:href="#DejaVuSans-32"/>
       <use x="381.689453" xlink:href="#DejaVuSans-30"/>
       <use x="445.3125" xlink:href="#DejaVuSans-32"/>
       <use x="508.935547" xlink:href="#DejaVuSans-31"/>
      </g>
     </g>
    </g>
    <g id="xtick_23">
     <g id="line2d_45">
      <defs>
       <path d="M 0 0 
L 0 4 
" id="mce75f9b003" style="stroke:#262626;"/>
      </defs>
      <g>
       <use style="fill:#262626;stroke:#262626;" x="71.041186" xlink:href="#mce75f9b003" y="493.286013"/>
      </g>
     </g>
    </g>
    <g id="xtick_24">
     <g id="line2d_46">
      <g>
       <use style="fill:#262626;stroke:#262626;" x="85.971575" xlink:href="#mce75f9b003" y="493.286013"/>
      </g>
     </g>
    </g>
    <g id="xtick_25">
     <g id="line2d_47">
      <g>
       <use style="fill:#262626;stroke:#262626;" x="115.832354" xlink:href="#mce75f9b003" y="493.286013"/>
      </g>
     </g>
    </g>
    <g id="xtick_26">
     <g id="line2d_48">
      <g>
       <use style="fill:#262626;stroke:#262626;" x="145.693132" xlink:href="#mce75f9b003" y="493.286013"/>
      </g>
     </g>
    </g>
    <g id="xtick_27">
     <g id="line2d_49">
      <g>
       <use style="fill:#262626;stroke:#262626;" x="175.55391" xlink:href="#mce75f9b003" y="493.286013"/>
      </g>
     </g>
    </g>
    <g id="xtick_28">
     <g id="line2d_50">
      <g>
       <use style="fill:#262626;stroke:#262626;" x="205.414688" xlink:href="#mce75f9b003" y="493.286013"/>
      </g>
     </g>
    </g>
    <g id="xtick_29">
     <g id="line2d_51">
      <g>
       <use style="fill:#262626;stroke:#262626;" x="235.275467" xlink:href="#mce75f9b003" y="493.286013"/>
      </g>
     </g>
    </g>
    <g id="xtick_30">
     <g id="line2d_52">
      <g>
       <use style="fill:#262626;stroke:#262626;" x="265.136245" xlink:href="#mce75f9b003" y="493.286013"/>
      </g>
     </g>
    </g>
    <g id="xtick_31">
     <g id="line2d_53">
      <g>
       <use style="fill:#262626;stroke:#262626;" x="294.997023" xlink:href="#mce75f9b003" y="493.286013"/>
      </g>
     </g>
    </g>
    <g id="xtick_32">
     <g id="line2d_54">
      <g>
       <use style="fill:#262626;stroke:#262626;" x="324.857802" xlink:href="#mce75f9b003" y="493.286013"/>
      </g>
     </g>
    </g>
    <g id="xtick_33">
     <g id="line2d_55">
      <g>
       <use style="fill:#262626;stroke:#262626;" x="354.71858" xlink:href="#mce75f9b003" y="493.286013"/>
      </g>
     </g>
    </g>
    <g id="xtick_34">
     <g id="line2d_56">
      <g>
       <use style="fill:#262626;stroke:#262626;" x="384.579358" xlink:href="#mce75f9b003" y="493.286013"/>
      </g>
     </g>
    </g>
    <g id="xtick_35">
     <g id="line2d_57">
      <g>
       <use style="fill:#262626;stroke:#262626;" x="414.440136" xlink:href="#mce75f9b003" y="493.286013"/>
      </g>
     </g>
    </g>
    <g id="xtick_36">
     <g id="line2d_58">
      <g>
       <use style="fill:#262626;stroke:#262626;" x="444.300915" xlink:href="#mce75f9b003" y="493.286013"/>
      </g>
     </g>
    </g>
    <g id="xtick_37">
     <g id="line2d_59">
      <g>
       <use style="fill:#262626;stroke:#262626;" x="474.161693" xlink:href="#mce75f9b003" y="493.286013"/>
      </g>
     </g>
    </g>
    <g id="xtick_38">
     <g id="line2d_60">
      <g>
       <use style="fill:#262626;stroke:#262626;" x="504.022471" xlink:href="#mce75f9b003" y="493.286013"/>
      </g>
     </g>
    </g>
    <g id="xtick_39">
     <g id="line2d_61">
      <g>
       <use style="fill:#262626;stroke:#262626;" x="533.883249" xlink:href="#mce75f9b003" y="493.286013"/>
      </g>
     </g>
    </g>
    <g id="xtick_40">
     <g id="line2d_62">
      <g>
       <use style="fill:#262626;stroke:#262626;" x="563.744028" xlink:href="#mce75f9b003" y="493.286013"/>
      </g>
     </g>
    </g>
    <g id="xtick_41">
     <g id="line2d_63">
      <g>
       <use style="fill:#262626;stroke:#262626;" x="593.604806" xlink:href="#mce75f9b003" y="493.286013"/>
      </g>
     </g>
    </g>
    <g id="xtick_42">
     <g id="line2d_64">
      <g>
       <use style="fill:#262626;stroke:#262626;" x="623.465584" xlink:href="#mce75f9b003" y="493.286013"/>
      </g>
     </g>
    </g>
    <g id="xtick_43">
     <g id="line2d_65">
      <g>
       <use style="fill:#262626;stroke:#262626;" x="653.326362" xlink:href="#mce75f9b003" y="493.286013"/>
      </g>
     </g>
    </g>
    <g id="xtick_44">
     <g id="line2d_66">
      <g>
       <use style="fill:#262626;stroke:#262626;" x="683.187141" xlink:href="#mce75f9b003" y="493.286013"/>
      </g>
     </g>
    </g>
    <g id="xtick_45">
     <g id="line2d_67">
      <g>
       <use style="fill:#262626;stroke:#262626;" x="713.047919" xlink:href="#mce75f9b003" y="493.286013"/>
      </g>
     </g>
    </g>
    <g id="xtick_46">
     <g id="line2d_68">
      <g>
       <use style="fill:#262626;stroke:#262626;" x="742.908697" xlink:href="#mce75f9b003" y="493.286013"/>
      </g>
     </g>
    </g>
    <g id="xtick_47">
     <g id="line2d_69">
      <g>
       <use style="fill:#262626;stroke:#262626;" x="757.839086" xlink:href="#mce75f9b003" y="493.286013"/>
      </g>
     </g>
    </g>
    <g id="xtick_48">
     <g id="line2d_70">
      <g>
       <use style="fill:#262626;stroke:#262626;" x="772.769475" xlink:href="#mce75f9b003" y="493.286013"/>
      </g>
     </g>
    </g>
    <g id="xtick_49">
     <g id="line2d_71">
      <g>
       <use style="fill:#262626;stroke:#262626;" x="787.699865" xlink:href="#mce75f9b003" y="493.286013"/>
      </g>
     </g>
    </g>
    <g id="text_23">
     <!-- Week -->
     <g style="fill:#262626;" transform="translate(408.666575 567.966863)scale(0.12 -0.12)">
      <defs>
       <path d="M 213 4666 
L 850 4666 
L 1831 722 
L 2809 4666 
L 3519 4666 
L 4500 722 
L 5478 4666 
L 6119 4666 
L 4947 0 
L 4153 0 
L 3169 4050 
L 2175 0 
L 1381 0 
L 213 4666 
z
" id="DejaVuSans-57" transform="scale(0.015625)"/>
       <path d="M 3597 1894 
L 3597 1613 
L 953 1613 
Q 991 1019 1311 708 
Q 1631 397 2203 397 
Q 2534 397 2845 478 
Q 3156 559 3463 722 
L 3463 178 
Q 3153 47 2828 -22 
Q 2503 -91 2169 -91 
Q 1331 -91 842 396 
Q 353 884 353 1716 
Q 353 2575 817 3079 
Q 1281 3584 2069 3584 
Q 2775 3584 3186 3129 
Q 3597 2675 3597 1894 
z
M 3022 2063 
Q 3016 2534 2758 2815 
Q 2500 3097 2075 3097 
Q 1594 3097 1305 2825 
Q 1016 2553 972 2059 
L 3022 2063 
z
" id="DejaVuSans-65" transform="scale(0.015625)"/>
       <path d="M 581 4863 
L 1159 4863 
L 1159 1991 
L 2875 3500 
L 3609 3500 
L 1753 1863 
L 3688 0 
L 2938 0 
L 1159 1709 
L 1159 0 
L 581 0 
L 581 4863 
z
" id="DejaVuSans-6b" transform="scale(0.015625)"/>
      </defs>
      <use xlink:href="#DejaVuSans-57"/>
      <use x="93.001953" xlink:href="#DejaVuSans-65"/>
      <use x="154.525391" xlink:href="#DejaVuSans-65"/>
      <use x="216.048828" xlink:href="#DejaVuSans-6b"/>
     </g>
    </g>
   </g>
   <g id="matplotlib.axis_2">
    <g id="ytick_1">
     <g id="line2d_72">
      <path clip-path="url(#p2f0506fa0c)" d="M 59.096875 472.759835 
L 791.112525 472.759835 
" style="fill:none;stroke:#cccccc;stroke-linecap:round;"/>
     </g>
     <g id="line2d_73">
      <defs>
       <path d="M 0 0 
L -6 0 
" id="m7e3db186a7" style="stroke:#262626;stroke-width:1.25;"/>
      </defs>
      <g>
       <use style="fill:#262626;stroke:#262626;stroke-width:1.25;" x="59.096875" xlink:href="#m7e3db186a7" y="472.759835"/>
      </g>
     </g>
     <g id="text_24">
      <!-- $0.0M -->
      <g style="fill:#262626;" transform="translate(15.61375 476.938976)scale(0.11 -0.11)">
       <defs>
        <path d="M 2163 -941 
L 1850 -941 
L 1847 0 
Q 1519 6 1191 76 
Q 863 147 531 288 
L 531 850 
Q 850 650 1176 548 
Q 1503 447 1850 444 
L 1850 1869 
Q 1159 1981 845 2250 
Q 531 2519 531 2988 
Q 531 3497 872 3790 
Q 1213 4084 1850 4128 
L 1850 4863 
L 2163 4863 
L 2163 4138 
Q 2453 4125 2725 4076 
Q 2997 4028 3256 3944 
L 3256 3397 
Q 2997 3528 2723 3600 
Q 2450 3672 2163 3684 
L 2163 2350 
Q 2872 2241 3206 1959 
Q 3541 1678 3541 1191 
Q 3541 663 3186 358 
Q 2831 53 2163 6 
L 2163 -941 
z
M 1850 2406 
L 1850 3688 
Q 1488 3647 1297 3481 
Q 1106 3316 1106 3041 
Q 1106 2772 1282 2622 
Q 1459 2472 1850 2406 
z
M 2163 1806 
L 2163 453 
Q 2559 506 2761 678 
Q 2963 850 2963 1131 
Q 2963 1406 2770 1568 
Q 2578 1731 2163 1806 
z
" id="DejaVuSans-24" transform="scale(0.015625)"/>
        <path d="M 628 4666 
L 1569 4666 
L 2759 1491 
L 3956 4666 
L 4897 4666 
L 4897 0 
L 4281 0 
L 4281 4097 
L 3078 897 
L 2444 897 
L 1241 4097 
L 1241 0 
L 628 0 
L 628 4666 
z
" id="DejaVuSans-4d" transform="scale(0.015625)"/>
       </defs>
       <use xlink:href="#DejaVuSans-24"/>
       <use x="63.623047" xlink:href="#DejaVuSans-30"/>
       <use x="127.246094" xlink:href="#DejaVuSans-2e"/>
       <use x="159.033203" xlink:href="#DejaVuSans-30"/>
       <use x="222.65625" xlink:href="#DejaVuSans-4d"/>
      </g>
     </g>
    </g>
    <g id="ytick_2">
     <g id="line2d_74">
      <path clip-path="url(#p2f0506fa0c)" d="M 59.096875 399.266934 
L 791.112525 399.266934 
" style="fill:none;stroke:#cccccc;stroke-linecap:round;"/>
     </g>
     <g id="line2d_75">
      <g>
       <use style="fill:#262626;stroke:#262626;stroke-width:1.25;" x="59.096875" xlink:href="#m7e3db186a7" y="399.266934"/>
      </g>
     </g>
     <g id="text_25">
      <!-- $0.5M -->
      <g style="fill:#262626;" transform="translate(15.61375 403.446075)scale(0.11 -0.11)">
       <use xlink:href="#DejaVuSans-24"/>
       <use x="63.623047" xlink:href="#DejaVuSans-30"/>
       <use x="127.246094" xlink:href="#DejaVuSans-2e"/>
       <use x="159.033203" xlink:href="#DejaVuSans-35"/>
       <use x="222.65625" xlink:href="#DejaVuSans-4d"/>
      </g>
     </g>
    </g>
    <g id="ytick_3">
     <g id="line2d_76">
      <path clip-path="url(#p2f0506fa0c)" d="M 59.096875 325.774034 
L 791.112525 325.774034 
" style="fill:none;stroke:#cccccc;stroke-linecap:round;"/>
     </g>
     <g id="line2d_77">
      <g>
       <use style="fill:#262626;stroke:#262626;stroke-width:1.25;" x="59.096875" xlink:href="#m7e3db186a7" y="325.774034"/>
      </g>
     </g>
     <g id="text_26">
      <!-- $1.0M -->
      <g style="fill:#262626;" transform="translate(15.61375 329.953174)scale(0.11 -0.11)">
       <use xlink:href="#DejaVuSans-24"/>
       <use x="63.623047" xlink:href="#DejaVuSans-31"/>
       <use x="127.246094" xlink:href="#DejaVuSans-2e"/>
       <use x="159.033203" xlink:href="#DejaVuSans-30"/>
       <use x="222.65625" xlink:href="#DejaVuSans-4d"/>
      </g>
     </g>
    </g>
    <g id="ytick_4">
     <g id="line2d_78">
      <path clip-path="url(#p2f0506fa0c)" d="M 59.096875 252.281133 
L 791.112525 252.281133 
" style="fill:none;stroke:#cccccc;stroke-linecap:round;"/>
     </g>
     <g id="line2d_79">
      <g>
       <use style="fill:#262626;stroke:#262626;stroke-width:1.25;" x="59.096875" xlink:href="#m7e3db186a7" y="252.281133"/>
      </g>
     </g>
     <g id="text_27">
      <!-- $1.5M -->
      <g style="fill:#262626;" transform="translate(15.61375 256.460274)scale(0.11 -0.11)">
       <use xlink:href="#DejaVuSans-24"/>
       <use x="63.623047" xlink:href="#DejaVuSans-31"/>
       <use x="127.246094" xlink:href="#DejaVuSans-2e"/>
       <use x="159.033203" xlink:href="#DejaVuSans-35"/>
       <use x="222.65625" xlink:href="#DejaVuSans-4d"/>
      </g>
     </g>
    </g>
    <g id="ytick_5">
     <g id="line2d_80">
      <path clip-path="url(#p2f0506fa0c)" d="M 59.096875 178.788232 
L 791.112525 178.788232 
" style="fill:none;stroke:#cccccc;stroke-linecap:round;"/>
     </g>
     <g id="line2d_81">
      <g>
       <use style="fill:#262626;stroke:#262626;stroke-width:1.25;" x="59.096875" xlink:href="#m7e3db186a7" y="178.788232"/>
      </g>
     </g>
     <g id="text_28">
      <!-- $2.0M -->
      <g style="fill:#262626;" transform="translate(15.61375 182.967373)scale(0.11 -0.11)">
       <use xlink:href="#DejaVuSans-24"/>
       <use x="63.623047" xlink:href="#DejaVuSans-32"/>
       <use x="127.246094" xlink:href="#DejaVuSans-2e"/>
       <use x="159.033203" xlink:href="#DejaVuSans-30"/>
       <use x="222.65625" xlink:href="#DejaVuSans-4d"/>
      </g>
     </g>
    </g>
    <g id="ytick_6">
     <g id="line2d_82">
      <path clip-path="url(#p2f0506fa0c)" d="M 59.096875 105.295332 
L 791.112525 105.295332 
" style="fill:none;stroke:#cccccc;stroke-linecap:round;"/>
     </g>
     <g id="line2d_83">
      <g>
       <use style="fill:#262626;stroke:#262626;stroke-width:1.25;" x="59.096875" xlink:href="#m7e3db186a7" y="105.295332"/>
      </g>
     </g>
     <g id="text_29">
      <!-- $2.5M -->
      <g style="fill:#262626;" transform="translate(15.61375 109.474472)scale(0.11 -0.11)">
       <use xlink:href="#DejaVuSans-24"/>
       <use x="63.623047" xlink:href="#DejaVuSans-32"/>
       <use x="127.246094" xlink:href="#DejaVuSans-2e"/>
       <use x="159.033203" xlink:href="#DejaVuSans-35"/>
       <use x="222.65625" xlink:href="#DejaVuSans-4d"/>
      </g>
     </g>
    </g>
    <g id="ytick_7">
     <g id="line2d_84">
      <path clip-path="url(#p2f0506fa0c)" d="M 59.096875 31.802431 
L 791.112525 31.802431 
" style="fill:none;stroke:#cccccc;stroke-linecap:round;"/>
     </g>
     <g id="line2d_85">
      <g>
       <use style="fill:#262626;stroke:#262626;stroke-width:1.25;" x="59.096875" xlink:href="#m7e3db186a7" y="31.802431"/>
      </g>
     </g>
     <g id="text_30">
      <!-- $3.0M -->
      <g style="fill:#262626;" transform="translate(15.61375 35.981572)scale(0.11 -0.11)">
       <use xlink:href="#DejaVuSans-24"/>
       <use x="63.623047" xlink:href="#DejaVuSans-33"/>
       <use x="127.246094" xlink:href="#DejaVuSans-2e"/>
       <use x="159.033203" xlink:href="#DejaVuSans-30"/>
       <use x="222.65625" xlink:href="#DejaVuSans-4d"/>
      </g>
     </g>
    </g>
    <g id="text_31">
     <!-- Administered doses -->
     <g style="fill:#262626;" transform="translate(9.118125 320.323631)rotate(-90)scale(0.12 -0.12)">
      <defs>
       <path d="M 2188 4044 
L 1331 1722 
L 3047 1722 
L 2188 4044 
z
M 1831 4666 
L 2547 4666 
L 4325 0 
L 3669 0 
L 3244 1197 
L 1141 1197 
L 716 0 
L 50 0 
L 1831 4666 
z
" id="DejaVuSans-41" transform="scale(0.015625)"/>
       <path d="M 2906 2969 
L 2906 4863 
L 3481 4863 
L 3481 0 
L 2906 0 
L 2906 525 
Q 2725 213 2448 61 
Q 2172 -91 1784 -91 
Q 1150 -91 751 415 
Q 353 922 353 1747 
Q 353 2572 751 3078 
Q 1150 3584 1784 3584 
Q 2172 3584 2448 3432 
Q 2725 3281 2906 2969 
z
M 947 1747 
Q 947 1113 1208 752 
Q 1469 391 1925 391 
Q 2381 391 2643 752 
Q 2906 1113 2906 1747 
Q 2906 2381 2643 2742 
Q 2381 3103 1925 3103 
Q 1469 3103 1208 2742 
Q 947 2381 947 1747 
z
" id="DejaVuSans-64" transform="scale(0.015625)"/>
       <path d="M 3328 2828 
Q 3544 3216 3844 3400 
Q 4144 3584 4550 3584 
Q 5097 3584 5394 3201 
Q 5691 2819 5691 2113 
L 5691 0 
L 5113 0 
L 5113 2094 
Q 5113 2597 4934 2840 
Q 4756 3084 4391 3084 
Q 3944 3084 3684 2787 
Q 3425 2491 3425 1978 
L 3425 0 
L 2847 0 
L 2847 2094 
Q 2847 2600 2669 2842 
Q 2491 3084 2119 3084 
Q 1678 3084 1418 2786 
Q 1159 2488 1159 1978 
L 1159 0 
L 581 0 
L 581 3500 
L 1159 3500 
L 1159 2956 
Q 1356 3278 1631 3431 
Q 1906 3584 2284 3584 
Q 2666 3584 2933 3390 
Q 3200 3197 3328 2828 
z
" id="DejaVuSans-6d" transform="scale(0.015625)"/>
       <path d="M 603 3500 
L 1178 3500 
L 1178 0 
L 603 0 
L 603 3500 
z
M 603 4863 
L 1178 4863 
L 1178 4134 
L 603 4134 
L 603 4863 
z
" id="DejaVuSans-69" transform="scale(0.015625)"/>
       <path d="M 3513 2113 
L 3513 0 
L 2938 0 
L 2938 2094 
Q 2938 2591 2744 2837 
Q 2550 3084 2163 3084 
Q 1697 3084 1428 2787 
Q 1159 2491 1159 1978 
L 1159 0 
L 581 0 
L 581 3500 
L 1159 3500 
L 1159 2956 
Q 1366 3272 1645 3428 
Q 1925 3584 2291 3584 
Q 2894 3584 3203 3211 
Q 3513 2838 3513 2113 
z
" id="DejaVuSans-6e" transform="scale(0.015625)"/>
       <path d="M 2834 3397 
L 2834 2853 
Q 2591 2978 2328 3040 
Q 2066 3103 1784 3103 
Q 1356 3103 1142 2972 
Q 928 2841 928 2578 
Q 928 2378 1081 2264 
Q 1234 2150 1697 2047 
L 1894 2003 
Q 2506 1872 2764 1633 
Q 3022 1394 3022 966 
Q 3022 478 2636 193 
Q 2250 -91 1575 -91 
Q 1294 -91 989 -36 
Q 684 19 347 128 
L 347 722 
Q 666 556 975 473 
Q 1284 391 1588 391 
Q 1994 391 2212 530 
Q 2431 669 2431 922 
Q 2431 1156 2273 1281 
Q 2116 1406 1581 1522 
L 1381 1569 
Q 847 1681 609 1914 
Q 372 2147 372 2553 
Q 372 3047 722 3315 
Q 1072 3584 1716 3584 
Q 2034 3584 2315 3537 
Q 2597 3491 2834 3397 
z
" id="DejaVuSans-73" transform="scale(0.015625)"/>
       <path d="M 1172 4494 
L 1172 3500 
L 2356 3500 
L 2356 3053 
L 1172 3053 
L 1172 1153 
Q 1172 725 1289 603 
Q 1406 481 1766 481 
L 2356 481 
L 2356 0 
L 1766 0 
Q 1100 0 847 248 
Q 594 497 594 1153 
L 594 3053 
L 172 3053 
L 172 3500 
L 594 3500 
L 594 4494 
L 1172 4494 
z
" id="DejaVuSans-74" transform="scale(0.015625)"/>
       <path d="M 2631 2963 
Q 2534 3019 2420 3045 
Q 2306 3072 2169 3072 
Q 1681 3072 1420 2755 
Q 1159 2438 1159 1844 
L 1159 0 
L 581 0 
L 581 3500 
L 1159 3500 
L 1159 2956 
Q 1341 3275 1631 3429 
Q 1922 3584 2338 3584 
Q 2397 3584 2469 3576 
Q 2541 3569 2628 3553 
L 2631 2963 
z
" id="DejaVuSans-72" transform="scale(0.015625)"/>
       <path id="DejaVuSans-20" transform="scale(0.015625)"/>
       <path d="M 1959 3097 
Q 1497 3097 1228 2736 
Q 959 2375 959 1747 
Q 959 1119 1226 758 
Q 1494 397 1959 397 
Q 2419 397 2687 759 
Q 2956 1122 2956 1747 
Q 2956 2369 2687 2733 
Q 2419 3097 1959 3097 
z
M 1959 3584 
Q 2709 3584 3137 3096 
Q 3566 2609 3566 1747 
Q 3566 888 3137 398 
Q 2709 -91 1959 -91 
Q 1206 -91 779 398 
Q 353 888 353 1747 
Q 353 2609 779 3096 
Q 1206 3584 1959 3584 
z
" id="DejaVuSans-6f" transform="scale(0.015625)"/>
      </defs>
      <use xlink:href="#DejaVuSans-41"/>
      <use x="66.658203" xlink:href="#DejaVuSans-64"/>
      <use x="130.134766" xlink:href="#DejaVuSans-6d"/>
      <use x="227.546875" xlink:href="#DejaVuSans-69"/>
      <use x="255.330078" xlink:href="#DejaVuSans-6e"/>
      <use x="318.708984" xlink:href="#DejaVuSans-69"/>
      <use x="346.492188" xlink:href="#DejaVuSans-73"/>
      <use x="398.591797" xlink:href="#DejaVuSans-74"/>
      <use x="437.800781" xlink:href="#DejaVuSans-65"/>
      <use x="499.324219" xlink:href="#DejaVuSans-72"/>
      <use x="538.1875" xlink:href="#DejaVuSans-65"/>
      <use x="599.710938" xlink:href="#DejaVuSans-64"/>
      <use x="663.1875" xlink:href="#DejaVuSans-20"/>
      <use x="694.974609" xlink:href="#DejaVuSans-64"/>
      <use x="758.451172" xlink:href="#DejaVuSans-6f"/>
      <use x="819.632812" xlink:href="#DejaVuSans-73"/>
      <use x="871.732422" xlink:href="#DejaVuSans-65"/>
      <use x="933.255859" xlink:href="#DejaVuSans-73"/>
     </g>
    </g>
   </g>
   <g id="line2d_86">
    <path clip-path="url(#p2f0506fa0c)" d="M 92.370314 472.187472 
L 96.636139 472.063269 
L 107.300703 471.959056 
L 113.699441 470.79684 
L 120.098179 470.678369 
L 124.364005 470.255491 
L 130.762743 470.065291 
L 132.895656 470.047506 
L 135.028568 469.873328 
L 139.294394 469.213509 
L 143.560219 468.923359 
L 149.958957 468.820909 
L 152.09187 468.479314 
L 154.224783 467.921503 
L 156.357696 467.227877 
L 158.490608 466.762079 
L 162.756434 466.715044 
L 164.889347 466.493242 
L 167.022259 466.010688 
L 171.288085 464.818927 
L 173.420997 464.402222 
L 177.686823 464.376059 
L 179.819736 464.104135 
L 184.085561 463.034813 
L 186.218474 462.305764 
L 188.351387 461.780878 
L 192.617212 461.678869 
L 194.750125 461.377842 
L 199.01595 460.130815 
L 201.148863 459.455562 
L 203.281776 457.433919 
L 205.414688 456.833042 
L 209.680514 453.495435 
L 211.813427 450.972718 
L 216.079252 445.051248 
L 218.212165 442.710205 
L 220.345078 441.928093 
L 222.47799 441.533436 
L 224.610903 439.902776 
L 226.743816 436.928812 
L 228.876729 436.282516 
L 231.009641 433.28768 
L 233.142554 430.947666 
L 235.275467 430.557566 
L 237.408379 430.335176 
L 239.541292 429.526607 
L 241.674205 428.347928 
L 243.807118 427.319909 
L 245.94003 425.07088 
L 248.072943 423.275595 
L 252.338769 422.949434 
L 254.471681 422.533758 
L 258.737507 421.211621 
L 260.87042 420.425246 
L 263.003332 419.444998 
L 265.136245 418.88263 
L 267.269158 418.536038 
L 269.40207 417.438789 
L 273.667896 413.77311 
L 277.933721 409.522428 
L 280.066634 408.944773 
L 282.199547 408.594506 
L 284.33246 407.270752 
L 292.864111 399.548412 
L 294.997023 398.961498 
L 297.129936 398.742195 
L 299.262849 397.789874 
L 301.395761 396.380868 
L 303.528674 394.349818 
L 305.661587 391.547828 
L 307.7945 389.360679 
L 309.927412 388.821829 
L 312.060325 388.586652 
L 314.193238 387.509246 
L 316.326151 385.965454 
L 322.724889 379.551876 
L 324.857802 379.098131 
L 326.990714 378.917779 
L 329.123627 377.882558 
L 331.25654 376.141217 
L 333.389452 373.323793 
L 335.522365 370.087754 
L 337.655278 367.379835 
L 339.788191 366.758085 
L 341.921103 366.453824 
L 344.054016 364.850209 
L 346.186929 362.388344 
L 348.319842 358.661519 
L 350.452754 354.704367 
L 352.585667 352.898353 
L 354.71858 352.052449 
L 356.851493 351.551963 
L 358.984405 350.2457 
L 361.117318 348.609307 
L 363.250231 343.835061 
L 365.383143 342.787052 
L 367.516056 337.184394 
L 369.648969 335.707481 
L 371.781882 334.877746 
L 373.914794 331.133283 
L 378.18062 320.517381 
L 380.313533 314.967197 
L 382.446445 310.08183 
L 384.579358 309.113046 
L 386.712271 308.614764 
L 388.845184 305.934331 
L 390.978096 302.102264 
L 393.111009 297.641392 
L 395.243922 292.61389 
L 397.376834 288.929544 
L 399.509747 287.996478 
L 401.64266 287.457334 
L 403.775573 286.697124 
L 405.908485 284.218649 
L 408.041398 281.152819 
L 412.307224 275.632767 
L 414.440136 274.59299 
L 416.573049 273.851446 
L 418.705962 271.988548 
L 420.838875 269.335749 
L 427.237613 259.505485 
L 429.370525 258.624893 
L 431.503438 257.535728 
L 433.636351 255.401054 
L 435.769264 252.202643 
L 440.035089 245.181131 
L 442.168002 242.169539 
L 444.300915 241.439313 
L 446.433827 240.959699 
L 448.56674 239.540698 
L 450.699653 237.268591 
L 454.965478 232.00356 
L 457.098391 229.764966 
L 461.364216 228.737682 
L 463.497129 227.488009 
L 465.630042 225.618056 
L 469.895867 221.486138 
L 472.02878 219.681152 
L 476.294606 218.824813 
L 478.427518 217.640254 
L 486.959169 210.345202 
L 489.092082 209.816347 
L 491.224995 209.499299 
L 493.357907 208.350752 
L 495.49082 206.630871 
L 499.756646 202.940792 
L 501.889558 201.243988 
L 504.022471 200.76408 
L 506.155384 200.456438 
L 508.288297 199.220288 
L 514.687035 193.990386 
L 516.819948 192.421606 
L 521.085773 191.729891 
L 523.218686 190.587959 
L 525.351598 189.120893 
L 531.750337 184.291822 
L 533.883249 183.771492 
L 536.016162 183.477814 
L 538.149075 182.223585 
L 546.680726 175.121966 
L 548.813639 174.65264 
L 550.946551 174.334416 
L 553.079464 173.112964 
L 561.611115 165.850395 
L 563.744028 165.368576 
L 565.87694 165.025952 
L 568.009853 163.705431 
L 574.408591 158.407328 
L 576.541504 156.867652 
L 578.674417 156.352614 
L 580.80733 156.031303 
L 582.940242 154.688587 
L 591.471893 147.501717 
L 593.604806 146.957281 
L 595.737719 146.606132 
L 597.870631 145.154059 
L 604.26937 139.13749 
L 606.402282 137.302225 
L 608.535195 136.724571 
L 610.668108 136.351227 
L 612.801021 134.822134 
L 614.933933 132.839736 
L 621.332671 127.486513 
L 623.465584 126.991171 
L 627.73141 126.432331 
L 629.864322 124.761543 
L 634.130148 121.180087 
L 636.263061 119.559275 
L 638.395973 119.107588 
L 640.528886 118.820083 
L 642.661799 117.63773 
L 649.060537 112.867746 
L 651.19345 111.332333 
L 653.326362 110.885349 
L 655.459275 110.635914 
L 657.592188 109.526759 
L 659.725101 108.047494 
L 661.858013 107.774394 
L 663.990926 106.09273 
L 666.123839 104.621843 
L 668.256752 104.259376 
L 670.389664 104.037133 
L 672.522577 103.271484 
L 674.65549 102.100154 
L 678.921315 99.467345 
L 681.054228 98.429331 
L 683.187141 98.093762 
L 685.320053 97.905033 
L 687.452966 97.113514 
L 695.984617 92.778021 
L 698.11753 92.434809 
L 700.250443 92.255633 
L 702.383355 91.496452 
L 704.516268 90.369218 
L 706.649181 89.55374 
L 710.915006 87.100988 
L 713.047919 86.671055 
L 715.180832 86.40795 
L 717.313744 85.496491 
L 719.446657 84.160537 
L 721.57957 82.178728 
L 723.712483 78.027702 
L 725.845395 74.494604 
L 727.978308 72.777075 
L 730.111221 71.725392 
L 732.244134 69.497087 
L 734.377046 64.792659 
L 736.509959 61.05775 
L 740.775784 54.219383 
L 742.908697 53.082448 
L 745.04161 52.351781 
L 747.174523 50.216665 
L 747.174523 50.216665 
" style="fill:none;stroke:#0000ff;stroke-linecap:round;stroke-width:1.5;"/>
   </g>
   <g id="line2d_87"/>
   <g id="patch_3">
    <path d="M 59.096875 493.286013 
L 59.096875 29.118125 
" style="fill:none;stroke:#262626;stroke-linecap:square;stroke-linejoin:miter;stroke-width:1.25;"/>
   </g>
   <g id="patch_4">
    <path d="M 791.112525 493.286013 
L 791.112525 29.118125 
" style="fill:none;stroke:#262626;stroke-linecap:square;stroke-linejoin:miter;stroke-width:1.25;"/>
   </g>
   <g id="patch_5">
    <path d="M 59.096875 493.286013 
L 791.112525 493.286013 
" style="fill:none;stroke:#262626;stroke-linecap:square;stroke-linejoin:miter;stroke-width:1.25;"/>
   </g>
   <g id="patch_6">
    <path d="M 59.096875 29.118125 
L 791.112525 29.118125 
" style="fill:none;stroke:#262626;stroke-linecap:square;stroke-linejoin:miter;stroke-width:1.25;"/>
   </g>
   <g id="text_32">
    <!-- Last update: 02.11.2021 -->
    <g style="fill:#262626;" transform="translate(363.605872 22.155607)scale(0.09996 -0.09996)">
     <defs>
      <path d="M 628 4666 
L 1259 4666 
L 1259 531 
L 3531 531 
L 3531 0 
L 628 0 
L 628 4666 
z
" id="DejaVuSans-4c" transform="scale(0.015625)"/>
      <path d="M 2194 1759 
Q 1497 1759 1228 1600 
Q 959 1441 959 1056 
Q 959 750 1161 570 
Q 1363 391 1709 391 
Q 2188 391 2477 730 
Q 2766 1069 2766 1631 
L 2766 1759 
L 2194 1759 
z
M 3341 1997 
L 3341 0 
L 2766 0 
L 2766 531 
Q 2569 213 2275 61 
Q 1981 -91 1556 -91 
Q 1019 -91 701 211 
Q 384 513 384 1019 
Q 384 1609 779 1909 
Q 1175 2209 1959 2209 
L 2766 2209 
L 2766 2266 
Q 2766 2663 2505 2880 
Q 2244 3097 1772 3097 
Q 1472 3097 1187 3025 
Q 903 2953 641 2809 
L 641 3341 
Q 956 3463 1253 3523 
Q 1550 3584 1831 3584 
Q 2591 3584 2966 3190 
Q 3341 2797 3341 1997 
z
" id="DejaVuSans-61" transform="scale(0.015625)"/>
      <path d="M 544 1381 
L 544 3500 
L 1119 3500 
L 1119 1403 
Q 1119 906 1312 657 
Q 1506 409 1894 409 
Q 2359 409 2629 706 
Q 2900 1003 2900 1516 
L 2900 3500 
L 3475 3500 
L 3475 0 
L 2900 0 
L 2900 538 
Q 2691 219 2414 64 
Q 2138 -91 1772 -91 
Q 1169 -91 856 284 
Q 544 659 544 1381 
z
M 1991 3584 
L 1991 3584 
z
" id="DejaVuSans-75" transform="scale(0.015625)"/>
      <path d="M 1159 525 
L 1159 -1331 
L 581 -1331 
L 581 3500 
L 1159 3500 
L 1159 2969 
Q 1341 3281 1617 3432 
Q 1894 3584 2278 3584 
Q 2916 3584 3314 3078 
Q 3713 2572 3713 1747 
Q 3713 922 3314 415 
Q 2916 -91 2278 -91 
Q 1894 -91 1617 61 
Q 1341 213 1159 525 
z
M 3116 1747 
Q 3116 2381 2855 2742 
Q 2594 3103 2138 3103 
Q 1681 3103 1420 2742 
Q 1159 2381 1159 1747 
Q 1159 1113 1420 752 
Q 1681 391 2138 391 
Q 2594 391 2855 752 
Q 3116 1113 3116 1747 
z
" id="DejaVuSans-70" transform="scale(0.015625)"/>
      <path d="M 750 794 
L 1409 794 
L 1409 0 
L 750 0 
L 750 794 
z
M 750 3309 
L 1409 3309 
L 1409 2516 
L 750 2516 
L 750 3309 
z
" id="DejaVuSans-3a" transform="scale(0.015625)"/>
     </defs>
     <use xlink:href="#DejaVuSans-4c"/>
     <use x="55.712891" xlink:href="#DejaVuSans-61"/>
     <use x="116.992188" xlink:href="#DejaVuSans-73"/>
     <use x="169.091797" xlink:href="#DejaVuSans-74"/>
     <use x="208.300781" xlink:href="#DejaVuSans-20"/>
     <use x="240.087891" xlink:href="#DejaVuSans-75"/>
     <use x="303.466797" xlink:href="#DejaVuSans-70"/>
     <use x="366.943359" xlink:href="#DejaVuSans-64"/>
     <use x="430.419922" xlink:href="#DejaVuSans-61"/>
     <use x="491.699219" xlink:href="#DejaVuSans-74"/>
     <use x="530.908203" xlink:href="#DejaVuSans-65"/>
     <use x="592.431641" xlink:href="#DejaVuSans-3a"/>
     <use x="626.123047" xlink:href="#DejaVuSans-20"/>
     <use x="657.910156" xlink:href="#DejaVuSans-30"/>
     <use x="721.533203" xlink:href="#DejaVuSans-32"/>
     <use x="785.15625" xlink:href="#DejaVuSans-2e"/>
     <use x="816.943359" xlink:href="#DejaVuSans-31"/>
     <use x="880.566406" xlink:href="#DejaVuSans-31"/>
     <use x="944.189453" xlink:href="#DejaVuSans-2e"/>
     <use x="975.976562" xlink:href="#DejaVuSans-32"/>
     <use x="1039.599609" xlink:href="#DejaVuSans-30"/>
     <use x="1103.222656" xlink:href="#DejaVuSans-32"/>
     <use x="1166.845703" xlink:href="#DejaVuSans-31"/>
    </g>
   </g>
   <g id="text_33">
    <!-- Last update: 02.11.2021 -->
    <g style="fill:#262626;" transform="translate(363.605872 22.155607)scale(0.09996 -0.09996)">
     <use xlink:href="#DejaVuSans-4c"/>
     <use x="55.712891" xlink:href="#DejaVuSans-61"/>
     <use x="116.992188" xlink:href="#DejaVuSans-73"/>
     <use x="169.091797" xlink:href="#DejaVuSans-74"/>
     <use x="208.300781" xlink:href="#DejaVuSans-20"/>
     <use x="240.087891" xlink:href="#DejaVuSans-75"/>
     <use x="303.466797" xlink:href="#DejaVuSans-70"/>
     <use x="366.943359" xlink:href="#DejaVuSans-64"/>
     <use x="430.419922" xlink:href="#DejaVuSans-61"/>
     <use x="491.699219" xlink:href="#DejaVuSans-74"/>
     <use x="530.908203" xlink:href="#DejaVuSans-65"/>
     <use x="592.431641" xlink:href="#DejaVuSans-3a"/>
     <use x="626.123047" xlink:href="#DejaVuSans-20"/>
     <use x="657.910156" xlink:href="#DejaVuSans-30"/>
     <use x="721.533203" xlink:href="#DejaVuSans-32"/>
     <use x="785.15625" xlink:href="#DejaVuSans-2e"/>
     <use x="816.943359" xlink:href="#DejaVuSans-31"/>
     <use x="880.566406" xlink:href="#DejaVuSans-31"/>
     <use x="944.189453" xlink:href="#DejaVuSans-2e"/>
     <use x="975.976562" xlink:href="#DejaVuSans-32"/>
     <use x="1039.599609" xlink:href="#DejaVuSans-30"/>
     <use x="1103.222656" xlink:href="#DejaVuSans-32"/>
     <use x="1166.845703" xlink:href="#DejaVuSans-31"/>
    </g>
   </g>
   <g id="text_34">
    <!-- Vaccination timeline by week -->
    <g style="fill:#262626;" transform="translate(326.086887 9.118125)scale(0.12 -0.12)">
     <defs>
      <path d="M 31 4666 
L 1241 4666 
L 2478 1222 
L 3713 4666 
L 4922 4666 
L 3194 0 
L 1759 0 
L 31 4666 
z
" id="DejaVuSans-Bold-56" transform="scale(0.015625)"/>
      <path d="M 2106 1575 
Q 1756 1575 1579 1456 
Q 1403 1338 1403 1106 
Q 1403 894 1545 773 
Q 1688 653 1941 653 
Q 2256 653 2472 879 
Q 2688 1106 2688 1447 
L 2688 1575 
L 2106 1575 
z
M 3816 1997 
L 3816 0 
L 2688 0 
L 2688 519 
Q 2463 200 2181 54 
Q 1900 -91 1497 -91 
Q 953 -91 614 226 
Q 275 544 275 1050 
Q 275 1666 698 1953 
Q 1122 2241 2028 2241 
L 2688 2241 
L 2688 2328 
Q 2688 2594 2478 2717 
Q 2269 2841 1825 2841 
Q 1466 2841 1156 2769 
Q 847 2697 581 2553 
L 581 3406 
Q 941 3494 1303 3539 
Q 1666 3584 2028 3584 
Q 2975 3584 3395 3211 
Q 3816 2838 3816 1997 
z
" id="DejaVuSans-Bold-61" transform="scale(0.015625)"/>
      <path d="M 3366 3391 
L 3366 2478 
Q 3138 2634 2908 2709 
Q 2678 2784 2431 2784 
Q 1963 2784 1702 2511 
Q 1441 2238 1441 1747 
Q 1441 1256 1702 982 
Q 1963 709 2431 709 
Q 2694 709 2930 787 
Q 3166 866 3366 1019 
L 3366 103 
Q 3103 6 2833 -42 
Q 2563 -91 2291 -91 
Q 1344 -91 809 395 
Q 275 881 275 1747 
Q 275 2613 809 3098 
Q 1344 3584 2291 3584 
Q 2566 3584 2833 3536 
Q 3100 3488 3366 3391 
z
" id="DejaVuSans-Bold-63" transform="scale(0.015625)"/>
      <path d="M 538 3500 
L 1656 3500 
L 1656 0 
L 538 0 
L 538 3500 
z
M 538 4863 
L 1656 4863 
L 1656 3950 
L 538 3950 
L 538 4863 
z
" id="DejaVuSans-Bold-69" transform="scale(0.015625)"/>
      <path d="M 4056 2131 
L 4056 0 
L 2931 0 
L 2931 347 
L 2931 1631 
Q 2931 2084 2911 2256 
Q 2891 2428 2841 2509 
Q 2775 2619 2662 2680 
Q 2550 2741 2406 2741 
Q 2056 2741 1856 2470 
Q 1656 2200 1656 1722 
L 1656 0 
L 538 0 
L 538 3500 
L 1656 3500 
L 1656 2988 
Q 1909 3294 2193 3439 
Q 2478 3584 2822 3584 
Q 3428 3584 3742 3212 
Q 4056 2841 4056 2131 
z
" id="DejaVuSans-Bold-6e" transform="scale(0.015625)"/>
      <path d="M 1759 4494 
L 1759 3500 
L 2913 3500 
L 2913 2700 
L 1759 2700 
L 1759 1216 
Q 1759 972 1856 886 
Q 1953 800 2241 800 
L 2816 800 
L 2816 0 
L 1856 0 
Q 1194 0 917 276 
Q 641 553 641 1216 
L 641 2700 
L 84 2700 
L 84 3500 
L 641 3500 
L 641 4494 
L 1759 4494 
z
" id="DejaVuSans-Bold-74" transform="scale(0.015625)"/>
      <path d="M 2203 2784 
Q 1831 2784 1636 2517 
Q 1441 2250 1441 1747 
Q 1441 1244 1636 976 
Q 1831 709 2203 709 
Q 2569 709 2762 976 
Q 2956 1244 2956 1747 
Q 2956 2250 2762 2517 
Q 2569 2784 2203 2784 
z
M 2203 3584 
Q 3106 3584 3614 3096 
Q 4122 2609 4122 1747 
Q 4122 884 3614 396 
Q 3106 -91 2203 -91 
Q 1297 -91 786 396 
Q 275 884 275 1747 
Q 275 2609 786 3096 
Q 1297 3584 2203 3584 
z
" id="DejaVuSans-Bold-6f" transform="scale(0.015625)"/>
      <path id="DejaVuSans-Bold-20" transform="scale(0.015625)"/>
      <path d="M 3781 2919 
Q 3994 3244 4286 3414 
Q 4578 3584 4928 3584 
Q 5531 3584 5847 3212 
Q 6163 2841 6163 2131 
L 6163 0 
L 5038 0 
L 5038 1825 
Q 5041 1866 5042 1909 
Q 5044 1953 5044 2034 
Q 5044 2406 4934 2573 
Q 4825 2741 4581 2741 
Q 4263 2741 4089 2478 
Q 3916 2216 3909 1719 
L 3909 0 
L 2784 0 
L 2784 1825 
Q 2784 2406 2684 2573 
Q 2584 2741 2328 2741 
Q 2006 2741 1831 2477 
Q 1656 2213 1656 1722 
L 1656 0 
L 531 0 
L 531 3500 
L 1656 3500 
L 1656 2988 
Q 1863 3284 2130 3434 
Q 2397 3584 2719 3584 
Q 3081 3584 3359 3409 
Q 3638 3234 3781 2919 
z
" id="DejaVuSans-Bold-6d" transform="scale(0.015625)"/>
      <path d="M 4031 1759 
L 4031 1441 
L 1416 1441 
Q 1456 1047 1700 850 
Q 1944 653 2381 653 
Q 2734 653 3104 758 
Q 3475 863 3866 1075 
L 3866 213 
Q 3469 63 3072 -14 
Q 2675 -91 2278 -91 
Q 1328 -91 801 392 
Q 275 875 275 1747 
Q 275 2603 792 3093 
Q 1309 3584 2216 3584 
Q 3041 3584 3536 3087 
Q 4031 2591 4031 1759 
z
M 2881 2131 
Q 2881 2450 2695 2645 
Q 2509 2841 2209 2841 
Q 1884 2841 1681 2658 
Q 1478 2475 1428 2131 
L 2881 2131 
z
" id="DejaVuSans-Bold-65" transform="scale(0.015625)"/>
      <path d="M 538 4863 
L 1656 4863 
L 1656 0 
L 538 0 
L 538 4863 
z
" id="DejaVuSans-Bold-6c" transform="scale(0.015625)"/>
      <path d="M 2400 722 
Q 2759 722 2948 984 
Q 3138 1247 3138 1747 
Q 3138 2247 2948 2509 
Q 2759 2772 2400 2772 
Q 2041 2772 1848 2508 
Q 1656 2244 1656 1747 
Q 1656 1250 1848 986 
Q 2041 722 2400 722 
z
M 1656 2988 
Q 1888 3294 2169 3439 
Q 2450 3584 2816 3584 
Q 3463 3584 3878 3070 
Q 4294 2556 4294 1747 
Q 4294 938 3878 423 
Q 3463 -91 2816 -91 
Q 2450 -91 2169 54 
Q 1888 200 1656 506 
L 1656 0 
L 538 0 
L 538 4863 
L 1656 4863 
L 1656 2988 
z
" id="DejaVuSans-Bold-62" transform="scale(0.015625)"/>
      <path d="M 78 3500 
L 1197 3500 
L 2138 1125 
L 2938 3500 
L 4056 3500 
L 2584 -331 
Q 2363 -916 2067 -1148 
Q 1772 -1381 1288 -1381 
L 641 -1381 
L 641 -647 
L 991 -647 
Q 1275 -647 1404 -556 
Q 1534 -466 1606 -231 
L 1638 -134 
L 78 3500 
z
" id="DejaVuSans-Bold-79" transform="scale(0.015625)"/>
      <path d="M 225 3500 
L 1313 3500 
L 1900 1088 
L 2491 3500 
L 3425 3500 
L 4013 1113 
L 4603 3500 
L 5691 3500 
L 4769 0 
L 3547 0 
L 2956 2406 
L 2369 0 
L 1147 0 
L 225 3500 
z
" id="DejaVuSans-Bold-77" transform="scale(0.015625)"/>
      <path d="M 538 4863 
L 1656 4863 
L 1656 2216 
L 2944 3500 
L 4244 3500 
L 2534 1894 
L 4378 0 
L 3022 0 
L 1656 1459 
L 1656 0 
L 538 0 
L 538 4863 
z
" id="DejaVuSans-Bold-6b" transform="scale(0.015625)"/>
     </defs>
     <use xlink:href="#DejaVuSans-Bold-56"/>
     <use x="71.892578" xlink:href="#DejaVuSans-Bold-61"/>
     <use x="139.373047" xlink:href="#DejaVuSans-Bold-63"/>
     <use x="198.650391" xlink:href="#DejaVuSans-Bold-63"/>
     <use x="257.927734" xlink:href="#DejaVuSans-Bold-69"/>
     <use x="292.205078" xlink:href="#DejaVuSans-Bold-6e"/>
     <use x="363.396484" xlink:href="#DejaVuSans-Bold-61"/>
     <use x="430.876953" xlink:href="#DejaVuSans-Bold-74"/>
     <use x="478.679688" xlink:href="#DejaVuSans-Bold-69"/>
     <use x="512.957031" xlink:href="#DejaVuSans-Bold-6f"/>
     <use x="581.658203" xlink:href="#DejaVuSans-Bold-6e"/>
     <use x="652.849609" xlink:href="#DejaVuSans-Bold-20"/>
     <use x="687.664062" xlink:href="#DejaVuSans-Bold-74"/>
     <use x="735.466797" xlink:href="#DejaVuSans-Bold-69"/>
     <use x="769.744141" xlink:href="#DejaVuSans-Bold-6d"/>
     <use x="873.943359" xlink:href="#DejaVuSans-Bold-65"/>
     <use x="941.765625" xlink:href="#DejaVuSans-Bold-6c"/>
     <use x="976.042969" xlink:href="#DejaVuSans-Bold-69"/>
     <use x="1010.320312" xlink:href="#DejaVuSans-Bold-6e"/>
     <use x="1081.511719" xlink:href="#DejaVuSans-Bold-65"/>
     <use x="1149.333984" xlink:href="#DejaVuSans-Bold-20"/>
     <use x="1184.148438" xlink:href="#DejaVuSans-Bold-62"/>
     <use x="1255.730469" xlink:href="#DejaVuSans-Bold-79"/>
     <use x="1320.916016" xlink:href="#DejaVuSans-Bold-20"/>
     <use x="1355.730469" xlink:href="#DejaVuSans-Bold-77"/>
     <use x="1448.113281" xlink:href="#DejaVuSans-Bold-65"/>
     <use x="1515.935547" xlink:href="#DejaVuSans-Bold-65"/>
     <use x="1583.757812" xlink:href="#DejaVuSans-Bold-6b"/>
    </g>
   </g>
  </g>
  <g id="axes_2">
   <g id="matplotlib.axis_3">
    <g id="ytick_8">
     <g id="line2d_88">
      <defs>
       <path d="M 0 0 
L 6 0 
" id="ma035cc63d2" style="stroke:#262626;stroke-width:1.25;"/>
      </defs>
      <g>
       <use style="fill:#262626;stroke:#262626;stroke-width:1.25;" x="791.112525" xlink:href="#ma035cc63d2" y="483.53707"/>
      </g>
     </g>
     <g id="text_35">
      <!-- 0 -->
      <g style="fill:#262626;" transform="translate(800.612525 487.716211)scale(0.11 -0.11)">
       <use xlink:href="#DejaVuSans-30"/>
      </g>
     </g>
    </g>
    <g id="ytick_9">
     <g id="line2d_89">
      <g>
       <use style="fill:#262626;stroke:#262626;stroke-width:1.25;" x="791.112525" xlink:href="#ma035cc63d2" y="423.663691"/>
      </g>
     </g>
     <g id="text_36">
      <!-- 25000 -->
      <g style="fill:#262626;" transform="translate(800.612525 427.842832)scale(0.11 -0.11)">
       <use xlink:href="#DejaVuSans-32"/>
       <use x="63.623047" xlink:href="#DejaVuSans-35"/>
       <use x="127.246094" xlink:href="#DejaVuSans-30"/>
       <use x="190.869141" xlink:href="#DejaVuSans-30"/>
       <use x="254.492188" xlink:href="#DejaVuSans-30"/>
      </g>
     </g>
    </g>
    <g id="ytick_10">
     <g id="line2d_90">
      <g>
       <use style="fill:#262626;stroke:#262626;stroke-width:1.25;" x="791.112525" xlink:href="#ma035cc63d2" y="363.790313"/>
      </g>
     </g>
     <g id="text_37">
      <!-- 50000 -->
      <g style="fill:#262626;" transform="translate(800.612525 367.969454)scale(0.11 -0.11)">
       <use xlink:href="#DejaVuSans-35"/>
       <use x="63.623047" xlink:href="#DejaVuSans-30"/>
       <use x="127.246094" xlink:href="#DejaVuSans-30"/>
       <use x="190.869141" xlink:href="#DejaVuSans-30"/>
       <use x="254.492188" xlink:href="#DejaVuSans-30"/>
      </g>
     </g>
    </g>
    <g id="ytick_11">
     <g id="line2d_91">
      <g>
       <use style="fill:#262626;stroke:#262626;stroke-width:1.25;" x="791.112525" xlink:href="#ma035cc63d2" y="303.916934"/>
      </g>
     </g>
     <g id="text_38">
      <!-- 75000 -->
      <g style="fill:#262626;" transform="translate(800.612525 308.096075)scale(0.11 -0.11)">
       <use xlink:href="#DejaVuSans-37"/>
       <use x="63.623047" xlink:href="#DejaVuSans-35"/>
       <use x="127.246094" xlink:href="#DejaVuSans-30"/>
       <use x="190.869141" xlink:href="#DejaVuSans-30"/>
       <use x="254.492188" xlink:href="#DejaVuSans-30"/>
      </g>
     </g>
    </g>
    <g id="ytick_12">
     <g id="line2d_92">
      <g>
       <use style="fill:#262626;stroke:#262626;stroke-width:1.25;" x="791.112525" xlink:href="#ma035cc63d2" y="244.043556"/>
      </g>
     </g>
     <g id="text_39">
      <!-- 100000 -->
      <g style="fill:#262626;" transform="translate(800.612525 248.222697)scale(0.11 -0.11)">
       <use xlink:href="#DejaVuSans-31"/>
       <use x="63.623047" xlink:href="#DejaVuSans-30"/>
       <use x="127.246094" xlink:href="#DejaVuSans-30"/>
       <use x="190.869141" xlink:href="#DejaVuSans-30"/>
       <use x="254.492188" xlink:href="#DejaVuSans-30"/>
       <use x="318.115234" xlink:href="#DejaVuSans-30"/>
      </g>
     </g>
    </g>
    <g id="ytick_13">
     <g id="line2d_93">
      <g>
       <use style="fill:#262626;stroke:#262626;stroke-width:1.25;" x="791.112525" xlink:href="#ma035cc63d2" y="184.170178"/>
      </g>
     </g>
     <g id="text_40">
      <!-- 125000 -->
      <g style="fill:#262626;" transform="translate(800.612525 188.349318)scale(0.11 -0.11)">
       <use xlink:href="#DejaVuSans-31"/>
       <use x="63.623047" xlink:href="#DejaVuSans-32"/>
       <use x="127.246094" xlink:href="#DejaVuSans-35"/>
       <use x="190.869141" xlink:href="#DejaVuSans-30"/>
       <use x="254.492188" xlink:href="#DejaVuSans-30"/>
       <use x="318.115234" xlink:href="#DejaVuSans-30"/>
      </g>
     </g>
    </g>
    <g id="ytick_14">
     <g id="line2d_94">
      <g>
       <use style="fill:#262626;stroke:#262626;stroke-width:1.25;" x="791.112525" xlink:href="#ma035cc63d2" y="124.296799"/>
      </g>
     </g>
     <g id="text_41">
      <!-- 150000 -->
      <g style="fill:#262626;" transform="translate(800.612525 128.47594)scale(0.11 -0.11)">
       <use xlink:href="#DejaVuSans-31"/>
       <use x="63.623047" xlink:href="#DejaVuSans-35"/>
       <use x="127.246094" xlink:href="#DejaVuSans-30"/>
       <use x="190.869141" xlink:href="#DejaVuSans-30"/>
       <use x="254.492188" xlink:href="#DejaVuSans-30"/>
       <use x="318.115234" xlink:href="#DejaVuSans-30"/>
      </g>
     </g>
    </g>
    <g id="ytick_15">
     <g id="line2d_95">
      <g>
       <use style="fill:#262626;stroke:#262626;stroke-width:1.25;" x="791.112525" xlink:href="#ma035cc63d2" y="64.423421"/>
      </g>
     </g>
     <g id="text_42">
      <!-- 175000 -->
      <g style="fill:#262626;" transform="translate(800.612525 68.602561)scale(0.11 -0.11)">
       <use xlink:href="#DejaVuSans-31"/>
       <use x="63.623047" xlink:href="#DejaVuSans-37"/>
       <use x="127.246094" xlink:href="#DejaVuSans-35"/>
       <use x="190.869141" xlink:href="#DejaVuSans-30"/>
       <use x="254.492188" xlink:href="#DejaVuSans-30"/>
       <use x="318.115234" xlink:href="#DejaVuSans-30"/>
      </g>
     </g>
    </g>
    <g id="text_43">
     <!-- Newly administered doses -->
     <g style="fill:#262626;" transform="translate(853.4869 182.190506)rotate(-270)scale(0.12 -0.12)">
      <defs>
       <path d="M 628 4666 
L 1478 4666 
L 3547 763 
L 3547 4666 
L 4159 4666 
L 4159 0 
L 3309 0 
L 1241 3903 
L 1241 0 
L 628 0 
L 628 4666 
z
" id="DejaVuSans-4e" transform="scale(0.015625)"/>
       <path d="M 269 3500 
L 844 3500 
L 1563 769 
L 2278 3500 
L 2956 3500 
L 3675 769 
L 4391 3500 
L 4966 3500 
L 4050 0 
L 3372 0 
L 2619 2869 
L 1863 0 
L 1184 0 
L 269 3500 
z
" id="DejaVuSans-77" transform="scale(0.015625)"/>
       <path d="M 603 4863 
L 1178 4863 
L 1178 0 
L 603 0 
L 603 4863 
z
" id="DejaVuSans-6c" transform="scale(0.015625)"/>
       <path d="M 2059 -325 
Q 1816 -950 1584 -1140 
Q 1353 -1331 966 -1331 
L 506 -1331 
L 506 -850 
L 844 -850 
Q 1081 -850 1212 -737 
Q 1344 -625 1503 -206 
L 1606 56 
L 191 3500 
L 800 3500 
L 1894 763 
L 2988 3500 
L 3597 3500 
L 2059 -325 
z
" id="DejaVuSans-79" transform="scale(0.015625)"/>
      </defs>
      <use xlink:href="#DejaVuSans-4e"/>
      <use x="74.804688" xlink:href="#DejaVuSans-65"/>
      <use x="136.328125" xlink:href="#DejaVuSans-77"/>
      <use x="218.115234" xlink:href="#DejaVuSans-6c"/>
      <use x="245.898438" xlink:href="#DejaVuSans-79"/>
      <use x="305.078125" xlink:href="#DejaVuSans-20"/>
      <use x="336.865234" xlink:href="#DejaVuSans-61"/>
      <use x="398.144531" xlink:href="#DejaVuSans-64"/>
      <use x="461.621094" xlink:href="#DejaVuSans-6d"/>
      <use x="559.033203" xlink:href="#DejaVuSans-69"/>
      <use x="586.816406" xlink:href="#DejaVuSans-6e"/>
      <use x="650.195312" xlink:href="#DejaVuSans-69"/>
      <use x="677.978516" xlink:href="#DejaVuSans-73"/>
      <use x="730.078125" xlink:href="#DejaVuSans-74"/>
      <use x="769.287109" xlink:href="#DejaVuSans-65"/>
      <use x="830.810547" xlink:href="#DejaVuSans-72"/>
      <use x="869.673828" xlink:href="#DejaVuSans-65"/>
      <use x="931.197266" xlink:href="#DejaVuSans-64"/>
      <use x="994.673828" xlink:href="#DejaVuSans-20"/>
      <use x="1026.460938" xlink:href="#DejaVuSans-64"/>
      <use x="1089.9375" xlink:href="#DejaVuSans-6f"/>
      <use x="1151.119141" xlink:href="#DejaVuSans-73"/>
      <use x="1203.21875" xlink:href="#DejaVuSans-65"/>
      <use x="1264.742188" xlink:href="#DejaVuSans-73"/>
     </g>
    </g>
   </g>
   <g id="line2d_96">
    <path clip-path="url(#p2f0506fa0c)" d="M 100.901965 472.187472 
L 115.832354 462.619706 
L 130.762743 471.90008 
L 145.693132 464.88771 
L 160.623521 447.850141 
L 175.55391 445.227687 
L 190.484299 439.700177 
L 205.414688 404.417993 
L 220.345078 240.681067 
L 235.275467 298.269677 
L 250.205856 361.907894 
L 265.136245 414.938943 
L 280.066634 321.61311 
L 294.997023 320.873075 
L 309.927412 318.324864 
L 324.857802 325.102531 
L 339.788191 282.472685 
L 354.71858 243.928599 
L 369.648969 217.217888 
L 384.579358 50.216665 
L 399.509747 139.471108 
L 414.440136 265.14533 
L 429.370525 223.358501 
L 444.300915 203.521253 
L 459.231304 284.084477 
L 474.161693 321.031141 
L 489.092082 330.242062 
L 504.022471 336.042594 
L 518.95286 341.232419 
L 533.883249 348.970454 
L 548.813639 334.957689 
L 563.744028 332.265782 
L 578.674417 336.634143 
L 593.604806 330.452816 
L 608.535195 316.80887 
L 623.465584 324.944465 
L 638.395973 355.084724 
L 653.326362 349.566793 
L 668.256752 375.575789 
L 683.187141 383.076726 
L 698.11753 391.332067 
L 713.047919 389.624478 
L 727.978308 257.153431 
L 742.908697 162.639711 
L 757.839086 436.84302 
" style="fill:none;stroke:#ff0000;stroke-linecap:round;stroke-width:1.5;"/>
   </g>
   <g id="patch_7">
    <path d="M 59.096875 493.286013 
L 59.096875 29.118125 
" style="fill:none;stroke:#262626;stroke-linecap:square;stroke-linejoin:miter;stroke-width:1.25;"/>
   </g>
   <g id="patch_8">
    <path d="M 791.112525 493.286013 
L 791.112525 29.118125 
" style="fill:none;stroke:#262626;stroke-linecap:square;stroke-linejoin:miter;stroke-width:1.25;"/>
   </g>
   <g id="patch_9">
    <path d="M 59.096875 493.286013 
L 791.112525 493.286013 
" style="fill:none;stroke:#262626;stroke-linecap:square;stroke-linejoin:miter;stroke-width:1.25;"/>
   </g>
   <g id="patch_10">
    <path d="M 59.096875 29.118125 
L 791.112525 29.118125 
" style="fill:none;stroke:#262626;stroke-linecap:square;stroke-linejoin:miter;stroke-width:1.25;"/>
   </g>
   <g id="legend_1">
    <g id="patch_11">
     <path d="M 574.135806 70.21 
L 783.412525 70.21 
Q 785.612525 70.21 785.612525 68.01 
L 785.612525 36.818125 
Q 785.612525 34.618125 783.412525 34.618125 
L 574.135806 34.618125 
Q 571.935806 34.618125 571.935806 36.818125 
L 571.935806 68.01 
Q 571.935806 70.21 574.135806 70.21 
z
" style="fill:#ffffff;opacity:0.8;stroke:#cccccc;stroke-linejoin:miter;"/>
    </g>
    <g id="line2d_97">
     <path d="M 576.335806 43.526406 
L 598.335806 43.526406 
" style="fill:none;stroke:#0000ff;stroke-linecap:round;stroke-width:1.5;"/>
    </g>
    <g id="line2d_98"/>
    <g id="text_44">
     <!-- Cumulative administered doses -->
     <g style="fill:#262626;" transform="translate(607.135806 47.376406)scale(0.11 -0.11)">
      <defs>
       <path d="M 4122 4306 
L 4122 3641 
Q 3803 3938 3442 4084 
Q 3081 4231 2675 4231 
Q 1875 4231 1450 3742 
Q 1025 3253 1025 2328 
Q 1025 1406 1450 917 
Q 1875 428 2675 428 
Q 3081 428 3442 575 
Q 3803 722 4122 1019 
L 4122 359 
Q 3791 134 3420 21 
Q 3050 -91 2638 -91 
Q 1578 -91 968 557 
Q 359 1206 359 2328 
Q 359 3453 968 4101 
Q 1578 4750 2638 4750 
Q 3056 4750 3426 4639 
Q 3797 4528 4122 4306 
z
" id="DejaVuSans-43" transform="scale(0.015625)"/>
       <path d="M 191 3500 
L 800 3500 
L 1894 563 
L 2988 3500 
L 3597 3500 
L 2284 0 
L 1503 0 
L 191 3500 
z
" id="DejaVuSans-76" transform="scale(0.015625)"/>
      </defs>
      <use xlink:href="#DejaVuSans-43"/>
      <use x="69.824219" xlink:href="#DejaVuSans-75"/>
      <use x="133.203125" xlink:href="#DejaVuSans-6d"/>
      <use x="230.615234" xlink:href="#DejaVuSans-75"/>
      <use x="293.994141" xlink:href="#DejaVuSans-6c"/>
      <use x="321.777344" xlink:href="#DejaVuSans-61"/>
      <use x="383.056641" xlink:href="#DejaVuSans-74"/>
      <use x="422.265625" xlink:href="#DejaVuSans-69"/>
      <use x="450.048828" xlink:href="#DejaVuSans-76"/>
      <use x="509.228516" xlink:href="#DejaVuSans-65"/>
      <use x="570.751953" xlink:href="#DejaVuSans-20"/>
      <use x="602.539062" xlink:href="#DejaVuSans-61"/>
      <use x="663.818359" xlink:href="#DejaVuSans-64"/>
      <use x="727.294922" xlink:href="#DejaVuSans-6d"/>
      <use x="824.707031" xlink:href="#DejaVuSans-69"/>
      <use x="852.490234" xlink:href="#DejaVuSans-6e"/>
      <use x="915.869141" xlink:href="#DejaVuSans-69"/>
      <use x="943.652344" xlink:href="#DejaVuSans-73"/>
      <use x="995.751953" xlink:href="#DejaVuSans-74"/>
      <use x="1034.960938" xlink:href="#DejaVuSans-65"/>
      <use x="1096.484375" xlink:href="#DejaVuSans-72"/>
      <use x="1135.347656" xlink:href="#DejaVuSans-65"/>
      <use x="1196.871094" xlink:href="#DejaVuSans-64"/>
      <use x="1260.347656" xlink:href="#DejaVuSans-20"/>
      <use x="1292.134766" xlink:href="#DejaVuSans-64"/>
      <use x="1355.611328" xlink:href="#DejaVuSans-6f"/>
      <use x="1416.792969" xlink:href="#DejaVuSans-73"/>
      <use x="1468.892578" xlink:href="#DejaVuSans-65"/>
      <use x="1530.416016" xlink:href="#DejaVuSans-73"/>
     </g>
    </g>
    <g id="line2d_99">
     <path d="M 576.335806 59.672344 
L 598.335806 59.672344 
" style="fill:none;stroke:#ff0000;stroke-linecap:round;stroke-width:1.5;"/>
    </g>
    <g id="line2d_100"/>
    <g id="text_45">
     <!-- Newly administered doses -->
     <g style="fill:#262626;" transform="translate(607.135806 63.522344)scale(0.11 -0.11)">
      <use xlink:href="#DejaVuSans-4e"/>
      <use x="74.804688" xlink:href="#DejaVuSans-65"/>
      <use x="136.328125" xlink:href="#DejaVuSans-77"/>
      <use x="218.115234" xlink:href="#DejaVuSans-6c"/>
      <use x="245.898438" xlink:href="#DejaVuSans-79"/>
      <use x="305.078125" xlink:href="#DejaVuSans-20"/>
      <use x="336.865234" xlink:href="#DejaVuSans-61"/>
      <use x="398.144531" xlink:href="#DejaVuSans-64"/>
      <use x="461.621094" xlink:href="#DejaVuSans-6d"/>
      <use x="559.033203" xlink:href="#DejaVuSans-69"/>
      <use x="586.816406" xlink:href="#DejaVuSans-6e"/>
      <use x="650.195312" xlink:href="#DejaVuSans-69"/>
      <use x="677.978516" xlink:href="#DejaVuSans-73"/>
      <use x="730.078125" xlink:href="#DejaVuSans-74"/>
      <use x="769.287109" xlink:href="#DejaVuSans-65"/>
      <use x="830.810547" xlink:href="#DejaVuSans-72"/>
      <use x="869.673828" xlink:href="#DejaVuSans-65"/>
      <use x="931.197266" xlink:href="#DejaVuSans-64"/>
      <use x="994.673828" xlink:href="#DejaVuSans-20"/>
      <use x="1026.460938" xlink:href="#DejaVuSans-64"/>
      <use x="1089.9375" xlink:href="#DejaVuSans-6f"/>
      <use x="1151.119141" xlink:href="#DejaVuSans-73"/>
      <use x="1203.21875" xlink:href="#DejaVuSans-65"/>
      <use x="1264.742188" xlink:href="#DejaVuSans-73"/>
     </g>
    </g>
   </g>
  </g>
 </g>
 <defs>
  <clipPath id="p2f0506fa0c">
   <rect height="464.167888" width="732.01565" x="59.096875" y="29.118125"/>
  </clipPath>
 </defs>
</svg>
