<?xml version="1.0" encoding="utf-8" standalone="no"?>
<!DOCTYPE svg PUBLIC "-//W3C//DTD SVG 1.1//EN"
  "http://www.w3.org/Graphics/SVG/1.1/DTD/svg11.dtd">
<svg xmlns:xlink="http://www.w3.org/1999/xlink" width="837.220625pt" height="547.904678pt" viewBox="0 0 837.220625 547.904678" xmlns="http://www.w3.org/2000/svg" version="1.1">
 <metadata>
  <rdf:RDF xmlns:dc="http://purl.org/dc/elements/1.1/" xmlns:cc="http://creativecommons.org/ns#" xmlns:rdf="http://www.w3.org/1999/02/22-rdf-syntax-ns#">
   <cc:Work>
    <dc:type rdf:resource="http://purl.org/dc/dcmitype/StillImage"/>
    <dc:date>2022-01-25T02:09:39.704515</dc:date>
    <dc:format>image/svg+xml</dc:format>
    <dc:creator>
     <cc:Agent>
      <dc:title>Matplotlib v3.5.1, https://matplotlib.org/</dc:title>
     </cc:Agent>
    </dc:creator>
   </cc:Work>
  </rdf:RDF>
 </metadata>
 <defs>
  <style type="text/css">*{stroke-linejoin: round; stroke-linecap: butt}</style>
 </defs>
 <g id="figure_1">
  <g id="patch_1">
   <path d="M 0 547.904678 
L 837.220625 547.904678 
L 837.220625 0 
L 0 0 
L 0 547.904678 
z
" style="fill: none"/>
  </g>
  <g id="axes_1">
   <g id="patch_2">
    <path d="M 52.098125 470.728203 
L 765.728125 470.728203 
L 765.728125 29.118125 
L 52.098125 29.118125 
L 52.098125 470.728203 
z
" style="fill: none"/>
   </g>
   <g id="matplotlib.axis_1">
    <g id="xtick_1">
     <g id="line2d_1">
      <path d="M 91.088928 470.728203 
L 91.088928 29.118125 
" clip-path="url(#p2dab91623a)" style="fill: none; stroke: #cccccc; stroke-linecap: round"/>
     </g>
     <g id="line2d_2">
      <defs>
       <path id="mea474fc65d" d="M 0 0 
L 0 6 
" style="stroke: #262626; stroke-width: 1.25"/>
      </defs>
      <g>
       <use xlink:href="#mea474fc65d" x="91.088928" y="470.728203" style="fill: #262626; stroke: #262626; stroke-width: 1.25"/>
      </g>
     </g>
     <g id="text_1">
      <!-- 02.01.2021 -->
      <g style="fill: #262626" transform="translate(44.9364 530.673311)rotate(-45)scale(0.11 -0.11)">
       <defs>
        <path id="DejaVuSans-30" d="M 2034 4250 
Q 1547 4250 1301 3770 
Q 1056 3291 1056 2328 
Q 1056 1369 1301 889 
Q 1547 409 2034 409 
Q 2525 409 2770 889 
Q 3016 1369 3016 2328 
Q 3016 3291 2770 3770 
Q 2525 4250 2034 4250 
z
M 2034 4750 
Q 2819 4750 3233 4129 
Q 3647 3509 3647 2328 
Q 3647 1150 3233 529 
Q 2819 -91 2034 -91 
Q 1250 -91 836 529 
Q 422 1150 422 2328 
Q 422 3509 836 4129 
Q 1250 4750 2034 4750 
z
" transform="scale(0.015625)"/>
        <path id="DejaVuSans-32" d="M 1228 531 
L 3431 531 
L 3431 0 
L 469 0 
L 469 531 
Q 828 903 1448 1529 
Q 2069 2156 2228 2338 
Q 2531 2678 2651 2914 
Q 2772 3150 2772 3378 
Q 2772 3750 2511 3984 
Q 2250 4219 1831 4219 
Q 1534 4219 1204 4116 
Q 875 4013 500 3803 
L 500 4441 
Q 881 4594 1212 4672 
Q 1544 4750 1819 4750 
Q 2544 4750 2975 4387 
Q 3406 4025 3406 3419 
Q 3406 3131 3298 2873 
Q 3191 2616 2906 2266 
Q 2828 2175 2409 1742 
Q 1991 1309 1228 531 
z
" transform="scale(0.015625)"/>
        <path id="DejaVuSans-2e" d="M 684 794 
L 1344 794 
L 1344 0 
L 684 0 
L 684 794 
z
" transform="scale(0.015625)"/>
        <path id="DejaVuSans-31" d="M 794 531 
L 1825 531 
L 1825 4091 
L 703 3866 
L 703 4441 
L 1819 4666 
L 2450 4666 
L 2450 531 
L 3481 531 
L 3481 0 
L 794 0 
L 794 531 
z
" transform="scale(0.015625)"/>
       </defs>
       <use xlink:href="#DejaVuSans-30"/>
       <use xlink:href="#DejaVuSans-32" x="63.623047"/>
       <use xlink:href="#DejaVuSans-2e" x="127.246094"/>
       <use xlink:href="#DejaVuSans-30" x="159.033203"/>
       <use xlink:href="#DejaVuSans-31" x="222.65625"/>
       <use xlink:href="#DejaVuSans-2e" x="286.279297"/>
       <use xlink:href="#DejaVuSans-32" x="318.066406"/>
       <use xlink:href="#DejaVuSans-30" x="381.689453"/>
       <use xlink:href="#DejaVuSans-32" x="445.3125"/>
       <use xlink:href="#DejaVuSans-31" x="508.935547"/>
      </g>
     </g>
    </g>
    <g id="xtick_2">
     <g id="line2d_3">
      <path d="M 114.024695 470.728203 
L 114.024695 29.118125 
" clip-path="url(#p2dab91623a)" style="fill: none; stroke: #cccccc; stroke-linecap: round"/>
     </g>
     <g id="line2d_4">
      <g>
       <use xlink:href="#mea474fc65d" x="114.024695" y="470.728203" style="fill: #262626; stroke: #262626; stroke-width: 1.25"/>
      </g>
     </g>
     <g id="text_2">
      <!-- 16.01.2021 -->
      <g style="fill: #262626" transform="translate(67.872167 530.673311)rotate(-45)scale(0.11 -0.11)">
       <defs>
        <path id="DejaVuSans-36" d="M 2113 2584 
Q 1688 2584 1439 2293 
Q 1191 2003 1191 1497 
Q 1191 994 1439 701 
Q 1688 409 2113 409 
Q 2538 409 2786 701 
Q 3034 994 3034 1497 
Q 3034 2003 2786 2293 
Q 2538 2584 2113 2584 
z
M 3366 4563 
L 3366 3988 
Q 3128 4100 2886 4159 
Q 2644 4219 2406 4219 
Q 1781 4219 1451 3797 
Q 1122 3375 1075 2522 
Q 1259 2794 1537 2939 
Q 1816 3084 2150 3084 
Q 2853 3084 3261 2657 
Q 3669 2231 3669 1497 
Q 3669 778 3244 343 
Q 2819 -91 2113 -91 
Q 1303 -91 875 529 
Q 447 1150 447 2328 
Q 447 3434 972 4092 
Q 1497 4750 2381 4750 
Q 2619 4750 2861 4703 
Q 3103 4656 3366 4563 
z
" transform="scale(0.015625)"/>
       </defs>
       <use xlink:href="#DejaVuSans-31"/>
       <use xlink:href="#DejaVuSans-36" x="63.623047"/>
       <use xlink:href="#DejaVuSans-2e" x="127.246094"/>
       <use xlink:href="#DejaVuSans-30" x="159.033203"/>
       <use xlink:href="#DejaVuSans-31" x="222.65625"/>
       <use xlink:href="#DejaVuSans-2e" x="286.279297"/>
       <use xlink:href="#DejaVuSans-32" x="318.066406"/>
       <use xlink:href="#DejaVuSans-30" x="381.689453"/>
       <use xlink:href="#DejaVuSans-32" x="445.3125"/>
       <use xlink:href="#DejaVuSans-31" x="508.935547"/>
      </g>
     </g>
    </g>
    <g id="xtick_3">
     <g id="line2d_5">
      <path d="M 136.960462 470.728203 
L 136.960462 29.118125 
" clip-path="url(#p2dab91623a)" style="fill: none; stroke: #cccccc; stroke-linecap: round"/>
     </g>
     <g id="line2d_6">
      <g>
       <use xlink:href="#mea474fc65d" x="136.960462" y="470.728203" style="fill: #262626; stroke: #262626; stroke-width: 1.25"/>
      </g>
     </g>
     <g id="text_3">
      <!-- 30.01.2021 -->
      <g style="fill: #262626" transform="translate(90.807934 530.673311)rotate(-45)scale(0.11 -0.11)">
       <defs>
        <path id="DejaVuSans-33" d="M 2597 2516 
Q 3050 2419 3304 2112 
Q 3559 1806 3559 1356 
Q 3559 666 3084 287 
Q 2609 -91 1734 -91 
Q 1441 -91 1130 -33 
Q 819 25 488 141 
L 488 750 
Q 750 597 1062 519 
Q 1375 441 1716 441 
Q 2309 441 2620 675 
Q 2931 909 2931 1356 
Q 2931 1769 2642 2001 
Q 2353 2234 1838 2234 
L 1294 2234 
L 1294 2753 
L 1863 2753 
Q 2328 2753 2575 2939 
Q 2822 3125 2822 3475 
Q 2822 3834 2567 4026 
Q 2313 4219 1838 4219 
Q 1578 4219 1281 4162 
Q 984 4106 628 3988 
L 628 4550 
Q 988 4650 1302 4700 
Q 1616 4750 1894 4750 
Q 2613 4750 3031 4423 
Q 3450 4097 3450 3541 
Q 3450 3153 3228 2886 
Q 3006 2619 2597 2516 
z
" transform="scale(0.015625)"/>
       </defs>
       <use xlink:href="#DejaVuSans-33"/>
       <use xlink:href="#DejaVuSans-30" x="63.623047"/>
       <use xlink:href="#DejaVuSans-2e" x="127.246094"/>
       <use xlink:href="#DejaVuSans-30" x="159.033203"/>
       <use xlink:href="#DejaVuSans-31" x="222.65625"/>
       <use xlink:href="#DejaVuSans-2e" x="286.279297"/>
       <use xlink:href="#DejaVuSans-32" x="318.066406"/>
       <use xlink:href="#DejaVuSans-30" x="381.689453"/>
       <use xlink:href="#DejaVuSans-32" x="445.3125"/>
       <use xlink:href="#DejaVuSans-31" x="508.935547"/>
      </g>
     </g>
    </g>
    <g id="xtick_4">
     <g id="line2d_7">
      <path d="M 159.896229 470.728203 
L 159.896229 29.118125 
" clip-path="url(#p2dab91623a)" style="fill: none; stroke: #cccccc; stroke-linecap: round"/>
     </g>
     <g id="line2d_8">
      <g>
       <use xlink:href="#mea474fc65d" x="159.896229" y="470.728203" style="fill: #262626; stroke: #262626; stroke-width: 1.25"/>
      </g>
     </g>
     <g id="text_4">
      <!-- 13.02.2021 -->
      <g style="fill: #262626" transform="translate(113.743701 530.673311)rotate(-45)scale(0.11 -0.11)">
       <use xlink:href="#DejaVuSans-31"/>
       <use xlink:href="#DejaVuSans-33" x="63.623047"/>
       <use xlink:href="#DejaVuSans-2e" x="127.246094"/>
       <use xlink:href="#DejaVuSans-30" x="159.033203"/>
       <use xlink:href="#DejaVuSans-32" x="222.65625"/>
       <use xlink:href="#DejaVuSans-2e" x="286.279297"/>
       <use xlink:href="#DejaVuSans-32" x="318.066406"/>
       <use xlink:href="#DejaVuSans-30" x="381.689453"/>
       <use xlink:href="#DejaVuSans-32" x="445.3125"/>
       <use xlink:href="#DejaVuSans-31" x="508.935547"/>
      </g>
     </g>
    </g>
    <g id="xtick_5">
     <g id="line2d_9">
      <path d="M 182.831996 470.728203 
L 182.831996 29.118125 
" clip-path="url(#p2dab91623a)" style="fill: none; stroke: #cccccc; stroke-linecap: round"/>
     </g>
     <g id="line2d_10">
      <g>
       <use xlink:href="#mea474fc65d" x="182.831996" y="470.728203" style="fill: #262626; stroke: #262626; stroke-width: 1.25"/>
      </g>
     </g>
     <g id="text_5">
      <!-- 27.02.2021 -->
      <g style="fill: #262626" transform="translate(136.679467 530.673311)rotate(-45)scale(0.11 -0.11)">
       <defs>
        <path id="DejaVuSans-37" d="M 525 4666 
L 3525 4666 
L 3525 4397 
L 1831 0 
L 1172 0 
L 2766 4134 
L 525 4134 
L 525 4666 
z
" transform="scale(0.015625)"/>
       </defs>
       <use xlink:href="#DejaVuSans-32"/>
       <use xlink:href="#DejaVuSans-37" x="63.623047"/>
       <use xlink:href="#DejaVuSans-2e" x="127.246094"/>
       <use xlink:href="#DejaVuSans-30" x="159.033203"/>
       <use xlink:href="#DejaVuSans-32" x="222.65625"/>
       <use xlink:href="#DejaVuSans-2e" x="286.279297"/>
       <use xlink:href="#DejaVuSans-32" x="318.066406"/>
       <use xlink:href="#DejaVuSans-30" x="381.689453"/>
       <use xlink:href="#DejaVuSans-32" x="445.3125"/>
       <use xlink:href="#DejaVuSans-31" x="508.935547"/>
      </g>
     </g>
    </g>
    <g id="xtick_6">
     <g id="line2d_11">
      <path d="M 205.767762 470.728203 
L 205.767762 29.118125 
" clip-path="url(#p2dab91623a)" style="fill: none; stroke: #cccccc; stroke-linecap: round"/>
     </g>
     <g id="line2d_12">
      <g>
       <use xlink:href="#mea474fc65d" x="205.767762" y="470.728203" style="fill: #262626; stroke: #262626; stroke-width: 1.25"/>
      </g>
     </g>
     <g id="text_6">
      <!-- 13.03.2021 -->
      <g style="fill: #262626" transform="translate(159.615234 530.673311)rotate(-45)scale(0.11 -0.11)">
       <use xlink:href="#DejaVuSans-31"/>
       <use xlink:href="#DejaVuSans-33" x="63.623047"/>
       <use xlink:href="#DejaVuSans-2e" x="127.246094"/>
       <use xlink:href="#DejaVuSans-30" x="159.033203"/>
       <use xlink:href="#DejaVuSans-33" x="222.65625"/>
       <use xlink:href="#DejaVuSans-2e" x="286.279297"/>
       <use xlink:href="#DejaVuSans-32" x="318.066406"/>
       <use xlink:href="#DejaVuSans-30" x="381.689453"/>
       <use xlink:href="#DejaVuSans-32" x="445.3125"/>
       <use xlink:href="#DejaVuSans-31" x="508.935547"/>
      </g>
     </g>
    </g>
    <g id="xtick_7">
     <g id="line2d_13">
      <path d="M 228.703529 470.728203 
L 228.703529 29.118125 
" clip-path="url(#p2dab91623a)" style="fill: none; stroke: #cccccc; stroke-linecap: round"/>
     </g>
     <g id="line2d_14">
      <g>
       <use xlink:href="#mea474fc65d" x="228.703529" y="470.728203" style="fill: #262626; stroke: #262626; stroke-width: 1.25"/>
      </g>
     </g>
     <g id="text_7">
      <!-- 27.03.2021 -->
      <g style="fill: #262626" transform="translate(182.551001 530.673311)rotate(-45)scale(0.11 -0.11)">
       <use xlink:href="#DejaVuSans-32"/>
       <use xlink:href="#DejaVuSans-37" x="63.623047"/>
       <use xlink:href="#DejaVuSans-2e" x="127.246094"/>
       <use xlink:href="#DejaVuSans-30" x="159.033203"/>
       <use xlink:href="#DejaVuSans-33" x="222.65625"/>
       <use xlink:href="#DejaVuSans-2e" x="286.279297"/>
       <use xlink:href="#DejaVuSans-32" x="318.066406"/>
       <use xlink:href="#DejaVuSans-30" x="381.689453"/>
       <use xlink:href="#DejaVuSans-32" x="445.3125"/>
       <use xlink:href="#DejaVuSans-31" x="508.935547"/>
      </g>
     </g>
    </g>
    <g id="xtick_8">
     <g id="line2d_15">
      <path d="M 251.639296 470.728203 
L 251.639296 29.118125 
" clip-path="url(#p2dab91623a)" style="fill: none; stroke: #cccccc; stroke-linecap: round"/>
     </g>
     <g id="line2d_16">
      <g>
       <use xlink:href="#mea474fc65d" x="251.639296" y="470.728203" style="fill: #262626; stroke: #262626; stroke-width: 1.25"/>
      </g>
     </g>
     <g id="text_8">
      <!-- 10.04.2021 -->
      <g style="fill: #262626" transform="translate(205.486768 530.673311)rotate(-45)scale(0.11 -0.11)">
       <defs>
        <path id="DejaVuSans-34" d="M 2419 4116 
L 825 1625 
L 2419 1625 
L 2419 4116 
z
M 2253 4666 
L 3047 4666 
L 3047 1625 
L 3713 1625 
L 3713 1100 
L 3047 1100 
L 3047 0 
L 2419 0 
L 2419 1100 
L 313 1100 
L 313 1709 
L 2253 4666 
z
" transform="scale(0.015625)"/>
       </defs>
       <use xlink:href="#DejaVuSans-31"/>
       <use xlink:href="#DejaVuSans-30" x="63.623047"/>
       <use xlink:href="#DejaVuSans-2e" x="127.246094"/>
       <use xlink:href="#DejaVuSans-30" x="159.033203"/>
       <use xlink:href="#DejaVuSans-34" x="222.65625"/>
       <use xlink:href="#DejaVuSans-2e" x="286.279297"/>
       <use xlink:href="#DejaVuSans-32" x="318.066406"/>
       <use xlink:href="#DejaVuSans-30" x="381.689453"/>
       <use xlink:href="#DejaVuSans-32" x="445.3125"/>
       <use xlink:href="#DejaVuSans-31" x="508.935547"/>
      </g>
     </g>
    </g>
    <g id="xtick_9">
     <g id="line2d_17">
      <path d="M 274.575063 470.728203 
L 274.575063 29.118125 
" clip-path="url(#p2dab91623a)" style="fill: none; stroke: #cccccc; stroke-linecap: round"/>
     </g>
     <g id="line2d_18">
      <g>
       <use xlink:href="#mea474fc65d" x="274.575063" y="470.728203" style="fill: #262626; stroke: #262626; stroke-width: 1.25"/>
      </g>
     </g>
     <g id="text_9">
      <!-- 24.04.2021 -->
      <g style="fill: #262626" transform="translate(228.422534 530.673311)rotate(-45)scale(0.11 -0.11)">
       <use xlink:href="#DejaVuSans-32"/>
       <use xlink:href="#DejaVuSans-34" x="63.623047"/>
       <use xlink:href="#DejaVuSans-2e" x="127.246094"/>
       <use xlink:href="#DejaVuSans-30" x="159.033203"/>
       <use xlink:href="#DejaVuSans-34" x="222.65625"/>
       <use xlink:href="#DejaVuSans-2e" x="286.279297"/>
       <use xlink:href="#DejaVuSans-32" x="318.066406"/>
       <use xlink:href="#DejaVuSans-30" x="381.689453"/>
       <use xlink:href="#DejaVuSans-32" x="445.3125"/>
       <use xlink:href="#DejaVuSans-31" x="508.935547"/>
      </g>
     </g>
    </g>
    <g id="xtick_10">
     <g id="line2d_19">
      <path d="M 297.510829 470.728203 
L 297.510829 29.118125 
" clip-path="url(#p2dab91623a)" style="fill: none; stroke: #cccccc; stroke-linecap: round"/>
     </g>
     <g id="line2d_20">
      <g>
       <use xlink:href="#mea474fc65d" x="297.510829" y="470.728203" style="fill: #262626; stroke: #262626; stroke-width: 1.25"/>
      </g>
     </g>
     <g id="text_10">
      <!-- 08.05.2021 -->
      <g style="fill: #262626" transform="translate(251.358301 530.673311)rotate(-45)scale(0.11 -0.11)">
       <defs>
        <path id="DejaVuSans-38" d="M 2034 2216 
Q 1584 2216 1326 1975 
Q 1069 1734 1069 1313 
Q 1069 891 1326 650 
Q 1584 409 2034 409 
Q 2484 409 2743 651 
Q 3003 894 3003 1313 
Q 3003 1734 2745 1975 
Q 2488 2216 2034 2216 
z
M 1403 2484 
Q 997 2584 770 2862 
Q 544 3141 544 3541 
Q 544 4100 942 4425 
Q 1341 4750 2034 4750 
Q 2731 4750 3128 4425 
Q 3525 4100 3525 3541 
Q 3525 3141 3298 2862 
Q 3072 2584 2669 2484 
Q 3125 2378 3379 2068 
Q 3634 1759 3634 1313 
Q 3634 634 3220 271 
Q 2806 -91 2034 -91 
Q 1263 -91 848 271 
Q 434 634 434 1313 
Q 434 1759 690 2068 
Q 947 2378 1403 2484 
z
M 1172 3481 
Q 1172 3119 1398 2916 
Q 1625 2713 2034 2713 
Q 2441 2713 2670 2916 
Q 2900 3119 2900 3481 
Q 2900 3844 2670 4047 
Q 2441 4250 2034 4250 
Q 1625 4250 1398 4047 
Q 1172 3844 1172 3481 
z
" transform="scale(0.015625)"/>
        <path id="DejaVuSans-35" d="M 691 4666 
L 3169 4666 
L 3169 4134 
L 1269 4134 
L 1269 2991 
Q 1406 3038 1543 3061 
Q 1681 3084 1819 3084 
Q 2600 3084 3056 2656 
Q 3513 2228 3513 1497 
Q 3513 744 3044 326 
Q 2575 -91 1722 -91 
Q 1428 -91 1123 -41 
Q 819 9 494 109 
L 494 744 
Q 775 591 1075 516 
Q 1375 441 1709 441 
Q 2250 441 2565 725 
Q 2881 1009 2881 1497 
Q 2881 1984 2565 2268 
Q 2250 2553 1709 2553 
Q 1456 2553 1204 2497 
Q 953 2441 691 2322 
L 691 4666 
z
" transform="scale(0.015625)"/>
       </defs>
       <use xlink:href="#DejaVuSans-30"/>
       <use xlink:href="#DejaVuSans-38" x="63.623047"/>
       <use xlink:href="#DejaVuSans-2e" x="127.246094"/>
       <use xlink:href="#DejaVuSans-30" x="159.033203"/>
       <use xlink:href="#DejaVuSans-35" x="222.65625"/>
       <use xlink:href="#DejaVuSans-2e" x="286.279297"/>
       <use xlink:href="#DejaVuSans-32" x="318.066406"/>
       <use xlink:href="#DejaVuSans-30" x="381.689453"/>
       <use xlink:href="#DejaVuSans-32" x="445.3125"/>
       <use xlink:href="#DejaVuSans-31" x="508.935547"/>
      </g>
     </g>
    </g>
    <g id="xtick_11">
     <g id="line2d_21">
      <path d="M 320.446596 470.728203 
L 320.446596 29.118125 
" clip-path="url(#p2dab91623a)" style="fill: none; stroke: #cccccc; stroke-linecap: round"/>
     </g>
     <g id="line2d_22">
      <g>
       <use xlink:href="#mea474fc65d" x="320.446596" y="470.728203" style="fill: #262626; stroke: #262626; stroke-width: 1.25"/>
      </g>
     </g>
     <g id="text_11">
      <!-- 22.05.2021 -->
      <g style="fill: #262626" transform="translate(274.294068 530.673311)rotate(-45)scale(0.11 -0.11)">
       <use xlink:href="#DejaVuSans-32"/>
       <use xlink:href="#DejaVuSans-32" x="63.623047"/>
       <use xlink:href="#DejaVuSans-2e" x="127.246094"/>
       <use xlink:href="#DejaVuSans-30" x="159.033203"/>
       <use xlink:href="#DejaVuSans-35" x="222.65625"/>
       <use xlink:href="#DejaVuSans-2e" x="286.279297"/>
       <use xlink:href="#DejaVuSans-32" x="318.066406"/>
       <use xlink:href="#DejaVuSans-30" x="381.689453"/>
       <use xlink:href="#DejaVuSans-32" x="445.3125"/>
       <use xlink:href="#DejaVuSans-31" x="508.935547"/>
      </g>
     </g>
    </g>
    <g id="xtick_12">
     <g id="line2d_23">
      <path d="M 343.382363 470.728203 
L 343.382363 29.118125 
" clip-path="url(#p2dab91623a)" style="fill: none; stroke: #cccccc; stroke-linecap: round"/>
     </g>
     <g id="line2d_24">
      <g>
       <use xlink:href="#mea474fc65d" x="343.382363" y="470.728203" style="fill: #262626; stroke: #262626; stroke-width: 1.25"/>
      </g>
     </g>
     <g id="text_12">
      <!-- 05.06.2021 -->
      <g style="fill: #262626" transform="translate(297.229835 530.673311)rotate(-45)scale(0.11 -0.11)">
       <use xlink:href="#DejaVuSans-30"/>
       <use xlink:href="#DejaVuSans-35" x="63.623047"/>
       <use xlink:href="#DejaVuSans-2e" x="127.246094"/>
       <use xlink:href="#DejaVuSans-30" x="159.033203"/>
       <use xlink:href="#DejaVuSans-36" x="222.65625"/>
       <use xlink:href="#DejaVuSans-2e" x="286.279297"/>
       <use xlink:href="#DejaVuSans-32" x="318.066406"/>
       <use xlink:href="#DejaVuSans-30" x="381.689453"/>
       <use xlink:href="#DejaVuSans-32" x="445.3125"/>
       <use xlink:href="#DejaVuSans-31" x="508.935547"/>
      </g>
     </g>
    </g>
    <g id="xtick_13">
     <g id="line2d_25">
      <path d="M 366.31813 470.728203 
L 366.31813 29.118125 
" clip-path="url(#p2dab91623a)" style="fill: none; stroke: #cccccc; stroke-linecap: round"/>
     </g>
     <g id="line2d_26">
      <g>
       <use xlink:href="#mea474fc65d" x="366.31813" y="470.728203" style="fill: #262626; stroke: #262626; stroke-width: 1.25"/>
      </g>
     </g>
     <g id="text_13">
      <!-- 19.06.2021 -->
      <g style="fill: #262626" transform="translate(320.165601 530.673311)rotate(-45)scale(0.11 -0.11)">
       <defs>
        <path id="DejaVuSans-39" d="M 703 97 
L 703 672 
Q 941 559 1184 500 
Q 1428 441 1663 441 
Q 2288 441 2617 861 
Q 2947 1281 2994 2138 
Q 2813 1869 2534 1725 
Q 2256 1581 1919 1581 
Q 1219 1581 811 2004 
Q 403 2428 403 3163 
Q 403 3881 828 4315 
Q 1253 4750 1959 4750 
Q 2769 4750 3195 4129 
Q 3622 3509 3622 2328 
Q 3622 1225 3098 567 
Q 2575 -91 1691 -91 
Q 1453 -91 1209 -44 
Q 966 3 703 97 
z
M 1959 2075 
Q 2384 2075 2632 2365 
Q 2881 2656 2881 3163 
Q 2881 3666 2632 3958 
Q 2384 4250 1959 4250 
Q 1534 4250 1286 3958 
Q 1038 3666 1038 3163 
Q 1038 2656 1286 2365 
Q 1534 2075 1959 2075 
z
" transform="scale(0.015625)"/>
       </defs>
       <use xlink:href="#DejaVuSans-31"/>
       <use xlink:href="#DejaVuSans-39" x="63.623047"/>
       <use xlink:href="#DejaVuSans-2e" x="127.246094"/>
       <use xlink:href="#DejaVuSans-30" x="159.033203"/>
       <use xlink:href="#DejaVuSans-36" x="222.65625"/>
       <use xlink:href="#DejaVuSans-2e" x="286.279297"/>
       <use xlink:href="#DejaVuSans-32" x="318.066406"/>
       <use xlink:href="#DejaVuSans-30" x="381.689453"/>
       <use xlink:href="#DejaVuSans-32" x="445.3125"/>
       <use xlink:href="#DejaVuSans-31" x="508.935547"/>
      </g>
     </g>
    </g>
    <g id="xtick_14">
     <g id="line2d_27">
      <path d="M 389.253896 470.728203 
L 389.253896 29.118125 
" clip-path="url(#p2dab91623a)" style="fill: none; stroke: #cccccc; stroke-linecap: round"/>
     </g>
     <g id="line2d_28">
      <g>
       <use xlink:href="#mea474fc65d" x="389.253896" y="470.728203" style="fill: #262626; stroke: #262626; stroke-width: 1.25"/>
      </g>
     </g>
     <g id="text_14">
      <!-- 03.07.2021 -->
      <g style="fill: #262626" transform="translate(343.101368 530.673311)rotate(-45)scale(0.11 -0.11)">
       <use xlink:href="#DejaVuSans-30"/>
       <use xlink:href="#DejaVuSans-33" x="63.623047"/>
       <use xlink:href="#DejaVuSans-2e" x="127.246094"/>
       <use xlink:href="#DejaVuSans-30" x="159.033203"/>
       <use xlink:href="#DejaVuSans-37" x="222.65625"/>
       <use xlink:href="#DejaVuSans-2e" x="286.279297"/>
       <use xlink:href="#DejaVuSans-32" x="318.066406"/>
       <use xlink:href="#DejaVuSans-30" x="381.689453"/>
       <use xlink:href="#DejaVuSans-32" x="445.3125"/>
       <use xlink:href="#DejaVuSans-31" x="508.935547"/>
      </g>
     </g>
    </g>
    <g id="xtick_15">
     <g id="line2d_29">
      <path d="M 412.189663 470.728203 
L 412.189663 29.118125 
" clip-path="url(#p2dab91623a)" style="fill: none; stroke: #cccccc; stroke-linecap: round"/>
     </g>
     <g id="line2d_30">
      <g>
       <use xlink:href="#mea474fc65d" x="412.189663" y="470.728203" style="fill: #262626; stroke: #262626; stroke-width: 1.25"/>
      </g>
     </g>
     <g id="text_15">
      <!-- 17.07.2021 -->
      <g style="fill: #262626" transform="translate(366.037135 530.673311)rotate(-45)scale(0.11 -0.11)">
       <use xlink:href="#DejaVuSans-31"/>
       <use xlink:href="#DejaVuSans-37" x="63.623047"/>
       <use xlink:href="#DejaVuSans-2e" x="127.246094"/>
       <use xlink:href="#DejaVuSans-30" x="159.033203"/>
       <use xlink:href="#DejaVuSans-37" x="222.65625"/>
       <use xlink:href="#DejaVuSans-2e" x="286.279297"/>
       <use xlink:href="#DejaVuSans-32" x="318.066406"/>
       <use xlink:href="#DejaVuSans-30" x="381.689453"/>
       <use xlink:href="#DejaVuSans-32" x="445.3125"/>
       <use xlink:href="#DejaVuSans-31" x="508.935547"/>
      </g>
     </g>
    </g>
    <g id="xtick_16">
     <g id="line2d_31">
      <path d="M 435.12543 470.728203 
L 435.12543 29.118125 
" clip-path="url(#p2dab91623a)" style="fill: none; stroke: #cccccc; stroke-linecap: round"/>
     </g>
     <g id="line2d_32">
      <g>
       <use xlink:href="#mea474fc65d" x="435.12543" y="470.728203" style="fill: #262626; stroke: #262626; stroke-width: 1.25"/>
      </g>
     </g>
     <g id="text_16">
      <!-- 31.07.2021 -->
      <g style="fill: #262626" transform="translate(388.972902 530.673311)rotate(-45)scale(0.11 -0.11)">
       <use xlink:href="#DejaVuSans-33"/>
       <use xlink:href="#DejaVuSans-31" x="63.623047"/>
       <use xlink:href="#DejaVuSans-2e" x="127.246094"/>
       <use xlink:href="#DejaVuSans-30" x="159.033203"/>
       <use xlink:href="#DejaVuSans-37" x="222.65625"/>
       <use xlink:href="#DejaVuSans-2e" x="286.279297"/>
       <use xlink:href="#DejaVuSans-32" x="318.066406"/>
       <use xlink:href="#DejaVuSans-30" x="381.689453"/>
       <use xlink:href="#DejaVuSans-32" x="445.3125"/>
       <use xlink:href="#DejaVuSans-31" x="508.935547"/>
      </g>
     </g>
    </g>
    <g id="xtick_17">
     <g id="line2d_33">
      <path d="M 458.061197 470.728203 
L 458.061197 29.118125 
" clip-path="url(#p2dab91623a)" style="fill: none; stroke: #cccccc; stroke-linecap: round"/>
     </g>
     <g id="line2d_34">
      <g>
       <use xlink:href="#mea474fc65d" x="458.061197" y="470.728203" style="fill: #262626; stroke: #262626; stroke-width: 1.25"/>
      </g>
     </g>
     <g id="text_17">
      <!-- 14.08.2021 -->
      <g style="fill: #262626" transform="translate(411.908668 530.673311)rotate(-45)scale(0.11 -0.11)">
       <use xlink:href="#DejaVuSans-31"/>
       <use xlink:href="#DejaVuSans-34" x="63.623047"/>
       <use xlink:href="#DejaVuSans-2e" x="127.246094"/>
       <use xlink:href="#DejaVuSans-30" x="159.033203"/>
       <use xlink:href="#DejaVuSans-38" x="222.65625"/>
       <use xlink:href="#DejaVuSans-2e" x="286.279297"/>
       <use xlink:href="#DejaVuSans-32" x="318.066406"/>
       <use xlink:href="#DejaVuSans-30" x="381.689453"/>
       <use xlink:href="#DejaVuSans-32" x="445.3125"/>
       <use xlink:href="#DejaVuSans-31" x="508.935547"/>
      </g>
     </g>
    </g>
    <g id="xtick_18">
     <g id="line2d_35">
      <path d="M 480.996963 470.728203 
L 480.996963 29.118125 
" clip-path="url(#p2dab91623a)" style="fill: none; stroke: #cccccc; stroke-linecap: round"/>
     </g>
     <g id="line2d_36">
      <g>
       <use xlink:href="#mea474fc65d" x="480.996963" y="470.728203" style="fill: #262626; stroke: #262626; stroke-width: 1.25"/>
      </g>
     </g>
     <g id="text_18">
      <!-- 28.08.2021 -->
      <g style="fill: #262626" transform="translate(434.844435 530.673311)rotate(-45)scale(0.11 -0.11)">
       <use xlink:href="#DejaVuSans-32"/>
       <use xlink:href="#DejaVuSans-38" x="63.623047"/>
       <use xlink:href="#DejaVuSans-2e" x="127.246094"/>
       <use xlink:href="#DejaVuSans-30" x="159.033203"/>
       <use xlink:href="#DejaVuSans-38" x="222.65625"/>
       <use xlink:href="#DejaVuSans-2e" x="286.279297"/>
       <use xlink:href="#DejaVuSans-32" x="318.066406"/>
       <use xlink:href="#DejaVuSans-30" x="381.689453"/>
       <use xlink:href="#DejaVuSans-32" x="445.3125"/>
       <use xlink:href="#DejaVuSans-31" x="508.935547"/>
      </g>
     </g>
    </g>
    <g id="xtick_19">
     <g id="line2d_37">
      <path d="M 503.93273 470.728203 
L 503.93273 29.118125 
" clip-path="url(#p2dab91623a)" style="fill: none; stroke: #cccccc; stroke-linecap: round"/>
     </g>
     <g id="line2d_38">
      <g>
       <use xlink:href="#mea474fc65d" x="503.93273" y="470.728203" style="fill: #262626; stroke: #262626; stroke-width: 1.25"/>
      </g>
     </g>
     <g id="text_19">
      <!-- 11.09.2021 -->
      <g style="fill: #262626" transform="translate(457.780202 530.673311)rotate(-45)scale(0.11 -0.11)">
       <use xlink:href="#DejaVuSans-31"/>
       <use xlink:href="#DejaVuSans-31" x="63.623047"/>
       <use xlink:href="#DejaVuSans-2e" x="127.246094"/>
       <use xlink:href="#DejaVuSans-30" x="159.033203"/>
       <use xlink:href="#DejaVuSans-39" x="222.65625"/>
       <use xlink:href="#DejaVuSans-2e" x="286.279297"/>
       <use xlink:href="#DejaVuSans-32" x="318.066406"/>
       <use xlink:href="#DejaVuSans-30" x="381.689453"/>
       <use xlink:href="#DejaVuSans-32" x="445.3125"/>
       <use xlink:href="#DejaVuSans-31" x="508.935547"/>
      </g>
     </g>
    </g>
    <g id="xtick_20">
     <g id="line2d_39">
      <path d="M 526.868497 470.728203 
L 526.868497 29.118125 
" clip-path="url(#p2dab91623a)" style="fill: none; stroke: #cccccc; stroke-linecap: round"/>
     </g>
     <g id="line2d_40">
      <g>
       <use xlink:href="#mea474fc65d" x="526.868497" y="470.728203" style="fill: #262626; stroke: #262626; stroke-width: 1.25"/>
      </g>
     </g>
     <g id="text_20">
      <!-- 25.09.2021 -->
      <g style="fill: #262626" transform="translate(480.715969 530.673311)rotate(-45)scale(0.11 -0.11)">
       <use xlink:href="#DejaVuSans-32"/>
       <use xlink:href="#DejaVuSans-35" x="63.623047"/>
       <use xlink:href="#DejaVuSans-2e" x="127.246094"/>
       <use xlink:href="#DejaVuSans-30" x="159.033203"/>
       <use xlink:href="#DejaVuSans-39" x="222.65625"/>
       <use xlink:href="#DejaVuSans-2e" x="286.279297"/>
       <use xlink:href="#DejaVuSans-32" x="318.066406"/>
       <use xlink:href="#DejaVuSans-30" x="381.689453"/>
       <use xlink:href="#DejaVuSans-32" x="445.3125"/>
       <use xlink:href="#DejaVuSans-31" x="508.935547"/>
      </g>
     </g>
    </g>
    <g id="xtick_21">
     <g id="line2d_41">
      <path d="M 549.804264 470.728203 
L 549.804264 29.118125 
" clip-path="url(#p2dab91623a)" style="fill: none; stroke: #cccccc; stroke-linecap: round"/>
     </g>
     <g id="line2d_42">
      <g>
       <use xlink:href="#mea474fc65d" x="549.804264" y="470.728203" style="fill: #262626; stroke: #262626; stroke-width: 1.25"/>
      </g>
     </g>
     <g id="text_21">
      <!-- 09.10.2021 -->
      <g style="fill: #262626" transform="translate(503.651736 530.673311)rotate(-45)scale(0.11 -0.11)">
       <use xlink:href="#DejaVuSans-30"/>
       <use xlink:href="#DejaVuSans-39" x="63.623047"/>
       <use xlink:href="#DejaVuSans-2e" x="127.246094"/>
       <use xlink:href="#DejaVuSans-31" x="159.033203"/>
       <use xlink:href="#DejaVuSans-30" x="222.65625"/>
       <use xlink:href="#DejaVuSans-2e" x="286.279297"/>
       <use xlink:href="#DejaVuSans-32" x="318.066406"/>
       <use xlink:href="#DejaVuSans-30" x="381.689453"/>
       <use xlink:href="#DejaVuSans-32" x="445.3125"/>
       <use xlink:href="#DejaVuSans-31" x="508.935547"/>
      </g>
     </g>
    </g>
    <g id="xtick_22">
     <g id="line2d_43">
      <path d="M 572.74003 470.728203 
L 572.74003 29.118125 
" clip-path="url(#p2dab91623a)" style="fill: none; stroke: #cccccc; stroke-linecap: round"/>
     </g>
     <g id="line2d_44">
      <g>
       <use xlink:href="#mea474fc65d" x="572.74003" y="470.728203" style="fill: #262626; stroke: #262626; stroke-width: 1.25"/>
      </g>
     </g>
     <g id="text_22">
      <!-- 23.10.2021 -->
      <g style="fill: #262626" transform="translate(526.587502 530.673311)rotate(-45)scale(0.11 -0.11)">
       <use xlink:href="#DejaVuSans-32"/>
       <use xlink:href="#DejaVuSans-33" x="63.623047"/>
       <use xlink:href="#DejaVuSans-2e" x="127.246094"/>
       <use xlink:href="#DejaVuSans-31" x="159.033203"/>
       <use xlink:href="#DejaVuSans-30" x="222.65625"/>
       <use xlink:href="#DejaVuSans-2e" x="286.279297"/>
       <use xlink:href="#DejaVuSans-32" x="318.066406"/>
       <use xlink:href="#DejaVuSans-30" x="381.689453"/>
       <use xlink:href="#DejaVuSans-32" x="445.3125"/>
       <use xlink:href="#DejaVuSans-31" x="508.935547"/>
      </g>
     </g>
    </g>
    <g id="xtick_23">
     <g id="line2d_45">
      <path d="M 595.675797 470.728203 
L 595.675797 29.118125 
" clip-path="url(#p2dab91623a)" style="fill: none; stroke: #cccccc; stroke-linecap: round"/>
     </g>
     <g id="line2d_46">
      <g>
       <use xlink:href="#mea474fc65d" x="595.675797" y="470.728203" style="fill: #262626; stroke: #262626; stroke-width: 1.25"/>
      </g>
     </g>
     <g id="text_23">
      <!-- 06.11.2021 -->
      <g style="fill: #262626" transform="translate(549.523269 530.673311)rotate(-45)scale(0.11 -0.11)">
       <use xlink:href="#DejaVuSans-30"/>
       <use xlink:href="#DejaVuSans-36" x="63.623047"/>
       <use xlink:href="#DejaVuSans-2e" x="127.246094"/>
       <use xlink:href="#DejaVuSans-31" x="159.033203"/>
       <use xlink:href="#DejaVuSans-31" x="222.65625"/>
       <use xlink:href="#DejaVuSans-2e" x="286.279297"/>
       <use xlink:href="#DejaVuSans-32" x="318.066406"/>
       <use xlink:href="#DejaVuSans-30" x="381.689453"/>
       <use xlink:href="#DejaVuSans-32" x="445.3125"/>
       <use xlink:href="#DejaVuSans-31" x="508.935547"/>
      </g>
     </g>
    </g>
    <g id="xtick_24">
     <g id="line2d_47">
      <path d="M 618.611564 470.728203 
L 618.611564 29.118125 
" clip-path="url(#p2dab91623a)" style="fill: none; stroke: #cccccc; stroke-linecap: round"/>
     </g>
     <g id="line2d_48">
      <g>
       <use xlink:href="#mea474fc65d" x="618.611564" y="470.728203" style="fill: #262626; stroke: #262626; stroke-width: 1.25"/>
      </g>
     </g>
     <g id="text_24">
      <!-- 20.11.2021 -->
      <g style="fill: #262626" transform="translate(572.459036 530.673311)rotate(-45)scale(0.11 -0.11)">
       <use xlink:href="#DejaVuSans-32"/>
       <use xlink:href="#DejaVuSans-30" x="63.623047"/>
       <use xlink:href="#DejaVuSans-2e" x="127.246094"/>
       <use xlink:href="#DejaVuSans-31" x="159.033203"/>
       <use xlink:href="#DejaVuSans-31" x="222.65625"/>
       <use xlink:href="#DejaVuSans-2e" x="286.279297"/>
       <use xlink:href="#DejaVuSans-32" x="318.066406"/>
       <use xlink:href="#DejaVuSans-30" x="381.689453"/>
       <use xlink:href="#DejaVuSans-32" x="445.3125"/>
       <use xlink:href="#DejaVuSans-31" x="508.935547"/>
      </g>
     </g>
    </g>
    <g id="xtick_25">
     <g id="line2d_49">
      <path d="M 641.547331 470.728203 
L 641.547331 29.118125 
" clip-path="url(#p2dab91623a)" style="fill: none; stroke: #cccccc; stroke-linecap: round"/>
     </g>
     <g id="line2d_50">
      <g>
       <use xlink:href="#mea474fc65d" x="641.547331" y="470.728203" style="fill: #262626; stroke: #262626; stroke-width: 1.25"/>
      </g>
     </g>
     <g id="text_25">
      <!-- 04.12.2021 -->
      <g style="fill: #262626" transform="translate(595.394803 530.673311)rotate(-45)scale(0.11 -0.11)">
       <use xlink:href="#DejaVuSans-30"/>
       <use xlink:href="#DejaVuSans-34" x="63.623047"/>
       <use xlink:href="#DejaVuSans-2e" x="127.246094"/>
       <use xlink:href="#DejaVuSans-31" x="159.033203"/>
       <use xlink:href="#DejaVuSans-32" x="222.65625"/>
       <use xlink:href="#DejaVuSans-2e" x="286.279297"/>
       <use xlink:href="#DejaVuSans-32" x="318.066406"/>
       <use xlink:href="#DejaVuSans-30" x="381.689453"/>
       <use xlink:href="#DejaVuSans-32" x="445.3125"/>
       <use xlink:href="#DejaVuSans-31" x="508.935547"/>
      </g>
     </g>
    </g>
    <g id="xtick_26">
     <g id="line2d_51">
      <path d="M 664.483097 470.728203 
L 664.483097 29.118125 
" clip-path="url(#p2dab91623a)" style="fill: none; stroke: #cccccc; stroke-linecap: round"/>
     </g>
     <g id="line2d_52">
      <g>
       <use xlink:href="#mea474fc65d" x="664.483097" y="470.728203" style="fill: #262626; stroke: #262626; stroke-width: 1.25"/>
      </g>
     </g>
     <g id="text_26">
      <!-- 18.12.2021 -->
      <g style="fill: #262626" transform="translate(618.330569 530.673311)rotate(-45)scale(0.11 -0.11)">
       <use xlink:href="#DejaVuSans-31"/>
       <use xlink:href="#DejaVuSans-38" x="63.623047"/>
       <use xlink:href="#DejaVuSans-2e" x="127.246094"/>
       <use xlink:href="#DejaVuSans-31" x="159.033203"/>
       <use xlink:href="#DejaVuSans-32" x="222.65625"/>
       <use xlink:href="#DejaVuSans-2e" x="286.279297"/>
       <use xlink:href="#DejaVuSans-32" x="318.066406"/>
       <use xlink:href="#DejaVuSans-30" x="381.689453"/>
       <use xlink:href="#DejaVuSans-32" x="445.3125"/>
       <use xlink:href="#DejaVuSans-31" x="508.935547"/>
      </g>
     </g>
    </g>
    <g id="xtick_27">
     <g id="line2d_53">
      <path d="M 687.418864 470.728203 
L 687.418864 29.118125 
" clip-path="url(#p2dab91623a)" style="fill: none; stroke: #cccccc; stroke-linecap: round"/>
     </g>
     <g id="line2d_54">
      <g>
       <use xlink:href="#mea474fc65d" x="687.418864" y="470.728203" style="fill: #262626; stroke: #262626; stroke-width: 1.25"/>
      </g>
     </g>
     <g id="text_27">
      <!-- 01.01.2022 -->
      <g style="fill: #262626" transform="translate(641.266336 530.673311)rotate(-45)scale(0.11 -0.11)">
       <use xlink:href="#DejaVuSans-30"/>
       <use xlink:href="#DejaVuSans-31" x="63.623047"/>
       <use xlink:href="#DejaVuSans-2e" x="127.246094"/>
       <use xlink:href="#DejaVuSans-30" x="159.033203"/>
       <use xlink:href="#DejaVuSans-31" x="222.65625"/>
       <use xlink:href="#DejaVuSans-2e" x="286.279297"/>
       <use xlink:href="#DejaVuSans-32" x="318.066406"/>
       <use xlink:href="#DejaVuSans-30" x="381.689453"/>
       <use xlink:href="#DejaVuSans-32" x="445.3125"/>
       <use xlink:href="#DejaVuSans-32" x="508.935547"/>
      </g>
     </g>
    </g>
    <g id="xtick_28">
     <g id="line2d_55">
      <path d="M 710.354631 470.728203 
L 710.354631 29.118125 
" clip-path="url(#p2dab91623a)" style="fill: none; stroke: #cccccc; stroke-linecap: round"/>
     </g>
     <g id="line2d_56">
      <g>
       <use xlink:href="#mea474fc65d" x="710.354631" y="470.728203" style="fill: #262626; stroke: #262626; stroke-width: 1.25"/>
      </g>
     </g>
     <g id="text_28">
      <!-- 15.01.2022 -->
      <g style="fill: #262626" transform="translate(664.202103 530.673311)rotate(-45)scale(0.11 -0.11)">
       <use xlink:href="#DejaVuSans-31"/>
       <use xlink:href="#DejaVuSans-35" x="63.623047"/>
       <use xlink:href="#DejaVuSans-2e" x="127.246094"/>
       <use xlink:href="#DejaVuSans-30" x="159.033203"/>
       <use xlink:href="#DejaVuSans-31" x="222.65625"/>
       <use xlink:href="#DejaVuSans-2e" x="286.279297"/>
       <use xlink:href="#DejaVuSans-32" x="318.066406"/>
       <use xlink:href="#DejaVuSans-30" x="381.689453"/>
       <use xlink:href="#DejaVuSans-32" x="445.3125"/>
       <use xlink:href="#DejaVuSans-32" x="508.935547"/>
      </g>
     </g>
    </g>
    <g id="xtick_29">
     <g id="line2d_57">
      <defs>
       <path id="m19744076e1" d="M 0 0 
L 0 4 
" style="stroke: #262626"/>
      </defs>
      <g>
       <use xlink:href="#m19744076e1" x="56.685278" y="470.728203" style="fill: #262626; stroke: #262626"/>
      </g>
     </g>
    </g>
    <g id="xtick_30">
     <g id="line2d_58">
      <g>
       <use xlink:href="#m19744076e1" x="68.153162" y="470.728203" style="fill: #262626; stroke: #262626"/>
      </g>
     </g>
    </g>
    <g id="xtick_31">
     <g id="line2d_59">
      <g>
       <use xlink:href="#m19744076e1" x="79.621045" y="470.728203" style="fill: #262626; stroke: #262626"/>
      </g>
     </g>
    </g>
    <g id="xtick_32">
     <g id="line2d_60">
      <g>
       <use xlink:href="#m19744076e1" x="102.556812" y="470.728203" style="fill: #262626; stroke: #262626"/>
      </g>
     </g>
    </g>
    <g id="xtick_33">
     <g id="line2d_61">
      <g>
       <use xlink:href="#m19744076e1" x="125.492579" y="470.728203" style="fill: #262626; stroke: #262626"/>
      </g>
     </g>
    </g>
    <g id="xtick_34">
     <g id="line2d_62">
      <g>
       <use xlink:href="#m19744076e1" x="148.428345" y="470.728203" style="fill: #262626; stroke: #262626"/>
      </g>
     </g>
    </g>
    <g id="xtick_35">
     <g id="line2d_63">
      <g>
       <use xlink:href="#m19744076e1" x="171.364112" y="470.728203" style="fill: #262626; stroke: #262626"/>
      </g>
     </g>
    </g>
    <g id="xtick_36">
     <g id="line2d_64">
      <g>
       <use xlink:href="#m19744076e1" x="194.299879" y="470.728203" style="fill: #262626; stroke: #262626"/>
      </g>
     </g>
    </g>
    <g id="xtick_37">
     <g id="line2d_65">
      <g>
       <use xlink:href="#m19744076e1" x="217.235646" y="470.728203" style="fill: #262626; stroke: #262626"/>
      </g>
     </g>
    </g>
    <g id="xtick_38">
     <g id="line2d_66">
      <g>
       <use xlink:href="#m19744076e1" x="240.171412" y="470.728203" style="fill: #262626; stroke: #262626"/>
      </g>
     </g>
    </g>
    <g id="xtick_39">
     <g id="line2d_67">
      <g>
       <use xlink:href="#m19744076e1" x="263.107179" y="470.728203" style="fill: #262626; stroke: #262626"/>
      </g>
     </g>
    </g>
    <g id="xtick_40">
     <g id="line2d_68">
      <g>
       <use xlink:href="#m19744076e1" x="286.042946" y="470.728203" style="fill: #262626; stroke: #262626"/>
      </g>
     </g>
    </g>
    <g id="xtick_41">
     <g id="line2d_69">
      <g>
       <use xlink:href="#m19744076e1" x="308.978713" y="470.728203" style="fill: #262626; stroke: #262626"/>
      </g>
     </g>
    </g>
    <g id="xtick_42">
     <g id="line2d_70">
      <g>
       <use xlink:href="#m19744076e1" x="331.914479" y="470.728203" style="fill: #262626; stroke: #262626"/>
      </g>
     </g>
    </g>
    <g id="xtick_43">
     <g id="line2d_71">
      <g>
       <use xlink:href="#m19744076e1" x="354.850246" y="470.728203" style="fill: #262626; stroke: #262626"/>
      </g>
     </g>
    </g>
    <g id="xtick_44">
     <g id="line2d_72">
      <g>
       <use xlink:href="#m19744076e1" x="377.786013" y="470.728203" style="fill: #262626; stroke: #262626"/>
      </g>
     </g>
    </g>
    <g id="xtick_45">
     <g id="line2d_73">
      <g>
       <use xlink:href="#m19744076e1" x="400.72178" y="470.728203" style="fill: #262626; stroke: #262626"/>
      </g>
     </g>
    </g>
    <g id="xtick_46">
     <g id="line2d_74">
      <g>
       <use xlink:href="#m19744076e1" x="423.657546" y="470.728203" style="fill: #262626; stroke: #262626"/>
      </g>
     </g>
    </g>
    <g id="xtick_47">
     <g id="line2d_75">
      <g>
       <use xlink:href="#m19744076e1" x="446.593313" y="470.728203" style="fill: #262626; stroke: #262626"/>
      </g>
     </g>
    </g>
    <g id="xtick_48">
     <g id="line2d_76">
      <g>
       <use xlink:href="#m19744076e1" x="469.52908" y="470.728203" style="fill: #262626; stroke: #262626"/>
      </g>
     </g>
    </g>
    <g id="xtick_49">
     <g id="line2d_77">
      <g>
       <use xlink:href="#m19744076e1" x="492.464847" y="470.728203" style="fill: #262626; stroke: #262626"/>
      </g>
     </g>
    </g>
    <g id="xtick_50">
     <g id="line2d_78">
      <g>
       <use xlink:href="#m19744076e1" x="515.400614" y="470.728203" style="fill: #262626; stroke: #262626"/>
      </g>
     </g>
    </g>
    <g id="xtick_51">
     <g id="line2d_79">
      <g>
       <use xlink:href="#m19744076e1" x="538.33638" y="470.728203" style="fill: #262626; stroke: #262626"/>
      </g>
     </g>
    </g>
    <g id="xtick_52">
     <g id="line2d_80">
      <g>
       <use xlink:href="#m19744076e1" x="561.272147" y="470.728203" style="fill: #262626; stroke: #262626"/>
      </g>
     </g>
    </g>
    <g id="xtick_53">
     <g id="line2d_81">
      <g>
       <use xlink:href="#m19744076e1" x="584.207914" y="470.728203" style="fill: #262626; stroke: #262626"/>
      </g>
     </g>
    </g>
    <g id="xtick_54">
     <g id="line2d_82">
      <g>
       <use xlink:href="#m19744076e1" x="607.143681" y="470.728203" style="fill: #262626; stroke: #262626"/>
      </g>
     </g>
    </g>
    <g id="xtick_55">
     <g id="line2d_83">
      <g>
       <use xlink:href="#m19744076e1" x="630.079447" y="470.728203" style="fill: #262626; stroke: #262626"/>
      </g>
     </g>
    </g>
    <g id="xtick_56">
     <g id="line2d_84">
      <g>
       <use xlink:href="#m19744076e1" x="653.015214" y="470.728203" style="fill: #262626; stroke: #262626"/>
      </g>
     </g>
    </g>
    <g id="xtick_57">
     <g id="line2d_85">
      <g>
       <use xlink:href="#m19744076e1" x="675.950981" y="470.728203" style="fill: #262626; stroke: #262626"/>
      </g>
     </g>
    </g>
    <g id="xtick_58">
     <g id="line2d_86">
      <g>
       <use xlink:href="#m19744076e1" x="698.886748" y="470.728203" style="fill: #262626; stroke: #262626"/>
      </g>
     </g>
    </g>
    <g id="xtick_59">
     <g id="line2d_87">
      <g>
       <use xlink:href="#m19744076e1" x="721.822514" y="470.728203" style="fill: #262626; stroke: #262626"/>
      </g>
     </g>
    </g>
    <g id="xtick_60">
     <g id="line2d_88">
      <g>
       <use xlink:href="#m19744076e1" x="733.290398" y="470.728203" style="fill: #262626; stroke: #262626"/>
      </g>
     </g>
    </g>
    <g id="xtick_61">
     <g id="line2d_89">
      <g>
       <use xlink:href="#m19744076e1" x="744.758281" y="470.728203" style="fill: #262626; stroke: #262626"/>
      </g>
     </g>
    </g>
    <g id="xtick_62">
     <g id="line2d_90">
      <g>
       <use xlink:href="#m19744076e1" x="756.226164" y="470.728203" style="fill: #262626; stroke: #262626"/>
      </g>
     </g>
    </g>
    <g id="text_29">
     <!-- Week -->
     <g style="fill: #262626" transform="translate(392.475 545.409053)scale(0.12 -0.12)">
      <defs>
       <path id="DejaVuSans-57" d="M 213 4666 
L 850 4666 
L 1831 722 
L 2809 4666 
L 3519 4666 
L 4500 722 
L 5478 4666 
L 6119 4666 
L 4947 0 
L 4153 0 
L 3169 4050 
L 2175 0 
L 1381 0 
L 213 4666 
z
" transform="scale(0.015625)"/>
       <path id="DejaVuSans-65" d="M 3597 1894 
L 3597 1613 
L 953 1613 
Q 991 1019 1311 708 
Q 1631 397 2203 397 
Q 2534 397 2845 478 
Q 3156 559 3463 722 
L 3463 178 
Q 3153 47 2828 -22 
Q 2503 -91 2169 -91 
Q 1331 -91 842 396 
Q 353 884 353 1716 
Q 353 2575 817 3079 
Q 1281 3584 2069 3584 
Q 2775 3584 3186 3129 
Q 3597 2675 3597 1894 
z
M 3022 2063 
Q 3016 2534 2758 2815 
Q 2500 3097 2075 3097 
Q 1594 3097 1305 2825 
Q 1016 2553 972 2059 
L 3022 2063 
z
" transform="scale(0.015625)"/>
       <path id="DejaVuSans-6b" d="M 581 4863 
L 1159 4863 
L 1159 1991 
L 2875 3500 
L 3609 3500 
L 1753 1863 
L 3688 0 
L 2938 0 
L 1159 1709 
L 1159 0 
L 581 0 
L 581 4863 
z
" transform="scale(0.015625)"/>
      </defs>
      <use xlink:href="#DejaVuSans-57"/>
      <use xlink:href="#DejaVuSans-65" x="93.001953"/>
      <use xlink:href="#DejaVuSans-65" x="154.525391"/>
      <use xlink:href="#DejaVuSans-6b" x="216.048828"/>
     </g>
    </g>
   </g>
   <g id="matplotlib.axis_2">
    <g id="ytick_1">
     <g id="line2d_91">
      <path d="M 52.098125 451.036278 
L 765.728125 451.036278 
" clip-path="url(#p2dab91623a)" style="fill: none; stroke: #cccccc; stroke-linecap: round"/>
     </g>
     <g id="line2d_92">
      <defs>
       <path id="m614363edcd" d="M 0 0 
L -6 0 
" style="stroke: #262626; stroke-width: 1.25"/>
      </defs>
      <g>
       <use xlink:href="#m614363edcd" x="52.098125" y="451.036278" style="fill: #262626; stroke: #262626; stroke-width: 1.25"/>
      </g>
     </g>
     <g id="text_30">
      <!-- 0.0M -->
      <g style="fill: #262626" transform="translate(15.61375 455.215419)scale(0.11 -0.11)">
       <defs>
        <path id="DejaVuSans-4d" d="M 628 4666 
L 1569 4666 
L 2759 1491 
L 3956 4666 
L 4897 4666 
L 4897 0 
L 4281 0 
L 4281 4097 
L 3078 897 
L 2444 897 
L 1241 4097 
L 1241 0 
L 628 0 
L 628 4666 
z
" transform="scale(0.015625)"/>
       </defs>
       <use xlink:href="#DejaVuSans-30"/>
       <use xlink:href="#DejaVuSans-2e" x="63.623047"/>
       <use xlink:href="#DejaVuSans-30" x="95.410156"/>
       <use xlink:href="#DejaVuSans-4d" x="159.033203"/>
      </g>
     </g>
    </g>
    <g id="ytick_2">
     <g id="line2d_93">
      <path d="M 52.098125 353.12654 
L 765.728125 353.12654 
" clip-path="url(#p2dab91623a)" style="fill: none; stroke: #cccccc; stroke-linecap: round"/>
     </g>
     <g id="line2d_94">
      <g>
       <use xlink:href="#m614363edcd" x="52.098125" y="353.12654" style="fill: #262626; stroke: #262626; stroke-width: 1.25"/>
      </g>
     </g>
     <g id="text_31">
      <!-- 1.0M -->
      <g style="fill: #262626" transform="translate(15.61375 357.30568)scale(0.11 -0.11)">
       <use xlink:href="#DejaVuSans-31"/>
       <use xlink:href="#DejaVuSans-2e" x="63.623047"/>
       <use xlink:href="#DejaVuSans-30" x="95.410156"/>
       <use xlink:href="#DejaVuSans-4d" x="159.033203"/>
      </g>
     </g>
    </g>
    <g id="ytick_3">
     <g id="line2d_95">
      <path d="M 52.098125 255.216801 
L 765.728125 255.216801 
" clip-path="url(#p2dab91623a)" style="fill: none; stroke: #cccccc; stroke-linecap: round"/>
     </g>
     <g id="line2d_96">
      <g>
       <use xlink:href="#m614363edcd" x="52.098125" y="255.216801" style="fill: #262626; stroke: #262626; stroke-width: 1.25"/>
      </g>
     </g>
     <g id="text_32">
      <!-- 2.0M -->
      <g style="fill: #262626" transform="translate(15.61375 259.395942)scale(0.11 -0.11)">
       <use xlink:href="#DejaVuSans-32"/>
       <use xlink:href="#DejaVuSans-2e" x="63.623047"/>
       <use xlink:href="#DejaVuSans-30" x="95.410156"/>
       <use xlink:href="#DejaVuSans-4d" x="159.033203"/>
      </g>
     </g>
    </g>
    <g id="ytick_4">
     <g id="line2d_97">
      <path d="M 52.098125 157.307062 
L 765.728125 157.307062 
" clip-path="url(#p2dab91623a)" style="fill: none; stroke: #cccccc; stroke-linecap: round"/>
     </g>
     <g id="line2d_98">
      <g>
       <use xlink:href="#m614363edcd" x="52.098125" y="157.307062" style="fill: #262626; stroke: #262626; stroke-width: 1.25"/>
      </g>
     </g>
     <g id="text_33">
      <!-- 3.0M -->
      <g style="fill: #262626" transform="translate(15.61375 161.486203)scale(0.11 -0.11)">
       <use xlink:href="#DejaVuSans-33"/>
       <use xlink:href="#DejaVuSans-2e" x="63.623047"/>
       <use xlink:href="#DejaVuSans-30" x="95.410156"/>
       <use xlink:href="#DejaVuSans-4d" x="159.033203"/>
      </g>
     </g>
    </g>
    <g id="ytick_5">
     <g id="line2d_99">
      <path d="M 52.098125 59.397324 
L 765.728125 59.397324 
" clip-path="url(#p2dab91623a)" style="fill: none; stroke: #cccccc; stroke-linecap: round"/>
     </g>
     <g id="line2d_100">
      <g>
       <use xlink:href="#m614363edcd" x="52.098125" y="59.397324" style="fill: #262626; stroke: #262626; stroke-width: 1.25"/>
      </g>
     </g>
     <g id="text_34">
      <!-- 4.0M -->
      <g style="fill: #262626" transform="translate(15.61375 63.576464)scale(0.11 -0.11)">
       <use xlink:href="#DejaVuSans-34"/>
       <use xlink:href="#DejaVuSans-2e" x="63.623047"/>
       <use xlink:href="#DejaVuSans-30" x="95.410156"/>
       <use xlink:href="#DejaVuSans-4d" x="159.033203"/>
      </g>
     </g>
    </g>
    <g id="text_35">
     <!-- Administered doses -->
     <g style="fill: #262626" transform="translate(9.118125 309.044726)rotate(-90)scale(0.12 -0.12)">
      <defs>
       <path id="DejaVuSans-41" d="M 2188 4044 
L 1331 1722 
L 3047 1722 
L 2188 4044 
z
M 1831 4666 
L 2547 4666 
L 4325 0 
L 3669 0 
L 3244 1197 
L 1141 1197 
L 716 0 
L 50 0 
L 1831 4666 
z
" transform="scale(0.015625)"/>
       <path id="DejaVuSans-64" d="M 2906 2969 
L 2906 4863 
L 3481 4863 
L 3481 0 
L 2906 0 
L 2906 525 
Q 2725 213 2448 61 
Q 2172 -91 1784 -91 
Q 1150 -91 751 415 
Q 353 922 353 1747 
Q 353 2572 751 3078 
Q 1150 3584 1784 3584 
Q 2172 3584 2448 3432 
Q 2725 3281 2906 2969 
z
M 947 1747 
Q 947 1113 1208 752 
Q 1469 391 1925 391 
Q 2381 391 2643 752 
Q 2906 1113 2906 1747 
Q 2906 2381 2643 2742 
Q 2381 3103 1925 3103 
Q 1469 3103 1208 2742 
Q 947 2381 947 1747 
z
" transform="scale(0.015625)"/>
       <path id="DejaVuSans-6d" d="M 3328 2828 
Q 3544 3216 3844 3400 
Q 4144 3584 4550 3584 
Q 5097 3584 5394 3201 
Q 5691 2819 5691 2113 
L 5691 0 
L 5113 0 
L 5113 2094 
Q 5113 2597 4934 2840 
Q 4756 3084 4391 3084 
Q 3944 3084 3684 2787 
Q 3425 2491 3425 1978 
L 3425 0 
L 2847 0 
L 2847 2094 
Q 2847 2600 2669 2842 
Q 2491 3084 2119 3084 
Q 1678 3084 1418 2786 
Q 1159 2488 1159 1978 
L 1159 0 
L 581 0 
L 581 3500 
L 1159 3500 
L 1159 2956 
Q 1356 3278 1631 3431 
Q 1906 3584 2284 3584 
Q 2666 3584 2933 3390 
Q 3200 3197 3328 2828 
z
" transform="scale(0.015625)"/>
       <path id="DejaVuSans-69" d="M 603 3500 
L 1178 3500 
L 1178 0 
L 603 0 
L 603 3500 
z
M 603 4863 
L 1178 4863 
L 1178 4134 
L 603 4134 
L 603 4863 
z
" transform="scale(0.015625)"/>
       <path id="DejaVuSans-6e" d="M 3513 2113 
L 3513 0 
L 2938 0 
L 2938 2094 
Q 2938 2591 2744 2837 
Q 2550 3084 2163 3084 
Q 1697 3084 1428 2787 
Q 1159 2491 1159 1978 
L 1159 0 
L 581 0 
L 581 3500 
L 1159 3500 
L 1159 2956 
Q 1366 3272 1645 3428 
Q 1925 3584 2291 3584 
Q 2894 3584 3203 3211 
Q 3513 2838 3513 2113 
z
" transform="scale(0.015625)"/>
       <path id="DejaVuSans-73" d="M 2834 3397 
L 2834 2853 
Q 2591 2978 2328 3040 
Q 2066 3103 1784 3103 
Q 1356 3103 1142 2972 
Q 928 2841 928 2578 
Q 928 2378 1081 2264 
Q 1234 2150 1697 2047 
L 1894 2003 
Q 2506 1872 2764 1633 
Q 3022 1394 3022 966 
Q 3022 478 2636 193 
Q 2250 -91 1575 -91 
Q 1294 -91 989 -36 
Q 684 19 347 128 
L 347 722 
Q 666 556 975 473 
Q 1284 391 1588 391 
Q 1994 391 2212 530 
Q 2431 669 2431 922 
Q 2431 1156 2273 1281 
Q 2116 1406 1581 1522 
L 1381 1569 
Q 847 1681 609 1914 
Q 372 2147 372 2553 
Q 372 3047 722 3315 
Q 1072 3584 1716 3584 
Q 2034 3584 2315 3537 
Q 2597 3491 2834 3397 
z
" transform="scale(0.015625)"/>
       <path id="DejaVuSans-74" d="M 1172 4494 
L 1172 3500 
L 2356 3500 
L 2356 3053 
L 1172 3053 
L 1172 1153 
Q 1172 725 1289 603 
Q 1406 481 1766 481 
L 2356 481 
L 2356 0 
L 1766 0 
Q 1100 0 847 248 
Q 594 497 594 1153 
L 594 3053 
L 172 3053 
L 172 3500 
L 594 3500 
L 594 4494 
L 1172 4494 
z
" transform="scale(0.015625)"/>
       <path id="DejaVuSans-72" d="M 2631 2963 
Q 2534 3019 2420 3045 
Q 2306 3072 2169 3072 
Q 1681 3072 1420 2755 
Q 1159 2438 1159 1844 
L 1159 0 
L 581 0 
L 581 3500 
L 1159 3500 
L 1159 2956 
Q 1341 3275 1631 3429 
Q 1922 3584 2338 3584 
Q 2397 3584 2469 3576 
Q 2541 3569 2628 3553 
L 2631 2963 
z
" transform="scale(0.015625)"/>
       <path id="DejaVuSans-20" transform="scale(0.015625)"/>
       <path id="DejaVuSans-6f" d="M 1959 3097 
Q 1497 3097 1228 2736 
Q 959 2375 959 1747 
Q 959 1119 1226 758 
Q 1494 397 1959 397 
Q 2419 397 2687 759 
Q 2956 1122 2956 1747 
Q 2956 2369 2687 2733 
Q 2419 3097 1959 3097 
z
M 1959 3584 
Q 2709 3584 3137 3096 
Q 3566 2609 3566 1747 
Q 3566 888 3137 398 
Q 2709 -91 1959 -91 
Q 1206 -91 779 398 
Q 353 888 353 1747 
Q 353 2609 779 3096 
Q 1206 3584 1959 3584 
z
" transform="scale(0.015625)"/>
      </defs>
      <use xlink:href="#DejaVuSans-41"/>
      <use xlink:href="#DejaVuSans-64" x="66.658203"/>
      <use xlink:href="#DejaVuSans-6d" x="130.134766"/>
      <use xlink:href="#DejaVuSans-69" x="227.546875"/>
      <use xlink:href="#DejaVuSans-6e" x="255.330078"/>
      <use xlink:href="#DejaVuSans-69" x="318.708984"/>
      <use xlink:href="#DejaVuSans-73" x="346.492188"/>
      <use xlink:href="#DejaVuSans-74" x="398.591797"/>
      <use xlink:href="#DejaVuSans-65" x="437.800781"/>
      <use xlink:href="#DejaVuSans-72" x="499.324219"/>
      <use xlink:href="#DejaVuSans-65" x="538.1875"/>
      <use xlink:href="#DejaVuSans-64" x="599.710938"/>
      <use xlink:href="#DejaVuSans-20" x="663.1875"/>
      <use xlink:href="#DejaVuSans-64" x="694.974609"/>
      <use xlink:href="#DejaVuSans-6f" x="758.451172"/>
      <use xlink:href="#DejaVuSans-73" x="819.632812"/>
      <use xlink:href="#DejaVuSans-65" x="871.732422"/>
      <use xlink:href="#DejaVuSans-73" x="933.255859"/>
     </g>
    </g>
   </g>
   <g id="line2d_101">
    <path d="M 84.535852 450.655018 
L 87.81239 450.572284 
L 96.003736 450.502866 
L 100.918543 449.728694 
L 105.83335 449.649778 
L 109.109888 449.368092 
L 114.024695 449.241397 
L 117.301233 449.113527 
L 120.577771 448.67401 
L 123.85431 448.480736 
L 128.769117 448.412493 
L 130.407386 448.184951 
L 135.322193 447.041071 
L 138.598731 447.00974 
L 140.237 446.861994 
L 143.513538 446.12865 
L 146.790076 445.46913 
L 150.066614 445.451702 
L 151.704883 445.270569 
L 154.981422 444.558276 
L 156.619691 444.072644 
L 158.25796 443.723008 
L 163.172767 443.45454 
L 166.449305 442.623873 
L 168.087574 442.174076 
L 169.725843 440.827426 
L 171.364112 440.427171 
L 174.64065 438.203934 
L 176.278919 436.523509 
L 179.555457 432.579117 
L 181.193726 431.019709 
L 182.831996 430.498731 
L 184.470265 430.235844 
L 186.108534 429.149633 
L 187.746803 427.168625 
L 189.385072 426.738116 
L 191.023341 424.743205 
L 192.66161 423.184482 
L 195.938148 422.776492 
L 197.576417 422.237891 
L 200.852955 420.767972 
L 202.491224 419.269855 
L 204.129493 418.073986 
L 207.406031 417.856724 
L 209.0443 417.579835 
L 212.320838 416.699137 
L 213.959108 416.17532 
L 215.597377 415.52236 
L 217.235646 415.147757 
L 218.873915 414.916886 
L 220.512184 414.18599 
L 223.788722 411.744219 
L 227.06526 408.912767 
L 228.703529 408.527982 
L 230.341798 408.294663 
L 231.980067 407.412888 
L 238.533143 402.268906 
L 240.171412 401.877952 
L 241.809681 401.731871 
L 243.447951 401.097514 
L 245.08622 400.158951 
L 246.724489 398.806034 
L 248.362758 396.939581 
L 250.001027 395.482684 
L 251.639296 395.123747 
L 253.277565 394.967091 
L 254.915834 394.249413 
L 256.554103 393.221067 
L 261.46891 388.948873 
L 263.107179 388.646626 
L 264.745448 388.526491 
L 266.383717 387.836913 
L 268.021986 386.676976 
L 269.660255 384.800242 
L 271.298524 382.644661 
L 272.936794 380.84087 
L 274.575063 380.426712 
L 276.213332 380.224039 
L 277.851601 379.155844 
L 279.48987 377.515953 
L 282.766408 372.397526 
L 284.404677 371.194509 
L 286.042946 370.631038 
L 287.681215 370.297656 
L 289.319484 369.427532 
L 290.957753 368.337503 
L 292.596022 365.157297 
L 294.234291 364.4592 
L 295.87256 360.727175 
L 297.510829 359.743378 
L 299.149098 359.190677 
L 300.787367 356.696426 
L 304.063906 349.624994 
L 305.702175 345.927922 
L 307.340444 342.673696 
L 308.978713 342.028373 
L 310.616982 341.696459 
L 312.255251 339.910977 
L 313.89352 337.358372 
L 315.531789 334.386909 
L 317.170058 331.038005 
L 318.808327 328.583799 
L 320.446596 327.962268 
L 322.084865 327.603135 
L 323.723134 327.096746 
L 325.361403 325.445792 
L 326.999672 323.403591 
L 330.27621 319.72659 
L 331.914479 319.033977 
L 333.552749 318.540022 
L 335.191018 317.299114 
L 336.829287 315.532039 
L 341.744094 308.983934 
L 343.382363 308.397357 
L 345.020632 307.671845 
L 346.658901 306.249902 
L 348.29717 304.119386 
L 351.573708 299.442238 
L 353.211977 297.436166 
L 354.850246 296.94975 
L 356.488515 296.63027 
L 358.126784 295.68505 
L 359.765053 294.171561 
L 363.041591 290.664434 
L 364.679861 289.173269 
L 367.956399 288.488978 
L 369.594668 287.656549 
L 372.871206 285.050094 
L 374.509475 283.658601 
L 376.147744 282.456269 
L 379.424282 281.885847 
L 381.062551 281.096793 
L 387.615627 276.237434 
L 389.253896 275.885155 
L 390.892165 275.673964 
L 392.530434 274.908897 
L 395.806973 272.507367 
L 399.083511 270.174961 
L 400.72178 269.855286 
L 402.360049 269.650361 
L 403.998318 268.82694 
L 408.913125 265.343214 
L 410.551394 264.298223 
L 413.827932 263.83746 
L 415.466201 263.076799 
L 418.742739 261.016876 
L 422.019277 258.882835 
L 423.657546 258.536235 
L 425.295816 258.340611 
L 426.934085 257.505147 
L 433.487161 252.774638 
L 436.763699 252.250038 
L 438.401968 251.436408 
L 444.955044 246.598688 
L 448.231582 246.049512 
L 449.869851 245.169891 
L 456.422928 240.61513 
L 458.061197 240.272054 
L 459.699466 240.058024 
L 461.337735 239.163618 
L 467.890811 234.376321 
L 469.52908 234.013664 
L 471.167349 233.779757 
L 472.805618 232.812507 
L 477.720425 228.804768 
L 479.358694 227.582267 
L 480.996963 227.197481 
L 482.635232 226.948791 
L 484.273501 225.930236 
L 487.55004 223.43109 
L 490.826578 221.043854 
L 492.464847 220.713899 
L 495.741385 220.341646 
L 499.017923 218.008946 
L 502.294461 215.763386 
L 505.570999 215.270998 
L 507.209268 214.483412 
L 513.762344 210.28328 
L 515.400614 209.985537 
L 517.038883 209.819384 
L 518.677152 209.080557 
L 520.315421 208.095194 
L 521.95369 207.913277 
L 523.591959 206.793092 
L 525.230228 205.813309 
L 528.506766 205.423824 
L 530.145035 204.913812 
L 533.421573 203.251795 
L 535.059842 202.37981 
L 536.698111 201.688372 
L 539.974649 201.339128 
L 541.612918 200.811884 
L 548.165995 197.923938 
L 551.442533 197.575967 
L 553.080802 197.070263 
L 554.719071 196.319393 
L 556.35734 195.77619 
L 559.633878 194.14237 
L 562.910416 193.680726 
L 564.548685 193.073588 
L 566.186954 192.183686 
L 567.825223 190.863569 
L 569.463492 188.0985 
L 571.101761 185.745044 
L 572.74003 184.600968 
L 574.378299 183.900424 
L 576.016569 182.416113 
L 577.654838 179.282414 
L 580.931376 174.505397 
L 582.569645 172.239374 
L 584.207914 171.482043 
L 585.846183 170.995333 
L 587.484452 169.573096 
L 590.76099 165.820901 
L 594.037528 161.805134 
L 595.675797 161.144145 
L 597.314066 160.677997 
L 598.952335 159.378539 
L 602.228873 156.016906 
L 605.505412 151.683421 
L 607.143681 150.92883 
L 608.78195 150.451618 
L 610.420219 148.807126 
L 616.973295 140.248836 
L 618.611564 139.537718 
L 620.249833 139.092914 
L 621.888102 137.541632 
L 626.802909 131.612316 
L 628.441178 129.510781 
L 630.079447 128.8588 
L 631.717716 128.404303 
L 633.355985 126.856742 
L 639.909062 119.060189 
L 641.547331 118.466269 
L 643.1856 118.069734 
L 644.823869 116.906371 
L 651.376945 109.855107 
L 653.015214 109.268922 
L 654.653483 108.906264 
L 656.291752 107.730074 
L 659.56829 104.301471 
L 662.844828 100.743431 
L 664.483097 100.151371 
L 666.121367 99.767663 
L 667.759636 98.298625 
L 669.397905 96.426591 
L 671.036174 94.812451 
L 672.674443 93.447785 
L 677.58925 93.14074 
L 680.865788 92.435986 
L 682.504057 90.487582 
L 684.142326 89.057317 
L 685.780595 88.705625 
L 687.418864 88.662055 
L 689.057133 88.299495 
L 690.695402 87.630772 
L 692.333671 85.190078 
L 693.97194 82.017802 
L 697.248479 75.202305 
L 698.886748 74.098667 
L 700.525017 73.430629 
L 702.163286 71.189768 
L 705.439824 65.085782 
L 707.078093 62.18217 
L 708.716362 59.758611 
L 710.354631 59.074221 
L 711.9929 58.710193 
L 713.631169 57.368928 
L 718.545976 51.746167 
L 720.184245 50.420567 
L 721.822514 50.054678 
L 723.460783 49.864929 
L 725.099052 49.19131 
L 725.099052 49.19131 
" clip-path="url(#p2dab91623a)" style="fill: none; stroke: #0000ff; stroke-width: 1.5; stroke-linecap: round"/>
   </g>
   <g id="line2d_102"/>
   <g id="patch_3">
    <path d="M 52.098125 470.728203 
L 52.098125 29.118125 
" style="fill: none; stroke: #262626; stroke-width: 1.25; stroke-linejoin: miter; stroke-linecap: square"/>
   </g>
   <g id="patch_4">
    <path d="M 765.728125 470.728203 
L 765.728125 29.118125 
" style="fill: none; stroke: #262626; stroke-width: 1.25; stroke-linejoin: miter; stroke-linecap: square"/>
   </g>
   <g id="patch_5">
    <path d="M 52.098125 470.728203 
L 765.728125 470.728203 
" style="fill: none; stroke: #262626; stroke-width: 1.25; stroke-linejoin: miter; stroke-linecap: square"/>
   </g>
   <g id="patch_6">
    <path d="M 52.098125 29.118125 
L 765.728125 29.118125 
" style="fill: none; stroke: #262626; stroke-width: 1.25; stroke-linejoin: miter; stroke-linecap: square"/>
   </g>
   <g id="text_36">
    <!-- Last update: 25.01.2022 -->
    <g style="fill: #262626" transform="translate(347.414297 22.493974)scale(0.09996 -0.09996)">
     <defs>
      <path id="DejaVuSans-4c" d="M 628 4666 
L 1259 4666 
L 1259 531 
L 3531 531 
L 3531 0 
L 628 0 
L 628 4666 
z
" transform="scale(0.015625)"/>
      <path id="DejaVuSans-61" d="M 2194 1759 
Q 1497 1759 1228 1600 
Q 959 1441 959 1056 
Q 959 750 1161 570 
Q 1363 391 1709 391 
Q 2188 391 2477 730 
Q 2766 1069 2766 1631 
L 2766 1759 
L 2194 1759 
z
M 3341 1997 
L 3341 0 
L 2766 0 
L 2766 531 
Q 2569 213 2275 61 
Q 1981 -91 1556 -91 
Q 1019 -91 701 211 
Q 384 513 384 1019 
Q 384 1609 779 1909 
Q 1175 2209 1959 2209 
L 2766 2209 
L 2766 2266 
Q 2766 2663 2505 2880 
Q 2244 3097 1772 3097 
Q 1472 3097 1187 3025 
Q 903 2953 641 2809 
L 641 3341 
Q 956 3463 1253 3523 
Q 1550 3584 1831 3584 
Q 2591 3584 2966 3190 
Q 3341 2797 3341 1997 
z
" transform="scale(0.015625)"/>
      <path id="DejaVuSans-75" d="M 544 1381 
L 544 3500 
L 1119 3500 
L 1119 1403 
Q 1119 906 1312 657 
Q 1506 409 1894 409 
Q 2359 409 2629 706 
Q 2900 1003 2900 1516 
L 2900 3500 
L 3475 3500 
L 3475 0 
L 2900 0 
L 2900 538 
Q 2691 219 2414 64 
Q 2138 -91 1772 -91 
Q 1169 -91 856 284 
Q 544 659 544 1381 
z
M 1991 3584 
L 1991 3584 
z
" transform="scale(0.015625)"/>
      <path id="DejaVuSans-70" d="M 1159 525 
L 1159 -1331 
L 581 -1331 
L 581 3500 
L 1159 3500 
L 1159 2969 
Q 1341 3281 1617 3432 
Q 1894 3584 2278 3584 
Q 2916 3584 3314 3078 
Q 3713 2572 3713 1747 
Q 3713 922 3314 415 
Q 2916 -91 2278 -91 
Q 1894 -91 1617 61 
Q 1341 213 1159 525 
z
M 3116 1747 
Q 3116 2381 2855 2742 
Q 2594 3103 2138 3103 
Q 1681 3103 1420 2742 
Q 1159 2381 1159 1747 
Q 1159 1113 1420 752 
Q 1681 391 2138 391 
Q 2594 391 2855 752 
Q 3116 1113 3116 1747 
z
" transform="scale(0.015625)"/>
      <path id="DejaVuSans-3a" d="M 750 794 
L 1409 794 
L 1409 0 
L 750 0 
L 750 794 
z
M 750 3309 
L 1409 3309 
L 1409 2516 
L 750 2516 
L 750 3309 
z
" transform="scale(0.015625)"/>
     </defs>
     <use xlink:href="#DejaVuSans-4c"/>
     <use xlink:href="#DejaVuSans-61" x="55.712891"/>
     <use xlink:href="#DejaVuSans-73" x="116.992188"/>
     <use xlink:href="#DejaVuSans-74" x="169.091797"/>
     <use xlink:href="#DejaVuSans-20" x="208.300781"/>
     <use xlink:href="#DejaVuSans-75" x="240.087891"/>
     <use xlink:href="#DejaVuSans-70" x="303.466797"/>
     <use xlink:href="#DejaVuSans-64" x="366.943359"/>
     <use xlink:href="#DejaVuSans-61" x="430.419922"/>
     <use xlink:href="#DejaVuSans-74" x="491.699219"/>
     <use xlink:href="#DejaVuSans-65" x="530.908203"/>
     <use xlink:href="#DejaVuSans-3a" x="592.431641"/>
     <use xlink:href="#DejaVuSans-20" x="626.123047"/>
     <use xlink:href="#DejaVuSans-32" x="657.910156"/>
     <use xlink:href="#DejaVuSans-35" x="721.533203"/>
     <use xlink:href="#DejaVuSans-2e" x="785.15625"/>
     <use xlink:href="#DejaVuSans-30" x="816.943359"/>
     <use xlink:href="#DejaVuSans-31" x="880.566406"/>
     <use xlink:href="#DejaVuSans-2e" x="944.189453"/>
     <use xlink:href="#DejaVuSans-32" x="975.976562"/>
     <use xlink:href="#DejaVuSans-30" x="1039.599609"/>
     <use xlink:href="#DejaVuSans-32" x="1103.222656"/>
     <use xlink:href="#DejaVuSans-32" x="1166.845703"/>
    </g>
   </g>
   <g id="text_37">
    <!-- Last update: 25.01.2022 -->
    <g style="fill: #262626" transform="translate(347.414297 22.493974)scale(0.09996 -0.09996)">
     <use xlink:href="#DejaVuSans-4c"/>
     <use xlink:href="#DejaVuSans-61" x="55.712891"/>
     <use xlink:href="#DejaVuSans-73" x="116.992188"/>
     <use xlink:href="#DejaVuSans-74" x="169.091797"/>
     <use xlink:href="#DejaVuSans-20" x="208.300781"/>
     <use xlink:href="#DejaVuSans-75" x="240.087891"/>
     <use xlink:href="#DejaVuSans-70" x="303.466797"/>
     <use xlink:href="#DejaVuSans-64" x="366.943359"/>
     <use xlink:href="#DejaVuSans-61" x="430.419922"/>
     <use xlink:href="#DejaVuSans-74" x="491.699219"/>
     <use xlink:href="#DejaVuSans-65" x="530.908203"/>
     <use xlink:href="#DejaVuSans-3a" x="592.431641"/>
     <use xlink:href="#DejaVuSans-20" x="626.123047"/>
     <use xlink:href="#DejaVuSans-32" x="657.910156"/>
     <use xlink:href="#DejaVuSans-35" x="721.533203"/>
     <use xlink:href="#DejaVuSans-2e" x="785.15625"/>
     <use xlink:href="#DejaVuSans-30" x="816.943359"/>
     <use xlink:href="#DejaVuSans-31" x="880.566406"/>
     <use xlink:href="#DejaVuSans-2e" x="944.189453"/>
     <use xlink:href="#DejaVuSans-32" x="975.976562"/>
     <use xlink:href="#DejaVuSans-30" x="1039.599609"/>
     <use xlink:href="#DejaVuSans-32" x="1103.222656"/>
     <use xlink:href="#DejaVuSans-32" x="1166.845703"/>
    </g>
   </g>
   <g id="text_38">
    <!-- Vaccination timeline by week -->
    <g style="fill: #262626" transform="translate(309.895312 9.118125)scale(0.12 -0.12)">
     <defs>
      <path id="DejaVuSans-Bold-56" d="M 31 4666 
L 1241 4666 
L 2478 1222 
L 3713 4666 
L 4922 4666 
L 3194 0 
L 1759 0 
L 31 4666 
z
" transform="scale(0.015625)"/>
      <path id="DejaVuSans-Bold-61" d="M 2106 1575 
Q 1756 1575 1579 1456 
Q 1403 1338 1403 1106 
Q 1403 894 1545 773 
Q 1688 653 1941 653 
Q 2256 653 2472 879 
Q 2688 1106 2688 1447 
L 2688 1575 
L 2106 1575 
z
M 3816 1997 
L 3816 0 
L 2688 0 
L 2688 519 
Q 2463 200 2181 54 
Q 1900 -91 1497 -91 
Q 953 -91 614 226 
Q 275 544 275 1050 
Q 275 1666 698 1953 
Q 1122 2241 2028 2241 
L 2688 2241 
L 2688 2328 
Q 2688 2594 2478 2717 
Q 2269 2841 1825 2841 
Q 1466 2841 1156 2769 
Q 847 2697 581 2553 
L 581 3406 
Q 941 3494 1303 3539 
Q 1666 3584 2028 3584 
Q 2975 3584 3395 3211 
Q 3816 2838 3816 1997 
z
" transform="scale(0.015625)"/>
      <path id="DejaVuSans-Bold-63" d="M 3366 3391 
L 3366 2478 
Q 3138 2634 2908 2709 
Q 2678 2784 2431 2784 
Q 1963 2784 1702 2511 
Q 1441 2238 1441 1747 
Q 1441 1256 1702 982 
Q 1963 709 2431 709 
Q 2694 709 2930 787 
Q 3166 866 3366 1019 
L 3366 103 
Q 3103 6 2833 -42 
Q 2563 -91 2291 -91 
Q 1344 -91 809 395 
Q 275 881 275 1747 
Q 275 2613 809 3098 
Q 1344 3584 2291 3584 
Q 2566 3584 2833 3536 
Q 3100 3488 3366 3391 
z
" transform="scale(0.015625)"/>
      <path id="DejaVuSans-Bold-69" d="M 538 3500 
L 1656 3500 
L 1656 0 
L 538 0 
L 538 3500 
z
M 538 4863 
L 1656 4863 
L 1656 3950 
L 538 3950 
L 538 4863 
z
" transform="scale(0.015625)"/>
      <path id="DejaVuSans-Bold-6e" d="M 4056 2131 
L 4056 0 
L 2931 0 
L 2931 347 
L 2931 1631 
Q 2931 2084 2911 2256 
Q 2891 2428 2841 2509 
Q 2775 2619 2662 2680 
Q 2550 2741 2406 2741 
Q 2056 2741 1856 2470 
Q 1656 2200 1656 1722 
L 1656 0 
L 538 0 
L 538 3500 
L 1656 3500 
L 1656 2988 
Q 1909 3294 2193 3439 
Q 2478 3584 2822 3584 
Q 3428 3584 3742 3212 
Q 4056 2841 4056 2131 
z
" transform="scale(0.015625)"/>
      <path id="DejaVuSans-Bold-74" d="M 1759 4494 
L 1759 3500 
L 2913 3500 
L 2913 2700 
L 1759 2700 
L 1759 1216 
Q 1759 972 1856 886 
Q 1953 800 2241 800 
L 2816 800 
L 2816 0 
L 1856 0 
Q 1194 0 917 276 
Q 641 553 641 1216 
L 641 2700 
L 84 2700 
L 84 3500 
L 641 3500 
L 641 4494 
L 1759 4494 
z
" transform="scale(0.015625)"/>
      <path id="DejaVuSans-Bold-6f" d="M 2203 2784 
Q 1831 2784 1636 2517 
Q 1441 2250 1441 1747 
Q 1441 1244 1636 976 
Q 1831 709 2203 709 
Q 2569 709 2762 976 
Q 2956 1244 2956 1747 
Q 2956 2250 2762 2517 
Q 2569 2784 2203 2784 
z
M 2203 3584 
Q 3106 3584 3614 3096 
Q 4122 2609 4122 1747 
Q 4122 884 3614 396 
Q 3106 -91 2203 -91 
Q 1297 -91 786 396 
Q 275 884 275 1747 
Q 275 2609 786 3096 
Q 1297 3584 2203 3584 
z
" transform="scale(0.015625)"/>
      <path id="DejaVuSans-Bold-20" transform="scale(0.015625)"/>
      <path id="DejaVuSans-Bold-6d" d="M 3781 2919 
Q 3994 3244 4286 3414 
Q 4578 3584 4928 3584 
Q 5531 3584 5847 3212 
Q 6163 2841 6163 2131 
L 6163 0 
L 5038 0 
L 5038 1825 
Q 5041 1866 5042 1909 
Q 5044 1953 5044 2034 
Q 5044 2406 4934 2573 
Q 4825 2741 4581 2741 
Q 4263 2741 4089 2478 
Q 3916 2216 3909 1719 
L 3909 0 
L 2784 0 
L 2784 1825 
Q 2784 2406 2684 2573 
Q 2584 2741 2328 2741 
Q 2006 2741 1831 2477 
Q 1656 2213 1656 1722 
L 1656 0 
L 531 0 
L 531 3500 
L 1656 3500 
L 1656 2988 
Q 1863 3284 2130 3434 
Q 2397 3584 2719 3584 
Q 3081 3584 3359 3409 
Q 3638 3234 3781 2919 
z
" transform="scale(0.015625)"/>
      <path id="DejaVuSans-Bold-65" d="M 4031 1759 
L 4031 1441 
L 1416 1441 
Q 1456 1047 1700 850 
Q 1944 653 2381 653 
Q 2734 653 3104 758 
Q 3475 863 3866 1075 
L 3866 213 
Q 3469 63 3072 -14 
Q 2675 -91 2278 -91 
Q 1328 -91 801 392 
Q 275 875 275 1747 
Q 275 2603 792 3093 
Q 1309 3584 2216 3584 
Q 3041 3584 3536 3087 
Q 4031 2591 4031 1759 
z
M 2881 2131 
Q 2881 2450 2695 2645 
Q 2509 2841 2209 2841 
Q 1884 2841 1681 2658 
Q 1478 2475 1428 2131 
L 2881 2131 
z
" transform="scale(0.015625)"/>
      <path id="DejaVuSans-Bold-6c" d="M 538 4863 
L 1656 4863 
L 1656 0 
L 538 0 
L 538 4863 
z
" transform="scale(0.015625)"/>
      <path id="DejaVuSans-Bold-62" d="M 2400 722 
Q 2759 722 2948 984 
Q 3138 1247 3138 1747 
Q 3138 2247 2948 2509 
Q 2759 2772 2400 2772 
Q 2041 2772 1848 2508 
Q 1656 2244 1656 1747 
Q 1656 1250 1848 986 
Q 2041 722 2400 722 
z
M 1656 2988 
Q 1888 3294 2169 3439 
Q 2450 3584 2816 3584 
Q 3463 3584 3878 3070 
Q 4294 2556 4294 1747 
Q 4294 938 3878 423 
Q 3463 -91 2816 -91 
Q 2450 -91 2169 54 
Q 1888 200 1656 506 
L 1656 0 
L 538 0 
L 538 4863 
L 1656 4863 
L 1656 2988 
z
" transform="scale(0.015625)"/>
      <path id="DejaVuSans-Bold-79" d="M 78 3500 
L 1197 3500 
L 2138 1125 
L 2938 3500 
L 4056 3500 
L 2584 -331 
Q 2363 -916 2067 -1148 
Q 1772 -1381 1288 -1381 
L 641 -1381 
L 641 -647 
L 991 -647 
Q 1275 -647 1404 -556 
Q 1534 -466 1606 -231 
L 1638 -134 
L 78 3500 
z
" transform="scale(0.015625)"/>
      <path id="DejaVuSans-Bold-77" d="M 225 3500 
L 1313 3500 
L 1900 1088 
L 2491 3500 
L 3425 3500 
L 4013 1113 
L 4603 3500 
L 5691 3500 
L 4769 0 
L 3547 0 
L 2956 2406 
L 2369 0 
L 1147 0 
L 225 3500 
z
" transform="scale(0.015625)"/>
      <path id="DejaVuSans-Bold-6b" d="M 538 4863 
L 1656 4863 
L 1656 2216 
L 2944 3500 
L 4244 3500 
L 2534 1894 
L 4378 0 
L 3022 0 
L 1656 1459 
L 1656 0 
L 538 0 
L 538 4863 
z
" transform="scale(0.015625)"/>
     </defs>
     <use xlink:href="#DejaVuSans-Bold-56"/>
     <use xlink:href="#DejaVuSans-Bold-61" x="71.892578"/>
     <use xlink:href="#DejaVuSans-Bold-63" x="139.373047"/>
     <use xlink:href="#DejaVuSans-Bold-63" x="198.650391"/>
     <use xlink:href="#DejaVuSans-Bold-69" x="257.927734"/>
     <use xlink:href="#DejaVuSans-Bold-6e" x="292.205078"/>
     <use xlink:href="#DejaVuSans-Bold-61" x="363.396484"/>
     <use xlink:href="#DejaVuSans-Bold-74" x="430.876953"/>
     <use xlink:href="#DejaVuSans-Bold-69" x="478.679688"/>
     <use xlink:href="#DejaVuSans-Bold-6f" x="512.957031"/>
     <use xlink:href="#DejaVuSans-Bold-6e" x="581.658203"/>
     <use xlink:href="#DejaVuSans-Bold-20" x="652.849609"/>
     <use xlink:href="#DejaVuSans-Bold-74" x="687.664062"/>
     <use xlink:href="#DejaVuSans-Bold-69" x="735.466797"/>
     <use xlink:href="#DejaVuSans-Bold-6d" x="769.744141"/>
     <use xlink:href="#DejaVuSans-Bold-65" x="873.943359"/>
     <use xlink:href="#DejaVuSans-Bold-6c" x="941.765625"/>
     <use xlink:href="#DejaVuSans-Bold-69" x="976.042969"/>
     <use xlink:href="#DejaVuSans-Bold-6e" x="1010.320312"/>
     <use xlink:href="#DejaVuSans-Bold-65" x="1081.511719"/>
     <use xlink:href="#DejaVuSans-Bold-20" x="1149.333984"/>
     <use xlink:href="#DejaVuSans-Bold-62" x="1184.148438"/>
     <use xlink:href="#DejaVuSans-Bold-79" x="1255.730469"/>
     <use xlink:href="#DejaVuSans-Bold-20" x="1320.916016"/>
     <use xlink:href="#DejaVuSans-Bold-77" x="1355.730469"/>
     <use xlink:href="#DejaVuSans-Bold-65" x="1448.113281"/>
     <use xlink:href="#DejaVuSans-Bold-65" x="1515.935547"/>
     <use xlink:href="#DejaVuSans-Bold-6b" x="1583.757812"/>
    </g>
   </g>
  </g>
  <g id="axes_2">
   <g id="matplotlib.axis_3">
    <g id="ytick_6">
     <g id="line2d_103">
      <defs>
       <path id="m4f2de9a782" d="M 0 0 
L 6 0 
" style="stroke: #262626; stroke-width: 1.25"/>
      </defs>
      <g>
       <use xlink:href="#m4f2de9a782" x="765.728125" y="461.453043" style="fill: #262626; stroke: #262626; stroke-width: 1.25"/>
      </g>
     </g>
     <g id="text_39">
      <!-- 0 -->
      <g style="fill: #262626" transform="translate(775.228125 465.632184)scale(0.11 -0.11)">
       <use xlink:href="#DejaVuSans-30"/>
      </g>
     </g>
    </g>
    <g id="ytick_7">
     <g id="line2d_104">
      <g>
       <use xlink:href="#m4f2de9a782" x="765.728125" y="404.489414" style="fill: #262626; stroke: #262626; stroke-width: 1.25"/>
      </g>
     </g>
     <g id="text_40">
      <!-- 25000 -->
      <g style="fill: #262626" transform="translate(775.228125 408.668555)scale(0.11 -0.11)">
       <use xlink:href="#DejaVuSans-32"/>
       <use xlink:href="#DejaVuSans-35" x="63.623047"/>
       <use xlink:href="#DejaVuSans-30" x="127.246094"/>
       <use xlink:href="#DejaVuSans-30" x="190.869141"/>
       <use xlink:href="#DejaVuSans-30" x="254.492188"/>
      </g>
     </g>
    </g>
    <g id="ytick_8">
     <g id="line2d_105">
      <g>
       <use xlink:href="#m4f2de9a782" x="765.728125" y="347.525785" style="fill: #262626; stroke: #262626; stroke-width: 1.25"/>
      </g>
     </g>
     <g id="text_41">
      <!-- 50000 -->
      <g style="fill: #262626" transform="translate(775.228125 351.704926)scale(0.11 -0.11)">
       <use xlink:href="#DejaVuSans-35"/>
       <use xlink:href="#DejaVuSans-30" x="63.623047"/>
       <use xlink:href="#DejaVuSans-30" x="127.246094"/>
       <use xlink:href="#DejaVuSans-30" x="190.869141"/>
       <use xlink:href="#DejaVuSans-30" x="254.492188"/>
      </g>
     </g>
    </g>
    <g id="ytick_9">
     <g id="line2d_106">
      <g>
       <use xlink:href="#m4f2de9a782" x="765.728125" y="290.562156" style="fill: #262626; stroke: #262626; stroke-width: 1.25"/>
      </g>
     </g>
     <g id="text_42">
      <!-- 75000 -->
      <g style="fill: #262626" transform="translate(775.228125 294.741297)scale(0.11 -0.11)">
       <use xlink:href="#DejaVuSans-37"/>
       <use xlink:href="#DejaVuSans-35" x="63.623047"/>
       <use xlink:href="#DejaVuSans-30" x="127.246094"/>
       <use xlink:href="#DejaVuSans-30" x="190.869141"/>
       <use xlink:href="#DejaVuSans-30" x="254.492188"/>
      </g>
     </g>
    </g>
    <g id="ytick_10">
     <g id="line2d_107">
      <g>
       <use xlink:href="#m4f2de9a782" x="765.728125" y="233.598527" style="fill: #262626; stroke: #262626; stroke-width: 1.25"/>
      </g>
     </g>
     <g id="text_43">
      <!-- 100000 -->
      <g style="fill: #262626" transform="translate(775.228125 237.777668)scale(0.11 -0.11)">
       <use xlink:href="#DejaVuSans-31"/>
       <use xlink:href="#DejaVuSans-30" x="63.623047"/>
       <use xlink:href="#DejaVuSans-30" x="127.246094"/>
       <use xlink:href="#DejaVuSans-30" x="190.869141"/>
       <use xlink:href="#DejaVuSans-30" x="254.492188"/>
       <use xlink:href="#DejaVuSans-30" x="318.115234"/>
      </g>
     </g>
    </g>
    <g id="ytick_11">
     <g id="line2d_108">
      <g>
       <use xlink:href="#m4f2de9a782" x="765.728125" y="176.634898" style="fill: #262626; stroke: #262626; stroke-width: 1.25"/>
      </g>
     </g>
     <g id="text_44">
      <!-- 125000 -->
      <g style="fill: #262626" transform="translate(775.228125 180.814039)scale(0.11 -0.11)">
       <use xlink:href="#DejaVuSans-31"/>
       <use xlink:href="#DejaVuSans-32" x="63.623047"/>
       <use xlink:href="#DejaVuSans-35" x="127.246094"/>
       <use xlink:href="#DejaVuSans-30" x="190.869141"/>
       <use xlink:href="#DejaVuSans-30" x="254.492188"/>
       <use xlink:href="#DejaVuSans-30" x="318.115234"/>
      </g>
     </g>
    </g>
    <g id="ytick_12">
     <g id="line2d_109">
      <g>
       <use xlink:href="#m4f2de9a782" x="765.728125" y="119.671269" style="fill: #262626; stroke: #262626; stroke-width: 1.25"/>
      </g>
     </g>
     <g id="text_45">
      <!-- 150000 -->
      <g style="fill: #262626" transform="translate(775.228125 123.85041)scale(0.11 -0.11)">
       <use xlink:href="#DejaVuSans-31"/>
       <use xlink:href="#DejaVuSans-35" x="63.623047"/>
       <use xlink:href="#DejaVuSans-30" x="127.246094"/>
       <use xlink:href="#DejaVuSans-30" x="190.869141"/>
       <use xlink:href="#DejaVuSans-30" x="254.492188"/>
       <use xlink:href="#DejaVuSans-30" x="318.115234"/>
      </g>
     </g>
    </g>
    <g id="ytick_13">
     <g id="line2d_110">
      <g>
       <use xlink:href="#m4f2de9a782" x="765.728125" y="62.70764" style="fill: #262626; stroke: #262626; stroke-width: 1.25"/>
      </g>
     </g>
     <g id="text_46">
      <!-- 175000 -->
      <g style="fill: #262626" transform="translate(775.228125 66.886781)scale(0.11 -0.11)">
       <use xlink:href="#DejaVuSans-31"/>
       <use xlink:href="#DejaVuSans-37" x="63.623047"/>
       <use xlink:href="#DejaVuSans-35" x="127.246094"/>
       <use xlink:href="#DejaVuSans-30" x="190.869141"/>
       <use xlink:href="#DejaVuSans-30" x="254.492188"/>
       <use xlink:href="#DejaVuSans-30" x="318.115234"/>
      </g>
     </g>
    </g>
    <g id="text_47">
     <!-- Newly administered doses -->
     <g style="fill: #262626" transform="translate(828.1025 170.911601)rotate(-270)scale(0.12 -0.12)">
      <defs>
       <path id="DejaVuSans-4e" d="M 628 4666 
L 1478 4666 
L 3547 763 
L 3547 4666 
L 4159 4666 
L 4159 0 
L 3309 0 
L 1241 3903 
L 1241 0 
L 628 0 
L 628 4666 
z
" transform="scale(0.015625)"/>
       <path id="DejaVuSans-77" d="M 269 3500 
L 844 3500 
L 1563 769 
L 2278 3500 
L 2956 3500 
L 3675 769 
L 4391 3500 
L 4966 3500 
L 4050 0 
L 3372 0 
L 2619 2869 
L 1863 0 
L 1184 0 
L 269 3500 
z
" transform="scale(0.015625)"/>
       <path id="DejaVuSans-6c" d="M 603 4863 
L 1178 4863 
L 1178 0 
L 603 0 
L 603 4863 
z
" transform="scale(0.015625)"/>
       <path id="DejaVuSans-79" d="M 2059 -325 
Q 1816 -950 1584 -1140 
Q 1353 -1331 966 -1331 
L 506 -1331 
L 506 -850 
L 844 -850 
Q 1081 -850 1212 -737 
Q 1344 -625 1503 -206 
L 1606 56 
L 191 3500 
L 800 3500 
L 1894 763 
L 2988 3500 
L 3597 3500 
L 2059 -325 
z
" transform="scale(0.015625)"/>
      </defs>
      <use xlink:href="#DejaVuSans-4e"/>
      <use xlink:href="#DejaVuSans-65" x="74.804688"/>
      <use xlink:href="#DejaVuSans-77" x="136.328125"/>
      <use xlink:href="#DejaVuSans-6c" x="218.115234"/>
      <use xlink:href="#DejaVuSans-79" x="245.898438"/>
      <use xlink:href="#DejaVuSans-20" x="305.078125"/>
      <use xlink:href="#DejaVuSans-61" x="336.865234"/>
      <use xlink:href="#DejaVuSans-64" x="398.144531"/>
      <use xlink:href="#DejaVuSans-6d" x="461.621094"/>
      <use xlink:href="#DejaVuSans-69" x="559.033203"/>
      <use xlink:href="#DejaVuSans-6e" x="586.816406"/>
      <use xlink:href="#DejaVuSans-69" x="650.195312"/>
      <use xlink:href="#DejaVuSans-73" x="677.978516"/>
      <use xlink:href="#DejaVuSans-74" x="730.078125"/>
      <use xlink:href="#DejaVuSans-65" x="769.287109"/>
      <use xlink:href="#DejaVuSans-72" x="830.810547"/>
      <use xlink:href="#DejaVuSans-65" x="869.673828"/>
      <use xlink:href="#DejaVuSans-64" x="931.197266"/>
      <use xlink:href="#DejaVuSans-20" x="994.673828"/>
      <use xlink:href="#DejaVuSans-64" x="1026.460938"/>
      <use xlink:href="#DejaVuSans-6f" x="1089.9375"/>
      <use xlink:href="#DejaVuSans-73" x="1151.119141"/>
      <use xlink:href="#DejaVuSans-65" x="1203.21875"/>
      <use xlink:href="#DejaVuSans-73" x="1264.742188"/>
     </g>
    </g>
   </g>
   <g id="line2d_111">
    <path d="M 91.088928 450.655018 
L 102.556812 441.55223 
L 114.024695 450.381592 
L 125.492579 443.710012 
L 136.960462 427.500442 
L 148.428345 425.005435 
L 159.896229 419.746553 
L 171.364112 386.179025 
L 182.831996 230.39945 
L 194.299879 285.189347 
L 205.767762 345.734849 
L 217.235646 396.188674 
L 228.703529 307.398326 
L 240.171412 306.694256 
L 251.639296 304.269884 
L 263.107179 310.718167 
L 274.575063 270.160063 
L 286.042946 233.489157 
L 297.510829 208.076543 
L 308.978713 49.19131 
L 320.446596 134.108131 
L 331.914479 253.674789 
L 343.382363 213.918733 
L 354.850246 195.045543 
L 366.31813 271.693524 
L 377.786013 306.84464 
L 389.253896 315.607925 
L 400.72178 321.126561 
L 412.189663 326.064168 
L 423.657546 333.426148 
L 435.12543 320.09438 
L 446.593313 317.533295 
L 458.061197 321.689362 
L 469.52908 315.808437 
L 480.996963 302.827565 
L 492.464847 310.567783 
L 503.93273 339.243274 
L 515.400614 333.993505 
L 526.868497 358.738506 
L 538.33638 365.874909 
L 549.804264 373.729055 
L 561.272147 372.104452 
L 572.74003 246.071283 
L 584.207914 156.150777 
L 595.675797 220.870574 
L 607.143681 223.723312 
L 618.611564 196.360264 
L 630.079447 212.934401 
L 641.547331 219.599146 
L 653.015214 247.413347 
L 664.483097 249.270361 
L 675.950981 302.000453 
L 687.418864 353.527473 
L 698.886748 122.5354 
L 710.354631 111.805731 
L 721.822514 251.551185 
L 733.290398 441.360832 
" clip-path="url(#p2dab91623a)" style="fill: none; stroke: #ff0000; stroke-width: 1.5; stroke-linecap: round"/>
   </g>
   <g id="patch_7">
    <path d="M 52.098125 470.728203 
L 52.098125 29.118125 
" style="fill: none; stroke: #262626; stroke-width: 1.25; stroke-linejoin: miter; stroke-linecap: square"/>
   </g>
   <g id="patch_8">
    <path d="M 765.728125 470.728203 
L 765.728125 29.118125 
" style="fill: none; stroke: #262626; stroke-width: 1.25; stroke-linejoin: miter; stroke-linecap: square"/>
   </g>
   <g id="patch_9">
    <path d="M 52.098125 470.728203 
L 765.728125 470.728203 
" style="fill: none; stroke: #262626; stroke-width: 1.25; stroke-linejoin: miter; stroke-linecap: square"/>
   </g>
   <g id="patch_10">
    <path d="M 52.098125 29.118125 
L 765.728125 29.118125 
" style="fill: none; stroke: #262626; stroke-width: 1.25; stroke-linejoin: miter; stroke-linecap: square"/>
   </g>
   <g id="legend_1">
    <g id="patch_11">
     <path d="M 548.751406 70.21 
L 758.028125 70.21 
Q 760.228125 70.21 760.228125 68.01 
L 760.228125 36.818125 
Q 760.228125 34.618125 758.028125 34.618125 
L 548.751406 34.618125 
Q 546.551406 34.618125 546.551406 36.818125 
L 546.551406 68.01 
Q 546.551406 70.21 548.751406 70.21 
z
" style="fill: #ffffff; opacity: 0.8; stroke: #cccccc; stroke-linejoin: miter"/>
    </g>
    <g id="line2d_112">
     <path d="M 550.951406 43.526406 
L 561.951406 43.526406 
L 572.951406 43.526406 
" style="fill: none; stroke: #0000ff; stroke-width: 1.5; stroke-linecap: round"/>
    </g>
    <g id="text_48">
     <!-- Cumulative administered doses -->
     <g style="fill: #262626" transform="translate(581.751406 47.376406)scale(0.11 -0.11)">
      <defs>
       <path id="DejaVuSans-43" d="M 4122 4306 
L 4122 3641 
Q 3803 3938 3442 4084 
Q 3081 4231 2675 4231 
Q 1875 4231 1450 3742 
Q 1025 3253 1025 2328 
Q 1025 1406 1450 917 
Q 1875 428 2675 428 
Q 3081 428 3442 575 
Q 3803 722 4122 1019 
L 4122 359 
Q 3791 134 3420 21 
Q 3050 -91 2638 -91 
Q 1578 -91 968 557 
Q 359 1206 359 2328 
Q 359 3453 968 4101 
Q 1578 4750 2638 4750 
Q 3056 4750 3426 4639 
Q 3797 4528 4122 4306 
z
" transform="scale(0.015625)"/>
       <path id="DejaVuSans-76" d="M 191 3500 
L 800 3500 
L 1894 563 
L 2988 3500 
L 3597 3500 
L 2284 0 
L 1503 0 
L 191 3500 
z
" transform="scale(0.015625)"/>
      </defs>
      <use xlink:href="#DejaVuSans-43"/>
      <use xlink:href="#DejaVuSans-75" x="69.824219"/>
      <use xlink:href="#DejaVuSans-6d" x="133.203125"/>
      <use xlink:href="#DejaVuSans-75" x="230.615234"/>
      <use xlink:href="#DejaVuSans-6c" x="293.994141"/>
      <use xlink:href="#DejaVuSans-61" x="321.777344"/>
      <use xlink:href="#DejaVuSans-74" x="383.056641"/>
      <use xlink:href="#DejaVuSans-69" x="422.265625"/>
      <use xlink:href="#DejaVuSans-76" x="450.048828"/>
      <use xlink:href="#DejaVuSans-65" x="509.228516"/>
      <use xlink:href="#DejaVuSans-20" x="570.751953"/>
      <use xlink:href="#DejaVuSans-61" x="602.539062"/>
      <use xlink:href="#DejaVuSans-64" x="663.818359"/>
      <use xlink:href="#DejaVuSans-6d" x="727.294922"/>
      <use xlink:href="#DejaVuSans-69" x="824.707031"/>
      <use xlink:href="#DejaVuSans-6e" x="852.490234"/>
      <use xlink:href="#DejaVuSans-69" x="915.869141"/>
      <use xlink:href="#DejaVuSans-73" x="943.652344"/>
      <use xlink:href="#DejaVuSans-74" x="995.751953"/>
      <use xlink:href="#DejaVuSans-65" x="1034.960938"/>
      <use xlink:href="#DejaVuSans-72" x="1096.484375"/>
      <use xlink:href="#DejaVuSans-65" x="1135.347656"/>
      <use xlink:href="#DejaVuSans-64" x="1196.871094"/>
      <use xlink:href="#DejaVuSans-20" x="1260.347656"/>
      <use xlink:href="#DejaVuSans-64" x="1292.134766"/>
      <use xlink:href="#DejaVuSans-6f" x="1355.611328"/>
      <use xlink:href="#DejaVuSans-73" x="1416.792969"/>
      <use xlink:href="#DejaVuSans-65" x="1468.892578"/>
      <use xlink:href="#DejaVuSans-73" x="1530.416016"/>
     </g>
    </g>
    <g id="line2d_113">
     <path d="M 550.951406 59.672344 
L 561.951406 59.672344 
L 572.951406 59.672344 
" style="fill: none; stroke: #ff0000; stroke-width: 1.5; stroke-linecap: round"/>
    </g>
    <g id="text_49">
     <!-- Newly administered doses -->
     <g style="fill: #262626" transform="translate(581.751406 63.522344)scale(0.11 -0.11)">
      <use xlink:href="#DejaVuSans-4e"/>
      <use xlink:href="#DejaVuSans-65" x="74.804688"/>
      <use xlink:href="#DejaVuSans-77" x="136.328125"/>
      <use xlink:href="#DejaVuSans-6c" x="218.115234"/>
      <use xlink:href="#DejaVuSans-79" x="245.898438"/>
      <use xlink:href="#DejaVuSans-20" x="305.078125"/>
      <use xlink:href="#DejaVuSans-61" x="336.865234"/>
      <use xlink:href="#DejaVuSans-64" x="398.144531"/>
      <use xlink:href="#DejaVuSans-6d" x="461.621094"/>
      <use xlink:href="#DejaVuSans-69" x="559.033203"/>
      <use xlink:href="#DejaVuSans-6e" x="586.816406"/>
      <use xlink:href="#DejaVuSans-69" x="650.195312"/>
      <use xlink:href="#DejaVuSans-73" x="677.978516"/>
      <use xlink:href="#DejaVuSans-74" x="730.078125"/>
      <use xlink:href="#DejaVuSans-65" x="769.287109"/>
      <use xlink:href="#DejaVuSans-72" x="830.810547"/>
      <use xlink:href="#DejaVuSans-65" x="869.673828"/>
      <use xlink:href="#DejaVuSans-64" x="931.197266"/>
      <use xlink:href="#DejaVuSans-20" x="994.673828"/>
      <use xlink:href="#DejaVuSans-64" x="1026.460938"/>
      <use xlink:href="#DejaVuSans-6f" x="1089.9375"/>
      <use xlink:href="#DejaVuSans-73" x="1151.119141"/>
      <use xlink:href="#DejaVuSans-65" x="1203.21875"/>
      <use xlink:href="#DejaVuSans-73" x="1264.742188"/>
     </g>
    </g>
   </g>
  </g>
 </g>
 <defs>
  <clipPath id="p2dab91623a">
   <rect x="52.098125" y="29.118125" width="713.63" height="441.610078"/>
  </clipPath>
 </defs>
</svg>
