<?xml version="1.0" encoding="utf-8" standalone="no"?>
<!DOCTYPE svg PUBLIC "-//W3C//DTD SVG 1.1//EN"
  "http://www.w3.org/Graphics/SVG/1.1/DTD/svg11.dtd">
<svg height="713.390558pt" version="1.1" viewBox="0 0 1297.702428 713.390558" width="1297.702428pt" xmlns="http://www.w3.org/2000/svg" xmlns:xlink="http://www.w3.org/1999/xlink">
 <metadata>
  <rdf:RDF xmlns:cc="http://creativecommons.org/ns#" xmlns:dc="http://purl.org/dc/elements/1.1/" xmlns:rdf="http://www.w3.org/1999/02/22-rdf-syntax-ns#">
   <cc:Work>
    <dc:type rdf:resource="http://purl.org/dc/dcmitype/StillImage"/>
    <dc:date>2021-10-31T02:48:58.643642</dc:date>
    <dc:format>image/svg+xml</dc:format>
    <dc:creator>
     <cc:Agent>
      <dc:title>Matplotlib v3.4.3, https://matplotlib.org/</dc:title>
     </cc:Agent>
    </dc:creator>
   </cc:Work>
  </rdf:RDF>
 </metadata>
 <defs>
  <style type="text/css">*{stroke-linecap:butt;stroke-linejoin:round;}</style>
 </defs>
 <g id="figure_1">
  <g id="patch_1">
   <path d="M 0 713.390558 
L 1297.702428 713.390558 
L 1297.702428 0 
L 0 0 
z
" style="fill:none;"/>
  </g>
  <g id="axes_1">
   <g id="patch_2">
    <path d="M 46.11 640.042403 
L 1246.304865 640.042403 
L 1246.304865 29.118125 
L 46.11 29.118125 
z
" style="fill:none;"/>
   </g>
   <g id="matplotlib.axis_1">
    <g id="xtick_1">
     <g id="line2d_1">
      <path clip-path="url(#p8ecabfe747)" d="M 100.664312 640.042403 
L 100.664312 29.118125 
" style="fill:none;stroke:#cccccc;stroke-linecap:round;"/>
     </g>
     <g id="line2d_2">
      <defs>
       <path d="M 0 0 
L 0 6 
" id="me9dee239ea" style="stroke:#262626;stroke-width:1.25;"/>
      </defs>
      <g>
       <use style="fill:#262626;stroke:#262626;stroke-width:1.25;" x="100.664312" xlink:href="#me9dee239ea" y="640.042403"/>
      </g>
     </g>
     <g id="text_1">
      <!-- 06.06 (23) -->
      <g style="fill:#262626;" transform="translate(58.340104 696.159191)rotate(-45)scale(0.11 -0.11)">
       <defs>
        <path d="M 2034 4250 
Q 1547 4250 1301 3770 
Q 1056 3291 1056 2328 
Q 1056 1369 1301 889 
Q 1547 409 2034 409 
Q 2525 409 2770 889 
Q 3016 1369 3016 2328 
Q 3016 3291 2770 3770 
Q 2525 4250 2034 4250 
z
M 2034 4750 
Q 2819 4750 3233 4129 
Q 3647 3509 3647 2328 
Q 3647 1150 3233 529 
Q 2819 -91 2034 -91 
Q 1250 -91 836 529 
Q 422 1150 422 2328 
Q 422 3509 836 4129 
Q 1250 4750 2034 4750 
z
" id="DejaVuSans-30" transform="scale(0.015625)"/>
        <path d="M 2113 2584 
Q 1688 2584 1439 2293 
Q 1191 2003 1191 1497 
Q 1191 994 1439 701 
Q 1688 409 2113 409 
Q 2538 409 2786 701 
Q 3034 994 3034 1497 
Q 3034 2003 2786 2293 
Q 2538 2584 2113 2584 
z
M 3366 4563 
L 3366 3988 
Q 3128 4100 2886 4159 
Q 2644 4219 2406 4219 
Q 1781 4219 1451 3797 
Q 1122 3375 1075 2522 
Q 1259 2794 1537 2939 
Q 1816 3084 2150 3084 
Q 2853 3084 3261 2657 
Q 3669 2231 3669 1497 
Q 3669 778 3244 343 
Q 2819 -91 2113 -91 
Q 1303 -91 875 529 
Q 447 1150 447 2328 
Q 447 3434 972 4092 
Q 1497 4750 2381 4750 
Q 2619 4750 2861 4703 
Q 3103 4656 3366 4563 
z
" id="DejaVuSans-36" transform="scale(0.015625)"/>
        <path d="M 684 794 
L 1344 794 
L 1344 0 
L 684 0 
L 684 794 
z
" id="DejaVuSans-2e" transform="scale(0.015625)"/>
        <path id="DejaVuSans-20" transform="scale(0.015625)"/>
        <path d="M 1984 4856 
Q 1566 4138 1362 3434 
Q 1159 2731 1159 2009 
Q 1159 1288 1364 580 
Q 1569 -128 1984 -844 
L 1484 -844 
Q 1016 -109 783 600 
Q 550 1309 550 2009 
Q 550 2706 781 3412 
Q 1013 4119 1484 4856 
L 1984 4856 
z
" id="DejaVuSans-28" transform="scale(0.015625)"/>
        <path d="M 1228 531 
L 3431 531 
L 3431 0 
L 469 0 
L 469 531 
Q 828 903 1448 1529 
Q 2069 2156 2228 2338 
Q 2531 2678 2651 2914 
Q 2772 3150 2772 3378 
Q 2772 3750 2511 3984 
Q 2250 4219 1831 4219 
Q 1534 4219 1204 4116 
Q 875 4013 500 3803 
L 500 4441 
Q 881 4594 1212 4672 
Q 1544 4750 1819 4750 
Q 2544 4750 2975 4387 
Q 3406 4025 3406 3419 
Q 3406 3131 3298 2873 
Q 3191 2616 2906 2266 
Q 2828 2175 2409 1742 
Q 1991 1309 1228 531 
z
" id="DejaVuSans-32" transform="scale(0.015625)"/>
        <path d="M 2597 2516 
Q 3050 2419 3304 2112 
Q 3559 1806 3559 1356 
Q 3559 666 3084 287 
Q 2609 -91 1734 -91 
Q 1441 -91 1130 -33 
Q 819 25 488 141 
L 488 750 
Q 750 597 1062 519 
Q 1375 441 1716 441 
Q 2309 441 2620 675 
Q 2931 909 2931 1356 
Q 2931 1769 2642 2001 
Q 2353 2234 1838 2234 
L 1294 2234 
L 1294 2753 
L 1863 2753 
Q 2328 2753 2575 2939 
Q 2822 3125 2822 3475 
Q 2822 3834 2567 4026 
Q 2313 4219 1838 4219 
Q 1578 4219 1281 4162 
Q 984 4106 628 3988 
L 628 4550 
Q 988 4650 1302 4700 
Q 1616 4750 1894 4750 
Q 2613 4750 3031 4423 
Q 3450 4097 3450 3541 
Q 3450 3153 3228 2886 
Q 3006 2619 2597 2516 
z
" id="DejaVuSans-33" transform="scale(0.015625)"/>
        <path d="M 513 4856 
L 1013 4856 
Q 1481 4119 1714 3412 
Q 1947 2706 1947 2009 
Q 1947 1309 1714 600 
Q 1481 -109 1013 -844 
L 513 -844 
Q 928 -128 1133 580 
Q 1338 1288 1338 2009 
Q 1338 2731 1133 3434 
Q 928 4138 513 4856 
z
" id="DejaVuSans-29" transform="scale(0.015625)"/>
       </defs>
       <use xlink:href="#DejaVuSans-30"/>
       <use x="63.623047" xlink:href="#DejaVuSans-36"/>
       <use x="127.246094" xlink:href="#DejaVuSans-2e"/>
       <use x="159.033203" xlink:href="#DejaVuSans-30"/>
       <use x="222.65625" xlink:href="#DejaVuSans-36"/>
       <use x="286.279297" xlink:href="#DejaVuSans-20"/>
       <use x="318.066406" xlink:href="#DejaVuSans-28"/>
       <use x="357.080078" xlink:href="#DejaVuSans-32"/>
       <use x="420.703125" xlink:href="#DejaVuSans-33"/>
       <use x="484.326172" xlink:href="#DejaVuSans-29"/>
      </g>
     </g>
    </g>
    <g id="xtick_2">
     <g id="line2d_3">
      <path clip-path="url(#p8ecabfe747)" d="M 160.44986 640.042403 
L 160.44986 29.118125 
" style="fill:none;stroke:#cccccc;stroke-linecap:round;"/>
     </g>
     <g id="line2d_4">
      <g>
       <use style="fill:#262626;stroke:#262626;stroke-width:1.25;" x="160.44986" xlink:href="#me9dee239ea" y="640.042403"/>
      </g>
     </g>
     <g id="text_2">
      <!-- 04.07 (27) -->
      <g style="fill:#262626;" transform="translate(118.125652 696.159191)rotate(-45)scale(0.11 -0.11)">
       <defs>
        <path d="M 2419 4116 
L 825 1625 
L 2419 1625 
L 2419 4116 
z
M 2253 4666 
L 3047 4666 
L 3047 1625 
L 3713 1625 
L 3713 1100 
L 3047 1100 
L 3047 0 
L 2419 0 
L 2419 1100 
L 313 1100 
L 313 1709 
L 2253 4666 
z
" id="DejaVuSans-34" transform="scale(0.015625)"/>
        <path d="M 525 4666 
L 3525 4666 
L 3525 4397 
L 1831 0 
L 1172 0 
L 2766 4134 
L 525 4134 
L 525 4666 
z
" id="DejaVuSans-37" transform="scale(0.015625)"/>
       </defs>
       <use xlink:href="#DejaVuSans-30"/>
       <use x="63.623047" xlink:href="#DejaVuSans-34"/>
       <use x="127.246094" xlink:href="#DejaVuSans-2e"/>
       <use x="159.033203" xlink:href="#DejaVuSans-30"/>
       <use x="222.65625" xlink:href="#DejaVuSans-37"/>
       <use x="286.279297" xlink:href="#DejaVuSans-20"/>
       <use x="318.066406" xlink:href="#DejaVuSans-28"/>
       <use x="357.080078" xlink:href="#DejaVuSans-32"/>
       <use x="420.703125" xlink:href="#DejaVuSans-37"/>
       <use x="484.326172" xlink:href="#DejaVuSans-29"/>
      </g>
     </g>
    </g>
    <g id="xtick_3">
     <g id="line2d_5">
      <path clip-path="url(#p8ecabfe747)" d="M 220.235407 640.042403 
L 220.235407 29.118125 
" style="fill:none;stroke:#cccccc;stroke-linecap:round;"/>
     </g>
     <g id="line2d_6">
      <g>
       <use style="fill:#262626;stroke:#262626;stroke-width:1.25;" x="220.235407" xlink:href="#me9dee239ea" y="640.042403"/>
      </g>
     </g>
     <g id="text_3">
      <!-- 01.08 (31) -->
      <g style="fill:#262626;" transform="translate(177.911199 696.159191)rotate(-45)scale(0.11 -0.11)">
       <defs>
        <path d="M 794 531 
L 1825 531 
L 1825 4091 
L 703 3866 
L 703 4441 
L 1819 4666 
L 2450 4666 
L 2450 531 
L 3481 531 
L 3481 0 
L 794 0 
L 794 531 
z
" id="DejaVuSans-31" transform="scale(0.015625)"/>
        <path d="M 2034 2216 
Q 1584 2216 1326 1975 
Q 1069 1734 1069 1313 
Q 1069 891 1326 650 
Q 1584 409 2034 409 
Q 2484 409 2743 651 
Q 3003 894 3003 1313 
Q 3003 1734 2745 1975 
Q 2488 2216 2034 2216 
z
M 1403 2484 
Q 997 2584 770 2862 
Q 544 3141 544 3541 
Q 544 4100 942 4425 
Q 1341 4750 2034 4750 
Q 2731 4750 3128 4425 
Q 3525 4100 3525 3541 
Q 3525 3141 3298 2862 
Q 3072 2584 2669 2484 
Q 3125 2378 3379 2068 
Q 3634 1759 3634 1313 
Q 3634 634 3220 271 
Q 2806 -91 2034 -91 
Q 1263 -91 848 271 
Q 434 634 434 1313 
Q 434 1759 690 2068 
Q 947 2378 1403 2484 
z
M 1172 3481 
Q 1172 3119 1398 2916 
Q 1625 2713 2034 2713 
Q 2441 2713 2670 2916 
Q 2900 3119 2900 3481 
Q 2900 3844 2670 4047 
Q 2441 4250 2034 4250 
Q 1625 4250 1398 4047 
Q 1172 3844 1172 3481 
z
" id="DejaVuSans-38" transform="scale(0.015625)"/>
       </defs>
       <use xlink:href="#DejaVuSans-30"/>
       <use x="63.623047" xlink:href="#DejaVuSans-31"/>
       <use x="127.246094" xlink:href="#DejaVuSans-2e"/>
       <use x="159.033203" xlink:href="#DejaVuSans-30"/>
       <use x="222.65625" xlink:href="#DejaVuSans-38"/>
       <use x="286.279297" xlink:href="#DejaVuSans-20"/>
       <use x="318.066406" xlink:href="#DejaVuSans-28"/>
       <use x="357.080078" xlink:href="#DejaVuSans-33"/>
       <use x="420.703125" xlink:href="#DejaVuSans-31"/>
       <use x="484.326172" xlink:href="#DejaVuSans-29"/>
      </g>
     </g>
    </g>
    <g id="xtick_4">
     <g id="line2d_7">
      <path clip-path="url(#p8ecabfe747)" d="M 280.020954 640.042403 
L 280.020954 29.118125 
" style="fill:none;stroke:#cccccc;stroke-linecap:round;"/>
     </g>
     <g id="line2d_8">
      <g>
       <use style="fill:#262626;stroke:#262626;stroke-width:1.25;" x="280.020954" xlink:href="#me9dee239ea" y="640.042403"/>
      </g>
     </g>
     <g id="text_4">
      <!-- 29.08 (35) -->
      <g style="fill:#262626;" transform="translate(237.696747 696.159191)rotate(-45)scale(0.11 -0.11)">
       <defs>
        <path d="M 703 97 
L 703 672 
Q 941 559 1184 500 
Q 1428 441 1663 441 
Q 2288 441 2617 861 
Q 2947 1281 2994 2138 
Q 2813 1869 2534 1725 
Q 2256 1581 1919 1581 
Q 1219 1581 811 2004 
Q 403 2428 403 3163 
Q 403 3881 828 4315 
Q 1253 4750 1959 4750 
Q 2769 4750 3195 4129 
Q 3622 3509 3622 2328 
Q 3622 1225 3098 567 
Q 2575 -91 1691 -91 
Q 1453 -91 1209 -44 
Q 966 3 703 97 
z
M 1959 2075 
Q 2384 2075 2632 2365 
Q 2881 2656 2881 3163 
Q 2881 3666 2632 3958 
Q 2384 4250 1959 4250 
Q 1534 4250 1286 3958 
Q 1038 3666 1038 3163 
Q 1038 2656 1286 2365 
Q 1534 2075 1959 2075 
z
" id="DejaVuSans-39" transform="scale(0.015625)"/>
        <path d="M 691 4666 
L 3169 4666 
L 3169 4134 
L 1269 4134 
L 1269 2991 
Q 1406 3038 1543 3061 
Q 1681 3084 1819 3084 
Q 2600 3084 3056 2656 
Q 3513 2228 3513 1497 
Q 3513 744 3044 326 
Q 2575 -91 1722 -91 
Q 1428 -91 1123 -41 
Q 819 9 494 109 
L 494 744 
Q 775 591 1075 516 
Q 1375 441 1709 441 
Q 2250 441 2565 725 
Q 2881 1009 2881 1497 
Q 2881 1984 2565 2268 
Q 2250 2553 1709 2553 
Q 1456 2553 1204 2497 
Q 953 2441 691 2322 
L 691 4666 
z
" id="DejaVuSans-35" transform="scale(0.015625)"/>
       </defs>
       <use xlink:href="#DejaVuSans-32"/>
       <use x="63.623047" xlink:href="#DejaVuSans-39"/>
       <use x="127.246094" xlink:href="#DejaVuSans-2e"/>
       <use x="159.033203" xlink:href="#DejaVuSans-30"/>
       <use x="222.65625" xlink:href="#DejaVuSans-38"/>
       <use x="286.279297" xlink:href="#DejaVuSans-20"/>
       <use x="318.066406" xlink:href="#DejaVuSans-28"/>
       <use x="357.080078" xlink:href="#DejaVuSans-33"/>
       <use x="420.703125" xlink:href="#DejaVuSans-35"/>
       <use x="484.326172" xlink:href="#DejaVuSans-29"/>
      </g>
     </g>
    </g>
    <g id="xtick_5">
     <g id="line2d_9">
      <path clip-path="url(#p8ecabfe747)" d="M 339.806502 640.042403 
L 339.806502 29.118125 
" style="fill:none;stroke:#cccccc;stroke-linecap:round;"/>
     </g>
     <g id="line2d_10">
      <g>
       <use style="fill:#262626;stroke:#262626;stroke-width:1.25;" x="339.806502" xlink:href="#me9dee239ea" y="640.042403"/>
      </g>
     </g>
     <g id="text_5">
      <!-- 26.09 (39) -->
      <g style="fill:#262626;" transform="translate(297.482294 696.159191)rotate(-45)scale(0.11 -0.11)">
       <use xlink:href="#DejaVuSans-32"/>
       <use x="63.623047" xlink:href="#DejaVuSans-36"/>
       <use x="127.246094" xlink:href="#DejaVuSans-2e"/>
       <use x="159.033203" xlink:href="#DejaVuSans-30"/>
       <use x="222.65625" xlink:href="#DejaVuSans-39"/>
       <use x="286.279297" xlink:href="#DejaVuSans-20"/>
       <use x="318.066406" xlink:href="#DejaVuSans-28"/>
       <use x="357.080078" xlink:href="#DejaVuSans-33"/>
       <use x="420.703125" xlink:href="#DejaVuSans-39"/>
       <use x="484.326172" xlink:href="#DejaVuSans-29"/>
      </g>
     </g>
    </g>
    <g id="xtick_6">
     <g id="line2d_11">
      <path clip-path="url(#p8ecabfe747)" d="M 399.592049 640.042403 
L 399.592049 29.118125 
" style="fill:none;stroke:#cccccc;stroke-linecap:round;"/>
     </g>
     <g id="line2d_12">
      <g>
       <use style="fill:#262626;stroke:#262626;stroke-width:1.25;" x="399.592049" xlink:href="#me9dee239ea" y="640.042403"/>
      </g>
     </g>
     <g id="text_6">
      <!-- 24.10 (43) -->
      <g style="fill:#262626;" transform="translate(357.267841 696.159191)rotate(-45)scale(0.11 -0.11)">
       <use xlink:href="#DejaVuSans-32"/>
       <use x="63.623047" xlink:href="#DejaVuSans-34"/>
       <use x="127.246094" xlink:href="#DejaVuSans-2e"/>
       <use x="159.033203" xlink:href="#DejaVuSans-31"/>
       <use x="222.65625" xlink:href="#DejaVuSans-30"/>
       <use x="286.279297" xlink:href="#DejaVuSans-20"/>
       <use x="318.066406" xlink:href="#DejaVuSans-28"/>
       <use x="357.080078" xlink:href="#DejaVuSans-34"/>
       <use x="420.703125" xlink:href="#DejaVuSans-33"/>
       <use x="484.326172" xlink:href="#DejaVuSans-29"/>
      </g>
     </g>
    </g>
    <g id="xtick_7">
     <g id="line2d_13">
      <path clip-path="url(#p8ecabfe747)" d="M 459.377597 640.042403 
L 459.377597 29.118125 
" style="fill:none;stroke:#cccccc;stroke-linecap:round;"/>
     </g>
     <g id="line2d_14">
      <g>
       <use style="fill:#262626;stroke:#262626;stroke-width:1.25;" x="459.377597" xlink:href="#me9dee239ea" y="640.042403"/>
      </g>
     </g>
     <g id="text_7">
      <!-- 21.11 (47) -->
      <g style="fill:#262626;" transform="translate(417.053389 696.159191)rotate(-45)scale(0.11 -0.11)">
       <use xlink:href="#DejaVuSans-32"/>
       <use x="63.623047" xlink:href="#DejaVuSans-31"/>
       <use x="127.246094" xlink:href="#DejaVuSans-2e"/>
       <use x="159.033203" xlink:href="#DejaVuSans-31"/>
       <use x="222.65625" xlink:href="#DejaVuSans-31"/>
       <use x="286.279297" xlink:href="#DejaVuSans-20"/>
       <use x="318.066406" xlink:href="#DejaVuSans-28"/>
       <use x="357.080078" xlink:href="#DejaVuSans-34"/>
       <use x="420.703125" xlink:href="#DejaVuSans-37"/>
       <use x="484.326172" xlink:href="#DejaVuSans-29"/>
      </g>
     </g>
    </g>
    <g id="xtick_8">
     <g id="line2d_15">
      <path clip-path="url(#p8ecabfe747)" d="M 519.163144 640.042403 
L 519.163144 29.118125 
" style="fill:none;stroke:#cccccc;stroke-linecap:round;"/>
     </g>
     <g id="line2d_16">
      <g>
       <use style="fill:#262626;stroke:#262626;stroke-width:1.25;" x="519.163144" xlink:href="#me9dee239ea" y="640.042403"/>
      </g>
     </g>
     <g id="text_8">
      <!-- 19.12 (51) -->
      <g style="fill:#262626;" transform="translate(476.838936 696.159191)rotate(-45)scale(0.11 -0.11)">
       <use xlink:href="#DejaVuSans-31"/>
       <use x="63.623047" xlink:href="#DejaVuSans-39"/>
       <use x="127.246094" xlink:href="#DejaVuSans-2e"/>
       <use x="159.033203" xlink:href="#DejaVuSans-31"/>
       <use x="222.65625" xlink:href="#DejaVuSans-32"/>
       <use x="286.279297" xlink:href="#DejaVuSans-20"/>
       <use x="318.066406" xlink:href="#DejaVuSans-28"/>
       <use x="357.080078" xlink:href="#DejaVuSans-35"/>
       <use x="420.703125" xlink:href="#DejaVuSans-31"/>
       <use x="484.326172" xlink:href="#DejaVuSans-29"/>
      </g>
     </g>
    </g>
    <g id="xtick_9">
     <g id="line2d_17">
      <path clip-path="url(#p8ecabfe747)" d="M 578.948692 640.042403 
L 578.948692 29.118125 
" style="fill:none;stroke:#cccccc;stroke-linecap:round;"/>
     </g>
     <g id="line2d_18">
      <g>
       <use style="fill:#262626;stroke:#262626;stroke-width:1.25;" x="578.948692" xlink:href="#me9dee239ea" y="640.042403"/>
      </g>
     </g>
     <g id="text_9">
      <!-- 16.01 (02) -->
      <g style="fill:#262626;" transform="translate(536.624484 696.159191)rotate(-45)scale(0.11 -0.11)">
       <use xlink:href="#DejaVuSans-31"/>
       <use x="63.623047" xlink:href="#DejaVuSans-36"/>
       <use x="127.246094" xlink:href="#DejaVuSans-2e"/>
       <use x="159.033203" xlink:href="#DejaVuSans-30"/>
       <use x="222.65625" xlink:href="#DejaVuSans-31"/>
       <use x="286.279297" xlink:href="#DejaVuSans-20"/>
       <use x="318.066406" xlink:href="#DejaVuSans-28"/>
       <use x="357.080078" xlink:href="#DejaVuSans-30"/>
       <use x="420.703125" xlink:href="#DejaVuSans-32"/>
       <use x="484.326172" xlink:href="#DejaVuSans-29"/>
      </g>
     </g>
    </g>
    <g id="xtick_10">
     <g id="line2d_19">
      <path clip-path="url(#p8ecabfe747)" d="M 638.734239 640.042403 
L 638.734239 29.118125 
" style="fill:none;stroke:#cccccc;stroke-linecap:round;"/>
     </g>
     <g id="line2d_20">
      <g>
       <use style="fill:#262626;stroke:#262626;stroke-width:1.25;" x="638.734239" xlink:href="#me9dee239ea" y="640.042403"/>
      </g>
     </g>
     <g id="text_10">
      <!-- 13.02 (06) -->
      <g style="fill:#262626;" transform="translate(596.410031 696.159191)rotate(-45)scale(0.11 -0.11)">
       <use xlink:href="#DejaVuSans-31"/>
       <use x="63.623047" xlink:href="#DejaVuSans-33"/>
       <use x="127.246094" xlink:href="#DejaVuSans-2e"/>
       <use x="159.033203" xlink:href="#DejaVuSans-30"/>
       <use x="222.65625" xlink:href="#DejaVuSans-32"/>
       <use x="286.279297" xlink:href="#DejaVuSans-20"/>
       <use x="318.066406" xlink:href="#DejaVuSans-28"/>
       <use x="357.080078" xlink:href="#DejaVuSans-30"/>
       <use x="420.703125" xlink:href="#DejaVuSans-36"/>
       <use x="484.326172" xlink:href="#DejaVuSans-29"/>
      </g>
     </g>
    </g>
    <g id="xtick_11">
     <g id="line2d_21">
      <path clip-path="url(#p8ecabfe747)" d="M 698.519787 640.042403 
L 698.519787 29.118125 
" style="fill:none;stroke:#cccccc;stroke-linecap:round;"/>
     </g>
     <g id="line2d_22">
      <g>
       <use style="fill:#262626;stroke:#262626;stroke-width:1.25;" x="698.519787" xlink:href="#me9dee239ea" y="640.042403"/>
      </g>
     </g>
     <g id="text_11">
      <!-- 13.03 (10) -->
      <g style="fill:#262626;" transform="translate(656.195579 696.159191)rotate(-45)scale(0.11 -0.11)">
       <use xlink:href="#DejaVuSans-31"/>
       <use x="63.623047" xlink:href="#DejaVuSans-33"/>
       <use x="127.246094" xlink:href="#DejaVuSans-2e"/>
       <use x="159.033203" xlink:href="#DejaVuSans-30"/>
       <use x="222.65625" xlink:href="#DejaVuSans-33"/>
       <use x="286.279297" xlink:href="#DejaVuSans-20"/>
       <use x="318.066406" xlink:href="#DejaVuSans-28"/>
       <use x="357.080078" xlink:href="#DejaVuSans-31"/>
       <use x="420.703125" xlink:href="#DejaVuSans-30"/>
       <use x="484.326172" xlink:href="#DejaVuSans-29"/>
      </g>
     </g>
    </g>
    <g id="xtick_12">
     <g id="line2d_23">
      <path clip-path="url(#p8ecabfe747)" d="M 758.305334 640.042403 
L 758.305334 29.118125 
" style="fill:none;stroke:#cccccc;stroke-linecap:round;"/>
     </g>
     <g id="line2d_24">
      <g>
       <use style="fill:#262626;stroke:#262626;stroke-width:1.25;" x="758.305334" xlink:href="#me9dee239ea" y="640.042403"/>
      </g>
     </g>
     <g id="text_12">
      <!-- 10.04 (14) -->
      <g style="fill:#262626;" transform="translate(715.981126 696.159191)rotate(-45)scale(0.11 -0.11)">
       <use xlink:href="#DejaVuSans-31"/>
       <use x="63.623047" xlink:href="#DejaVuSans-30"/>
       <use x="127.246094" xlink:href="#DejaVuSans-2e"/>
       <use x="159.033203" xlink:href="#DejaVuSans-30"/>
       <use x="222.65625" xlink:href="#DejaVuSans-34"/>
       <use x="286.279297" xlink:href="#DejaVuSans-20"/>
       <use x="318.066406" xlink:href="#DejaVuSans-28"/>
       <use x="357.080078" xlink:href="#DejaVuSans-31"/>
       <use x="420.703125" xlink:href="#DejaVuSans-34"/>
       <use x="484.326172" xlink:href="#DejaVuSans-29"/>
      </g>
     </g>
    </g>
    <g id="xtick_13">
     <g id="line2d_25">
      <path clip-path="url(#p8ecabfe747)" d="M 818.090881 640.042403 
L 818.090881 29.118125 
" style="fill:none;stroke:#cccccc;stroke-linecap:round;"/>
     </g>
     <g id="line2d_26">
      <g>
       <use style="fill:#262626;stroke:#262626;stroke-width:1.25;" x="818.090881" xlink:href="#me9dee239ea" y="640.042403"/>
      </g>
     </g>
     <g id="text_13">
      <!-- 08.05 (18) -->
      <g style="fill:#262626;" transform="translate(775.766674 696.159191)rotate(-45)scale(0.11 -0.11)">
       <use xlink:href="#DejaVuSans-30"/>
       <use x="63.623047" xlink:href="#DejaVuSans-38"/>
       <use x="127.246094" xlink:href="#DejaVuSans-2e"/>
       <use x="159.033203" xlink:href="#DejaVuSans-30"/>
       <use x="222.65625" xlink:href="#DejaVuSans-35"/>
       <use x="286.279297" xlink:href="#DejaVuSans-20"/>
       <use x="318.066406" xlink:href="#DejaVuSans-28"/>
       <use x="357.080078" xlink:href="#DejaVuSans-31"/>
       <use x="420.703125" xlink:href="#DejaVuSans-38"/>
       <use x="484.326172" xlink:href="#DejaVuSans-29"/>
      </g>
     </g>
    </g>
    <g id="xtick_14">
     <g id="line2d_27">
      <path clip-path="url(#p8ecabfe747)" d="M 877.876429 640.042403 
L 877.876429 29.118125 
" style="fill:none;stroke:#cccccc;stroke-linecap:round;"/>
     </g>
     <g id="line2d_28">
      <g>
       <use style="fill:#262626;stroke:#262626;stroke-width:1.25;" x="877.876429" xlink:href="#me9dee239ea" y="640.042403"/>
      </g>
     </g>
     <g id="text_14">
      <!-- 05.06 (22) -->
      <g style="fill:#262626;" transform="translate(835.552221 696.159191)rotate(-45)scale(0.11 -0.11)">
       <use xlink:href="#DejaVuSans-30"/>
       <use x="63.623047" xlink:href="#DejaVuSans-35"/>
       <use x="127.246094" xlink:href="#DejaVuSans-2e"/>
       <use x="159.033203" xlink:href="#DejaVuSans-30"/>
       <use x="222.65625" xlink:href="#DejaVuSans-36"/>
       <use x="286.279297" xlink:href="#DejaVuSans-20"/>
       <use x="318.066406" xlink:href="#DejaVuSans-28"/>
       <use x="357.080078" xlink:href="#DejaVuSans-32"/>
       <use x="420.703125" xlink:href="#DejaVuSans-32"/>
       <use x="484.326172" xlink:href="#DejaVuSans-29"/>
      </g>
     </g>
    </g>
    <g id="xtick_15">
     <g id="line2d_29">
      <path clip-path="url(#p8ecabfe747)" d="M 937.661976 640.042403 
L 937.661976 29.118125 
" style="fill:none;stroke:#cccccc;stroke-linecap:round;"/>
     </g>
     <g id="line2d_30">
      <g>
       <use style="fill:#262626;stroke:#262626;stroke-width:1.25;" x="937.661976" xlink:href="#me9dee239ea" y="640.042403"/>
      </g>
     </g>
     <g id="text_15">
      <!-- 03.07 (26) -->
      <g style="fill:#262626;" transform="translate(895.337769 696.159191)rotate(-45)scale(0.11 -0.11)">
       <use xlink:href="#DejaVuSans-30"/>
       <use x="63.623047" xlink:href="#DejaVuSans-33"/>
       <use x="127.246094" xlink:href="#DejaVuSans-2e"/>
       <use x="159.033203" xlink:href="#DejaVuSans-30"/>
       <use x="222.65625" xlink:href="#DejaVuSans-37"/>
       <use x="286.279297" xlink:href="#DejaVuSans-20"/>
       <use x="318.066406" xlink:href="#DejaVuSans-28"/>
       <use x="357.080078" xlink:href="#DejaVuSans-32"/>
       <use x="420.703125" xlink:href="#DejaVuSans-36"/>
       <use x="484.326172" xlink:href="#DejaVuSans-29"/>
      </g>
     </g>
    </g>
    <g id="xtick_16">
     <g id="line2d_31">
      <path clip-path="url(#p8ecabfe747)" d="M 997.447524 640.042403 
L 997.447524 29.118125 
" style="fill:none;stroke:#cccccc;stroke-linecap:round;"/>
     </g>
     <g id="line2d_32">
      <g>
       <use style="fill:#262626;stroke:#262626;stroke-width:1.25;" x="997.447524" xlink:href="#me9dee239ea" y="640.042403"/>
      </g>
     </g>
     <g id="text_16">
      <!-- 31.07 (30) -->
      <g style="fill:#262626;" transform="translate(955.123316 696.159191)rotate(-45)scale(0.11 -0.11)">
       <use xlink:href="#DejaVuSans-33"/>
       <use x="63.623047" xlink:href="#DejaVuSans-31"/>
       <use x="127.246094" xlink:href="#DejaVuSans-2e"/>
       <use x="159.033203" xlink:href="#DejaVuSans-30"/>
       <use x="222.65625" xlink:href="#DejaVuSans-37"/>
       <use x="286.279297" xlink:href="#DejaVuSans-20"/>
       <use x="318.066406" xlink:href="#DejaVuSans-28"/>
       <use x="357.080078" xlink:href="#DejaVuSans-33"/>
       <use x="420.703125" xlink:href="#DejaVuSans-30"/>
       <use x="484.326172" xlink:href="#DejaVuSans-29"/>
      </g>
     </g>
    </g>
    <g id="xtick_17">
     <g id="line2d_33">
      <path clip-path="url(#p8ecabfe747)" d="M 1057.233071 640.042403 
L 1057.233071 29.118125 
" style="fill:none;stroke:#cccccc;stroke-linecap:round;"/>
     </g>
     <g id="line2d_34">
      <g>
       <use style="fill:#262626;stroke:#262626;stroke-width:1.25;" x="1057.233071" xlink:href="#me9dee239ea" y="640.042403"/>
      </g>
     </g>
     <g id="text_17">
      <!-- 28.08 (34) -->
      <g style="fill:#262626;" transform="translate(1014.908863 696.159191)rotate(-45)scale(0.11 -0.11)">
       <use xlink:href="#DejaVuSans-32"/>
       <use x="63.623047" xlink:href="#DejaVuSans-38"/>
       <use x="127.246094" xlink:href="#DejaVuSans-2e"/>
       <use x="159.033203" xlink:href="#DejaVuSans-30"/>
       <use x="222.65625" xlink:href="#DejaVuSans-38"/>
       <use x="286.279297" xlink:href="#DejaVuSans-20"/>
       <use x="318.066406" xlink:href="#DejaVuSans-28"/>
       <use x="357.080078" xlink:href="#DejaVuSans-33"/>
       <use x="420.703125" xlink:href="#DejaVuSans-34"/>
       <use x="484.326172" xlink:href="#DejaVuSans-29"/>
      </g>
     </g>
    </g>
    <g id="xtick_18">
     <g id="line2d_35">
      <path clip-path="url(#p8ecabfe747)" d="M 1117.018619 640.042403 
L 1117.018619 29.118125 
" style="fill:none;stroke:#cccccc;stroke-linecap:round;"/>
     </g>
     <g id="line2d_36">
      <g>
       <use style="fill:#262626;stroke:#262626;stroke-width:1.25;" x="1117.018619" xlink:href="#me9dee239ea" y="640.042403"/>
      </g>
     </g>
     <g id="text_18">
      <!-- 25.09 (38) -->
      <g style="fill:#262626;" transform="translate(1074.694411 696.159191)rotate(-45)scale(0.11 -0.11)">
       <use xlink:href="#DejaVuSans-32"/>
       <use x="63.623047" xlink:href="#DejaVuSans-35"/>
       <use x="127.246094" xlink:href="#DejaVuSans-2e"/>
       <use x="159.033203" xlink:href="#DejaVuSans-30"/>
       <use x="222.65625" xlink:href="#DejaVuSans-39"/>
       <use x="286.279297" xlink:href="#DejaVuSans-20"/>
       <use x="318.066406" xlink:href="#DejaVuSans-28"/>
       <use x="357.080078" xlink:href="#DejaVuSans-33"/>
       <use x="420.703125" xlink:href="#DejaVuSans-38"/>
       <use x="484.326172" xlink:href="#DejaVuSans-29"/>
      </g>
     </g>
    </g>
    <g id="xtick_19">
     <g id="line2d_37">
      <path clip-path="url(#p8ecabfe747)" d="M 1176.804166 640.042403 
L 1176.804166 29.118125 
" style="fill:none;stroke:#cccccc;stroke-linecap:round;"/>
     </g>
     <g id="line2d_38">
      <g>
       <use style="fill:#262626;stroke:#262626;stroke-width:1.25;" x="1176.804166" xlink:href="#me9dee239ea" y="640.042403"/>
      </g>
     </g>
     <g id="text_19">
      <!-- 23.10 (42) -->
      <g style="fill:#262626;" transform="translate(1134.479958 696.159191)rotate(-45)scale(0.11 -0.11)">
       <use xlink:href="#DejaVuSans-32"/>
       <use x="63.623047" xlink:href="#DejaVuSans-33"/>
       <use x="127.246094" xlink:href="#DejaVuSans-2e"/>
       <use x="159.033203" xlink:href="#DejaVuSans-31"/>
       <use x="222.65625" xlink:href="#DejaVuSans-30"/>
       <use x="286.279297" xlink:href="#DejaVuSans-20"/>
       <use x="318.066406" xlink:href="#DejaVuSans-28"/>
       <use x="357.080078" xlink:href="#DejaVuSans-34"/>
       <use x="420.703125" xlink:href="#DejaVuSans-32"/>
       <use x="484.326172" xlink:href="#DejaVuSans-29"/>
      </g>
     </g>
    </g>
    <g id="xtick_20">
     <g id="line2d_39">
      <defs>
       <path d="M 0 0 
L 0 4 
" id="mebb2563630" style="stroke:#262626;"/>
      </defs>
      <g>
       <use style="fill:#262626;stroke:#262626;" x="55.825151" xlink:href="#mebb2563630" y="640.042403"/>
      </g>
     </g>
    </g>
    <g id="xtick_21">
     <g id="line2d_40">
      <g>
       <use style="fill:#262626;stroke:#262626;" x="70.771538" xlink:href="#mebb2563630" y="640.042403"/>
      </g>
     </g>
    </g>
    <g id="xtick_22">
     <g id="line2d_41">
      <g>
       <use style="fill:#262626;stroke:#262626;" x="85.717925" xlink:href="#mebb2563630" y="640.042403"/>
      </g>
     </g>
    </g>
    <g id="xtick_23">
     <g id="line2d_42">
      <g>
       <use style="fill:#262626;stroke:#262626;" x="115.610699" xlink:href="#mebb2563630" y="640.042403"/>
      </g>
     </g>
    </g>
    <g id="xtick_24">
     <g id="line2d_43">
      <g>
       <use style="fill:#262626;stroke:#262626;" x="130.557086" xlink:href="#mebb2563630" y="640.042403"/>
      </g>
     </g>
    </g>
    <g id="xtick_25">
     <g id="line2d_44">
      <g>
       <use style="fill:#262626;stroke:#262626;" x="145.503473" xlink:href="#mebb2563630" y="640.042403"/>
      </g>
     </g>
    </g>
    <g id="xtick_26">
     <g id="line2d_45">
      <g>
       <use style="fill:#262626;stroke:#262626;" x="175.396246" xlink:href="#mebb2563630" y="640.042403"/>
      </g>
     </g>
    </g>
    <g id="xtick_27">
     <g id="line2d_46">
      <g>
       <use style="fill:#262626;stroke:#262626;" x="190.342633" xlink:href="#mebb2563630" y="640.042403"/>
      </g>
     </g>
    </g>
    <g id="xtick_28">
     <g id="line2d_47">
      <g>
       <use style="fill:#262626;stroke:#262626;" x="205.28902" xlink:href="#mebb2563630" y="640.042403"/>
      </g>
     </g>
    </g>
    <g id="xtick_29">
     <g id="line2d_48">
      <g>
       <use style="fill:#262626;stroke:#262626;" x="235.181794" xlink:href="#mebb2563630" y="640.042403"/>
      </g>
     </g>
    </g>
    <g id="xtick_30">
     <g id="line2d_49">
      <g>
       <use style="fill:#262626;stroke:#262626;" x="250.128181" xlink:href="#mebb2563630" y="640.042403"/>
      </g>
     </g>
    </g>
    <g id="xtick_31">
     <g id="line2d_50">
      <g>
       <use style="fill:#262626;stroke:#262626;" x="265.074568" xlink:href="#mebb2563630" y="640.042403"/>
      </g>
     </g>
    </g>
    <g id="xtick_32">
     <g id="line2d_51">
      <g>
       <use style="fill:#262626;stroke:#262626;" x="294.967341" xlink:href="#mebb2563630" y="640.042403"/>
      </g>
     </g>
    </g>
    <g id="xtick_33">
     <g id="line2d_52">
      <g>
       <use style="fill:#262626;stroke:#262626;" x="309.913728" xlink:href="#mebb2563630" y="640.042403"/>
      </g>
     </g>
    </g>
    <g id="xtick_34">
     <g id="line2d_53">
      <g>
       <use style="fill:#262626;stroke:#262626;" x="324.860115" xlink:href="#mebb2563630" y="640.042403"/>
      </g>
     </g>
    </g>
    <g id="xtick_35">
     <g id="line2d_54">
      <g>
       <use style="fill:#262626;stroke:#262626;" x="354.752889" xlink:href="#mebb2563630" y="640.042403"/>
      </g>
     </g>
    </g>
    <g id="xtick_36">
     <g id="line2d_55">
      <g>
       <use style="fill:#262626;stroke:#262626;" x="369.699276" xlink:href="#mebb2563630" y="640.042403"/>
      </g>
     </g>
    </g>
    <g id="xtick_37">
     <g id="line2d_56">
      <g>
       <use style="fill:#262626;stroke:#262626;" x="384.645662" xlink:href="#mebb2563630" y="640.042403"/>
      </g>
     </g>
    </g>
    <g id="xtick_38">
     <g id="line2d_57">
      <g>
       <use style="fill:#262626;stroke:#262626;" x="414.538436" xlink:href="#mebb2563630" y="640.042403"/>
      </g>
     </g>
    </g>
    <g id="xtick_39">
     <g id="line2d_58">
      <g>
       <use style="fill:#262626;stroke:#262626;" x="429.484823" xlink:href="#mebb2563630" y="640.042403"/>
      </g>
     </g>
    </g>
    <g id="xtick_40">
     <g id="line2d_59">
      <g>
       <use style="fill:#262626;stroke:#262626;" x="444.43121" xlink:href="#mebb2563630" y="640.042403"/>
      </g>
     </g>
    </g>
    <g id="xtick_41">
     <g id="line2d_60">
      <g>
       <use style="fill:#262626;stroke:#262626;" x="474.323984" xlink:href="#mebb2563630" y="640.042403"/>
      </g>
     </g>
    </g>
    <g id="xtick_42">
     <g id="line2d_61">
      <g>
       <use style="fill:#262626;stroke:#262626;" x="489.27037" xlink:href="#mebb2563630" y="640.042403"/>
      </g>
     </g>
    </g>
    <g id="xtick_43">
     <g id="line2d_62">
      <g>
       <use style="fill:#262626;stroke:#262626;" x="504.216757" xlink:href="#mebb2563630" y="640.042403"/>
      </g>
     </g>
    </g>
    <g id="xtick_44">
     <g id="line2d_63">
      <g>
       <use style="fill:#262626;stroke:#262626;" x="534.109531" xlink:href="#mebb2563630" y="640.042403"/>
      </g>
     </g>
    </g>
    <g id="xtick_45">
     <g id="line2d_64">
      <g>
       <use style="fill:#262626;stroke:#262626;" x="549.055918" xlink:href="#mebb2563630" y="640.042403"/>
      </g>
     </g>
    </g>
    <g id="xtick_46">
     <g id="line2d_65">
      <g>
       <use style="fill:#262626;stroke:#262626;" x="564.002305" xlink:href="#mebb2563630" y="640.042403"/>
      </g>
     </g>
    </g>
    <g id="xtick_47">
     <g id="line2d_66">
      <g>
       <use style="fill:#262626;stroke:#262626;" x="593.895079" xlink:href="#mebb2563630" y="640.042403"/>
      </g>
     </g>
    </g>
    <g id="xtick_48">
     <g id="line2d_67">
      <g>
       <use style="fill:#262626;stroke:#262626;" x="608.841465" xlink:href="#mebb2563630" y="640.042403"/>
      </g>
     </g>
    </g>
    <g id="xtick_49">
     <g id="line2d_68">
      <g>
       <use style="fill:#262626;stroke:#262626;" x="623.787852" xlink:href="#mebb2563630" y="640.042403"/>
      </g>
     </g>
    </g>
    <g id="xtick_50">
     <g id="line2d_69">
      <g>
       <use style="fill:#262626;stroke:#262626;" x="653.680626" xlink:href="#mebb2563630" y="640.042403"/>
      </g>
     </g>
    </g>
    <g id="xtick_51">
     <g id="line2d_70">
      <g>
       <use style="fill:#262626;stroke:#262626;" x="668.627013" xlink:href="#mebb2563630" y="640.042403"/>
      </g>
     </g>
    </g>
    <g id="xtick_52">
     <g id="line2d_71">
      <g>
       <use style="fill:#262626;stroke:#262626;" x="683.5734" xlink:href="#mebb2563630" y="640.042403"/>
      </g>
     </g>
    </g>
    <g id="xtick_53">
     <g id="line2d_72">
      <g>
       <use style="fill:#262626;stroke:#262626;" x="713.466173" xlink:href="#mebb2563630" y="640.042403"/>
      </g>
     </g>
    </g>
    <g id="xtick_54">
     <g id="line2d_73">
      <g>
       <use style="fill:#262626;stroke:#262626;" x="728.41256" xlink:href="#mebb2563630" y="640.042403"/>
      </g>
     </g>
    </g>
    <g id="xtick_55">
     <g id="line2d_74">
      <g>
       <use style="fill:#262626;stroke:#262626;" x="743.358947" xlink:href="#mebb2563630" y="640.042403"/>
      </g>
     </g>
    </g>
    <g id="xtick_56">
     <g id="line2d_75">
      <g>
       <use style="fill:#262626;stroke:#262626;" x="773.251721" xlink:href="#mebb2563630" y="640.042403"/>
      </g>
     </g>
    </g>
    <g id="xtick_57">
     <g id="line2d_76">
      <g>
       <use style="fill:#262626;stroke:#262626;" x="788.198108" xlink:href="#mebb2563630" y="640.042403"/>
      </g>
     </g>
    </g>
    <g id="xtick_58">
     <g id="line2d_77">
      <g>
       <use style="fill:#262626;stroke:#262626;" x="803.144495" xlink:href="#mebb2563630" y="640.042403"/>
      </g>
     </g>
    </g>
    <g id="xtick_59">
     <g id="line2d_78">
      <g>
       <use style="fill:#262626;stroke:#262626;" x="833.037268" xlink:href="#mebb2563630" y="640.042403"/>
      </g>
     </g>
    </g>
    <g id="xtick_60">
     <g id="line2d_79">
      <g>
       <use style="fill:#262626;stroke:#262626;" x="847.983655" xlink:href="#mebb2563630" y="640.042403"/>
      </g>
     </g>
    </g>
    <g id="xtick_61">
     <g id="line2d_80">
      <g>
       <use style="fill:#262626;stroke:#262626;" x="862.930042" xlink:href="#mebb2563630" y="640.042403"/>
      </g>
     </g>
    </g>
    <g id="xtick_62">
     <g id="line2d_81">
      <g>
       <use style="fill:#262626;stroke:#262626;" x="892.822816" xlink:href="#mebb2563630" y="640.042403"/>
      </g>
     </g>
    </g>
    <g id="xtick_63">
     <g id="line2d_82">
      <g>
       <use style="fill:#262626;stroke:#262626;" x="907.769203" xlink:href="#mebb2563630" y="640.042403"/>
      </g>
     </g>
    </g>
    <g id="xtick_64">
     <g id="line2d_83">
      <g>
       <use style="fill:#262626;stroke:#262626;" x="922.71559" xlink:href="#mebb2563630" y="640.042403"/>
      </g>
     </g>
    </g>
    <g id="xtick_65">
     <g id="line2d_84">
      <g>
       <use style="fill:#262626;stroke:#262626;" x="952.608363" xlink:href="#mebb2563630" y="640.042403"/>
      </g>
     </g>
    </g>
    <g id="xtick_66">
     <g id="line2d_85">
      <g>
       <use style="fill:#262626;stroke:#262626;" x="967.55475" xlink:href="#mebb2563630" y="640.042403"/>
      </g>
     </g>
    </g>
    <g id="xtick_67">
     <g id="line2d_86">
      <g>
       <use style="fill:#262626;stroke:#262626;" x="982.501137" xlink:href="#mebb2563630" y="640.042403"/>
      </g>
     </g>
    </g>
    <g id="xtick_68">
     <g id="line2d_87">
      <g>
       <use style="fill:#262626;stroke:#262626;" x="1012.393911" xlink:href="#mebb2563630" y="640.042403"/>
      </g>
     </g>
    </g>
    <g id="xtick_69">
     <g id="line2d_88">
      <g>
       <use style="fill:#262626;stroke:#262626;" x="1027.340298" xlink:href="#mebb2563630" y="640.042403"/>
      </g>
     </g>
    </g>
    <g id="xtick_70">
     <g id="line2d_89">
      <g>
       <use style="fill:#262626;stroke:#262626;" x="1042.286684" xlink:href="#mebb2563630" y="640.042403"/>
      </g>
     </g>
    </g>
    <g id="xtick_71">
     <g id="line2d_90">
      <g>
       <use style="fill:#262626;stroke:#262626;" x="1072.179458" xlink:href="#mebb2563630" y="640.042403"/>
      </g>
     </g>
    </g>
    <g id="xtick_72">
     <g id="line2d_91">
      <g>
       <use style="fill:#262626;stroke:#262626;" x="1087.125845" xlink:href="#mebb2563630" y="640.042403"/>
      </g>
     </g>
    </g>
    <g id="xtick_73">
     <g id="line2d_92">
      <g>
       <use style="fill:#262626;stroke:#262626;" x="1102.072232" xlink:href="#mebb2563630" y="640.042403"/>
      </g>
     </g>
    </g>
    <g id="xtick_74">
     <g id="line2d_93">
      <g>
       <use style="fill:#262626;stroke:#262626;" x="1131.965006" xlink:href="#mebb2563630" y="640.042403"/>
      </g>
     </g>
    </g>
    <g id="xtick_75">
     <g id="line2d_94">
      <g>
       <use style="fill:#262626;stroke:#262626;" x="1146.911392" xlink:href="#mebb2563630" y="640.042403"/>
      </g>
     </g>
    </g>
    <g id="xtick_76">
     <g id="line2d_95">
      <g>
       <use style="fill:#262626;stroke:#262626;" x="1161.857779" xlink:href="#mebb2563630" y="640.042403"/>
      </g>
     </g>
    </g>
    <g id="xtick_77">
     <g id="line2d_96">
      <g>
       <use style="fill:#262626;stroke:#262626;" x="1191.750553" xlink:href="#mebb2563630" y="640.042403"/>
      </g>
     </g>
    </g>
    <g id="xtick_78">
     <g id="line2d_97">
      <g>
       <use style="fill:#262626;stroke:#262626;" x="1206.69694" xlink:href="#mebb2563630" y="640.042403"/>
      </g>
     </g>
    </g>
    <g id="xtick_79">
     <g id="line2d_98">
      <g>
       <use style="fill:#262626;stroke:#262626;" x="1221.643327" xlink:href="#mebb2563630" y="640.042403"/>
      </g>
     </g>
    </g>
    <g id="xtick_80">
     <g id="line2d_99">
      <g>
       <use style="fill:#262626;stroke:#262626;" x="1236.589714" xlink:href="#mebb2563630" y="640.042403"/>
      </g>
     </g>
    </g>
    <g id="text_20">
     <!-- Week -->
     <g style="fill:#262626;" transform="translate(629.769308 710.894933)scale(0.12 -0.12)">
      <defs>
       <path d="M 213 4666 
L 850 4666 
L 1831 722 
L 2809 4666 
L 3519 4666 
L 4500 722 
L 5478 4666 
L 6119 4666 
L 4947 0 
L 4153 0 
L 3169 4050 
L 2175 0 
L 1381 0 
L 213 4666 
z
" id="DejaVuSans-57" transform="scale(0.015625)"/>
       <path d="M 3597 1894 
L 3597 1613 
L 953 1613 
Q 991 1019 1311 708 
Q 1631 397 2203 397 
Q 2534 397 2845 478 
Q 3156 559 3463 722 
L 3463 178 
Q 3153 47 2828 -22 
Q 2503 -91 2169 -91 
Q 1331 -91 842 396 
Q 353 884 353 1716 
Q 353 2575 817 3079 
Q 1281 3584 2069 3584 
Q 2775 3584 3186 3129 
Q 3597 2675 3597 1894 
z
M 3022 2063 
Q 3016 2534 2758 2815 
Q 2500 3097 2075 3097 
Q 1594 3097 1305 2825 
Q 1016 2553 972 2059 
L 3022 2063 
z
" id="DejaVuSans-65" transform="scale(0.015625)"/>
       <path d="M 581 4863 
L 1159 4863 
L 1159 1991 
L 2875 3500 
L 3609 3500 
L 1753 1863 
L 3688 0 
L 2938 0 
L 1159 1709 
L 1159 0 
L 581 0 
L 581 4863 
z
" id="DejaVuSans-6b" transform="scale(0.015625)"/>
      </defs>
      <use xlink:href="#DejaVuSans-57"/>
      <use x="93.001953" xlink:href="#DejaVuSans-65"/>
      <use x="154.525391" xlink:href="#DejaVuSans-65"/>
      <use x="216.048828" xlink:href="#DejaVuSans-6b"/>
     </g>
    </g>
   </g>
   <g id="matplotlib.axis_2">
    <g id="ytick_1">
     <g id="line2d_100">
      <path clip-path="url(#p8ecabfe747)" d="M 46.11 612.273118 
L 1246.304865 612.273118 
" style="fill:none;stroke:#cccccc;stroke-linecap:round;"/>
     </g>
     <g id="line2d_101">
      <defs>
       <path d="M 0 0 
L -6 0 
" id="m9bcc5c4b87" style="stroke:#262626;stroke-width:1.25;"/>
      </defs>
      <g>
       <use style="fill:#262626;stroke:#262626;stroke-width:1.25;" x="46.11" xlink:href="#m9bcc5c4b87" y="612.273118"/>
      </g>
     </g>
     <g id="text_21">
      <!-- 0 -->
      <g style="fill:#262626;" transform="translate(29.61125 616.452259)scale(0.11 -0.11)">
       <use xlink:href="#DejaVuSans-30"/>
      </g>
     </g>
    </g>
    <g id="ytick_2">
     <g id="line2d_102">
      <path clip-path="url(#p8ecabfe747)" d="M 46.11 491.630761 
L 1246.304865 491.630761 
" style="fill:none;stroke:#cccccc;stroke-linecap:round;"/>
     </g>
     <g id="line2d_103">
      <g>
       <use style="fill:#262626;stroke:#262626;stroke-width:1.25;" x="46.11" xlink:href="#m9bcc5c4b87" y="491.630761"/>
      </g>
     </g>
     <g id="text_22">
      <!-- 200 -->
      <g style="fill:#262626;" transform="translate(15.61375 495.809902)scale(0.11 -0.11)">
       <use xlink:href="#DejaVuSans-32"/>
       <use x="63.623047" xlink:href="#DejaVuSans-30"/>
       <use x="127.246094" xlink:href="#DejaVuSans-30"/>
      </g>
     </g>
    </g>
    <g id="ytick_3">
     <g id="line2d_104">
      <path clip-path="url(#p8ecabfe747)" d="M 46.11 370.988404 
L 1246.304865 370.988404 
" style="fill:none;stroke:#cccccc;stroke-linecap:round;"/>
     </g>
     <g id="line2d_105">
      <g>
       <use style="fill:#262626;stroke:#262626;stroke-width:1.25;" x="46.11" xlink:href="#m9bcc5c4b87" y="370.988404"/>
      </g>
     </g>
     <g id="text_23">
      <!-- 400 -->
      <g style="fill:#262626;" transform="translate(15.61375 375.167545)scale(0.11 -0.11)">
       <use xlink:href="#DejaVuSans-34"/>
       <use x="63.623047" xlink:href="#DejaVuSans-30"/>
       <use x="127.246094" xlink:href="#DejaVuSans-30"/>
      </g>
     </g>
    </g>
    <g id="ytick_4">
     <g id="line2d_106">
      <path clip-path="url(#p8ecabfe747)" d="M 46.11 250.346047 
L 1246.304865 250.346047 
" style="fill:none;stroke:#cccccc;stroke-linecap:round;"/>
     </g>
     <g id="line2d_107">
      <g>
       <use style="fill:#262626;stroke:#262626;stroke-width:1.25;" x="46.11" xlink:href="#m9bcc5c4b87" y="250.346047"/>
      </g>
     </g>
     <g id="text_24">
      <!-- 600 -->
      <g style="fill:#262626;" transform="translate(15.61375 254.525188)scale(0.11 -0.11)">
       <use xlink:href="#DejaVuSans-36"/>
       <use x="63.623047" xlink:href="#DejaVuSans-30"/>
       <use x="127.246094" xlink:href="#DejaVuSans-30"/>
      </g>
     </g>
    </g>
    <g id="ytick_5">
     <g id="line2d_108">
      <path clip-path="url(#p8ecabfe747)" d="M 46.11 129.70369 
L 1246.304865 129.70369 
" style="fill:none;stroke:#cccccc;stroke-linecap:round;"/>
     </g>
     <g id="line2d_109">
      <g>
       <use style="fill:#262626;stroke:#262626;stroke-width:1.25;" x="46.11" xlink:href="#m9bcc5c4b87" y="129.70369"/>
      </g>
     </g>
     <g id="text_25">
      <!-- 800 -->
      <g style="fill:#262626;" transform="translate(15.61375 133.882831)scale(0.11 -0.11)">
       <use xlink:href="#DejaVuSans-38"/>
       <use x="63.623047" xlink:href="#DejaVuSans-30"/>
       <use x="127.246094" xlink:href="#DejaVuSans-30"/>
      </g>
     </g>
    </g>
    <g id="text_26">
     <!-- New cases (average) -->
     <g style="fill:#262626;" transform="translate(9.118125 397.646827)rotate(-90)scale(0.12 -0.12)">
      <defs>
       <path d="M 628 4666 
L 1478 4666 
L 3547 763 
L 3547 4666 
L 4159 4666 
L 4159 0 
L 3309 0 
L 1241 3903 
L 1241 0 
L 628 0 
L 628 4666 
z
" id="DejaVuSans-4e" transform="scale(0.015625)"/>
       <path d="M 269 3500 
L 844 3500 
L 1563 769 
L 2278 3500 
L 2956 3500 
L 3675 769 
L 4391 3500 
L 4966 3500 
L 4050 0 
L 3372 0 
L 2619 2869 
L 1863 0 
L 1184 0 
L 269 3500 
z
" id="DejaVuSans-77" transform="scale(0.015625)"/>
       <path d="M 3122 3366 
L 3122 2828 
Q 2878 2963 2633 3030 
Q 2388 3097 2138 3097 
Q 1578 3097 1268 2742 
Q 959 2388 959 1747 
Q 959 1106 1268 751 
Q 1578 397 2138 397 
Q 2388 397 2633 464 
Q 2878 531 3122 666 
L 3122 134 
Q 2881 22 2623 -34 
Q 2366 -91 2075 -91 
Q 1284 -91 818 406 
Q 353 903 353 1747 
Q 353 2603 823 3093 
Q 1294 3584 2113 3584 
Q 2378 3584 2631 3529 
Q 2884 3475 3122 3366 
z
" id="DejaVuSans-63" transform="scale(0.015625)"/>
       <path d="M 2194 1759 
Q 1497 1759 1228 1600 
Q 959 1441 959 1056 
Q 959 750 1161 570 
Q 1363 391 1709 391 
Q 2188 391 2477 730 
Q 2766 1069 2766 1631 
L 2766 1759 
L 2194 1759 
z
M 3341 1997 
L 3341 0 
L 2766 0 
L 2766 531 
Q 2569 213 2275 61 
Q 1981 -91 1556 -91 
Q 1019 -91 701 211 
Q 384 513 384 1019 
Q 384 1609 779 1909 
Q 1175 2209 1959 2209 
L 2766 2209 
L 2766 2266 
Q 2766 2663 2505 2880 
Q 2244 3097 1772 3097 
Q 1472 3097 1187 3025 
Q 903 2953 641 2809 
L 641 3341 
Q 956 3463 1253 3523 
Q 1550 3584 1831 3584 
Q 2591 3584 2966 3190 
Q 3341 2797 3341 1997 
z
" id="DejaVuSans-61" transform="scale(0.015625)"/>
       <path d="M 2834 3397 
L 2834 2853 
Q 2591 2978 2328 3040 
Q 2066 3103 1784 3103 
Q 1356 3103 1142 2972 
Q 928 2841 928 2578 
Q 928 2378 1081 2264 
Q 1234 2150 1697 2047 
L 1894 2003 
Q 2506 1872 2764 1633 
Q 3022 1394 3022 966 
Q 3022 478 2636 193 
Q 2250 -91 1575 -91 
Q 1294 -91 989 -36 
Q 684 19 347 128 
L 347 722 
Q 666 556 975 473 
Q 1284 391 1588 391 
Q 1994 391 2212 530 
Q 2431 669 2431 922 
Q 2431 1156 2273 1281 
Q 2116 1406 1581 1522 
L 1381 1569 
Q 847 1681 609 1914 
Q 372 2147 372 2553 
Q 372 3047 722 3315 
Q 1072 3584 1716 3584 
Q 2034 3584 2315 3537 
Q 2597 3491 2834 3397 
z
" id="DejaVuSans-73" transform="scale(0.015625)"/>
       <path d="M 191 3500 
L 800 3500 
L 1894 563 
L 2988 3500 
L 3597 3500 
L 2284 0 
L 1503 0 
L 191 3500 
z
" id="DejaVuSans-76" transform="scale(0.015625)"/>
       <path d="M 2631 2963 
Q 2534 3019 2420 3045 
Q 2306 3072 2169 3072 
Q 1681 3072 1420 2755 
Q 1159 2438 1159 1844 
L 1159 0 
L 581 0 
L 581 3500 
L 1159 3500 
L 1159 2956 
Q 1341 3275 1631 3429 
Q 1922 3584 2338 3584 
Q 2397 3584 2469 3576 
Q 2541 3569 2628 3553 
L 2631 2963 
z
" id="DejaVuSans-72" transform="scale(0.015625)"/>
       <path d="M 2906 1791 
Q 2906 2416 2648 2759 
Q 2391 3103 1925 3103 
Q 1463 3103 1205 2759 
Q 947 2416 947 1791 
Q 947 1169 1205 825 
Q 1463 481 1925 481 
Q 2391 481 2648 825 
Q 2906 1169 2906 1791 
z
M 3481 434 
Q 3481 -459 3084 -895 
Q 2688 -1331 1869 -1331 
Q 1566 -1331 1297 -1286 
Q 1028 -1241 775 -1147 
L 775 -588 
Q 1028 -725 1275 -790 
Q 1522 -856 1778 -856 
Q 2344 -856 2625 -561 
Q 2906 -266 2906 331 
L 2906 616 
Q 2728 306 2450 153 
Q 2172 0 1784 0 
Q 1141 0 747 490 
Q 353 981 353 1791 
Q 353 2603 747 3093 
Q 1141 3584 1784 3584 
Q 2172 3584 2450 3431 
Q 2728 3278 2906 2969 
L 2906 3500 
L 3481 3500 
L 3481 434 
z
" id="DejaVuSans-67" transform="scale(0.015625)"/>
      </defs>
      <use xlink:href="#DejaVuSans-4e"/>
      <use x="74.804688" xlink:href="#DejaVuSans-65"/>
      <use x="136.328125" xlink:href="#DejaVuSans-77"/>
      <use x="218.115234" xlink:href="#DejaVuSans-20"/>
      <use x="249.902344" xlink:href="#DejaVuSans-63"/>
      <use x="304.882812" xlink:href="#DejaVuSans-61"/>
      <use x="366.162109" xlink:href="#DejaVuSans-73"/>
      <use x="418.261719" xlink:href="#DejaVuSans-65"/>
      <use x="479.785156" xlink:href="#DejaVuSans-73"/>
      <use x="531.884766" xlink:href="#DejaVuSans-20"/>
      <use x="563.671875" xlink:href="#DejaVuSans-28"/>
      <use x="602.685547" xlink:href="#DejaVuSans-61"/>
      <use x="663.964844" xlink:href="#DejaVuSans-76"/>
      <use x="723.144531" xlink:href="#DejaVuSans-65"/>
      <use x="784.667969" xlink:href="#DejaVuSans-72"/>
      <use x="825.78125" xlink:href="#DejaVuSans-61"/>
      <use x="887.060547" xlink:href="#DejaVuSans-67"/>
      <use x="950.537109" xlink:href="#DejaVuSans-65"/>
      <use x="1012.060547" xlink:href="#DejaVuSans-29"/>
     </g>
    </g>
   </g>
   <g id="line2d_110">
    <path clip-path="url(#p8ecabfe747)" d="M 100.664312 609.257059 
L 115.610699 607.016558 
L 130.557086 606.585692 
L 145.503473 608.222982 
L 160.44986 600.553575 
L 175.396246 592.453302 
L 190.342633 598.313074 
L 205.28902 598.48542 
L 220.235407 604.86223 
L 235.181794 605.723961 
L 250.128181 605.12075 
L 265.074568 608.481501 
L 280.020954 610.032617 
L 294.967341 608.912367 
L 309.913728 608.222982 
L 324.860115 607.792116 
L 339.806502 603.569634 
L 354.752889 602.535556 
L 369.699276 595.641707 
L 384.645662 586.938223 
L 399.592049 566.601368 
L 414.538436 538.595107 
L 429.484823 537.474857 
L 444.43121 557.897884 
L 459.377597 567.549273 
L 474.323984 572.805833 
L 489.27037 581.59549 
L 504.216757 587.024396 
L 519.163144 597.623689 
L 534.109531 602.104691 
L 549.055918 602.794076 
L 564.002305 598.313074 
L 578.948692 602.707902 
L 593.895079 602.794076 
L 608.841465 597.365169 
L 623.787852 596.244919 
L 638.734239 592.280956 
L 653.680626 590.72984 
L 668.627013 576.511276 
L 683.5734 565.308772 
L 698.519787 547.384764 
L 713.466173 524.29037 
L 728.41256 547.384764 
L 743.358947 556.088249 
L 758.305334 569.186562 
L 773.251721 570.996197 
L 788.198108 574.443122 
L 803.144495 584.35303 
L 818.090881 599.778017 
L 833.037268 603.914326 
L 847.983655 603.828153 
L 862.930042 607.102731 
L 877.876429 605.810134 
L 892.822816 608.395328 
L 907.769203 608.74002 
L 922.71559 608.74002 
L 937.661976 609.170886 
L 952.608363 609.429405 
L 967.55475 608.136809 
L 982.501137 605.293096 
L 997.447524 590.72984 
L 1012.393911 575.821891 
L 1027.340298 553.244536 
L 1042.286684 543.076109 
L 1057.233071 536.354606 
L 1072.179458 551.521074 
L 1087.125845 563.757656 
L 1102.072232 555.054171 
L 1117.018619 533.68324 
L 1131.965006 482.324065 
L 1146.911392 467.588463 
L 1161.857779 441.305663 
L 1176.804166 380.122754 
L 1191.750553 391.239085 
" style="fill:none;stroke:#a6cee3;stroke-linecap:round;stroke-width:1.5;"/>
   </g>
   <g id="line2d_111">
    <path clip-path="url(#p8ecabfe747)" d="M 100.664312 608.050635 
L 115.610699 608.567674 
L 130.557086 607.878289 
L 145.503473 602.535556 
L 160.44986 598.916286 
L 175.396246 584.611549 
L 190.342633 592.367129 
L 205.28902 588.661685 
L 220.235407 600.208882 
L 235.181794 599.691844 
L 250.128181 605.551615 
L 265.074568 604.86223 
L 280.020954 603.569634 
L 294.967341 603.052595 
L 309.913728 604.776057 
L 324.860115 604.517538 
L 339.806502 604.172845 
L 354.752889 596.934304 
L 369.699276 582.543394 
L 384.645662 562.809752 
L 399.592049 517.91356 
L 414.538436 450.181494 
L 429.484823 422.002886 
L 444.43121 432.171314 
L 459.377597 448.027166 
L 474.323984 476.37812 
L 489.27037 500.937457 
L 504.216757 513.604905 
L 519.163144 553.761575 
L 534.109531 581.078451 
L 549.055918 583.318952 
L 564.002305 573.236698 
L 578.948692 592.10861 
L 593.895079 594.521457 
L 608.841465 588.23082 
L 623.787852 581.164624 
L 638.734239 574.96016 
L 653.680626 568.324831 
L 668.627013 544.713398 
L 683.5734 529.116065 
L 698.519787 487.666798 
L 713.466173 434.670334 
L 728.41256 433.894776 
L 743.358947 443.890857 
L 758.305334 493.095704 
L 773.251721 527.737295 
L 788.198108 552.210459 
L 803.144495 567.376926 
L 818.090881 586.85205 
L 833.037268 588.23082 
L 847.983655 597.537516 
L 862.930042 603.74198 
L 877.876429 603.052595 
L 892.822816 607.188904 
L 907.769203 607.36125 
L 922.71559 608.136809 
L 937.661976 607.878289 
L 952.608363 608.309155 
L 967.55475 606.499519 
L 982.501137 603.052595 
L 997.447524 588.661685 
L 1012.393911 562.637405 
L 1027.340298 519.809369 
L 1042.286684 498.266091 
L 1057.233071 495.76707 
L 1072.179458 511.795269 
L 1087.125845 534.114105 
L 1102.072232 526.875564 
L 1117.018619 538.422761 
L 1131.965006 520.757273 
L 1146.911392 513.949597 
L 1161.857779 464.658577 
L 1176.804166 377.968426 
L 1191.750553 323.420846 
" style="fill:none;stroke:#1f78b4;stroke-linecap:round;stroke-width:1.5;"/>
   </g>
   <g id="line2d_112">
    <path clip-path="url(#p8ecabfe747)" d="M 100.664312 607.447424 
L 115.610699 604.259018 
L 130.557086 604.431365 
L 145.503473 600.553575 
L 160.44986 596.934304 
L 175.396246 588.23082 
L 190.342633 588.489339 
L 205.28902 588.23082 
L 220.235407 592.194783 
L 235.181794 593.918245 
L 250.128181 600.639748 
L 265.074568 600.553575 
L 280.020954 599.347151 
L 294.967341 599.088632 
L 309.913728 598.48542 
L 324.860115 600.639748 
L 339.806502 597.192823 
L 354.752889 592.453302 
L 369.699276 571.599409 
L 384.645662 535.751394 
L 399.592049 473.965273 
L 414.538436 345.998201 
L 429.484823 251.552471 
L 444.43121 258.44632 
L 459.377597 285.246157 
L 474.323984 337.811756 
L 489.27037 375.03854 
L 504.216757 406.31938 
L 519.163144 487.925317 
L 534.109531 550.31465 
L 549.055918 555.657383 
L 564.002305 548.246496 
L 578.948692 572.633486 
L 593.895079 573.926083 
L 608.841465 565.567291 
L 623.787852 547.470938 
L 638.734239 531.959777 
L 653.680626 522.566908 
L 668.627013 479.221833 
L 683.5734 446.820743 
L 698.519787 381.070658 
L 713.466173 280.075771 
L 728.41256 295.242238 
L 743.358947 317.819594 
L 758.305334 399.253185 
L 773.251721 458.10942 
L 788.198108 496.197936 
L 803.144495 529.977796 
L 818.090881 560.913943 
L 833.037268 572.719659 
L 847.983655 590.212801 
L 862.930042 597.709862 
L 877.876429 599.60567 
L 892.822816 604.948403 
L 907.769203 604.517538 
L 922.71559 607.878289 
L 937.661976 607.016558 
L 952.608363 607.533597 
L 967.55475 605.465442 
L 982.501137 601.501479 
L 997.447524 592.970341 
L 1012.393911 573.150525 
L 1027.340298 541.697339 
L 1042.286684 489.734952 
L 1057.233071 467.416116 
L 1072.179458 478.360102 
L 1087.125845 493.181877 
L 1102.072232 476.119601 
L 1117.018619 490.51051 
L 1131.965006 448.027166 
L 1146.911392 415.970769 
L 1161.857779 344.01622 
L 1176.804166 216.221495 
L 1191.750553 133.236788 
" style="fill:none;stroke:#b2df8a;stroke-linecap:round;stroke-width:1.5;"/>
   </g>
   <g id="line2d_113">
    <path clip-path="url(#p8ecabfe747)" d="M 100.664312 606.241 
L 115.610699 603.138768 
L 130.557086 601.673825 
L 145.503473 599.950363 
L 160.44986 596.158746 
L 175.396246 592.022437 
L 190.342633 588.23082 
L 205.28902 585.559453 
L 220.235407 587.799954 
L 235.181794 589.006378 
L 250.128181 596.761958 
L 265.074568 599.950363 
L 280.020954 597.968381 
L 294.967341 600.725921 
L 309.913728 600.295055 
L 324.860115 598.399247 
L 339.806502 592.367129 
L 354.752889 587.713781 
L 369.699276 562.809752 
L 384.645662 529.116065 
L 399.592049 458.884978 
L 414.538436 315.148227 
L 429.484823 200.107123 
L 444.43121 186.922637 
L 459.377597 211.65432 
L 474.323984 263.789053 
L 489.27037 300.067933 
L 504.216757 333.847793 
L 519.163144 444.149376 
L 534.109531 530.839527 
L 549.055918 535.492875 
L 564.002305 535.837567 
L 578.948692 564.70556 
L 593.895079 566.946061 
L 608.841465 546.953899 
L 623.787852 533.941759 
L 638.734239 519.981715 
L 653.680626 501.626842 
L 668.627013 443.890857 
L 683.5734 399.425531 
L 698.519787 319.629229 
L 713.466173 210.017031 
L 728.41256 209.672338 
L 743.358947 238.109465 
L 758.305334 337.294717 
L 773.251721 418.125096 
L 788.198108 462.676595 
L 803.144495 515.328367 
L 818.090881 551.004035 
L 833.037268 559.104308 
L 847.983655 580.992278 
L 862.930042 592.280956 
L 877.876429 598.313074 
L 892.822816 602.104691 
L 907.769203 604.000499 
L 922.71559 604.776057 
L 937.661976 605.896308 
L 952.608363 606.671866 
L 967.55475 606.154827 
L 982.501137 602.36321 
L 997.447524 593.573553 
L 1012.393911 573.236698 
L 1027.340298 544.024013 
L 1042.286684 503.953516 
L 1057.233071 467.933155 
L 1072.179458 462.073383 
L 1087.125845 480.686776 
L 1102.072232 461.642518 
L 1117.018619 466.554385 
L 1131.965006 424.32956 
L 1146.911392 391.411432 
L 1161.857779 308.771417 
L 1176.804166 135.821981 
L 1191.750553 56.88741 
" style="fill:none;stroke:#33a02c;stroke-linecap:round;stroke-width:1.5;"/>
   </g>
   <g id="line2d_114">
    <path clip-path="url(#p8ecabfe747)" d="M 100.664312 608.050635 
L 115.610699 600.467402 
L 130.557086 602.880249 
L 145.503473 599.433324 
L 160.44986 595.9864 
L 175.396246 593.659726 
L 190.342633 591.936263 
L 205.28902 587.455262 
L 220.235407 588.489339 
L 235.181794 584.611549 
L 250.128181 594.779976 
L 265.074568 597.882208 
L 280.020954 597.10665 
L 294.967341 599.433324 
L 309.913728 597.451343 
L 324.860115 595.900227 
L 339.806502 593.056514 
L 354.752889 587.024396 
L 369.699276 566.429022 
L 384.645662 529.374584 
L 399.592049 478.015409 
L 414.538436 364.266901 
L 429.484823 241.211697 
L 444.43121 194.936736 
L 459.377597 177.098902 
L 474.323984 219.668419 
L 489.27037 254.999395 
L 504.216757 275.767115 
L 519.163144 392.790201 
L 534.109531 503.350304 
L 549.055918 519.119984 
L 564.002305 525.582967 
L 578.948692 561.94802 
L 593.895079 564.70556 
L 608.841465 544.368706 
L 623.787852 525.92766 
L 638.734239 509.123903 
L 653.680626 495.76707 
L 668.627013 447.337781 
L 683.5734 391.411432 
L 698.519787 320.835653 
L 713.466173 218.203476 
L 728.41256 188.904618 
L 743.358947 201.744412 
L 758.305334 288.003697 
L 773.251721 380.553619 
L 788.198108 441.133317 
L 803.144495 490.338164 
L 818.090881 532.218297 
L 833.037268 552.727497 
L 847.983655 580.992278 
L 862.930042 589.954282 
L 877.876429 595.72788 
L 892.822816 599.778017 
L 907.769203 601.932344 
L 922.71559 604.86223 
L 937.661976 605.12075 
L 952.608363 606.154827 
L 967.55475 606.671866 
L 982.501137 605.034576 
L 997.447524 597.10665 
L 1012.393911 585.042414 
L 1027.340298 556.519114 
L 1042.286684 517.741214 
L 1057.233071 476.895159 
L 1072.179458 465.951174 
L 1087.125845 477.75689 
L 1102.072232 446.389877 
L 1117.018619 455.007188 
L 1131.965006 435.445892 
L 1146.911392 405.112956 
L 1161.857779 343.154489 
L 1176.804166 200.710334 
L 1191.750553 131.944191 
" style="fill:none;stroke:#fb9a99;stroke-linecap:round;stroke-width:1.5;"/>
   </g>
   <g id="line2d_115">
    <path clip-path="url(#p8ecabfe747)" d="M 100.664312 609.860271 
L 115.610699 606.930385 
L 130.557086 603.48346 
L 145.503473 603.052595 
L 160.44986 601.501479 
L 175.396246 600.208882 
L 190.342633 599.002459 
L 205.28902 592.711821 
L 220.235407 591.419225 
L 235.181794 592.280956 
L 250.128181 596.848131 
L 265.074568 597.451343 
L 280.020954 597.10665 
L 294.967341 599.088632 
L 309.913728 600.381228 
L 324.860115 596.589611 
L 339.806502 595.469361 
L 354.752889 591.160705 
L 369.699276 576.425103 
L 384.645662 554.709479 
L 399.592049 515.500713 
L 414.538436 439.754547 
L 429.484823 336.777678 
L 444.43121 291.192102 
L 459.377597 255.947299 
L 474.323984 267.408323 
L 489.27037 288.520736 
L 504.216757 285.677023 
L 519.163144 385.293141 
L 534.109531 494.64682 
L 549.055918 516.190098 
L 564.002305 523.514812 
L 578.948692 558.32875 
L 593.895079 566.256676 
L 608.841465 549.452919 
L 623.787852 535.148183 
L 638.734239 514.897501 
L 653.680626 500.851284 
L 668.627013 447.596301 
L 683.5734 401.666032 
L 698.519787 326.609251 
L 713.466173 242.245775 
L 728.41256 203.554047 
L 743.358947 211.740493 
L 758.305334 274.905384 
L 773.251721 362.371093 
L 788.198108 415.626076 
L 803.144495 477.584544 
L 818.090881 520.584927 
L 833.037268 541.869685 
L 847.983655 563.930002 
L 862.930042 580.561413 
L 877.876429 593.573553 
L 892.822816 596.675785 
L 907.769203 601.415306 
L 922.71559 605.379269 
L 937.661976 605.723961 
L 952.608363 606.758039 
L 967.55475 605.982481 
L 982.501137 604.86223 
L 997.447524 599.950363 
L 1012.393911 585.645626 
L 1027.340298 563.58531 
L 1042.286684 524.204197 
L 1057.233071 481.979372 
L 1072.179458 465.606481 
L 1087.125845 474.654658 
L 1102.072232 449.922975 
L 1117.018619 457.075343 
L 1131.965006 432.171314 
L 1146.911392 419.934732 
L 1161.857779 368.575557 
L 1176.804166 257.06755 
L 1191.750553 211.65432 
" style="fill:none;stroke:#e31a1c;stroke-linecap:round;stroke-width:1.5;"/>
   </g>
   <g id="line2d_116">
    <path clip-path="url(#p8ecabfe747)" d="M 100.664312 611.669906 
L 115.610699 608.74002 
L 130.557086 608.050635 
L 145.503473 608.222982 
L 160.44986 607.275077 
L 175.396246 606.758039 
L 190.342633 603.48346 
L 205.28902 603.224941 
L 220.235407 598.571593 
L 235.181794 598.48542 
L 250.128181 604.689884 
L 265.074568 603.224941 
L 280.020954 603.052595 
L 294.967341 603.397287 
L 309.913728 605.896308 
L 324.860115 604.603711 
L 339.806502 602.449383 
L 354.752889 600.898267 
L 369.699276 595.383188 
L 384.645662 584.783895 
L 399.592049 564.188521 
L 414.538436 538.68128 
L 429.484823 477.412197 
L 444.43121 442.942953 
L 459.377597 414.247306 
L 474.323984 406.750246 
L 489.27037 413.644094 
L 504.216757 399.770223 
L 519.163144 444.235549 
L 534.109531 518.516772 
L 549.055918 531.701258 
L 564.002305 538.767453 
L 578.948692 567.807792 
L 593.895079 574.873987 
L 608.841465 572.374967 
L 623.787852 559.70752 
L 638.734239 553.330709 
L 653.680626 533.769413 
L 668.627013 503.350304 
L 683.5734 469.225752 
L 698.519787 416.315461 
L 713.466173 351.685627 
L 728.41256 324.885789 
L 743.358947 313.597111 
L 758.305334 354.874032 
L 773.251721 403.906533 
L 788.198108 451.387918 
L 803.144495 499.472514 
L 818.090881 529.719276 
L 833.037268 544.454879 
L 847.983655 568.841869 
L 862.930042 584.783895 
L 877.876429 594.435284 
L 892.822816 599.174805 
L 907.769203 601.846171 
L 922.71559 605.551615 
L 937.661976 603.224941 
L 952.608363 607.61977 
L 967.55475 607.533597 
L 982.501137 605.723961 
L 997.447524 602.707902 
L 1012.393911 594.349111 
L 1027.340298 580.906105 
L 1042.286684 546.867726 
L 1057.233071 509.382422 
L 1072.179458 494.129781 
L 1087.125845 500.161899 
L 1102.072232 482.410238 
L 1117.018619 480.428256 
L 1131.965006 469.398098 
L 1146.911392 459.919056 
L 1161.857779 418.383616 
L 1176.804166 360.389111 
L 1191.750553 313.941804 
" style="fill:none;stroke:#fdbf6f;stroke-linecap:round;stroke-width:1.5;"/>
   </g>
   <g id="line2d_117">
    <path clip-path="url(#p8ecabfe747)" d="M 100.664312 611.669906 
L 115.610699 611.325214 
L 130.557086 610.980521 
L 145.503473 611.325214 
L 160.44986 610.377309 
L 175.396246 611.239041 
L 190.342633 610.549656 
L 205.28902 609.774098 
L 220.235407 604.086672 
L 235.181794 605.551615 
L 250.128181 608.653847 
L 265.074568 609.257059 
L 280.020954 609.515578 
L 294.967341 608.567674 
L 309.913728 610.377309 
L 324.860115 609.946444 
L 339.806502 608.481501 
L 354.752889 608.567674 
L 369.699276 606.241 
L 384.645662 602.880249 
L 399.592049 597.10665 
L 414.538436 590.385147 
L 429.484823 570.910024 
L 444.43121 560.224558 
L 459.377597 541.697339 
L 474.323984 545.575129 
L 489.27037 542.989936 
L 504.216757 541.783512 
L 519.163144 556.346768 
L 534.109531 573.581391 
L 549.055918 582.629567 
L 564.002305 581.59549 
L 578.948692 593.918245 
L 593.895079 600.036536 
L 608.841465 597.537516 
L 623.787852 595.297015 
L 638.734239 589.437243 
L 653.680626 589.523416 
L 668.627013 573.83991 
L 683.5734 569.100389 
L 698.519787 547.384764 
L 713.466173 525.66914 
L 728.41256 522.308389 
L 743.358947 511.53675 
L 758.305334 528.254334 
L 773.251721 538.336588 
L 788.198108 550.57317 
L 803.144495 569.617427 
L 818.090881 578.579431 
L 833.037268 585.387107 
L 847.983655 595.641707 
L 862.930042 600.467402 
L 877.876429 604.345192 
L 892.822816 606.068654 
L 907.769203 607.36125 
L 922.71559 608.99854 
L 937.661976 609.515578 
L 952.608363 610.377309 
L 967.55475 610.291136 
L 982.501137 610.377309 
L 997.447524 609.946444 
L 1012.393911 605.896308 
L 1027.340298 601.070613 
L 1042.286684 590.816013 
L 1057.233071 583.060433 
L 1072.179458 576.855969 
L 1087.125845 576.252757 
L 1102.072232 564.102348 
L 1117.018619 564.964079 
L 1131.965006 561.861847 
L 1146.911392 557.811711 
L 1161.857779 544.627225 
L 1176.804166 526.358525 
L 1191.750553 505.935498 
" style="fill:none;stroke:#ff7f00;stroke-linecap:round;stroke-width:1.5;"/>
   </g>
   <g id="line2d_118">
    <path clip-path="url(#p8ecabfe747)" d="M 100.664312 612.273118 
L 115.610699 612.186945 
L 130.557086 612.273118 
L 145.503473 612.273118 
L 160.44986 612.100772 
L 175.396246 612.186945 
L 190.342633 612.014599 
L 205.28902 612.100772 
L 220.235407 611.49756 
L 235.181794 611.325214 
L 250.128181 612.100772 
L 265.074568 611.756079 
L 280.020954 612.014599 
L 294.967341 611.842252 
L 309.913728 612.100772 
L 324.860115 612.100772 
L 339.806502 612.186945 
L 354.752889 612.100772 
L 369.699276 612.014599 
L 384.645662 611.411387 
L 399.592049 609.774098 
L 414.538436 610.549656 
L 429.484823 608.136809 
L 444.43121 608.050635 
L 459.377597 604.431365 
L 474.323984 606.327173 
L 489.27037 607.016558 
L 504.216757 606.241 
L 519.163144 607.61977 
L 534.109531 608.395328 
L 549.055918 609.946444 
L 564.002305 609.170886 
L 578.948692 609.343232 
L 593.895079 611.325214 
L 608.841465 610.635829 
L 623.787852 610.377309 
L 638.734239 610.549656 
L 653.680626 610.722002 
L 668.627013 609.257059 
L 683.5734 609.084713 
L 698.519787 606.671866 
L 713.466173 603.569634 
L 728.41256 605.293096 
L 743.358947 605.637788 
L 758.305334 604.86223 
L 773.251721 606.671866 
L 788.198108 606.499519 
L 803.144495 608.912367 
L 818.090881 610.032617 
L 833.037268 610.463483 
L 847.983655 610.980521 
L 862.930042 611.152867 
L 877.876429 611.756079 
L 892.822816 611.325214 
L 907.769203 612.014599 
L 922.71559 612.186945 
L 937.661976 612.186945 
L 952.608363 612.100772 
L 967.55475 612.014599 
L 982.501137 612.014599 
L 997.447524 612.014599 
L 1012.393911 611.756079 
L 1027.340298 611.066694 
L 1042.286684 610.808175 
L 1057.233071 609.515578 
L 1072.179458 608.222982 
L 1087.125845 609.343232 
L 1102.072232 609.257059 
L 1117.018619 607.188904 
L 1131.965006 605.896308 
L 1146.911392 606.844212 
L 1161.857779 607.102731 
L 1176.804166 603.828153 
L 1191.750553 601.759998 
" style="fill:none;stroke:#cab2d6;stroke-linecap:round;stroke-width:1.5;"/>
   </g>
   <g id="line2d_119"/>
   <g id="line2d_120"/>
   <g id="line2d_121"/>
   <g id="line2d_122"/>
   <g id="line2d_123"/>
   <g id="line2d_124"/>
   <g id="line2d_125"/>
   <g id="line2d_126"/>
   <g id="line2d_127"/>
   <g id="patch_3">
    <path d="M 46.11 640.042403 
L 46.11 29.118125 
" style="fill:none;stroke:#262626;stroke-linecap:square;stroke-linejoin:miter;stroke-width:1.25;"/>
   </g>
   <g id="patch_4">
    <path d="M 1246.304865 640.042403 
L 1246.304865 29.118125 
" style="fill:none;stroke:#262626;stroke-linecap:square;stroke-linejoin:miter;stroke-width:1.25;"/>
   </g>
   <g id="patch_5">
    <path d="M 46.11 640.042403 
L 1246.304865 640.042403 
" style="fill:none;stroke:#262626;stroke-linecap:square;stroke-linejoin:miter;stroke-width:1.25;"/>
   </g>
   <g id="patch_6">
    <path d="M 46.11 29.118125 
L 1246.304865 29.118125 
" style="fill:none;stroke:#262626;stroke-linecap:square;stroke-linejoin:miter;stroke-width:1.25;"/>
   </g>
   <g id="text_27">
    <!-- Last update: 31.10.2021 -->
    <g style="fill:#262626;" transform="translate(584.708604 19.954261)scale(0.09996 -0.09996)">
     <defs>
      <path d="M 628 4666 
L 1259 4666 
L 1259 531 
L 3531 531 
L 3531 0 
L 628 0 
L 628 4666 
z
" id="DejaVuSans-4c" transform="scale(0.015625)"/>
      <path d="M 1172 4494 
L 1172 3500 
L 2356 3500 
L 2356 3053 
L 1172 3053 
L 1172 1153 
Q 1172 725 1289 603 
Q 1406 481 1766 481 
L 2356 481 
L 2356 0 
L 1766 0 
Q 1100 0 847 248 
Q 594 497 594 1153 
L 594 3053 
L 172 3053 
L 172 3500 
L 594 3500 
L 594 4494 
L 1172 4494 
z
" id="DejaVuSans-74" transform="scale(0.015625)"/>
      <path d="M 544 1381 
L 544 3500 
L 1119 3500 
L 1119 1403 
Q 1119 906 1312 657 
Q 1506 409 1894 409 
Q 2359 409 2629 706 
Q 2900 1003 2900 1516 
L 2900 3500 
L 3475 3500 
L 3475 0 
L 2900 0 
L 2900 538 
Q 2691 219 2414 64 
Q 2138 -91 1772 -91 
Q 1169 -91 856 284 
Q 544 659 544 1381 
z
M 1991 3584 
L 1991 3584 
z
" id="DejaVuSans-75" transform="scale(0.015625)"/>
      <path d="M 1159 525 
L 1159 -1331 
L 581 -1331 
L 581 3500 
L 1159 3500 
L 1159 2969 
Q 1341 3281 1617 3432 
Q 1894 3584 2278 3584 
Q 2916 3584 3314 3078 
Q 3713 2572 3713 1747 
Q 3713 922 3314 415 
Q 2916 -91 2278 -91 
Q 1894 -91 1617 61 
Q 1341 213 1159 525 
z
M 3116 1747 
Q 3116 2381 2855 2742 
Q 2594 3103 2138 3103 
Q 1681 3103 1420 2742 
Q 1159 2381 1159 1747 
Q 1159 1113 1420 752 
Q 1681 391 2138 391 
Q 2594 391 2855 752 
Q 3116 1113 3116 1747 
z
" id="DejaVuSans-70" transform="scale(0.015625)"/>
      <path d="M 2906 2969 
L 2906 4863 
L 3481 4863 
L 3481 0 
L 2906 0 
L 2906 525 
Q 2725 213 2448 61 
Q 2172 -91 1784 -91 
Q 1150 -91 751 415 
Q 353 922 353 1747 
Q 353 2572 751 3078 
Q 1150 3584 1784 3584 
Q 2172 3584 2448 3432 
Q 2725 3281 2906 2969 
z
M 947 1747 
Q 947 1113 1208 752 
Q 1469 391 1925 391 
Q 2381 391 2643 752 
Q 2906 1113 2906 1747 
Q 2906 2381 2643 2742 
Q 2381 3103 1925 3103 
Q 1469 3103 1208 2742 
Q 947 2381 947 1747 
z
" id="DejaVuSans-64" transform="scale(0.015625)"/>
      <path d="M 750 794 
L 1409 794 
L 1409 0 
L 750 0 
L 750 794 
z
M 750 3309 
L 1409 3309 
L 1409 2516 
L 750 2516 
L 750 3309 
z
" id="DejaVuSans-3a" transform="scale(0.015625)"/>
     </defs>
     <use xlink:href="#DejaVuSans-4c"/>
     <use x="55.712891" xlink:href="#DejaVuSans-61"/>
     <use x="116.992188" xlink:href="#DejaVuSans-73"/>
     <use x="169.091797" xlink:href="#DejaVuSans-74"/>
     <use x="208.300781" xlink:href="#DejaVuSans-20"/>
     <use x="240.087891" xlink:href="#DejaVuSans-75"/>
     <use x="303.466797" xlink:href="#DejaVuSans-70"/>
     <use x="366.943359" xlink:href="#DejaVuSans-64"/>
     <use x="430.419922" xlink:href="#DejaVuSans-61"/>
     <use x="491.699219" xlink:href="#DejaVuSans-74"/>
     <use x="530.908203" xlink:href="#DejaVuSans-65"/>
     <use x="592.431641" xlink:href="#DejaVuSans-3a"/>
     <use x="626.123047" xlink:href="#DejaVuSans-20"/>
     <use x="657.910156" xlink:href="#DejaVuSans-33"/>
     <use x="721.533203" xlink:href="#DejaVuSans-31"/>
     <use x="785.15625" xlink:href="#DejaVuSans-2e"/>
     <use x="816.943359" xlink:href="#DejaVuSans-31"/>
     <use x="880.566406" xlink:href="#DejaVuSans-30"/>
     <use x="944.189453" xlink:href="#DejaVuSans-2e"/>
     <use x="975.976562" xlink:href="#DejaVuSans-32"/>
     <use x="1039.599609" xlink:href="#DejaVuSans-30"/>
     <use x="1103.222656" xlink:href="#DejaVuSans-32"/>
     <use x="1166.845703" xlink:href="#DejaVuSans-31"/>
    </g>
   </g>
   <g id="patch_7">
    <path d="M 1222.250182 391.239085 
Q 1208.000019 391.239085 1194.867891 391.239085 
" style="fill:none;stroke:#a6cee3;stroke-linecap:round;"/>
    <path d="M 1199.667891 393.639085 
L 1194.867891 391.239085 
L 1199.667891 388.839085 
" style="fill:none;stroke:#a6cee3;stroke-linecap:round;"/>
   </g>
   <g id="text_28">
    <!-- 0-19 (366) -->
    <g style="fill:#a6cee3;" transform="translate(1226.750553 394.550335)scale(0.12 -0.12)">
     <defs>
      <path d="M 313 2009 
L 1997 2009 
L 1997 1497 
L 313 1497 
L 313 2009 
z
" id="DejaVuSans-2d" transform="scale(0.015625)"/>
     </defs>
     <use xlink:href="#DejaVuSans-30"/>
     <use x="63.623047" xlink:href="#DejaVuSans-2d"/>
     <use x="99.707031" xlink:href="#DejaVuSans-31"/>
     <use x="163.330078" xlink:href="#DejaVuSans-39"/>
     <use x="226.953125" xlink:href="#DejaVuSans-20"/>
     <use x="258.740234" xlink:href="#DejaVuSans-28"/>
     <use x="297.753906" xlink:href="#DejaVuSans-33"/>
     <use x="361.376953" xlink:href="#DejaVuSans-36"/>
     <use x="425" xlink:href="#DejaVuSans-36"/>
     <use x="488.623047" xlink:href="#DejaVuSans-29"/>
    </g>
   </g>
   <g id="patch_8">
    <path d="M 1222.24511 323.420846 
Q 1207.997317 323.420846 1194.867559 323.420846 
" style="fill:none;stroke:#1f78b4;stroke-linecap:round;"/>
    <path d="M 1199.667559 325.820846 
L 1194.867559 323.420846 
L 1199.667559 321.020846 
" style="fill:none;stroke:#1f78b4;stroke-linecap:round;"/>
   </g>
   <g id="text_29">
    <!-- 20-29 (479) -->
    <g style="fill:#1f78b4;" transform="translate(1226.750553 326.732096)scale(0.12 -0.12)">
     <use xlink:href="#DejaVuSans-32"/>
     <use x="63.623047" xlink:href="#DejaVuSans-30"/>
     <use x="127.246094" xlink:href="#DejaVuSans-2d"/>
     <use x="163.330078" xlink:href="#DejaVuSans-32"/>
     <use x="226.953125" xlink:href="#DejaVuSans-39"/>
     <use x="290.576172" xlink:href="#DejaVuSans-20"/>
     <use x="322.363281" xlink:href="#DejaVuSans-28"/>
     <use x="361.376953" xlink:href="#DejaVuSans-34"/>
     <use x="425" xlink:href="#DejaVuSans-37"/>
     <use x="488.623047" xlink:href="#DejaVuSans-39"/>
     <use x="552.246094" xlink:href="#DejaVuSans-29"/>
    </g>
   </g>
   <g id="patch_9">
    <path d="M 1222.24511 133.236788 
Q 1207.997317 133.236788 1194.867559 133.236788 
" style="fill:none;stroke:#b2df8a;stroke-linecap:round;"/>
    <path d="M 1199.667559 135.636788 
L 1194.867559 133.236788 
L 1199.667559 130.836788 
" style="fill:none;stroke:#b2df8a;stroke-linecap:round;"/>
   </g>
   <g id="text_30">
    <!-- 30-39 (794) -->
    <g style="fill:#b2df8a;" transform="translate(1226.750553 136.548038)scale(0.12 -0.12)">
     <use xlink:href="#DejaVuSans-33"/>
     <use x="63.623047" xlink:href="#DejaVuSans-30"/>
     <use x="127.246094" xlink:href="#DejaVuSans-2d"/>
     <use x="163.330078" xlink:href="#DejaVuSans-33"/>
     <use x="226.953125" xlink:href="#DejaVuSans-39"/>
     <use x="290.576172" xlink:href="#DejaVuSans-20"/>
     <use x="322.363281" xlink:href="#DejaVuSans-28"/>
     <use x="361.376953" xlink:href="#DejaVuSans-37"/>
     <use x="425" xlink:href="#DejaVuSans-39"/>
     <use x="488.623047" xlink:href="#DejaVuSans-34"/>
     <use x="552.246094" xlink:href="#DejaVuSans-29"/>
    </g>
   </g>
   <g id="patch_10">
    <path d="M 1222.24511 56.88741 
Q 1207.997317 56.88741 1194.867559 56.88741 
" style="fill:none;stroke:#33a02c;stroke-linecap:round;"/>
    <path d="M 1199.667559 59.28741 
L 1194.867559 56.88741 
L 1199.667559 54.48741 
" style="fill:none;stroke:#33a02c;stroke-linecap:round;"/>
   </g>
   <g id="text_31">
    <!-- 40-49 (921) -->
    <g style="fill:#33a02c;" transform="translate(1226.750553 60.19866)scale(0.12 -0.12)">
     <use xlink:href="#DejaVuSans-34"/>
     <use x="63.623047" xlink:href="#DejaVuSans-30"/>
     <use x="127.246094" xlink:href="#DejaVuSans-2d"/>
     <use x="163.330078" xlink:href="#DejaVuSans-34"/>
     <use x="226.953125" xlink:href="#DejaVuSans-39"/>
     <use x="290.576172" xlink:href="#DejaVuSans-20"/>
     <use x="322.363281" xlink:href="#DejaVuSans-28"/>
     <use x="361.376953" xlink:href="#DejaVuSans-39"/>
     <use x="425" xlink:href="#DejaVuSans-32"/>
     <use x="488.623047" xlink:href="#DejaVuSans-31"/>
     <use x="552.246094" xlink:href="#DejaVuSans-29"/>
    </g>
   </g>
   <g id="patch_11">
    <path d="M 1222.24511 131.944191 
Q 1207.997317 131.944191 1194.867559 131.944191 
" style="fill:none;stroke:#fb9a99;stroke-linecap:round;"/>
    <path d="M 1199.667559 134.344191 
L 1194.867559 131.944191 
L 1199.667559 129.544191 
" style="fill:none;stroke:#fb9a99;stroke-linecap:round;"/>
   </g>
   <g id="text_32">
    <!-- 50-59 (796) -->
    <g style="fill:#fb9a99;" transform="translate(1226.750553 135.255441)scale(0.12 -0.12)">
     <use xlink:href="#DejaVuSans-35"/>
     <use x="63.623047" xlink:href="#DejaVuSans-30"/>
     <use x="127.246094" xlink:href="#DejaVuSans-2d"/>
     <use x="163.330078" xlink:href="#DejaVuSans-35"/>
     <use x="226.953125" xlink:href="#DejaVuSans-39"/>
     <use x="290.576172" xlink:href="#DejaVuSans-20"/>
     <use x="322.363281" xlink:href="#DejaVuSans-28"/>
     <use x="361.376953" xlink:href="#DejaVuSans-37"/>
     <use x="425" xlink:href="#DejaVuSans-39"/>
     <use x="488.623047" xlink:href="#DejaVuSans-36"/>
     <use x="552.246094" xlink:href="#DejaVuSans-29"/>
    </g>
   </g>
   <g id="patch_12">
    <path d="M 1222.24511 211.65432 
Q 1207.997317 211.65432 1194.867559 211.65432 
" style="fill:none;stroke:#e31a1c;stroke-linecap:round;"/>
    <path d="M 1199.667559 214.05432 
L 1194.867559 211.65432 
L 1199.667559 209.25432 
" style="fill:none;stroke:#e31a1c;stroke-linecap:round;"/>
   </g>
   <g id="text_33">
    <!-- 60-69 (664) -->
    <g style="fill:#e31a1c;" transform="translate(1226.750553 214.96557)scale(0.12 -0.12)">
     <use xlink:href="#DejaVuSans-36"/>
     <use x="63.623047" xlink:href="#DejaVuSans-30"/>
     <use x="127.246094" xlink:href="#DejaVuSans-2d"/>
     <use x="163.330078" xlink:href="#DejaVuSans-36"/>
     <use x="226.953125" xlink:href="#DejaVuSans-39"/>
     <use x="290.576172" xlink:href="#DejaVuSans-20"/>
     <use x="322.363281" xlink:href="#DejaVuSans-28"/>
     <use x="361.376953" xlink:href="#DejaVuSans-36"/>
     <use x="425" xlink:href="#DejaVuSans-36"/>
     <use x="488.623047" xlink:href="#DejaVuSans-34"/>
     <use x="552.246094" xlink:href="#DejaVuSans-29"/>
    </g>
   </g>
   <g id="patch_13">
    <path d="M 1222.24511 313.941804 
Q 1207.997317 313.941804 1194.867559 313.941804 
" style="fill:none;stroke:#fdbf6f;stroke-linecap:round;"/>
    <path d="M 1199.667559 316.341804 
L 1194.867559 313.941804 
L 1199.667559 311.541804 
" style="fill:none;stroke:#fdbf6f;stroke-linecap:round;"/>
   </g>
   <g id="text_34">
    <!-- 70-79 (495) -->
    <g style="fill:#fdbf6f;" transform="translate(1226.750553 317.253054)scale(0.12 -0.12)">
     <use xlink:href="#DejaVuSans-37"/>
     <use x="63.623047" xlink:href="#DejaVuSans-30"/>
     <use x="127.246094" xlink:href="#DejaVuSans-2d"/>
     <use x="163.330078" xlink:href="#DejaVuSans-37"/>
     <use x="226.953125" xlink:href="#DejaVuSans-39"/>
     <use x="290.576172" xlink:href="#DejaVuSans-20"/>
     <use x="322.363281" xlink:href="#DejaVuSans-28"/>
     <use x="361.376953" xlink:href="#DejaVuSans-34"/>
     <use x="425" xlink:href="#DejaVuSans-39"/>
     <use x="488.623047" xlink:href="#DejaVuSans-35"/>
     <use x="552.246094" xlink:href="#DejaVuSans-29"/>
    </g>
   </g>
   <g id="patch_14">
    <path d="M 1222.24511 505.935498 
Q 1207.997317 505.935498 1194.867559 505.935498 
" style="fill:none;stroke:#ff7f00;stroke-linecap:round;"/>
    <path d="M 1199.667559 508.335498 
L 1194.867559 505.935498 
L 1199.667559 503.535498 
" style="fill:none;stroke:#ff7f00;stroke-linecap:round;"/>
   </g>
   <g id="text_35">
    <!-- 80-89 (176) -->
    <g style="fill:#ff7f00;" transform="translate(1226.750553 509.246748)scale(0.12 -0.12)">
     <use xlink:href="#DejaVuSans-38"/>
     <use x="63.623047" xlink:href="#DejaVuSans-30"/>
     <use x="127.246094" xlink:href="#DejaVuSans-2d"/>
     <use x="163.330078" xlink:href="#DejaVuSans-38"/>
     <use x="226.953125" xlink:href="#DejaVuSans-39"/>
     <use x="290.576172" xlink:href="#DejaVuSans-20"/>
     <use x="322.363281" xlink:href="#DejaVuSans-28"/>
     <use x="361.376953" xlink:href="#DejaVuSans-31"/>
     <use x="425" xlink:href="#DejaVuSans-37"/>
     <use x="488.623047" xlink:href="#DejaVuSans-36"/>
     <use x="552.246094" xlink:href="#DejaVuSans-29"/>
    </g>
   </g>
   <g id="patch_15">
    <path d="M 1222.250159 601.759998 
Q 1208.000008 601.759998 1194.86789 601.759998 
" style="fill:none;stroke:#cab2d6;stroke-linecap:round;"/>
    <path d="M 1199.66789 604.159998 
L 1194.86789 601.759998 
L 1199.66789 599.359998 
" style="fill:none;stroke:#cab2d6;stroke-linecap:round;"/>
   </g>
   <g id="text_36">
    <!-- 90+ (17) -->
    <g style="fill:#cab2d6;" transform="translate(1226.750553 605.071248)scale(0.12 -0.12)">
     <defs>
      <path d="M 2944 4013 
L 2944 2272 
L 4684 2272 
L 4684 1741 
L 2944 1741 
L 2944 0 
L 2419 0 
L 2419 1741 
L 678 1741 
L 678 2272 
L 2419 2272 
L 2419 4013 
L 2944 4013 
z
" id="DejaVuSans-2b" transform="scale(0.015625)"/>
     </defs>
     <use xlink:href="#DejaVuSans-39"/>
     <use x="63.623047" xlink:href="#DejaVuSans-30"/>
     <use x="127.246094" xlink:href="#DejaVuSans-2b"/>
     <use x="211.035156" xlink:href="#DejaVuSans-20"/>
     <use x="242.822266" xlink:href="#DejaVuSans-28"/>
     <use x="281.835938" xlink:href="#DejaVuSans-31"/>
     <use x="345.458984" xlink:href="#DejaVuSans-37"/>
     <use x="409.082031" xlink:href="#DejaVuSans-29"/>
    </g>
   </g>
   <g id="text_37">
    <!-- New cases by age group -->
    <g style="fill:#262626;" transform="translate(563.83962 9.118125)scale(0.12 -0.12)">
     <defs>
      <path d="M 588 4666 
L 1931 4666 
L 3628 1466 
L 3628 4666 
L 4769 4666 
L 4769 0 
L 3425 0 
L 1728 3200 
L 1728 0 
L 588 0 
L 588 4666 
z
" id="DejaVuSans-Bold-4e" transform="scale(0.015625)"/>
      <path d="M 4031 1759 
L 4031 1441 
L 1416 1441 
Q 1456 1047 1700 850 
Q 1944 653 2381 653 
Q 2734 653 3104 758 
Q 3475 863 3866 1075 
L 3866 213 
Q 3469 63 3072 -14 
Q 2675 -91 2278 -91 
Q 1328 -91 801 392 
Q 275 875 275 1747 
Q 275 2603 792 3093 
Q 1309 3584 2216 3584 
Q 3041 3584 3536 3087 
Q 4031 2591 4031 1759 
z
M 2881 2131 
Q 2881 2450 2695 2645 
Q 2509 2841 2209 2841 
Q 1884 2841 1681 2658 
Q 1478 2475 1428 2131 
L 2881 2131 
z
" id="DejaVuSans-Bold-65" transform="scale(0.015625)"/>
      <path d="M 225 3500 
L 1313 3500 
L 1900 1088 
L 2491 3500 
L 3425 3500 
L 4013 1113 
L 4603 3500 
L 5691 3500 
L 4769 0 
L 3547 0 
L 2956 2406 
L 2369 0 
L 1147 0 
L 225 3500 
z
" id="DejaVuSans-Bold-77" transform="scale(0.015625)"/>
      <path id="DejaVuSans-Bold-20" transform="scale(0.015625)"/>
      <path d="M 3366 3391 
L 3366 2478 
Q 3138 2634 2908 2709 
Q 2678 2784 2431 2784 
Q 1963 2784 1702 2511 
Q 1441 2238 1441 1747 
Q 1441 1256 1702 982 
Q 1963 709 2431 709 
Q 2694 709 2930 787 
Q 3166 866 3366 1019 
L 3366 103 
Q 3103 6 2833 -42 
Q 2563 -91 2291 -91 
Q 1344 -91 809 395 
Q 275 881 275 1747 
Q 275 2613 809 3098 
Q 1344 3584 2291 3584 
Q 2566 3584 2833 3536 
Q 3100 3488 3366 3391 
z
" id="DejaVuSans-Bold-63" transform="scale(0.015625)"/>
      <path d="M 2106 1575 
Q 1756 1575 1579 1456 
Q 1403 1338 1403 1106 
Q 1403 894 1545 773 
Q 1688 653 1941 653 
Q 2256 653 2472 879 
Q 2688 1106 2688 1447 
L 2688 1575 
L 2106 1575 
z
M 3816 1997 
L 3816 0 
L 2688 0 
L 2688 519 
Q 2463 200 2181 54 
Q 1900 -91 1497 -91 
Q 953 -91 614 226 
Q 275 544 275 1050 
Q 275 1666 698 1953 
Q 1122 2241 2028 2241 
L 2688 2241 
L 2688 2328 
Q 2688 2594 2478 2717 
Q 2269 2841 1825 2841 
Q 1466 2841 1156 2769 
Q 847 2697 581 2553 
L 581 3406 
Q 941 3494 1303 3539 
Q 1666 3584 2028 3584 
Q 2975 3584 3395 3211 
Q 3816 2838 3816 1997 
z
" id="DejaVuSans-Bold-61" transform="scale(0.015625)"/>
      <path d="M 3272 3391 
L 3272 2541 
Q 2913 2691 2578 2766 
Q 2244 2841 1947 2841 
Q 1628 2841 1473 2761 
Q 1319 2681 1319 2516 
Q 1319 2381 1436 2309 
Q 1553 2238 1856 2203 
L 2053 2175 
Q 2913 2066 3209 1816 
Q 3506 1566 3506 1031 
Q 3506 472 3093 190 
Q 2681 -91 1863 -91 
Q 1516 -91 1145 -36 
Q 775 19 384 128 
L 384 978 
Q 719 816 1070 734 
Q 1422 653 1784 653 
Q 2113 653 2278 743 
Q 2444 834 2444 1013 
Q 2444 1163 2330 1236 
Q 2216 1309 1875 1350 
L 1678 1375 
Q 931 1469 631 1722 
Q 331 1975 331 2491 
Q 331 3047 712 3315 
Q 1094 3584 1881 3584 
Q 2191 3584 2531 3537 
Q 2872 3491 3272 3391 
z
" id="DejaVuSans-Bold-73" transform="scale(0.015625)"/>
      <path d="M 2400 722 
Q 2759 722 2948 984 
Q 3138 1247 3138 1747 
Q 3138 2247 2948 2509 
Q 2759 2772 2400 2772 
Q 2041 2772 1848 2508 
Q 1656 2244 1656 1747 
Q 1656 1250 1848 986 
Q 2041 722 2400 722 
z
M 1656 2988 
Q 1888 3294 2169 3439 
Q 2450 3584 2816 3584 
Q 3463 3584 3878 3070 
Q 4294 2556 4294 1747 
Q 4294 938 3878 423 
Q 3463 -91 2816 -91 
Q 2450 -91 2169 54 
Q 1888 200 1656 506 
L 1656 0 
L 538 0 
L 538 4863 
L 1656 4863 
L 1656 2988 
z
" id="DejaVuSans-Bold-62" transform="scale(0.015625)"/>
      <path d="M 78 3500 
L 1197 3500 
L 2138 1125 
L 2938 3500 
L 4056 3500 
L 2584 -331 
Q 2363 -916 2067 -1148 
Q 1772 -1381 1288 -1381 
L 641 -1381 
L 641 -647 
L 991 -647 
Q 1275 -647 1404 -556 
Q 1534 -466 1606 -231 
L 1638 -134 
L 78 3500 
z
" id="DejaVuSans-Bold-79" transform="scale(0.015625)"/>
      <path d="M 2919 594 
Q 2688 288 2409 144 
Q 2131 0 1766 0 
Q 1125 0 706 504 
Q 288 1009 288 1791 
Q 288 2575 706 3076 
Q 1125 3578 1766 3578 
Q 2131 3578 2409 3434 
Q 2688 3291 2919 2981 
L 2919 3500 
L 4044 3500 
L 4044 353 
Q 4044 -491 3511 -936 
Q 2978 -1381 1966 -1381 
Q 1638 -1381 1331 -1331 
Q 1025 -1281 716 -1178 
L 716 -306 
Q 1009 -475 1290 -558 
Q 1572 -641 1856 -641 
Q 2406 -641 2662 -400 
Q 2919 -159 2919 353 
L 2919 594 
z
M 2181 2772 
Q 1834 2772 1640 2515 
Q 1447 2259 1447 1791 
Q 1447 1309 1634 1061 
Q 1822 813 2181 813 
Q 2531 813 2725 1069 
Q 2919 1325 2919 1791 
Q 2919 2259 2725 2515 
Q 2531 2772 2181 2772 
z
" id="DejaVuSans-Bold-67" transform="scale(0.015625)"/>
      <path d="M 3138 2547 
Q 2991 2616 2845 2648 
Q 2700 2681 2553 2681 
Q 2122 2681 1889 2404 
Q 1656 2128 1656 1613 
L 1656 0 
L 538 0 
L 538 3500 
L 1656 3500 
L 1656 2925 
Q 1872 3269 2151 3426 
Q 2431 3584 2822 3584 
Q 2878 3584 2943 3579 
Q 3009 3575 3134 3559 
L 3138 2547 
z
" id="DejaVuSans-Bold-72" transform="scale(0.015625)"/>
      <path d="M 2203 2784 
Q 1831 2784 1636 2517 
Q 1441 2250 1441 1747 
Q 1441 1244 1636 976 
Q 1831 709 2203 709 
Q 2569 709 2762 976 
Q 2956 1244 2956 1747 
Q 2956 2250 2762 2517 
Q 2569 2784 2203 2784 
z
M 2203 3584 
Q 3106 3584 3614 3096 
Q 4122 2609 4122 1747 
Q 4122 884 3614 396 
Q 3106 -91 2203 -91 
Q 1297 -91 786 396 
Q 275 884 275 1747 
Q 275 2609 786 3096 
Q 1297 3584 2203 3584 
z
" id="DejaVuSans-Bold-6f" transform="scale(0.015625)"/>
      <path d="M 500 1363 
L 500 3500 
L 1625 3500 
L 1625 3150 
Q 1625 2866 1622 2436 
Q 1619 2006 1619 1863 
Q 1619 1441 1641 1255 
Q 1663 1069 1716 984 
Q 1784 875 1895 815 
Q 2006 756 2150 756 
Q 2500 756 2700 1025 
Q 2900 1294 2900 1772 
L 2900 3500 
L 4019 3500 
L 4019 0 
L 2900 0 
L 2900 506 
Q 2647 200 2364 54 
Q 2081 -91 1741 -91 
Q 1134 -91 817 281 
Q 500 653 500 1363 
z
" id="DejaVuSans-Bold-75" transform="scale(0.015625)"/>
      <path d="M 1656 506 
L 1656 -1331 
L 538 -1331 
L 538 3500 
L 1656 3500 
L 1656 2988 
Q 1888 3294 2169 3439 
Q 2450 3584 2816 3584 
Q 3463 3584 3878 3070 
Q 4294 2556 4294 1747 
Q 4294 938 3878 423 
Q 3463 -91 2816 -91 
Q 2450 -91 2169 54 
Q 1888 200 1656 506 
z
M 2400 2772 
Q 2041 2772 1848 2508 
Q 1656 2244 1656 1747 
Q 1656 1250 1848 986 
Q 2041 722 2400 722 
Q 2759 722 2948 984 
Q 3138 1247 3138 1747 
Q 3138 2247 2948 2509 
Q 2759 2772 2400 2772 
z
" id="DejaVuSans-Bold-70" transform="scale(0.015625)"/>
     </defs>
     <use xlink:href="#DejaVuSans-Bold-4e"/>
     <use x="83.691406" xlink:href="#DejaVuSans-Bold-65"/>
     <use x="151.513672" xlink:href="#DejaVuSans-Bold-77"/>
     <use x="243.896484" xlink:href="#DejaVuSans-Bold-20"/>
     <use x="278.710938" xlink:href="#DejaVuSans-Bold-63"/>
     <use x="337.988281" xlink:href="#DejaVuSans-Bold-61"/>
     <use x="405.46875" xlink:href="#DejaVuSans-Bold-73"/>
     <use x="464.990234" xlink:href="#DejaVuSans-Bold-65"/>
     <use x="532.8125" xlink:href="#DejaVuSans-Bold-73"/>
     <use x="592.333984" xlink:href="#DejaVuSans-Bold-20"/>
     <use x="627.148438" xlink:href="#DejaVuSans-Bold-62"/>
     <use x="698.730469" xlink:href="#DejaVuSans-Bold-79"/>
     <use x="763.916016" xlink:href="#DejaVuSans-Bold-20"/>
     <use x="798.730469" xlink:href="#DejaVuSans-Bold-61"/>
     <use x="866.210938" xlink:href="#DejaVuSans-Bold-67"/>
     <use x="937.792969" xlink:href="#DejaVuSans-Bold-65"/>
     <use x="1005.615234" xlink:href="#DejaVuSans-Bold-20"/>
     <use x="1040.429688" xlink:href="#DejaVuSans-Bold-67"/>
     <use x="1112.011719" xlink:href="#DejaVuSans-Bold-72"/>
     <use x="1161.328125" xlink:href="#DejaVuSans-Bold-6f"/>
     <use x="1230.029297" xlink:href="#DejaVuSans-Bold-75"/>
     <use x="1301.220703" xlink:href="#DejaVuSans-Bold-70"/>
    </g>
   </g>
   <g id="legend_1">
    <g id="patch_16">
     <path d="M 53.81 183.231562 
L 120.973594 183.231562 
Q 123.173594 183.231562 123.173594 181.031562 
L 123.173594 36.818125 
Q 123.173594 34.618125 120.973594 34.618125 
L 53.81 34.618125 
Q 51.61 34.618125 51.61 36.818125 
L 51.61 181.031562 
Q 51.61 183.231562 53.81 183.231562 
z
" style="fill:#ffffff;opacity:0.8;stroke:#cccccc;stroke-linejoin:miter;"/>
    </g>
    <g id="line2d_128">
     <path d="M 56.01 43.526406 
L 78.01 43.526406 
" style="fill:none;stroke:#a6cee3;stroke-linecap:round;stroke-width:1.5;"/>
    </g>
    <g id="line2d_129"/>
    <g id="text_38">
     <!-- 0-19 -->
     <g style="fill:#262626;" transform="translate(86.81 47.376406)scale(0.11 -0.11)">
      <use xlink:href="#DejaVuSans-30"/>
      <use x="63.623047" xlink:href="#DejaVuSans-2d"/>
      <use x="99.707031" xlink:href="#DejaVuSans-31"/>
      <use x="163.330078" xlink:href="#DejaVuSans-39"/>
     </g>
    </g>
    <g id="line2d_130">
     <path d="M 56.01 59.672344 
L 78.01 59.672344 
" style="fill:none;stroke:#1f78b4;stroke-linecap:round;stroke-width:1.5;"/>
    </g>
    <g id="line2d_131"/>
    <g id="text_39">
     <!-- 20-29 -->
     <g style="fill:#262626;" transform="translate(86.81 63.522344)scale(0.11 -0.11)">
      <use xlink:href="#DejaVuSans-32"/>
      <use x="63.623047" xlink:href="#DejaVuSans-30"/>
      <use x="127.246094" xlink:href="#DejaVuSans-2d"/>
      <use x="163.330078" xlink:href="#DejaVuSans-32"/>
      <use x="226.953125" xlink:href="#DejaVuSans-39"/>
     </g>
    </g>
    <g id="line2d_132">
     <path d="M 56.01 75.818281 
L 78.01 75.818281 
" style="fill:none;stroke:#b2df8a;stroke-linecap:round;stroke-width:1.5;"/>
    </g>
    <g id="line2d_133"/>
    <g id="text_40">
     <!-- 30-39 -->
     <g style="fill:#262626;" transform="translate(86.81 79.668281)scale(0.11 -0.11)">
      <use xlink:href="#DejaVuSans-33"/>
      <use x="63.623047" xlink:href="#DejaVuSans-30"/>
      <use x="127.246094" xlink:href="#DejaVuSans-2d"/>
      <use x="163.330078" xlink:href="#DejaVuSans-33"/>
      <use x="226.953125" xlink:href="#DejaVuSans-39"/>
     </g>
    </g>
    <g id="line2d_134">
     <path d="M 56.01 91.964219 
L 78.01 91.964219 
" style="fill:none;stroke:#33a02c;stroke-linecap:round;stroke-width:1.5;"/>
    </g>
    <g id="line2d_135"/>
    <g id="text_41">
     <!-- 40-49 -->
     <g style="fill:#262626;" transform="translate(86.81 95.814219)scale(0.11 -0.11)">
      <use xlink:href="#DejaVuSans-34"/>
      <use x="63.623047" xlink:href="#DejaVuSans-30"/>
      <use x="127.246094" xlink:href="#DejaVuSans-2d"/>
      <use x="163.330078" xlink:href="#DejaVuSans-34"/>
      <use x="226.953125" xlink:href="#DejaVuSans-39"/>
     </g>
    </g>
    <g id="line2d_136">
     <path d="M 56.01 108.110156 
L 78.01 108.110156 
" style="fill:none;stroke:#fb9a99;stroke-linecap:round;stroke-width:1.5;"/>
    </g>
    <g id="line2d_137"/>
    <g id="text_42">
     <!-- 50-59 -->
     <g style="fill:#262626;" transform="translate(86.81 111.960156)scale(0.11 -0.11)">
      <use xlink:href="#DejaVuSans-35"/>
      <use x="63.623047" xlink:href="#DejaVuSans-30"/>
      <use x="127.246094" xlink:href="#DejaVuSans-2d"/>
      <use x="163.330078" xlink:href="#DejaVuSans-35"/>
      <use x="226.953125" xlink:href="#DejaVuSans-39"/>
     </g>
    </g>
    <g id="line2d_138">
     <path d="M 56.01 124.256094 
L 78.01 124.256094 
" style="fill:none;stroke:#e31a1c;stroke-linecap:round;stroke-width:1.5;"/>
    </g>
    <g id="line2d_139"/>
    <g id="text_43">
     <!-- 60-69 -->
     <g style="fill:#262626;" transform="translate(86.81 128.106094)scale(0.11 -0.11)">
      <use xlink:href="#DejaVuSans-36"/>
      <use x="63.623047" xlink:href="#DejaVuSans-30"/>
      <use x="127.246094" xlink:href="#DejaVuSans-2d"/>
      <use x="163.330078" xlink:href="#DejaVuSans-36"/>
      <use x="226.953125" xlink:href="#DejaVuSans-39"/>
     </g>
    </g>
    <g id="line2d_140">
     <path d="M 56.01 140.402031 
L 78.01 140.402031 
" style="fill:none;stroke:#fdbf6f;stroke-linecap:round;stroke-width:1.5;"/>
    </g>
    <g id="line2d_141"/>
    <g id="text_44">
     <!-- 70-79 -->
     <g style="fill:#262626;" transform="translate(86.81 144.252031)scale(0.11 -0.11)">
      <use xlink:href="#DejaVuSans-37"/>
      <use x="63.623047" xlink:href="#DejaVuSans-30"/>
      <use x="127.246094" xlink:href="#DejaVuSans-2d"/>
      <use x="163.330078" xlink:href="#DejaVuSans-37"/>
      <use x="226.953125" xlink:href="#DejaVuSans-39"/>
     </g>
    </g>
    <g id="line2d_142">
     <path d="M 56.01 156.547969 
L 78.01 156.547969 
" style="fill:none;stroke:#ff7f00;stroke-linecap:round;stroke-width:1.5;"/>
    </g>
    <g id="line2d_143"/>
    <g id="text_45">
     <!-- 80-89 -->
     <g style="fill:#262626;" transform="translate(86.81 160.397969)scale(0.11 -0.11)">
      <use xlink:href="#DejaVuSans-38"/>
      <use x="63.623047" xlink:href="#DejaVuSans-30"/>
      <use x="127.246094" xlink:href="#DejaVuSans-2d"/>
      <use x="163.330078" xlink:href="#DejaVuSans-38"/>
      <use x="226.953125" xlink:href="#DejaVuSans-39"/>
     </g>
    </g>
    <g id="line2d_144">
     <path d="M 56.01 172.693906 
L 78.01 172.693906 
" style="fill:none;stroke:#cab2d6;stroke-linecap:round;stroke-width:1.5;"/>
    </g>
    <g id="line2d_145"/>
    <g id="text_46">
     <!-- 90+ -->
     <g style="fill:#262626;" transform="translate(86.81 176.543906)scale(0.11 -0.11)">
      <use xlink:href="#DejaVuSans-39"/>
      <use x="63.623047" xlink:href="#DejaVuSans-30"/>
      <use x="127.246094" xlink:href="#DejaVuSans-2b"/>
     </g>
    </g>
   </g>
  </g>
 </g>
 <defs>
  <clipPath id="p8ecabfe747">
   <rect height="610.924278" width="1200.194865" x="46.11" y="29.118125"/>
  </clipPath>
 </defs>
</svg>
