<?xml version="1.0" encoding="utf-8" standalone="no"?>
<!DOCTYPE svg PUBLIC "-//W3C//DTD SVG 1.1//EN"
  "http://www.w3.org/Graphics/SVG/1.1/DTD/svg11.dtd">
<svg height="570.462488pt" version="1.1" viewBox="0 0 860.645375 570.462488" width="860.645375pt" xmlns="http://www.w3.org/2000/svg" xmlns:xlink="http://www.w3.org/1999/xlink">
 <metadata>
  <rdf:RDF xmlns:cc="http://creativecommons.org/ns#" xmlns:dc="http://purl.org/dc/elements/1.1/" xmlns:rdf="http://www.w3.org/1999/02/22-rdf-syntax-ns#">
   <cc:Work>
    <dc:type rdf:resource="http://purl.org/dc/dcmitype/StillImage"/>
    <dc:date>2021-11-04T02:54:16.646501</dc:date>
    <dc:format>image/svg+xml</dc:format>
    <dc:creator>
     <cc:Agent>
      <dc:title>Matplotlib v3.4.3, https://matplotlib.org/</dc:title>
     </cc:Agent>
    </dc:creator>
   </cc:Work>
  </rdf:RDF>
 </metadata>
 <defs>
  <style type="text/css">*{stroke-linecap:butt;stroke-linejoin:round;}</style>
 </defs>
 <g id="figure_1">
  <g id="patch_1">
   <path d="M 0 570.462488 
L 860.645375 570.462488 
L 860.645375 0 
L 0 0 
z
" style="fill:none;"/>
  </g>
  <g id="axes_1">
   <g id="patch_2">
    <path d="M 52.098125 493.286013 
L 789.152875 493.286013 
L 789.152875 29.118125 
L 52.098125 29.118125 
z
" style="fill:none;"/>
   </g>
   <g id="matplotlib.axis_1">
    <g id="xtick_1">
     <g id="line2d_1">
      <path clip-path="url(#p17ed229084)" d="M 94.190995 493.286013 
L 94.190995 29.118125 
" style="fill:none;stroke:#cccccc;stroke-linecap:round;"/>
     </g>
     <g id="line2d_2">
      <defs>
       <path d="M 0 0 
L 0 6 
" id="m92a99f0c15" style="stroke:#262626;stroke-width:1.25;"/>
      </defs>
      <g>
       <use style="fill:#262626;stroke:#262626;stroke-width:1.25;" x="94.190995" xlink:href="#m92a99f0c15" y="493.286013"/>
      </g>
     </g>
     <g id="text_1">
      <!-- 02.01.2021 -->
      <g style="fill:#262626;" transform="translate(48.038467 553.231121)rotate(-45)scale(0.11 -0.11)">
       <defs>
        <path d="M 2034 4250 
Q 1547 4250 1301 3770 
Q 1056 3291 1056 2328 
Q 1056 1369 1301 889 
Q 1547 409 2034 409 
Q 2525 409 2770 889 
Q 3016 1369 3016 2328 
Q 3016 3291 2770 3770 
Q 2525 4250 2034 4250 
z
M 2034 4750 
Q 2819 4750 3233 4129 
Q 3647 3509 3647 2328 
Q 3647 1150 3233 529 
Q 2819 -91 2034 -91 
Q 1250 -91 836 529 
Q 422 1150 422 2328 
Q 422 3509 836 4129 
Q 1250 4750 2034 4750 
z
" id="DejaVuSans-30" transform="scale(0.015625)"/>
        <path d="M 1228 531 
L 3431 531 
L 3431 0 
L 469 0 
L 469 531 
Q 828 903 1448 1529 
Q 2069 2156 2228 2338 
Q 2531 2678 2651 2914 
Q 2772 3150 2772 3378 
Q 2772 3750 2511 3984 
Q 2250 4219 1831 4219 
Q 1534 4219 1204 4116 
Q 875 4013 500 3803 
L 500 4441 
Q 881 4594 1212 4672 
Q 1544 4750 1819 4750 
Q 2544 4750 2975 4387 
Q 3406 4025 3406 3419 
Q 3406 3131 3298 2873 
Q 3191 2616 2906 2266 
Q 2828 2175 2409 1742 
Q 1991 1309 1228 531 
z
" id="DejaVuSans-32" transform="scale(0.015625)"/>
        <path d="M 684 794 
L 1344 794 
L 1344 0 
L 684 0 
L 684 794 
z
" id="DejaVuSans-2e" transform="scale(0.015625)"/>
        <path d="M 794 531 
L 1825 531 
L 1825 4091 
L 703 3866 
L 703 4441 
L 1819 4666 
L 2450 4666 
L 2450 531 
L 3481 531 
L 3481 0 
L 794 0 
L 794 531 
z
" id="DejaVuSans-31" transform="scale(0.015625)"/>
       </defs>
       <use xlink:href="#DejaVuSans-30"/>
       <use x="63.623047" xlink:href="#DejaVuSans-32"/>
       <use x="127.246094" xlink:href="#DejaVuSans-2e"/>
       <use x="159.033203" xlink:href="#DejaVuSans-30"/>
       <use x="222.65625" xlink:href="#DejaVuSans-31"/>
       <use x="286.279297" xlink:href="#DejaVuSans-2e"/>
       <use x="318.066406" xlink:href="#DejaVuSans-32"/>
       <use x="381.689453" xlink:href="#DejaVuSans-30"/>
       <use x="445.3125" xlink:href="#DejaVuSans-32"/>
       <use x="508.935547" xlink:href="#DejaVuSans-31"/>
      </g>
     </g>
    </g>
    <g id="xtick_2">
     <g id="line2d_3">
      <path clip-path="url(#p17ed229084)" d="M 124.257331 493.286013 
L 124.257331 29.118125 
" style="fill:none;stroke:#cccccc;stroke-linecap:round;"/>
     </g>
     <g id="line2d_4">
      <g>
       <use style="fill:#262626;stroke:#262626;stroke-width:1.25;" x="124.257331" xlink:href="#m92a99f0c15" y="493.286013"/>
      </g>
     </g>
     <g id="text_2">
      <!-- 16.01.2021 -->
      <g style="fill:#262626;" transform="translate(78.104803 553.231121)rotate(-45)scale(0.11 -0.11)">
       <defs>
        <path d="M 2113 2584 
Q 1688 2584 1439 2293 
Q 1191 2003 1191 1497 
Q 1191 994 1439 701 
Q 1688 409 2113 409 
Q 2538 409 2786 701 
Q 3034 994 3034 1497 
Q 3034 2003 2786 2293 
Q 2538 2584 2113 2584 
z
M 3366 4563 
L 3366 3988 
Q 3128 4100 2886 4159 
Q 2644 4219 2406 4219 
Q 1781 4219 1451 3797 
Q 1122 3375 1075 2522 
Q 1259 2794 1537 2939 
Q 1816 3084 2150 3084 
Q 2853 3084 3261 2657 
Q 3669 2231 3669 1497 
Q 3669 778 3244 343 
Q 2819 -91 2113 -91 
Q 1303 -91 875 529 
Q 447 1150 447 2328 
Q 447 3434 972 4092 
Q 1497 4750 2381 4750 
Q 2619 4750 2861 4703 
Q 3103 4656 3366 4563 
z
" id="DejaVuSans-36" transform="scale(0.015625)"/>
       </defs>
       <use xlink:href="#DejaVuSans-31"/>
       <use x="63.623047" xlink:href="#DejaVuSans-36"/>
       <use x="127.246094" xlink:href="#DejaVuSans-2e"/>
       <use x="159.033203" xlink:href="#DejaVuSans-30"/>
       <use x="222.65625" xlink:href="#DejaVuSans-31"/>
       <use x="286.279297" xlink:href="#DejaVuSans-2e"/>
       <use x="318.066406" xlink:href="#DejaVuSans-32"/>
       <use x="381.689453" xlink:href="#DejaVuSans-30"/>
       <use x="445.3125" xlink:href="#DejaVuSans-32"/>
       <use x="508.935547" xlink:href="#DejaVuSans-31"/>
      </g>
     </g>
    </g>
    <g id="xtick_3">
     <g id="line2d_5">
      <path clip-path="url(#p17ed229084)" d="M 154.323667 493.286013 
L 154.323667 29.118125 
" style="fill:none;stroke:#cccccc;stroke-linecap:round;"/>
     </g>
     <g id="line2d_6">
      <g>
       <use style="fill:#262626;stroke:#262626;stroke-width:1.25;" x="154.323667" xlink:href="#m92a99f0c15" y="493.286013"/>
      </g>
     </g>
     <g id="text_3">
      <!-- 30.01.2021 -->
      <g style="fill:#262626;" transform="translate(108.171139 553.231121)rotate(-45)scale(0.11 -0.11)">
       <defs>
        <path d="M 2597 2516 
Q 3050 2419 3304 2112 
Q 3559 1806 3559 1356 
Q 3559 666 3084 287 
Q 2609 -91 1734 -91 
Q 1441 -91 1130 -33 
Q 819 25 488 141 
L 488 750 
Q 750 597 1062 519 
Q 1375 441 1716 441 
Q 2309 441 2620 675 
Q 2931 909 2931 1356 
Q 2931 1769 2642 2001 
Q 2353 2234 1838 2234 
L 1294 2234 
L 1294 2753 
L 1863 2753 
Q 2328 2753 2575 2939 
Q 2822 3125 2822 3475 
Q 2822 3834 2567 4026 
Q 2313 4219 1838 4219 
Q 1578 4219 1281 4162 
Q 984 4106 628 3988 
L 628 4550 
Q 988 4650 1302 4700 
Q 1616 4750 1894 4750 
Q 2613 4750 3031 4423 
Q 3450 4097 3450 3541 
Q 3450 3153 3228 2886 
Q 3006 2619 2597 2516 
z
" id="DejaVuSans-33" transform="scale(0.015625)"/>
       </defs>
       <use xlink:href="#DejaVuSans-33"/>
       <use x="63.623047" xlink:href="#DejaVuSans-30"/>
       <use x="127.246094" xlink:href="#DejaVuSans-2e"/>
       <use x="159.033203" xlink:href="#DejaVuSans-30"/>
       <use x="222.65625" xlink:href="#DejaVuSans-31"/>
       <use x="286.279297" xlink:href="#DejaVuSans-2e"/>
       <use x="318.066406" xlink:href="#DejaVuSans-32"/>
       <use x="381.689453" xlink:href="#DejaVuSans-30"/>
       <use x="445.3125" xlink:href="#DejaVuSans-32"/>
       <use x="508.935547" xlink:href="#DejaVuSans-31"/>
      </g>
     </g>
    </g>
    <g id="xtick_4">
     <g id="line2d_7">
      <path clip-path="url(#p17ed229084)" d="M 184.390003 493.286013 
L 184.390003 29.118125 
" style="fill:none;stroke:#cccccc;stroke-linecap:round;"/>
     </g>
     <g id="line2d_8">
      <g>
       <use style="fill:#262626;stroke:#262626;stroke-width:1.25;" x="184.390003" xlink:href="#m92a99f0c15" y="493.286013"/>
      </g>
     </g>
     <g id="text_4">
      <!-- 13.02.2021 -->
      <g style="fill:#262626;" transform="translate(138.237475 553.231121)rotate(-45)scale(0.11 -0.11)">
       <use xlink:href="#DejaVuSans-31"/>
       <use x="63.623047" xlink:href="#DejaVuSans-33"/>
       <use x="127.246094" xlink:href="#DejaVuSans-2e"/>
       <use x="159.033203" xlink:href="#DejaVuSans-30"/>
       <use x="222.65625" xlink:href="#DejaVuSans-32"/>
       <use x="286.279297" xlink:href="#DejaVuSans-2e"/>
       <use x="318.066406" xlink:href="#DejaVuSans-32"/>
       <use x="381.689453" xlink:href="#DejaVuSans-30"/>
       <use x="445.3125" xlink:href="#DejaVuSans-32"/>
       <use x="508.935547" xlink:href="#DejaVuSans-31"/>
      </g>
     </g>
    </g>
    <g id="xtick_5">
     <g id="line2d_9">
      <path clip-path="url(#p17ed229084)" d="M 214.456339 493.286013 
L 214.456339 29.118125 
" style="fill:none;stroke:#cccccc;stroke-linecap:round;"/>
     </g>
     <g id="line2d_10">
      <g>
       <use style="fill:#262626;stroke:#262626;stroke-width:1.25;" x="214.456339" xlink:href="#m92a99f0c15" y="493.286013"/>
      </g>
     </g>
     <g id="text_5">
      <!-- 27.02.2021 -->
      <g style="fill:#262626;" transform="translate(168.303811 553.231121)rotate(-45)scale(0.11 -0.11)">
       <defs>
        <path d="M 525 4666 
L 3525 4666 
L 3525 4397 
L 1831 0 
L 1172 0 
L 2766 4134 
L 525 4134 
L 525 4666 
z
" id="DejaVuSans-37" transform="scale(0.015625)"/>
       </defs>
       <use xlink:href="#DejaVuSans-32"/>
       <use x="63.623047" xlink:href="#DejaVuSans-37"/>
       <use x="127.246094" xlink:href="#DejaVuSans-2e"/>
       <use x="159.033203" xlink:href="#DejaVuSans-30"/>
       <use x="222.65625" xlink:href="#DejaVuSans-32"/>
       <use x="286.279297" xlink:href="#DejaVuSans-2e"/>
       <use x="318.066406" xlink:href="#DejaVuSans-32"/>
       <use x="381.689453" xlink:href="#DejaVuSans-30"/>
       <use x="445.3125" xlink:href="#DejaVuSans-32"/>
       <use x="508.935547" xlink:href="#DejaVuSans-31"/>
      </g>
     </g>
    </g>
    <g id="xtick_6">
     <g id="line2d_11">
      <path clip-path="url(#p17ed229084)" d="M 244.522675 493.286013 
L 244.522675 29.118125 
" style="fill:none;stroke:#cccccc;stroke-linecap:round;"/>
     </g>
     <g id="line2d_12">
      <g>
       <use style="fill:#262626;stroke:#262626;stroke-width:1.25;" x="244.522675" xlink:href="#m92a99f0c15" y="493.286013"/>
      </g>
     </g>
     <g id="text_6">
      <!-- 13.03.2021 -->
      <g style="fill:#262626;" transform="translate(198.370147 553.231121)rotate(-45)scale(0.11 -0.11)">
       <use xlink:href="#DejaVuSans-31"/>
       <use x="63.623047" xlink:href="#DejaVuSans-33"/>
       <use x="127.246094" xlink:href="#DejaVuSans-2e"/>
       <use x="159.033203" xlink:href="#DejaVuSans-30"/>
       <use x="222.65625" xlink:href="#DejaVuSans-33"/>
       <use x="286.279297" xlink:href="#DejaVuSans-2e"/>
       <use x="318.066406" xlink:href="#DejaVuSans-32"/>
       <use x="381.689453" xlink:href="#DejaVuSans-30"/>
       <use x="445.3125" xlink:href="#DejaVuSans-32"/>
       <use x="508.935547" xlink:href="#DejaVuSans-31"/>
      </g>
     </g>
    </g>
    <g id="xtick_7">
     <g id="line2d_13">
      <path clip-path="url(#p17ed229084)" d="M 274.589011 493.286013 
L 274.589011 29.118125 
" style="fill:none;stroke:#cccccc;stroke-linecap:round;"/>
     </g>
     <g id="line2d_14">
      <g>
       <use style="fill:#262626;stroke:#262626;stroke-width:1.25;" x="274.589011" xlink:href="#m92a99f0c15" y="493.286013"/>
      </g>
     </g>
     <g id="text_7">
      <!-- 27.03.2021 -->
      <g style="fill:#262626;" transform="translate(228.436483 553.231121)rotate(-45)scale(0.11 -0.11)">
       <use xlink:href="#DejaVuSans-32"/>
       <use x="63.623047" xlink:href="#DejaVuSans-37"/>
       <use x="127.246094" xlink:href="#DejaVuSans-2e"/>
       <use x="159.033203" xlink:href="#DejaVuSans-30"/>
       <use x="222.65625" xlink:href="#DejaVuSans-33"/>
       <use x="286.279297" xlink:href="#DejaVuSans-2e"/>
       <use x="318.066406" xlink:href="#DejaVuSans-32"/>
       <use x="381.689453" xlink:href="#DejaVuSans-30"/>
       <use x="445.3125" xlink:href="#DejaVuSans-32"/>
       <use x="508.935547" xlink:href="#DejaVuSans-31"/>
      </g>
     </g>
    </g>
    <g id="xtick_8">
     <g id="line2d_15">
      <path clip-path="url(#p17ed229084)" d="M 304.655347 493.286013 
L 304.655347 29.118125 
" style="fill:none;stroke:#cccccc;stroke-linecap:round;"/>
     </g>
     <g id="line2d_16">
      <g>
       <use style="fill:#262626;stroke:#262626;stroke-width:1.25;" x="304.655347" xlink:href="#m92a99f0c15" y="493.286013"/>
      </g>
     </g>
     <g id="text_8">
      <!-- 10.04.2021 -->
      <g style="fill:#262626;" transform="translate(258.502819 553.231121)rotate(-45)scale(0.11 -0.11)">
       <defs>
        <path d="M 2419 4116 
L 825 1625 
L 2419 1625 
L 2419 4116 
z
M 2253 4666 
L 3047 4666 
L 3047 1625 
L 3713 1625 
L 3713 1100 
L 3047 1100 
L 3047 0 
L 2419 0 
L 2419 1100 
L 313 1100 
L 313 1709 
L 2253 4666 
z
" id="DejaVuSans-34" transform="scale(0.015625)"/>
       </defs>
       <use xlink:href="#DejaVuSans-31"/>
       <use x="63.623047" xlink:href="#DejaVuSans-30"/>
       <use x="127.246094" xlink:href="#DejaVuSans-2e"/>
       <use x="159.033203" xlink:href="#DejaVuSans-30"/>
       <use x="222.65625" xlink:href="#DejaVuSans-34"/>
       <use x="286.279297" xlink:href="#DejaVuSans-2e"/>
       <use x="318.066406" xlink:href="#DejaVuSans-32"/>
       <use x="381.689453" xlink:href="#DejaVuSans-30"/>
       <use x="445.3125" xlink:href="#DejaVuSans-32"/>
       <use x="508.935547" xlink:href="#DejaVuSans-31"/>
      </g>
     </g>
    </g>
    <g id="xtick_9">
     <g id="line2d_17">
      <path clip-path="url(#p17ed229084)" d="M 334.721683 493.286013 
L 334.721683 29.118125 
" style="fill:none;stroke:#cccccc;stroke-linecap:round;"/>
     </g>
     <g id="line2d_18">
      <g>
       <use style="fill:#262626;stroke:#262626;stroke-width:1.25;" x="334.721683" xlink:href="#m92a99f0c15" y="493.286013"/>
      </g>
     </g>
     <g id="text_9">
      <!-- 24.04.2021 -->
      <g style="fill:#262626;" transform="translate(288.569155 553.231121)rotate(-45)scale(0.11 -0.11)">
       <use xlink:href="#DejaVuSans-32"/>
       <use x="63.623047" xlink:href="#DejaVuSans-34"/>
       <use x="127.246094" xlink:href="#DejaVuSans-2e"/>
       <use x="159.033203" xlink:href="#DejaVuSans-30"/>
       <use x="222.65625" xlink:href="#DejaVuSans-34"/>
       <use x="286.279297" xlink:href="#DejaVuSans-2e"/>
       <use x="318.066406" xlink:href="#DejaVuSans-32"/>
       <use x="381.689453" xlink:href="#DejaVuSans-30"/>
       <use x="445.3125" xlink:href="#DejaVuSans-32"/>
       <use x="508.935547" xlink:href="#DejaVuSans-31"/>
      </g>
     </g>
    </g>
    <g id="xtick_10">
     <g id="line2d_19">
      <path clip-path="url(#p17ed229084)" d="M 364.788019 493.286013 
L 364.788019 29.118125 
" style="fill:none;stroke:#cccccc;stroke-linecap:round;"/>
     </g>
     <g id="line2d_20">
      <g>
       <use style="fill:#262626;stroke:#262626;stroke-width:1.25;" x="364.788019" xlink:href="#m92a99f0c15" y="493.286013"/>
      </g>
     </g>
     <g id="text_10">
      <!-- 08.05.2021 -->
      <g style="fill:#262626;" transform="translate(318.635491 553.231121)rotate(-45)scale(0.11 -0.11)">
       <defs>
        <path d="M 2034 2216 
Q 1584 2216 1326 1975 
Q 1069 1734 1069 1313 
Q 1069 891 1326 650 
Q 1584 409 2034 409 
Q 2484 409 2743 651 
Q 3003 894 3003 1313 
Q 3003 1734 2745 1975 
Q 2488 2216 2034 2216 
z
M 1403 2484 
Q 997 2584 770 2862 
Q 544 3141 544 3541 
Q 544 4100 942 4425 
Q 1341 4750 2034 4750 
Q 2731 4750 3128 4425 
Q 3525 4100 3525 3541 
Q 3525 3141 3298 2862 
Q 3072 2584 2669 2484 
Q 3125 2378 3379 2068 
Q 3634 1759 3634 1313 
Q 3634 634 3220 271 
Q 2806 -91 2034 -91 
Q 1263 -91 848 271 
Q 434 634 434 1313 
Q 434 1759 690 2068 
Q 947 2378 1403 2484 
z
M 1172 3481 
Q 1172 3119 1398 2916 
Q 1625 2713 2034 2713 
Q 2441 2713 2670 2916 
Q 2900 3119 2900 3481 
Q 2900 3844 2670 4047 
Q 2441 4250 2034 4250 
Q 1625 4250 1398 4047 
Q 1172 3844 1172 3481 
z
" id="DejaVuSans-38" transform="scale(0.015625)"/>
        <path d="M 691 4666 
L 3169 4666 
L 3169 4134 
L 1269 4134 
L 1269 2991 
Q 1406 3038 1543 3061 
Q 1681 3084 1819 3084 
Q 2600 3084 3056 2656 
Q 3513 2228 3513 1497 
Q 3513 744 3044 326 
Q 2575 -91 1722 -91 
Q 1428 -91 1123 -41 
Q 819 9 494 109 
L 494 744 
Q 775 591 1075 516 
Q 1375 441 1709 441 
Q 2250 441 2565 725 
Q 2881 1009 2881 1497 
Q 2881 1984 2565 2268 
Q 2250 2553 1709 2553 
Q 1456 2553 1204 2497 
Q 953 2441 691 2322 
L 691 4666 
z
" id="DejaVuSans-35" transform="scale(0.015625)"/>
       </defs>
       <use xlink:href="#DejaVuSans-30"/>
       <use x="63.623047" xlink:href="#DejaVuSans-38"/>
       <use x="127.246094" xlink:href="#DejaVuSans-2e"/>
       <use x="159.033203" xlink:href="#DejaVuSans-30"/>
       <use x="222.65625" xlink:href="#DejaVuSans-35"/>
       <use x="286.279297" xlink:href="#DejaVuSans-2e"/>
       <use x="318.066406" xlink:href="#DejaVuSans-32"/>
       <use x="381.689453" xlink:href="#DejaVuSans-30"/>
       <use x="445.3125" xlink:href="#DejaVuSans-32"/>
       <use x="508.935547" xlink:href="#DejaVuSans-31"/>
      </g>
     </g>
    </g>
    <g id="xtick_11">
     <g id="line2d_21">
      <path clip-path="url(#p17ed229084)" d="M 394.854355 493.286013 
L 394.854355 29.118125 
" style="fill:none;stroke:#cccccc;stroke-linecap:round;"/>
     </g>
     <g id="line2d_22">
      <g>
       <use style="fill:#262626;stroke:#262626;stroke-width:1.25;" x="394.854355" xlink:href="#m92a99f0c15" y="493.286013"/>
      </g>
     </g>
     <g id="text_11">
      <!-- 22.05.2021 -->
      <g style="fill:#262626;" transform="translate(348.701827 553.231121)rotate(-45)scale(0.11 -0.11)">
       <use xlink:href="#DejaVuSans-32"/>
       <use x="63.623047" xlink:href="#DejaVuSans-32"/>
       <use x="127.246094" xlink:href="#DejaVuSans-2e"/>
       <use x="159.033203" xlink:href="#DejaVuSans-30"/>
       <use x="222.65625" xlink:href="#DejaVuSans-35"/>
       <use x="286.279297" xlink:href="#DejaVuSans-2e"/>
       <use x="318.066406" xlink:href="#DejaVuSans-32"/>
       <use x="381.689453" xlink:href="#DejaVuSans-30"/>
       <use x="445.3125" xlink:href="#DejaVuSans-32"/>
       <use x="508.935547" xlink:href="#DejaVuSans-31"/>
      </g>
     </g>
    </g>
    <g id="xtick_12">
     <g id="line2d_23">
      <path clip-path="url(#p17ed229084)" d="M 424.920691 493.286013 
L 424.920691 29.118125 
" style="fill:none;stroke:#cccccc;stroke-linecap:round;"/>
     </g>
     <g id="line2d_24">
      <g>
       <use style="fill:#262626;stroke:#262626;stroke-width:1.25;" x="424.920691" xlink:href="#m92a99f0c15" y="493.286013"/>
      </g>
     </g>
     <g id="text_12">
      <!-- 05.06.2021 -->
      <g style="fill:#262626;" transform="translate(378.768163 553.231121)rotate(-45)scale(0.11 -0.11)">
       <use xlink:href="#DejaVuSans-30"/>
       <use x="63.623047" xlink:href="#DejaVuSans-35"/>
       <use x="127.246094" xlink:href="#DejaVuSans-2e"/>
       <use x="159.033203" xlink:href="#DejaVuSans-30"/>
       <use x="222.65625" xlink:href="#DejaVuSans-36"/>
       <use x="286.279297" xlink:href="#DejaVuSans-2e"/>
       <use x="318.066406" xlink:href="#DejaVuSans-32"/>
       <use x="381.689453" xlink:href="#DejaVuSans-30"/>
       <use x="445.3125" xlink:href="#DejaVuSans-32"/>
       <use x="508.935547" xlink:href="#DejaVuSans-31"/>
      </g>
     </g>
    </g>
    <g id="xtick_13">
     <g id="line2d_25">
      <path clip-path="url(#p17ed229084)" d="M 454.987027 493.286013 
L 454.987027 29.118125 
" style="fill:none;stroke:#cccccc;stroke-linecap:round;"/>
     </g>
     <g id="line2d_26">
      <g>
       <use style="fill:#262626;stroke:#262626;stroke-width:1.25;" x="454.987027" xlink:href="#m92a99f0c15" y="493.286013"/>
      </g>
     </g>
     <g id="text_13">
      <!-- 19.06.2021 -->
      <g style="fill:#262626;" transform="translate(408.834499 553.231121)rotate(-45)scale(0.11 -0.11)">
       <defs>
        <path d="M 703 97 
L 703 672 
Q 941 559 1184 500 
Q 1428 441 1663 441 
Q 2288 441 2617 861 
Q 2947 1281 2994 2138 
Q 2813 1869 2534 1725 
Q 2256 1581 1919 1581 
Q 1219 1581 811 2004 
Q 403 2428 403 3163 
Q 403 3881 828 4315 
Q 1253 4750 1959 4750 
Q 2769 4750 3195 4129 
Q 3622 3509 3622 2328 
Q 3622 1225 3098 567 
Q 2575 -91 1691 -91 
Q 1453 -91 1209 -44 
Q 966 3 703 97 
z
M 1959 2075 
Q 2384 2075 2632 2365 
Q 2881 2656 2881 3163 
Q 2881 3666 2632 3958 
Q 2384 4250 1959 4250 
Q 1534 4250 1286 3958 
Q 1038 3666 1038 3163 
Q 1038 2656 1286 2365 
Q 1534 2075 1959 2075 
z
" id="DejaVuSans-39" transform="scale(0.015625)"/>
       </defs>
       <use xlink:href="#DejaVuSans-31"/>
       <use x="63.623047" xlink:href="#DejaVuSans-39"/>
       <use x="127.246094" xlink:href="#DejaVuSans-2e"/>
       <use x="159.033203" xlink:href="#DejaVuSans-30"/>
       <use x="222.65625" xlink:href="#DejaVuSans-36"/>
       <use x="286.279297" xlink:href="#DejaVuSans-2e"/>
       <use x="318.066406" xlink:href="#DejaVuSans-32"/>
       <use x="381.689453" xlink:href="#DejaVuSans-30"/>
       <use x="445.3125" xlink:href="#DejaVuSans-32"/>
       <use x="508.935547" xlink:href="#DejaVuSans-31"/>
      </g>
     </g>
    </g>
    <g id="xtick_14">
     <g id="line2d_27">
      <path clip-path="url(#p17ed229084)" d="M 485.053363 493.286013 
L 485.053363 29.118125 
" style="fill:none;stroke:#cccccc;stroke-linecap:round;"/>
     </g>
     <g id="line2d_28">
      <g>
       <use style="fill:#262626;stroke:#262626;stroke-width:1.25;" x="485.053363" xlink:href="#m92a99f0c15" y="493.286013"/>
      </g>
     </g>
     <g id="text_14">
      <!-- 03.07.2021 -->
      <g style="fill:#262626;" transform="translate(438.900835 553.231121)rotate(-45)scale(0.11 -0.11)">
       <use xlink:href="#DejaVuSans-30"/>
       <use x="63.623047" xlink:href="#DejaVuSans-33"/>
       <use x="127.246094" xlink:href="#DejaVuSans-2e"/>
       <use x="159.033203" xlink:href="#DejaVuSans-30"/>
       <use x="222.65625" xlink:href="#DejaVuSans-37"/>
       <use x="286.279297" xlink:href="#DejaVuSans-2e"/>
       <use x="318.066406" xlink:href="#DejaVuSans-32"/>
       <use x="381.689453" xlink:href="#DejaVuSans-30"/>
       <use x="445.3125" xlink:href="#DejaVuSans-32"/>
       <use x="508.935547" xlink:href="#DejaVuSans-31"/>
      </g>
     </g>
    </g>
    <g id="xtick_15">
     <g id="line2d_29">
      <path clip-path="url(#p17ed229084)" d="M 515.119699 493.286013 
L 515.119699 29.118125 
" style="fill:none;stroke:#cccccc;stroke-linecap:round;"/>
     </g>
     <g id="line2d_30">
      <g>
       <use style="fill:#262626;stroke:#262626;stroke-width:1.25;" x="515.119699" xlink:href="#m92a99f0c15" y="493.286013"/>
      </g>
     </g>
     <g id="text_15">
      <!-- 17.07.2021 -->
      <g style="fill:#262626;" transform="translate(468.967171 553.231121)rotate(-45)scale(0.11 -0.11)">
       <use xlink:href="#DejaVuSans-31"/>
       <use x="63.623047" xlink:href="#DejaVuSans-37"/>
       <use x="127.246094" xlink:href="#DejaVuSans-2e"/>
       <use x="159.033203" xlink:href="#DejaVuSans-30"/>
       <use x="222.65625" xlink:href="#DejaVuSans-37"/>
       <use x="286.279297" xlink:href="#DejaVuSans-2e"/>
       <use x="318.066406" xlink:href="#DejaVuSans-32"/>
       <use x="381.689453" xlink:href="#DejaVuSans-30"/>
       <use x="445.3125" xlink:href="#DejaVuSans-32"/>
       <use x="508.935547" xlink:href="#DejaVuSans-31"/>
      </g>
     </g>
    </g>
    <g id="xtick_16">
     <g id="line2d_31">
      <path clip-path="url(#p17ed229084)" d="M 545.186035 493.286013 
L 545.186035 29.118125 
" style="fill:none;stroke:#cccccc;stroke-linecap:round;"/>
     </g>
     <g id="line2d_32">
      <g>
       <use style="fill:#262626;stroke:#262626;stroke-width:1.25;" x="545.186035" xlink:href="#m92a99f0c15" y="493.286013"/>
      </g>
     </g>
     <g id="text_16">
      <!-- 31.07.2021 -->
      <g style="fill:#262626;" transform="translate(499.033507 553.231121)rotate(-45)scale(0.11 -0.11)">
       <use xlink:href="#DejaVuSans-33"/>
       <use x="63.623047" xlink:href="#DejaVuSans-31"/>
       <use x="127.246094" xlink:href="#DejaVuSans-2e"/>
       <use x="159.033203" xlink:href="#DejaVuSans-30"/>
       <use x="222.65625" xlink:href="#DejaVuSans-37"/>
       <use x="286.279297" xlink:href="#DejaVuSans-2e"/>
       <use x="318.066406" xlink:href="#DejaVuSans-32"/>
       <use x="381.689453" xlink:href="#DejaVuSans-30"/>
       <use x="445.3125" xlink:href="#DejaVuSans-32"/>
       <use x="508.935547" xlink:href="#DejaVuSans-31"/>
      </g>
     </g>
    </g>
    <g id="xtick_17">
     <g id="line2d_33">
      <path clip-path="url(#p17ed229084)" d="M 575.252371 493.286013 
L 575.252371 29.118125 
" style="fill:none;stroke:#cccccc;stroke-linecap:round;"/>
     </g>
     <g id="line2d_34">
      <g>
       <use style="fill:#262626;stroke:#262626;stroke-width:1.25;" x="575.252371" xlink:href="#m92a99f0c15" y="493.286013"/>
      </g>
     </g>
     <g id="text_17">
      <!-- 14.08.2021 -->
      <g style="fill:#262626;" transform="translate(529.099842 553.231121)rotate(-45)scale(0.11 -0.11)">
       <use xlink:href="#DejaVuSans-31"/>
       <use x="63.623047" xlink:href="#DejaVuSans-34"/>
       <use x="127.246094" xlink:href="#DejaVuSans-2e"/>
       <use x="159.033203" xlink:href="#DejaVuSans-30"/>
       <use x="222.65625" xlink:href="#DejaVuSans-38"/>
       <use x="286.279297" xlink:href="#DejaVuSans-2e"/>
       <use x="318.066406" xlink:href="#DejaVuSans-32"/>
       <use x="381.689453" xlink:href="#DejaVuSans-30"/>
       <use x="445.3125" xlink:href="#DejaVuSans-32"/>
       <use x="508.935547" xlink:href="#DejaVuSans-31"/>
      </g>
     </g>
    </g>
    <g id="xtick_18">
     <g id="line2d_35">
      <path clip-path="url(#p17ed229084)" d="M 605.318707 493.286013 
L 605.318707 29.118125 
" style="fill:none;stroke:#cccccc;stroke-linecap:round;"/>
     </g>
     <g id="line2d_36">
      <g>
       <use style="fill:#262626;stroke:#262626;stroke-width:1.25;" x="605.318707" xlink:href="#m92a99f0c15" y="493.286013"/>
      </g>
     </g>
     <g id="text_18">
      <!-- 28.08.2021 -->
      <g style="fill:#262626;" transform="translate(559.166178 553.231121)rotate(-45)scale(0.11 -0.11)">
       <use xlink:href="#DejaVuSans-32"/>
       <use x="63.623047" xlink:href="#DejaVuSans-38"/>
       <use x="127.246094" xlink:href="#DejaVuSans-2e"/>
       <use x="159.033203" xlink:href="#DejaVuSans-30"/>
       <use x="222.65625" xlink:href="#DejaVuSans-38"/>
       <use x="286.279297" xlink:href="#DejaVuSans-2e"/>
       <use x="318.066406" xlink:href="#DejaVuSans-32"/>
       <use x="381.689453" xlink:href="#DejaVuSans-30"/>
       <use x="445.3125" xlink:href="#DejaVuSans-32"/>
       <use x="508.935547" xlink:href="#DejaVuSans-31"/>
      </g>
     </g>
    </g>
    <g id="xtick_19">
     <g id="line2d_37">
      <path clip-path="url(#p17ed229084)" d="M 635.385043 493.286013 
L 635.385043 29.118125 
" style="fill:none;stroke:#cccccc;stroke-linecap:round;"/>
     </g>
     <g id="line2d_38">
      <g>
       <use style="fill:#262626;stroke:#262626;stroke-width:1.25;" x="635.385043" xlink:href="#m92a99f0c15" y="493.286013"/>
      </g>
     </g>
     <g id="text_19">
      <!-- 11.09.2021 -->
      <g style="fill:#262626;" transform="translate(589.232514 553.231121)rotate(-45)scale(0.11 -0.11)">
       <use xlink:href="#DejaVuSans-31"/>
       <use x="63.623047" xlink:href="#DejaVuSans-31"/>
       <use x="127.246094" xlink:href="#DejaVuSans-2e"/>
       <use x="159.033203" xlink:href="#DejaVuSans-30"/>
       <use x="222.65625" xlink:href="#DejaVuSans-39"/>
       <use x="286.279297" xlink:href="#DejaVuSans-2e"/>
       <use x="318.066406" xlink:href="#DejaVuSans-32"/>
       <use x="381.689453" xlink:href="#DejaVuSans-30"/>
       <use x="445.3125" xlink:href="#DejaVuSans-32"/>
       <use x="508.935547" xlink:href="#DejaVuSans-31"/>
      </g>
     </g>
    </g>
    <g id="xtick_20">
     <g id="line2d_39">
      <path clip-path="url(#p17ed229084)" d="M 665.451378 493.286013 
L 665.451378 29.118125 
" style="fill:none;stroke:#cccccc;stroke-linecap:round;"/>
     </g>
     <g id="line2d_40">
      <g>
       <use style="fill:#262626;stroke:#262626;stroke-width:1.25;" x="665.451378" xlink:href="#m92a99f0c15" y="493.286013"/>
      </g>
     </g>
     <g id="text_20">
      <!-- 25.09.2021 -->
      <g style="fill:#262626;" transform="translate(619.29885 553.231121)rotate(-45)scale(0.11 -0.11)">
       <use xlink:href="#DejaVuSans-32"/>
       <use x="63.623047" xlink:href="#DejaVuSans-35"/>
       <use x="127.246094" xlink:href="#DejaVuSans-2e"/>
       <use x="159.033203" xlink:href="#DejaVuSans-30"/>
       <use x="222.65625" xlink:href="#DejaVuSans-39"/>
       <use x="286.279297" xlink:href="#DejaVuSans-2e"/>
       <use x="318.066406" xlink:href="#DejaVuSans-32"/>
       <use x="381.689453" xlink:href="#DejaVuSans-30"/>
       <use x="445.3125" xlink:href="#DejaVuSans-32"/>
       <use x="508.935547" xlink:href="#DejaVuSans-31"/>
      </g>
     </g>
    </g>
    <g id="xtick_21">
     <g id="line2d_41">
      <path clip-path="url(#p17ed229084)" d="M 695.517714 493.286013 
L 695.517714 29.118125 
" style="fill:none;stroke:#cccccc;stroke-linecap:round;"/>
     </g>
     <g id="line2d_42">
      <g>
       <use style="fill:#262626;stroke:#262626;stroke-width:1.25;" x="695.517714" xlink:href="#m92a99f0c15" y="493.286013"/>
      </g>
     </g>
     <g id="text_21">
      <!-- 09.10.2021 -->
      <g style="fill:#262626;" transform="translate(649.365186 553.231121)rotate(-45)scale(0.11 -0.11)">
       <use xlink:href="#DejaVuSans-30"/>
       <use x="63.623047" xlink:href="#DejaVuSans-39"/>
       <use x="127.246094" xlink:href="#DejaVuSans-2e"/>
       <use x="159.033203" xlink:href="#DejaVuSans-31"/>
       <use x="222.65625" xlink:href="#DejaVuSans-30"/>
       <use x="286.279297" xlink:href="#DejaVuSans-2e"/>
       <use x="318.066406" xlink:href="#DejaVuSans-32"/>
       <use x="381.689453" xlink:href="#DejaVuSans-30"/>
       <use x="445.3125" xlink:href="#DejaVuSans-32"/>
       <use x="508.935547" xlink:href="#DejaVuSans-31"/>
      </g>
     </g>
    </g>
    <g id="xtick_22">
     <g id="line2d_43">
      <path clip-path="url(#p17ed229084)" d="M 725.58405 493.286013 
L 725.58405 29.118125 
" style="fill:none;stroke:#cccccc;stroke-linecap:round;"/>
     </g>
     <g id="line2d_44">
      <g>
       <use style="fill:#262626;stroke:#262626;stroke-width:1.25;" x="725.58405" xlink:href="#m92a99f0c15" y="493.286013"/>
      </g>
     </g>
     <g id="text_22">
      <!-- 23.10.2021 -->
      <g style="fill:#262626;" transform="translate(679.431522 553.231121)rotate(-45)scale(0.11 -0.11)">
       <use xlink:href="#DejaVuSans-32"/>
       <use x="63.623047" xlink:href="#DejaVuSans-33"/>
       <use x="127.246094" xlink:href="#DejaVuSans-2e"/>
       <use x="159.033203" xlink:href="#DejaVuSans-31"/>
       <use x="222.65625" xlink:href="#DejaVuSans-30"/>
       <use x="286.279297" xlink:href="#DejaVuSans-2e"/>
       <use x="318.066406" xlink:href="#DejaVuSans-32"/>
       <use x="381.689453" xlink:href="#DejaVuSans-30"/>
       <use x="445.3125" xlink:href="#DejaVuSans-32"/>
       <use x="508.935547" xlink:href="#DejaVuSans-31"/>
      </g>
     </g>
    </g>
    <g id="xtick_23">
     <g id="line2d_45">
      <defs>
       <path d="M 0 0 
L 0 4 
" id="m4f3579345d" style="stroke:#262626;"/>
      </defs>
      <g>
       <use style="fill:#262626;stroke:#262626;" x="64.124659" xlink:href="#m4f3579345d" y="493.286013"/>
      </g>
     </g>
    </g>
    <g id="xtick_24">
     <g id="line2d_46">
      <g>
       <use style="fill:#262626;stroke:#262626;" x="79.157827" xlink:href="#m4f3579345d" y="493.286013"/>
      </g>
     </g>
    </g>
    <g id="xtick_25">
     <g id="line2d_47">
      <g>
       <use style="fill:#262626;stroke:#262626;" x="109.224163" xlink:href="#m4f3579345d" y="493.286013"/>
      </g>
     </g>
    </g>
    <g id="xtick_26">
     <g id="line2d_48">
      <g>
       <use style="fill:#262626;stroke:#262626;" x="139.290499" xlink:href="#m4f3579345d" y="493.286013"/>
      </g>
     </g>
    </g>
    <g id="xtick_27">
     <g id="line2d_49">
      <g>
       <use style="fill:#262626;stroke:#262626;" x="169.356835" xlink:href="#m4f3579345d" y="493.286013"/>
      </g>
     </g>
    </g>
    <g id="xtick_28">
     <g id="line2d_50">
      <g>
       <use style="fill:#262626;stroke:#262626;" x="199.423171" xlink:href="#m4f3579345d" y="493.286013"/>
      </g>
     </g>
    </g>
    <g id="xtick_29">
     <g id="line2d_51">
      <g>
       <use style="fill:#262626;stroke:#262626;" x="229.489507" xlink:href="#m4f3579345d" y="493.286013"/>
      </g>
     </g>
    </g>
    <g id="xtick_30">
     <g id="line2d_52">
      <g>
       <use style="fill:#262626;stroke:#262626;" x="259.555843" xlink:href="#m4f3579345d" y="493.286013"/>
      </g>
     </g>
    </g>
    <g id="xtick_31">
     <g id="line2d_53">
      <g>
       <use style="fill:#262626;stroke:#262626;" x="289.622179" xlink:href="#m4f3579345d" y="493.286013"/>
      </g>
     </g>
    </g>
    <g id="xtick_32">
     <g id="line2d_54">
      <g>
       <use style="fill:#262626;stroke:#262626;" x="319.688515" xlink:href="#m4f3579345d" y="493.286013"/>
      </g>
     </g>
    </g>
    <g id="xtick_33">
     <g id="line2d_55">
      <g>
       <use style="fill:#262626;stroke:#262626;" x="349.754851" xlink:href="#m4f3579345d" y="493.286013"/>
      </g>
     </g>
    </g>
    <g id="xtick_34">
     <g id="line2d_56">
      <g>
       <use style="fill:#262626;stroke:#262626;" x="379.821187" xlink:href="#m4f3579345d" y="493.286013"/>
      </g>
     </g>
    </g>
    <g id="xtick_35">
     <g id="line2d_57">
      <g>
       <use style="fill:#262626;stroke:#262626;" x="409.887523" xlink:href="#m4f3579345d" y="493.286013"/>
      </g>
     </g>
    </g>
    <g id="xtick_36">
     <g id="line2d_58">
      <g>
       <use style="fill:#262626;stroke:#262626;" x="439.953859" xlink:href="#m4f3579345d" y="493.286013"/>
      </g>
     </g>
    </g>
    <g id="xtick_37">
     <g id="line2d_59">
      <g>
       <use style="fill:#262626;stroke:#262626;" x="470.020195" xlink:href="#m4f3579345d" y="493.286013"/>
      </g>
     </g>
    </g>
    <g id="xtick_38">
     <g id="line2d_60">
      <g>
       <use style="fill:#262626;stroke:#262626;" x="500.086531" xlink:href="#m4f3579345d" y="493.286013"/>
      </g>
     </g>
    </g>
    <g id="xtick_39">
     <g id="line2d_61">
      <g>
       <use style="fill:#262626;stroke:#262626;" x="530.152867" xlink:href="#m4f3579345d" y="493.286013"/>
      </g>
     </g>
    </g>
    <g id="xtick_40">
     <g id="line2d_62">
      <g>
       <use style="fill:#262626;stroke:#262626;" x="560.219203" xlink:href="#m4f3579345d" y="493.286013"/>
      </g>
     </g>
    </g>
    <g id="xtick_41">
     <g id="line2d_63">
      <g>
       <use style="fill:#262626;stroke:#262626;" x="590.285539" xlink:href="#m4f3579345d" y="493.286013"/>
      </g>
     </g>
    </g>
    <g id="xtick_42">
     <g id="line2d_64">
      <g>
       <use style="fill:#262626;stroke:#262626;" x="620.351875" xlink:href="#m4f3579345d" y="493.286013"/>
      </g>
     </g>
    </g>
    <g id="xtick_43">
     <g id="line2d_65">
      <g>
       <use style="fill:#262626;stroke:#262626;" x="650.418211" xlink:href="#m4f3579345d" y="493.286013"/>
      </g>
     </g>
    </g>
    <g id="xtick_44">
     <g id="line2d_66">
      <g>
       <use style="fill:#262626;stroke:#262626;" x="680.484546" xlink:href="#m4f3579345d" y="493.286013"/>
      </g>
     </g>
    </g>
    <g id="xtick_45">
     <g id="line2d_67">
      <g>
       <use style="fill:#262626;stroke:#262626;" x="710.550882" xlink:href="#m4f3579345d" y="493.286013"/>
      </g>
     </g>
    </g>
    <g id="xtick_46">
     <g id="line2d_68">
      <g>
       <use style="fill:#262626;stroke:#262626;" x="740.617218" xlink:href="#m4f3579345d" y="493.286013"/>
      </g>
     </g>
    </g>
    <g id="xtick_47">
     <g id="line2d_69">
      <g>
       <use style="fill:#262626;stroke:#262626;" x="755.650386" xlink:href="#m4f3579345d" y="493.286013"/>
      </g>
     </g>
    </g>
    <g id="xtick_48">
     <g id="line2d_70">
      <g>
       <use style="fill:#262626;stroke:#262626;" x="770.683554" xlink:href="#m4f3579345d" y="493.286013"/>
      </g>
     </g>
    </g>
    <g id="xtick_49">
     <g id="line2d_71">
      <g>
       <use style="fill:#262626;stroke:#262626;" x="785.716722" xlink:href="#m4f3579345d" y="493.286013"/>
      </g>
     </g>
    </g>
    <g id="text_23">
     <!-- Week -->
     <g style="fill:#262626;" transform="translate(404.187375 567.966863)scale(0.12 -0.12)">
      <defs>
       <path d="M 213 4666 
L 850 4666 
L 1831 722 
L 2809 4666 
L 3519 4666 
L 4500 722 
L 5478 4666 
L 6119 4666 
L 4947 0 
L 4153 0 
L 3169 4050 
L 2175 0 
L 1381 0 
L 213 4666 
z
" id="DejaVuSans-57" transform="scale(0.015625)"/>
       <path d="M 3597 1894 
L 3597 1613 
L 953 1613 
Q 991 1019 1311 708 
Q 1631 397 2203 397 
Q 2534 397 2845 478 
Q 3156 559 3463 722 
L 3463 178 
Q 3153 47 2828 -22 
Q 2503 -91 2169 -91 
Q 1331 -91 842 396 
Q 353 884 353 1716 
Q 353 2575 817 3079 
Q 1281 3584 2069 3584 
Q 2775 3584 3186 3129 
Q 3597 2675 3597 1894 
z
M 3022 2063 
Q 3016 2534 2758 2815 
Q 2500 3097 2075 3097 
Q 1594 3097 1305 2825 
Q 1016 2553 972 2059 
L 3022 2063 
z
" id="DejaVuSans-65" transform="scale(0.015625)"/>
       <path d="M 581 4863 
L 1159 4863 
L 1159 1991 
L 2875 3500 
L 3609 3500 
L 1753 1863 
L 3688 0 
L 2938 0 
L 1159 1709 
L 1159 0 
L 581 0 
L 581 4863 
z
" id="DejaVuSans-6b" transform="scale(0.015625)"/>
      </defs>
      <use xlink:href="#DejaVuSans-57"/>
      <use x="93.001953" xlink:href="#DejaVuSans-65"/>
      <use x="154.525391" xlink:href="#DejaVuSans-65"/>
      <use x="216.048828" xlink:href="#DejaVuSans-6b"/>
     </g>
    </g>
   </g>
   <g id="matplotlib.axis_2">
    <g id="ytick_1">
     <g id="line2d_72">
      <path clip-path="url(#p17ed229084)" d="M 52.098125 472.752295 
L 789.152875 472.752295 
" style="fill:none;stroke:#cccccc;stroke-linecap:round;"/>
     </g>
     <g id="line2d_73">
      <defs>
       <path d="M 0 0 
L -6 0 
" id="me51dafcea2" style="stroke:#262626;stroke-width:1.25;"/>
      </defs>
      <g>
       <use style="fill:#262626;stroke:#262626;stroke-width:1.25;" x="52.098125" xlink:href="#me51dafcea2" y="472.752295"/>
      </g>
     </g>
     <g id="text_24">
      <!-- 0.0M -->
      <g style="fill:#262626;" transform="translate(15.61375 476.931436)scale(0.11 -0.11)">
       <defs>
        <path d="M 628 4666 
L 1569 4666 
L 2759 1491 
L 3956 4666 
L 4897 4666 
L 4897 0 
L 4281 0 
L 4281 4097 
L 3078 897 
L 2444 897 
L 1241 4097 
L 1241 0 
L 628 0 
L 628 4666 
z
" id="DejaVuSans-4d" transform="scale(0.015625)"/>
       </defs>
       <use xlink:href="#DejaVuSans-30"/>
       <use x="63.623047" xlink:href="#DejaVuSans-2e"/>
       <use x="95.410156" xlink:href="#DejaVuSans-30"/>
       <use x="159.033203" xlink:href="#DejaVuSans-4d"/>
      </g>
     </g>
    </g>
    <g id="ytick_2">
     <g id="line2d_74">
      <path clip-path="url(#p17ed229084)" d="M 52.098125 400.227536 
L 789.152875 400.227536 
" style="fill:none;stroke:#cccccc;stroke-linecap:round;"/>
     </g>
     <g id="line2d_75">
      <g>
       <use style="fill:#262626;stroke:#262626;stroke-width:1.25;" x="52.098125" xlink:href="#me51dafcea2" y="400.227536"/>
      </g>
     </g>
     <g id="text_25">
      <!-- 0.5M -->
      <g style="fill:#262626;" transform="translate(15.61375 404.406676)scale(0.11 -0.11)">
       <use xlink:href="#DejaVuSans-30"/>
       <use x="63.623047" xlink:href="#DejaVuSans-2e"/>
       <use x="95.410156" xlink:href="#DejaVuSans-35"/>
       <use x="159.033203" xlink:href="#DejaVuSans-4d"/>
      </g>
     </g>
    </g>
    <g id="ytick_3">
     <g id="line2d_76">
      <path clip-path="url(#p17ed229084)" d="M 52.098125 327.702777 
L 789.152875 327.702777 
" style="fill:none;stroke:#cccccc;stroke-linecap:round;"/>
     </g>
     <g id="line2d_77">
      <g>
       <use style="fill:#262626;stroke:#262626;stroke-width:1.25;" x="52.098125" xlink:href="#me51dafcea2" y="327.702777"/>
      </g>
     </g>
     <g id="text_26">
      <!-- 1.0M -->
      <g style="fill:#262626;" transform="translate(15.61375 331.881917)scale(0.11 -0.11)">
       <use xlink:href="#DejaVuSans-31"/>
       <use x="63.623047" xlink:href="#DejaVuSans-2e"/>
       <use x="95.410156" xlink:href="#DejaVuSans-30"/>
       <use x="159.033203" xlink:href="#DejaVuSans-4d"/>
      </g>
     </g>
    </g>
    <g id="ytick_4">
     <g id="line2d_78">
      <path clip-path="url(#p17ed229084)" d="M 52.098125 255.178017 
L 789.152875 255.178017 
" style="fill:none;stroke:#cccccc;stroke-linecap:round;"/>
     </g>
     <g id="line2d_79">
      <g>
       <use style="fill:#262626;stroke:#262626;stroke-width:1.25;" x="52.098125" xlink:href="#me51dafcea2" y="255.178017"/>
      </g>
     </g>
     <g id="text_27">
      <!-- 1.5M -->
      <g style="fill:#262626;" transform="translate(15.61375 259.357158)scale(0.11 -0.11)">
       <use xlink:href="#DejaVuSans-31"/>
       <use x="63.623047" xlink:href="#DejaVuSans-2e"/>
       <use x="95.410156" xlink:href="#DejaVuSans-35"/>
       <use x="159.033203" xlink:href="#DejaVuSans-4d"/>
      </g>
     </g>
    </g>
    <g id="ytick_5">
     <g id="line2d_80">
      <path clip-path="url(#p17ed229084)" d="M 52.098125 182.653258 
L 789.152875 182.653258 
" style="fill:none;stroke:#cccccc;stroke-linecap:round;"/>
     </g>
     <g id="line2d_81">
      <g>
       <use style="fill:#262626;stroke:#262626;stroke-width:1.25;" x="52.098125" xlink:href="#me51dafcea2" y="182.653258"/>
      </g>
     </g>
     <g id="text_28">
      <!-- 2.0M -->
      <g style="fill:#262626;" transform="translate(15.61375 186.832399)scale(0.11 -0.11)">
       <use xlink:href="#DejaVuSans-32"/>
       <use x="63.623047" xlink:href="#DejaVuSans-2e"/>
       <use x="95.410156" xlink:href="#DejaVuSans-30"/>
       <use x="159.033203" xlink:href="#DejaVuSans-4d"/>
      </g>
     </g>
    </g>
    <g id="ytick_6">
     <g id="line2d_82">
      <path clip-path="url(#p17ed229084)" d="M 52.098125 110.128499 
L 789.152875 110.128499 
" style="fill:none;stroke:#cccccc;stroke-linecap:round;"/>
     </g>
     <g id="line2d_83">
      <g>
       <use style="fill:#262626;stroke:#262626;stroke-width:1.25;" x="52.098125" xlink:href="#me51dafcea2" y="110.128499"/>
      </g>
     </g>
     <g id="text_29">
      <!-- 2.5M -->
      <g style="fill:#262626;" transform="translate(15.61375 114.307639)scale(0.11 -0.11)">
       <use xlink:href="#DejaVuSans-32"/>
       <use x="63.623047" xlink:href="#DejaVuSans-2e"/>
       <use x="95.410156" xlink:href="#DejaVuSans-35"/>
       <use x="159.033203" xlink:href="#DejaVuSans-4d"/>
      </g>
     </g>
    </g>
    <g id="ytick_7">
     <g id="line2d_84">
      <path clip-path="url(#p17ed229084)" d="M 52.098125 37.603739 
L 789.152875 37.603739 
" style="fill:none;stroke:#cccccc;stroke-linecap:round;"/>
     </g>
     <g id="line2d_85">
      <g>
       <use style="fill:#262626;stroke:#262626;stroke-width:1.25;" x="52.098125" xlink:href="#me51dafcea2" y="37.603739"/>
      </g>
     </g>
     <g id="text_30">
      <!-- 3.0M -->
      <g style="fill:#262626;" transform="translate(15.61375 41.78288)scale(0.11 -0.11)">
       <use xlink:href="#DejaVuSans-33"/>
       <use x="63.623047" xlink:href="#DejaVuSans-2e"/>
       <use x="95.410156" xlink:href="#DejaVuSans-30"/>
       <use x="159.033203" xlink:href="#DejaVuSans-4d"/>
      </g>
     </g>
    </g>
    <g id="text_31">
     <!-- Administered doses -->
     <g style="fill:#262626;" transform="translate(9.118125 320.323631)rotate(-90)scale(0.12 -0.12)">
      <defs>
       <path d="M 2188 4044 
L 1331 1722 
L 3047 1722 
L 2188 4044 
z
M 1831 4666 
L 2547 4666 
L 4325 0 
L 3669 0 
L 3244 1197 
L 1141 1197 
L 716 0 
L 50 0 
L 1831 4666 
z
" id="DejaVuSans-41" transform="scale(0.015625)"/>
       <path d="M 2906 2969 
L 2906 4863 
L 3481 4863 
L 3481 0 
L 2906 0 
L 2906 525 
Q 2725 213 2448 61 
Q 2172 -91 1784 -91 
Q 1150 -91 751 415 
Q 353 922 353 1747 
Q 353 2572 751 3078 
Q 1150 3584 1784 3584 
Q 2172 3584 2448 3432 
Q 2725 3281 2906 2969 
z
M 947 1747 
Q 947 1113 1208 752 
Q 1469 391 1925 391 
Q 2381 391 2643 752 
Q 2906 1113 2906 1747 
Q 2906 2381 2643 2742 
Q 2381 3103 1925 3103 
Q 1469 3103 1208 2742 
Q 947 2381 947 1747 
z
" id="DejaVuSans-64" transform="scale(0.015625)"/>
       <path d="M 3328 2828 
Q 3544 3216 3844 3400 
Q 4144 3584 4550 3584 
Q 5097 3584 5394 3201 
Q 5691 2819 5691 2113 
L 5691 0 
L 5113 0 
L 5113 2094 
Q 5113 2597 4934 2840 
Q 4756 3084 4391 3084 
Q 3944 3084 3684 2787 
Q 3425 2491 3425 1978 
L 3425 0 
L 2847 0 
L 2847 2094 
Q 2847 2600 2669 2842 
Q 2491 3084 2119 3084 
Q 1678 3084 1418 2786 
Q 1159 2488 1159 1978 
L 1159 0 
L 581 0 
L 581 3500 
L 1159 3500 
L 1159 2956 
Q 1356 3278 1631 3431 
Q 1906 3584 2284 3584 
Q 2666 3584 2933 3390 
Q 3200 3197 3328 2828 
z
" id="DejaVuSans-6d" transform="scale(0.015625)"/>
       <path d="M 603 3500 
L 1178 3500 
L 1178 0 
L 603 0 
L 603 3500 
z
M 603 4863 
L 1178 4863 
L 1178 4134 
L 603 4134 
L 603 4863 
z
" id="DejaVuSans-69" transform="scale(0.015625)"/>
       <path d="M 3513 2113 
L 3513 0 
L 2938 0 
L 2938 2094 
Q 2938 2591 2744 2837 
Q 2550 3084 2163 3084 
Q 1697 3084 1428 2787 
Q 1159 2491 1159 1978 
L 1159 0 
L 581 0 
L 581 3500 
L 1159 3500 
L 1159 2956 
Q 1366 3272 1645 3428 
Q 1925 3584 2291 3584 
Q 2894 3584 3203 3211 
Q 3513 2838 3513 2113 
z
" id="DejaVuSans-6e" transform="scale(0.015625)"/>
       <path d="M 2834 3397 
L 2834 2853 
Q 2591 2978 2328 3040 
Q 2066 3103 1784 3103 
Q 1356 3103 1142 2972 
Q 928 2841 928 2578 
Q 928 2378 1081 2264 
Q 1234 2150 1697 2047 
L 1894 2003 
Q 2506 1872 2764 1633 
Q 3022 1394 3022 966 
Q 3022 478 2636 193 
Q 2250 -91 1575 -91 
Q 1294 -91 989 -36 
Q 684 19 347 128 
L 347 722 
Q 666 556 975 473 
Q 1284 391 1588 391 
Q 1994 391 2212 530 
Q 2431 669 2431 922 
Q 2431 1156 2273 1281 
Q 2116 1406 1581 1522 
L 1381 1569 
Q 847 1681 609 1914 
Q 372 2147 372 2553 
Q 372 3047 722 3315 
Q 1072 3584 1716 3584 
Q 2034 3584 2315 3537 
Q 2597 3491 2834 3397 
z
" id="DejaVuSans-73" transform="scale(0.015625)"/>
       <path d="M 1172 4494 
L 1172 3500 
L 2356 3500 
L 2356 3053 
L 1172 3053 
L 1172 1153 
Q 1172 725 1289 603 
Q 1406 481 1766 481 
L 2356 481 
L 2356 0 
L 1766 0 
Q 1100 0 847 248 
Q 594 497 594 1153 
L 594 3053 
L 172 3053 
L 172 3500 
L 594 3500 
L 594 4494 
L 1172 4494 
z
" id="DejaVuSans-74" transform="scale(0.015625)"/>
       <path d="M 2631 2963 
Q 2534 3019 2420 3045 
Q 2306 3072 2169 3072 
Q 1681 3072 1420 2755 
Q 1159 2438 1159 1844 
L 1159 0 
L 581 0 
L 581 3500 
L 1159 3500 
L 1159 2956 
Q 1341 3275 1631 3429 
Q 1922 3584 2338 3584 
Q 2397 3584 2469 3576 
Q 2541 3569 2628 3553 
L 2631 2963 
z
" id="DejaVuSans-72" transform="scale(0.015625)"/>
       <path id="DejaVuSans-20" transform="scale(0.015625)"/>
       <path d="M 1959 3097 
Q 1497 3097 1228 2736 
Q 959 2375 959 1747 
Q 959 1119 1226 758 
Q 1494 397 1959 397 
Q 2419 397 2687 759 
Q 2956 1122 2956 1747 
Q 2956 2369 2687 2733 
Q 2419 3097 1959 3097 
z
M 1959 3584 
Q 2709 3584 3137 3096 
Q 3566 2609 3566 1747 
Q 3566 888 3137 398 
Q 2709 -91 1959 -91 
Q 1206 -91 779 398 
Q 353 888 353 1747 
Q 353 2609 779 3096 
Q 1206 3584 1959 3584 
z
" id="DejaVuSans-6f" transform="scale(0.015625)"/>
      </defs>
      <use xlink:href="#DejaVuSans-41"/>
      <use x="66.658203" xlink:href="#DejaVuSans-64"/>
      <use x="130.134766" xlink:href="#DejaVuSans-6d"/>
      <use x="227.546875" xlink:href="#DejaVuSans-69"/>
      <use x="255.330078" xlink:href="#DejaVuSans-6e"/>
      <use x="318.708984" xlink:href="#DejaVuSans-69"/>
      <use x="346.492188" xlink:href="#DejaVuSans-73"/>
      <use x="398.591797" xlink:href="#DejaVuSans-74"/>
      <use x="437.800781" xlink:href="#DejaVuSans-65"/>
      <use x="499.324219" xlink:href="#DejaVuSans-72"/>
      <use x="538.1875" xlink:href="#DejaVuSans-65"/>
      <use x="599.710938" xlink:href="#DejaVuSans-64"/>
      <use x="663.1875" xlink:href="#DejaVuSans-20"/>
      <use x="694.974609" xlink:href="#DejaVuSans-64"/>
      <use x="758.451172" xlink:href="#DejaVuSans-6f"/>
      <use x="819.632812" xlink:href="#DejaVuSans-73"/>
      <use x="871.732422" xlink:href="#DejaVuSans-65"/>
      <use x="933.255859" xlink:href="#DejaVuSans-73"/>
     </g>
    </g>
   </g>
   <g id="line2d_86">
    <path clip-path="url(#p17ed229084)" d="M 85.600614 472.187472 
L 89.895804 472.064905 
L 100.633782 471.962065 
L 107.076568 470.815159 
L 113.519354 470.698249 
L 117.814545 470.280941 
L 124.257331 470.093247 
L 126.404927 470.075696 
L 128.552522 469.903813 
L 132.847713 469.252685 
L 137.142904 468.966358 
L 143.58569 468.865258 
L 145.733286 468.528163 
L 147.880881 467.9777 
L 150.028476 467.293211 
L 152.176072 466.83355 
L 156.471263 466.787134 
L 158.618858 466.568254 
L 160.766454 466.092056 
L 165.061644 464.915995 
L 167.20924 464.504779 
L 171.504431 464.478961 
L 173.652026 464.210619 
L 177.947217 463.155384 
L 180.094812 462.435938 
L 182.242408 461.917966 
L 186.537599 461.817302 
L 188.685194 461.520241 
L 192.980385 460.28964 
L 195.12798 459.623283 
L 197.275576 457.628272 
L 199.423171 457.035309 
L 203.718362 453.74167 
L 205.865957 451.252185 
L 210.161148 445.40872 
L 212.308744 443.098517 
L 214.456339 442.326708 
L 216.603935 441.93725 
L 218.75153 440.328071 
L 220.899125 437.393284 
L 223.046721 436.755501 
L 225.194316 433.800117 
L 227.341912 431.490929 
L 229.489507 431.105967 
L 231.637103 430.886508 
L 233.784698 430.08859 
L 235.932293 428.925438 
L 238.079889 427.910962 
L 240.227484 425.691559 
L 242.37508 423.919924 
L 246.670271 423.598059 
L 248.817866 423.187859 
L 253.113057 421.883139 
L 255.260652 421.107124 
L 257.408248 420.139789 
L 259.555843 419.584829 
L 261.703439 419.242802 
L 263.851034 418.160008 
L 268.146225 414.542618 
L 272.441416 410.347931 
L 274.589011 409.777886 
L 276.736606 409.432233 
L 278.884202 408.125917 
L 287.474584 400.505306 
L 289.622179 399.926123 
L 291.769774 399.709709 
L 293.91737 398.769933 
L 296.064965 397.379489 
L 298.212561 395.375194 
L 300.360156 392.610115 
L 302.507752 390.451778 
L 304.655347 389.920027 
L 306.802942 389.687948 
L 308.950538 388.624735 
L 311.098133 387.10128 
L 317.54092 380.772189 
L 319.688515 380.324421 
L 321.83611 380.146445 
L 323.983706 379.124862 
L 326.131301 377.40646 
L 328.278897 374.626151 
L 330.426492 371.432741 
L 332.574088 368.760493 
L 334.721683 368.146934 
L 336.869278 367.846681 
L 339.016874 366.264191 
L 341.164469 363.834757 
L 343.312065 360.157026 
L 345.45966 356.252003 
L 347.607256 354.46978 
L 349.754851 353.63502 
L 351.902446 353.141126 
L 354.050042 351.852071 
L 356.197637 350.237235 
L 358.345233 345.525881 
L 360.492828 344.491678 
L 362.640424 338.962826 
L 364.788019 337.505368 
L 366.935614 336.686564 
L 369.08321 332.991427 
L 373.378401 322.515371 
L 375.525996 317.038301 
L 377.673591 312.21729 
L 379.821187 311.261269 
L 381.968782 310.769551 
L 384.116378 308.124428 
L 386.263973 304.342842 
L 388.411569 299.940734 
L 390.559164 294.97946 
L 392.706759 291.343649 
L 394.854355 290.422875 
L 397.00195 289.890833 
L 399.149546 289.140637 
L 401.297141 286.694812 
L 403.444737 283.669369 
L 407.739927 278.222034 
L 409.887523 277.195954 
L 412.035118 276.464179 
L 414.182714 274.625822 
L 416.330309 272.007968 
L 422.773095 262.307201 
L 424.920691 261.438209 
L 427.068286 260.363393 
L 429.215882 258.256838 
L 431.363477 255.100561 
L 435.658668 248.171545 
L 437.806263 245.199626 
L 439.953859 244.47902 
L 442.101454 244.005723 
L 444.24905 242.605415 
L 446.396645 240.36324 
L 450.691836 235.167566 
L 452.839431 232.958462 
L 457.134622 231.944711 
L 459.282218 230.7115 
L 461.429813 228.86618 
L 465.725004 224.788693 
L 467.872599 223.007485 
L 472.16779 222.162426 
L 474.315386 220.993472 
L 482.905767 213.794519 
L 485.053363 213.272631 
L 487.200958 212.959759 
L 489.348554 211.826342 
L 491.496149 210.129118 
L 495.79134 206.48765 
L 497.938935 204.813198 
L 500.086531 204.339612 
L 502.234126 204.036023 
L 504.381722 202.816156 
L 510.824508 197.655149 
L 512.972103 196.107036 
L 517.267294 195.424433 
L 519.41489 194.297543 
L 521.562485 192.849804 
L 528.005271 188.084347 
L 530.152867 187.570872 
L 532.300462 187.281063 
L 534.448058 186.043355 
L 543.038439 179.035288 
L 545.186035 178.572145 
L 547.33363 178.258113 
L 549.481226 177.052751 
L 558.071607 169.885854 
L 560.219203 169.410382 
L 562.366798 169.072272 
L 564.514394 167.769147 
L 570.95718 162.540837 
L 573.104775 161.021443 
L 575.252371 160.51319 
L 577.399966 160.196111 
L 579.547561 158.871084 
L 588.137943 151.778888 
L 590.285539 151.241624 
L 592.433134 150.895101 
L 594.580729 149.462157 
L 601.023516 143.524845 
L 603.171111 141.713757 
L 605.318707 141.143712 
L 607.466302 140.775286 
L 609.613897 139.266336 
L 611.761493 137.310053 
L 618.204279 132.02735 
L 620.351875 131.538533 
L 624.647065 130.987055 
L 626.794661 129.338277 
L 631.089852 125.804 
L 633.237447 124.204539 
L 635.385043 123.758802 
L 637.532638 123.475085 
L 639.680233 122.308307 
L 646.12302 117.60116 
L 648.270615 116.085973 
L 650.418211 115.644877 
L 652.565806 115.398728 
L 654.713401 114.304184 
L 656.860997 112.844406 
L 659.008592 112.574904 
L 661.156188 110.915392 
L 663.303783 109.463882 
L 665.451378 109.10619 
L 667.598974 108.886875 
L 669.746569 108.131312 
L 671.894165 106.975412 
L 676.189356 104.377285 
L 678.336951 103.352946 
L 680.484546 103.021798 
L 682.632142 102.835554 
L 684.779737 102.054462 
L 693.370119 97.776082 
L 695.517714 97.437391 
L 697.66531 97.260576 
L 699.812905 96.511395 
L 701.960501 95.39901 
L 704.108096 94.594275 
L 708.403287 92.173834 
L 710.550882 91.749564 
L 712.698478 91.489926 
L 714.846073 90.590474 
L 716.993669 89.272119 
L 719.141264 87.316416 
L 721.28886 83.220072 
L 723.436455 79.733517 
L 725.58405 78.038614 
L 727.731646 77.000784 
L 729.879241 74.801833 
L 732.026837 70.159379 
L 734.174432 66.47367 
L 738.469623 59.725387 
L 740.617218 58.603429 
L 742.764814 57.882387 
L 744.912409 55.775398 
L 749.2076 50.216665 
L 749.2076 50.216665 
" style="fill:none;stroke:#0000ff;stroke-linecap:round;stroke-width:1.5;"/>
   </g>
   <g id="line2d_87"/>
   <g id="patch_3">
    <path d="M 52.098125 493.286013 
L 52.098125 29.118125 
" style="fill:none;stroke:#262626;stroke-linecap:square;stroke-linejoin:miter;stroke-width:1.25;"/>
   </g>
   <g id="patch_4">
    <path d="M 789.152875 493.286013 
L 789.152875 29.118125 
" style="fill:none;stroke:#262626;stroke-linecap:square;stroke-linejoin:miter;stroke-width:1.25;"/>
   </g>
   <g id="patch_5">
    <path d="M 52.098125 493.286013 
L 789.152875 493.286013 
" style="fill:none;stroke:#262626;stroke-linecap:square;stroke-linejoin:miter;stroke-width:1.25;"/>
   </g>
   <g id="patch_6">
    <path d="M 52.098125 29.118125 
L 789.152875 29.118125 
" style="fill:none;stroke:#262626;stroke-linecap:square;stroke-linejoin:miter;stroke-width:1.25;"/>
   </g>
   <g id="text_32">
    <!-- Last update: 04.11.2021 -->
    <g style="fill:#262626;" transform="translate(359.126672 22.155607)scale(0.09996 -0.09996)">
     <defs>
      <path d="M 628 4666 
L 1259 4666 
L 1259 531 
L 3531 531 
L 3531 0 
L 628 0 
L 628 4666 
z
" id="DejaVuSans-4c" transform="scale(0.015625)"/>
      <path d="M 2194 1759 
Q 1497 1759 1228 1600 
Q 959 1441 959 1056 
Q 959 750 1161 570 
Q 1363 391 1709 391 
Q 2188 391 2477 730 
Q 2766 1069 2766 1631 
L 2766 1759 
L 2194 1759 
z
M 3341 1997 
L 3341 0 
L 2766 0 
L 2766 531 
Q 2569 213 2275 61 
Q 1981 -91 1556 -91 
Q 1019 -91 701 211 
Q 384 513 384 1019 
Q 384 1609 779 1909 
Q 1175 2209 1959 2209 
L 2766 2209 
L 2766 2266 
Q 2766 2663 2505 2880 
Q 2244 3097 1772 3097 
Q 1472 3097 1187 3025 
Q 903 2953 641 2809 
L 641 3341 
Q 956 3463 1253 3523 
Q 1550 3584 1831 3584 
Q 2591 3584 2966 3190 
Q 3341 2797 3341 1997 
z
" id="DejaVuSans-61" transform="scale(0.015625)"/>
      <path d="M 544 1381 
L 544 3500 
L 1119 3500 
L 1119 1403 
Q 1119 906 1312 657 
Q 1506 409 1894 409 
Q 2359 409 2629 706 
Q 2900 1003 2900 1516 
L 2900 3500 
L 3475 3500 
L 3475 0 
L 2900 0 
L 2900 538 
Q 2691 219 2414 64 
Q 2138 -91 1772 -91 
Q 1169 -91 856 284 
Q 544 659 544 1381 
z
M 1991 3584 
L 1991 3584 
z
" id="DejaVuSans-75" transform="scale(0.015625)"/>
      <path d="M 1159 525 
L 1159 -1331 
L 581 -1331 
L 581 3500 
L 1159 3500 
L 1159 2969 
Q 1341 3281 1617 3432 
Q 1894 3584 2278 3584 
Q 2916 3584 3314 3078 
Q 3713 2572 3713 1747 
Q 3713 922 3314 415 
Q 2916 -91 2278 -91 
Q 1894 -91 1617 61 
Q 1341 213 1159 525 
z
M 3116 1747 
Q 3116 2381 2855 2742 
Q 2594 3103 2138 3103 
Q 1681 3103 1420 2742 
Q 1159 2381 1159 1747 
Q 1159 1113 1420 752 
Q 1681 391 2138 391 
Q 2594 391 2855 752 
Q 3116 1113 3116 1747 
z
" id="DejaVuSans-70" transform="scale(0.015625)"/>
      <path d="M 750 794 
L 1409 794 
L 1409 0 
L 750 0 
L 750 794 
z
M 750 3309 
L 1409 3309 
L 1409 2516 
L 750 2516 
L 750 3309 
z
" id="DejaVuSans-3a" transform="scale(0.015625)"/>
     </defs>
     <use xlink:href="#DejaVuSans-4c"/>
     <use x="55.712891" xlink:href="#DejaVuSans-61"/>
     <use x="116.992188" xlink:href="#DejaVuSans-73"/>
     <use x="169.091797" xlink:href="#DejaVuSans-74"/>
     <use x="208.300781" xlink:href="#DejaVuSans-20"/>
     <use x="240.087891" xlink:href="#DejaVuSans-75"/>
     <use x="303.466797" xlink:href="#DejaVuSans-70"/>
     <use x="366.943359" xlink:href="#DejaVuSans-64"/>
     <use x="430.419922" xlink:href="#DejaVuSans-61"/>
     <use x="491.699219" xlink:href="#DejaVuSans-74"/>
     <use x="530.908203" xlink:href="#DejaVuSans-65"/>
     <use x="592.431641" xlink:href="#DejaVuSans-3a"/>
     <use x="626.123047" xlink:href="#DejaVuSans-20"/>
     <use x="657.910156" xlink:href="#DejaVuSans-30"/>
     <use x="721.533203" xlink:href="#DejaVuSans-34"/>
     <use x="785.15625" xlink:href="#DejaVuSans-2e"/>
     <use x="816.943359" xlink:href="#DejaVuSans-31"/>
     <use x="880.566406" xlink:href="#DejaVuSans-31"/>
     <use x="944.189453" xlink:href="#DejaVuSans-2e"/>
     <use x="975.976562" xlink:href="#DejaVuSans-32"/>
     <use x="1039.599609" xlink:href="#DejaVuSans-30"/>
     <use x="1103.222656" xlink:href="#DejaVuSans-32"/>
     <use x="1166.845703" xlink:href="#DejaVuSans-31"/>
    </g>
   </g>
   <g id="text_33">
    <!-- Last update: 04.11.2021 -->
    <g style="fill:#262626;" transform="translate(359.126672 22.155607)scale(0.09996 -0.09996)">
     <use xlink:href="#DejaVuSans-4c"/>
     <use x="55.712891" xlink:href="#DejaVuSans-61"/>
     <use x="116.992188" xlink:href="#DejaVuSans-73"/>
     <use x="169.091797" xlink:href="#DejaVuSans-74"/>
     <use x="208.300781" xlink:href="#DejaVuSans-20"/>
     <use x="240.087891" xlink:href="#DejaVuSans-75"/>
     <use x="303.466797" xlink:href="#DejaVuSans-70"/>
     <use x="366.943359" xlink:href="#DejaVuSans-64"/>
     <use x="430.419922" xlink:href="#DejaVuSans-61"/>
     <use x="491.699219" xlink:href="#DejaVuSans-74"/>
     <use x="530.908203" xlink:href="#DejaVuSans-65"/>
     <use x="592.431641" xlink:href="#DejaVuSans-3a"/>
     <use x="626.123047" xlink:href="#DejaVuSans-20"/>
     <use x="657.910156" xlink:href="#DejaVuSans-30"/>
     <use x="721.533203" xlink:href="#DejaVuSans-34"/>
     <use x="785.15625" xlink:href="#DejaVuSans-2e"/>
     <use x="816.943359" xlink:href="#DejaVuSans-31"/>
     <use x="880.566406" xlink:href="#DejaVuSans-31"/>
     <use x="944.189453" xlink:href="#DejaVuSans-2e"/>
     <use x="975.976562" xlink:href="#DejaVuSans-32"/>
     <use x="1039.599609" xlink:href="#DejaVuSans-30"/>
     <use x="1103.222656" xlink:href="#DejaVuSans-32"/>
     <use x="1166.845703" xlink:href="#DejaVuSans-31"/>
    </g>
   </g>
   <g id="text_34">
    <!-- Vaccination timeline by week -->
    <g style="fill:#262626;" transform="translate(321.607687 9.118125)scale(0.12 -0.12)">
     <defs>
      <path d="M 31 4666 
L 1241 4666 
L 2478 1222 
L 3713 4666 
L 4922 4666 
L 3194 0 
L 1759 0 
L 31 4666 
z
" id="DejaVuSans-Bold-56" transform="scale(0.015625)"/>
      <path d="M 2106 1575 
Q 1756 1575 1579 1456 
Q 1403 1338 1403 1106 
Q 1403 894 1545 773 
Q 1688 653 1941 653 
Q 2256 653 2472 879 
Q 2688 1106 2688 1447 
L 2688 1575 
L 2106 1575 
z
M 3816 1997 
L 3816 0 
L 2688 0 
L 2688 519 
Q 2463 200 2181 54 
Q 1900 -91 1497 -91 
Q 953 -91 614 226 
Q 275 544 275 1050 
Q 275 1666 698 1953 
Q 1122 2241 2028 2241 
L 2688 2241 
L 2688 2328 
Q 2688 2594 2478 2717 
Q 2269 2841 1825 2841 
Q 1466 2841 1156 2769 
Q 847 2697 581 2553 
L 581 3406 
Q 941 3494 1303 3539 
Q 1666 3584 2028 3584 
Q 2975 3584 3395 3211 
Q 3816 2838 3816 1997 
z
" id="DejaVuSans-Bold-61" transform="scale(0.015625)"/>
      <path d="M 3366 3391 
L 3366 2478 
Q 3138 2634 2908 2709 
Q 2678 2784 2431 2784 
Q 1963 2784 1702 2511 
Q 1441 2238 1441 1747 
Q 1441 1256 1702 982 
Q 1963 709 2431 709 
Q 2694 709 2930 787 
Q 3166 866 3366 1019 
L 3366 103 
Q 3103 6 2833 -42 
Q 2563 -91 2291 -91 
Q 1344 -91 809 395 
Q 275 881 275 1747 
Q 275 2613 809 3098 
Q 1344 3584 2291 3584 
Q 2566 3584 2833 3536 
Q 3100 3488 3366 3391 
z
" id="DejaVuSans-Bold-63" transform="scale(0.015625)"/>
      <path d="M 538 3500 
L 1656 3500 
L 1656 0 
L 538 0 
L 538 3500 
z
M 538 4863 
L 1656 4863 
L 1656 3950 
L 538 3950 
L 538 4863 
z
" id="DejaVuSans-Bold-69" transform="scale(0.015625)"/>
      <path d="M 4056 2131 
L 4056 0 
L 2931 0 
L 2931 347 
L 2931 1631 
Q 2931 2084 2911 2256 
Q 2891 2428 2841 2509 
Q 2775 2619 2662 2680 
Q 2550 2741 2406 2741 
Q 2056 2741 1856 2470 
Q 1656 2200 1656 1722 
L 1656 0 
L 538 0 
L 538 3500 
L 1656 3500 
L 1656 2988 
Q 1909 3294 2193 3439 
Q 2478 3584 2822 3584 
Q 3428 3584 3742 3212 
Q 4056 2841 4056 2131 
z
" id="DejaVuSans-Bold-6e" transform="scale(0.015625)"/>
      <path d="M 1759 4494 
L 1759 3500 
L 2913 3500 
L 2913 2700 
L 1759 2700 
L 1759 1216 
Q 1759 972 1856 886 
Q 1953 800 2241 800 
L 2816 800 
L 2816 0 
L 1856 0 
Q 1194 0 917 276 
Q 641 553 641 1216 
L 641 2700 
L 84 2700 
L 84 3500 
L 641 3500 
L 641 4494 
L 1759 4494 
z
" id="DejaVuSans-Bold-74" transform="scale(0.015625)"/>
      <path d="M 2203 2784 
Q 1831 2784 1636 2517 
Q 1441 2250 1441 1747 
Q 1441 1244 1636 976 
Q 1831 709 2203 709 
Q 2569 709 2762 976 
Q 2956 1244 2956 1747 
Q 2956 2250 2762 2517 
Q 2569 2784 2203 2784 
z
M 2203 3584 
Q 3106 3584 3614 3096 
Q 4122 2609 4122 1747 
Q 4122 884 3614 396 
Q 3106 -91 2203 -91 
Q 1297 -91 786 396 
Q 275 884 275 1747 
Q 275 2609 786 3096 
Q 1297 3584 2203 3584 
z
" id="DejaVuSans-Bold-6f" transform="scale(0.015625)"/>
      <path id="DejaVuSans-Bold-20" transform="scale(0.015625)"/>
      <path d="M 3781 2919 
Q 3994 3244 4286 3414 
Q 4578 3584 4928 3584 
Q 5531 3584 5847 3212 
Q 6163 2841 6163 2131 
L 6163 0 
L 5038 0 
L 5038 1825 
Q 5041 1866 5042 1909 
Q 5044 1953 5044 2034 
Q 5044 2406 4934 2573 
Q 4825 2741 4581 2741 
Q 4263 2741 4089 2478 
Q 3916 2216 3909 1719 
L 3909 0 
L 2784 0 
L 2784 1825 
Q 2784 2406 2684 2573 
Q 2584 2741 2328 2741 
Q 2006 2741 1831 2477 
Q 1656 2213 1656 1722 
L 1656 0 
L 531 0 
L 531 3500 
L 1656 3500 
L 1656 2988 
Q 1863 3284 2130 3434 
Q 2397 3584 2719 3584 
Q 3081 3584 3359 3409 
Q 3638 3234 3781 2919 
z
" id="DejaVuSans-Bold-6d" transform="scale(0.015625)"/>
      <path d="M 4031 1759 
L 4031 1441 
L 1416 1441 
Q 1456 1047 1700 850 
Q 1944 653 2381 653 
Q 2734 653 3104 758 
Q 3475 863 3866 1075 
L 3866 213 
Q 3469 63 3072 -14 
Q 2675 -91 2278 -91 
Q 1328 -91 801 392 
Q 275 875 275 1747 
Q 275 2603 792 3093 
Q 1309 3584 2216 3584 
Q 3041 3584 3536 3087 
Q 4031 2591 4031 1759 
z
M 2881 2131 
Q 2881 2450 2695 2645 
Q 2509 2841 2209 2841 
Q 1884 2841 1681 2658 
Q 1478 2475 1428 2131 
L 2881 2131 
z
" id="DejaVuSans-Bold-65" transform="scale(0.015625)"/>
      <path d="M 538 4863 
L 1656 4863 
L 1656 0 
L 538 0 
L 538 4863 
z
" id="DejaVuSans-Bold-6c" transform="scale(0.015625)"/>
      <path d="M 2400 722 
Q 2759 722 2948 984 
Q 3138 1247 3138 1747 
Q 3138 2247 2948 2509 
Q 2759 2772 2400 2772 
Q 2041 2772 1848 2508 
Q 1656 2244 1656 1747 
Q 1656 1250 1848 986 
Q 2041 722 2400 722 
z
M 1656 2988 
Q 1888 3294 2169 3439 
Q 2450 3584 2816 3584 
Q 3463 3584 3878 3070 
Q 4294 2556 4294 1747 
Q 4294 938 3878 423 
Q 3463 -91 2816 -91 
Q 2450 -91 2169 54 
Q 1888 200 1656 506 
L 1656 0 
L 538 0 
L 538 4863 
L 1656 4863 
L 1656 2988 
z
" id="DejaVuSans-Bold-62" transform="scale(0.015625)"/>
      <path d="M 78 3500 
L 1197 3500 
L 2138 1125 
L 2938 3500 
L 4056 3500 
L 2584 -331 
Q 2363 -916 2067 -1148 
Q 1772 -1381 1288 -1381 
L 641 -1381 
L 641 -647 
L 991 -647 
Q 1275 -647 1404 -556 
Q 1534 -466 1606 -231 
L 1638 -134 
L 78 3500 
z
" id="DejaVuSans-Bold-79" transform="scale(0.015625)"/>
      <path d="M 225 3500 
L 1313 3500 
L 1900 1088 
L 2491 3500 
L 3425 3500 
L 4013 1113 
L 4603 3500 
L 5691 3500 
L 4769 0 
L 3547 0 
L 2956 2406 
L 2369 0 
L 1147 0 
L 225 3500 
z
" id="DejaVuSans-Bold-77" transform="scale(0.015625)"/>
      <path d="M 538 4863 
L 1656 4863 
L 1656 2216 
L 2944 3500 
L 4244 3500 
L 2534 1894 
L 4378 0 
L 3022 0 
L 1656 1459 
L 1656 0 
L 538 0 
L 538 4863 
z
" id="DejaVuSans-Bold-6b" transform="scale(0.015625)"/>
     </defs>
     <use xlink:href="#DejaVuSans-Bold-56"/>
     <use x="71.892578" xlink:href="#DejaVuSans-Bold-61"/>
     <use x="139.373047" xlink:href="#DejaVuSans-Bold-63"/>
     <use x="198.650391" xlink:href="#DejaVuSans-Bold-63"/>
     <use x="257.927734" xlink:href="#DejaVuSans-Bold-69"/>
     <use x="292.205078" xlink:href="#DejaVuSans-Bold-6e"/>
     <use x="363.396484" xlink:href="#DejaVuSans-Bold-61"/>
     <use x="430.876953" xlink:href="#DejaVuSans-Bold-74"/>
     <use x="478.679688" xlink:href="#DejaVuSans-Bold-69"/>
     <use x="512.957031" xlink:href="#DejaVuSans-Bold-6f"/>
     <use x="581.658203" xlink:href="#DejaVuSans-Bold-6e"/>
     <use x="652.849609" xlink:href="#DejaVuSans-Bold-20"/>
     <use x="687.664062" xlink:href="#DejaVuSans-Bold-74"/>
     <use x="735.466797" xlink:href="#DejaVuSans-Bold-69"/>
     <use x="769.744141" xlink:href="#DejaVuSans-Bold-6d"/>
     <use x="873.943359" xlink:href="#DejaVuSans-Bold-65"/>
     <use x="941.765625" xlink:href="#DejaVuSans-Bold-6c"/>
     <use x="976.042969" xlink:href="#DejaVuSans-Bold-69"/>
     <use x="1010.320312" xlink:href="#DejaVuSans-Bold-6e"/>
     <use x="1081.511719" xlink:href="#DejaVuSans-Bold-65"/>
     <use x="1149.333984" xlink:href="#DejaVuSans-Bold-20"/>
     <use x="1184.148438" xlink:href="#DejaVuSans-Bold-62"/>
     <use x="1255.730469" xlink:href="#DejaVuSans-Bold-79"/>
     <use x="1320.916016" xlink:href="#DejaVuSans-Bold-20"/>
     <use x="1355.730469" xlink:href="#DejaVuSans-Bold-77"/>
     <use x="1448.113281" xlink:href="#DejaVuSans-Bold-65"/>
     <use x="1515.935547" xlink:href="#DejaVuSans-Bold-65"/>
     <use x="1583.757812" xlink:href="#DejaVuSans-Bold-6b"/>
    </g>
   </g>
  </g>
  <g id="axes_2">
   <g id="matplotlib.axis_3">
    <g id="ytick_8">
     <g id="line2d_88">
      <defs>
       <path d="M 0 0 
L 6 0 
" id="mc081177955" style="stroke:#262626;stroke-width:1.25;"/>
      </defs>
      <g>
       <use style="fill:#262626;stroke:#262626;stroke-width:1.25;" x="789.152875" xlink:href="#mc081177955" y="483.53707"/>
      </g>
     </g>
     <g id="text_35">
      <!-- 0 -->
      <g style="fill:#262626;" transform="translate(798.652875 487.716211)scale(0.11 -0.11)">
       <use xlink:href="#DejaVuSans-30"/>
      </g>
     </g>
    </g>
    <g id="ytick_9">
     <g id="line2d_89">
      <g>
       <use style="fill:#262626;stroke:#262626;stroke-width:1.25;" x="789.152875" xlink:href="#mc081177955" y="423.663691"/>
      </g>
     </g>
     <g id="text_36">
      <!-- 25000 -->
      <g style="fill:#262626;" transform="translate(798.652875 427.842832)scale(0.11 -0.11)">
       <use xlink:href="#DejaVuSans-32"/>
       <use x="63.623047" xlink:href="#DejaVuSans-35"/>
       <use x="127.246094" xlink:href="#DejaVuSans-30"/>
       <use x="190.869141" xlink:href="#DejaVuSans-30"/>
       <use x="254.492188" xlink:href="#DejaVuSans-30"/>
      </g>
     </g>
    </g>
    <g id="ytick_10">
     <g id="line2d_90">
      <g>
       <use style="fill:#262626;stroke:#262626;stroke-width:1.25;" x="789.152875" xlink:href="#mc081177955" y="363.790313"/>
      </g>
     </g>
     <g id="text_37">
      <!-- 50000 -->
      <g style="fill:#262626;" transform="translate(798.652875 367.969454)scale(0.11 -0.11)">
       <use xlink:href="#DejaVuSans-35"/>
       <use x="63.623047" xlink:href="#DejaVuSans-30"/>
       <use x="127.246094" xlink:href="#DejaVuSans-30"/>
       <use x="190.869141" xlink:href="#DejaVuSans-30"/>
       <use x="254.492188" xlink:href="#DejaVuSans-30"/>
      </g>
     </g>
    </g>
    <g id="ytick_11">
     <g id="line2d_91">
      <g>
       <use style="fill:#262626;stroke:#262626;stroke-width:1.25;" x="789.152875" xlink:href="#mc081177955" y="303.916934"/>
      </g>
     </g>
     <g id="text_38">
      <!-- 75000 -->
      <g style="fill:#262626;" transform="translate(798.652875 308.096075)scale(0.11 -0.11)">
       <use xlink:href="#DejaVuSans-37"/>
       <use x="63.623047" xlink:href="#DejaVuSans-35"/>
       <use x="127.246094" xlink:href="#DejaVuSans-30"/>
       <use x="190.869141" xlink:href="#DejaVuSans-30"/>
       <use x="254.492188" xlink:href="#DejaVuSans-30"/>
      </g>
     </g>
    </g>
    <g id="ytick_12">
     <g id="line2d_92">
      <g>
       <use style="fill:#262626;stroke:#262626;stroke-width:1.25;" x="789.152875" xlink:href="#mc081177955" y="244.043556"/>
      </g>
     </g>
     <g id="text_39">
      <!-- 100000 -->
      <g style="fill:#262626;" transform="translate(798.652875 248.222697)scale(0.11 -0.11)">
       <use xlink:href="#DejaVuSans-31"/>
       <use x="63.623047" xlink:href="#DejaVuSans-30"/>
       <use x="127.246094" xlink:href="#DejaVuSans-30"/>
       <use x="190.869141" xlink:href="#DejaVuSans-30"/>
       <use x="254.492188" xlink:href="#DejaVuSans-30"/>
       <use x="318.115234" xlink:href="#DejaVuSans-30"/>
      </g>
     </g>
    </g>
    <g id="ytick_13">
     <g id="line2d_93">
      <g>
       <use style="fill:#262626;stroke:#262626;stroke-width:1.25;" x="789.152875" xlink:href="#mc081177955" y="184.170178"/>
      </g>
     </g>
     <g id="text_40">
      <!-- 125000 -->
      <g style="fill:#262626;" transform="translate(798.652875 188.349318)scale(0.11 -0.11)">
       <use xlink:href="#DejaVuSans-31"/>
       <use x="63.623047" xlink:href="#DejaVuSans-32"/>
       <use x="127.246094" xlink:href="#DejaVuSans-35"/>
       <use x="190.869141" xlink:href="#DejaVuSans-30"/>
       <use x="254.492188" xlink:href="#DejaVuSans-30"/>
       <use x="318.115234" xlink:href="#DejaVuSans-30"/>
      </g>
     </g>
    </g>
    <g id="ytick_14">
     <g id="line2d_94">
      <g>
       <use style="fill:#262626;stroke:#262626;stroke-width:1.25;" x="789.152875" xlink:href="#mc081177955" y="124.296799"/>
      </g>
     </g>
     <g id="text_41">
      <!-- 150000 -->
      <g style="fill:#262626;" transform="translate(798.652875 128.47594)scale(0.11 -0.11)">
       <use xlink:href="#DejaVuSans-31"/>
       <use x="63.623047" xlink:href="#DejaVuSans-35"/>
       <use x="127.246094" xlink:href="#DejaVuSans-30"/>
       <use x="190.869141" xlink:href="#DejaVuSans-30"/>
       <use x="254.492188" xlink:href="#DejaVuSans-30"/>
       <use x="318.115234" xlink:href="#DejaVuSans-30"/>
      </g>
     </g>
    </g>
    <g id="ytick_15">
     <g id="line2d_95">
      <g>
       <use style="fill:#262626;stroke:#262626;stroke-width:1.25;" x="789.152875" xlink:href="#mc081177955" y="64.423421"/>
      </g>
     </g>
     <g id="text_42">
      <!-- 175000 -->
      <g style="fill:#262626;" transform="translate(798.652875 68.602561)scale(0.11 -0.11)">
       <use xlink:href="#DejaVuSans-31"/>
       <use x="63.623047" xlink:href="#DejaVuSans-37"/>
       <use x="127.246094" xlink:href="#DejaVuSans-35"/>
       <use x="190.869141" xlink:href="#DejaVuSans-30"/>
       <use x="254.492188" xlink:href="#DejaVuSans-30"/>
       <use x="318.115234" xlink:href="#DejaVuSans-30"/>
      </g>
     </g>
    </g>
    <g id="text_43">
     <!-- Newly administered doses -->
     <g style="fill:#262626;" transform="translate(851.52725 182.190506)rotate(-270)scale(0.12 -0.12)">
      <defs>
       <path d="M 628 4666 
L 1478 4666 
L 3547 763 
L 3547 4666 
L 4159 4666 
L 4159 0 
L 3309 0 
L 1241 3903 
L 1241 0 
L 628 0 
L 628 4666 
z
" id="DejaVuSans-4e" transform="scale(0.015625)"/>
       <path d="M 269 3500 
L 844 3500 
L 1563 769 
L 2278 3500 
L 2956 3500 
L 3675 769 
L 4391 3500 
L 4966 3500 
L 4050 0 
L 3372 0 
L 2619 2869 
L 1863 0 
L 1184 0 
L 269 3500 
z
" id="DejaVuSans-77" transform="scale(0.015625)"/>
       <path d="M 603 4863 
L 1178 4863 
L 1178 0 
L 603 0 
L 603 4863 
z
" id="DejaVuSans-6c" transform="scale(0.015625)"/>
       <path d="M 2059 -325 
Q 1816 -950 1584 -1140 
Q 1353 -1331 966 -1331 
L 506 -1331 
L 506 -850 
L 844 -850 
Q 1081 -850 1212 -737 
Q 1344 -625 1503 -206 
L 1606 56 
L 191 3500 
L 800 3500 
L 1894 763 
L 2988 3500 
L 3597 3500 
L 2059 -325 
z
" id="DejaVuSans-79" transform="scale(0.015625)"/>
      </defs>
      <use xlink:href="#DejaVuSans-4e"/>
      <use x="74.804688" xlink:href="#DejaVuSans-65"/>
      <use x="136.328125" xlink:href="#DejaVuSans-77"/>
      <use x="218.115234" xlink:href="#DejaVuSans-6c"/>
      <use x="245.898438" xlink:href="#DejaVuSans-79"/>
      <use x="305.078125" xlink:href="#DejaVuSans-20"/>
      <use x="336.865234" xlink:href="#DejaVuSans-61"/>
      <use x="398.144531" xlink:href="#DejaVuSans-64"/>
      <use x="461.621094" xlink:href="#DejaVuSans-6d"/>
      <use x="559.033203" xlink:href="#DejaVuSans-69"/>
      <use x="586.816406" xlink:href="#DejaVuSans-6e"/>
      <use x="650.195312" xlink:href="#DejaVuSans-69"/>
      <use x="677.978516" xlink:href="#DejaVuSans-73"/>
      <use x="730.078125" xlink:href="#DejaVuSans-74"/>
      <use x="769.287109" xlink:href="#DejaVuSans-65"/>
      <use x="830.810547" xlink:href="#DejaVuSans-72"/>
      <use x="869.673828" xlink:href="#DejaVuSans-65"/>
      <use x="931.197266" xlink:href="#DejaVuSans-64"/>
      <use x="994.673828" xlink:href="#DejaVuSans-20"/>
      <use x="1026.460938" xlink:href="#DejaVuSans-64"/>
      <use x="1089.9375" xlink:href="#DejaVuSans-6f"/>
      <use x="1151.119141" xlink:href="#DejaVuSans-73"/>
      <use x="1203.21875" xlink:href="#DejaVuSans-65"/>
      <use x="1264.742188" xlink:href="#DejaVuSans-73"/>
     </g>
    </g>
   </g>
   <g id="line2d_96">
    <path clip-path="url(#p17ed229084)" d="M 94.190995 472.187472 
L 109.224163 462.619706 
L 124.257331 471.90008 
L 139.290499 464.88771 
L 154.323667 447.850141 
L 169.356835 445.227687 
L 184.390003 439.700177 
L 199.423171 404.417993 
L 214.456339 240.681067 
L 229.489507 298.269677 
L 244.522675 361.907894 
L 259.555843 414.938943 
L 274.589011 321.61311 
L 289.622179 320.873075 
L 304.655347 318.324864 
L 319.688515 325.102531 
L 334.721683 282.472685 
L 349.754851 243.928599 
L 364.788019 217.217888 
L 379.821187 50.216665 
L 394.854355 139.471108 
L 409.887523 265.14533 
L 424.920691 223.358501 
L 439.953859 203.521253 
L 454.987027 284.084477 
L 470.020195 321.031141 
L 485.053363 330.242062 
L 500.086531 336.042594 
L 515.119699 341.232419 
L 530.152867 348.970454 
L 545.186035 334.957689 
L 560.219203 332.265782 
L 575.252371 336.634143 
L 590.285539 330.452816 
L 605.318707 316.80887 
L 620.351875 324.944465 
L 635.385043 355.084724 
L 650.418211 349.566793 
L 665.451378 375.575789 
L 680.484546 383.076726 
L 695.517714 391.332067 
L 710.550882 389.624478 
L 725.58405 257.153431 
L 740.617218 162.639711 
L 755.650386 345.06192 
" style="fill:none;stroke:#ff0000;stroke-linecap:round;stroke-width:1.5;"/>
   </g>
   <g id="patch_7">
    <path d="M 52.098125 493.286013 
L 52.098125 29.118125 
" style="fill:none;stroke:#262626;stroke-linecap:square;stroke-linejoin:miter;stroke-width:1.25;"/>
   </g>
   <g id="patch_8">
    <path d="M 789.152875 493.286013 
L 789.152875 29.118125 
" style="fill:none;stroke:#262626;stroke-linecap:square;stroke-linejoin:miter;stroke-width:1.25;"/>
   </g>
   <g id="patch_9">
    <path d="M 52.098125 493.286013 
L 789.152875 493.286013 
" style="fill:none;stroke:#262626;stroke-linecap:square;stroke-linejoin:miter;stroke-width:1.25;"/>
   </g>
   <g id="patch_10">
    <path d="M 52.098125 29.118125 
L 789.152875 29.118125 
" style="fill:none;stroke:#262626;stroke-linecap:square;stroke-linejoin:miter;stroke-width:1.25;"/>
   </g>
   <g id="legend_1">
    <g id="patch_11">
     <path d="M 572.176156 70.21 
L 781.452875 70.21 
Q 783.652875 70.21 783.652875 68.01 
L 783.652875 36.818125 
Q 783.652875 34.618125 781.452875 34.618125 
L 572.176156 34.618125 
Q 569.976156 34.618125 569.976156 36.818125 
L 569.976156 68.01 
Q 569.976156 70.21 572.176156 70.21 
z
" style="fill:#ffffff;opacity:0.8;stroke:#cccccc;stroke-linejoin:miter;"/>
    </g>
    <g id="line2d_97">
     <path d="M 574.376156 43.526406 
L 596.376156 43.526406 
" style="fill:none;stroke:#0000ff;stroke-linecap:round;stroke-width:1.5;"/>
    </g>
    <g id="line2d_98"/>
    <g id="text_44">
     <!-- Cumulative administered doses -->
     <g style="fill:#262626;" transform="translate(605.176156 47.376406)scale(0.11 -0.11)">
      <defs>
       <path d="M 4122 4306 
L 4122 3641 
Q 3803 3938 3442 4084 
Q 3081 4231 2675 4231 
Q 1875 4231 1450 3742 
Q 1025 3253 1025 2328 
Q 1025 1406 1450 917 
Q 1875 428 2675 428 
Q 3081 428 3442 575 
Q 3803 722 4122 1019 
L 4122 359 
Q 3791 134 3420 21 
Q 3050 -91 2638 -91 
Q 1578 -91 968 557 
Q 359 1206 359 2328 
Q 359 3453 968 4101 
Q 1578 4750 2638 4750 
Q 3056 4750 3426 4639 
Q 3797 4528 4122 4306 
z
" id="DejaVuSans-43" transform="scale(0.015625)"/>
       <path d="M 191 3500 
L 800 3500 
L 1894 563 
L 2988 3500 
L 3597 3500 
L 2284 0 
L 1503 0 
L 191 3500 
z
" id="DejaVuSans-76" transform="scale(0.015625)"/>
      </defs>
      <use xlink:href="#DejaVuSans-43"/>
      <use x="69.824219" xlink:href="#DejaVuSans-75"/>
      <use x="133.203125" xlink:href="#DejaVuSans-6d"/>
      <use x="230.615234" xlink:href="#DejaVuSans-75"/>
      <use x="293.994141" xlink:href="#DejaVuSans-6c"/>
      <use x="321.777344" xlink:href="#DejaVuSans-61"/>
      <use x="383.056641" xlink:href="#DejaVuSans-74"/>
      <use x="422.265625" xlink:href="#DejaVuSans-69"/>
      <use x="450.048828" xlink:href="#DejaVuSans-76"/>
      <use x="509.228516" xlink:href="#DejaVuSans-65"/>
      <use x="570.751953" xlink:href="#DejaVuSans-20"/>
      <use x="602.539062" xlink:href="#DejaVuSans-61"/>
      <use x="663.818359" xlink:href="#DejaVuSans-64"/>
      <use x="727.294922" xlink:href="#DejaVuSans-6d"/>
      <use x="824.707031" xlink:href="#DejaVuSans-69"/>
      <use x="852.490234" xlink:href="#DejaVuSans-6e"/>
      <use x="915.869141" xlink:href="#DejaVuSans-69"/>
      <use x="943.652344" xlink:href="#DejaVuSans-73"/>
      <use x="995.751953" xlink:href="#DejaVuSans-74"/>
      <use x="1034.960938" xlink:href="#DejaVuSans-65"/>
      <use x="1096.484375" xlink:href="#DejaVuSans-72"/>
      <use x="1135.347656" xlink:href="#DejaVuSans-65"/>
      <use x="1196.871094" xlink:href="#DejaVuSans-64"/>
      <use x="1260.347656" xlink:href="#DejaVuSans-20"/>
      <use x="1292.134766" xlink:href="#DejaVuSans-64"/>
      <use x="1355.611328" xlink:href="#DejaVuSans-6f"/>
      <use x="1416.792969" xlink:href="#DejaVuSans-73"/>
      <use x="1468.892578" xlink:href="#DejaVuSans-65"/>
      <use x="1530.416016" xlink:href="#DejaVuSans-73"/>
     </g>
    </g>
    <g id="line2d_99">
     <path d="M 574.376156 59.672344 
L 596.376156 59.672344 
" style="fill:none;stroke:#ff0000;stroke-linecap:round;stroke-width:1.5;"/>
    </g>
    <g id="line2d_100"/>
    <g id="text_45">
     <!-- Newly administered doses -->
     <g style="fill:#262626;" transform="translate(605.176156 63.522344)scale(0.11 -0.11)">
      <use xlink:href="#DejaVuSans-4e"/>
      <use x="74.804688" xlink:href="#DejaVuSans-65"/>
      <use x="136.328125" xlink:href="#DejaVuSans-77"/>
      <use x="218.115234" xlink:href="#DejaVuSans-6c"/>
      <use x="245.898438" xlink:href="#DejaVuSans-79"/>
      <use x="305.078125" xlink:href="#DejaVuSans-20"/>
      <use x="336.865234" xlink:href="#DejaVuSans-61"/>
      <use x="398.144531" xlink:href="#DejaVuSans-64"/>
      <use x="461.621094" xlink:href="#DejaVuSans-6d"/>
      <use x="559.033203" xlink:href="#DejaVuSans-69"/>
      <use x="586.816406" xlink:href="#DejaVuSans-6e"/>
      <use x="650.195312" xlink:href="#DejaVuSans-69"/>
      <use x="677.978516" xlink:href="#DejaVuSans-73"/>
      <use x="730.078125" xlink:href="#DejaVuSans-74"/>
      <use x="769.287109" xlink:href="#DejaVuSans-65"/>
      <use x="830.810547" xlink:href="#DejaVuSans-72"/>
      <use x="869.673828" xlink:href="#DejaVuSans-65"/>
      <use x="931.197266" xlink:href="#DejaVuSans-64"/>
      <use x="994.673828" xlink:href="#DejaVuSans-20"/>
      <use x="1026.460938" xlink:href="#DejaVuSans-64"/>
      <use x="1089.9375" xlink:href="#DejaVuSans-6f"/>
      <use x="1151.119141" xlink:href="#DejaVuSans-73"/>
      <use x="1203.21875" xlink:href="#DejaVuSans-65"/>
      <use x="1264.742188" xlink:href="#DejaVuSans-73"/>
     </g>
    </g>
   </g>
  </g>
 </g>
 <defs>
  <clipPath id="p17ed229084">
   <rect height="464.167888" width="737.05475" x="52.098125" y="29.118125"/>
  </clipPath>
 </defs>
</svg>
