<?xml version="1.0" encoding="utf-8" standalone="no"?>
<!DOCTYPE svg PUBLIC "-//W3C//DTD SVG 1.1//EN"
  "http://www.w3.org/Graphics/SVG/1.1/DTD/svg11.dtd">
<svg xmlns:xlink="http://www.w3.org/1999/xlink" width="838.745046pt" height="547.767456pt" viewBox="0 0 838.745046 547.767456" xmlns="http://www.w3.org/2000/svg" version="1.1">
 <metadata>
  <rdf:RDF xmlns:dc="http://purl.org/dc/elements/1.1/" xmlns:cc="http://creativecommons.org/ns#" xmlns:rdf="http://www.w3.org/1999/02/22-rdf-syntax-ns#">
   <cc:Work>
    <dc:type rdf:resource="http://purl.org/dc/dcmitype/StillImage"/>
    <dc:date>2021-11-28T01:39:07.667824</dc:date>
    <dc:format>image/svg+xml</dc:format>
    <dc:creator>
     <cc:Agent>
      <dc:title>Matplotlib v3.5.0, https://matplotlib.org/</dc:title>
     </cc:Agent>
    </dc:creator>
   </cc:Work>
  </rdf:RDF>
 </metadata>
 <defs>
  <style type="text/css">*{stroke-linejoin: round; stroke-linecap: butt}</style>
 </defs>
 <g id="figure_1">
  <g id="patch_1">
   <path d="M 0 547.767456 
L 838.745046 547.767456 
L 838.745046 0 
L 0 0 
L 0 547.767456 
z
" style="fill: none"/>
  </g>
  <g id="axes_1">
   <g id="patch_2">
    <path d="M 46.11 474.4193 
L 765.49237 474.4193 
L 765.49237 29.118125 
L 46.11 29.118125 
L 46.11 474.4193 
z
" style="fill: none"/>
   </g>
   <g id="matplotlib.axis_1">
    <g id="xtick_1">
     <g id="line2d_1">
      <path d="M 78.809199 474.4193 
L 78.809199 29.118125 
" clip-path="url(#p6582f0a531)" style="fill: none; stroke: #cccccc; stroke-linecap: round"/>
     </g>
     <g id="line2d_2">
      <defs>
       <path id="me721bde320" d="M 0 0 
L 0 6 
" style="stroke: #262626; stroke-width: 1.25"/>
      </defs>
      <g>
       <use xlink:href="#me721bde320" x="78.809199" y="474.4193" style="fill: #262626; stroke: #262626; stroke-width: 1.25"/>
      </g>
     </g>
     <g id="text_1">
      <!-- 06.06 (23) -->
      <g style="fill: #262626" transform="translate(36.484991 530.536088)rotate(-45)scale(0.11 -0.11)">
       <defs>
        <path id="DejaVuSans-30" d="M 2034 4250 
Q 1547 4250 1301 3770 
Q 1056 3291 1056 2328 
Q 1056 1369 1301 889 
Q 1547 409 2034 409 
Q 2525 409 2770 889 
Q 3016 1369 3016 2328 
Q 3016 3291 2770 3770 
Q 2525 4250 2034 4250 
z
M 2034 4750 
Q 2819 4750 3233 4129 
Q 3647 3509 3647 2328 
Q 3647 1150 3233 529 
Q 2819 -91 2034 -91 
Q 1250 -91 836 529 
Q 422 1150 422 2328 
Q 422 3509 836 4129 
Q 1250 4750 2034 4750 
z
" transform="scale(0.015625)"/>
        <path id="DejaVuSans-36" d="M 2113 2584 
Q 1688 2584 1439 2293 
Q 1191 2003 1191 1497 
Q 1191 994 1439 701 
Q 1688 409 2113 409 
Q 2538 409 2786 701 
Q 3034 994 3034 1497 
Q 3034 2003 2786 2293 
Q 2538 2584 2113 2584 
z
M 3366 4563 
L 3366 3988 
Q 3128 4100 2886 4159 
Q 2644 4219 2406 4219 
Q 1781 4219 1451 3797 
Q 1122 3375 1075 2522 
Q 1259 2794 1537 2939 
Q 1816 3084 2150 3084 
Q 2853 3084 3261 2657 
Q 3669 2231 3669 1497 
Q 3669 778 3244 343 
Q 2819 -91 2113 -91 
Q 1303 -91 875 529 
Q 447 1150 447 2328 
Q 447 3434 972 4092 
Q 1497 4750 2381 4750 
Q 2619 4750 2861 4703 
Q 3103 4656 3366 4563 
z
" transform="scale(0.015625)"/>
        <path id="DejaVuSans-2e" d="M 684 794 
L 1344 794 
L 1344 0 
L 684 0 
L 684 794 
z
" transform="scale(0.015625)"/>
        <path id="DejaVuSans-20" transform="scale(0.015625)"/>
        <path id="DejaVuSans-28" d="M 1984 4856 
Q 1566 4138 1362 3434 
Q 1159 2731 1159 2009 
Q 1159 1288 1364 580 
Q 1569 -128 1984 -844 
L 1484 -844 
Q 1016 -109 783 600 
Q 550 1309 550 2009 
Q 550 2706 781 3412 
Q 1013 4119 1484 4856 
L 1984 4856 
z
" transform="scale(0.015625)"/>
        <path id="DejaVuSans-32" d="M 1228 531 
L 3431 531 
L 3431 0 
L 469 0 
L 469 531 
Q 828 903 1448 1529 
Q 2069 2156 2228 2338 
Q 2531 2678 2651 2914 
Q 2772 3150 2772 3378 
Q 2772 3750 2511 3984 
Q 2250 4219 1831 4219 
Q 1534 4219 1204 4116 
Q 875 4013 500 3803 
L 500 4441 
Q 881 4594 1212 4672 
Q 1544 4750 1819 4750 
Q 2544 4750 2975 4387 
Q 3406 4025 3406 3419 
Q 3406 3131 3298 2873 
Q 3191 2616 2906 2266 
Q 2828 2175 2409 1742 
Q 1991 1309 1228 531 
z
" transform="scale(0.015625)"/>
        <path id="DejaVuSans-33" d="M 2597 2516 
Q 3050 2419 3304 2112 
Q 3559 1806 3559 1356 
Q 3559 666 3084 287 
Q 2609 -91 1734 -91 
Q 1441 -91 1130 -33 
Q 819 25 488 141 
L 488 750 
Q 750 597 1062 519 
Q 1375 441 1716 441 
Q 2309 441 2620 675 
Q 2931 909 2931 1356 
Q 2931 1769 2642 2001 
Q 2353 2234 1838 2234 
L 1294 2234 
L 1294 2753 
L 1863 2753 
Q 2328 2753 2575 2939 
Q 2822 3125 2822 3475 
Q 2822 3834 2567 4026 
Q 2313 4219 1838 4219 
Q 1578 4219 1281 4162 
Q 984 4106 628 3988 
L 628 4550 
Q 988 4650 1302 4700 
Q 1616 4750 1894 4750 
Q 2613 4750 3031 4423 
Q 3450 4097 3450 3541 
Q 3450 3153 3228 2886 
Q 3006 2619 2597 2516 
z
" transform="scale(0.015625)"/>
        <path id="DejaVuSans-29" d="M 513 4856 
L 1013 4856 
Q 1481 4119 1714 3412 
Q 1947 2706 1947 2009 
Q 1947 1309 1714 600 
Q 1481 -109 1013 -844 
L 513 -844 
Q 928 -128 1133 580 
Q 1338 1288 1338 2009 
Q 1338 2731 1133 3434 
Q 928 4138 513 4856 
z
" transform="scale(0.015625)"/>
       </defs>
       <use xlink:href="#DejaVuSans-30"/>
       <use xlink:href="#DejaVuSans-36" x="63.623047"/>
       <use xlink:href="#DejaVuSans-2e" x="127.246094"/>
       <use xlink:href="#DejaVuSans-30" x="159.033203"/>
       <use xlink:href="#DejaVuSans-36" x="222.65625"/>
       <use xlink:href="#DejaVuSans-20" x="286.279297"/>
       <use xlink:href="#DejaVuSans-28" x="318.066406"/>
       <use xlink:href="#DejaVuSans-32" x="357.080078"/>
       <use xlink:href="#DejaVuSans-33" x="420.703125"/>
       <use xlink:href="#DejaVuSans-29" x="484.326172"/>
      </g>
     </g>
    </g>
    <g id="xtick_2">
     <g id="line2d_3">
      <path d="M 112.782392 474.4193 
L 112.782392 29.118125 
" clip-path="url(#p6582f0a531)" style="fill: none; stroke: #cccccc; stroke-linecap: round"/>
     </g>
     <g id="line2d_4">
      <g>
       <use xlink:href="#me721bde320" x="112.782392" y="474.4193" style="fill: #262626; stroke: #262626; stroke-width: 1.25"/>
      </g>
     </g>
     <g id="text_2">
      <!-- 04.07 (27) -->
      <g style="fill: #262626" transform="translate(70.458184 530.536088)rotate(-45)scale(0.11 -0.11)">
       <defs>
        <path id="DejaVuSans-34" d="M 2419 4116 
L 825 1625 
L 2419 1625 
L 2419 4116 
z
M 2253 4666 
L 3047 4666 
L 3047 1625 
L 3713 1625 
L 3713 1100 
L 3047 1100 
L 3047 0 
L 2419 0 
L 2419 1100 
L 313 1100 
L 313 1709 
L 2253 4666 
z
" transform="scale(0.015625)"/>
        <path id="DejaVuSans-37" d="M 525 4666 
L 3525 4666 
L 3525 4397 
L 1831 0 
L 1172 0 
L 2766 4134 
L 525 4134 
L 525 4666 
z
" transform="scale(0.015625)"/>
       </defs>
       <use xlink:href="#DejaVuSans-30"/>
       <use xlink:href="#DejaVuSans-34" x="63.623047"/>
       <use xlink:href="#DejaVuSans-2e" x="127.246094"/>
       <use xlink:href="#DejaVuSans-30" x="159.033203"/>
       <use xlink:href="#DejaVuSans-37" x="222.65625"/>
       <use xlink:href="#DejaVuSans-20" x="286.279297"/>
       <use xlink:href="#DejaVuSans-28" x="318.066406"/>
       <use xlink:href="#DejaVuSans-32" x="357.080078"/>
       <use xlink:href="#DejaVuSans-37" x="420.703125"/>
       <use xlink:href="#DejaVuSans-29" x="484.326172"/>
      </g>
     </g>
    </g>
    <g id="xtick_3">
     <g id="line2d_5">
      <path d="M 146.755585 474.4193 
L 146.755585 29.118125 
" clip-path="url(#p6582f0a531)" style="fill: none; stroke: #cccccc; stroke-linecap: round"/>
     </g>
     <g id="line2d_6">
      <g>
       <use xlink:href="#me721bde320" x="146.755585" y="474.4193" style="fill: #262626; stroke: #262626; stroke-width: 1.25"/>
      </g>
     </g>
     <g id="text_3">
      <!-- 01.08 (31) -->
      <g style="fill: #262626" transform="translate(104.431378 530.536088)rotate(-45)scale(0.11 -0.11)">
       <defs>
        <path id="DejaVuSans-31" d="M 794 531 
L 1825 531 
L 1825 4091 
L 703 3866 
L 703 4441 
L 1819 4666 
L 2450 4666 
L 2450 531 
L 3481 531 
L 3481 0 
L 794 0 
L 794 531 
z
" transform="scale(0.015625)"/>
        <path id="DejaVuSans-38" d="M 2034 2216 
Q 1584 2216 1326 1975 
Q 1069 1734 1069 1313 
Q 1069 891 1326 650 
Q 1584 409 2034 409 
Q 2484 409 2743 651 
Q 3003 894 3003 1313 
Q 3003 1734 2745 1975 
Q 2488 2216 2034 2216 
z
M 1403 2484 
Q 997 2584 770 2862 
Q 544 3141 544 3541 
Q 544 4100 942 4425 
Q 1341 4750 2034 4750 
Q 2731 4750 3128 4425 
Q 3525 4100 3525 3541 
Q 3525 3141 3298 2862 
Q 3072 2584 2669 2484 
Q 3125 2378 3379 2068 
Q 3634 1759 3634 1313 
Q 3634 634 3220 271 
Q 2806 -91 2034 -91 
Q 1263 -91 848 271 
Q 434 634 434 1313 
Q 434 1759 690 2068 
Q 947 2378 1403 2484 
z
M 1172 3481 
Q 1172 3119 1398 2916 
Q 1625 2713 2034 2713 
Q 2441 2713 2670 2916 
Q 2900 3119 2900 3481 
Q 2900 3844 2670 4047 
Q 2441 4250 2034 4250 
Q 1625 4250 1398 4047 
Q 1172 3844 1172 3481 
z
" transform="scale(0.015625)"/>
       </defs>
       <use xlink:href="#DejaVuSans-30"/>
       <use xlink:href="#DejaVuSans-31" x="63.623047"/>
       <use xlink:href="#DejaVuSans-2e" x="127.246094"/>
       <use xlink:href="#DejaVuSans-30" x="159.033203"/>
       <use xlink:href="#DejaVuSans-38" x="222.65625"/>
       <use xlink:href="#DejaVuSans-20" x="286.279297"/>
       <use xlink:href="#DejaVuSans-28" x="318.066406"/>
       <use xlink:href="#DejaVuSans-33" x="357.080078"/>
       <use xlink:href="#DejaVuSans-31" x="420.703125"/>
       <use xlink:href="#DejaVuSans-29" x="484.326172"/>
      </g>
     </g>
    </g>
    <g id="xtick_4">
     <g id="line2d_7">
      <path d="M 180.728779 474.4193 
L 180.728779 29.118125 
" clip-path="url(#p6582f0a531)" style="fill: none; stroke: #cccccc; stroke-linecap: round"/>
     </g>
     <g id="line2d_8">
      <g>
       <use xlink:href="#me721bde320" x="180.728779" y="474.4193" style="fill: #262626; stroke: #262626; stroke-width: 1.25"/>
      </g>
     </g>
     <g id="text_4">
      <!-- 29.08 (35) -->
      <g style="fill: #262626" transform="translate(138.404571 530.536088)rotate(-45)scale(0.11 -0.11)">
       <defs>
        <path id="DejaVuSans-39" d="M 703 97 
L 703 672 
Q 941 559 1184 500 
Q 1428 441 1663 441 
Q 2288 441 2617 861 
Q 2947 1281 2994 2138 
Q 2813 1869 2534 1725 
Q 2256 1581 1919 1581 
Q 1219 1581 811 2004 
Q 403 2428 403 3163 
Q 403 3881 828 4315 
Q 1253 4750 1959 4750 
Q 2769 4750 3195 4129 
Q 3622 3509 3622 2328 
Q 3622 1225 3098 567 
Q 2575 -91 1691 -91 
Q 1453 -91 1209 -44 
Q 966 3 703 97 
z
M 1959 2075 
Q 2384 2075 2632 2365 
Q 2881 2656 2881 3163 
Q 2881 3666 2632 3958 
Q 2384 4250 1959 4250 
Q 1534 4250 1286 3958 
Q 1038 3666 1038 3163 
Q 1038 2656 1286 2365 
Q 1534 2075 1959 2075 
z
" transform="scale(0.015625)"/>
        <path id="DejaVuSans-35" d="M 691 4666 
L 3169 4666 
L 3169 4134 
L 1269 4134 
L 1269 2991 
Q 1406 3038 1543 3061 
Q 1681 3084 1819 3084 
Q 2600 3084 3056 2656 
Q 3513 2228 3513 1497 
Q 3513 744 3044 326 
Q 2575 -91 1722 -91 
Q 1428 -91 1123 -41 
Q 819 9 494 109 
L 494 744 
Q 775 591 1075 516 
Q 1375 441 1709 441 
Q 2250 441 2565 725 
Q 2881 1009 2881 1497 
Q 2881 1984 2565 2268 
Q 2250 2553 1709 2553 
Q 1456 2553 1204 2497 
Q 953 2441 691 2322 
L 691 4666 
z
" transform="scale(0.015625)"/>
       </defs>
       <use xlink:href="#DejaVuSans-32"/>
       <use xlink:href="#DejaVuSans-39" x="63.623047"/>
       <use xlink:href="#DejaVuSans-2e" x="127.246094"/>
       <use xlink:href="#DejaVuSans-30" x="159.033203"/>
       <use xlink:href="#DejaVuSans-38" x="222.65625"/>
       <use xlink:href="#DejaVuSans-20" x="286.279297"/>
       <use xlink:href="#DejaVuSans-28" x="318.066406"/>
       <use xlink:href="#DejaVuSans-33" x="357.080078"/>
       <use xlink:href="#DejaVuSans-35" x="420.703125"/>
       <use xlink:href="#DejaVuSans-29" x="484.326172"/>
      </g>
     </g>
    </g>
    <g id="xtick_5">
     <g id="line2d_9">
      <path d="M 214.701972 474.4193 
L 214.701972 29.118125 
" clip-path="url(#p6582f0a531)" style="fill: none; stroke: #cccccc; stroke-linecap: round"/>
     </g>
     <g id="line2d_10">
      <g>
       <use xlink:href="#me721bde320" x="214.701972" y="474.4193" style="fill: #262626; stroke: #262626; stroke-width: 1.25"/>
      </g>
     </g>
     <g id="text_5">
      <!-- 26.09 (39) -->
      <g style="fill: #262626" transform="translate(172.377764 530.536088)rotate(-45)scale(0.11 -0.11)">
       <use xlink:href="#DejaVuSans-32"/>
       <use xlink:href="#DejaVuSans-36" x="63.623047"/>
       <use xlink:href="#DejaVuSans-2e" x="127.246094"/>
       <use xlink:href="#DejaVuSans-30" x="159.033203"/>
       <use xlink:href="#DejaVuSans-39" x="222.65625"/>
       <use xlink:href="#DejaVuSans-20" x="286.279297"/>
       <use xlink:href="#DejaVuSans-28" x="318.066406"/>
       <use xlink:href="#DejaVuSans-33" x="357.080078"/>
       <use xlink:href="#DejaVuSans-39" x="420.703125"/>
       <use xlink:href="#DejaVuSans-29" x="484.326172"/>
      </g>
     </g>
    </g>
    <g id="xtick_6">
     <g id="line2d_11">
      <path d="M 248.675166 474.4193 
L 248.675166 29.118125 
" clip-path="url(#p6582f0a531)" style="fill: none; stroke: #cccccc; stroke-linecap: round"/>
     </g>
     <g id="line2d_12">
      <g>
       <use xlink:href="#me721bde320" x="248.675166" y="474.4193" style="fill: #262626; stroke: #262626; stroke-width: 1.25"/>
      </g>
     </g>
     <g id="text_6">
      <!-- 24.10 (43) -->
      <g style="fill: #262626" transform="translate(206.350958 530.536088)rotate(-45)scale(0.11 -0.11)">
       <use xlink:href="#DejaVuSans-32"/>
       <use xlink:href="#DejaVuSans-34" x="63.623047"/>
       <use xlink:href="#DejaVuSans-2e" x="127.246094"/>
       <use xlink:href="#DejaVuSans-31" x="159.033203"/>
       <use xlink:href="#DejaVuSans-30" x="222.65625"/>
       <use xlink:href="#DejaVuSans-20" x="286.279297"/>
       <use xlink:href="#DejaVuSans-28" x="318.066406"/>
       <use xlink:href="#DejaVuSans-34" x="357.080078"/>
       <use xlink:href="#DejaVuSans-33" x="420.703125"/>
       <use xlink:href="#DejaVuSans-29" x="484.326172"/>
      </g>
     </g>
    </g>
    <g id="xtick_7">
     <g id="line2d_13">
      <path d="M 282.648359 474.4193 
L 282.648359 29.118125 
" clip-path="url(#p6582f0a531)" style="fill: none; stroke: #cccccc; stroke-linecap: round"/>
     </g>
     <g id="line2d_14">
      <g>
       <use xlink:href="#me721bde320" x="282.648359" y="474.4193" style="fill: #262626; stroke: #262626; stroke-width: 1.25"/>
      </g>
     </g>
     <g id="text_7">
      <!-- 21.11 (47) -->
      <g style="fill: #262626" transform="translate(240.324151 530.536088)rotate(-45)scale(0.11 -0.11)">
       <use xlink:href="#DejaVuSans-32"/>
       <use xlink:href="#DejaVuSans-31" x="63.623047"/>
       <use xlink:href="#DejaVuSans-2e" x="127.246094"/>
       <use xlink:href="#DejaVuSans-31" x="159.033203"/>
       <use xlink:href="#DejaVuSans-31" x="222.65625"/>
       <use xlink:href="#DejaVuSans-20" x="286.279297"/>
       <use xlink:href="#DejaVuSans-28" x="318.066406"/>
       <use xlink:href="#DejaVuSans-34" x="357.080078"/>
       <use xlink:href="#DejaVuSans-37" x="420.703125"/>
       <use xlink:href="#DejaVuSans-29" x="484.326172"/>
      </g>
     </g>
    </g>
    <g id="xtick_8">
     <g id="line2d_15">
      <path d="M 316.621552 474.4193 
L 316.621552 29.118125 
" clip-path="url(#p6582f0a531)" style="fill: none; stroke: #cccccc; stroke-linecap: round"/>
     </g>
     <g id="line2d_16">
      <g>
       <use xlink:href="#me721bde320" x="316.621552" y="474.4193" style="fill: #262626; stroke: #262626; stroke-width: 1.25"/>
      </g>
     </g>
     <g id="text_8">
      <!-- 19.12 (51) -->
      <g style="fill: #262626" transform="translate(274.297344 530.536088)rotate(-45)scale(0.11 -0.11)">
       <use xlink:href="#DejaVuSans-31"/>
       <use xlink:href="#DejaVuSans-39" x="63.623047"/>
       <use xlink:href="#DejaVuSans-2e" x="127.246094"/>
       <use xlink:href="#DejaVuSans-31" x="159.033203"/>
       <use xlink:href="#DejaVuSans-32" x="222.65625"/>
       <use xlink:href="#DejaVuSans-20" x="286.279297"/>
       <use xlink:href="#DejaVuSans-28" x="318.066406"/>
       <use xlink:href="#DejaVuSans-35" x="357.080078"/>
       <use xlink:href="#DejaVuSans-31" x="420.703125"/>
       <use xlink:href="#DejaVuSans-29" x="484.326172"/>
      </g>
     </g>
    </g>
    <g id="xtick_9">
     <g id="line2d_17">
      <path d="M 350.594746 474.4193 
L 350.594746 29.118125 
" clip-path="url(#p6582f0a531)" style="fill: none; stroke: #cccccc; stroke-linecap: round"/>
     </g>
     <g id="line2d_18">
      <g>
       <use xlink:href="#me721bde320" x="350.594746" y="474.4193" style="fill: #262626; stroke: #262626; stroke-width: 1.25"/>
      </g>
     </g>
     <g id="text_9">
      <!-- 16.01 (02) -->
      <g style="fill: #262626" transform="translate(308.270538 530.536088)rotate(-45)scale(0.11 -0.11)">
       <use xlink:href="#DejaVuSans-31"/>
       <use xlink:href="#DejaVuSans-36" x="63.623047"/>
       <use xlink:href="#DejaVuSans-2e" x="127.246094"/>
       <use xlink:href="#DejaVuSans-30" x="159.033203"/>
       <use xlink:href="#DejaVuSans-31" x="222.65625"/>
       <use xlink:href="#DejaVuSans-20" x="286.279297"/>
       <use xlink:href="#DejaVuSans-28" x="318.066406"/>
       <use xlink:href="#DejaVuSans-30" x="357.080078"/>
       <use xlink:href="#DejaVuSans-32" x="420.703125"/>
       <use xlink:href="#DejaVuSans-29" x="484.326172"/>
      </g>
     </g>
    </g>
    <g id="xtick_10">
     <g id="line2d_19">
      <path d="M 384.567939 474.4193 
L 384.567939 29.118125 
" clip-path="url(#p6582f0a531)" style="fill: none; stroke: #cccccc; stroke-linecap: round"/>
     </g>
     <g id="line2d_20">
      <g>
       <use xlink:href="#me721bde320" x="384.567939" y="474.4193" style="fill: #262626; stroke: #262626; stroke-width: 1.25"/>
      </g>
     </g>
     <g id="text_10">
      <!-- 13.02 (06) -->
      <g style="fill: #262626" transform="translate(342.243731 530.536088)rotate(-45)scale(0.11 -0.11)">
       <use xlink:href="#DejaVuSans-31"/>
       <use xlink:href="#DejaVuSans-33" x="63.623047"/>
       <use xlink:href="#DejaVuSans-2e" x="127.246094"/>
       <use xlink:href="#DejaVuSans-30" x="159.033203"/>
       <use xlink:href="#DejaVuSans-32" x="222.65625"/>
       <use xlink:href="#DejaVuSans-20" x="286.279297"/>
       <use xlink:href="#DejaVuSans-28" x="318.066406"/>
       <use xlink:href="#DejaVuSans-30" x="357.080078"/>
       <use xlink:href="#DejaVuSans-36" x="420.703125"/>
       <use xlink:href="#DejaVuSans-29" x="484.326172"/>
      </g>
     </g>
    </g>
    <g id="xtick_11">
     <g id="line2d_21">
      <path d="M 418.541132 474.4193 
L 418.541132 29.118125 
" clip-path="url(#p6582f0a531)" style="fill: none; stroke: #cccccc; stroke-linecap: round"/>
     </g>
     <g id="line2d_22">
      <g>
       <use xlink:href="#me721bde320" x="418.541132" y="474.4193" style="fill: #262626; stroke: #262626; stroke-width: 1.25"/>
      </g>
     </g>
     <g id="text_11">
      <!-- 13.03 (10) -->
      <g style="fill: #262626" transform="translate(376.216925 530.536088)rotate(-45)scale(0.11 -0.11)">
       <use xlink:href="#DejaVuSans-31"/>
       <use xlink:href="#DejaVuSans-33" x="63.623047"/>
       <use xlink:href="#DejaVuSans-2e" x="127.246094"/>
       <use xlink:href="#DejaVuSans-30" x="159.033203"/>
       <use xlink:href="#DejaVuSans-33" x="222.65625"/>
       <use xlink:href="#DejaVuSans-20" x="286.279297"/>
       <use xlink:href="#DejaVuSans-28" x="318.066406"/>
       <use xlink:href="#DejaVuSans-31" x="357.080078"/>
       <use xlink:href="#DejaVuSans-30" x="420.703125"/>
       <use xlink:href="#DejaVuSans-29" x="484.326172"/>
      </g>
     </g>
    </g>
    <g id="xtick_12">
     <g id="line2d_23">
      <path d="M 452.514326 474.4193 
L 452.514326 29.118125 
" clip-path="url(#p6582f0a531)" style="fill: none; stroke: #cccccc; stroke-linecap: round"/>
     </g>
     <g id="line2d_24">
      <g>
       <use xlink:href="#me721bde320" x="452.514326" y="474.4193" style="fill: #262626; stroke: #262626; stroke-width: 1.25"/>
      </g>
     </g>
     <g id="text_12">
      <!-- 10.04 (14) -->
      <g style="fill: #262626" transform="translate(410.190118 530.536088)rotate(-45)scale(0.11 -0.11)">
       <use xlink:href="#DejaVuSans-31"/>
       <use xlink:href="#DejaVuSans-30" x="63.623047"/>
       <use xlink:href="#DejaVuSans-2e" x="127.246094"/>
       <use xlink:href="#DejaVuSans-30" x="159.033203"/>
       <use xlink:href="#DejaVuSans-34" x="222.65625"/>
       <use xlink:href="#DejaVuSans-20" x="286.279297"/>
       <use xlink:href="#DejaVuSans-28" x="318.066406"/>
       <use xlink:href="#DejaVuSans-31" x="357.080078"/>
       <use xlink:href="#DejaVuSans-34" x="420.703125"/>
       <use xlink:href="#DejaVuSans-29" x="484.326172"/>
      </g>
     </g>
    </g>
    <g id="xtick_13">
     <g id="line2d_25">
      <path d="M 486.487519 474.4193 
L 486.487519 29.118125 
" clip-path="url(#p6582f0a531)" style="fill: none; stroke: #cccccc; stroke-linecap: round"/>
     </g>
     <g id="line2d_26">
      <g>
       <use xlink:href="#me721bde320" x="486.487519" y="474.4193" style="fill: #262626; stroke: #262626; stroke-width: 1.25"/>
      </g>
     </g>
     <g id="text_13">
      <!-- 08.05 (18) -->
      <g style="fill: #262626" transform="translate(444.163311 530.536088)rotate(-45)scale(0.11 -0.11)">
       <use xlink:href="#DejaVuSans-30"/>
       <use xlink:href="#DejaVuSans-38" x="63.623047"/>
       <use xlink:href="#DejaVuSans-2e" x="127.246094"/>
       <use xlink:href="#DejaVuSans-30" x="159.033203"/>
       <use xlink:href="#DejaVuSans-35" x="222.65625"/>
       <use xlink:href="#DejaVuSans-20" x="286.279297"/>
       <use xlink:href="#DejaVuSans-28" x="318.066406"/>
       <use xlink:href="#DejaVuSans-31" x="357.080078"/>
       <use xlink:href="#DejaVuSans-38" x="420.703125"/>
       <use xlink:href="#DejaVuSans-29" x="484.326172"/>
      </g>
     </g>
    </g>
    <g id="xtick_14">
     <g id="line2d_27">
      <path d="M 520.460713 474.4193 
L 520.460713 29.118125 
" clip-path="url(#p6582f0a531)" style="fill: none; stroke: #cccccc; stroke-linecap: round"/>
     </g>
     <g id="line2d_28">
      <g>
       <use xlink:href="#me721bde320" x="520.460713" y="474.4193" style="fill: #262626; stroke: #262626; stroke-width: 1.25"/>
      </g>
     </g>
     <g id="text_14">
      <!-- 05.06 (22) -->
      <g style="fill: #262626" transform="translate(478.136505 530.536088)rotate(-45)scale(0.11 -0.11)">
       <use xlink:href="#DejaVuSans-30"/>
       <use xlink:href="#DejaVuSans-35" x="63.623047"/>
       <use xlink:href="#DejaVuSans-2e" x="127.246094"/>
       <use xlink:href="#DejaVuSans-30" x="159.033203"/>
       <use xlink:href="#DejaVuSans-36" x="222.65625"/>
       <use xlink:href="#DejaVuSans-20" x="286.279297"/>
       <use xlink:href="#DejaVuSans-28" x="318.066406"/>
       <use xlink:href="#DejaVuSans-32" x="357.080078"/>
       <use xlink:href="#DejaVuSans-32" x="420.703125"/>
       <use xlink:href="#DejaVuSans-29" x="484.326172"/>
      </g>
     </g>
    </g>
    <g id="xtick_15">
     <g id="line2d_29">
      <path d="M 554.433906 474.4193 
L 554.433906 29.118125 
" clip-path="url(#p6582f0a531)" style="fill: none; stroke: #cccccc; stroke-linecap: round"/>
     </g>
     <g id="line2d_30">
      <g>
       <use xlink:href="#me721bde320" x="554.433906" y="474.4193" style="fill: #262626; stroke: #262626; stroke-width: 1.25"/>
      </g>
     </g>
     <g id="text_15">
      <!-- 03.07 (26) -->
      <g style="fill: #262626" transform="translate(512.109698 530.536088)rotate(-45)scale(0.11 -0.11)">
       <use xlink:href="#DejaVuSans-30"/>
       <use xlink:href="#DejaVuSans-33" x="63.623047"/>
       <use xlink:href="#DejaVuSans-2e" x="127.246094"/>
       <use xlink:href="#DejaVuSans-30" x="159.033203"/>
       <use xlink:href="#DejaVuSans-37" x="222.65625"/>
       <use xlink:href="#DejaVuSans-20" x="286.279297"/>
       <use xlink:href="#DejaVuSans-28" x="318.066406"/>
       <use xlink:href="#DejaVuSans-32" x="357.080078"/>
       <use xlink:href="#DejaVuSans-36" x="420.703125"/>
       <use xlink:href="#DejaVuSans-29" x="484.326172"/>
      </g>
     </g>
    </g>
    <g id="xtick_16">
     <g id="line2d_31">
      <path d="M 588.407099 474.4193 
L 588.407099 29.118125 
" clip-path="url(#p6582f0a531)" style="fill: none; stroke: #cccccc; stroke-linecap: round"/>
     </g>
     <g id="line2d_32">
      <g>
       <use xlink:href="#me721bde320" x="588.407099" y="474.4193" style="fill: #262626; stroke: #262626; stroke-width: 1.25"/>
      </g>
     </g>
     <g id="text_16">
      <!-- 31.07 (30) -->
      <g style="fill: #262626" transform="translate(546.082891 530.536088)rotate(-45)scale(0.11 -0.11)">
       <use xlink:href="#DejaVuSans-33"/>
       <use xlink:href="#DejaVuSans-31" x="63.623047"/>
       <use xlink:href="#DejaVuSans-2e" x="127.246094"/>
       <use xlink:href="#DejaVuSans-30" x="159.033203"/>
       <use xlink:href="#DejaVuSans-37" x="222.65625"/>
       <use xlink:href="#DejaVuSans-20" x="286.279297"/>
       <use xlink:href="#DejaVuSans-28" x="318.066406"/>
       <use xlink:href="#DejaVuSans-33" x="357.080078"/>
       <use xlink:href="#DejaVuSans-30" x="420.703125"/>
       <use xlink:href="#DejaVuSans-29" x="484.326172"/>
      </g>
     </g>
    </g>
    <g id="xtick_17">
     <g id="line2d_33">
      <path d="M 622.380293 474.4193 
L 622.380293 29.118125 
" clip-path="url(#p6582f0a531)" style="fill: none; stroke: #cccccc; stroke-linecap: round"/>
     </g>
     <g id="line2d_34">
      <g>
       <use xlink:href="#me721bde320" x="622.380293" y="474.4193" style="fill: #262626; stroke: #262626; stroke-width: 1.25"/>
      </g>
     </g>
     <g id="text_17">
      <!-- 28.08 (34) -->
      <g style="fill: #262626" transform="translate(580.056085 530.536088)rotate(-45)scale(0.11 -0.11)">
       <use xlink:href="#DejaVuSans-32"/>
       <use xlink:href="#DejaVuSans-38" x="63.623047"/>
       <use xlink:href="#DejaVuSans-2e" x="127.246094"/>
       <use xlink:href="#DejaVuSans-30" x="159.033203"/>
       <use xlink:href="#DejaVuSans-38" x="222.65625"/>
       <use xlink:href="#DejaVuSans-20" x="286.279297"/>
       <use xlink:href="#DejaVuSans-28" x="318.066406"/>
       <use xlink:href="#DejaVuSans-33" x="357.080078"/>
       <use xlink:href="#DejaVuSans-34" x="420.703125"/>
       <use xlink:href="#DejaVuSans-29" x="484.326172"/>
      </g>
     </g>
    </g>
    <g id="xtick_18">
     <g id="line2d_35">
      <path d="M 656.353486 474.4193 
L 656.353486 29.118125 
" clip-path="url(#p6582f0a531)" style="fill: none; stroke: #cccccc; stroke-linecap: round"/>
     </g>
     <g id="line2d_36">
      <g>
       <use xlink:href="#me721bde320" x="656.353486" y="474.4193" style="fill: #262626; stroke: #262626; stroke-width: 1.25"/>
      </g>
     </g>
     <g id="text_18">
      <!-- 25.09 (38) -->
      <g style="fill: #262626" transform="translate(614.029278 530.536088)rotate(-45)scale(0.11 -0.11)">
       <use xlink:href="#DejaVuSans-32"/>
       <use xlink:href="#DejaVuSans-35" x="63.623047"/>
       <use xlink:href="#DejaVuSans-2e" x="127.246094"/>
       <use xlink:href="#DejaVuSans-30" x="159.033203"/>
       <use xlink:href="#DejaVuSans-39" x="222.65625"/>
       <use xlink:href="#DejaVuSans-20" x="286.279297"/>
       <use xlink:href="#DejaVuSans-28" x="318.066406"/>
       <use xlink:href="#DejaVuSans-33" x="357.080078"/>
       <use xlink:href="#DejaVuSans-38" x="420.703125"/>
       <use xlink:href="#DejaVuSans-29" x="484.326172"/>
      </g>
     </g>
    </g>
    <g id="xtick_19">
     <g id="line2d_37">
      <path d="M 690.326679 474.4193 
L 690.326679 29.118125 
" clip-path="url(#p6582f0a531)" style="fill: none; stroke: #cccccc; stroke-linecap: round"/>
     </g>
     <g id="line2d_38">
      <g>
       <use xlink:href="#me721bde320" x="690.326679" y="474.4193" style="fill: #262626; stroke: #262626; stroke-width: 1.25"/>
      </g>
     </g>
     <g id="text_19">
      <!-- 23.10 (42) -->
      <g style="fill: #262626" transform="translate(648.002472 530.536088)rotate(-45)scale(0.11 -0.11)">
       <use xlink:href="#DejaVuSans-32"/>
       <use xlink:href="#DejaVuSans-33" x="63.623047"/>
       <use xlink:href="#DejaVuSans-2e" x="127.246094"/>
       <use xlink:href="#DejaVuSans-31" x="159.033203"/>
       <use xlink:href="#DejaVuSans-30" x="222.65625"/>
       <use xlink:href="#DejaVuSans-20" x="286.279297"/>
       <use xlink:href="#DejaVuSans-28" x="318.066406"/>
       <use xlink:href="#DejaVuSans-34" x="357.080078"/>
       <use xlink:href="#DejaVuSans-32" x="420.703125"/>
       <use xlink:href="#DejaVuSans-29" x="484.326172"/>
      </g>
     </g>
    </g>
    <g id="xtick_20">
     <g id="line2d_39">
      <path d="M 724.299873 474.4193 
L 724.299873 29.118125 
" clip-path="url(#p6582f0a531)" style="fill: none; stroke: #cccccc; stroke-linecap: round"/>
     </g>
     <g id="line2d_40">
      <g>
       <use xlink:href="#me721bde320" x="724.299873" y="474.4193" style="fill: #262626; stroke: #262626; stroke-width: 1.25"/>
      </g>
     </g>
     <g id="text_20">
      <!-- 20.11 (46) -->
      <g style="fill: #262626" transform="translate(681.975665 530.536088)rotate(-45)scale(0.11 -0.11)">
       <use xlink:href="#DejaVuSans-32"/>
       <use xlink:href="#DejaVuSans-30" x="63.623047"/>
       <use xlink:href="#DejaVuSans-2e" x="127.246094"/>
       <use xlink:href="#DejaVuSans-31" x="159.033203"/>
       <use xlink:href="#DejaVuSans-31" x="222.65625"/>
       <use xlink:href="#DejaVuSans-20" x="286.279297"/>
       <use xlink:href="#DejaVuSans-28" x="318.066406"/>
       <use xlink:href="#DejaVuSans-34" x="357.080078"/>
       <use xlink:href="#DejaVuSans-36" x="420.703125"/>
       <use xlink:href="#DejaVuSans-29" x="484.326172"/>
      </g>
     </g>
    </g>
    <g id="xtick_21">
     <g id="line2d_41">
      <defs>
       <path id="mdaf48df8f3" d="M 0 0 
L 0 4 
" style="stroke: #262626"/>
      </defs>
      <g>
       <use xlink:href="#mdaf48df8f3" x="53.329304" y="474.4193" style="fill: #262626; stroke: #262626"/>
      </g>
     </g>
    </g>
    <g id="xtick_22">
     <g id="line2d_42">
      <g>
       <use xlink:href="#mdaf48df8f3" x="61.822602" y="474.4193" style="fill: #262626; stroke: #262626"/>
      </g>
     </g>
    </g>
    <g id="xtick_23">
     <g id="line2d_43">
      <g>
       <use xlink:href="#mdaf48df8f3" x="70.3159" y="474.4193" style="fill: #262626; stroke: #262626"/>
      </g>
     </g>
    </g>
    <g id="xtick_24">
     <g id="line2d_44">
      <g>
       <use xlink:href="#mdaf48df8f3" x="87.302497" y="474.4193" style="fill: #262626; stroke: #262626"/>
      </g>
     </g>
    </g>
    <g id="xtick_25">
     <g id="line2d_45">
      <g>
       <use xlink:href="#mdaf48df8f3" x="95.795795" y="474.4193" style="fill: #262626; stroke: #262626"/>
      </g>
     </g>
    </g>
    <g id="xtick_26">
     <g id="line2d_46">
      <g>
       <use xlink:href="#mdaf48df8f3" x="104.289094" y="474.4193" style="fill: #262626; stroke: #262626"/>
      </g>
     </g>
    </g>
    <g id="xtick_27">
     <g id="line2d_47">
      <g>
       <use xlink:href="#mdaf48df8f3" x="121.27569" y="474.4193" style="fill: #262626; stroke: #262626"/>
      </g>
     </g>
    </g>
    <g id="xtick_28">
     <g id="line2d_48">
      <g>
       <use xlink:href="#mdaf48df8f3" x="129.768989" y="474.4193" style="fill: #262626; stroke: #262626"/>
      </g>
     </g>
    </g>
    <g id="xtick_29">
     <g id="line2d_49">
      <g>
       <use xlink:href="#mdaf48df8f3" x="138.262287" y="474.4193" style="fill: #262626; stroke: #262626"/>
      </g>
     </g>
    </g>
    <g id="xtick_30">
     <g id="line2d_50">
      <g>
       <use xlink:href="#mdaf48df8f3" x="155.248884" y="474.4193" style="fill: #262626; stroke: #262626"/>
      </g>
     </g>
    </g>
    <g id="xtick_31">
     <g id="line2d_51">
      <g>
       <use xlink:href="#mdaf48df8f3" x="163.742182" y="474.4193" style="fill: #262626; stroke: #262626"/>
      </g>
     </g>
    </g>
    <g id="xtick_32">
     <g id="line2d_52">
      <g>
       <use xlink:href="#mdaf48df8f3" x="172.23548" y="474.4193" style="fill: #262626; stroke: #262626"/>
      </g>
     </g>
    </g>
    <g id="xtick_33">
     <g id="line2d_53">
      <g>
       <use xlink:href="#mdaf48df8f3" x="189.222077" y="474.4193" style="fill: #262626; stroke: #262626"/>
      </g>
     </g>
    </g>
    <g id="xtick_34">
     <g id="line2d_54">
      <g>
       <use xlink:href="#mdaf48df8f3" x="197.715375" y="474.4193" style="fill: #262626; stroke: #262626"/>
      </g>
     </g>
    </g>
    <g id="xtick_35">
     <g id="line2d_55">
      <g>
       <use xlink:href="#mdaf48df8f3" x="206.208674" y="474.4193" style="fill: #262626; stroke: #262626"/>
      </g>
     </g>
    </g>
    <g id="xtick_36">
     <g id="line2d_56">
      <g>
       <use xlink:href="#mdaf48df8f3" x="223.19527" y="474.4193" style="fill: #262626; stroke: #262626"/>
      </g>
     </g>
    </g>
    <g id="xtick_37">
     <g id="line2d_57">
      <g>
       <use xlink:href="#mdaf48df8f3" x="231.688569" y="474.4193" style="fill: #262626; stroke: #262626"/>
      </g>
     </g>
    </g>
    <g id="xtick_38">
     <g id="line2d_58">
      <g>
       <use xlink:href="#mdaf48df8f3" x="240.181867" y="474.4193" style="fill: #262626; stroke: #262626"/>
      </g>
     </g>
    </g>
    <g id="xtick_39">
     <g id="line2d_59">
      <g>
       <use xlink:href="#mdaf48df8f3" x="257.168464" y="474.4193" style="fill: #262626; stroke: #262626"/>
      </g>
     </g>
    </g>
    <g id="xtick_40">
     <g id="line2d_60">
      <g>
       <use xlink:href="#mdaf48df8f3" x="265.661762" y="474.4193" style="fill: #262626; stroke: #262626"/>
      </g>
     </g>
    </g>
    <g id="xtick_41">
     <g id="line2d_61">
      <g>
       <use xlink:href="#mdaf48df8f3" x="274.155061" y="474.4193" style="fill: #262626; stroke: #262626"/>
      </g>
     </g>
    </g>
    <g id="xtick_42">
     <g id="line2d_62">
      <g>
       <use xlink:href="#mdaf48df8f3" x="291.141657" y="474.4193" style="fill: #262626; stroke: #262626"/>
      </g>
     </g>
    </g>
    <g id="xtick_43">
     <g id="line2d_63">
      <g>
       <use xlink:href="#mdaf48df8f3" x="299.634956" y="474.4193" style="fill: #262626; stroke: #262626"/>
      </g>
     </g>
    </g>
    <g id="xtick_44">
     <g id="line2d_64">
      <g>
       <use xlink:href="#mdaf48df8f3" x="308.128254" y="474.4193" style="fill: #262626; stroke: #262626"/>
      </g>
     </g>
    </g>
    <g id="xtick_45">
     <g id="line2d_65">
      <g>
       <use xlink:href="#mdaf48df8f3" x="325.114851" y="474.4193" style="fill: #262626; stroke: #262626"/>
      </g>
     </g>
    </g>
    <g id="xtick_46">
     <g id="line2d_66">
      <g>
       <use xlink:href="#mdaf48df8f3" x="333.608149" y="474.4193" style="fill: #262626; stroke: #262626"/>
      </g>
     </g>
    </g>
    <g id="xtick_47">
     <g id="line2d_67">
      <g>
       <use xlink:href="#mdaf48df8f3" x="342.101447" y="474.4193" style="fill: #262626; stroke: #262626"/>
      </g>
     </g>
    </g>
    <g id="xtick_48">
     <g id="line2d_68">
      <g>
       <use xlink:href="#mdaf48df8f3" x="359.088044" y="474.4193" style="fill: #262626; stroke: #262626"/>
      </g>
     </g>
    </g>
    <g id="xtick_49">
     <g id="line2d_69">
      <g>
       <use xlink:href="#mdaf48df8f3" x="367.581342" y="474.4193" style="fill: #262626; stroke: #262626"/>
      </g>
     </g>
    </g>
    <g id="xtick_50">
     <g id="line2d_70">
      <g>
       <use xlink:href="#mdaf48df8f3" x="376.074641" y="474.4193" style="fill: #262626; stroke: #262626"/>
      </g>
     </g>
    </g>
    <g id="xtick_51">
     <g id="line2d_71">
      <g>
       <use xlink:href="#mdaf48df8f3" x="393.061237" y="474.4193" style="fill: #262626; stroke: #262626"/>
      </g>
     </g>
    </g>
    <g id="xtick_52">
     <g id="line2d_72">
      <g>
       <use xlink:href="#mdaf48df8f3" x="401.554536" y="474.4193" style="fill: #262626; stroke: #262626"/>
      </g>
     </g>
    </g>
    <g id="xtick_53">
     <g id="line2d_73">
      <g>
       <use xlink:href="#mdaf48df8f3" x="410.047834" y="474.4193" style="fill: #262626; stroke: #262626"/>
      </g>
     </g>
    </g>
    <g id="xtick_54">
     <g id="line2d_74">
      <g>
       <use xlink:href="#mdaf48df8f3" x="427.034431" y="474.4193" style="fill: #262626; stroke: #262626"/>
      </g>
     </g>
    </g>
    <g id="xtick_55">
     <g id="line2d_75">
      <g>
       <use xlink:href="#mdaf48df8f3" x="435.527729" y="474.4193" style="fill: #262626; stroke: #262626"/>
      </g>
     </g>
    </g>
    <g id="xtick_56">
     <g id="line2d_76">
      <g>
       <use xlink:href="#mdaf48df8f3" x="444.021027" y="474.4193" style="fill: #262626; stroke: #262626"/>
      </g>
     </g>
    </g>
    <g id="xtick_57">
     <g id="line2d_77">
      <g>
       <use xlink:href="#mdaf48df8f3" x="461.007624" y="474.4193" style="fill: #262626; stroke: #262626"/>
      </g>
     </g>
    </g>
    <g id="xtick_58">
     <g id="line2d_78">
      <g>
       <use xlink:href="#mdaf48df8f3" x="469.500922" y="474.4193" style="fill: #262626; stroke: #262626"/>
      </g>
     </g>
    </g>
    <g id="xtick_59">
     <g id="line2d_79">
      <g>
       <use xlink:href="#mdaf48df8f3" x="477.994221" y="474.4193" style="fill: #262626; stroke: #262626"/>
      </g>
     </g>
    </g>
    <g id="xtick_60">
     <g id="line2d_80">
      <g>
       <use xlink:href="#mdaf48df8f3" x="494.980817" y="474.4193" style="fill: #262626; stroke: #262626"/>
      </g>
     </g>
    </g>
    <g id="xtick_61">
     <g id="line2d_81">
      <g>
       <use xlink:href="#mdaf48df8f3" x="503.474116" y="474.4193" style="fill: #262626; stroke: #262626"/>
      </g>
     </g>
    </g>
    <g id="xtick_62">
     <g id="line2d_82">
      <g>
       <use xlink:href="#mdaf48df8f3" x="511.967414" y="474.4193" style="fill: #262626; stroke: #262626"/>
      </g>
     </g>
    </g>
    <g id="xtick_63">
     <g id="line2d_83">
      <g>
       <use xlink:href="#mdaf48df8f3" x="528.954011" y="474.4193" style="fill: #262626; stroke: #262626"/>
      </g>
     </g>
    </g>
    <g id="xtick_64">
     <g id="line2d_84">
      <g>
       <use xlink:href="#mdaf48df8f3" x="537.447309" y="474.4193" style="fill: #262626; stroke: #262626"/>
      </g>
     </g>
    </g>
    <g id="xtick_65">
     <g id="line2d_85">
      <g>
       <use xlink:href="#mdaf48df8f3" x="545.940608" y="474.4193" style="fill: #262626; stroke: #262626"/>
      </g>
     </g>
    </g>
    <g id="xtick_66">
     <g id="line2d_86">
      <g>
       <use xlink:href="#mdaf48df8f3" x="562.927204" y="474.4193" style="fill: #262626; stroke: #262626"/>
      </g>
     </g>
    </g>
    <g id="xtick_67">
     <g id="line2d_87">
      <g>
       <use xlink:href="#mdaf48df8f3" x="571.420503" y="474.4193" style="fill: #262626; stroke: #262626"/>
      </g>
     </g>
    </g>
    <g id="xtick_68">
     <g id="line2d_88">
      <g>
       <use xlink:href="#mdaf48df8f3" x="579.913801" y="474.4193" style="fill: #262626; stroke: #262626"/>
      </g>
     </g>
    </g>
    <g id="xtick_69">
     <g id="line2d_89">
      <g>
       <use xlink:href="#mdaf48df8f3" x="596.900398" y="474.4193" style="fill: #262626; stroke: #262626"/>
      </g>
     </g>
    </g>
    <g id="xtick_70">
     <g id="line2d_90">
      <g>
       <use xlink:href="#mdaf48df8f3" x="605.393696" y="474.4193" style="fill: #262626; stroke: #262626"/>
      </g>
     </g>
    </g>
    <g id="xtick_71">
     <g id="line2d_91">
      <g>
       <use xlink:href="#mdaf48df8f3" x="613.886994" y="474.4193" style="fill: #262626; stroke: #262626"/>
      </g>
     </g>
    </g>
    <g id="xtick_72">
     <g id="line2d_92">
      <g>
       <use xlink:href="#mdaf48df8f3" x="630.873591" y="474.4193" style="fill: #262626; stroke: #262626"/>
      </g>
     </g>
    </g>
    <g id="xtick_73">
     <g id="line2d_93">
      <g>
       <use xlink:href="#mdaf48df8f3" x="639.366889" y="474.4193" style="fill: #262626; stroke: #262626"/>
      </g>
     </g>
    </g>
    <g id="xtick_74">
     <g id="line2d_94">
      <g>
       <use xlink:href="#mdaf48df8f3" x="647.860188" y="474.4193" style="fill: #262626; stroke: #262626"/>
      </g>
     </g>
    </g>
    <g id="xtick_75">
     <g id="line2d_95">
      <g>
       <use xlink:href="#mdaf48df8f3" x="664.846784" y="474.4193" style="fill: #262626; stroke: #262626"/>
      </g>
     </g>
    </g>
    <g id="xtick_76">
     <g id="line2d_96">
      <g>
       <use xlink:href="#mdaf48df8f3" x="673.340083" y="474.4193" style="fill: #262626; stroke: #262626"/>
      </g>
     </g>
    </g>
    <g id="xtick_77">
     <g id="line2d_97">
      <g>
       <use xlink:href="#mdaf48df8f3" x="681.833381" y="474.4193" style="fill: #262626; stroke: #262626"/>
      </g>
     </g>
    </g>
    <g id="xtick_78">
     <g id="line2d_98">
      <g>
       <use xlink:href="#mdaf48df8f3" x="698.819978" y="474.4193" style="fill: #262626; stroke: #262626"/>
      </g>
     </g>
    </g>
    <g id="xtick_79">
     <g id="line2d_99">
      <g>
       <use xlink:href="#mdaf48df8f3" x="707.313276" y="474.4193" style="fill: #262626; stroke: #262626"/>
      </g>
     </g>
    </g>
    <g id="xtick_80">
     <g id="line2d_100">
      <g>
       <use xlink:href="#mdaf48df8f3" x="715.806574" y="474.4193" style="fill: #262626; stroke: #262626"/>
      </g>
     </g>
    </g>
    <g id="xtick_81">
     <g id="line2d_101">
      <g>
       <use xlink:href="#mdaf48df8f3" x="732.793171" y="474.4193" style="fill: #262626; stroke: #262626"/>
      </g>
     </g>
    </g>
    <g id="xtick_82">
     <g id="line2d_102">
      <g>
       <use xlink:href="#mdaf48df8f3" x="741.286469" y="474.4193" style="fill: #262626; stroke: #262626"/>
      </g>
     </g>
    </g>
    <g id="xtick_83">
     <g id="line2d_103">
      <g>
       <use xlink:href="#mdaf48df8f3" x="749.779768" y="474.4193" style="fill: #262626; stroke: #262626"/>
      </g>
     </g>
    </g>
    <g id="xtick_84">
     <g id="line2d_104">
      <g>
       <use xlink:href="#mdaf48df8f3" x="758.273066" y="474.4193" style="fill: #262626; stroke: #262626"/>
      </g>
     </g>
    </g>
    <g id="text_21">
     <!-- Week -->
     <g style="fill: #262626" transform="translate(389.36306 545.271831)scale(0.12 -0.12)">
      <defs>
       <path id="DejaVuSans-57" d="M 213 4666 
L 850 4666 
L 1831 722 
L 2809 4666 
L 3519 4666 
L 4500 722 
L 5478 4666 
L 6119 4666 
L 4947 0 
L 4153 0 
L 3169 4050 
L 2175 0 
L 1381 0 
L 213 4666 
z
" transform="scale(0.015625)"/>
       <path id="DejaVuSans-65" d="M 3597 1894 
L 3597 1613 
L 953 1613 
Q 991 1019 1311 708 
Q 1631 397 2203 397 
Q 2534 397 2845 478 
Q 3156 559 3463 722 
L 3463 178 
Q 3153 47 2828 -22 
Q 2503 -91 2169 -91 
Q 1331 -91 842 396 
Q 353 884 353 1716 
Q 353 2575 817 3079 
Q 1281 3584 2069 3584 
Q 2775 3584 3186 3129 
Q 3597 2675 3597 1894 
z
M 3022 2063 
Q 3016 2534 2758 2815 
Q 2500 3097 2075 3097 
Q 1594 3097 1305 2825 
Q 1016 2553 972 2059 
L 3022 2063 
z
" transform="scale(0.015625)"/>
       <path id="DejaVuSans-6b" d="M 581 4863 
L 1159 4863 
L 1159 1991 
L 2875 3500 
L 3609 3500 
L 1753 1863 
L 3688 0 
L 2938 0 
L 1159 1709 
L 1159 0 
L 581 0 
L 581 4863 
z
" transform="scale(0.015625)"/>
      </defs>
      <use xlink:href="#DejaVuSans-57"/>
      <use xlink:href="#DejaVuSans-65" x="93.001953"/>
      <use xlink:href="#DejaVuSans-65" x="154.525391"/>
      <use xlink:href="#DejaVuSans-6b" x="216.048828"/>
     </g>
    </g>
   </g>
   <g id="matplotlib.axis_2">
    <g id="ytick_1">
     <g id="line2d_105">
      <path d="M 46.11 454.178338 
L 765.49237 454.178338 
" clip-path="url(#p6582f0a531)" style="fill: none; stroke: #cccccc; stroke-linecap: round"/>
     </g>
     <g id="line2d_106">
      <defs>
       <path id="m4c6e2ecc10" d="M 0 0 
L -6 0 
" style="stroke: #262626; stroke-width: 1.25"/>
      </defs>
      <g>
       <use xlink:href="#m4c6e2ecc10" x="46.11" y="454.178338" style="fill: #262626; stroke: #262626; stroke-width: 1.25"/>
      </g>
     </g>
     <g id="text_22">
      <!-- 0 -->
      <g style="fill: #262626" transform="translate(29.61125 458.357478)scale(0.11 -0.11)">
       <use xlink:href="#DejaVuSans-30"/>
      </g>
     </g>
    </g>
    <g id="ytick_2">
     <g id="line2d_107">
      <path d="M 46.11 366.242426 
L 765.49237 366.242426 
" clip-path="url(#p6582f0a531)" style="fill: none; stroke: #cccccc; stroke-linecap: round"/>
     </g>
     <g id="line2d_108">
      <g>
       <use xlink:href="#m4c6e2ecc10" x="46.11" y="366.242426" style="fill: #262626; stroke: #262626; stroke-width: 1.25"/>
      </g>
     </g>
     <g id="text_23">
      <!-- 200 -->
      <g style="fill: #262626" transform="translate(15.61375 370.421567)scale(0.11 -0.11)">
       <use xlink:href="#DejaVuSans-32"/>
       <use xlink:href="#DejaVuSans-30" x="63.623047"/>
       <use xlink:href="#DejaVuSans-30" x="127.246094"/>
      </g>
     </g>
    </g>
    <g id="ytick_3">
     <g id="line2d_109">
      <path d="M 46.11 278.306515 
L 765.49237 278.306515 
" clip-path="url(#p6582f0a531)" style="fill: none; stroke: #cccccc; stroke-linecap: round"/>
     </g>
     <g id="line2d_110">
      <g>
       <use xlink:href="#m4c6e2ecc10" x="46.11" y="278.306515" style="fill: #262626; stroke: #262626; stroke-width: 1.25"/>
      </g>
     </g>
     <g id="text_24">
      <!-- 400 -->
      <g style="fill: #262626" transform="translate(15.61375 282.485655)scale(0.11 -0.11)">
       <use xlink:href="#DejaVuSans-34"/>
       <use xlink:href="#DejaVuSans-30" x="63.623047"/>
       <use xlink:href="#DejaVuSans-30" x="127.246094"/>
      </g>
     </g>
    </g>
    <g id="ytick_4">
     <g id="line2d_111">
      <path d="M 46.11 190.370603 
L 765.49237 190.370603 
" clip-path="url(#p6582f0a531)" style="fill: none; stroke: #cccccc; stroke-linecap: round"/>
     </g>
     <g id="line2d_112">
      <g>
       <use xlink:href="#m4c6e2ecc10" x="46.11" y="190.370603" style="fill: #262626; stroke: #262626; stroke-width: 1.25"/>
      </g>
     </g>
     <g id="text_25">
      <!-- 600 -->
      <g style="fill: #262626" transform="translate(15.61375 194.549744)scale(0.11 -0.11)">
       <use xlink:href="#DejaVuSans-36"/>
       <use xlink:href="#DejaVuSans-30" x="63.623047"/>
       <use xlink:href="#DejaVuSans-30" x="127.246094"/>
      </g>
     </g>
    </g>
    <g id="ytick_5">
     <g id="line2d_113">
      <path d="M 46.11 102.434691 
L 765.49237 102.434691 
" clip-path="url(#p6582f0a531)" style="fill: none; stroke: #cccccc; stroke-linecap: round"/>
     </g>
     <g id="line2d_114">
      <g>
       <use xlink:href="#m4c6e2ecc10" x="46.11" y="102.434691" style="fill: #262626; stroke: #262626; stroke-width: 1.25"/>
      </g>
     </g>
     <g id="text_26">
      <!-- 800 -->
      <g style="fill: #262626" transform="translate(15.61375 106.613832)scale(0.11 -0.11)">
       <use xlink:href="#DejaVuSans-38"/>
       <use xlink:href="#DejaVuSans-30" x="63.623047"/>
       <use xlink:href="#DejaVuSans-30" x="127.246094"/>
      </g>
     </g>
    </g>
    <g id="text_27">
     <!-- New cases (average) -->
     <g style="fill: #262626" transform="translate(9.118125 314.835275)rotate(-90)scale(0.12 -0.12)">
      <defs>
       <path id="DejaVuSans-4e" d="M 628 4666 
L 1478 4666 
L 3547 763 
L 3547 4666 
L 4159 4666 
L 4159 0 
L 3309 0 
L 1241 3903 
L 1241 0 
L 628 0 
L 628 4666 
z
" transform="scale(0.015625)"/>
       <path id="DejaVuSans-77" d="M 269 3500 
L 844 3500 
L 1563 769 
L 2278 3500 
L 2956 3500 
L 3675 769 
L 4391 3500 
L 4966 3500 
L 4050 0 
L 3372 0 
L 2619 2869 
L 1863 0 
L 1184 0 
L 269 3500 
z
" transform="scale(0.015625)"/>
       <path id="DejaVuSans-63" d="M 3122 3366 
L 3122 2828 
Q 2878 2963 2633 3030 
Q 2388 3097 2138 3097 
Q 1578 3097 1268 2742 
Q 959 2388 959 1747 
Q 959 1106 1268 751 
Q 1578 397 2138 397 
Q 2388 397 2633 464 
Q 2878 531 3122 666 
L 3122 134 
Q 2881 22 2623 -34 
Q 2366 -91 2075 -91 
Q 1284 -91 818 406 
Q 353 903 353 1747 
Q 353 2603 823 3093 
Q 1294 3584 2113 3584 
Q 2378 3584 2631 3529 
Q 2884 3475 3122 3366 
z
" transform="scale(0.015625)"/>
       <path id="DejaVuSans-61" d="M 2194 1759 
Q 1497 1759 1228 1600 
Q 959 1441 959 1056 
Q 959 750 1161 570 
Q 1363 391 1709 391 
Q 2188 391 2477 730 
Q 2766 1069 2766 1631 
L 2766 1759 
L 2194 1759 
z
M 3341 1997 
L 3341 0 
L 2766 0 
L 2766 531 
Q 2569 213 2275 61 
Q 1981 -91 1556 -91 
Q 1019 -91 701 211 
Q 384 513 384 1019 
Q 384 1609 779 1909 
Q 1175 2209 1959 2209 
L 2766 2209 
L 2766 2266 
Q 2766 2663 2505 2880 
Q 2244 3097 1772 3097 
Q 1472 3097 1187 3025 
Q 903 2953 641 2809 
L 641 3341 
Q 956 3463 1253 3523 
Q 1550 3584 1831 3584 
Q 2591 3584 2966 3190 
Q 3341 2797 3341 1997 
z
" transform="scale(0.015625)"/>
       <path id="DejaVuSans-73" d="M 2834 3397 
L 2834 2853 
Q 2591 2978 2328 3040 
Q 2066 3103 1784 3103 
Q 1356 3103 1142 2972 
Q 928 2841 928 2578 
Q 928 2378 1081 2264 
Q 1234 2150 1697 2047 
L 1894 2003 
Q 2506 1872 2764 1633 
Q 3022 1394 3022 966 
Q 3022 478 2636 193 
Q 2250 -91 1575 -91 
Q 1294 -91 989 -36 
Q 684 19 347 128 
L 347 722 
Q 666 556 975 473 
Q 1284 391 1588 391 
Q 1994 391 2212 530 
Q 2431 669 2431 922 
Q 2431 1156 2273 1281 
Q 2116 1406 1581 1522 
L 1381 1569 
Q 847 1681 609 1914 
Q 372 2147 372 2553 
Q 372 3047 722 3315 
Q 1072 3584 1716 3584 
Q 2034 3584 2315 3537 
Q 2597 3491 2834 3397 
z
" transform="scale(0.015625)"/>
       <path id="DejaVuSans-76" d="M 191 3500 
L 800 3500 
L 1894 563 
L 2988 3500 
L 3597 3500 
L 2284 0 
L 1503 0 
L 191 3500 
z
" transform="scale(0.015625)"/>
       <path id="DejaVuSans-72" d="M 2631 2963 
Q 2534 3019 2420 3045 
Q 2306 3072 2169 3072 
Q 1681 3072 1420 2755 
Q 1159 2438 1159 1844 
L 1159 0 
L 581 0 
L 581 3500 
L 1159 3500 
L 1159 2956 
Q 1341 3275 1631 3429 
Q 1922 3584 2338 3584 
Q 2397 3584 2469 3576 
Q 2541 3569 2628 3553 
L 2631 2963 
z
" transform="scale(0.015625)"/>
       <path id="DejaVuSans-67" d="M 2906 1791 
Q 2906 2416 2648 2759 
Q 2391 3103 1925 3103 
Q 1463 3103 1205 2759 
Q 947 2416 947 1791 
Q 947 1169 1205 825 
Q 1463 481 1925 481 
Q 2391 481 2648 825 
Q 2906 1169 2906 1791 
z
M 3481 434 
Q 3481 -459 3084 -895 
Q 2688 -1331 1869 -1331 
Q 1566 -1331 1297 -1286 
Q 1028 -1241 775 -1147 
L 775 -588 
Q 1028 -725 1275 -790 
Q 1522 -856 1778 -856 
Q 2344 -856 2625 -561 
Q 2906 -266 2906 331 
L 2906 616 
Q 2728 306 2450 153 
Q 2172 0 1784 0 
Q 1141 0 747 490 
Q 353 981 353 1791 
Q 353 2603 747 3093 
Q 1141 3584 1784 3584 
Q 2172 3584 2450 3431 
Q 2728 3278 2906 2969 
L 2906 3500 
L 3481 3500 
L 3481 434 
z
" transform="scale(0.015625)"/>
      </defs>
      <use xlink:href="#DejaVuSans-4e"/>
      <use xlink:href="#DejaVuSans-65" x="74.804688"/>
      <use xlink:href="#DejaVuSans-77" x="136.328125"/>
      <use xlink:href="#DejaVuSans-20" x="218.115234"/>
      <use xlink:href="#DejaVuSans-63" x="249.902344"/>
      <use xlink:href="#DejaVuSans-61" x="304.882812"/>
      <use xlink:href="#DejaVuSans-73" x="366.162109"/>
      <use xlink:href="#DejaVuSans-65" x="418.261719"/>
      <use xlink:href="#DejaVuSans-73" x="479.785156"/>
      <use xlink:href="#DejaVuSans-20" x="531.884766"/>
      <use xlink:href="#DejaVuSans-28" x="563.671875"/>
      <use xlink:href="#DejaVuSans-61" x="602.685547"/>
      <use xlink:href="#DejaVuSans-76" x="663.964844"/>
      <use xlink:href="#DejaVuSans-65" x="723.144531"/>
      <use xlink:href="#DejaVuSans-72" x="784.667969"/>
      <use xlink:href="#DejaVuSans-61" x="825.78125"/>
      <use xlink:href="#DejaVuSans-67" x="887.060547"/>
      <use xlink:href="#DejaVuSans-65" x="950.537109"/>
      <use xlink:href="#DejaVuSans-29" x="1012.060547"/>
     </g>
    </g>
   </g>
   <g id="line2d_115">
    <path d="M 78.809199 451.97994 
L 87.302497 450.346845 
L 95.795795 450.032788 
L 104.289094 451.226204 
L 112.782392 445.635992 
L 121.27569 439.731724 
L 129.768989 444.002897 
L 138.262287 444.128519 
L 146.755585 448.77656 
L 155.248884 449.404674 
L 163.742182 448.964995 
L 172.23548 451.414638 
L 180.728779 452.545242 
L 189.222077 451.728695 
L 197.715375 451.226204 
L 206.208674 450.912147 
L 214.701972 447.83439 
L 223.19527 447.080654 
L 231.688569 442.055744 
L 240.181867 435.711796 
L 248.675166 420.888314 
L 257.168464 400.47462 
L 265.661762 399.658073 
L 274.155061 414.544366 
L 282.648359 421.579239 
L 291.141657 425.410732 
L 299.634956 431.817492 
L 308.128254 435.774608 
L 316.621552 443.500406 
L 325.114851 446.766597 
L 333.608149 447.269088 
L 342.101447 444.002897 
L 350.594746 447.206276 
L 359.088044 447.269088 
L 367.581342 443.311972 
L 376.074641 442.495424 
L 384.567939 439.606101 
L 393.061237 438.475497 
L 401.554536 428.111621 
L 410.047834 419.946144 
L 418.541132 406.88138 
L 427.034431 390.047934 
L 435.527729 406.88138 
L 444.021027 413.225328 
L 452.514326 422.772655 
L 461.007624 424.091694 
L 469.500922 426.604148 
L 477.994221 433.827455 
L 486.487519 445.07069 
L 494.980817 448.085635 
L 503.474116 448.022824 
L 511.967414 450.409656 
L 520.460713 449.467485 
L 528.954011 451.351826 
L 537.447309 451.603072 
L 545.940608 451.603072 
L 554.433906 451.917129 
L 562.927204 452.105563 
L 571.420503 451.163392 
L 579.913801 449.090617 
L 588.407099 438.475497 
L 596.900398 427.60913 
L 605.393696 411.152553 
L 613.886994 403.740811 
L 622.380293 398.841525 
L 630.873591 409.896325 
L 639.366889 418.815539 
L 647.860188 412.471591 
L 656.353486 396.894373 
L 664.846784 359.458799 
L 673.340083 348.718055 
L 681.833381 329.560589 
L 690.326679 284.964519 
L 698.819978 293.067185 
L 707.313276 335.778914 
L 715.806574 368.189579 
L 724.299873 387.221422 
L 732.793171 386.970177 
" clip-path="url(#p6582f0a531)" style="fill: none; stroke: #a6cee3; stroke-width: 1.5; stroke-linecap: round"/>
   </g>
   <g id="line2d_116">
    <path d="M 78.809199 451.100581 
L 87.302497 451.477449 
L 95.795795 450.974958 
L 104.289094 447.080654 
L 112.782392 444.442576 
L 121.27569 434.01589 
L 129.768989 439.668912 
L 138.262287 436.968024 
L 146.755585 445.384747 
L 155.248884 445.007879 
L 163.742182 449.279051 
L 172.23548 448.77656 
L 180.728779 447.83439 
L 189.222077 447.457522 
L 197.715375 448.713749 
L 206.208674 448.525315 
L 214.701972 448.27407 
L 223.19527 442.997915 
L 231.688569 432.508417 
L 240.181867 418.124614 
L 248.675166 385.399893 
L 257.168464 336.030159 
L 265.661762 315.490843 
L 274.155061 322.902584 
L 282.648359 334.459875 
L 291.141657 355.124815 
L 299.634956 373.026054 
L 308.128254 382.259324 
L 316.621552 411.529421 
L 325.114851 431.440624 
L 333.608149 433.073719 
L 342.101447 425.724789 
L 350.594746 439.480478 
L 359.088044 441.239197 
L 367.581342 436.653967 
L 376.074641 431.503435 
L 384.567939 426.981017 
L 393.061237 422.144541 
L 401.554536 404.934227 
L 410.047834 393.56537 
L 418.541132 363.353103 
L 427.034431 324.724114 
L 435.527729 324.158811 
L 444.021027 331.44493 
L 452.514326 367.310219 
L 461.007624 392.560388 
L 469.500922 410.398816 
L 477.994221 421.453616 
L 486.487519 435.648985 
L 494.980817 436.653967 
L 503.474116 443.437594 
L 511.967414 447.960013 
L 520.460713 447.457522 
L 528.954011 450.472467 
L 537.447309 450.59809 
L 545.940608 451.163392 
L 554.433906 450.974958 
L 562.927204 451.289015 
L 571.420503 449.969976 
L 579.913801 447.457522 
L 588.407099 436.968024 
L 596.900398 417.998991 
L 605.393696 386.781743 
L 613.886994 371.078901 
L 622.380293 369.257372 
L 630.873591 380.940286 
L 639.366889 397.208429 
L 647.860188 391.932275 
L 656.353486 400.348998 
L 664.846784 387.472668 
L 673.340083 382.51057 
L 681.833381 346.582469 
L 690.326679 283.394235 
L 698.819978 243.634641 
L 707.313276 265.995487 
L 715.806574 320.578564 
L 724.299873 348.403998 
L 732.793171 358.893496 
" clip-path="url(#p6582f0a531)" style="fill: none; stroke: #1f78b4; stroke-width: 1.5; stroke-linecap: round"/>
   </g>
   <g id="line2d_117">
    <path d="M 78.809199 450.660901 
L 87.302497 448.336881 
L 95.795795 448.462504 
L 104.289094 445.635992 
L 112.782392 442.997915 
L 121.27569 436.653967 
L 129.768989 436.842401 
L 138.262287 436.653967 
L 146.755585 439.54329 
L 155.248884 440.799517 
L 163.742182 445.698804 
L 172.23548 445.635992 
L 180.728779 444.756633 
L 189.222077 444.568199 
L 197.715375 444.128519 
L 206.208674 445.698804 
L 214.701972 443.186349 
L 223.19527 439.731724 
L 231.688569 424.531373 
L 240.181867 398.401845 
L 248.675166 353.366096 
L 257.168464 260.091219 
L 265.661762 191.249962 
L 274.155061 196.274871 
L 282.648359 215.809206 
L 291.141657 254.124139 
L 299.634956 281.258649 
L 308.128254 304.059174 
L 316.621552 363.541538 
L 325.114851 409.016966 
L 333.608149 412.911271 
L 342.101447 407.509493 
L 350.594746 425.28511 
L 359.088044 426.22728 
L 367.581342 420.134578 
L 376.074641 406.944191 
L 384.567939 395.638145 
L 393.061237 388.791706 
L 401.554536 357.19759 
L 410.047834 333.580516 
L 418.541132 285.655444 
L 427.034431 212.040524 
L 435.527729 223.095324 
L 444.021027 239.551902 
L 452.514326 298.908642 
L 461.007624 341.808805 
L 469.500922 369.571429 
L 477.994221 394.193484 
L 486.487519 416.742764 
L 494.980817 425.347921 
L 503.474116 438.098628 
L 511.967414 443.563217 
L 520.460713 444.945067 
L 528.954011 448.839372 
L 537.447309 448.525315 
L 545.940608 450.974958 
L 554.433906 450.346845 
L 562.927204 450.723713 
L 571.420503 449.21624 
L 579.913801 446.326917 
L 588.407099 440.108592 
L 596.900398 425.661978 
L 605.393696 402.73583 
L 613.886994 364.860576 
L 622.380293 348.592433 
L 630.873591 356.569476 
L 639.366889 367.373031 
L 647.860188 354.93638 
L 656.353486 365.425878 
L 664.846784 334.459875 
L 673.340083 311.094047 
L 681.833381 258.646557 
L 690.326679 165.497302 
L 698.819978 105.009957 
L 707.313276 132.521335 
L 715.806574 215.809206 
L 724.299873 278.494949 
L 732.793171 293.004374 
" clip-path="url(#p6582f0a531)" style="fill: none; stroke: #b2df8a; stroke-width: 1.5; stroke-linecap: round"/>
   </g>
   <g id="line2d_118">
    <path d="M 78.809199 449.781542 
L 87.302497 447.520333 
L 95.795795 446.45254 
L 104.289094 445.196313 
L 112.782392 442.432613 
L 121.27569 439.417667 
L 129.768989 436.653967 
L 138.262287 434.706815 
L 146.755585 436.33991 
L 155.248884 437.219269 
L 163.742182 442.872292 
L 172.23548 445.196313 
L 180.728779 443.751651 
L 189.222077 445.761615 
L 197.715375 445.447558 
L 206.208674 444.065708 
L 214.701972 439.668912 
L 223.19527 436.277099 
L 231.688569 418.124614 
L 240.181867 393.56537 
L 248.675166 342.374107 
L 257.168464 237.60475 
L 265.661762 153.751577 
L 274.155061 144.141438 
L 282.648359 162.1683 
L 291.141657 200.169176 
L 299.634956 226.612761 
L 308.128254 251.234816 
L 316.621552 331.633364 
L 325.114851 394.821598 
L 333.608149 398.213411 
L 342.101447 398.464657 
L 350.594746 419.506464 
L 359.088044 421.13956 
L 367.581342 406.567323 
L 376.074641 397.082807 
L 384.567939 386.907365 
L 393.061237 373.528545 
L 401.554536 331.44493 
L 410.047834 299.034265 
L 418.541132 240.870941 
L 427.034431 160.974884 
L 435.527729 160.723638 
L 444.021027 181.451389 
L 452.514326 253.747271 
L 461.007624 312.664332 
L 469.500922 345.137807 
L 477.994221 383.515552 
L 486.487519 409.519457 
L 494.980817 415.423725 
L 503.474116 431.377812 
L 511.967414 439.606101 
L 520.460713 444.002897 
L 528.954011 446.766597 
L 537.447309 448.148447 
L 545.940608 448.713749 
L 554.433906 449.530297 
L 562.927204 450.095599 
L 571.420503 449.718731 
L 579.913801 446.955031 
L 588.407099 440.548272 
L 596.900398 425.724789 
L 605.393696 404.431736 
L 613.886994 375.224451 
L 622.380293 348.969301 
L 630.873591 344.698128 
L 639.366889 358.265383 
L 647.860188 344.384071 
L 656.353486 347.964319 
L 664.846784 317.18675 
L 673.340083 293.192808 
L 681.833381 232.956709 
L 690.326679 106.894298 
L 698.819978 49.359088 
L 707.313276 85.601245 
L 715.806574 189.30281 
L 724.299873 266.435167 
L 732.793171 281.070215 
" clip-path="url(#p6582f0a531)" style="fill: none; stroke: #33a02c; stroke-width: 1.5; stroke-linecap: round"/>
   </g>
   <g id="line2d_119">
    <path d="M 78.809199 451.100581 
L 87.302497 445.573181 
L 95.795795 447.331899 
L 104.289094 444.819444 
L 112.782392 442.30699 
L 121.27569 440.611083 
L 129.768989 439.354856 
L 138.262287 436.088665 
L 146.755585 436.842401 
L 155.248884 434.01589 
L 163.742182 441.427631 
L 172.23548 443.68884 
L 180.728779 443.123538 
L 189.222077 444.819444 
L 197.715375 443.374783 
L 206.208674 442.244178 
L 214.701972 440.171403 
L 223.19527 435.774608 
L 231.688569 420.762691 
L 240.181867 393.753804 
L 248.675166 356.31823 
L 257.168464 273.407228 
L 265.661762 183.712598 
L 274.155061 149.982895 
L 282.648359 136.980942 
L 291.141657 168.009757 
L 299.634956 193.762417 
L 308.128254 208.899956 
L 316.621552 294.19779 
L 325.114851 374.784772 
L 333.608149 386.279252 
L 342.101447 390.990104 
L 350.594746 417.4965 
L 359.088044 419.506464 
L 367.581342 404.682982 
L 376.074641 391.24135 
L 384.567939 378.993133 
L 393.061237 369.257372 
L 401.554536 333.957384 
L 410.047834 293.192808 
L 418.541132 241.7503 
L 427.034431 166.941964 
L 435.527729 145.586099 
L 444.021027 154.944993 
L 452.514326 217.81917 
L 461.007624 285.278576 
L 469.500922 329.434966 
L 477.994221 365.300256 
L 486.487519 395.826579 
L 494.980817 410.775684 
L 503.474116 431.377812 
L 511.967414 437.910194 
L 520.460713 442.118556 
L 528.954011 445.07069 
L 537.447309 446.640974 
L 545.940608 448.77656 
L 554.433906 448.964995 
L 562.927204 449.718731 
L 571.420503 450.095599 
L 579.913801 448.902183 
L 588.407099 443.123538 
L 596.900398 434.329946 
L 605.393696 413.539384 
L 613.886994 385.27427 
L 622.380293 355.501683 
L 630.873591 347.524639 
L 639.366889 356.129796 
L 647.860188 333.266459 
L 656.353486 339.547596 
L 664.846784 325.289416 
L 673.340083 303.179815 
L 681.833381 258.018444 
L 690.326679 154.191256 
L 698.819978 104.067787 
L 707.313276 129.192333 
L 715.806574 202.17914 
L 724.299873 266.874846 
L 732.793171 288.67039 
" clip-path="url(#p6582f0a531)" style="fill: none; stroke: #fb9a99; stroke-width: 1.5; stroke-linecap: round"/>
   </g>
   <g id="line2d_120">
    <path d="M 78.809199 452.41962 
L 87.302497 450.284033 
L 95.795795 447.771579 
L 104.289094 447.457522 
L 112.782392 446.326917 
L 121.27569 445.384747 
L 129.768989 444.505388 
L 138.262287 439.920158 
L 146.755585 438.977987 
L 155.248884 439.606101 
L 163.742182 442.935103 
L 172.23548 443.374783 
L 180.728779 443.123538 
L 189.222077 444.568199 
L 197.715375 445.510369 
L 206.208674 442.746669 
L 214.701972 441.930122 
L 223.19527 438.789553 
L 231.688569 428.04881 
L 240.181867 412.220346 
L 248.675166 383.641174 
L 257.168464 328.429984 
L 265.661762 253.370403 
L 274.155061 220.14319 
L 282.648359 194.453342 
L 291.141657 202.807253 
L 299.634956 218.196038 
L 308.128254 216.123263 
L 316.621552 288.733201 
L 325.114851 368.440824 
L 333.608149 384.143665 
L 342.101447 389.482631 
L 350.594746 414.858423 
L 359.088044 420.637069 
L 367.581342 408.388852 
L 376.074641 397.962166 
L 384.567939 383.201495 
L 393.061237 372.963242 
L 401.554536 334.145818 
L 410.047834 300.667361 
L 418.541132 245.958661 
L 427.034431 184.466335 
L 435.527729 156.264032 
L 444.021027 162.231111 
L 452.514326 208.271842 
L 461.007624 272.025378 
L 469.500922 310.842802 
L 477.994221 356.004174 
L 486.487519 387.347045 
L 494.980817 402.861452 
L 503.474116 418.941162 
L 511.967414 431.063755 
L 520.460713 440.548272 
L 528.954011 442.809481 
L 537.447309 446.264106 
L 545.940608 449.153429 
L 554.433906 449.404674 
L 562.927204 450.15841 
L 571.420503 449.593108 
L 579.913801 448.77656 
L 588.407099 445.196313 
L 596.900398 434.769626 
L 605.393696 418.689916 
L 613.886994 389.985122 
L 622.380293 359.207553 
L 630.873591 347.273394 
L 639.366889 353.868587 
L 647.860188 335.841725 
L 656.353486 341.055069 
L 664.846784 322.902584 
L 673.340083 313.98337 
L 681.833381 276.547796 
L 690.326679 195.269889 
L 698.819978 162.1683 
L 707.313276 162.042677 
L 715.806574 222.530022 
L 724.299873 270.203848 
L 732.793171 288.356333 
" clip-path="url(#p6582f0a531)" style="fill: none; stroke: #e31a1c; stroke-width: 1.5; stroke-linecap: round"/>
   </g>
   <g id="line2d_121">
    <path d="M 78.809199 453.738658 
L 87.302497 451.603072 
L 95.795795 451.100581 
L 104.289094 451.226204 
L 112.782392 450.535279 
L 121.27569 450.15841 
L 129.768989 447.771579 
L 138.262287 447.583144 
L 146.755585 444.191331 
L 155.248884 444.128519 
L 163.742182 448.650938 
L 172.23548 447.583144 
L 180.728779 447.457522 
L 189.222077 447.708767 
L 197.715375 449.530297 
L 206.208674 448.588126 
L 214.701972 447.017842 
L 223.19527 445.887238 
L 231.688569 441.86731 
L 240.181867 434.141512 
L 248.675166 419.129596 
L 257.168464 400.537432 
L 265.661762 355.878551 
L 274.155061 330.754005 
L 282.648359 309.83782 
L 291.141657 304.373231 
L 299.634956 309.39814 
L 308.128254 299.285511 
L 316.621552 331.696175 
L 325.114851 385.839572 
L 333.608149 395.449711 
L 342.101447 400.600243 
L 350.594746 421.767673 
L 359.088044 426.918205 
L 367.581342 425.096676 
L 376.074641 415.863405 
L 384.567939 411.215364 
L 393.061237 396.957184 
L 401.554536 374.784772 
L 410.047834 349.911471 
L 418.541132 311.345293 
L 427.034431 264.236769 
L 435.527729 244.702434 
L 444.021027 236.474145 
L 452.514326 266.560789 
L 461.007624 302.300456 
L 469.500922 336.909519 
L 477.994221 371.95826 
L 486.487519 394.00505 
L 494.980817 404.745793 
L 503.474116 422.52141 
L 511.967414 434.141512 
L 520.460713 441.176385 
L 528.954011 444.63101 
L 537.447309 446.578163 
L 545.940608 449.279051 
L 554.433906 447.583144 
L 562.927204 450.786524 
L 571.420503 450.723713 
L 579.913801 449.404674 
L 588.407099 447.206276 
L 596.900398 441.113574 
L 605.393696 431.315001 
L 613.886994 406.504511 
L 622.380293 379.181568 
L 630.873591 368.063956 
L 639.366889 372.460751 
L 647.860188 359.52161 
L 656.353486 358.076949 
L 664.846784 350.037094 
L 673.340083 343.127844 
L 681.833381 312.852766 
L 690.326679 270.580717 
L 698.819978 236.725391 
L 707.313276 236.160088 
L 715.806574 269.764169 
L 724.299873 309.900631 
L 732.793171 326.357209 
" clip-path="url(#p6582f0a531)" style="fill: none; stroke: #fdbf6f; stroke-width: 1.5; stroke-linecap: round"/>
   </g>
   <g id="line2d_122">
    <path d="M 78.809199 453.738658 
L 87.302497 453.487413 
L 95.795795 453.236167 
L 104.289094 453.487413 
L 112.782392 452.796488 
L 121.27569 453.424601 
L 129.768989 452.922111 
L 138.262287 452.356808 
L 146.755585 448.211258 
L 155.248884 449.279051 
L 163.742182 451.540261 
L 172.23548 451.97994 
L 180.728779 452.168374 
L 189.222077 451.477449 
L 197.715375 452.796488 
L 206.208674 452.482431 
L 214.701972 451.414638 
L 223.19527 451.477449 
L 231.688569 449.781542 
L 240.181867 447.331899 
L 248.675166 443.123538 
L 257.168464 438.224251 
L 265.661762 424.028882 
L 274.155061 416.240273 
L 282.648359 402.73583 
L 291.141657 405.562341 
L 299.634956 403.678 
L 308.128254 402.798641 
L 316.621552 413.413762 
L 325.114851 425.976035 
L 333.608149 432.571228 
L 342.101447 431.817492 
L 350.594746 440.799517 
L 359.088044 445.259124 
L 367.581342 443.437594 
L 376.074641 441.804499 
L 384.567939 437.533326 
L 393.061237 437.596137 
L 401.554536 426.164469 
L 410.047834 422.709844 
L 418.541132 406.88138 
L 427.034431 391.052916 
L 435.527729 388.603272 
L 444.021027 380.751852 
L 452.514326 392.937257 
L 461.007624 400.286186 
L 469.500922 409.2054 
L 477.994221 423.086712 
L 486.487519 429.619094 
L 494.980817 434.581192 
L 503.474116 442.055744 
L 511.967414 445.573181 
L 520.460713 448.399692 
L 528.954011 449.65592 
L 537.447309 450.59809 
L 545.940608 451.791506 
L 554.433906 452.168374 
L 562.927204 452.796488 
L 571.420503 452.733676 
L 579.913801 452.796488 
L 588.407099 452.482431 
L 596.900398 449.530297 
L 605.393696 446.01286 
L 613.886994 438.538308 
L 622.380293 432.885285 
L 630.873591 428.362867 
L 639.366889 427.923187 
L 647.860188 419.066785 
L 656.353486 419.694898 
L 664.846784 417.433689 
L 673.340083 414.481555 
L 681.833381 404.871416 
L 690.326679 391.555407 
L 698.819978 376.669113 
L 707.313276 378.239397 
L 715.806574 386.530497 
L 724.299873 396.580316 
L 732.793171 405.813586 
" clip-path="url(#p6582f0a531)" style="fill: none; stroke: #ff7f00; stroke-width: 1.5; stroke-linecap: round"/>
   </g>
   <g id="line2d_123">
    <path d="M 78.809199 454.178338 
L 87.302497 454.115527 
L 95.795795 454.178338 
L 104.289094 454.178338 
L 112.782392 454.052715 
L 121.27569 454.115527 
L 129.768989 453.989904 
L 138.262287 454.052715 
L 146.755585 453.613036 
L 155.248884 453.487413 
L 163.742182 454.052715 
L 172.23548 453.80147 
L 180.728779 453.989904 
L 189.222077 453.864281 
L 197.715375 454.052715 
L 206.208674 454.052715 
L 214.701972 454.115527 
L 223.19527 454.052715 
L 231.688569 453.989904 
L 240.181867 453.550224 
L 248.675166 452.356808 
L 257.168464 452.922111 
L 265.661762 451.163392 
L 274.155061 451.100581 
L 282.648359 448.462504 
L 291.141657 449.844354 
L 299.634956 450.346845 
L 308.128254 449.781542 
L 316.621552 450.786524 
L 325.114851 451.351826 
L 333.608149 452.482431 
L 342.101447 451.917129 
L 350.594746 452.042751 
L 359.088044 453.487413 
L 367.581342 452.984922 
L 376.074641 452.796488 
L 384.567939 452.922111 
L 393.061237 453.047733 
L 401.554536 451.97994 
L 410.047834 451.854317 
L 418.541132 450.095599 
L 427.034431 447.83439 
L 435.527729 449.090617 
L 444.021027 449.341863 
L 452.514326 448.77656 
L 461.007624 450.095599 
L 469.500922 449.969976 
L 477.994221 451.728695 
L 486.487519 452.545242 
L 494.980817 452.859299 
L 503.474116 453.236167 
L 511.967414 453.36179 
L 520.460713 453.80147 
L 528.954011 453.487413 
L 537.447309 453.989904 
L 545.940608 454.115527 
L 554.433906 454.115527 
L 562.927204 454.052715 
L 571.420503 453.989904 
L 579.913801 453.989904 
L 588.407099 453.989904 
L 596.900398 453.80147 
L 605.393696 453.298979 
L 613.886994 453.110545 
L 622.380293 452.168374 
L 630.873591 451.226204 
L 639.366889 452.042751 
L 647.860188 451.97994 
L 656.353486 450.472467 
L 664.846784 449.530297 
L 673.340083 450.221222 
L 681.833381 450.409656 
L 690.326679 448.022824 
L 698.819978 446.515351 
L 707.313276 448.148447 
L 715.806574 448.399692 
L 724.299873 449.467485 
L 732.793171 448.902183 
" clip-path="url(#p6582f0a531)" style="fill: none; stroke: #cab2d6; stroke-width: 1.5; stroke-linecap: round"/>
   </g>
   <g id="line2d_124"/>
   <g id="line2d_125"/>
   <g id="line2d_126"/>
   <g id="line2d_127"/>
   <g id="line2d_128"/>
   <g id="line2d_129"/>
   <g id="line2d_130"/>
   <g id="line2d_131"/>
   <g id="line2d_132"/>
   <g id="patch_3">
    <path d="M 46.11 474.4193 
L 46.11 29.118125 
" style="fill: none; stroke: #262626; stroke-width: 1.25; stroke-linejoin: miter; stroke-linecap: square"/>
   </g>
   <g id="patch_4">
    <path d="M 765.49237 474.4193 
L 765.49237 29.118125 
" style="fill: none; stroke: #262626; stroke-width: 1.25; stroke-linejoin: miter; stroke-linecap: square"/>
   </g>
   <g id="patch_5">
    <path d="M 46.11 474.4193 
L 765.49237 474.4193 
" style="fill: none; stroke: #262626; stroke-width: 1.25; stroke-linejoin: miter; stroke-linecap: square"/>
   </g>
   <g id="patch_6">
    <path d="M 46.11 29.118125 
L 765.49237 29.118125 
" style="fill: none; stroke: #262626; stroke-width: 1.25; stroke-linejoin: miter; stroke-linecap: square"/>
   </g>
   <g id="text_28">
    <!-- Last update: 28.11.2021 -->
    <g style="fill: #262626" transform="translate(344.302357 22.438607)scale(0.09996 -0.09996)">
     <defs>
      <path id="DejaVuSans-4c" d="M 628 4666 
L 1259 4666 
L 1259 531 
L 3531 531 
L 3531 0 
L 628 0 
L 628 4666 
z
" transform="scale(0.015625)"/>
      <path id="DejaVuSans-74" d="M 1172 4494 
L 1172 3500 
L 2356 3500 
L 2356 3053 
L 1172 3053 
L 1172 1153 
Q 1172 725 1289 603 
Q 1406 481 1766 481 
L 2356 481 
L 2356 0 
L 1766 0 
Q 1100 0 847 248 
Q 594 497 594 1153 
L 594 3053 
L 172 3053 
L 172 3500 
L 594 3500 
L 594 4494 
L 1172 4494 
z
" transform="scale(0.015625)"/>
      <path id="DejaVuSans-75" d="M 544 1381 
L 544 3500 
L 1119 3500 
L 1119 1403 
Q 1119 906 1312 657 
Q 1506 409 1894 409 
Q 2359 409 2629 706 
Q 2900 1003 2900 1516 
L 2900 3500 
L 3475 3500 
L 3475 0 
L 2900 0 
L 2900 538 
Q 2691 219 2414 64 
Q 2138 -91 1772 -91 
Q 1169 -91 856 284 
Q 544 659 544 1381 
z
M 1991 3584 
L 1991 3584 
z
" transform="scale(0.015625)"/>
      <path id="DejaVuSans-70" d="M 1159 525 
L 1159 -1331 
L 581 -1331 
L 581 3500 
L 1159 3500 
L 1159 2969 
Q 1341 3281 1617 3432 
Q 1894 3584 2278 3584 
Q 2916 3584 3314 3078 
Q 3713 2572 3713 1747 
Q 3713 922 3314 415 
Q 2916 -91 2278 -91 
Q 1894 -91 1617 61 
Q 1341 213 1159 525 
z
M 3116 1747 
Q 3116 2381 2855 2742 
Q 2594 3103 2138 3103 
Q 1681 3103 1420 2742 
Q 1159 2381 1159 1747 
Q 1159 1113 1420 752 
Q 1681 391 2138 391 
Q 2594 391 2855 752 
Q 3116 1113 3116 1747 
z
" transform="scale(0.015625)"/>
      <path id="DejaVuSans-64" d="M 2906 2969 
L 2906 4863 
L 3481 4863 
L 3481 0 
L 2906 0 
L 2906 525 
Q 2725 213 2448 61 
Q 2172 -91 1784 -91 
Q 1150 -91 751 415 
Q 353 922 353 1747 
Q 353 2572 751 3078 
Q 1150 3584 1784 3584 
Q 2172 3584 2448 3432 
Q 2725 3281 2906 2969 
z
M 947 1747 
Q 947 1113 1208 752 
Q 1469 391 1925 391 
Q 2381 391 2643 752 
Q 2906 1113 2906 1747 
Q 2906 2381 2643 2742 
Q 2381 3103 1925 3103 
Q 1469 3103 1208 2742 
Q 947 2381 947 1747 
z
" transform="scale(0.015625)"/>
      <path id="DejaVuSans-3a" d="M 750 794 
L 1409 794 
L 1409 0 
L 750 0 
L 750 794 
z
M 750 3309 
L 1409 3309 
L 1409 2516 
L 750 2516 
L 750 3309 
z
" transform="scale(0.015625)"/>
     </defs>
     <use xlink:href="#DejaVuSans-4c"/>
     <use xlink:href="#DejaVuSans-61" x="55.712891"/>
     <use xlink:href="#DejaVuSans-73" x="116.992188"/>
     <use xlink:href="#DejaVuSans-74" x="169.091797"/>
     <use xlink:href="#DejaVuSans-20" x="208.300781"/>
     <use xlink:href="#DejaVuSans-75" x="240.087891"/>
     <use xlink:href="#DejaVuSans-70" x="303.466797"/>
     <use xlink:href="#DejaVuSans-64" x="366.943359"/>
     <use xlink:href="#DejaVuSans-61" x="430.419922"/>
     <use xlink:href="#DejaVuSans-74" x="491.699219"/>
     <use xlink:href="#DejaVuSans-65" x="530.908203"/>
     <use xlink:href="#DejaVuSans-3a" x="592.431641"/>
     <use xlink:href="#DejaVuSans-20" x="626.123047"/>
     <use xlink:href="#DejaVuSans-32" x="657.910156"/>
     <use xlink:href="#DejaVuSans-38" x="721.533203"/>
     <use xlink:href="#DejaVuSans-2e" x="785.15625"/>
     <use xlink:href="#DejaVuSans-31" x="816.943359"/>
     <use xlink:href="#DejaVuSans-31" x="880.566406"/>
     <use xlink:href="#DejaVuSans-2e" x="944.189453"/>
     <use xlink:href="#DejaVuSans-32" x="975.976562"/>
     <use xlink:href="#DejaVuSans-30" x="1039.599609"/>
     <use xlink:href="#DejaVuSans-32" x="1103.222656"/>
     <use xlink:href="#DejaVuSans-31" x="1166.845703"/>
    </g>
   </g>
   <g id="patch_7">
    <path d="M 763.2928 386.970177 
Q 749.042637 386.970177 735.910509 386.970177 
" style="fill: none; stroke: #a6cee3; stroke-linecap: round"/>
    <path d="M 740.710509 389.370177 
L 735.910509 386.970177 
L 740.710509 384.570177 
" style="fill: none; stroke: #a6cee3; stroke-linecap: round"/>
   </g>
   <g id="text_29">
    <!-- 0-19 (153) -->
    <g style="fill: #a6cee3" transform="translate(767.793171 390.281427)scale(0.12 -0.12)">
     <defs>
      <path id="DejaVuSans-2d" d="M 313 2009 
L 1997 2009 
L 1997 1497 
L 313 1497 
L 313 2009 
z
" transform="scale(0.015625)"/>
     </defs>
     <use xlink:href="#DejaVuSans-30"/>
     <use xlink:href="#DejaVuSans-2d" x="63.623047"/>
     <use xlink:href="#DejaVuSans-31" x="99.707031"/>
     <use xlink:href="#DejaVuSans-39" x="163.330078"/>
     <use xlink:href="#DejaVuSans-20" x="226.953125"/>
     <use xlink:href="#DejaVuSans-28" x="258.740234"/>
     <use xlink:href="#DejaVuSans-31" x="297.753906"/>
     <use xlink:href="#DejaVuSans-35" x="361.376953"/>
     <use xlink:href="#DejaVuSans-33" x="425"/>
     <use xlink:href="#DejaVuSans-29" x="488.623047"/>
    </g>
   </g>
   <g id="patch_8">
    <path d="M 763.287728 358.893496 
Q 749.039936 358.893496 735.910177 358.893496 
" style="fill: none; stroke: #1f78b4; stroke-linecap: round"/>
    <path d="M 740.710177 361.293496 
L 735.910177 358.893496 
L 740.710177 356.493496 
" style="fill: none; stroke: #1f78b4; stroke-linecap: round"/>
   </g>
   <g id="text_30">
    <!-- 20-29 (217) -->
    <g style="fill: #1f78b4" transform="translate(767.793171 362.204746)scale(0.12 -0.12)">
     <use xlink:href="#DejaVuSans-32"/>
     <use xlink:href="#DejaVuSans-30" x="63.623047"/>
     <use xlink:href="#DejaVuSans-2d" x="127.246094"/>
     <use xlink:href="#DejaVuSans-32" x="163.330078"/>
     <use xlink:href="#DejaVuSans-39" x="226.953125"/>
     <use xlink:href="#DejaVuSans-20" x="290.576172"/>
     <use xlink:href="#DejaVuSans-28" x="322.363281"/>
     <use xlink:href="#DejaVuSans-32" x="361.376953"/>
     <use xlink:href="#DejaVuSans-31" x="425"/>
     <use xlink:href="#DejaVuSans-37" x="488.623047"/>
     <use xlink:href="#DejaVuSans-29" x="552.246094"/>
    </g>
   </g>
   <g id="patch_9">
    <path d="M 763.287728 293.004374 
Q 749.039936 293.004374 735.910177 293.004374 
" style="fill: none; stroke: #b2df8a; stroke-linecap: round"/>
    <path d="M 740.710177 295.404374 
L 735.910177 293.004374 
L 740.710177 290.604374 
" style="fill: none; stroke: #b2df8a; stroke-linecap: round"/>
   </g>
   <g id="text_31">
    <!-- 30-39 (367) -->
    <g style="fill: #b2df8a" transform="translate(767.793171 296.315624)scale(0.12 -0.12)">
     <use xlink:href="#DejaVuSans-33"/>
     <use xlink:href="#DejaVuSans-30" x="63.623047"/>
     <use xlink:href="#DejaVuSans-2d" x="127.246094"/>
     <use xlink:href="#DejaVuSans-33" x="163.330078"/>
     <use xlink:href="#DejaVuSans-39" x="226.953125"/>
     <use xlink:href="#DejaVuSans-20" x="290.576172"/>
     <use xlink:href="#DejaVuSans-28" x="322.363281"/>
     <use xlink:href="#DejaVuSans-33" x="361.376953"/>
     <use xlink:href="#DejaVuSans-36" x="425"/>
     <use xlink:href="#DejaVuSans-37" x="488.623047"/>
     <use xlink:href="#DejaVuSans-29" x="552.246094"/>
    </g>
   </g>
   <g id="patch_10">
    <path d="M 763.287728 281.070215 
Q 749.039936 281.070215 735.910177 281.070215 
" style="fill: none; stroke: #33a02c; stroke-linecap: round"/>
    <path d="M 740.710177 283.470215 
L 735.910177 281.070215 
L 740.710177 278.670215 
" style="fill: none; stroke: #33a02c; stroke-linecap: round"/>
   </g>
   <g id="text_32">
    <!-- 40-49 (394) -->
    <g style="fill: #33a02c" transform="translate(767.793171 284.381465)scale(0.12 -0.12)">
     <use xlink:href="#DejaVuSans-34"/>
     <use xlink:href="#DejaVuSans-30" x="63.623047"/>
     <use xlink:href="#DejaVuSans-2d" x="127.246094"/>
     <use xlink:href="#DejaVuSans-34" x="163.330078"/>
     <use xlink:href="#DejaVuSans-39" x="226.953125"/>
     <use xlink:href="#DejaVuSans-20" x="290.576172"/>
     <use xlink:href="#DejaVuSans-28" x="322.363281"/>
     <use xlink:href="#DejaVuSans-33" x="361.376953"/>
     <use xlink:href="#DejaVuSans-39" x="425"/>
     <use xlink:href="#DejaVuSans-34" x="488.623047"/>
     <use xlink:href="#DejaVuSans-29" x="552.246094"/>
    </g>
   </g>
   <g id="patch_11">
    <path d="M 763.287728 288.67039 
Q 749.039936 288.67039 735.910177 288.67039 
" style="fill: none; stroke: #fb9a99; stroke-linecap: round"/>
    <path d="M 740.710177 291.07039 
L 735.910177 288.67039 
L 740.710177 286.27039 
" style="fill: none; stroke: #fb9a99; stroke-linecap: round"/>
   </g>
   <g id="text_33">
    <!-- 50-59 (376) -->
    <g style="fill: #fb9a99" transform="translate(767.793171 291.98164)scale(0.12 -0.12)">
     <use xlink:href="#DejaVuSans-35"/>
     <use xlink:href="#DejaVuSans-30" x="63.623047"/>
     <use xlink:href="#DejaVuSans-2d" x="127.246094"/>
     <use xlink:href="#DejaVuSans-35" x="163.330078"/>
     <use xlink:href="#DejaVuSans-39" x="226.953125"/>
     <use xlink:href="#DejaVuSans-20" x="290.576172"/>
     <use xlink:href="#DejaVuSans-28" x="322.363281"/>
     <use xlink:href="#DejaVuSans-33" x="361.376953"/>
     <use xlink:href="#DejaVuSans-37" x="425"/>
     <use xlink:href="#DejaVuSans-36" x="488.623047"/>
     <use xlink:href="#DejaVuSans-29" x="552.246094"/>
    </g>
   </g>
   <g id="patch_12">
    <path d="M 763.287728 288.356333 
Q 749.039936 288.356333 735.910177 288.356333 
" style="fill: none; stroke: #e31a1c; stroke-linecap: round"/>
    <path d="M 740.710177 290.756333 
L 735.910177 288.356333 
L 740.710177 285.956333 
" style="fill: none; stroke: #e31a1c; stroke-linecap: round"/>
   </g>
   <g id="text_34">
    <!-- 60-69 (377) -->
    <g style="fill: #e31a1c" transform="translate(767.793171 291.667583)scale(0.12 -0.12)">
     <use xlink:href="#DejaVuSans-36"/>
     <use xlink:href="#DejaVuSans-30" x="63.623047"/>
     <use xlink:href="#DejaVuSans-2d" x="127.246094"/>
     <use xlink:href="#DejaVuSans-36" x="163.330078"/>
     <use xlink:href="#DejaVuSans-39" x="226.953125"/>
     <use xlink:href="#DejaVuSans-20" x="290.576172"/>
     <use xlink:href="#DejaVuSans-28" x="322.363281"/>
     <use xlink:href="#DejaVuSans-33" x="361.376953"/>
     <use xlink:href="#DejaVuSans-37" x="425"/>
     <use xlink:href="#DejaVuSans-37" x="488.623047"/>
     <use xlink:href="#DejaVuSans-29" x="552.246094"/>
    </g>
   </g>
   <g id="patch_13">
    <path d="M 763.287728 326.357209 
Q 749.039936 326.357209 735.910177 326.357209 
" style="fill: none; stroke: #fdbf6f; stroke-linecap: round"/>
    <path d="M 740.710177 328.757209 
L 735.910177 326.357209 
L 740.710177 323.957209 
" style="fill: none; stroke: #fdbf6f; stroke-linecap: round"/>
   </g>
   <g id="text_35">
    <!-- 70-79 (291) -->
    <g style="fill: #fdbf6f" transform="translate(767.793171 329.668459)scale(0.12 -0.12)">
     <use xlink:href="#DejaVuSans-37"/>
     <use xlink:href="#DejaVuSans-30" x="63.623047"/>
     <use xlink:href="#DejaVuSans-2d" x="127.246094"/>
     <use xlink:href="#DejaVuSans-37" x="163.330078"/>
     <use xlink:href="#DejaVuSans-39" x="226.953125"/>
     <use xlink:href="#DejaVuSans-20" x="290.576172"/>
     <use xlink:href="#DejaVuSans-28" x="322.363281"/>
     <use xlink:href="#DejaVuSans-32" x="361.376953"/>
     <use xlink:href="#DejaVuSans-39" x="425"/>
     <use xlink:href="#DejaVuSans-31" x="488.623047"/>
     <use xlink:href="#DejaVuSans-29" x="552.246094"/>
    </g>
   </g>
   <g id="patch_14">
    <path d="M 763.287728 405.813586 
Q 749.039936 405.813586 735.910177 405.813586 
" style="fill: none; stroke: #ff7f00; stroke-linecap: round"/>
    <path d="M 740.710177 408.213586 
L 735.910177 405.813586 
L 740.710177 403.413586 
" style="fill: none; stroke: #ff7f00; stroke-linecap: round"/>
   </g>
   <g id="text_36">
    <!-- 80-89 (110) -->
    <g style="fill: #ff7f00" transform="translate(767.793171 409.124836)scale(0.12 -0.12)">
     <use xlink:href="#DejaVuSans-38"/>
     <use xlink:href="#DejaVuSans-30" x="63.623047"/>
     <use xlink:href="#DejaVuSans-2d" x="127.246094"/>
     <use xlink:href="#DejaVuSans-38" x="163.330078"/>
     <use xlink:href="#DejaVuSans-39" x="226.953125"/>
     <use xlink:href="#DejaVuSans-20" x="290.576172"/>
     <use xlink:href="#DejaVuSans-28" x="322.363281"/>
     <use xlink:href="#DejaVuSans-31" x="361.376953"/>
     <use xlink:href="#DejaVuSans-31" x="425"/>
     <use xlink:href="#DejaVuSans-30" x="488.623047"/>
     <use xlink:href="#DejaVuSans-29" x="552.246094"/>
    </g>
   </g>
   <g id="patch_15">
    <path d="M 763.292777 448.902183 
Q 749.042626 448.902183 735.910508 448.902183 
" style="fill: none; stroke: #cab2d6; stroke-linecap: round"/>
    <path d="M 740.710508 451.302183 
L 735.910508 448.902183 
L 740.710508 446.502183 
" style="fill: none; stroke: #cab2d6; stroke-linecap: round"/>
   </g>
   <g id="text_37">
    <!-- 90+ (12) -->
    <g style="fill: #cab2d6" transform="translate(767.793171 452.213433)scale(0.12 -0.12)">
     <defs>
      <path id="DejaVuSans-2b" d="M 2944 4013 
L 2944 2272 
L 4684 2272 
L 4684 1741 
L 2944 1741 
L 2944 0 
L 2419 0 
L 2419 1741 
L 678 1741 
L 678 2272 
L 2419 2272 
L 2419 4013 
L 2944 4013 
z
" transform="scale(0.015625)"/>
     </defs>
     <use xlink:href="#DejaVuSans-39"/>
     <use xlink:href="#DejaVuSans-30" x="63.623047"/>
     <use xlink:href="#DejaVuSans-2b" x="127.246094"/>
     <use xlink:href="#DejaVuSans-20" x="211.035156"/>
     <use xlink:href="#DejaVuSans-28" x="242.822266"/>
     <use xlink:href="#DejaVuSans-31" x="281.835938"/>
     <use xlink:href="#DejaVuSans-32" x="345.458984"/>
     <use xlink:href="#DejaVuSans-29" x="409.082031"/>
    </g>
   </g>
   <g id="text_38">
    <!-- New cases by age group -->
    <g style="fill: #262626" transform="translate(323.433372 9.118125)scale(0.12 -0.12)">
     <defs>
      <path id="DejaVuSans-Bold-4e" d="M 588 4666 
L 1931 4666 
L 3628 1466 
L 3628 4666 
L 4769 4666 
L 4769 0 
L 3425 0 
L 1728 3200 
L 1728 0 
L 588 0 
L 588 4666 
z
" transform="scale(0.015625)"/>
      <path id="DejaVuSans-Bold-65" d="M 4031 1759 
L 4031 1441 
L 1416 1441 
Q 1456 1047 1700 850 
Q 1944 653 2381 653 
Q 2734 653 3104 758 
Q 3475 863 3866 1075 
L 3866 213 
Q 3469 63 3072 -14 
Q 2675 -91 2278 -91 
Q 1328 -91 801 392 
Q 275 875 275 1747 
Q 275 2603 792 3093 
Q 1309 3584 2216 3584 
Q 3041 3584 3536 3087 
Q 4031 2591 4031 1759 
z
M 2881 2131 
Q 2881 2450 2695 2645 
Q 2509 2841 2209 2841 
Q 1884 2841 1681 2658 
Q 1478 2475 1428 2131 
L 2881 2131 
z
" transform="scale(0.015625)"/>
      <path id="DejaVuSans-Bold-77" d="M 225 3500 
L 1313 3500 
L 1900 1088 
L 2491 3500 
L 3425 3500 
L 4013 1113 
L 4603 3500 
L 5691 3500 
L 4769 0 
L 3547 0 
L 2956 2406 
L 2369 0 
L 1147 0 
L 225 3500 
z
" transform="scale(0.015625)"/>
      <path id="DejaVuSans-Bold-20" transform="scale(0.015625)"/>
      <path id="DejaVuSans-Bold-63" d="M 3366 3391 
L 3366 2478 
Q 3138 2634 2908 2709 
Q 2678 2784 2431 2784 
Q 1963 2784 1702 2511 
Q 1441 2238 1441 1747 
Q 1441 1256 1702 982 
Q 1963 709 2431 709 
Q 2694 709 2930 787 
Q 3166 866 3366 1019 
L 3366 103 
Q 3103 6 2833 -42 
Q 2563 -91 2291 -91 
Q 1344 -91 809 395 
Q 275 881 275 1747 
Q 275 2613 809 3098 
Q 1344 3584 2291 3584 
Q 2566 3584 2833 3536 
Q 3100 3488 3366 3391 
z
" transform="scale(0.015625)"/>
      <path id="DejaVuSans-Bold-61" d="M 2106 1575 
Q 1756 1575 1579 1456 
Q 1403 1338 1403 1106 
Q 1403 894 1545 773 
Q 1688 653 1941 653 
Q 2256 653 2472 879 
Q 2688 1106 2688 1447 
L 2688 1575 
L 2106 1575 
z
M 3816 1997 
L 3816 0 
L 2688 0 
L 2688 519 
Q 2463 200 2181 54 
Q 1900 -91 1497 -91 
Q 953 -91 614 226 
Q 275 544 275 1050 
Q 275 1666 698 1953 
Q 1122 2241 2028 2241 
L 2688 2241 
L 2688 2328 
Q 2688 2594 2478 2717 
Q 2269 2841 1825 2841 
Q 1466 2841 1156 2769 
Q 847 2697 581 2553 
L 581 3406 
Q 941 3494 1303 3539 
Q 1666 3584 2028 3584 
Q 2975 3584 3395 3211 
Q 3816 2838 3816 1997 
z
" transform="scale(0.015625)"/>
      <path id="DejaVuSans-Bold-73" d="M 3272 3391 
L 3272 2541 
Q 2913 2691 2578 2766 
Q 2244 2841 1947 2841 
Q 1628 2841 1473 2761 
Q 1319 2681 1319 2516 
Q 1319 2381 1436 2309 
Q 1553 2238 1856 2203 
L 2053 2175 
Q 2913 2066 3209 1816 
Q 3506 1566 3506 1031 
Q 3506 472 3093 190 
Q 2681 -91 1863 -91 
Q 1516 -91 1145 -36 
Q 775 19 384 128 
L 384 978 
Q 719 816 1070 734 
Q 1422 653 1784 653 
Q 2113 653 2278 743 
Q 2444 834 2444 1013 
Q 2444 1163 2330 1236 
Q 2216 1309 1875 1350 
L 1678 1375 
Q 931 1469 631 1722 
Q 331 1975 331 2491 
Q 331 3047 712 3315 
Q 1094 3584 1881 3584 
Q 2191 3584 2531 3537 
Q 2872 3491 3272 3391 
z
" transform="scale(0.015625)"/>
      <path id="DejaVuSans-Bold-62" d="M 2400 722 
Q 2759 722 2948 984 
Q 3138 1247 3138 1747 
Q 3138 2247 2948 2509 
Q 2759 2772 2400 2772 
Q 2041 2772 1848 2508 
Q 1656 2244 1656 1747 
Q 1656 1250 1848 986 
Q 2041 722 2400 722 
z
M 1656 2988 
Q 1888 3294 2169 3439 
Q 2450 3584 2816 3584 
Q 3463 3584 3878 3070 
Q 4294 2556 4294 1747 
Q 4294 938 3878 423 
Q 3463 -91 2816 -91 
Q 2450 -91 2169 54 
Q 1888 200 1656 506 
L 1656 0 
L 538 0 
L 538 4863 
L 1656 4863 
L 1656 2988 
z
" transform="scale(0.015625)"/>
      <path id="DejaVuSans-Bold-79" d="M 78 3500 
L 1197 3500 
L 2138 1125 
L 2938 3500 
L 4056 3500 
L 2584 -331 
Q 2363 -916 2067 -1148 
Q 1772 -1381 1288 -1381 
L 641 -1381 
L 641 -647 
L 991 -647 
Q 1275 -647 1404 -556 
Q 1534 -466 1606 -231 
L 1638 -134 
L 78 3500 
z
" transform="scale(0.015625)"/>
      <path id="DejaVuSans-Bold-67" d="M 2919 594 
Q 2688 288 2409 144 
Q 2131 0 1766 0 
Q 1125 0 706 504 
Q 288 1009 288 1791 
Q 288 2575 706 3076 
Q 1125 3578 1766 3578 
Q 2131 3578 2409 3434 
Q 2688 3291 2919 2981 
L 2919 3500 
L 4044 3500 
L 4044 353 
Q 4044 -491 3511 -936 
Q 2978 -1381 1966 -1381 
Q 1638 -1381 1331 -1331 
Q 1025 -1281 716 -1178 
L 716 -306 
Q 1009 -475 1290 -558 
Q 1572 -641 1856 -641 
Q 2406 -641 2662 -400 
Q 2919 -159 2919 353 
L 2919 594 
z
M 2181 2772 
Q 1834 2772 1640 2515 
Q 1447 2259 1447 1791 
Q 1447 1309 1634 1061 
Q 1822 813 2181 813 
Q 2531 813 2725 1069 
Q 2919 1325 2919 1791 
Q 2919 2259 2725 2515 
Q 2531 2772 2181 2772 
z
" transform="scale(0.015625)"/>
      <path id="DejaVuSans-Bold-72" d="M 3138 2547 
Q 2991 2616 2845 2648 
Q 2700 2681 2553 2681 
Q 2122 2681 1889 2404 
Q 1656 2128 1656 1613 
L 1656 0 
L 538 0 
L 538 3500 
L 1656 3500 
L 1656 2925 
Q 1872 3269 2151 3426 
Q 2431 3584 2822 3584 
Q 2878 3584 2943 3579 
Q 3009 3575 3134 3559 
L 3138 2547 
z
" transform="scale(0.015625)"/>
      <path id="DejaVuSans-Bold-6f" d="M 2203 2784 
Q 1831 2784 1636 2517 
Q 1441 2250 1441 1747 
Q 1441 1244 1636 976 
Q 1831 709 2203 709 
Q 2569 709 2762 976 
Q 2956 1244 2956 1747 
Q 2956 2250 2762 2517 
Q 2569 2784 2203 2784 
z
M 2203 3584 
Q 3106 3584 3614 3096 
Q 4122 2609 4122 1747 
Q 4122 884 3614 396 
Q 3106 -91 2203 -91 
Q 1297 -91 786 396 
Q 275 884 275 1747 
Q 275 2609 786 3096 
Q 1297 3584 2203 3584 
z
" transform="scale(0.015625)"/>
      <path id="DejaVuSans-Bold-75" d="M 500 1363 
L 500 3500 
L 1625 3500 
L 1625 3150 
Q 1625 2866 1622 2436 
Q 1619 2006 1619 1863 
Q 1619 1441 1641 1255 
Q 1663 1069 1716 984 
Q 1784 875 1895 815 
Q 2006 756 2150 756 
Q 2500 756 2700 1025 
Q 2900 1294 2900 1772 
L 2900 3500 
L 4019 3500 
L 4019 0 
L 2900 0 
L 2900 506 
Q 2647 200 2364 54 
Q 2081 -91 1741 -91 
Q 1134 -91 817 281 
Q 500 653 500 1363 
z
" transform="scale(0.015625)"/>
      <path id="DejaVuSans-Bold-70" d="M 1656 506 
L 1656 -1331 
L 538 -1331 
L 538 3500 
L 1656 3500 
L 1656 2988 
Q 1888 3294 2169 3439 
Q 2450 3584 2816 3584 
Q 3463 3584 3878 3070 
Q 4294 2556 4294 1747 
Q 4294 938 3878 423 
Q 3463 -91 2816 -91 
Q 2450 -91 2169 54 
Q 1888 200 1656 506 
z
M 2400 2772 
Q 2041 2772 1848 2508 
Q 1656 2244 1656 1747 
Q 1656 1250 1848 986 
Q 2041 722 2400 722 
Q 2759 722 2948 984 
Q 3138 1247 3138 1747 
Q 3138 2247 2948 2509 
Q 2759 2772 2400 2772 
z
" transform="scale(0.015625)"/>
     </defs>
     <use xlink:href="#DejaVuSans-Bold-4e"/>
     <use xlink:href="#DejaVuSans-Bold-65" x="83.691406"/>
     <use xlink:href="#DejaVuSans-Bold-77" x="151.513672"/>
     <use xlink:href="#DejaVuSans-Bold-20" x="243.896484"/>
     <use xlink:href="#DejaVuSans-Bold-63" x="278.710938"/>
     <use xlink:href="#DejaVuSans-Bold-61" x="337.988281"/>
     <use xlink:href="#DejaVuSans-Bold-73" x="405.46875"/>
     <use xlink:href="#DejaVuSans-Bold-65" x="464.990234"/>
     <use xlink:href="#DejaVuSans-Bold-73" x="532.8125"/>
     <use xlink:href="#DejaVuSans-Bold-20" x="592.333984"/>
     <use xlink:href="#DejaVuSans-Bold-62" x="627.148438"/>
     <use xlink:href="#DejaVuSans-Bold-79" x="698.730469"/>
     <use xlink:href="#DejaVuSans-Bold-20" x="763.916016"/>
     <use xlink:href="#DejaVuSans-Bold-61" x="798.730469"/>
     <use xlink:href="#DejaVuSans-Bold-67" x="866.210938"/>
     <use xlink:href="#DejaVuSans-Bold-65" x="937.792969"/>
     <use xlink:href="#DejaVuSans-Bold-20" x="1005.615234"/>
     <use xlink:href="#DejaVuSans-Bold-67" x="1040.429688"/>
     <use xlink:href="#DejaVuSans-Bold-72" x="1112.011719"/>
     <use xlink:href="#DejaVuSans-Bold-6f" x="1161.328125"/>
     <use xlink:href="#DejaVuSans-Bold-75" x="1230.029297"/>
     <use xlink:href="#DejaVuSans-Bold-70" x="1301.220703"/>
    </g>
   </g>
   <g id="legend_1">
    <g id="patch_16">
     <path d="M 53.81 183.231562 
L 120.973594 183.231562 
Q 123.173594 183.231562 123.173594 181.031563 
L 123.173594 36.818125 
Q 123.173594 34.618125 120.973594 34.618125 
L 53.81 34.618125 
Q 51.61 34.618125 51.61 36.818125 
L 51.61 181.031563 
Q 51.61 183.231562 53.81 183.231562 
z
" style="fill: #ffffff; opacity: 0.8; stroke: #cccccc; stroke-linejoin: miter"/>
    </g>
    <g id="line2d_133">
     <path d="M 56.01 43.526406 
L 67.01 43.526406 
L 78.01 43.526406 
" style="fill: none; stroke: #a6cee3; stroke-width: 1.5; stroke-linecap: round"/>
    </g>
    <g id="text_39">
     <!-- 0-19 -->
     <g style="fill: #262626" transform="translate(86.81 47.376406)scale(0.11 -0.11)">
      <use xlink:href="#DejaVuSans-30"/>
      <use xlink:href="#DejaVuSans-2d" x="63.623047"/>
      <use xlink:href="#DejaVuSans-31" x="99.707031"/>
      <use xlink:href="#DejaVuSans-39" x="163.330078"/>
     </g>
    </g>
    <g id="line2d_134">
     <path d="M 56.01 59.672344 
L 67.01 59.672344 
L 78.01 59.672344 
" style="fill: none; stroke: #1f78b4; stroke-width: 1.5; stroke-linecap: round"/>
    </g>
    <g id="text_40">
     <!-- 20-29 -->
     <g style="fill: #262626" transform="translate(86.81 63.522344)scale(0.11 -0.11)">
      <use xlink:href="#DejaVuSans-32"/>
      <use xlink:href="#DejaVuSans-30" x="63.623047"/>
      <use xlink:href="#DejaVuSans-2d" x="127.246094"/>
      <use xlink:href="#DejaVuSans-32" x="163.330078"/>
      <use xlink:href="#DejaVuSans-39" x="226.953125"/>
     </g>
    </g>
    <g id="line2d_135">
     <path d="M 56.01 75.818281 
L 67.01 75.818281 
L 78.01 75.818281 
" style="fill: none; stroke: #b2df8a; stroke-width: 1.5; stroke-linecap: round"/>
    </g>
    <g id="text_41">
     <!-- 30-39 -->
     <g style="fill: #262626" transform="translate(86.81 79.668281)scale(0.11 -0.11)">
      <use xlink:href="#DejaVuSans-33"/>
      <use xlink:href="#DejaVuSans-30" x="63.623047"/>
      <use xlink:href="#DejaVuSans-2d" x="127.246094"/>
      <use xlink:href="#DejaVuSans-33" x="163.330078"/>
      <use xlink:href="#DejaVuSans-39" x="226.953125"/>
     </g>
    </g>
    <g id="line2d_136">
     <path d="M 56.01 91.964219 
L 67.01 91.964219 
L 78.01 91.964219 
" style="fill: none; stroke: #33a02c; stroke-width: 1.5; stroke-linecap: round"/>
    </g>
    <g id="text_42">
     <!-- 40-49 -->
     <g style="fill: #262626" transform="translate(86.81 95.814219)scale(0.11 -0.11)">
      <use xlink:href="#DejaVuSans-34"/>
      <use xlink:href="#DejaVuSans-30" x="63.623047"/>
      <use xlink:href="#DejaVuSans-2d" x="127.246094"/>
      <use xlink:href="#DejaVuSans-34" x="163.330078"/>
      <use xlink:href="#DejaVuSans-39" x="226.953125"/>
     </g>
    </g>
    <g id="line2d_137">
     <path d="M 56.01 108.110156 
L 67.01 108.110156 
L 78.01 108.110156 
" style="fill: none; stroke: #fb9a99; stroke-width: 1.5; stroke-linecap: round"/>
    </g>
    <g id="text_43">
     <!-- 50-59 -->
     <g style="fill: #262626" transform="translate(86.81 111.960156)scale(0.11 -0.11)">
      <use xlink:href="#DejaVuSans-35"/>
      <use xlink:href="#DejaVuSans-30" x="63.623047"/>
      <use xlink:href="#DejaVuSans-2d" x="127.246094"/>
      <use xlink:href="#DejaVuSans-35" x="163.330078"/>
      <use xlink:href="#DejaVuSans-39" x="226.953125"/>
     </g>
    </g>
    <g id="line2d_138">
     <path d="M 56.01 124.256094 
L 67.01 124.256094 
L 78.01 124.256094 
" style="fill: none; stroke: #e31a1c; stroke-width: 1.5; stroke-linecap: round"/>
    </g>
    <g id="text_44">
     <!-- 60-69 -->
     <g style="fill: #262626" transform="translate(86.81 128.106094)scale(0.11 -0.11)">
      <use xlink:href="#DejaVuSans-36"/>
      <use xlink:href="#DejaVuSans-30" x="63.623047"/>
      <use xlink:href="#DejaVuSans-2d" x="127.246094"/>
      <use xlink:href="#DejaVuSans-36" x="163.330078"/>
      <use xlink:href="#DejaVuSans-39" x="226.953125"/>
     </g>
    </g>
    <g id="line2d_139">
     <path d="M 56.01 140.402031 
L 67.01 140.402031 
L 78.01 140.402031 
" style="fill: none; stroke: #fdbf6f; stroke-width: 1.5; stroke-linecap: round"/>
    </g>
    <g id="text_45">
     <!-- 70-79 -->
     <g style="fill: #262626" transform="translate(86.81 144.252031)scale(0.11 -0.11)">
      <use xlink:href="#DejaVuSans-37"/>
      <use xlink:href="#DejaVuSans-30" x="63.623047"/>
      <use xlink:href="#DejaVuSans-2d" x="127.246094"/>
      <use xlink:href="#DejaVuSans-37" x="163.330078"/>
      <use xlink:href="#DejaVuSans-39" x="226.953125"/>
     </g>
    </g>
    <g id="line2d_140">
     <path d="M 56.01 156.547969 
L 67.01 156.547969 
L 78.01 156.547969 
" style="fill: none; stroke: #ff7f00; stroke-width: 1.5; stroke-linecap: round"/>
    </g>
    <g id="text_46">
     <!-- 80-89 -->
     <g style="fill: #262626" transform="translate(86.81 160.397969)scale(0.11 -0.11)">
      <use xlink:href="#DejaVuSans-38"/>
      <use xlink:href="#DejaVuSans-30" x="63.623047"/>
      <use xlink:href="#DejaVuSans-2d" x="127.246094"/>
      <use xlink:href="#DejaVuSans-38" x="163.330078"/>
      <use xlink:href="#DejaVuSans-39" x="226.953125"/>
     </g>
    </g>
    <g id="line2d_141">
     <path d="M 56.01 172.693906 
L 67.01 172.693906 
L 78.01 172.693906 
" style="fill: none; stroke: #cab2d6; stroke-width: 1.5; stroke-linecap: round"/>
    </g>
    <g id="text_47">
     <!-- 90+ -->
     <g style="fill: #262626" transform="translate(86.81 176.543906)scale(0.11 -0.11)">
      <use xlink:href="#DejaVuSans-39"/>
      <use xlink:href="#DejaVuSans-30" x="63.623047"/>
      <use xlink:href="#DejaVuSans-2b" x="127.246094"/>
     </g>
    </g>
   </g>
  </g>
 </g>
 <defs>
  <clipPath id="p6582f0a531">
   <rect x="46.11" y="29.118125" width="719.38237" height="445.301175"/>
  </clipPath>
 </defs>
</svg>
