<?xml version="1.0" encoding="utf-8" standalone="no"?>
<!DOCTYPE svg PUBLIC "-//W3C//DTD SVG 1.1//EN"
  "http://www.w3.org/Graphics/SVG/1.1/DTD/svg11.dtd">
<svg height="569.390558pt" version="1.1" viewBox="0 0 868.419906 569.390558" width="868.419906pt" xmlns="http://www.w3.org/2000/svg" xmlns:xlink="http://www.w3.org/1999/xlink">
 <metadata>
  <rdf:RDF xmlns:cc="http://creativecommons.org/ns#" xmlns:dc="http://purl.org/dc/elements/1.1/" xmlns:rdf="http://www.w3.org/1999/02/22-rdf-syntax-ns#">
   <cc:Work>
    <dc:type rdf:resource="http://purl.org/dc/dcmitype/StillImage"/>
    <dc:date>2021-11-05T01:42:25.362360</dc:date>
    <dc:format>image/svg+xml</dc:format>
    <dc:creator>
     <cc:Agent>
      <dc:title>Matplotlib v3.4.3, https://matplotlib.org/</dc:title>
     </cc:Agent>
    </dc:creator>
   </cc:Work>
  </rdf:RDF>
 </metadata>
 <defs>
  <style type="text/css">*{stroke-linecap:butt;stroke-linejoin:round;}</style>
 </defs>
 <g id="figure_1">
  <g id="patch_1">
   <path d="M 0 569.390558 
L 868.419906 569.390558 
L 868.419906 0 
L 0 0 
z
" style="fill:none;"/>
  </g>
  <g id="axes_1">
   <g id="patch_2">
    <path d="M 46.11 496.042403 
L 796.580318 496.042403 
L 796.580318 29.118125 
L 46.11 29.118125 
z
" style="fill:none;"/>
   </g>
   <g id="matplotlib.axis_1">
    <g id="xtick_1">
     <g id="line2d_1">
      <path clip-path="url(#p38c5970f79)" d="M 80.222287 496.042403 
L 80.222287 29.118125 
" style="fill:none;stroke:#cccccc;stroke-linecap:round;"/>
     </g>
     <g id="line2d_2">
      <defs>
       <path d="M 0 0 
L 0 6 
" id="m840198e358" style="stroke:#262626;stroke-width:1.25;"/>
      </defs>
      <g>
       <use style="fill:#262626;stroke:#262626;stroke-width:1.25;" x="80.222287" xlink:href="#m840198e358" y="496.042403"/>
      </g>
     </g>
     <g id="text_1">
      <!-- 06.06 (23) -->
      <g style="fill:#262626;" transform="translate(37.898079 552.159191)rotate(-45)scale(0.11 -0.11)">
       <defs>
        <path d="M 2034 4250 
Q 1547 4250 1301 3770 
Q 1056 3291 1056 2328 
Q 1056 1369 1301 889 
Q 1547 409 2034 409 
Q 2525 409 2770 889 
Q 3016 1369 3016 2328 
Q 3016 3291 2770 3770 
Q 2525 4250 2034 4250 
z
M 2034 4750 
Q 2819 4750 3233 4129 
Q 3647 3509 3647 2328 
Q 3647 1150 3233 529 
Q 2819 -91 2034 -91 
Q 1250 -91 836 529 
Q 422 1150 422 2328 
Q 422 3509 836 4129 
Q 1250 4750 2034 4750 
z
" id="DejaVuSans-30" transform="scale(0.015625)"/>
        <path d="M 2113 2584 
Q 1688 2584 1439 2293 
Q 1191 2003 1191 1497 
Q 1191 994 1439 701 
Q 1688 409 2113 409 
Q 2538 409 2786 701 
Q 3034 994 3034 1497 
Q 3034 2003 2786 2293 
Q 2538 2584 2113 2584 
z
M 3366 4563 
L 3366 3988 
Q 3128 4100 2886 4159 
Q 2644 4219 2406 4219 
Q 1781 4219 1451 3797 
Q 1122 3375 1075 2522 
Q 1259 2794 1537 2939 
Q 1816 3084 2150 3084 
Q 2853 3084 3261 2657 
Q 3669 2231 3669 1497 
Q 3669 778 3244 343 
Q 2819 -91 2113 -91 
Q 1303 -91 875 529 
Q 447 1150 447 2328 
Q 447 3434 972 4092 
Q 1497 4750 2381 4750 
Q 2619 4750 2861 4703 
Q 3103 4656 3366 4563 
z
" id="DejaVuSans-36" transform="scale(0.015625)"/>
        <path d="M 684 794 
L 1344 794 
L 1344 0 
L 684 0 
L 684 794 
z
" id="DejaVuSans-2e" transform="scale(0.015625)"/>
        <path id="DejaVuSans-20" transform="scale(0.015625)"/>
        <path d="M 1984 4856 
Q 1566 4138 1362 3434 
Q 1159 2731 1159 2009 
Q 1159 1288 1364 580 
Q 1569 -128 1984 -844 
L 1484 -844 
Q 1016 -109 783 600 
Q 550 1309 550 2009 
Q 550 2706 781 3412 
Q 1013 4119 1484 4856 
L 1984 4856 
z
" id="DejaVuSans-28" transform="scale(0.015625)"/>
        <path d="M 1228 531 
L 3431 531 
L 3431 0 
L 469 0 
L 469 531 
Q 828 903 1448 1529 
Q 2069 2156 2228 2338 
Q 2531 2678 2651 2914 
Q 2772 3150 2772 3378 
Q 2772 3750 2511 3984 
Q 2250 4219 1831 4219 
Q 1534 4219 1204 4116 
Q 875 4013 500 3803 
L 500 4441 
Q 881 4594 1212 4672 
Q 1544 4750 1819 4750 
Q 2544 4750 2975 4387 
Q 3406 4025 3406 3419 
Q 3406 3131 3298 2873 
Q 3191 2616 2906 2266 
Q 2828 2175 2409 1742 
Q 1991 1309 1228 531 
z
" id="DejaVuSans-32" transform="scale(0.015625)"/>
        <path d="M 2597 2516 
Q 3050 2419 3304 2112 
Q 3559 1806 3559 1356 
Q 3559 666 3084 287 
Q 2609 -91 1734 -91 
Q 1441 -91 1130 -33 
Q 819 25 488 141 
L 488 750 
Q 750 597 1062 519 
Q 1375 441 1716 441 
Q 2309 441 2620 675 
Q 2931 909 2931 1356 
Q 2931 1769 2642 2001 
Q 2353 2234 1838 2234 
L 1294 2234 
L 1294 2753 
L 1863 2753 
Q 2328 2753 2575 2939 
Q 2822 3125 2822 3475 
Q 2822 3834 2567 4026 
Q 2313 4219 1838 4219 
Q 1578 4219 1281 4162 
Q 984 4106 628 3988 
L 628 4550 
Q 988 4650 1302 4700 
Q 1616 4750 1894 4750 
Q 2613 4750 3031 4423 
Q 3450 4097 3450 3541 
Q 3450 3153 3228 2886 
Q 3006 2619 2597 2516 
z
" id="DejaVuSans-33" transform="scale(0.015625)"/>
        <path d="M 513 4856 
L 1013 4856 
Q 1481 4119 1714 3412 
Q 1947 2706 1947 2009 
Q 1947 1309 1714 600 
Q 1481 -109 1013 -844 
L 513 -844 
Q 928 -128 1133 580 
Q 1338 1288 1338 2009 
Q 1338 2731 1133 3434 
Q 928 4138 513 4856 
z
" id="DejaVuSans-29" transform="scale(0.015625)"/>
       </defs>
       <use xlink:href="#DejaVuSans-30"/>
       <use x="63.623047" xlink:href="#DejaVuSans-36"/>
       <use x="127.246094" xlink:href="#DejaVuSans-2e"/>
       <use x="159.033203" xlink:href="#DejaVuSans-30"/>
       <use x="222.65625" xlink:href="#DejaVuSans-36"/>
       <use x="286.279297" xlink:href="#DejaVuSans-20"/>
       <use x="318.066406" xlink:href="#DejaVuSans-28"/>
       <use x="357.080078" xlink:href="#DejaVuSans-32"/>
       <use x="420.703125" xlink:href="#DejaVuSans-33"/>
       <use x="484.326172" xlink:href="#DejaVuSans-29"/>
      </g>
     </g>
    </g>
    <g id="xtick_2">
     <g id="line2d_3">
      <path clip-path="url(#p38c5970f79)" d="M 117.100435 496.042403 
L 117.100435 29.118125 
" style="fill:none;stroke:#cccccc;stroke-linecap:round;"/>
     </g>
     <g id="line2d_4">
      <g>
       <use style="fill:#262626;stroke:#262626;stroke-width:1.25;" x="117.100435" xlink:href="#m840198e358" y="496.042403"/>
      </g>
     </g>
     <g id="text_2">
      <!-- 04.07 (27) -->
      <g style="fill:#262626;" transform="translate(74.776228 552.159191)rotate(-45)scale(0.11 -0.11)">
       <defs>
        <path d="M 2419 4116 
L 825 1625 
L 2419 1625 
L 2419 4116 
z
M 2253 4666 
L 3047 4666 
L 3047 1625 
L 3713 1625 
L 3713 1100 
L 3047 1100 
L 3047 0 
L 2419 0 
L 2419 1100 
L 313 1100 
L 313 1709 
L 2253 4666 
z
" id="DejaVuSans-34" transform="scale(0.015625)"/>
        <path d="M 525 4666 
L 3525 4666 
L 3525 4397 
L 1831 0 
L 1172 0 
L 2766 4134 
L 525 4134 
L 525 4666 
z
" id="DejaVuSans-37" transform="scale(0.015625)"/>
       </defs>
       <use xlink:href="#DejaVuSans-30"/>
       <use x="63.623047" xlink:href="#DejaVuSans-34"/>
       <use x="127.246094" xlink:href="#DejaVuSans-2e"/>
       <use x="159.033203" xlink:href="#DejaVuSans-30"/>
       <use x="222.65625" xlink:href="#DejaVuSans-37"/>
       <use x="286.279297" xlink:href="#DejaVuSans-20"/>
       <use x="318.066406" xlink:href="#DejaVuSans-28"/>
       <use x="357.080078" xlink:href="#DejaVuSans-32"/>
       <use x="420.703125" xlink:href="#DejaVuSans-37"/>
       <use x="484.326172" xlink:href="#DejaVuSans-29"/>
      </g>
     </g>
    </g>
    <g id="xtick_3">
     <g id="line2d_5">
      <path clip-path="url(#p38c5970f79)" d="M 153.978584 496.042403 
L 153.978584 29.118125 
" style="fill:none;stroke:#cccccc;stroke-linecap:round;"/>
     </g>
     <g id="line2d_6">
      <g>
       <use style="fill:#262626;stroke:#262626;stroke-width:1.25;" x="153.978584" xlink:href="#m840198e358" y="496.042403"/>
      </g>
     </g>
     <g id="text_3">
      <!-- 01.08 (31) -->
      <g style="fill:#262626;" transform="translate(111.654376 552.159191)rotate(-45)scale(0.11 -0.11)">
       <defs>
        <path d="M 794 531 
L 1825 531 
L 1825 4091 
L 703 3866 
L 703 4441 
L 1819 4666 
L 2450 4666 
L 2450 531 
L 3481 531 
L 3481 0 
L 794 0 
L 794 531 
z
" id="DejaVuSans-31" transform="scale(0.015625)"/>
        <path d="M 2034 2216 
Q 1584 2216 1326 1975 
Q 1069 1734 1069 1313 
Q 1069 891 1326 650 
Q 1584 409 2034 409 
Q 2484 409 2743 651 
Q 3003 894 3003 1313 
Q 3003 1734 2745 1975 
Q 2488 2216 2034 2216 
z
M 1403 2484 
Q 997 2584 770 2862 
Q 544 3141 544 3541 
Q 544 4100 942 4425 
Q 1341 4750 2034 4750 
Q 2731 4750 3128 4425 
Q 3525 4100 3525 3541 
Q 3525 3141 3298 2862 
Q 3072 2584 2669 2484 
Q 3125 2378 3379 2068 
Q 3634 1759 3634 1313 
Q 3634 634 3220 271 
Q 2806 -91 2034 -91 
Q 1263 -91 848 271 
Q 434 634 434 1313 
Q 434 1759 690 2068 
Q 947 2378 1403 2484 
z
M 1172 3481 
Q 1172 3119 1398 2916 
Q 1625 2713 2034 2713 
Q 2441 2713 2670 2916 
Q 2900 3119 2900 3481 
Q 2900 3844 2670 4047 
Q 2441 4250 2034 4250 
Q 1625 4250 1398 4047 
Q 1172 3844 1172 3481 
z
" id="DejaVuSans-38" transform="scale(0.015625)"/>
       </defs>
       <use xlink:href="#DejaVuSans-30"/>
       <use x="63.623047" xlink:href="#DejaVuSans-31"/>
       <use x="127.246094" xlink:href="#DejaVuSans-2e"/>
       <use x="159.033203" xlink:href="#DejaVuSans-30"/>
       <use x="222.65625" xlink:href="#DejaVuSans-38"/>
       <use x="286.279297" xlink:href="#DejaVuSans-20"/>
       <use x="318.066406" xlink:href="#DejaVuSans-28"/>
       <use x="357.080078" xlink:href="#DejaVuSans-33"/>
       <use x="420.703125" xlink:href="#DejaVuSans-31"/>
       <use x="484.326172" xlink:href="#DejaVuSans-29"/>
      </g>
     </g>
    </g>
    <g id="xtick_4">
     <g id="line2d_7">
      <path clip-path="url(#p38c5970f79)" d="M 190.856732 496.042403 
L 190.856732 29.118125 
" style="fill:none;stroke:#cccccc;stroke-linecap:round;"/>
     </g>
     <g id="line2d_8">
      <g>
       <use style="fill:#262626;stroke:#262626;stroke-width:1.25;" x="190.856732" xlink:href="#m840198e358" y="496.042403"/>
      </g>
     </g>
     <g id="text_4">
      <!-- 29.08 (35) -->
      <g style="fill:#262626;" transform="translate(148.532524 552.159191)rotate(-45)scale(0.11 -0.11)">
       <defs>
        <path d="M 703 97 
L 703 672 
Q 941 559 1184 500 
Q 1428 441 1663 441 
Q 2288 441 2617 861 
Q 2947 1281 2994 2138 
Q 2813 1869 2534 1725 
Q 2256 1581 1919 1581 
Q 1219 1581 811 2004 
Q 403 2428 403 3163 
Q 403 3881 828 4315 
Q 1253 4750 1959 4750 
Q 2769 4750 3195 4129 
Q 3622 3509 3622 2328 
Q 3622 1225 3098 567 
Q 2575 -91 1691 -91 
Q 1453 -91 1209 -44 
Q 966 3 703 97 
z
M 1959 2075 
Q 2384 2075 2632 2365 
Q 2881 2656 2881 3163 
Q 2881 3666 2632 3958 
Q 2384 4250 1959 4250 
Q 1534 4250 1286 3958 
Q 1038 3666 1038 3163 
Q 1038 2656 1286 2365 
Q 1534 2075 1959 2075 
z
" id="DejaVuSans-39" transform="scale(0.015625)"/>
        <path d="M 691 4666 
L 3169 4666 
L 3169 4134 
L 1269 4134 
L 1269 2991 
Q 1406 3038 1543 3061 
Q 1681 3084 1819 3084 
Q 2600 3084 3056 2656 
Q 3513 2228 3513 1497 
Q 3513 744 3044 326 
Q 2575 -91 1722 -91 
Q 1428 -91 1123 -41 
Q 819 9 494 109 
L 494 744 
Q 775 591 1075 516 
Q 1375 441 1709 441 
Q 2250 441 2565 725 
Q 2881 1009 2881 1497 
Q 2881 1984 2565 2268 
Q 2250 2553 1709 2553 
Q 1456 2553 1204 2497 
Q 953 2441 691 2322 
L 691 4666 
z
" id="DejaVuSans-35" transform="scale(0.015625)"/>
       </defs>
       <use xlink:href="#DejaVuSans-32"/>
       <use x="63.623047" xlink:href="#DejaVuSans-39"/>
       <use x="127.246094" xlink:href="#DejaVuSans-2e"/>
       <use x="159.033203" xlink:href="#DejaVuSans-30"/>
       <use x="222.65625" xlink:href="#DejaVuSans-38"/>
       <use x="286.279297" xlink:href="#DejaVuSans-20"/>
       <use x="318.066406" xlink:href="#DejaVuSans-28"/>
       <use x="357.080078" xlink:href="#DejaVuSans-33"/>
       <use x="420.703125" xlink:href="#DejaVuSans-35"/>
       <use x="484.326172" xlink:href="#DejaVuSans-29"/>
      </g>
     </g>
    </g>
    <g id="xtick_5">
     <g id="line2d_9">
      <path clip-path="url(#p38c5970f79)" d="M 227.73488 496.042403 
L 227.73488 29.118125 
" style="fill:none;stroke:#cccccc;stroke-linecap:round;"/>
     </g>
     <g id="line2d_10">
      <g>
       <use style="fill:#262626;stroke:#262626;stroke-width:1.25;" x="227.73488" xlink:href="#m840198e358" y="496.042403"/>
      </g>
     </g>
     <g id="text_5">
      <!-- 26.09 (39) -->
      <g style="fill:#262626;" transform="translate(185.410673 552.159191)rotate(-45)scale(0.11 -0.11)">
       <use xlink:href="#DejaVuSans-32"/>
       <use x="63.623047" xlink:href="#DejaVuSans-36"/>
       <use x="127.246094" xlink:href="#DejaVuSans-2e"/>
       <use x="159.033203" xlink:href="#DejaVuSans-30"/>
       <use x="222.65625" xlink:href="#DejaVuSans-39"/>
       <use x="286.279297" xlink:href="#DejaVuSans-20"/>
       <use x="318.066406" xlink:href="#DejaVuSans-28"/>
       <use x="357.080078" xlink:href="#DejaVuSans-33"/>
       <use x="420.703125" xlink:href="#DejaVuSans-39"/>
       <use x="484.326172" xlink:href="#DejaVuSans-29"/>
      </g>
     </g>
    </g>
    <g id="xtick_6">
     <g id="line2d_11">
      <path clip-path="url(#p38c5970f79)" d="M 264.613029 496.042403 
L 264.613029 29.118125 
" style="fill:none;stroke:#cccccc;stroke-linecap:round;"/>
     </g>
     <g id="line2d_12">
      <g>
       <use style="fill:#262626;stroke:#262626;stroke-width:1.25;" x="264.613029" xlink:href="#m840198e358" y="496.042403"/>
      </g>
     </g>
     <g id="text_6">
      <!-- 24.10 (43) -->
      <g style="fill:#262626;" transform="translate(222.288821 552.159191)rotate(-45)scale(0.11 -0.11)">
       <use xlink:href="#DejaVuSans-32"/>
       <use x="63.623047" xlink:href="#DejaVuSans-34"/>
       <use x="127.246094" xlink:href="#DejaVuSans-2e"/>
       <use x="159.033203" xlink:href="#DejaVuSans-31"/>
       <use x="222.65625" xlink:href="#DejaVuSans-30"/>
       <use x="286.279297" xlink:href="#DejaVuSans-20"/>
       <use x="318.066406" xlink:href="#DejaVuSans-28"/>
       <use x="357.080078" xlink:href="#DejaVuSans-34"/>
       <use x="420.703125" xlink:href="#DejaVuSans-33"/>
       <use x="484.326172" xlink:href="#DejaVuSans-29"/>
      </g>
     </g>
    </g>
    <g id="xtick_7">
     <g id="line2d_13">
      <path clip-path="url(#p38c5970f79)" d="M 301.491177 496.042403 
L 301.491177 29.118125 
" style="fill:none;stroke:#cccccc;stroke-linecap:round;"/>
     </g>
     <g id="line2d_14">
      <g>
       <use style="fill:#262626;stroke:#262626;stroke-width:1.25;" x="301.491177" xlink:href="#m840198e358" y="496.042403"/>
      </g>
     </g>
     <g id="text_7">
      <!-- 21.11 (47) -->
      <g style="fill:#262626;" transform="translate(259.166969 552.159191)rotate(-45)scale(0.11 -0.11)">
       <use xlink:href="#DejaVuSans-32"/>
       <use x="63.623047" xlink:href="#DejaVuSans-31"/>
       <use x="127.246094" xlink:href="#DejaVuSans-2e"/>
       <use x="159.033203" xlink:href="#DejaVuSans-31"/>
       <use x="222.65625" xlink:href="#DejaVuSans-31"/>
       <use x="286.279297" xlink:href="#DejaVuSans-20"/>
       <use x="318.066406" xlink:href="#DejaVuSans-28"/>
       <use x="357.080078" xlink:href="#DejaVuSans-34"/>
       <use x="420.703125" xlink:href="#DejaVuSans-37"/>
       <use x="484.326172" xlink:href="#DejaVuSans-29"/>
      </g>
     </g>
    </g>
    <g id="xtick_8">
     <g id="line2d_15">
      <path clip-path="url(#p38c5970f79)" d="M 338.369325 496.042403 
L 338.369325 29.118125 
" style="fill:none;stroke:#cccccc;stroke-linecap:round;"/>
     </g>
     <g id="line2d_16">
      <g>
       <use style="fill:#262626;stroke:#262626;stroke-width:1.25;" x="338.369325" xlink:href="#m840198e358" y="496.042403"/>
      </g>
     </g>
     <g id="text_8">
      <!-- 19.12 (51) -->
      <g style="fill:#262626;" transform="translate(296.045117 552.159191)rotate(-45)scale(0.11 -0.11)">
       <use xlink:href="#DejaVuSans-31"/>
       <use x="63.623047" xlink:href="#DejaVuSans-39"/>
       <use x="127.246094" xlink:href="#DejaVuSans-2e"/>
       <use x="159.033203" xlink:href="#DejaVuSans-31"/>
       <use x="222.65625" xlink:href="#DejaVuSans-32"/>
       <use x="286.279297" xlink:href="#DejaVuSans-20"/>
       <use x="318.066406" xlink:href="#DejaVuSans-28"/>
       <use x="357.080078" xlink:href="#DejaVuSans-35"/>
       <use x="420.703125" xlink:href="#DejaVuSans-31"/>
       <use x="484.326172" xlink:href="#DejaVuSans-29"/>
      </g>
     </g>
    </g>
    <g id="xtick_9">
     <g id="line2d_17">
      <path clip-path="url(#p38c5970f79)" d="M 375.247474 496.042403 
L 375.247474 29.118125 
" style="fill:none;stroke:#cccccc;stroke-linecap:round;"/>
     </g>
     <g id="line2d_18">
      <g>
       <use style="fill:#262626;stroke:#262626;stroke-width:1.25;" x="375.247474" xlink:href="#m840198e358" y="496.042403"/>
      </g>
     </g>
     <g id="text_9">
      <!-- 16.01 (02) -->
      <g style="fill:#262626;" transform="translate(332.923266 552.159191)rotate(-45)scale(0.11 -0.11)">
       <use xlink:href="#DejaVuSans-31"/>
       <use x="63.623047" xlink:href="#DejaVuSans-36"/>
       <use x="127.246094" xlink:href="#DejaVuSans-2e"/>
       <use x="159.033203" xlink:href="#DejaVuSans-30"/>
       <use x="222.65625" xlink:href="#DejaVuSans-31"/>
       <use x="286.279297" xlink:href="#DejaVuSans-20"/>
       <use x="318.066406" xlink:href="#DejaVuSans-28"/>
       <use x="357.080078" xlink:href="#DejaVuSans-30"/>
       <use x="420.703125" xlink:href="#DejaVuSans-32"/>
       <use x="484.326172" xlink:href="#DejaVuSans-29"/>
      </g>
     </g>
    </g>
    <g id="xtick_10">
     <g id="line2d_19">
      <path clip-path="url(#p38c5970f79)" d="M 412.125622 496.042403 
L 412.125622 29.118125 
" style="fill:none;stroke:#cccccc;stroke-linecap:round;"/>
     </g>
     <g id="line2d_20">
      <g>
       <use style="fill:#262626;stroke:#262626;stroke-width:1.25;" x="412.125622" xlink:href="#m840198e358" y="496.042403"/>
      </g>
     </g>
     <g id="text_10">
      <!-- 13.02 (06) -->
      <g style="fill:#262626;" transform="translate(369.801414 552.159191)rotate(-45)scale(0.11 -0.11)">
       <use xlink:href="#DejaVuSans-31"/>
       <use x="63.623047" xlink:href="#DejaVuSans-33"/>
       <use x="127.246094" xlink:href="#DejaVuSans-2e"/>
       <use x="159.033203" xlink:href="#DejaVuSans-30"/>
       <use x="222.65625" xlink:href="#DejaVuSans-32"/>
       <use x="286.279297" xlink:href="#DejaVuSans-20"/>
       <use x="318.066406" xlink:href="#DejaVuSans-28"/>
       <use x="357.080078" xlink:href="#DejaVuSans-30"/>
       <use x="420.703125" xlink:href="#DejaVuSans-36"/>
       <use x="484.326172" xlink:href="#DejaVuSans-29"/>
      </g>
     </g>
    </g>
    <g id="xtick_11">
     <g id="line2d_21">
      <path clip-path="url(#p38c5970f79)" d="M 449.00377 496.042403 
L 449.00377 29.118125 
" style="fill:none;stroke:#cccccc;stroke-linecap:round;"/>
     </g>
     <g id="line2d_22">
      <g>
       <use style="fill:#262626;stroke:#262626;stroke-width:1.25;" x="449.00377" xlink:href="#m840198e358" y="496.042403"/>
      </g>
     </g>
     <g id="text_11">
      <!-- 13.03 (10) -->
      <g style="fill:#262626;" transform="translate(406.679562 552.159191)rotate(-45)scale(0.11 -0.11)">
       <use xlink:href="#DejaVuSans-31"/>
       <use x="63.623047" xlink:href="#DejaVuSans-33"/>
       <use x="127.246094" xlink:href="#DejaVuSans-2e"/>
       <use x="159.033203" xlink:href="#DejaVuSans-30"/>
       <use x="222.65625" xlink:href="#DejaVuSans-33"/>
       <use x="286.279297" xlink:href="#DejaVuSans-20"/>
       <use x="318.066406" xlink:href="#DejaVuSans-28"/>
       <use x="357.080078" xlink:href="#DejaVuSans-31"/>
       <use x="420.703125" xlink:href="#DejaVuSans-30"/>
       <use x="484.326172" xlink:href="#DejaVuSans-29"/>
      </g>
     </g>
    </g>
    <g id="xtick_12">
     <g id="line2d_23">
      <path clip-path="url(#p38c5970f79)" d="M 485.881919 496.042403 
L 485.881919 29.118125 
" style="fill:none;stroke:#cccccc;stroke-linecap:round;"/>
     </g>
     <g id="line2d_24">
      <g>
       <use style="fill:#262626;stroke:#262626;stroke-width:1.25;" x="485.881919" xlink:href="#m840198e358" y="496.042403"/>
      </g>
     </g>
     <g id="text_12">
      <!-- 10.04 (14) -->
      <g style="fill:#262626;" transform="translate(443.557711 552.159191)rotate(-45)scale(0.11 -0.11)">
       <use xlink:href="#DejaVuSans-31"/>
       <use x="63.623047" xlink:href="#DejaVuSans-30"/>
       <use x="127.246094" xlink:href="#DejaVuSans-2e"/>
       <use x="159.033203" xlink:href="#DejaVuSans-30"/>
       <use x="222.65625" xlink:href="#DejaVuSans-34"/>
       <use x="286.279297" xlink:href="#DejaVuSans-20"/>
       <use x="318.066406" xlink:href="#DejaVuSans-28"/>
       <use x="357.080078" xlink:href="#DejaVuSans-31"/>
       <use x="420.703125" xlink:href="#DejaVuSans-34"/>
       <use x="484.326172" xlink:href="#DejaVuSans-29"/>
      </g>
     </g>
    </g>
    <g id="xtick_13">
     <g id="line2d_25">
      <path clip-path="url(#p38c5970f79)" d="M 522.760067 496.042403 
L 522.760067 29.118125 
" style="fill:none;stroke:#cccccc;stroke-linecap:round;"/>
     </g>
     <g id="line2d_26">
      <g>
       <use style="fill:#262626;stroke:#262626;stroke-width:1.25;" x="522.760067" xlink:href="#m840198e358" y="496.042403"/>
      </g>
     </g>
     <g id="text_13">
      <!-- 08.05 (18) -->
      <g style="fill:#262626;" transform="translate(480.435859 552.159191)rotate(-45)scale(0.11 -0.11)">
       <use xlink:href="#DejaVuSans-30"/>
       <use x="63.623047" xlink:href="#DejaVuSans-38"/>
       <use x="127.246094" xlink:href="#DejaVuSans-2e"/>
       <use x="159.033203" xlink:href="#DejaVuSans-30"/>
       <use x="222.65625" xlink:href="#DejaVuSans-35"/>
       <use x="286.279297" xlink:href="#DejaVuSans-20"/>
       <use x="318.066406" xlink:href="#DejaVuSans-28"/>
       <use x="357.080078" xlink:href="#DejaVuSans-31"/>
       <use x="420.703125" xlink:href="#DejaVuSans-38"/>
       <use x="484.326172" xlink:href="#DejaVuSans-29"/>
      </g>
     </g>
    </g>
    <g id="xtick_14">
     <g id="line2d_27">
      <path clip-path="url(#p38c5970f79)" d="M 559.638215 496.042403 
L 559.638215 29.118125 
" style="fill:none;stroke:#cccccc;stroke-linecap:round;"/>
     </g>
     <g id="line2d_28">
      <g>
       <use style="fill:#262626;stroke:#262626;stroke-width:1.25;" x="559.638215" xlink:href="#m840198e358" y="496.042403"/>
      </g>
     </g>
     <g id="text_14">
      <!-- 05.06 (22) -->
      <g style="fill:#262626;" transform="translate(517.314007 552.159191)rotate(-45)scale(0.11 -0.11)">
       <use xlink:href="#DejaVuSans-30"/>
       <use x="63.623047" xlink:href="#DejaVuSans-35"/>
       <use x="127.246094" xlink:href="#DejaVuSans-2e"/>
       <use x="159.033203" xlink:href="#DejaVuSans-30"/>
       <use x="222.65625" xlink:href="#DejaVuSans-36"/>
       <use x="286.279297" xlink:href="#DejaVuSans-20"/>
       <use x="318.066406" xlink:href="#DejaVuSans-28"/>
       <use x="357.080078" xlink:href="#DejaVuSans-32"/>
       <use x="420.703125" xlink:href="#DejaVuSans-32"/>
       <use x="484.326172" xlink:href="#DejaVuSans-29"/>
      </g>
     </g>
    </g>
    <g id="xtick_15">
     <g id="line2d_29">
      <path clip-path="url(#p38c5970f79)" d="M 596.516363 496.042403 
L 596.516363 29.118125 
" style="fill:none;stroke:#cccccc;stroke-linecap:round;"/>
     </g>
     <g id="line2d_30">
      <g>
       <use style="fill:#262626;stroke:#262626;stroke-width:1.25;" x="596.516363" xlink:href="#m840198e358" y="496.042403"/>
      </g>
     </g>
     <g id="text_15">
      <!-- 03.07 (26) -->
      <g style="fill:#262626;" transform="translate(554.192156 552.159191)rotate(-45)scale(0.11 -0.11)">
       <use xlink:href="#DejaVuSans-30"/>
       <use x="63.623047" xlink:href="#DejaVuSans-33"/>
       <use x="127.246094" xlink:href="#DejaVuSans-2e"/>
       <use x="159.033203" xlink:href="#DejaVuSans-30"/>
       <use x="222.65625" xlink:href="#DejaVuSans-37"/>
       <use x="286.279297" xlink:href="#DejaVuSans-20"/>
       <use x="318.066406" xlink:href="#DejaVuSans-28"/>
       <use x="357.080078" xlink:href="#DejaVuSans-32"/>
       <use x="420.703125" xlink:href="#DejaVuSans-36"/>
       <use x="484.326172" xlink:href="#DejaVuSans-29"/>
      </g>
     </g>
    </g>
    <g id="xtick_16">
     <g id="line2d_31">
      <path clip-path="url(#p38c5970f79)" d="M 633.394512 496.042403 
L 633.394512 29.118125 
" style="fill:none;stroke:#cccccc;stroke-linecap:round;"/>
     </g>
     <g id="line2d_32">
      <g>
       <use style="fill:#262626;stroke:#262626;stroke-width:1.25;" x="633.394512" xlink:href="#m840198e358" y="496.042403"/>
      </g>
     </g>
     <g id="text_16">
      <!-- 31.07 (30) -->
      <g style="fill:#262626;" transform="translate(591.070304 552.159191)rotate(-45)scale(0.11 -0.11)">
       <use xlink:href="#DejaVuSans-33"/>
       <use x="63.623047" xlink:href="#DejaVuSans-31"/>
       <use x="127.246094" xlink:href="#DejaVuSans-2e"/>
       <use x="159.033203" xlink:href="#DejaVuSans-30"/>
       <use x="222.65625" xlink:href="#DejaVuSans-37"/>
       <use x="286.279297" xlink:href="#DejaVuSans-20"/>
       <use x="318.066406" xlink:href="#DejaVuSans-28"/>
       <use x="357.080078" xlink:href="#DejaVuSans-33"/>
       <use x="420.703125" xlink:href="#DejaVuSans-30"/>
       <use x="484.326172" xlink:href="#DejaVuSans-29"/>
      </g>
     </g>
    </g>
    <g id="xtick_17">
     <g id="line2d_33">
      <path clip-path="url(#p38c5970f79)" d="M 670.27266 496.042403 
L 670.27266 29.118125 
" style="fill:none;stroke:#cccccc;stroke-linecap:round;"/>
     </g>
     <g id="line2d_34">
      <g>
       <use style="fill:#262626;stroke:#262626;stroke-width:1.25;" x="670.27266" xlink:href="#m840198e358" y="496.042403"/>
      </g>
     </g>
     <g id="text_17">
      <!-- 28.08 (34) -->
      <g style="fill:#262626;" transform="translate(627.948452 552.159191)rotate(-45)scale(0.11 -0.11)">
       <use xlink:href="#DejaVuSans-32"/>
       <use x="63.623047" xlink:href="#DejaVuSans-38"/>
       <use x="127.246094" xlink:href="#DejaVuSans-2e"/>
       <use x="159.033203" xlink:href="#DejaVuSans-30"/>
       <use x="222.65625" xlink:href="#DejaVuSans-38"/>
       <use x="286.279297" xlink:href="#DejaVuSans-20"/>
       <use x="318.066406" xlink:href="#DejaVuSans-28"/>
       <use x="357.080078" xlink:href="#DejaVuSans-33"/>
       <use x="420.703125" xlink:href="#DejaVuSans-34"/>
       <use x="484.326172" xlink:href="#DejaVuSans-29"/>
      </g>
     </g>
    </g>
    <g id="xtick_18">
     <g id="line2d_35">
      <path clip-path="url(#p38c5970f79)" d="M 707.150808 496.042403 
L 707.150808 29.118125 
" style="fill:none;stroke:#cccccc;stroke-linecap:round;"/>
     </g>
     <g id="line2d_36">
      <g>
       <use style="fill:#262626;stroke:#262626;stroke-width:1.25;" x="707.150808" xlink:href="#m840198e358" y="496.042403"/>
      </g>
     </g>
     <g id="text_18">
      <!-- 25.09 (38) -->
      <g style="fill:#262626;" transform="translate(664.826601 552.159191)rotate(-45)scale(0.11 -0.11)">
       <use xlink:href="#DejaVuSans-32"/>
       <use x="63.623047" xlink:href="#DejaVuSans-35"/>
       <use x="127.246094" xlink:href="#DejaVuSans-2e"/>
       <use x="159.033203" xlink:href="#DejaVuSans-30"/>
       <use x="222.65625" xlink:href="#DejaVuSans-39"/>
       <use x="286.279297" xlink:href="#DejaVuSans-20"/>
       <use x="318.066406" xlink:href="#DejaVuSans-28"/>
       <use x="357.080078" xlink:href="#DejaVuSans-33"/>
       <use x="420.703125" xlink:href="#DejaVuSans-38"/>
       <use x="484.326172" xlink:href="#DejaVuSans-29"/>
      </g>
     </g>
    </g>
    <g id="xtick_19">
     <g id="line2d_37">
      <path clip-path="url(#p38c5970f79)" d="M 744.028957 496.042403 
L 744.028957 29.118125 
" style="fill:none;stroke:#cccccc;stroke-linecap:round;"/>
     </g>
     <g id="line2d_38">
      <g>
       <use style="fill:#262626;stroke:#262626;stroke-width:1.25;" x="744.028957" xlink:href="#m840198e358" y="496.042403"/>
      </g>
     </g>
     <g id="text_19">
      <!-- 23.10 (42) -->
      <g style="fill:#262626;" transform="translate(701.704749 552.159191)rotate(-45)scale(0.11 -0.11)">
       <use xlink:href="#DejaVuSans-32"/>
       <use x="63.623047" xlink:href="#DejaVuSans-33"/>
       <use x="127.246094" xlink:href="#DejaVuSans-2e"/>
       <use x="159.033203" xlink:href="#DejaVuSans-31"/>
       <use x="222.65625" xlink:href="#DejaVuSans-30"/>
       <use x="286.279297" xlink:href="#DejaVuSans-20"/>
       <use x="318.066406" xlink:href="#DejaVuSans-28"/>
       <use x="357.080078" xlink:href="#DejaVuSans-34"/>
       <use x="420.703125" xlink:href="#DejaVuSans-32"/>
       <use x="484.326172" xlink:href="#DejaVuSans-29"/>
      </g>
     </g>
    </g>
    <g id="xtick_20">
     <g id="line2d_39">
      <defs>
       <path d="M 0 0 
L 0 4 
" id="m3fd72bc245" style="stroke:#262626;"/>
      </defs>
      <g>
       <use style="fill:#262626;stroke:#262626;" x="52.563676" xlink:href="#m3fd72bc245" y="496.042403"/>
      </g>
     </g>
    </g>
    <g id="xtick_21">
     <g id="line2d_40">
      <g>
       <use style="fill:#262626;stroke:#262626;" x="61.783213" xlink:href="#m3fd72bc245" y="496.042403"/>
      </g>
     </g>
    </g>
    <g id="xtick_22">
     <g id="line2d_41">
      <g>
       <use style="fill:#262626;stroke:#262626;" x="71.00275" xlink:href="#m3fd72bc245" y="496.042403"/>
      </g>
     </g>
    </g>
    <g id="xtick_23">
     <g id="line2d_42">
      <g>
       <use style="fill:#262626;stroke:#262626;" x="89.441824" xlink:href="#m3fd72bc245" y="496.042403"/>
      </g>
     </g>
    </g>
    <g id="xtick_24">
     <g id="line2d_43">
      <g>
       <use style="fill:#262626;stroke:#262626;" x="98.661361" xlink:href="#m3fd72bc245" y="496.042403"/>
      </g>
     </g>
    </g>
    <g id="xtick_25">
     <g id="line2d_44">
      <g>
       <use style="fill:#262626;stroke:#262626;" x="107.880898" xlink:href="#m3fd72bc245" y="496.042403"/>
      </g>
     </g>
    </g>
    <g id="xtick_26">
     <g id="line2d_45">
      <g>
       <use style="fill:#262626;stroke:#262626;" x="126.319973" xlink:href="#m3fd72bc245" y="496.042403"/>
      </g>
     </g>
    </g>
    <g id="xtick_27">
     <g id="line2d_46">
      <g>
       <use style="fill:#262626;stroke:#262626;" x="135.53951" xlink:href="#m3fd72bc245" y="496.042403"/>
      </g>
     </g>
    </g>
    <g id="xtick_28">
     <g id="line2d_47">
      <g>
       <use style="fill:#262626;stroke:#262626;" x="144.759047" xlink:href="#m3fd72bc245" y="496.042403"/>
      </g>
     </g>
    </g>
    <g id="xtick_29">
     <g id="line2d_48">
      <g>
       <use style="fill:#262626;stroke:#262626;" x="163.198121" xlink:href="#m3fd72bc245" y="496.042403"/>
      </g>
     </g>
    </g>
    <g id="xtick_30">
     <g id="line2d_49">
      <g>
       <use style="fill:#262626;stroke:#262626;" x="172.417658" xlink:href="#m3fd72bc245" y="496.042403"/>
      </g>
     </g>
    </g>
    <g id="xtick_31">
     <g id="line2d_50">
      <g>
       <use style="fill:#262626;stroke:#262626;" x="181.637195" xlink:href="#m3fd72bc245" y="496.042403"/>
      </g>
     </g>
    </g>
    <g id="xtick_32">
     <g id="line2d_51">
      <g>
       <use style="fill:#262626;stroke:#262626;" x="200.076269" xlink:href="#m3fd72bc245" y="496.042403"/>
      </g>
     </g>
    </g>
    <g id="xtick_33">
     <g id="line2d_52">
      <g>
       <use style="fill:#262626;stroke:#262626;" x="209.295806" xlink:href="#m3fd72bc245" y="496.042403"/>
      </g>
     </g>
    </g>
    <g id="xtick_34">
     <g id="line2d_53">
      <g>
       <use style="fill:#262626;stroke:#262626;" x="218.515343" xlink:href="#m3fd72bc245" y="496.042403"/>
      </g>
     </g>
    </g>
    <g id="xtick_35">
     <g id="line2d_54">
      <g>
       <use style="fill:#262626;stroke:#262626;" x="236.954417" xlink:href="#m3fd72bc245" y="496.042403"/>
      </g>
     </g>
    </g>
    <g id="xtick_36">
     <g id="line2d_55">
      <g>
       <use style="fill:#262626;stroke:#262626;" x="246.173955" xlink:href="#m3fd72bc245" y="496.042403"/>
      </g>
     </g>
    </g>
    <g id="xtick_37">
     <g id="line2d_56">
      <g>
       <use style="fill:#262626;stroke:#262626;" x="255.393492" xlink:href="#m3fd72bc245" y="496.042403"/>
      </g>
     </g>
    </g>
    <g id="xtick_38">
     <g id="line2d_57">
      <g>
       <use style="fill:#262626;stroke:#262626;" x="273.832566" xlink:href="#m3fd72bc245" y="496.042403"/>
      </g>
     </g>
    </g>
    <g id="xtick_39">
     <g id="line2d_58">
      <g>
       <use style="fill:#262626;stroke:#262626;" x="283.052103" xlink:href="#m3fd72bc245" y="496.042403"/>
      </g>
     </g>
    </g>
    <g id="xtick_40">
     <g id="line2d_59">
      <g>
       <use style="fill:#262626;stroke:#262626;" x="292.27164" xlink:href="#m3fd72bc245" y="496.042403"/>
      </g>
     </g>
    </g>
    <g id="xtick_41">
     <g id="line2d_60">
      <g>
       <use style="fill:#262626;stroke:#262626;" x="310.710714" xlink:href="#m3fd72bc245" y="496.042403"/>
      </g>
     </g>
    </g>
    <g id="xtick_42">
     <g id="line2d_61">
      <g>
       <use style="fill:#262626;stroke:#262626;" x="319.930251" xlink:href="#m3fd72bc245" y="496.042403"/>
      </g>
     </g>
    </g>
    <g id="xtick_43">
     <g id="line2d_62">
      <g>
       <use style="fill:#262626;stroke:#262626;" x="329.149788" xlink:href="#m3fd72bc245" y="496.042403"/>
      </g>
     </g>
    </g>
    <g id="xtick_44">
     <g id="line2d_63">
      <g>
       <use style="fill:#262626;stroke:#262626;" x="347.588862" xlink:href="#m3fd72bc245" y="496.042403"/>
      </g>
     </g>
    </g>
    <g id="xtick_45">
     <g id="line2d_64">
      <g>
       <use style="fill:#262626;stroke:#262626;" x="356.808399" xlink:href="#m3fd72bc245" y="496.042403"/>
      </g>
     </g>
    </g>
    <g id="xtick_46">
     <g id="line2d_65">
      <g>
       <use style="fill:#262626;stroke:#262626;" x="366.027937" xlink:href="#m3fd72bc245" y="496.042403"/>
      </g>
     </g>
    </g>
    <g id="xtick_47">
     <g id="line2d_66">
      <g>
       <use style="fill:#262626;stroke:#262626;" x="384.467011" xlink:href="#m3fd72bc245" y="496.042403"/>
      </g>
     </g>
    </g>
    <g id="xtick_48">
     <g id="line2d_67">
      <g>
       <use style="fill:#262626;stroke:#262626;" x="393.686548" xlink:href="#m3fd72bc245" y="496.042403"/>
      </g>
     </g>
    </g>
    <g id="xtick_49">
     <g id="line2d_68">
      <g>
       <use style="fill:#262626;stroke:#262626;" x="402.906085" xlink:href="#m3fd72bc245" y="496.042403"/>
      </g>
     </g>
    </g>
    <g id="xtick_50">
     <g id="line2d_69">
      <g>
       <use style="fill:#262626;stroke:#262626;" x="421.345159" xlink:href="#m3fd72bc245" y="496.042403"/>
      </g>
     </g>
    </g>
    <g id="xtick_51">
     <g id="line2d_70">
      <g>
       <use style="fill:#262626;stroke:#262626;" x="430.564696" xlink:href="#m3fd72bc245" y="496.042403"/>
      </g>
     </g>
    </g>
    <g id="xtick_52">
     <g id="line2d_71">
      <g>
       <use style="fill:#262626;stroke:#262626;" x="439.784233" xlink:href="#m3fd72bc245" y="496.042403"/>
      </g>
     </g>
    </g>
    <g id="xtick_53">
     <g id="line2d_72">
      <g>
       <use style="fill:#262626;stroke:#262626;" x="458.223307" xlink:href="#m3fd72bc245" y="496.042403"/>
      </g>
     </g>
    </g>
    <g id="xtick_54">
     <g id="line2d_73">
      <g>
       <use style="fill:#262626;stroke:#262626;" x="467.442844" xlink:href="#m3fd72bc245" y="496.042403"/>
      </g>
     </g>
    </g>
    <g id="xtick_55">
     <g id="line2d_74">
      <g>
       <use style="fill:#262626;stroke:#262626;" x="476.662381" xlink:href="#m3fd72bc245" y="496.042403"/>
      </g>
     </g>
    </g>
    <g id="xtick_56">
     <g id="line2d_75">
      <g>
       <use style="fill:#262626;stroke:#262626;" x="495.101456" xlink:href="#m3fd72bc245" y="496.042403"/>
      </g>
     </g>
    </g>
    <g id="xtick_57">
     <g id="line2d_76">
      <g>
       <use style="fill:#262626;stroke:#262626;" x="504.320993" xlink:href="#m3fd72bc245" y="496.042403"/>
      </g>
     </g>
    </g>
    <g id="xtick_58">
     <g id="line2d_77">
      <g>
       <use style="fill:#262626;stroke:#262626;" x="513.54053" xlink:href="#m3fd72bc245" y="496.042403"/>
      </g>
     </g>
    </g>
    <g id="xtick_59">
     <g id="line2d_78">
      <g>
       <use style="fill:#262626;stroke:#262626;" x="531.979604" xlink:href="#m3fd72bc245" y="496.042403"/>
      </g>
     </g>
    </g>
    <g id="xtick_60">
     <g id="line2d_79">
      <g>
       <use style="fill:#262626;stroke:#262626;" x="541.199141" xlink:href="#m3fd72bc245" y="496.042403"/>
      </g>
     </g>
    </g>
    <g id="xtick_61">
     <g id="line2d_80">
      <g>
       <use style="fill:#262626;stroke:#262626;" x="550.418678" xlink:href="#m3fd72bc245" y="496.042403"/>
      </g>
     </g>
    </g>
    <g id="xtick_62">
     <g id="line2d_81">
      <g>
       <use style="fill:#262626;stroke:#262626;" x="568.857752" xlink:href="#m3fd72bc245" y="496.042403"/>
      </g>
     </g>
    </g>
    <g id="xtick_63">
     <g id="line2d_82">
      <g>
       <use style="fill:#262626;stroke:#262626;" x="578.077289" xlink:href="#m3fd72bc245" y="496.042403"/>
      </g>
     </g>
    </g>
    <g id="xtick_64">
     <g id="line2d_83">
      <g>
       <use style="fill:#262626;stroke:#262626;" x="587.296826" xlink:href="#m3fd72bc245" y="496.042403"/>
      </g>
     </g>
    </g>
    <g id="xtick_65">
     <g id="line2d_84">
      <g>
       <use style="fill:#262626;stroke:#262626;" x="605.735901" xlink:href="#m3fd72bc245" y="496.042403"/>
      </g>
     </g>
    </g>
    <g id="xtick_66">
     <g id="line2d_85">
      <g>
       <use style="fill:#262626;stroke:#262626;" x="614.955438" xlink:href="#m3fd72bc245" y="496.042403"/>
      </g>
     </g>
    </g>
    <g id="xtick_67">
     <g id="line2d_86">
      <g>
       <use style="fill:#262626;stroke:#262626;" x="624.174975" xlink:href="#m3fd72bc245" y="496.042403"/>
      </g>
     </g>
    </g>
    <g id="xtick_68">
     <g id="line2d_87">
      <g>
       <use style="fill:#262626;stroke:#262626;" x="642.614049" xlink:href="#m3fd72bc245" y="496.042403"/>
      </g>
     </g>
    </g>
    <g id="xtick_69">
     <g id="line2d_88">
      <g>
       <use style="fill:#262626;stroke:#262626;" x="651.833586" xlink:href="#m3fd72bc245" y="496.042403"/>
      </g>
     </g>
    </g>
    <g id="xtick_70">
     <g id="line2d_89">
      <g>
       <use style="fill:#262626;stroke:#262626;" x="661.053123" xlink:href="#m3fd72bc245" y="496.042403"/>
      </g>
     </g>
    </g>
    <g id="xtick_71">
     <g id="line2d_90">
      <g>
       <use style="fill:#262626;stroke:#262626;" x="679.492197" xlink:href="#m3fd72bc245" y="496.042403"/>
      </g>
     </g>
    </g>
    <g id="xtick_72">
     <g id="line2d_91">
      <g>
       <use style="fill:#262626;stroke:#262626;" x="688.711734" xlink:href="#m3fd72bc245" y="496.042403"/>
      </g>
     </g>
    </g>
    <g id="xtick_73">
     <g id="line2d_92">
      <g>
       <use style="fill:#262626;stroke:#262626;" x="697.931271" xlink:href="#m3fd72bc245" y="496.042403"/>
      </g>
     </g>
    </g>
    <g id="xtick_74">
     <g id="line2d_93">
      <g>
       <use style="fill:#262626;stroke:#262626;" x="716.370345" xlink:href="#m3fd72bc245" y="496.042403"/>
      </g>
     </g>
    </g>
    <g id="xtick_75">
     <g id="line2d_94">
      <g>
       <use style="fill:#262626;stroke:#262626;" x="725.589883" xlink:href="#m3fd72bc245" y="496.042403"/>
      </g>
     </g>
    </g>
    <g id="xtick_76">
     <g id="line2d_95">
      <g>
       <use style="fill:#262626;stroke:#262626;" x="734.80942" xlink:href="#m3fd72bc245" y="496.042403"/>
      </g>
     </g>
    </g>
    <g id="xtick_77">
     <g id="line2d_96">
      <g>
       <use style="fill:#262626;stroke:#262626;" x="753.248494" xlink:href="#m3fd72bc245" y="496.042403"/>
      </g>
     </g>
    </g>
    <g id="xtick_78">
     <g id="line2d_97">
      <g>
       <use style="fill:#262626;stroke:#262626;" x="762.468031" xlink:href="#m3fd72bc245" y="496.042403"/>
      </g>
     </g>
    </g>
    <g id="xtick_79">
     <g id="line2d_98">
      <g>
       <use style="fill:#262626;stroke:#262626;" x="771.687568" xlink:href="#m3fd72bc245" y="496.042403"/>
      </g>
     </g>
    </g>
    <g id="xtick_80">
     <g id="line2d_99">
      <g>
       <use style="fill:#262626;stroke:#262626;" x="780.907105" xlink:href="#m3fd72bc245" y="496.042403"/>
      </g>
     </g>
    </g>
    <g id="xtick_81">
     <g id="line2d_100">
      <g>
       <use style="fill:#262626;stroke:#262626;" x="790.126642" xlink:href="#m3fd72bc245" y="496.042403"/>
      </g>
     </g>
    </g>
    <g id="text_20">
     <!-- Week -->
     <g style="fill:#262626;" transform="translate(404.907034 566.894933)scale(0.12 -0.12)">
      <defs>
       <path d="M 213 4666 
L 850 4666 
L 1831 722 
L 2809 4666 
L 3519 4666 
L 4500 722 
L 5478 4666 
L 6119 4666 
L 4947 0 
L 4153 0 
L 3169 4050 
L 2175 0 
L 1381 0 
L 213 4666 
z
" id="DejaVuSans-57" transform="scale(0.015625)"/>
       <path d="M 3597 1894 
L 3597 1613 
L 953 1613 
Q 991 1019 1311 708 
Q 1631 397 2203 397 
Q 2534 397 2845 478 
Q 3156 559 3463 722 
L 3463 178 
Q 3153 47 2828 -22 
Q 2503 -91 2169 -91 
Q 1331 -91 842 396 
Q 353 884 353 1716 
Q 353 2575 817 3079 
Q 1281 3584 2069 3584 
Q 2775 3584 3186 3129 
Q 3597 2675 3597 1894 
z
M 3022 2063 
Q 3016 2534 2758 2815 
Q 2500 3097 2075 3097 
Q 1594 3097 1305 2825 
Q 1016 2553 972 2059 
L 3022 2063 
z
" id="DejaVuSans-65" transform="scale(0.015625)"/>
       <path d="M 581 4863 
L 1159 4863 
L 1159 1991 
L 2875 3500 
L 3609 3500 
L 1753 1863 
L 3688 0 
L 2938 0 
L 1159 1709 
L 1159 0 
L 581 0 
L 581 4863 
z
" id="DejaVuSans-6b" transform="scale(0.015625)"/>
      </defs>
      <use xlink:href="#DejaVuSans-57"/>
      <use x="93.001953" xlink:href="#DejaVuSans-65"/>
      <use x="154.525391" xlink:href="#DejaVuSans-65"/>
      <use x="216.048828" xlink:href="#DejaVuSans-6b"/>
     </g>
    </g>
   </g>
   <g id="matplotlib.axis_2">
    <g id="ytick_1">
     <g id="line2d_101">
      <path clip-path="url(#p38c5970f79)" d="M 46.11 474.818572 
L 796.580318 474.818572 
" style="fill:none;stroke:#cccccc;stroke-linecap:round;"/>
     </g>
     <g id="line2d_102">
      <defs>
       <path d="M 0 0 
L -6 0 
" id="m92e8462c7c" style="stroke:#262626;stroke-width:1.25;"/>
      </defs>
      <g>
       <use style="fill:#262626;stroke:#262626;stroke-width:1.25;" x="46.11" xlink:href="#m92e8462c7c" y="474.818572"/>
      </g>
     </g>
     <g id="text_21">
      <!-- 0 -->
      <g style="fill:#262626;" transform="translate(29.61125 478.997713)scale(0.11 -0.11)">
       <use xlink:href="#DejaVuSans-30"/>
      </g>
     </g>
    </g>
    <g id="ytick_2">
     <g id="line2d_103">
      <path clip-path="url(#p38c5970f79)" d="M 46.11 382.612636 
L 796.580318 382.612636 
" style="fill:none;stroke:#cccccc;stroke-linecap:round;"/>
     </g>
     <g id="line2d_104">
      <g>
       <use style="fill:#262626;stroke:#262626;stroke-width:1.25;" x="46.11" xlink:href="#m92e8462c7c" y="382.612636"/>
      </g>
     </g>
     <g id="text_22">
      <!-- 200 -->
      <g style="fill:#262626;" transform="translate(15.61375 386.791776)scale(0.11 -0.11)">
       <use xlink:href="#DejaVuSans-32"/>
       <use x="63.623047" xlink:href="#DejaVuSans-30"/>
       <use x="127.246094" xlink:href="#DejaVuSans-30"/>
      </g>
     </g>
    </g>
    <g id="ytick_3">
     <g id="line2d_105">
      <path clip-path="url(#p38c5970f79)" d="M 46.11 290.406699 
L 796.580318 290.406699 
" style="fill:none;stroke:#cccccc;stroke-linecap:round;"/>
     </g>
     <g id="line2d_106">
      <g>
       <use style="fill:#262626;stroke:#262626;stroke-width:1.25;" x="46.11" xlink:href="#m92e8462c7c" y="290.406699"/>
      </g>
     </g>
     <g id="text_23">
      <!-- 400 -->
      <g style="fill:#262626;" transform="translate(15.61375 294.585839)scale(0.11 -0.11)">
       <use xlink:href="#DejaVuSans-34"/>
       <use x="63.623047" xlink:href="#DejaVuSans-30"/>
       <use x="127.246094" xlink:href="#DejaVuSans-30"/>
      </g>
     </g>
    </g>
    <g id="ytick_4">
     <g id="line2d_107">
      <path clip-path="url(#p38c5970f79)" d="M 46.11 198.200762 
L 796.580318 198.200762 
" style="fill:none;stroke:#cccccc;stroke-linecap:round;"/>
     </g>
     <g id="line2d_108">
      <g>
       <use style="fill:#262626;stroke:#262626;stroke-width:1.25;" x="46.11" xlink:href="#m92e8462c7c" y="198.200762"/>
      </g>
     </g>
     <g id="text_24">
      <!-- 600 -->
      <g style="fill:#262626;" transform="translate(15.61375 202.379902)scale(0.11 -0.11)">
       <use xlink:href="#DejaVuSans-36"/>
       <use x="63.623047" xlink:href="#DejaVuSans-30"/>
       <use x="127.246094" xlink:href="#DejaVuSans-30"/>
      </g>
     </g>
    </g>
    <g id="ytick_5">
     <g id="line2d_109">
      <path clip-path="url(#p38c5970f79)" d="M 46.11 105.994825 
L 796.580318 105.994825 
" style="fill:none;stroke:#cccccc;stroke-linecap:round;"/>
     </g>
     <g id="line2d_110">
      <g>
       <use style="fill:#262626;stroke:#262626;stroke-width:1.25;" x="46.11" xlink:href="#m92e8462c7c" y="105.994825"/>
      </g>
     </g>
     <g id="text_25">
      <!-- 800 -->
      <g style="fill:#262626;" transform="translate(15.61375 110.173966)scale(0.11 -0.11)">
       <use xlink:href="#DejaVuSans-38"/>
       <use x="63.623047" xlink:href="#DejaVuSans-30"/>
       <use x="127.246094" xlink:href="#DejaVuSans-30"/>
      </g>
     </g>
    </g>
    <g id="text_26">
     <!-- New cases (average) -->
     <g style="fill:#262626;" transform="translate(9.118125 325.646827)rotate(-90)scale(0.12 -0.12)">
      <defs>
       <path d="M 628 4666 
L 1478 4666 
L 3547 763 
L 3547 4666 
L 4159 4666 
L 4159 0 
L 3309 0 
L 1241 3903 
L 1241 0 
L 628 0 
L 628 4666 
z
" id="DejaVuSans-4e" transform="scale(0.015625)"/>
       <path d="M 269 3500 
L 844 3500 
L 1563 769 
L 2278 3500 
L 2956 3500 
L 3675 769 
L 4391 3500 
L 4966 3500 
L 4050 0 
L 3372 0 
L 2619 2869 
L 1863 0 
L 1184 0 
L 269 3500 
z
" id="DejaVuSans-77" transform="scale(0.015625)"/>
       <path d="M 3122 3366 
L 3122 2828 
Q 2878 2963 2633 3030 
Q 2388 3097 2138 3097 
Q 1578 3097 1268 2742 
Q 959 2388 959 1747 
Q 959 1106 1268 751 
Q 1578 397 2138 397 
Q 2388 397 2633 464 
Q 2878 531 3122 666 
L 3122 134 
Q 2881 22 2623 -34 
Q 2366 -91 2075 -91 
Q 1284 -91 818 406 
Q 353 903 353 1747 
Q 353 2603 823 3093 
Q 1294 3584 2113 3584 
Q 2378 3584 2631 3529 
Q 2884 3475 3122 3366 
z
" id="DejaVuSans-63" transform="scale(0.015625)"/>
       <path d="M 2194 1759 
Q 1497 1759 1228 1600 
Q 959 1441 959 1056 
Q 959 750 1161 570 
Q 1363 391 1709 391 
Q 2188 391 2477 730 
Q 2766 1069 2766 1631 
L 2766 1759 
L 2194 1759 
z
M 3341 1997 
L 3341 0 
L 2766 0 
L 2766 531 
Q 2569 213 2275 61 
Q 1981 -91 1556 -91 
Q 1019 -91 701 211 
Q 384 513 384 1019 
Q 384 1609 779 1909 
Q 1175 2209 1959 2209 
L 2766 2209 
L 2766 2266 
Q 2766 2663 2505 2880 
Q 2244 3097 1772 3097 
Q 1472 3097 1187 3025 
Q 903 2953 641 2809 
L 641 3341 
Q 956 3463 1253 3523 
Q 1550 3584 1831 3584 
Q 2591 3584 2966 3190 
Q 3341 2797 3341 1997 
z
" id="DejaVuSans-61" transform="scale(0.015625)"/>
       <path d="M 2834 3397 
L 2834 2853 
Q 2591 2978 2328 3040 
Q 2066 3103 1784 3103 
Q 1356 3103 1142 2972 
Q 928 2841 928 2578 
Q 928 2378 1081 2264 
Q 1234 2150 1697 2047 
L 1894 2003 
Q 2506 1872 2764 1633 
Q 3022 1394 3022 966 
Q 3022 478 2636 193 
Q 2250 -91 1575 -91 
Q 1294 -91 989 -36 
Q 684 19 347 128 
L 347 722 
Q 666 556 975 473 
Q 1284 391 1588 391 
Q 1994 391 2212 530 
Q 2431 669 2431 922 
Q 2431 1156 2273 1281 
Q 2116 1406 1581 1522 
L 1381 1569 
Q 847 1681 609 1914 
Q 372 2147 372 2553 
Q 372 3047 722 3315 
Q 1072 3584 1716 3584 
Q 2034 3584 2315 3537 
Q 2597 3491 2834 3397 
z
" id="DejaVuSans-73" transform="scale(0.015625)"/>
       <path d="M 191 3500 
L 800 3500 
L 1894 563 
L 2988 3500 
L 3597 3500 
L 2284 0 
L 1503 0 
L 191 3500 
z
" id="DejaVuSans-76" transform="scale(0.015625)"/>
       <path d="M 2631 2963 
Q 2534 3019 2420 3045 
Q 2306 3072 2169 3072 
Q 1681 3072 1420 2755 
Q 1159 2438 1159 1844 
L 1159 0 
L 581 0 
L 581 3500 
L 1159 3500 
L 1159 2956 
Q 1341 3275 1631 3429 
Q 1922 3584 2338 3584 
Q 2397 3584 2469 3576 
Q 2541 3569 2628 3553 
L 2631 2963 
z
" id="DejaVuSans-72" transform="scale(0.015625)"/>
       <path d="M 2906 1791 
Q 2906 2416 2648 2759 
Q 2391 3103 1925 3103 
Q 1463 3103 1205 2759 
Q 947 2416 947 1791 
Q 947 1169 1205 825 
Q 1463 481 1925 481 
Q 2391 481 2648 825 
Q 2906 1169 2906 1791 
z
M 3481 434 
Q 3481 -459 3084 -895 
Q 2688 -1331 1869 -1331 
Q 1566 -1331 1297 -1286 
Q 1028 -1241 775 -1147 
L 775 -588 
Q 1028 -725 1275 -790 
Q 1522 -856 1778 -856 
Q 2344 -856 2625 -561 
Q 2906 -266 2906 331 
L 2906 616 
Q 2728 306 2450 153 
Q 2172 0 1784 0 
Q 1141 0 747 490 
Q 353 981 353 1791 
Q 353 2603 747 3093 
Q 1141 3584 1784 3584 
Q 2172 3584 2450 3431 
Q 2728 3278 2906 2969 
L 2906 3500 
L 3481 3500 
L 3481 434 
z
" id="DejaVuSans-67" transform="scale(0.015625)"/>
      </defs>
      <use xlink:href="#DejaVuSans-4e"/>
      <use x="74.804688" xlink:href="#DejaVuSans-65"/>
      <use x="136.328125" xlink:href="#DejaVuSans-77"/>
      <use x="218.115234" xlink:href="#DejaVuSans-20"/>
      <use x="249.902344" xlink:href="#DejaVuSans-63"/>
      <use x="304.882812" xlink:href="#DejaVuSans-61"/>
      <use x="366.162109" xlink:href="#DejaVuSans-73"/>
      <use x="418.261719" xlink:href="#DejaVuSans-65"/>
      <use x="479.785156" xlink:href="#DejaVuSans-73"/>
      <use x="531.884766" xlink:href="#DejaVuSans-20"/>
      <use x="563.671875" xlink:href="#DejaVuSans-28"/>
      <use x="602.685547" xlink:href="#DejaVuSans-61"/>
      <use x="663.964844" xlink:href="#DejaVuSans-76"/>
      <use x="723.144531" xlink:href="#DejaVuSans-65"/>
      <use x="784.667969" xlink:href="#DejaVuSans-72"/>
      <use x="825.78125" xlink:href="#DejaVuSans-61"/>
      <use x="887.060547" xlink:href="#DejaVuSans-67"/>
      <use x="950.537109" xlink:href="#DejaVuSans-65"/>
      <use x="1012.060547" xlink:href="#DejaVuSans-29"/>
     </g>
    </g>
   </g>
   <g id="line2d_111">
    <path clip-path="url(#p38c5970f79)" d="M 80.222287 472.513424 
L 89.441824 470.801028 
L 98.661361 470.471721 
L 107.880898 471.723087 
L 117.100435 465.861424 
L 126.319973 459.670454 
L 135.53951 464.149028 
L 144.759047 464.280751 
L 153.978584 469.154493 
L 163.198121 469.813107 
L 172.417658 469.352078 
L 181.637195 471.920672 
L 190.856732 473.106176 
L 200.076269 472.249978 
L 209.295806 471.723087 
L 218.515343 471.39378 
L 227.73488 468.166573 
L 236.954417 467.376236 
L 246.173955 462.107325 
L 255.393492 455.455326 
L 264.613029 439.912039 
L 273.832566 418.50709 
L 283.052103 417.650892 
L 292.27164 433.260039 
L 301.491177 440.636514 
L 310.710714 444.654059 
L 319.930251 451.37192 
L 329.149788 455.521187 
L 338.369325 463.622137 
L 347.588862 467.046929 
L 356.808399 467.57382 
L 366.027937 464.149028 
L 375.247474 467.507959 
L 384.467011 467.57382 
L 393.686548 463.424553 
L 402.906085 462.568355 
L 412.125622 459.538731 
L 421.345159 458.353227 
L 430.564696 447.486098 
L 439.784233 438.924118 
L 449.00377 425.224951 
L 458.223307 407.5741 
L 467.442844 425.224951 
L 476.662381 431.87695 
L 485.881919 441.887881 
L 495.101456 443.27097 
L 504.320993 445.905425 
L 513.54053 453.479484 
L 522.760067 465.268672 
L 531.979604 468.430018 
L 541.199141 468.364157 
L 550.418678 470.866889 
L 559.638215 469.878969 
L 568.857752 471.85481 
L 578.077289 472.118256 
L 587.296826 472.118256 
L 596.516363 472.447563 
L 605.735901 472.645147 
L 614.955438 471.657226 
L 624.174975 469.4838 
L 633.394512 458.353227 
L 642.614049 446.959207 
L 651.833586 429.703525 
L 661.053123 421.931881 
L 670.27266 416.794694 
L 679.492197 428.386297 
L 688.711734 437.738614 
L 697.931271 431.086614 
L 707.150808 414.752991 
L 716.370345 375.499606 
L 725.589883 364.23731 
L 734.80942 344.149588 
L 744.028957 297.388005 
L 753.248494 305.884124 
L 762.468031 347.943203 
" style="fill:none;stroke:#a6cee3;stroke-linecap:round;stroke-width:1.5;"/>
   </g>
   <g id="line2d_112">
    <path clip-path="url(#p38c5970f79)" d="M 80.222287 471.591365 
L 89.441824 471.986533 
L 98.661361 471.459642 
L 107.880898 467.376236 
L 117.100435 464.610058 
L 126.319973 453.677068 
L 135.53951 459.604593 
L 144.759047 456.772553 
L 153.978584 465.597979 
L 163.198121 465.20281 
L 172.417658 469.681385 
L 181.637195 469.154493 
L 190.856732 468.166573 
L 200.076269 467.771404 
L 209.295806 469.088632 
L 218.515343 468.891048 
L 227.73488 468.627602 
L 236.954417 463.095246 
L 246.173955 452.096395 
L 255.393492 437.014138 
L 264.613029 402.700358 
L 273.832566 350.93331 
L 283.052103 329.396638 
L 292.27164 337.168281 
L 301.491177 349.286775 
L 310.710714 370.955171 
L 319.930251 389.725665 
L 329.149788 399.407288 
L 338.369325 430.098693 
L 347.588862 450.976752 
L 356.808399 452.689148 
L 366.027937 444.983366 
L 375.247474 459.407009 
L 384.467011 461.251127 
L 393.686548 456.443246 
L 402.906085 451.042613 
L 412.125622 446.300593 
L 421.345159 441.229267 
L 430.564696 423.183248 
L 439.784233 411.262337 
L 449.00377 379.583012 
L 458.223307 339.078261 
L 467.442844 338.485509 
L 476.662381 346.125429 
L 485.881919 383.732279 
L 495.101456 410.208555 
L 504.320993 428.913188 
L 513.54053 440.504792 
L 522.760067 455.389464 
L 531.979604 456.443246 
L 541.199141 463.556276 
L 550.418678 468.298295 
L 559.638215 467.771404 
L 568.857752 470.932751 
L 578.077289 471.064474 
L 587.296826 471.657226 
L 596.516363 471.459642 
L 605.735901 471.788949 
L 614.955438 470.40586 
L 624.174975 467.771404 
L 633.394512 456.772553 
L 642.614049 436.882416 
L 651.833586 404.149308 
L 661.053123 387.683962 
L 670.27266 385.773982 
L 679.492197 398.024199 
L 688.711734 415.082298 
L 697.931271 409.549941 
L 707.150808 418.375367 
L 716.370345 404.873783 
L 725.589883 399.670734 
L 734.80942 361.998023 
L 744.028957 295.741471 
L 753.248494 254.051215 
L 762.468031 268.922715 
" style="fill:none;stroke:#1f78b4;stroke-linecap:round;stroke-width:1.5;"/>
   </g>
   <g id="line2d_113">
    <path clip-path="url(#p38c5970f79)" d="M 80.222287 471.130335 
L 89.441824 468.693464 
L 98.661361 468.825187 
L 107.880898 465.861424 
L 117.100435 463.095246 
L 126.319973 456.443246 
L 135.53951 456.640831 
L 144.759047 456.443246 
L 153.978584 459.47287 
L 163.198121 460.790098 
L 172.417658 465.927286 
L 181.637195 465.861424 
L 190.856732 464.939365 
L 200.076269 464.741781 
L 209.295806 464.280751 
L 218.515343 465.927286 
L 227.73488 463.29283 
L 236.954417 459.670454 
L 246.173955 443.731999 
L 255.393492 416.333664 
L 264.613029 369.111052 
L 273.832566 271.306897 
L 283.052103 199.122821 
L 292.27164 204.391732 
L 301.491177 224.874622 
L 310.710714 265.050066 
L 319.930251 293.502184 
L 329.149788 317.409866 
L 338.369325 379.780596 
L 347.588862 427.464238 
L 356.808399 431.547643 
L 366.027937 425.883564 
L 375.247474 444.522336 
L 384.467011 445.510257 
L 393.686548 439.121703 
L 402.906085 425.290812 
L 412.125622 413.435763 
L 421.345159 406.256872 
L 430.564696 373.128596 
L 439.784233 348.364716 
L 449.00377 298.112481 
L 458.223307 220.922939 
L 467.442844 232.514543 
L 476.662381 249.770225 
L 485.881919 312.009232 
L 495.101456 356.992557 
L 504.320993 386.103289 
L 513.54053 411.920951 
L 522.760067 435.565188 
L 531.979604 444.588197 
L 541.199141 457.958058 
L 550.418678 463.687999 
L 559.638215 465.136949 
L 568.857752 469.220355 
L 578.077289 468.891048 
L 587.296826 471.459642 
L 596.516363 470.801028 
L 605.735901 471.196196 
L 614.955438 469.615523 
L 624.174975 466.585899 
L 633.394512 460.065623 
L 642.614049 444.917504 
L 651.833586 420.878099 
L 661.053123 381.163685 
L 670.27266 364.105587 
L 679.492197 372.469982 
L 688.711734 383.79814 
L 697.931271 370.757587 
L 707.150808 381.756438 
L 716.370345 349.286775 
L 725.589883 324.786341 
L 734.80942 269.792086 
L 744.028957 172.119654 
L 753.248494 108.695142 
L 762.468031 120.655569 
" style="fill:none;stroke:#b2df8a;stroke-linecap:round;stroke-width:1.5;"/>
   </g>
   <g id="line2d_114">
    <path clip-path="url(#p38c5970f79)" d="M 80.222287 470.208276 
L 89.441824 467.837266 
L 98.661361 466.717622 
L 107.880898 465.400395 
L 117.100435 462.502494 
L 126.319973 459.341147 
L 135.53951 456.443246 
L 144.759047 454.401544 
L 153.978584 456.11394 
L 163.198121 457.035999 
L 172.417658 462.963523 
L 181.637195 465.400395 
L 190.856732 463.885583 
L 200.076269 465.993147 
L 209.295806 465.66384 
L 218.515343 464.21489 
L 227.73488 459.604593 
L 236.954417 456.048078 
L 246.173955 437.014138 
L 255.393492 411.262337 
L 264.613029 357.58531 
L 273.832566 247.728522 
L 283.052103 159.803575 
L 292.27164 149.726784 
L 301.491177 168.629001 
L 310.710714 208.475138 
L 319.930251 236.20278 
L 329.149788 262.020442 
L 338.369325 346.323013 
L 347.588862 412.579565 
L 356.808399 416.13608 
L 366.027937 416.399525 
L 375.247474 438.463089 
L 384.467011 440.175485 
L 393.686548 424.895644 
L 402.906085 414.950575 
L 412.125622 404.281031 
L 421.345159 390.252556 
L 430.564696 346.125429 
L 439.784233 312.140955 
L 449.00377 251.153314 
L 458.223307 167.377634 
L 467.442844 167.114189 
L 476.662381 188.848445 
L 485.881919 264.654898 
L 495.101456 326.432875 
L 504.320993 360.483211 
L 513.54053 400.724516 
L 522.760067 427.991129 
L 531.979604 434.182099 
L 541.199141 450.91089 
L 550.418678 459.538731 
L 559.638215 464.149028 
L 568.857752 467.046929 
L 578.077289 468.49588 
L 587.296826 469.088632 
L 596.516363 469.94483 
L 605.735901 470.537583 
L 614.955438 470.142414 
L 624.174975 467.244513 
L 633.394512 460.526652 
L 642.614049 444.983366 
L 651.833586 422.656357 
L 661.053123 392.030813 
L 670.27266 364.500755 
L 679.492197 360.022181 
L 688.711734 374.24824 
L 697.931271 359.692874 
L 707.150808 363.446973 
L 716.370345 331.174895 
L 725.589883 306.015847 
L 734.80942 242.85478 
L 744.028957 110.670983 
L 753.248494 50.341956 
L 762.468031 61.920387 
" style="fill:none;stroke:#33a02c;stroke-linecap:round;stroke-width:1.5;"/>
   </g>
   <g id="line2d_115">
    <path clip-path="url(#p38c5970f79)" d="M 80.222287 471.591365 
L 89.441824 465.795563 
L 98.661361 467.639682 
L 107.880898 465.005226 
L 117.100435 462.370771 
L 126.319973 460.592514 
L 135.53951 459.275286 
L 144.759047 455.850494 
L 153.978584 456.640831 
L 163.198121 453.677068 
L 172.417658 461.448712 
L 181.637195 463.819721 
L 190.856732 463.226969 
L 200.076269 465.005226 
L 209.295806 463.490414 
L 218.515343 462.30491 
L 227.73488 460.131484 
L 236.954417 455.521187 
L 246.173955 439.780316 
L 255.393492 411.459922 
L 264.613029 372.206537 
L 273.832566 285.269511 
L 283.052103 191.219455 
L 292.27164 155.851892 
L 301.491177 142.218586 
L 310.710714 174.754109 
L 319.930251 201.757276 
L 329.149788 217.62987 
L 338.369325 307.069629 
L 347.588862 391.569784 
L 356.808399 403.622417 
L 366.027937 408.562021 
L 375.247474 436.355524 
L 384.467011 438.463089 
L 393.686548 422.919802 
L 402.906085 408.825466 
L 412.125622 395.982496 
L 421.345159 385.773982 
L 430.564696 348.759884 
L 439.784233 306.015847 
L 449.00377 252.075373 
L 458.223307 173.634466 
L 467.442844 151.241595 
L 476.662381 161.054941 
L 485.881919 226.982186 
L 495.101456 297.717312 
L 504.320993 344.017865 
L 513.54053 381.624715 
L 522.760067 413.633347 
L 531.979604 429.308356 
L 541.199141 450.91089 
L 550.418678 457.760474 
L 559.638215 462.173187 
L 568.857752 465.268672 
L 578.077289 466.915206 
L 587.296826 469.154493 
L 596.516363 469.352078 
L 605.735901 470.142414 
L 614.955438 470.537583 
L 624.174975 469.286216 
L 633.394512 463.226969 
L 642.614049 454.006375 
L 651.833586 432.206257 
L 661.053123 402.568635 
L 670.27266 371.350339 
L 679.492197 362.985943 
L 688.711734 372.008953 
L 697.931271 348.035409 
L 707.150808 354.621548 
L 716.370345 339.671014 
L 725.589883 316.487807 
L 734.80942 269.133472 
L 744.028957 160.264605 
L 753.248494 107.707221 
L 762.468031 113.002476 
" style="fill:none;stroke:#fb9a99;stroke-linecap:round;stroke-width:1.5;"/>
   </g>
   <g id="line2d_116">
    <path clip-path="url(#p38c5970f79)" d="M 80.222287 472.974454 
L 89.441824 470.735167 
L 98.661361 468.100711 
L 107.880898 467.771404 
L 117.100435 466.585899 
L 126.319973 465.597979 
L 135.53951 464.675919 
L 144.759047 459.868038 
L 153.978584 458.880118 
L 163.198121 459.538731 
L 172.417658 463.029385 
L 181.637195 463.490414 
L 190.856732 463.226969 
L 200.076269 464.741781 
L 209.295806 465.729702 
L 218.515343 462.831801 
L 227.73488 461.975603 
L 236.954417 458.682533 
L 246.173955 447.420237 
L 255.393492 430.823168 
L 264.613029 400.856239 
L 273.832566 342.964083 
L 283.052103 264.259729 
L 292.27164 229.419058 
L 301.491177 202.481752 
L 310.710714 211.241316 
L 319.930251 227.377355 
L 329.149788 225.203929 
L 338.369325 301.339688 
L 347.588862 384.917784 
L 356.808399 401.38313 
L 366.027937 406.981347 
L 375.247474 433.589346 
L 384.467011 439.648594 
L 393.686548 426.805624 
L 402.906085 415.872634 
L 412.125622 400.395209 
L 421.345159 389.659804 
L 430.564696 348.957469 
L 439.784233 313.853351 
L 449.00377 256.488086 
L 458.223307 192.009792 
L 467.442844 162.438031 
L 476.662381 168.694862 
L 485.881919 216.971256 
L 495.101456 283.82056 
L 504.320993 324.522895 
L 513.54053 371.87723 
L 522.760067 404.74206 
L 531.979604 421.009822 
L 541.199141 437.870336 
L 550.418678 450.581583 
L 559.638215 460.526652 
L 568.857752 462.897662 
L 578.077289 466.520038 
L 587.296826 469.549662 
L 596.516363 469.813107 
L 605.735901 470.603444 
L 614.955438 470.010691 
L 624.174975 469.154493 
L 633.394512 465.400395 
L 642.614049 454.467405 
L 651.833586 437.606891 
L 661.053123 407.508239 
L 670.27266 375.236161 
L 679.492197 362.722498 
L 688.711734 369.637943 
L 697.931271 350.735726 
L 707.150808 356.202221 
L 716.370345 337.168281 
L 725.589883 327.815964 
L 734.80942 288.56258 
L 744.028957 203.33795 
L 753.248494 168.629001 
L 762.468031 150.345881 
" style="fill:none;stroke:#e31a1c;stroke-linecap:round;stroke-width:1.5;"/>
   </g>
   <g id="line2d_117">
    <path clip-path="url(#p38c5970f79)" d="M 80.222287 474.357543 
L 89.441824 472.118256 
L 98.661361 471.591365 
L 107.880898 471.723087 
L 117.100435 470.998612 
L 126.319973 470.603444 
L 135.53951 468.100711 
L 144.759047 467.903127 
L 153.978584 464.346612 
L 163.198121 464.280751 
L 172.417658 469.022771 
L 181.637195 467.903127 
L 190.856732 467.771404 
L 200.076269 468.03485 
L 209.295806 469.94483 
L 218.515343 468.956909 
L 227.73488 467.310375 
L 236.954417 466.12487 
L 246.173955 461.909741 
L 255.393492 453.808791 
L 264.613029 438.06792 
L 273.832566 418.572951 
L 283.052103 371.745507 
L 292.27164 345.400954 
L 301.491177 323.469113 
L 310.710714 317.739173 
L 319.930251 323.008083 
L 329.149788 312.404401 
L 338.369325 346.388875 
L 347.588862 403.161387 
L 356.808399 413.238179 
L 366.027937 418.638812 
L 375.247474 440.834099 
L 384.467011 446.234732 
L 393.686548 444.324752 
L 402.906085 434.643128 
L 412.125622 429.769386 
L 421.345159 414.818852 
L 430.564696 391.569784 
L 439.784233 365.488676 
L 449.00377 325.049786 
L 458.223307 275.653749 
L 467.442844 255.170858 
L 476.662381 246.543017 
L 485.881919 278.09062 
L 495.101456 315.565747 
L 504.320993 351.855369 
L 513.54053 388.606021 
L 522.760067 411.723367 
L 531.979604 422.985664 
L 541.199141 441.624435 
L 550.418678 453.808791 
L 559.638215 461.185266 
L 568.857752 464.807642 
L 578.077289 466.849345 
L 587.296826 469.681385 
L 596.516363 467.903127 
L 605.735901 471.262058 
L 614.955438 471.196196 
L 624.174975 469.813107 
L 633.394512 467.507959 
L 642.614049 461.119405 
L 651.833586 450.845029 
L 661.053123 424.829782 
L 670.27266 396.180081 
L 679.492197 384.522616 
L 688.711734 389.132913 
L 697.931271 375.565468 
L 707.150808 374.050656 
L 716.370345 365.620399 
L 725.589883 358.375646 
L 734.80942 326.63046 
L 744.028957 282.305748 
L 753.248494 246.806463 
L 762.468031 238.771374 
" style="fill:none;stroke:#fdbf6f;stroke-linecap:round;stroke-width:1.5;"/>
   </g>
   <g id="line2d_118">
    <path clip-path="url(#p38c5970f79)" d="M 80.222287 474.357543 
L 89.441824 474.094097 
L 98.661361 473.830652 
L 107.880898 474.094097 
L 117.100435 473.369622 
L 126.319973 474.028236 
L 135.53951 473.501345 
L 144.759047 472.908592 
L 153.978584 468.561741 
L 163.198121 469.681385 
L 172.417658 472.052394 
L 181.637195 472.513424 
L 190.856732 472.711008 
L 200.076269 471.986533 
L 209.295806 473.369622 
L 218.515343 473.040315 
L 227.73488 471.920672 
L 236.954417 471.986533 
L 246.173955 470.208276 
L 255.393492 467.639682 
L 264.613029 463.226969 
L 273.832566 458.089781 
L 283.052103 443.205108 
L 292.27164 435.038297 
L 301.491177 420.878099 
L 310.710714 423.841862 
L 319.930251 421.86602 
L 329.149788 420.943961 
L 338.369325 432.074535 
L 347.588862 445.246811 
L 356.808399 452.162257 
L 366.027937 451.37192 
L 375.247474 460.790098 
L 384.467011 465.466256 
L 393.686548 463.556276 
L 402.906085 461.84388 
L 412.125622 457.365306 
L 421.345159 457.431167 
L 430.564696 445.444395 
L 439.784233 441.822019 
L 449.00377 425.224951 
L 458.223307 408.627882 
L 467.442844 406.059288 
L 476.662381 397.826615 
L 485.881919 410.603724 
L 495.101456 418.309505 
L 504.320993 427.661822 
L 513.54053 442.217188 
L 522.760067 449.066771 
L 531.979604 454.269821 
L 541.199141 462.107325 
L 550.418678 465.795563 
L 559.638215 468.759325 
L 568.857752 470.076553 
L 578.077289 471.064474 
L 587.296826 472.31584 
L 596.516363 472.711008 
L 605.735901 473.369622 
L 614.955438 473.303761 
L 624.174975 473.369622 
L 633.394512 473.040315 
L 642.614049 469.94483 
L 651.833586 466.256593 
L 661.053123 458.419088 
L 670.27266 452.491563 
L 679.492197 447.749544 
L 688.711734 447.288514 
L 697.931271 438.002059 
L 707.150808 438.660673 
L 716.370345 436.289663 
L 725.589883 433.194178 
L 734.80942 423.117386 
L 744.028957 409.154773 
L 753.248494 393.545625 
L 762.468031 391.095582 
" style="fill:none;stroke:#ff7f00;stroke-linecap:round;stroke-width:1.5;"/>
   </g>
   <g id="line2d_119">
    <path clip-path="url(#p38c5970f79)" d="M 80.222287 474.818572 
L 89.441824 474.752711 
L 98.661361 474.818572 
L 107.880898 474.818572 
L 117.100435 474.68685 
L 126.319973 474.752711 
L 135.53951 474.620988 
L 144.759047 474.68685 
L 153.978584 474.22582 
L 163.198121 474.094097 
L 172.417658 474.68685 
L 181.637195 474.423404 
L 190.856732 474.620988 
L 200.076269 474.489266 
L 209.295806 474.68685 
L 218.515343 474.68685 
L 227.73488 474.752711 
L 236.954417 474.68685 
L 246.173955 474.620988 
L 255.393492 474.159959 
L 264.613029 472.908592 
L 273.832566 473.501345 
L 283.052103 471.657226 
L 292.27164 471.591365 
L 301.491177 468.825187 
L 310.710714 470.274137 
L 319.930251 470.801028 
L 329.149788 470.208276 
L 338.369325 471.262058 
L 347.588862 471.85481 
L 356.808399 473.040315 
L 366.027937 472.447563 
L 375.247474 472.579285 
L 384.467011 474.094097 
L 393.686548 473.567206 
L 402.906085 473.369622 
L 412.125622 473.501345 
L 421.345159 473.633068 
L 430.564696 472.513424 
L 439.784233 472.381701 
L 449.00377 470.537583 
L 458.223307 468.166573 
L 467.442844 469.4838 
L 476.662381 469.747246 
L 485.881919 469.154493 
L 495.101456 470.537583 
L 504.320993 470.40586 
L 513.54053 472.249978 
L 522.760067 473.106176 
L 531.979604 473.435483 
L 541.199141 473.830652 
L 550.418678 473.962374 
L 559.638215 474.423404 
L 568.857752 474.094097 
L 578.077289 474.620988 
L 587.296826 474.752711 
L 596.516363 474.752711 
L 605.735901 474.68685 
L 614.955438 474.620988 
L 624.174975 474.620988 
L 633.394512 474.620988 
L 642.614049 474.423404 
L 651.833586 473.896513 
L 661.053123 473.698929 
L 670.27266 472.711008 
L 679.492197 471.723087 
L 688.711734 472.579285 
L 697.931271 472.513424 
L 707.150808 470.932751 
L 716.370345 469.94483 
L 725.589883 470.669305 
L 734.80942 470.866889 
L 744.028957 468.364157 
L 753.248494 466.783484 
L 762.468031 468.179745 
" style="fill:none;stroke:#cab2d6;stroke-linecap:round;stroke-width:1.5;"/>
   </g>
   <g id="line2d_120"/>
   <g id="line2d_121"/>
   <g id="line2d_122"/>
   <g id="line2d_123"/>
   <g id="line2d_124"/>
   <g id="line2d_125"/>
   <g id="line2d_126"/>
   <g id="line2d_127"/>
   <g id="line2d_128"/>
   <g id="patch_3">
    <path d="M 46.11 496.042403 
L 46.11 29.118125 
" style="fill:none;stroke:#262626;stroke-linecap:square;stroke-linejoin:miter;stroke-width:1.25;"/>
   </g>
   <g id="patch_4">
    <path d="M 796.580318 496.042403 
L 796.580318 29.118125 
" style="fill:none;stroke:#262626;stroke-linecap:square;stroke-linejoin:miter;stroke-width:1.25;"/>
   </g>
   <g id="patch_5">
    <path d="M 46.11 496.042403 
L 796.580318 496.042403 
" style="fill:none;stroke:#262626;stroke-linecap:square;stroke-linejoin:miter;stroke-width:1.25;"/>
   </g>
   <g id="patch_6">
    <path d="M 46.11 29.118125 
L 796.580318 29.118125 
" style="fill:none;stroke:#262626;stroke-linecap:square;stroke-linejoin:miter;stroke-width:1.25;"/>
   </g>
   <g id="text_27">
    <!-- Last update: 05.11.2021 -->
    <g style="fill:#262626;" transform="translate(359.846331 22.114261)scale(0.09996 -0.09996)">
     <defs>
      <path d="M 628 4666 
L 1259 4666 
L 1259 531 
L 3531 531 
L 3531 0 
L 628 0 
L 628 4666 
z
" id="DejaVuSans-4c" transform="scale(0.015625)"/>
      <path d="M 1172 4494 
L 1172 3500 
L 2356 3500 
L 2356 3053 
L 1172 3053 
L 1172 1153 
Q 1172 725 1289 603 
Q 1406 481 1766 481 
L 2356 481 
L 2356 0 
L 1766 0 
Q 1100 0 847 248 
Q 594 497 594 1153 
L 594 3053 
L 172 3053 
L 172 3500 
L 594 3500 
L 594 4494 
L 1172 4494 
z
" id="DejaVuSans-74" transform="scale(0.015625)"/>
      <path d="M 544 1381 
L 544 3500 
L 1119 3500 
L 1119 1403 
Q 1119 906 1312 657 
Q 1506 409 1894 409 
Q 2359 409 2629 706 
Q 2900 1003 2900 1516 
L 2900 3500 
L 3475 3500 
L 3475 0 
L 2900 0 
L 2900 538 
Q 2691 219 2414 64 
Q 2138 -91 1772 -91 
Q 1169 -91 856 284 
Q 544 659 544 1381 
z
M 1991 3584 
L 1991 3584 
z
" id="DejaVuSans-75" transform="scale(0.015625)"/>
      <path d="M 1159 525 
L 1159 -1331 
L 581 -1331 
L 581 3500 
L 1159 3500 
L 1159 2969 
Q 1341 3281 1617 3432 
Q 1894 3584 2278 3584 
Q 2916 3584 3314 3078 
Q 3713 2572 3713 1747 
Q 3713 922 3314 415 
Q 2916 -91 2278 -91 
Q 1894 -91 1617 61 
Q 1341 213 1159 525 
z
M 3116 1747 
Q 3116 2381 2855 2742 
Q 2594 3103 2138 3103 
Q 1681 3103 1420 2742 
Q 1159 2381 1159 1747 
Q 1159 1113 1420 752 
Q 1681 391 2138 391 
Q 2594 391 2855 752 
Q 3116 1113 3116 1747 
z
" id="DejaVuSans-70" transform="scale(0.015625)"/>
      <path d="M 2906 2969 
L 2906 4863 
L 3481 4863 
L 3481 0 
L 2906 0 
L 2906 525 
Q 2725 213 2448 61 
Q 2172 -91 1784 -91 
Q 1150 -91 751 415 
Q 353 922 353 1747 
Q 353 2572 751 3078 
Q 1150 3584 1784 3584 
Q 2172 3584 2448 3432 
Q 2725 3281 2906 2969 
z
M 947 1747 
Q 947 1113 1208 752 
Q 1469 391 1925 391 
Q 2381 391 2643 752 
Q 2906 1113 2906 1747 
Q 2906 2381 2643 2742 
Q 2381 3103 1925 3103 
Q 1469 3103 1208 2742 
Q 947 2381 947 1747 
z
" id="DejaVuSans-64" transform="scale(0.015625)"/>
      <path d="M 750 794 
L 1409 794 
L 1409 0 
L 750 0 
L 750 794 
z
M 750 3309 
L 1409 3309 
L 1409 2516 
L 750 2516 
L 750 3309 
z
" id="DejaVuSans-3a" transform="scale(0.015625)"/>
     </defs>
     <use xlink:href="#DejaVuSans-4c"/>
     <use x="55.712891" xlink:href="#DejaVuSans-61"/>
     <use x="116.992188" xlink:href="#DejaVuSans-73"/>
     <use x="169.091797" xlink:href="#DejaVuSans-74"/>
     <use x="208.300781" xlink:href="#DejaVuSans-20"/>
     <use x="240.087891" xlink:href="#DejaVuSans-75"/>
     <use x="303.466797" xlink:href="#DejaVuSans-70"/>
     <use x="366.943359" xlink:href="#DejaVuSans-64"/>
     <use x="430.419922" xlink:href="#DejaVuSans-61"/>
     <use x="491.699219" xlink:href="#DejaVuSans-74"/>
     <use x="530.908203" xlink:href="#DejaVuSans-65"/>
     <use x="592.431641" xlink:href="#DejaVuSans-3a"/>
     <use x="626.123047" xlink:href="#DejaVuSans-20"/>
     <use x="657.910156" xlink:href="#DejaVuSans-30"/>
     <use x="721.533203" xlink:href="#DejaVuSans-35"/>
     <use x="785.15625" xlink:href="#DejaVuSans-2e"/>
     <use x="816.943359" xlink:href="#DejaVuSans-31"/>
     <use x="880.566406" xlink:href="#DejaVuSans-31"/>
     <use x="944.189453" xlink:href="#DejaVuSans-2e"/>
     <use x="975.976562" xlink:href="#DejaVuSans-32"/>
     <use x="1039.599609" xlink:href="#DejaVuSans-30"/>
     <use x="1103.222656" xlink:href="#DejaVuSans-32"/>
     <use x="1166.845703" xlink:href="#DejaVuSans-31"/>
    </g>
   </g>
   <g id="patch_7">
    <path d="M 792.967659 347.943203 
Q 778.717497 347.943203 765.585369 347.943203 
" style="fill:none;stroke:#a6cee3;stroke-linecap:round;"/>
    <path d="M 770.385369 350.343203 
L 765.585369 347.943203 
L 770.385369 345.543203 
" style="fill:none;stroke:#a6cee3;stroke-linecap:round;"/>
   </g>
   <g id="text_28">
    <!-- 0-19 (275) -->
    <g style="fill:#a6cee3;" transform="translate(797.468031 351.254453)scale(0.12 -0.12)">
     <defs>
      <path d="M 313 2009 
L 1997 2009 
L 1997 1497 
L 313 1497 
L 313 2009 
z
" id="DejaVuSans-2d" transform="scale(0.015625)"/>
     </defs>
     <use xlink:href="#DejaVuSans-30"/>
     <use x="63.623047" xlink:href="#DejaVuSans-2d"/>
     <use x="99.707031" xlink:href="#DejaVuSans-31"/>
     <use x="163.330078" xlink:href="#DejaVuSans-39"/>
     <use x="226.953125" xlink:href="#DejaVuSans-20"/>
     <use x="258.740234" xlink:href="#DejaVuSans-28"/>
     <use x="297.753906" xlink:href="#DejaVuSans-32"/>
     <use x="361.376953" xlink:href="#DejaVuSans-37"/>
     <use x="425" xlink:href="#DejaVuSans-35"/>
     <use x="488.623047" xlink:href="#DejaVuSans-29"/>
    </g>
   </g>
   <g id="patch_8">
    <path d="M 792.962588 268.922715 
Q 778.714795 268.922715 765.585037 268.922715 
" style="fill:none;stroke:#1f78b4;stroke-linecap:round;"/>
    <path d="M 770.385037 271.322715 
L 765.585037 268.922715 
L 770.385037 266.522715 
" style="fill:none;stroke:#1f78b4;stroke-linecap:round;"/>
   </g>
   <g id="text_29">
    <!-- 20-29 (447) -->
    <g style="fill:#1f78b4;" transform="translate(797.468031 272.233965)scale(0.12 -0.12)">
     <use xlink:href="#DejaVuSans-32"/>
     <use x="63.623047" xlink:href="#DejaVuSans-30"/>
     <use x="127.246094" xlink:href="#DejaVuSans-2d"/>
     <use x="163.330078" xlink:href="#DejaVuSans-32"/>
     <use x="226.953125" xlink:href="#DejaVuSans-39"/>
     <use x="290.576172" xlink:href="#DejaVuSans-20"/>
     <use x="322.363281" xlink:href="#DejaVuSans-28"/>
     <use x="361.376953" xlink:href="#DejaVuSans-34"/>
     <use x="425" xlink:href="#DejaVuSans-34"/>
     <use x="488.623047" xlink:href="#DejaVuSans-37"/>
     <use x="552.246094" xlink:href="#DejaVuSans-29"/>
    </g>
   </g>
   <g id="patch_9">
    <path d="M 792.962588 120.655569 
Q 778.714795 120.655569 765.585037 120.655569 
" style="fill:none;stroke:#b2df8a;stroke-linecap:round;"/>
    <path d="M 770.385037 123.055569 
L 765.585037 120.655569 
L 770.385037 118.255569 
" style="fill:none;stroke:#b2df8a;stroke-linecap:round;"/>
   </g>
   <g id="text_30">
    <!-- 30-39 (768) -->
    <g style="fill:#b2df8a;" transform="translate(797.468031 123.966819)scale(0.12 -0.12)">
     <use xlink:href="#DejaVuSans-33"/>
     <use x="63.623047" xlink:href="#DejaVuSans-30"/>
     <use x="127.246094" xlink:href="#DejaVuSans-2d"/>
     <use x="163.330078" xlink:href="#DejaVuSans-33"/>
     <use x="226.953125" xlink:href="#DejaVuSans-39"/>
     <use x="290.576172" xlink:href="#DejaVuSans-20"/>
     <use x="322.363281" xlink:href="#DejaVuSans-28"/>
     <use x="361.376953" xlink:href="#DejaVuSans-37"/>
     <use x="425" xlink:href="#DejaVuSans-36"/>
     <use x="488.623047" xlink:href="#DejaVuSans-38"/>
     <use x="552.246094" xlink:href="#DejaVuSans-29"/>
    </g>
   </g>
   <g id="patch_10">
    <path d="M 792.962588 61.920387 
Q 778.714795 61.920387 765.585037 61.920387 
" style="fill:none;stroke:#33a02c;stroke-linecap:round;"/>
    <path d="M 770.385037 64.320387 
L 765.585037 61.920387 
L 770.385037 59.520387 
" style="fill:none;stroke:#33a02c;stroke-linecap:round;"/>
   </g>
   <g id="text_31">
    <!-- 40-49 (896) -->
    <g style="fill:#33a02c;" transform="translate(797.468031 65.231637)scale(0.12 -0.12)">
     <use xlink:href="#DejaVuSans-34"/>
     <use x="63.623047" xlink:href="#DejaVuSans-30"/>
     <use x="127.246094" xlink:href="#DejaVuSans-2d"/>
     <use x="163.330078" xlink:href="#DejaVuSans-34"/>
     <use x="226.953125" xlink:href="#DejaVuSans-39"/>
     <use x="290.576172" xlink:href="#DejaVuSans-20"/>
     <use x="322.363281" xlink:href="#DejaVuSans-28"/>
     <use x="361.376953" xlink:href="#DejaVuSans-38"/>
     <use x="425" xlink:href="#DejaVuSans-39"/>
     <use x="488.623047" xlink:href="#DejaVuSans-36"/>
     <use x="552.246094" xlink:href="#DejaVuSans-29"/>
    </g>
   </g>
   <g id="patch_11">
    <path d="M 792.962588 113.002476 
Q 778.714795 113.002476 765.585037 113.002476 
" style="fill:none;stroke:#fb9a99;stroke-linecap:round;"/>
    <path d="M 770.385037 115.402476 
L 765.585037 113.002476 
L 770.385037 110.602476 
" style="fill:none;stroke:#fb9a99;stroke-linecap:round;"/>
   </g>
   <g id="text_32">
    <!-- 50-59 (785) -->
    <g style="fill:#fb9a99;" transform="translate(797.468031 116.313726)scale(0.12 -0.12)">
     <use xlink:href="#DejaVuSans-35"/>
     <use x="63.623047" xlink:href="#DejaVuSans-30"/>
     <use x="127.246094" xlink:href="#DejaVuSans-2d"/>
     <use x="163.330078" xlink:href="#DejaVuSans-35"/>
     <use x="226.953125" xlink:href="#DejaVuSans-39"/>
     <use x="290.576172" xlink:href="#DejaVuSans-20"/>
     <use x="322.363281" xlink:href="#DejaVuSans-28"/>
     <use x="361.376953" xlink:href="#DejaVuSans-37"/>
     <use x="425" xlink:href="#DejaVuSans-38"/>
     <use x="488.623047" xlink:href="#DejaVuSans-35"/>
     <use x="552.246094" xlink:href="#DejaVuSans-29"/>
    </g>
   </g>
   <g id="patch_12">
    <path d="M 792.962588 150.345881 
Q 778.714795 150.345881 765.585037 150.345881 
" style="fill:none;stroke:#e31a1c;stroke-linecap:round;"/>
    <path d="M 770.385037 152.745881 
L 765.585037 150.345881 
L 770.385037 147.945881 
" style="fill:none;stroke:#e31a1c;stroke-linecap:round;"/>
   </g>
   <g id="text_33">
    <!-- 60-69 (704) -->
    <g style="fill:#e31a1c;" transform="translate(797.468031 153.657131)scale(0.12 -0.12)">
     <use xlink:href="#DejaVuSans-36"/>
     <use x="63.623047" xlink:href="#DejaVuSans-30"/>
     <use x="127.246094" xlink:href="#DejaVuSans-2d"/>
     <use x="163.330078" xlink:href="#DejaVuSans-36"/>
     <use x="226.953125" xlink:href="#DejaVuSans-39"/>
     <use x="290.576172" xlink:href="#DejaVuSans-20"/>
     <use x="322.363281" xlink:href="#DejaVuSans-28"/>
     <use x="361.376953" xlink:href="#DejaVuSans-37"/>
     <use x="425" xlink:href="#DejaVuSans-30"/>
     <use x="488.623047" xlink:href="#DejaVuSans-34"/>
     <use x="552.246094" xlink:href="#DejaVuSans-29"/>
    </g>
   </g>
   <g id="patch_13">
    <path d="M 792.962588 238.771374 
Q 778.714795 238.771374 765.585037 238.771374 
" style="fill:none;stroke:#fdbf6f;stroke-linecap:round;"/>
    <path d="M 770.385037 241.171374 
L 765.585037 238.771374 
L 770.385037 236.371374 
" style="fill:none;stroke:#fdbf6f;stroke-linecap:round;"/>
   </g>
   <g id="text_34">
    <!-- 70-79 (512) -->
    <g style="fill:#fdbf6f;" transform="translate(797.468031 242.082624)scale(0.12 -0.12)">
     <use xlink:href="#DejaVuSans-37"/>
     <use x="63.623047" xlink:href="#DejaVuSans-30"/>
     <use x="127.246094" xlink:href="#DejaVuSans-2d"/>
     <use x="163.330078" xlink:href="#DejaVuSans-37"/>
     <use x="226.953125" xlink:href="#DejaVuSans-39"/>
     <use x="290.576172" xlink:href="#DejaVuSans-20"/>
     <use x="322.363281" xlink:href="#DejaVuSans-28"/>
     <use x="361.376953" xlink:href="#DejaVuSans-35"/>
     <use x="425" xlink:href="#DejaVuSans-31"/>
     <use x="488.623047" xlink:href="#DejaVuSans-32"/>
     <use x="552.246094" xlink:href="#DejaVuSans-29"/>
    </g>
   </g>
   <g id="patch_14">
    <path d="M 792.962588 391.095582 
Q 778.714795 391.095582 765.585037 391.095582 
" style="fill:none;stroke:#ff7f00;stroke-linecap:round;"/>
    <path d="M 770.385037 393.495582 
L 765.585037 391.095582 
L 770.385037 388.695582 
" style="fill:none;stroke:#ff7f00;stroke-linecap:round;"/>
   </g>
   <g id="text_35">
    <!-- 80-89 (182) -->
    <g style="fill:#ff7f00;" transform="translate(797.468031 394.406832)scale(0.12 -0.12)">
     <use xlink:href="#DejaVuSans-38"/>
     <use x="63.623047" xlink:href="#DejaVuSans-30"/>
     <use x="127.246094" xlink:href="#DejaVuSans-2d"/>
     <use x="163.330078" xlink:href="#DejaVuSans-38"/>
     <use x="226.953125" xlink:href="#DejaVuSans-39"/>
     <use x="290.576172" xlink:href="#DejaVuSans-20"/>
     <use x="322.363281" xlink:href="#DejaVuSans-28"/>
     <use x="361.376953" xlink:href="#DejaVuSans-31"/>
     <use x="425" xlink:href="#DejaVuSans-38"/>
     <use x="488.623047" xlink:href="#DejaVuSans-32"/>
     <use x="552.246094" xlink:href="#DejaVuSans-29"/>
    </g>
   </g>
   <g id="patch_15">
    <path d="M 792.967637 468.179745 
Q 778.717485 468.179745 765.585368 468.179745 
" style="fill:none;stroke:#cab2d6;stroke-linecap:round;"/>
    <path d="M 770.385368 470.579745 
L 765.585368 468.179745 
L 770.385368 465.779745 
" style="fill:none;stroke:#cab2d6;stroke-linecap:round;"/>
   </g>
   <g id="text_36">
    <!-- 90+ (14) -->
    <g style="fill:#cab2d6;" transform="translate(797.468031 471.490995)scale(0.12 -0.12)">
     <defs>
      <path d="M 2944 4013 
L 2944 2272 
L 4684 2272 
L 4684 1741 
L 2944 1741 
L 2944 0 
L 2419 0 
L 2419 1741 
L 678 1741 
L 678 2272 
L 2419 2272 
L 2419 4013 
L 2944 4013 
z
" id="DejaVuSans-2b" transform="scale(0.015625)"/>
     </defs>
     <use xlink:href="#DejaVuSans-39"/>
     <use x="63.623047" xlink:href="#DejaVuSans-30"/>
     <use x="127.246094" xlink:href="#DejaVuSans-2b"/>
     <use x="211.035156" xlink:href="#DejaVuSans-20"/>
     <use x="242.822266" xlink:href="#DejaVuSans-28"/>
     <use x="281.835938" xlink:href="#DejaVuSans-31"/>
     <use x="345.458984" xlink:href="#DejaVuSans-34"/>
     <use x="409.082031" xlink:href="#DejaVuSans-29"/>
    </g>
   </g>
   <g id="text_37">
    <!-- New cases by age group -->
    <g style="fill:#262626;" transform="translate(338.977347 9.118125)scale(0.12 -0.12)">
     <defs>
      <path d="M 588 4666 
L 1931 4666 
L 3628 1466 
L 3628 4666 
L 4769 4666 
L 4769 0 
L 3425 0 
L 1728 3200 
L 1728 0 
L 588 0 
L 588 4666 
z
" id="DejaVuSans-Bold-4e" transform="scale(0.015625)"/>
      <path d="M 4031 1759 
L 4031 1441 
L 1416 1441 
Q 1456 1047 1700 850 
Q 1944 653 2381 653 
Q 2734 653 3104 758 
Q 3475 863 3866 1075 
L 3866 213 
Q 3469 63 3072 -14 
Q 2675 -91 2278 -91 
Q 1328 -91 801 392 
Q 275 875 275 1747 
Q 275 2603 792 3093 
Q 1309 3584 2216 3584 
Q 3041 3584 3536 3087 
Q 4031 2591 4031 1759 
z
M 2881 2131 
Q 2881 2450 2695 2645 
Q 2509 2841 2209 2841 
Q 1884 2841 1681 2658 
Q 1478 2475 1428 2131 
L 2881 2131 
z
" id="DejaVuSans-Bold-65" transform="scale(0.015625)"/>
      <path d="M 225 3500 
L 1313 3500 
L 1900 1088 
L 2491 3500 
L 3425 3500 
L 4013 1113 
L 4603 3500 
L 5691 3500 
L 4769 0 
L 3547 0 
L 2956 2406 
L 2369 0 
L 1147 0 
L 225 3500 
z
" id="DejaVuSans-Bold-77" transform="scale(0.015625)"/>
      <path id="DejaVuSans-Bold-20" transform="scale(0.015625)"/>
      <path d="M 3366 3391 
L 3366 2478 
Q 3138 2634 2908 2709 
Q 2678 2784 2431 2784 
Q 1963 2784 1702 2511 
Q 1441 2238 1441 1747 
Q 1441 1256 1702 982 
Q 1963 709 2431 709 
Q 2694 709 2930 787 
Q 3166 866 3366 1019 
L 3366 103 
Q 3103 6 2833 -42 
Q 2563 -91 2291 -91 
Q 1344 -91 809 395 
Q 275 881 275 1747 
Q 275 2613 809 3098 
Q 1344 3584 2291 3584 
Q 2566 3584 2833 3536 
Q 3100 3488 3366 3391 
z
" id="DejaVuSans-Bold-63" transform="scale(0.015625)"/>
      <path d="M 2106 1575 
Q 1756 1575 1579 1456 
Q 1403 1338 1403 1106 
Q 1403 894 1545 773 
Q 1688 653 1941 653 
Q 2256 653 2472 879 
Q 2688 1106 2688 1447 
L 2688 1575 
L 2106 1575 
z
M 3816 1997 
L 3816 0 
L 2688 0 
L 2688 519 
Q 2463 200 2181 54 
Q 1900 -91 1497 -91 
Q 953 -91 614 226 
Q 275 544 275 1050 
Q 275 1666 698 1953 
Q 1122 2241 2028 2241 
L 2688 2241 
L 2688 2328 
Q 2688 2594 2478 2717 
Q 2269 2841 1825 2841 
Q 1466 2841 1156 2769 
Q 847 2697 581 2553 
L 581 3406 
Q 941 3494 1303 3539 
Q 1666 3584 2028 3584 
Q 2975 3584 3395 3211 
Q 3816 2838 3816 1997 
z
" id="DejaVuSans-Bold-61" transform="scale(0.015625)"/>
      <path d="M 3272 3391 
L 3272 2541 
Q 2913 2691 2578 2766 
Q 2244 2841 1947 2841 
Q 1628 2841 1473 2761 
Q 1319 2681 1319 2516 
Q 1319 2381 1436 2309 
Q 1553 2238 1856 2203 
L 2053 2175 
Q 2913 2066 3209 1816 
Q 3506 1566 3506 1031 
Q 3506 472 3093 190 
Q 2681 -91 1863 -91 
Q 1516 -91 1145 -36 
Q 775 19 384 128 
L 384 978 
Q 719 816 1070 734 
Q 1422 653 1784 653 
Q 2113 653 2278 743 
Q 2444 834 2444 1013 
Q 2444 1163 2330 1236 
Q 2216 1309 1875 1350 
L 1678 1375 
Q 931 1469 631 1722 
Q 331 1975 331 2491 
Q 331 3047 712 3315 
Q 1094 3584 1881 3584 
Q 2191 3584 2531 3537 
Q 2872 3491 3272 3391 
z
" id="DejaVuSans-Bold-73" transform="scale(0.015625)"/>
      <path d="M 2400 722 
Q 2759 722 2948 984 
Q 3138 1247 3138 1747 
Q 3138 2247 2948 2509 
Q 2759 2772 2400 2772 
Q 2041 2772 1848 2508 
Q 1656 2244 1656 1747 
Q 1656 1250 1848 986 
Q 2041 722 2400 722 
z
M 1656 2988 
Q 1888 3294 2169 3439 
Q 2450 3584 2816 3584 
Q 3463 3584 3878 3070 
Q 4294 2556 4294 1747 
Q 4294 938 3878 423 
Q 3463 -91 2816 -91 
Q 2450 -91 2169 54 
Q 1888 200 1656 506 
L 1656 0 
L 538 0 
L 538 4863 
L 1656 4863 
L 1656 2988 
z
" id="DejaVuSans-Bold-62" transform="scale(0.015625)"/>
      <path d="M 78 3500 
L 1197 3500 
L 2138 1125 
L 2938 3500 
L 4056 3500 
L 2584 -331 
Q 2363 -916 2067 -1148 
Q 1772 -1381 1288 -1381 
L 641 -1381 
L 641 -647 
L 991 -647 
Q 1275 -647 1404 -556 
Q 1534 -466 1606 -231 
L 1638 -134 
L 78 3500 
z
" id="DejaVuSans-Bold-79" transform="scale(0.015625)"/>
      <path d="M 2919 594 
Q 2688 288 2409 144 
Q 2131 0 1766 0 
Q 1125 0 706 504 
Q 288 1009 288 1791 
Q 288 2575 706 3076 
Q 1125 3578 1766 3578 
Q 2131 3578 2409 3434 
Q 2688 3291 2919 2981 
L 2919 3500 
L 4044 3500 
L 4044 353 
Q 4044 -491 3511 -936 
Q 2978 -1381 1966 -1381 
Q 1638 -1381 1331 -1331 
Q 1025 -1281 716 -1178 
L 716 -306 
Q 1009 -475 1290 -558 
Q 1572 -641 1856 -641 
Q 2406 -641 2662 -400 
Q 2919 -159 2919 353 
L 2919 594 
z
M 2181 2772 
Q 1834 2772 1640 2515 
Q 1447 2259 1447 1791 
Q 1447 1309 1634 1061 
Q 1822 813 2181 813 
Q 2531 813 2725 1069 
Q 2919 1325 2919 1791 
Q 2919 2259 2725 2515 
Q 2531 2772 2181 2772 
z
" id="DejaVuSans-Bold-67" transform="scale(0.015625)"/>
      <path d="M 3138 2547 
Q 2991 2616 2845 2648 
Q 2700 2681 2553 2681 
Q 2122 2681 1889 2404 
Q 1656 2128 1656 1613 
L 1656 0 
L 538 0 
L 538 3500 
L 1656 3500 
L 1656 2925 
Q 1872 3269 2151 3426 
Q 2431 3584 2822 3584 
Q 2878 3584 2943 3579 
Q 3009 3575 3134 3559 
L 3138 2547 
z
" id="DejaVuSans-Bold-72" transform="scale(0.015625)"/>
      <path d="M 2203 2784 
Q 1831 2784 1636 2517 
Q 1441 2250 1441 1747 
Q 1441 1244 1636 976 
Q 1831 709 2203 709 
Q 2569 709 2762 976 
Q 2956 1244 2956 1747 
Q 2956 2250 2762 2517 
Q 2569 2784 2203 2784 
z
M 2203 3584 
Q 3106 3584 3614 3096 
Q 4122 2609 4122 1747 
Q 4122 884 3614 396 
Q 3106 -91 2203 -91 
Q 1297 -91 786 396 
Q 275 884 275 1747 
Q 275 2609 786 3096 
Q 1297 3584 2203 3584 
z
" id="DejaVuSans-Bold-6f" transform="scale(0.015625)"/>
      <path d="M 500 1363 
L 500 3500 
L 1625 3500 
L 1625 3150 
Q 1625 2866 1622 2436 
Q 1619 2006 1619 1863 
Q 1619 1441 1641 1255 
Q 1663 1069 1716 984 
Q 1784 875 1895 815 
Q 2006 756 2150 756 
Q 2500 756 2700 1025 
Q 2900 1294 2900 1772 
L 2900 3500 
L 4019 3500 
L 4019 0 
L 2900 0 
L 2900 506 
Q 2647 200 2364 54 
Q 2081 -91 1741 -91 
Q 1134 -91 817 281 
Q 500 653 500 1363 
z
" id="DejaVuSans-Bold-75" transform="scale(0.015625)"/>
      <path d="M 1656 506 
L 1656 -1331 
L 538 -1331 
L 538 3500 
L 1656 3500 
L 1656 2988 
Q 1888 3294 2169 3439 
Q 2450 3584 2816 3584 
Q 3463 3584 3878 3070 
Q 4294 2556 4294 1747 
Q 4294 938 3878 423 
Q 3463 -91 2816 -91 
Q 2450 -91 2169 54 
Q 1888 200 1656 506 
z
M 2400 2772 
Q 2041 2772 1848 2508 
Q 1656 2244 1656 1747 
Q 1656 1250 1848 986 
Q 2041 722 2400 722 
Q 2759 722 2948 984 
Q 3138 1247 3138 1747 
Q 3138 2247 2948 2509 
Q 2759 2772 2400 2772 
z
" id="DejaVuSans-Bold-70" transform="scale(0.015625)"/>
     </defs>
     <use xlink:href="#DejaVuSans-Bold-4e"/>
     <use x="83.691406" xlink:href="#DejaVuSans-Bold-65"/>
     <use x="151.513672" xlink:href="#DejaVuSans-Bold-77"/>
     <use x="243.896484" xlink:href="#DejaVuSans-Bold-20"/>
     <use x="278.710938" xlink:href="#DejaVuSans-Bold-63"/>
     <use x="337.988281" xlink:href="#DejaVuSans-Bold-61"/>
     <use x="405.46875" xlink:href="#DejaVuSans-Bold-73"/>
     <use x="464.990234" xlink:href="#DejaVuSans-Bold-65"/>
     <use x="532.8125" xlink:href="#DejaVuSans-Bold-73"/>
     <use x="592.333984" xlink:href="#DejaVuSans-Bold-20"/>
     <use x="627.148438" xlink:href="#DejaVuSans-Bold-62"/>
     <use x="698.730469" xlink:href="#DejaVuSans-Bold-79"/>
     <use x="763.916016" xlink:href="#DejaVuSans-Bold-20"/>
     <use x="798.730469" xlink:href="#DejaVuSans-Bold-61"/>
     <use x="866.210938" xlink:href="#DejaVuSans-Bold-67"/>
     <use x="937.792969" xlink:href="#DejaVuSans-Bold-65"/>
     <use x="1005.615234" xlink:href="#DejaVuSans-Bold-20"/>
     <use x="1040.429688" xlink:href="#DejaVuSans-Bold-67"/>
     <use x="1112.011719" xlink:href="#DejaVuSans-Bold-72"/>
     <use x="1161.328125" xlink:href="#DejaVuSans-Bold-6f"/>
     <use x="1230.029297" xlink:href="#DejaVuSans-Bold-75"/>
     <use x="1301.220703" xlink:href="#DejaVuSans-Bold-70"/>
    </g>
   </g>
   <g id="legend_1">
    <g id="patch_16">
     <path d="M 53.81 183.231562 
L 120.973594 183.231562 
Q 123.173594 183.231562 123.173594 181.031563 
L 123.173594 36.818125 
Q 123.173594 34.618125 120.973594 34.618125 
L 53.81 34.618125 
Q 51.61 34.618125 51.61 36.818125 
L 51.61 181.031563 
Q 51.61 183.231562 53.81 183.231562 
z
" style="fill:#ffffff;opacity:0.8;stroke:#cccccc;stroke-linejoin:miter;"/>
    </g>
    <g id="line2d_129">
     <path d="M 56.01 43.526406 
L 78.01 43.526406 
" style="fill:none;stroke:#a6cee3;stroke-linecap:round;stroke-width:1.5;"/>
    </g>
    <g id="line2d_130"/>
    <g id="text_38">
     <!-- 0-19 -->
     <g style="fill:#262626;" transform="translate(86.81 47.376406)scale(0.11 -0.11)">
      <use xlink:href="#DejaVuSans-30"/>
      <use x="63.623047" xlink:href="#DejaVuSans-2d"/>
      <use x="99.707031" xlink:href="#DejaVuSans-31"/>
      <use x="163.330078" xlink:href="#DejaVuSans-39"/>
     </g>
    </g>
    <g id="line2d_131">
     <path d="M 56.01 59.672344 
L 78.01 59.672344 
" style="fill:none;stroke:#1f78b4;stroke-linecap:round;stroke-width:1.5;"/>
    </g>
    <g id="line2d_132"/>
    <g id="text_39">
     <!-- 20-29 -->
     <g style="fill:#262626;" transform="translate(86.81 63.522344)scale(0.11 -0.11)">
      <use xlink:href="#DejaVuSans-32"/>
      <use x="63.623047" xlink:href="#DejaVuSans-30"/>
      <use x="127.246094" xlink:href="#DejaVuSans-2d"/>
      <use x="163.330078" xlink:href="#DejaVuSans-32"/>
      <use x="226.953125" xlink:href="#DejaVuSans-39"/>
     </g>
    </g>
    <g id="line2d_133">
     <path d="M 56.01 75.818281 
L 78.01 75.818281 
" style="fill:none;stroke:#b2df8a;stroke-linecap:round;stroke-width:1.5;"/>
    </g>
    <g id="line2d_134"/>
    <g id="text_40">
     <!-- 30-39 -->
     <g style="fill:#262626;" transform="translate(86.81 79.668281)scale(0.11 -0.11)">
      <use xlink:href="#DejaVuSans-33"/>
      <use x="63.623047" xlink:href="#DejaVuSans-30"/>
      <use x="127.246094" xlink:href="#DejaVuSans-2d"/>
      <use x="163.330078" xlink:href="#DejaVuSans-33"/>
      <use x="226.953125" xlink:href="#DejaVuSans-39"/>
     </g>
    </g>
    <g id="line2d_135">
     <path d="M 56.01 91.964219 
L 78.01 91.964219 
" style="fill:none;stroke:#33a02c;stroke-linecap:round;stroke-width:1.5;"/>
    </g>
    <g id="line2d_136"/>
    <g id="text_41">
     <!-- 40-49 -->
     <g style="fill:#262626;" transform="translate(86.81 95.814219)scale(0.11 -0.11)">
      <use xlink:href="#DejaVuSans-34"/>
      <use x="63.623047" xlink:href="#DejaVuSans-30"/>
      <use x="127.246094" xlink:href="#DejaVuSans-2d"/>
      <use x="163.330078" xlink:href="#DejaVuSans-34"/>
      <use x="226.953125" xlink:href="#DejaVuSans-39"/>
     </g>
    </g>
    <g id="line2d_137">
     <path d="M 56.01 108.110156 
L 78.01 108.110156 
" style="fill:none;stroke:#fb9a99;stroke-linecap:round;stroke-width:1.5;"/>
    </g>
    <g id="line2d_138"/>
    <g id="text_42">
     <!-- 50-59 -->
     <g style="fill:#262626;" transform="translate(86.81 111.960156)scale(0.11 -0.11)">
      <use xlink:href="#DejaVuSans-35"/>
      <use x="63.623047" xlink:href="#DejaVuSans-30"/>
      <use x="127.246094" xlink:href="#DejaVuSans-2d"/>
      <use x="163.330078" xlink:href="#DejaVuSans-35"/>
      <use x="226.953125" xlink:href="#DejaVuSans-39"/>
     </g>
    </g>
    <g id="line2d_139">
     <path d="M 56.01 124.256094 
L 78.01 124.256094 
" style="fill:none;stroke:#e31a1c;stroke-linecap:round;stroke-width:1.5;"/>
    </g>
    <g id="line2d_140"/>
    <g id="text_43">
     <!-- 60-69 -->
     <g style="fill:#262626;" transform="translate(86.81 128.106094)scale(0.11 -0.11)">
      <use xlink:href="#DejaVuSans-36"/>
      <use x="63.623047" xlink:href="#DejaVuSans-30"/>
      <use x="127.246094" xlink:href="#DejaVuSans-2d"/>
      <use x="163.330078" xlink:href="#DejaVuSans-36"/>
      <use x="226.953125" xlink:href="#DejaVuSans-39"/>
     </g>
    </g>
    <g id="line2d_141">
     <path d="M 56.01 140.402031 
L 78.01 140.402031 
" style="fill:none;stroke:#fdbf6f;stroke-linecap:round;stroke-width:1.5;"/>
    </g>
    <g id="line2d_142"/>
    <g id="text_44">
     <!-- 70-79 -->
     <g style="fill:#262626;" transform="translate(86.81 144.252031)scale(0.11 -0.11)">
      <use xlink:href="#DejaVuSans-37"/>
      <use x="63.623047" xlink:href="#DejaVuSans-30"/>
      <use x="127.246094" xlink:href="#DejaVuSans-2d"/>
      <use x="163.330078" xlink:href="#DejaVuSans-37"/>
      <use x="226.953125" xlink:href="#DejaVuSans-39"/>
     </g>
    </g>
    <g id="line2d_143">
     <path d="M 56.01 156.547969 
L 78.01 156.547969 
" style="fill:none;stroke:#ff7f00;stroke-linecap:round;stroke-width:1.5;"/>
    </g>
    <g id="line2d_144"/>
    <g id="text_45">
     <!-- 80-89 -->
     <g style="fill:#262626;" transform="translate(86.81 160.397969)scale(0.11 -0.11)">
      <use xlink:href="#DejaVuSans-38"/>
      <use x="63.623047" xlink:href="#DejaVuSans-30"/>
      <use x="127.246094" xlink:href="#DejaVuSans-2d"/>
      <use x="163.330078" xlink:href="#DejaVuSans-38"/>
      <use x="226.953125" xlink:href="#DejaVuSans-39"/>
     </g>
    </g>
    <g id="line2d_145">
     <path d="M 56.01 172.693906 
L 78.01 172.693906 
" style="fill:none;stroke:#cab2d6;stroke-linecap:round;stroke-width:1.5;"/>
    </g>
    <g id="line2d_146"/>
    <g id="text_46">
     <!-- 90+ -->
     <g style="fill:#262626;" transform="translate(86.81 176.543906)scale(0.11 -0.11)">
      <use xlink:href="#DejaVuSans-39"/>
      <use x="63.623047" xlink:href="#DejaVuSans-30"/>
      <use x="127.246094" xlink:href="#DejaVuSans-2b"/>
     </g>
    </g>
   </g>
  </g>
 </g>
 <defs>
  <clipPath id="p38c5970f79">
   <rect height="466.924278" width="750.470318" x="46.11" y="29.118125"/>
  </clipPath>
 </defs>
</svg>
