<?xml version="1.0" encoding="utf-8" standalone="no"?>
<!DOCTYPE svg PUBLIC "-//W3C//DTD SVG 1.1//EN"
  "http://www.w3.org/Graphics/SVG/1.1/DTD/svg11.dtd">
<svg xmlns:xlink="http://www.w3.org/1999/xlink" width="838.745394pt" height="547.767456pt" viewBox="0 0 838.745394 547.767456" xmlns="http://www.w3.org/2000/svg" version="1.1">
 <metadata>
  <rdf:RDF xmlns:dc="http://purl.org/dc/elements/1.1/" xmlns:cc="http://creativecommons.org/ns#" xmlns:rdf="http://www.w3.org/1999/02/22-rdf-syntax-ns#">
   <cc:Work>
    <dc:type rdf:resource="http://purl.org/dc/dcmitype/StillImage"/>
    <dc:date>2021-11-29T01:38:57.841401</dc:date>
    <dc:format>image/svg+xml</dc:format>
    <dc:creator>
     <cc:Agent>
      <dc:title>Matplotlib v3.5.0, https://matplotlib.org/</dc:title>
     </cc:Agent>
    </dc:creator>
   </cc:Work>
  </rdf:RDF>
 </metadata>
 <defs>
  <style type="text/css">*{stroke-linejoin: round; stroke-linecap: butt}</style>
 </defs>
 <g id="figure_1">
  <g id="patch_1">
   <path d="M 0 547.767456 
L 838.745394 547.767456 
L 838.745394 0 
L 0 0 
L 0 547.767456 
z
" style="fill: none"/>
  </g>
  <g id="axes_1">
   <g id="patch_2">
    <path d="M 46.11 474.4193 
L 765.492734 474.4193 
L 765.492734 29.118125 
L 46.11 29.118125 
L 46.11 474.4193 
z
" style="fill: none"/>
   </g>
   <g id="matplotlib.axis_1">
    <g id="xtick_1">
     <g id="line2d_1">
      <path d="M 78.809215 474.4193 
L 78.809215 29.118125 
" clip-path="url(#p73c982c29b)" style="fill: none; stroke: #cccccc; stroke-linecap: round"/>
     </g>
     <g id="line2d_2">
      <defs>
       <path id="m774ad4ba68" d="M 0 0 
L 0 6 
" style="stroke: #262626; stroke-width: 1.25"/>
      </defs>
      <g>
       <use xlink:href="#m774ad4ba68" x="78.809215" y="474.4193" style="fill: #262626; stroke: #262626; stroke-width: 1.25"/>
      </g>
     </g>
     <g id="text_1">
      <!-- 06.06 (23) -->
      <g style="fill: #262626" transform="translate(36.485007 530.536088)rotate(-45)scale(0.11 -0.11)">
       <defs>
        <path id="DejaVuSans-30" d="M 2034 4250 
Q 1547 4250 1301 3770 
Q 1056 3291 1056 2328 
Q 1056 1369 1301 889 
Q 1547 409 2034 409 
Q 2525 409 2770 889 
Q 3016 1369 3016 2328 
Q 3016 3291 2770 3770 
Q 2525 4250 2034 4250 
z
M 2034 4750 
Q 2819 4750 3233 4129 
Q 3647 3509 3647 2328 
Q 3647 1150 3233 529 
Q 2819 -91 2034 -91 
Q 1250 -91 836 529 
Q 422 1150 422 2328 
Q 422 3509 836 4129 
Q 1250 4750 2034 4750 
z
" transform="scale(0.015625)"/>
        <path id="DejaVuSans-36" d="M 2113 2584 
Q 1688 2584 1439 2293 
Q 1191 2003 1191 1497 
Q 1191 994 1439 701 
Q 1688 409 2113 409 
Q 2538 409 2786 701 
Q 3034 994 3034 1497 
Q 3034 2003 2786 2293 
Q 2538 2584 2113 2584 
z
M 3366 4563 
L 3366 3988 
Q 3128 4100 2886 4159 
Q 2644 4219 2406 4219 
Q 1781 4219 1451 3797 
Q 1122 3375 1075 2522 
Q 1259 2794 1537 2939 
Q 1816 3084 2150 3084 
Q 2853 3084 3261 2657 
Q 3669 2231 3669 1497 
Q 3669 778 3244 343 
Q 2819 -91 2113 -91 
Q 1303 -91 875 529 
Q 447 1150 447 2328 
Q 447 3434 972 4092 
Q 1497 4750 2381 4750 
Q 2619 4750 2861 4703 
Q 3103 4656 3366 4563 
z
" transform="scale(0.015625)"/>
        <path id="DejaVuSans-2e" d="M 684 794 
L 1344 794 
L 1344 0 
L 684 0 
L 684 794 
z
" transform="scale(0.015625)"/>
        <path id="DejaVuSans-20" transform="scale(0.015625)"/>
        <path id="DejaVuSans-28" d="M 1984 4856 
Q 1566 4138 1362 3434 
Q 1159 2731 1159 2009 
Q 1159 1288 1364 580 
Q 1569 -128 1984 -844 
L 1484 -844 
Q 1016 -109 783 600 
Q 550 1309 550 2009 
Q 550 2706 781 3412 
Q 1013 4119 1484 4856 
L 1984 4856 
z
" transform="scale(0.015625)"/>
        <path id="DejaVuSans-32" d="M 1228 531 
L 3431 531 
L 3431 0 
L 469 0 
L 469 531 
Q 828 903 1448 1529 
Q 2069 2156 2228 2338 
Q 2531 2678 2651 2914 
Q 2772 3150 2772 3378 
Q 2772 3750 2511 3984 
Q 2250 4219 1831 4219 
Q 1534 4219 1204 4116 
Q 875 4013 500 3803 
L 500 4441 
Q 881 4594 1212 4672 
Q 1544 4750 1819 4750 
Q 2544 4750 2975 4387 
Q 3406 4025 3406 3419 
Q 3406 3131 3298 2873 
Q 3191 2616 2906 2266 
Q 2828 2175 2409 1742 
Q 1991 1309 1228 531 
z
" transform="scale(0.015625)"/>
        <path id="DejaVuSans-33" d="M 2597 2516 
Q 3050 2419 3304 2112 
Q 3559 1806 3559 1356 
Q 3559 666 3084 287 
Q 2609 -91 1734 -91 
Q 1441 -91 1130 -33 
Q 819 25 488 141 
L 488 750 
Q 750 597 1062 519 
Q 1375 441 1716 441 
Q 2309 441 2620 675 
Q 2931 909 2931 1356 
Q 2931 1769 2642 2001 
Q 2353 2234 1838 2234 
L 1294 2234 
L 1294 2753 
L 1863 2753 
Q 2328 2753 2575 2939 
Q 2822 3125 2822 3475 
Q 2822 3834 2567 4026 
Q 2313 4219 1838 4219 
Q 1578 4219 1281 4162 
Q 984 4106 628 3988 
L 628 4550 
Q 988 4650 1302 4700 
Q 1616 4750 1894 4750 
Q 2613 4750 3031 4423 
Q 3450 4097 3450 3541 
Q 3450 3153 3228 2886 
Q 3006 2619 2597 2516 
z
" transform="scale(0.015625)"/>
        <path id="DejaVuSans-29" d="M 513 4856 
L 1013 4856 
Q 1481 4119 1714 3412 
Q 1947 2706 1947 2009 
Q 1947 1309 1714 600 
Q 1481 -109 1013 -844 
L 513 -844 
Q 928 -128 1133 580 
Q 1338 1288 1338 2009 
Q 1338 2731 1133 3434 
Q 928 4138 513 4856 
z
" transform="scale(0.015625)"/>
       </defs>
       <use xlink:href="#DejaVuSans-30"/>
       <use xlink:href="#DejaVuSans-36" x="63.623047"/>
       <use xlink:href="#DejaVuSans-2e" x="127.246094"/>
       <use xlink:href="#DejaVuSans-30" x="159.033203"/>
       <use xlink:href="#DejaVuSans-36" x="222.65625"/>
       <use xlink:href="#DejaVuSans-20" x="286.279297"/>
       <use xlink:href="#DejaVuSans-28" x="318.066406"/>
       <use xlink:href="#DejaVuSans-32" x="357.080078"/>
       <use xlink:href="#DejaVuSans-33" x="420.703125"/>
       <use xlink:href="#DejaVuSans-29" x="484.326172"/>
      </g>
     </g>
    </g>
    <g id="xtick_2">
     <g id="line2d_3">
      <path d="M 112.346872 474.4193 
L 112.346872 29.118125 
" clip-path="url(#p73c982c29b)" style="fill: none; stroke: #cccccc; stroke-linecap: round"/>
     </g>
     <g id="line2d_4">
      <g>
       <use xlink:href="#m774ad4ba68" x="112.346872" y="474.4193" style="fill: #262626; stroke: #262626; stroke-width: 1.25"/>
      </g>
     </g>
     <g id="text_2">
      <!-- 04.07 (27) -->
      <g style="fill: #262626" transform="translate(70.022664 530.536088)rotate(-45)scale(0.11 -0.11)">
       <defs>
        <path id="DejaVuSans-34" d="M 2419 4116 
L 825 1625 
L 2419 1625 
L 2419 4116 
z
M 2253 4666 
L 3047 4666 
L 3047 1625 
L 3713 1625 
L 3713 1100 
L 3047 1100 
L 3047 0 
L 2419 0 
L 2419 1100 
L 313 1100 
L 313 1709 
L 2253 4666 
z
" transform="scale(0.015625)"/>
        <path id="DejaVuSans-37" d="M 525 4666 
L 3525 4666 
L 3525 4397 
L 1831 0 
L 1172 0 
L 2766 4134 
L 525 4134 
L 525 4666 
z
" transform="scale(0.015625)"/>
       </defs>
       <use xlink:href="#DejaVuSans-30"/>
       <use xlink:href="#DejaVuSans-34" x="63.623047"/>
       <use xlink:href="#DejaVuSans-2e" x="127.246094"/>
       <use xlink:href="#DejaVuSans-30" x="159.033203"/>
       <use xlink:href="#DejaVuSans-37" x="222.65625"/>
       <use xlink:href="#DejaVuSans-20" x="286.279297"/>
       <use xlink:href="#DejaVuSans-28" x="318.066406"/>
       <use xlink:href="#DejaVuSans-32" x="357.080078"/>
       <use xlink:href="#DejaVuSans-37" x="420.703125"/>
       <use xlink:href="#DejaVuSans-29" x="484.326172"/>
      </g>
     </g>
    </g>
    <g id="xtick_3">
     <g id="line2d_5">
      <path d="M 145.884528 474.4193 
L 145.884528 29.118125 
" clip-path="url(#p73c982c29b)" style="fill: none; stroke: #cccccc; stroke-linecap: round"/>
     </g>
     <g id="line2d_6">
      <g>
       <use xlink:href="#m774ad4ba68" x="145.884528" y="474.4193" style="fill: #262626; stroke: #262626; stroke-width: 1.25"/>
      </g>
     </g>
     <g id="text_3">
      <!-- 01.08 (31) -->
      <g style="fill: #262626" transform="translate(103.560321 530.536088)rotate(-45)scale(0.11 -0.11)">
       <defs>
        <path id="DejaVuSans-31" d="M 794 531 
L 1825 531 
L 1825 4091 
L 703 3866 
L 703 4441 
L 1819 4666 
L 2450 4666 
L 2450 531 
L 3481 531 
L 3481 0 
L 794 0 
L 794 531 
z
" transform="scale(0.015625)"/>
        <path id="DejaVuSans-38" d="M 2034 2216 
Q 1584 2216 1326 1975 
Q 1069 1734 1069 1313 
Q 1069 891 1326 650 
Q 1584 409 2034 409 
Q 2484 409 2743 651 
Q 3003 894 3003 1313 
Q 3003 1734 2745 1975 
Q 2488 2216 2034 2216 
z
M 1403 2484 
Q 997 2584 770 2862 
Q 544 3141 544 3541 
Q 544 4100 942 4425 
Q 1341 4750 2034 4750 
Q 2731 4750 3128 4425 
Q 3525 4100 3525 3541 
Q 3525 3141 3298 2862 
Q 3072 2584 2669 2484 
Q 3125 2378 3379 2068 
Q 3634 1759 3634 1313 
Q 3634 634 3220 271 
Q 2806 -91 2034 -91 
Q 1263 -91 848 271 
Q 434 634 434 1313 
Q 434 1759 690 2068 
Q 947 2378 1403 2484 
z
M 1172 3481 
Q 1172 3119 1398 2916 
Q 1625 2713 2034 2713 
Q 2441 2713 2670 2916 
Q 2900 3119 2900 3481 
Q 2900 3844 2670 4047 
Q 2441 4250 2034 4250 
Q 1625 4250 1398 4047 
Q 1172 3844 1172 3481 
z
" transform="scale(0.015625)"/>
       </defs>
       <use xlink:href="#DejaVuSans-30"/>
       <use xlink:href="#DejaVuSans-31" x="63.623047"/>
       <use xlink:href="#DejaVuSans-2e" x="127.246094"/>
       <use xlink:href="#DejaVuSans-30" x="159.033203"/>
       <use xlink:href="#DejaVuSans-38" x="222.65625"/>
       <use xlink:href="#DejaVuSans-20" x="286.279297"/>
       <use xlink:href="#DejaVuSans-28" x="318.066406"/>
       <use xlink:href="#DejaVuSans-33" x="357.080078"/>
       <use xlink:href="#DejaVuSans-31" x="420.703125"/>
       <use xlink:href="#DejaVuSans-29" x="484.326172"/>
      </g>
     </g>
    </g>
    <g id="xtick_4">
     <g id="line2d_7">
      <path d="M 179.422185 474.4193 
L 179.422185 29.118125 
" clip-path="url(#p73c982c29b)" style="fill: none; stroke: #cccccc; stroke-linecap: round"/>
     </g>
     <g id="line2d_8">
      <g>
       <use xlink:href="#m774ad4ba68" x="179.422185" y="474.4193" style="fill: #262626; stroke: #262626; stroke-width: 1.25"/>
      </g>
     </g>
     <g id="text_4">
      <!-- 29.08 (35) -->
      <g style="fill: #262626" transform="translate(137.097977 530.536088)rotate(-45)scale(0.11 -0.11)">
       <defs>
        <path id="DejaVuSans-39" d="M 703 97 
L 703 672 
Q 941 559 1184 500 
Q 1428 441 1663 441 
Q 2288 441 2617 861 
Q 2947 1281 2994 2138 
Q 2813 1869 2534 1725 
Q 2256 1581 1919 1581 
Q 1219 1581 811 2004 
Q 403 2428 403 3163 
Q 403 3881 828 4315 
Q 1253 4750 1959 4750 
Q 2769 4750 3195 4129 
Q 3622 3509 3622 2328 
Q 3622 1225 3098 567 
Q 2575 -91 1691 -91 
Q 1453 -91 1209 -44 
Q 966 3 703 97 
z
M 1959 2075 
Q 2384 2075 2632 2365 
Q 2881 2656 2881 3163 
Q 2881 3666 2632 3958 
Q 2384 4250 1959 4250 
Q 1534 4250 1286 3958 
Q 1038 3666 1038 3163 
Q 1038 2656 1286 2365 
Q 1534 2075 1959 2075 
z
" transform="scale(0.015625)"/>
        <path id="DejaVuSans-35" d="M 691 4666 
L 3169 4666 
L 3169 4134 
L 1269 4134 
L 1269 2991 
Q 1406 3038 1543 3061 
Q 1681 3084 1819 3084 
Q 2600 3084 3056 2656 
Q 3513 2228 3513 1497 
Q 3513 744 3044 326 
Q 2575 -91 1722 -91 
Q 1428 -91 1123 -41 
Q 819 9 494 109 
L 494 744 
Q 775 591 1075 516 
Q 1375 441 1709 441 
Q 2250 441 2565 725 
Q 2881 1009 2881 1497 
Q 2881 1984 2565 2268 
Q 2250 2553 1709 2553 
Q 1456 2553 1204 2497 
Q 953 2441 691 2322 
L 691 4666 
z
" transform="scale(0.015625)"/>
       </defs>
       <use xlink:href="#DejaVuSans-32"/>
       <use xlink:href="#DejaVuSans-39" x="63.623047"/>
       <use xlink:href="#DejaVuSans-2e" x="127.246094"/>
       <use xlink:href="#DejaVuSans-30" x="159.033203"/>
       <use xlink:href="#DejaVuSans-38" x="222.65625"/>
       <use xlink:href="#DejaVuSans-20" x="286.279297"/>
       <use xlink:href="#DejaVuSans-28" x="318.066406"/>
       <use xlink:href="#DejaVuSans-33" x="357.080078"/>
       <use xlink:href="#DejaVuSans-35" x="420.703125"/>
       <use xlink:href="#DejaVuSans-29" x="484.326172"/>
      </g>
     </g>
    </g>
    <g id="xtick_5">
     <g id="line2d_9">
      <path d="M 212.959842 474.4193 
L 212.959842 29.118125 
" clip-path="url(#p73c982c29b)" style="fill: none; stroke: #cccccc; stroke-linecap: round"/>
     </g>
     <g id="line2d_10">
      <g>
       <use xlink:href="#m774ad4ba68" x="212.959842" y="474.4193" style="fill: #262626; stroke: #262626; stroke-width: 1.25"/>
      </g>
     </g>
     <g id="text_5">
      <!-- 26.09 (39) -->
      <g style="fill: #262626" transform="translate(170.635634 530.536088)rotate(-45)scale(0.11 -0.11)">
       <use xlink:href="#DejaVuSans-32"/>
       <use xlink:href="#DejaVuSans-36" x="63.623047"/>
       <use xlink:href="#DejaVuSans-2e" x="127.246094"/>
       <use xlink:href="#DejaVuSans-30" x="159.033203"/>
       <use xlink:href="#DejaVuSans-39" x="222.65625"/>
       <use xlink:href="#DejaVuSans-20" x="286.279297"/>
       <use xlink:href="#DejaVuSans-28" x="318.066406"/>
       <use xlink:href="#DejaVuSans-33" x="357.080078"/>
       <use xlink:href="#DejaVuSans-39" x="420.703125"/>
       <use xlink:href="#DejaVuSans-29" x="484.326172"/>
      </g>
     </g>
    </g>
    <g id="xtick_6">
     <g id="line2d_11">
      <path d="M 246.497498 474.4193 
L 246.497498 29.118125 
" clip-path="url(#p73c982c29b)" style="fill: none; stroke: #cccccc; stroke-linecap: round"/>
     </g>
     <g id="line2d_12">
      <g>
       <use xlink:href="#m774ad4ba68" x="246.497498" y="474.4193" style="fill: #262626; stroke: #262626; stroke-width: 1.25"/>
      </g>
     </g>
     <g id="text_6">
      <!-- 24.10 (43) -->
      <g style="fill: #262626" transform="translate(204.17329 530.536088)rotate(-45)scale(0.11 -0.11)">
       <use xlink:href="#DejaVuSans-32"/>
       <use xlink:href="#DejaVuSans-34" x="63.623047"/>
       <use xlink:href="#DejaVuSans-2e" x="127.246094"/>
       <use xlink:href="#DejaVuSans-31" x="159.033203"/>
       <use xlink:href="#DejaVuSans-30" x="222.65625"/>
       <use xlink:href="#DejaVuSans-20" x="286.279297"/>
       <use xlink:href="#DejaVuSans-28" x="318.066406"/>
       <use xlink:href="#DejaVuSans-34" x="357.080078"/>
       <use xlink:href="#DejaVuSans-33" x="420.703125"/>
       <use xlink:href="#DejaVuSans-29" x="484.326172"/>
      </g>
     </g>
    </g>
    <g id="xtick_7">
     <g id="line2d_13">
      <path d="M 280.035155 474.4193 
L 280.035155 29.118125 
" clip-path="url(#p73c982c29b)" style="fill: none; stroke: #cccccc; stroke-linecap: round"/>
     </g>
     <g id="line2d_14">
      <g>
       <use xlink:href="#m774ad4ba68" x="280.035155" y="474.4193" style="fill: #262626; stroke: #262626; stroke-width: 1.25"/>
      </g>
     </g>
     <g id="text_7">
      <!-- 21.11 (47) -->
      <g style="fill: #262626" transform="translate(237.710947 530.536088)rotate(-45)scale(0.11 -0.11)">
       <use xlink:href="#DejaVuSans-32"/>
       <use xlink:href="#DejaVuSans-31" x="63.623047"/>
       <use xlink:href="#DejaVuSans-2e" x="127.246094"/>
       <use xlink:href="#DejaVuSans-31" x="159.033203"/>
       <use xlink:href="#DejaVuSans-31" x="222.65625"/>
       <use xlink:href="#DejaVuSans-20" x="286.279297"/>
       <use xlink:href="#DejaVuSans-28" x="318.066406"/>
       <use xlink:href="#DejaVuSans-34" x="357.080078"/>
       <use xlink:href="#DejaVuSans-37" x="420.703125"/>
       <use xlink:href="#DejaVuSans-29" x="484.326172"/>
      </g>
     </g>
    </g>
    <g id="xtick_8">
     <g id="line2d_15">
      <path d="M 313.572812 474.4193 
L 313.572812 29.118125 
" clip-path="url(#p73c982c29b)" style="fill: none; stroke: #cccccc; stroke-linecap: round"/>
     </g>
     <g id="line2d_16">
      <g>
       <use xlink:href="#m774ad4ba68" x="313.572812" y="474.4193" style="fill: #262626; stroke: #262626; stroke-width: 1.25"/>
      </g>
     </g>
     <g id="text_8">
      <!-- 19.12 (51) -->
      <g style="fill: #262626" transform="translate(271.248604 530.536088)rotate(-45)scale(0.11 -0.11)">
       <use xlink:href="#DejaVuSans-31"/>
       <use xlink:href="#DejaVuSans-39" x="63.623047"/>
       <use xlink:href="#DejaVuSans-2e" x="127.246094"/>
       <use xlink:href="#DejaVuSans-31" x="159.033203"/>
       <use xlink:href="#DejaVuSans-32" x="222.65625"/>
       <use xlink:href="#DejaVuSans-20" x="286.279297"/>
       <use xlink:href="#DejaVuSans-28" x="318.066406"/>
       <use xlink:href="#DejaVuSans-35" x="357.080078"/>
       <use xlink:href="#DejaVuSans-31" x="420.703125"/>
       <use xlink:href="#DejaVuSans-29" x="484.326172"/>
      </g>
     </g>
    </g>
    <g id="xtick_9">
     <g id="line2d_17">
      <path d="M 347.110468 474.4193 
L 347.110468 29.118125 
" clip-path="url(#p73c982c29b)" style="fill: none; stroke: #cccccc; stroke-linecap: round"/>
     </g>
     <g id="line2d_18">
      <g>
       <use xlink:href="#m774ad4ba68" x="347.110468" y="474.4193" style="fill: #262626; stroke: #262626; stroke-width: 1.25"/>
      </g>
     </g>
     <g id="text_9">
      <!-- 16.01 (02) -->
      <g style="fill: #262626" transform="translate(304.78626 530.536088)rotate(-45)scale(0.11 -0.11)">
       <use xlink:href="#DejaVuSans-31"/>
       <use xlink:href="#DejaVuSans-36" x="63.623047"/>
       <use xlink:href="#DejaVuSans-2e" x="127.246094"/>
       <use xlink:href="#DejaVuSans-30" x="159.033203"/>
       <use xlink:href="#DejaVuSans-31" x="222.65625"/>
       <use xlink:href="#DejaVuSans-20" x="286.279297"/>
       <use xlink:href="#DejaVuSans-28" x="318.066406"/>
       <use xlink:href="#DejaVuSans-30" x="357.080078"/>
       <use xlink:href="#DejaVuSans-32" x="420.703125"/>
       <use xlink:href="#DejaVuSans-29" x="484.326172"/>
      </g>
     </g>
    </g>
    <g id="xtick_10">
     <g id="line2d_19">
      <path d="M 380.648125 474.4193 
L 380.648125 29.118125 
" clip-path="url(#p73c982c29b)" style="fill: none; stroke: #cccccc; stroke-linecap: round"/>
     </g>
     <g id="line2d_20">
      <g>
       <use xlink:href="#m774ad4ba68" x="380.648125" y="474.4193" style="fill: #262626; stroke: #262626; stroke-width: 1.25"/>
      </g>
     </g>
     <g id="text_10">
      <!-- 13.02 (06) -->
      <g style="fill: #262626" transform="translate(338.323917 530.536088)rotate(-45)scale(0.11 -0.11)">
       <use xlink:href="#DejaVuSans-31"/>
       <use xlink:href="#DejaVuSans-33" x="63.623047"/>
       <use xlink:href="#DejaVuSans-2e" x="127.246094"/>
       <use xlink:href="#DejaVuSans-30" x="159.033203"/>
       <use xlink:href="#DejaVuSans-32" x="222.65625"/>
       <use xlink:href="#DejaVuSans-20" x="286.279297"/>
       <use xlink:href="#DejaVuSans-28" x="318.066406"/>
       <use xlink:href="#DejaVuSans-30" x="357.080078"/>
       <use xlink:href="#DejaVuSans-36" x="420.703125"/>
       <use xlink:href="#DejaVuSans-29" x="484.326172"/>
      </g>
     </g>
    </g>
    <g id="xtick_11">
     <g id="line2d_21">
      <path d="M 414.185781 474.4193 
L 414.185781 29.118125 
" clip-path="url(#p73c982c29b)" style="fill: none; stroke: #cccccc; stroke-linecap: round"/>
     </g>
     <g id="line2d_22">
      <g>
       <use xlink:href="#m774ad4ba68" x="414.185781" y="474.4193" style="fill: #262626; stroke: #262626; stroke-width: 1.25"/>
      </g>
     </g>
     <g id="text_11">
      <!-- 13.03 (10) -->
      <g style="fill: #262626" transform="translate(371.861574 530.536088)rotate(-45)scale(0.11 -0.11)">
       <use xlink:href="#DejaVuSans-31"/>
       <use xlink:href="#DejaVuSans-33" x="63.623047"/>
       <use xlink:href="#DejaVuSans-2e" x="127.246094"/>
       <use xlink:href="#DejaVuSans-30" x="159.033203"/>
       <use xlink:href="#DejaVuSans-33" x="222.65625"/>
       <use xlink:href="#DejaVuSans-20" x="286.279297"/>
       <use xlink:href="#DejaVuSans-28" x="318.066406"/>
       <use xlink:href="#DejaVuSans-31" x="357.080078"/>
       <use xlink:href="#DejaVuSans-30" x="420.703125"/>
       <use xlink:href="#DejaVuSans-29" x="484.326172"/>
      </g>
     </g>
    </g>
    <g id="xtick_12">
     <g id="line2d_23">
      <path d="M 447.723438 474.4193 
L 447.723438 29.118125 
" clip-path="url(#p73c982c29b)" style="fill: none; stroke: #cccccc; stroke-linecap: round"/>
     </g>
     <g id="line2d_24">
      <g>
       <use xlink:href="#m774ad4ba68" x="447.723438" y="474.4193" style="fill: #262626; stroke: #262626; stroke-width: 1.25"/>
      </g>
     </g>
     <g id="text_12">
      <!-- 10.04 (14) -->
      <g style="fill: #262626" transform="translate(405.39923 530.536088)rotate(-45)scale(0.11 -0.11)">
       <use xlink:href="#DejaVuSans-31"/>
       <use xlink:href="#DejaVuSans-30" x="63.623047"/>
       <use xlink:href="#DejaVuSans-2e" x="127.246094"/>
       <use xlink:href="#DejaVuSans-30" x="159.033203"/>
       <use xlink:href="#DejaVuSans-34" x="222.65625"/>
       <use xlink:href="#DejaVuSans-20" x="286.279297"/>
       <use xlink:href="#DejaVuSans-28" x="318.066406"/>
       <use xlink:href="#DejaVuSans-31" x="357.080078"/>
       <use xlink:href="#DejaVuSans-34" x="420.703125"/>
       <use xlink:href="#DejaVuSans-29" x="484.326172"/>
      </g>
     </g>
    </g>
    <g id="xtick_13">
     <g id="line2d_25">
      <path d="M 481.261095 474.4193 
L 481.261095 29.118125 
" clip-path="url(#p73c982c29b)" style="fill: none; stroke: #cccccc; stroke-linecap: round"/>
     </g>
     <g id="line2d_26">
      <g>
       <use xlink:href="#m774ad4ba68" x="481.261095" y="474.4193" style="fill: #262626; stroke: #262626; stroke-width: 1.25"/>
      </g>
     </g>
     <g id="text_13">
      <!-- 08.05 (18) -->
      <g style="fill: #262626" transform="translate(438.936887 530.536088)rotate(-45)scale(0.11 -0.11)">
       <use xlink:href="#DejaVuSans-30"/>
       <use xlink:href="#DejaVuSans-38" x="63.623047"/>
       <use xlink:href="#DejaVuSans-2e" x="127.246094"/>
       <use xlink:href="#DejaVuSans-30" x="159.033203"/>
       <use xlink:href="#DejaVuSans-35" x="222.65625"/>
       <use xlink:href="#DejaVuSans-20" x="286.279297"/>
       <use xlink:href="#DejaVuSans-28" x="318.066406"/>
       <use xlink:href="#DejaVuSans-31" x="357.080078"/>
       <use xlink:href="#DejaVuSans-38" x="420.703125"/>
       <use xlink:href="#DejaVuSans-29" x="484.326172"/>
      </g>
     </g>
    </g>
    <g id="xtick_14">
     <g id="line2d_27">
      <path d="M 514.798751 474.4193 
L 514.798751 29.118125 
" clip-path="url(#p73c982c29b)" style="fill: none; stroke: #cccccc; stroke-linecap: round"/>
     </g>
     <g id="line2d_28">
      <g>
       <use xlink:href="#m774ad4ba68" x="514.798751" y="474.4193" style="fill: #262626; stroke: #262626; stroke-width: 1.25"/>
      </g>
     </g>
     <g id="text_14">
      <!-- 05.06 (22) -->
      <g style="fill: #262626" transform="translate(472.474543 530.536088)rotate(-45)scale(0.11 -0.11)">
       <use xlink:href="#DejaVuSans-30"/>
       <use xlink:href="#DejaVuSans-35" x="63.623047"/>
       <use xlink:href="#DejaVuSans-2e" x="127.246094"/>
       <use xlink:href="#DejaVuSans-30" x="159.033203"/>
       <use xlink:href="#DejaVuSans-36" x="222.65625"/>
       <use xlink:href="#DejaVuSans-20" x="286.279297"/>
       <use xlink:href="#DejaVuSans-28" x="318.066406"/>
       <use xlink:href="#DejaVuSans-32" x="357.080078"/>
       <use xlink:href="#DejaVuSans-32" x="420.703125"/>
       <use xlink:href="#DejaVuSans-29" x="484.326172"/>
      </g>
     </g>
    </g>
    <g id="xtick_15">
     <g id="line2d_29">
      <path d="M 548.336408 474.4193 
L 548.336408 29.118125 
" clip-path="url(#p73c982c29b)" style="fill: none; stroke: #cccccc; stroke-linecap: round"/>
     </g>
     <g id="line2d_30">
      <g>
       <use xlink:href="#m774ad4ba68" x="548.336408" y="474.4193" style="fill: #262626; stroke: #262626; stroke-width: 1.25"/>
      </g>
     </g>
     <g id="text_15">
      <!-- 03.07 (26) -->
      <g style="fill: #262626" transform="translate(506.0122 530.536088)rotate(-45)scale(0.11 -0.11)">
       <use xlink:href="#DejaVuSans-30"/>
       <use xlink:href="#DejaVuSans-33" x="63.623047"/>
       <use xlink:href="#DejaVuSans-2e" x="127.246094"/>
       <use xlink:href="#DejaVuSans-30" x="159.033203"/>
       <use xlink:href="#DejaVuSans-37" x="222.65625"/>
       <use xlink:href="#DejaVuSans-20" x="286.279297"/>
       <use xlink:href="#DejaVuSans-28" x="318.066406"/>
       <use xlink:href="#DejaVuSans-32" x="357.080078"/>
       <use xlink:href="#DejaVuSans-36" x="420.703125"/>
       <use xlink:href="#DejaVuSans-29" x="484.326172"/>
      </g>
     </g>
    </g>
    <g id="xtick_16">
     <g id="line2d_31">
      <path d="M 581.874064 474.4193 
L 581.874064 29.118125 
" clip-path="url(#p73c982c29b)" style="fill: none; stroke: #cccccc; stroke-linecap: round"/>
     </g>
     <g id="line2d_32">
      <g>
       <use xlink:href="#m774ad4ba68" x="581.874064" y="474.4193" style="fill: #262626; stroke: #262626; stroke-width: 1.25"/>
      </g>
     </g>
     <g id="text_16">
      <!-- 31.07 (30) -->
      <g style="fill: #262626" transform="translate(539.549857 530.536088)rotate(-45)scale(0.11 -0.11)">
       <use xlink:href="#DejaVuSans-33"/>
       <use xlink:href="#DejaVuSans-31" x="63.623047"/>
       <use xlink:href="#DejaVuSans-2e" x="127.246094"/>
       <use xlink:href="#DejaVuSans-30" x="159.033203"/>
       <use xlink:href="#DejaVuSans-37" x="222.65625"/>
       <use xlink:href="#DejaVuSans-20" x="286.279297"/>
       <use xlink:href="#DejaVuSans-28" x="318.066406"/>
       <use xlink:href="#DejaVuSans-33" x="357.080078"/>
       <use xlink:href="#DejaVuSans-30" x="420.703125"/>
       <use xlink:href="#DejaVuSans-29" x="484.326172"/>
      </g>
     </g>
    </g>
    <g id="xtick_17">
     <g id="line2d_33">
      <path d="M 615.411721 474.4193 
L 615.411721 29.118125 
" clip-path="url(#p73c982c29b)" style="fill: none; stroke: #cccccc; stroke-linecap: round"/>
     </g>
     <g id="line2d_34">
      <g>
       <use xlink:href="#m774ad4ba68" x="615.411721" y="474.4193" style="fill: #262626; stroke: #262626; stroke-width: 1.25"/>
      </g>
     </g>
     <g id="text_17">
      <!-- 28.08 (34) -->
      <g style="fill: #262626" transform="translate(573.087513 530.536088)rotate(-45)scale(0.11 -0.11)">
       <use xlink:href="#DejaVuSans-32"/>
       <use xlink:href="#DejaVuSans-38" x="63.623047"/>
       <use xlink:href="#DejaVuSans-2e" x="127.246094"/>
       <use xlink:href="#DejaVuSans-30" x="159.033203"/>
       <use xlink:href="#DejaVuSans-38" x="222.65625"/>
       <use xlink:href="#DejaVuSans-20" x="286.279297"/>
       <use xlink:href="#DejaVuSans-28" x="318.066406"/>
       <use xlink:href="#DejaVuSans-33" x="357.080078"/>
       <use xlink:href="#DejaVuSans-34" x="420.703125"/>
       <use xlink:href="#DejaVuSans-29" x="484.326172"/>
      </g>
     </g>
    </g>
    <g id="xtick_18">
     <g id="line2d_35">
      <path d="M 648.949378 474.4193 
L 648.949378 29.118125 
" clip-path="url(#p73c982c29b)" style="fill: none; stroke: #cccccc; stroke-linecap: round"/>
     </g>
     <g id="line2d_36">
      <g>
       <use xlink:href="#m774ad4ba68" x="648.949378" y="474.4193" style="fill: #262626; stroke: #262626; stroke-width: 1.25"/>
      </g>
     </g>
     <g id="text_18">
      <!-- 25.09 (38) -->
      <g style="fill: #262626" transform="translate(606.62517 530.536088)rotate(-45)scale(0.11 -0.11)">
       <use xlink:href="#DejaVuSans-32"/>
       <use xlink:href="#DejaVuSans-35" x="63.623047"/>
       <use xlink:href="#DejaVuSans-2e" x="127.246094"/>
       <use xlink:href="#DejaVuSans-30" x="159.033203"/>
       <use xlink:href="#DejaVuSans-39" x="222.65625"/>
       <use xlink:href="#DejaVuSans-20" x="286.279297"/>
       <use xlink:href="#DejaVuSans-28" x="318.066406"/>
       <use xlink:href="#DejaVuSans-33" x="357.080078"/>
       <use xlink:href="#DejaVuSans-38" x="420.703125"/>
       <use xlink:href="#DejaVuSans-29" x="484.326172"/>
      </g>
     </g>
    </g>
    <g id="xtick_19">
     <g id="line2d_37">
      <path d="M 682.487034 474.4193 
L 682.487034 29.118125 
" clip-path="url(#p73c982c29b)" style="fill: none; stroke: #cccccc; stroke-linecap: round"/>
     </g>
     <g id="line2d_38">
      <g>
       <use xlink:href="#m774ad4ba68" x="682.487034" y="474.4193" style="fill: #262626; stroke: #262626; stroke-width: 1.25"/>
      </g>
     </g>
     <g id="text_19">
      <!-- 23.10 (42) -->
      <g style="fill: #262626" transform="translate(640.162826 530.536088)rotate(-45)scale(0.11 -0.11)">
       <use xlink:href="#DejaVuSans-32"/>
       <use xlink:href="#DejaVuSans-33" x="63.623047"/>
       <use xlink:href="#DejaVuSans-2e" x="127.246094"/>
       <use xlink:href="#DejaVuSans-31" x="159.033203"/>
       <use xlink:href="#DejaVuSans-30" x="222.65625"/>
       <use xlink:href="#DejaVuSans-20" x="286.279297"/>
       <use xlink:href="#DejaVuSans-28" x="318.066406"/>
       <use xlink:href="#DejaVuSans-34" x="357.080078"/>
       <use xlink:href="#DejaVuSans-32" x="420.703125"/>
       <use xlink:href="#DejaVuSans-29" x="484.326172"/>
      </g>
     </g>
    </g>
    <g id="xtick_20">
     <g id="line2d_39">
      <path d="M 716.024691 474.4193 
L 716.024691 29.118125 
" clip-path="url(#p73c982c29b)" style="fill: none; stroke: #cccccc; stroke-linecap: round"/>
     </g>
     <g id="line2d_40">
      <g>
       <use xlink:href="#m774ad4ba68" x="716.024691" y="474.4193" style="fill: #262626; stroke: #262626; stroke-width: 1.25"/>
      </g>
     </g>
     <g id="text_20">
      <!-- 20.11 (46) -->
      <g style="fill: #262626" transform="translate(673.700483 530.536088)rotate(-45)scale(0.11 -0.11)">
       <use xlink:href="#DejaVuSans-32"/>
       <use xlink:href="#DejaVuSans-30" x="63.623047"/>
       <use xlink:href="#DejaVuSans-2e" x="127.246094"/>
       <use xlink:href="#DejaVuSans-31" x="159.033203"/>
       <use xlink:href="#DejaVuSans-31" x="222.65625"/>
       <use xlink:href="#DejaVuSans-20" x="286.279297"/>
       <use xlink:href="#DejaVuSans-28" x="318.066406"/>
       <use xlink:href="#DejaVuSans-34" x="357.080078"/>
       <use xlink:href="#DejaVuSans-36" x="420.703125"/>
       <use xlink:href="#DejaVuSans-29" x="484.326172"/>
      </g>
     </g>
    </g>
    <g id="xtick_21">
     <g id="line2d_41">
      <defs>
       <path id="ma1f6c3bae9" d="M 0 0 
L 0 4 
" style="stroke: #262626"/>
      </defs>
      <g>
       <use xlink:href="#ma1f6c3bae9" x="53.655973" y="474.4193" style="fill: #262626; stroke: #262626"/>
      </g>
     </g>
    </g>
    <g id="xtick_22">
     <g id="line2d_42">
      <g>
       <use xlink:href="#ma1f6c3bae9" x="62.040387" y="474.4193" style="fill: #262626; stroke: #262626"/>
      </g>
     </g>
    </g>
    <g id="xtick_23">
     <g id="line2d_43">
      <g>
       <use xlink:href="#ma1f6c3bae9" x="70.424801" y="474.4193" style="fill: #262626; stroke: #262626"/>
      </g>
     </g>
    </g>
    <g id="xtick_24">
     <g id="line2d_44">
      <g>
       <use xlink:href="#ma1f6c3bae9" x="87.193629" y="474.4193" style="fill: #262626; stroke: #262626"/>
      </g>
     </g>
    </g>
    <g id="xtick_25">
     <g id="line2d_45">
      <g>
       <use xlink:href="#ma1f6c3bae9" x="95.578044" y="474.4193" style="fill: #262626; stroke: #262626"/>
      </g>
     </g>
    </g>
    <g id="xtick_26">
     <g id="line2d_46">
      <g>
       <use xlink:href="#ma1f6c3bae9" x="103.962458" y="474.4193" style="fill: #262626; stroke: #262626"/>
      </g>
     </g>
    </g>
    <g id="xtick_27">
     <g id="line2d_47">
      <g>
       <use xlink:href="#ma1f6c3bae9" x="120.731286" y="474.4193" style="fill: #262626; stroke: #262626"/>
      </g>
     </g>
    </g>
    <g id="xtick_28">
     <g id="line2d_48">
      <g>
       <use xlink:href="#ma1f6c3bae9" x="129.1157" y="474.4193" style="fill: #262626; stroke: #262626"/>
      </g>
     </g>
    </g>
    <g id="xtick_29">
     <g id="line2d_49">
      <g>
       <use xlink:href="#ma1f6c3bae9" x="137.500114" y="474.4193" style="fill: #262626; stroke: #262626"/>
      </g>
     </g>
    </g>
    <g id="xtick_30">
     <g id="line2d_50">
      <g>
       <use xlink:href="#ma1f6c3bae9" x="154.268943" y="474.4193" style="fill: #262626; stroke: #262626"/>
      </g>
     </g>
    </g>
    <g id="xtick_31">
     <g id="line2d_51">
      <g>
       <use xlink:href="#ma1f6c3bae9" x="162.653357" y="474.4193" style="fill: #262626; stroke: #262626"/>
      </g>
     </g>
    </g>
    <g id="xtick_32">
     <g id="line2d_52">
      <g>
       <use xlink:href="#ma1f6c3bae9" x="171.037771" y="474.4193" style="fill: #262626; stroke: #262626"/>
      </g>
     </g>
    </g>
    <g id="xtick_33">
     <g id="line2d_53">
      <g>
       <use xlink:href="#ma1f6c3bae9" x="187.806599" y="474.4193" style="fill: #262626; stroke: #262626"/>
      </g>
     </g>
    </g>
    <g id="xtick_34">
     <g id="line2d_54">
      <g>
       <use xlink:href="#ma1f6c3bae9" x="196.191013" y="474.4193" style="fill: #262626; stroke: #262626"/>
      </g>
     </g>
    </g>
    <g id="xtick_35">
     <g id="line2d_55">
      <g>
       <use xlink:href="#ma1f6c3bae9" x="204.575428" y="474.4193" style="fill: #262626; stroke: #262626"/>
      </g>
     </g>
    </g>
    <g id="xtick_36">
     <g id="line2d_56">
      <g>
       <use xlink:href="#ma1f6c3bae9" x="221.344256" y="474.4193" style="fill: #262626; stroke: #262626"/>
      </g>
     </g>
    </g>
    <g id="xtick_37">
     <g id="line2d_57">
      <g>
       <use xlink:href="#ma1f6c3bae9" x="229.72867" y="474.4193" style="fill: #262626; stroke: #262626"/>
      </g>
     </g>
    </g>
    <g id="xtick_38">
     <g id="line2d_58">
      <g>
       <use xlink:href="#ma1f6c3bae9" x="238.113084" y="474.4193" style="fill: #262626; stroke: #262626"/>
      </g>
     </g>
    </g>
    <g id="xtick_39">
     <g id="line2d_59">
      <g>
       <use xlink:href="#ma1f6c3bae9" x="254.881912" y="474.4193" style="fill: #262626; stroke: #262626"/>
      </g>
     </g>
    </g>
    <g id="xtick_40">
     <g id="line2d_60">
      <g>
       <use xlink:href="#ma1f6c3bae9" x="263.266327" y="474.4193" style="fill: #262626; stroke: #262626"/>
      </g>
     </g>
    </g>
    <g id="xtick_41">
     <g id="line2d_61">
      <g>
       <use xlink:href="#ma1f6c3bae9" x="271.650741" y="474.4193" style="fill: #262626; stroke: #262626"/>
      </g>
     </g>
    </g>
    <g id="xtick_42">
     <g id="line2d_62">
      <g>
       <use xlink:href="#ma1f6c3bae9" x="288.419569" y="474.4193" style="fill: #262626; stroke: #262626"/>
      </g>
     </g>
    </g>
    <g id="xtick_43">
     <g id="line2d_63">
      <g>
       <use xlink:href="#ma1f6c3bae9" x="296.803983" y="474.4193" style="fill: #262626; stroke: #262626"/>
      </g>
     </g>
    </g>
    <g id="xtick_44">
     <g id="line2d_64">
      <g>
       <use xlink:href="#ma1f6c3bae9" x="305.188397" y="474.4193" style="fill: #262626; stroke: #262626"/>
      </g>
     </g>
    </g>
    <g id="xtick_45">
     <g id="line2d_65">
      <g>
       <use xlink:href="#ma1f6c3bae9" x="321.957226" y="474.4193" style="fill: #262626; stroke: #262626"/>
      </g>
     </g>
    </g>
    <g id="xtick_46">
     <g id="line2d_66">
      <g>
       <use xlink:href="#ma1f6c3bae9" x="330.34164" y="474.4193" style="fill: #262626; stroke: #262626"/>
      </g>
     </g>
    </g>
    <g id="xtick_47">
     <g id="line2d_67">
      <g>
       <use xlink:href="#ma1f6c3bae9" x="338.726054" y="474.4193" style="fill: #262626; stroke: #262626"/>
      </g>
     </g>
    </g>
    <g id="xtick_48">
     <g id="line2d_68">
      <g>
       <use xlink:href="#ma1f6c3bae9" x="355.494882" y="474.4193" style="fill: #262626; stroke: #262626"/>
      </g>
     </g>
    </g>
    <g id="xtick_49">
     <g id="line2d_69">
      <g>
       <use xlink:href="#ma1f6c3bae9" x="363.879296" y="474.4193" style="fill: #262626; stroke: #262626"/>
      </g>
     </g>
    </g>
    <g id="xtick_50">
     <g id="line2d_70">
      <g>
       <use xlink:href="#ma1f6c3bae9" x="372.263711" y="474.4193" style="fill: #262626; stroke: #262626"/>
      </g>
     </g>
    </g>
    <g id="xtick_51">
     <g id="line2d_71">
      <g>
       <use xlink:href="#ma1f6c3bae9" x="389.032539" y="474.4193" style="fill: #262626; stroke: #262626"/>
      </g>
     </g>
    </g>
    <g id="xtick_52">
     <g id="line2d_72">
      <g>
       <use xlink:href="#ma1f6c3bae9" x="397.416953" y="474.4193" style="fill: #262626; stroke: #262626"/>
      </g>
     </g>
    </g>
    <g id="xtick_53">
     <g id="line2d_73">
      <g>
       <use xlink:href="#ma1f6c3bae9" x="405.801367" y="474.4193" style="fill: #262626; stroke: #262626"/>
      </g>
     </g>
    </g>
    <g id="xtick_54">
     <g id="line2d_74">
      <g>
       <use xlink:href="#ma1f6c3bae9" x="422.570196" y="474.4193" style="fill: #262626; stroke: #262626"/>
      </g>
     </g>
    </g>
    <g id="xtick_55">
     <g id="line2d_75">
      <g>
       <use xlink:href="#ma1f6c3bae9" x="430.95461" y="474.4193" style="fill: #262626; stroke: #262626"/>
      </g>
     </g>
    </g>
    <g id="xtick_56">
     <g id="line2d_76">
      <g>
       <use xlink:href="#ma1f6c3bae9" x="439.339024" y="474.4193" style="fill: #262626; stroke: #262626"/>
      </g>
     </g>
    </g>
    <g id="xtick_57">
     <g id="line2d_77">
      <g>
       <use xlink:href="#ma1f6c3bae9" x="456.107852" y="474.4193" style="fill: #262626; stroke: #262626"/>
      </g>
     </g>
    </g>
    <g id="xtick_58">
     <g id="line2d_78">
      <g>
       <use xlink:href="#ma1f6c3bae9" x="464.492266" y="474.4193" style="fill: #262626; stroke: #262626"/>
      </g>
     </g>
    </g>
    <g id="xtick_59">
     <g id="line2d_79">
      <g>
       <use xlink:href="#ma1f6c3bae9" x="472.87668" y="474.4193" style="fill: #262626; stroke: #262626"/>
      </g>
     </g>
    </g>
    <g id="xtick_60">
     <g id="line2d_80">
      <g>
       <use xlink:href="#ma1f6c3bae9" x="489.645509" y="474.4193" style="fill: #262626; stroke: #262626"/>
      </g>
     </g>
    </g>
    <g id="xtick_61">
     <g id="line2d_81">
      <g>
       <use xlink:href="#ma1f6c3bae9" x="498.029923" y="474.4193" style="fill: #262626; stroke: #262626"/>
      </g>
     </g>
    </g>
    <g id="xtick_62">
     <g id="line2d_82">
      <g>
       <use xlink:href="#ma1f6c3bae9" x="506.414337" y="474.4193" style="fill: #262626; stroke: #262626"/>
      </g>
     </g>
    </g>
    <g id="xtick_63">
     <g id="line2d_83">
      <g>
       <use xlink:href="#ma1f6c3bae9" x="523.183165" y="474.4193" style="fill: #262626; stroke: #262626"/>
      </g>
     </g>
    </g>
    <g id="xtick_64">
     <g id="line2d_84">
      <g>
       <use xlink:href="#ma1f6c3bae9" x="531.56758" y="474.4193" style="fill: #262626; stroke: #262626"/>
      </g>
     </g>
    </g>
    <g id="xtick_65">
     <g id="line2d_85">
      <g>
       <use xlink:href="#ma1f6c3bae9" x="539.951994" y="474.4193" style="fill: #262626; stroke: #262626"/>
      </g>
     </g>
    </g>
    <g id="xtick_66">
     <g id="line2d_86">
      <g>
       <use xlink:href="#ma1f6c3bae9" x="556.720822" y="474.4193" style="fill: #262626; stroke: #262626"/>
      </g>
     </g>
    </g>
    <g id="xtick_67">
     <g id="line2d_87">
      <g>
       <use xlink:href="#ma1f6c3bae9" x="565.105236" y="474.4193" style="fill: #262626; stroke: #262626"/>
      </g>
     </g>
    </g>
    <g id="xtick_68">
     <g id="line2d_88">
      <g>
       <use xlink:href="#ma1f6c3bae9" x="573.48965" y="474.4193" style="fill: #262626; stroke: #262626"/>
      </g>
     </g>
    </g>
    <g id="xtick_69">
     <g id="line2d_89">
      <g>
       <use xlink:href="#ma1f6c3bae9" x="590.258479" y="474.4193" style="fill: #262626; stroke: #262626"/>
      </g>
     </g>
    </g>
    <g id="xtick_70">
     <g id="line2d_90">
      <g>
       <use xlink:href="#ma1f6c3bae9" x="598.642893" y="474.4193" style="fill: #262626; stroke: #262626"/>
      </g>
     </g>
    </g>
    <g id="xtick_71">
     <g id="line2d_91">
      <g>
       <use xlink:href="#ma1f6c3bae9" x="607.027307" y="474.4193" style="fill: #262626; stroke: #262626"/>
      </g>
     </g>
    </g>
    <g id="xtick_72">
     <g id="line2d_92">
      <g>
       <use xlink:href="#ma1f6c3bae9" x="623.796135" y="474.4193" style="fill: #262626; stroke: #262626"/>
      </g>
     </g>
    </g>
    <g id="xtick_73">
     <g id="line2d_93">
      <g>
       <use xlink:href="#ma1f6c3bae9" x="632.180549" y="474.4193" style="fill: #262626; stroke: #262626"/>
      </g>
     </g>
    </g>
    <g id="xtick_74">
     <g id="line2d_94">
      <g>
       <use xlink:href="#ma1f6c3bae9" x="640.564964" y="474.4193" style="fill: #262626; stroke: #262626"/>
      </g>
     </g>
    </g>
    <g id="xtick_75">
     <g id="line2d_95">
      <g>
       <use xlink:href="#ma1f6c3bae9" x="657.333792" y="474.4193" style="fill: #262626; stroke: #262626"/>
      </g>
     </g>
    </g>
    <g id="xtick_76">
     <g id="line2d_96">
      <g>
       <use xlink:href="#ma1f6c3bae9" x="665.718206" y="474.4193" style="fill: #262626; stroke: #262626"/>
      </g>
     </g>
    </g>
    <g id="xtick_77">
     <g id="line2d_97">
      <g>
       <use xlink:href="#ma1f6c3bae9" x="674.10262" y="474.4193" style="fill: #262626; stroke: #262626"/>
      </g>
     </g>
    </g>
    <g id="xtick_78">
     <g id="line2d_98">
      <g>
       <use xlink:href="#ma1f6c3bae9" x="690.871448" y="474.4193" style="fill: #262626; stroke: #262626"/>
      </g>
     </g>
    </g>
    <g id="xtick_79">
     <g id="line2d_99">
      <g>
       <use xlink:href="#ma1f6c3bae9" x="699.255863" y="474.4193" style="fill: #262626; stroke: #262626"/>
      </g>
     </g>
    </g>
    <g id="xtick_80">
     <g id="line2d_100">
      <g>
       <use xlink:href="#ma1f6c3bae9" x="707.640277" y="474.4193" style="fill: #262626; stroke: #262626"/>
      </g>
     </g>
    </g>
    <g id="xtick_81">
     <g id="line2d_101">
      <g>
       <use xlink:href="#ma1f6c3bae9" x="724.409105" y="474.4193" style="fill: #262626; stroke: #262626"/>
      </g>
     </g>
    </g>
    <g id="xtick_82">
     <g id="line2d_102">
      <g>
       <use xlink:href="#ma1f6c3bae9" x="732.793519" y="474.4193" style="fill: #262626; stroke: #262626"/>
      </g>
     </g>
    </g>
    <g id="xtick_83">
     <g id="line2d_103">
      <g>
       <use xlink:href="#ma1f6c3bae9" x="741.177933" y="474.4193" style="fill: #262626; stroke: #262626"/>
      </g>
     </g>
    </g>
    <g id="xtick_84">
     <g id="line2d_104">
      <g>
       <use xlink:href="#ma1f6c3bae9" x="749.562348" y="474.4193" style="fill: #262626; stroke: #262626"/>
      </g>
     </g>
    </g>
    <g id="xtick_85">
     <g id="line2d_105">
      <g>
       <use xlink:href="#ma1f6c3bae9" x="757.946762" y="474.4193" style="fill: #262626; stroke: #262626"/>
      </g>
     </g>
    </g>
    <g id="text_21">
     <!-- Week -->
     <g style="fill: #262626" transform="translate(389.363242 545.271831)scale(0.12 -0.12)">
      <defs>
       <path id="DejaVuSans-57" d="M 213 4666 
L 850 4666 
L 1831 722 
L 2809 4666 
L 3519 4666 
L 4500 722 
L 5478 4666 
L 6119 4666 
L 4947 0 
L 4153 0 
L 3169 4050 
L 2175 0 
L 1381 0 
L 213 4666 
z
" transform="scale(0.015625)"/>
       <path id="DejaVuSans-65" d="M 3597 1894 
L 3597 1613 
L 953 1613 
Q 991 1019 1311 708 
Q 1631 397 2203 397 
Q 2534 397 2845 478 
Q 3156 559 3463 722 
L 3463 178 
Q 3153 47 2828 -22 
Q 2503 -91 2169 -91 
Q 1331 -91 842 396 
Q 353 884 353 1716 
Q 353 2575 817 3079 
Q 1281 3584 2069 3584 
Q 2775 3584 3186 3129 
Q 3597 2675 3597 1894 
z
M 3022 2063 
Q 3016 2534 2758 2815 
Q 2500 3097 2075 3097 
Q 1594 3097 1305 2825 
Q 1016 2553 972 2059 
L 3022 2063 
z
" transform="scale(0.015625)"/>
       <path id="DejaVuSans-6b" d="M 581 4863 
L 1159 4863 
L 1159 1991 
L 2875 3500 
L 3609 3500 
L 1753 1863 
L 3688 0 
L 2938 0 
L 1159 1709 
L 1159 0 
L 581 0 
L 581 4863 
z
" transform="scale(0.015625)"/>
      </defs>
      <use xlink:href="#DejaVuSans-57"/>
      <use xlink:href="#DejaVuSans-65" x="93.001953"/>
      <use xlink:href="#DejaVuSans-65" x="154.525391"/>
      <use xlink:href="#DejaVuSans-6b" x="216.048828"/>
     </g>
    </g>
   </g>
   <g id="matplotlib.axis_2">
    <g id="ytick_1">
     <g id="line2d_106">
      <path d="M 46.11 454.178338 
L 765.492734 454.178338 
" clip-path="url(#p73c982c29b)" style="fill: none; stroke: #cccccc; stroke-linecap: round"/>
     </g>
     <g id="line2d_107">
      <defs>
       <path id="m75b64f68ca" d="M 0 0 
L -6 0 
" style="stroke: #262626; stroke-width: 1.25"/>
      </defs>
      <g>
       <use xlink:href="#m75b64f68ca" x="46.11" y="454.178338" style="fill: #262626; stroke: #262626; stroke-width: 1.25"/>
      </g>
     </g>
     <g id="text_22">
      <!-- 0 -->
      <g style="fill: #262626" transform="translate(29.61125 458.357478)scale(0.11 -0.11)">
       <use xlink:href="#DejaVuSans-30"/>
      </g>
     </g>
    </g>
    <g id="ytick_2">
     <g id="line2d_108">
      <path d="M 46.11 366.242426 
L 765.492734 366.242426 
" clip-path="url(#p73c982c29b)" style="fill: none; stroke: #cccccc; stroke-linecap: round"/>
     </g>
     <g id="line2d_109">
      <g>
       <use xlink:href="#m75b64f68ca" x="46.11" y="366.242426" style="fill: #262626; stroke: #262626; stroke-width: 1.25"/>
      </g>
     </g>
     <g id="text_23">
      <!-- 200 -->
      <g style="fill: #262626" transform="translate(15.61375 370.421567)scale(0.11 -0.11)">
       <use xlink:href="#DejaVuSans-32"/>
       <use xlink:href="#DejaVuSans-30" x="63.623047"/>
       <use xlink:href="#DejaVuSans-30" x="127.246094"/>
      </g>
     </g>
    </g>
    <g id="ytick_3">
     <g id="line2d_110">
      <path d="M 46.11 278.306515 
L 765.492734 278.306515 
" clip-path="url(#p73c982c29b)" style="fill: none; stroke: #cccccc; stroke-linecap: round"/>
     </g>
     <g id="line2d_111">
      <g>
       <use xlink:href="#m75b64f68ca" x="46.11" y="278.306515" style="fill: #262626; stroke: #262626; stroke-width: 1.25"/>
      </g>
     </g>
     <g id="text_24">
      <!-- 400 -->
      <g style="fill: #262626" transform="translate(15.61375 282.485655)scale(0.11 -0.11)">
       <use xlink:href="#DejaVuSans-34"/>
       <use xlink:href="#DejaVuSans-30" x="63.623047"/>
       <use xlink:href="#DejaVuSans-30" x="127.246094"/>
      </g>
     </g>
    </g>
    <g id="ytick_4">
     <g id="line2d_112">
      <path d="M 46.11 190.370603 
L 765.492734 190.370603 
" clip-path="url(#p73c982c29b)" style="fill: none; stroke: #cccccc; stroke-linecap: round"/>
     </g>
     <g id="line2d_113">
      <g>
       <use xlink:href="#m75b64f68ca" x="46.11" y="190.370603" style="fill: #262626; stroke: #262626; stroke-width: 1.25"/>
      </g>
     </g>
     <g id="text_25">
      <!-- 600 -->
      <g style="fill: #262626" transform="translate(15.61375 194.549744)scale(0.11 -0.11)">
       <use xlink:href="#DejaVuSans-36"/>
       <use xlink:href="#DejaVuSans-30" x="63.623047"/>
       <use xlink:href="#DejaVuSans-30" x="127.246094"/>
      </g>
     </g>
    </g>
    <g id="ytick_5">
     <g id="line2d_114">
      <path d="M 46.11 102.434691 
L 765.492734 102.434691 
" clip-path="url(#p73c982c29b)" style="fill: none; stroke: #cccccc; stroke-linecap: round"/>
     </g>
     <g id="line2d_115">
      <g>
       <use xlink:href="#m75b64f68ca" x="46.11" y="102.434691" style="fill: #262626; stroke: #262626; stroke-width: 1.25"/>
      </g>
     </g>
     <g id="text_26">
      <!-- 800 -->
      <g style="fill: #262626" transform="translate(15.61375 106.613832)scale(0.11 -0.11)">
       <use xlink:href="#DejaVuSans-38"/>
       <use xlink:href="#DejaVuSans-30" x="63.623047"/>
       <use xlink:href="#DejaVuSans-30" x="127.246094"/>
      </g>
     </g>
    </g>
    <g id="text_27">
     <!-- New cases (average) -->
     <g style="fill: #262626" transform="translate(9.118125 314.835275)rotate(-90)scale(0.12 -0.12)">
      <defs>
       <path id="DejaVuSans-4e" d="M 628 4666 
L 1478 4666 
L 3547 763 
L 3547 4666 
L 4159 4666 
L 4159 0 
L 3309 0 
L 1241 3903 
L 1241 0 
L 628 0 
L 628 4666 
z
" transform="scale(0.015625)"/>
       <path id="DejaVuSans-77" d="M 269 3500 
L 844 3500 
L 1563 769 
L 2278 3500 
L 2956 3500 
L 3675 769 
L 4391 3500 
L 4966 3500 
L 4050 0 
L 3372 0 
L 2619 2869 
L 1863 0 
L 1184 0 
L 269 3500 
z
" transform="scale(0.015625)"/>
       <path id="DejaVuSans-63" d="M 3122 3366 
L 3122 2828 
Q 2878 2963 2633 3030 
Q 2388 3097 2138 3097 
Q 1578 3097 1268 2742 
Q 959 2388 959 1747 
Q 959 1106 1268 751 
Q 1578 397 2138 397 
Q 2388 397 2633 464 
Q 2878 531 3122 666 
L 3122 134 
Q 2881 22 2623 -34 
Q 2366 -91 2075 -91 
Q 1284 -91 818 406 
Q 353 903 353 1747 
Q 353 2603 823 3093 
Q 1294 3584 2113 3584 
Q 2378 3584 2631 3529 
Q 2884 3475 3122 3366 
z
" transform="scale(0.015625)"/>
       <path id="DejaVuSans-61" d="M 2194 1759 
Q 1497 1759 1228 1600 
Q 959 1441 959 1056 
Q 959 750 1161 570 
Q 1363 391 1709 391 
Q 2188 391 2477 730 
Q 2766 1069 2766 1631 
L 2766 1759 
L 2194 1759 
z
M 3341 1997 
L 3341 0 
L 2766 0 
L 2766 531 
Q 2569 213 2275 61 
Q 1981 -91 1556 -91 
Q 1019 -91 701 211 
Q 384 513 384 1019 
Q 384 1609 779 1909 
Q 1175 2209 1959 2209 
L 2766 2209 
L 2766 2266 
Q 2766 2663 2505 2880 
Q 2244 3097 1772 3097 
Q 1472 3097 1187 3025 
Q 903 2953 641 2809 
L 641 3341 
Q 956 3463 1253 3523 
Q 1550 3584 1831 3584 
Q 2591 3584 2966 3190 
Q 3341 2797 3341 1997 
z
" transform="scale(0.015625)"/>
       <path id="DejaVuSans-73" d="M 2834 3397 
L 2834 2853 
Q 2591 2978 2328 3040 
Q 2066 3103 1784 3103 
Q 1356 3103 1142 2972 
Q 928 2841 928 2578 
Q 928 2378 1081 2264 
Q 1234 2150 1697 2047 
L 1894 2003 
Q 2506 1872 2764 1633 
Q 3022 1394 3022 966 
Q 3022 478 2636 193 
Q 2250 -91 1575 -91 
Q 1294 -91 989 -36 
Q 684 19 347 128 
L 347 722 
Q 666 556 975 473 
Q 1284 391 1588 391 
Q 1994 391 2212 530 
Q 2431 669 2431 922 
Q 2431 1156 2273 1281 
Q 2116 1406 1581 1522 
L 1381 1569 
Q 847 1681 609 1914 
Q 372 2147 372 2553 
Q 372 3047 722 3315 
Q 1072 3584 1716 3584 
Q 2034 3584 2315 3537 
Q 2597 3491 2834 3397 
z
" transform="scale(0.015625)"/>
       <path id="DejaVuSans-76" d="M 191 3500 
L 800 3500 
L 1894 563 
L 2988 3500 
L 3597 3500 
L 2284 0 
L 1503 0 
L 191 3500 
z
" transform="scale(0.015625)"/>
       <path id="DejaVuSans-72" d="M 2631 2963 
Q 2534 3019 2420 3045 
Q 2306 3072 2169 3072 
Q 1681 3072 1420 2755 
Q 1159 2438 1159 1844 
L 1159 0 
L 581 0 
L 581 3500 
L 1159 3500 
L 1159 2956 
Q 1341 3275 1631 3429 
Q 1922 3584 2338 3584 
Q 2397 3584 2469 3576 
Q 2541 3569 2628 3553 
L 2631 2963 
z
" transform="scale(0.015625)"/>
       <path id="DejaVuSans-67" d="M 2906 1791 
Q 2906 2416 2648 2759 
Q 2391 3103 1925 3103 
Q 1463 3103 1205 2759 
Q 947 2416 947 1791 
Q 947 1169 1205 825 
Q 1463 481 1925 481 
Q 2391 481 2648 825 
Q 2906 1169 2906 1791 
z
M 3481 434 
Q 3481 -459 3084 -895 
Q 2688 -1331 1869 -1331 
Q 1566 -1331 1297 -1286 
Q 1028 -1241 775 -1147 
L 775 -588 
Q 1028 -725 1275 -790 
Q 1522 -856 1778 -856 
Q 2344 -856 2625 -561 
Q 2906 -266 2906 331 
L 2906 616 
Q 2728 306 2450 153 
Q 2172 0 1784 0 
Q 1141 0 747 490 
Q 353 981 353 1791 
Q 353 2603 747 3093 
Q 1141 3584 1784 3584 
Q 2172 3584 2450 3431 
Q 2728 3278 2906 2969 
L 2906 3500 
L 3481 3500 
L 3481 434 
z
" transform="scale(0.015625)"/>
      </defs>
      <use xlink:href="#DejaVuSans-4e"/>
      <use xlink:href="#DejaVuSans-65" x="74.804688"/>
      <use xlink:href="#DejaVuSans-77" x="136.328125"/>
      <use xlink:href="#DejaVuSans-20" x="218.115234"/>
      <use xlink:href="#DejaVuSans-63" x="249.902344"/>
      <use xlink:href="#DejaVuSans-61" x="304.882812"/>
      <use xlink:href="#DejaVuSans-73" x="366.162109"/>
      <use xlink:href="#DejaVuSans-65" x="418.261719"/>
      <use xlink:href="#DejaVuSans-73" x="479.785156"/>
      <use xlink:href="#DejaVuSans-20" x="531.884766"/>
      <use xlink:href="#DejaVuSans-28" x="563.671875"/>
      <use xlink:href="#DejaVuSans-61" x="602.685547"/>
      <use xlink:href="#DejaVuSans-76" x="663.964844"/>
      <use xlink:href="#DejaVuSans-65" x="723.144531"/>
      <use xlink:href="#DejaVuSans-72" x="784.667969"/>
      <use xlink:href="#DejaVuSans-61" x="825.78125"/>
      <use xlink:href="#DejaVuSans-67" x="887.060547"/>
      <use xlink:href="#DejaVuSans-65" x="950.537109"/>
      <use xlink:href="#DejaVuSans-29" x="1012.060547"/>
     </g>
    </g>
   </g>
   <g id="line2d_116">
    <path d="M 78.809215 451.97994 
L 87.193629 450.346845 
L 95.578044 450.032788 
L 103.962458 451.226204 
L 112.346872 445.635992 
L 120.731286 439.731724 
L 129.1157 444.002897 
L 137.500114 444.128519 
L 145.884528 448.77656 
L 154.268943 449.404674 
L 162.653357 448.964995 
L 171.037771 451.414638 
L 179.422185 452.545242 
L 187.806599 451.728695 
L 196.191013 451.226204 
L 204.575428 450.912147 
L 212.959842 447.83439 
L 221.344256 447.080654 
L 229.72867 442.055744 
L 238.113084 435.711796 
L 246.497498 420.888314 
L 254.881912 400.47462 
L 263.266327 399.658073 
L 271.650741 414.544366 
L 280.035155 421.579239 
L 288.419569 425.410732 
L 296.803983 431.817492 
L 305.188397 435.774608 
L 313.572812 443.500406 
L 321.957226 446.766597 
L 330.34164 447.269088 
L 338.726054 444.002897 
L 347.110468 447.206276 
L 355.494882 447.269088 
L 363.879296 443.311972 
L 372.263711 442.495424 
L 380.648125 439.606101 
L 389.032539 438.475497 
L 397.416953 428.111621 
L 405.801367 419.946144 
L 414.185781 406.88138 
L 422.570196 390.047934 
L 430.95461 406.88138 
L 439.339024 413.225328 
L 447.723438 422.772655 
L 456.107852 424.091694 
L 464.492266 426.604148 
L 472.87668 433.827455 
L 481.261095 445.07069 
L 489.645509 448.085635 
L 498.029923 448.022824 
L 506.414337 450.409656 
L 514.798751 449.467485 
L 523.183165 451.351826 
L 531.56758 451.603072 
L 539.951994 451.603072 
L 548.336408 451.917129 
L 556.720822 452.105563 
L 565.105236 451.163392 
L 573.48965 449.090617 
L 581.874064 438.475497 
L 590.258479 427.60913 
L 598.642893 411.152553 
L 607.027307 403.740811 
L 615.411721 398.841525 
L 623.796135 409.896325 
L 632.180549 418.815539 
L 640.564964 412.471591 
L 648.949378 396.894373 
L 657.333792 359.458799 
L 665.718206 348.718055 
L 674.10262 329.560589 
L 682.487034 284.964519 
L 690.871448 293.067185 
L 699.255863 335.778914 
L 707.640277 368.189579 
L 716.024691 387.221422 
L 724.409105 386.970177 
L 732.793519 430.435642 
" clip-path="url(#p73c982c29b)" style="fill: none; stroke: #a6cee3; stroke-width: 1.5; stroke-linecap: round"/>
   </g>
   <g id="line2d_117">
    <path d="M 78.809215 451.100581 
L 87.193629 451.477449 
L 95.578044 450.974958 
L 103.962458 447.080654 
L 112.346872 444.442576 
L 120.731286 434.01589 
L 129.1157 439.668912 
L 137.500114 436.968024 
L 145.884528 445.384747 
L 154.268943 445.007879 
L 162.653357 449.279051 
L 171.037771 448.77656 
L 179.422185 447.83439 
L 187.806599 447.457522 
L 196.191013 448.713749 
L 204.575428 448.525315 
L 212.959842 448.27407 
L 221.344256 442.997915 
L 229.72867 432.508417 
L 238.113084 418.124614 
L 246.497498 385.399893 
L 254.881912 336.030159 
L 263.266327 315.490843 
L 271.650741 322.902584 
L 280.035155 334.459875 
L 288.419569 355.124815 
L 296.803983 373.026054 
L 305.188397 382.259324 
L 313.572812 411.529421 
L 321.957226 431.440624 
L 330.34164 433.073719 
L 338.726054 425.724789 
L 347.110468 439.480478 
L 355.494882 441.239197 
L 363.879296 436.653967 
L 372.263711 431.503435 
L 380.648125 426.981017 
L 389.032539 422.144541 
L 397.416953 404.934227 
L 405.801367 393.56537 
L 414.185781 363.353103 
L 422.570196 324.724114 
L 430.95461 324.158811 
L 439.339024 331.44493 
L 447.723438 367.310219 
L 456.107852 392.560388 
L 464.492266 410.398816 
L 472.87668 421.453616 
L 481.261095 435.648985 
L 489.645509 436.653967 
L 498.029923 443.437594 
L 506.414337 447.960013 
L 514.798751 447.457522 
L 523.183165 450.472467 
L 531.56758 450.59809 
L 539.951994 451.163392 
L 548.336408 450.974958 
L 556.720822 451.289015 
L 565.105236 449.969976 
L 573.48965 447.457522 
L 581.874064 436.968024 
L 590.258479 417.998991 
L 598.642893 386.781743 
L 607.027307 371.078901 
L 615.411721 369.257372 
L 623.796135 380.940286 
L 632.180549 397.208429 
L 640.564964 391.932275 
L 648.949378 400.348998 
L 657.333792 387.472668 
L 665.718206 382.51057 
L 674.10262 346.582469 
L 682.487034 283.394235 
L 690.871448 243.634641 
L 699.255863 265.995487 
L 707.640277 320.578564 
L 716.024691 348.403998 
L 724.409105 358.893496 
L 732.793519 429.556283 
" clip-path="url(#p73c982c29b)" style="fill: none; stroke: #1f78b4; stroke-width: 1.5; stroke-linecap: round"/>
   </g>
   <g id="line2d_118">
    <path d="M 78.809215 450.660901 
L 87.193629 448.336881 
L 95.578044 448.462504 
L 103.962458 445.635992 
L 112.346872 442.997915 
L 120.731286 436.653967 
L 129.1157 436.842401 
L 137.500114 436.653967 
L 145.884528 439.54329 
L 154.268943 440.799517 
L 162.653357 445.698804 
L 171.037771 445.635992 
L 179.422185 444.756633 
L 187.806599 444.568199 
L 196.191013 444.128519 
L 204.575428 445.698804 
L 212.959842 443.186349 
L 221.344256 439.731724 
L 229.72867 424.531373 
L 238.113084 398.401845 
L 246.497498 353.366096 
L 254.881912 260.091219 
L 263.266327 191.249962 
L 271.650741 196.274871 
L 280.035155 215.809206 
L 288.419569 254.124139 
L 296.803983 281.258649 
L 305.188397 304.059174 
L 313.572812 363.541538 
L 321.957226 409.016966 
L 330.34164 412.911271 
L 338.726054 407.509493 
L 347.110468 425.28511 
L 355.494882 426.22728 
L 363.879296 420.134578 
L 372.263711 406.944191 
L 380.648125 395.638145 
L 389.032539 388.791706 
L 397.416953 357.19759 
L 405.801367 333.580516 
L 414.185781 285.655444 
L 422.570196 212.040524 
L 430.95461 223.095324 
L 439.339024 239.551902 
L 447.723438 298.908642 
L 456.107852 341.808805 
L 464.492266 369.571429 
L 472.87668 394.193484 
L 481.261095 416.742764 
L 489.645509 425.347921 
L 498.029923 438.098628 
L 506.414337 443.563217 
L 514.798751 444.945067 
L 523.183165 448.839372 
L 531.56758 448.525315 
L 539.951994 450.974958 
L 548.336408 450.346845 
L 556.720822 450.723713 
L 565.105236 449.21624 
L 573.48965 446.326917 
L 581.874064 440.108592 
L 590.258479 425.661978 
L 598.642893 402.73583 
L 607.027307 364.860576 
L 615.411721 348.592433 
L 623.796135 356.569476 
L 632.180549 367.373031 
L 640.564964 354.93638 
L 648.949378 365.425878 
L 657.333792 334.459875 
L 665.718206 311.094047 
L 674.10262 258.646557 
L 682.487034 165.497302 
L 690.871448 105.009957 
L 699.255863 132.521335 
L 707.640277 215.809206 
L 716.024691 278.494949 
L 724.409105 293.004374 
L 732.793519 397.459675 
" clip-path="url(#p73c982c29b)" style="fill: none; stroke: #b2df8a; stroke-width: 1.5; stroke-linecap: round"/>
   </g>
   <g id="line2d_119">
    <path d="M 78.809215 449.781542 
L 87.193629 447.520333 
L 95.578044 446.45254 
L 103.962458 445.196313 
L 112.346872 442.432613 
L 120.731286 439.417667 
L 129.1157 436.653967 
L 137.500114 434.706815 
L 145.884528 436.33991 
L 154.268943 437.219269 
L 162.653357 442.872292 
L 171.037771 445.196313 
L 179.422185 443.751651 
L 187.806599 445.761615 
L 196.191013 445.447558 
L 204.575428 444.065708 
L 212.959842 439.668912 
L 221.344256 436.277099 
L 229.72867 418.124614 
L 238.113084 393.56537 
L 246.497498 342.374107 
L 254.881912 237.60475 
L 263.266327 153.751577 
L 271.650741 144.141438 
L 280.035155 162.1683 
L 288.419569 200.169176 
L 296.803983 226.612761 
L 305.188397 251.234816 
L 313.572812 331.633364 
L 321.957226 394.821598 
L 330.34164 398.213411 
L 338.726054 398.464657 
L 347.110468 419.506464 
L 355.494882 421.13956 
L 363.879296 406.567323 
L 372.263711 397.082807 
L 380.648125 386.907365 
L 389.032539 373.528545 
L 397.416953 331.44493 
L 405.801367 299.034265 
L 414.185781 240.870941 
L 422.570196 160.974884 
L 430.95461 160.723638 
L 439.339024 181.451389 
L 447.723438 253.747271 
L 456.107852 312.664332 
L 464.492266 345.137807 
L 472.87668 383.515552 
L 481.261095 409.519457 
L 489.645509 415.423725 
L 498.029923 431.377812 
L 506.414337 439.606101 
L 514.798751 444.002897 
L 523.183165 446.766597 
L 531.56758 448.148447 
L 539.951994 448.713749 
L 548.336408 449.530297 
L 556.720822 450.095599 
L 565.105236 449.718731 
L 573.48965 446.955031 
L 581.874064 440.548272 
L 590.258479 425.724789 
L 598.642893 404.431736 
L 607.027307 375.224451 
L 615.411721 348.969301 
L 623.796135 344.698128 
L 632.180549 358.265383 
L 640.564964 344.384071 
L 648.949378 347.964319 
L 657.333792 317.18675 
L 665.718206 293.192808 
L 674.10262 232.956709 
L 682.487034 106.894298 
L 690.871448 49.359088 
L 699.255863 85.601245 
L 707.640277 189.30281 
L 716.024691 266.435167 
L 724.409105 281.070215 
L 732.793519 396.580316 
" clip-path="url(#p73c982c29b)" style="fill: none; stroke: #33a02c; stroke-width: 1.5; stroke-linecap: round"/>
   </g>
   <g id="line2d_120">
    <path d="M 78.809215 451.100581 
L 87.193629 445.573181 
L 95.578044 447.331899 
L 103.962458 444.819444 
L 112.346872 442.30699 
L 120.731286 440.611083 
L 129.1157 439.354856 
L 137.500114 436.088665 
L 145.884528 436.842401 
L 154.268943 434.01589 
L 162.653357 441.427631 
L 171.037771 443.68884 
L 179.422185 443.123538 
L 187.806599 444.819444 
L 196.191013 443.374783 
L 204.575428 442.244178 
L 212.959842 440.171403 
L 221.344256 435.774608 
L 229.72867 420.762691 
L 238.113084 393.753804 
L 246.497498 356.31823 
L 254.881912 273.407228 
L 263.266327 183.712598 
L 271.650741 149.982895 
L 280.035155 136.980942 
L 288.419569 168.009757 
L 296.803983 193.762417 
L 305.188397 208.899956 
L 313.572812 294.19779 
L 321.957226 374.784772 
L 330.34164 386.279252 
L 338.726054 390.990104 
L 347.110468 417.4965 
L 355.494882 419.506464 
L 363.879296 404.682982 
L 372.263711 391.24135 
L 380.648125 378.993133 
L 389.032539 369.257372 
L 397.416953 333.957384 
L 405.801367 293.192808 
L 414.185781 241.7503 
L 422.570196 166.941964 
L 430.95461 145.586099 
L 439.339024 154.944993 
L 447.723438 217.81917 
L 456.107852 285.278576 
L 464.492266 329.434966 
L 472.87668 365.300256 
L 481.261095 395.826579 
L 489.645509 410.775684 
L 498.029923 431.377812 
L 506.414337 437.910194 
L 514.798751 442.118556 
L 523.183165 445.07069 
L 531.56758 446.640974 
L 539.951994 448.77656 
L 548.336408 448.964995 
L 556.720822 449.718731 
L 565.105236 450.095599 
L 573.48965 448.902183 
L 581.874064 443.123538 
L 590.258479 434.329946 
L 598.642893 413.539384 
L 607.027307 385.27427 
L 615.411721 355.501683 
L 623.796135 347.524639 
L 632.180549 356.129796 
L 640.564964 333.266459 
L 648.949378 339.547596 
L 657.333792 325.289416 
L 665.718206 303.179815 
L 674.10262 258.018444 
L 682.487034 154.191256 
L 690.871448 104.067787 
L 699.255863 129.192333 
L 707.640277 202.17914 
L 716.024691 266.874846 
L 724.409105 288.67039 
L 732.793519 408.451664 
" clip-path="url(#p73c982c29b)" style="fill: none; stroke: #fb9a99; stroke-width: 1.5; stroke-linecap: round"/>
   </g>
   <g id="line2d_121">
    <path d="M 78.809215 452.41962 
L 87.193629 450.284033 
L 95.578044 447.771579 
L 103.962458 447.457522 
L 112.346872 446.326917 
L 120.731286 445.384747 
L 129.1157 444.505388 
L 137.500114 439.920158 
L 145.884528 438.977987 
L 154.268943 439.606101 
L 162.653357 442.935103 
L 171.037771 443.374783 
L 179.422185 443.123538 
L 187.806599 444.568199 
L 196.191013 445.510369 
L 204.575428 442.746669 
L 212.959842 441.930122 
L 221.344256 438.789553 
L 229.72867 428.04881 
L 238.113084 412.220346 
L 246.497498 383.641174 
L 254.881912 328.429984 
L 263.266327 253.370403 
L 271.650741 220.14319 
L 280.035155 194.453342 
L 288.419569 202.807253 
L 296.803983 218.196038 
L 305.188397 216.123263 
L 313.572812 288.733201 
L 321.957226 368.440824 
L 330.34164 384.143665 
L 338.726054 389.482631 
L 347.110468 414.858423 
L 355.494882 420.637069 
L 363.879296 408.388852 
L 372.263711 397.962166 
L 380.648125 383.201495 
L 389.032539 372.963242 
L 397.416953 334.145818 
L 405.801367 300.667361 
L 414.185781 245.958661 
L 422.570196 184.466335 
L 430.95461 156.264032 
L 439.339024 162.231111 
L 447.723438 208.271842 
L 456.107852 272.025378 
L 464.492266 310.842802 
L 472.87668 356.004174 
L 481.261095 387.347045 
L 489.645509 402.861452 
L 498.029923 418.941162 
L 506.414337 431.063755 
L 514.798751 440.548272 
L 523.183165 442.809481 
L 531.56758 446.264106 
L 539.951994 449.153429 
L 548.336408 449.404674 
L 556.720822 450.15841 
L 565.105236 449.593108 
L 573.48965 448.77656 
L 581.874064 445.196313 
L 590.258479 434.769626 
L 598.642893 418.689916 
L 607.027307 389.985122 
L 615.411721 359.207553 
L 623.796135 347.273394 
L 632.180549 353.868587 
L 640.564964 335.841725 
L 648.949378 341.055069 
L 657.333792 322.902584 
L 665.718206 313.98337 
L 674.10262 276.547796 
L 682.487034 195.269889 
L 690.871448 162.1683 
L 699.255863 162.042677 
L 707.640277 222.530022 
L 716.024691 270.203848 
L 724.409105 288.356333 
L 732.793519 411.089741 
" clip-path="url(#p73c982c29b)" style="fill: none; stroke: #e31a1c; stroke-width: 1.5; stroke-linecap: round"/>
   </g>
   <g id="line2d_122">
    <path d="M 78.809215 453.738658 
L 87.193629 451.603072 
L 95.578044 451.100581 
L 103.962458 451.226204 
L 112.346872 450.535279 
L 120.731286 450.15841 
L 129.1157 447.771579 
L 137.500114 447.583144 
L 145.884528 444.191331 
L 154.268943 444.128519 
L 162.653357 448.650938 
L 171.037771 447.583144 
L 179.422185 447.457522 
L 187.806599 447.708767 
L 196.191013 449.530297 
L 204.575428 448.588126 
L 212.959842 447.017842 
L 221.344256 445.887238 
L 229.72867 441.86731 
L 238.113084 434.141512 
L 246.497498 419.129596 
L 254.881912 400.537432 
L 263.266327 355.878551 
L 271.650741 330.754005 
L 280.035155 309.83782 
L 288.419569 304.373231 
L 296.803983 309.39814 
L 305.188397 299.285511 
L 313.572812 331.696175 
L 321.957226 385.839572 
L 330.34164 395.449711 
L 338.726054 400.600243 
L 347.110468 421.767673 
L 355.494882 426.918205 
L 363.879296 425.096676 
L 372.263711 415.863405 
L 380.648125 411.215364 
L 389.032539 396.957184 
L 397.416953 374.784772 
L 405.801367 349.911471 
L 414.185781 311.345293 
L 422.570196 264.236769 
L 430.95461 244.702434 
L 439.339024 236.474145 
L 447.723438 266.560789 
L 456.107852 302.300456 
L 464.492266 336.909519 
L 472.87668 371.95826 
L 481.261095 394.00505 
L 489.645509 404.745793 
L 498.029923 422.52141 
L 506.414337 434.141512 
L 514.798751 441.176385 
L 523.183165 444.63101 
L 531.56758 446.578163 
L 539.951994 449.279051 
L 548.336408 447.583144 
L 556.720822 450.786524 
L 565.105236 450.723713 
L 573.48965 449.404674 
L 581.874064 447.206276 
L 590.258479 441.113574 
L 598.642893 431.315001 
L 607.027307 406.504511 
L 615.411721 379.181568 
L 623.796135 368.063956 
L 632.180549 372.460751 
L 640.564964 359.52161 
L 648.949378 358.076949 
L 657.333792 350.037094 
L 665.718206 343.127844 
L 674.10262 312.852766 
L 682.487034 270.580717 
L 690.871448 236.725391 
L 699.255863 236.160088 
L 707.640277 269.764169 
L 716.024691 309.900631 
L 724.409105 326.357209 
L 732.793519 412.40878 
" clip-path="url(#p73c982c29b)" style="fill: none; stroke: #fdbf6f; stroke-width: 1.5; stroke-linecap: round"/>
   </g>
   <g id="line2d_123">
    <path d="M 78.809215 453.738658 
L 87.193629 453.487413 
L 95.578044 453.236167 
L 103.962458 453.487413 
L 112.346872 452.796488 
L 120.731286 453.424601 
L 129.1157 452.922111 
L 137.500114 452.356808 
L 145.884528 448.211258 
L 154.268943 449.279051 
L 162.653357 451.540261 
L 171.037771 451.97994 
L 179.422185 452.168374 
L 187.806599 451.477449 
L 196.191013 452.796488 
L 204.575428 452.482431 
L 212.959842 451.414638 
L 221.344256 451.477449 
L 229.72867 449.781542 
L 238.113084 447.331899 
L 246.497498 443.123538 
L 254.881912 438.224251 
L 263.266327 424.028882 
L 271.650741 416.240273 
L 280.035155 402.73583 
L 288.419569 405.562341 
L 296.803983 403.678 
L 305.188397 402.798641 
L 313.572812 413.413762 
L 321.957226 425.976035 
L 330.34164 432.571228 
L 338.726054 431.817492 
L 347.110468 440.799517 
L 355.494882 445.259124 
L 363.879296 443.437594 
L 372.263711 441.804499 
L 380.648125 437.533326 
L 389.032539 437.596137 
L 397.416953 426.164469 
L 405.801367 422.709844 
L 414.185781 406.88138 
L 422.570196 391.052916 
L 430.95461 388.603272 
L 439.339024 380.751852 
L 447.723438 392.937257 
L 456.107852 400.286186 
L 464.492266 409.2054 
L 472.87668 423.086712 
L 481.261095 429.619094 
L 489.645509 434.581192 
L 498.029923 442.055744 
L 506.414337 445.573181 
L 514.798751 448.399692 
L 523.183165 449.65592 
L 531.56758 450.59809 
L 539.951994 451.791506 
L 548.336408 452.168374 
L 556.720822 452.796488 
L 565.105236 452.733676 
L 573.48965 452.796488 
L 581.874064 452.482431 
L 590.258479 449.530297 
L 598.642893 446.01286 
L 607.027307 438.538308 
L 615.411721 432.885285 
L 623.796135 428.362867 
L 632.180549 427.923187 
L 640.564964 419.066785 
L 648.949378 419.694898 
L 657.333792 417.433689 
L 665.718206 414.481555 
L 674.10262 404.871416 
L 682.487034 391.555407 
L 690.871448 376.669113 
L 699.255863 378.239397 
L 707.640277 386.530497 
L 716.024691 396.580316 
L 724.409105 405.813586 
L 732.793519 429.995962 
" clip-path="url(#p73c982c29b)" style="fill: none; stroke: #ff7f00; stroke-width: 1.5; stroke-linecap: round"/>
   </g>
   <g id="line2d_124">
    <path d="M 78.809215 454.178338 
L 87.193629 454.115527 
L 95.578044 454.178338 
L 103.962458 454.178338 
L 112.346872 454.052715 
L 120.731286 454.115527 
L 129.1157 453.989904 
L 137.500114 454.052715 
L 145.884528 453.613036 
L 154.268943 453.487413 
L 162.653357 454.052715 
L 171.037771 453.80147 
L 179.422185 453.989904 
L 187.806599 453.864281 
L 196.191013 454.052715 
L 204.575428 454.052715 
L 212.959842 454.115527 
L 221.344256 454.052715 
L 229.72867 453.989904 
L 238.113084 453.550224 
L 246.497498 452.356808 
L 254.881912 452.922111 
L 263.266327 451.163392 
L 271.650741 451.100581 
L 280.035155 448.462504 
L 288.419569 449.844354 
L 296.803983 450.346845 
L 305.188397 449.781542 
L 313.572812 450.786524 
L 321.957226 451.351826 
L 330.34164 452.482431 
L 338.726054 451.917129 
L 347.110468 452.042751 
L 355.494882 453.487413 
L 363.879296 452.984922 
L 372.263711 452.796488 
L 380.648125 452.922111 
L 389.032539 453.047733 
L 397.416953 451.97994 
L 405.801367 451.854317 
L 414.185781 450.095599 
L 422.570196 447.83439 
L 430.95461 449.090617 
L 439.339024 449.341863 
L 447.723438 448.77656 
L 456.107852 450.095599 
L 464.492266 449.969976 
L 472.87668 451.728695 
L 481.261095 452.545242 
L 489.645509 452.859299 
L 498.029923 453.236167 
L 506.414337 453.36179 
L 514.798751 453.80147 
L 523.183165 453.487413 
L 531.56758 453.989904 
L 539.951994 454.115527 
L 548.336408 454.115527 
L 556.720822 454.052715 
L 565.105236 453.989904 
L 573.48965 453.989904 
L 581.874064 453.989904 
L 590.258479 453.80147 
L 598.642893 453.298979 
L 607.027307 453.110545 
L 615.411721 452.168374 
L 623.796135 451.226204 
L 632.180549 452.042751 
L 640.564964 451.97994 
L 648.949378 450.472467 
L 657.333792 449.530297 
L 665.718206 450.221222 
L 674.10262 450.409656 
L 682.487034 448.022824 
L 690.871448 446.515351 
L 699.255863 448.148447 
L 707.640277 448.399692 
L 716.024691 449.467485 
L 724.409105 448.902183 
L 732.793519 451.540261 
" clip-path="url(#p73c982c29b)" style="fill: none; stroke: #cab2d6; stroke-width: 1.5; stroke-linecap: round"/>
   </g>
   <g id="line2d_125"/>
   <g id="line2d_126"/>
   <g id="line2d_127"/>
   <g id="line2d_128"/>
   <g id="line2d_129"/>
   <g id="line2d_130"/>
   <g id="line2d_131"/>
   <g id="line2d_132"/>
   <g id="line2d_133"/>
   <g id="patch_3">
    <path d="M 46.11 474.4193 
L 46.11 29.118125 
" style="fill: none; stroke: #262626; stroke-width: 1.25; stroke-linejoin: miter; stroke-linecap: square"/>
   </g>
   <g id="patch_4">
    <path d="M 765.492734 474.4193 
L 765.492734 29.118125 
" style="fill: none; stroke: #262626; stroke-width: 1.25; stroke-linejoin: miter; stroke-linecap: square"/>
   </g>
   <g id="patch_5">
    <path d="M 46.11 474.4193 
L 765.492734 474.4193 
" style="fill: none; stroke: #262626; stroke-width: 1.25; stroke-linejoin: miter; stroke-linecap: square"/>
   </g>
   <g id="patch_6">
    <path d="M 46.11 29.118125 
L 765.492734 29.118125 
" style="fill: none; stroke: #262626; stroke-width: 1.25; stroke-linejoin: miter; stroke-linecap: square"/>
   </g>
   <g id="text_28">
    <!-- Last update: 29.11.2021 -->
    <g style="fill: #262626" transform="translate(344.302539 22.438607)scale(0.09996 -0.09996)">
     <defs>
      <path id="DejaVuSans-4c" d="M 628 4666 
L 1259 4666 
L 1259 531 
L 3531 531 
L 3531 0 
L 628 0 
L 628 4666 
z
" transform="scale(0.015625)"/>
      <path id="DejaVuSans-74" d="M 1172 4494 
L 1172 3500 
L 2356 3500 
L 2356 3053 
L 1172 3053 
L 1172 1153 
Q 1172 725 1289 603 
Q 1406 481 1766 481 
L 2356 481 
L 2356 0 
L 1766 0 
Q 1100 0 847 248 
Q 594 497 594 1153 
L 594 3053 
L 172 3053 
L 172 3500 
L 594 3500 
L 594 4494 
L 1172 4494 
z
" transform="scale(0.015625)"/>
      <path id="DejaVuSans-75" d="M 544 1381 
L 544 3500 
L 1119 3500 
L 1119 1403 
Q 1119 906 1312 657 
Q 1506 409 1894 409 
Q 2359 409 2629 706 
Q 2900 1003 2900 1516 
L 2900 3500 
L 3475 3500 
L 3475 0 
L 2900 0 
L 2900 538 
Q 2691 219 2414 64 
Q 2138 -91 1772 -91 
Q 1169 -91 856 284 
Q 544 659 544 1381 
z
M 1991 3584 
L 1991 3584 
z
" transform="scale(0.015625)"/>
      <path id="DejaVuSans-70" d="M 1159 525 
L 1159 -1331 
L 581 -1331 
L 581 3500 
L 1159 3500 
L 1159 2969 
Q 1341 3281 1617 3432 
Q 1894 3584 2278 3584 
Q 2916 3584 3314 3078 
Q 3713 2572 3713 1747 
Q 3713 922 3314 415 
Q 2916 -91 2278 -91 
Q 1894 -91 1617 61 
Q 1341 213 1159 525 
z
M 3116 1747 
Q 3116 2381 2855 2742 
Q 2594 3103 2138 3103 
Q 1681 3103 1420 2742 
Q 1159 2381 1159 1747 
Q 1159 1113 1420 752 
Q 1681 391 2138 391 
Q 2594 391 2855 752 
Q 3116 1113 3116 1747 
z
" transform="scale(0.015625)"/>
      <path id="DejaVuSans-64" d="M 2906 2969 
L 2906 4863 
L 3481 4863 
L 3481 0 
L 2906 0 
L 2906 525 
Q 2725 213 2448 61 
Q 2172 -91 1784 -91 
Q 1150 -91 751 415 
Q 353 922 353 1747 
Q 353 2572 751 3078 
Q 1150 3584 1784 3584 
Q 2172 3584 2448 3432 
Q 2725 3281 2906 2969 
z
M 947 1747 
Q 947 1113 1208 752 
Q 1469 391 1925 391 
Q 2381 391 2643 752 
Q 2906 1113 2906 1747 
Q 2906 2381 2643 2742 
Q 2381 3103 1925 3103 
Q 1469 3103 1208 2742 
Q 947 2381 947 1747 
z
" transform="scale(0.015625)"/>
      <path id="DejaVuSans-3a" d="M 750 794 
L 1409 794 
L 1409 0 
L 750 0 
L 750 794 
z
M 750 3309 
L 1409 3309 
L 1409 2516 
L 750 2516 
L 750 3309 
z
" transform="scale(0.015625)"/>
     </defs>
     <use xlink:href="#DejaVuSans-4c"/>
     <use xlink:href="#DejaVuSans-61" x="55.712891"/>
     <use xlink:href="#DejaVuSans-73" x="116.992188"/>
     <use xlink:href="#DejaVuSans-74" x="169.091797"/>
     <use xlink:href="#DejaVuSans-20" x="208.300781"/>
     <use xlink:href="#DejaVuSans-75" x="240.087891"/>
     <use xlink:href="#DejaVuSans-70" x="303.466797"/>
     <use xlink:href="#DejaVuSans-64" x="366.943359"/>
     <use xlink:href="#DejaVuSans-61" x="430.419922"/>
     <use xlink:href="#DejaVuSans-74" x="491.699219"/>
     <use xlink:href="#DejaVuSans-65" x="530.908203"/>
     <use xlink:href="#DejaVuSans-3a" x="592.431641"/>
     <use xlink:href="#DejaVuSans-20" x="626.123047"/>
     <use xlink:href="#DejaVuSans-32" x="657.910156"/>
     <use xlink:href="#DejaVuSans-39" x="721.533203"/>
     <use xlink:href="#DejaVuSans-2e" x="785.15625"/>
     <use xlink:href="#DejaVuSans-31" x="816.943359"/>
     <use xlink:href="#DejaVuSans-31" x="880.566406"/>
     <use xlink:href="#DejaVuSans-2e" x="944.189453"/>
     <use xlink:href="#DejaVuSans-32" x="975.976562"/>
     <use xlink:href="#DejaVuSans-30" x="1039.599609"/>
     <use xlink:href="#DejaVuSans-32" x="1103.222656"/>
     <use xlink:href="#DejaVuSans-31" x="1166.845703"/>
    </g>
   </g>
   <g id="patch_7">
    <path d="M 763.288394 430.435642 
Q 749.040453 430.435642 735.910546 430.435642 
" style="fill: none; stroke: #a6cee3; stroke-linecap: round"/>
    <path d="M 740.710546 432.835642 
L 735.910546 430.435642 
L 740.710546 428.035642 
" style="fill: none; stroke: #a6cee3; stroke-linecap: round"/>
   </g>
   <g id="text_29">
    <!-- 0-19 (54) -->
    <g style="fill: #a6cee3" transform="translate(767.793519 433.746892)scale(0.12 -0.12)">
     <defs>
      <path id="DejaVuSans-2d" d="M 313 2009 
L 1997 2009 
L 1997 1497 
L 313 1497 
L 313 2009 
z
" transform="scale(0.015625)"/>
     </defs>
     <use xlink:href="#DejaVuSans-30"/>
     <use xlink:href="#DejaVuSans-2d" x="63.623047"/>
     <use xlink:href="#DejaVuSans-31" x="99.707031"/>
     <use xlink:href="#DejaVuSans-39" x="163.330078"/>
     <use xlink:href="#DejaVuSans-20" x="226.953125"/>
     <use xlink:href="#DejaVuSans-28" x="258.740234"/>
     <use xlink:href="#DejaVuSans-35" x="297.753906"/>
     <use xlink:href="#DejaVuSans-34" x="361.376953"/>
     <use xlink:href="#DejaVuSans-29" x="425"/>
    </g>
   </g>
   <g id="patch_8">
    <path d="M 763.293148 429.556283 
Q 749.042986 429.556283 735.910857 429.556283 
" style="fill: none; stroke: #1f78b4; stroke-linecap: round"/>
    <path d="M 740.710857 431.956283 
L 735.910857 429.556283 
L 740.710857 427.156283 
" style="fill: none; stroke: #1f78b4; stroke-linecap: round"/>
   </g>
   <g id="text_30">
    <!-- 20-29 (56) -->
    <g style="fill: #1f78b4" transform="translate(767.793519 432.867533)scale(0.12 -0.12)">
     <use xlink:href="#DejaVuSans-32"/>
     <use xlink:href="#DejaVuSans-30" x="63.623047"/>
     <use xlink:href="#DejaVuSans-2d" x="127.246094"/>
     <use xlink:href="#DejaVuSans-32" x="163.330078"/>
     <use xlink:href="#DejaVuSans-39" x="226.953125"/>
     <use xlink:href="#DejaVuSans-20" x="290.576172"/>
     <use xlink:href="#DejaVuSans-28" x="322.363281"/>
     <use xlink:href="#DejaVuSans-35" x="361.376953"/>
     <use xlink:href="#DejaVuSans-36" x="425"/>
     <use xlink:href="#DejaVuSans-29" x="488.623047"/>
    </g>
   </g>
   <g id="patch_9">
    <path d="M 763.288076 397.459675 
Q 749.040284 397.459675 735.910525 397.459675 
" style="fill: none; stroke: #b2df8a; stroke-linecap: round"/>
    <path d="M 740.710525 399.859675 
L 735.910525 397.459675 
L 740.710525 395.059675 
" style="fill: none; stroke: #b2df8a; stroke-linecap: round"/>
   </g>
   <g id="text_31">
    <!-- 30-39 (129) -->
    <g style="fill: #b2df8a" transform="translate(767.793519 400.770925)scale(0.12 -0.12)">
     <use xlink:href="#DejaVuSans-33"/>
     <use xlink:href="#DejaVuSans-30" x="63.623047"/>
     <use xlink:href="#DejaVuSans-2d" x="127.246094"/>
     <use xlink:href="#DejaVuSans-33" x="163.330078"/>
     <use xlink:href="#DejaVuSans-39" x="226.953125"/>
     <use xlink:href="#DejaVuSans-20" x="290.576172"/>
     <use xlink:href="#DejaVuSans-28" x="322.363281"/>
     <use xlink:href="#DejaVuSans-31" x="361.376953"/>
     <use xlink:href="#DejaVuSans-32" x="425"/>
     <use xlink:href="#DejaVuSans-39" x="488.623047"/>
     <use xlink:href="#DejaVuSans-29" x="552.246094"/>
    </g>
   </g>
   <g id="patch_10">
    <path d="M 763.288076 396.580316 
Q 749.040284 396.580316 735.910525 396.580316 
" style="fill: none; stroke: #33a02c; stroke-linecap: round"/>
    <path d="M 740.710525 398.980316 
L 735.910525 396.580316 
L 740.710525 394.180316 
" style="fill: none; stroke: #33a02c; stroke-linecap: round"/>
   </g>
   <g id="text_32">
    <!-- 40-49 (131) -->
    <g style="fill: #33a02c" transform="translate(767.793519 399.891566)scale(0.12 -0.12)">
     <use xlink:href="#DejaVuSans-34"/>
     <use xlink:href="#DejaVuSans-30" x="63.623047"/>
     <use xlink:href="#DejaVuSans-2d" x="127.246094"/>
     <use xlink:href="#DejaVuSans-34" x="163.330078"/>
     <use xlink:href="#DejaVuSans-39" x="226.953125"/>
     <use xlink:href="#DejaVuSans-20" x="290.576172"/>
     <use xlink:href="#DejaVuSans-28" x="322.363281"/>
     <use xlink:href="#DejaVuSans-31" x="361.376953"/>
     <use xlink:href="#DejaVuSans-33" x="425"/>
     <use xlink:href="#DejaVuSans-31" x="488.623047"/>
     <use xlink:href="#DejaVuSans-29" x="552.246094"/>
    </g>
   </g>
   <g id="patch_11">
    <path d="M 763.288076 408.451664 
Q 749.040284 408.451664 735.910525 408.451664 
" style="fill: none; stroke: #fb9a99; stroke-linecap: round"/>
    <path d="M 740.710525 410.851664 
L 735.910525 408.451664 
L 740.710525 406.051664 
" style="fill: none; stroke: #fb9a99; stroke-linecap: round"/>
   </g>
   <g id="text_33">
    <!-- 50-59 (104) -->
    <g style="fill: #fb9a99" transform="translate(767.793519 411.762914)scale(0.12 -0.12)">
     <use xlink:href="#DejaVuSans-35"/>
     <use xlink:href="#DejaVuSans-30" x="63.623047"/>
     <use xlink:href="#DejaVuSans-2d" x="127.246094"/>
     <use xlink:href="#DejaVuSans-35" x="163.330078"/>
     <use xlink:href="#DejaVuSans-39" x="226.953125"/>
     <use xlink:href="#DejaVuSans-20" x="290.576172"/>
     <use xlink:href="#DejaVuSans-28" x="322.363281"/>
     <use xlink:href="#DejaVuSans-31" x="361.376953"/>
     <use xlink:href="#DejaVuSans-30" x="425"/>
     <use xlink:href="#DejaVuSans-34" x="488.623047"/>
     <use xlink:href="#DejaVuSans-29" x="552.246094"/>
    </g>
   </g>
   <g id="patch_12">
    <path d="M 763.293148 411.089741 
Q 749.042986 411.089741 735.910857 411.089741 
" style="fill: none; stroke: #e31a1c; stroke-linecap: round"/>
    <path d="M 740.710857 413.489741 
L 735.910857 411.089741 
L 740.710857 408.689741 
" style="fill: none; stroke: #e31a1c; stroke-linecap: round"/>
   </g>
   <g id="text_34">
    <!-- 60-69 (98) -->
    <g style="fill: #e31a1c" transform="translate(767.793519 414.400991)scale(0.12 -0.12)">
     <use xlink:href="#DejaVuSans-36"/>
     <use xlink:href="#DejaVuSans-30" x="63.623047"/>
     <use xlink:href="#DejaVuSans-2d" x="127.246094"/>
     <use xlink:href="#DejaVuSans-36" x="163.330078"/>
     <use xlink:href="#DejaVuSans-39" x="226.953125"/>
     <use xlink:href="#DejaVuSans-20" x="290.576172"/>
     <use xlink:href="#DejaVuSans-28" x="322.363281"/>
     <use xlink:href="#DejaVuSans-39" x="361.376953"/>
     <use xlink:href="#DejaVuSans-38" x="425"/>
     <use xlink:href="#DejaVuSans-29" x="488.623047"/>
    </g>
   </g>
   <g id="patch_13">
    <path d="M 763.293148 412.40878 
Q 749.042986 412.40878 735.910857 412.40878 
" style="fill: none; stroke: #fdbf6f; stroke-linecap: round"/>
    <path d="M 740.710857 414.80878 
L 735.910857 412.40878 
L 740.710857 410.00878 
" style="fill: none; stroke: #fdbf6f; stroke-linecap: round"/>
   </g>
   <g id="text_35">
    <!-- 70-79 (95) -->
    <g style="fill: #fdbf6f" transform="translate(767.793519 415.72003)scale(0.12 -0.12)">
     <use xlink:href="#DejaVuSans-37"/>
     <use xlink:href="#DejaVuSans-30" x="63.623047"/>
     <use xlink:href="#DejaVuSans-2d" x="127.246094"/>
     <use xlink:href="#DejaVuSans-37" x="163.330078"/>
     <use xlink:href="#DejaVuSans-39" x="226.953125"/>
     <use xlink:href="#DejaVuSans-20" x="290.576172"/>
     <use xlink:href="#DejaVuSans-28" x="322.363281"/>
     <use xlink:href="#DejaVuSans-39" x="361.376953"/>
     <use xlink:href="#DejaVuSans-35" x="425"/>
     <use xlink:href="#DejaVuSans-29" x="488.623047"/>
    </g>
   </g>
   <g id="patch_14">
    <path d="M 763.293148 429.995962 
Q 749.042986 429.995962 735.910857 429.995962 
" style="fill: none; stroke: #ff7f00; stroke-linecap: round"/>
    <path d="M 740.710857 432.395962 
L 735.910857 429.995962 
L 740.710857 427.595962 
" style="fill: none; stroke: #ff7f00; stroke-linecap: round"/>
   </g>
   <g id="text_36">
    <!-- 80-89 (55) -->
    <g style="fill: #ff7f00" transform="translate(767.793519 433.307212)scale(0.12 -0.12)">
     <use xlink:href="#DejaVuSans-38"/>
     <use xlink:href="#DejaVuSans-30" x="63.623047"/>
     <use xlink:href="#DejaVuSans-2d" x="127.246094"/>
     <use xlink:href="#DejaVuSans-38" x="163.330078"/>
     <use xlink:href="#DejaVuSans-39" x="226.953125"/>
     <use xlink:href="#DejaVuSans-20" x="290.576172"/>
     <use xlink:href="#DejaVuSans-28" x="322.363281"/>
     <use xlink:href="#DejaVuSans-35" x="361.376953"/>
     <use xlink:href="#DejaVuSans-35" x="425"/>
     <use xlink:href="#DejaVuSans-29" x="488.623047"/>
    </g>
   </g>
   <g id="patch_15">
    <path d="M 763.287476 451.540261 
Q 749.039964 451.540261 735.910486 451.540261 
" style="fill: none; stroke: #cab2d6; stroke-linecap: round"/>
    <path d="M 740.710486 453.940261 
L 735.910486 451.540261 
L 740.710486 449.140261 
" style="fill: none; stroke: #cab2d6; stroke-linecap: round"/>
   </g>
   <g id="text_37">
    <!-- 90+ (6) -->
    <g style="fill: #cab2d6" transform="translate(767.793519 454.851511)scale(0.12 -0.12)">
     <defs>
      <path id="DejaVuSans-2b" d="M 2944 4013 
L 2944 2272 
L 4684 2272 
L 4684 1741 
L 2944 1741 
L 2944 0 
L 2419 0 
L 2419 1741 
L 678 1741 
L 678 2272 
L 2419 2272 
L 2419 4013 
L 2944 4013 
z
" transform="scale(0.015625)"/>
     </defs>
     <use xlink:href="#DejaVuSans-39"/>
     <use xlink:href="#DejaVuSans-30" x="63.623047"/>
     <use xlink:href="#DejaVuSans-2b" x="127.246094"/>
     <use xlink:href="#DejaVuSans-20" x="211.035156"/>
     <use xlink:href="#DejaVuSans-28" x="242.822266"/>
     <use xlink:href="#DejaVuSans-36" x="281.835938"/>
     <use xlink:href="#DejaVuSans-29" x="345.458984"/>
    </g>
   </g>
   <g id="text_38">
    <!-- New cases by age group -->
    <g style="fill: #262626" transform="translate(323.433555 9.118125)scale(0.12 -0.12)">
     <defs>
      <path id="DejaVuSans-Bold-4e" d="M 588 4666 
L 1931 4666 
L 3628 1466 
L 3628 4666 
L 4769 4666 
L 4769 0 
L 3425 0 
L 1728 3200 
L 1728 0 
L 588 0 
L 588 4666 
z
" transform="scale(0.015625)"/>
      <path id="DejaVuSans-Bold-65" d="M 4031 1759 
L 4031 1441 
L 1416 1441 
Q 1456 1047 1700 850 
Q 1944 653 2381 653 
Q 2734 653 3104 758 
Q 3475 863 3866 1075 
L 3866 213 
Q 3469 63 3072 -14 
Q 2675 -91 2278 -91 
Q 1328 -91 801 392 
Q 275 875 275 1747 
Q 275 2603 792 3093 
Q 1309 3584 2216 3584 
Q 3041 3584 3536 3087 
Q 4031 2591 4031 1759 
z
M 2881 2131 
Q 2881 2450 2695 2645 
Q 2509 2841 2209 2841 
Q 1884 2841 1681 2658 
Q 1478 2475 1428 2131 
L 2881 2131 
z
" transform="scale(0.015625)"/>
      <path id="DejaVuSans-Bold-77" d="M 225 3500 
L 1313 3500 
L 1900 1088 
L 2491 3500 
L 3425 3500 
L 4013 1113 
L 4603 3500 
L 5691 3500 
L 4769 0 
L 3547 0 
L 2956 2406 
L 2369 0 
L 1147 0 
L 225 3500 
z
" transform="scale(0.015625)"/>
      <path id="DejaVuSans-Bold-20" transform="scale(0.015625)"/>
      <path id="DejaVuSans-Bold-63" d="M 3366 3391 
L 3366 2478 
Q 3138 2634 2908 2709 
Q 2678 2784 2431 2784 
Q 1963 2784 1702 2511 
Q 1441 2238 1441 1747 
Q 1441 1256 1702 982 
Q 1963 709 2431 709 
Q 2694 709 2930 787 
Q 3166 866 3366 1019 
L 3366 103 
Q 3103 6 2833 -42 
Q 2563 -91 2291 -91 
Q 1344 -91 809 395 
Q 275 881 275 1747 
Q 275 2613 809 3098 
Q 1344 3584 2291 3584 
Q 2566 3584 2833 3536 
Q 3100 3488 3366 3391 
z
" transform="scale(0.015625)"/>
      <path id="DejaVuSans-Bold-61" d="M 2106 1575 
Q 1756 1575 1579 1456 
Q 1403 1338 1403 1106 
Q 1403 894 1545 773 
Q 1688 653 1941 653 
Q 2256 653 2472 879 
Q 2688 1106 2688 1447 
L 2688 1575 
L 2106 1575 
z
M 3816 1997 
L 3816 0 
L 2688 0 
L 2688 519 
Q 2463 200 2181 54 
Q 1900 -91 1497 -91 
Q 953 -91 614 226 
Q 275 544 275 1050 
Q 275 1666 698 1953 
Q 1122 2241 2028 2241 
L 2688 2241 
L 2688 2328 
Q 2688 2594 2478 2717 
Q 2269 2841 1825 2841 
Q 1466 2841 1156 2769 
Q 847 2697 581 2553 
L 581 3406 
Q 941 3494 1303 3539 
Q 1666 3584 2028 3584 
Q 2975 3584 3395 3211 
Q 3816 2838 3816 1997 
z
" transform="scale(0.015625)"/>
      <path id="DejaVuSans-Bold-73" d="M 3272 3391 
L 3272 2541 
Q 2913 2691 2578 2766 
Q 2244 2841 1947 2841 
Q 1628 2841 1473 2761 
Q 1319 2681 1319 2516 
Q 1319 2381 1436 2309 
Q 1553 2238 1856 2203 
L 2053 2175 
Q 2913 2066 3209 1816 
Q 3506 1566 3506 1031 
Q 3506 472 3093 190 
Q 2681 -91 1863 -91 
Q 1516 -91 1145 -36 
Q 775 19 384 128 
L 384 978 
Q 719 816 1070 734 
Q 1422 653 1784 653 
Q 2113 653 2278 743 
Q 2444 834 2444 1013 
Q 2444 1163 2330 1236 
Q 2216 1309 1875 1350 
L 1678 1375 
Q 931 1469 631 1722 
Q 331 1975 331 2491 
Q 331 3047 712 3315 
Q 1094 3584 1881 3584 
Q 2191 3584 2531 3537 
Q 2872 3491 3272 3391 
z
" transform="scale(0.015625)"/>
      <path id="DejaVuSans-Bold-62" d="M 2400 722 
Q 2759 722 2948 984 
Q 3138 1247 3138 1747 
Q 3138 2247 2948 2509 
Q 2759 2772 2400 2772 
Q 2041 2772 1848 2508 
Q 1656 2244 1656 1747 
Q 1656 1250 1848 986 
Q 2041 722 2400 722 
z
M 1656 2988 
Q 1888 3294 2169 3439 
Q 2450 3584 2816 3584 
Q 3463 3584 3878 3070 
Q 4294 2556 4294 1747 
Q 4294 938 3878 423 
Q 3463 -91 2816 -91 
Q 2450 -91 2169 54 
Q 1888 200 1656 506 
L 1656 0 
L 538 0 
L 538 4863 
L 1656 4863 
L 1656 2988 
z
" transform="scale(0.015625)"/>
      <path id="DejaVuSans-Bold-79" d="M 78 3500 
L 1197 3500 
L 2138 1125 
L 2938 3500 
L 4056 3500 
L 2584 -331 
Q 2363 -916 2067 -1148 
Q 1772 -1381 1288 -1381 
L 641 -1381 
L 641 -647 
L 991 -647 
Q 1275 -647 1404 -556 
Q 1534 -466 1606 -231 
L 1638 -134 
L 78 3500 
z
" transform="scale(0.015625)"/>
      <path id="DejaVuSans-Bold-67" d="M 2919 594 
Q 2688 288 2409 144 
Q 2131 0 1766 0 
Q 1125 0 706 504 
Q 288 1009 288 1791 
Q 288 2575 706 3076 
Q 1125 3578 1766 3578 
Q 2131 3578 2409 3434 
Q 2688 3291 2919 2981 
L 2919 3500 
L 4044 3500 
L 4044 353 
Q 4044 -491 3511 -936 
Q 2978 -1381 1966 -1381 
Q 1638 -1381 1331 -1331 
Q 1025 -1281 716 -1178 
L 716 -306 
Q 1009 -475 1290 -558 
Q 1572 -641 1856 -641 
Q 2406 -641 2662 -400 
Q 2919 -159 2919 353 
L 2919 594 
z
M 2181 2772 
Q 1834 2772 1640 2515 
Q 1447 2259 1447 1791 
Q 1447 1309 1634 1061 
Q 1822 813 2181 813 
Q 2531 813 2725 1069 
Q 2919 1325 2919 1791 
Q 2919 2259 2725 2515 
Q 2531 2772 2181 2772 
z
" transform="scale(0.015625)"/>
      <path id="DejaVuSans-Bold-72" d="M 3138 2547 
Q 2991 2616 2845 2648 
Q 2700 2681 2553 2681 
Q 2122 2681 1889 2404 
Q 1656 2128 1656 1613 
L 1656 0 
L 538 0 
L 538 3500 
L 1656 3500 
L 1656 2925 
Q 1872 3269 2151 3426 
Q 2431 3584 2822 3584 
Q 2878 3584 2943 3579 
Q 3009 3575 3134 3559 
L 3138 2547 
z
" transform="scale(0.015625)"/>
      <path id="DejaVuSans-Bold-6f" d="M 2203 2784 
Q 1831 2784 1636 2517 
Q 1441 2250 1441 1747 
Q 1441 1244 1636 976 
Q 1831 709 2203 709 
Q 2569 709 2762 976 
Q 2956 1244 2956 1747 
Q 2956 2250 2762 2517 
Q 2569 2784 2203 2784 
z
M 2203 3584 
Q 3106 3584 3614 3096 
Q 4122 2609 4122 1747 
Q 4122 884 3614 396 
Q 3106 -91 2203 -91 
Q 1297 -91 786 396 
Q 275 884 275 1747 
Q 275 2609 786 3096 
Q 1297 3584 2203 3584 
z
" transform="scale(0.015625)"/>
      <path id="DejaVuSans-Bold-75" d="M 500 1363 
L 500 3500 
L 1625 3500 
L 1625 3150 
Q 1625 2866 1622 2436 
Q 1619 2006 1619 1863 
Q 1619 1441 1641 1255 
Q 1663 1069 1716 984 
Q 1784 875 1895 815 
Q 2006 756 2150 756 
Q 2500 756 2700 1025 
Q 2900 1294 2900 1772 
L 2900 3500 
L 4019 3500 
L 4019 0 
L 2900 0 
L 2900 506 
Q 2647 200 2364 54 
Q 2081 -91 1741 -91 
Q 1134 -91 817 281 
Q 500 653 500 1363 
z
" transform="scale(0.015625)"/>
      <path id="DejaVuSans-Bold-70" d="M 1656 506 
L 1656 -1331 
L 538 -1331 
L 538 3500 
L 1656 3500 
L 1656 2988 
Q 1888 3294 2169 3439 
Q 2450 3584 2816 3584 
Q 3463 3584 3878 3070 
Q 4294 2556 4294 1747 
Q 4294 938 3878 423 
Q 3463 -91 2816 -91 
Q 2450 -91 2169 54 
Q 1888 200 1656 506 
z
M 2400 2772 
Q 2041 2772 1848 2508 
Q 1656 2244 1656 1747 
Q 1656 1250 1848 986 
Q 2041 722 2400 722 
Q 2759 722 2948 984 
Q 3138 1247 3138 1747 
Q 3138 2247 2948 2509 
Q 2759 2772 2400 2772 
z
" transform="scale(0.015625)"/>
     </defs>
     <use xlink:href="#DejaVuSans-Bold-4e"/>
     <use xlink:href="#DejaVuSans-Bold-65" x="83.691406"/>
     <use xlink:href="#DejaVuSans-Bold-77" x="151.513672"/>
     <use xlink:href="#DejaVuSans-Bold-20" x="243.896484"/>
     <use xlink:href="#DejaVuSans-Bold-63" x="278.710938"/>
     <use xlink:href="#DejaVuSans-Bold-61" x="337.988281"/>
     <use xlink:href="#DejaVuSans-Bold-73" x="405.46875"/>
     <use xlink:href="#DejaVuSans-Bold-65" x="464.990234"/>
     <use xlink:href="#DejaVuSans-Bold-73" x="532.8125"/>
     <use xlink:href="#DejaVuSans-Bold-20" x="592.333984"/>
     <use xlink:href="#DejaVuSans-Bold-62" x="627.148438"/>
     <use xlink:href="#DejaVuSans-Bold-79" x="698.730469"/>
     <use xlink:href="#DejaVuSans-Bold-20" x="763.916016"/>
     <use xlink:href="#DejaVuSans-Bold-61" x="798.730469"/>
     <use xlink:href="#DejaVuSans-Bold-67" x="866.210938"/>
     <use xlink:href="#DejaVuSans-Bold-65" x="937.792969"/>
     <use xlink:href="#DejaVuSans-Bold-20" x="1005.615234"/>
     <use xlink:href="#DejaVuSans-Bold-67" x="1040.429688"/>
     <use xlink:href="#DejaVuSans-Bold-72" x="1112.011719"/>
     <use xlink:href="#DejaVuSans-Bold-6f" x="1161.328125"/>
     <use xlink:href="#DejaVuSans-Bold-75" x="1230.029297"/>
     <use xlink:href="#DejaVuSans-Bold-70" x="1301.220703"/>
    </g>
   </g>
   <g id="legend_1">
    <g id="patch_16">
     <path d="M 53.81 183.231562 
L 120.973594 183.231562 
Q 123.173594 183.231562 123.173594 181.031563 
L 123.173594 36.818125 
Q 123.173594 34.618125 120.973594 34.618125 
L 53.81 34.618125 
Q 51.61 34.618125 51.61 36.818125 
L 51.61 181.031563 
Q 51.61 183.231562 53.81 183.231562 
z
" style="fill: #ffffff; opacity: 0.8; stroke: #cccccc; stroke-linejoin: miter"/>
    </g>
    <g id="line2d_134">
     <path d="M 56.01 43.526406 
L 67.01 43.526406 
L 78.01 43.526406 
" style="fill: none; stroke: #a6cee3; stroke-width: 1.5; stroke-linecap: round"/>
    </g>
    <g id="text_39">
     <!-- 0-19 -->
     <g style="fill: #262626" transform="translate(86.81 47.376406)scale(0.11 -0.11)">
      <use xlink:href="#DejaVuSans-30"/>
      <use xlink:href="#DejaVuSans-2d" x="63.623047"/>
      <use xlink:href="#DejaVuSans-31" x="99.707031"/>
      <use xlink:href="#DejaVuSans-39" x="163.330078"/>
     </g>
    </g>
    <g id="line2d_135">
     <path d="M 56.01 59.672344 
L 67.01 59.672344 
L 78.01 59.672344 
" style="fill: none; stroke: #1f78b4; stroke-width: 1.5; stroke-linecap: round"/>
    </g>
    <g id="text_40">
     <!-- 20-29 -->
     <g style="fill: #262626" transform="translate(86.81 63.522344)scale(0.11 -0.11)">
      <use xlink:href="#DejaVuSans-32"/>
      <use xlink:href="#DejaVuSans-30" x="63.623047"/>
      <use xlink:href="#DejaVuSans-2d" x="127.246094"/>
      <use xlink:href="#DejaVuSans-32" x="163.330078"/>
      <use xlink:href="#DejaVuSans-39" x="226.953125"/>
     </g>
    </g>
    <g id="line2d_136">
     <path d="M 56.01 75.818281 
L 67.01 75.818281 
L 78.01 75.818281 
" style="fill: none; stroke: #b2df8a; stroke-width: 1.5; stroke-linecap: round"/>
    </g>
    <g id="text_41">
     <!-- 30-39 -->
     <g style="fill: #262626" transform="translate(86.81 79.668281)scale(0.11 -0.11)">
      <use xlink:href="#DejaVuSans-33"/>
      <use xlink:href="#DejaVuSans-30" x="63.623047"/>
      <use xlink:href="#DejaVuSans-2d" x="127.246094"/>
      <use xlink:href="#DejaVuSans-33" x="163.330078"/>
      <use xlink:href="#DejaVuSans-39" x="226.953125"/>
     </g>
    </g>
    <g id="line2d_137">
     <path d="M 56.01 91.964219 
L 67.01 91.964219 
L 78.01 91.964219 
" style="fill: none; stroke: #33a02c; stroke-width: 1.5; stroke-linecap: round"/>
    </g>
    <g id="text_42">
     <!-- 40-49 -->
     <g style="fill: #262626" transform="translate(86.81 95.814219)scale(0.11 -0.11)">
      <use xlink:href="#DejaVuSans-34"/>
      <use xlink:href="#DejaVuSans-30" x="63.623047"/>
      <use xlink:href="#DejaVuSans-2d" x="127.246094"/>
      <use xlink:href="#DejaVuSans-34" x="163.330078"/>
      <use xlink:href="#DejaVuSans-39" x="226.953125"/>
     </g>
    </g>
    <g id="line2d_138">
     <path d="M 56.01 108.110156 
L 67.01 108.110156 
L 78.01 108.110156 
" style="fill: none; stroke: #fb9a99; stroke-width: 1.5; stroke-linecap: round"/>
    </g>
    <g id="text_43">
     <!-- 50-59 -->
     <g style="fill: #262626" transform="translate(86.81 111.960156)scale(0.11 -0.11)">
      <use xlink:href="#DejaVuSans-35"/>
      <use xlink:href="#DejaVuSans-30" x="63.623047"/>
      <use xlink:href="#DejaVuSans-2d" x="127.246094"/>
      <use xlink:href="#DejaVuSans-35" x="163.330078"/>
      <use xlink:href="#DejaVuSans-39" x="226.953125"/>
     </g>
    </g>
    <g id="line2d_139">
     <path d="M 56.01 124.256094 
L 67.01 124.256094 
L 78.01 124.256094 
" style="fill: none; stroke: #e31a1c; stroke-width: 1.5; stroke-linecap: round"/>
    </g>
    <g id="text_44">
     <!-- 60-69 -->
     <g style="fill: #262626" transform="translate(86.81 128.106094)scale(0.11 -0.11)">
      <use xlink:href="#DejaVuSans-36"/>
      <use xlink:href="#DejaVuSans-30" x="63.623047"/>
      <use xlink:href="#DejaVuSans-2d" x="127.246094"/>
      <use xlink:href="#DejaVuSans-36" x="163.330078"/>
      <use xlink:href="#DejaVuSans-39" x="226.953125"/>
     </g>
    </g>
    <g id="line2d_140">
     <path d="M 56.01 140.402031 
L 67.01 140.402031 
L 78.01 140.402031 
" style="fill: none; stroke: #fdbf6f; stroke-width: 1.5; stroke-linecap: round"/>
    </g>
    <g id="text_45">
     <!-- 70-79 -->
     <g style="fill: #262626" transform="translate(86.81 144.252031)scale(0.11 -0.11)">
      <use xlink:href="#DejaVuSans-37"/>
      <use xlink:href="#DejaVuSans-30" x="63.623047"/>
      <use xlink:href="#DejaVuSans-2d" x="127.246094"/>
      <use xlink:href="#DejaVuSans-37" x="163.330078"/>
      <use xlink:href="#DejaVuSans-39" x="226.953125"/>
     </g>
    </g>
    <g id="line2d_141">
     <path d="M 56.01 156.547969 
L 67.01 156.547969 
L 78.01 156.547969 
" style="fill: none; stroke: #ff7f00; stroke-width: 1.5; stroke-linecap: round"/>
    </g>
    <g id="text_46">
     <!-- 80-89 -->
     <g style="fill: #262626" transform="translate(86.81 160.397969)scale(0.11 -0.11)">
      <use xlink:href="#DejaVuSans-38"/>
      <use xlink:href="#DejaVuSans-30" x="63.623047"/>
      <use xlink:href="#DejaVuSans-2d" x="127.246094"/>
      <use xlink:href="#DejaVuSans-38" x="163.330078"/>
      <use xlink:href="#DejaVuSans-39" x="226.953125"/>
     </g>
    </g>
    <g id="line2d_142">
     <path d="M 56.01 172.693906 
L 67.01 172.693906 
L 78.01 172.693906 
" style="fill: none; stroke: #cab2d6; stroke-width: 1.5; stroke-linecap: round"/>
    </g>
    <g id="text_47">
     <!-- 90+ -->
     <g style="fill: #262626" transform="translate(86.81 176.543906)scale(0.11 -0.11)">
      <use xlink:href="#DejaVuSans-39"/>
      <use xlink:href="#DejaVuSans-30" x="63.623047"/>
      <use xlink:href="#DejaVuSans-2b" x="127.246094"/>
     </g>
    </g>
   </g>
  </g>
 </g>
 <defs>
  <clipPath id="p73c982c29b">
   <rect x="46.11" y="29.118125" width="719.382734" height="445.301175"/>
  </clipPath>
 </defs>
</svg>
