<?xml version="1.0" encoding="utf-8" standalone="no"?>
<!DOCTYPE svg PUBLIC "-//W3C//DTD SVG 1.1//EN"
  "http://www.w3.org/Graphics/SVG/1.1/DTD/svg11.dtd">
<svg height="569.390558pt" version="1.1" viewBox="0 0 849.17045 569.390558" width="849.17045pt" xmlns="http://www.w3.org/2000/svg" xmlns:xlink="http://www.w3.org/1999/xlink">
 <metadata>
  <rdf:RDF xmlns:cc="http://creativecommons.org/ns#" xmlns:dc="http://purl.org/dc/elements/1.1/" xmlns:rdf="http://www.w3.org/1999/02/22-rdf-syntax-ns#">
   <cc:Work>
    <dc:type rdf:resource="http://purl.org/dc/dcmitype/StillImage"/>
    <dc:date>2021-10-24T01:03:11.646765</dc:date>
    <dc:format>image/svg+xml</dc:format>
    <dc:creator>
     <cc:Agent>
      <dc:title>Matplotlib v3.4.3, https://matplotlib.org/</dc:title>
     </cc:Agent>
    </dc:creator>
   </cc:Work>
  </rdf:RDF>
 </metadata>
 <defs>
  <style type="text/css">*{stroke-linecap:butt;stroke-linejoin:round;}</style>
 </defs>
 <g id="figure_1">
  <g id="patch_1">
   <path d="M 0 569.390558 
L 849.17045 569.390558 
L 849.17045 0 
L 0 0 
z
" style="fill:none;"/>
  </g>
  <g id="axes_1">
   <g id="patch_2">
    <path d="M 53.10875 496.042403 
L 849.17045 496.042403 
L 849.17045 29.118125 
L 53.10875 29.118125 
z
" style="fill:none;"/>
   </g>
   <g id="matplotlib.axis_1">
    <g id="xtick_1">
     <g id="line2d_1">
      <path clip-path="url(#p4a979b5873)" d="M 89.293373 496.042403 
L 89.293373 29.118125 
" style="fill:none;stroke:#cccccc;stroke-linecap:round;"/>
     </g>
     <g id="line2d_2">
      <defs>
       <path d="M 0 0 
L 0 6 
" id="mc5c45771df" style="stroke:#262626;stroke-width:1.25;"/>
      </defs>
      <g>
       <use style="fill:#262626;stroke:#262626;stroke-width:1.25;" x="89.293373" xlink:href="#mc5c45771df" y="496.042403"/>
      </g>
     </g>
     <g id="text_1">
      <!-- 07.03 (10) -->
      <g style="fill:#262626;" transform="translate(46.969165 552.159191)rotate(-45)scale(0.11 -0.11)">
       <defs>
        <path d="M 2034 4250 
Q 1547 4250 1301 3770 
Q 1056 3291 1056 2328 
Q 1056 1369 1301 889 
Q 1547 409 2034 409 
Q 2525 409 2770 889 
Q 3016 1369 3016 2328 
Q 3016 3291 2770 3770 
Q 2525 4250 2034 4250 
z
M 2034 4750 
Q 2819 4750 3233 4129 
Q 3647 3509 3647 2328 
Q 3647 1150 3233 529 
Q 2819 -91 2034 -91 
Q 1250 -91 836 529 
Q 422 1150 422 2328 
Q 422 3509 836 4129 
Q 1250 4750 2034 4750 
z
" id="DejaVuSans-30" transform="scale(0.015625)"/>
        <path d="M 525 4666 
L 3525 4666 
L 3525 4397 
L 1831 0 
L 1172 0 
L 2766 4134 
L 525 4134 
L 525 4666 
z
" id="DejaVuSans-37" transform="scale(0.015625)"/>
        <path d="M 684 794 
L 1344 794 
L 1344 0 
L 684 0 
L 684 794 
z
" id="DejaVuSans-2e" transform="scale(0.015625)"/>
        <path d="M 2597 2516 
Q 3050 2419 3304 2112 
Q 3559 1806 3559 1356 
Q 3559 666 3084 287 
Q 2609 -91 1734 -91 
Q 1441 -91 1130 -33 
Q 819 25 488 141 
L 488 750 
Q 750 597 1062 519 
Q 1375 441 1716 441 
Q 2309 441 2620 675 
Q 2931 909 2931 1356 
Q 2931 1769 2642 2001 
Q 2353 2234 1838 2234 
L 1294 2234 
L 1294 2753 
L 1863 2753 
Q 2328 2753 2575 2939 
Q 2822 3125 2822 3475 
Q 2822 3834 2567 4026 
Q 2313 4219 1838 4219 
Q 1578 4219 1281 4162 
Q 984 4106 628 3988 
L 628 4550 
Q 988 4650 1302 4700 
Q 1616 4750 1894 4750 
Q 2613 4750 3031 4423 
Q 3450 4097 3450 3541 
Q 3450 3153 3228 2886 
Q 3006 2619 2597 2516 
z
" id="DejaVuSans-33" transform="scale(0.015625)"/>
        <path id="DejaVuSans-20" transform="scale(0.015625)"/>
        <path d="M 1984 4856 
Q 1566 4138 1362 3434 
Q 1159 2731 1159 2009 
Q 1159 1288 1364 580 
Q 1569 -128 1984 -844 
L 1484 -844 
Q 1016 -109 783 600 
Q 550 1309 550 2009 
Q 550 2706 781 3412 
Q 1013 4119 1484 4856 
L 1984 4856 
z
" id="DejaVuSans-28" transform="scale(0.015625)"/>
        <path d="M 794 531 
L 1825 531 
L 1825 4091 
L 703 3866 
L 703 4441 
L 1819 4666 
L 2450 4666 
L 2450 531 
L 3481 531 
L 3481 0 
L 794 0 
L 794 531 
z
" id="DejaVuSans-31" transform="scale(0.015625)"/>
        <path d="M 513 4856 
L 1013 4856 
Q 1481 4119 1714 3412 
Q 1947 2706 1947 2009 
Q 1947 1309 1714 600 
Q 1481 -109 1013 -844 
L 513 -844 
Q 928 -128 1133 580 
Q 1338 1288 1338 2009 
Q 1338 2731 1133 3434 
Q 928 4138 513 4856 
z
" id="DejaVuSans-29" transform="scale(0.015625)"/>
       </defs>
       <use xlink:href="#DejaVuSans-30"/>
       <use x="63.623047" xlink:href="#DejaVuSans-37"/>
       <use x="127.246094" xlink:href="#DejaVuSans-2e"/>
       <use x="159.033203" xlink:href="#DejaVuSans-30"/>
       <use x="222.65625" xlink:href="#DejaVuSans-33"/>
       <use x="286.279297" xlink:href="#DejaVuSans-20"/>
       <use x="318.066406" xlink:href="#DejaVuSans-28"/>
       <use x="357.080078" xlink:href="#DejaVuSans-31"/>
       <use x="420.703125" xlink:href="#DejaVuSans-30"/>
       <use x="484.326172" xlink:href="#DejaVuSans-29"/>
      </g>
     </g>
    </g>
    <g id="xtick_2">
     <g id="line2d_3">
      <path clip-path="url(#p4a979b5873)" d="M 123.349488 496.042403 
L 123.349488 29.118125 
" style="fill:none;stroke:#cccccc;stroke-linecap:round;"/>
     </g>
     <g id="line2d_4">
      <g>
       <use style="fill:#262626;stroke:#262626;stroke-width:1.25;" x="123.349488" xlink:href="#mc5c45771df" y="496.042403"/>
      </g>
     </g>
     <g id="text_2">
      <!-- 04.04 (14) -->
      <g style="fill:#262626;" transform="translate(81.02528 552.159191)rotate(-45)scale(0.11 -0.11)">
       <defs>
        <path d="M 2419 4116 
L 825 1625 
L 2419 1625 
L 2419 4116 
z
M 2253 4666 
L 3047 4666 
L 3047 1625 
L 3713 1625 
L 3713 1100 
L 3047 1100 
L 3047 0 
L 2419 0 
L 2419 1100 
L 313 1100 
L 313 1709 
L 2253 4666 
z
" id="DejaVuSans-34" transform="scale(0.015625)"/>
       </defs>
       <use xlink:href="#DejaVuSans-30"/>
       <use x="63.623047" xlink:href="#DejaVuSans-34"/>
       <use x="127.246094" xlink:href="#DejaVuSans-2e"/>
       <use x="159.033203" xlink:href="#DejaVuSans-30"/>
       <use x="222.65625" xlink:href="#DejaVuSans-34"/>
       <use x="286.279297" xlink:href="#DejaVuSans-20"/>
       <use x="318.066406" xlink:href="#DejaVuSans-28"/>
       <use x="357.080078" xlink:href="#DejaVuSans-31"/>
       <use x="420.703125" xlink:href="#DejaVuSans-34"/>
       <use x="484.326172" xlink:href="#DejaVuSans-29"/>
      </g>
     </g>
    </g>
    <g id="xtick_3">
     <g id="line2d_5">
      <path clip-path="url(#p4a979b5873)" d="M 157.405604 496.042403 
L 157.405604 29.118125 
" style="fill:none;stroke:#cccccc;stroke-linecap:round;"/>
     </g>
     <g id="line2d_6">
      <g>
       <use style="fill:#262626;stroke:#262626;stroke-width:1.25;" x="157.405604" xlink:href="#mc5c45771df" y="496.042403"/>
      </g>
     </g>
     <g id="text_3">
      <!-- 02.05 (18) -->
      <g style="fill:#262626;" transform="translate(115.081396 552.159191)rotate(-45)scale(0.11 -0.11)">
       <defs>
        <path d="M 1228 531 
L 3431 531 
L 3431 0 
L 469 0 
L 469 531 
Q 828 903 1448 1529 
Q 2069 2156 2228 2338 
Q 2531 2678 2651 2914 
Q 2772 3150 2772 3378 
Q 2772 3750 2511 3984 
Q 2250 4219 1831 4219 
Q 1534 4219 1204 4116 
Q 875 4013 500 3803 
L 500 4441 
Q 881 4594 1212 4672 
Q 1544 4750 1819 4750 
Q 2544 4750 2975 4387 
Q 3406 4025 3406 3419 
Q 3406 3131 3298 2873 
Q 3191 2616 2906 2266 
Q 2828 2175 2409 1742 
Q 1991 1309 1228 531 
z
" id="DejaVuSans-32" transform="scale(0.015625)"/>
        <path d="M 691 4666 
L 3169 4666 
L 3169 4134 
L 1269 4134 
L 1269 2991 
Q 1406 3038 1543 3061 
Q 1681 3084 1819 3084 
Q 2600 3084 3056 2656 
Q 3513 2228 3513 1497 
Q 3513 744 3044 326 
Q 2575 -91 1722 -91 
Q 1428 -91 1123 -41 
Q 819 9 494 109 
L 494 744 
Q 775 591 1075 516 
Q 1375 441 1709 441 
Q 2250 441 2565 725 
Q 2881 1009 2881 1497 
Q 2881 1984 2565 2268 
Q 2250 2553 1709 2553 
Q 1456 2553 1204 2497 
Q 953 2441 691 2322 
L 691 4666 
z
" id="DejaVuSans-35" transform="scale(0.015625)"/>
        <path d="M 2034 2216 
Q 1584 2216 1326 1975 
Q 1069 1734 1069 1313 
Q 1069 891 1326 650 
Q 1584 409 2034 409 
Q 2484 409 2743 651 
Q 3003 894 3003 1313 
Q 3003 1734 2745 1975 
Q 2488 2216 2034 2216 
z
M 1403 2484 
Q 997 2584 770 2862 
Q 544 3141 544 3541 
Q 544 4100 942 4425 
Q 1341 4750 2034 4750 
Q 2731 4750 3128 4425 
Q 3525 4100 3525 3541 
Q 3525 3141 3298 2862 
Q 3072 2584 2669 2484 
Q 3125 2378 3379 2068 
Q 3634 1759 3634 1313 
Q 3634 634 3220 271 
Q 2806 -91 2034 -91 
Q 1263 -91 848 271 
Q 434 634 434 1313 
Q 434 1759 690 2068 
Q 947 2378 1403 2484 
z
M 1172 3481 
Q 1172 3119 1398 2916 
Q 1625 2713 2034 2713 
Q 2441 2713 2670 2916 
Q 2900 3119 2900 3481 
Q 2900 3844 2670 4047 
Q 2441 4250 2034 4250 
Q 1625 4250 1398 4047 
Q 1172 3844 1172 3481 
z
" id="DejaVuSans-38" transform="scale(0.015625)"/>
       </defs>
       <use xlink:href="#DejaVuSans-30"/>
       <use x="63.623047" xlink:href="#DejaVuSans-32"/>
       <use x="127.246094" xlink:href="#DejaVuSans-2e"/>
       <use x="159.033203" xlink:href="#DejaVuSans-30"/>
       <use x="222.65625" xlink:href="#DejaVuSans-35"/>
       <use x="286.279297" xlink:href="#DejaVuSans-20"/>
       <use x="318.066406" xlink:href="#DejaVuSans-28"/>
       <use x="357.080078" xlink:href="#DejaVuSans-31"/>
       <use x="420.703125" xlink:href="#DejaVuSans-38"/>
       <use x="484.326172" xlink:href="#DejaVuSans-29"/>
      </g>
     </g>
    </g>
    <g id="xtick_4">
     <g id="line2d_7">
      <path clip-path="url(#p4a979b5873)" d="M 191.461719 496.042403 
L 191.461719 29.118125 
" style="fill:none;stroke:#cccccc;stroke-linecap:round;"/>
     </g>
     <g id="line2d_8">
      <g>
       <use style="fill:#262626;stroke:#262626;stroke-width:1.25;" x="191.461719" xlink:href="#mc5c45771df" y="496.042403"/>
      </g>
     </g>
     <g id="text_4">
      <!-- 30.05 (22) -->
      <g style="fill:#262626;" transform="translate(149.137511 552.159191)rotate(-45)scale(0.11 -0.11)">
       <use xlink:href="#DejaVuSans-33"/>
       <use x="63.623047" xlink:href="#DejaVuSans-30"/>
       <use x="127.246094" xlink:href="#DejaVuSans-2e"/>
       <use x="159.033203" xlink:href="#DejaVuSans-30"/>
       <use x="222.65625" xlink:href="#DejaVuSans-35"/>
       <use x="286.279297" xlink:href="#DejaVuSans-20"/>
       <use x="318.066406" xlink:href="#DejaVuSans-28"/>
       <use x="357.080078" xlink:href="#DejaVuSans-32"/>
       <use x="420.703125" xlink:href="#DejaVuSans-32"/>
       <use x="484.326172" xlink:href="#DejaVuSans-29"/>
      </g>
     </g>
    </g>
    <g id="xtick_5">
     <g id="line2d_9">
      <path clip-path="url(#p4a979b5873)" d="M 225.517835 496.042403 
L 225.517835 29.118125 
" style="fill:none;stroke:#cccccc;stroke-linecap:round;"/>
     </g>
     <g id="line2d_10">
      <g>
       <use style="fill:#262626;stroke:#262626;stroke-width:1.25;" x="225.517835" xlink:href="#mc5c45771df" y="496.042403"/>
      </g>
     </g>
     <g id="text_5">
      <!-- 27.06 (26) -->
      <g style="fill:#262626;" transform="translate(183.193627 552.159191)rotate(-45)scale(0.11 -0.11)">
       <defs>
        <path d="M 2113 2584 
Q 1688 2584 1439 2293 
Q 1191 2003 1191 1497 
Q 1191 994 1439 701 
Q 1688 409 2113 409 
Q 2538 409 2786 701 
Q 3034 994 3034 1497 
Q 3034 2003 2786 2293 
Q 2538 2584 2113 2584 
z
M 3366 4563 
L 3366 3988 
Q 3128 4100 2886 4159 
Q 2644 4219 2406 4219 
Q 1781 4219 1451 3797 
Q 1122 3375 1075 2522 
Q 1259 2794 1537 2939 
Q 1816 3084 2150 3084 
Q 2853 3084 3261 2657 
Q 3669 2231 3669 1497 
Q 3669 778 3244 343 
Q 2819 -91 2113 -91 
Q 1303 -91 875 529 
Q 447 1150 447 2328 
Q 447 3434 972 4092 
Q 1497 4750 2381 4750 
Q 2619 4750 2861 4703 
Q 3103 4656 3366 4563 
z
" id="DejaVuSans-36" transform="scale(0.015625)"/>
       </defs>
       <use xlink:href="#DejaVuSans-32"/>
       <use x="63.623047" xlink:href="#DejaVuSans-37"/>
       <use x="127.246094" xlink:href="#DejaVuSans-2e"/>
       <use x="159.033203" xlink:href="#DejaVuSans-30"/>
       <use x="222.65625" xlink:href="#DejaVuSans-36"/>
       <use x="286.279297" xlink:href="#DejaVuSans-20"/>
       <use x="318.066406" xlink:href="#DejaVuSans-28"/>
       <use x="357.080078" xlink:href="#DejaVuSans-32"/>
       <use x="420.703125" xlink:href="#DejaVuSans-36"/>
       <use x="484.326172" xlink:href="#DejaVuSans-29"/>
      </g>
     </g>
    </g>
    <g id="xtick_6">
     <g id="line2d_11">
      <path clip-path="url(#p4a979b5873)" d="M 259.57395 496.042403 
L 259.57395 29.118125 
" style="fill:none;stroke:#cccccc;stroke-linecap:round;"/>
     </g>
     <g id="line2d_12">
      <g>
       <use style="fill:#262626;stroke:#262626;stroke-width:1.25;" x="259.57395" xlink:href="#mc5c45771df" y="496.042403"/>
      </g>
     </g>
     <g id="text_6">
      <!-- 25.07 (30) -->
      <g style="fill:#262626;" transform="translate(217.249742 552.159191)rotate(-45)scale(0.11 -0.11)">
       <use xlink:href="#DejaVuSans-32"/>
       <use x="63.623047" xlink:href="#DejaVuSans-35"/>
       <use x="127.246094" xlink:href="#DejaVuSans-2e"/>
       <use x="159.033203" xlink:href="#DejaVuSans-30"/>
       <use x="222.65625" xlink:href="#DejaVuSans-37"/>
       <use x="286.279297" xlink:href="#DejaVuSans-20"/>
       <use x="318.066406" xlink:href="#DejaVuSans-28"/>
       <use x="357.080078" xlink:href="#DejaVuSans-33"/>
       <use x="420.703125" xlink:href="#DejaVuSans-30"/>
       <use x="484.326172" xlink:href="#DejaVuSans-29"/>
      </g>
     </g>
    </g>
    <g id="xtick_7">
     <g id="line2d_13">
      <path clip-path="url(#p4a979b5873)" d="M 293.630066 496.042403 
L 293.630066 29.118125 
" style="fill:none;stroke:#cccccc;stroke-linecap:round;"/>
     </g>
     <g id="line2d_14">
      <g>
       <use style="fill:#262626;stroke:#262626;stroke-width:1.25;" x="293.630066" xlink:href="#mc5c45771df" y="496.042403"/>
      </g>
     </g>
     <g id="text_7">
      <!-- 22.08 (34) -->
      <g style="fill:#262626;" transform="translate(251.305858 552.159191)rotate(-45)scale(0.11 -0.11)">
       <use xlink:href="#DejaVuSans-32"/>
       <use x="63.623047" xlink:href="#DejaVuSans-32"/>
       <use x="127.246094" xlink:href="#DejaVuSans-2e"/>
       <use x="159.033203" xlink:href="#DejaVuSans-30"/>
       <use x="222.65625" xlink:href="#DejaVuSans-38"/>
       <use x="286.279297" xlink:href="#DejaVuSans-20"/>
       <use x="318.066406" xlink:href="#DejaVuSans-28"/>
       <use x="357.080078" xlink:href="#DejaVuSans-33"/>
       <use x="420.703125" xlink:href="#DejaVuSans-34"/>
       <use x="484.326172" xlink:href="#DejaVuSans-29"/>
      </g>
     </g>
    </g>
    <g id="xtick_8">
     <g id="line2d_15">
      <path clip-path="url(#p4a979b5873)" d="M 327.686181 496.042403 
L 327.686181 29.118125 
" style="fill:none;stroke:#cccccc;stroke-linecap:round;"/>
     </g>
     <g id="line2d_16">
      <g>
       <use style="fill:#262626;stroke:#262626;stroke-width:1.25;" x="327.686181" xlink:href="#mc5c45771df" y="496.042403"/>
      </g>
     </g>
     <g id="text_8">
      <!-- 19.09 (38) -->
      <g style="fill:#262626;" transform="translate(285.361973 552.159191)rotate(-45)scale(0.11 -0.11)">
       <defs>
        <path d="M 703 97 
L 703 672 
Q 941 559 1184 500 
Q 1428 441 1663 441 
Q 2288 441 2617 861 
Q 2947 1281 2994 2138 
Q 2813 1869 2534 1725 
Q 2256 1581 1919 1581 
Q 1219 1581 811 2004 
Q 403 2428 403 3163 
Q 403 3881 828 4315 
Q 1253 4750 1959 4750 
Q 2769 4750 3195 4129 
Q 3622 3509 3622 2328 
Q 3622 1225 3098 567 
Q 2575 -91 1691 -91 
Q 1453 -91 1209 -44 
Q 966 3 703 97 
z
M 1959 2075 
Q 2384 2075 2632 2365 
Q 2881 2656 2881 3163 
Q 2881 3666 2632 3958 
Q 2384 4250 1959 4250 
Q 1534 4250 1286 3958 
Q 1038 3666 1038 3163 
Q 1038 2656 1286 2365 
Q 1534 2075 1959 2075 
z
" id="DejaVuSans-39" transform="scale(0.015625)"/>
       </defs>
       <use xlink:href="#DejaVuSans-31"/>
       <use x="63.623047" xlink:href="#DejaVuSans-39"/>
       <use x="127.246094" xlink:href="#DejaVuSans-2e"/>
       <use x="159.033203" xlink:href="#DejaVuSans-30"/>
       <use x="222.65625" xlink:href="#DejaVuSans-39"/>
       <use x="286.279297" xlink:href="#DejaVuSans-20"/>
       <use x="318.066406" xlink:href="#DejaVuSans-28"/>
       <use x="357.080078" xlink:href="#DejaVuSans-33"/>
       <use x="420.703125" xlink:href="#DejaVuSans-38"/>
       <use x="484.326172" xlink:href="#DejaVuSans-29"/>
      </g>
     </g>
    </g>
    <g id="xtick_9">
     <g id="line2d_17">
      <path clip-path="url(#p4a979b5873)" d="M 361.742297 496.042403 
L 361.742297 29.118125 
" style="fill:none;stroke:#cccccc;stroke-linecap:round;"/>
     </g>
     <g id="line2d_18">
      <g>
       <use style="fill:#262626;stroke:#262626;stroke-width:1.25;" x="361.742297" xlink:href="#mc5c45771df" y="496.042403"/>
      </g>
     </g>
     <g id="text_9">
      <!-- 17.10 (42) -->
      <g style="fill:#262626;" transform="translate(319.418089 552.159191)rotate(-45)scale(0.11 -0.11)">
       <use xlink:href="#DejaVuSans-31"/>
       <use x="63.623047" xlink:href="#DejaVuSans-37"/>
       <use x="127.246094" xlink:href="#DejaVuSans-2e"/>
       <use x="159.033203" xlink:href="#DejaVuSans-31"/>
       <use x="222.65625" xlink:href="#DejaVuSans-30"/>
       <use x="286.279297" xlink:href="#DejaVuSans-20"/>
       <use x="318.066406" xlink:href="#DejaVuSans-28"/>
       <use x="357.080078" xlink:href="#DejaVuSans-34"/>
       <use x="420.703125" xlink:href="#DejaVuSans-32"/>
       <use x="484.326172" xlink:href="#DejaVuSans-29"/>
      </g>
     </g>
    </g>
    <g id="xtick_10">
     <g id="line2d_19">
      <path clip-path="url(#p4a979b5873)" d="M 395.798412 496.042403 
L 395.798412 29.118125 
" style="fill:none;stroke:#cccccc;stroke-linecap:round;"/>
     </g>
     <g id="line2d_20">
      <g>
       <use style="fill:#262626;stroke:#262626;stroke-width:1.25;" x="395.798412" xlink:href="#mc5c45771df" y="496.042403"/>
      </g>
     </g>
     <g id="text_10">
      <!-- 14.11 (46) -->
      <g style="fill:#262626;" transform="translate(353.474204 552.159191)rotate(-45)scale(0.11 -0.11)">
       <use xlink:href="#DejaVuSans-31"/>
       <use x="63.623047" xlink:href="#DejaVuSans-34"/>
       <use x="127.246094" xlink:href="#DejaVuSans-2e"/>
       <use x="159.033203" xlink:href="#DejaVuSans-31"/>
       <use x="222.65625" xlink:href="#DejaVuSans-31"/>
       <use x="286.279297" xlink:href="#DejaVuSans-20"/>
       <use x="318.066406" xlink:href="#DejaVuSans-28"/>
       <use x="357.080078" xlink:href="#DejaVuSans-34"/>
       <use x="420.703125" xlink:href="#DejaVuSans-36"/>
       <use x="484.326172" xlink:href="#DejaVuSans-29"/>
      </g>
     </g>
    </g>
    <g id="xtick_11">
     <g id="line2d_21">
      <path clip-path="url(#p4a979b5873)" d="M 429.854528 496.042403 
L 429.854528 29.118125 
" style="fill:none;stroke:#cccccc;stroke-linecap:round;"/>
     </g>
     <g id="line2d_22">
      <g>
       <use style="fill:#262626;stroke:#262626;stroke-width:1.25;" x="429.854528" xlink:href="#mc5c45771df" y="496.042403"/>
      </g>
     </g>
     <g id="text_11">
      <!-- 12.12 (50) -->
      <g style="fill:#262626;" transform="translate(387.53032 552.159191)rotate(-45)scale(0.11 -0.11)">
       <use xlink:href="#DejaVuSans-31"/>
       <use x="63.623047" xlink:href="#DejaVuSans-32"/>
       <use x="127.246094" xlink:href="#DejaVuSans-2e"/>
       <use x="159.033203" xlink:href="#DejaVuSans-31"/>
       <use x="222.65625" xlink:href="#DejaVuSans-32"/>
       <use x="286.279297" xlink:href="#DejaVuSans-20"/>
       <use x="318.066406" xlink:href="#DejaVuSans-28"/>
       <use x="357.080078" xlink:href="#DejaVuSans-35"/>
       <use x="420.703125" xlink:href="#DejaVuSans-30"/>
       <use x="484.326172" xlink:href="#DejaVuSans-29"/>
      </g>
     </g>
    </g>
    <g id="xtick_12">
     <g id="line2d_23">
      <path clip-path="url(#p4a979b5873)" d="M 463.910643 496.042403 
L 463.910643 29.118125 
" style="fill:none;stroke:#cccccc;stroke-linecap:round;"/>
     </g>
     <g id="line2d_24">
      <g>
       <use style="fill:#262626;stroke:#262626;stroke-width:1.25;" x="463.910643" xlink:href="#mc5c45771df" y="496.042403"/>
      </g>
     </g>
     <g id="text_12">
      <!-- 09.01 (01) -->
      <g style="fill:#262626;" transform="translate(421.586435 552.159191)rotate(-45)scale(0.11 -0.11)">
       <use xlink:href="#DejaVuSans-30"/>
       <use x="63.623047" xlink:href="#DejaVuSans-39"/>
       <use x="127.246094" xlink:href="#DejaVuSans-2e"/>
       <use x="159.033203" xlink:href="#DejaVuSans-30"/>
       <use x="222.65625" xlink:href="#DejaVuSans-31"/>
       <use x="286.279297" xlink:href="#DejaVuSans-20"/>
       <use x="318.066406" xlink:href="#DejaVuSans-28"/>
       <use x="357.080078" xlink:href="#DejaVuSans-30"/>
       <use x="420.703125" xlink:href="#DejaVuSans-31"/>
       <use x="484.326172" xlink:href="#DejaVuSans-29"/>
      </g>
     </g>
    </g>
    <g id="xtick_13">
     <g id="line2d_25">
      <path clip-path="url(#p4a979b5873)" d="M 497.966759 496.042403 
L 497.966759 29.118125 
" style="fill:none;stroke:#cccccc;stroke-linecap:round;"/>
     </g>
     <g id="line2d_26">
      <g>
       <use style="fill:#262626;stroke:#262626;stroke-width:1.25;" x="497.966759" xlink:href="#mc5c45771df" y="496.042403"/>
      </g>
     </g>
     <g id="text_13">
      <!-- 06.02 (05) -->
      <g style="fill:#262626;" transform="translate(455.642551 552.159191)rotate(-45)scale(0.11 -0.11)">
       <use xlink:href="#DejaVuSans-30"/>
       <use x="63.623047" xlink:href="#DejaVuSans-36"/>
       <use x="127.246094" xlink:href="#DejaVuSans-2e"/>
       <use x="159.033203" xlink:href="#DejaVuSans-30"/>
       <use x="222.65625" xlink:href="#DejaVuSans-32"/>
       <use x="286.279297" xlink:href="#DejaVuSans-20"/>
       <use x="318.066406" xlink:href="#DejaVuSans-28"/>
       <use x="357.080078" xlink:href="#DejaVuSans-30"/>
       <use x="420.703125" xlink:href="#DejaVuSans-35"/>
       <use x="484.326172" xlink:href="#DejaVuSans-29"/>
      </g>
     </g>
    </g>
    <g id="xtick_14">
     <g id="line2d_27">
      <path clip-path="url(#p4a979b5873)" d="M 532.022874 496.042403 
L 532.022874 29.118125 
" style="fill:none;stroke:#cccccc;stroke-linecap:round;"/>
     </g>
     <g id="line2d_28">
      <g>
       <use style="fill:#262626;stroke:#262626;stroke-width:1.25;" x="532.022874" xlink:href="#mc5c45771df" y="496.042403"/>
      </g>
     </g>
     <g id="text_14">
      <!-- 06.03 (09) -->
      <g style="fill:#262626;" transform="translate(489.698666 552.159191)rotate(-45)scale(0.11 -0.11)">
       <use xlink:href="#DejaVuSans-30"/>
       <use x="63.623047" xlink:href="#DejaVuSans-36"/>
       <use x="127.246094" xlink:href="#DejaVuSans-2e"/>
       <use x="159.033203" xlink:href="#DejaVuSans-30"/>
       <use x="222.65625" xlink:href="#DejaVuSans-33"/>
       <use x="286.279297" xlink:href="#DejaVuSans-20"/>
       <use x="318.066406" xlink:href="#DejaVuSans-28"/>
       <use x="357.080078" xlink:href="#DejaVuSans-30"/>
       <use x="420.703125" xlink:href="#DejaVuSans-39"/>
       <use x="484.326172" xlink:href="#DejaVuSans-29"/>
      </g>
     </g>
    </g>
    <g id="xtick_15">
     <g id="line2d_29">
      <path clip-path="url(#p4a979b5873)" d="M 566.07899 496.042403 
L 566.07899 29.118125 
" style="fill:none;stroke:#cccccc;stroke-linecap:round;"/>
     </g>
     <g id="line2d_30">
      <g>
       <use style="fill:#262626;stroke:#262626;stroke-width:1.25;" x="566.07899" xlink:href="#mc5c45771df" y="496.042403"/>
      </g>
     </g>
     <g id="text_15">
      <!-- 03.04 (13) -->
      <g style="fill:#262626;" transform="translate(523.754782 552.159191)rotate(-45)scale(0.11 -0.11)">
       <use xlink:href="#DejaVuSans-30"/>
       <use x="63.623047" xlink:href="#DejaVuSans-33"/>
       <use x="127.246094" xlink:href="#DejaVuSans-2e"/>
       <use x="159.033203" xlink:href="#DejaVuSans-30"/>
       <use x="222.65625" xlink:href="#DejaVuSans-34"/>
       <use x="286.279297" xlink:href="#DejaVuSans-20"/>
       <use x="318.066406" xlink:href="#DejaVuSans-28"/>
       <use x="357.080078" xlink:href="#DejaVuSans-31"/>
       <use x="420.703125" xlink:href="#DejaVuSans-33"/>
       <use x="484.326172" xlink:href="#DejaVuSans-29"/>
      </g>
     </g>
    </g>
    <g id="xtick_16">
     <g id="line2d_31">
      <path clip-path="url(#p4a979b5873)" d="M 600.135105 496.042403 
L 600.135105 29.118125 
" style="fill:none;stroke:#cccccc;stroke-linecap:round;"/>
     </g>
     <g id="line2d_32">
      <g>
       <use style="fill:#262626;stroke:#262626;stroke-width:1.25;" x="600.135105" xlink:href="#mc5c45771df" y="496.042403"/>
      </g>
     </g>
     <g id="text_16">
      <!-- 01.05 (17) -->
      <g style="fill:#262626;" transform="translate(557.810898 552.159191)rotate(-45)scale(0.11 -0.11)">
       <use xlink:href="#DejaVuSans-30"/>
       <use x="63.623047" xlink:href="#DejaVuSans-31"/>
       <use x="127.246094" xlink:href="#DejaVuSans-2e"/>
       <use x="159.033203" xlink:href="#DejaVuSans-30"/>
       <use x="222.65625" xlink:href="#DejaVuSans-35"/>
       <use x="286.279297" xlink:href="#DejaVuSans-20"/>
       <use x="318.066406" xlink:href="#DejaVuSans-28"/>
       <use x="357.080078" xlink:href="#DejaVuSans-31"/>
       <use x="420.703125" xlink:href="#DejaVuSans-37"/>
       <use x="484.326172" xlink:href="#DejaVuSans-29"/>
      </g>
     </g>
    </g>
    <g id="xtick_17">
     <g id="line2d_33">
      <path clip-path="url(#p4a979b5873)" d="M 634.191221 496.042403 
L 634.191221 29.118125 
" style="fill:none;stroke:#cccccc;stroke-linecap:round;"/>
     </g>
     <g id="line2d_34">
      <g>
       <use style="fill:#262626;stroke:#262626;stroke-width:1.25;" x="634.191221" xlink:href="#mc5c45771df" y="496.042403"/>
      </g>
     </g>
     <g id="text_17">
      <!-- 29.05 (21) -->
      <g style="fill:#262626;" transform="translate(591.867013 552.159191)rotate(-45)scale(0.11 -0.11)">
       <use xlink:href="#DejaVuSans-32"/>
       <use x="63.623047" xlink:href="#DejaVuSans-39"/>
       <use x="127.246094" xlink:href="#DejaVuSans-2e"/>
       <use x="159.033203" xlink:href="#DejaVuSans-30"/>
       <use x="222.65625" xlink:href="#DejaVuSans-35"/>
       <use x="286.279297" xlink:href="#DejaVuSans-20"/>
       <use x="318.066406" xlink:href="#DejaVuSans-28"/>
       <use x="357.080078" xlink:href="#DejaVuSans-32"/>
       <use x="420.703125" xlink:href="#DejaVuSans-31"/>
       <use x="484.326172" xlink:href="#DejaVuSans-29"/>
      </g>
     </g>
    </g>
    <g id="xtick_18">
     <g id="line2d_35">
      <path clip-path="url(#p4a979b5873)" d="M 668.247336 496.042403 
L 668.247336 29.118125 
" style="fill:none;stroke:#cccccc;stroke-linecap:round;"/>
     </g>
     <g id="line2d_36">
      <g>
       <use style="fill:#262626;stroke:#262626;stroke-width:1.25;" x="668.247336" xlink:href="#mc5c45771df" y="496.042403"/>
      </g>
     </g>
     <g id="text_18">
      <!-- 26.06 (25) -->
      <g style="fill:#262626;" transform="translate(625.923129 552.159191)rotate(-45)scale(0.11 -0.11)">
       <use xlink:href="#DejaVuSans-32"/>
       <use x="63.623047" xlink:href="#DejaVuSans-36"/>
       <use x="127.246094" xlink:href="#DejaVuSans-2e"/>
       <use x="159.033203" xlink:href="#DejaVuSans-30"/>
       <use x="222.65625" xlink:href="#DejaVuSans-36"/>
       <use x="286.279297" xlink:href="#DejaVuSans-20"/>
       <use x="318.066406" xlink:href="#DejaVuSans-28"/>
       <use x="357.080078" xlink:href="#DejaVuSans-32"/>
       <use x="420.703125" xlink:href="#DejaVuSans-35"/>
       <use x="484.326172" xlink:href="#DejaVuSans-29"/>
      </g>
     </g>
    </g>
    <g id="xtick_19">
     <g id="line2d_37">
      <path clip-path="url(#p4a979b5873)" d="M 702.303452 496.042403 
L 702.303452 29.118125 
" style="fill:none;stroke:#cccccc;stroke-linecap:round;"/>
     </g>
     <g id="line2d_38">
      <g>
       <use style="fill:#262626;stroke:#262626;stroke-width:1.25;" x="702.303452" xlink:href="#mc5c45771df" y="496.042403"/>
      </g>
     </g>
     <g id="text_19">
      <!-- 24.07 (29) -->
      <g style="fill:#262626;" transform="translate(659.979244 552.159191)rotate(-45)scale(0.11 -0.11)">
       <use xlink:href="#DejaVuSans-32"/>
       <use x="63.623047" xlink:href="#DejaVuSans-34"/>
       <use x="127.246094" xlink:href="#DejaVuSans-2e"/>
       <use x="159.033203" xlink:href="#DejaVuSans-30"/>
       <use x="222.65625" xlink:href="#DejaVuSans-37"/>
       <use x="286.279297" xlink:href="#DejaVuSans-20"/>
       <use x="318.066406" xlink:href="#DejaVuSans-28"/>
       <use x="357.080078" xlink:href="#DejaVuSans-32"/>
       <use x="420.703125" xlink:href="#DejaVuSans-39"/>
       <use x="484.326172" xlink:href="#DejaVuSans-29"/>
      </g>
     </g>
    </g>
    <g id="xtick_20">
     <g id="line2d_39">
      <path clip-path="url(#p4a979b5873)" d="M 736.359567 496.042403 
L 736.359567 29.118125 
" style="fill:none;stroke:#cccccc;stroke-linecap:round;"/>
     </g>
     <g id="line2d_40">
      <g>
       <use style="fill:#262626;stroke:#262626;stroke-width:1.25;" x="736.359567" xlink:href="#mc5c45771df" y="496.042403"/>
      </g>
     </g>
     <g id="text_20">
      <!-- 21.08 (33) -->
      <g style="fill:#262626;" transform="translate(694.03536 552.159191)rotate(-45)scale(0.11 -0.11)">
       <use xlink:href="#DejaVuSans-32"/>
       <use x="63.623047" xlink:href="#DejaVuSans-31"/>
       <use x="127.246094" xlink:href="#DejaVuSans-2e"/>
       <use x="159.033203" xlink:href="#DejaVuSans-30"/>
       <use x="222.65625" xlink:href="#DejaVuSans-38"/>
       <use x="286.279297" xlink:href="#DejaVuSans-20"/>
       <use x="318.066406" xlink:href="#DejaVuSans-28"/>
       <use x="357.080078" xlink:href="#DejaVuSans-33"/>
       <use x="420.703125" xlink:href="#DejaVuSans-33"/>
       <use x="484.326172" xlink:href="#DejaVuSans-29"/>
      </g>
     </g>
    </g>
    <g id="xtick_21">
     <g id="line2d_41">
      <path clip-path="url(#p4a979b5873)" d="M 770.415683 496.042403 
L 770.415683 29.118125 
" style="fill:none;stroke:#cccccc;stroke-linecap:round;"/>
     </g>
     <g id="line2d_42">
      <g>
       <use style="fill:#262626;stroke:#262626;stroke-width:1.25;" x="770.415683" xlink:href="#mc5c45771df" y="496.042403"/>
      </g>
     </g>
     <g id="text_21">
      <!-- 18.09 (37) -->
      <g style="fill:#262626;" transform="translate(728.091475 552.159191)rotate(-45)scale(0.11 -0.11)">
       <use xlink:href="#DejaVuSans-31"/>
       <use x="63.623047" xlink:href="#DejaVuSans-38"/>
       <use x="127.246094" xlink:href="#DejaVuSans-2e"/>
       <use x="159.033203" xlink:href="#DejaVuSans-30"/>
       <use x="222.65625" xlink:href="#DejaVuSans-39"/>
       <use x="286.279297" xlink:href="#DejaVuSans-20"/>
       <use x="318.066406" xlink:href="#DejaVuSans-28"/>
       <use x="357.080078" xlink:href="#DejaVuSans-33"/>
       <use x="420.703125" xlink:href="#DejaVuSans-37"/>
       <use x="484.326172" xlink:href="#DejaVuSans-29"/>
      </g>
     </g>
    </g>
    <g id="xtick_22">
     <g id="line2d_43">
      <path clip-path="url(#p4a979b5873)" d="M 804.471798 496.042403 
L 804.471798 29.118125 
" style="fill:none;stroke:#cccccc;stroke-linecap:round;"/>
     </g>
     <g id="line2d_44">
      <g>
       <use style="fill:#262626;stroke:#262626;stroke-width:1.25;" x="804.471798" xlink:href="#mc5c45771df" y="496.042403"/>
      </g>
     </g>
     <g id="text_22">
      <!-- 16.10 (41) -->
      <g style="fill:#262626;" transform="translate(762.147591 552.159191)rotate(-45)scale(0.11 -0.11)">
       <use xlink:href="#DejaVuSans-31"/>
       <use x="63.623047" xlink:href="#DejaVuSans-36"/>
       <use x="127.246094" xlink:href="#DejaVuSans-2e"/>
       <use x="159.033203" xlink:href="#DejaVuSans-31"/>
       <use x="222.65625" xlink:href="#DejaVuSans-30"/>
       <use x="286.279297" xlink:href="#DejaVuSans-20"/>
       <use x="318.066406" xlink:href="#DejaVuSans-28"/>
       <use x="357.080078" xlink:href="#DejaVuSans-34"/>
       <use x="420.703125" xlink:href="#DejaVuSans-31"/>
       <use x="484.326172" xlink:href="#DejaVuSans-29"/>
      </g>
     </g>
    </g>
    <g id="xtick_23">
     <g id="line2d_45">
      <defs>
       <path d="M 0 0 
L 0 4 
" id="me96d72a0b2" style="stroke:#262626;"/>
      </defs>
      <g>
       <use style="fill:#262626;stroke:#262626;" x="55.237257" xlink:href="#me96d72a0b2" y="496.042403"/>
      </g>
     </g>
    </g>
    <g id="xtick_24">
     <g id="line2d_46">
      <g>
       <use style="fill:#262626;stroke:#262626;" x="63.751286" xlink:href="#me96d72a0b2" y="496.042403"/>
      </g>
     </g>
    </g>
    <g id="xtick_25">
     <g id="line2d_47">
      <g>
       <use style="fill:#262626;stroke:#262626;" x="72.265315" xlink:href="#me96d72a0b2" y="496.042403"/>
      </g>
     </g>
    </g>
    <g id="xtick_26">
     <g id="line2d_48">
      <g>
       <use style="fill:#262626;stroke:#262626;" x="80.779344" xlink:href="#me96d72a0b2" y="496.042403"/>
      </g>
     </g>
    </g>
    <g id="xtick_27">
     <g id="line2d_49">
      <g>
       <use style="fill:#262626;stroke:#262626;" x="97.807402" xlink:href="#me96d72a0b2" y="496.042403"/>
      </g>
     </g>
    </g>
    <g id="xtick_28">
     <g id="line2d_50">
      <g>
       <use style="fill:#262626;stroke:#262626;" x="106.32143" xlink:href="#me96d72a0b2" y="496.042403"/>
      </g>
     </g>
    </g>
    <g id="xtick_29">
     <g id="line2d_51">
      <g>
       <use style="fill:#262626;stroke:#262626;" x="114.835459" xlink:href="#me96d72a0b2" y="496.042403"/>
      </g>
     </g>
    </g>
    <g id="xtick_30">
     <g id="line2d_52">
      <g>
       <use style="fill:#262626;stroke:#262626;" x="131.863517" xlink:href="#me96d72a0b2" y="496.042403"/>
      </g>
     </g>
    </g>
    <g id="xtick_31">
     <g id="line2d_53">
      <g>
       <use style="fill:#262626;stroke:#262626;" x="140.377546" xlink:href="#me96d72a0b2" y="496.042403"/>
      </g>
     </g>
    </g>
    <g id="xtick_32">
     <g id="line2d_54">
      <g>
       <use style="fill:#262626;stroke:#262626;" x="148.891575" xlink:href="#me96d72a0b2" y="496.042403"/>
      </g>
     </g>
    </g>
    <g id="xtick_33">
     <g id="line2d_55">
      <g>
       <use style="fill:#262626;stroke:#262626;" x="165.919633" xlink:href="#me96d72a0b2" y="496.042403"/>
      </g>
     </g>
    </g>
    <g id="xtick_34">
     <g id="line2d_56">
      <g>
       <use style="fill:#262626;stroke:#262626;" x="174.433661" xlink:href="#me96d72a0b2" y="496.042403"/>
      </g>
     </g>
    </g>
    <g id="xtick_35">
     <g id="line2d_57">
      <g>
       <use style="fill:#262626;stroke:#262626;" x="182.94769" xlink:href="#me96d72a0b2" y="496.042403"/>
      </g>
     </g>
    </g>
    <g id="xtick_36">
     <g id="line2d_58">
      <g>
       <use style="fill:#262626;stroke:#262626;" x="199.975748" xlink:href="#me96d72a0b2" y="496.042403"/>
      </g>
     </g>
    </g>
    <g id="xtick_37">
     <g id="line2d_59">
      <g>
       <use style="fill:#262626;stroke:#262626;" x="208.489777" xlink:href="#me96d72a0b2" y="496.042403"/>
      </g>
     </g>
    </g>
    <g id="xtick_38">
     <g id="line2d_60">
      <g>
       <use style="fill:#262626;stroke:#262626;" x="217.003806" xlink:href="#me96d72a0b2" y="496.042403"/>
      </g>
     </g>
    </g>
    <g id="xtick_39">
     <g id="line2d_61">
      <g>
       <use style="fill:#262626;stroke:#262626;" x="234.031864" xlink:href="#me96d72a0b2" y="496.042403"/>
      </g>
     </g>
    </g>
    <g id="xtick_40">
     <g id="line2d_62">
      <g>
       <use style="fill:#262626;stroke:#262626;" x="242.545893" xlink:href="#me96d72a0b2" y="496.042403"/>
      </g>
     </g>
    </g>
    <g id="xtick_41">
     <g id="line2d_63">
      <g>
       <use style="fill:#262626;stroke:#262626;" x="251.059921" xlink:href="#me96d72a0b2" y="496.042403"/>
      </g>
     </g>
    </g>
    <g id="xtick_42">
     <g id="line2d_64">
      <g>
       <use style="fill:#262626;stroke:#262626;" x="268.087979" xlink:href="#me96d72a0b2" y="496.042403"/>
      </g>
     </g>
    </g>
    <g id="xtick_43">
     <g id="line2d_65">
      <g>
       <use style="fill:#262626;stroke:#262626;" x="276.602008" xlink:href="#me96d72a0b2" y="496.042403"/>
      </g>
     </g>
    </g>
    <g id="xtick_44">
     <g id="line2d_66">
      <g>
       <use style="fill:#262626;stroke:#262626;" x="285.116037" xlink:href="#me96d72a0b2" y="496.042403"/>
      </g>
     </g>
    </g>
    <g id="xtick_45">
     <g id="line2d_67">
      <g>
       <use style="fill:#262626;stroke:#262626;" x="302.144095" xlink:href="#me96d72a0b2" y="496.042403"/>
      </g>
     </g>
    </g>
    <g id="xtick_46">
     <g id="line2d_68">
      <g>
       <use style="fill:#262626;stroke:#262626;" x="310.658124" xlink:href="#me96d72a0b2" y="496.042403"/>
      </g>
     </g>
    </g>
    <g id="xtick_47">
     <g id="line2d_69">
      <g>
       <use style="fill:#262626;stroke:#262626;" x="319.172152" xlink:href="#me96d72a0b2" y="496.042403"/>
      </g>
     </g>
    </g>
    <g id="xtick_48">
     <g id="line2d_70">
      <g>
       <use style="fill:#262626;stroke:#262626;" x="336.20021" xlink:href="#me96d72a0b2" y="496.042403"/>
      </g>
     </g>
    </g>
    <g id="xtick_49">
     <g id="line2d_71">
      <g>
       <use style="fill:#262626;stroke:#262626;" x="344.714239" xlink:href="#me96d72a0b2" y="496.042403"/>
      </g>
     </g>
    </g>
    <g id="xtick_50">
     <g id="line2d_72">
      <g>
       <use style="fill:#262626;stroke:#262626;" x="353.228268" xlink:href="#me96d72a0b2" y="496.042403"/>
      </g>
     </g>
    </g>
    <g id="xtick_51">
     <g id="line2d_73">
      <g>
       <use style="fill:#262626;stroke:#262626;" x="370.256326" xlink:href="#me96d72a0b2" y="496.042403"/>
      </g>
     </g>
    </g>
    <g id="xtick_52">
     <g id="line2d_74">
      <g>
       <use style="fill:#262626;stroke:#262626;" x="378.770355" xlink:href="#me96d72a0b2" y="496.042403"/>
      </g>
     </g>
    </g>
    <g id="xtick_53">
     <g id="line2d_75">
      <g>
       <use style="fill:#262626;stroke:#262626;" x="387.284383" xlink:href="#me96d72a0b2" y="496.042403"/>
      </g>
     </g>
    </g>
    <g id="xtick_54">
     <g id="line2d_76">
      <g>
       <use style="fill:#262626;stroke:#262626;" x="404.312441" xlink:href="#me96d72a0b2" y="496.042403"/>
      </g>
     </g>
    </g>
    <g id="xtick_55">
     <g id="line2d_77">
      <g>
       <use style="fill:#262626;stroke:#262626;" x="412.82647" xlink:href="#me96d72a0b2" y="496.042403"/>
      </g>
     </g>
    </g>
    <g id="xtick_56">
     <g id="line2d_78">
      <g>
       <use style="fill:#262626;stroke:#262626;" x="421.340499" xlink:href="#me96d72a0b2" y="496.042403"/>
      </g>
     </g>
    </g>
    <g id="xtick_57">
     <g id="line2d_79">
      <g>
       <use style="fill:#262626;stroke:#262626;" x="438.368557" xlink:href="#me96d72a0b2" y="496.042403"/>
      </g>
     </g>
    </g>
    <g id="xtick_58">
     <g id="line2d_80">
      <g>
       <use style="fill:#262626;stroke:#262626;" x="446.882586" xlink:href="#me96d72a0b2" y="496.042403"/>
      </g>
     </g>
    </g>
    <g id="xtick_59">
     <g id="line2d_81">
      <g>
       <use style="fill:#262626;stroke:#262626;" x="455.396614" xlink:href="#me96d72a0b2" y="496.042403"/>
      </g>
     </g>
    </g>
    <g id="xtick_60">
     <g id="line2d_82">
      <g>
       <use style="fill:#262626;stroke:#262626;" x="472.424672" xlink:href="#me96d72a0b2" y="496.042403"/>
      </g>
     </g>
    </g>
    <g id="xtick_61">
     <g id="line2d_83">
      <g>
       <use style="fill:#262626;stroke:#262626;" x="480.938701" xlink:href="#me96d72a0b2" y="496.042403"/>
      </g>
     </g>
    </g>
    <g id="xtick_62">
     <g id="line2d_84">
      <g>
       <use style="fill:#262626;stroke:#262626;" x="489.45273" xlink:href="#me96d72a0b2" y="496.042403"/>
      </g>
     </g>
    </g>
    <g id="xtick_63">
     <g id="line2d_85">
      <g>
       <use style="fill:#262626;stroke:#262626;" x="506.480788" xlink:href="#me96d72a0b2" y="496.042403"/>
      </g>
     </g>
    </g>
    <g id="xtick_64">
     <g id="line2d_86">
      <g>
       <use style="fill:#262626;stroke:#262626;" x="514.994817" xlink:href="#me96d72a0b2" y="496.042403"/>
      </g>
     </g>
    </g>
    <g id="xtick_65">
     <g id="line2d_87">
      <g>
       <use style="fill:#262626;stroke:#262626;" x="523.508845" xlink:href="#me96d72a0b2" y="496.042403"/>
      </g>
     </g>
    </g>
    <g id="xtick_66">
     <g id="line2d_88">
      <g>
       <use style="fill:#262626;stroke:#262626;" x="540.536903" xlink:href="#me96d72a0b2" y="496.042403"/>
      </g>
     </g>
    </g>
    <g id="xtick_67">
     <g id="line2d_89">
      <g>
       <use style="fill:#262626;stroke:#262626;" x="549.050932" xlink:href="#me96d72a0b2" y="496.042403"/>
      </g>
     </g>
    </g>
    <g id="xtick_68">
     <g id="line2d_90">
      <g>
       <use style="fill:#262626;stroke:#262626;" x="557.564961" xlink:href="#me96d72a0b2" y="496.042403"/>
      </g>
     </g>
    </g>
    <g id="xtick_69">
     <g id="line2d_91">
      <g>
       <use style="fill:#262626;stroke:#262626;" x="574.593019" xlink:href="#me96d72a0b2" y="496.042403"/>
      </g>
     </g>
    </g>
    <g id="xtick_70">
     <g id="line2d_92">
      <g>
       <use style="fill:#262626;stroke:#262626;" x="583.107048" xlink:href="#me96d72a0b2" y="496.042403"/>
      </g>
     </g>
    </g>
    <g id="xtick_71">
     <g id="line2d_93">
      <g>
       <use style="fill:#262626;stroke:#262626;" x="591.621076" xlink:href="#me96d72a0b2" y="496.042403"/>
      </g>
     </g>
    </g>
    <g id="xtick_72">
     <g id="line2d_94">
      <g>
       <use style="fill:#262626;stroke:#262626;" x="608.649134" xlink:href="#me96d72a0b2" y="496.042403"/>
      </g>
     </g>
    </g>
    <g id="xtick_73">
     <g id="line2d_95">
      <g>
       <use style="fill:#262626;stroke:#262626;" x="617.163163" xlink:href="#me96d72a0b2" y="496.042403"/>
      </g>
     </g>
    </g>
    <g id="xtick_74">
     <g id="line2d_96">
      <g>
       <use style="fill:#262626;stroke:#262626;" x="625.677192" xlink:href="#me96d72a0b2" y="496.042403"/>
      </g>
     </g>
    </g>
    <g id="xtick_75">
     <g id="line2d_97">
      <g>
       <use style="fill:#262626;stroke:#262626;" x="642.70525" xlink:href="#me96d72a0b2" y="496.042403"/>
      </g>
     </g>
    </g>
    <g id="xtick_76">
     <g id="line2d_98">
      <g>
       <use style="fill:#262626;stroke:#262626;" x="651.219279" xlink:href="#me96d72a0b2" y="496.042403"/>
      </g>
     </g>
    </g>
    <g id="xtick_77">
     <g id="line2d_99">
      <g>
       <use style="fill:#262626;stroke:#262626;" x="659.733307" xlink:href="#me96d72a0b2" y="496.042403"/>
      </g>
     </g>
    </g>
    <g id="xtick_78">
     <g id="line2d_100">
      <g>
       <use style="fill:#262626;stroke:#262626;" x="676.761365" xlink:href="#me96d72a0b2" y="496.042403"/>
      </g>
     </g>
    </g>
    <g id="xtick_79">
     <g id="line2d_101">
      <g>
       <use style="fill:#262626;stroke:#262626;" x="685.275394" xlink:href="#me96d72a0b2" y="496.042403"/>
      </g>
     </g>
    </g>
    <g id="xtick_80">
     <g id="line2d_102">
      <g>
       <use style="fill:#262626;stroke:#262626;" x="693.789423" xlink:href="#me96d72a0b2" y="496.042403"/>
      </g>
     </g>
    </g>
    <g id="xtick_81">
     <g id="line2d_103">
      <g>
       <use style="fill:#262626;stroke:#262626;" x="710.817481" xlink:href="#me96d72a0b2" y="496.042403"/>
      </g>
     </g>
    </g>
    <g id="xtick_82">
     <g id="line2d_104">
      <g>
       <use style="fill:#262626;stroke:#262626;" x="719.33151" xlink:href="#me96d72a0b2" y="496.042403"/>
      </g>
     </g>
    </g>
    <g id="xtick_83">
     <g id="line2d_105">
      <g>
       <use style="fill:#262626;stroke:#262626;" x="727.845539" xlink:href="#me96d72a0b2" y="496.042403"/>
      </g>
     </g>
    </g>
    <g id="xtick_84">
     <g id="line2d_106">
      <g>
       <use style="fill:#262626;stroke:#262626;" x="744.873596" xlink:href="#me96d72a0b2" y="496.042403"/>
      </g>
     </g>
    </g>
    <g id="xtick_85">
     <g id="line2d_107">
      <g>
       <use style="fill:#262626;stroke:#262626;" x="753.387625" xlink:href="#me96d72a0b2" y="496.042403"/>
      </g>
     </g>
    </g>
    <g id="xtick_86">
     <g id="line2d_108">
      <g>
       <use style="fill:#262626;stroke:#262626;" x="761.901654" xlink:href="#me96d72a0b2" y="496.042403"/>
      </g>
     </g>
    </g>
    <g id="xtick_87">
     <g id="line2d_109">
      <g>
       <use style="fill:#262626;stroke:#262626;" x="778.929712" xlink:href="#me96d72a0b2" y="496.042403"/>
      </g>
     </g>
    </g>
    <g id="xtick_88">
     <g id="line2d_110">
      <g>
       <use style="fill:#262626;stroke:#262626;" x="787.443741" xlink:href="#me96d72a0b2" y="496.042403"/>
      </g>
     </g>
    </g>
    <g id="xtick_89">
     <g id="line2d_111">
      <g>
       <use style="fill:#262626;stroke:#262626;" x="795.95777" xlink:href="#me96d72a0b2" y="496.042403"/>
      </g>
     </g>
    </g>
    <g id="xtick_90">
     <g id="line2d_112">
      <g>
       <use style="fill:#262626;stroke:#262626;" x="812.985827" xlink:href="#me96d72a0b2" y="496.042403"/>
      </g>
     </g>
    </g>
    <g id="xtick_91">
     <g id="line2d_113">
      <g>
       <use style="fill:#262626;stroke:#262626;" x="821.499856" xlink:href="#me96d72a0b2" y="496.042403"/>
      </g>
     </g>
    </g>
    <g id="xtick_92">
     <g id="line2d_114">
      <g>
       <use style="fill:#262626;stroke:#262626;" x="830.013885" xlink:href="#me96d72a0b2" y="496.042403"/>
      </g>
     </g>
    </g>
    <g id="xtick_93">
     <g id="line2d_115">
      <g>
       <use style="fill:#262626;stroke:#262626;" x="838.527914" xlink:href="#me96d72a0b2" y="496.042403"/>
      </g>
     </g>
    </g>
    <g id="xtick_94">
     <g id="line2d_116">
      <g>
       <use style="fill:#262626;stroke:#262626;" x="847.041943" xlink:href="#me96d72a0b2" y="496.042403"/>
      </g>
     </g>
    </g>
    <g id="text_23">
     <!-- Week -->
     <g style="fill:#262626;" transform="translate(434.701475 566.894933)scale(0.12 -0.12)">
      <defs>
       <path d="M 213 4666 
L 850 4666 
L 1831 722 
L 2809 4666 
L 3519 4666 
L 4500 722 
L 5478 4666 
L 6119 4666 
L 4947 0 
L 4153 0 
L 3169 4050 
L 2175 0 
L 1381 0 
L 213 4666 
z
" id="DejaVuSans-57" transform="scale(0.015625)"/>
       <path d="M 3597 1894 
L 3597 1613 
L 953 1613 
Q 991 1019 1311 708 
Q 1631 397 2203 397 
Q 2534 397 2845 478 
Q 3156 559 3463 722 
L 3463 178 
Q 3153 47 2828 -22 
Q 2503 -91 2169 -91 
Q 1331 -91 842 396 
Q 353 884 353 1716 
Q 353 2575 817 3079 
Q 1281 3584 2069 3584 
Q 2775 3584 3186 3129 
Q 3597 2675 3597 1894 
z
M 3022 2063 
Q 3016 2534 2758 2815 
Q 2500 3097 2075 3097 
Q 1594 3097 1305 2825 
Q 1016 2553 972 2059 
L 3022 2063 
z
" id="DejaVuSans-65" transform="scale(0.015625)"/>
       <path d="M 581 4863 
L 1159 4863 
L 1159 1991 
L 2875 3500 
L 3609 3500 
L 1753 1863 
L 3688 0 
L 2938 0 
L 1159 1709 
L 1159 0 
L 581 0 
L 581 4863 
z
" id="DejaVuSans-6b" transform="scale(0.015625)"/>
      </defs>
      <use xlink:href="#DejaVuSans-57"/>
      <use x="93.001953" xlink:href="#DejaVuSans-65"/>
      <use x="154.525391" xlink:href="#DejaVuSans-65"/>
      <use x="216.048828" xlink:href="#DejaVuSans-6b"/>
     </g>
    </g>
   </g>
   <g id="matplotlib.axis_2">
    <g id="ytick_1">
     <g id="line2d_117">
      <path clip-path="url(#p4a979b5873)" d="M 53.10875 474.818572 
L 849.17045 474.818572 
" style="fill:none;stroke:#cccccc;stroke-linecap:round;"/>
     </g>
     <g id="line2d_118">
      <defs>
       <path d="M 0 0 
L -6 0 
" id="m051061007e" style="stroke:#262626;stroke-width:1.25;"/>
      </defs>
      <g>
       <use style="fill:#262626;stroke:#262626;stroke-width:1.25;" x="53.10875" xlink:href="#m051061007e" y="474.818572"/>
      </g>
     </g>
     <g id="text_24">
      <!-- 0 -->
      <g style="fill:#262626;" transform="translate(36.61 478.997713)scale(0.11 -0.11)">
       <use xlink:href="#DejaVuSans-30"/>
      </g>
     </g>
    </g>
    <g id="ytick_2">
     <g id="line2d_119">
      <path clip-path="url(#p4a979b5873)" d="M 53.10875 421.659322 
L 849.17045 421.659322 
" style="fill:none;stroke:#cccccc;stroke-linecap:round;"/>
     </g>
     <g id="line2d_120">
      <g>
       <use style="fill:#262626;stroke:#262626;stroke-width:1.25;" x="53.10875" xlink:href="#m051061007e" y="421.659322"/>
      </g>
     </g>
     <g id="text_25">
      <!-- 200 -->
      <g style="fill:#262626;" transform="translate(22.6125 425.838462)scale(0.11 -0.11)">
       <use xlink:href="#DejaVuSans-32"/>
       <use x="63.623047" xlink:href="#DejaVuSans-30"/>
       <use x="127.246094" xlink:href="#DejaVuSans-30"/>
      </g>
     </g>
    </g>
    <g id="ytick_3">
     <g id="line2d_121">
      <path clip-path="url(#p4a979b5873)" d="M 53.10875 368.500071 
L 849.17045 368.500071 
" style="fill:none;stroke:#cccccc;stroke-linecap:round;"/>
     </g>
     <g id="line2d_122">
      <g>
       <use style="fill:#262626;stroke:#262626;stroke-width:1.25;" x="53.10875" xlink:href="#m051061007e" y="368.500071"/>
      </g>
     </g>
     <g id="text_26">
      <!-- 400 -->
      <g style="fill:#262626;" transform="translate(22.6125 372.679212)scale(0.11 -0.11)">
       <use xlink:href="#DejaVuSans-34"/>
       <use x="63.623047" xlink:href="#DejaVuSans-30"/>
       <use x="127.246094" xlink:href="#DejaVuSans-30"/>
      </g>
     </g>
    </g>
    <g id="ytick_4">
     <g id="line2d_123">
      <path clip-path="url(#p4a979b5873)" d="M 53.10875 315.34082 
L 849.17045 315.34082 
" style="fill:none;stroke:#cccccc;stroke-linecap:round;"/>
     </g>
     <g id="line2d_124">
      <g>
       <use style="fill:#262626;stroke:#262626;stroke-width:1.25;" x="53.10875" xlink:href="#m051061007e" y="315.34082"/>
      </g>
     </g>
     <g id="text_27">
      <!-- 600 -->
      <g style="fill:#262626;" transform="translate(22.6125 319.519961)scale(0.11 -0.11)">
       <use xlink:href="#DejaVuSans-36"/>
       <use x="63.623047" xlink:href="#DejaVuSans-30"/>
       <use x="127.246094" xlink:href="#DejaVuSans-30"/>
      </g>
     </g>
    </g>
    <g id="ytick_5">
     <g id="line2d_125">
      <path clip-path="url(#p4a979b5873)" d="M 53.10875 262.18157 
L 849.17045 262.18157 
" style="fill:none;stroke:#cccccc;stroke-linecap:round;"/>
     </g>
     <g id="line2d_126">
      <g>
       <use style="fill:#262626;stroke:#262626;stroke-width:1.25;" x="53.10875" xlink:href="#m051061007e" y="262.18157"/>
      </g>
     </g>
     <g id="text_28">
      <!-- 800 -->
      <g style="fill:#262626;" transform="translate(22.6125 266.36071)scale(0.11 -0.11)">
       <use xlink:href="#DejaVuSans-38"/>
       <use x="63.623047" xlink:href="#DejaVuSans-30"/>
       <use x="127.246094" xlink:href="#DejaVuSans-30"/>
      </g>
     </g>
    </g>
    <g id="ytick_6">
     <g id="line2d_127">
      <path clip-path="url(#p4a979b5873)" d="M 53.10875 209.022319 
L 849.17045 209.022319 
" style="fill:none;stroke:#cccccc;stroke-linecap:round;"/>
     </g>
     <g id="line2d_128">
      <g>
       <use style="fill:#262626;stroke:#262626;stroke-width:1.25;" x="53.10875" xlink:href="#m051061007e" y="209.022319"/>
      </g>
     </g>
     <g id="text_29">
      <!-- 1000 -->
      <g style="fill:#262626;" transform="translate(15.61375 213.20146)scale(0.11 -0.11)">
       <use xlink:href="#DejaVuSans-31"/>
       <use x="63.623047" xlink:href="#DejaVuSans-30"/>
       <use x="127.246094" xlink:href="#DejaVuSans-30"/>
       <use x="190.869141" xlink:href="#DejaVuSans-30"/>
      </g>
     </g>
    </g>
    <g id="ytick_7">
     <g id="line2d_129">
      <path clip-path="url(#p4a979b5873)" d="M 53.10875 155.863068 
L 849.17045 155.863068 
" style="fill:none;stroke:#cccccc;stroke-linecap:round;"/>
     </g>
     <g id="line2d_130">
      <g>
       <use style="fill:#262626;stroke:#262626;stroke-width:1.25;" x="53.10875" xlink:href="#m051061007e" y="155.863068"/>
      </g>
     </g>
     <g id="text_30">
      <!-- 1200 -->
      <g style="fill:#262626;" transform="translate(15.61375 160.042209)scale(0.11 -0.11)">
       <use xlink:href="#DejaVuSans-31"/>
       <use x="63.623047" xlink:href="#DejaVuSans-32"/>
       <use x="127.246094" xlink:href="#DejaVuSans-30"/>
       <use x="190.869141" xlink:href="#DejaVuSans-30"/>
      </g>
     </g>
    </g>
    <g id="ytick_8">
     <g id="line2d_131">
      <path clip-path="url(#p4a979b5873)" d="M 53.10875 102.703818 
L 849.17045 102.703818 
" style="fill:none;stroke:#cccccc;stroke-linecap:round;"/>
     </g>
     <g id="line2d_132">
      <g>
       <use style="fill:#262626;stroke:#262626;stroke-width:1.25;" x="53.10875" xlink:href="#m051061007e" y="102.703818"/>
      </g>
     </g>
     <g id="text_31">
      <!-- 1400 -->
      <g style="fill:#262626;" transform="translate(15.61375 106.882958)scale(0.11 -0.11)">
       <use xlink:href="#DejaVuSans-31"/>
       <use x="63.623047" xlink:href="#DejaVuSans-34"/>
       <use x="127.246094" xlink:href="#DejaVuSans-30"/>
       <use x="190.869141" xlink:href="#DejaVuSans-30"/>
      </g>
     </g>
    </g>
    <g id="ytick_9">
     <g id="line2d_133">
      <path clip-path="url(#p4a979b5873)" d="M 53.10875 49.544567 
L 849.17045 49.544567 
" style="fill:none;stroke:#cccccc;stroke-linecap:round;"/>
     </g>
     <g id="line2d_134">
      <g>
       <use style="fill:#262626;stroke:#262626;stroke-width:1.25;" x="53.10875" xlink:href="#m051061007e" y="49.544567"/>
      </g>
     </g>
     <g id="text_32">
      <!-- 1600 -->
      <g style="fill:#262626;" transform="translate(15.61375 53.723708)scale(0.11 -0.11)">
       <use xlink:href="#DejaVuSans-31"/>
       <use x="63.623047" xlink:href="#DejaVuSans-36"/>
       <use x="127.246094" xlink:href="#DejaVuSans-30"/>
       <use x="190.869141" xlink:href="#DejaVuSans-30"/>
      </g>
     </g>
    </g>
    <g id="text_33">
     <!-- Cases -->
     <g style="fill:#262626;" transform="translate(9.118125 280.389952)rotate(-90)scale(0.12 -0.12)">
      <defs>
       <path d="M 4122 4306 
L 4122 3641 
Q 3803 3938 3442 4084 
Q 3081 4231 2675 4231 
Q 1875 4231 1450 3742 
Q 1025 3253 1025 2328 
Q 1025 1406 1450 917 
Q 1875 428 2675 428 
Q 3081 428 3442 575 
Q 3803 722 4122 1019 
L 4122 359 
Q 3791 134 3420 21 
Q 3050 -91 2638 -91 
Q 1578 -91 968 557 
Q 359 1206 359 2328 
Q 359 3453 968 4101 
Q 1578 4750 2638 4750 
Q 3056 4750 3426 4639 
Q 3797 4528 4122 4306 
z
" id="DejaVuSans-43" transform="scale(0.015625)"/>
       <path d="M 2194 1759 
Q 1497 1759 1228 1600 
Q 959 1441 959 1056 
Q 959 750 1161 570 
Q 1363 391 1709 391 
Q 2188 391 2477 730 
Q 2766 1069 2766 1631 
L 2766 1759 
L 2194 1759 
z
M 3341 1997 
L 3341 0 
L 2766 0 
L 2766 531 
Q 2569 213 2275 61 
Q 1981 -91 1556 -91 
Q 1019 -91 701 211 
Q 384 513 384 1019 
Q 384 1609 779 1909 
Q 1175 2209 1959 2209 
L 2766 2209 
L 2766 2266 
Q 2766 2663 2505 2880 
Q 2244 3097 1772 3097 
Q 1472 3097 1187 3025 
Q 903 2953 641 2809 
L 641 3341 
Q 956 3463 1253 3523 
Q 1550 3584 1831 3584 
Q 2591 3584 2966 3190 
Q 3341 2797 3341 1997 
z
" id="DejaVuSans-61" transform="scale(0.015625)"/>
       <path d="M 2834 3397 
L 2834 2853 
Q 2591 2978 2328 3040 
Q 2066 3103 1784 3103 
Q 1356 3103 1142 2972 
Q 928 2841 928 2578 
Q 928 2378 1081 2264 
Q 1234 2150 1697 2047 
L 1894 2003 
Q 2506 1872 2764 1633 
Q 3022 1394 3022 966 
Q 3022 478 2636 193 
Q 2250 -91 1575 -91 
Q 1294 -91 989 -36 
Q 684 19 347 128 
L 347 722 
Q 666 556 975 473 
Q 1284 391 1588 391 
Q 1994 391 2212 530 
Q 2431 669 2431 922 
Q 2431 1156 2273 1281 
Q 2116 1406 1581 1522 
L 1381 1569 
Q 847 1681 609 1914 
Q 372 2147 372 2553 
Q 372 3047 722 3315 
Q 1072 3584 1716 3584 
Q 2034 3584 2315 3537 
Q 2597 3491 2834 3397 
z
" id="DejaVuSans-73" transform="scale(0.015625)"/>
      </defs>
      <use xlink:href="#DejaVuSans-43"/>
      <use x="69.824219" xlink:href="#DejaVuSans-61"/>
      <use x="131.103516" xlink:href="#DejaVuSans-73"/>
      <use x="183.203125" xlink:href="#DejaVuSans-65"/>
      <use x="244.726562" xlink:href="#DejaVuSans-73"/>
     </g>
    </g>
   </g>
   <g id="line2d_135">
    <path clip-path="url(#p4a979b5873)" d="M 89.293373 474.818572 
L 97.807402 474.818572 
L 106.32143 474.818572 
L 114.835459 474.818572 
L 123.349488 474.818572 
L 131.863517 412.888045 
L 140.377546 461.52876 
L 148.891575 463.123537 
L 157.405604 463.389334 
L 165.919633 455.415446 
L 174.433661 474.28698 
L 182.94769 472.692202 
L 191.461719 474.552776 
L 199.975748 468.173666 
L 208.489777 448.77054 
L 217.003806 454.086465 
L 225.517835 446.378373 
L 234.031864 463.389334 
L 242.545893 452.757483 
L 251.059921 453.554872 
L 259.57395 450.631113 
L 268.087979 445.315188 
L 276.602008 453.289076 
L 285.116037 471.363221 
L 293.630066 464.984111 
L 302.144095 464.186722 
L 310.658124 463.920926 
L 319.172152 469.768444 
L 327.686181 470.03424 
L 336.20021 454.352261 
L 344.714239 438.936078 
L 353.228268 401.19301 
L 361.742297 396.408678 
L 370.256326 344.046816 
L 378.770355 305.772155 
L 387.284383 181.645305 
L 395.798412 89.148209 
L 404.312441 201.84582 
L 412.82647 282.116289 
L 421.340499 372.487015 
L 429.854528 356.805036 
L 438.368557 431.759579 
L 446.882586 474.818572 
L 455.396614 457.541816 
L 463.910643 473.755387 
L 472.424672 470.831629 
L 480.938701 471.363221 
L 489.45273 449.833725 
L 497.966759 394.282308 
L 506.480788 390.295364 
L 514.994817 348.565352 
L 523.508845 254.739275 
L 532.022874 220.98315 
L 540.536903 124.233314 
L 549.050932 50.341956 
L 557.564961 174.734602 
L 566.07899 207.161745 
L 574.593019 396.142881 
L 583.107048 467.90787 
L 591.621076 464.452519 
L 600.135105 453.289076 
L 608.649134 467.642074 
L 617.163163 464.984111 
L 625.677192 469.768444 
L 634.191221 472.426406 
L 642.70525 474.818572 
L 651.219279 474.818572 
L 659.733307 474.552776 
L 668.247336 474.818572 
L 676.761365 474.28698 
L 685.275394 474.818572 
L 693.789423 468.705259 
L 702.303452 467.376277 
L 710.817481 449.567928 
L 719.33151 414.217027 
L 727.845539 348.03376 
L 736.359567 230.286019 
L 744.873596 219.919965 
L 753.387625 276.800364 
L 761.901654 339.262483 
L 770.415683 432.822764 
L 778.929712 382.587273 
L 787.443741 414.748619 
L 795.95777 390.826956 
L 804.471798 329.693818 
L 812.985827 273.610809 
" style="fill:none;stroke:#ffc0cb;stroke-linecap:round;stroke-width:1.5;"/>
   </g>
   <g id="line2d_136">
    <path clip-path="url(#p4a979b5873)" d="M 89.293373 474.818572 
L 97.807402 474.818572 
L 106.32143 474.818572 
L 114.835459 474.818572 
L 123.349488 474.818572 
L 131.863517 465.249907 
L 140.377546 470.831629 
L 148.891575 472.16061 
L 157.405604 472.692202 
L 165.919633 469.502647 
L 174.433661 473.755387 
L 182.94769 474.818572 
L 191.461719 474.28698 
L 199.975748 472.692202 
L 208.489777 472.692202 
L 217.003806 473.489591 
L 225.517835 472.426406 
L 234.031864 471.629017 
L 242.545893 472.426406 
L 251.059921 472.957999 
L 259.57395 472.426406 
L 268.087979 470.565832 
L 276.602008 470.300036 
L 285.116037 472.16061 
L 293.630066 469.502647 
L 302.144095 472.957999 
L 310.658124 473.223795 
L 319.172152 472.692202 
L 327.686181 474.021184 
L 336.20021 472.957999 
L 344.714239 470.03424 
L 353.228268 471.894814 
L 361.742297 469.236851 
L 370.256326 457.807612 
L 378.770355 465.7815 
L 387.284383 446.909966 
L 395.798412 466.844685 
L 404.312441 442.923022 
L 412.82647 463.123537 
L 421.340499 446.909966 
L 429.854528 450.89691 
L 438.368557 472.692202 
L 446.882586 469.236851 
L 455.396614 474.818572 
L 463.910643 474.021184 
L 472.424672 474.818572 
L 480.938701 472.16061 
L 489.45273 472.16061 
L 497.966759 467.90787 
L 506.480788 464.718315 
L 514.994817 466.313092 
L 523.508845 457.807612 
L 532.022874 454.883853 
L 540.536903 454.618057 
L 549.050932 429.101617 
L 557.564961 449.036336 
L 566.07899 464.452519 
L 574.593019 453.820668 
L 583.107048 465.515704 
L 591.621076 469.236851 
L 600.135105 472.692202 
L 608.649134 474.818572 
L 617.163163 474.818572 
L 625.677192 474.818572 
L 634.191221 472.692202 
L 642.70525 473.755387 
L 651.219279 474.818572 
L 659.733307 474.552776 
L 668.247336 473.489591 
L 676.761365 474.552776 
L 685.275394 474.28698 
L 693.789423 474.818572 
L 702.303452 474.021184 
L 710.817481 472.426406 
L 719.33151 469.236851 
L 727.845539 464.186722 
L 736.359567 457.010223 
L 744.873596 447.973151 
L 753.387625 463.920926 
L 761.901654 459.136593 
L 770.415683 467.642074 
L 778.929712 466.844685 
L 787.443741 462.326149 
L 795.95777 466.844685 
L 804.471798 463.389334 
L 812.985827 450.89691 
" style="fill:none;stroke:#800080;stroke-linecap:round;stroke-width:1.5;"/>
   </g>
   <g id="line2d_137">
    <path clip-path="url(#p4a979b5873)" d="M 89.293373 474.818572 
L 97.807402 474.28698 
L 106.32143 474.552776 
L 114.835459 473.489591 
L 123.349488 471.629017 
L 131.863517 472.426406 
L 140.377546 471.363221 
L 148.891575 471.097425 
L 157.405604 470.300036 
L 165.919633 470.03424 
L 174.433661 470.300036 
L 182.94769 468.971055 
L 191.461719 472.16061 
L 199.975748 469.502647 
L 208.489777 471.629017 
L 217.003806 467.642074 
L 225.517835 470.300036 
L 234.031864 468.173666 
L 242.545893 467.90787 
L 251.059921 466.313092 
L 259.57395 464.452519 
L 268.087979 462.326149 
L 276.602008 458.870797 
L 285.116037 461.52876 
L 293.630066 461.52876 
L 302.144095 458.870797 
L 310.658124 457.27602 
L 319.172152 462.591945 
L 327.686181 464.718315 
L 336.20021 465.7815 
L 344.714239 460.997167 
L 353.228268 461.52876 
L 361.742297 454.352261 
L 370.256326 443.986207 
L 378.770355 422.988303 
L 387.284383 380.992495 
L 395.798412 352.818092 
L 404.312441 281.053104 
L 412.82647 227.893853 
L 421.340499 214.338244 
L 429.854528 236.399333 
L 438.368557 228.957038 
L 446.882586 322.783116 
L 455.396614 336.338724 
L 463.910643 354.41287 
L 472.424672 374.613385 
L 480.938701 385.245235 
L 489.45273 417.140785 
L 497.966759 399.598233 
L 506.480788 395.877085 
L 514.994817 413.419638 
L 523.508845 387.637401 
L 532.022874 361.589369 
L 540.536903 304.443174 
L 549.050932 280.255715 
L 557.564961 293.013935 
L 566.07899 247.031183 
L 574.593019 250.486535 
L 583.107048 265.636921 
L 591.621076 283.179474 
L 600.135105 319.327764 
L 608.649134 353.083888 
L 617.163163 382.321476 
L 625.677192 411.82486 
L 634.191221 429.633209 
L 642.70525 433.354357 
L 651.219279 452.225891 
L 659.733307 450.631113 
L 668.247336 464.718315 
L 676.761365 459.668186 
L 685.275394 459.933982 
L 693.789423 467.110481 
L 702.303452 468.439462 
L 710.817481 469.502647 
L 719.33151 464.452519 
L 727.845539 451.694298 
L 736.359567 440.796652 
L 744.873596 411.559064 
L 753.387625 374.347589 
L 761.901654 372.221219 
L 770.415683 337.667706 
L 778.929712 351.489111 
L 787.443741 329.693818 
L 795.95777 309.759099 
L 804.471798 311.353877 
L 812.985827 261.649977 
" style="fill:none;stroke:#ff0000;stroke-linecap:round;stroke-width:1.5;"/>
   </g>
   <g id="line2d_138"/>
   <g id="line2d_139"/>
   <g id="line2d_140"/>
   <g id="patch_3">
    <path d="M 53.10875 496.042403 
L 53.10875 29.118125 
" style="fill:none;stroke:#262626;stroke-linecap:square;stroke-linejoin:miter;stroke-width:1.25;"/>
   </g>
   <g id="patch_4">
    <path d="M 849.17045 496.042403 
L 849.17045 29.118125 
" style="fill:none;stroke:#262626;stroke-linecap:square;stroke-linejoin:miter;stroke-width:1.25;"/>
   </g>
   <g id="patch_5">
    <path d="M 53.10875 496.042403 
L 849.17045 496.042403 
" style="fill:none;stroke:#262626;stroke-linecap:square;stroke-linejoin:miter;stroke-width:1.25;"/>
   </g>
   <g id="patch_6">
    <path d="M 53.10875 29.118125 
L 849.17045 29.118125 
" style="fill:none;stroke:#262626;stroke-linecap:square;stroke-linejoin:miter;stroke-width:1.25;"/>
   </g>
   <g id="text_34">
    <!-- Last update: 24.10.2021 -->
    <g style="fill:#262626;" transform="translate(389.640772 22.114261)scale(0.09996 -0.09996)">
     <defs>
      <path d="M 628 4666 
L 1259 4666 
L 1259 531 
L 3531 531 
L 3531 0 
L 628 0 
L 628 4666 
z
" id="DejaVuSans-4c" transform="scale(0.015625)"/>
      <path d="M 1172 4494 
L 1172 3500 
L 2356 3500 
L 2356 3053 
L 1172 3053 
L 1172 1153 
Q 1172 725 1289 603 
Q 1406 481 1766 481 
L 2356 481 
L 2356 0 
L 1766 0 
Q 1100 0 847 248 
Q 594 497 594 1153 
L 594 3053 
L 172 3053 
L 172 3500 
L 594 3500 
L 594 4494 
L 1172 4494 
z
" id="DejaVuSans-74" transform="scale(0.015625)"/>
      <path d="M 544 1381 
L 544 3500 
L 1119 3500 
L 1119 1403 
Q 1119 906 1312 657 
Q 1506 409 1894 409 
Q 2359 409 2629 706 
Q 2900 1003 2900 1516 
L 2900 3500 
L 3475 3500 
L 3475 0 
L 2900 0 
L 2900 538 
Q 2691 219 2414 64 
Q 2138 -91 1772 -91 
Q 1169 -91 856 284 
Q 544 659 544 1381 
z
M 1991 3584 
L 1991 3584 
z
" id="DejaVuSans-75" transform="scale(0.015625)"/>
      <path d="M 1159 525 
L 1159 -1331 
L 581 -1331 
L 581 3500 
L 1159 3500 
L 1159 2969 
Q 1341 3281 1617 3432 
Q 1894 3584 2278 3584 
Q 2916 3584 3314 3078 
Q 3713 2572 3713 1747 
Q 3713 922 3314 415 
Q 2916 -91 2278 -91 
Q 1894 -91 1617 61 
Q 1341 213 1159 525 
z
M 3116 1747 
Q 3116 2381 2855 2742 
Q 2594 3103 2138 3103 
Q 1681 3103 1420 2742 
Q 1159 2381 1159 1747 
Q 1159 1113 1420 752 
Q 1681 391 2138 391 
Q 2594 391 2855 752 
Q 3116 1113 3116 1747 
z
" id="DejaVuSans-70" transform="scale(0.015625)"/>
      <path d="M 2906 2969 
L 2906 4863 
L 3481 4863 
L 3481 0 
L 2906 0 
L 2906 525 
Q 2725 213 2448 61 
Q 2172 -91 1784 -91 
Q 1150 -91 751 415 
Q 353 922 353 1747 
Q 353 2572 751 3078 
Q 1150 3584 1784 3584 
Q 2172 3584 2448 3432 
Q 2725 3281 2906 2969 
z
M 947 1747 
Q 947 1113 1208 752 
Q 1469 391 1925 391 
Q 2381 391 2643 752 
Q 2906 1113 2906 1747 
Q 2906 2381 2643 2742 
Q 2381 3103 1925 3103 
Q 1469 3103 1208 2742 
Q 947 2381 947 1747 
z
" id="DejaVuSans-64" transform="scale(0.015625)"/>
      <path d="M 750 794 
L 1409 794 
L 1409 0 
L 750 0 
L 750 794 
z
M 750 3309 
L 1409 3309 
L 1409 2516 
L 750 2516 
L 750 3309 
z
" id="DejaVuSans-3a" transform="scale(0.015625)"/>
     </defs>
     <use xlink:href="#DejaVuSans-4c"/>
     <use x="55.712891" xlink:href="#DejaVuSans-61"/>
     <use x="116.992188" xlink:href="#DejaVuSans-73"/>
     <use x="169.091797" xlink:href="#DejaVuSans-74"/>
     <use x="208.300781" xlink:href="#DejaVuSans-20"/>
     <use x="240.087891" xlink:href="#DejaVuSans-75"/>
     <use x="303.466797" xlink:href="#DejaVuSans-70"/>
     <use x="366.943359" xlink:href="#DejaVuSans-64"/>
     <use x="430.419922" xlink:href="#DejaVuSans-61"/>
     <use x="491.699219" xlink:href="#DejaVuSans-74"/>
     <use x="530.908203" xlink:href="#DejaVuSans-65"/>
     <use x="592.431641" xlink:href="#DejaVuSans-3a"/>
     <use x="626.123047" xlink:href="#DejaVuSans-20"/>
     <use x="657.910156" xlink:href="#DejaVuSans-32"/>
     <use x="721.533203" xlink:href="#DejaVuSans-34"/>
     <use x="785.15625" xlink:href="#DejaVuSans-2e"/>
     <use x="816.943359" xlink:href="#DejaVuSans-31"/>
     <use x="880.566406" xlink:href="#DejaVuSans-30"/>
     <use x="944.189453" xlink:href="#DejaVuSans-2e"/>
     <use x="975.976562" xlink:href="#DejaVuSans-32"/>
     <use x="1039.599609" xlink:href="#DejaVuSans-30"/>
     <use x="1103.222656" xlink:href="#DejaVuSans-32"/>
     <use x="1166.845703" xlink:href="#DejaVuSans-31"/>
    </g>
   </g>
   <g id="text_35">
    <!-- Disease timeline by week -->
    <g style="fill:#262626;" transform="translate(364.925225 9.118125)scale(0.12 -0.12)">
     <defs>
      <path d="M 1791 3756 
L 1791 909 
L 2222 909 
Q 2959 909 3348 1275 
Q 3738 1641 3738 2338 
Q 3738 3031 3350 3393 
Q 2963 3756 2222 3756 
L 1791 3756 
z
M 588 4666 
L 1856 4666 
Q 2919 4666 3439 4514 
Q 3959 4363 4331 4000 
Q 4659 3684 4818 3271 
Q 4978 2859 4978 2338 
Q 4978 1809 4818 1395 
Q 4659 981 4331 666 
Q 3956 303 3431 151 
Q 2906 0 1856 0 
L 588 0 
L 588 4666 
z
" id="DejaVuSans-Bold-44" transform="scale(0.015625)"/>
      <path d="M 538 3500 
L 1656 3500 
L 1656 0 
L 538 0 
L 538 3500 
z
M 538 4863 
L 1656 4863 
L 1656 3950 
L 538 3950 
L 538 4863 
z
" id="DejaVuSans-Bold-69" transform="scale(0.015625)"/>
      <path d="M 3272 3391 
L 3272 2541 
Q 2913 2691 2578 2766 
Q 2244 2841 1947 2841 
Q 1628 2841 1473 2761 
Q 1319 2681 1319 2516 
Q 1319 2381 1436 2309 
Q 1553 2238 1856 2203 
L 2053 2175 
Q 2913 2066 3209 1816 
Q 3506 1566 3506 1031 
Q 3506 472 3093 190 
Q 2681 -91 1863 -91 
Q 1516 -91 1145 -36 
Q 775 19 384 128 
L 384 978 
Q 719 816 1070 734 
Q 1422 653 1784 653 
Q 2113 653 2278 743 
Q 2444 834 2444 1013 
Q 2444 1163 2330 1236 
Q 2216 1309 1875 1350 
L 1678 1375 
Q 931 1469 631 1722 
Q 331 1975 331 2491 
Q 331 3047 712 3315 
Q 1094 3584 1881 3584 
Q 2191 3584 2531 3537 
Q 2872 3491 3272 3391 
z
" id="DejaVuSans-Bold-73" transform="scale(0.015625)"/>
      <path d="M 4031 1759 
L 4031 1441 
L 1416 1441 
Q 1456 1047 1700 850 
Q 1944 653 2381 653 
Q 2734 653 3104 758 
Q 3475 863 3866 1075 
L 3866 213 
Q 3469 63 3072 -14 
Q 2675 -91 2278 -91 
Q 1328 -91 801 392 
Q 275 875 275 1747 
Q 275 2603 792 3093 
Q 1309 3584 2216 3584 
Q 3041 3584 3536 3087 
Q 4031 2591 4031 1759 
z
M 2881 2131 
Q 2881 2450 2695 2645 
Q 2509 2841 2209 2841 
Q 1884 2841 1681 2658 
Q 1478 2475 1428 2131 
L 2881 2131 
z
" id="DejaVuSans-Bold-65" transform="scale(0.015625)"/>
      <path d="M 2106 1575 
Q 1756 1575 1579 1456 
Q 1403 1338 1403 1106 
Q 1403 894 1545 773 
Q 1688 653 1941 653 
Q 2256 653 2472 879 
Q 2688 1106 2688 1447 
L 2688 1575 
L 2106 1575 
z
M 3816 1997 
L 3816 0 
L 2688 0 
L 2688 519 
Q 2463 200 2181 54 
Q 1900 -91 1497 -91 
Q 953 -91 614 226 
Q 275 544 275 1050 
Q 275 1666 698 1953 
Q 1122 2241 2028 2241 
L 2688 2241 
L 2688 2328 
Q 2688 2594 2478 2717 
Q 2269 2841 1825 2841 
Q 1466 2841 1156 2769 
Q 847 2697 581 2553 
L 581 3406 
Q 941 3494 1303 3539 
Q 1666 3584 2028 3584 
Q 2975 3584 3395 3211 
Q 3816 2838 3816 1997 
z
" id="DejaVuSans-Bold-61" transform="scale(0.015625)"/>
      <path id="DejaVuSans-Bold-20" transform="scale(0.015625)"/>
      <path d="M 1759 4494 
L 1759 3500 
L 2913 3500 
L 2913 2700 
L 1759 2700 
L 1759 1216 
Q 1759 972 1856 886 
Q 1953 800 2241 800 
L 2816 800 
L 2816 0 
L 1856 0 
Q 1194 0 917 276 
Q 641 553 641 1216 
L 641 2700 
L 84 2700 
L 84 3500 
L 641 3500 
L 641 4494 
L 1759 4494 
z
" id="DejaVuSans-Bold-74" transform="scale(0.015625)"/>
      <path d="M 3781 2919 
Q 3994 3244 4286 3414 
Q 4578 3584 4928 3584 
Q 5531 3584 5847 3212 
Q 6163 2841 6163 2131 
L 6163 0 
L 5038 0 
L 5038 1825 
Q 5041 1866 5042 1909 
Q 5044 1953 5044 2034 
Q 5044 2406 4934 2573 
Q 4825 2741 4581 2741 
Q 4263 2741 4089 2478 
Q 3916 2216 3909 1719 
L 3909 0 
L 2784 0 
L 2784 1825 
Q 2784 2406 2684 2573 
Q 2584 2741 2328 2741 
Q 2006 2741 1831 2477 
Q 1656 2213 1656 1722 
L 1656 0 
L 531 0 
L 531 3500 
L 1656 3500 
L 1656 2988 
Q 1863 3284 2130 3434 
Q 2397 3584 2719 3584 
Q 3081 3584 3359 3409 
Q 3638 3234 3781 2919 
z
" id="DejaVuSans-Bold-6d" transform="scale(0.015625)"/>
      <path d="M 538 4863 
L 1656 4863 
L 1656 0 
L 538 0 
L 538 4863 
z
" id="DejaVuSans-Bold-6c" transform="scale(0.015625)"/>
      <path d="M 4056 2131 
L 4056 0 
L 2931 0 
L 2931 347 
L 2931 1631 
Q 2931 2084 2911 2256 
Q 2891 2428 2841 2509 
Q 2775 2619 2662 2680 
Q 2550 2741 2406 2741 
Q 2056 2741 1856 2470 
Q 1656 2200 1656 1722 
L 1656 0 
L 538 0 
L 538 3500 
L 1656 3500 
L 1656 2988 
Q 1909 3294 2193 3439 
Q 2478 3584 2822 3584 
Q 3428 3584 3742 3212 
Q 4056 2841 4056 2131 
z
" id="DejaVuSans-Bold-6e" transform="scale(0.015625)"/>
      <path d="M 2400 722 
Q 2759 722 2948 984 
Q 3138 1247 3138 1747 
Q 3138 2247 2948 2509 
Q 2759 2772 2400 2772 
Q 2041 2772 1848 2508 
Q 1656 2244 1656 1747 
Q 1656 1250 1848 986 
Q 2041 722 2400 722 
z
M 1656 2988 
Q 1888 3294 2169 3439 
Q 2450 3584 2816 3584 
Q 3463 3584 3878 3070 
Q 4294 2556 4294 1747 
Q 4294 938 3878 423 
Q 3463 -91 2816 -91 
Q 2450 -91 2169 54 
Q 1888 200 1656 506 
L 1656 0 
L 538 0 
L 538 4863 
L 1656 4863 
L 1656 2988 
z
" id="DejaVuSans-Bold-62" transform="scale(0.015625)"/>
      <path d="M 78 3500 
L 1197 3500 
L 2138 1125 
L 2938 3500 
L 4056 3500 
L 2584 -331 
Q 2363 -916 2067 -1148 
Q 1772 -1381 1288 -1381 
L 641 -1381 
L 641 -647 
L 991 -647 
Q 1275 -647 1404 -556 
Q 1534 -466 1606 -231 
L 1638 -134 
L 78 3500 
z
" id="DejaVuSans-Bold-79" transform="scale(0.015625)"/>
      <path d="M 225 3500 
L 1313 3500 
L 1900 1088 
L 2491 3500 
L 3425 3500 
L 4013 1113 
L 4603 3500 
L 5691 3500 
L 4769 0 
L 3547 0 
L 2956 2406 
L 2369 0 
L 1147 0 
L 225 3500 
z
" id="DejaVuSans-Bold-77" transform="scale(0.015625)"/>
      <path d="M 538 4863 
L 1656 4863 
L 1656 2216 
L 2944 3500 
L 4244 3500 
L 2534 1894 
L 4378 0 
L 3022 0 
L 1656 1459 
L 1656 0 
L 538 0 
L 538 4863 
z
" id="DejaVuSans-Bold-6b" transform="scale(0.015625)"/>
     </defs>
     <use xlink:href="#DejaVuSans-Bold-44"/>
     <use x="83.007812" xlink:href="#DejaVuSans-Bold-69"/>
     <use x="117.285156" xlink:href="#DejaVuSans-Bold-73"/>
     <use x="176.806641" xlink:href="#DejaVuSans-Bold-65"/>
     <use x="244.628906" xlink:href="#DejaVuSans-Bold-61"/>
     <use x="312.109375" xlink:href="#DejaVuSans-Bold-73"/>
     <use x="371.630859" xlink:href="#DejaVuSans-Bold-65"/>
     <use x="439.453125" xlink:href="#DejaVuSans-Bold-20"/>
     <use x="474.267578" xlink:href="#DejaVuSans-Bold-74"/>
     <use x="522.070312" xlink:href="#DejaVuSans-Bold-69"/>
     <use x="556.347656" xlink:href="#DejaVuSans-Bold-6d"/>
     <use x="660.546875" xlink:href="#DejaVuSans-Bold-65"/>
     <use x="728.369141" xlink:href="#DejaVuSans-Bold-6c"/>
     <use x="762.646484" xlink:href="#DejaVuSans-Bold-69"/>
     <use x="796.923828" xlink:href="#DejaVuSans-Bold-6e"/>
     <use x="868.115234" xlink:href="#DejaVuSans-Bold-65"/>
     <use x="935.9375" xlink:href="#DejaVuSans-Bold-20"/>
     <use x="970.751953" xlink:href="#DejaVuSans-Bold-62"/>
     <use x="1042.333984" xlink:href="#DejaVuSans-Bold-79"/>
     <use x="1107.519531" xlink:href="#DejaVuSans-Bold-20"/>
     <use x="1142.333984" xlink:href="#DejaVuSans-Bold-77"/>
     <use x="1234.716797" xlink:href="#DejaVuSans-Bold-65"/>
     <use x="1302.539062" xlink:href="#DejaVuSans-Bold-65"/>
     <use x="1370.361328" xlink:href="#DejaVuSans-Bold-6b"/>
    </g>
   </g>
   <g id="legend_1">
    <g id="patch_7">
     <path d="M 728.608731 86.355937 
L 841.47045 86.355937 
Q 843.67045 86.355937 843.67045 84.155937 
L 843.67045 36.818125 
Q 843.67045 34.618125 841.47045 34.618125 
L 728.608731 34.618125 
Q 726.408731 34.618125 726.408731 36.818125 
L 726.408731 84.155937 
Q 726.408731 86.355937 728.608731 86.355937 
z
" style="fill:#ffffff;opacity:0.8;stroke:#cccccc;stroke-linejoin:miter;"/>
    </g>
    <g id="line2d_141">
     <path d="M 730.808731 43.526406 
L 752.808731 43.526406 
" style="fill:none;stroke:#ffc0cb;stroke-linecap:round;stroke-width:1.5;"/>
    </g>
    <g id="line2d_142"/>
    <g id="text_36">
     <!-- Hospitalized -->
     <g style="fill:#262626;" transform="translate(761.608731 47.376406)scale(0.11 -0.11)">
      <defs>
       <path d="M 628 4666 
L 1259 4666 
L 1259 2753 
L 3553 2753 
L 3553 4666 
L 4184 4666 
L 4184 0 
L 3553 0 
L 3553 2222 
L 1259 2222 
L 1259 0 
L 628 0 
L 628 4666 
z
" id="DejaVuSans-48" transform="scale(0.015625)"/>
       <path d="M 1959 3097 
Q 1497 3097 1228 2736 
Q 959 2375 959 1747 
Q 959 1119 1226 758 
Q 1494 397 1959 397 
Q 2419 397 2687 759 
Q 2956 1122 2956 1747 
Q 2956 2369 2687 2733 
Q 2419 3097 1959 3097 
z
M 1959 3584 
Q 2709 3584 3137 3096 
Q 3566 2609 3566 1747 
Q 3566 888 3137 398 
Q 2709 -91 1959 -91 
Q 1206 -91 779 398 
Q 353 888 353 1747 
Q 353 2609 779 3096 
Q 1206 3584 1959 3584 
z
" id="DejaVuSans-6f" transform="scale(0.015625)"/>
       <path d="M 603 3500 
L 1178 3500 
L 1178 0 
L 603 0 
L 603 3500 
z
M 603 4863 
L 1178 4863 
L 1178 4134 
L 603 4134 
L 603 4863 
z
" id="DejaVuSans-69" transform="scale(0.015625)"/>
       <path d="M 603 4863 
L 1178 4863 
L 1178 0 
L 603 0 
L 603 4863 
z
" id="DejaVuSans-6c" transform="scale(0.015625)"/>
       <path d="M 353 3500 
L 3084 3500 
L 3084 2975 
L 922 459 
L 3084 459 
L 3084 0 
L 275 0 
L 275 525 
L 2438 3041 
L 353 3041 
L 353 3500 
z
" id="DejaVuSans-7a" transform="scale(0.015625)"/>
      </defs>
      <use xlink:href="#DejaVuSans-48"/>
      <use x="75.195312" xlink:href="#DejaVuSans-6f"/>
      <use x="136.376953" xlink:href="#DejaVuSans-73"/>
      <use x="188.476562" xlink:href="#DejaVuSans-70"/>
      <use x="251.953125" xlink:href="#DejaVuSans-69"/>
      <use x="279.736328" xlink:href="#DejaVuSans-74"/>
      <use x="318.945312" xlink:href="#DejaVuSans-61"/>
      <use x="380.224609" xlink:href="#DejaVuSans-6c"/>
      <use x="408.007812" xlink:href="#DejaVuSans-69"/>
      <use x="435.791016" xlink:href="#DejaVuSans-7a"/>
      <use x="488.28125" xlink:href="#DejaVuSans-65"/>
      <use x="549.804688" xlink:href="#DejaVuSans-64"/>
     </g>
    </g>
    <g id="line2d_143">
     <path d="M 730.808731 59.672344 
L 752.808731 59.672344 
" style="fill:none;stroke:#800080;stroke-linecap:round;stroke-width:1.5;"/>
    </g>
    <g id="line2d_144"/>
    <g id="text_37">
     <!-- Intensive care -->
     <g style="fill:#262626;" transform="translate(761.608731 63.522344)scale(0.11 -0.11)">
      <defs>
       <path d="M 628 4666 
L 1259 4666 
L 1259 0 
L 628 0 
L 628 4666 
z
" id="DejaVuSans-49" transform="scale(0.015625)"/>
       <path d="M 3513 2113 
L 3513 0 
L 2938 0 
L 2938 2094 
Q 2938 2591 2744 2837 
Q 2550 3084 2163 3084 
Q 1697 3084 1428 2787 
Q 1159 2491 1159 1978 
L 1159 0 
L 581 0 
L 581 3500 
L 1159 3500 
L 1159 2956 
Q 1366 3272 1645 3428 
Q 1925 3584 2291 3584 
Q 2894 3584 3203 3211 
Q 3513 2838 3513 2113 
z
" id="DejaVuSans-6e" transform="scale(0.015625)"/>
       <path d="M 191 3500 
L 800 3500 
L 1894 563 
L 2988 3500 
L 3597 3500 
L 2284 0 
L 1503 0 
L 191 3500 
z
" id="DejaVuSans-76" transform="scale(0.015625)"/>
       <path d="M 3122 3366 
L 3122 2828 
Q 2878 2963 2633 3030 
Q 2388 3097 2138 3097 
Q 1578 3097 1268 2742 
Q 959 2388 959 1747 
Q 959 1106 1268 751 
Q 1578 397 2138 397 
Q 2388 397 2633 464 
Q 2878 531 3122 666 
L 3122 134 
Q 2881 22 2623 -34 
Q 2366 -91 2075 -91 
Q 1284 -91 818 406 
Q 353 903 353 1747 
Q 353 2603 823 3093 
Q 1294 3584 2113 3584 
Q 2378 3584 2631 3529 
Q 2884 3475 3122 3366 
z
" id="DejaVuSans-63" transform="scale(0.015625)"/>
       <path d="M 2631 2963 
Q 2534 3019 2420 3045 
Q 2306 3072 2169 3072 
Q 1681 3072 1420 2755 
Q 1159 2438 1159 1844 
L 1159 0 
L 581 0 
L 581 3500 
L 1159 3500 
L 1159 2956 
Q 1341 3275 1631 3429 
Q 1922 3584 2338 3584 
Q 2397 3584 2469 3576 
Q 2541 3569 2628 3553 
L 2631 2963 
z
" id="DejaVuSans-72" transform="scale(0.015625)"/>
      </defs>
      <use xlink:href="#DejaVuSans-49"/>
      <use x="29.492188" xlink:href="#DejaVuSans-6e"/>
      <use x="92.871094" xlink:href="#DejaVuSans-74"/>
      <use x="132.080078" xlink:href="#DejaVuSans-65"/>
      <use x="193.603516" xlink:href="#DejaVuSans-6e"/>
      <use x="256.982422" xlink:href="#DejaVuSans-73"/>
      <use x="309.082031" xlink:href="#DejaVuSans-69"/>
      <use x="336.865234" xlink:href="#DejaVuSans-76"/>
      <use x="396.044922" xlink:href="#DejaVuSans-65"/>
      <use x="457.568359" xlink:href="#DejaVuSans-20"/>
      <use x="489.355469" xlink:href="#DejaVuSans-63"/>
      <use x="544.335938" xlink:href="#DejaVuSans-61"/>
      <use x="605.615234" xlink:href="#DejaVuSans-72"/>
      <use x="644.478516" xlink:href="#DejaVuSans-65"/>
     </g>
    </g>
    <g id="line2d_145">
     <path d="M 730.808731 75.818281 
L 752.808731 75.818281 
" style="fill:none;stroke:#ff0000;stroke-linecap:round;stroke-width:1.5;"/>
    </g>
    <g id="line2d_146"/>
    <g id="text_38">
     <!-- Fatal -->
     <g style="fill:#262626;" transform="translate(761.608731 79.668281)scale(0.11 -0.11)">
      <defs>
       <path d="M 628 4666 
L 3309 4666 
L 3309 4134 
L 1259 4134 
L 1259 2759 
L 3109 2759 
L 3109 2228 
L 1259 2228 
L 1259 0 
L 628 0 
L 628 4666 
z
" id="DejaVuSans-46" transform="scale(0.015625)"/>
      </defs>
      <use xlink:href="#DejaVuSans-46"/>
      <use x="48.394531" xlink:href="#DejaVuSans-61"/>
      <use x="109.673828" xlink:href="#DejaVuSans-74"/>
      <use x="148.882812" xlink:href="#DejaVuSans-61"/>
      <use x="210.162109" xlink:href="#DejaVuSans-6c"/>
     </g>
    </g>
   </g>
  </g>
 </g>
 <defs>
  <clipPath id="p4a979b5873">
   <rect height="466.924278" width="796.0617" x="53.10875" y="29.118125"/>
  </clipPath>
 </defs>
</svg>
