<?xml version="1.0" encoding="utf-8" standalone="no"?>
<!DOCTYPE svg PUBLIC "-//W3C//DTD SVG 1.1//EN"
  "http://www.w3.org/Graphics/SVG/1.1/DTD/svg11.dtd">
<svg height="570.462488pt" version="1.1" viewBox="0 0 858.685725 570.462488" width="858.685725pt" xmlns="http://www.w3.org/2000/svg" xmlns:xlink="http://www.w3.org/1999/xlink">
 <metadata>
  <rdf:RDF xmlns:cc="http://creativecommons.org/ns#" xmlns:dc="http://purl.org/dc/elements/1.1/" xmlns:rdf="http://www.w3.org/1999/02/22-rdf-syntax-ns#">
   <cc:Work>
    <dc:type rdf:resource="http://purl.org/dc/dcmitype/StillImage"/>
    <dc:date>2021-11-06T01:35:54.346272</dc:date>
    <dc:format>image/svg+xml</dc:format>
    <dc:creator>
     <cc:Agent>
      <dc:title>Matplotlib v3.4.3, https://matplotlib.org/</dc:title>
     </cc:Agent>
    </dc:creator>
   </cc:Work>
  </rdf:RDF>
 </metadata>
 <defs>
  <style type="text/css">*{stroke-linecap:butt;stroke-linejoin:round;}</style>
 </defs>
 <g id="figure_1">
  <g id="patch_1">
   <path d="M 0 570.462488 
L 858.685725 570.462488 
L 858.685725 0 
L 0 0 
z
" style="fill:none;"/>
  </g>
  <g id="axes_1">
   <g id="patch_2">
    <path d="M 52.098125 493.286013 
L 794.191975 493.286013 
L 794.191975 29.118125 
L 52.098125 29.118125 
z
" style="fill:none;"/>
   </g>
   <g id="matplotlib.axis_1">
    <g id="xtick_1">
     <g id="line2d_1">
      <path clip-path="url(#pf62723287f)" d="M 85.829664 493.286013 
L 85.829664 29.118125 
" style="fill:none;stroke:#cccccc;stroke-linecap:round;"/>
     </g>
     <g id="line2d_2">
      <defs>
       <path d="M 0 0 
L 0 6 
" id="m5f8206742d" style="stroke:#262626;stroke-width:1.25;"/>
      </defs>
      <g>
       <use style="fill:#262626;stroke:#262626;stroke-width:1.25;" x="85.829664" xlink:href="#m5f8206742d" y="493.286013"/>
      </g>
     </g>
     <g id="text_1">
      <!-- 29.12.2020 -->
      <g style="fill:#262626;" transform="translate(39.677135 553.231121)rotate(-45)scale(0.11 -0.11)">
       <defs>
        <path d="M 1228 531 
L 3431 531 
L 3431 0 
L 469 0 
L 469 531 
Q 828 903 1448 1529 
Q 2069 2156 2228 2338 
Q 2531 2678 2651 2914 
Q 2772 3150 2772 3378 
Q 2772 3750 2511 3984 
Q 2250 4219 1831 4219 
Q 1534 4219 1204 4116 
Q 875 4013 500 3803 
L 500 4441 
Q 881 4594 1212 4672 
Q 1544 4750 1819 4750 
Q 2544 4750 2975 4387 
Q 3406 4025 3406 3419 
Q 3406 3131 3298 2873 
Q 3191 2616 2906 2266 
Q 2828 2175 2409 1742 
Q 1991 1309 1228 531 
z
" id="DejaVuSans-32" transform="scale(0.015625)"/>
        <path d="M 703 97 
L 703 672 
Q 941 559 1184 500 
Q 1428 441 1663 441 
Q 2288 441 2617 861 
Q 2947 1281 2994 2138 
Q 2813 1869 2534 1725 
Q 2256 1581 1919 1581 
Q 1219 1581 811 2004 
Q 403 2428 403 3163 
Q 403 3881 828 4315 
Q 1253 4750 1959 4750 
Q 2769 4750 3195 4129 
Q 3622 3509 3622 2328 
Q 3622 1225 3098 567 
Q 2575 -91 1691 -91 
Q 1453 -91 1209 -44 
Q 966 3 703 97 
z
M 1959 2075 
Q 2384 2075 2632 2365 
Q 2881 2656 2881 3163 
Q 2881 3666 2632 3958 
Q 2384 4250 1959 4250 
Q 1534 4250 1286 3958 
Q 1038 3666 1038 3163 
Q 1038 2656 1286 2365 
Q 1534 2075 1959 2075 
z
" id="DejaVuSans-39" transform="scale(0.015625)"/>
        <path d="M 684 794 
L 1344 794 
L 1344 0 
L 684 0 
L 684 794 
z
" id="DejaVuSans-2e" transform="scale(0.015625)"/>
        <path d="M 794 531 
L 1825 531 
L 1825 4091 
L 703 3866 
L 703 4441 
L 1819 4666 
L 2450 4666 
L 2450 531 
L 3481 531 
L 3481 0 
L 794 0 
L 794 531 
z
" id="DejaVuSans-31" transform="scale(0.015625)"/>
        <path d="M 2034 4250 
Q 1547 4250 1301 3770 
Q 1056 3291 1056 2328 
Q 1056 1369 1301 889 
Q 1547 409 2034 409 
Q 2525 409 2770 889 
Q 3016 1369 3016 2328 
Q 3016 3291 2770 3770 
Q 2525 4250 2034 4250 
z
M 2034 4750 
Q 2819 4750 3233 4129 
Q 3647 3509 3647 2328 
Q 3647 1150 3233 529 
Q 2819 -91 2034 -91 
Q 1250 -91 836 529 
Q 422 1150 422 2328 
Q 422 3509 836 4129 
Q 1250 4750 2034 4750 
z
" id="DejaVuSans-30" transform="scale(0.015625)"/>
       </defs>
       <use xlink:href="#DejaVuSans-32"/>
       <use x="63.623047" xlink:href="#DejaVuSans-39"/>
       <use x="127.246094" xlink:href="#DejaVuSans-2e"/>
       <use x="159.033203" xlink:href="#DejaVuSans-31"/>
       <use x="222.65625" xlink:href="#DejaVuSans-32"/>
       <use x="286.279297" xlink:href="#DejaVuSans-2e"/>
       <use x="318.066406" xlink:href="#DejaVuSans-32"/>
       <use x="381.689453" xlink:href="#DejaVuSans-30"/>
       <use x="445.3125" xlink:href="#DejaVuSans-32"/>
       <use x="508.935547" xlink:href="#DejaVuSans-30"/>
      </g>
     </g>
    </g>
    <g id="xtick_2">
     <g id="line2d_3">
      <path clip-path="url(#pf62723287f)" d="M 116.198895 493.286013 
L 116.198895 29.118125 
" style="fill:none;stroke:#cccccc;stroke-linecap:round;"/>
     </g>
     <g id="line2d_4">
      <g>
       <use style="fill:#262626;stroke:#262626;stroke-width:1.25;" x="116.198895" xlink:href="#m5f8206742d" y="493.286013"/>
      </g>
     </g>
     <g id="text_2">
      <!-- 12.01.2021 -->
      <g style="fill:#262626;" transform="translate(70.046366 553.231121)rotate(-45)scale(0.11 -0.11)">
       <use xlink:href="#DejaVuSans-31"/>
       <use x="63.623047" xlink:href="#DejaVuSans-32"/>
       <use x="127.246094" xlink:href="#DejaVuSans-2e"/>
       <use x="159.033203" xlink:href="#DejaVuSans-30"/>
       <use x="222.65625" xlink:href="#DejaVuSans-31"/>
       <use x="286.279297" xlink:href="#DejaVuSans-2e"/>
       <use x="318.066406" xlink:href="#DejaVuSans-32"/>
       <use x="381.689453" xlink:href="#DejaVuSans-30"/>
       <use x="445.3125" xlink:href="#DejaVuSans-32"/>
       <use x="508.935547" xlink:href="#DejaVuSans-31"/>
      </g>
     </g>
    </g>
    <g id="xtick_3">
     <g id="line2d_5">
      <path clip-path="url(#pf62723287f)" d="M 146.568125 493.286013 
L 146.568125 29.118125 
" style="fill:none;stroke:#cccccc;stroke-linecap:round;"/>
     </g>
     <g id="line2d_6">
      <g>
       <use style="fill:#262626;stroke:#262626;stroke-width:1.25;" x="146.568125" xlink:href="#m5f8206742d" y="493.286013"/>
      </g>
     </g>
     <g id="text_3">
      <!-- 26.01.2021 -->
      <g style="fill:#262626;" transform="translate(100.415597 553.231121)rotate(-45)scale(0.11 -0.11)">
       <defs>
        <path d="M 2113 2584 
Q 1688 2584 1439 2293 
Q 1191 2003 1191 1497 
Q 1191 994 1439 701 
Q 1688 409 2113 409 
Q 2538 409 2786 701 
Q 3034 994 3034 1497 
Q 3034 2003 2786 2293 
Q 2538 2584 2113 2584 
z
M 3366 4563 
L 3366 3988 
Q 3128 4100 2886 4159 
Q 2644 4219 2406 4219 
Q 1781 4219 1451 3797 
Q 1122 3375 1075 2522 
Q 1259 2794 1537 2939 
Q 1816 3084 2150 3084 
Q 2853 3084 3261 2657 
Q 3669 2231 3669 1497 
Q 3669 778 3244 343 
Q 2819 -91 2113 -91 
Q 1303 -91 875 529 
Q 447 1150 447 2328 
Q 447 3434 972 4092 
Q 1497 4750 2381 4750 
Q 2619 4750 2861 4703 
Q 3103 4656 3366 4563 
z
" id="DejaVuSans-36" transform="scale(0.015625)"/>
       </defs>
       <use xlink:href="#DejaVuSans-32"/>
       <use x="63.623047" xlink:href="#DejaVuSans-36"/>
       <use x="127.246094" xlink:href="#DejaVuSans-2e"/>
       <use x="159.033203" xlink:href="#DejaVuSans-30"/>
       <use x="222.65625" xlink:href="#DejaVuSans-31"/>
       <use x="286.279297" xlink:href="#DejaVuSans-2e"/>
       <use x="318.066406" xlink:href="#DejaVuSans-32"/>
       <use x="381.689453" xlink:href="#DejaVuSans-30"/>
       <use x="445.3125" xlink:href="#DejaVuSans-32"/>
       <use x="508.935547" xlink:href="#DejaVuSans-31"/>
      </g>
     </g>
    </g>
    <g id="xtick_4">
     <g id="line2d_7">
      <path clip-path="url(#pf62723287f)" d="M 176.937356 493.286013 
L 176.937356 29.118125 
" style="fill:none;stroke:#cccccc;stroke-linecap:round;"/>
     </g>
     <g id="line2d_8">
      <g>
       <use style="fill:#262626;stroke:#262626;stroke-width:1.25;" x="176.937356" xlink:href="#m5f8206742d" y="493.286013"/>
      </g>
     </g>
     <g id="text_4">
      <!-- 09.02.2021 -->
      <g style="fill:#262626;" transform="translate(130.784828 553.231121)rotate(-45)scale(0.11 -0.11)">
       <use xlink:href="#DejaVuSans-30"/>
       <use x="63.623047" xlink:href="#DejaVuSans-39"/>
       <use x="127.246094" xlink:href="#DejaVuSans-2e"/>
       <use x="159.033203" xlink:href="#DejaVuSans-30"/>
       <use x="222.65625" xlink:href="#DejaVuSans-32"/>
       <use x="286.279297" xlink:href="#DejaVuSans-2e"/>
       <use x="318.066406" xlink:href="#DejaVuSans-32"/>
       <use x="381.689453" xlink:href="#DejaVuSans-30"/>
       <use x="445.3125" xlink:href="#DejaVuSans-32"/>
       <use x="508.935547" xlink:href="#DejaVuSans-31"/>
      </g>
     </g>
    </g>
    <g id="xtick_5">
     <g id="line2d_9">
      <path clip-path="url(#pf62723287f)" d="M 207.306587 493.286013 
L 207.306587 29.118125 
" style="fill:none;stroke:#cccccc;stroke-linecap:round;"/>
     </g>
     <g id="line2d_10">
      <g>
       <use style="fill:#262626;stroke:#262626;stroke-width:1.25;" x="207.306587" xlink:href="#m5f8206742d" y="493.286013"/>
      </g>
     </g>
     <g id="text_5">
      <!-- 23.02.2021 -->
      <g style="fill:#262626;" transform="translate(161.154059 553.231121)rotate(-45)scale(0.11 -0.11)">
       <defs>
        <path d="M 2597 2516 
Q 3050 2419 3304 2112 
Q 3559 1806 3559 1356 
Q 3559 666 3084 287 
Q 2609 -91 1734 -91 
Q 1441 -91 1130 -33 
Q 819 25 488 141 
L 488 750 
Q 750 597 1062 519 
Q 1375 441 1716 441 
Q 2309 441 2620 675 
Q 2931 909 2931 1356 
Q 2931 1769 2642 2001 
Q 2353 2234 1838 2234 
L 1294 2234 
L 1294 2753 
L 1863 2753 
Q 2328 2753 2575 2939 
Q 2822 3125 2822 3475 
Q 2822 3834 2567 4026 
Q 2313 4219 1838 4219 
Q 1578 4219 1281 4162 
Q 984 4106 628 3988 
L 628 4550 
Q 988 4650 1302 4700 
Q 1616 4750 1894 4750 
Q 2613 4750 3031 4423 
Q 3450 4097 3450 3541 
Q 3450 3153 3228 2886 
Q 3006 2619 2597 2516 
z
" id="DejaVuSans-33" transform="scale(0.015625)"/>
       </defs>
       <use xlink:href="#DejaVuSans-32"/>
       <use x="63.623047" xlink:href="#DejaVuSans-33"/>
       <use x="127.246094" xlink:href="#DejaVuSans-2e"/>
       <use x="159.033203" xlink:href="#DejaVuSans-30"/>
       <use x="222.65625" xlink:href="#DejaVuSans-32"/>
       <use x="286.279297" xlink:href="#DejaVuSans-2e"/>
       <use x="318.066406" xlink:href="#DejaVuSans-32"/>
       <use x="381.689453" xlink:href="#DejaVuSans-30"/>
       <use x="445.3125" xlink:href="#DejaVuSans-32"/>
       <use x="508.935547" xlink:href="#DejaVuSans-31"/>
      </g>
     </g>
    </g>
    <g id="xtick_6">
     <g id="line2d_11">
      <path clip-path="url(#pf62723287f)" d="M 237.675818 493.286013 
L 237.675818 29.118125 
" style="fill:none;stroke:#cccccc;stroke-linecap:round;"/>
     </g>
     <g id="line2d_12">
      <g>
       <use style="fill:#262626;stroke:#262626;stroke-width:1.25;" x="237.675818" xlink:href="#m5f8206742d" y="493.286013"/>
      </g>
     </g>
     <g id="text_6">
      <!-- 09.03.2021 -->
      <g style="fill:#262626;" transform="translate(191.52329 553.231121)rotate(-45)scale(0.11 -0.11)">
       <use xlink:href="#DejaVuSans-30"/>
       <use x="63.623047" xlink:href="#DejaVuSans-39"/>
       <use x="127.246094" xlink:href="#DejaVuSans-2e"/>
       <use x="159.033203" xlink:href="#DejaVuSans-30"/>
       <use x="222.65625" xlink:href="#DejaVuSans-33"/>
       <use x="286.279297" xlink:href="#DejaVuSans-2e"/>
       <use x="318.066406" xlink:href="#DejaVuSans-32"/>
       <use x="381.689453" xlink:href="#DejaVuSans-30"/>
       <use x="445.3125" xlink:href="#DejaVuSans-32"/>
       <use x="508.935547" xlink:href="#DejaVuSans-31"/>
      </g>
     </g>
    </g>
    <g id="xtick_7">
     <g id="line2d_13">
      <path clip-path="url(#pf62723287f)" d="M 268.045049 493.286013 
L 268.045049 29.118125 
" style="fill:none;stroke:#cccccc;stroke-linecap:round;"/>
     </g>
     <g id="line2d_14">
      <g>
       <use style="fill:#262626;stroke:#262626;stroke-width:1.25;" x="268.045049" xlink:href="#m5f8206742d" y="493.286013"/>
      </g>
     </g>
     <g id="text_7">
      <!-- 23.03.2021 -->
      <g style="fill:#262626;" transform="translate(221.892521 553.231121)rotate(-45)scale(0.11 -0.11)">
       <use xlink:href="#DejaVuSans-32"/>
       <use x="63.623047" xlink:href="#DejaVuSans-33"/>
       <use x="127.246094" xlink:href="#DejaVuSans-2e"/>
       <use x="159.033203" xlink:href="#DejaVuSans-30"/>
       <use x="222.65625" xlink:href="#DejaVuSans-33"/>
       <use x="286.279297" xlink:href="#DejaVuSans-2e"/>
       <use x="318.066406" xlink:href="#DejaVuSans-32"/>
       <use x="381.689453" xlink:href="#DejaVuSans-30"/>
       <use x="445.3125" xlink:href="#DejaVuSans-32"/>
       <use x="508.935547" xlink:href="#DejaVuSans-31"/>
      </g>
     </g>
    </g>
    <g id="xtick_8">
     <g id="line2d_15">
      <path clip-path="url(#pf62723287f)" d="M 298.41428 493.286013 
L 298.41428 29.118125 
" style="fill:none;stroke:#cccccc;stroke-linecap:round;"/>
     </g>
     <g id="line2d_16">
      <g>
       <use style="fill:#262626;stroke:#262626;stroke-width:1.25;" x="298.41428" xlink:href="#m5f8206742d" y="493.286013"/>
      </g>
     </g>
     <g id="text_8">
      <!-- 06.04.2021 -->
      <g style="fill:#262626;" transform="translate(252.261752 553.231121)rotate(-45)scale(0.11 -0.11)">
       <defs>
        <path d="M 2419 4116 
L 825 1625 
L 2419 1625 
L 2419 4116 
z
M 2253 4666 
L 3047 4666 
L 3047 1625 
L 3713 1625 
L 3713 1100 
L 3047 1100 
L 3047 0 
L 2419 0 
L 2419 1100 
L 313 1100 
L 313 1709 
L 2253 4666 
z
" id="DejaVuSans-34" transform="scale(0.015625)"/>
       </defs>
       <use xlink:href="#DejaVuSans-30"/>
       <use x="63.623047" xlink:href="#DejaVuSans-36"/>
       <use x="127.246094" xlink:href="#DejaVuSans-2e"/>
       <use x="159.033203" xlink:href="#DejaVuSans-30"/>
       <use x="222.65625" xlink:href="#DejaVuSans-34"/>
       <use x="286.279297" xlink:href="#DejaVuSans-2e"/>
       <use x="318.066406" xlink:href="#DejaVuSans-32"/>
       <use x="381.689453" xlink:href="#DejaVuSans-30"/>
       <use x="445.3125" xlink:href="#DejaVuSans-32"/>
       <use x="508.935547" xlink:href="#DejaVuSans-31"/>
      </g>
     </g>
    </g>
    <g id="xtick_9">
     <g id="line2d_17">
      <path clip-path="url(#pf62723287f)" d="M 328.783511 493.286013 
L 328.783511 29.118125 
" style="fill:none;stroke:#cccccc;stroke-linecap:round;"/>
     </g>
     <g id="line2d_18">
      <g>
       <use style="fill:#262626;stroke:#262626;stroke-width:1.25;" x="328.783511" xlink:href="#m5f8206742d" y="493.286013"/>
      </g>
     </g>
     <g id="text_9">
      <!-- 20.04.2021 -->
      <g style="fill:#262626;" transform="translate(282.630983 553.231121)rotate(-45)scale(0.11 -0.11)">
       <use xlink:href="#DejaVuSans-32"/>
       <use x="63.623047" xlink:href="#DejaVuSans-30"/>
       <use x="127.246094" xlink:href="#DejaVuSans-2e"/>
       <use x="159.033203" xlink:href="#DejaVuSans-30"/>
       <use x="222.65625" xlink:href="#DejaVuSans-34"/>
       <use x="286.279297" xlink:href="#DejaVuSans-2e"/>
       <use x="318.066406" xlink:href="#DejaVuSans-32"/>
       <use x="381.689453" xlink:href="#DejaVuSans-30"/>
       <use x="445.3125" xlink:href="#DejaVuSans-32"/>
       <use x="508.935547" xlink:href="#DejaVuSans-31"/>
      </g>
     </g>
    </g>
    <g id="xtick_10">
     <g id="line2d_19">
      <path clip-path="url(#pf62723287f)" d="M 359.152742 493.286013 
L 359.152742 29.118125 
" style="fill:none;stroke:#cccccc;stroke-linecap:round;"/>
     </g>
     <g id="line2d_20">
      <g>
       <use style="fill:#262626;stroke:#262626;stroke-width:1.25;" x="359.152742" xlink:href="#m5f8206742d" y="493.286013"/>
      </g>
     </g>
     <g id="text_10">
      <!-- 04.05.2021 -->
      <g style="fill:#262626;" transform="translate(313.000214 553.231121)rotate(-45)scale(0.11 -0.11)">
       <defs>
        <path d="M 691 4666 
L 3169 4666 
L 3169 4134 
L 1269 4134 
L 1269 2991 
Q 1406 3038 1543 3061 
Q 1681 3084 1819 3084 
Q 2600 3084 3056 2656 
Q 3513 2228 3513 1497 
Q 3513 744 3044 326 
Q 2575 -91 1722 -91 
Q 1428 -91 1123 -41 
Q 819 9 494 109 
L 494 744 
Q 775 591 1075 516 
Q 1375 441 1709 441 
Q 2250 441 2565 725 
Q 2881 1009 2881 1497 
Q 2881 1984 2565 2268 
Q 2250 2553 1709 2553 
Q 1456 2553 1204 2497 
Q 953 2441 691 2322 
L 691 4666 
z
" id="DejaVuSans-35" transform="scale(0.015625)"/>
       </defs>
       <use xlink:href="#DejaVuSans-30"/>
       <use x="63.623047" xlink:href="#DejaVuSans-34"/>
       <use x="127.246094" xlink:href="#DejaVuSans-2e"/>
       <use x="159.033203" xlink:href="#DejaVuSans-30"/>
       <use x="222.65625" xlink:href="#DejaVuSans-35"/>
       <use x="286.279297" xlink:href="#DejaVuSans-2e"/>
       <use x="318.066406" xlink:href="#DejaVuSans-32"/>
       <use x="381.689453" xlink:href="#DejaVuSans-30"/>
       <use x="445.3125" xlink:href="#DejaVuSans-32"/>
       <use x="508.935547" xlink:href="#DejaVuSans-31"/>
      </g>
     </g>
    </g>
    <g id="xtick_11">
     <g id="line2d_21">
      <path clip-path="url(#pf62723287f)" d="M 389.521973 493.286013 
L 389.521973 29.118125 
" style="fill:none;stroke:#cccccc;stroke-linecap:round;"/>
     </g>
     <g id="line2d_22">
      <g>
       <use style="fill:#262626;stroke:#262626;stroke-width:1.25;" x="389.521973" xlink:href="#m5f8206742d" y="493.286013"/>
      </g>
     </g>
     <g id="text_11">
      <!-- 18.05.2021 -->
      <g style="fill:#262626;" transform="translate(343.369445 553.231121)rotate(-45)scale(0.11 -0.11)">
       <defs>
        <path d="M 2034 2216 
Q 1584 2216 1326 1975 
Q 1069 1734 1069 1313 
Q 1069 891 1326 650 
Q 1584 409 2034 409 
Q 2484 409 2743 651 
Q 3003 894 3003 1313 
Q 3003 1734 2745 1975 
Q 2488 2216 2034 2216 
z
M 1403 2484 
Q 997 2584 770 2862 
Q 544 3141 544 3541 
Q 544 4100 942 4425 
Q 1341 4750 2034 4750 
Q 2731 4750 3128 4425 
Q 3525 4100 3525 3541 
Q 3525 3141 3298 2862 
Q 3072 2584 2669 2484 
Q 3125 2378 3379 2068 
Q 3634 1759 3634 1313 
Q 3634 634 3220 271 
Q 2806 -91 2034 -91 
Q 1263 -91 848 271 
Q 434 634 434 1313 
Q 434 1759 690 2068 
Q 947 2378 1403 2484 
z
M 1172 3481 
Q 1172 3119 1398 2916 
Q 1625 2713 2034 2713 
Q 2441 2713 2670 2916 
Q 2900 3119 2900 3481 
Q 2900 3844 2670 4047 
Q 2441 4250 2034 4250 
Q 1625 4250 1398 4047 
Q 1172 3844 1172 3481 
z
" id="DejaVuSans-38" transform="scale(0.015625)"/>
       </defs>
       <use xlink:href="#DejaVuSans-31"/>
       <use x="63.623047" xlink:href="#DejaVuSans-38"/>
       <use x="127.246094" xlink:href="#DejaVuSans-2e"/>
       <use x="159.033203" xlink:href="#DejaVuSans-30"/>
       <use x="222.65625" xlink:href="#DejaVuSans-35"/>
       <use x="286.279297" xlink:href="#DejaVuSans-2e"/>
       <use x="318.066406" xlink:href="#DejaVuSans-32"/>
       <use x="381.689453" xlink:href="#DejaVuSans-30"/>
       <use x="445.3125" xlink:href="#DejaVuSans-32"/>
       <use x="508.935547" xlink:href="#DejaVuSans-31"/>
      </g>
     </g>
    </g>
    <g id="xtick_12">
     <g id="line2d_23">
      <path clip-path="url(#pf62723287f)" d="M 419.891204 493.286013 
L 419.891204 29.118125 
" style="fill:none;stroke:#cccccc;stroke-linecap:round;"/>
     </g>
     <g id="line2d_24">
      <g>
       <use style="fill:#262626;stroke:#262626;stroke-width:1.25;" x="419.891204" xlink:href="#m5f8206742d" y="493.286013"/>
      </g>
     </g>
     <g id="text_12">
      <!-- 01.06.2021 -->
      <g style="fill:#262626;" transform="translate(373.738676 553.231121)rotate(-45)scale(0.11 -0.11)">
       <use xlink:href="#DejaVuSans-30"/>
       <use x="63.623047" xlink:href="#DejaVuSans-31"/>
       <use x="127.246094" xlink:href="#DejaVuSans-2e"/>
       <use x="159.033203" xlink:href="#DejaVuSans-30"/>
       <use x="222.65625" xlink:href="#DejaVuSans-36"/>
       <use x="286.279297" xlink:href="#DejaVuSans-2e"/>
       <use x="318.066406" xlink:href="#DejaVuSans-32"/>
       <use x="381.689453" xlink:href="#DejaVuSans-30"/>
       <use x="445.3125" xlink:href="#DejaVuSans-32"/>
       <use x="508.935547" xlink:href="#DejaVuSans-31"/>
      </g>
     </g>
    </g>
    <g id="xtick_13">
     <g id="line2d_25">
      <path clip-path="url(#pf62723287f)" d="M 450.260435 493.286013 
L 450.260435 29.118125 
" style="fill:none;stroke:#cccccc;stroke-linecap:round;"/>
     </g>
     <g id="line2d_26">
      <g>
       <use style="fill:#262626;stroke:#262626;stroke-width:1.25;" x="450.260435" xlink:href="#m5f8206742d" y="493.286013"/>
      </g>
     </g>
     <g id="text_13">
      <!-- 15.06.2021 -->
      <g style="fill:#262626;" transform="translate(404.107907 553.231121)rotate(-45)scale(0.11 -0.11)">
       <use xlink:href="#DejaVuSans-31"/>
       <use x="63.623047" xlink:href="#DejaVuSans-35"/>
       <use x="127.246094" xlink:href="#DejaVuSans-2e"/>
       <use x="159.033203" xlink:href="#DejaVuSans-30"/>
       <use x="222.65625" xlink:href="#DejaVuSans-36"/>
       <use x="286.279297" xlink:href="#DejaVuSans-2e"/>
       <use x="318.066406" xlink:href="#DejaVuSans-32"/>
       <use x="381.689453" xlink:href="#DejaVuSans-30"/>
       <use x="445.3125" xlink:href="#DejaVuSans-32"/>
       <use x="508.935547" xlink:href="#DejaVuSans-31"/>
      </g>
     </g>
    </g>
    <g id="xtick_14">
     <g id="line2d_27">
      <path clip-path="url(#pf62723287f)" d="M 480.629666 493.286013 
L 480.629666 29.118125 
" style="fill:none;stroke:#cccccc;stroke-linecap:round;"/>
     </g>
     <g id="line2d_28">
      <g>
       <use style="fill:#262626;stroke:#262626;stroke-width:1.25;" x="480.629666" xlink:href="#m5f8206742d" y="493.286013"/>
      </g>
     </g>
     <g id="text_14">
      <!-- 29.06.2021 -->
      <g style="fill:#262626;" transform="translate(434.477138 553.231121)rotate(-45)scale(0.11 -0.11)">
       <use xlink:href="#DejaVuSans-32"/>
       <use x="63.623047" xlink:href="#DejaVuSans-39"/>
       <use x="127.246094" xlink:href="#DejaVuSans-2e"/>
       <use x="159.033203" xlink:href="#DejaVuSans-30"/>
       <use x="222.65625" xlink:href="#DejaVuSans-36"/>
       <use x="286.279297" xlink:href="#DejaVuSans-2e"/>
       <use x="318.066406" xlink:href="#DejaVuSans-32"/>
       <use x="381.689453" xlink:href="#DejaVuSans-30"/>
       <use x="445.3125" xlink:href="#DejaVuSans-32"/>
       <use x="508.935547" xlink:href="#DejaVuSans-31"/>
      </g>
     </g>
    </g>
    <g id="xtick_15">
     <g id="line2d_29">
      <path clip-path="url(#pf62723287f)" d="M 510.998897 493.286013 
L 510.998897 29.118125 
" style="fill:none;stroke:#cccccc;stroke-linecap:round;"/>
     </g>
     <g id="line2d_30">
      <g>
       <use style="fill:#262626;stroke:#262626;stroke-width:1.25;" x="510.998897" xlink:href="#m5f8206742d" y="493.286013"/>
      </g>
     </g>
     <g id="text_15">
      <!-- 13.07.2021 -->
      <g style="fill:#262626;" transform="translate(464.846368 553.231121)rotate(-45)scale(0.11 -0.11)">
       <defs>
        <path d="M 525 4666 
L 3525 4666 
L 3525 4397 
L 1831 0 
L 1172 0 
L 2766 4134 
L 525 4134 
L 525 4666 
z
" id="DejaVuSans-37" transform="scale(0.015625)"/>
       </defs>
       <use xlink:href="#DejaVuSans-31"/>
       <use x="63.623047" xlink:href="#DejaVuSans-33"/>
       <use x="127.246094" xlink:href="#DejaVuSans-2e"/>
       <use x="159.033203" xlink:href="#DejaVuSans-30"/>
       <use x="222.65625" xlink:href="#DejaVuSans-37"/>
       <use x="286.279297" xlink:href="#DejaVuSans-2e"/>
       <use x="318.066406" xlink:href="#DejaVuSans-32"/>
       <use x="381.689453" xlink:href="#DejaVuSans-30"/>
       <use x="445.3125" xlink:href="#DejaVuSans-32"/>
       <use x="508.935547" xlink:href="#DejaVuSans-31"/>
      </g>
     </g>
    </g>
    <g id="xtick_16">
     <g id="line2d_31">
      <path clip-path="url(#pf62723287f)" d="M 541.368128 493.286013 
L 541.368128 29.118125 
" style="fill:none;stroke:#cccccc;stroke-linecap:round;"/>
     </g>
     <g id="line2d_32">
      <g>
       <use style="fill:#262626;stroke:#262626;stroke-width:1.25;" x="541.368128" xlink:href="#m5f8206742d" y="493.286013"/>
      </g>
     </g>
     <g id="text_16">
      <!-- 27.07.2021 -->
      <g style="fill:#262626;" transform="translate(495.215599 553.231121)rotate(-45)scale(0.11 -0.11)">
       <use xlink:href="#DejaVuSans-32"/>
       <use x="63.623047" xlink:href="#DejaVuSans-37"/>
       <use x="127.246094" xlink:href="#DejaVuSans-2e"/>
       <use x="159.033203" xlink:href="#DejaVuSans-30"/>
       <use x="222.65625" xlink:href="#DejaVuSans-37"/>
       <use x="286.279297" xlink:href="#DejaVuSans-2e"/>
       <use x="318.066406" xlink:href="#DejaVuSans-32"/>
       <use x="381.689453" xlink:href="#DejaVuSans-30"/>
       <use x="445.3125" xlink:href="#DejaVuSans-32"/>
       <use x="508.935547" xlink:href="#DejaVuSans-31"/>
      </g>
     </g>
    </g>
    <g id="xtick_17">
     <g id="line2d_33">
      <path clip-path="url(#pf62723287f)" d="M 571.737358 493.286013 
L 571.737358 29.118125 
" style="fill:none;stroke:#cccccc;stroke-linecap:round;"/>
     </g>
     <g id="line2d_34">
      <g>
       <use style="fill:#262626;stroke:#262626;stroke-width:1.25;" x="571.737358" xlink:href="#m5f8206742d" y="493.286013"/>
      </g>
     </g>
     <g id="text_17">
      <!-- 10.08.2021 -->
      <g style="fill:#262626;" transform="translate(525.58483 553.231121)rotate(-45)scale(0.11 -0.11)">
       <use xlink:href="#DejaVuSans-31"/>
       <use x="63.623047" xlink:href="#DejaVuSans-30"/>
       <use x="127.246094" xlink:href="#DejaVuSans-2e"/>
       <use x="159.033203" xlink:href="#DejaVuSans-30"/>
       <use x="222.65625" xlink:href="#DejaVuSans-38"/>
       <use x="286.279297" xlink:href="#DejaVuSans-2e"/>
       <use x="318.066406" xlink:href="#DejaVuSans-32"/>
       <use x="381.689453" xlink:href="#DejaVuSans-30"/>
       <use x="445.3125" xlink:href="#DejaVuSans-32"/>
       <use x="508.935547" xlink:href="#DejaVuSans-31"/>
      </g>
     </g>
    </g>
    <g id="xtick_18">
     <g id="line2d_35">
      <path clip-path="url(#pf62723287f)" d="M 602.106589 493.286013 
L 602.106589 29.118125 
" style="fill:none;stroke:#cccccc;stroke-linecap:round;"/>
     </g>
     <g id="line2d_36">
      <g>
       <use style="fill:#262626;stroke:#262626;stroke-width:1.25;" x="602.106589" xlink:href="#m5f8206742d" y="493.286013"/>
      </g>
     </g>
     <g id="text_18">
      <!-- 24.08.2021 -->
      <g style="fill:#262626;" transform="translate(555.954061 553.231121)rotate(-45)scale(0.11 -0.11)">
       <use xlink:href="#DejaVuSans-32"/>
       <use x="63.623047" xlink:href="#DejaVuSans-34"/>
       <use x="127.246094" xlink:href="#DejaVuSans-2e"/>
       <use x="159.033203" xlink:href="#DejaVuSans-30"/>
       <use x="222.65625" xlink:href="#DejaVuSans-38"/>
       <use x="286.279297" xlink:href="#DejaVuSans-2e"/>
       <use x="318.066406" xlink:href="#DejaVuSans-32"/>
       <use x="381.689453" xlink:href="#DejaVuSans-30"/>
       <use x="445.3125" xlink:href="#DejaVuSans-32"/>
       <use x="508.935547" xlink:href="#DejaVuSans-31"/>
      </g>
     </g>
    </g>
    <g id="xtick_19">
     <g id="line2d_37">
      <path clip-path="url(#pf62723287f)" d="M 632.47582 493.286013 
L 632.47582 29.118125 
" style="fill:none;stroke:#cccccc;stroke-linecap:round;"/>
     </g>
     <g id="line2d_38">
      <g>
       <use style="fill:#262626;stroke:#262626;stroke-width:1.25;" x="632.47582" xlink:href="#m5f8206742d" y="493.286013"/>
      </g>
     </g>
     <g id="text_19">
      <!-- 07.09.2021 -->
      <g style="fill:#262626;" transform="translate(586.323292 553.231121)rotate(-45)scale(0.11 -0.11)">
       <use xlink:href="#DejaVuSans-30"/>
       <use x="63.623047" xlink:href="#DejaVuSans-37"/>
       <use x="127.246094" xlink:href="#DejaVuSans-2e"/>
       <use x="159.033203" xlink:href="#DejaVuSans-30"/>
       <use x="222.65625" xlink:href="#DejaVuSans-39"/>
       <use x="286.279297" xlink:href="#DejaVuSans-2e"/>
       <use x="318.066406" xlink:href="#DejaVuSans-32"/>
       <use x="381.689453" xlink:href="#DejaVuSans-30"/>
       <use x="445.3125" xlink:href="#DejaVuSans-32"/>
       <use x="508.935547" xlink:href="#DejaVuSans-31"/>
      </g>
     </g>
    </g>
    <g id="xtick_20">
     <g id="line2d_39">
      <path clip-path="url(#pf62723287f)" d="M 662.845051 493.286013 
L 662.845051 29.118125 
" style="fill:none;stroke:#cccccc;stroke-linecap:round;"/>
     </g>
     <g id="line2d_40">
      <g>
       <use style="fill:#262626;stroke:#262626;stroke-width:1.25;" x="662.845051" xlink:href="#m5f8206742d" y="493.286013"/>
      </g>
     </g>
     <g id="text_20">
      <!-- 21.09.2021 -->
      <g style="fill:#262626;" transform="translate(616.692523 553.231121)rotate(-45)scale(0.11 -0.11)">
       <use xlink:href="#DejaVuSans-32"/>
       <use x="63.623047" xlink:href="#DejaVuSans-31"/>
       <use x="127.246094" xlink:href="#DejaVuSans-2e"/>
       <use x="159.033203" xlink:href="#DejaVuSans-30"/>
       <use x="222.65625" xlink:href="#DejaVuSans-39"/>
       <use x="286.279297" xlink:href="#DejaVuSans-2e"/>
       <use x="318.066406" xlink:href="#DejaVuSans-32"/>
       <use x="381.689453" xlink:href="#DejaVuSans-30"/>
       <use x="445.3125" xlink:href="#DejaVuSans-32"/>
       <use x="508.935547" xlink:href="#DejaVuSans-31"/>
      </g>
     </g>
    </g>
    <g id="xtick_21">
     <g id="line2d_41">
      <path clip-path="url(#pf62723287f)" d="M 693.214282 493.286013 
L 693.214282 29.118125 
" style="fill:none;stroke:#cccccc;stroke-linecap:round;"/>
     </g>
     <g id="line2d_42">
      <g>
       <use style="fill:#262626;stroke:#262626;stroke-width:1.25;" x="693.214282" xlink:href="#m5f8206742d" y="493.286013"/>
      </g>
     </g>
     <g id="text_21">
      <!-- 05.10.2021 -->
      <g style="fill:#262626;" transform="translate(647.061754 553.231121)rotate(-45)scale(0.11 -0.11)">
       <use xlink:href="#DejaVuSans-30"/>
       <use x="63.623047" xlink:href="#DejaVuSans-35"/>
       <use x="127.246094" xlink:href="#DejaVuSans-2e"/>
       <use x="159.033203" xlink:href="#DejaVuSans-31"/>
       <use x="222.65625" xlink:href="#DejaVuSans-30"/>
       <use x="286.279297" xlink:href="#DejaVuSans-2e"/>
       <use x="318.066406" xlink:href="#DejaVuSans-32"/>
       <use x="381.689453" xlink:href="#DejaVuSans-30"/>
       <use x="445.3125" xlink:href="#DejaVuSans-32"/>
       <use x="508.935547" xlink:href="#DejaVuSans-31"/>
      </g>
     </g>
    </g>
    <g id="xtick_22">
     <g id="line2d_43">
      <path clip-path="url(#pf62723287f)" d="M 723.583513 493.286013 
L 723.583513 29.118125 
" style="fill:none;stroke:#cccccc;stroke-linecap:round;"/>
     </g>
     <g id="line2d_44">
      <g>
       <use style="fill:#262626;stroke:#262626;stroke-width:1.25;" x="723.583513" xlink:href="#m5f8206742d" y="493.286013"/>
      </g>
     </g>
     <g id="text_22">
      <!-- 19.10.2021 -->
      <g style="fill:#262626;" transform="translate(677.430985 553.231121)rotate(-45)scale(0.11 -0.11)">
       <use xlink:href="#DejaVuSans-31"/>
       <use x="63.623047" xlink:href="#DejaVuSans-39"/>
       <use x="127.246094" xlink:href="#DejaVuSans-2e"/>
       <use x="159.033203" xlink:href="#DejaVuSans-31"/>
       <use x="222.65625" xlink:href="#DejaVuSans-30"/>
       <use x="286.279297" xlink:href="#DejaVuSans-2e"/>
       <use x="318.066406" xlink:href="#DejaVuSans-32"/>
       <use x="381.689453" xlink:href="#DejaVuSans-30"/>
       <use x="445.3125" xlink:href="#DejaVuSans-32"/>
       <use x="508.935547" xlink:href="#DejaVuSans-31"/>
      </g>
     </g>
    </g>
    <g id="xtick_23">
     <g id="line2d_45">
      <path clip-path="url(#pf62723287f)" d="M 753.952744 493.286013 
L 753.952744 29.118125 
" style="fill:none;stroke:#cccccc;stroke-linecap:round;"/>
     </g>
     <g id="line2d_46">
      <g>
       <use style="fill:#262626;stroke:#262626;stroke-width:1.25;" x="753.952744" xlink:href="#m5f8206742d" y="493.286013"/>
      </g>
     </g>
     <g id="text_23">
      <!-- 02.11.2021 -->
      <g style="fill:#262626;" transform="translate(707.800216 553.231121)rotate(-45)scale(0.11 -0.11)">
       <use xlink:href="#DejaVuSans-30"/>
       <use x="63.623047" xlink:href="#DejaVuSans-32"/>
       <use x="127.246094" xlink:href="#DejaVuSans-2e"/>
       <use x="159.033203" xlink:href="#DejaVuSans-31"/>
       <use x="222.65625" xlink:href="#DejaVuSans-31"/>
       <use x="286.279297" xlink:href="#DejaVuSans-2e"/>
       <use x="318.066406" xlink:href="#DejaVuSans-32"/>
       <use x="381.689453" xlink:href="#DejaVuSans-30"/>
       <use x="445.3125" xlink:href="#DejaVuSans-32"/>
       <use x="508.935547" xlink:href="#DejaVuSans-31"/>
      </g>
     </g>
    </g>
    <g id="xtick_24">
     <g id="line2d_47">
      <defs>
       <path d="M 0 0 
L 0 4 
" id="m0a4e5c1eb0" style="stroke:#262626;"/>
      </defs>
      <g>
       <use style="fill:#262626;stroke:#262626;" x="64.137356" xlink:href="#m0a4e5c1eb0" y="493.286013"/>
      </g>
     </g>
    </g>
    <g id="xtick_25">
     <g id="line2d_48">
      <g>
       <use style="fill:#262626;stroke:#262626;" x="79.321971" xlink:href="#m0a4e5c1eb0" y="493.286013"/>
      </g>
     </g>
    </g>
    <g id="xtick_26">
     <g id="line2d_49">
      <g>
       <use style="fill:#262626;stroke:#262626;" x="94.506587" xlink:href="#m0a4e5c1eb0" y="493.286013"/>
      </g>
     </g>
    </g>
    <g id="xtick_27">
     <g id="line2d_50">
      <g>
       <use style="fill:#262626;stroke:#262626;" x="109.691202" xlink:href="#m0a4e5c1eb0" y="493.286013"/>
      </g>
     </g>
    </g>
    <g id="xtick_28">
     <g id="line2d_51">
      <g>
       <use style="fill:#262626;stroke:#262626;" x="124.875818" xlink:href="#m0a4e5c1eb0" y="493.286013"/>
      </g>
     </g>
    </g>
    <g id="xtick_29">
     <g id="line2d_52">
      <g>
       <use style="fill:#262626;stroke:#262626;" x="140.060433" xlink:href="#m0a4e5c1eb0" y="493.286013"/>
      </g>
     </g>
    </g>
    <g id="xtick_30">
     <g id="line2d_53">
      <g>
       <use style="fill:#262626;stroke:#262626;" x="155.245049" xlink:href="#m0a4e5c1eb0" y="493.286013"/>
      </g>
     </g>
    </g>
    <g id="xtick_31">
     <g id="line2d_54">
      <g>
       <use style="fill:#262626;stroke:#262626;" x="170.429664" xlink:href="#m0a4e5c1eb0" y="493.286013"/>
      </g>
     </g>
    </g>
    <g id="xtick_32">
     <g id="line2d_55">
      <g>
       <use style="fill:#262626;stroke:#262626;" x="185.61428" xlink:href="#m0a4e5c1eb0" y="493.286013"/>
      </g>
     </g>
    </g>
    <g id="xtick_33">
     <g id="line2d_56">
      <g>
       <use style="fill:#262626;stroke:#262626;" x="200.798895" xlink:href="#m0a4e5c1eb0" y="493.286013"/>
      </g>
     </g>
    </g>
    <g id="xtick_34">
     <g id="line2d_57">
      <g>
       <use style="fill:#262626;stroke:#262626;" x="215.98351" xlink:href="#m0a4e5c1eb0" y="493.286013"/>
      </g>
     </g>
    </g>
    <g id="xtick_35">
     <g id="line2d_58">
      <g>
       <use style="fill:#262626;stroke:#262626;" x="231.168126" xlink:href="#m0a4e5c1eb0" y="493.286013"/>
      </g>
     </g>
    </g>
    <g id="xtick_36">
     <g id="line2d_59">
      <g>
       <use style="fill:#262626;stroke:#262626;" x="246.352741" xlink:href="#m0a4e5c1eb0" y="493.286013"/>
      </g>
     </g>
    </g>
    <g id="xtick_37">
     <g id="line2d_60">
      <g>
       <use style="fill:#262626;stroke:#262626;" x="261.537357" xlink:href="#m0a4e5c1eb0" y="493.286013"/>
      </g>
     </g>
    </g>
    <g id="xtick_38">
     <g id="line2d_61">
      <g>
       <use style="fill:#262626;stroke:#262626;" x="276.721972" xlink:href="#m0a4e5c1eb0" y="493.286013"/>
      </g>
     </g>
    </g>
    <g id="xtick_39">
     <g id="line2d_62">
      <g>
       <use style="fill:#262626;stroke:#262626;" x="291.906588" xlink:href="#m0a4e5c1eb0" y="493.286013"/>
      </g>
     </g>
    </g>
    <g id="xtick_40">
     <g id="line2d_63">
      <g>
       <use style="fill:#262626;stroke:#262626;" x="307.091203" xlink:href="#m0a4e5c1eb0" y="493.286013"/>
      </g>
     </g>
    </g>
    <g id="xtick_41">
     <g id="line2d_64">
      <g>
       <use style="fill:#262626;stroke:#262626;" x="322.275819" xlink:href="#m0a4e5c1eb0" y="493.286013"/>
      </g>
     </g>
    </g>
    <g id="xtick_42">
     <g id="line2d_65">
      <g>
       <use style="fill:#262626;stroke:#262626;" x="337.460434" xlink:href="#m0a4e5c1eb0" y="493.286013"/>
      </g>
     </g>
    </g>
    <g id="xtick_43">
     <g id="line2d_66">
      <g>
       <use style="fill:#262626;stroke:#262626;" x="352.64505" xlink:href="#m0a4e5c1eb0" y="493.286013"/>
      </g>
     </g>
    </g>
    <g id="xtick_44">
     <g id="line2d_67">
      <g>
       <use style="fill:#262626;stroke:#262626;" x="367.829665" xlink:href="#m0a4e5c1eb0" y="493.286013"/>
      </g>
     </g>
    </g>
    <g id="xtick_45">
     <g id="line2d_68">
      <g>
       <use style="fill:#262626;stroke:#262626;" x="383.014281" xlink:href="#m0a4e5c1eb0" y="493.286013"/>
      </g>
     </g>
    </g>
    <g id="xtick_46">
     <g id="line2d_69">
      <g>
       <use style="fill:#262626;stroke:#262626;" x="398.198896" xlink:href="#m0a4e5c1eb0" y="493.286013"/>
      </g>
     </g>
    </g>
    <g id="xtick_47">
     <g id="line2d_70">
      <g>
       <use style="fill:#262626;stroke:#262626;" x="413.383511" xlink:href="#m0a4e5c1eb0" y="493.286013"/>
      </g>
     </g>
    </g>
    <g id="xtick_48">
     <g id="line2d_71">
      <g>
       <use style="fill:#262626;stroke:#262626;" x="428.568127" xlink:href="#m0a4e5c1eb0" y="493.286013"/>
      </g>
     </g>
    </g>
    <g id="xtick_49">
     <g id="line2d_72">
      <g>
       <use style="fill:#262626;stroke:#262626;" x="443.752742" xlink:href="#m0a4e5c1eb0" y="493.286013"/>
      </g>
     </g>
    </g>
    <g id="xtick_50">
     <g id="line2d_73">
      <g>
       <use style="fill:#262626;stroke:#262626;" x="458.937358" xlink:href="#m0a4e5c1eb0" y="493.286013"/>
      </g>
     </g>
    </g>
    <g id="xtick_51">
     <g id="line2d_74">
      <g>
       <use style="fill:#262626;stroke:#262626;" x="474.121973" xlink:href="#m0a4e5c1eb0" y="493.286013"/>
      </g>
     </g>
    </g>
    <g id="xtick_52">
     <g id="line2d_75">
      <g>
       <use style="fill:#262626;stroke:#262626;" x="489.306589" xlink:href="#m0a4e5c1eb0" y="493.286013"/>
      </g>
     </g>
    </g>
    <g id="xtick_53">
     <g id="line2d_76">
      <g>
       <use style="fill:#262626;stroke:#262626;" x="504.491204" xlink:href="#m0a4e5c1eb0" y="493.286013"/>
      </g>
     </g>
    </g>
    <g id="xtick_54">
     <g id="line2d_77">
      <g>
       <use style="fill:#262626;stroke:#262626;" x="519.67582" xlink:href="#m0a4e5c1eb0" y="493.286013"/>
      </g>
     </g>
    </g>
    <g id="xtick_55">
     <g id="line2d_78">
      <g>
       <use style="fill:#262626;stroke:#262626;" x="534.860435" xlink:href="#m0a4e5c1eb0" y="493.286013"/>
      </g>
     </g>
    </g>
    <g id="xtick_56">
     <g id="line2d_79">
      <g>
       <use style="fill:#262626;stroke:#262626;" x="550.045051" xlink:href="#m0a4e5c1eb0" y="493.286013"/>
      </g>
     </g>
    </g>
    <g id="xtick_57">
     <g id="line2d_80">
      <g>
       <use style="fill:#262626;stroke:#262626;" x="565.229666" xlink:href="#m0a4e5c1eb0" y="493.286013"/>
      </g>
     </g>
    </g>
    <g id="xtick_58">
     <g id="line2d_81">
      <g>
       <use style="fill:#262626;stroke:#262626;" x="580.414282" xlink:href="#m0a4e5c1eb0" y="493.286013"/>
      </g>
     </g>
    </g>
    <g id="xtick_59">
     <g id="line2d_82">
      <g>
       <use style="fill:#262626;stroke:#262626;" x="595.598897" xlink:href="#m0a4e5c1eb0" y="493.286013"/>
      </g>
     </g>
    </g>
    <g id="xtick_60">
     <g id="line2d_83">
      <g>
       <use style="fill:#262626;stroke:#262626;" x="610.783513" xlink:href="#m0a4e5c1eb0" y="493.286013"/>
      </g>
     </g>
    </g>
    <g id="xtick_61">
     <g id="line2d_84">
      <g>
       <use style="fill:#262626;stroke:#262626;" x="625.968128" xlink:href="#m0a4e5c1eb0" y="493.286013"/>
      </g>
     </g>
    </g>
    <g id="xtick_62">
     <g id="line2d_85">
      <g>
       <use style="fill:#262626;stroke:#262626;" x="641.152743" xlink:href="#m0a4e5c1eb0" y="493.286013"/>
      </g>
     </g>
    </g>
    <g id="xtick_63">
     <g id="line2d_86">
      <g>
       <use style="fill:#262626;stroke:#262626;" x="656.337359" xlink:href="#m0a4e5c1eb0" y="493.286013"/>
      </g>
     </g>
    </g>
    <g id="xtick_64">
     <g id="line2d_87">
      <g>
       <use style="fill:#262626;stroke:#262626;" x="671.521974" xlink:href="#m0a4e5c1eb0" y="493.286013"/>
      </g>
     </g>
    </g>
    <g id="xtick_65">
     <g id="line2d_88">
      <g>
       <use style="fill:#262626;stroke:#262626;" x="686.70659" xlink:href="#m0a4e5c1eb0" y="493.286013"/>
      </g>
     </g>
    </g>
    <g id="xtick_66">
     <g id="line2d_89">
      <g>
       <use style="fill:#262626;stroke:#262626;" x="701.891205" xlink:href="#m0a4e5c1eb0" y="493.286013"/>
      </g>
     </g>
    </g>
    <g id="xtick_67">
     <g id="line2d_90">
      <g>
       <use style="fill:#262626;stroke:#262626;" x="717.075821" xlink:href="#m0a4e5c1eb0" y="493.286013"/>
      </g>
     </g>
    </g>
    <g id="xtick_68">
     <g id="line2d_91">
      <g>
       <use style="fill:#262626;stroke:#262626;" x="732.260436" xlink:href="#m0a4e5c1eb0" y="493.286013"/>
      </g>
     </g>
    </g>
    <g id="xtick_69">
     <g id="line2d_92">
      <g>
       <use style="fill:#262626;stroke:#262626;" x="747.445052" xlink:href="#m0a4e5c1eb0" y="493.286013"/>
      </g>
     </g>
    </g>
    <g id="xtick_70">
     <g id="line2d_93">
      <g>
       <use style="fill:#262626;stroke:#262626;" x="762.629667" xlink:href="#m0a4e5c1eb0" y="493.286013"/>
      </g>
     </g>
    </g>
    <g id="xtick_71">
     <g id="line2d_94">
      <g>
       <use style="fill:#262626;stroke:#262626;" x="777.814283" xlink:href="#m0a4e5c1eb0" y="493.286013"/>
      </g>
     </g>
    </g>
    <g id="xtick_72">
     <g id="line2d_95">
      <g>
       <use style="fill:#262626;stroke:#262626;" x="792.998898" xlink:href="#m0a4e5c1eb0" y="493.286013"/>
      </g>
     </g>
    </g>
    <g id="text_24">
     <!-- Дата -->
     <g style="fill:#262626;" transform="translate(407.6088 567.966863)scale(0.12 -0.12)">
      <defs>
       <path d="M 1459 531 
L 3522 531 
L 3522 4134 
L 2006 4134 
L 2006 3472 
Q 2006 1913 1656 878 
Q 1584 666 1459 531 
z
M 538 531 
Q 956 728 1075 1103 
Q 1378 2066 1378 3784 
L 1378 4666 
L 4153 4666 
L 4153 531 
L 4684 531 
L 4684 -1003 
L 4153 -1003 
L 4153 0 
L 847 0 
L 847 -1003 
L 316 -1003 
L 316 531 
L 538 531 
z
" id="DejaVuSans-414" transform="scale(0.015625)"/>
       <path d="M 2194 1759 
Q 1497 1759 1228 1600 
Q 959 1441 959 1056 
Q 959 750 1161 570 
Q 1363 391 1709 391 
Q 2188 391 2477 730 
Q 2766 1069 2766 1631 
L 2766 1759 
L 2194 1759 
z
M 3341 1997 
L 3341 0 
L 2766 0 
L 2766 531 
Q 2569 213 2275 61 
Q 1981 -91 1556 -91 
Q 1019 -91 701 211 
Q 384 513 384 1019 
Q 384 1609 779 1909 
Q 1175 2209 1959 2209 
L 2766 2209 
L 2766 2266 
Q 2766 2663 2505 2880 
Q 2244 3097 1772 3097 
Q 1472 3097 1187 3025 
Q 903 2953 641 2809 
L 641 3341 
Q 956 3463 1253 3523 
Q 1550 3584 1831 3584 
Q 2591 3584 2966 3190 
Q 3341 2797 3341 1997 
z
" id="DejaVuSans-430" transform="scale(0.015625)"/>
       <path d="M 188 3500 
L 3541 3500 
L 3541 3041 
L 2147 3041 
L 2147 0 
L 1581 0 
L 1581 3041 
L 188 3041 
L 188 3500 
z
" id="DejaVuSans-442" transform="scale(0.015625)"/>
      </defs>
      <use xlink:href="#DejaVuSans-414"/>
      <use x="78.125" xlink:href="#DejaVuSans-430"/>
      <use x="139.404297" xlink:href="#DejaVuSans-442"/>
      <use x="197.65625" xlink:href="#DejaVuSans-430"/>
     </g>
    </g>
   </g>
   <g id="matplotlib.axis_2">
    <g id="ytick_1">
     <g id="line2d_96">
      <path clip-path="url(#pf62723287f)" d="M 52.098125 472.748293 
L 794.191975 472.748293 
" style="fill:none;stroke:#cccccc;stroke-linecap:round;"/>
     </g>
     <g id="line2d_97">
      <defs>
       <path d="M 0 0 
L -6 0 
" id="m1b79d80c42" style="stroke:#262626;stroke-width:1.25;"/>
      </defs>
      <g>
       <use style="fill:#262626;stroke:#262626;stroke-width:1.25;" x="52.098125" xlink:href="#m1b79d80c42" y="472.748293"/>
      </g>
     </g>
     <g id="text_25">
      <!-- 0.0M -->
      <g style="fill:#262626;" transform="translate(15.61375 476.927433)scale(0.11 -0.11)">
       <defs>
        <path d="M 628 4666 
L 1569 4666 
L 2759 1491 
L 3956 4666 
L 4897 4666 
L 4897 0 
L 4281 0 
L 4281 4097 
L 3078 897 
L 2444 897 
L 1241 4097 
L 1241 0 
L 628 0 
L 628 4666 
z
" id="DejaVuSans-4d" transform="scale(0.015625)"/>
       </defs>
       <use xlink:href="#DejaVuSans-30"/>
       <use x="63.623047" xlink:href="#DejaVuSans-2e"/>
       <use x="95.410156" xlink:href="#DejaVuSans-30"/>
       <use x="159.033203" xlink:href="#DejaVuSans-4d"/>
      </g>
     </g>
    </g>
    <g id="ytick_2">
     <g id="line2d_98">
      <path clip-path="url(#pf62723287f)" d="M 52.098125 400.73746 
L 794.191975 400.73746 
" style="fill:none;stroke:#cccccc;stroke-linecap:round;"/>
     </g>
     <g id="line2d_99">
      <g>
       <use style="fill:#262626;stroke:#262626;stroke-width:1.25;" x="52.098125" xlink:href="#m1b79d80c42" y="400.73746"/>
      </g>
     </g>
     <g id="text_26">
      <!-- 0.5M -->
      <g style="fill:#262626;" transform="translate(15.61375 404.9166)scale(0.11 -0.11)">
       <use xlink:href="#DejaVuSans-30"/>
       <use x="63.623047" xlink:href="#DejaVuSans-2e"/>
       <use x="95.410156" xlink:href="#DejaVuSans-35"/>
       <use x="159.033203" xlink:href="#DejaVuSans-4d"/>
      </g>
     </g>
    </g>
    <g id="ytick_3">
     <g id="line2d_100">
      <path clip-path="url(#pf62723287f)" d="M 52.098125 328.726627 
L 794.191975 328.726627 
" style="fill:none;stroke:#cccccc;stroke-linecap:round;"/>
     </g>
     <g id="line2d_101">
      <g>
       <use style="fill:#262626;stroke:#262626;stroke-width:1.25;" x="52.098125" xlink:href="#m1b79d80c42" y="328.726627"/>
      </g>
     </g>
     <g id="text_27">
      <!-- 1.0M -->
      <g style="fill:#262626;" transform="translate(15.61375 332.905767)scale(0.11 -0.11)">
       <use xlink:href="#DejaVuSans-31"/>
       <use x="63.623047" xlink:href="#DejaVuSans-2e"/>
       <use x="95.410156" xlink:href="#DejaVuSans-30"/>
       <use x="159.033203" xlink:href="#DejaVuSans-4d"/>
      </g>
     </g>
    </g>
    <g id="ytick_4">
     <g id="line2d_102">
      <path clip-path="url(#pf62723287f)" d="M 52.098125 256.715794 
L 794.191975 256.715794 
" style="fill:none;stroke:#cccccc;stroke-linecap:round;"/>
     </g>
     <g id="line2d_103">
      <g>
       <use style="fill:#262626;stroke:#262626;stroke-width:1.25;" x="52.098125" xlink:href="#m1b79d80c42" y="256.715794"/>
      </g>
     </g>
     <g id="text_28">
      <!-- 1.5M -->
      <g style="fill:#262626;" transform="translate(15.61375 260.894935)scale(0.11 -0.11)">
       <use xlink:href="#DejaVuSans-31"/>
       <use x="63.623047" xlink:href="#DejaVuSans-2e"/>
       <use x="95.410156" xlink:href="#DejaVuSans-35"/>
       <use x="159.033203" xlink:href="#DejaVuSans-4d"/>
      </g>
     </g>
    </g>
    <g id="ytick_5">
     <g id="line2d_104">
      <path clip-path="url(#pf62723287f)" d="M 52.098125 184.704961 
L 794.191975 184.704961 
" style="fill:none;stroke:#cccccc;stroke-linecap:round;"/>
     </g>
     <g id="line2d_105">
      <g>
       <use style="fill:#262626;stroke:#262626;stroke-width:1.25;" x="52.098125" xlink:href="#m1b79d80c42" y="184.704961"/>
      </g>
     </g>
     <g id="text_29">
      <!-- 2.0M -->
      <g style="fill:#262626;" transform="translate(15.61375 188.884102)scale(0.11 -0.11)">
       <use xlink:href="#DejaVuSans-32"/>
       <use x="63.623047" xlink:href="#DejaVuSans-2e"/>
       <use x="95.410156" xlink:href="#DejaVuSans-30"/>
       <use x="159.033203" xlink:href="#DejaVuSans-4d"/>
      </g>
     </g>
    </g>
    <g id="ytick_6">
     <g id="line2d_106">
      <path clip-path="url(#pf62723287f)" d="M 52.098125 112.694128 
L 794.191975 112.694128 
" style="fill:none;stroke:#cccccc;stroke-linecap:round;"/>
     </g>
     <g id="line2d_107">
      <g>
       <use style="fill:#262626;stroke:#262626;stroke-width:1.25;" x="52.098125" xlink:href="#m1b79d80c42" y="112.694128"/>
      </g>
     </g>
     <g id="text_30">
      <!-- 2.5M -->
      <g style="fill:#262626;" transform="translate(15.61375 116.873269)scale(0.11 -0.11)">
       <use xlink:href="#DejaVuSans-32"/>
       <use x="63.623047" xlink:href="#DejaVuSans-2e"/>
       <use x="95.410156" xlink:href="#DejaVuSans-35"/>
       <use x="159.033203" xlink:href="#DejaVuSans-4d"/>
      </g>
     </g>
    </g>
    <g id="ytick_7">
     <g id="line2d_108">
      <path clip-path="url(#pf62723287f)" d="M 52.098125 40.683295 
L 794.191975 40.683295 
" style="fill:none;stroke:#cccccc;stroke-linecap:round;"/>
     </g>
     <g id="line2d_109">
      <g>
       <use style="fill:#262626;stroke:#262626;stroke-width:1.25;" x="52.098125" xlink:href="#m1b79d80c42" y="40.683295"/>
      </g>
     </g>
     <g id="text_31">
      <!-- 3.0M -->
      <g style="fill:#262626;" transform="translate(15.61375 44.862436)scale(0.11 -0.11)">
       <use xlink:href="#DejaVuSans-33"/>
       <use x="63.623047" xlink:href="#DejaVuSans-2e"/>
       <use x="95.410156" xlink:href="#DejaVuSans-30"/>
       <use x="159.033203" xlink:href="#DejaVuSans-4d"/>
      </g>
     </g>
    </g>
    <g id="text_32">
     <!-- Поставени дози -->
     <g style="fill:#262626;" transform="translate(9.118125 311.722069)rotate(-90)scale(0.12 -0.12)">
      <defs>
       <path d="M 4184 4666 
L 4184 0 
L 3553 0 
L 3553 4134 
L 1259 4134 
L 1259 0 
L 628 0 
L 628 4666 
L 4184 4666 
z
" id="DejaVuSans-41f" transform="scale(0.015625)"/>
       <path d="M 1959 3097 
Q 1497 3097 1228 2736 
Q 959 2375 959 1747 
Q 959 1119 1226 758 
Q 1494 397 1959 397 
Q 2419 397 2687 759 
Q 2956 1122 2956 1747 
Q 2956 2369 2687 2733 
Q 2419 3097 1959 3097 
z
M 1959 3584 
Q 2709 3584 3137 3096 
Q 3566 2609 3566 1747 
Q 3566 888 3137 398 
Q 2709 -91 1959 -91 
Q 1206 -91 779 398 
Q 353 888 353 1747 
Q 353 2609 779 3096 
Q 1206 3584 1959 3584 
z
" id="DejaVuSans-43e" transform="scale(0.015625)"/>
       <path d="M 3122 3366 
L 3122 2828 
Q 2878 2963 2633 3030 
Q 2388 3097 2138 3097 
Q 1578 3097 1268 2742 
Q 959 2388 959 1747 
Q 959 1106 1268 751 
Q 1578 397 2138 397 
Q 2388 397 2633 464 
Q 2878 531 3122 666 
L 3122 134 
Q 2881 22 2623 -34 
Q 2366 -91 2075 -91 
Q 1284 -91 818 406 
Q 353 903 353 1747 
Q 353 2603 823 3093 
Q 1294 3584 2113 3584 
Q 2378 3584 2631 3529 
Q 2884 3475 3122 3366 
z
" id="DejaVuSans-441" transform="scale(0.015625)"/>
       <path d="M 1156 1613 
L 1156 459 
L 1975 459 
Q 2369 459 2575 607 
Q 2781 756 2781 1038 
Q 2781 1319 2575 1466 
Q 2369 1613 1975 1613 
L 1156 1613 
z
M 1156 3041 
L 1156 2072 
L 1913 2072 
Q 2238 2072 2444 2201 
Q 2650 2331 2650 2563 
Q 2650 2794 2444 2917 
Q 2238 3041 1913 3041 
L 1156 3041 
z
M 581 3500 
L 1950 3500 
Q 2566 3500 2897 3275 
Q 3228 3050 3228 2634 
Q 3228 2313 3059 2123 
Q 2891 1934 2559 1888 
Q 2956 1813 3175 1575 
Q 3394 1338 3394 981 
Q 3394 513 3033 256 
Q 2672 0 2003 0 
L 581 0 
L 581 3500 
z
" id="DejaVuSans-432" transform="scale(0.015625)"/>
       <path d="M 3597 1894 
L 3597 1613 
L 953 1613 
Q 991 1019 1311 708 
Q 1631 397 2203 397 
Q 2534 397 2845 478 
Q 3156 559 3463 722 
L 3463 178 
Q 3153 47 2828 -22 
Q 2503 -91 2169 -91 
Q 1331 -91 842 396 
Q 353 884 353 1716 
Q 353 2575 817 3079 
Q 1281 3584 2069 3584 
Q 2775 3584 3186 3129 
Q 3597 2675 3597 1894 
z
M 3022 2063 
Q 3016 2534 2758 2815 
Q 2500 3097 2075 3097 
Q 1594 3097 1305 2825 
Q 1016 2553 972 2059 
L 3022 2063 
z
" id="DejaVuSans-435" transform="scale(0.015625)"/>
       <path d="M 581 3500 
L 1159 3500 
L 1159 2072 
L 3025 2072 
L 3025 3500 
L 3603 3500 
L 3603 0 
L 3025 0 
L 3025 1613 
L 1159 1613 
L 1159 0 
L 581 0 
L 581 3500 
z
" id="DejaVuSans-43d" transform="scale(0.015625)"/>
       <path d="M 3578 3500 
L 3578 0 
L 3006 0 
L 3006 2809 
L 1319 0 
L 581 0 
L 581 3500 
L 1153 3500 
L 1153 697 
L 2838 3500 
L 3578 3500 
z
" id="DejaVuSans-438" transform="scale(0.015625)"/>
       <path id="DejaVuSans-20" transform="scale(0.015625)"/>
       <path d="M 1384 459 
L 3053 459 
L 3053 3041 
L 1844 3041 
L 1844 2603 
Q 1844 1316 1475 628 
L 1384 459 
z
M 550 459 
Q 834 584 959 850 
Q 1266 1509 1266 2838 
L 1266 3500 
L 3631 3500 
L 3631 459 
L 4091 459 
L 4091 -884 
L 3631 -884 
L 3631 0 
L 794 0 
L 794 -884 
L 334 -884 
L 334 459 
L 550 459 
z
" id="DejaVuSans-434" transform="scale(0.015625)"/>
       <path d="M 2206 1888 
Q 2594 1813 2809 1584 
Q 3025 1356 3025 1019 
Q 3025 478 2622 193 
Q 2219 -91 1475 -91 
Q 1225 -91 961 -47 
Q 697 -3 416 84 
L 416 619 
Q 638 503 903 445 
Q 1169 388 1459 388 
Q 1931 388 2195 563 
Q 2459 738 2459 1019 
Q 2459 1294 2225 1461 
Q 1991 1628 1563 1628 
L 1100 1628 
L 1100 2103 
L 1584 2103 
Q 1947 2103 2158 2242 
Q 2369 2381 2369 2600 
Q 2369 2800 2151 2944 
Q 1934 3088 1563 3088 
Q 1341 3088 1089 3047 
Q 838 3006 534 2916 
L 534 3438 
Q 841 3513 1106 3550 
Q 1372 3588 1609 3588 
Q 2222 3588 2576 3342 
Q 2931 3097 2931 2656 
Q 2931 2366 2743 2164 
Q 2556 1963 2206 1888 
z
" id="DejaVuSans-437" transform="scale(0.015625)"/>
      </defs>
      <use xlink:href="#DejaVuSans-41f"/>
      <use x="75.195312" xlink:href="#DejaVuSans-43e"/>
      <use x="136.376953" xlink:href="#DejaVuSans-441"/>
      <use x="191.357422" xlink:href="#DejaVuSans-442"/>
      <use x="249.609375" xlink:href="#DejaVuSans-430"/>
      <use x="310.888672" xlink:href="#DejaVuSans-432"/>
      <use x="369.824219" xlink:href="#DejaVuSans-435"/>
      <use x="431.347656" xlink:href="#DejaVuSans-43d"/>
      <use x="496.728516" xlink:href="#DejaVuSans-438"/>
      <use x="561.71875" xlink:href="#DejaVuSans-20"/>
      <use x="593.505859" xlink:href="#DejaVuSans-434"/>
      <use x="662.646484" xlink:href="#DejaVuSans-43e"/>
      <use x="723.828125" xlink:href="#DejaVuSans-437"/>
      <use x="777.001953" xlink:href="#DejaVuSans-438"/>
     </g>
    </g>
   </g>
   <g id="line2d_110">
    <path clip-path="url(#pf62723287f)" d="M 85.829664 472.187472 
L 90.168125 472.065774 
L 101.014279 471.963663 
L 107.521971 470.824883 
L 114.029664 470.708802 
L 118.368125 470.294452 
L 124.875818 470.108087 
L 127.045048 470.090661 
L 129.214279 469.919995 
L 133.552741 469.273482 
L 137.891202 468.989183 
L 144.398895 468.8888 
L 146.568125 468.554094 
L 148.737356 468.007531 
L 150.906587 467.327893 
L 153.075818 466.871489 
L 157.414279 466.825402 
L 159.58351 466.608073 
L 161.752741 466.13525 
L 166.091203 464.967522 
L 168.260433 464.559221 
L 172.598895 464.533585 
L 174.768126 464.267145 
L 179.106587 463.219387 
L 181.275818 462.50504 
L 183.445049 461.990738 
L 187.78351 461.890787 
L 189.952741 461.595831 
L 194.291203 460.373951 
L 196.460433 459.712316 
L 198.629664 457.731442 
L 200.798895 457.142681 
L 205.137357 453.872381 
L 207.306587 451.400537 
L 211.645049 445.59848 
L 213.81428 443.304647 
L 215.98351 442.538308 
L 218.152741 442.15161 
L 220.321972 440.553834 
L 222.491203 437.639843 
L 224.660434 437.00658 
L 226.829664 434.072138 
L 228.998895 431.779314 
L 231.168126 431.39708 
L 233.337357 431.179175 
L 235.506587 430.386912 
L 237.675818 429.232002 
L 239.845049 428.224715 
L 242.01428 426.021039 
L 244.183511 424.261959 
L 248.521972 423.942375 
L 250.691203 423.535081 
L 255.029665 422.239606 
L 257.198895 421.46909 
L 259.368126 420.50861 
L 261.537357 419.957583 
L 263.706588 419.61798 
L 265.875818 418.542858 
L 270.21428 414.951102 
L 274.552742 410.786139 
L 276.721972 410.220134 
L 278.891203 409.876931 
L 281.060434 408.579872 
L 289.737357 401.013261 
L 291.906588 400.438183 
L 294.075819 400.223302 
L 296.245049 399.290186 
L 298.41428 397.909594 
L 300.583511 395.919503 
L 302.752742 393.174018 
L 304.921972 391.030976 
L 307.091203 390.502992 
L 309.260434 390.272557 
L 311.429665 389.216879 
L 313.598896 387.704219 
L 320.106588 381.419978 
L 322.275819 380.975383 
L 324.445049 380.798668 
L 326.61428 379.784324 
L 328.783511 378.078099 
L 330.952742 375.317492 
L 333.121973 372.146711 
L 335.291203 369.4934 
L 337.460434 368.884188 
L 339.629665 368.586063 
L 341.798896 367.014787 
L 343.968127 364.602568 
L 346.137357 360.950898 
L 348.306588 357.073547 
L 350.475819 355.303953 
L 352.64505 354.475108 
L 354.81428 353.984715 
L 356.983511 352.704794 
L 359.152742 351.101401 
L 361.321973 346.423433 
L 363.491204 345.396559 
L 365.660434 339.906885 
L 367.829665 338.459755 
L 369.998896 337.646753 
L 372.168127 333.977801 
L 376.506588 323.57598 
L 378.675819 318.137722 
L 380.84505 313.350874 
L 383.014281 312.401627 
L 385.183511 311.913394 
L 387.352742 309.287014 
L 389.521973 305.532226 
L 391.691204 301.161312 
L 393.860434 296.235195 
L 396.029665 292.625148 
L 398.198896 291.710898 
L 400.368127 291.182627 
L 402.537358 290.437747 
L 404.706588 288.009254 
L 406.875819 285.00525 
L 411.214281 279.596516 
L 413.383511 278.577707 
L 415.552742 277.851117 
L 417.721973 276.025787 
L 419.891204 273.426484 
L 426.398896 263.794459 
L 428.568127 262.931625 
L 430.737358 261.864424 
L 432.906589 259.772798 
L 435.075819 256.638886 
L 439.414281 249.758971 
L 441.583512 246.808111 
L 443.752742 246.092612 
L 445.921973 245.622669 
L 448.091204 244.232284 
L 450.260435 242.005997 
L 454.598896 236.847141 
L 456.768127 234.653691 
L 461.106589 233.647124 
L 463.275819 232.422651 
L 465.44505 230.590408 
L 469.783512 226.541815 
L 471.952743 224.773229 
L 476.291204 223.934158 
L 478.460435 222.773488 
L 487.137358 215.625549 
L 489.306589 215.107359 
L 491.47582 214.796704 
L 493.64505 213.671319 
L 495.814281 211.986121 
L 500.152743 208.370457 
L 502.321973 206.707871 
L 504.491204 206.23764 
L 506.660435 205.936203 
L 508.829666 204.724981 
L 515.337358 199.600546 
L 517.506589 198.063403 
L 521.845051 197.385637 
L 524.014281 196.266732 
L 526.183512 194.829252 
L 532.691204 190.097564 
L 534.860435 189.587728 
L 537.029666 189.299972 
L 539.198897 188.071035 
L 547.87582 181.112629 
L 550.045051 180.652767 
L 552.214281 180.340961 
L 554.383512 179.14414 
L 563.060435 172.02803 
L 565.229666 171.555927 
L 567.398897 171.220212 
L 569.568128 169.926322 
L 576.07582 164.735061 
L 578.245051 163.226434 
L 580.414282 162.721782 
L 582.583512 162.406951 
L 584.752743 161.091313 
L 593.429666 154.049373 
L 595.598897 153.515917 
L 597.768128 153.171849 
L 599.937359 151.749059 
L 606.445051 145.85382 
L 608.614282 144.055566 
L 610.783513 143.489561 
L 612.952743 143.123746 
L 615.121974 141.625488 
L 617.291205 139.683068 
L 623.798897 134.437799 
L 625.968128 133.952446 
L 630.30659 133.404876 
L 632.47582 131.767781 
L 636.814282 128.25855 
L 638.983513 126.670423 
L 641.152743 126.227844 
L 643.321974 125.946138 
L 645.491205 124.787627 
L 651.998897 120.113836 
L 654.168128 118.609386 
L 656.337359 118.171416 
L 658.50659 117.927011 
L 660.67582 116.840224 
L 662.845051 115.39079 
L 665.014282 115.123198 
L 667.183513 113.475446 
L 669.352744 112.034221 
L 671.521974 111.679063 
L 673.691205 111.461303 
L 675.860436 110.711094 
L 678.029667 109.563385 
L 682.368128 106.983669 
L 684.537359 105.966588 
L 686.70659 105.637787 
L 688.875821 105.452863 
L 691.045051 104.677306 
L 699.721975 100.429243 
L 701.891205 100.092952 
L 704.060436 99.91739 
L 706.229667 99.173518 
L 708.398898 98.069016 
L 710.568128 97.269984 
L 714.90659 94.866694 
L 717.075821 94.445431 
L 719.245052 94.187632 
L 721.414282 93.294554 
L 723.583513 91.985541 
L 725.752744 90.043697 
L 727.921975 85.976381 
L 730.091205 82.514532 
L 732.260436 80.831639 
L 734.429667 79.801164 
L 736.598898 77.617795 
L 738.768129 73.008238 
L 740.937359 69.348647 
L 745.275821 62.648183 
L 747.445052 61.534176 
L 749.614282 60.818244 
L 751.783513 58.726185 
L 756.121975 53.206843 
L 758.291206 50.216665 
L 760.460436 50.216665 
L 760.460436 50.216665 
" style="fill:none;stroke:#0000ff;stroke-linecap:round;stroke-width:1.5;"/>
   </g>
   <g id="line2d_111"/>
   <g id="patch_3">
    <path d="M 52.098125 493.286013 
L 52.098125 29.118125 
" style="fill:none;stroke:#262626;stroke-linecap:square;stroke-linejoin:miter;stroke-width:1.25;"/>
   </g>
   <g id="patch_4">
    <path d="M 794.191975 493.286013 
L 794.191975 29.118125 
" style="fill:none;stroke:#262626;stroke-linecap:square;stroke-linejoin:miter;stroke-width:1.25;"/>
   </g>
   <g id="patch_5">
    <path d="M 52.098125 493.286013 
L 794.191975 493.286013 
" style="fill:none;stroke:#262626;stroke-linecap:square;stroke-linejoin:miter;stroke-width:1.25;"/>
   </g>
   <g id="patch_6">
    <path d="M 52.098125 29.118125 
L 794.191975 29.118125 
" style="fill:none;stroke:#262626;stroke-linecap:square;stroke-linejoin:miter;stroke-width:1.25;"/>
   </g>
   <g id="text_33">
    <!-- Последна актуализация: 06.11.2021 -->
    <g style="fill:#262626;" transform="translate(327.213126 22.155607)scale(0.09996 -0.09996)">
     <defs>
      <path d="M 238 0 
L 238 478 
Q 806 566 981 959 
Q 1194 1513 1194 2928 
L 1194 3500 
L 3559 3500 
L 3559 0 
L 2984 0 
L 2984 3041 
L 1769 3041 
L 1769 2694 
Q 1769 1344 1494 738 
Q 1200 91 238 0 
z
" id="DejaVuSans-43b" transform="scale(0.015625)"/>
      <path d="M 581 3500 
L 1153 3500 
L 1153 1856 
L 2775 3500 
L 3481 3500 
L 2144 2147 
L 3653 0 
L 3009 0 
L 1769 1766 
L 1153 1141 
L 1153 0 
L 581 0 
L 581 3500 
z
" id="DejaVuSans-43a" transform="scale(0.015625)"/>
      <path d="M 2059 -325 
Q 1816 -950 1584 -1140 
Q 1353 -1331 966 -1331 
L 506 -1331 
L 506 -850 
L 844 -850 
Q 1081 -850 1212 -737 
Q 1344 -625 1503 -206 
L 1606 56 
L 191 3500 
L 800 3500 
L 1894 763 
L 2988 3500 
L 3597 3500 
L 2059 -325 
z
" id="DejaVuSans-443" transform="scale(0.015625)"/>
      <path d="M 3603 0 
L 581 0 
L 581 3500 
L 1159 3500 
L 1159 459 
L 3025 459 
L 3025 3500 
L 3603 3500 
L 3603 459 
L 4063 459 
L 4063 -884 
L 3603 -884 
L 3603 0 
z
" id="DejaVuSans-446" transform="scale(0.015625)"/>
      <path d="M 1181 2491 
Q 1181 2231 1381 2084 
Q 1581 1938 1953 1938 
L 2728 1938 
L 2728 3041 
L 1953 3041 
Q 1581 3041 1381 2897 
Q 1181 2753 1181 2491 
z
M 363 0 
L 1431 1534 
Q 1069 1616 828 1830 
Q 588 2044 588 2491 
Q 588 2997 923 3248 
Q 1259 3500 1938 3500 
L 3306 3500 
L 3306 0 
L 2728 0 
L 2728 1478 
L 2013 1478 
L 981 0 
L 363 0 
z
" id="DejaVuSans-44f" transform="scale(0.015625)"/>
      <path d="M 750 794 
L 1409 794 
L 1409 0 
L 750 0 
L 750 794 
z
M 750 3309 
L 1409 3309 
L 1409 2516 
L 750 2516 
L 750 3309 
z
" id="DejaVuSans-3a" transform="scale(0.015625)"/>
     </defs>
     <use xlink:href="#DejaVuSans-41f"/>
     <use x="75.195312" xlink:href="#DejaVuSans-43e"/>
     <use x="136.376953" xlink:href="#DejaVuSans-441"/>
     <use x="191.357422" xlink:href="#DejaVuSans-43b"/>
     <use x="255.273438" xlink:href="#DejaVuSans-435"/>
     <use x="316.796875" xlink:href="#DejaVuSans-434"/>
     <use x="385.9375" xlink:href="#DejaVuSans-43d"/>
     <use x="451.318359" xlink:href="#DejaVuSans-430"/>
     <use x="512.597656" xlink:href="#DejaVuSans-20"/>
     <use x="544.384766" xlink:href="#DejaVuSans-430"/>
     <use x="605.664062" xlink:href="#DejaVuSans-43a"/>
     <use x="666.064453" xlink:href="#DejaVuSans-442"/>
     <use x="724.316406" xlink:href="#DejaVuSans-443"/>
     <use x="783.496094" xlink:href="#DejaVuSans-430"/>
     <use x="844.775391" xlink:href="#DejaVuSans-43b"/>
     <use x="908.691406" xlink:href="#DejaVuSans-438"/>
     <use x="973.681641" xlink:href="#DejaVuSans-437"/>
     <use x="1026.855469" xlink:href="#DejaVuSans-430"/>
     <use x="1088.134766" xlink:href="#DejaVuSans-446"/>
     <use x="1156.201172" xlink:href="#DejaVuSans-438"/>
     <use x="1221.191406" xlink:href="#DejaVuSans-44f"/>
     <use x="1281.347656" xlink:href="#DejaVuSans-3a"/>
     <use x="1315.039062" xlink:href="#DejaVuSans-20"/>
     <use x="1346.826172" xlink:href="#DejaVuSans-30"/>
     <use x="1410.449219" xlink:href="#DejaVuSans-36"/>
     <use x="1474.072266" xlink:href="#DejaVuSans-2e"/>
     <use x="1505.859375" xlink:href="#DejaVuSans-31"/>
     <use x="1569.482422" xlink:href="#DejaVuSans-31"/>
     <use x="1633.105469" xlink:href="#DejaVuSans-2e"/>
     <use x="1664.892578" xlink:href="#DejaVuSans-32"/>
     <use x="1728.515625" xlink:href="#DejaVuSans-30"/>
     <use x="1792.138672" xlink:href="#DejaVuSans-32"/>
     <use x="1855.761719" xlink:href="#DejaVuSans-31"/>
    </g>
   </g>
   <g id="text_34">
    <!-- Последна актуализация: 06.11.2021 -->
    <g style="fill:#262626;" transform="translate(327.213126 22.155607)scale(0.09996 -0.09996)">
     <use xlink:href="#DejaVuSans-41f"/>
     <use x="75.195312" xlink:href="#DejaVuSans-43e"/>
     <use x="136.376953" xlink:href="#DejaVuSans-441"/>
     <use x="191.357422" xlink:href="#DejaVuSans-43b"/>
     <use x="255.273438" xlink:href="#DejaVuSans-435"/>
     <use x="316.796875" xlink:href="#DejaVuSans-434"/>
     <use x="385.9375" xlink:href="#DejaVuSans-43d"/>
     <use x="451.318359" xlink:href="#DejaVuSans-430"/>
     <use x="512.597656" xlink:href="#DejaVuSans-20"/>
     <use x="544.384766" xlink:href="#DejaVuSans-430"/>
     <use x="605.664062" xlink:href="#DejaVuSans-43a"/>
     <use x="666.064453" xlink:href="#DejaVuSans-442"/>
     <use x="724.316406" xlink:href="#DejaVuSans-443"/>
     <use x="783.496094" xlink:href="#DejaVuSans-430"/>
     <use x="844.775391" xlink:href="#DejaVuSans-43b"/>
     <use x="908.691406" xlink:href="#DejaVuSans-438"/>
     <use x="973.681641" xlink:href="#DejaVuSans-437"/>
     <use x="1026.855469" xlink:href="#DejaVuSans-430"/>
     <use x="1088.134766" xlink:href="#DejaVuSans-446"/>
     <use x="1156.201172" xlink:href="#DejaVuSans-438"/>
     <use x="1221.191406" xlink:href="#DejaVuSans-44f"/>
     <use x="1281.347656" xlink:href="#DejaVuSans-3a"/>
     <use x="1315.039062" xlink:href="#DejaVuSans-20"/>
     <use x="1346.826172" xlink:href="#DejaVuSans-30"/>
     <use x="1410.449219" xlink:href="#DejaVuSans-36"/>
     <use x="1474.072266" xlink:href="#DejaVuSans-2e"/>
     <use x="1505.859375" xlink:href="#DejaVuSans-31"/>
     <use x="1569.482422" xlink:href="#DejaVuSans-31"/>
     <use x="1633.105469" xlink:href="#DejaVuSans-2e"/>
     <use x="1664.892578" xlink:href="#DejaVuSans-32"/>
     <use x="1728.515625" xlink:href="#DejaVuSans-30"/>
     <use x="1792.138672" xlink:href="#DejaVuSans-32"/>
     <use x="1855.761719" xlink:href="#DejaVuSans-31"/>
    </g>
   </g>
   <g id="text_35">
    <!-- Хронология на ваксинацията по дни -->
    <g style="fill:#262626;" transform="translate(296.210362 9.118125)scale(0.12 -0.12)">
     <defs>
      <path d="M 3188 2381 
L 4806 0 
L 3553 0 
L 2463 1594 
L 1381 0 
L 122 0 
L 1741 2381 
L 184 4666 
L 1441 4666 
L 2463 3163 
L 3481 4666 
L 4744 4666 
L 3188 2381 
z
" id="DejaVuSans-Bold-425" transform="scale(0.015625)"/>
      <path d="M 1656 506 
L 1656 -1331 
L 538 -1331 
L 538 3500 
L 1656 3500 
L 1656 2988 
Q 1888 3294 2169 3439 
Q 2450 3584 2816 3584 
Q 3463 3584 3878 3070 
Q 4294 2556 4294 1747 
Q 4294 938 3878 423 
Q 3463 -91 2816 -91 
Q 2450 -91 2169 54 
Q 1888 200 1656 506 
z
M 2400 2772 
Q 2041 2772 1848 2508 
Q 1656 2244 1656 1747 
Q 1656 1250 1848 986 
Q 2041 722 2400 722 
Q 2759 722 2948 984 
Q 3138 1247 3138 1747 
Q 3138 2247 2948 2509 
Q 2759 2772 2400 2772 
z
" id="DejaVuSans-Bold-440" transform="scale(0.015625)"/>
      <path d="M 2203 2784 
Q 1831 2784 1636 2517 
Q 1441 2250 1441 1747 
Q 1441 1244 1636 976 
Q 1831 709 2203 709 
Q 2569 709 2762 976 
Q 2956 1244 2956 1747 
Q 2956 2250 2762 2517 
Q 2569 2784 2203 2784 
z
M 2203 3584 
Q 3106 3584 3614 3096 
Q 4122 2609 4122 1747 
Q 4122 884 3614 396 
Q 3106 -91 2203 -91 
Q 1297 -91 786 396 
Q 275 884 275 1747 
Q 275 2609 786 3096 
Q 1297 3584 2203 3584 
z
" id="DejaVuSans-Bold-43e" transform="scale(0.015625)"/>
      <path d="M 538 3500 
L 1656 3500 
L 1656 2169 
L 2766 2169 
L 2766 3500 
L 3884 3500 
L 3884 0 
L 2766 0 
L 2766 1478 
L 1656 1478 
L 1656 0 
L 538 0 
L 538 3500 
z
" id="DejaVuSans-Bold-43d" transform="scale(0.015625)"/>
      <path d="M 353 0 
L 353 800 
Q 906 913 1031 1278 
Q 1125 1556 1125 2928 
L 1125 3500 
L 4150 3500 
L 4150 0 
L 3031 0 
L 3031 2700 
L 2244 2700 
L 2244 2584 
Q 2244 1213 2028 813 
Q 1591 0 353 0 
z
" id="DejaVuSans-Bold-43b" transform="scale(0.015625)"/>
      <path d="M 538 0 
L 538 3500 
L 3191 3500 
L 3191 2809 
L 1656 2809 
L 1656 0 
L 538 0 
z
" id="DejaVuSans-Bold-433" transform="scale(0.015625)"/>
      <path d="M 3947 3500 
L 3947 0 
L 2828 0 
L 2828 1863 
L 1700 0 
L 538 0 
L 538 3500 
L 1656 3500 
L 1656 1638 
L 2784 3500 
L 3947 3500 
z
" id="DejaVuSans-Bold-438" transform="scale(0.015625)"/>
      <path d="M 1528 2394 
Q 1528 2169 1651 2069 
Q 1775 1969 2059 1969 
L 2463 1969 
L 2463 2816 
L 2059 2816 
Q 1775 2816 1651 2719 
Q 1528 2622 1528 2394 
z
M 197 0 
L 1113 1497 
Q 847 1650 650 1917 
Q 453 2184 453 2516 
Q 453 3013 789 3256 
Q 1125 3500 1878 3500 
L 3581 3500 
L 3581 0 
L 2463 0 
L 2463 1278 
L 2069 1278 
L 1288 0 
L 197 0 
z
" id="DejaVuSans-Bold-44f" transform="scale(0.015625)"/>
      <path id="DejaVuSans-Bold-20" transform="scale(0.015625)"/>
      <path d="M 2106 1575 
Q 1756 1575 1579 1456 
Q 1403 1338 1403 1106 
Q 1403 894 1545 773 
Q 1688 653 1941 653 
Q 2256 653 2472 879 
Q 2688 1106 2688 1447 
L 2688 1575 
L 2106 1575 
z
M 3816 1997 
L 3816 0 
L 2688 0 
L 2688 519 
Q 2463 200 2181 54 
Q 1900 -91 1497 -91 
Q 953 -91 614 226 
Q 275 544 275 1050 
Q 275 1666 698 1953 
Q 1122 2241 2028 2241 
L 2688 2241 
L 2688 2328 
Q 2688 2594 2478 2717 
Q 2269 2841 1825 2841 
Q 1466 2841 1156 2769 
Q 847 2697 581 2553 
L 581 3406 
Q 941 3494 1303 3539 
Q 1666 3584 2028 3584 
Q 2975 3584 3395 3211 
Q 3816 2838 3816 1997 
z
" id="DejaVuSans-Bold-430" transform="scale(0.015625)"/>
      <path d="M 2184 2181 
Q 2378 2181 2478 2261 
Q 2578 2341 2578 2497 
Q 2578 2653 2478 2731 
Q 2378 2809 2184 2809 
L 1656 2809 
L 1656 2181 
L 2184 2181 
z
M 2222 700 
Q 2469 700 2594 798 
Q 2719 897 2719 1094 
Q 2719 1288 2594 1384 
Q 2469 1481 2222 1481 
L 1656 1481 
L 1656 700 
L 2222 700 
z
M 538 3500 
L 2141 3500 
Q 2919 3500 3267 3279 
Q 3616 3059 3616 2575 
Q 3616 2319 3487 2139 
Q 3359 1959 3119 1872 
Q 3428 1788 3598 1561 
Q 3769 1334 3769 1003 
Q 3769 497 3403 248 
Q 3038 0 2294 0 
L 538 0 
L 538 3500 
z
" id="DejaVuSans-Bold-432" transform="scale(0.015625)"/>
      <path d="M 538 3500 
L 1656 3500 
L 1656 2316 
L 2903 3500 
L 4128 3500 
L 2634 2078 
L 4250 0 
L 3094 0 
L 1972 1447 
L 1656 1147 
L 1656 0 
L 538 0 
L 538 3500 
z
" id="DejaVuSans-Bold-43a" transform="scale(0.015625)"/>
      <path d="M 3366 3391 
L 3366 2478 
Q 3138 2634 2908 2709 
Q 2678 2784 2431 2784 
Q 1963 2784 1702 2511 
Q 1441 2238 1441 1747 
Q 1441 1256 1702 982 
Q 1963 709 2431 709 
Q 2694 709 2930 787 
Q 3166 866 3366 1019 
L 3366 103 
Q 3103 6 2833 -42 
Q 2563 -91 2291 -91 
Q 1344 -91 809 395 
Q 275 881 275 1747 
Q 275 2613 809 3098 
Q 1344 3584 2291 3584 
Q 2566 3584 2833 3536 
Q 3100 3488 3366 3391 
z
" id="DejaVuSans-Bold-441" transform="scale(0.015625)"/>
      <path d="M 3666 -884 
L 3666 0 
L 538 0 
L 538 3500 
L 1656 3500 
L 1656 800 
L 2766 800 
L 2766 3500 
L 3884 3500 
L 3884 800 
L 4466 800 
L 4466 -884 
L 3666 -884 
z
" id="DejaVuSans-Bold-446" transform="scale(0.015625)"/>
      <path d="M 25 3500 
L 3681 3500 
L 3681 2809 
L 2413 2809 
L 2413 0 
L 1297 0 
L 1297 2809 
L 25 2809 
L 25 3500 
z
" id="DejaVuSans-Bold-442" transform="scale(0.015625)"/>
      <path d="M 3884 3500 
L 3884 0 
L 2766 0 
L 2766 2700 
L 1656 2700 
L 1656 0 
L 538 0 
L 538 3500 
L 3884 3500 
z
" id="DejaVuSans-Bold-43f" transform="scale(0.015625)"/>
      <path d="M 547 800 
Q 903 919 1053 1314 
Q 1203 1709 1203 2838 
L 1203 3500 
L 4228 3500 
L 4228 800 
L 4809 800 
L 4809 -884 
L 4009 -884 
L 4009 0 
L 1159 0 
L 1159 -884 
L 359 -884 
L 359 800 
L 547 800 
z
M 3109 2700 
L 2322 2700 
L 2322 2603 
Q 2322 1456 2063 800 
L 3109 800 
L 3109 2700 
z
" id="DejaVuSans-Bold-434" transform="scale(0.015625)"/>
     </defs>
     <use xlink:href="#DejaVuSans-Bold-425"/>
     <use x="77.099609" xlink:href="#DejaVuSans-Bold-440"/>
     <use x="148.681641" xlink:href="#DejaVuSans-Bold-43e"/>
     <use x="217.382812" xlink:href="#DejaVuSans-Bold-43d"/>
     <use x="286.474609" xlink:href="#DejaVuSans-Bold-43e"/>
     <use x="355.175781" xlink:href="#DejaVuSans-Bold-43b"/>
     <use x="428.417969" xlink:href="#DejaVuSans-Bold-43e"/>
     <use x="497.119141" xlink:href="#DejaVuSans-Bold-433"/>
     <use x="549.365234" xlink:href="#DejaVuSans-Bold-438"/>
     <use x="619.433594" xlink:href="#DejaVuSans-Bold-44f"/>
     <use x="683.642578" xlink:href="#DejaVuSans-Bold-20"/>
     <use x="718.457031" xlink:href="#DejaVuSans-Bold-43d"/>
     <use x="787.548828" xlink:href="#DejaVuSans-Bold-430"/>
     <use x="855.029297" xlink:href="#DejaVuSans-Bold-20"/>
     <use x="889.84375" xlink:href="#DejaVuSans-Bold-432"/>
     <use x="953.125" xlink:href="#DejaVuSans-Bold-430"/>
     <use x="1020.605469" xlink:href="#DejaVuSans-Bold-43a"/>
     <use x="1088.476562" xlink:href="#DejaVuSans-Bold-441"/>
     <use x="1147.753906" xlink:href="#DejaVuSans-Bold-438"/>
     <use x="1217.822266" xlink:href="#DejaVuSans-Bold-43d"/>
     <use x="1286.914062" xlink:href="#DejaVuSans-Bold-430"/>
     <use x="1354.394531" xlink:href="#DejaVuSans-Bold-446"/>
     <use x="1428.515625" xlink:href="#DejaVuSans-Bold-438"/>
     <use x="1498.583984" xlink:href="#DejaVuSans-Bold-44f"/>
     <use x="1562.792969" xlink:href="#DejaVuSans-Bold-442"/>
     <use x="1620.751953" xlink:href="#DejaVuSans-Bold-430"/>
     <use x="1688.232422" xlink:href="#DejaVuSans-Bold-20"/>
     <use x="1723.046875" xlink:href="#DejaVuSans-Bold-43f"/>
     <use x="1792.138672" xlink:href="#DejaVuSans-Bold-43e"/>
     <use x="1860.839844" xlink:href="#DejaVuSans-Bold-20"/>
     <use x="1895.654297" xlink:href="#DejaVuSans-Bold-434"/>
     <use x="1976.416016" xlink:href="#DejaVuSans-Bold-43d"/>
     <use x="2045.507812" xlink:href="#DejaVuSans-Bold-438"/>
    </g>
   </g>
  </g>
  <g id="axes_2">
   <g id="matplotlib.axis_3">
    <g id="ytick_8">
     <g id="line2d_112">
      <defs>
       <path d="M 0 0 
L 6 0 
" id="m4b3e16dfb4" style="stroke:#262626;stroke-width:1.25;"/>
      </defs>
      <g>
       <use style="fill:#262626;stroke:#262626;stroke-width:1.25;" x="794.191975" xlink:href="#m4b3e16dfb4" y="472.187472"/>
      </g>
     </g>
     <g id="text_36">
      <!-- 0 -->
      <g style="fill:#262626;" transform="translate(803.691975 476.366613)scale(0.11 -0.11)">
       <use xlink:href="#DejaVuSans-30"/>
      </g>
     </g>
    </g>
    <g id="ytick_9">
     <g id="line2d_113">
      <g>
       <use style="fill:#262626;stroke:#262626;stroke-width:1.25;" x="794.191975" xlink:href="#m4b3e16dfb4" y="416.835424"/>
      </g>
     </g>
     <g id="text_37">
      <!-- 5000 -->
      <g style="fill:#262626;" transform="translate(803.691975 421.014564)scale(0.11 -0.11)">
       <use xlink:href="#DejaVuSans-35"/>
       <use x="63.623047" xlink:href="#DejaVuSans-30"/>
       <use x="127.246094" xlink:href="#DejaVuSans-30"/>
       <use x="190.869141" xlink:href="#DejaVuSans-30"/>
      </g>
     </g>
    </g>
    <g id="ytick_10">
     <g id="line2d_114">
      <g>
       <use style="fill:#262626;stroke:#262626;stroke-width:1.25;" x="794.191975" xlink:href="#m4b3e16dfb4" y="361.483375"/>
      </g>
     </g>
     <g id="text_38">
      <!-- 10000 -->
      <g style="fill:#262626;" transform="translate(803.691975 365.662516)scale(0.11 -0.11)">
       <use xlink:href="#DejaVuSans-31"/>
       <use x="63.623047" xlink:href="#DejaVuSans-30"/>
       <use x="127.246094" xlink:href="#DejaVuSans-30"/>
       <use x="190.869141" xlink:href="#DejaVuSans-30"/>
       <use x="254.492188" xlink:href="#DejaVuSans-30"/>
      </g>
     </g>
    </g>
    <g id="ytick_11">
     <g id="line2d_115">
      <g>
       <use style="fill:#262626;stroke:#262626;stroke-width:1.25;" x="794.191975" xlink:href="#m4b3e16dfb4" y="306.131327"/>
      </g>
     </g>
     <g id="text_39">
      <!-- 15000 -->
      <g style="fill:#262626;" transform="translate(803.691975 310.310467)scale(0.11 -0.11)">
       <use xlink:href="#DejaVuSans-31"/>
       <use x="63.623047" xlink:href="#DejaVuSans-35"/>
       <use x="127.246094" xlink:href="#DejaVuSans-30"/>
       <use x="190.869141" xlink:href="#DejaVuSans-30"/>
       <use x="254.492188" xlink:href="#DejaVuSans-30"/>
      </g>
     </g>
    </g>
    <g id="ytick_12">
     <g id="line2d_116">
      <g>
       <use style="fill:#262626;stroke:#262626;stroke-width:1.25;" x="794.191975" xlink:href="#m4b3e16dfb4" y="250.779278"/>
      </g>
     </g>
     <g id="text_40">
      <!-- 20000 -->
      <g style="fill:#262626;" transform="translate(803.691975 254.958419)scale(0.11 -0.11)">
       <use xlink:href="#DejaVuSans-32"/>
       <use x="63.623047" xlink:href="#DejaVuSans-30"/>
       <use x="127.246094" xlink:href="#DejaVuSans-30"/>
       <use x="190.869141" xlink:href="#DejaVuSans-30"/>
       <use x="254.492188" xlink:href="#DejaVuSans-30"/>
      </g>
     </g>
    </g>
    <g id="ytick_13">
     <g id="line2d_117">
      <g>
       <use style="fill:#262626;stroke:#262626;stroke-width:1.25;" x="794.191975" xlink:href="#m4b3e16dfb4" y="195.42723"/>
      </g>
     </g>
     <g id="text_41">
      <!-- 25000 -->
      <g style="fill:#262626;" transform="translate(803.691975 199.60637)scale(0.11 -0.11)">
       <use xlink:href="#DejaVuSans-32"/>
       <use x="63.623047" xlink:href="#DejaVuSans-35"/>
       <use x="127.246094" xlink:href="#DejaVuSans-30"/>
       <use x="190.869141" xlink:href="#DejaVuSans-30"/>
       <use x="254.492188" xlink:href="#DejaVuSans-30"/>
      </g>
     </g>
    </g>
    <g id="ytick_14">
     <g id="line2d_118">
      <g>
       <use style="fill:#262626;stroke:#262626;stroke-width:1.25;" x="794.191975" xlink:href="#m4b3e16dfb4" y="140.075181"/>
      </g>
     </g>
     <g id="text_42">
      <!-- 30000 -->
      <g style="fill:#262626;" transform="translate(803.691975 144.254322)scale(0.11 -0.11)">
       <use xlink:href="#DejaVuSans-33"/>
       <use x="63.623047" xlink:href="#DejaVuSans-30"/>
       <use x="127.246094" xlink:href="#DejaVuSans-30"/>
       <use x="190.869141" xlink:href="#DejaVuSans-30"/>
       <use x="254.492188" xlink:href="#DejaVuSans-30"/>
      </g>
     </g>
    </g>
    <g id="ytick_15">
     <g id="line2d_119">
      <g>
       <use style="fill:#262626;stroke:#262626;stroke-width:1.25;" x="794.191975" xlink:href="#m4b3e16dfb4" y="84.723132"/>
      </g>
     </g>
     <g id="text_43">
      <!-- 35000 -->
      <g style="fill:#262626;" transform="translate(803.691975 88.902273)scale(0.11 -0.11)">
       <use xlink:href="#DejaVuSans-33"/>
       <use x="63.623047" xlink:href="#DejaVuSans-35"/>
       <use x="127.246094" xlink:href="#DejaVuSans-30"/>
       <use x="190.869141" xlink:href="#DejaVuSans-30"/>
       <use x="254.492188" xlink:href="#DejaVuSans-30"/>
      </g>
     </g>
    </g>
    <g id="ytick_16">
     <g id="line2d_120">
      <g>
       <use style="fill:#262626;stroke:#262626;stroke-width:1.25;" x="794.191975" xlink:href="#m4b3e16dfb4" y="29.371084"/>
      </g>
     </g>
     <g id="text_44">
      <!-- 40000 -->
      <g style="fill:#262626;" transform="translate(803.691975 33.550224)scale(0.11 -0.11)">
       <use xlink:href="#DejaVuSans-34"/>
       <use x="63.623047" xlink:href="#DejaVuSans-30"/>
       <use x="127.246094" xlink:href="#DejaVuSans-30"/>
       <use x="190.869141" xlink:href="#DejaVuSans-30"/>
       <use x="254.492188" xlink:href="#DejaVuSans-30"/>
      </g>
     </g>
    </g>
    <g id="text_45">
     <!-- Новопоставени дози -->
     <g style="fill:#262626;" transform="translate(849.5676 195.880819)rotate(-270)scale(0.12 -0.12)">
      <defs>
       <path d="M 628 4666 
L 1259 4666 
L 1259 2753 
L 3553 2753 
L 3553 4666 
L 4184 4666 
L 4184 0 
L 3553 0 
L 3553 2222 
L 1259 2222 
L 1259 0 
L 628 0 
L 628 4666 
z
" id="DejaVuSans-41d" transform="scale(0.015625)"/>
       <path d="M 3603 3500 
L 3603 0 
L 3025 0 
L 3025 3041 
L 1159 3041 
L 1159 0 
L 581 0 
L 581 3500 
L 3603 3500 
z
" id="DejaVuSans-43f" transform="scale(0.015625)"/>
      </defs>
      <use xlink:href="#DejaVuSans-41d"/>
      <use x="75.195312" xlink:href="#DejaVuSans-43e"/>
      <use x="136.376953" xlink:href="#DejaVuSans-432"/>
      <use x="195.3125" xlink:href="#DejaVuSans-43e"/>
      <use x="256.494141" xlink:href="#DejaVuSans-43f"/>
      <use x="321.875" xlink:href="#DejaVuSans-43e"/>
      <use x="383.056641" xlink:href="#DejaVuSans-441"/>
      <use x="438.037109" xlink:href="#DejaVuSans-442"/>
      <use x="496.289062" xlink:href="#DejaVuSans-430"/>
      <use x="557.568359" xlink:href="#DejaVuSans-432"/>
      <use x="616.503906" xlink:href="#DejaVuSans-435"/>
      <use x="678.027344" xlink:href="#DejaVuSans-43d"/>
      <use x="743.408203" xlink:href="#DejaVuSans-438"/>
      <use x="808.398438" xlink:href="#DejaVuSans-20"/>
      <use x="840.185547" xlink:href="#DejaVuSans-434"/>
      <use x="909.326172" xlink:href="#DejaVuSans-43e"/>
      <use x="970.507812" xlink:href="#DejaVuSans-437"/>
      <use x="1023.681641" xlink:href="#DejaVuSans-438"/>
     </g>
    </g>
   </g>
   <g id="line2d_121">
    <path clip-path="url(#pf62723287f)" d="M 85.829664 429.079297 
L 87.998894 464.2832 
L 90.168125 470.737249 
L 92.337356 472.187472 
L 98.845048 472.187472 
L 101.014279 464.338552 
L 103.18351 444.898912 
L 105.352741 436.71788 
L 107.521971 447.411895 
L 109.691202 470.881164 
L 111.860433 472.187472 
L 114.029664 464.57103 
L 116.198895 454.264479 
L 118.368125 458.260897 
L 120.537356 465.013847 
L 122.706587 467.316492 
L 124.875818 469.906968 
L 127.045048 470.847953 
L 129.214279 459.069037 
L 131.38351 443.537252 
L 133.552741 451.142623 
L 135.721972 459.744332 
L 137.891202 462.777624 
L 140.060433 471.988205 
L 142.229664 471.921782 
L 144.398895 464.936354 
L 146.568125 446.45984 
L 148.737356 430.175267 
L 150.906587 419.946209 
L 153.075818 437.105344 
L 155.245049 469.807334 
L 157.414279 471.025079 
L 159.58351 455.482224 
L 161.752741 435.843317 
L 163.921972 425.614259 
L 166.091203 429.001804 
L 168.260433 440.802861 
L 170.429664 470.460488 
L 172.598895 471.943923 
L 174.768126 451.707214 
L 176.937356 432.998222 
L 179.106587 430.839492 
L 181.275818 417.27824 
L 183.445049 432.655039 
L 185.61428 465.257396 
L 187.78351 471.434684 
L 189.952741 449.515273 
L 192.121972 428.990734 
L 194.291203 421.462855 
L 196.460433 421.33001 
L 198.629664 319.925057 
L 200.798895 426.931637 
L 202.968126 350.435106 
L 205.137357 342.564045 
L 207.306587 282.18603 
L 209.475818 248.166661 
L 211.645049 250.225758 
L 213.81428 295.869057 
L 215.98351 413.281822 
L 218.152741 442.463422 
L 220.321972 349.372347 
L 222.491203 248.199873 
L 224.660434 423.510881 
L 226.829664 246.627874 
L 228.998895 295.94655 
L 231.168126 442.806605 
L 233.337357 455.437942 
L 235.506587 411.289148 
L 237.675818 383.413857 
L 239.845049 394.761027 
L 242.01428 302.799133 
L 244.183511 336.973488 
L 246.352741 458.415883 
L 248.521972 461.393823 
L 250.691203 440.880354 
L 252.860434 424.728626 
L 255.029665 420.067983 
L 257.198895 412.96078 
L 259.368126 398.35891 
L 261.537357 429.832085 
L 263.706588 446.083446 
L 268.045049 334.526928 
L 270.21428 333.763069 
L 272.383511 313.969177 
L 274.552742 310.260589 
L 276.721972 428.680762 
L 278.891203 445.806686 
L 281.060434 372.487362 
L 283.229665 326.235191 
L 285.398895 320.390014 
L 287.568126 322.083787 
L 289.737357 338.423712 
L 291.906588 427.983326 
L 294.075819 455.670421 
L 296.245049 400.462288 
L 298.41428 366.066525 
L 300.583511 319.216551 
L 302.752742 261.152252 
L 304.921972 307.459776 
L 307.091203 431.60335 
L 309.260434 454.474817 
L 311.429665 391.041369 
L 313.598896 355.914959 
L 315.768126 307.437635 
L 317.937357 306.153467 
L 320.106588 319.925057 
L 322.275819 438.013118 
L 324.445049 458.60408 
L 326.61428 394.218577 
L 328.783511 341.036328 
L 330.952742 259.989859 
L 333.121973 228.461332 
L 335.291203 268.237314 
L 337.460434 425.359639 
L 339.629665 449.271724 
L 341.798896 351.409302 
L 343.968127 286.76918 
L 346.137357 191.497234 
L 348.306588 174.149902 
L 350.475819 336.165348 
L 352.64505 408.477264 
L 354.81428 434.492727 
L 356.983511 373.804741 
L 359.152742 348.940601 
L 361.321973 112.609494 
L 363.491204 393.255451 
L 365.660434 50.216665 
L 367.829665 360.951996 
L 369.998896 409.695009 
L 372.168127 190.168785 
L 374.337357 76.442466 
L 376.506588 68.383208 
L 378.675819 54.168802 
L 380.84505 104.240265 
L 383.014281 399.222402 
L 385.183511 434.658783 
L 387.352742 270.307481 
L 389.521973 183.570821 
L 391.691204 136.211608 
L 393.860434 93.535179 
L 396.029665 194.696582 
L 398.198896 401.912511 
L 400.368127 431.581209 
L 402.537358 414.931313 
L 404.706588 285.518224 
L 406.875819 241.280867 
L 409.04505 270.584241 
L 411.214281 258.041467 
L 413.383511 393.875394 
L 415.552742 416.337255 
L 417.721973 331.8811 
L 419.891204 272.388718 
L 422.060435 228.848796 
L 424.229665 215.874276 
L 426.398896 231.461413 
L 428.568127 405.864648 
L 430.737358 390.155736 
L 435.075819 231.295357 
L 437.24505 206.420146 
L 439.414281 209.121326 
L 441.583512 245.365848 
L 443.752742 417.189677 
L 445.921973 436.064725 
L 448.091204 365.313737 
L 450.260435 301.061079 
L 452.429666 277.259698 
L 454.598896 270.573171 
L 456.768127 303.585132 
L 458.937358 429.499972 
L 461.106589 437.503879 
L 463.275819 378.066849 
L 465.44505 331.34972 
L 467.614281 318.319848 
L 469.783512 314.854809 
L 471.952743 336.242841 
L 474.121973 437.80278 
L 476.291204 442.075958 
L 478.460435 382.97104 
L 480.629666 332.811014 
L 482.798896 328.139301 
L 484.968127 335.977151 
L 487.137358 342.386918 
L 489.306589 432.356138 
L 491.47582 448.308599 
L 493.64505 385.683291 
L 495.814281 342.652608 
L 497.983512 330.187327 
L 500.152743 336.264982 
L 502.321973 344.390663 
L 504.491204 436.042585 
L 506.660435 449.017105 
L 508.829666 379.085327 
L 510.998897 340.294611 
L 513.168127 339.043655 
L 515.337358 343.327903 
L 517.506589 354.032989 
L 519.67582 442.718042 
L 521.845051 449.559555 
L 524.014281 386.181459 
L 526.183512 361.693713 
L 528.352743 349.770882 
L 530.521974 346.671167 
L 532.691204 356.413128 
L 534.860435 432.998222 
L 537.029666 450.068794 
L 539.198897 377.723666 
L 541.368128 337.383093 
L 543.537358 328.582118 
L 545.706589 337.006699 
L 547.87582 350.911134 
L 550.045051 436.839654 
L 552.214281 448.220035 
L 554.383512 380.192368 
L 556.552743 335.1358 
L 558.721974 332.124649 
L 560.891205 333.652365 
L 563.060435 340.848131 
L 565.229666 435.898669 
L 567.398897 446.382347 
L 569.568128 372.730911 
L 571.737358 340.493878 
L 573.906589 335.866447 
L 576.07582 341.169173 
L 578.245051 356.224931 
L 580.414282 433.396757 
L 582.583512 447.987557 
L 584.752743 371.05928 
L 586.921974 337.02884 
L 589.091205 330.608003 
L 591.260435 337.936614 
L 593.429666 341.88875 
L 595.598897 431.182675 
L 597.768128 445.740263 
L 599.937359 362.822895 
L 602.106589 320.157536 
L 604.27582 319.515452 
L 606.445051 323.744348 
L 608.614282 333.962337 
L 610.783513 428.680762 
L 612.952743 444.068632 
L 615.121974 357.022 
L 617.291205 322.880857 
L 619.460436 338.92188 
L 621.629666 337.261319 
L 623.798897 337.194896 
L 625.968128 434.880192 
L 628.137359 448.408232 
L 630.30659 453.877015 
L 632.47582 346.350125 
L 634.645051 334.272308 
L 636.814282 340.361033 
L 638.983513 350.114064 
L 641.152743 438.168103 
L 643.321974 450.533751 
L 645.491205 383.137097 
L 647.660436 350.601162 
L 649.829667 358.36152 
L 651.998897 348.342799 
L 654.168128 356.545972 
L 656.337359 438.522356 
L 658.50659 453.400987 
L 660.67582 388.650161 
L 662.845051 360.774869 
L 665.014282 451.618651 
L 667.183513 345.530915 
L 669.352744 361.405882 
L 671.521974 444.887842 
L 673.691205 455.449013 
L 675.860436 414.521708 
L 678.029667 383.967377 
L 680.198897 372.487362 
L 682.368128 373.594403 
L 684.537359 394.008239 
L 686.70659 446.913727 
L 688.875821 457.973066 
L 691.045051 412.573316 
L 693.214282 390.211088 
L 695.383513 392.713001 
L 697.552744 386.845684 
L 699.721975 392.447311 
L 701.891205 446.338066 
L 704.060436 458.692643 
L 706.229667 415.008806 
L 708.398898 387.2885 
L 710.568128 410.768839 
L 712.737359 382.982111 
L 714.90659 376.660907 
L 717.075821 439.806524 
L 719.245052 452.371439 
L 721.414282 403.539862 
L 723.583513 371.568518 
L 725.752744 322.925138 
L 727.921975 159.548032 
L 730.091205 206.088034 
L 732.260436 342.829735 
L 734.429667 392.978691 
L 736.598898 304.360061 
L 738.768129 117.867939 
L 740.937359 190.888362 
L 743.10659 213.361293 
L 745.275821 215.97391 
L 747.445052 386.557853 
L 749.614282 417.156466 
L 751.783513 311.378701 
L 753.952744 264.274108 
L 756.121975 255.849526 
L 758.291206 242.343626 
L 760.460436 472.187472 
L 760.460436 472.187472 
" style="fill:none;stroke:#ff0000;stroke-linecap:round;stroke-width:1.5;"/>
   </g>
   <g id="patch_7">
    <path d="M 52.098125 493.286013 
L 52.098125 29.118125 
" style="fill:none;stroke:#262626;stroke-linecap:square;stroke-linejoin:miter;stroke-width:1.25;"/>
   </g>
   <g id="patch_8">
    <path d="M 794.191975 493.286013 
L 794.191975 29.118125 
" style="fill:none;stroke:#262626;stroke-linecap:square;stroke-linejoin:miter;stroke-width:1.25;"/>
   </g>
   <g id="patch_9">
    <path d="M 52.098125 493.286013 
L 794.191975 493.286013 
" style="fill:none;stroke:#262626;stroke-linecap:square;stroke-linejoin:miter;stroke-width:1.25;"/>
   </g>
   <g id="patch_10">
    <path d="M 52.098125 29.118125 
L 794.191975 29.118125 
" style="fill:none;stroke:#262626;stroke-linecap:square;stroke-linejoin:miter;stroke-width:1.25;"/>
   </g>
   <g id="legend_1">
    <g id="patch_11">
     <path d="M 612.420412 70.397344 
L 786.491975 70.397344 
Q 788.691975 70.397344 788.691975 68.197344 
L 788.691975 36.818125 
Q 788.691975 34.618125 786.491975 34.618125 
L 612.420412 34.618125 
Q 610.220412 34.618125 610.220412 36.818125 
L 610.220412 68.197344 
Q 610.220412 70.397344 612.420412 70.397344 
z
" style="fill:#ffffff;opacity:0.8;stroke:#cccccc;stroke-linejoin:miter;"/>
    </g>
    <g id="line2d_122">
     <path d="M 614.620412 43.71375 
L 636.620412 43.71375 
" style="fill:none;stroke:#0000ff;stroke-linecap:round;stroke-width:1.5;"/>
    </g>
    <g id="line2d_123"/>
    <g id="text_46">
     <!-- Кумулативен брой дози -->
     <g style="fill:#262626;" transform="translate(645.420412 47.56375)scale(0.11 -0.11)">
      <defs>
       <path d="M 628 4666 
L 1259 4666 
L 1259 2359 
L 3516 4666 
L 4325 4666 
L 2522 2822 
L 4419 0 
L 3731 0 
L 2113 2403 
L 1259 1531 
L 1259 0 
L 628 0 
L 628 4666 
z
" id="DejaVuSans-41a" transform="scale(0.015625)"/>
       <path d="M 581 3500 
L 1422 3500 
L 2416 1156 
L 3413 3500 
L 4247 3500 
L 4247 0 
L 3669 0 
L 3669 2950 
L 2703 672 
L 2128 672 
L 1159 2950 
L 1159 0 
L 581 0 
L 581 3500 
z
" id="DejaVuSans-43c" transform="scale(0.015625)"/>
       <path d="M 1991 3584 
Q 2741 3584 3169 3096 
Q 3597 2609 3597 1747 
Q 3597 888 3169 398 
Q 2741 -91 1991 -91 
Q 1238 -91 822 384 
Q 406 859 384 1747 
L 366 2463 
Q 350 2834 350 2963 
Q 350 3463 531 3831 
Q 816 4409 1308 4659 
Q 1800 4909 2625 4916 
Q 3006 4919 3175 4972 
L 3334 4516 
Q 3181 4453 3041 4450 
L 2259 4397 
Q 1866 4369 1628 4231 
Q 1006 3866 947 3388 
L 925 3213 
Q 1331 3584 1991 3584 
z
M 1991 3097 
Q 1528 3097 1259 2736 
Q 991 2375 991 1747 
Q 991 1119 1258 758 
Q 1525 397 1991 397 
Q 2450 397 2719 759 
Q 2988 1122 2988 1747 
Q 2988 2369 2719 2733 
Q 2450 3097 1991 3097 
z
" id="DejaVuSans-431" transform="scale(0.015625)"/>
       <path d="M 1159 525 
L 1159 -1331 
L 581 -1331 
L 581 3500 
L 1159 3500 
L 1159 2969 
Q 1341 3281 1617 3432 
Q 1894 3584 2278 3584 
Q 2916 3584 3314 3078 
Q 3713 2572 3713 1747 
Q 3713 922 3314 415 
Q 2916 -91 2278 -91 
Q 1894 -91 1617 61 
Q 1341 213 1159 525 
z
M 3116 1747 
Q 3116 2381 2855 2742 
Q 2594 3103 2138 3103 
Q 1681 3103 1420 2742 
Q 1159 2381 1159 1747 
Q 1159 1113 1420 752 
Q 1681 391 2138 391 
Q 2594 391 2855 752 
Q 3116 1113 3116 1747 
z
" id="DejaVuSans-440" transform="scale(0.015625)"/>
       <path d="M 3578 3500 
L 3578 0 
L 3006 0 
L 3006 2809 
L 1319 0 
L 581 0 
L 581 3500 
L 1153 3500 
L 1153 697 
L 2838 3500 
L 3578 3500 
z
M 1102 4833 
L 1471 4833 
Q 1505 4599 1656 4481 
Q 1808 4364 2080 4364 
Q 2349 4364 2499 4480 
Q 2649 4596 2689 4833 
L 3058 4833 
Q 3027 4386 2780 4161 
Q 2533 3936 2080 3936 
Q 1627 3936 1380 4161 
Q 1133 4386 1102 4833 
z
" id="DejaVuSans-439" transform="scale(0.015625)"/>
      </defs>
      <use xlink:href="#DejaVuSans-41a"/>
      <use x="70.996094" xlink:href="#DejaVuSans-443"/>
      <use x="130.175781" xlink:href="#DejaVuSans-43c"/>
      <use x="205.615234" xlink:href="#DejaVuSans-443"/>
      <use x="264.794922" xlink:href="#DejaVuSans-43b"/>
      <use x="328.710938" xlink:href="#DejaVuSans-430"/>
      <use x="389.990234" xlink:href="#DejaVuSans-442"/>
      <use x="448.242188" xlink:href="#DejaVuSans-438"/>
      <use x="513.232422" xlink:href="#DejaVuSans-432"/>
      <use x="572.167969" xlink:href="#DejaVuSans-435"/>
      <use x="633.691406" xlink:href="#DejaVuSans-43d"/>
      <use x="699.072266" xlink:href="#DejaVuSans-20"/>
      <use x="730.859375" xlink:href="#DejaVuSans-431"/>
      <use x="792.529297" xlink:href="#DejaVuSans-440"/>
      <use x="856.005859" xlink:href="#DejaVuSans-43e"/>
      <use x="917.1875" xlink:href="#DejaVuSans-439"/>
      <use x="982.177734" xlink:href="#DejaVuSans-20"/>
      <use x="1013.964844" xlink:href="#DejaVuSans-434"/>
      <use x="1083.105469" xlink:href="#DejaVuSans-43e"/>
      <use x="1144.287109" xlink:href="#DejaVuSans-437"/>
      <use x="1197.460938" xlink:href="#DejaVuSans-438"/>
     </g>
    </g>
    <g id="line2d_124">
     <path d="M 614.620412 59.859687 
L 636.620412 59.859687 
" style="fill:none;stroke:#ff0000;stroke-linecap:round;stroke-width:1.5;"/>
    </g>
    <g id="line2d_125"/>
    <g id="text_47">
     <!-- Новопоставени дози -->
     <g style="fill:#262626;" transform="translate(645.420412 63.709687)scale(0.11 -0.11)">
      <use xlink:href="#DejaVuSans-41d"/>
      <use x="75.195312" xlink:href="#DejaVuSans-43e"/>
      <use x="136.376953" xlink:href="#DejaVuSans-432"/>
      <use x="195.3125" xlink:href="#DejaVuSans-43e"/>
      <use x="256.494141" xlink:href="#DejaVuSans-43f"/>
      <use x="321.875" xlink:href="#DejaVuSans-43e"/>
      <use x="383.056641" xlink:href="#DejaVuSans-441"/>
      <use x="438.037109" xlink:href="#DejaVuSans-442"/>
      <use x="496.289062" xlink:href="#DejaVuSans-430"/>
      <use x="557.568359" xlink:href="#DejaVuSans-432"/>
      <use x="616.503906" xlink:href="#DejaVuSans-435"/>
      <use x="678.027344" xlink:href="#DejaVuSans-43d"/>
      <use x="743.408203" xlink:href="#DejaVuSans-438"/>
      <use x="808.398438" xlink:href="#DejaVuSans-20"/>
      <use x="840.185547" xlink:href="#DejaVuSans-434"/>
      <use x="909.326172" xlink:href="#DejaVuSans-43e"/>
      <use x="970.507812" xlink:href="#DejaVuSans-437"/>
      <use x="1023.681641" xlink:href="#DejaVuSans-438"/>
     </g>
    </g>
   </g>
  </g>
 </g>
 <defs>
  <clipPath id="pf62723287f">
   <rect height="464.167888" width="742.09385" x="52.098125" y="29.118125"/>
  </clipPath>
 </defs>
</svg>
