<?xml version="1.0" encoding="utf-8" standalone="no"?>
<!DOCTYPE svg PUBLIC "-//W3C//DTD SVG 1.1//EN"
  "http://www.w3.org/Graphics/SVG/1.1/DTD/svg11.dtd">
<svg height="570.462488pt" version="1.1" viewBox="0 0 858.685725 570.462488" width="858.685725pt" xmlns="http://www.w3.org/2000/svg" xmlns:xlink="http://www.w3.org/1999/xlink">
 <metadata>
  <rdf:RDF xmlns:cc="http://creativecommons.org/ns#" xmlns:dc="http://purl.org/dc/elements/1.1/" xmlns:rdf="http://www.w3.org/1999/02/22-rdf-syntax-ns#">
   <cc:Work>
    <dc:type rdf:resource="http://purl.org/dc/dcmitype/StillImage"/>
    <dc:date>2021-11-21T01:35:56.608069</dc:date>
    <dc:format>image/svg+xml</dc:format>
    <dc:creator>
     <cc:Agent>
      <dc:title>Matplotlib v3.4.3, https://matplotlib.org/</dc:title>
     </cc:Agent>
    </dc:creator>
   </cc:Work>
  </rdf:RDF>
 </metadata>
 <defs>
  <style type="text/css">*{stroke-linecap:butt;stroke-linejoin:round;}</style>
 </defs>
 <g id="figure_1">
  <g id="patch_1">
   <path d="M 0 570.462488 
L 858.685725 570.462488 
L 858.685725 0 
L 0 0 
z
" style="fill:none;"/>
  </g>
  <g id="axes_1">
   <g id="patch_2">
    <path d="M 52.098125 493.286013 
L 794.191975 493.286013 
L 794.191975 29.118125 
L 52.098125 29.118125 
z
" style="fill:none;"/>
   </g>
   <g id="matplotlib.axis_1">
    <g id="xtick_1">
     <g id="line2d_1">
      <path clip-path="url(#pe37100df96)" d="M 85.829664 493.286013 
L 85.829664 29.118125 
" style="fill:none;stroke:#cccccc;stroke-linecap:round;"/>
     </g>
     <g id="line2d_2">
      <defs>
       <path d="M 0 0 
L 0 6 
" id="med5cb12cb7" style="stroke:#262626;stroke-width:1.25;"/>
      </defs>
      <g>
       <use style="fill:#262626;stroke:#262626;stroke-width:1.25;" x="85.829664" xlink:href="#med5cb12cb7" y="493.286013"/>
      </g>
     </g>
     <g id="text_1">
      <!-- 29.12.2020 -->
      <g style="fill:#262626;" transform="translate(39.677135 553.231121)rotate(-45)scale(0.11 -0.11)">
       <defs>
        <path d="M 1228 531 
L 3431 531 
L 3431 0 
L 469 0 
L 469 531 
Q 828 903 1448 1529 
Q 2069 2156 2228 2338 
Q 2531 2678 2651 2914 
Q 2772 3150 2772 3378 
Q 2772 3750 2511 3984 
Q 2250 4219 1831 4219 
Q 1534 4219 1204 4116 
Q 875 4013 500 3803 
L 500 4441 
Q 881 4594 1212 4672 
Q 1544 4750 1819 4750 
Q 2544 4750 2975 4387 
Q 3406 4025 3406 3419 
Q 3406 3131 3298 2873 
Q 3191 2616 2906 2266 
Q 2828 2175 2409 1742 
Q 1991 1309 1228 531 
z
" id="DejaVuSans-32" transform="scale(0.015625)"/>
        <path d="M 703 97 
L 703 672 
Q 941 559 1184 500 
Q 1428 441 1663 441 
Q 2288 441 2617 861 
Q 2947 1281 2994 2138 
Q 2813 1869 2534 1725 
Q 2256 1581 1919 1581 
Q 1219 1581 811 2004 
Q 403 2428 403 3163 
Q 403 3881 828 4315 
Q 1253 4750 1959 4750 
Q 2769 4750 3195 4129 
Q 3622 3509 3622 2328 
Q 3622 1225 3098 567 
Q 2575 -91 1691 -91 
Q 1453 -91 1209 -44 
Q 966 3 703 97 
z
M 1959 2075 
Q 2384 2075 2632 2365 
Q 2881 2656 2881 3163 
Q 2881 3666 2632 3958 
Q 2384 4250 1959 4250 
Q 1534 4250 1286 3958 
Q 1038 3666 1038 3163 
Q 1038 2656 1286 2365 
Q 1534 2075 1959 2075 
z
" id="DejaVuSans-39" transform="scale(0.015625)"/>
        <path d="M 684 794 
L 1344 794 
L 1344 0 
L 684 0 
L 684 794 
z
" id="DejaVuSans-2e" transform="scale(0.015625)"/>
        <path d="M 794 531 
L 1825 531 
L 1825 4091 
L 703 3866 
L 703 4441 
L 1819 4666 
L 2450 4666 
L 2450 531 
L 3481 531 
L 3481 0 
L 794 0 
L 794 531 
z
" id="DejaVuSans-31" transform="scale(0.015625)"/>
        <path d="M 2034 4250 
Q 1547 4250 1301 3770 
Q 1056 3291 1056 2328 
Q 1056 1369 1301 889 
Q 1547 409 2034 409 
Q 2525 409 2770 889 
Q 3016 1369 3016 2328 
Q 3016 3291 2770 3770 
Q 2525 4250 2034 4250 
z
M 2034 4750 
Q 2819 4750 3233 4129 
Q 3647 3509 3647 2328 
Q 3647 1150 3233 529 
Q 2819 -91 2034 -91 
Q 1250 -91 836 529 
Q 422 1150 422 2328 
Q 422 3509 836 4129 
Q 1250 4750 2034 4750 
z
" id="DejaVuSans-30" transform="scale(0.015625)"/>
       </defs>
       <use xlink:href="#DejaVuSans-32"/>
       <use x="63.623047" xlink:href="#DejaVuSans-39"/>
       <use x="127.246094" xlink:href="#DejaVuSans-2e"/>
       <use x="159.033203" xlink:href="#DejaVuSans-31"/>
       <use x="222.65625" xlink:href="#DejaVuSans-32"/>
       <use x="286.279297" xlink:href="#DejaVuSans-2e"/>
       <use x="318.066406" xlink:href="#DejaVuSans-32"/>
       <use x="381.689453" xlink:href="#DejaVuSans-30"/>
       <use x="445.3125" xlink:href="#DejaVuSans-32"/>
       <use x="508.935547" xlink:href="#DejaVuSans-30"/>
      </g>
     </g>
    </g>
    <g id="xtick_2">
     <g id="line2d_3">
      <path clip-path="url(#pe37100df96)" d="M 114.801537 493.286013 
L 114.801537 29.118125 
" style="fill:none;stroke:#cccccc;stroke-linecap:round;"/>
     </g>
     <g id="line2d_4">
      <g>
       <use style="fill:#262626;stroke:#262626;stroke-width:1.25;" x="114.801537" xlink:href="#med5cb12cb7" y="493.286013"/>
      </g>
     </g>
     <g id="text_2">
      <!-- 12.01.2021 -->
      <g style="fill:#262626;" transform="translate(68.649009 553.231121)rotate(-45)scale(0.11 -0.11)">
       <use xlink:href="#DejaVuSans-31"/>
       <use x="63.623047" xlink:href="#DejaVuSans-32"/>
       <use x="127.246094" xlink:href="#DejaVuSans-2e"/>
       <use x="159.033203" xlink:href="#DejaVuSans-30"/>
       <use x="222.65625" xlink:href="#DejaVuSans-31"/>
       <use x="286.279297" xlink:href="#DejaVuSans-2e"/>
       <use x="318.066406" xlink:href="#DejaVuSans-32"/>
       <use x="381.689453" xlink:href="#DejaVuSans-30"/>
       <use x="445.3125" xlink:href="#DejaVuSans-32"/>
       <use x="508.935547" xlink:href="#DejaVuSans-31"/>
      </g>
     </g>
    </g>
    <g id="xtick_3">
     <g id="line2d_5">
      <path clip-path="url(#pe37100df96)" d="M 143.773411 493.286013 
L 143.773411 29.118125 
" style="fill:none;stroke:#cccccc;stroke-linecap:round;"/>
     </g>
     <g id="line2d_6">
      <g>
       <use style="fill:#262626;stroke:#262626;stroke-width:1.25;" x="143.773411" xlink:href="#med5cb12cb7" y="493.286013"/>
      </g>
     </g>
     <g id="text_3">
      <!-- 26.01.2021 -->
      <g style="fill:#262626;" transform="translate(97.620883 553.231121)rotate(-45)scale(0.11 -0.11)">
       <defs>
        <path d="M 2113 2584 
Q 1688 2584 1439 2293 
Q 1191 2003 1191 1497 
Q 1191 994 1439 701 
Q 1688 409 2113 409 
Q 2538 409 2786 701 
Q 3034 994 3034 1497 
Q 3034 2003 2786 2293 
Q 2538 2584 2113 2584 
z
M 3366 4563 
L 3366 3988 
Q 3128 4100 2886 4159 
Q 2644 4219 2406 4219 
Q 1781 4219 1451 3797 
Q 1122 3375 1075 2522 
Q 1259 2794 1537 2939 
Q 1816 3084 2150 3084 
Q 2853 3084 3261 2657 
Q 3669 2231 3669 1497 
Q 3669 778 3244 343 
Q 2819 -91 2113 -91 
Q 1303 -91 875 529 
Q 447 1150 447 2328 
Q 447 3434 972 4092 
Q 1497 4750 2381 4750 
Q 2619 4750 2861 4703 
Q 3103 4656 3366 4563 
z
" id="DejaVuSans-36" transform="scale(0.015625)"/>
       </defs>
       <use xlink:href="#DejaVuSans-32"/>
       <use x="63.623047" xlink:href="#DejaVuSans-36"/>
       <use x="127.246094" xlink:href="#DejaVuSans-2e"/>
       <use x="159.033203" xlink:href="#DejaVuSans-30"/>
       <use x="222.65625" xlink:href="#DejaVuSans-31"/>
       <use x="286.279297" xlink:href="#DejaVuSans-2e"/>
       <use x="318.066406" xlink:href="#DejaVuSans-32"/>
       <use x="381.689453" xlink:href="#DejaVuSans-30"/>
       <use x="445.3125" xlink:href="#DejaVuSans-32"/>
       <use x="508.935547" xlink:href="#DejaVuSans-31"/>
      </g>
     </g>
    </g>
    <g id="xtick_4">
     <g id="line2d_7">
      <path clip-path="url(#pe37100df96)" d="M 172.745285 493.286013 
L 172.745285 29.118125 
" style="fill:none;stroke:#cccccc;stroke-linecap:round;"/>
     </g>
     <g id="line2d_8">
      <g>
       <use style="fill:#262626;stroke:#262626;stroke-width:1.25;" x="172.745285" xlink:href="#med5cb12cb7" y="493.286013"/>
      </g>
     </g>
     <g id="text_4">
      <!-- 09.02.2021 -->
      <g style="fill:#262626;" transform="translate(126.592757 553.231121)rotate(-45)scale(0.11 -0.11)">
       <use xlink:href="#DejaVuSans-30"/>
       <use x="63.623047" xlink:href="#DejaVuSans-39"/>
       <use x="127.246094" xlink:href="#DejaVuSans-2e"/>
       <use x="159.033203" xlink:href="#DejaVuSans-30"/>
       <use x="222.65625" xlink:href="#DejaVuSans-32"/>
       <use x="286.279297" xlink:href="#DejaVuSans-2e"/>
       <use x="318.066406" xlink:href="#DejaVuSans-32"/>
       <use x="381.689453" xlink:href="#DejaVuSans-30"/>
       <use x="445.3125" xlink:href="#DejaVuSans-32"/>
       <use x="508.935547" xlink:href="#DejaVuSans-31"/>
      </g>
     </g>
    </g>
    <g id="xtick_5">
     <g id="line2d_9">
      <path clip-path="url(#pe37100df96)" d="M 201.717158 493.286013 
L 201.717158 29.118125 
" style="fill:none;stroke:#cccccc;stroke-linecap:round;"/>
     </g>
     <g id="line2d_10">
      <g>
       <use style="fill:#262626;stroke:#262626;stroke-width:1.25;" x="201.717158" xlink:href="#med5cb12cb7" y="493.286013"/>
      </g>
     </g>
     <g id="text_5">
      <!-- 23.02.2021 -->
      <g style="fill:#262626;" transform="translate(155.56463 553.231121)rotate(-45)scale(0.11 -0.11)">
       <defs>
        <path d="M 2597 2516 
Q 3050 2419 3304 2112 
Q 3559 1806 3559 1356 
Q 3559 666 3084 287 
Q 2609 -91 1734 -91 
Q 1441 -91 1130 -33 
Q 819 25 488 141 
L 488 750 
Q 750 597 1062 519 
Q 1375 441 1716 441 
Q 2309 441 2620 675 
Q 2931 909 2931 1356 
Q 2931 1769 2642 2001 
Q 2353 2234 1838 2234 
L 1294 2234 
L 1294 2753 
L 1863 2753 
Q 2328 2753 2575 2939 
Q 2822 3125 2822 3475 
Q 2822 3834 2567 4026 
Q 2313 4219 1838 4219 
Q 1578 4219 1281 4162 
Q 984 4106 628 3988 
L 628 4550 
Q 988 4650 1302 4700 
Q 1616 4750 1894 4750 
Q 2613 4750 3031 4423 
Q 3450 4097 3450 3541 
Q 3450 3153 3228 2886 
Q 3006 2619 2597 2516 
z
" id="DejaVuSans-33" transform="scale(0.015625)"/>
       </defs>
       <use xlink:href="#DejaVuSans-32"/>
       <use x="63.623047" xlink:href="#DejaVuSans-33"/>
       <use x="127.246094" xlink:href="#DejaVuSans-2e"/>
       <use x="159.033203" xlink:href="#DejaVuSans-30"/>
       <use x="222.65625" xlink:href="#DejaVuSans-32"/>
       <use x="286.279297" xlink:href="#DejaVuSans-2e"/>
       <use x="318.066406" xlink:href="#DejaVuSans-32"/>
       <use x="381.689453" xlink:href="#DejaVuSans-30"/>
       <use x="445.3125" xlink:href="#DejaVuSans-32"/>
       <use x="508.935547" xlink:href="#DejaVuSans-31"/>
      </g>
     </g>
    </g>
    <g id="xtick_6">
     <g id="line2d_11">
      <path clip-path="url(#pe37100df96)" d="M 230.689032 493.286013 
L 230.689032 29.118125 
" style="fill:none;stroke:#cccccc;stroke-linecap:round;"/>
     </g>
     <g id="line2d_12">
      <g>
       <use style="fill:#262626;stroke:#262626;stroke-width:1.25;" x="230.689032" xlink:href="#med5cb12cb7" y="493.286013"/>
      </g>
     </g>
     <g id="text_6">
      <!-- 09.03.2021 -->
      <g style="fill:#262626;" transform="translate(184.536504 553.231121)rotate(-45)scale(0.11 -0.11)">
       <use xlink:href="#DejaVuSans-30"/>
       <use x="63.623047" xlink:href="#DejaVuSans-39"/>
       <use x="127.246094" xlink:href="#DejaVuSans-2e"/>
       <use x="159.033203" xlink:href="#DejaVuSans-30"/>
       <use x="222.65625" xlink:href="#DejaVuSans-33"/>
       <use x="286.279297" xlink:href="#DejaVuSans-2e"/>
       <use x="318.066406" xlink:href="#DejaVuSans-32"/>
       <use x="381.689453" xlink:href="#DejaVuSans-30"/>
       <use x="445.3125" xlink:href="#DejaVuSans-32"/>
       <use x="508.935547" xlink:href="#DejaVuSans-31"/>
      </g>
     </g>
    </g>
    <g id="xtick_7">
     <g id="line2d_13">
      <path clip-path="url(#pe37100df96)" d="M 259.660906 493.286013 
L 259.660906 29.118125 
" style="fill:none;stroke:#cccccc;stroke-linecap:round;"/>
     </g>
     <g id="line2d_14">
      <g>
       <use style="fill:#262626;stroke:#262626;stroke-width:1.25;" x="259.660906" xlink:href="#med5cb12cb7" y="493.286013"/>
      </g>
     </g>
     <g id="text_7">
      <!-- 23.03.2021 -->
      <g style="fill:#262626;" transform="translate(213.508378 553.231121)rotate(-45)scale(0.11 -0.11)">
       <use xlink:href="#DejaVuSans-32"/>
       <use x="63.623047" xlink:href="#DejaVuSans-33"/>
       <use x="127.246094" xlink:href="#DejaVuSans-2e"/>
       <use x="159.033203" xlink:href="#DejaVuSans-30"/>
       <use x="222.65625" xlink:href="#DejaVuSans-33"/>
       <use x="286.279297" xlink:href="#DejaVuSans-2e"/>
       <use x="318.066406" xlink:href="#DejaVuSans-32"/>
       <use x="381.689453" xlink:href="#DejaVuSans-30"/>
       <use x="445.3125" xlink:href="#DejaVuSans-32"/>
       <use x="508.935547" xlink:href="#DejaVuSans-31"/>
      </g>
     </g>
    </g>
    <g id="xtick_8">
     <g id="line2d_15">
      <path clip-path="url(#pe37100df96)" d="M 288.632779 493.286013 
L 288.632779 29.118125 
" style="fill:none;stroke:#cccccc;stroke-linecap:round;"/>
     </g>
     <g id="line2d_16">
      <g>
       <use style="fill:#262626;stroke:#262626;stroke-width:1.25;" x="288.632779" xlink:href="#med5cb12cb7" y="493.286013"/>
      </g>
     </g>
     <g id="text_8">
      <!-- 06.04.2021 -->
      <g style="fill:#262626;" transform="translate(242.480251 553.231121)rotate(-45)scale(0.11 -0.11)">
       <defs>
        <path d="M 2419 4116 
L 825 1625 
L 2419 1625 
L 2419 4116 
z
M 2253 4666 
L 3047 4666 
L 3047 1625 
L 3713 1625 
L 3713 1100 
L 3047 1100 
L 3047 0 
L 2419 0 
L 2419 1100 
L 313 1100 
L 313 1709 
L 2253 4666 
z
" id="DejaVuSans-34" transform="scale(0.015625)"/>
       </defs>
       <use xlink:href="#DejaVuSans-30"/>
       <use x="63.623047" xlink:href="#DejaVuSans-36"/>
       <use x="127.246094" xlink:href="#DejaVuSans-2e"/>
       <use x="159.033203" xlink:href="#DejaVuSans-30"/>
       <use x="222.65625" xlink:href="#DejaVuSans-34"/>
       <use x="286.279297" xlink:href="#DejaVuSans-2e"/>
       <use x="318.066406" xlink:href="#DejaVuSans-32"/>
       <use x="381.689453" xlink:href="#DejaVuSans-30"/>
       <use x="445.3125" xlink:href="#DejaVuSans-32"/>
       <use x="508.935547" xlink:href="#DejaVuSans-31"/>
      </g>
     </g>
    </g>
    <g id="xtick_9">
     <g id="line2d_17">
      <path clip-path="url(#pe37100df96)" d="M 317.604653 493.286013 
L 317.604653 29.118125 
" style="fill:none;stroke:#cccccc;stroke-linecap:round;"/>
     </g>
     <g id="line2d_18">
      <g>
       <use style="fill:#262626;stroke:#262626;stroke-width:1.25;" x="317.604653" xlink:href="#med5cb12cb7" y="493.286013"/>
      </g>
     </g>
     <g id="text_9">
      <!-- 20.04.2021 -->
      <g style="fill:#262626;" transform="translate(271.452125 553.231121)rotate(-45)scale(0.11 -0.11)">
       <use xlink:href="#DejaVuSans-32"/>
       <use x="63.623047" xlink:href="#DejaVuSans-30"/>
       <use x="127.246094" xlink:href="#DejaVuSans-2e"/>
       <use x="159.033203" xlink:href="#DejaVuSans-30"/>
       <use x="222.65625" xlink:href="#DejaVuSans-34"/>
       <use x="286.279297" xlink:href="#DejaVuSans-2e"/>
       <use x="318.066406" xlink:href="#DejaVuSans-32"/>
       <use x="381.689453" xlink:href="#DejaVuSans-30"/>
       <use x="445.3125" xlink:href="#DejaVuSans-32"/>
       <use x="508.935547" xlink:href="#DejaVuSans-31"/>
      </g>
     </g>
    </g>
    <g id="xtick_10">
     <g id="line2d_19">
      <path clip-path="url(#pe37100df96)" d="M 346.576527 493.286013 
L 346.576527 29.118125 
" style="fill:none;stroke:#cccccc;stroke-linecap:round;"/>
     </g>
     <g id="line2d_20">
      <g>
       <use style="fill:#262626;stroke:#262626;stroke-width:1.25;" x="346.576527" xlink:href="#med5cb12cb7" y="493.286013"/>
      </g>
     </g>
     <g id="text_10">
      <!-- 04.05.2021 -->
      <g style="fill:#262626;" transform="translate(300.423999 553.231121)rotate(-45)scale(0.11 -0.11)">
       <defs>
        <path d="M 691 4666 
L 3169 4666 
L 3169 4134 
L 1269 4134 
L 1269 2991 
Q 1406 3038 1543 3061 
Q 1681 3084 1819 3084 
Q 2600 3084 3056 2656 
Q 3513 2228 3513 1497 
Q 3513 744 3044 326 
Q 2575 -91 1722 -91 
Q 1428 -91 1123 -41 
Q 819 9 494 109 
L 494 744 
Q 775 591 1075 516 
Q 1375 441 1709 441 
Q 2250 441 2565 725 
Q 2881 1009 2881 1497 
Q 2881 1984 2565 2268 
Q 2250 2553 1709 2553 
Q 1456 2553 1204 2497 
Q 953 2441 691 2322 
L 691 4666 
z
" id="DejaVuSans-35" transform="scale(0.015625)"/>
       </defs>
       <use xlink:href="#DejaVuSans-30"/>
       <use x="63.623047" xlink:href="#DejaVuSans-34"/>
       <use x="127.246094" xlink:href="#DejaVuSans-2e"/>
       <use x="159.033203" xlink:href="#DejaVuSans-30"/>
       <use x="222.65625" xlink:href="#DejaVuSans-35"/>
       <use x="286.279297" xlink:href="#DejaVuSans-2e"/>
       <use x="318.066406" xlink:href="#DejaVuSans-32"/>
       <use x="381.689453" xlink:href="#DejaVuSans-30"/>
       <use x="445.3125" xlink:href="#DejaVuSans-32"/>
       <use x="508.935547" xlink:href="#DejaVuSans-31"/>
      </g>
     </g>
    </g>
    <g id="xtick_11">
     <g id="line2d_21">
      <path clip-path="url(#pe37100df96)" d="M 375.5484 493.286013 
L 375.5484 29.118125 
" style="fill:none;stroke:#cccccc;stroke-linecap:round;"/>
     </g>
     <g id="line2d_22">
      <g>
       <use style="fill:#262626;stroke:#262626;stroke-width:1.25;" x="375.5484" xlink:href="#med5cb12cb7" y="493.286013"/>
      </g>
     </g>
     <g id="text_11">
      <!-- 18.05.2021 -->
      <g style="fill:#262626;" transform="translate(329.395872 553.231121)rotate(-45)scale(0.11 -0.11)">
       <defs>
        <path d="M 2034 2216 
Q 1584 2216 1326 1975 
Q 1069 1734 1069 1313 
Q 1069 891 1326 650 
Q 1584 409 2034 409 
Q 2484 409 2743 651 
Q 3003 894 3003 1313 
Q 3003 1734 2745 1975 
Q 2488 2216 2034 2216 
z
M 1403 2484 
Q 997 2584 770 2862 
Q 544 3141 544 3541 
Q 544 4100 942 4425 
Q 1341 4750 2034 4750 
Q 2731 4750 3128 4425 
Q 3525 4100 3525 3541 
Q 3525 3141 3298 2862 
Q 3072 2584 2669 2484 
Q 3125 2378 3379 2068 
Q 3634 1759 3634 1313 
Q 3634 634 3220 271 
Q 2806 -91 2034 -91 
Q 1263 -91 848 271 
Q 434 634 434 1313 
Q 434 1759 690 2068 
Q 947 2378 1403 2484 
z
M 1172 3481 
Q 1172 3119 1398 2916 
Q 1625 2713 2034 2713 
Q 2441 2713 2670 2916 
Q 2900 3119 2900 3481 
Q 2900 3844 2670 4047 
Q 2441 4250 2034 4250 
Q 1625 4250 1398 4047 
Q 1172 3844 1172 3481 
z
" id="DejaVuSans-38" transform="scale(0.015625)"/>
       </defs>
       <use xlink:href="#DejaVuSans-31"/>
       <use x="63.623047" xlink:href="#DejaVuSans-38"/>
       <use x="127.246094" xlink:href="#DejaVuSans-2e"/>
       <use x="159.033203" xlink:href="#DejaVuSans-30"/>
       <use x="222.65625" xlink:href="#DejaVuSans-35"/>
       <use x="286.279297" xlink:href="#DejaVuSans-2e"/>
       <use x="318.066406" xlink:href="#DejaVuSans-32"/>
       <use x="381.689453" xlink:href="#DejaVuSans-30"/>
       <use x="445.3125" xlink:href="#DejaVuSans-32"/>
       <use x="508.935547" xlink:href="#DejaVuSans-31"/>
      </g>
     </g>
    </g>
    <g id="xtick_12">
     <g id="line2d_23">
      <path clip-path="url(#pe37100df96)" d="M 404.520274 493.286013 
L 404.520274 29.118125 
" style="fill:none;stroke:#cccccc;stroke-linecap:round;"/>
     </g>
     <g id="line2d_24">
      <g>
       <use style="fill:#262626;stroke:#262626;stroke-width:1.25;" x="404.520274" xlink:href="#med5cb12cb7" y="493.286013"/>
      </g>
     </g>
     <g id="text_12">
      <!-- 01.06.2021 -->
      <g style="fill:#262626;" transform="translate(358.367746 553.231121)rotate(-45)scale(0.11 -0.11)">
       <use xlink:href="#DejaVuSans-30"/>
       <use x="63.623047" xlink:href="#DejaVuSans-31"/>
       <use x="127.246094" xlink:href="#DejaVuSans-2e"/>
       <use x="159.033203" xlink:href="#DejaVuSans-30"/>
       <use x="222.65625" xlink:href="#DejaVuSans-36"/>
       <use x="286.279297" xlink:href="#DejaVuSans-2e"/>
       <use x="318.066406" xlink:href="#DejaVuSans-32"/>
       <use x="381.689453" xlink:href="#DejaVuSans-30"/>
       <use x="445.3125" xlink:href="#DejaVuSans-32"/>
       <use x="508.935547" xlink:href="#DejaVuSans-31"/>
      </g>
     </g>
    </g>
    <g id="xtick_13">
     <g id="line2d_25">
      <path clip-path="url(#pe37100df96)" d="M 433.492148 493.286013 
L 433.492148 29.118125 
" style="fill:none;stroke:#cccccc;stroke-linecap:round;"/>
     </g>
     <g id="line2d_26">
      <g>
       <use style="fill:#262626;stroke:#262626;stroke-width:1.25;" x="433.492148" xlink:href="#med5cb12cb7" y="493.286013"/>
      </g>
     </g>
     <g id="text_13">
      <!-- 15.06.2021 -->
      <g style="fill:#262626;" transform="translate(387.33962 553.231121)rotate(-45)scale(0.11 -0.11)">
       <use xlink:href="#DejaVuSans-31"/>
       <use x="63.623047" xlink:href="#DejaVuSans-35"/>
       <use x="127.246094" xlink:href="#DejaVuSans-2e"/>
       <use x="159.033203" xlink:href="#DejaVuSans-30"/>
       <use x="222.65625" xlink:href="#DejaVuSans-36"/>
       <use x="286.279297" xlink:href="#DejaVuSans-2e"/>
       <use x="318.066406" xlink:href="#DejaVuSans-32"/>
       <use x="381.689453" xlink:href="#DejaVuSans-30"/>
       <use x="445.3125" xlink:href="#DejaVuSans-32"/>
       <use x="508.935547" xlink:href="#DejaVuSans-31"/>
      </g>
     </g>
    </g>
    <g id="xtick_14">
     <g id="line2d_27">
      <path clip-path="url(#pe37100df96)" d="M 462.464021 493.286013 
L 462.464021 29.118125 
" style="fill:none;stroke:#cccccc;stroke-linecap:round;"/>
     </g>
     <g id="line2d_28">
      <g>
       <use style="fill:#262626;stroke:#262626;stroke-width:1.25;" x="462.464021" xlink:href="#med5cb12cb7" y="493.286013"/>
      </g>
     </g>
     <g id="text_14">
      <!-- 29.06.2021 -->
      <g style="fill:#262626;" transform="translate(416.311493 553.231121)rotate(-45)scale(0.11 -0.11)">
       <use xlink:href="#DejaVuSans-32"/>
       <use x="63.623047" xlink:href="#DejaVuSans-39"/>
       <use x="127.246094" xlink:href="#DejaVuSans-2e"/>
       <use x="159.033203" xlink:href="#DejaVuSans-30"/>
       <use x="222.65625" xlink:href="#DejaVuSans-36"/>
       <use x="286.279297" xlink:href="#DejaVuSans-2e"/>
       <use x="318.066406" xlink:href="#DejaVuSans-32"/>
       <use x="381.689453" xlink:href="#DejaVuSans-30"/>
       <use x="445.3125" xlink:href="#DejaVuSans-32"/>
       <use x="508.935547" xlink:href="#DejaVuSans-31"/>
      </g>
     </g>
    </g>
    <g id="xtick_15">
     <g id="line2d_29">
      <path clip-path="url(#pe37100df96)" d="M 491.435895 493.286013 
L 491.435895 29.118125 
" style="fill:none;stroke:#cccccc;stroke-linecap:round;"/>
     </g>
     <g id="line2d_30">
      <g>
       <use style="fill:#262626;stroke:#262626;stroke-width:1.25;" x="491.435895" xlink:href="#med5cb12cb7" y="493.286013"/>
      </g>
     </g>
     <g id="text_15">
      <!-- 13.07.2021 -->
      <g style="fill:#262626;" transform="translate(445.283367 553.231121)rotate(-45)scale(0.11 -0.11)">
       <defs>
        <path d="M 525 4666 
L 3525 4666 
L 3525 4397 
L 1831 0 
L 1172 0 
L 2766 4134 
L 525 4134 
L 525 4666 
z
" id="DejaVuSans-37" transform="scale(0.015625)"/>
       </defs>
       <use xlink:href="#DejaVuSans-31"/>
       <use x="63.623047" xlink:href="#DejaVuSans-33"/>
       <use x="127.246094" xlink:href="#DejaVuSans-2e"/>
       <use x="159.033203" xlink:href="#DejaVuSans-30"/>
       <use x="222.65625" xlink:href="#DejaVuSans-37"/>
       <use x="286.279297" xlink:href="#DejaVuSans-2e"/>
       <use x="318.066406" xlink:href="#DejaVuSans-32"/>
       <use x="381.689453" xlink:href="#DejaVuSans-30"/>
       <use x="445.3125" xlink:href="#DejaVuSans-32"/>
       <use x="508.935547" xlink:href="#DejaVuSans-31"/>
      </g>
     </g>
    </g>
    <g id="xtick_16">
     <g id="line2d_31">
      <path clip-path="url(#pe37100df96)" d="M 520.407769 493.286013 
L 520.407769 29.118125 
" style="fill:none;stroke:#cccccc;stroke-linecap:round;"/>
     </g>
     <g id="line2d_32">
      <g>
       <use style="fill:#262626;stroke:#262626;stroke-width:1.25;" x="520.407769" xlink:href="#med5cb12cb7" y="493.286013"/>
      </g>
     </g>
     <g id="text_16">
      <!-- 27.07.2021 -->
      <g style="fill:#262626;" transform="translate(474.255241 553.231121)rotate(-45)scale(0.11 -0.11)">
       <use xlink:href="#DejaVuSans-32"/>
       <use x="63.623047" xlink:href="#DejaVuSans-37"/>
       <use x="127.246094" xlink:href="#DejaVuSans-2e"/>
       <use x="159.033203" xlink:href="#DejaVuSans-30"/>
       <use x="222.65625" xlink:href="#DejaVuSans-37"/>
       <use x="286.279297" xlink:href="#DejaVuSans-2e"/>
       <use x="318.066406" xlink:href="#DejaVuSans-32"/>
       <use x="381.689453" xlink:href="#DejaVuSans-30"/>
       <use x="445.3125" xlink:href="#DejaVuSans-32"/>
       <use x="508.935547" xlink:href="#DejaVuSans-31"/>
      </g>
     </g>
    </g>
    <g id="xtick_17">
     <g id="line2d_33">
      <path clip-path="url(#pe37100df96)" d="M 549.379642 493.286013 
L 549.379642 29.118125 
" style="fill:none;stroke:#cccccc;stroke-linecap:round;"/>
     </g>
     <g id="line2d_34">
      <g>
       <use style="fill:#262626;stroke:#262626;stroke-width:1.25;" x="549.379642" xlink:href="#med5cb12cb7" y="493.286013"/>
      </g>
     </g>
     <g id="text_17">
      <!-- 10.08.2021 -->
      <g style="fill:#262626;" transform="translate(503.227114 553.231121)rotate(-45)scale(0.11 -0.11)">
       <use xlink:href="#DejaVuSans-31"/>
       <use x="63.623047" xlink:href="#DejaVuSans-30"/>
       <use x="127.246094" xlink:href="#DejaVuSans-2e"/>
       <use x="159.033203" xlink:href="#DejaVuSans-30"/>
       <use x="222.65625" xlink:href="#DejaVuSans-38"/>
       <use x="286.279297" xlink:href="#DejaVuSans-2e"/>
       <use x="318.066406" xlink:href="#DejaVuSans-32"/>
       <use x="381.689453" xlink:href="#DejaVuSans-30"/>
       <use x="445.3125" xlink:href="#DejaVuSans-32"/>
       <use x="508.935547" xlink:href="#DejaVuSans-31"/>
      </g>
     </g>
    </g>
    <g id="xtick_18">
     <g id="line2d_35">
      <path clip-path="url(#pe37100df96)" d="M 578.351516 493.286013 
L 578.351516 29.118125 
" style="fill:none;stroke:#cccccc;stroke-linecap:round;"/>
     </g>
     <g id="line2d_36">
      <g>
       <use style="fill:#262626;stroke:#262626;stroke-width:1.25;" x="578.351516" xlink:href="#med5cb12cb7" y="493.286013"/>
      </g>
     </g>
     <g id="text_18">
      <!-- 24.08.2021 -->
      <g style="fill:#262626;" transform="translate(532.198988 553.231121)rotate(-45)scale(0.11 -0.11)">
       <use xlink:href="#DejaVuSans-32"/>
       <use x="63.623047" xlink:href="#DejaVuSans-34"/>
       <use x="127.246094" xlink:href="#DejaVuSans-2e"/>
       <use x="159.033203" xlink:href="#DejaVuSans-30"/>
       <use x="222.65625" xlink:href="#DejaVuSans-38"/>
       <use x="286.279297" xlink:href="#DejaVuSans-2e"/>
       <use x="318.066406" xlink:href="#DejaVuSans-32"/>
       <use x="381.689453" xlink:href="#DejaVuSans-30"/>
       <use x="445.3125" xlink:href="#DejaVuSans-32"/>
       <use x="508.935547" xlink:href="#DejaVuSans-31"/>
      </g>
     </g>
    </g>
    <g id="xtick_19">
     <g id="line2d_37">
      <path clip-path="url(#pe37100df96)" d="M 607.32339 493.286013 
L 607.32339 29.118125 
" style="fill:none;stroke:#cccccc;stroke-linecap:round;"/>
     </g>
     <g id="line2d_38">
      <g>
       <use style="fill:#262626;stroke:#262626;stroke-width:1.25;" x="607.32339" xlink:href="#med5cb12cb7" y="493.286013"/>
      </g>
     </g>
     <g id="text_19">
      <!-- 07.09.2021 -->
      <g style="fill:#262626;" transform="translate(561.170862 553.231121)rotate(-45)scale(0.11 -0.11)">
       <use xlink:href="#DejaVuSans-30"/>
       <use x="63.623047" xlink:href="#DejaVuSans-37"/>
       <use x="127.246094" xlink:href="#DejaVuSans-2e"/>
       <use x="159.033203" xlink:href="#DejaVuSans-30"/>
       <use x="222.65625" xlink:href="#DejaVuSans-39"/>
       <use x="286.279297" xlink:href="#DejaVuSans-2e"/>
       <use x="318.066406" xlink:href="#DejaVuSans-32"/>
       <use x="381.689453" xlink:href="#DejaVuSans-30"/>
       <use x="445.3125" xlink:href="#DejaVuSans-32"/>
       <use x="508.935547" xlink:href="#DejaVuSans-31"/>
      </g>
     </g>
    </g>
    <g id="xtick_20">
     <g id="line2d_39">
      <path clip-path="url(#pe37100df96)" d="M 636.295263 493.286013 
L 636.295263 29.118125 
" style="fill:none;stroke:#cccccc;stroke-linecap:round;"/>
     </g>
     <g id="line2d_40">
      <g>
       <use style="fill:#262626;stroke:#262626;stroke-width:1.25;" x="636.295263" xlink:href="#med5cb12cb7" y="493.286013"/>
      </g>
     </g>
     <g id="text_20">
      <!-- 21.09.2021 -->
      <g style="fill:#262626;" transform="translate(590.142735 553.231121)rotate(-45)scale(0.11 -0.11)">
       <use xlink:href="#DejaVuSans-32"/>
       <use x="63.623047" xlink:href="#DejaVuSans-31"/>
       <use x="127.246094" xlink:href="#DejaVuSans-2e"/>
       <use x="159.033203" xlink:href="#DejaVuSans-30"/>
       <use x="222.65625" xlink:href="#DejaVuSans-39"/>
       <use x="286.279297" xlink:href="#DejaVuSans-2e"/>
       <use x="318.066406" xlink:href="#DejaVuSans-32"/>
       <use x="381.689453" xlink:href="#DejaVuSans-30"/>
       <use x="445.3125" xlink:href="#DejaVuSans-32"/>
       <use x="508.935547" xlink:href="#DejaVuSans-31"/>
      </g>
     </g>
    </g>
    <g id="xtick_21">
     <g id="line2d_41">
      <path clip-path="url(#pe37100df96)" d="M 665.267137 493.286013 
L 665.267137 29.118125 
" style="fill:none;stroke:#cccccc;stroke-linecap:round;"/>
     </g>
     <g id="line2d_42">
      <g>
       <use style="fill:#262626;stroke:#262626;stroke-width:1.25;" x="665.267137" xlink:href="#med5cb12cb7" y="493.286013"/>
      </g>
     </g>
     <g id="text_21">
      <!-- 05.10.2021 -->
      <g style="fill:#262626;" transform="translate(619.114609 553.231121)rotate(-45)scale(0.11 -0.11)">
       <use xlink:href="#DejaVuSans-30"/>
       <use x="63.623047" xlink:href="#DejaVuSans-35"/>
       <use x="127.246094" xlink:href="#DejaVuSans-2e"/>
       <use x="159.033203" xlink:href="#DejaVuSans-31"/>
       <use x="222.65625" xlink:href="#DejaVuSans-30"/>
       <use x="286.279297" xlink:href="#DejaVuSans-2e"/>
       <use x="318.066406" xlink:href="#DejaVuSans-32"/>
       <use x="381.689453" xlink:href="#DejaVuSans-30"/>
       <use x="445.3125" xlink:href="#DejaVuSans-32"/>
       <use x="508.935547" xlink:href="#DejaVuSans-31"/>
      </g>
     </g>
    </g>
    <g id="xtick_22">
     <g id="line2d_43">
      <path clip-path="url(#pe37100df96)" d="M 694.239011 493.286013 
L 694.239011 29.118125 
" style="fill:none;stroke:#cccccc;stroke-linecap:round;"/>
     </g>
     <g id="line2d_44">
      <g>
       <use style="fill:#262626;stroke:#262626;stroke-width:1.25;" x="694.239011" xlink:href="#med5cb12cb7" y="493.286013"/>
      </g>
     </g>
     <g id="text_22">
      <!-- 19.10.2021 -->
      <g style="fill:#262626;" transform="translate(648.086483 553.231121)rotate(-45)scale(0.11 -0.11)">
       <use xlink:href="#DejaVuSans-31"/>
       <use x="63.623047" xlink:href="#DejaVuSans-39"/>
       <use x="127.246094" xlink:href="#DejaVuSans-2e"/>
       <use x="159.033203" xlink:href="#DejaVuSans-31"/>
       <use x="222.65625" xlink:href="#DejaVuSans-30"/>
       <use x="286.279297" xlink:href="#DejaVuSans-2e"/>
       <use x="318.066406" xlink:href="#DejaVuSans-32"/>
       <use x="381.689453" xlink:href="#DejaVuSans-30"/>
       <use x="445.3125" xlink:href="#DejaVuSans-32"/>
       <use x="508.935547" xlink:href="#DejaVuSans-31"/>
      </g>
     </g>
    </g>
    <g id="xtick_23">
     <g id="line2d_45">
      <path clip-path="url(#pe37100df96)" d="M 723.210884 493.286013 
L 723.210884 29.118125 
" style="fill:none;stroke:#cccccc;stroke-linecap:round;"/>
     </g>
     <g id="line2d_46">
      <g>
       <use style="fill:#262626;stroke:#262626;stroke-width:1.25;" x="723.210884" xlink:href="#med5cb12cb7" y="493.286013"/>
      </g>
     </g>
     <g id="text_23">
      <!-- 02.11.2021 -->
      <g style="fill:#262626;" transform="translate(677.058356 553.231121)rotate(-45)scale(0.11 -0.11)">
       <use xlink:href="#DejaVuSans-30"/>
       <use x="63.623047" xlink:href="#DejaVuSans-32"/>
       <use x="127.246094" xlink:href="#DejaVuSans-2e"/>
       <use x="159.033203" xlink:href="#DejaVuSans-31"/>
       <use x="222.65625" xlink:href="#DejaVuSans-31"/>
       <use x="286.279297" xlink:href="#DejaVuSans-2e"/>
       <use x="318.066406" xlink:href="#DejaVuSans-32"/>
       <use x="381.689453" xlink:href="#DejaVuSans-30"/>
       <use x="445.3125" xlink:href="#DejaVuSans-32"/>
       <use x="508.935547" xlink:href="#DejaVuSans-31"/>
      </g>
     </g>
    </g>
    <g id="xtick_24">
     <g id="line2d_47">
      <path clip-path="url(#pe37100df96)" d="M 752.182758 493.286013 
L 752.182758 29.118125 
" style="fill:none;stroke:#cccccc;stroke-linecap:round;"/>
     </g>
     <g id="line2d_48">
      <g>
       <use style="fill:#262626;stroke:#262626;stroke-width:1.25;" x="752.182758" xlink:href="#med5cb12cb7" y="493.286013"/>
      </g>
     </g>
     <g id="text_24">
      <!-- 16.11.2021 -->
      <g style="fill:#262626;" transform="translate(706.03023 553.231121)rotate(-45)scale(0.11 -0.11)">
       <use xlink:href="#DejaVuSans-31"/>
       <use x="63.623047" xlink:href="#DejaVuSans-36"/>
       <use x="127.246094" xlink:href="#DejaVuSans-2e"/>
       <use x="159.033203" xlink:href="#DejaVuSans-31"/>
       <use x="222.65625" xlink:href="#DejaVuSans-31"/>
       <use x="286.279297" xlink:href="#DejaVuSans-2e"/>
       <use x="318.066406" xlink:href="#DejaVuSans-32"/>
       <use x="381.689453" xlink:href="#DejaVuSans-30"/>
       <use x="445.3125" xlink:href="#DejaVuSans-32"/>
       <use x="508.935547" xlink:href="#DejaVuSans-31"/>
      </g>
     </g>
    </g>
    <g id="xtick_25">
     <g id="line2d_49">
      <defs>
       <path d="M 0 0 
L 0 4 
" id="m2ac80df3d5" style="stroke:#262626;"/>
      </defs>
      <g>
       <use style="fill:#262626;stroke:#262626;" x="65.135468" xlink:href="#m2ac80df3d5" y="493.286013"/>
      </g>
     </g>
    </g>
    <g id="xtick_26">
     <g id="line2d_50">
      <g>
       <use style="fill:#262626;stroke:#262626;" x="79.621405" xlink:href="#m2ac80df3d5" y="493.286013"/>
      </g>
     </g>
    </g>
    <g id="xtick_27">
     <g id="line2d_51">
      <g>
       <use style="fill:#262626;stroke:#262626;" x="94.107342" xlink:href="#m2ac80df3d5" y="493.286013"/>
      </g>
     </g>
    </g>
    <g id="xtick_28">
     <g id="line2d_52">
      <g>
       <use style="fill:#262626;stroke:#262626;" x="108.593279" xlink:href="#m2ac80df3d5" y="493.286013"/>
      </g>
     </g>
    </g>
    <g id="xtick_29">
     <g id="line2d_53">
      <g>
       <use style="fill:#262626;stroke:#262626;" x="123.079216" xlink:href="#m2ac80df3d5" y="493.286013"/>
      </g>
     </g>
    </g>
    <g id="xtick_30">
     <g id="line2d_54">
      <g>
       <use style="fill:#262626;stroke:#262626;" x="137.565152" xlink:href="#m2ac80df3d5" y="493.286013"/>
      </g>
     </g>
    </g>
    <g id="xtick_31">
     <g id="line2d_55">
      <g>
       <use style="fill:#262626;stroke:#262626;" x="152.051089" xlink:href="#m2ac80df3d5" y="493.286013"/>
      </g>
     </g>
    </g>
    <g id="xtick_32">
     <g id="line2d_56">
      <g>
       <use style="fill:#262626;stroke:#262626;" x="166.537026" xlink:href="#m2ac80df3d5" y="493.286013"/>
      </g>
     </g>
    </g>
    <g id="xtick_33">
     <g id="line2d_57">
      <g>
       <use style="fill:#262626;stroke:#262626;" x="181.022963" xlink:href="#m2ac80df3d5" y="493.286013"/>
      </g>
     </g>
    </g>
    <g id="xtick_34">
     <g id="line2d_58">
      <g>
       <use style="fill:#262626;stroke:#262626;" x="195.5089" xlink:href="#m2ac80df3d5" y="493.286013"/>
      </g>
     </g>
    </g>
    <g id="xtick_35">
     <g id="line2d_59">
      <g>
       <use style="fill:#262626;stroke:#262626;" x="209.994837" xlink:href="#m2ac80df3d5" y="493.286013"/>
      </g>
     </g>
    </g>
    <g id="xtick_36">
     <g id="line2d_60">
      <g>
       <use style="fill:#262626;stroke:#262626;" x="224.480773" xlink:href="#m2ac80df3d5" y="493.286013"/>
      </g>
     </g>
    </g>
    <g id="xtick_37">
     <g id="line2d_61">
      <g>
       <use style="fill:#262626;stroke:#262626;" x="238.96671" xlink:href="#m2ac80df3d5" y="493.286013"/>
      </g>
     </g>
    </g>
    <g id="xtick_38">
     <g id="line2d_62">
      <g>
       <use style="fill:#262626;stroke:#262626;" x="253.452647" xlink:href="#m2ac80df3d5" y="493.286013"/>
      </g>
     </g>
    </g>
    <g id="xtick_39">
     <g id="line2d_63">
      <g>
       <use style="fill:#262626;stroke:#262626;" x="267.938584" xlink:href="#m2ac80df3d5" y="493.286013"/>
      </g>
     </g>
    </g>
    <g id="xtick_40">
     <g id="line2d_64">
      <g>
       <use style="fill:#262626;stroke:#262626;" x="282.424521" xlink:href="#m2ac80df3d5" y="493.286013"/>
      </g>
     </g>
    </g>
    <g id="xtick_41">
     <g id="line2d_65">
      <g>
       <use style="fill:#262626;stroke:#262626;" x="296.910458" xlink:href="#m2ac80df3d5" y="493.286013"/>
      </g>
     </g>
    </g>
    <g id="xtick_42">
     <g id="line2d_66">
      <g>
       <use style="fill:#262626;stroke:#262626;" x="311.396394" xlink:href="#m2ac80df3d5" y="493.286013"/>
      </g>
     </g>
    </g>
    <g id="xtick_43">
     <g id="line2d_67">
      <g>
       <use style="fill:#262626;stroke:#262626;" x="325.882331" xlink:href="#m2ac80df3d5" y="493.286013"/>
      </g>
     </g>
    </g>
    <g id="xtick_44">
     <g id="line2d_68">
      <g>
       <use style="fill:#262626;stroke:#262626;" x="340.368268" xlink:href="#m2ac80df3d5" y="493.286013"/>
      </g>
     </g>
    </g>
    <g id="xtick_45">
     <g id="line2d_69">
      <g>
       <use style="fill:#262626;stroke:#262626;" x="354.854205" xlink:href="#m2ac80df3d5" y="493.286013"/>
      </g>
     </g>
    </g>
    <g id="xtick_46">
     <g id="line2d_70">
      <g>
       <use style="fill:#262626;stroke:#262626;" x="369.340142" xlink:href="#m2ac80df3d5" y="493.286013"/>
      </g>
     </g>
    </g>
    <g id="xtick_47">
     <g id="line2d_71">
      <g>
       <use style="fill:#262626;stroke:#262626;" x="383.826079" xlink:href="#m2ac80df3d5" y="493.286013"/>
      </g>
     </g>
    </g>
    <g id="xtick_48">
     <g id="line2d_72">
      <g>
       <use style="fill:#262626;stroke:#262626;" x="398.312015" xlink:href="#m2ac80df3d5" y="493.286013"/>
      </g>
     </g>
    </g>
    <g id="xtick_49">
     <g id="line2d_73">
      <g>
       <use style="fill:#262626;stroke:#262626;" x="412.797952" xlink:href="#m2ac80df3d5" y="493.286013"/>
      </g>
     </g>
    </g>
    <g id="xtick_50">
     <g id="line2d_74">
      <g>
       <use style="fill:#262626;stroke:#262626;" x="427.283889" xlink:href="#m2ac80df3d5" y="493.286013"/>
      </g>
     </g>
    </g>
    <g id="xtick_51">
     <g id="line2d_75">
      <g>
       <use style="fill:#262626;stroke:#262626;" x="441.769826" xlink:href="#m2ac80df3d5" y="493.286013"/>
      </g>
     </g>
    </g>
    <g id="xtick_52">
     <g id="line2d_76">
      <g>
       <use style="fill:#262626;stroke:#262626;" x="456.255763" xlink:href="#m2ac80df3d5" y="493.286013"/>
      </g>
     </g>
    </g>
    <g id="xtick_53">
     <g id="line2d_77">
      <g>
       <use style="fill:#262626;stroke:#262626;" x="470.7417" xlink:href="#m2ac80df3d5" y="493.286013"/>
      </g>
     </g>
    </g>
    <g id="xtick_54">
     <g id="line2d_78">
      <g>
       <use style="fill:#262626;stroke:#262626;" x="485.227636" xlink:href="#m2ac80df3d5" y="493.286013"/>
      </g>
     </g>
    </g>
    <g id="xtick_55">
     <g id="line2d_79">
      <g>
       <use style="fill:#262626;stroke:#262626;" x="499.713573" xlink:href="#m2ac80df3d5" y="493.286013"/>
      </g>
     </g>
    </g>
    <g id="xtick_56">
     <g id="line2d_80">
      <g>
       <use style="fill:#262626;stroke:#262626;" x="514.19951" xlink:href="#m2ac80df3d5" y="493.286013"/>
      </g>
     </g>
    </g>
    <g id="xtick_57">
     <g id="line2d_81">
      <g>
       <use style="fill:#262626;stroke:#262626;" x="528.685447" xlink:href="#m2ac80df3d5" y="493.286013"/>
      </g>
     </g>
    </g>
    <g id="xtick_58">
     <g id="line2d_82">
      <g>
       <use style="fill:#262626;stroke:#262626;" x="543.171384" xlink:href="#m2ac80df3d5" y="493.286013"/>
      </g>
     </g>
    </g>
    <g id="xtick_59">
     <g id="line2d_83">
      <g>
       <use style="fill:#262626;stroke:#262626;" x="557.657321" xlink:href="#m2ac80df3d5" y="493.286013"/>
      </g>
     </g>
    </g>
    <g id="xtick_60">
     <g id="line2d_84">
      <g>
       <use style="fill:#262626;stroke:#262626;" x="572.143257" xlink:href="#m2ac80df3d5" y="493.286013"/>
      </g>
     </g>
    </g>
    <g id="xtick_61">
     <g id="line2d_85">
      <g>
       <use style="fill:#262626;stroke:#262626;" x="586.629194" xlink:href="#m2ac80df3d5" y="493.286013"/>
      </g>
     </g>
    </g>
    <g id="xtick_62">
     <g id="line2d_86">
      <g>
       <use style="fill:#262626;stroke:#262626;" x="601.115131" xlink:href="#m2ac80df3d5" y="493.286013"/>
      </g>
     </g>
    </g>
    <g id="xtick_63">
     <g id="line2d_87">
      <g>
       <use style="fill:#262626;stroke:#262626;" x="615.601068" xlink:href="#m2ac80df3d5" y="493.286013"/>
      </g>
     </g>
    </g>
    <g id="xtick_64">
     <g id="line2d_88">
      <g>
       <use style="fill:#262626;stroke:#262626;" x="630.087005" xlink:href="#m2ac80df3d5" y="493.286013"/>
      </g>
     </g>
    </g>
    <g id="xtick_65">
     <g id="line2d_89">
      <g>
       <use style="fill:#262626;stroke:#262626;" x="644.572942" xlink:href="#m2ac80df3d5" y="493.286013"/>
      </g>
     </g>
    </g>
    <g id="xtick_66">
     <g id="line2d_90">
      <g>
       <use style="fill:#262626;stroke:#262626;" x="659.058878" xlink:href="#m2ac80df3d5" y="493.286013"/>
      </g>
     </g>
    </g>
    <g id="xtick_67">
     <g id="line2d_91">
      <g>
       <use style="fill:#262626;stroke:#262626;" x="673.544815" xlink:href="#m2ac80df3d5" y="493.286013"/>
      </g>
     </g>
    </g>
    <g id="xtick_68">
     <g id="line2d_92">
      <g>
       <use style="fill:#262626;stroke:#262626;" x="688.030752" xlink:href="#m2ac80df3d5" y="493.286013"/>
      </g>
     </g>
    </g>
    <g id="xtick_69">
     <g id="line2d_93">
      <g>
       <use style="fill:#262626;stroke:#262626;" x="702.516689" xlink:href="#m2ac80df3d5" y="493.286013"/>
      </g>
     </g>
    </g>
    <g id="xtick_70">
     <g id="line2d_94">
      <g>
       <use style="fill:#262626;stroke:#262626;" x="717.002626" xlink:href="#m2ac80df3d5" y="493.286013"/>
      </g>
     </g>
    </g>
    <g id="xtick_71">
     <g id="line2d_95">
      <g>
       <use style="fill:#262626;stroke:#262626;" x="731.488563" xlink:href="#m2ac80df3d5" y="493.286013"/>
      </g>
     </g>
    </g>
    <g id="xtick_72">
     <g id="line2d_96">
      <g>
       <use style="fill:#262626;stroke:#262626;" x="745.9745" xlink:href="#m2ac80df3d5" y="493.286013"/>
      </g>
     </g>
    </g>
    <g id="xtick_73">
     <g id="line2d_97">
      <g>
       <use style="fill:#262626;stroke:#262626;" x="760.460436" xlink:href="#m2ac80df3d5" y="493.286013"/>
      </g>
     </g>
    </g>
    <g id="xtick_74">
     <g id="line2d_98">
      <g>
       <use style="fill:#262626;stroke:#262626;" x="774.946373" xlink:href="#m2ac80df3d5" y="493.286013"/>
      </g>
     </g>
    </g>
    <g id="xtick_75">
     <g id="line2d_99">
      <g>
       <use style="fill:#262626;stroke:#262626;" x="789.43231" xlink:href="#m2ac80df3d5" y="493.286013"/>
      </g>
     </g>
    </g>
    <g id="text_25">
     <!-- Дата -->
     <g style="fill:#262626;" transform="translate(407.6088 567.966863)scale(0.12 -0.12)">
      <defs>
       <path d="M 1459 531 
L 3522 531 
L 3522 4134 
L 2006 4134 
L 2006 3472 
Q 2006 1913 1656 878 
Q 1584 666 1459 531 
z
M 538 531 
Q 956 728 1075 1103 
Q 1378 2066 1378 3784 
L 1378 4666 
L 4153 4666 
L 4153 531 
L 4684 531 
L 4684 -1003 
L 4153 -1003 
L 4153 0 
L 847 0 
L 847 -1003 
L 316 -1003 
L 316 531 
L 538 531 
z
" id="DejaVuSans-414" transform="scale(0.015625)"/>
       <path d="M 2194 1759 
Q 1497 1759 1228 1600 
Q 959 1441 959 1056 
Q 959 750 1161 570 
Q 1363 391 1709 391 
Q 2188 391 2477 730 
Q 2766 1069 2766 1631 
L 2766 1759 
L 2194 1759 
z
M 3341 1997 
L 3341 0 
L 2766 0 
L 2766 531 
Q 2569 213 2275 61 
Q 1981 -91 1556 -91 
Q 1019 -91 701 211 
Q 384 513 384 1019 
Q 384 1609 779 1909 
Q 1175 2209 1959 2209 
L 2766 2209 
L 2766 2266 
Q 2766 2663 2505 2880 
Q 2244 3097 1772 3097 
Q 1472 3097 1187 3025 
Q 903 2953 641 2809 
L 641 3341 
Q 956 3463 1253 3523 
Q 1550 3584 1831 3584 
Q 2591 3584 2966 3190 
Q 3341 2797 3341 1997 
z
" id="DejaVuSans-430" transform="scale(0.015625)"/>
       <path d="M 188 3500 
L 3541 3500 
L 3541 3041 
L 2147 3041 
L 2147 0 
L 1581 0 
L 1581 3041 
L 188 3041 
L 188 3500 
z
" id="DejaVuSans-442" transform="scale(0.015625)"/>
      </defs>
      <use xlink:href="#DejaVuSans-414"/>
      <use x="78.125" xlink:href="#DejaVuSans-430"/>
      <use x="139.404297" xlink:href="#DejaVuSans-442"/>
      <use x="197.65625" xlink:href="#DejaVuSans-430"/>
     </g>
    </g>
   </g>
   <g id="matplotlib.axis_2">
    <g id="ytick_1">
     <g id="line2d_100">
      <path clip-path="url(#pe37100df96)" d="M 52.098125 472.704579 
L 794.191975 472.704579 
" style="fill:none;stroke:#cccccc;stroke-linecap:round;"/>
     </g>
     <g id="line2d_101">
      <defs>
       <path d="M 0 0 
L -6 0 
" id="m02d6d6aee6" style="stroke:#262626;stroke-width:1.25;"/>
      </defs>
      <g>
       <use style="fill:#262626;stroke:#262626;stroke-width:1.25;" x="52.098125" xlink:href="#m02d6d6aee6" y="472.704579"/>
      </g>
     </g>
     <g id="text_26">
      <!-- 0.0M -->
      <g style="fill:#262626;" transform="translate(15.61375 476.88372)scale(0.11 -0.11)">
       <defs>
        <path d="M 628 4666 
L 1569 4666 
L 2759 1491 
L 3956 4666 
L 4897 4666 
L 4897 0 
L 4281 0 
L 4281 4097 
L 3078 897 
L 2444 897 
L 1241 4097 
L 1241 0 
L 628 0 
L 628 4666 
z
" id="DejaVuSans-4d" transform="scale(0.015625)"/>
       </defs>
       <use xlink:href="#DejaVuSans-30"/>
       <use x="63.623047" xlink:href="#DejaVuSans-2e"/>
       <use x="95.410156" xlink:href="#DejaVuSans-30"/>
       <use x="159.033203" xlink:href="#DejaVuSans-4d"/>
      </g>
     </g>
    </g>
    <g id="ytick_2">
     <g id="line2d_102">
      <path clip-path="url(#pe37100df96)" d="M 52.098125 406.30671 
L 794.191975 406.30671 
" style="fill:none;stroke:#cccccc;stroke-linecap:round;"/>
     </g>
     <g id="line2d_103">
      <g>
       <use style="fill:#262626;stroke:#262626;stroke-width:1.25;" x="52.098125" xlink:href="#m02d6d6aee6" y="406.30671"/>
      </g>
     </g>
     <g id="text_27">
      <!-- 0.5M -->
      <g style="fill:#262626;" transform="translate(15.61375 410.485851)scale(0.11 -0.11)">
       <use xlink:href="#DejaVuSans-30"/>
       <use x="63.623047" xlink:href="#DejaVuSans-2e"/>
       <use x="95.410156" xlink:href="#DejaVuSans-35"/>
       <use x="159.033203" xlink:href="#DejaVuSans-4d"/>
      </g>
     </g>
    </g>
    <g id="ytick_3">
     <g id="line2d_104">
      <path clip-path="url(#pe37100df96)" d="M 52.098125 339.908841 
L 794.191975 339.908841 
" style="fill:none;stroke:#cccccc;stroke-linecap:round;"/>
     </g>
     <g id="line2d_105">
      <g>
       <use style="fill:#262626;stroke:#262626;stroke-width:1.25;" x="52.098125" xlink:href="#m02d6d6aee6" y="339.908841"/>
      </g>
     </g>
     <g id="text_28">
      <!-- 1.0M -->
      <g style="fill:#262626;" transform="translate(15.61375 344.087982)scale(0.11 -0.11)">
       <use xlink:href="#DejaVuSans-31"/>
       <use x="63.623047" xlink:href="#DejaVuSans-2e"/>
       <use x="95.410156" xlink:href="#DejaVuSans-30"/>
       <use x="159.033203" xlink:href="#DejaVuSans-4d"/>
      </g>
     </g>
    </g>
    <g id="ytick_4">
     <g id="line2d_106">
      <path clip-path="url(#pe37100df96)" d="M 52.098125 273.510972 
L 794.191975 273.510972 
" style="fill:none;stroke:#cccccc;stroke-linecap:round;"/>
     </g>
     <g id="line2d_107">
      <g>
       <use style="fill:#262626;stroke:#262626;stroke-width:1.25;" x="52.098125" xlink:href="#m02d6d6aee6" y="273.510972"/>
      </g>
     </g>
     <g id="text_29">
      <!-- 1.5M -->
      <g style="fill:#262626;" transform="translate(15.61375 277.690113)scale(0.11 -0.11)">
       <use xlink:href="#DejaVuSans-31"/>
       <use x="63.623047" xlink:href="#DejaVuSans-2e"/>
       <use x="95.410156" xlink:href="#DejaVuSans-35"/>
       <use x="159.033203" xlink:href="#DejaVuSans-4d"/>
      </g>
     </g>
    </g>
    <g id="ytick_5">
     <g id="line2d_108">
      <path clip-path="url(#pe37100df96)" d="M 52.098125 207.113103 
L 794.191975 207.113103 
" style="fill:none;stroke:#cccccc;stroke-linecap:round;"/>
     </g>
     <g id="line2d_109">
      <g>
       <use style="fill:#262626;stroke:#262626;stroke-width:1.25;" x="52.098125" xlink:href="#m02d6d6aee6" y="207.113103"/>
      </g>
     </g>
     <g id="text_30">
      <!-- 2.0M -->
      <g style="fill:#262626;" transform="translate(15.61375 211.292244)scale(0.11 -0.11)">
       <use xlink:href="#DejaVuSans-32"/>
       <use x="63.623047" xlink:href="#DejaVuSans-2e"/>
       <use x="95.410156" xlink:href="#DejaVuSans-30"/>
       <use x="159.033203" xlink:href="#DejaVuSans-4d"/>
      </g>
     </g>
    </g>
    <g id="ytick_6">
     <g id="line2d_110">
      <path clip-path="url(#pe37100df96)" d="M 52.098125 140.715234 
L 794.191975 140.715234 
" style="fill:none;stroke:#cccccc;stroke-linecap:round;"/>
     </g>
     <g id="line2d_111">
      <g>
       <use style="fill:#262626;stroke:#262626;stroke-width:1.25;" x="52.098125" xlink:href="#m02d6d6aee6" y="140.715234"/>
      </g>
     </g>
     <g id="text_31">
      <!-- 2.5M -->
      <g style="fill:#262626;" transform="translate(15.61375 144.894375)scale(0.11 -0.11)">
       <use xlink:href="#DejaVuSans-32"/>
       <use x="63.623047" xlink:href="#DejaVuSans-2e"/>
       <use x="95.410156" xlink:href="#DejaVuSans-35"/>
       <use x="159.033203" xlink:href="#DejaVuSans-4d"/>
      </g>
     </g>
    </g>
    <g id="ytick_7">
     <g id="line2d_112">
      <path clip-path="url(#pe37100df96)" d="M 52.098125 74.317365 
L 794.191975 74.317365 
" style="fill:none;stroke:#cccccc;stroke-linecap:round;"/>
     </g>
     <g id="line2d_113">
      <g>
       <use style="fill:#262626;stroke:#262626;stroke-width:1.25;" x="52.098125" xlink:href="#m02d6d6aee6" y="74.317365"/>
      </g>
     </g>
     <g id="text_32">
      <!-- 3.0M -->
      <g style="fill:#262626;" transform="translate(15.61375 78.496506)scale(0.11 -0.11)">
       <use xlink:href="#DejaVuSans-33"/>
       <use x="63.623047" xlink:href="#DejaVuSans-2e"/>
       <use x="95.410156" xlink:href="#DejaVuSans-30"/>
       <use x="159.033203" xlink:href="#DejaVuSans-4d"/>
      </g>
     </g>
    </g>
    <g id="text_33">
     <!-- Поставени дози -->
     <g style="fill:#262626;" transform="translate(9.118125 311.722069)rotate(-90)scale(0.12 -0.12)">
      <defs>
       <path d="M 4184 4666 
L 4184 0 
L 3553 0 
L 3553 4134 
L 1259 4134 
L 1259 0 
L 628 0 
L 628 4666 
L 4184 4666 
z
" id="DejaVuSans-41f" transform="scale(0.015625)"/>
       <path d="M 1959 3097 
Q 1497 3097 1228 2736 
Q 959 2375 959 1747 
Q 959 1119 1226 758 
Q 1494 397 1959 397 
Q 2419 397 2687 759 
Q 2956 1122 2956 1747 
Q 2956 2369 2687 2733 
Q 2419 3097 1959 3097 
z
M 1959 3584 
Q 2709 3584 3137 3096 
Q 3566 2609 3566 1747 
Q 3566 888 3137 398 
Q 2709 -91 1959 -91 
Q 1206 -91 779 398 
Q 353 888 353 1747 
Q 353 2609 779 3096 
Q 1206 3584 1959 3584 
z
" id="DejaVuSans-43e" transform="scale(0.015625)"/>
       <path d="M 3122 3366 
L 3122 2828 
Q 2878 2963 2633 3030 
Q 2388 3097 2138 3097 
Q 1578 3097 1268 2742 
Q 959 2388 959 1747 
Q 959 1106 1268 751 
Q 1578 397 2138 397 
Q 2388 397 2633 464 
Q 2878 531 3122 666 
L 3122 134 
Q 2881 22 2623 -34 
Q 2366 -91 2075 -91 
Q 1284 -91 818 406 
Q 353 903 353 1747 
Q 353 2603 823 3093 
Q 1294 3584 2113 3584 
Q 2378 3584 2631 3529 
Q 2884 3475 3122 3366 
z
" id="DejaVuSans-441" transform="scale(0.015625)"/>
       <path d="M 1156 1613 
L 1156 459 
L 1975 459 
Q 2369 459 2575 607 
Q 2781 756 2781 1038 
Q 2781 1319 2575 1466 
Q 2369 1613 1975 1613 
L 1156 1613 
z
M 1156 3041 
L 1156 2072 
L 1913 2072 
Q 2238 2072 2444 2201 
Q 2650 2331 2650 2563 
Q 2650 2794 2444 2917 
Q 2238 3041 1913 3041 
L 1156 3041 
z
M 581 3500 
L 1950 3500 
Q 2566 3500 2897 3275 
Q 3228 3050 3228 2634 
Q 3228 2313 3059 2123 
Q 2891 1934 2559 1888 
Q 2956 1813 3175 1575 
Q 3394 1338 3394 981 
Q 3394 513 3033 256 
Q 2672 0 2003 0 
L 581 0 
L 581 3500 
z
" id="DejaVuSans-432" transform="scale(0.015625)"/>
       <path d="M 3597 1894 
L 3597 1613 
L 953 1613 
Q 991 1019 1311 708 
Q 1631 397 2203 397 
Q 2534 397 2845 478 
Q 3156 559 3463 722 
L 3463 178 
Q 3153 47 2828 -22 
Q 2503 -91 2169 -91 
Q 1331 -91 842 396 
Q 353 884 353 1716 
Q 353 2575 817 3079 
Q 1281 3584 2069 3584 
Q 2775 3584 3186 3129 
Q 3597 2675 3597 1894 
z
M 3022 2063 
Q 3016 2534 2758 2815 
Q 2500 3097 2075 3097 
Q 1594 3097 1305 2825 
Q 1016 2553 972 2059 
L 3022 2063 
z
" id="DejaVuSans-435" transform="scale(0.015625)"/>
       <path d="M 581 3500 
L 1159 3500 
L 1159 2072 
L 3025 2072 
L 3025 3500 
L 3603 3500 
L 3603 0 
L 3025 0 
L 3025 1613 
L 1159 1613 
L 1159 0 
L 581 0 
L 581 3500 
z
" id="DejaVuSans-43d" transform="scale(0.015625)"/>
       <path d="M 3578 3500 
L 3578 0 
L 3006 0 
L 3006 2809 
L 1319 0 
L 581 0 
L 581 3500 
L 1153 3500 
L 1153 697 
L 2838 3500 
L 3578 3500 
z
" id="DejaVuSans-438" transform="scale(0.015625)"/>
       <path id="DejaVuSans-20" transform="scale(0.015625)"/>
       <path d="M 1384 459 
L 3053 459 
L 3053 3041 
L 1844 3041 
L 1844 2603 
Q 1844 1316 1475 628 
L 1384 459 
z
M 550 459 
Q 834 584 959 850 
Q 1266 1509 1266 2838 
L 1266 3500 
L 3631 3500 
L 3631 459 
L 4091 459 
L 4091 -884 
L 3631 -884 
L 3631 0 
L 794 0 
L 794 -884 
L 334 -884 
L 334 459 
L 550 459 
z
" id="DejaVuSans-434" transform="scale(0.015625)"/>
       <path d="M 2206 1888 
Q 2594 1813 2809 1584 
Q 3025 1356 3025 1019 
Q 3025 478 2622 193 
Q 2219 -91 1475 -91 
Q 1225 -91 961 -47 
Q 697 -3 416 84 
L 416 619 
Q 638 503 903 445 
Q 1169 388 1459 388 
Q 1931 388 2195 563 
Q 2459 738 2459 1019 
Q 2459 1294 2225 1461 
Q 1991 1628 1563 1628 
L 1100 1628 
L 1100 2103 
L 1584 2103 
Q 1947 2103 2158 2242 
Q 2369 2381 2369 2600 
Q 2369 2800 2151 2944 
Q 1934 3088 1563 3088 
Q 1341 3088 1089 3047 
Q 838 3006 534 2916 
L 534 3438 
Q 841 3513 1106 3550 
Q 1372 3588 1609 3588 
Q 2222 3588 2576 3342 
Q 2931 3097 2931 2656 
Q 2931 2366 2743 2164 
Q 2556 1963 2206 1888 
z
" id="DejaVuSans-437" transform="scale(0.015625)"/>
      </defs>
      <use xlink:href="#DejaVuSans-41f"/>
      <use x="75.195312" xlink:href="#DejaVuSans-43e"/>
      <use x="136.376953" xlink:href="#DejaVuSans-441"/>
      <use x="191.357422" xlink:href="#DejaVuSans-442"/>
      <use x="249.609375" xlink:href="#DejaVuSans-430"/>
      <use x="310.888672" xlink:href="#DejaVuSans-432"/>
      <use x="369.824219" xlink:href="#DejaVuSans-435"/>
      <use x="431.347656" xlink:href="#DejaVuSans-43d"/>
      <use x="496.728516" xlink:href="#DejaVuSans-438"/>
      <use x="561.71875" xlink:href="#DejaVuSans-20"/>
      <use x="593.505859" xlink:href="#DejaVuSans-434"/>
      <use x="662.646484" xlink:href="#DejaVuSans-43e"/>
      <use x="723.828125" xlink:href="#DejaVuSans-437"/>
      <use x="777.001953" xlink:href="#DejaVuSans-438"/>
     </g>
    </g>
   </g>
   <g id="line2d_114">
    <path clip-path="url(#pe37100df96)" d="M 85.829664 472.187472 
L 89.968503 472.07526 
L 100.3156 471.981108 
L 106.523859 470.931092 
L 112.732118 470.824058 
L 116.870957 470.442005 
L 123.079216 470.270167 
L 125.148635 470.254099 
L 127.218055 470.096736 
L 131.356894 469.500616 
L 135.495733 469.238477 
L 141.703991 469.145919 
L 143.773411 468.837301 
L 145.842831 468.333342 
L 147.91225 467.706679 
L 149.98167 467.285849 
L 154.120509 467.243354 
L 156.189928 467.042965 
L 158.259348 466.606997 
L 162.398187 465.530289 
L 164.467606 465.153813 
L 168.606446 465.130176 
L 170.675865 464.884503 
L 174.814704 463.918414 
L 176.884124 463.259748 
L 178.953543 462.785534 
L 183.092382 462.693374 
L 185.161802 462.421408 
L 189.300641 461.294769 
L 191.370061 460.684705 
L 193.43948 458.858233 
L 195.5089 458.315364 
L 199.647739 455.299971 
L 201.717158 453.020798 
L 205.855997 447.670989 
L 207.925417 445.555951 
L 209.994837 444.849345 
L 212.064256 444.492788 
L 214.133676 443.019552 
L 216.203095 440.332696 
L 218.272515 439.748793 
L 220.341934 437.04308 
L 222.411354 434.928972 
L 224.480773 434.576532 
L 226.550193 434.375612 
L 228.619612 433.645103 
L 230.689032 432.580214 
L 232.758452 431.651441 
L 234.827871 429.619533 
L 236.897291 427.997566 
L 241.03613 427.702892 
L 243.105549 427.327346 
L 247.244388 426.132848 
L 249.313808 425.422391 
L 251.383227 424.536776 
L 253.452647 424.0287 
L 255.522067 423.715567 
L 257.591486 422.724247 
L 261.730325 419.412454 
L 265.869164 415.572134 
L 267.938584 415.050247 
L 270.008003 414.733795 
L 272.077423 413.537836 
L 280.355101 406.561014 
L 282.424521 406.03076 
L 284.49394 405.832629 
L 286.56336 404.972246 
L 288.632779 403.699266 
L 290.702199 401.864294 
L 292.771618 399.332809 
L 294.841038 397.356808 
L 296.910458 396.869979 
L 298.979877 396.657506 
L 301.049297 395.684113 
L 303.118716 394.28936 
L 309.326975 388.49495 
L 311.396394 388.08501 
L 313.465814 387.92207 
L 315.535233 386.986789 
L 317.604653 385.413558 
L 319.674073 382.868129 
L 321.743492 379.944498 
L 323.812912 377.498003 
L 325.882331 376.936277 
L 327.951751 376.661389 
L 330.02117 375.212588 
L 332.09059 372.988392 
L 336.229429 366.046229 
L 338.298849 364.414568 
L 340.368268 363.650329 
L 342.437688 363.198159 
L 344.507107 362.018003 
L 346.576527 360.539589 
L 348.645946 356.22625 
L 350.715366 355.279417 
L 352.784785 350.217641 
L 354.854205 348.88331 
L 356.923624 348.133678 
L 358.993044 344.750706 
L 363.131883 335.159667 
L 365.201303 330.1453 
L 367.270722 325.731568 
L 369.340142 324.856311 
L 371.409561 324.406134 
L 373.478981 321.984471 
L 375.5484 318.522353 
L 377.61782 314.492135 
L 379.687239 309.94999 
L 381.756659 306.621332 
L 383.826079 305.778345 
L 385.895498 305.29125 
L 387.964918 304.60443 
L 390.034337 302.365228 
L 392.103757 299.595375 
L 396.242596 294.608231 
L 398.312015 293.668834 
L 400.381435 292.998879 
L 402.450855 291.315826 
L 404.520274 288.919129 
L 410.728533 280.037883 
L 412.797952 279.242303 
L 414.867372 278.258287 
L 416.936791 276.329694 
L 419.006211 273.440059 
L 423.14505 267.096407 
L 425.21447 264.375555 
L 427.283889 263.715826 
L 429.353309 263.282513 
L 431.422728 262.000503 
L 433.492148 259.947747 
L 437.630987 255.191003 
L 439.700406 253.168524 
L 443.839245 252.240415 
L 445.908665 251.111385 
L 447.978085 249.421958 
L 452.116924 245.688937 
L 454.186343 244.058205 
L 458.325182 243.284537 
L 460.394602 242.214337 
L 468.67228 235.623551 
L 470.7417 235.145752 
L 472.811119 234.859312 
L 474.880539 233.821646 
L 476.949958 232.267803 
L 481.088797 228.933966 
L 483.158217 227.400972 
L 485.227636 226.967394 
L 487.297056 226.689453 
L 489.366476 225.57264 
L 495.574734 220.847635 
L 497.644154 219.430306 
L 501.782993 218.80537 
L 503.852412 217.773679 
L 505.921832 216.448245 
L 512.130091 212.085374 
L 514.19951 211.615277 
L 516.26893 211.349951 
L 518.338349 210.216805 
L 526.616027 203.800779 
L 528.685447 203.376762 
L 530.754867 203.08926 
L 532.824286 201.985727 
L 541.101964 195.42429 
L 543.171384 194.988985 
L 545.240803 194.679438 
L 547.310223 193.486401 
L 553.518482 188.699779 
L 555.587901 187.308744 
L 557.657321 186.843427 
L 559.72674 186.553136 
L 561.79616 185.340047 
L 570.073838 178.846999 
L 572.143257 178.355124 
L 574.212677 178.037875 
L 576.282097 176.725986 
L 582.490355 171.290258 
L 584.559775 169.63217 
L 586.629194 169.110283 
L 588.698614 168.772982 
L 590.768033 167.391508 
L 592.837453 165.600492 
L 599.045712 160.764071 
L 601.115131 160.316549 
L 605.25397 159.81166 
L 607.32339 158.302171 
L 611.462229 155.06647 
L 613.531648 153.602131 
L 615.601068 153.19405 
L 617.670488 152.934301 
L 619.739907 151.866092 
L 625.948166 147.556605 
L 628.017585 146.169421 
L 630.087005 145.765589 
L 632.156424 145.540235 
L 634.225844 144.538158 
L 636.295263 143.201702 
L 638.364683 142.954967 
L 640.434103 141.435651 
L 642.503522 140.106764 
L 644.572942 139.77929 
L 646.642361 139.578503 
L 648.711781 138.88677 
L 650.7812 137.828521 
L 654.920039 135.449883 
L 656.989459 134.51208 
L 659.058878 134.208907 
L 661.128298 134.038397 
L 663.197718 133.323292 
L 671.475396 129.406349 
L 673.544815 129.096271 
L 675.614235 128.934393 
L 677.683654 128.248503 
L 679.753074 127.230093 
L 681.822494 126.493342 
L 685.961333 124.27738 
L 688.030752 123.888952 
L 690.100172 123.651248 
L 692.169591 122.827781 
L 694.239011 121.620801 
L 696.30843 119.830316 
L 698.37785 116.080031 
L 700.447269 112.88802 
L 702.516689 111.336302 
L 704.586109 110.386149 
L 706.655528 108.372965 
L 708.724948 104.122705 
L 710.794367 100.748365 
L 714.933206 94.570176 
L 717.002626 93.543001 
L 719.072045 92.882874 
L 721.141465 90.953883 
L 725.280304 85.864752 
L 729.419143 80.418134 
L 731.488563 79.52163 
L 733.557982 78.88939 
L 735.627402 77.126925 
L 739.766241 72.567516 
L 743.90508 66.689977 
L 745.9745 65.66652 
L 748.043919 65.019273 
L 750.113339 62.788836 
L 758.391017 51.181161 
L 760.460436 50.216665 
L 760.460436 50.216665 
" style="fill:none;stroke:#0000ff;stroke-linecap:round;stroke-width:1.5;"/>
   </g>
   <g id="line2d_115"/>
   <g id="patch_3">
    <path d="M 52.098125 493.286013 
L 52.098125 29.118125 
" style="fill:none;stroke:#262626;stroke-linecap:square;stroke-linejoin:miter;stroke-width:1.25;"/>
   </g>
   <g id="patch_4">
    <path d="M 794.191975 493.286013 
L 794.191975 29.118125 
" style="fill:none;stroke:#262626;stroke-linecap:square;stroke-linejoin:miter;stroke-width:1.25;"/>
   </g>
   <g id="patch_5">
    <path d="M 52.098125 493.286013 
L 794.191975 493.286013 
" style="fill:none;stroke:#262626;stroke-linecap:square;stroke-linejoin:miter;stroke-width:1.25;"/>
   </g>
   <g id="patch_6">
    <path d="M 52.098125 29.118125 
L 794.191975 29.118125 
" style="fill:none;stroke:#262626;stroke-linecap:square;stroke-linejoin:miter;stroke-width:1.25;"/>
   </g>
   <g id="text_34">
    <!-- Последна актуализация: 21.11.2021 -->
    <g style="fill:#262626;" transform="translate(327.213126 22.155607)scale(0.09996 -0.09996)">
     <defs>
      <path d="M 238 0 
L 238 478 
Q 806 566 981 959 
Q 1194 1513 1194 2928 
L 1194 3500 
L 3559 3500 
L 3559 0 
L 2984 0 
L 2984 3041 
L 1769 3041 
L 1769 2694 
Q 1769 1344 1494 738 
Q 1200 91 238 0 
z
" id="DejaVuSans-43b" transform="scale(0.015625)"/>
      <path d="M 581 3500 
L 1153 3500 
L 1153 1856 
L 2775 3500 
L 3481 3500 
L 2144 2147 
L 3653 0 
L 3009 0 
L 1769 1766 
L 1153 1141 
L 1153 0 
L 581 0 
L 581 3500 
z
" id="DejaVuSans-43a" transform="scale(0.015625)"/>
      <path d="M 2059 -325 
Q 1816 -950 1584 -1140 
Q 1353 -1331 966 -1331 
L 506 -1331 
L 506 -850 
L 844 -850 
Q 1081 -850 1212 -737 
Q 1344 -625 1503 -206 
L 1606 56 
L 191 3500 
L 800 3500 
L 1894 763 
L 2988 3500 
L 3597 3500 
L 2059 -325 
z
" id="DejaVuSans-443" transform="scale(0.015625)"/>
      <path d="M 3603 0 
L 581 0 
L 581 3500 
L 1159 3500 
L 1159 459 
L 3025 459 
L 3025 3500 
L 3603 3500 
L 3603 459 
L 4063 459 
L 4063 -884 
L 3603 -884 
L 3603 0 
z
" id="DejaVuSans-446" transform="scale(0.015625)"/>
      <path d="M 1181 2491 
Q 1181 2231 1381 2084 
Q 1581 1938 1953 1938 
L 2728 1938 
L 2728 3041 
L 1953 3041 
Q 1581 3041 1381 2897 
Q 1181 2753 1181 2491 
z
M 363 0 
L 1431 1534 
Q 1069 1616 828 1830 
Q 588 2044 588 2491 
Q 588 2997 923 3248 
Q 1259 3500 1938 3500 
L 3306 3500 
L 3306 0 
L 2728 0 
L 2728 1478 
L 2013 1478 
L 981 0 
L 363 0 
z
" id="DejaVuSans-44f" transform="scale(0.015625)"/>
      <path d="M 750 794 
L 1409 794 
L 1409 0 
L 750 0 
L 750 794 
z
M 750 3309 
L 1409 3309 
L 1409 2516 
L 750 2516 
L 750 3309 
z
" id="DejaVuSans-3a" transform="scale(0.015625)"/>
     </defs>
     <use xlink:href="#DejaVuSans-41f"/>
     <use x="75.195312" xlink:href="#DejaVuSans-43e"/>
     <use x="136.376953" xlink:href="#DejaVuSans-441"/>
     <use x="191.357422" xlink:href="#DejaVuSans-43b"/>
     <use x="255.273438" xlink:href="#DejaVuSans-435"/>
     <use x="316.796875" xlink:href="#DejaVuSans-434"/>
     <use x="385.9375" xlink:href="#DejaVuSans-43d"/>
     <use x="451.318359" xlink:href="#DejaVuSans-430"/>
     <use x="512.597656" xlink:href="#DejaVuSans-20"/>
     <use x="544.384766" xlink:href="#DejaVuSans-430"/>
     <use x="605.664062" xlink:href="#DejaVuSans-43a"/>
     <use x="666.064453" xlink:href="#DejaVuSans-442"/>
     <use x="724.316406" xlink:href="#DejaVuSans-443"/>
     <use x="783.496094" xlink:href="#DejaVuSans-430"/>
     <use x="844.775391" xlink:href="#DejaVuSans-43b"/>
     <use x="908.691406" xlink:href="#DejaVuSans-438"/>
     <use x="973.681641" xlink:href="#DejaVuSans-437"/>
     <use x="1026.855469" xlink:href="#DejaVuSans-430"/>
     <use x="1088.134766" xlink:href="#DejaVuSans-446"/>
     <use x="1156.201172" xlink:href="#DejaVuSans-438"/>
     <use x="1221.191406" xlink:href="#DejaVuSans-44f"/>
     <use x="1281.347656" xlink:href="#DejaVuSans-3a"/>
     <use x="1315.039062" xlink:href="#DejaVuSans-20"/>
     <use x="1346.826172" xlink:href="#DejaVuSans-32"/>
     <use x="1410.449219" xlink:href="#DejaVuSans-31"/>
     <use x="1474.072266" xlink:href="#DejaVuSans-2e"/>
     <use x="1505.859375" xlink:href="#DejaVuSans-31"/>
     <use x="1569.482422" xlink:href="#DejaVuSans-31"/>
     <use x="1633.105469" xlink:href="#DejaVuSans-2e"/>
     <use x="1664.892578" xlink:href="#DejaVuSans-32"/>
     <use x="1728.515625" xlink:href="#DejaVuSans-30"/>
     <use x="1792.138672" xlink:href="#DejaVuSans-32"/>
     <use x="1855.761719" xlink:href="#DejaVuSans-31"/>
    </g>
   </g>
   <g id="text_35">
    <!-- Последна актуализация: 21.11.2021 -->
    <g style="fill:#262626;" transform="translate(327.213126 22.155607)scale(0.09996 -0.09996)">
     <use xlink:href="#DejaVuSans-41f"/>
     <use x="75.195312" xlink:href="#DejaVuSans-43e"/>
     <use x="136.376953" xlink:href="#DejaVuSans-441"/>
     <use x="191.357422" xlink:href="#DejaVuSans-43b"/>
     <use x="255.273438" xlink:href="#DejaVuSans-435"/>
     <use x="316.796875" xlink:href="#DejaVuSans-434"/>
     <use x="385.9375" xlink:href="#DejaVuSans-43d"/>
     <use x="451.318359" xlink:href="#DejaVuSans-430"/>
     <use x="512.597656" xlink:href="#DejaVuSans-20"/>
     <use x="544.384766" xlink:href="#DejaVuSans-430"/>
     <use x="605.664062" xlink:href="#DejaVuSans-43a"/>
     <use x="666.064453" xlink:href="#DejaVuSans-442"/>
     <use x="724.316406" xlink:href="#DejaVuSans-443"/>
     <use x="783.496094" xlink:href="#DejaVuSans-430"/>
     <use x="844.775391" xlink:href="#DejaVuSans-43b"/>
     <use x="908.691406" xlink:href="#DejaVuSans-438"/>
     <use x="973.681641" xlink:href="#DejaVuSans-437"/>
     <use x="1026.855469" xlink:href="#DejaVuSans-430"/>
     <use x="1088.134766" xlink:href="#DejaVuSans-446"/>
     <use x="1156.201172" xlink:href="#DejaVuSans-438"/>
     <use x="1221.191406" xlink:href="#DejaVuSans-44f"/>
     <use x="1281.347656" xlink:href="#DejaVuSans-3a"/>
     <use x="1315.039062" xlink:href="#DejaVuSans-20"/>
     <use x="1346.826172" xlink:href="#DejaVuSans-32"/>
     <use x="1410.449219" xlink:href="#DejaVuSans-31"/>
     <use x="1474.072266" xlink:href="#DejaVuSans-2e"/>
     <use x="1505.859375" xlink:href="#DejaVuSans-31"/>
     <use x="1569.482422" xlink:href="#DejaVuSans-31"/>
     <use x="1633.105469" xlink:href="#DejaVuSans-2e"/>
     <use x="1664.892578" xlink:href="#DejaVuSans-32"/>
     <use x="1728.515625" xlink:href="#DejaVuSans-30"/>
     <use x="1792.138672" xlink:href="#DejaVuSans-32"/>
     <use x="1855.761719" xlink:href="#DejaVuSans-31"/>
    </g>
   </g>
   <g id="text_36">
    <!-- Хронология на ваксинацията по дни -->
    <g style="fill:#262626;" transform="translate(296.210362 9.118125)scale(0.12 -0.12)">
     <defs>
      <path d="M 3188 2381 
L 4806 0 
L 3553 0 
L 2463 1594 
L 1381 0 
L 122 0 
L 1741 2381 
L 184 4666 
L 1441 4666 
L 2463 3163 
L 3481 4666 
L 4744 4666 
L 3188 2381 
z
" id="DejaVuSans-Bold-425" transform="scale(0.015625)"/>
      <path d="M 1656 506 
L 1656 -1331 
L 538 -1331 
L 538 3500 
L 1656 3500 
L 1656 2988 
Q 1888 3294 2169 3439 
Q 2450 3584 2816 3584 
Q 3463 3584 3878 3070 
Q 4294 2556 4294 1747 
Q 4294 938 3878 423 
Q 3463 -91 2816 -91 
Q 2450 -91 2169 54 
Q 1888 200 1656 506 
z
M 2400 2772 
Q 2041 2772 1848 2508 
Q 1656 2244 1656 1747 
Q 1656 1250 1848 986 
Q 2041 722 2400 722 
Q 2759 722 2948 984 
Q 3138 1247 3138 1747 
Q 3138 2247 2948 2509 
Q 2759 2772 2400 2772 
z
" id="DejaVuSans-Bold-440" transform="scale(0.015625)"/>
      <path d="M 2203 2784 
Q 1831 2784 1636 2517 
Q 1441 2250 1441 1747 
Q 1441 1244 1636 976 
Q 1831 709 2203 709 
Q 2569 709 2762 976 
Q 2956 1244 2956 1747 
Q 2956 2250 2762 2517 
Q 2569 2784 2203 2784 
z
M 2203 3584 
Q 3106 3584 3614 3096 
Q 4122 2609 4122 1747 
Q 4122 884 3614 396 
Q 3106 -91 2203 -91 
Q 1297 -91 786 396 
Q 275 884 275 1747 
Q 275 2609 786 3096 
Q 1297 3584 2203 3584 
z
" id="DejaVuSans-Bold-43e" transform="scale(0.015625)"/>
      <path d="M 538 3500 
L 1656 3500 
L 1656 2169 
L 2766 2169 
L 2766 3500 
L 3884 3500 
L 3884 0 
L 2766 0 
L 2766 1478 
L 1656 1478 
L 1656 0 
L 538 0 
L 538 3500 
z
" id="DejaVuSans-Bold-43d" transform="scale(0.015625)"/>
      <path d="M 353 0 
L 353 800 
Q 906 913 1031 1278 
Q 1125 1556 1125 2928 
L 1125 3500 
L 4150 3500 
L 4150 0 
L 3031 0 
L 3031 2700 
L 2244 2700 
L 2244 2584 
Q 2244 1213 2028 813 
Q 1591 0 353 0 
z
" id="DejaVuSans-Bold-43b" transform="scale(0.015625)"/>
      <path d="M 538 0 
L 538 3500 
L 3191 3500 
L 3191 2809 
L 1656 2809 
L 1656 0 
L 538 0 
z
" id="DejaVuSans-Bold-433" transform="scale(0.015625)"/>
      <path d="M 3947 3500 
L 3947 0 
L 2828 0 
L 2828 1863 
L 1700 0 
L 538 0 
L 538 3500 
L 1656 3500 
L 1656 1638 
L 2784 3500 
L 3947 3500 
z
" id="DejaVuSans-Bold-438" transform="scale(0.015625)"/>
      <path d="M 1528 2394 
Q 1528 2169 1651 2069 
Q 1775 1969 2059 1969 
L 2463 1969 
L 2463 2816 
L 2059 2816 
Q 1775 2816 1651 2719 
Q 1528 2622 1528 2394 
z
M 197 0 
L 1113 1497 
Q 847 1650 650 1917 
Q 453 2184 453 2516 
Q 453 3013 789 3256 
Q 1125 3500 1878 3500 
L 3581 3500 
L 3581 0 
L 2463 0 
L 2463 1278 
L 2069 1278 
L 1288 0 
L 197 0 
z
" id="DejaVuSans-Bold-44f" transform="scale(0.015625)"/>
      <path id="DejaVuSans-Bold-20" transform="scale(0.015625)"/>
      <path d="M 2106 1575 
Q 1756 1575 1579 1456 
Q 1403 1338 1403 1106 
Q 1403 894 1545 773 
Q 1688 653 1941 653 
Q 2256 653 2472 879 
Q 2688 1106 2688 1447 
L 2688 1575 
L 2106 1575 
z
M 3816 1997 
L 3816 0 
L 2688 0 
L 2688 519 
Q 2463 200 2181 54 
Q 1900 -91 1497 -91 
Q 953 -91 614 226 
Q 275 544 275 1050 
Q 275 1666 698 1953 
Q 1122 2241 2028 2241 
L 2688 2241 
L 2688 2328 
Q 2688 2594 2478 2717 
Q 2269 2841 1825 2841 
Q 1466 2841 1156 2769 
Q 847 2697 581 2553 
L 581 3406 
Q 941 3494 1303 3539 
Q 1666 3584 2028 3584 
Q 2975 3584 3395 3211 
Q 3816 2838 3816 1997 
z
" id="DejaVuSans-Bold-430" transform="scale(0.015625)"/>
      <path d="M 2184 2181 
Q 2378 2181 2478 2261 
Q 2578 2341 2578 2497 
Q 2578 2653 2478 2731 
Q 2378 2809 2184 2809 
L 1656 2809 
L 1656 2181 
L 2184 2181 
z
M 2222 700 
Q 2469 700 2594 798 
Q 2719 897 2719 1094 
Q 2719 1288 2594 1384 
Q 2469 1481 2222 1481 
L 1656 1481 
L 1656 700 
L 2222 700 
z
M 538 3500 
L 2141 3500 
Q 2919 3500 3267 3279 
Q 3616 3059 3616 2575 
Q 3616 2319 3487 2139 
Q 3359 1959 3119 1872 
Q 3428 1788 3598 1561 
Q 3769 1334 3769 1003 
Q 3769 497 3403 248 
Q 3038 0 2294 0 
L 538 0 
L 538 3500 
z
" id="DejaVuSans-Bold-432" transform="scale(0.015625)"/>
      <path d="M 538 3500 
L 1656 3500 
L 1656 2316 
L 2903 3500 
L 4128 3500 
L 2634 2078 
L 4250 0 
L 3094 0 
L 1972 1447 
L 1656 1147 
L 1656 0 
L 538 0 
L 538 3500 
z
" id="DejaVuSans-Bold-43a" transform="scale(0.015625)"/>
      <path d="M 3366 3391 
L 3366 2478 
Q 3138 2634 2908 2709 
Q 2678 2784 2431 2784 
Q 1963 2784 1702 2511 
Q 1441 2238 1441 1747 
Q 1441 1256 1702 982 
Q 1963 709 2431 709 
Q 2694 709 2930 787 
Q 3166 866 3366 1019 
L 3366 103 
Q 3103 6 2833 -42 
Q 2563 -91 2291 -91 
Q 1344 -91 809 395 
Q 275 881 275 1747 
Q 275 2613 809 3098 
Q 1344 3584 2291 3584 
Q 2566 3584 2833 3536 
Q 3100 3488 3366 3391 
z
" id="DejaVuSans-Bold-441" transform="scale(0.015625)"/>
      <path d="M 3666 -884 
L 3666 0 
L 538 0 
L 538 3500 
L 1656 3500 
L 1656 800 
L 2766 800 
L 2766 3500 
L 3884 3500 
L 3884 800 
L 4466 800 
L 4466 -884 
L 3666 -884 
z
" id="DejaVuSans-Bold-446" transform="scale(0.015625)"/>
      <path d="M 25 3500 
L 3681 3500 
L 3681 2809 
L 2413 2809 
L 2413 0 
L 1297 0 
L 1297 2809 
L 25 2809 
L 25 3500 
z
" id="DejaVuSans-Bold-442" transform="scale(0.015625)"/>
      <path d="M 3884 3500 
L 3884 0 
L 2766 0 
L 2766 2700 
L 1656 2700 
L 1656 0 
L 538 0 
L 538 3500 
L 3884 3500 
z
" id="DejaVuSans-Bold-43f" transform="scale(0.015625)"/>
      <path d="M 547 800 
Q 903 919 1053 1314 
Q 1203 1709 1203 2838 
L 1203 3500 
L 4228 3500 
L 4228 800 
L 4809 800 
L 4809 -884 
L 4009 -884 
L 4009 0 
L 1159 0 
L 1159 -884 
L 359 -884 
L 359 800 
L 547 800 
z
M 3109 2700 
L 2322 2700 
L 2322 2603 
Q 2322 1456 2063 800 
L 3109 800 
L 3109 2700 
z
" id="DejaVuSans-Bold-434" transform="scale(0.015625)"/>
     </defs>
     <use xlink:href="#DejaVuSans-Bold-425"/>
     <use x="77.099609" xlink:href="#DejaVuSans-Bold-440"/>
     <use x="148.681641" xlink:href="#DejaVuSans-Bold-43e"/>
     <use x="217.382812" xlink:href="#DejaVuSans-Bold-43d"/>
     <use x="286.474609" xlink:href="#DejaVuSans-Bold-43e"/>
     <use x="355.175781" xlink:href="#DejaVuSans-Bold-43b"/>
     <use x="428.417969" xlink:href="#DejaVuSans-Bold-43e"/>
     <use x="497.119141" xlink:href="#DejaVuSans-Bold-433"/>
     <use x="549.365234" xlink:href="#DejaVuSans-Bold-438"/>
     <use x="619.433594" xlink:href="#DejaVuSans-Bold-44f"/>
     <use x="683.642578" xlink:href="#DejaVuSans-Bold-20"/>
     <use x="718.457031" xlink:href="#DejaVuSans-Bold-43d"/>
     <use x="787.548828" xlink:href="#DejaVuSans-Bold-430"/>
     <use x="855.029297" xlink:href="#DejaVuSans-Bold-20"/>
     <use x="889.84375" xlink:href="#DejaVuSans-Bold-432"/>
     <use x="953.125" xlink:href="#DejaVuSans-Bold-430"/>
     <use x="1020.605469" xlink:href="#DejaVuSans-Bold-43a"/>
     <use x="1088.476562" xlink:href="#DejaVuSans-Bold-441"/>
     <use x="1147.753906" xlink:href="#DejaVuSans-Bold-438"/>
     <use x="1217.822266" xlink:href="#DejaVuSans-Bold-43d"/>
     <use x="1286.914062" xlink:href="#DejaVuSans-Bold-430"/>
     <use x="1354.394531" xlink:href="#DejaVuSans-Bold-446"/>
     <use x="1428.515625" xlink:href="#DejaVuSans-Bold-438"/>
     <use x="1498.583984" xlink:href="#DejaVuSans-Bold-44f"/>
     <use x="1562.792969" xlink:href="#DejaVuSans-Bold-442"/>
     <use x="1620.751953" xlink:href="#DejaVuSans-Bold-430"/>
     <use x="1688.232422" xlink:href="#DejaVuSans-Bold-20"/>
     <use x="1723.046875" xlink:href="#DejaVuSans-Bold-43f"/>
     <use x="1792.138672" xlink:href="#DejaVuSans-Bold-43e"/>
     <use x="1860.839844" xlink:href="#DejaVuSans-Bold-20"/>
     <use x="1895.654297" xlink:href="#DejaVuSans-Bold-434"/>
     <use x="1976.416016" xlink:href="#DejaVuSans-Bold-43d"/>
     <use x="2045.507812" xlink:href="#DejaVuSans-Bold-438"/>
    </g>
   </g>
  </g>
  <g id="axes_2">
   <g id="matplotlib.axis_3">
    <g id="ytick_8">
     <g id="line2d_116">
      <defs>
       <path d="M 0 0 
L 6 0 
" id="m4a6a84accc" style="stroke:#262626;stroke-width:1.25;"/>
      </defs>
      <g>
       <use style="fill:#262626;stroke:#262626;stroke-width:1.25;" x="794.191975" xlink:href="#m4a6a84accc" y="472.187472"/>
      </g>
     </g>
     <g id="text_37">
      <!-- 0 -->
      <g style="fill:#262626;" transform="translate(803.691975 476.366613)scale(0.11 -0.11)">
       <use xlink:href="#DejaVuSans-30"/>
      </g>
     </g>
    </g>
    <g id="ytick_9">
     <g id="line2d_117">
      <g>
       <use style="fill:#262626;stroke:#262626;stroke-width:1.25;" x="794.191975" xlink:href="#m4a6a84accc" y="416.835424"/>
      </g>
     </g>
     <g id="text_38">
      <!-- 5000 -->
      <g style="fill:#262626;" transform="translate(803.691975 421.014564)scale(0.11 -0.11)">
       <use xlink:href="#DejaVuSans-35"/>
       <use x="63.623047" xlink:href="#DejaVuSans-30"/>
       <use x="127.246094" xlink:href="#DejaVuSans-30"/>
       <use x="190.869141" xlink:href="#DejaVuSans-30"/>
      </g>
     </g>
    </g>
    <g id="ytick_10">
     <g id="line2d_118">
      <g>
       <use style="fill:#262626;stroke:#262626;stroke-width:1.25;" x="794.191975" xlink:href="#m4a6a84accc" y="361.483375"/>
      </g>
     </g>
     <g id="text_39">
      <!-- 10000 -->
      <g style="fill:#262626;" transform="translate(803.691975 365.662516)scale(0.11 -0.11)">
       <use xlink:href="#DejaVuSans-31"/>
       <use x="63.623047" xlink:href="#DejaVuSans-30"/>
       <use x="127.246094" xlink:href="#DejaVuSans-30"/>
       <use x="190.869141" xlink:href="#DejaVuSans-30"/>
       <use x="254.492188" xlink:href="#DejaVuSans-30"/>
      </g>
     </g>
    </g>
    <g id="ytick_11">
     <g id="line2d_119">
      <g>
       <use style="fill:#262626;stroke:#262626;stroke-width:1.25;" x="794.191975" xlink:href="#m4a6a84accc" y="306.131327"/>
      </g>
     </g>
     <g id="text_40">
      <!-- 15000 -->
      <g style="fill:#262626;" transform="translate(803.691975 310.310467)scale(0.11 -0.11)">
       <use xlink:href="#DejaVuSans-31"/>
       <use x="63.623047" xlink:href="#DejaVuSans-35"/>
       <use x="127.246094" xlink:href="#DejaVuSans-30"/>
       <use x="190.869141" xlink:href="#DejaVuSans-30"/>
       <use x="254.492188" xlink:href="#DejaVuSans-30"/>
      </g>
     </g>
    </g>
    <g id="ytick_12">
     <g id="line2d_120">
      <g>
       <use style="fill:#262626;stroke:#262626;stroke-width:1.25;" x="794.191975" xlink:href="#m4a6a84accc" y="250.779278"/>
      </g>
     </g>
     <g id="text_41">
      <!-- 20000 -->
      <g style="fill:#262626;" transform="translate(803.691975 254.958419)scale(0.11 -0.11)">
       <use xlink:href="#DejaVuSans-32"/>
       <use x="63.623047" xlink:href="#DejaVuSans-30"/>
       <use x="127.246094" xlink:href="#DejaVuSans-30"/>
       <use x="190.869141" xlink:href="#DejaVuSans-30"/>
       <use x="254.492188" xlink:href="#DejaVuSans-30"/>
      </g>
     </g>
    </g>
    <g id="ytick_13">
     <g id="line2d_121">
      <g>
       <use style="fill:#262626;stroke:#262626;stroke-width:1.25;" x="794.191975" xlink:href="#m4a6a84accc" y="195.42723"/>
      </g>
     </g>
     <g id="text_42">
      <!-- 25000 -->
      <g style="fill:#262626;" transform="translate(803.691975 199.60637)scale(0.11 -0.11)">
       <use xlink:href="#DejaVuSans-32"/>
       <use x="63.623047" xlink:href="#DejaVuSans-35"/>
       <use x="127.246094" xlink:href="#DejaVuSans-30"/>
       <use x="190.869141" xlink:href="#DejaVuSans-30"/>
       <use x="254.492188" xlink:href="#DejaVuSans-30"/>
      </g>
     </g>
    </g>
    <g id="ytick_14">
     <g id="line2d_122">
      <g>
       <use style="fill:#262626;stroke:#262626;stroke-width:1.25;" x="794.191975" xlink:href="#m4a6a84accc" y="140.075181"/>
      </g>
     </g>
     <g id="text_43">
      <!-- 30000 -->
      <g style="fill:#262626;" transform="translate(803.691975 144.254322)scale(0.11 -0.11)">
       <use xlink:href="#DejaVuSans-33"/>
       <use x="63.623047" xlink:href="#DejaVuSans-30"/>
       <use x="127.246094" xlink:href="#DejaVuSans-30"/>
       <use x="190.869141" xlink:href="#DejaVuSans-30"/>
       <use x="254.492188" xlink:href="#DejaVuSans-30"/>
      </g>
     </g>
    </g>
    <g id="ytick_15">
     <g id="line2d_123">
      <g>
       <use style="fill:#262626;stroke:#262626;stroke-width:1.25;" x="794.191975" xlink:href="#m4a6a84accc" y="84.723132"/>
      </g>
     </g>
     <g id="text_44">
      <!-- 35000 -->
      <g style="fill:#262626;" transform="translate(803.691975 88.902273)scale(0.11 -0.11)">
       <use xlink:href="#DejaVuSans-33"/>
       <use x="63.623047" xlink:href="#DejaVuSans-35"/>
       <use x="127.246094" xlink:href="#DejaVuSans-30"/>
       <use x="190.869141" xlink:href="#DejaVuSans-30"/>
       <use x="254.492188" xlink:href="#DejaVuSans-30"/>
      </g>
     </g>
    </g>
    <g id="ytick_16">
     <g id="line2d_124">
      <g>
       <use style="fill:#262626;stroke:#262626;stroke-width:1.25;" x="794.191975" xlink:href="#m4a6a84accc" y="29.371084"/>
      </g>
     </g>
     <g id="text_45">
      <!-- 40000 -->
      <g style="fill:#262626;" transform="translate(803.691975 33.550224)scale(0.11 -0.11)">
       <use xlink:href="#DejaVuSans-34"/>
       <use x="63.623047" xlink:href="#DejaVuSans-30"/>
       <use x="127.246094" xlink:href="#DejaVuSans-30"/>
       <use x="190.869141" xlink:href="#DejaVuSans-30"/>
       <use x="254.492188" xlink:href="#DejaVuSans-30"/>
      </g>
     </g>
    </g>
    <g id="text_46">
     <!-- Новопоставени дози -->
     <g style="fill:#262626;" transform="translate(849.5676 195.880819)rotate(-270)scale(0.12 -0.12)">
      <defs>
       <path d="M 628 4666 
L 1259 4666 
L 1259 2753 
L 3553 2753 
L 3553 4666 
L 4184 4666 
L 4184 0 
L 3553 0 
L 3553 2222 
L 1259 2222 
L 1259 0 
L 628 0 
L 628 4666 
z
" id="DejaVuSans-41d" transform="scale(0.015625)"/>
       <path d="M 3603 3500 
L 3603 0 
L 3025 0 
L 3025 3041 
L 1159 3041 
L 1159 0 
L 581 0 
L 581 3500 
L 3603 3500 
z
" id="DejaVuSans-43f" transform="scale(0.015625)"/>
      </defs>
      <use xlink:href="#DejaVuSans-41d"/>
      <use x="75.195312" xlink:href="#DejaVuSans-43e"/>
      <use x="136.376953" xlink:href="#DejaVuSans-432"/>
      <use x="195.3125" xlink:href="#DejaVuSans-43e"/>
      <use x="256.494141" xlink:href="#DejaVuSans-43f"/>
      <use x="321.875" xlink:href="#DejaVuSans-43e"/>
      <use x="383.056641" xlink:href="#DejaVuSans-441"/>
      <use x="438.037109" xlink:href="#DejaVuSans-442"/>
      <use x="496.289062" xlink:href="#DejaVuSans-430"/>
      <use x="557.568359" xlink:href="#DejaVuSans-432"/>
      <use x="616.503906" xlink:href="#DejaVuSans-435"/>
      <use x="678.027344" xlink:href="#DejaVuSans-43d"/>
      <use x="743.408203" xlink:href="#DejaVuSans-438"/>
      <use x="808.398438" xlink:href="#DejaVuSans-20"/>
      <use x="840.185547" xlink:href="#DejaVuSans-434"/>
      <use x="909.326172" xlink:href="#DejaVuSans-43e"/>
      <use x="970.507812" xlink:href="#DejaVuSans-437"/>
      <use x="1023.681641" xlink:href="#DejaVuSans-438"/>
     </g>
    </g>
   </g>
   <g id="line2d_125">
    <path clip-path="url(#pe37100df96)" d="M 85.829664 429.079297 
L 87.899083 464.2832 
L 89.968503 470.737249 
L 92.037922 472.187472 
L 98.246181 472.187472 
L 100.3156 464.338552 
L 102.38502 444.898912 
L 104.45444 436.71788 
L 106.523859 447.411895 
L 108.593279 470.881164 
L 110.662698 472.187472 
L 112.732118 464.57103 
L 114.801537 454.264479 
L 116.870957 458.260897 
L 118.940376 465.013847 
L 121.009796 467.316492 
L 123.079216 469.906968 
L 125.148635 470.847953 
L 127.218055 459.069037 
L 129.287474 443.537252 
L 131.356894 451.142623 
L 133.426313 459.744332 
L 135.495733 462.777624 
L 137.565152 471.988205 
L 139.634572 471.921782 
L 141.703991 464.936354 
L 143.773411 446.45984 
L 145.842831 430.175267 
L 147.91225 419.946209 
L 149.98167 437.105344 
L 152.051089 469.807334 
L 154.120509 471.025079 
L 156.189928 455.482224 
L 158.259348 435.843317 
L 160.328767 425.614259 
L 162.398187 429.001804 
L 164.467606 440.802861 
L 166.537026 470.460488 
L 168.606446 471.943923 
L 170.675865 451.707214 
L 172.745285 432.998222 
L 174.814704 430.839492 
L 176.884124 417.27824 
L 178.953543 432.655039 
L 181.022963 465.257396 
L 183.092382 471.434684 
L 185.161802 449.515273 
L 187.231222 428.990734 
L 189.300641 421.462855 
L 191.370061 421.33001 
L 193.43948 319.925057 
L 195.5089 426.931637 
L 197.578319 350.435106 
L 199.647739 342.564045 
L 201.717158 282.18603 
L 203.786578 248.166661 
L 205.855997 250.225758 
L 207.925417 295.869057 
L 209.994837 413.281822 
L 212.064256 442.463422 
L 214.133676 349.372347 
L 216.203095 248.199873 
L 218.272515 423.510881 
L 220.341934 246.627874 
L 222.411354 295.94655 
L 224.480773 442.806605 
L 226.550193 455.437942 
L 228.619612 411.289148 
L 230.689032 383.413857 
L 232.758452 394.761027 
L 234.827871 302.799133 
L 236.897291 336.973488 
L 238.96671 458.415883 
L 241.03613 461.393823 
L 243.105549 440.880354 
L 245.174969 424.728626 
L 247.244388 420.067983 
L 249.313808 412.96078 
L 251.383227 398.35891 
L 253.452647 429.832085 
L 255.522067 446.083446 
L 259.660906 334.526928 
L 261.730325 333.763069 
L 263.799745 313.969177 
L 265.869164 310.260589 
L 267.938584 428.680762 
L 270.008003 445.806686 
L 272.077423 372.487362 
L 274.146843 326.235191 
L 276.216262 320.390014 
L 278.285682 322.083787 
L 280.355101 338.423712 
L 282.424521 427.983326 
L 284.49394 455.670421 
L 286.56336 400.462288 
L 288.632779 366.066525 
L 290.702199 319.216551 
L 292.771618 261.152252 
L 294.841038 307.459776 
L 296.910458 431.60335 
L 298.979877 454.474817 
L 301.049297 391.041369 
L 303.118716 355.914959 
L 305.188136 307.437635 
L 307.257555 306.153467 
L 309.326975 319.925057 
L 311.396394 438.013118 
L 313.465814 458.60408 
L 315.535233 394.218577 
L 317.604653 341.036328 
L 319.674073 259.989859 
L 321.743492 228.461332 
L 323.812912 268.237314 
L 325.882331 425.359639 
L 327.951751 449.271724 
L 330.02117 351.409302 
L 332.09059 286.76918 
L 334.160009 191.497234 
L 336.229429 174.149902 
L 338.298849 336.165348 
L 340.368268 408.477264 
L 342.437688 434.492727 
L 344.507107 373.804741 
L 346.576527 348.940601 
L 348.645946 112.609494 
L 350.715366 393.255451 
L 352.784785 50.216665 
L 354.854205 360.951996 
L 356.923624 409.695009 
L 358.993044 190.168785 
L 361.062464 76.442466 
L 363.131883 68.383208 
L 365.201303 54.168802 
L 367.270722 104.240265 
L 369.340142 399.222402 
L 371.409561 434.658783 
L 373.478981 270.307481 
L 375.5484 183.570821 
L 377.61782 136.211608 
L 379.687239 93.535179 
L 381.756659 194.696582 
L 383.826079 401.912511 
L 385.895498 431.581209 
L 387.964918 414.931313 
L 390.034337 285.518224 
L 392.103757 241.280867 
L 394.173176 270.584241 
L 396.242596 258.041467 
L 398.312015 393.875394 
L 400.381435 416.337255 
L 402.450855 331.8811 
L 404.520274 272.388718 
L 406.589694 228.848796 
L 408.659113 215.874276 
L 410.728533 231.461413 
L 412.797952 405.864648 
L 414.867372 390.155736 
L 419.006211 231.295357 
L 421.07563 206.420146 
L 423.14505 209.121326 
L 425.21447 245.365848 
L 427.283889 417.189677 
L 429.353309 436.064725 
L 431.422728 365.313737 
L 433.492148 301.061079 
L 435.561567 277.259698 
L 437.630987 270.573171 
L 439.700406 303.585132 
L 441.769826 429.499972 
L 443.839245 437.503879 
L 445.908665 378.066849 
L 447.978085 331.34972 
L 450.047504 318.319848 
L 452.116924 314.854809 
L 454.186343 336.242841 
L 456.255763 437.80278 
L 458.325182 442.075958 
L 460.394602 382.97104 
L 462.464021 332.811014 
L 464.533441 328.139301 
L 466.602861 335.977151 
L 468.67228 342.386918 
L 470.7417 432.356138 
L 472.811119 448.308599 
L 474.880539 385.683291 
L 476.949958 342.652608 
L 479.019378 330.187327 
L 481.088797 336.264982 
L 483.158217 344.390663 
L 485.227636 436.042585 
L 487.297056 449.017105 
L 489.366476 379.085327 
L 491.435895 340.294611 
L 493.505315 339.043655 
L 495.574734 343.327903 
L 497.644154 354.032989 
L 499.713573 442.718042 
L 501.782993 449.559555 
L 503.852412 386.181459 
L 505.921832 361.693713 
L 507.991251 349.770882 
L 510.060671 346.671167 
L 512.130091 356.413128 
L 514.19951 432.998222 
L 516.26893 450.068794 
L 518.338349 377.723666 
L 520.407769 337.383093 
L 522.477188 328.582118 
L 524.546608 337.006699 
L 526.616027 350.911134 
L 528.685447 436.839654 
L 530.754867 448.220035 
L 532.824286 380.192368 
L 534.893706 335.1358 
L 536.963125 332.124649 
L 539.032545 333.652365 
L 541.101964 340.848131 
L 543.171384 435.898669 
L 545.240803 446.382347 
L 547.310223 372.730911 
L 549.379642 340.493878 
L 551.449062 335.866447 
L 553.518482 341.169173 
L 555.587901 356.224931 
L 557.657321 433.396757 
L 559.72674 447.987557 
L 561.79616 371.05928 
L 563.865579 337.02884 
L 565.934999 330.608003 
L 568.004418 337.936614 
L 570.073838 341.88875 
L 572.143257 431.182675 
L 574.212677 445.740263 
L 576.282097 362.822895 
L 578.351516 320.157536 
L 580.420936 319.515452 
L 582.490355 323.744348 
L 584.559775 333.962337 
L 586.629194 428.680762 
L 588.698614 444.068632 
L 590.768033 357.022 
L 592.837453 322.880857 
L 594.906873 338.92188 
L 596.976292 337.261319 
L 599.045712 337.194896 
L 601.115131 434.880192 
L 603.184551 448.408232 
L 605.25397 453.877015 
L 607.32339 346.350125 
L 609.392809 334.272308 
L 611.462229 340.361033 
L 613.531648 350.114064 
L 615.601068 438.168103 
L 617.670488 450.533751 
L 619.739907 383.137097 
L 621.809327 350.601162 
L 623.878746 358.36152 
L 625.948166 348.342799 
L 628.017585 356.545972 
L 630.087005 438.522356 
L 632.156424 453.400987 
L 634.225844 388.650161 
L 636.295263 360.774869 
L 638.364683 451.618651 
L 640.434103 345.530915 
L 642.503522 361.405882 
L 644.572942 444.887842 
L 646.642361 455.449013 
L 648.711781 414.521708 
L 650.7812 383.967377 
L 652.85062 372.487362 
L 654.920039 373.594403 
L 656.989459 394.008239 
L 659.058878 446.913727 
L 661.128298 457.973066 
L 663.197718 412.573316 
L 665.267137 390.211088 
L 667.336557 392.713001 
L 669.405976 386.845684 
L 671.475396 392.447311 
L 673.544815 446.338066 
L 675.614235 458.692643 
L 677.683654 415.008806 
L 679.753074 387.2885 
L 681.822494 410.768839 
L 683.891913 382.982111 
L 685.961333 376.660907 
L 688.030752 439.806524 
L 690.100172 452.371439 
L 692.169591 403.539862 
L 694.239011 371.568518 
L 696.30843 322.925138 
L 698.37785 159.548032 
L 700.447269 206.088034 
L 702.516689 342.829735 
L 704.586109 392.978691 
L 706.655528 304.360061 
L 708.724948 117.867939 
L 710.794367 190.888362 
L 712.863787 213.361293 
L 714.933206 215.97391 
L 717.002626 386.557853 
L 719.072045 417.156466 
L 721.141465 311.378701 
L 723.210884 264.274108 
L 725.280304 255.849526 
L 727.349724 242.343626 
L 729.419143 247.978464 
L 731.488563 397.451136 
L 733.557982 419.481252 
L 735.627402 325.260995 
L 737.696821 284.311549 
L 739.766241 279.971948 
L 741.83566 224.453844 
L 743.90508 229.944767 
L 745.9745 386.867825 
L 748.043919 418.230295 
L 750.113339 286.248871 
L 752.182758 227.166094 
L 754.252178 234.140452 
L 756.321597 228.195642 
L 758.391017 231.583188 
L 760.460436 391.783087 
L 760.460436 391.783087 
" style="fill:none;stroke:#ff0000;stroke-linecap:round;stroke-width:1.5;"/>
   </g>
   <g id="patch_7">
    <path d="M 52.098125 493.286013 
L 52.098125 29.118125 
" style="fill:none;stroke:#262626;stroke-linecap:square;stroke-linejoin:miter;stroke-width:1.25;"/>
   </g>
   <g id="patch_8">
    <path d="M 794.191975 493.286013 
L 794.191975 29.118125 
" style="fill:none;stroke:#262626;stroke-linecap:square;stroke-linejoin:miter;stroke-width:1.25;"/>
   </g>
   <g id="patch_9">
    <path d="M 52.098125 493.286013 
L 794.191975 493.286013 
" style="fill:none;stroke:#262626;stroke-linecap:square;stroke-linejoin:miter;stroke-width:1.25;"/>
   </g>
   <g id="patch_10">
    <path d="M 52.098125 29.118125 
L 794.191975 29.118125 
" style="fill:none;stroke:#262626;stroke-linecap:square;stroke-linejoin:miter;stroke-width:1.25;"/>
   </g>
   <g id="legend_1">
    <g id="patch_11">
     <path d="M 612.420412 70.397344 
L 786.491975 70.397344 
Q 788.691975 70.397344 788.691975 68.197344 
L 788.691975 36.818125 
Q 788.691975 34.618125 786.491975 34.618125 
L 612.420412 34.618125 
Q 610.220412 34.618125 610.220412 36.818125 
L 610.220412 68.197344 
Q 610.220412 70.397344 612.420412 70.397344 
z
" style="fill:#ffffff;opacity:0.8;stroke:#cccccc;stroke-linejoin:miter;"/>
    </g>
    <g id="line2d_126">
     <path d="M 614.620412 43.71375 
L 636.620412 43.71375 
" style="fill:none;stroke:#0000ff;stroke-linecap:round;stroke-width:1.5;"/>
    </g>
    <g id="line2d_127"/>
    <g id="text_47">
     <!-- Кумулативен брой дози -->
     <g style="fill:#262626;" transform="translate(645.420412 47.56375)scale(0.11 -0.11)">
      <defs>
       <path d="M 628 4666 
L 1259 4666 
L 1259 2359 
L 3516 4666 
L 4325 4666 
L 2522 2822 
L 4419 0 
L 3731 0 
L 2113 2403 
L 1259 1531 
L 1259 0 
L 628 0 
L 628 4666 
z
" id="DejaVuSans-41a" transform="scale(0.015625)"/>
       <path d="M 581 3500 
L 1422 3500 
L 2416 1156 
L 3413 3500 
L 4247 3500 
L 4247 0 
L 3669 0 
L 3669 2950 
L 2703 672 
L 2128 672 
L 1159 2950 
L 1159 0 
L 581 0 
L 581 3500 
z
" id="DejaVuSans-43c" transform="scale(0.015625)"/>
       <path d="M 1991 3584 
Q 2741 3584 3169 3096 
Q 3597 2609 3597 1747 
Q 3597 888 3169 398 
Q 2741 -91 1991 -91 
Q 1238 -91 822 384 
Q 406 859 384 1747 
L 366 2463 
Q 350 2834 350 2963 
Q 350 3463 531 3831 
Q 816 4409 1308 4659 
Q 1800 4909 2625 4916 
Q 3006 4919 3175 4972 
L 3334 4516 
Q 3181 4453 3041 4450 
L 2259 4397 
Q 1866 4369 1628 4231 
Q 1006 3866 947 3388 
L 925 3213 
Q 1331 3584 1991 3584 
z
M 1991 3097 
Q 1528 3097 1259 2736 
Q 991 2375 991 1747 
Q 991 1119 1258 758 
Q 1525 397 1991 397 
Q 2450 397 2719 759 
Q 2988 1122 2988 1747 
Q 2988 2369 2719 2733 
Q 2450 3097 1991 3097 
z
" id="DejaVuSans-431" transform="scale(0.015625)"/>
       <path d="M 1159 525 
L 1159 -1331 
L 581 -1331 
L 581 3500 
L 1159 3500 
L 1159 2969 
Q 1341 3281 1617 3432 
Q 1894 3584 2278 3584 
Q 2916 3584 3314 3078 
Q 3713 2572 3713 1747 
Q 3713 922 3314 415 
Q 2916 -91 2278 -91 
Q 1894 -91 1617 61 
Q 1341 213 1159 525 
z
M 3116 1747 
Q 3116 2381 2855 2742 
Q 2594 3103 2138 3103 
Q 1681 3103 1420 2742 
Q 1159 2381 1159 1747 
Q 1159 1113 1420 752 
Q 1681 391 2138 391 
Q 2594 391 2855 752 
Q 3116 1113 3116 1747 
z
" id="DejaVuSans-440" transform="scale(0.015625)"/>
       <path d="M 3578 3500 
L 3578 0 
L 3006 0 
L 3006 2809 
L 1319 0 
L 581 0 
L 581 3500 
L 1153 3500 
L 1153 697 
L 2838 3500 
L 3578 3500 
z
M 1102 4833 
L 1471 4833 
Q 1505 4599 1656 4481 
Q 1808 4364 2080 4364 
Q 2349 4364 2499 4480 
Q 2649 4596 2689 4833 
L 3058 4833 
Q 3027 4386 2780 4161 
Q 2533 3936 2080 3936 
Q 1627 3936 1380 4161 
Q 1133 4386 1102 4833 
z
" id="DejaVuSans-439" transform="scale(0.015625)"/>
      </defs>
      <use xlink:href="#DejaVuSans-41a"/>
      <use x="70.996094" xlink:href="#DejaVuSans-443"/>
      <use x="130.175781" xlink:href="#DejaVuSans-43c"/>
      <use x="205.615234" xlink:href="#DejaVuSans-443"/>
      <use x="264.794922" xlink:href="#DejaVuSans-43b"/>
      <use x="328.710938" xlink:href="#DejaVuSans-430"/>
      <use x="389.990234" xlink:href="#DejaVuSans-442"/>
      <use x="448.242188" xlink:href="#DejaVuSans-438"/>
      <use x="513.232422" xlink:href="#DejaVuSans-432"/>
      <use x="572.167969" xlink:href="#DejaVuSans-435"/>
      <use x="633.691406" xlink:href="#DejaVuSans-43d"/>
      <use x="699.072266" xlink:href="#DejaVuSans-20"/>
      <use x="730.859375" xlink:href="#DejaVuSans-431"/>
      <use x="792.529297" xlink:href="#DejaVuSans-440"/>
      <use x="856.005859" xlink:href="#DejaVuSans-43e"/>
      <use x="917.1875" xlink:href="#DejaVuSans-439"/>
      <use x="982.177734" xlink:href="#DejaVuSans-20"/>
      <use x="1013.964844" xlink:href="#DejaVuSans-434"/>
      <use x="1083.105469" xlink:href="#DejaVuSans-43e"/>
      <use x="1144.287109" xlink:href="#DejaVuSans-437"/>
      <use x="1197.460938" xlink:href="#DejaVuSans-438"/>
     </g>
    </g>
    <g id="line2d_128">
     <path d="M 614.620412 59.859687 
L 636.620412 59.859687 
" style="fill:none;stroke:#ff0000;stroke-linecap:round;stroke-width:1.5;"/>
    </g>
    <g id="line2d_129"/>
    <g id="text_48">
     <!-- Новопоставени дози -->
     <g style="fill:#262626;" transform="translate(645.420412 63.709687)scale(0.11 -0.11)">
      <use xlink:href="#DejaVuSans-41d"/>
      <use x="75.195312" xlink:href="#DejaVuSans-43e"/>
      <use x="136.376953" xlink:href="#DejaVuSans-432"/>
      <use x="195.3125" xlink:href="#DejaVuSans-43e"/>
      <use x="256.494141" xlink:href="#DejaVuSans-43f"/>
      <use x="321.875" xlink:href="#DejaVuSans-43e"/>
      <use x="383.056641" xlink:href="#DejaVuSans-441"/>
      <use x="438.037109" xlink:href="#DejaVuSans-442"/>
      <use x="496.289062" xlink:href="#DejaVuSans-430"/>
      <use x="557.568359" xlink:href="#DejaVuSans-432"/>
      <use x="616.503906" xlink:href="#DejaVuSans-435"/>
      <use x="678.027344" xlink:href="#DejaVuSans-43d"/>
      <use x="743.408203" xlink:href="#DejaVuSans-438"/>
      <use x="808.398438" xlink:href="#DejaVuSans-20"/>
      <use x="840.185547" xlink:href="#DejaVuSans-434"/>
      <use x="909.326172" xlink:href="#DejaVuSans-43e"/>
      <use x="970.507812" xlink:href="#DejaVuSans-437"/>
      <use x="1023.681641" xlink:href="#DejaVuSans-438"/>
     </g>
    </g>
   </g>
  </g>
 </g>
 <defs>
  <clipPath id="pe37100df96">
   <rect height="464.167888" width="742.09385" x="52.098125" y="29.118125"/>
  </clipPath>
 </defs>
</svg>
