<?xml version="1.0" encoding="utf-8" standalone="no"?>
<!DOCTYPE svg PUBLIC "-//W3C//DTD SVG 1.1//EN"
  "http://www.w3.org/Graphics/SVG/1.1/DTD/svg11.dtd">
<svg height="570.462488pt" version="1.1" viewBox="0 0 858.685725 570.462488" width="858.685725pt" xmlns="http://www.w3.org/2000/svg" xmlns:xlink="http://www.w3.org/1999/xlink">
 <metadata>
  <rdf:RDF xmlns:cc="http://creativecommons.org/ns#" xmlns:dc="http://purl.org/dc/elements/1.1/" xmlns:rdf="http://www.w3.org/1999/02/22-rdf-syntax-ns#">
   <cc:Work>
    <dc:type rdf:resource="http://purl.org/dc/dcmitype/StillImage"/>
    <dc:date>2021-11-04T02:35:49.994441</dc:date>
    <dc:format>image/svg+xml</dc:format>
    <dc:creator>
     <cc:Agent>
      <dc:title>Matplotlib v3.4.3, https://matplotlib.org/</dc:title>
     </cc:Agent>
    </dc:creator>
   </cc:Work>
  </rdf:RDF>
 </metadata>
 <defs>
  <style type="text/css">*{stroke-linecap:butt;stroke-linejoin:round;}</style>
 </defs>
 <g id="figure_1">
  <g id="patch_1">
   <path d="M 0 570.462488 
L 858.685725 570.462488 
L 858.685725 0 
L 0 0 
z
" style="fill:none;"/>
  </g>
  <g id="axes_1">
   <g id="patch_2">
    <path d="M 52.098125 493.286013 
L 794.191975 493.286013 
L 794.191975 29.118125 
L 52.098125 29.118125 
z
" style="fill:none;"/>
   </g>
   <g id="matplotlib.axis_1">
    <g id="xtick_1">
     <g id="line2d_1">
      <path clip-path="url(#p6757c44e23)" d="M 85.829664 493.286013 
L 85.829664 29.118125 
" style="fill:none;stroke:#cccccc;stroke-linecap:round;"/>
     </g>
     <g id="line2d_2">
      <defs>
       <path d="M 0 0 
L 0 6 
" id="m096a85b00a" style="stroke:#262626;stroke-width:1.25;"/>
      </defs>
      <g>
       <use style="fill:#262626;stroke:#262626;stroke-width:1.25;" x="85.829664" xlink:href="#m096a85b00a" y="493.286013"/>
      </g>
     </g>
     <g id="text_1">
      <!-- 29.12.2020 -->
      <g style="fill:#262626;" transform="translate(39.677135 553.231121)rotate(-45)scale(0.11 -0.11)">
       <defs>
        <path d="M 1228 531 
L 3431 531 
L 3431 0 
L 469 0 
L 469 531 
Q 828 903 1448 1529 
Q 2069 2156 2228 2338 
Q 2531 2678 2651 2914 
Q 2772 3150 2772 3378 
Q 2772 3750 2511 3984 
Q 2250 4219 1831 4219 
Q 1534 4219 1204 4116 
Q 875 4013 500 3803 
L 500 4441 
Q 881 4594 1212 4672 
Q 1544 4750 1819 4750 
Q 2544 4750 2975 4387 
Q 3406 4025 3406 3419 
Q 3406 3131 3298 2873 
Q 3191 2616 2906 2266 
Q 2828 2175 2409 1742 
Q 1991 1309 1228 531 
z
" id="DejaVuSans-32" transform="scale(0.015625)"/>
        <path d="M 703 97 
L 703 672 
Q 941 559 1184 500 
Q 1428 441 1663 441 
Q 2288 441 2617 861 
Q 2947 1281 2994 2138 
Q 2813 1869 2534 1725 
Q 2256 1581 1919 1581 
Q 1219 1581 811 2004 
Q 403 2428 403 3163 
Q 403 3881 828 4315 
Q 1253 4750 1959 4750 
Q 2769 4750 3195 4129 
Q 3622 3509 3622 2328 
Q 3622 1225 3098 567 
Q 2575 -91 1691 -91 
Q 1453 -91 1209 -44 
Q 966 3 703 97 
z
M 1959 2075 
Q 2384 2075 2632 2365 
Q 2881 2656 2881 3163 
Q 2881 3666 2632 3958 
Q 2384 4250 1959 4250 
Q 1534 4250 1286 3958 
Q 1038 3666 1038 3163 
Q 1038 2656 1286 2365 
Q 1534 2075 1959 2075 
z
" id="DejaVuSans-39" transform="scale(0.015625)"/>
        <path d="M 684 794 
L 1344 794 
L 1344 0 
L 684 0 
L 684 794 
z
" id="DejaVuSans-2e" transform="scale(0.015625)"/>
        <path d="M 794 531 
L 1825 531 
L 1825 4091 
L 703 3866 
L 703 4441 
L 1819 4666 
L 2450 4666 
L 2450 531 
L 3481 531 
L 3481 0 
L 794 0 
L 794 531 
z
" id="DejaVuSans-31" transform="scale(0.015625)"/>
        <path d="M 2034 4250 
Q 1547 4250 1301 3770 
Q 1056 3291 1056 2328 
Q 1056 1369 1301 889 
Q 1547 409 2034 409 
Q 2525 409 2770 889 
Q 3016 1369 3016 2328 
Q 3016 3291 2770 3770 
Q 2525 4250 2034 4250 
z
M 2034 4750 
Q 2819 4750 3233 4129 
Q 3647 3509 3647 2328 
Q 3647 1150 3233 529 
Q 2819 -91 2034 -91 
Q 1250 -91 836 529 
Q 422 1150 422 2328 
Q 422 3509 836 4129 
Q 1250 4750 2034 4750 
z
" id="DejaVuSans-30" transform="scale(0.015625)"/>
       </defs>
       <use xlink:href="#DejaVuSans-32"/>
       <use x="63.623047" xlink:href="#DejaVuSans-39"/>
       <use x="127.246094" xlink:href="#DejaVuSans-2e"/>
       <use x="159.033203" xlink:href="#DejaVuSans-31"/>
       <use x="222.65625" xlink:href="#DejaVuSans-32"/>
       <use x="286.279297" xlink:href="#DejaVuSans-2e"/>
       <use x="318.066406" xlink:href="#DejaVuSans-32"/>
       <use x="381.689453" xlink:href="#DejaVuSans-30"/>
       <use x="445.3125" xlink:href="#DejaVuSans-32"/>
       <use x="508.935547" xlink:href="#DejaVuSans-30"/>
      </g>
     </g>
    </g>
    <g id="xtick_2">
     <g id="line2d_3">
      <path clip-path="url(#p6757c44e23)" d="M 116.395459 493.286013 
L 116.395459 29.118125 
" style="fill:none;stroke:#cccccc;stroke-linecap:round;"/>
     </g>
     <g id="line2d_4">
      <g>
       <use style="fill:#262626;stroke:#262626;stroke-width:1.25;" x="116.395459" xlink:href="#m096a85b00a" y="493.286013"/>
      </g>
     </g>
     <g id="text_2">
      <!-- 12.01.2021 -->
      <g style="fill:#262626;" transform="translate(70.242931 553.231121)rotate(-45)scale(0.11 -0.11)">
       <use xlink:href="#DejaVuSans-31"/>
       <use x="63.623047" xlink:href="#DejaVuSans-32"/>
       <use x="127.246094" xlink:href="#DejaVuSans-2e"/>
       <use x="159.033203" xlink:href="#DejaVuSans-30"/>
       <use x="222.65625" xlink:href="#DejaVuSans-31"/>
       <use x="286.279297" xlink:href="#DejaVuSans-2e"/>
       <use x="318.066406" xlink:href="#DejaVuSans-32"/>
       <use x="381.689453" xlink:href="#DejaVuSans-30"/>
       <use x="445.3125" xlink:href="#DejaVuSans-32"/>
       <use x="508.935547" xlink:href="#DejaVuSans-31"/>
      </g>
     </g>
    </g>
    <g id="xtick_3">
     <g id="line2d_5">
      <path clip-path="url(#p6757c44e23)" d="M 146.961255 493.286013 
L 146.961255 29.118125 
" style="fill:none;stroke:#cccccc;stroke-linecap:round;"/>
     </g>
     <g id="line2d_6">
      <g>
       <use style="fill:#262626;stroke:#262626;stroke-width:1.25;" x="146.961255" xlink:href="#m096a85b00a" y="493.286013"/>
      </g>
     </g>
     <g id="text_3">
      <!-- 26.01.2021 -->
      <g style="fill:#262626;" transform="translate(100.808727 553.231121)rotate(-45)scale(0.11 -0.11)">
       <defs>
        <path d="M 2113 2584 
Q 1688 2584 1439 2293 
Q 1191 2003 1191 1497 
Q 1191 994 1439 701 
Q 1688 409 2113 409 
Q 2538 409 2786 701 
Q 3034 994 3034 1497 
Q 3034 2003 2786 2293 
Q 2538 2584 2113 2584 
z
M 3366 4563 
L 3366 3988 
Q 3128 4100 2886 4159 
Q 2644 4219 2406 4219 
Q 1781 4219 1451 3797 
Q 1122 3375 1075 2522 
Q 1259 2794 1537 2939 
Q 1816 3084 2150 3084 
Q 2853 3084 3261 2657 
Q 3669 2231 3669 1497 
Q 3669 778 3244 343 
Q 2819 -91 2113 -91 
Q 1303 -91 875 529 
Q 447 1150 447 2328 
Q 447 3434 972 4092 
Q 1497 4750 2381 4750 
Q 2619 4750 2861 4703 
Q 3103 4656 3366 4563 
z
" id="DejaVuSans-36" transform="scale(0.015625)"/>
       </defs>
       <use xlink:href="#DejaVuSans-32"/>
       <use x="63.623047" xlink:href="#DejaVuSans-36"/>
       <use x="127.246094" xlink:href="#DejaVuSans-2e"/>
       <use x="159.033203" xlink:href="#DejaVuSans-30"/>
       <use x="222.65625" xlink:href="#DejaVuSans-31"/>
       <use x="286.279297" xlink:href="#DejaVuSans-2e"/>
       <use x="318.066406" xlink:href="#DejaVuSans-32"/>
       <use x="381.689453" xlink:href="#DejaVuSans-30"/>
       <use x="445.3125" xlink:href="#DejaVuSans-32"/>
       <use x="508.935547" xlink:href="#DejaVuSans-31"/>
      </g>
     </g>
    </g>
    <g id="xtick_4">
     <g id="line2d_7">
      <path clip-path="url(#p6757c44e23)" d="M 177.52705 493.286013 
L 177.52705 29.118125 
" style="fill:none;stroke:#cccccc;stroke-linecap:round;"/>
     </g>
     <g id="line2d_8">
      <g>
       <use style="fill:#262626;stroke:#262626;stroke-width:1.25;" x="177.52705" xlink:href="#m096a85b00a" y="493.286013"/>
      </g>
     </g>
     <g id="text_4">
      <!-- 09.02.2021 -->
      <g style="fill:#262626;" transform="translate(131.374522 553.231121)rotate(-45)scale(0.11 -0.11)">
       <use xlink:href="#DejaVuSans-30"/>
       <use x="63.623047" xlink:href="#DejaVuSans-39"/>
       <use x="127.246094" xlink:href="#DejaVuSans-2e"/>
       <use x="159.033203" xlink:href="#DejaVuSans-30"/>
       <use x="222.65625" xlink:href="#DejaVuSans-32"/>
       <use x="286.279297" xlink:href="#DejaVuSans-2e"/>
       <use x="318.066406" xlink:href="#DejaVuSans-32"/>
       <use x="381.689453" xlink:href="#DejaVuSans-30"/>
       <use x="445.3125" xlink:href="#DejaVuSans-32"/>
       <use x="508.935547" xlink:href="#DejaVuSans-31"/>
      </g>
     </g>
    </g>
    <g id="xtick_5">
     <g id="line2d_9">
      <path clip-path="url(#p6757c44e23)" d="M 208.092846 493.286013 
L 208.092846 29.118125 
" style="fill:none;stroke:#cccccc;stroke-linecap:round;"/>
     </g>
     <g id="line2d_10">
      <g>
       <use style="fill:#262626;stroke:#262626;stroke-width:1.25;" x="208.092846" xlink:href="#m096a85b00a" y="493.286013"/>
      </g>
     </g>
     <g id="text_5">
      <!-- 23.02.2021 -->
      <g style="fill:#262626;" transform="translate(161.940318 553.231121)rotate(-45)scale(0.11 -0.11)">
       <defs>
        <path d="M 2597 2516 
Q 3050 2419 3304 2112 
Q 3559 1806 3559 1356 
Q 3559 666 3084 287 
Q 2609 -91 1734 -91 
Q 1441 -91 1130 -33 
Q 819 25 488 141 
L 488 750 
Q 750 597 1062 519 
Q 1375 441 1716 441 
Q 2309 441 2620 675 
Q 2931 909 2931 1356 
Q 2931 1769 2642 2001 
Q 2353 2234 1838 2234 
L 1294 2234 
L 1294 2753 
L 1863 2753 
Q 2328 2753 2575 2939 
Q 2822 3125 2822 3475 
Q 2822 3834 2567 4026 
Q 2313 4219 1838 4219 
Q 1578 4219 1281 4162 
Q 984 4106 628 3988 
L 628 4550 
Q 988 4650 1302 4700 
Q 1616 4750 1894 4750 
Q 2613 4750 3031 4423 
Q 3450 4097 3450 3541 
Q 3450 3153 3228 2886 
Q 3006 2619 2597 2516 
z
" id="DejaVuSans-33" transform="scale(0.015625)"/>
       </defs>
       <use xlink:href="#DejaVuSans-32"/>
       <use x="63.623047" xlink:href="#DejaVuSans-33"/>
       <use x="127.246094" xlink:href="#DejaVuSans-2e"/>
       <use x="159.033203" xlink:href="#DejaVuSans-30"/>
       <use x="222.65625" xlink:href="#DejaVuSans-32"/>
       <use x="286.279297" xlink:href="#DejaVuSans-2e"/>
       <use x="318.066406" xlink:href="#DejaVuSans-32"/>
       <use x="381.689453" xlink:href="#DejaVuSans-30"/>
       <use x="445.3125" xlink:href="#DejaVuSans-32"/>
       <use x="508.935547" xlink:href="#DejaVuSans-31"/>
      </g>
     </g>
    </g>
    <g id="xtick_6">
     <g id="line2d_11">
      <path clip-path="url(#p6757c44e23)" d="M 238.658641 493.286013 
L 238.658641 29.118125 
" style="fill:none;stroke:#cccccc;stroke-linecap:round;"/>
     </g>
     <g id="line2d_12">
      <g>
       <use style="fill:#262626;stroke:#262626;stroke-width:1.25;" x="238.658641" xlink:href="#m096a85b00a" y="493.286013"/>
      </g>
     </g>
     <g id="text_6">
      <!-- 09.03.2021 -->
      <g style="fill:#262626;" transform="translate(192.506113 553.231121)rotate(-45)scale(0.11 -0.11)">
       <use xlink:href="#DejaVuSans-30"/>
       <use x="63.623047" xlink:href="#DejaVuSans-39"/>
       <use x="127.246094" xlink:href="#DejaVuSans-2e"/>
       <use x="159.033203" xlink:href="#DejaVuSans-30"/>
       <use x="222.65625" xlink:href="#DejaVuSans-33"/>
       <use x="286.279297" xlink:href="#DejaVuSans-2e"/>
       <use x="318.066406" xlink:href="#DejaVuSans-32"/>
       <use x="381.689453" xlink:href="#DejaVuSans-30"/>
       <use x="445.3125" xlink:href="#DejaVuSans-32"/>
       <use x="508.935547" xlink:href="#DejaVuSans-31"/>
      </g>
     </g>
    </g>
    <g id="xtick_7">
     <g id="line2d_13">
      <path clip-path="url(#p6757c44e23)" d="M 269.224437 493.286013 
L 269.224437 29.118125 
" style="fill:none;stroke:#cccccc;stroke-linecap:round;"/>
     </g>
     <g id="line2d_14">
      <g>
       <use style="fill:#262626;stroke:#262626;stroke-width:1.25;" x="269.224437" xlink:href="#m096a85b00a" y="493.286013"/>
      </g>
     </g>
     <g id="text_7">
      <!-- 23.03.2021 -->
      <g style="fill:#262626;" transform="translate(223.071909 553.231121)rotate(-45)scale(0.11 -0.11)">
       <use xlink:href="#DejaVuSans-32"/>
       <use x="63.623047" xlink:href="#DejaVuSans-33"/>
       <use x="127.246094" xlink:href="#DejaVuSans-2e"/>
       <use x="159.033203" xlink:href="#DejaVuSans-30"/>
       <use x="222.65625" xlink:href="#DejaVuSans-33"/>
       <use x="286.279297" xlink:href="#DejaVuSans-2e"/>
       <use x="318.066406" xlink:href="#DejaVuSans-32"/>
       <use x="381.689453" xlink:href="#DejaVuSans-30"/>
       <use x="445.3125" xlink:href="#DejaVuSans-32"/>
       <use x="508.935547" xlink:href="#DejaVuSans-31"/>
      </g>
     </g>
    </g>
    <g id="xtick_8">
     <g id="line2d_15">
      <path clip-path="url(#p6757c44e23)" d="M 299.790232 493.286013 
L 299.790232 29.118125 
" style="fill:none;stroke:#cccccc;stroke-linecap:round;"/>
     </g>
     <g id="line2d_16">
      <g>
       <use style="fill:#262626;stroke:#262626;stroke-width:1.25;" x="299.790232" xlink:href="#m096a85b00a" y="493.286013"/>
      </g>
     </g>
     <g id="text_8">
      <!-- 06.04.2021 -->
      <g style="fill:#262626;" transform="translate(253.637704 553.231121)rotate(-45)scale(0.11 -0.11)">
       <defs>
        <path d="M 2419 4116 
L 825 1625 
L 2419 1625 
L 2419 4116 
z
M 2253 4666 
L 3047 4666 
L 3047 1625 
L 3713 1625 
L 3713 1100 
L 3047 1100 
L 3047 0 
L 2419 0 
L 2419 1100 
L 313 1100 
L 313 1709 
L 2253 4666 
z
" id="DejaVuSans-34" transform="scale(0.015625)"/>
       </defs>
       <use xlink:href="#DejaVuSans-30"/>
       <use x="63.623047" xlink:href="#DejaVuSans-36"/>
       <use x="127.246094" xlink:href="#DejaVuSans-2e"/>
       <use x="159.033203" xlink:href="#DejaVuSans-30"/>
       <use x="222.65625" xlink:href="#DejaVuSans-34"/>
       <use x="286.279297" xlink:href="#DejaVuSans-2e"/>
       <use x="318.066406" xlink:href="#DejaVuSans-32"/>
       <use x="381.689453" xlink:href="#DejaVuSans-30"/>
       <use x="445.3125" xlink:href="#DejaVuSans-32"/>
       <use x="508.935547" xlink:href="#DejaVuSans-31"/>
      </g>
     </g>
    </g>
    <g id="xtick_9">
     <g id="line2d_17">
      <path clip-path="url(#p6757c44e23)" d="M 330.356028 493.286013 
L 330.356028 29.118125 
" style="fill:none;stroke:#cccccc;stroke-linecap:round;"/>
     </g>
     <g id="line2d_18">
      <g>
       <use style="fill:#262626;stroke:#262626;stroke-width:1.25;" x="330.356028" xlink:href="#m096a85b00a" y="493.286013"/>
      </g>
     </g>
     <g id="text_9">
      <!-- 20.04.2021 -->
      <g style="fill:#262626;" transform="translate(284.2035 553.231121)rotate(-45)scale(0.11 -0.11)">
       <use xlink:href="#DejaVuSans-32"/>
       <use x="63.623047" xlink:href="#DejaVuSans-30"/>
       <use x="127.246094" xlink:href="#DejaVuSans-2e"/>
       <use x="159.033203" xlink:href="#DejaVuSans-30"/>
       <use x="222.65625" xlink:href="#DejaVuSans-34"/>
       <use x="286.279297" xlink:href="#DejaVuSans-2e"/>
       <use x="318.066406" xlink:href="#DejaVuSans-32"/>
       <use x="381.689453" xlink:href="#DejaVuSans-30"/>
       <use x="445.3125" xlink:href="#DejaVuSans-32"/>
       <use x="508.935547" xlink:href="#DejaVuSans-31"/>
      </g>
     </g>
    </g>
    <g id="xtick_10">
     <g id="line2d_19">
      <path clip-path="url(#p6757c44e23)" d="M 360.921823 493.286013 
L 360.921823 29.118125 
" style="fill:none;stroke:#cccccc;stroke-linecap:round;"/>
     </g>
     <g id="line2d_20">
      <g>
       <use style="fill:#262626;stroke:#262626;stroke-width:1.25;" x="360.921823" xlink:href="#m096a85b00a" y="493.286013"/>
      </g>
     </g>
     <g id="text_10">
      <!-- 04.05.2021 -->
      <g style="fill:#262626;" transform="translate(314.769295 553.231121)rotate(-45)scale(0.11 -0.11)">
       <defs>
        <path d="M 691 4666 
L 3169 4666 
L 3169 4134 
L 1269 4134 
L 1269 2991 
Q 1406 3038 1543 3061 
Q 1681 3084 1819 3084 
Q 2600 3084 3056 2656 
Q 3513 2228 3513 1497 
Q 3513 744 3044 326 
Q 2575 -91 1722 -91 
Q 1428 -91 1123 -41 
Q 819 9 494 109 
L 494 744 
Q 775 591 1075 516 
Q 1375 441 1709 441 
Q 2250 441 2565 725 
Q 2881 1009 2881 1497 
Q 2881 1984 2565 2268 
Q 2250 2553 1709 2553 
Q 1456 2553 1204 2497 
Q 953 2441 691 2322 
L 691 4666 
z
" id="DejaVuSans-35" transform="scale(0.015625)"/>
       </defs>
       <use xlink:href="#DejaVuSans-30"/>
       <use x="63.623047" xlink:href="#DejaVuSans-34"/>
       <use x="127.246094" xlink:href="#DejaVuSans-2e"/>
       <use x="159.033203" xlink:href="#DejaVuSans-30"/>
       <use x="222.65625" xlink:href="#DejaVuSans-35"/>
       <use x="286.279297" xlink:href="#DejaVuSans-2e"/>
       <use x="318.066406" xlink:href="#DejaVuSans-32"/>
       <use x="381.689453" xlink:href="#DejaVuSans-30"/>
       <use x="445.3125" xlink:href="#DejaVuSans-32"/>
       <use x="508.935547" xlink:href="#DejaVuSans-31"/>
      </g>
     </g>
    </g>
    <g id="xtick_11">
     <g id="line2d_21">
      <path clip-path="url(#p6757c44e23)" d="M 391.487619 493.286013 
L 391.487619 29.118125 
" style="fill:none;stroke:#cccccc;stroke-linecap:round;"/>
     </g>
     <g id="line2d_22">
      <g>
       <use style="fill:#262626;stroke:#262626;stroke-width:1.25;" x="391.487619" xlink:href="#m096a85b00a" y="493.286013"/>
      </g>
     </g>
     <g id="text_11">
      <!-- 18.05.2021 -->
      <g style="fill:#262626;" transform="translate(345.335091 553.231121)rotate(-45)scale(0.11 -0.11)">
       <defs>
        <path d="M 2034 2216 
Q 1584 2216 1326 1975 
Q 1069 1734 1069 1313 
Q 1069 891 1326 650 
Q 1584 409 2034 409 
Q 2484 409 2743 651 
Q 3003 894 3003 1313 
Q 3003 1734 2745 1975 
Q 2488 2216 2034 2216 
z
M 1403 2484 
Q 997 2584 770 2862 
Q 544 3141 544 3541 
Q 544 4100 942 4425 
Q 1341 4750 2034 4750 
Q 2731 4750 3128 4425 
Q 3525 4100 3525 3541 
Q 3525 3141 3298 2862 
Q 3072 2584 2669 2484 
Q 3125 2378 3379 2068 
Q 3634 1759 3634 1313 
Q 3634 634 3220 271 
Q 2806 -91 2034 -91 
Q 1263 -91 848 271 
Q 434 634 434 1313 
Q 434 1759 690 2068 
Q 947 2378 1403 2484 
z
M 1172 3481 
Q 1172 3119 1398 2916 
Q 1625 2713 2034 2713 
Q 2441 2713 2670 2916 
Q 2900 3119 2900 3481 
Q 2900 3844 2670 4047 
Q 2441 4250 2034 4250 
Q 1625 4250 1398 4047 
Q 1172 3844 1172 3481 
z
" id="DejaVuSans-38" transform="scale(0.015625)"/>
       </defs>
       <use xlink:href="#DejaVuSans-31"/>
       <use x="63.623047" xlink:href="#DejaVuSans-38"/>
       <use x="127.246094" xlink:href="#DejaVuSans-2e"/>
       <use x="159.033203" xlink:href="#DejaVuSans-30"/>
       <use x="222.65625" xlink:href="#DejaVuSans-35"/>
       <use x="286.279297" xlink:href="#DejaVuSans-2e"/>
       <use x="318.066406" xlink:href="#DejaVuSans-32"/>
       <use x="381.689453" xlink:href="#DejaVuSans-30"/>
       <use x="445.3125" xlink:href="#DejaVuSans-32"/>
       <use x="508.935547" xlink:href="#DejaVuSans-31"/>
      </g>
     </g>
    </g>
    <g id="xtick_12">
     <g id="line2d_23">
      <path clip-path="url(#p6757c44e23)" d="M 422.053414 493.286013 
L 422.053414 29.118125 
" style="fill:none;stroke:#cccccc;stroke-linecap:round;"/>
     </g>
     <g id="line2d_24">
      <g>
       <use style="fill:#262626;stroke:#262626;stroke-width:1.25;" x="422.053414" xlink:href="#m096a85b00a" y="493.286013"/>
      </g>
     </g>
     <g id="text_12">
      <!-- 01.06.2021 -->
      <g style="fill:#262626;" transform="translate(375.900886 553.231121)rotate(-45)scale(0.11 -0.11)">
       <use xlink:href="#DejaVuSans-30"/>
       <use x="63.623047" xlink:href="#DejaVuSans-31"/>
       <use x="127.246094" xlink:href="#DejaVuSans-2e"/>
       <use x="159.033203" xlink:href="#DejaVuSans-30"/>
       <use x="222.65625" xlink:href="#DejaVuSans-36"/>
       <use x="286.279297" xlink:href="#DejaVuSans-2e"/>
       <use x="318.066406" xlink:href="#DejaVuSans-32"/>
       <use x="381.689453" xlink:href="#DejaVuSans-30"/>
       <use x="445.3125" xlink:href="#DejaVuSans-32"/>
       <use x="508.935547" xlink:href="#DejaVuSans-31"/>
      </g>
     </g>
    </g>
    <g id="xtick_13">
     <g id="line2d_25">
      <path clip-path="url(#p6757c44e23)" d="M 452.61921 493.286013 
L 452.61921 29.118125 
" style="fill:none;stroke:#cccccc;stroke-linecap:round;"/>
     </g>
     <g id="line2d_26">
      <g>
       <use style="fill:#262626;stroke:#262626;stroke-width:1.25;" x="452.61921" xlink:href="#m096a85b00a" y="493.286013"/>
      </g>
     </g>
     <g id="text_13">
      <!-- 15.06.2021 -->
      <g style="fill:#262626;" transform="translate(406.466682 553.231121)rotate(-45)scale(0.11 -0.11)">
       <use xlink:href="#DejaVuSans-31"/>
       <use x="63.623047" xlink:href="#DejaVuSans-35"/>
       <use x="127.246094" xlink:href="#DejaVuSans-2e"/>
       <use x="159.033203" xlink:href="#DejaVuSans-30"/>
       <use x="222.65625" xlink:href="#DejaVuSans-36"/>
       <use x="286.279297" xlink:href="#DejaVuSans-2e"/>
       <use x="318.066406" xlink:href="#DejaVuSans-32"/>
       <use x="381.689453" xlink:href="#DejaVuSans-30"/>
       <use x="445.3125" xlink:href="#DejaVuSans-32"/>
       <use x="508.935547" xlink:href="#DejaVuSans-31"/>
      </g>
     </g>
    </g>
    <g id="xtick_14">
     <g id="line2d_27">
      <path clip-path="url(#p6757c44e23)" d="M 483.185006 493.286013 
L 483.185006 29.118125 
" style="fill:none;stroke:#cccccc;stroke-linecap:round;"/>
     </g>
     <g id="line2d_28">
      <g>
       <use style="fill:#262626;stroke:#262626;stroke-width:1.25;" x="483.185006" xlink:href="#m096a85b00a" y="493.286013"/>
      </g>
     </g>
     <g id="text_14">
      <!-- 29.06.2021 -->
      <g style="fill:#262626;" transform="translate(437.032477 553.231121)rotate(-45)scale(0.11 -0.11)">
       <use xlink:href="#DejaVuSans-32"/>
       <use x="63.623047" xlink:href="#DejaVuSans-39"/>
       <use x="127.246094" xlink:href="#DejaVuSans-2e"/>
       <use x="159.033203" xlink:href="#DejaVuSans-30"/>
       <use x="222.65625" xlink:href="#DejaVuSans-36"/>
       <use x="286.279297" xlink:href="#DejaVuSans-2e"/>
       <use x="318.066406" xlink:href="#DejaVuSans-32"/>
       <use x="381.689453" xlink:href="#DejaVuSans-30"/>
       <use x="445.3125" xlink:href="#DejaVuSans-32"/>
       <use x="508.935547" xlink:href="#DejaVuSans-31"/>
      </g>
     </g>
    </g>
    <g id="xtick_15">
     <g id="line2d_29">
      <path clip-path="url(#p6757c44e23)" d="M 513.750801 493.286013 
L 513.750801 29.118125 
" style="fill:none;stroke:#cccccc;stroke-linecap:round;"/>
     </g>
     <g id="line2d_30">
      <g>
       <use style="fill:#262626;stroke:#262626;stroke-width:1.25;" x="513.750801" xlink:href="#m096a85b00a" y="493.286013"/>
      </g>
     </g>
     <g id="text_15">
      <!-- 13.07.2021 -->
      <g style="fill:#262626;" transform="translate(467.598273 553.231121)rotate(-45)scale(0.11 -0.11)">
       <defs>
        <path d="M 525 4666 
L 3525 4666 
L 3525 4397 
L 1831 0 
L 1172 0 
L 2766 4134 
L 525 4134 
L 525 4666 
z
" id="DejaVuSans-37" transform="scale(0.015625)"/>
       </defs>
       <use xlink:href="#DejaVuSans-31"/>
       <use x="63.623047" xlink:href="#DejaVuSans-33"/>
       <use x="127.246094" xlink:href="#DejaVuSans-2e"/>
       <use x="159.033203" xlink:href="#DejaVuSans-30"/>
       <use x="222.65625" xlink:href="#DejaVuSans-37"/>
       <use x="286.279297" xlink:href="#DejaVuSans-2e"/>
       <use x="318.066406" xlink:href="#DejaVuSans-32"/>
       <use x="381.689453" xlink:href="#DejaVuSans-30"/>
       <use x="445.3125" xlink:href="#DejaVuSans-32"/>
       <use x="508.935547" xlink:href="#DejaVuSans-31"/>
      </g>
     </g>
    </g>
    <g id="xtick_16">
     <g id="line2d_31">
      <path clip-path="url(#p6757c44e23)" d="M 544.316597 493.286013 
L 544.316597 29.118125 
" style="fill:none;stroke:#cccccc;stroke-linecap:round;"/>
     </g>
     <g id="line2d_32">
      <g>
       <use style="fill:#262626;stroke:#262626;stroke-width:1.25;" x="544.316597" xlink:href="#m096a85b00a" y="493.286013"/>
      </g>
     </g>
     <g id="text_16">
      <!-- 27.07.2021 -->
      <g style="fill:#262626;" transform="translate(498.164068 553.231121)rotate(-45)scale(0.11 -0.11)">
       <use xlink:href="#DejaVuSans-32"/>
       <use x="63.623047" xlink:href="#DejaVuSans-37"/>
       <use x="127.246094" xlink:href="#DejaVuSans-2e"/>
       <use x="159.033203" xlink:href="#DejaVuSans-30"/>
       <use x="222.65625" xlink:href="#DejaVuSans-37"/>
       <use x="286.279297" xlink:href="#DejaVuSans-2e"/>
       <use x="318.066406" xlink:href="#DejaVuSans-32"/>
       <use x="381.689453" xlink:href="#DejaVuSans-30"/>
       <use x="445.3125" xlink:href="#DejaVuSans-32"/>
       <use x="508.935547" xlink:href="#DejaVuSans-31"/>
      </g>
     </g>
    </g>
    <g id="xtick_17">
     <g id="line2d_33">
      <path clip-path="url(#p6757c44e23)" d="M 574.882392 493.286013 
L 574.882392 29.118125 
" style="fill:none;stroke:#cccccc;stroke-linecap:round;"/>
     </g>
     <g id="line2d_34">
      <g>
       <use style="fill:#262626;stroke:#262626;stroke-width:1.25;" x="574.882392" xlink:href="#m096a85b00a" y="493.286013"/>
      </g>
     </g>
     <g id="text_17">
      <!-- 10.08.2021 -->
      <g style="fill:#262626;" transform="translate(528.729864 553.231121)rotate(-45)scale(0.11 -0.11)">
       <use xlink:href="#DejaVuSans-31"/>
       <use x="63.623047" xlink:href="#DejaVuSans-30"/>
       <use x="127.246094" xlink:href="#DejaVuSans-2e"/>
       <use x="159.033203" xlink:href="#DejaVuSans-30"/>
       <use x="222.65625" xlink:href="#DejaVuSans-38"/>
       <use x="286.279297" xlink:href="#DejaVuSans-2e"/>
       <use x="318.066406" xlink:href="#DejaVuSans-32"/>
       <use x="381.689453" xlink:href="#DejaVuSans-30"/>
       <use x="445.3125" xlink:href="#DejaVuSans-32"/>
       <use x="508.935547" xlink:href="#DejaVuSans-31"/>
      </g>
     </g>
    </g>
    <g id="xtick_18">
     <g id="line2d_35">
      <path clip-path="url(#p6757c44e23)" d="M 605.448188 493.286013 
L 605.448188 29.118125 
" style="fill:none;stroke:#cccccc;stroke-linecap:round;"/>
     </g>
     <g id="line2d_36">
      <g>
       <use style="fill:#262626;stroke:#262626;stroke-width:1.25;" x="605.448188" xlink:href="#m096a85b00a" y="493.286013"/>
      </g>
     </g>
     <g id="text_18">
      <!-- 24.08.2021 -->
      <g style="fill:#262626;" transform="translate(559.295659 553.231121)rotate(-45)scale(0.11 -0.11)">
       <use xlink:href="#DejaVuSans-32"/>
       <use x="63.623047" xlink:href="#DejaVuSans-34"/>
       <use x="127.246094" xlink:href="#DejaVuSans-2e"/>
       <use x="159.033203" xlink:href="#DejaVuSans-30"/>
       <use x="222.65625" xlink:href="#DejaVuSans-38"/>
       <use x="286.279297" xlink:href="#DejaVuSans-2e"/>
       <use x="318.066406" xlink:href="#DejaVuSans-32"/>
       <use x="381.689453" xlink:href="#DejaVuSans-30"/>
       <use x="445.3125" xlink:href="#DejaVuSans-32"/>
       <use x="508.935547" xlink:href="#DejaVuSans-31"/>
      </g>
     </g>
    </g>
    <g id="xtick_19">
     <g id="line2d_37">
      <path clip-path="url(#p6757c44e23)" d="M 636.013983 493.286013 
L 636.013983 29.118125 
" style="fill:none;stroke:#cccccc;stroke-linecap:round;"/>
     </g>
     <g id="line2d_38">
      <g>
       <use style="fill:#262626;stroke:#262626;stroke-width:1.25;" x="636.013983" xlink:href="#m096a85b00a" y="493.286013"/>
      </g>
     </g>
     <g id="text_19">
      <!-- 07.09.2021 -->
      <g style="fill:#262626;" transform="translate(589.861455 553.231121)rotate(-45)scale(0.11 -0.11)">
       <use xlink:href="#DejaVuSans-30"/>
       <use x="63.623047" xlink:href="#DejaVuSans-37"/>
       <use x="127.246094" xlink:href="#DejaVuSans-2e"/>
       <use x="159.033203" xlink:href="#DejaVuSans-30"/>
       <use x="222.65625" xlink:href="#DejaVuSans-39"/>
       <use x="286.279297" xlink:href="#DejaVuSans-2e"/>
       <use x="318.066406" xlink:href="#DejaVuSans-32"/>
       <use x="381.689453" xlink:href="#DejaVuSans-30"/>
       <use x="445.3125" xlink:href="#DejaVuSans-32"/>
       <use x="508.935547" xlink:href="#DejaVuSans-31"/>
      </g>
     </g>
    </g>
    <g id="xtick_20">
     <g id="line2d_39">
      <path clip-path="url(#p6757c44e23)" d="M 666.579779 493.286013 
L 666.579779 29.118125 
" style="fill:none;stroke:#cccccc;stroke-linecap:round;"/>
     </g>
     <g id="line2d_40">
      <g>
       <use style="fill:#262626;stroke:#262626;stroke-width:1.25;" x="666.579779" xlink:href="#m096a85b00a" y="493.286013"/>
      </g>
     </g>
     <g id="text_20">
      <!-- 21.09.2021 -->
      <g style="fill:#262626;" transform="translate(620.427251 553.231121)rotate(-45)scale(0.11 -0.11)">
       <use xlink:href="#DejaVuSans-32"/>
       <use x="63.623047" xlink:href="#DejaVuSans-31"/>
       <use x="127.246094" xlink:href="#DejaVuSans-2e"/>
       <use x="159.033203" xlink:href="#DejaVuSans-30"/>
       <use x="222.65625" xlink:href="#DejaVuSans-39"/>
       <use x="286.279297" xlink:href="#DejaVuSans-2e"/>
       <use x="318.066406" xlink:href="#DejaVuSans-32"/>
       <use x="381.689453" xlink:href="#DejaVuSans-30"/>
       <use x="445.3125" xlink:href="#DejaVuSans-32"/>
       <use x="508.935547" xlink:href="#DejaVuSans-31"/>
      </g>
     </g>
    </g>
    <g id="xtick_21">
     <g id="line2d_41">
      <path clip-path="url(#p6757c44e23)" d="M 697.145574 493.286013 
L 697.145574 29.118125 
" style="fill:none;stroke:#cccccc;stroke-linecap:round;"/>
     </g>
     <g id="line2d_42">
      <g>
       <use style="fill:#262626;stroke:#262626;stroke-width:1.25;" x="697.145574" xlink:href="#m096a85b00a" y="493.286013"/>
      </g>
     </g>
     <g id="text_21">
      <!-- 05.10.2021 -->
      <g style="fill:#262626;" transform="translate(650.993046 553.231121)rotate(-45)scale(0.11 -0.11)">
       <use xlink:href="#DejaVuSans-30"/>
       <use x="63.623047" xlink:href="#DejaVuSans-35"/>
       <use x="127.246094" xlink:href="#DejaVuSans-2e"/>
       <use x="159.033203" xlink:href="#DejaVuSans-31"/>
       <use x="222.65625" xlink:href="#DejaVuSans-30"/>
       <use x="286.279297" xlink:href="#DejaVuSans-2e"/>
       <use x="318.066406" xlink:href="#DejaVuSans-32"/>
       <use x="381.689453" xlink:href="#DejaVuSans-30"/>
       <use x="445.3125" xlink:href="#DejaVuSans-32"/>
       <use x="508.935547" xlink:href="#DejaVuSans-31"/>
      </g>
     </g>
    </g>
    <g id="xtick_22">
     <g id="line2d_43">
      <path clip-path="url(#p6757c44e23)" d="M 727.71137 493.286013 
L 727.71137 29.118125 
" style="fill:none;stroke:#cccccc;stroke-linecap:round;"/>
     </g>
     <g id="line2d_44">
      <g>
       <use style="fill:#262626;stroke:#262626;stroke-width:1.25;" x="727.71137" xlink:href="#m096a85b00a" y="493.286013"/>
      </g>
     </g>
     <g id="text_22">
      <!-- 19.10.2021 -->
      <g style="fill:#262626;" transform="translate(681.558842 553.231121)rotate(-45)scale(0.11 -0.11)">
       <use xlink:href="#DejaVuSans-31"/>
       <use x="63.623047" xlink:href="#DejaVuSans-39"/>
       <use x="127.246094" xlink:href="#DejaVuSans-2e"/>
       <use x="159.033203" xlink:href="#DejaVuSans-31"/>
       <use x="222.65625" xlink:href="#DejaVuSans-30"/>
       <use x="286.279297" xlink:href="#DejaVuSans-2e"/>
       <use x="318.066406" xlink:href="#DejaVuSans-32"/>
       <use x="381.689453" xlink:href="#DejaVuSans-30"/>
       <use x="445.3125" xlink:href="#DejaVuSans-32"/>
       <use x="508.935547" xlink:href="#DejaVuSans-31"/>
      </g>
     </g>
    </g>
    <g id="xtick_23">
     <g id="line2d_45">
      <path clip-path="url(#p6757c44e23)" d="M 758.277165 493.286013 
L 758.277165 29.118125 
" style="fill:none;stroke:#cccccc;stroke-linecap:round;"/>
     </g>
     <g id="line2d_46">
      <g>
       <use style="fill:#262626;stroke:#262626;stroke-width:1.25;" x="758.277165" xlink:href="#m096a85b00a" y="493.286013"/>
      </g>
     </g>
     <g id="text_23">
      <!-- 02.11.2021 -->
      <g style="fill:#262626;" transform="translate(712.124637 553.231121)rotate(-45)scale(0.11 -0.11)">
       <use xlink:href="#DejaVuSans-30"/>
       <use x="63.623047" xlink:href="#DejaVuSans-32"/>
       <use x="127.246094" xlink:href="#DejaVuSans-2e"/>
       <use x="159.033203" xlink:href="#DejaVuSans-31"/>
       <use x="222.65625" xlink:href="#DejaVuSans-31"/>
       <use x="286.279297" xlink:href="#DejaVuSans-2e"/>
       <use x="318.066406" xlink:href="#DejaVuSans-32"/>
       <use x="381.689453" xlink:href="#DejaVuSans-30"/>
       <use x="445.3125" xlink:href="#DejaVuSans-32"/>
       <use x="508.935547" xlink:href="#DejaVuSans-31"/>
      </g>
     </g>
    </g>
    <g id="xtick_24">
     <g id="line2d_47">
      <defs>
       <path d="M 0 0 
L 0 4 
" id="m08398e187c" style="stroke:#262626;"/>
      </defs>
      <g>
       <use style="fill:#262626;stroke:#262626;" x="63.996953" xlink:href="#m08398e187c" y="493.286013"/>
      </g>
     </g>
    </g>
    <g id="xtick_25">
     <g id="line2d_48">
      <g>
       <use style="fill:#262626;stroke:#262626;" x="79.27985" xlink:href="#m08398e187c" y="493.286013"/>
      </g>
     </g>
    </g>
    <g id="xtick_26">
     <g id="line2d_49">
      <g>
       <use style="fill:#262626;stroke:#262626;" x="94.562748" xlink:href="#m08398e187c" y="493.286013"/>
      </g>
     </g>
    </g>
    <g id="xtick_27">
     <g id="line2d_50">
      <g>
       <use style="fill:#262626;stroke:#262626;" x="109.845646" xlink:href="#m08398e187c" y="493.286013"/>
      </g>
     </g>
    </g>
    <g id="xtick_28">
     <g id="line2d_51">
      <g>
       <use style="fill:#262626;stroke:#262626;" x="125.128544" xlink:href="#m08398e187c" y="493.286013"/>
      </g>
     </g>
    </g>
    <g id="xtick_29">
     <g id="line2d_52">
      <g>
       <use style="fill:#262626;stroke:#262626;" x="140.411441" xlink:href="#m08398e187c" y="493.286013"/>
      </g>
     </g>
    </g>
    <g id="xtick_30">
     <g id="line2d_53">
      <g>
       <use style="fill:#262626;stroke:#262626;" x="155.694339" xlink:href="#m08398e187c" y="493.286013"/>
      </g>
     </g>
    </g>
    <g id="xtick_31">
     <g id="line2d_54">
      <g>
       <use style="fill:#262626;stroke:#262626;" x="170.977237" xlink:href="#m08398e187c" y="493.286013"/>
      </g>
     </g>
    </g>
    <g id="xtick_32">
     <g id="line2d_55">
      <g>
       <use style="fill:#262626;stroke:#262626;" x="186.260135" xlink:href="#m08398e187c" y="493.286013"/>
      </g>
     </g>
    </g>
    <g id="xtick_33">
     <g id="line2d_56">
      <g>
       <use style="fill:#262626;stroke:#262626;" x="201.543032" xlink:href="#m08398e187c" y="493.286013"/>
      </g>
     </g>
    </g>
    <g id="xtick_34">
     <g id="line2d_57">
      <g>
       <use style="fill:#262626;stroke:#262626;" x="216.82593" xlink:href="#m08398e187c" y="493.286013"/>
      </g>
     </g>
    </g>
    <g id="xtick_35">
     <g id="line2d_58">
      <g>
       <use style="fill:#262626;stroke:#262626;" x="232.108828" xlink:href="#m08398e187c" y="493.286013"/>
      </g>
     </g>
    </g>
    <g id="xtick_36">
     <g id="line2d_59">
      <g>
       <use style="fill:#262626;stroke:#262626;" x="247.391726" xlink:href="#m08398e187c" y="493.286013"/>
      </g>
     </g>
    </g>
    <g id="xtick_37">
     <g id="line2d_60">
      <g>
       <use style="fill:#262626;stroke:#262626;" x="262.674623" xlink:href="#m08398e187c" y="493.286013"/>
      </g>
     </g>
    </g>
    <g id="xtick_38">
     <g id="line2d_61">
      <g>
       <use style="fill:#262626;stroke:#262626;" x="277.957521" xlink:href="#m08398e187c" y="493.286013"/>
      </g>
     </g>
    </g>
    <g id="xtick_39">
     <g id="line2d_62">
      <g>
       <use style="fill:#262626;stroke:#262626;" x="293.240419" xlink:href="#m08398e187c" y="493.286013"/>
      </g>
     </g>
    </g>
    <g id="xtick_40">
     <g id="line2d_63">
      <g>
       <use style="fill:#262626;stroke:#262626;" x="308.523317" xlink:href="#m08398e187c" y="493.286013"/>
      </g>
     </g>
    </g>
    <g id="xtick_41">
     <g id="line2d_64">
      <g>
       <use style="fill:#262626;stroke:#262626;" x="323.806215" xlink:href="#m08398e187c" y="493.286013"/>
      </g>
     </g>
    </g>
    <g id="xtick_42">
     <g id="line2d_65">
      <g>
       <use style="fill:#262626;stroke:#262626;" x="339.089112" xlink:href="#m08398e187c" y="493.286013"/>
      </g>
     </g>
    </g>
    <g id="xtick_43">
     <g id="line2d_66">
      <g>
       <use style="fill:#262626;stroke:#262626;" x="354.37201" xlink:href="#m08398e187c" y="493.286013"/>
      </g>
     </g>
    </g>
    <g id="xtick_44">
     <g id="line2d_67">
      <g>
       <use style="fill:#262626;stroke:#262626;" x="369.654908" xlink:href="#m08398e187c" y="493.286013"/>
      </g>
     </g>
    </g>
    <g id="xtick_45">
     <g id="line2d_68">
      <g>
       <use style="fill:#262626;stroke:#262626;" x="384.937806" xlink:href="#m08398e187c" y="493.286013"/>
      </g>
     </g>
    </g>
    <g id="xtick_46">
     <g id="line2d_69">
      <g>
       <use style="fill:#262626;stroke:#262626;" x="400.220703" xlink:href="#m08398e187c" y="493.286013"/>
      </g>
     </g>
    </g>
    <g id="xtick_47">
     <g id="line2d_70">
      <g>
       <use style="fill:#262626;stroke:#262626;" x="415.503601" xlink:href="#m08398e187c" y="493.286013"/>
      </g>
     </g>
    </g>
    <g id="xtick_48">
     <g id="line2d_71">
      <g>
       <use style="fill:#262626;stroke:#262626;" x="430.786499" xlink:href="#m08398e187c" y="493.286013"/>
      </g>
     </g>
    </g>
    <g id="xtick_49">
     <g id="line2d_72">
      <g>
       <use style="fill:#262626;stroke:#262626;" x="446.069397" xlink:href="#m08398e187c" y="493.286013"/>
      </g>
     </g>
    </g>
    <g id="xtick_50">
     <g id="line2d_73">
      <g>
       <use style="fill:#262626;stroke:#262626;" x="461.352294" xlink:href="#m08398e187c" y="493.286013"/>
      </g>
     </g>
    </g>
    <g id="xtick_51">
     <g id="line2d_74">
      <g>
       <use style="fill:#262626;stroke:#262626;" x="476.635192" xlink:href="#m08398e187c" y="493.286013"/>
      </g>
     </g>
    </g>
    <g id="xtick_52">
     <g id="line2d_75">
      <g>
       <use style="fill:#262626;stroke:#262626;" x="491.91809" xlink:href="#m08398e187c" y="493.286013"/>
      </g>
     </g>
    </g>
    <g id="xtick_53">
     <g id="line2d_76">
      <g>
       <use style="fill:#262626;stroke:#262626;" x="507.200988" xlink:href="#m08398e187c" y="493.286013"/>
      </g>
     </g>
    </g>
    <g id="xtick_54">
     <g id="line2d_77">
      <g>
       <use style="fill:#262626;stroke:#262626;" x="522.483885" xlink:href="#m08398e187c" y="493.286013"/>
      </g>
     </g>
    </g>
    <g id="xtick_55">
     <g id="line2d_78">
      <g>
       <use style="fill:#262626;stroke:#262626;" x="537.766783" xlink:href="#m08398e187c" y="493.286013"/>
      </g>
     </g>
    </g>
    <g id="xtick_56">
     <g id="line2d_79">
      <g>
       <use style="fill:#262626;stroke:#262626;" x="553.049681" xlink:href="#m08398e187c" y="493.286013"/>
      </g>
     </g>
    </g>
    <g id="xtick_57">
     <g id="line2d_80">
      <g>
       <use style="fill:#262626;stroke:#262626;" x="568.332579" xlink:href="#m08398e187c" y="493.286013"/>
      </g>
     </g>
    </g>
    <g id="xtick_58">
     <g id="line2d_81">
      <g>
       <use style="fill:#262626;stroke:#262626;" x="583.615477" xlink:href="#m08398e187c" y="493.286013"/>
      </g>
     </g>
    </g>
    <g id="xtick_59">
     <g id="line2d_82">
      <g>
       <use style="fill:#262626;stroke:#262626;" x="598.898374" xlink:href="#m08398e187c" y="493.286013"/>
      </g>
     </g>
    </g>
    <g id="xtick_60">
     <g id="line2d_83">
      <g>
       <use style="fill:#262626;stroke:#262626;" x="614.181272" xlink:href="#m08398e187c" y="493.286013"/>
      </g>
     </g>
    </g>
    <g id="xtick_61">
     <g id="line2d_84">
      <g>
       <use style="fill:#262626;stroke:#262626;" x="629.46417" xlink:href="#m08398e187c" y="493.286013"/>
      </g>
     </g>
    </g>
    <g id="xtick_62">
     <g id="line2d_85">
      <g>
       <use style="fill:#262626;stroke:#262626;" x="644.747068" xlink:href="#m08398e187c" y="493.286013"/>
      </g>
     </g>
    </g>
    <g id="xtick_63">
     <g id="line2d_86">
      <g>
       <use style="fill:#262626;stroke:#262626;" x="660.029965" xlink:href="#m08398e187c" y="493.286013"/>
      </g>
     </g>
    </g>
    <g id="xtick_64">
     <g id="line2d_87">
      <g>
       <use style="fill:#262626;stroke:#262626;" x="675.312863" xlink:href="#m08398e187c" y="493.286013"/>
      </g>
     </g>
    </g>
    <g id="xtick_65">
     <g id="line2d_88">
      <g>
       <use style="fill:#262626;stroke:#262626;" x="690.595761" xlink:href="#m08398e187c" y="493.286013"/>
      </g>
     </g>
    </g>
    <g id="xtick_66">
     <g id="line2d_89">
      <g>
       <use style="fill:#262626;stroke:#262626;" x="705.878659" xlink:href="#m08398e187c" y="493.286013"/>
      </g>
     </g>
    </g>
    <g id="xtick_67">
     <g id="line2d_90">
      <g>
       <use style="fill:#262626;stroke:#262626;" x="721.161556" xlink:href="#m08398e187c" y="493.286013"/>
      </g>
     </g>
    </g>
    <g id="xtick_68">
     <g id="line2d_91">
      <g>
       <use style="fill:#262626;stroke:#262626;" x="736.444454" xlink:href="#m08398e187c" y="493.286013"/>
      </g>
     </g>
    </g>
    <g id="xtick_69">
     <g id="line2d_92">
      <g>
       <use style="fill:#262626;stroke:#262626;" x="751.727352" xlink:href="#m08398e187c" y="493.286013"/>
      </g>
     </g>
    </g>
    <g id="xtick_70">
     <g id="line2d_93">
      <g>
       <use style="fill:#262626;stroke:#262626;" x="767.01025" xlink:href="#m08398e187c" y="493.286013"/>
      </g>
     </g>
    </g>
    <g id="xtick_71">
     <g id="line2d_94">
      <g>
       <use style="fill:#262626;stroke:#262626;" x="782.293147" xlink:href="#m08398e187c" y="493.286013"/>
      </g>
     </g>
    </g>
    <g id="text_24">
     <!-- Дата -->
     <g style="fill:#262626;" transform="translate(407.6088 567.966863)scale(0.12 -0.12)">
      <defs>
       <path d="M 1459 531 
L 3522 531 
L 3522 4134 
L 2006 4134 
L 2006 3472 
Q 2006 1913 1656 878 
Q 1584 666 1459 531 
z
M 538 531 
Q 956 728 1075 1103 
Q 1378 2066 1378 3784 
L 1378 4666 
L 4153 4666 
L 4153 531 
L 4684 531 
L 4684 -1003 
L 4153 -1003 
L 4153 0 
L 847 0 
L 847 -1003 
L 316 -1003 
L 316 531 
L 538 531 
z
" id="DejaVuSans-414" transform="scale(0.015625)"/>
       <path d="M 2194 1759 
Q 1497 1759 1228 1600 
Q 959 1441 959 1056 
Q 959 750 1161 570 
Q 1363 391 1709 391 
Q 2188 391 2477 730 
Q 2766 1069 2766 1631 
L 2766 1759 
L 2194 1759 
z
M 3341 1997 
L 3341 0 
L 2766 0 
L 2766 531 
Q 2569 213 2275 61 
Q 1981 -91 1556 -91 
Q 1019 -91 701 211 
Q 384 513 384 1019 
Q 384 1609 779 1909 
Q 1175 2209 1959 2209 
L 2766 2209 
L 2766 2266 
Q 2766 2663 2505 2880 
Q 2244 3097 1772 3097 
Q 1472 3097 1187 3025 
Q 903 2953 641 2809 
L 641 3341 
Q 956 3463 1253 3523 
Q 1550 3584 1831 3584 
Q 2591 3584 2966 3190 
Q 3341 2797 3341 1997 
z
" id="DejaVuSans-430" transform="scale(0.015625)"/>
       <path d="M 188 3500 
L 3541 3500 
L 3541 3041 
L 2147 3041 
L 2147 0 
L 1581 0 
L 1581 3041 
L 188 3041 
L 188 3500 
z
" id="DejaVuSans-442" transform="scale(0.015625)"/>
      </defs>
      <use xlink:href="#DejaVuSans-414"/>
      <use x="78.125" xlink:href="#DejaVuSans-430"/>
      <use x="139.404297" xlink:href="#DejaVuSans-442"/>
      <use x="197.65625" xlink:href="#DejaVuSans-430"/>
     </g>
    </g>
   </g>
   <g id="matplotlib.axis_2">
    <g id="ytick_1">
     <g id="line2d_95">
      <path clip-path="url(#p6757c44e23)" d="M 52.098125 472.752295 
L 794.191975 472.752295 
" style="fill:none;stroke:#cccccc;stroke-linecap:round;"/>
     </g>
     <g id="line2d_96">
      <defs>
       <path d="M 0 0 
L -6 0 
" id="m250c59d088" style="stroke:#262626;stroke-width:1.25;"/>
      </defs>
      <g>
       <use style="fill:#262626;stroke:#262626;stroke-width:1.25;" x="52.098125" xlink:href="#m250c59d088" y="472.752295"/>
      </g>
     </g>
     <g id="text_25">
      <!-- 0.0M -->
      <g style="fill:#262626;" transform="translate(15.61375 476.931436)scale(0.11 -0.11)">
       <defs>
        <path d="M 628 4666 
L 1569 4666 
L 2759 1491 
L 3956 4666 
L 4897 4666 
L 4897 0 
L 4281 0 
L 4281 4097 
L 3078 897 
L 2444 897 
L 1241 4097 
L 1241 0 
L 628 0 
L 628 4666 
z
" id="DejaVuSans-4d" transform="scale(0.015625)"/>
       </defs>
       <use xlink:href="#DejaVuSans-30"/>
       <use x="63.623047" xlink:href="#DejaVuSans-2e"/>
       <use x="95.410156" xlink:href="#DejaVuSans-30"/>
       <use x="159.033203" xlink:href="#DejaVuSans-4d"/>
      </g>
     </g>
    </g>
    <g id="ytick_2">
     <g id="line2d_97">
      <path clip-path="url(#p6757c44e23)" d="M 52.098125 400.227536 
L 794.191975 400.227536 
" style="fill:none;stroke:#cccccc;stroke-linecap:round;"/>
     </g>
     <g id="line2d_98">
      <g>
       <use style="fill:#262626;stroke:#262626;stroke-width:1.25;" x="52.098125" xlink:href="#m250c59d088" y="400.227536"/>
      </g>
     </g>
     <g id="text_26">
      <!-- 0.5M -->
      <g style="fill:#262626;" transform="translate(15.61375 404.406676)scale(0.11 -0.11)">
       <use xlink:href="#DejaVuSans-30"/>
       <use x="63.623047" xlink:href="#DejaVuSans-2e"/>
       <use x="95.410156" xlink:href="#DejaVuSans-35"/>
       <use x="159.033203" xlink:href="#DejaVuSans-4d"/>
      </g>
     </g>
    </g>
    <g id="ytick_3">
     <g id="line2d_99">
      <path clip-path="url(#p6757c44e23)" d="M 52.098125 327.702777 
L 794.191975 327.702777 
" style="fill:none;stroke:#cccccc;stroke-linecap:round;"/>
     </g>
     <g id="line2d_100">
      <g>
       <use style="fill:#262626;stroke:#262626;stroke-width:1.25;" x="52.098125" xlink:href="#m250c59d088" y="327.702777"/>
      </g>
     </g>
     <g id="text_27">
      <!-- 1.0M -->
      <g style="fill:#262626;" transform="translate(15.61375 331.881917)scale(0.11 -0.11)">
       <use xlink:href="#DejaVuSans-31"/>
       <use x="63.623047" xlink:href="#DejaVuSans-2e"/>
       <use x="95.410156" xlink:href="#DejaVuSans-30"/>
       <use x="159.033203" xlink:href="#DejaVuSans-4d"/>
      </g>
     </g>
    </g>
    <g id="ytick_4">
     <g id="line2d_101">
      <path clip-path="url(#p6757c44e23)" d="M 52.098125 255.178017 
L 794.191975 255.178017 
" style="fill:none;stroke:#cccccc;stroke-linecap:round;"/>
     </g>
     <g id="line2d_102">
      <g>
       <use style="fill:#262626;stroke:#262626;stroke-width:1.25;" x="52.098125" xlink:href="#m250c59d088" y="255.178017"/>
      </g>
     </g>
     <g id="text_28">
      <!-- 1.5M -->
      <g style="fill:#262626;" transform="translate(15.61375 259.357158)scale(0.11 -0.11)">
       <use xlink:href="#DejaVuSans-31"/>
       <use x="63.623047" xlink:href="#DejaVuSans-2e"/>
       <use x="95.410156" xlink:href="#DejaVuSans-35"/>
       <use x="159.033203" xlink:href="#DejaVuSans-4d"/>
      </g>
     </g>
    </g>
    <g id="ytick_5">
     <g id="line2d_103">
      <path clip-path="url(#p6757c44e23)" d="M 52.098125 182.653258 
L 794.191975 182.653258 
" style="fill:none;stroke:#cccccc;stroke-linecap:round;"/>
     </g>
     <g id="line2d_104">
      <g>
       <use style="fill:#262626;stroke:#262626;stroke-width:1.25;" x="52.098125" xlink:href="#m250c59d088" y="182.653258"/>
      </g>
     </g>
     <g id="text_29">
      <!-- 2.0M -->
      <g style="fill:#262626;" transform="translate(15.61375 186.832399)scale(0.11 -0.11)">
       <use xlink:href="#DejaVuSans-32"/>
       <use x="63.623047" xlink:href="#DejaVuSans-2e"/>
       <use x="95.410156" xlink:href="#DejaVuSans-30"/>
       <use x="159.033203" xlink:href="#DejaVuSans-4d"/>
      </g>
     </g>
    </g>
    <g id="ytick_6">
     <g id="line2d_105">
      <path clip-path="url(#p6757c44e23)" d="M 52.098125 110.128499 
L 794.191975 110.128499 
" style="fill:none;stroke:#cccccc;stroke-linecap:round;"/>
     </g>
     <g id="line2d_106">
      <g>
       <use style="fill:#262626;stroke:#262626;stroke-width:1.25;" x="52.098125" xlink:href="#m250c59d088" y="110.128499"/>
      </g>
     </g>
     <g id="text_30">
      <!-- 2.5M -->
      <g style="fill:#262626;" transform="translate(15.61375 114.307639)scale(0.11 -0.11)">
       <use xlink:href="#DejaVuSans-32"/>
       <use x="63.623047" xlink:href="#DejaVuSans-2e"/>
       <use x="95.410156" xlink:href="#DejaVuSans-35"/>
       <use x="159.033203" xlink:href="#DejaVuSans-4d"/>
      </g>
     </g>
    </g>
    <g id="ytick_7">
     <g id="line2d_107">
      <path clip-path="url(#p6757c44e23)" d="M 52.098125 37.603739 
L 794.191975 37.603739 
" style="fill:none;stroke:#cccccc;stroke-linecap:round;"/>
     </g>
     <g id="line2d_108">
      <g>
       <use style="fill:#262626;stroke:#262626;stroke-width:1.25;" x="52.098125" xlink:href="#m250c59d088" y="37.603739"/>
      </g>
     </g>
     <g id="text_31">
      <!-- 3.0M -->
      <g style="fill:#262626;" transform="translate(15.61375 41.78288)scale(0.11 -0.11)">
       <use xlink:href="#DejaVuSans-33"/>
       <use x="63.623047" xlink:href="#DejaVuSans-2e"/>
       <use x="95.410156" xlink:href="#DejaVuSans-30"/>
       <use x="159.033203" xlink:href="#DejaVuSans-4d"/>
      </g>
     </g>
    </g>
    <g id="text_32">
     <!-- Поставени дози -->
     <g style="fill:#262626;" transform="translate(9.118125 311.722069)rotate(-90)scale(0.12 -0.12)">
      <defs>
       <path d="M 4184 4666 
L 4184 0 
L 3553 0 
L 3553 4134 
L 1259 4134 
L 1259 0 
L 628 0 
L 628 4666 
L 4184 4666 
z
" id="DejaVuSans-41f" transform="scale(0.015625)"/>
       <path d="M 1959 3097 
Q 1497 3097 1228 2736 
Q 959 2375 959 1747 
Q 959 1119 1226 758 
Q 1494 397 1959 397 
Q 2419 397 2687 759 
Q 2956 1122 2956 1747 
Q 2956 2369 2687 2733 
Q 2419 3097 1959 3097 
z
M 1959 3584 
Q 2709 3584 3137 3096 
Q 3566 2609 3566 1747 
Q 3566 888 3137 398 
Q 2709 -91 1959 -91 
Q 1206 -91 779 398 
Q 353 888 353 1747 
Q 353 2609 779 3096 
Q 1206 3584 1959 3584 
z
" id="DejaVuSans-43e" transform="scale(0.015625)"/>
       <path d="M 3122 3366 
L 3122 2828 
Q 2878 2963 2633 3030 
Q 2388 3097 2138 3097 
Q 1578 3097 1268 2742 
Q 959 2388 959 1747 
Q 959 1106 1268 751 
Q 1578 397 2138 397 
Q 2388 397 2633 464 
Q 2878 531 3122 666 
L 3122 134 
Q 2881 22 2623 -34 
Q 2366 -91 2075 -91 
Q 1284 -91 818 406 
Q 353 903 353 1747 
Q 353 2603 823 3093 
Q 1294 3584 2113 3584 
Q 2378 3584 2631 3529 
Q 2884 3475 3122 3366 
z
" id="DejaVuSans-441" transform="scale(0.015625)"/>
       <path d="M 1156 1613 
L 1156 459 
L 1975 459 
Q 2369 459 2575 607 
Q 2781 756 2781 1038 
Q 2781 1319 2575 1466 
Q 2369 1613 1975 1613 
L 1156 1613 
z
M 1156 3041 
L 1156 2072 
L 1913 2072 
Q 2238 2072 2444 2201 
Q 2650 2331 2650 2563 
Q 2650 2794 2444 2917 
Q 2238 3041 1913 3041 
L 1156 3041 
z
M 581 3500 
L 1950 3500 
Q 2566 3500 2897 3275 
Q 3228 3050 3228 2634 
Q 3228 2313 3059 2123 
Q 2891 1934 2559 1888 
Q 2956 1813 3175 1575 
Q 3394 1338 3394 981 
Q 3394 513 3033 256 
Q 2672 0 2003 0 
L 581 0 
L 581 3500 
z
" id="DejaVuSans-432" transform="scale(0.015625)"/>
       <path d="M 3597 1894 
L 3597 1613 
L 953 1613 
Q 991 1019 1311 708 
Q 1631 397 2203 397 
Q 2534 397 2845 478 
Q 3156 559 3463 722 
L 3463 178 
Q 3153 47 2828 -22 
Q 2503 -91 2169 -91 
Q 1331 -91 842 396 
Q 353 884 353 1716 
Q 353 2575 817 3079 
Q 1281 3584 2069 3584 
Q 2775 3584 3186 3129 
Q 3597 2675 3597 1894 
z
M 3022 2063 
Q 3016 2534 2758 2815 
Q 2500 3097 2075 3097 
Q 1594 3097 1305 2825 
Q 1016 2553 972 2059 
L 3022 2063 
z
" id="DejaVuSans-435" transform="scale(0.015625)"/>
       <path d="M 581 3500 
L 1159 3500 
L 1159 2072 
L 3025 2072 
L 3025 3500 
L 3603 3500 
L 3603 0 
L 3025 0 
L 3025 1613 
L 1159 1613 
L 1159 0 
L 581 0 
L 581 3500 
z
" id="DejaVuSans-43d" transform="scale(0.015625)"/>
       <path d="M 3578 3500 
L 3578 0 
L 3006 0 
L 3006 2809 
L 1319 0 
L 581 0 
L 581 3500 
L 1153 3500 
L 1153 697 
L 2838 3500 
L 3578 3500 
z
" id="DejaVuSans-438" transform="scale(0.015625)"/>
       <path id="DejaVuSans-20" transform="scale(0.015625)"/>
       <path d="M 1384 459 
L 3053 459 
L 3053 3041 
L 1844 3041 
L 1844 2603 
Q 1844 1316 1475 628 
L 1384 459 
z
M 550 459 
Q 834 584 959 850 
Q 1266 1509 1266 2838 
L 1266 3500 
L 3631 3500 
L 3631 459 
L 4091 459 
L 4091 -884 
L 3631 -884 
L 3631 0 
L 794 0 
L 794 -884 
L 334 -884 
L 334 459 
L 550 459 
z
" id="DejaVuSans-434" transform="scale(0.015625)"/>
       <path d="M 2206 1888 
Q 2594 1813 2809 1584 
Q 3025 1356 3025 1019 
Q 3025 478 2622 193 
Q 2219 -91 1475 -91 
Q 1225 -91 961 -47 
Q 697 -3 416 84 
L 416 619 
Q 638 503 903 445 
Q 1169 388 1459 388 
Q 1931 388 2195 563 
Q 2459 738 2459 1019 
Q 2459 1294 2225 1461 
Q 1991 1628 1563 1628 
L 1100 1628 
L 1100 2103 
L 1584 2103 
Q 1947 2103 2158 2242 
Q 2369 2381 2369 2600 
Q 2369 2800 2151 2944 
Q 1934 3088 1563 3088 
Q 1341 3088 1089 3047 
Q 838 3006 534 2916 
L 534 3438 
Q 841 3513 1106 3550 
Q 1372 3588 1609 3588 
Q 2222 3588 2576 3342 
Q 2931 3097 2931 2656 
Q 2931 2366 2743 2164 
Q 2556 1963 2206 1888 
z
" id="DejaVuSans-437" transform="scale(0.015625)"/>
      </defs>
      <use xlink:href="#DejaVuSans-41f"/>
      <use x="75.195312" xlink:href="#DejaVuSans-43e"/>
      <use x="136.376953" xlink:href="#DejaVuSans-441"/>
      <use x="191.357422" xlink:href="#DejaVuSans-442"/>
      <use x="249.609375" xlink:href="#DejaVuSans-430"/>
      <use x="310.888672" xlink:href="#DejaVuSans-432"/>
      <use x="369.824219" xlink:href="#DejaVuSans-435"/>
      <use x="431.347656" xlink:href="#DejaVuSans-43d"/>
      <use x="496.728516" xlink:href="#DejaVuSans-438"/>
      <use x="561.71875" xlink:href="#DejaVuSans-20"/>
      <use x="593.505859" xlink:href="#DejaVuSans-434"/>
      <use x="662.646484" xlink:href="#DejaVuSans-43e"/>
      <use x="723.828125" xlink:href="#DejaVuSans-437"/>
      <use x="777.001953" xlink:href="#DejaVuSans-438"/>
     </g>
    </g>
   </g>
   <g id="line2d_109">
    <path clip-path="url(#p6757c44e23)" d="M 85.829664 472.187472 
L 90.196206 472.064905 
L 101.112561 471.962065 
L 107.662375 470.815159 
L 114.212188 470.698249 
L 118.57873 470.280941 
L 125.128544 470.093247 
L 127.311815 470.075696 
L 129.495086 469.903813 
L 133.861628 469.252685 
L 138.22817 468.966358 
L 144.777984 468.865258 
L 146.961255 468.528163 
L 149.144526 467.9777 
L 151.327797 467.293211 
L 153.511068 466.83355 
L 157.87761 466.787134 
L 160.060881 466.568254 
L 162.244152 466.092056 
L 166.610695 464.915995 
L 168.793966 464.504779 
L 173.160508 464.478961 
L 175.343779 464.210619 
L 179.710321 463.155384 
L 181.893592 462.435938 
L 184.076864 461.917966 
L 188.443406 461.817302 
L 190.626677 461.520241 
L 194.993219 460.28964 
L 197.17649 459.623283 
L 199.359761 457.628272 
L 201.543032 457.035309 
L 205.909575 453.74167 
L 208.092846 451.252185 
L 212.459388 445.40872 
L 214.642659 443.098517 
L 216.82593 442.326708 
L 219.009201 441.93725 
L 221.192472 440.328071 
L 223.375744 437.393284 
L 225.559015 436.755501 
L 227.742286 433.800117 
L 229.925557 431.490929 
L 232.108828 431.105967 
L 234.292099 430.886508 
L 236.47537 430.08859 
L 238.658641 428.925438 
L 240.841912 427.910962 
L 243.025183 425.691559 
L 245.208455 423.919924 
L 249.574997 423.598059 
L 251.758268 423.187859 
L 256.12481 421.883139 
L 258.308081 421.107124 
L 260.491352 420.139789 
L 262.674623 419.584829 
L 264.857895 419.242802 
L 267.041166 418.160008 
L 271.407708 414.542618 
L 275.77425 410.347931 
L 277.957521 409.777886 
L 280.140792 409.432233 
L 282.324063 408.125917 
L 291.057148 400.505306 
L 293.240419 399.926123 
L 295.42369 399.709709 
L 297.606961 398.769933 
L 299.790232 397.379489 
L 301.973503 395.375194 
L 304.156775 392.610115 
L 306.340046 390.451778 
L 308.523317 389.920027 
L 310.706588 389.687948 
L 312.889859 388.624735 
L 315.07313 387.10128 
L 321.622943 380.772189 
L 323.806215 380.324421 
L 325.989486 380.146445 
L 328.172757 379.124862 
L 330.356028 377.40646 
L 332.539299 374.626151 
L 334.72257 371.432741 
L 336.905841 368.760493 
L 339.089112 368.146934 
L 341.272383 367.846681 
L 343.455655 366.264191 
L 345.638926 363.834757 
L 347.822197 360.157026 
L 350.005468 356.252003 
L 352.188739 354.46978 
L 354.37201 353.63502 
L 356.555281 353.141126 
L 358.738552 351.852071 
L 360.921823 350.237235 
L 363.105094 345.525881 
L 365.288366 344.491678 
L 367.471637 338.962826 
L 369.654908 337.505368 
L 371.838179 336.686564 
L 374.02145 332.991427 
L 378.387992 322.515371 
L 380.571263 317.038301 
L 382.754534 312.21729 
L 384.937806 311.261269 
L 387.121077 310.769551 
L 389.304348 308.124428 
L 391.487619 304.342842 
L 393.67089 299.940734 
L 395.854161 294.97946 
L 398.037432 291.343649 
L 400.220703 290.422875 
L 402.403974 289.890833 
L 404.587246 289.140637 
L 406.770517 286.694812 
L 408.953788 283.669369 
L 413.32033 278.222034 
L 415.503601 277.195954 
L 417.686872 276.464179 
L 419.870143 274.625822 
L 422.053414 272.007968 
L 428.603228 262.307201 
L 430.786499 261.438209 
L 432.96977 260.363393 
L 435.153041 258.256838 
L 437.336312 255.100561 
L 441.702854 248.171545 
L 443.886126 245.199626 
L 446.069397 244.47902 
L 448.252668 244.005723 
L 450.435939 242.605415 
L 452.61921 240.36324 
L 456.985752 235.167566 
L 459.169023 232.958462 
L 463.535566 231.944711 
L 465.718837 230.7115 
L 467.902108 228.86618 
L 472.26865 224.788693 
L 474.451921 223.007485 
L 478.818463 222.162426 
L 481.001734 220.993472 
L 489.734819 213.794519 
L 491.91809 213.272631 
L 494.101361 212.959759 
L 496.284632 211.826342 
L 498.467903 210.129118 
L 502.834445 206.48765 
L 505.017717 204.813198 
L 507.200988 204.339612 
L 509.384259 204.036023 
L 511.56753 202.816156 
L 518.117343 197.655149 
L 520.300614 196.107036 
L 524.667157 195.424433 
L 526.850428 194.297543 
L 529.033699 192.849804 
L 535.583512 188.084347 
L 537.766783 187.570872 
L 539.950054 187.281063 
L 542.133325 186.043355 
L 550.86641 179.035288 
L 553.049681 178.572145 
L 555.232952 178.258113 
L 557.416223 177.052751 
L 566.149308 169.885854 
L 568.332579 169.410382 
L 570.51585 169.072272 
L 572.699121 167.769147 
L 579.248934 162.540837 
L 581.432205 161.021443 
L 583.615477 160.51319 
L 585.798748 160.196111 
L 587.982019 158.871084 
L 596.715103 151.778888 
L 598.898374 151.241624 
L 601.081645 150.895101 
L 603.264917 149.462157 
L 609.81473 143.524845 
L 611.998001 141.713757 
L 614.181272 141.143712 
L 616.364543 140.775286 
L 618.547814 139.266336 
L 620.731085 137.310053 
L 627.280899 132.02735 
L 629.46417 131.538533 
L 633.830712 130.987055 
L 636.013983 129.338277 
L 640.380525 125.804 
L 642.563796 124.204539 
L 644.747068 123.758802 
L 646.930339 123.475085 
L 649.11361 122.308307 
L 655.663423 117.60116 
L 657.846694 116.085973 
L 660.029965 115.644877 
L 662.213236 115.398728 
L 664.396508 114.304184 
L 666.579779 112.844406 
L 668.76305 112.574904 
L 670.946321 110.915392 
L 673.129592 109.463882 
L 675.312863 109.10619 
L 677.496134 108.886875 
L 679.679405 108.131312 
L 681.862676 106.975412 
L 686.229219 104.377285 
L 688.41249 103.352946 
L 690.595761 103.021798 
L 692.779032 102.835554 
L 694.962303 102.054462 
L 703.695388 97.776082 
L 705.878659 97.437391 
L 708.06193 97.260576 
L 710.245201 96.511395 
L 712.428472 95.39901 
L 714.611743 94.594275 
L 718.978285 92.173834 
L 721.161556 91.749564 
L 723.344828 91.489926 
L 725.528099 90.590474 
L 727.71137 89.272119 
L 729.894641 87.316416 
L 732.077912 83.220072 
L 734.261183 79.733517 
L 736.444454 78.038614 
L 738.627725 77.000784 
L 740.810996 74.801833 
L 742.994267 70.159379 
L 745.177539 66.47367 
L 749.544081 59.725387 
L 751.727352 58.603429 
L 753.910623 57.882387 
L 756.093894 55.775398 
L 760.460436 50.216665 
L 760.460436 50.216665 
" style="fill:none;stroke:#0000ff;stroke-linecap:round;stroke-width:1.5;"/>
   </g>
   <g id="line2d_110"/>
   <g id="patch_3">
    <path d="M 52.098125 493.286013 
L 52.098125 29.118125 
" style="fill:none;stroke:#262626;stroke-linecap:square;stroke-linejoin:miter;stroke-width:1.25;"/>
   </g>
   <g id="patch_4">
    <path d="M 794.191975 493.286013 
L 794.191975 29.118125 
" style="fill:none;stroke:#262626;stroke-linecap:square;stroke-linejoin:miter;stroke-width:1.25;"/>
   </g>
   <g id="patch_5">
    <path d="M 52.098125 493.286013 
L 794.191975 493.286013 
" style="fill:none;stroke:#262626;stroke-linecap:square;stroke-linejoin:miter;stroke-width:1.25;"/>
   </g>
   <g id="patch_6">
    <path d="M 52.098125 29.118125 
L 794.191975 29.118125 
" style="fill:none;stroke:#262626;stroke-linecap:square;stroke-linejoin:miter;stroke-width:1.25;"/>
   </g>
   <g id="text_33">
    <!-- Последна актуализация: 04.11.2021 -->
    <g style="fill:#262626;" transform="translate(327.213126 22.155607)scale(0.09996 -0.09996)">
     <defs>
      <path d="M 238 0 
L 238 478 
Q 806 566 981 959 
Q 1194 1513 1194 2928 
L 1194 3500 
L 3559 3500 
L 3559 0 
L 2984 0 
L 2984 3041 
L 1769 3041 
L 1769 2694 
Q 1769 1344 1494 738 
Q 1200 91 238 0 
z
" id="DejaVuSans-43b" transform="scale(0.015625)"/>
      <path d="M 581 3500 
L 1153 3500 
L 1153 1856 
L 2775 3500 
L 3481 3500 
L 2144 2147 
L 3653 0 
L 3009 0 
L 1769 1766 
L 1153 1141 
L 1153 0 
L 581 0 
L 581 3500 
z
" id="DejaVuSans-43a" transform="scale(0.015625)"/>
      <path d="M 2059 -325 
Q 1816 -950 1584 -1140 
Q 1353 -1331 966 -1331 
L 506 -1331 
L 506 -850 
L 844 -850 
Q 1081 -850 1212 -737 
Q 1344 -625 1503 -206 
L 1606 56 
L 191 3500 
L 800 3500 
L 1894 763 
L 2988 3500 
L 3597 3500 
L 2059 -325 
z
" id="DejaVuSans-443" transform="scale(0.015625)"/>
      <path d="M 3603 0 
L 581 0 
L 581 3500 
L 1159 3500 
L 1159 459 
L 3025 459 
L 3025 3500 
L 3603 3500 
L 3603 459 
L 4063 459 
L 4063 -884 
L 3603 -884 
L 3603 0 
z
" id="DejaVuSans-446" transform="scale(0.015625)"/>
      <path d="M 1181 2491 
Q 1181 2231 1381 2084 
Q 1581 1938 1953 1938 
L 2728 1938 
L 2728 3041 
L 1953 3041 
Q 1581 3041 1381 2897 
Q 1181 2753 1181 2491 
z
M 363 0 
L 1431 1534 
Q 1069 1616 828 1830 
Q 588 2044 588 2491 
Q 588 2997 923 3248 
Q 1259 3500 1938 3500 
L 3306 3500 
L 3306 0 
L 2728 0 
L 2728 1478 
L 2013 1478 
L 981 0 
L 363 0 
z
" id="DejaVuSans-44f" transform="scale(0.015625)"/>
      <path d="M 750 794 
L 1409 794 
L 1409 0 
L 750 0 
L 750 794 
z
M 750 3309 
L 1409 3309 
L 1409 2516 
L 750 2516 
L 750 3309 
z
" id="DejaVuSans-3a" transform="scale(0.015625)"/>
     </defs>
     <use xlink:href="#DejaVuSans-41f"/>
     <use x="75.195312" xlink:href="#DejaVuSans-43e"/>
     <use x="136.376953" xlink:href="#DejaVuSans-441"/>
     <use x="191.357422" xlink:href="#DejaVuSans-43b"/>
     <use x="255.273438" xlink:href="#DejaVuSans-435"/>
     <use x="316.796875" xlink:href="#DejaVuSans-434"/>
     <use x="385.9375" xlink:href="#DejaVuSans-43d"/>
     <use x="451.318359" xlink:href="#DejaVuSans-430"/>
     <use x="512.597656" xlink:href="#DejaVuSans-20"/>
     <use x="544.384766" xlink:href="#DejaVuSans-430"/>
     <use x="605.664062" xlink:href="#DejaVuSans-43a"/>
     <use x="666.064453" xlink:href="#DejaVuSans-442"/>
     <use x="724.316406" xlink:href="#DejaVuSans-443"/>
     <use x="783.496094" xlink:href="#DejaVuSans-430"/>
     <use x="844.775391" xlink:href="#DejaVuSans-43b"/>
     <use x="908.691406" xlink:href="#DejaVuSans-438"/>
     <use x="973.681641" xlink:href="#DejaVuSans-437"/>
     <use x="1026.855469" xlink:href="#DejaVuSans-430"/>
     <use x="1088.134766" xlink:href="#DejaVuSans-446"/>
     <use x="1156.201172" xlink:href="#DejaVuSans-438"/>
     <use x="1221.191406" xlink:href="#DejaVuSans-44f"/>
     <use x="1281.347656" xlink:href="#DejaVuSans-3a"/>
     <use x="1315.039062" xlink:href="#DejaVuSans-20"/>
     <use x="1346.826172" xlink:href="#DejaVuSans-30"/>
     <use x="1410.449219" xlink:href="#DejaVuSans-34"/>
     <use x="1474.072266" xlink:href="#DejaVuSans-2e"/>
     <use x="1505.859375" xlink:href="#DejaVuSans-31"/>
     <use x="1569.482422" xlink:href="#DejaVuSans-31"/>
     <use x="1633.105469" xlink:href="#DejaVuSans-2e"/>
     <use x="1664.892578" xlink:href="#DejaVuSans-32"/>
     <use x="1728.515625" xlink:href="#DejaVuSans-30"/>
     <use x="1792.138672" xlink:href="#DejaVuSans-32"/>
     <use x="1855.761719" xlink:href="#DejaVuSans-31"/>
    </g>
   </g>
   <g id="text_34">
    <!-- Последна актуализация: 04.11.2021 -->
    <g style="fill:#262626;" transform="translate(327.213126 22.155607)scale(0.09996 -0.09996)">
     <use xlink:href="#DejaVuSans-41f"/>
     <use x="75.195312" xlink:href="#DejaVuSans-43e"/>
     <use x="136.376953" xlink:href="#DejaVuSans-441"/>
     <use x="191.357422" xlink:href="#DejaVuSans-43b"/>
     <use x="255.273438" xlink:href="#DejaVuSans-435"/>
     <use x="316.796875" xlink:href="#DejaVuSans-434"/>
     <use x="385.9375" xlink:href="#DejaVuSans-43d"/>
     <use x="451.318359" xlink:href="#DejaVuSans-430"/>
     <use x="512.597656" xlink:href="#DejaVuSans-20"/>
     <use x="544.384766" xlink:href="#DejaVuSans-430"/>
     <use x="605.664062" xlink:href="#DejaVuSans-43a"/>
     <use x="666.064453" xlink:href="#DejaVuSans-442"/>
     <use x="724.316406" xlink:href="#DejaVuSans-443"/>
     <use x="783.496094" xlink:href="#DejaVuSans-430"/>
     <use x="844.775391" xlink:href="#DejaVuSans-43b"/>
     <use x="908.691406" xlink:href="#DejaVuSans-438"/>
     <use x="973.681641" xlink:href="#DejaVuSans-437"/>
     <use x="1026.855469" xlink:href="#DejaVuSans-430"/>
     <use x="1088.134766" xlink:href="#DejaVuSans-446"/>
     <use x="1156.201172" xlink:href="#DejaVuSans-438"/>
     <use x="1221.191406" xlink:href="#DejaVuSans-44f"/>
     <use x="1281.347656" xlink:href="#DejaVuSans-3a"/>
     <use x="1315.039062" xlink:href="#DejaVuSans-20"/>
     <use x="1346.826172" xlink:href="#DejaVuSans-30"/>
     <use x="1410.449219" xlink:href="#DejaVuSans-34"/>
     <use x="1474.072266" xlink:href="#DejaVuSans-2e"/>
     <use x="1505.859375" xlink:href="#DejaVuSans-31"/>
     <use x="1569.482422" xlink:href="#DejaVuSans-31"/>
     <use x="1633.105469" xlink:href="#DejaVuSans-2e"/>
     <use x="1664.892578" xlink:href="#DejaVuSans-32"/>
     <use x="1728.515625" xlink:href="#DejaVuSans-30"/>
     <use x="1792.138672" xlink:href="#DejaVuSans-32"/>
     <use x="1855.761719" xlink:href="#DejaVuSans-31"/>
    </g>
   </g>
   <g id="text_35">
    <!-- Хронология на ваксинацията по дни -->
    <g style="fill:#262626;" transform="translate(296.210362 9.118125)scale(0.12 -0.12)">
     <defs>
      <path d="M 3188 2381 
L 4806 0 
L 3553 0 
L 2463 1594 
L 1381 0 
L 122 0 
L 1741 2381 
L 184 4666 
L 1441 4666 
L 2463 3163 
L 3481 4666 
L 4744 4666 
L 3188 2381 
z
" id="DejaVuSans-Bold-425" transform="scale(0.015625)"/>
      <path d="M 1656 506 
L 1656 -1331 
L 538 -1331 
L 538 3500 
L 1656 3500 
L 1656 2988 
Q 1888 3294 2169 3439 
Q 2450 3584 2816 3584 
Q 3463 3584 3878 3070 
Q 4294 2556 4294 1747 
Q 4294 938 3878 423 
Q 3463 -91 2816 -91 
Q 2450 -91 2169 54 
Q 1888 200 1656 506 
z
M 2400 2772 
Q 2041 2772 1848 2508 
Q 1656 2244 1656 1747 
Q 1656 1250 1848 986 
Q 2041 722 2400 722 
Q 2759 722 2948 984 
Q 3138 1247 3138 1747 
Q 3138 2247 2948 2509 
Q 2759 2772 2400 2772 
z
" id="DejaVuSans-Bold-440" transform="scale(0.015625)"/>
      <path d="M 2203 2784 
Q 1831 2784 1636 2517 
Q 1441 2250 1441 1747 
Q 1441 1244 1636 976 
Q 1831 709 2203 709 
Q 2569 709 2762 976 
Q 2956 1244 2956 1747 
Q 2956 2250 2762 2517 
Q 2569 2784 2203 2784 
z
M 2203 3584 
Q 3106 3584 3614 3096 
Q 4122 2609 4122 1747 
Q 4122 884 3614 396 
Q 3106 -91 2203 -91 
Q 1297 -91 786 396 
Q 275 884 275 1747 
Q 275 2609 786 3096 
Q 1297 3584 2203 3584 
z
" id="DejaVuSans-Bold-43e" transform="scale(0.015625)"/>
      <path d="M 538 3500 
L 1656 3500 
L 1656 2169 
L 2766 2169 
L 2766 3500 
L 3884 3500 
L 3884 0 
L 2766 0 
L 2766 1478 
L 1656 1478 
L 1656 0 
L 538 0 
L 538 3500 
z
" id="DejaVuSans-Bold-43d" transform="scale(0.015625)"/>
      <path d="M 353 0 
L 353 800 
Q 906 913 1031 1278 
Q 1125 1556 1125 2928 
L 1125 3500 
L 4150 3500 
L 4150 0 
L 3031 0 
L 3031 2700 
L 2244 2700 
L 2244 2584 
Q 2244 1213 2028 813 
Q 1591 0 353 0 
z
" id="DejaVuSans-Bold-43b" transform="scale(0.015625)"/>
      <path d="M 538 0 
L 538 3500 
L 3191 3500 
L 3191 2809 
L 1656 2809 
L 1656 0 
L 538 0 
z
" id="DejaVuSans-Bold-433" transform="scale(0.015625)"/>
      <path d="M 3947 3500 
L 3947 0 
L 2828 0 
L 2828 1863 
L 1700 0 
L 538 0 
L 538 3500 
L 1656 3500 
L 1656 1638 
L 2784 3500 
L 3947 3500 
z
" id="DejaVuSans-Bold-438" transform="scale(0.015625)"/>
      <path d="M 1528 2394 
Q 1528 2169 1651 2069 
Q 1775 1969 2059 1969 
L 2463 1969 
L 2463 2816 
L 2059 2816 
Q 1775 2816 1651 2719 
Q 1528 2622 1528 2394 
z
M 197 0 
L 1113 1497 
Q 847 1650 650 1917 
Q 453 2184 453 2516 
Q 453 3013 789 3256 
Q 1125 3500 1878 3500 
L 3581 3500 
L 3581 0 
L 2463 0 
L 2463 1278 
L 2069 1278 
L 1288 0 
L 197 0 
z
" id="DejaVuSans-Bold-44f" transform="scale(0.015625)"/>
      <path id="DejaVuSans-Bold-20" transform="scale(0.015625)"/>
      <path d="M 2106 1575 
Q 1756 1575 1579 1456 
Q 1403 1338 1403 1106 
Q 1403 894 1545 773 
Q 1688 653 1941 653 
Q 2256 653 2472 879 
Q 2688 1106 2688 1447 
L 2688 1575 
L 2106 1575 
z
M 3816 1997 
L 3816 0 
L 2688 0 
L 2688 519 
Q 2463 200 2181 54 
Q 1900 -91 1497 -91 
Q 953 -91 614 226 
Q 275 544 275 1050 
Q 275 1666 698 1953 
Q 1122 2241 2028 2241 
L 2688 2241 
L 2688 2328 
Q 2688 2594 2478 2717 
Q 2269 2841 1825 2841 
Q 1466 2841 1156 2769 
Q 847 2697 581 2553 
L 581 3406 
Q 941 3494 1303 3539 
Q 1666 3584 2028 3584 
Q 2975 3584 3395 3211 
Q 3816 2838 3816 1997 
z
" id="DejaVuSans-Bold-430" transform="scale(0.015625)"/>
      <path d="M 2184 2181 
Q 2378 2181 2478 2261 
Q 2578 2341 2578 2497 
Q 2578 2653 2478 2731 
Q 2378 2809 2184 2809 
L 1656 2809 
L 1656 2181 
L 2184 2181 
z
M 2222 700 
Q 2469 700 2594 798 
Q 2719 897 2719 1094 
Q 2719 1288 2594 1384 
Q 2469 1481 2222 1481 
L 1656 1481 
L 1656 700 
L 2222 700 
z
M 538 3500 
L 2141 3500 
Q 2919 3500 3267 3279 
Q 3616 3059 3616 2575 
Q 3616 2319 3487 2139 
Q 3359 1959 3119 1872 
Q 3428 1788 3598 1561 
Q 3769 1334 3769 1003 
Q 3769 497 3403 248 
Q 3038 0 2294 0 
L 538 0 
L 538 3500 
z
" id="DejaVuSans-Bold-432" transform="scale(0.015625)"/>
      <path d="M 538 3500 
L 1656 3500 
L 1656 2316 
L 2903 3500 
L 4128 3500 
L 2634 2078 
L 4250 0 
L 3094 0 
L 1972 1447 
L 1656 1147 
L 1656 0 
L 538 0 
L 538 3500 
z
" id="DejaVuSans-Bold-43a" transform="scale(0.015625)"/>
      <path d="M 3366 3391 
L 3366 2478 
Q 3138 2634 2908 2709 
Q 2678 2784 2431 2784 
Q 1963 2784 1702 2511 
Q 1441 2238 1441 1747 
Q 1441 1256 1702 982 
Q 1963 709 2431 709 
Q 2694 709 2930 787 
Q 3166 866 3366 1019 
L 3366 103 
Q 3103 6 2833 -42 
Q 2563 -91 2291 -91 
Q 1344 -91 809 395 
Q 275 881 275 1747 
Q 275 2613 809 3098 
Q 1344 3584 2291 3584 
Q 2566 3584 2833 3536 
Q 3100 3488 3366 3391 
z
" id="DejaVuSans-Bold-441" transform="scale(0.015625)"/>
      <path d="M 3666 -884 
L 3666 0 
L 538 0 
L 538 3500 
L 1656 3500 
L 1656 800 
L 2766 800 
L 2766 3500 
L 3884 3500 
L 3884 800 
L 4466 800 
L 4466 -884 
L 3666 -884 
z
" id="DejaVuSans-Bold-446" transform="scale(0.015625)"/>
      <path d="M 25 3500 
L 3681 3500 
L 3681 2809 
L 2413 2809 
L 2413 0 
L 1297 0 
L 1297 2809 
L 25 2809 
L 25 3500 
z
" id="DejaVuSans-Bold-442" transform="scale(0.015625)"/>
      <path d="M 3884 3500 
L 3884 0 
L 2766 0 
L 2766 2700 
L 1656 2700 
L 1656 0 
L 538 0 
L 538 3500 
L 3884 3500 
z
" id="DejaVuSans-Bold-43f" transform="scale(0.015625)"/>
      <path d="M 547 800 
Q 903 919 1053 1314 
Q 1203 1709 1203 2838 
L 1203 3500 
L 4228 3500 
L 4228 800 
L 4809 800 
L 4809 -884 
L 4009 -884 
L 4009 0 
L 1159 0 
L 1159 -884 
L 359 -884 
L 359 800 
L 547 800 
z
M 3109 2700 
L 2322 2700 
L 2322 2603 
Q 2322 1456 2063 800 
L 3109 800 
L 3109 2700 
z
" id="DejaVuSans-Bold-434" transform="scale(0.015625)"/>
     </defs>
     <use xlink:href="#DejaVuSans-Bold-425"/>
     <use x="77.099609" xlink:href="#DejaVuSans-Bold-440"/>
     <use x="148.681641" xlink:href="#DejaVuSans-Bold-43e"/>
     <use x="217.382812" xlink:href="#DejaVuSans-Bold-43d"/>
     <use x="286.474609" xlink:href="#DejaVuSans-Bold-43e"/>
     <use x="355.175781" xlink:href="#DejaVuSans-Bold-43b"/>
     <use x="428.417969" xlink:href="#DejaVuSans-Bold-43e"/>
     <use x="497.119141" xlink:href="#DejaVuSans-Bold-433"/>
     <use x="549.365234" xlink:href="#DejaVuSans-Bold-438"/>
     <use x="619.433594" xlink:href="#DejaVuSans-Bold-44f"/>
     <use x="683.642578" xlink:href="#DejaVuSans-Bold-20"/>
     <use x="718.457031" xlink:href="#DejaVuSans-Bold-43d"/>
     <use x="787.548828" xlink:href="#DejaVuSans-Bold-430"/>
     <use x="855.029297" xlink:href="#DejaVuSans-Bold-20"/>
     <use x="889.84375" xlink:href="#DejaVuSans-Bold-432"/>
     <use x="953.125" xlink:href="#DejaVuSans-Bold-430"/>
     <use x="1020.605469" xlink:href="#DejaVuSans-Bold-43a"/>
     <use x="1088.476562" xlink:href="#DejaVuSans-Bold-441"/>
     <use x="1147.753906" xlink:href="#DejaVuSans-Bold-438"/>
     <use x="1217.822266" xlink:href="#DejaVuSans-Bold-43d"/>
     <use x="1286.914062" xlink:href="#DejaVuSans-Bold-430"/>
     <use x="1354.394531" xlink:href="#DejaVuSans-Bold-446"/>
     <use x="1428.515625" xlink:href="#DejaVuSans-Bold-438"/>
     <use x="1498.583984" xlink:href="#DejaVuSans-Bold-44f"/>
     <use x="1562.792969" xlink:href="#DejaVuSans-Bold-442"/>
     <use x="1620.751953" xlink:href="#DejaVuSans-Bold-430"/>
     <use x="1688.232422" xlink:href="#DejaVuSans-Bold-20"/>
     <use x="1723.046875" xlink:href="#DejaVuSans-Bold-43f"/>
     <use x="1792.138672" xlink:href="#DejaVuSans-Bold-43e"/>
     <use x="1860.839844" xlink:href="#DejaVuSans-Bold-20"/>
     <use x="1895.654297" xlink:href="#DejaVuSans-Bold-434"/>
     <use x="1976.416016" xlink:href="#DejaVuSans-Bold-43d"/>
     <use x="2045.507812" xlink:href="#DejaVuSans-Bold-438"/>
    </g>
   </g>
  </g>
  <g id="axes_2">
   <g id="matplotlib.axis_3">
    <g id="ytick_8">
     <g id="line2d_111">
      <defs>
       <path d="M 0 0 
L 6 0 
" id="mb3834db2f6" style="stroke:#262626;stroke-width:1.25;"/>
      </defs>
      <g>
       <use style="fill:#262626;stroke:#262626;stroke-width:1.25;" x="794.191975" xlink:href="#mb3834db2f6" y="472.187472"/>
      </g>
     </g>
     <g id="text_36">
      <!-- 0 -->
      <g style="fill:#262626;" transform="translate(803.691975 476.366613)scale(0.11 -0.11)">
       <use xlink:href="#DejaVuSans-30"/>
      </g>
     </g>
    </g>
    <g id="ytick_9">
     <g id="line2d_112">
      <g>
       <use style="fill:#262626;stroke:#262626;stroke-width:1.25;" x="794.191975" xlink:href="#mb3834db2f6" y="416.835424"/>
      </g>
     </g>
     <g id="text_37">
      <!-- 5000 -->
      <g style="fill:#262626;" transform="translate(803.691975 421.014564)scale(0.11 -0.11)">
       <use xlink:href="#DejaVuSans-35"/>
       <use x="63.623047" xlink:href="#DejaVuSans-30"/>
       <use x="127.246094" xlink:href="#DejaVuSans-30"/>
       <use x="190.869141" xlink:href="#DejaVuSans-30"/>
      </g>
     </g>
    </g>
    <g id="ytick_10">
     <g id="line2d_113">
      <g>
       <use style="fill:#262626;stroke:#262626;stroke-width:1.25;" x="794.191975" xlink:href="#mb3834db2f6" y="361.483375"/>
      </g>
     </g>
     <g id="text_38">
      <!-- 10000 -->
      <g style="fill:#262626;" transform="translate(803.691975 365.662516)scale(0.11 -0.11)">
       <use xlink:href="#DejaVuSans-31"/>
       <use x="63.623047" xlink:href="#DejaVuSans-30"/>
       <use x="127.246094" xlink:href="#DejaVuSans-30"/>
       <use x="190.869141" xlink:href="#DejaVuSans-30"/>
       <use x="254.492188" xlink:href="#DejaVuSans-30"/>
      </g>
     </g>
    </g>
    <g id="ytick_11">
     <g id="line2d_114">
      <g>
       <use style="fill:#262626;stroke:#262626;stroke-width:1.25;" x="794.191975" xlink:href="#mb3834db2f6" y="306.131327"/>
      </g>
     </g>
     <g id="text_39">
      <!-- 15000 -->
      <g style="fill:#262626;" transform="translate(803.691975 310.310467)scale(0.11 -0.11)">
       <use xlink:href="#DejaVuSans-31"/>
       <use x="63.623047" xlink:href="#DejaVuSans-35"/>
       <use x="127.246094" xlink:href="#DejaVuSans-30"/>
       <use x="190.869141" xlink:href="#DejaVuSans-30"/>
       <use x="254.492188" xlink:href="#DejaVuSans-30"/>
      </g>
     </g>
    </g>
    <g id="ytick_12">
     <g id="line2d_115">
      <g>
       <use style="fill:#262626;stroke:#262626;stroke-width:1.25;" x="794.191975" xlink:href="#mb3834db2f6" y="250.779278"/>
      </g>
     </g>
     <g id="text_40">
      <!-- 20000 -->
      <g style="fill:#262626;" transform="translate(803.691975 254.958419)scale(0.11 -0.11)">
       <use xlink:href="#DejaVuSans-32"/>
       <use x="63.623047" xlink:href="#DejaVuSans-30"/>
       <use x="127.246094" xlink:href="#DejaVuSans-30"/>
       <use x="190.869141" xlink:href="#DejaVuSans-30"/>
       <use x="254.492188" xlink:href="#DejaVuSans-30"/>
      </g>
     </g>
    </g>
    <g id="ytick_13">
     <g id="line2d_116">
      <g>
       <use style="fill:#262626;stroke:#262626;stroke-width:1.25;" x="794.191975" xlink:href="#mb3834db2f6" y="195.42723"/>
      </g>
     </g>
     <g id="text_41">
      <!-- 25000 -->
      <g style="fill:#262626;" transform="translate(803.691975 199.60637)scale(0.11 -0.11)">
       <use xlink:href="#DejaVuSans-32"/>
       <use x="63.623047" xlink:href="#DejaVuSans-35"/>
       <use x="127.246094" xlink:href="#DejaVuSans-30"/>
       <use x="190.869141" xlink:href="#DejaVuSans-30"/>
       <use x="254.492188" xlink:href="#DejaVuSans-30"/>
      </g>
     </g>
    </g>
    <g id="ytick_14">
     <g id="line2d_117">
      <g>
       <use style="fill:#262626;stroke:#262626;stroke-width:1.25;" x="794.191975" xlink:href="#mb3834db2f6" y="140.075181"/>
      </g>
     </g>
     <g id="text_42">
      <!-- 30000 -->
      <g style="fill:#262626;" transform="translate(803.691975 144.254322)scale(0.11 -0.11)">
       <use xlink:href="#DejaVuSans-33"/>
       <use x="63.623047" xlink:href="#DejaVuSans-30"/>
       <use x="127.246094" xlink:href="#DejaVuSans-30"/>
       <use x="190.869141" xlink:href="#DejaVuSans-30"/>
       <use x="254.492188" xlink:href="#DejaVuSans-30"/>
      </g>
     </g>
    </g>
    <g id="ytick_15">
     <g id="line2d_118">
      <g>
       <use style="fill:#262626;stroke:#262626;stroke-width:1.25;" x="794.191975" xlink:href="#mb3834db2f6" y="84.723132"/>
      </g>
     </g>
     <g id="text_43">
      <!-- 35000 -->
      <g style="fill:#262626;" transform="translate(803.691975 88.902273)scale(0.11 -0.11)">
       <use xlink:href="#DejaVuSans-33"/>
       <use x="63.623047" xlink:href="#DejaVuSans-35"/>
       <use x="127.246094" xlink:href="#DejaVuSans-30"/>
       <use x="190.869141" xlink:href="#DejaVuSans-30"/>
       <use x="254.492188" xlink:href="#DejaVuSans-30"/>
      </g>
     </g>
    </g>
    <g id="ytick_16">
     <g id="line2d_119">
      <g>
       <use style="fill:#262626;stroke:#262626;stroke-width:1.25;" x="794.191975" xlink:href="#mb3834db2f6" y="29.371084"/>
      </g>
     </g>
     <g id="text_44">
      <!-- 40000 -->
      <g style="fill:#262626;" transform="translate(803.691975 33.550224)scale(0.11 -0.11)">
       <use xlink:href="#DejaVuSans-34"/>
       <use x="63.623047" xlink:href="#DejaVuSans-30"/>
       <use x="127.246094" xlink:href="#DejaVuSans-30"/>
       <use x="190.869141" xlink:href="#DejaVuSans-30"/>
       <use x="254.492188" xlink:href="#DejaVuSans-30"/>
      </g>
     </g>
    </g>
    <g id="text_45">
     <!-- Новопоставени дози -->
     <g style="fill:#262626;" transform="translate(849.5676 195.880819)rotate(-270)scale(0.12 -0.12)">
      <defs>
       <path d="M 628 4666 
L 1259 4666 
L 1259 2753 
L 3553 2753 
L 3553 4666 
L 4184 4666 
L 4184 0 
L 3553 0 
L 3553 2222 
L 1259 2222 
L 1259 0 
L 628 0 
L 628 4666 
z
" id="DejaVuSans-41d" transform="scale(0.015625)"/>
       <path d="M 3603 3500 
L 3603 0 
L 3025 0 
L 3025 3041 
L 1159 3041 
L 1159 0 
L 581 0 
L 581 3500 
L 3603 3500 
z
" id="DejaVuSans-43f" transform="scale(0.015625)"/>
      </defs>
      <use xlink:href="#DejaVuSans-41d"/>
      <use x="75.195312" xlink:href="#DejaVuSans-43e"/>
      <use x="136.376953" xlink:href="#DejaVuSans-432"/>
      <use x="195.3125" xlink:href="#DejaVuSans-43e"/>
      <use x="256.494141" xlink:href="#DejaVuSans-43f"/>
      <use x="321.875" xlink:href="#DejaVuSans-43e"/>
      <use x="383.056641" xlink:href="#DejaVuSans-441"/>
      <use x="438.037109" xlink:href="#DejaVuSans-442"/>
      <use x="496.289062" xlink:href="#DejaVuSans-430"/>
      <use x="557.568359" xlink:href="#DejaVuSans-432"/>
      <use x="616.503906" xlink:href="#DejaVuSans-435"/>
      <use x="678.027344" xlink:href="#DejaVuSans-43d"/>
      <use x="743.408203" xlink:href="#DejaVuSans-438"/>
      <use x="808.398438" xlink:href="#DejaVuSans-20"/>
      <use x="840.185547" xlink:href="#DejaVuSans-434"/>
      <use x="909.326172" xlink:href="#DejaVuSans-43e"/>
      <use x="970.507812" xlink:href="#DejaVuSans-437"/>
      <use x="1023.681641" xlink:href="#DejaVuSans-438"/>
     </g>
    </g>
   </g>
   <g id="line2d_120">
    <path clip-path="url(#p6757c44e23)" d="M 85.829664 429.079297 
L 88.012935 464.2832 
L 90.196206 470.737249 
L 92.379477 472.187472 
L 98.92929 472.187472 
L 101.112561 464.338552 
L 103.295833 444.898912 
L 105.479104 436.71788 
L 107.662375 447.411895 
L 109.845646 470.881164 
L 112.028917 472.187472 
L 114.212188 464.57103 
L 116.395459 454.264479 
L 118.57873 458.260897 
L 120.762001 465.013847 
L 122.945272 467.316492 
L 125.128544 469.906968 
L 127.311815 470.847953 
L 129.495086 459.069037 
L 131.678357 443.537252 
L 133.861628 451.142623 
L 136.044899 459.744332 
L 138.22817 462.777624 
L 140.411441 471.988205 
L 142.594712 471.921782 
L 144.777984 464.936354 
L 146.961255 446.45984 
L 149.144526 430.175267 
L 151.327797 419.946209 
L 153.511068 437.105344 
L 155.694339 469.807334 
L 157.87761 471.025079 
L 160.060881 455.482224 
L 162.244152 435.843317 
L 164.427424 425.614259 
L 166.610695 429.001804 
L 168.793966 440.802861 
L 170.977237 470.460488 
L 173.160508 471.943923 
L 175.343779 451.707214 
L 177.52705 432.998222 
L 179.710321 430.839492 
L 181.893592 417.27824 
L 184.076864 432.655039 
L 186.260135 465.257396 
L 188.443406 471.434684 
L 190.626677 449.515273 
L 192.809948 428.990734 
L 194.993219 421.462855 
L 197.17649 421.33001 
L 199.359761 319.925057 
L 201.543032 426.931637 
L 203.726304 350.435106 
L 205.909575 342.564045 
L 208.092846 282.18603 
L 210.276117 248.166661 
L 212.459388 250.225758 
L 214.642659 295.869057 
L 216.82593 413.281822 
L 219.009201 442.463422 
L 221.192472 349.372347 
L 223.375744 248.199873 
L 225.559015 423.510881 
L 227.742286 246.627874 
L 229.925557 295.94655 
L 232.108828 442.806605 
L 234.292099 455.437942 
L 236.47537 411.289148 
L 238.658641 383.413857 
L 240.841912 394.761027 
L 243.025183 302.799133 
L 245.208455 336.973488 
L 247.391726 458.415883 
L 249.574997 461.393823 
L 251.758268 440.880354 
L 253.941539 424.728626 
L 256.12481 420.067983 
L 258.308081 412.96078 
L 260.491352 398.35891 
L 262.674623 429.832085 
L 264.857895 446.083446 
L 269.224437 334.526928 
L 271.407708 333.763069 
L 273.590979 313.969177 
L 275.77425 310.260589 
L 277.957521 428.680762 
L 280.140792 445.806686 
L 282.324063 372.487362 
L 284.507335 326.235191 
L 286.690606 320.390014 
L 288.873877 322.083787 
L 291.057148 338.423712 
L 293.240419 427.983326 
L 295.42369 455.670421 
L 297.606961 400.462288 
L 299.790232 366.066525 
L 301.973503 319.216551 
L 304.156775 261.152252 
L 306.340046 307.459776 
L 308.523317 431.60335 
L 310.706588 454.474817 
L 312.889859 391.041369 
L 315.07313 355.914959 
L 317.256401 307.437635 
L 319.439672 306.153467 
L 321.622943 319.925057 
L 323.806215 438.013118 
L 325.989486 458.60408 
L 328.172757 394.218577 
L 330.356028 341.036328 
L 332.539299 259.989859 
L 334.72257 228.461332 
L 336.905841 268.237314 
L 339.089112 425.359639 
L 341.272383 449.271724 
L 343.455655 351.409302 
L 345.638926 286.76918 
L 347.822197 191.497234 
L 350.005468 174.149902 
L 352.188739 336.165348 
L 354.37201 408.477264 
L 356.555281 434.492727 
L 358.738552 373.804741 
L 360.921823 348.940601 
L 363.105094 112.609494 
L 365.288366 393.255451 
L 367.471637 50.216665 
L 369.654908 360.951996 
L 371.838179 409.695009 
L 374.02145 190.168785 
L 376.204721 76.442466 
L 378.387992 68.383208 
L 380.571263 54.168802 
L 382.754534 104.240265 
L 384.937806 399.222402 
L 387.121077 434.658783 
L 389.304348 270.307481 
L 391.487619 183.570821 
L 393.67089 136.211608 
L 395.854161 93.535179 
L 398.037432 194.696582 
L 400.220703 401.912511 
L 402.403974 431.581209 
L 404.587246 414.931313 
L 406.770517 285.518224 
L 408.953788 241.280867 
L 411.137059 270.584241 
L 413.32033 258.041467 
L 415.503601 393.875394 
L 417.686872 416.337255 
L 419.870143 331.8811 
L 422.053414 272.388718 
L 424.236686 228.848796 
L 426.419957 215.874276 
L 428.603228 231.461413 
L 430.786499 405.864648 
L 432.96977 390.155736 
L 437.336312 231.295357 
L 439.519583 206.420146 
L 441.702854 209.121326 
L 443.886126 245.365848 
L 446.069397 417.189677 
L 448.252668 436.064725 
L 450.435939 365.313737 
L 452.61921 301.061079 
L 454.802481 277.259698 
L 456.985752 270.573171 
L 459.169023 303.585132 
L 461.352294 429.499972 
L 463.535566 437.503879 
L 465.718837 378.066849 
L 467.902108 331.34972 
L 470.085379 318.319848 
L 472.26865 314.854809 
L 474.451921 336.242841 
L 476.635192 437.80278 
L 478.818463 442.075958 
L 481.001734 382.97104 
L 483.185006 332.811014 
L 485.368277 328.139301 
L 487.551548 335.977151 
L 489.734819 342.386918 
L 491.91809 432.356138 
L 494.101361 448.308599 
L 496.284632 385.683291 
L 498.467903 342.652608 
L 500.651174 330.187327 
L 502.834445 336.264982 
L 505.017717 344.390663 
L 507.200988 436.042585 
L 509.384259 449.017105 
L 511.56753 379.085327 
L 513.750801 340.294611 
L 515.934072 339.043655 
L 518.117343 343.327903 
L 520.300614 354.032989 
L 522.483885 442.718042 
L 524.667157 449.559555 
L 526.850428 386.181459 
L 529.033699 361.693713 
L 531.21697 349.770882 
L 533.400241 346.671167 
L 535.583512 356.413128 
L 537.766783 432.998222 
L 539.950054 450.068794 
L 542.133325 377.723666 
L 544.316597 337.383093 
L 546.499868 328.582118 
L 548.683139 337.006699 
L 550.86641 350.911134 
L 553.049681 436.839654 
L 555.232952 448.220035 
L 557.416223 380.192368 
L 559.599494 335.1358 
L 561.782765 332.124649 
L 563.966037 333.652365 
L 566.149308 340.848131 
L 568.332579 435.898669 
L 570.51585 446.382347 
L 572.699121 372.730911 
L 574.882392 340.493878 
L 577.065663 335.866447 
L 579.248934 341.169173 
L 581.432205 356.224931 
L 583.615477 433.396757 
L 585.798748 447.987557 
L 587.982019 371.05928 
L 590.16529 337.02884 
L 592.348561 330.608003 
L 594.531832 337.936614 
L 596.715103 341.88875 
L 598.898374 431.182675 
L 601.081645 445.740263 
L 603.264917 362.822895 
L 605.448188 320.157536 
L 607.631459 319.515452 
L 609.81473 323.744348 
L 611.998001 333.962337 
L 614.181272 428.680762 
L 616.364543 444.068632 
L 618.547814 357.022 
L 620.731085 322.880857 
L 622.914356 338.92188 
L 625.097628 337.261319 
L 627.280899 337.194896 
L 629.46417 434.880192 
L 631.647441 448.408232 
L 633.830712 453.877015 
L 636.013983 346.350125 
L 638.197254 334.272308 
L 640.380525 340.361033 
L 642.563796 350.114064 
L 644.747068 438.168103 
L 646.930339 450.533751 
L 649.11361 383.137097 
L 651.296881 350.601162 
L 653.480152 358.36152 
L 655.663423 348.342799 
L 657.846694 356.545972 
L 660.029965 438.522356 
L 662.213236 453.400987 
L 664.396508 388.650161 
L 666.579779 360.774869 
L 668.76305 451.618651 
L 670.946321 345.530915 
L 673.129592 361.405882 
L 675.312863 444.887842 
L 677.496134 455.449013 
L 679.679405 414.521708 
L 681.862676 383.967377 
L 684.045948 372.487362 
L 686.229219 373.594403 
L 688.41249 394.008239 
L 690.595761 446.913727 
L 692.779032 457.973066 
L 694.962303 412.573316 
L 697.145574 390.211088 
L 699.328845 392.713001 
L 701.512116 386.845684 
L 703.695388 392.447311 
L 705.878659 446.338066 
L 708.06193 458.692643 
L 710.245201 415.008806 
L 712.428472 387.2885 
L 714.611743 410.768839 
L 716.795014 382.982111 
L 718.978285 376.660907 
L 721.161556 439.806524 
L 723.344828 452.371439 
L 725.528099 403.539862 
L 727.71137 371.568518 
L 729.894641 322.925138 
L 732.077912 159.548032 
L 734.261183 206.088034 
L 736.444454 342.829735 
L 738.627725 392.978691 
L 740.810996 304.360061 
L 742.994267 117.867939 
L 745.177539 190.888362 
L 747.36081 213.361293 
L 749.544081 215.97391 
L 751.727352 386.557853 
L 753.910623 417.156466 
L 756.093894 311.378701 
L 758.277165 264.274108 
L 760.460436 255.849526 
L 760.460436 255.849526 
" style="fill:none;stroke:#ff0000;stroke-linecap:round;stroke-width:1.5;"/>
   </g>
   <g id="patch_7">
    <path d="M 52.098125 493.286013 
L 52.098125 29.118125 
" style="fill:none;stroke:#262626;stroke-linecap:square;stroke-linejoin:miter;stroke-width:1.25;"/>
   </g>
   <g id="patch_8">
    <path d="M 794.191975 493.286013 
L 794.191975 29.118125 
" style="fill:none;stroke:#262626;stroke-linecap:square;stroke-linejoin:miter;stroke-width:1.25;"/>
   </g>
   <g id="patch_9">
    <path d="M 52.098125 493.286013 
L 794.191975 493.286013 
" style="fill:none;stroke:#262626;stroke-linecap:square;stroke-linejoin:miter;stroke-width:1.25;"/>
   </g>
   <g id="patch_10">
    <path d="M 52.098125 29.118125 
L 794.191975 29.118125 
" style="fill:none;stroke:#262626;stroke-linecap:square;stroke-linejoin:miter;stroke-width:1.25;"/>
   </g>
   <g id="legend_1">
    <g id="patch_11">
     <path d="M 612.420412 70.397344 
L 786.491975 70.397344 
Q 788.691975 70.397344 788.691975 68.197344 
L 788.691975 36.818125 
Q 788.691975 34.618125 786.491975 34.618125 
L 612.420412 34.618125 
Q 610.220412 34.618125 610.220412 36.818125 
L 610.220412 68.197344 
Q 610.220412 70.397344 612.420412 70.397344 
z
" style="fill:#ffffff;opacity:0.8;stroke:#cccccc;stroke-linejoin:miter;"/>
    </g>
    <g id="line2d_121">
     <path d="M 614.620412 43.71375 
L 636.620412 43.71375 
" style="fill:none;stroke:#0000ff;stroke-linecap:round;stroke-width:1.5;"/>
    </g>
    <g id="line2d_122"/>
    <g id="text_46">
     <!-- Кумулативен брой дози -->
     <g style="fill:#262626;" transform="translate(645.420412 47.56375)scale(0.11 -0.11)">
      <defs>
       <path d="M 628 4666 
L 1259 4666 
L 1259 2359 
L 3516 4666 
L 4325 4666 
L 2522 2822 
L 4419 0 
L 3731 0 
L 2113 2403 
L 1259 1531 
L 1259 0 
L 628 0 
L 628 4666 
z
" id="DejaVuSans-41a" transform="scale(0.015625)"/>
       <path d="M 581 3500 
L 1422 3500 
L 2416 1156 
L 3413 3500 
L 4247 3500 
L 4247 0 
L 3669 0 
L 3669 2950 
L 2703 672 
L 2128 672 
L 1159 2950 
L 1159 0 
L 581 0 
L 581 3500 
z
" id="DejaVuSans-43c" transform="scale(0.015625)"/>
       <path d="M 1991 3584 
Q 2741 3584 3169 3096 
Q 3597 2609 3597 1747 
Q 3597 888 3169 398 
Q 2741 -91 1991 -91 
Q 1238 -91 822 384 
Q 406 859 384 1747 
L 366 2463 
Q 350 2834 350 2963 
Q 350 3463 531 3831 
Q 816 4409 1308 4659 
Q 1800 4909 2625 4916 
Q 3006 4919 3175 4972 
L 3334 4516 
Q 3181 4453 3041 4450 
L 2259 4397 
Q 1866 4369 1628 4231 
Q 1006 3866 947 3388 
L 925 3213 
Q 1331 3584 1991 3584 
z
M 1991 3097 
Q 1528 3097 1259 2736 
Q 991 2375 991 1747 
Q 991 1119 1258 758 
Q 1525 397 1991 397 
Q 2450 397 2719 759 
Q 2988 1122 2988 1747 
Q 2988 2369 2719 2733 
Q 2450 3097 1991 3097 
z
" id="DejaVuSans-431" transform="scale(0.015625)"/>
       <path d="M 1159 525 
L 1159 -1331 
L 581 -1331 
L 581 3500 
L 1159 3500 
L 1159 2969 
Q 1341 3281 1617 3432 
Q 1894 3584 2278 3584 
Q 2916 3584 3314 3078 
Q 3713 2572 3713 1747 
Q 3713 922 3314 415 
Q 2916 -91 2278 -91 
Q 1894 -91 1617 61 
Q 1341 213 1159 525 
z
M 3116 1747 
Q 3116 2381 2855 2742 
Q 2594 3103 2138 3103 
Q 1681 3103 1420 2742 
Q 1159 2381 1159 1747 
Q 1159 1113 1420 752 
Q 1681 391 2138 391 
Q 2594 391 2855 752 
Q 3116 1113 3116 1747 
z
" id="DejaVuSans-440" transform="scale(0.015625)"/>
       <path d="M 3578 3500 
L 3578 0 
L 3006 0 
L 3006 2809 
L 1319 0 
L 581 0 
L 581 3500 
L 1153 3500 
L 1153 697 
L 2838 3500 
L 3578 3500 
z
M 1102 4833 
L 1471 4833 
Q 1505 4599 1656 4481 
Q 1808 4364 2080 4364 
Q 2349 4364 2499 4480 
Q 2649 4596 2689 4833 
L 3058 4833 
Q 3027 4386 2780 4161 
Q 2533 3936 2080 3936 
Q 1627 3936 1380 4161 
Q 1133 4386 1102 4833 
z
" id="DejaVuSans-439" transform="scale(0.015625)"/>
      </defs>
      <use xlink:href="#DejaVuSans-41a"/>
      <use x="70.996094" xlink:href="#DejaVuSans-443"/>
      <use x="130.175781" xlink:href="#DejaVuSans-43c"/>
      <use x="205.615234" xlink:href="#DejaVuSans-443"/>
      <use x="264.794922" xlink:href="#DejaVuSans-43b"/>
      <use x="328.710938" xlink:href="#DejaVuSans-430"/>
      <use x="389.990234" xlink:href="#DejaVuSans-442"/>
      <use x="448.242188" xlink:href="#DejaVuSans-438"/>
      <use x="513.232422" xlink:href="#DejaVuSans-432"/>
      <use x="572.167969" xlink:href="#DejaVuSans-435"/>
      <use x="633.691406" xlink:href="#DejaVuSans-43d"/>
      <use x="699.072266" xlink:href="#DejaVuSans-20"/>
      <use x="730.859375" xlink:href="#DejaVuSans-431"/>
      <use x="792.529297" xlink:href="#DejaVuSans-440"/>
      <use x="856.005859" xlink:href="#DejaVuSans-43e"/>
      <use x="917.1875" xlink:href="#DejaVuSans-439"/>
      <use x="982.177734" xlink:href="#DejaVuSans-20"/>
      <use x="1013.964844" xlink:href="#DejaVuSans-434"/>
      <use x="1083.105469" xlink:href="#DejaVuSans-43e"/>
      <use x="1144.287109" xlink:href="#DejaVuSans-437"/>
      <use x="1197.460938" xlink:href="#DejaVuSans-438"/>
     </g>
    </g>
    <g id="line2d_123">
     <path d="M 614.620412 59.859687 
L 636.620412 59.859687 
" style="fill:none;stroke:#ff0000;stroke-linecap:round;stroke-width:1.5;"/>
    </g>
    <g id="line2d_124"/>
    <g id="text_47">
     <!-- Новопоставени дози -->
     <g style="fill:#262626;" transform="translate(645.420412 63.709687)scale(0.11 -0.11)">
      <use xlink:href="#DejaVuSans-41d"/>
      <use x="75.195312" xlink:href="#DejaVuSans-43e"/>
      <use x="136.376953" xlink:href="#DejaVuSans-432"/>
      <use x="195.3125" xlink:href="#DejaVuSans-43e"/>
      <use x="256.494141" xlink:href="#DejaVuSans-43f"/>
      <use x="321.875" xlink:href="#DejaVuSans-43e"/>
      <use x="383.056641" xlink:href="#DejaVuSans-441"/>
      <use x="438.037109" xlink:href="#DejaVuSans-442"/>
      <use x="496.289062" xlink:href="#DejaVuSans-430"/>
      <use x="557.568359" xlink:href="#DejaVuSans-432"/>
      <use x="616.503906" xlink:href="#DejaVuSans-435"/>
      <use x="678.027344" xlink:href="#DejaVuSans-43d"/>
      <use x="743.408203" xlink:href="#DejaVuSans-438"/>
      <use x="808.398438" xlink:href="#DejaVuSans-20"/>
      <use x="840.185547" xlink:href="#DejaVuSans-434"/>
      <use x="909.326172" xlink:href="#DejaVuSans-43e"/>
      <use x="970.507812" xlink:href="#DejaVuSans-437"/>
      <use x="1023.681641" xlink:href="#DejaVuSans-438"/>
     </g>
    </g>
   </g>
  </g>
 </g>
 <defs>
  <clipPath id="p6757c44e23">
   <rect height="464.167888" width="742.09385" x="52.098125" y="29.118125"/>
  </clipPath>
 </defs>
</svg>
