<?xml version="1.0" encoding="utf-8" standalone="no"?>
<!DOCTYPE svg PUBLIC "-//W3C//DTD SVG 1.1//EN"
  "http://www.w3.org/Graphics/SVG/1.1/DTD/svg11.dtd">
<svg xmlns:xlink="http://www.w3.org/1999/xlink" width="837.061875pt" height="547.904678pt" viewBox="0 0 837.061875 547.904678" xmlns="http://www.w3.org/2000/svg" version="1.1">
 <metadata>
  <rdf:RDF xmlns:dc="http://purl.org/dc/elements/1.1/" xmlns:cc="http://creativecommons.org/ns#" xmlns:rdf="http://www.w3.org/1999/02/22-rdf-syntax-ns#">
   <cc:Work>
    <dc:type rdf:resource="http://purl.org/dc/dcmitype/StillImage"/>
    <dc:date>2021-11-25T02:35:46.931881</dc:date>
    <dc:format>image/svg+xml</dc:format>
    <dc:creator>
     <cc:Agent>
      <dc:title>Matplotlib v3.5.0, https://matplotlib.org/</dc:title>
     </cc:Agent>
    </dc:creator>
   </cc:Work>
  </rdf:RDF>
 </metadata>
 <defs>
  <style type="text/css">*{stroke-linejoin: round; stroke-linecap: butt}</style>
 </defs>
 <g id="figure_1">
  <g id="patch_1">
   <path d="M 0 547.904678 
L 837.061875 547.904678 
L 837.061875 0 
L 0 0 
L 0 547.904678 
z
" style="fill: none"/>
  </g>
  <g id="axes_1">
   <g id="patch_2">
    <path d="M 52.098125 470.728203 
L 772.568125 470.728203 
L 772.568125 29.118125 
L 52.098125 29.118125 
L 52.098125 470.728203 
z
" style="fill: none"/>
   </g>
   <g id="matplotlib.axis_1">
    <g id="xtick_1">
     <g id="line2d_1">
      <path d="M 84.846761 470.728203 
L 84.846761 29.118125 
" clip-path="url(#p6d137c327e)" style="fill: none; stroke: #cccccc; stroke-linecap: round"/>
     </g>
     <g id="line2d_2">
      <defs>
       <path id="m964de1e9c6" d="M 0 0 
L 0 6 
" style="stroke: #262626; stroke-width: 1.25"/>
      </defs>
      <g>
       <use xlink:href="#m964de1e9c6" x="84.846761" y="470.728203" style="fill: #262626; stroke: #262626; stroke-width: 1.25"/>
      </g>
     </g>
     <g id="text_1">
      <!-- 29.12.2020 -->
      <g style="fill: #262626" transform="translate(38.694233 530.673311)rotate(-45)scale(0.11 -0.11)">
       <defs>
        <path id="DejaVuSans-32" d="M 1228 531 
L 3431 531 
L 3431 0 
L 469 0 
L 469 531 
Q 828 903 1448 1529 
Q 2069 2156 2228 2338 
Q 2531 2678 2651 2914 
Q 2772 3150 2772 3378 
Q 2772 3750 2511 3984 
Q 2250 4219 1831 4219 
Q 1534 4219 1204 4116 
Q 875 4013 500 3803 
L 500 4441 
Q 881 4594 1212 4672 
Q 1544 4750 1819 4750 
Q 2544 4750 2975 4387 
Q 3406 4025 3406 3419 
Q 3406 3131 3298 2873 
Q 3191 2616 2906 2266 
Q 2828 2175 2409 1742 
Q 1991 1309 1228 531 
z
" transform="scale(0.015625)"/>
        <path id="DejaVuSans-39" d="M 703 97 
L 703 672 
Q 941 559 1184 500 
Q 1428 441 1663 441 
Q 2288 441 2617 861 
Q 2947 1281 2994 2138 
Q 2813 1869 2534 1725 
Q 2256 1581 1919 1581 
Q 1219 1581 811 2004 
Q 403 2428 403 3163 
Q 403 3881 828 4315 
Q 1253 4750 1959 4750 
Q 2769 4750 3195 4129 
Q 3622 3509 3622 2328 
Q 3622 1225 3098 567 
Q 2575 -91 1691 -91 
Q 1453 -91 1209 -44 
Q 966 3 703 97 
z
M 1959 2075 
Q 2384 2075 2632 2365 
Q 2881 2656 2881 3163 
Q 2881 3666 2632 3958 
Q 2384 4250 1959 4250 
Q 1534 4250 1286 3958 
Q 1038 3666 1038 3163 
Q 1038 2656 1286 2365 
Q 1534 2075 1959 2075 
z
" transform="scale(0.015625)"/>
        <path id="DejaVuSans-2e" d="M 684 794 
L 1344 794 
L 1344 0 
L 684 0 
L 684 794 
z
" transform="scale(0.015625)"/>
        <path id="DejaVuSans-31" d="M 794 531 
L 1825 531 
L 1825 4091 
L 703 3866 
L 703 4441 
L 1819 4666 
L 2450 4666 
L 2450 531 
L 3481 531 
L 3481 0 
L 794 0 
L 794 531 
z
" transform="scale(0.015625)"/>
        <path id="DejaVuSans-30" d="M 2034 4250 
Q 1547 4250 1301 3770 
Q 1056 3291 1056 2328 
Q 1056 1369 1301 889 
Q 1547 409 2034 409 
Q 2525 409 2770 889 
Q 3016 1369 3016 2328 
Q 3016 3291 2770 3770 
Q 2525 4250 2034 4250 
z
M 2034 4750 
Q 2819 4750 3233 4129 
Q 3647 3509 3647 2328 
Q 3647 1150 3233 529 
Q 2819 -91 2034 -91 
Q 1250 -91 836 529 
Q 422 1150 422 2328 
Q 422 3509 836 4129 
Q 1250 4750 2034 4750 
z
" transform="scale(0.015625)"/>
       </defs>
       <use xlink:href="#DejaVuSans-32"/>
       <use xlink:href="#DejaVuSans-39" x="63.623047"/>
       <use xlink:href="#DejaVuSans-2e" x="127.246094"/>
       <use xlink:href="#DejaVuSans-31" x="159.033203"/>
       <use xlink:href="#DejaVuSans-32" x="222.65625"/>
       <use xlink:href="#DejaVuSans-2e" x="286.279297"/>
       <use xlink:href="#DejaVuSans-32" x="318.066406"/>
       <use xlink:href="#DejaVuSans-30" x="381.689453"/>
       <use xlink:href="#DejaVuSans-32" x="445.3125"/>
       <use xlink:href="#DejaVuSans-30" x="508.935547"/>
      </g>
     </g>
    </g>
    <g id="xtick_2">
     <g id="line2d_3">
      <path d="M 112.633483 470.728203 
L 112.633483 29.118125 
" clip-path="url(#p6d137c327e)" style="fill: none; stroke: #cccccc; stroke-linecap: round"/>
     </g>
     <g id="line2d_4">
      <g>
       <use xlink:href="#m964de1e9c6" x="112.633483" y="470.728203" style="fill: #262626; stroke: #262626; stroke-width: 1.25"/>
      </g>
     </g>
     <g id="text_2">
      <!-- 12.01.2021 -->
      <g style="fill: #262626" transform="translate(66.480955 530.673311)rotate(-45)scale(0.11 -0.11)">
       <use xlink:href="#DejaVuSans-31"/>
       <use xlink:href="#DejaVuSans-32" x="63.623047"/>
       <use xlink:href="#DejaVuSans-2e" x="127.246094"/>
       <use xlink:href="#DejaVuSans-30" x="159.033203"/>
       <use xlink:href="#DejaVuSans-31" x="222.65625"/>
       <use xlink:href="#DejaVuSans-2e" x="286.279297"/>
       <use xlink:href="#DejaVuSans-32" x="318.066406"/>
       <use xlink:href="#DejaVuSans-30" x="381.689453"/>
       <use xlink:href="#DejaVuSans-32" x="445.3125"/>
       <use xlink:href="#DejaVuSans-31" x="508.935547"/>
      </g>
     </g>
    </g>
    <g id="xtick_3">
     <g id="line2d_5">
      <path d="M 140.420205 470.728203 
L 140.420205 29.118125 
" clip-path="url(#p6d137c327e)" style="fill: none; stroke: #cccccc; stroke-linecap: round"/>
     </g>
     <g id="line2d_6">
      <g>
       <use xlink:href="#m964de1e9c6" x="140.420205" y="470.728203" style="fill: #262626; stroke: #262626; stroke-width: 1.25"/>
      </g>
     </g>
     <g id="text_3">
      <!-- 26.01.2021 -->
      <g style="fill: #262626" transform="translate(94.267677 530.673311)rotate(-45)scale(0.11 -0.11)">
       <defs>
        <path id="DejaVuSans-36" d="M 2113 2584 
Q 1688 2584 1439 2293 
Q 1191 2003 1191 1497 
Q 1191 994 1439 701 
Q 1688 409 2113 409 
Q 2538 409 2786 701 
Q 3034 994 3034 1497 
Q 3034 2003 2786 2293 
Q 2538 2584 2113 2584 
z
M 3366 4563 
L 3366 3988 
Q 3128 4100 2886 4159 
Q 2644 4219 2406 4219 
Q 1781 4219 1451 3797 
Q 1122 3375 1075 2522 
Q 1259 2794 1537 2939 
Q 1816 3084 2150 3084 
Q 2853 3084 3261 2657 
Q 3669 2231 3669 1497 
Q 3669 778 3244 343 
Q 2819 -91 2113 -91 
Q 1303 -91 875 529 
Q 447 1150 447 2328 
Q 447 3434 972 4092 
Q 1497 4750 2381 4750 
Q 2619 4750 2861 4703 
Q 3103 4656 3366 4563 
z
" transform="scale(0.015625)"/>
       </defs>
       <use xlink:href="#DejaVuSans-32"/>
       <use xlink:href="#DejaVuSans-36" x="63.623047"/>
       <use xlink:href="#DejaVuSans-2e" x="127.246094"/>
       <use xlink:href="#DejaVuSans-30" x="159.033203"/>
       <use xlink:href="#DejaVuSans-31" x="222.65625"/>
       <use xlink:href="#DejaVuSans-2e" x="286.279297"/>
       <use xlink:href="#DejaVuSans-32" x="318.066406"/>
       <use xlink:href="#DejaVuSans-30" x="381.689453"/>
       <use xlink:href="#DejaVuSans-32" x="445.3125"/>
       <use xlink:href="#DejaVuSans-31" x="508.935547"/>
      </g>
     </g>
    </g>
    <g id="xtick_4">
     <g id="line2d_7">
      <path d="M 168.206927 470.728203 
L 168.206927 29.118125 
" clip-path="url(#p6d137c327e)" style="fill: none; stroke: #cccccc; stroke-linecap: round"/>
     </g>
     <g id="line2d_8">
      <g>
       <use xlink:href="#m964de1e9c6" x="168.206927" y="470.728203" style="fill: #262626; stroke: #262626; stroke-width: 1.25"/>
      </g>
     </g>
     <g id="text_4">
      <!-- 09.02.2021 -->
      <g style="fill: #262626" transform="translate(122.054399 530.673311)rotate(-45)scale(0.11 -0.11)">
       <use xlink:href="#DejaVuSans-30"/>
       <use xlink:href="#DejaVuSans-39" x="63.623047"/>
       <use xlink:href="#DejaVuSans-2e" x="127.246094"/>
       <use xlink:href="#DejaVuSans-30" x="159.033203"/>
       <use xlink:href="#DejaVuSans-32" x="222.65625"/>
       <use xlink:href="#DejaVuSans-2e" x="286.279297"/>
       <use xlink:href="#DejaVuSans-32" x="318.066406"/>
       <use xlink:href="#DejaVuSans-30" x="381.689453"/>
       <use xlink:href="#DejaVuSans-32" x="445.3125"/>
       <use xlink:href="#DejaVuSans-31" x="508.935547"/>
      </g>
     </g>
    </g>
    <g id="xtick_5">
     <g id="line2d_9">
      <path d="M 195.993648 470.728203 
L 195.993648 29.118125 
" clip-path="url(#p6d137c327e)" style="fill: none; stroke: #cccccc; stroke-linecap: round"/>
     </g>
     <g id="line2d_10">
      <g>
       <use xlink:href="#m964de1e9c6" x="195.993648" y="470.728203" style="fill: #262626; stroke: #262626; stroke-width: 1.25"/>
      </g>
     </g>
     <g id="text_5">
      <!-- 23.02.2021 -->
      <g style="fill: #262626" transform="translate(149.84112 530.673311)rotate(-45)scale(0.11 -0.11)">
       <defs>
        <path id="DejaVuSans-33" d="M 2597 2516 
Q 3050 2419 3304 2112 
Q 3559 1806 3559 1356 
Q 3559 666 3084 287 
Q 2609 -91 1734 -91 
Q 1441 -91 1130 -33 
Q 819 25 488 141 
L 488 750 
Q 750 597 1062 519 
Q 1375 441 1716 441 
Q 2309 441 2620 675 
Q 2931 909 2931 1356 
Q 2931 1769 2642 2001 
Q 2353 2234 1838 2234 
L 1294 2234 
L 1294 2753 
L 1863 2753 
Q 2328 2753 2575 2939 
Q 2822 3125 2822 3475 
Q 2822 3834 2567 4026 
Q 2313 4219 1838 4219 
Q 1578 4219 1281 4162 
Q 984 4106 628 3988 
L 628 4550 
Q 988 4650 1302 4700 
Q 1616 4750 1894 4750 
Q 2613 4750 3031 4423 
Q 3450 4097 3450 3541 
Q 3450 3153 3228 2886 
Q 3006 2619 2597 2516 
z
" transform="scale(0.015625)"/>
       </defs>
       <use xlink:href="#DejaVuSans-32"/>
       <use xlink:href="#DejaVuSans-33" x="63.623047"/>
       <use xlink:href="#DejaVuSans-2e" x="127.246094"/>
       <use xlink:href="#DejaVuSans-30" x="159.033203"/>
       <use xlink:href="#DejaVuSans-32" x="222.65625"/>
       <use xlink:href="#DejaVuSans-2e" x="286.279297"/>
       <use xlink:href="#DejaVuSans-32" x="318.066406"/>
       <use xlink:href="#DejaVuSans-30" x="381.689453"/>
       <use xlink:href="#DejaVuSans-32" x="445.3125"/>
       <use xlink:href="#DejaVuSans-31" x="508.935547"/>
      </g>
     </g>
    </g>
    <g id="xtick_6">
     <g id="line2d_11">
      <path d="M 223.78037 470.728203 
L 223.78037 29.118125 
" clip-path="url(#p6d137c327e)" style="fill: none; stroke: #cccccc; stroke-linecap: round"/>
     </g>
     <g id="line2d_12">
      <g>
       <use xlink:href="#m964de1e9c6" x="223.78037" y="470.728203" style="fill: #262626; stroke: #262626; stroke-width: 1.25"/>
      </g>
     </g>
     <g id="text_6">
      <!-- 09.03.2021 -->
      <g style="fill: #262626" transform="translate(177.627842 530.673311)rotate(-45)scale(0.11 -0.11)">
       <use xlink:href="#DejaVuSans-30"/>
       <use xlink:href="#DejaVuSans-39" x="63.623047"/>
       <use xlink:href="#DejaVuSans-2e" x="127.246094"/>
       <use xlink:href="#DejaVuSans-30" x="159.033203"/>
       <use xlink:href="#DejaVuSans-33" x="222.65625"/>
       <use xlink:href="#DejaVuSans-2e" x="286.279297"/>
       <use xlink:href="#DejaVuSans-32" x="318.066406"/>
       <use xlink:href="#DejaVuSans-30" x="381.689453"/>
       <use xlink:href="#DejaVuSans-32" x="445.3125"/>
       <use xlink:href="#DejaVuSans-31" x="508.935547"/>
      </g>
     </g>
    </g>
    <g id="xtick_7">
     <g id="line2d_13">
      <path d="M 251.567092 470.728203 
L 251.567092 29.118125 
" clip-path="url(#p6d137c327e)" style="fill: none; stroke: #cccccc; stroke-linecap: round"/>
     </g>
     <g id="line2d_14">
      <g>
       <use xlink:href="#m964de1e9c6" x="251.567092" y="470.728203" style="fill: #262626; stroke: #262626; stroke-width: 1.25"/>
      </g>
     </g>
     <g id="text_7">
      <!-- 23.03.2021 -->
      <g style="fill: #262626" transform="translate(205.414564 530.673311)rotate(-45)scale(0.11 -0.11)">
       <use xlink:href="#DejaVuSans-32"/>
       <use xlink:href="#DejaVuSans-33" x="63.623047"/>
       <use xlink:href="#DejaVuSans-2e" x="127.246094"/>
       <use xlink:href="#DejaVuSans-30" x="159.033203"/>
       <use xlink:href="#DejaVuSans-33" x="222.65625"/>
       <use xlink:href="#DejaVuSans-2e" x="286.279297"/>
       <use xlink:href="#DejaVuSans-32" x="318.066406"/>
       <use xlink:href="#DejaVuSans-30" x="381.689453"/>
       <use xlink:href="#DejaVuSans-32" x="445.3125"/>
       <use xlink:href="#DejaVuSans-31" x="508.935547"/>
      </g>
     </g>
    </g>
    <g id="xtick_8">
     <g id="line2d_15">
      <path d="M 279.353814 470.728203 
L 279.353814 29.118125 
" clip-path="url(#p6d137c327e)" style="fill: none; stroke: #cccccc; stroke-linecap: round"/>
     </g>
     <g id="line2d_16">
      <g>
       <use xlink:href="#m964de1e9c6" x="279.353814" y="470.728203" style="fill: #262626; stroke: #262626; stroke-width: 1.25"/>
      </g>
     </g>
     <g id="text_8">
      <!-- 06.04.2021 -->
      <g style="fill: #262626" transform="translate(233.201286 530.673311)rotate(-45)scale(0.11 -0.11)">
       <defs>
        <path id="DejaVuSans-34" d="M 2419 4116 
L 825 1625 
L 2419 1625 
L 2419 4116 
z
M 2253 4666 
L 3047 4666 
L 3047 1625 
L 3713 1625 
L 3713 1100 
L 3047 1100 
L 3047 0 
L 2419 0 
L 2419 1100 
L 313 1100 
L 313 1709 
L 2253 4666 
z
" transform="scale(0.015625)"/>
       </defs>
       <use xlink:href="#DejaVuSans-30"/>
       <use xlink:href="#DejaVuSans-36" x="63.623047"/>
       <use xlink:href="#DejaVuSans-2e" x="127.246094"/>
       <use xlink:href="#DejaVuSans-30" x="159.033203"/>
       <use xlink:href="#DejaVuSans-34" x="222.65625"/>
       <use xlink:href="#DejaVuSans-2e" x="286.279297"/>
       <use xlink:href="#DejaVuSans-32" x="318.066406"/>
       <use xlink:href="#DejaVuSans-30" x="381.689453"/>
       <use xlink:href="#DejaVuSans-32" x="445.3125"/>
       <use xlink:href="#DejaVuSans-31" x="508.935547"/>
      </g>
     </g>
    </g>
    <g id="xtick_9">
     <g id="line2d_17">
      <path d="M 307.140535 470.728203 
L 307.140535 29.118125 
" clip-path="url(#p6d137c327e)" style="fill: none; stroke: #cccccc; stroke-linecap: round"/>
     </g>
     <g id="line2d_18">
      <g>
       <use xlink:href="#m964de1e9c6" x="307.140535" y="470.728203" style="fill: #262626; stroke: #262626; stroke-width: 1.25"/>
      </g>
     </g>
     <g id="text_9">
      <!-- 20.04.2021 -->
      <g style="fill: #262626" transform="translate(260.988007 530.673311)rotate(-45)scale(0.11 -0.11)">
       <use xlink:href="#DejaVuSans-32"/>
       <use xlink:href="#DejaVuSans-30" x="63.623047"/>
       <use xlink:href="#DejaVuSans-2e" x="127.246094"/>
       <use xlink:href="#DejaVuSans-30" x="159.033203"/>
       <use xlink:href="#DejaVuSans-34" x="222.65625"/>
       <use xlink:href="#DejaVuSans-2e" x="286.279297"/>
       <use xlink:href="#DejaVuSans-32" x="318.066406"/>
       <use xlink:href="#DejaVuSans-30" x="381.689453"/>
       <use xlink:href="#DejaVuSans-32" x="445.3125"/>
       <use xlink:href="#DejaVuSans-31" x="508.935547"/>
      </g>
     </g>
    </g>
    <g id="xtick_10">
     <g id="line2d_19">
      <path d="M 334.927257 470.728203 
L 334.927257 29.118125 
" clip-path="url(#p6d137c327e)" style="fill: none; stroke: #cccccc; stroke-linecap: round"/>
     </g>
     <g id="line2d_20">
      <g>
       <use xlink:href="#m964de1e9c6" x="334.927257" y="470.728203" style="fill: #262626; stroke: #262626; stroke-width: 1.25"/>
      </g>
     </g>
     <g id="text_10">
      <!-- 04.05.2021 -->
      <g style="fill: #262626" transform="translate(288.774729 530.673311)rotate(-45)scale(0.11 -0.11)">
       <defs>
        <path id="DejaVuSans-35" d="M 691 4666 
L 3169 4666 
L 3169 4134 
L 1269 4134 
L 1269 2991 
Q 1406 3038 1543 3061 
Q 1681 3084 1819 3084 
Q 2600 3084 3056 2656 
Q 3513 2228 3513 1497 
Q 3513 744 3044 326 
Q 2575 -91 1722 -91 
Q 1428 -91 1123 -41 
Q 819 9 494 109 
L 494 744 
Q 775 591 1075 516 
Q 1375 441 1709 441 
Q 2250 441 2565 725 
Q 2881 1009 2881 1497 
Q 2881 1984 2565 2268 
Q 2250 2553 1709 2553 
Q 1456 2553 1204 2497 
Q 953 2441 691 2322 
L 691 4666 
z
" transform="scale(0.015625)"/>
       </defs>
       <use xlink:href="#DejaVuSans-30"/>
       <use xlink:href="#DejaVuSans-34" x="63.623047"/>
       <use xlink:href="#DejaVuSans-2e" x="127.246094"/>
       <use xlink:href="#DejaVuSans-30" x="159.033203"/>
       <use xlink:href="#DejaVuSans-35" x="222.65625"/>
       <use xlink:href="#DejaVuSans-2e" x="286.279297"/>
       <use xlink:href="#DejaVuSans-32" x="318.066406"/>
       <use xlink:href="#DejaVuSans-30" x="381.689453"/>
       <use xlink:href="#DejaVuSans-32" x="445.3125"/>
       <use xlink:href="#DejaVuSans-31" x="508.935547"/>
      </g>
     </g>
    </g>
    <g id="xtick_11">
     <g id="line2d_21">
      <path d="M 362.713979 470.728203 
L 362.713979 29.118125 
" clip-path="url(#p6d137c327e)" style="fill: none; stroke: #cccccc; stroke-linecap: round"/>
     </g>
     <g id="line2d_22">
      <g>
       <use xlink:href="#m964de1e9c6" x="362.713979" y="470.728203" style="fill: #262626; stroke: #262626; stroke-width: 1.25"/>
      </g>
     </g>
     <g id="text_11">
      <!-- 18.05.2021 -->
      <g style="fill: #262626" transform="translate(316.561451 530.673311)rotate(-45)scale(0.11 -0.11)">
       <defs>
        <path id="DejaVuSans-38" d="M 2034 2216 
Q 1584 2216 1326 1975 
Q 1069 1734 1069 1313 
Q 1069 891 1326 650 
Q 1584 409 2034 409 
Q 2484 409 2743 651 
Q 3003 894 3003 1313 
Q 3003 1734 2745 1975 
Q 2488 2216 2034 2216 
z
M 1403 2484 
Q 997 2584 770 2862 
Q 544 3141 544 3541 
Q 544 4100 942 4425 
Q 1341 4750 2034 4750 
Q 2731 4750 3128 4425 
Q 3525 4100 3525 3541 
Q 3525 3141 3298 2862 
Q 3072 2584 2669 2484 
Q 3125 2378 3379 2068 
Q 3634 1759 3634 1313 
Q 3634 634 3220 271 
Q 2806 -91 2034 -91 
Q 1263 -91 848 271 
Q 434 634 434 1313 
Q 434 1759 690 2068 
Q 947 2378 1403 2484 
z
M 1172 3481 
Q 1172 3119 1398 2916 
Q 1625 2713 2034 2713 
Q 2441 2713 2670 2916 
Q 2900 3119 2900 3481 
Q 2900 3844 2670 4047 
Q 2441 4250 2034 4250 
Q 1625 4250 1398 4047 
Q 1172 3844 1172 3481 
z
" transform="scale(0.015625)"/>
       </defs>
       <use xlink:href="#DejaVuSans-31"/>
       <use xlink:href="#DejaVuSans-38" x="63.623047"/>
       <use xlink:href="#DejaVuSans-2e" x="127.246094"/>
       <use xlink:href="#DejaVuSans-30" x="159.033203"/>
       <use xlink:href="#DejaVuSans-35" x="222.65625"/>
       <use xlink:href="#DejaVuSans-2e" x="286.279297"/>
       <use xlink:href="#DejaVuSans-32" x="318.066406"/>
       <use xlink:href="#DejaVuSans-30" x="381.689453"/>
       <use xlink:href="#DejaVuSans-32" x="445.3125"/>
       <use xlink:href="#DejaVuSans-31" x="508.935547"/>
      </g>
     </g>
    </g>
    <g id="xtick_12">
     <g id="line2d_23">
      <path d="M 390.500701 470.728203 
L 390.500701 29.118125 
" clip-path="url(#p6d137c327e)" style="fill: none; stroke: #cccccc; stroke-linecap: round"/>
     </g>
     <g id="line2d_24">
      <g>
       <use xlink:href="#m964de1e9c6" x="390.500701" y="470.728203" style="fill: #262626; stroke: #262626; stroke-width: 1.25"/>
      </g>
     </g>
     <g id="text_12">
      <!-- 01.06.2021 -->
      <g style="fill: #262626" transform="translate(344.348173 530.673311)rotate(-45)scale(0.11 -0.11)">
       <use xlink:href="#DejaVuSans-30"/>
       <use xlink:href="#DejaVuSans-31" x="63.623047"/>
       <use xlink:href="#DejaVuSans-2e" x="127.246094"/>
       <use xlink:href="#DejaVuSans-30" x="159.033203"/>
       <use xlink:href="#DejaVuSans-36" x="222.65625"/>
       <use xlink:href="#DejaVuSans-2e" x="286.279297"/>
       <use xlink:href="#DejaVuSans-32" x="318.066406"/>
       <use xlink:href="#DejaVuSans-30" x="381.689453"/>
       <use xlink:href="#DejaVuSans-32" x="445.3125"/>
       <use xlink:href="#DejaVuSans-31" x="508.935547"/>
      </g>
     </g>
    </g>
    <g id="xtick_13">
     <g id="line2d_25">
      <path d="M 418.287423 470.728203 
L 418.287423 29.118125 
" clip-path="url(#p6d137c327e)" style="fill: none; stroke: #cccccc; stroke-linecap: round"/>
     </g>
     <g id="line2d_26">
      <g>
       <use xlink:href="#m964de1e9c6" x="418.287423" y="470.728203" style="fill: #262626; stroke: #262626; stroke-width: 1.25"/>
      </g>
     </g>
     <g id="text_13">
      <!-- 15.06.2021 -->
      <g style="fill: #262626" transform="translate(372.134894 530.673311)rotate(-45)scale(0.11 -0.11)">
       <use xlink:href="#DejaVuSans-31"/>
       <use xlink:href="#DejaVuSans-35" x="63.623047"/>
       <use xlink:href="#DejaVuSans-2e" x="127.246094"/>
       <use xlink:href="#DejaVuSans-30" x="159.033203"/>
       <use xlink:href="#DejaVuSans-36" x="222.65625"/>
       <use xlink:href="#DejaVuSans-2e" x="286.279297"/>
       <use xlink:href="#DejaVuSans-32" x="318.066406"/>
       <use xlink:href="#DejaVuSans-30" x="381.689453"/>
       <use xlink:href="#DejaVuSans-32" x="445.3125"/>
       <use xlink:href="#DejaVuSans-31" x="508.935547"/>
      </g>
     </g>
    </g>
    <g id="xtick_14">
     <g id="line2d_27">
      <path d="M 446.074144 470.728203 
L 446.074144 29.118125 
" clip-path="url(#p6d137c327e)" style="fill: none; stroke: #cccccc; stroke-linecap: round"/>
     </g>
     <g id="line2d_28">
      <g>
       <use xlink:href="#m964de1e9c6" x="446.074144" y="470.728203" style="fill: #262626; stroke: #262626; stroke-width: 1.25"/>
      </g>
     </g>
     <g id="text_14">
      <!-- 29.06.2021 -->
      <g style="fill: #262626" transform="translate(399.921616 530.673311)rotate(-45)scale(0.11 -0.11)">
       <use xlink:href="#DejaVuSans-32"/>
       <use xlink:href="#DejaVuSans-39" x="63.623047"/>
       <use xlink:href="#DejaVuSans-2e" x="127.246094"/>
       <use xlink:href="#DejaVuSans-30" x="159.033203"/>
       <use xlink:href="#DejaVuSans-36" x="222.65625"/>
       <use xlink:href="#DejaVuSans-2e" x="286.279297"/>
       <use xlink:href="#DejaVuSans-32" x="318.066406"/>
       <use xlink:href="#DejaVuSans-30" x="381.689453"/>
       <use xlink:href="#DejaVuSans-32" x="445.3125"/>
       <use xlink:href="#DejaVuSans-31" x="508.935547"/>
      </g>
     </g>
    </g>
    <g id="xtick_15">
     <g id="line2d_29">
      <path d="M 473.860866 470.728203 
L 473.860866 29.118125 
" clip-path="url(#p6d137c327e)" style="fill: none; stroke: #cccccc; stroke-linecap: round"/>
     </g>
     <g id="line2d_30">
      <g>
       <use xlink:href="#m964de1e9c6" x="473.860866" y="470.728203" style="fill: #262626; stroke: #262626; stroke-width: 1.25"/>
      </g>
     </g>
     <g id="text_15">
      <!-- 13.07.2021 -->
      <g style="fill: #262626" transform="translate(427.708338 530.673311)rotate(-45)scale(0.11 -0.11)">
       <defs>
        <path id="DejaVuSans-37" d="M 525 4666 
L 3525 4666 
L 3525 4397 
L 1831 0 
L 1172 0 
L 2766 4134 
L 525 4134 
L 525 4666 
z
" transform="scale(0.015625)"/>
       </defs>
       <use xlink:href="#DejaVuSans-31"/>
       <use xlink:href="#DejaVuSans-33" x="63.623047"/>
       <use xlink:href="#DejaVuSans-2e" x="127.246094"/>
       <use xlink:href="#DejaVuSans-30" x="159.033203"/>
       <use xlink:href="#DejaVuSans-37" x="222.65625"/>
       <use xlink:href="#DejaVuSans-2e" x="286.279297"/>
       <use xlink:href="#DejaVuSans-32" x="318.066406"/>
       <use xlink:href="#DejaVuSans-30" x="381.689453"/>
       <use xlink:href="#DejaVuSans-32" x="445.3125"/>
       <use xlink:href="#DejaVuSans-31" x="508.935547"/>
      </g>
     </g>
    </g>
    <g id="xtick_16">
     <g id="line2d_31">
      <path d="M 501.647588 470.728203 
L 501.647588 29.118125 
" clip-path="url(#p6d137c327e)" style="fill: none; stroke: #cccccc; stroke-linecap: round"/>
     </g>
     <g id="line2d_32">
      <g>
       <use xlink:href="#m964de1e9c6" x="501.647588" y="470.728203" style="fill: #262626; stroke: #262626; stroke-width: 1.25"/>
      </g>
     </g>
     <g id="text_16">
      <!-- 27.07.2021 -->
      <g style="fill: #262626" transform="translate(455.49506 530.673311)rotate(-45)scale(0.11 -0.11)">
       <use xlink:href="#DejaVuSans-32"/>
       <use xlink:href="#DejaVuSans-37" x="63.623047"/>
       <use xlink:href="#DejaVuSans-2e" x="127.246094"/>
       <use xlink:href="#DejaVuSans-30" x="159.033203"/>
       <use xlink:href="#DejaVuSans-37" x="222.65625"/>
       <use xlink:href="#DejaVuSans-2e" x="286.279297"/>
       <use xlink:href="#DejaVuSans-32" x="318.066406"/>
       <use xlink:href="#DejaVuSans-30" x="381.689453"/>
       <use xlink:href="#DejaVuSans-32" x="445.3125"/>
       <use xlink:href="#DejaVuSans-31" x="508.935547"/>
      </g>
     </g>
    </g>
    <g id="xtick_17">
     <g id="line2d_33">
      <path d="M 529.43431 470.728203 
L 529.43431 29.118125 
" clip-path="url(#p6d137c327e)" style="fill: none; stroke: #cccccc; stroke-linecap: round"/>
     </g>
     <g id="line2d_34">
      <g>
       <use xlink:href="#m964de1e9c6" x="529.43431" y="470.728203" style="fill: #262626; stroke: #262626; stroke-width: 1.25"/>
      </g>
     </g>
     <g id="text_17">
      <!-- 10.08.2021 -->
      <g style="fill: #262626" transform="translate(483.281781 530.673311)rotate(-45)scale(0.11 -0.11)">
       <use xlink:href="#DejaVuSans-31"/>
       <use xlink:href="#DejaVuSans-30" x="63.623047"/>
       <use xlink:href="#DejaVuSans-2e" x="127.246094"/>
       <use xlink:href="#DejaVuSans-30" x="159.033203"/>
       <use xlink:href="#DejaVuSans-38" x="222.65625"/>
       <use xlink:href="#DejaVuSans-2e" x="286.279297"/>
       <use xlink:href="#DejaVuSans-32" x="318.066406"/>
       <use xlink:href="#DejaVuSans-30" x="381.689453"/>
       <use xlink:href="#DejaVuSans-32" x="445.3125"/>
       <use xlink:href="#DejaVuSans-31" x="508.935547"/>
      </g>
     </g>
    </g>
    <g id="xtick_18">
     <g id="line2d_35">
      <path d="M 557.221031 470.728203 
L 557.221031 29.118125 
" clip-path="url(#p6d137c327e)" style="fill: none; stroke: #cccccc; stroke-linecap: round"/>
     </g>
     <g id="line2d_36">
      <g>
       <use xlink:href="#m964de1e9c6" x="557.221031" y="470.728203" style="fill: #262626; stroke: #262626; stroke-width: 1.25"/>
      </g>
     </g>
     <g id="text_18">
      <!-- 24.08.2021 -->
      <g style="fill: #262626" transform="translate(511.068503 530.673311)rotate(-45)scale(0.11 -0.11)">
       <use xlink:href="#DejaVuSans-32"/>
       <use xlink:href="#DejaVuSans-34" x="63.623047"/>
       <use xlink:href="#DejaVuSans-2e" x="127.246094"/>
       <use xlink:href="#DejaVuSans-30" x="159.033203"/>
       <use xlink:href="#DejaVuSans-38" x="222.65625"/>
       <use xlink:href="#DejaVuSans-2e" x="286.279297"/>
       <use xlink:href="#DejaVuSans-32" x="318.066406"/>
       <use xlink:href="#DejaVuSans-30" x="381.689453"/>
       <use xlink:href="#DejaVuSans-32" x="445.3125"/>
       <use xlink:href="#DejaVuSans-31" x="508.935547"/>
      </g>
     </g>
    </g>
    <g id="xtick_19">
     <g id="line2d_37">
      <path d="M 585.007753 470.728203 
L 585.007753 29.118125 
" clip-path="url(#p6d137c327e)" style="fill: none; stroke: #cccccc; stroke-linecap: round"/>
     </g>
     <g id="line2d_38">
      <g>
       <use xlink:href="#m964de1e9c6" x="585.007753" y="470.728203" style="fill: #262626; stroke: #262626; stroke-width: 1.25"/>
      </g>
     </g>
     <g id="text_19">
      <!-- 07.09.2021 -->
      <g style="fill: #262626" transform="translate(538.855225 530.673311)rotate(-45)scale(0.11 -0.11)">
       <use xlink:href="#DejaVuSans-30"/>
       <use xlink:href="#DejaVuSans-37" x="63.623047"/>
       <use xlink:href="#DejaVuSans-2e" x="127.246094"/>
       <use xlink:href="#DejaVuSans-30" x="159.033203"/>
       <use xlink:href="#DejaVuSans-39" x="222.65625"/>
       <use xlink:href="#DejaVuSans-2e" x="286.279297"/>
       <use xlink:href="#DejaVuSans-32" x="318.066406"/>
       <use xlink:href="#DejaVuSans-30" x="381.689453"/>
       <use xlink:href="#DejaVuSans-32" x="445.3125"/>
       <use xlink:href="#DejaVuSans-31" x="508.935547"/>
      </g>
     </g>
    </g>
    <g id="xtick_20">
     <g id="line2d_39">
      <path d="M 612.794475 470.728203 
L 612.794475 29.118125 
" clip-path="url(#p6d137c327e)" style="fill: none; stroke: #cccccc; stroke-linecap: round"/>
     </g>
     <g id="line2d_40">
      <g>
       <use xlink:href="#m964de1e9c6" x="612.794475" y="470.728203" style="fill: #262626; stroke: #262626; stroke-width: 1.25"/>
      </g>
     </g>
     <g id="text_20">
      <!-- 21.09.2021 -->
      <g style="fill: #262626" transform="translate(566.641947 530.673311)rotate(-45)scale(0.11 -0.11)">
       <use xlink:href="#DejaVuSans-32"/>
       <use xlink:href="#DejaVuSans-31" x="63.623047"/>
       <use xlink:href="#DejaVuSans-2e" x="127.246094"/>
       <use xlink:href="#DejaVuSans-30" x="159.033203"/>
       <use xlink:href="#DejaVuSans-39" x="222.65625"/>
       <use xlink:href="#DejaVuSans-2e" x="286.279297"/>
       <use xlink:href="#DejaVuSans-32" x="318.066406"/>
       <use xlink:href="#DejaVuSans-30" x="381.689453"/>
       <use xlink:href="#DejaVuSans-32" x="445.3125"/>
       <use xlink:href="#DejaVuSans-31" x="508.935547"/>
      </g>
     </g>
    </g>
    <g id="xtick_21">
     <g id="line2d_41">
      <path d="M 640.581197 470.728203 
L 640.581197 29.118125 
" clip-path="url(#p6d137c327e)" style="fill: none; stroke: #cccccc; stroke-linecap: round"/>
     </g>
     <g id="line2d_42">
      <g>
       <use xlink:href="#m964de1e9c6" x="640.581197" y="470.728203" style="fill: #262626; stroke: #262626; stroke-width: 1.25"/>
      </g>
     </g>
     <g id="text_21">
      <!-- 05.10.2021 -->
      <g style="fill: #262626" transform="translate(594.428668 530.673311)rotate(-45)scale(0.11 -0.11)">
       <use xlink:href="#DejaVuSans-30"/>
       <use xlink:href="#DejaVuSans-35" x="63.623047"/>
       <use xlink:href="#DejaVuSans-2e" x="127.246094"/>
       <use xlink:href="#DejaVuSans-31" x="159.033203"/>
       <use xlink:href="#DejaVuSans-30" x="222.65625"/>
       <use xlink:href="#DejaVuSans-2e" x="286.279297"/>
       <use xlink:href="#DejaVuSans-32" x="318.066406"/>
       <use xlink:href="#DejaVuSans-30" x="381.689453"/>
       <use xlink:href="#DejaVuSans-32" x="445.3125"/>
       <use xlink:href="#DejaVuSans-31" x="508.935547"/>
      </g>
     </g>
    </g>
    <g id="xtick_22">
     <g id="line2d_43">
      <path d="M 668.367918 470.728203 
L 668.367918 29.118125 
" clip-path="url(#p6d137c327e)" style="fill: none; stroke: #cccccc; stroke-linecap: round"/>
     </g>
     <g id="line2d_44">
      <g>
       <use xlink:href="#m964de1e9c6" x="668.367918" y="470.728203" style="fill: #262626; stroke: #262626; stroke-width: 1.25"/>
      </g>
     </g>
     <g id="text_22">
      <!-- 19.10.2021 -->
      <g style="fill: #262626" transform="translate(622.21539 530.673311)rotate(-45)scale(0.11 -0.11)">
       <use xlink:href="#DejaVuSans-31"/>
       <use xlink:href="#DejaVuSans-39" x="63.623047"/>
       <use xlink:href="#DejaVuSans-2e" x="127.246094"/>
       <use xlink:href="#DejaVuSans-31" x="159.033203"/>
       <use xlink:href="#DejaVuSans-30" x="222.65625"/>
       <use xlink:href="#DejaVuSans-2e" x="286.279297"/>
       <use xlink:href="#DejaVuSans-32" x="318.066406"/>
       <use xlink:href="#DejaVuSans-30" x="381.689453"/>
       <use xlink:href="#DejaVuSans-32" x="445.3125"/>
       <use xlink:href="#DejaVuSans-31" x="508.935547"/>
      </g>
     </g>
    </g>
    <g id="xtick_23">
     <g id="line2d_45">
      <path d="M 696.15464 470.728203 
L 696.15464 29.118125 
" clip-path="url(#p6d137c327e)" style="fill: none; stroke: #cccccc; stroke-linecap: round"/>
     </g>
     <g id="line2d_46">
      <g>
       <use xlink:href="#m964de1e9c6" x="696.15464" y="470.728203" style="fill: #262626; stroke: #262626; stroke-width: 1.25"/>
      </g>
     </g>
     <g id="text_23">
      <!-- 02.11.2021 -->
      <g style="fill: #262626" transform="translate(650.002112 530.673311)rotate(-45)scale(0.11 -0.11)">
       <use xlink:href="#DejaVuSans-30"/>
       <use xlink:href="#DejaVuSans-32" x="63.623047"/>
       <use xlink:href="#DejaVuSans-2e" x="127.246094"/>
       <use xlink:href="#DejaVuSans-31" x="159.033203"/>
       <use xlink:href="#DejaVuSans-31" x="222.65625"/>
       <use xlink:href="#DejaVuSans-2e" x="286.279297"/>
       <use xlink:href="#DejaVuSans-32" x="318.066406"/>
       <use xlink:href="#DejaVuSans-30" x="381.689453"/>
       <use xlink:href="#DejaVuSans-32" x="445.3125"/>
       <use xlink:href="#DejaVuSans-31" x="508.935547"/>
      </g>
     </g>
    </g>
    <g id="xtick_24">
     <g id="line2d_47">
      <path d="M 723.941362 470.728203 
L 723.941362 29.118125 
" clip-path="url(#p6d137c327e)" style="fill: none; stroke: #cccccc; stroke-linecap: round"/>
     </g>
     <g id="line2d_48">
      <g>
       <use xlink:href="#m964de1e9c6" x="723.941362" y="470.728203" style="fill: #262626; stroke: #262626; stroke-width: 1.25"/>
      </g>
     </g>
     <g id="text_24">
      <!-- 16.11.2021 -->
      <g style="fill: #262626" transform="translate(677.788834 530.673311)rotate(-45)scale(0.11 -0.11)">
       <use xlink:href="#DejaVuSans-31"/>
       <use xlink:href="#DejaVuSans-36" x="63.623047"/>
       <use xlink:href="#DejaVuSans-2e" x="127.246094"/>
       <use xlink:href="#DejaVuSans-31" x="159.033203"/>
       <use xlink:href="#DejaVuSans-31" x="222.65625"/>
       <use xlink:href="#DejaVuSans-2e" x="286.279297"/>
       <use xlink:href="#DejaVuSans-32" x="318.066406"/>
       <use xlink:href="#DejaVuSans-30" x="381.689453"/>
       <use xlink:href="#DejaVuSans-32" x="445.3125"/>
       <use xlink:href="#DejaVuSans-31" x="508.935547"/>
      </g>
     </g>
    </g>
    <g id="xtick_25">
     <g id="line2d_49">
      <defs>
       <path id="maf8e191257" d="M 0 0 
L 0 4 
" style="stroke: #262626"/>
      </defs>
      <g>
       <use xlink:href="#maf8e191257" x="64.999103" y="470.728203" style="fill: #262626; stroke: #262626"/>
      </g>
     </g>
    </g>
    <g id="xtick_26">
     <g id="line2d_50">
      <g>
       <use xlink:href="#maf8e191257" x="78.892464" y="470.728203" style="fill: #262626; stroke: #262626"/>
      </g>
     </g>
    </g>
    <g id="xtick_27">
     <g id="line2d_51">
      <g>
       <use xlink:href="#maf8e191257" x="92.785825" y="470.728203" style="fill: #262626; stroke: #262626"/>
      </g>
     </g>
    </g>
    <g id="xtick_28">
     <g id="line2d_52">
      <g>
       <use xlink:href="#maf8e191257" x="106.679186" y="470.728203" style="fill: #262626; stroke: #262626"/>
      </g>
     </g>
    </g>
    <g id="xtick_29">
     <g id="line2d_53">
      <g>
       <use xlink:href="#maf8e191257" x="120.572546" y="470.728203" style="fill: #262626; stroke: #262626"/>
      </g>
     </g>
    </g>
    <g id="xtick_30">
     <g id="line2d_54">
      <g>
       <use xlink:href="#maf8e191257" x="134.465907" y="470.728203" style="fill: #262626; stroke: #262626"/>
      </g>
     </g>
    </g>
    <g id="xtick_31">
     <g id="line2d_55">
      <g>
       <use xlink:href="#maf8e191257" x="148.359268" y="470.728203" style="fill: #262626; stroke: #262626"/>
      </g>
     </g>
    </g>
    <g id="xtick_32">
     <g id="line2d_56">
      <g>
       <use xlink:href="#maf8e191257" x="162.252629" y="470.728203" style="fill: #262626; stroke: #262626"/>
      </g>
     </g>
    </g>
    <g id="xtick_33">
     <g id="line2d_57">
      <g>
       <use xlink:href="#maf8e191257" x="176.14599" y="470.728203" style="fill: #262626; stroke: #262626"/>
      </g>
     </g>
    </g>
    <g id="xtick_34">
     <g id="line2d_58">
      <g>
       <use xlink:href="#maf8e191257" x="190.039351" y="470.728203" style="fill: #262626; stroke: #262626"/>
      </g>
     </g>
    </g>
    <g id="xtick_35">
     <g id="line2d_59">
      <g>
       <use xlink:href="#maf8e191257" x="203.932712" y="470.728203" style="fill: #262626; stroke: #262626"/>
      </g>
     </g>
    </g>
    <g id="xtick_36">
     <g id="line2d_60">
      <g>
       <use xlink:href="#maf8e191257" x="217.826073" y="470.728203" style="fill: #262626; stroke: #262626"/>
      </g>
     </g>
    </g>
    <g id="xtick_37">
     <g id="line2d_61">
      <g>
       <use xlink:href="#maf8e191257" x="231.719434" y="470.728203" style="fill: #262626; stroke: #262626"/>
      </g>
     </g>
    </g>
    <g id="xtick_38">
     <g id="line2d_62">
      <g>
       <use xlink:href="#maf8e191257" x="245.612794" y="470.728203" style="fill: #262626; stroke: #262626"/>
      </g>
     </g>
    </g>
    <g id="xtick_39">
     <g id="line2d_63">
      <g>
       <use xlink:href="#maf8e191257" x="259.506155" y="470.728203" style="fill: #262626; stroke: #262626"/>
      </g>
     </g>
    </g>
    <g id="xtick_40">
     <g id="line2d_64">
      <g>
       <use xlink:href="#maf8e191257" x="273.399516" y="470.728203" style="fill: #262626; stroke: #262626"/>
      </g>
     </g>
    </g>
    <g id="xtick_41">
     <g id="line2d_65">
      <g>
       <use xlink:href="#maf8e191257" x="287.292877" y="470.728203" style="fill: #262626; stroke: #262626"/>
      </g>
     </g>
    </g>
    <g id="xtick_42">
     <g id="line2d_66">
      <g>
       <use xlink:href="#maf8e191257" x="301.186238" y="470.728203" style="fill: #262626; stroke: #262626"/>
      </g>
     </g>
    </g>
    <g id="xtick_43">
     <g id="line2d_67">
      <g>
       <use xlink:href="#maf8e191257" x="315.079599" y="470.728203" style="fill: #262626; stroke: #262626"/>
      </g>
     </g>
    </g>
    <g id="xtick_44">
     <g id="line2d_68">
      <g>
       <use xlink:href="#maf8e191257" x="328.97296" y="470.728203" style="fill: #262626; stroke: #262626"/>
      </g>
     </g>
    </g>
    <g id="xtick_45">
     <g id="line2d_69">
      <g>
       <use xlink:href="#maf8e191257" x="342.866321" y="470.728203" style="fill: #262626; stroke: #262626"/>
      </g>
     </g>
    </g>
    <g id="xtick_46">
     <g id="line2d_70">
      <g>
       <use xlink:href="#maf8e191257" x="356.759681" y="470.728203" style="fill: #262626; stroke: #262626"/>
      </g>
     </g>
    </g>
    <g id="xtick_47">
     <g id="line2d_71">
      <g>
       <use xlink:href="#maf8e191257" x="370.653042" y="470.728203" style="fill: #262626; stroke: #262626"/>
      </g>
     </g>
    </g>
    <g id="xtick_48">
     <g id="line2d_72">
      <g>
       <use xlink:href="#maf8e191257" x="384.546403" y="470.728203" style="fill: #262626; stroke: #262626"/>
      </g>
     </g>
    </g>
    <g id="xtick_49">
     <g id="line2d_73">
      <g>
       <use xlink:href="#maf8e191257" x="398.439764" y="470.728203" style="fill: #262626; stroke: #262626"/>
      </g>
     </g>
    </g>
    <g id="xtick_50">
     <g id="line2d_74">
      <g>
       <use xlink:href="#maf8e191257" x="412.333125" y="470.728203" style="fill: #262626; stroke: #262626"/>
      </g>
     </g>
    </g>
    <g id="xtick_51">
     <g id="line2d_75">
      <g>
       <use xlink:href="#maf8e191257" x="426.226486" y="470.728203" style="fill: #262626; stroke: #262626"/>
      </g>
     </g>
    </g>
    <g id="xtick_52">
     <g id="line2d_76">
      <g>
       <use xlink:href="#maf8e191257" x="440.119847" y="470.728203" style="fill: #262626; stroke: #262626"/>
      </g>
     </g>
    </g>
    <g id="xtick_53">
     <g id="line2d_77">
      <g>
       <use xlink:href="#maf8e191257" x="454.013208" y="470.728203" style="fill: #262626; stroke: #262626"/>
      </g>
     </g>
    </g>
    <g id="xtick_54">
     <g id="line2d_78">
      <g>
       <use xlink:href="#maf8e191257" x="467.906569" y="470.728203" style="fill: #262626; stroke: #262626"/>
      </g>
     </g>
    </g>
    <g id="xtick_55">
     <g id="line2d_79">
      <g>
       <use xlink:href="#maf8e191257" x="481.799929" y="470.728203" style="fill: #262626; stroke: #262626"/>
      </g>
     </g>
    </g>
    <g id="xtick_56">
     <g id="line2d_80">
      <g>
       <use xlink:href="#maf8e191257" x="495.69329" y="470.728203" style="fill: #262626; stroke: #262626"/>
      </g>
     </g>
    </g>
    <g id="xtick_57">
     <g id="line2d_81">
      <g>
       <use xlink:href="#maf8e191257" x="509.586651" y="470.728203" style="fill: #262626; stroke: #262626"/>
      </g>
     </g>
    </g>
    <g id="xtick_58">
     <g id="line2d_82">
      <g>
       <use xlink:href="#maf8e191257" x="523.480012" y="470.728203" style="fill: #262626; stroke: #262626"/>
      </g>
     </g>
    </g>
    <g id="xtick_59">
     <g id="line2d_83">
      <g>
       <use xlink:href="#maf8e191257" x="537.373373" y="470.728203" style="fill: #262626; stroke: #262626"/>
      </g>
     </g>
    </g>
    <g id="xtick_60">
     <g id="line2d_84">
      <g>
       <use xlink:href="#maf8e191257" x="551.266734" y="470.728203" style="fill: #262626; stroke: #262626"/>
      </g>
     </g>
    </g>
    <g id="xtick_61">
     <g id="line2d_85">
      <g>
       <use xlink:href="#maf8e191257" x="565.160095" y="470.728203" style="fill: #262626; stroke: #262626"/>
      </g>
     </g>
    </g>
    <g id="xtick_62">
     <g id="line2d_86">
      <g>
       <use xlink:href="#maf8e191257" x="579.053456" y="470.728203" style="fill: #262626; stroke: #262626"/>
      </g>
     </g>
    </g>
    <g id="xtick_63">
     <g id="line2d_87">
      <g>
       <use xlink:href="#maf8e191257" x="592.946816" y="470.728203" style="fill: #262626; stroke: #262626"/>
      </g>
     </g>
    </g>
    <g id="xtick_64">
     <g id="line2d_88">
      <g>
       <use xlink:href="#maf8e191257" x="606.840177" y="470.728203" style="fill: #262626; stroke: #262626"/>
      </g>
     </g>
    </g>
    <g id="xtick_65">
     <g id="line2d_89">
      <g>
       <use xlink:href="#maf8e191257" x="620.733538" y="470.728203" style="fill: #262626; stroke: #262626"/>
      </g>
     </g>
    </g>
    <g id="xtick_66">
     <g id="line2d_90">
      <g>
       <use xlink:href="#maf8e191257" x="634.626899" y="470.728203" style="fill: #262626; stroke: #262626"/>
      </g>
     </g>
    </g>
    <g id="xtick_67">
     <g id="line2d_91">
      <g>
       <use xlink:href="#maf8e191257" x="648.52026" y="470.728203" style="fill: #262626; stroke: #262626"/>
      </g>
     </g>
    </g>
    <g id="xtick_68">
     <g id="line2d_92">
      <g>
       <use xlink:href="#maf8e191257" x="662.413621" y="470.728203" style="fill: #262626; stroke: #262626"/>
      </g>
     </g>
    </g>
    <g id="xtick_69">
     <g id="line2d_93">
      <g>
       <use xlink:href="#maf8e191257" x="676.306982" y="470.728203" style="fill: #262626; stroke: #262626"/>
      </g>
     </g>
    </g>
    <g id="xtick_70">
     <g id="line2d_94">
      <g>
       <use xlink:href="#maf8e191257" x="690.200343" y="470.728203" style="fill: #262626; stroke: #262626"/>
      </g>
     </g>
    </g>
    <g id="xtick_71">
     <g id="line2d_95">
      <g>
       <use xlink:href="#maf8e191257" x="704.093704" y="470.728203" style="fill: #262626; stroke: #262626"/>
      </g>
     </g>
    </g>
    <g id="xtick_72">
     <g id="line2d_96">
      <g>
       <use xlink:href="#maf8e191257" x="717.987064" y="470.728203" style="fill: #262626; stroke: #262626"/>
      </g>
     </g>
    </g>
    <g id="xtick_73">
     <g id="line2d_97">
      <g>
       <use xlink:href="#maf8e191257" x="731.880425" y="470.728203" style="fill: #262626; stroke: #262626"/>
      </g>
     </g>
    </g>
    <g id="xtick_74">
     <g id="line2d_98">
      <g>
       <use xlink:href="#maf8e191257" x="745.773786" y="470.728203" style="fill: #262626; stroke: #262626"/>
      </g>
     </g>
    </g>
    <g id="xtick_75">
     <g id="line2d_99">
      <g>
       <use xlink:href="#maf8e191257" x="759.667147" y="470.728203" style="fill: #262626; stroke: #262626"/>
      </g>
     </g>
    </g>
    <g id="text_25">
     <!-- Дата -->
     <g style="fill: #262626" transform="translate(396.796875 545.409053)scale(0.12 -0.12)">
      <defs>
       <path id="DejaVuSans-414" d="M 1459 531 
L 3522 531 
L 3522 4134 
L 2006 4134 
L 2006 3472 
Q 2006 1913 1656 878 
Q 1584 666 1459 531 
z
M 538 531 
Q 956 728 1075 1103 
Q 1378 2066 1378 3784 
L 1378 4666 
L 4153 4666 
L 4153 531 
L 4684 531 
L 4684 -1003 
L 4153 -1003 
L 4153 0 
L 847 0 
L 847 -1003 
L 316 -1003 
L 316 531 
L 538 531 
z
" transform="scale(0.015625)"/>
       <path id="DejaVuSans-430" d="M 2194 1759 
Q 1497 1759 1228 1600 
Q 959 1441 959 1056 
Q 959 750 1161 570 
Q 1363 391 1709 391 
Q 2188 391 2477 730 
Q 2766 1069 2766 1631 
L 2766 1759 
L 2194 1759 
z
M 3341 1997 
L 3341 0 
L 2766 0 
L 2766 531 
Q 2569 213 2275 61 
Q 1981 -91 1556 -91 
Q 1019 -91 701 211 
Q 384 513 384 1019 
Q 384 1609 779 1909 
Q 1175 2209 1959 2209 
L 2766 2209 
L 2766 2266 
Q 2766 2663 2505 2880 
Q 2244 3097 1772 3097 
Q 1472 3097 1187 3025 
Q 903 2953 641 2809 
L 641 3341 
Q 956 3463 1253 3523 
Q 1550 3584 1831 3584 
Q 2591 3584 2966 3190 
Q 3341 2797 3341 1997 
z
" transform="scale(0.015625)"/>
       <path id="DejaVuSans-442" d="M 188 3500 
L 3541 3500 
L 3541 3041 
L 2147 3041 
L 2147 0 
L 1581 0 
L 1581 3041 
L 188 3041 
L 188 3500 
z
" transform="scale(0.015625)"/>
      </defs>
      <use xlink:href="#DejaVuSans-414"/>
      <use xlink:href="#DejaVuSans-430" x="78.125"/>
      <use xlink:href="#DejaVuSans-442" x="139.404297"/>
      <use xlink:href="#DejaVuSans-430" x="197.65625"/>
     </g>
    </g>
   </g>
   <g id="matplotlib.axis_2">
    <g id="ytick_1">
     <g id="line2d_100">
      <path d="M 52.098125 451.137899 
L 772.568125 451.137899 
" clip-path="url(#p6d137c327e)" style="fill: none; stroke: #cccccc; stroke-linecap: round"/>
     </g>
     <g id="line2d_101">
      <defs>
       <path id="m9b641e9364" d="M 0 0 
L -6 0 
" style="stroke: #262626; stroke-width: 1.25"/>
      </defs>
      <g>
       <use xlink:href="#m9b641e9364" x="52.098125" y="451.137899" style="fill: #262626; stroke: #262626; stroke-width: 1.25"/>
      </g>
     </g>
     <g id="text_26">
      <!-- 0.0M -->
      <g style="fill: #262626" transform="translate(15.61375 455.31704)scale(0.11 -0.11)">
       <defs>
        <path id="DejaVuSans-4d" d="M 628 4666 
L 1569 4666 
L 2759 1491 
L 3956 4666 
L 4897 4666 
L 4897 0 
L 4281 0 
L 4281 4097 
L 3078 897 
L 2444 897 
L 1241 4097 
L 1241 0 
L 628 0 
L 628 4666 
z
" transform="scale(0.015625)"/>
       </defs>
       <use xlink:href="#DejaVuSans-30"/>
       <use xlink:href="#DejaVuSans-2e" x="63.623047"/>
       <use xlink:href="#DejaVuSans-30" x="95.410156"/>
       <use xlink:href="#DejaVuSans-4d" x="159.033203"/>
      </g>
     </g>
    </g>
    <g id="ytick_2">
     <g id="line2d_102">
      <path d="M 52.098125 389.134614 
L 772.568125 389.134614 
" clip-path="url(#p6d137c327e)" style="fill: none; stroke: #cccccc; stroke-linecap: round"/>
     </g>
     <g id="line2d_103">
      <g>
       <use xlink:href="#m9b641e9364" x="52.098125" y="389.134614" style="fill: #262626; stroke: #262626; stroke-width: 1.25"/>
      </g>
     </g>
     <g id="text_27">
      <!-- 0.5M -->
      <g style="fill: #262626" transform="translate(15.61375 393.313755)scale(0.11 -0.11)">
       <use xlink:href="#DejaVuSans-30"/>
       <use xlink:href="#DejaVuSans-2e" x="63.623047"/>
       <use xlink:href="#DejaVuSans-35" x="95.410156"/>
       <use xlink:href="#DejaVuSans-4d" x="159.033203"/>
      </g>
     </g>
    </g>
    <g id="ytick_3">
     <g id="line2d_104">
      <path d="M 52.098125 327.131329 
L 772.568125 327.131329 
" clip-path="url(#p6d137c327e)" style="fill: none; stroke: #cccccc; stroke-linecap: round"/>
     </g>
     <g id="line2d_105">
      <g>
       <use xlink:href="#m9b641e9364" x="52.098125" y="327.131329" style="fill: #262626; stroke: #262626; stroke-width: 1.25"/>
      </g>
     </g>
     <g id="text_28">
      <!-- 1.0M -->
      <g style="fill: #262626" transform="translate(15.61375 331.310469)scale(0.11 -0.11)">
       <use xlink:href="#DejaVuSans-31"/>
       <use xlink:href="#DejaVuSans-2e" x="63.623047"/>
       <use xlink:href="#DejaVuSans-30" x="95.410156"/>
       <use xlink:href="#DejaVuSans-4d" x="159.033203"/>
      </g>
     </g>
    </g>
    <g id="ytick_4">
     <g id="line2d_106">
      <path d="M 52.098125 265.128044 
L 772.568125 265.128044 
" clip-path="url(#p6d137c327e)" style="fill: none; stroke: #cccccc; stroke-linecap: round"/>
     </g>
     <g id="line2d_107">
      <g>
       <use xlink:href="#m9b641e9364" x="52.098125" y="265.128044" style="fill: #262626; stroke: #262626; stroke-width: 1.25"/>
      </g>
     </g>
     <g id="text_29">
      <!-- 1.5M -->
      <g style="fill: #262626" transform="translate(15.61375 269.307184)scale(0.11 -0.11)">
       <use xlink:href="#DejaVuSans-31"/>
       <use xlink:href="#DejaVuSans-2e" x="63.623047"/>
       <use xlink:href="#DejaVuSans-35" x="95.410156"/>
       <use xlink:href="#DejaVuSans-4d" x="159.033203"/>
      </g>
     </g>
    </g>
    <g id="ytick_5">
     <g id="line2d_108">
      <path d="M 52.098125 203.124758 
L 772.568125 203.124758 
" clip-path="url(#p6d137c327e)" style="fill: none; stroke: #cccccc; stroke-linecap: round"/>
     </g>
     <g id="line2d_109">
      <g>
       <use xlink:href="#m9b641e9364" x="52.098125" y="203.124758" style="fill: #262626; stroke: #262626; stroke-width: 1.25"/>
      </g>
     </g>
     <g id="text_30">
      <!-- 2.0M -->
      <g style="fill: #262626" transform="translate(15.61375 207.303899)scale(0.11 -0.11)">
       <use xlink:href="#DejaVuSans-32"/>
       <use xlink:href="#DejaVuSans-2e" x="63.623047"/>
       <use xlink:href="#DejaVuSans-30" x="95.410156"/>
       <use xlink:href="#DejaVuSans-4d" x="159.033203"/>
      </g>
     </g>
    </g>
    <g id="ytick_6">
     <g id="line2d_110">
      <path d="M 52.098125 141.121473 
L 772.568125 141.121473 
" clip-path="url(#p6d137c327e)" style="fill: none; stroke: #cccccc; stroke-linecap: round"/>
     </g>
     <g id="line2d_111">
      <g>
       <use xlink:href="#m9b641e9364" x="52.098125" y="141.121473" style="fill: #262626; stroke: #262626; stroke-width: 1.25"/>
      </g>
     </g>
     <g id="text_31">
      <!-- 2.5M -->
      <g style="fill: #262626" transform="translate(15.61375 145.300614)scale(0.11 -0.11)">
       <use xlink:href="#DejaVuSans-32"/>
       <use xlink:href="#DejaVuSans-2e" x="63.623047"/>
       <use xlink:href="#DejaVuSans-35" x="95.410156"/>
       <use xlink:href="#DejaVuSans-4d" x="159.033203"/>
      </g>
     </g>
    </g>
    <g id="ytick_7">
     <g id="line2d_112">
      <path d="M 52.098125 79.118188 
L 772.568125 79.118188 
" clip-path="url(#p6d137c327e)" style="fill: none; stroke: #cccccc; stroke-linecap: round"/>
     </g>
     <g id="line2d_113">
      <g>
       <use xlink:href="#m9b641e9364" x="52.098125" y="79.118188" style="fill: #262626; stroke: #262626; stroke-width: 1.25"/>
      </g>
     </g>
     <g id="text_32">
      <!-- 3.0M -->
      <g style="fill: #262626" transform="translate(15.61375 83.297329)scale(0.11 -0.11)">
       <use xlink:href="#DejaVuSans-33"/>
       <use xlink:href="#DejaVuSans-2e" x="63.623047"/>
       <use xlink:href="#DejaVuSans-30" x="95.410156"/>
       <use xlink:href="#DejaVuSans-4d" x="159.033203"/>
      </g>
     </g>
    </g>
    <g id="text_33">
     <!-- Поставени дози -->
     <g style="fill: #262626" transform="translate(9.118125 300.443164)rotate(-90)scale(0.12 -0.12)">
      <defs>
       <path id="DejaVuSans-41f" d="M 4184 4666 
L 4184 0 
L 3553 0 
L 3553 4134 
L 1259 4134 
L 1259 0 
L 628 0 
L 628 4666 
L 4184 4666 
z
" transform="scale(0.015625)"/>
       <path id="DejaVuSans-43e" d="M 1959 3097 
Q 1497 3097 1228 2736 
Q 959 2375 959 1747 
Q 959 1119 1226 758 
Q 1494 397 1959 397 
Q 2419 397 2687 759 
Q 2956 1122 2956 1747 
Q 2956 2369 2687 2733 
Q 2419 3097 1959 3097 
z
M 1959 3584 
Q 2709 3584 3137 3096 
Q 3566 2609 3566 1747 
Q 3566 888 3137 398 
Q 2709 -91 1959 -91 
Q 1206 -91 779 398 
Q 353 888 353 1747 
Q 353 2609 779 3096 
Q 1206 3584 1959 3584 
z
" transform="scale(0.015625)"/>
       <path id="DejaVuSans-441" d="M 3122 3366 
L 3122 2828 
Q 2878 2963 2633 3030 
Q 2388 3097 2138 3097 
Q 1578 3097 1268 2742 
Q 959 2388 959 1747 
Q 959 1106 1268 751 
Q 1578 397 2138 397 
Q 2388 397 2633 464 
Q 2878 531 3122 666 
L 3122 134 
Q 2881 22 2623 -34 
Q 2366 -91 2075 -91 
Q 1284 -91 818 406 
Q 353 903 353 1747 
Q 353 2603 823 3093 
Q 1294 3584 2113 3584 
Q 2378 3584 2631 3529 
Q 2884 3475 3122 3366 
z
" transform="scale(0.015625)"/>
       <path id="DejaVuSans-432" d="M 1156 1613 
L 1156 459 
L 1975 459 
Q 2369 459 2575 607 
Q 2781 756 2781 1038 
Q 2781 1319 2575 1466 
Q 2369 1613 1975 1613 
L 1156 1613 
z
M 1156 3041 
L 1156 2072 
L 1913 2072 
Q 2238 2072 2444 2201 
Q 2650 2331 2650 2563 
Q 2650 2794 2444 2917 
Q 2238 3041 1913 3041 
L 1156 3041 
z
M 581 3500 
L 1950 3500 
Q 2566 3500 2897 3275 
Q 3228 3050 3228 2634 
Q 3228 2313 3059 2123 
Q 2891 1934 2559 1888 
Q 2956 1813 3175 1575 
Q 3394 1338 3394 981 
Q 3394 513 3033 256 
Q 2672 0 2003 0 
L 581 0 
L 581 3500 
z
" transform="scale(0.015625)"/>
       <path id="DejaVuSans-435" d="M 3597 1894 
L 3597 1613 
L 953 1613 
Q 991 1019 1311 708 
Q 1631 397 2203 397 
Q 2534 397 2845 478 
Q 3156 559 3463 722 
L 3463 178 
Q 3153 47 2828 -22 
Q 2503 -91 2169 -91 
Q 1331 -91 842 396 
Q 353 884 353 1716 
Q 353 2575 817 3079 
Q 1281 3584 2069 3584 
Q 2775 3584 3186 3129 
Q 3597 2675 3597 1894 
z
M 3022 2063 
Q 3016 2534 2758 2815 
Q 2500 3097 2075 3097 
Q 1594 3097 1305 2825 
Q 1016 2553 972 2059 
L 3022 2063 
z
" transform="scale(0.015625)"/>
       <path id="DejaVuSans-43d" d="M 581 3500 
L 1159 3500 
L 1159 2072 
L 3025 2072 
L 3025 3500 
L 3603 3500 
L 3603 0 
L 3025 0 
L 3025 1613 
L 1159 1613 
L 1159 0 
L 581 0 
L 581 3500 
z
" transform="scale(0.015625)"/>
       <path id="DejaVuSans-438" d="M 3578 3500 
L 3578 0 
L 3006 0 
L 3006 2809 
L 1319 0 
L 581 0 
L 581 3500 
L 1153 3500 
L 1153 697 
L 2838 3500 
L 3578 3500 
z
" transform="scale(0.015625)"/>
       <path id="DejaVuSans-20" transform="scale(0.015625)"/>
       <path id="DejaVuSans-434" d="M 1384 459 
L 3053 459 
L 3053 3041 
L 1844 3041 
L 1844 2603 
Q 1844 1316 1475 628 
L 1384 459 
z
M 550 459 
Q 834 584 959 850 
Q 1266 1509 1266 2838 
L 1266 3500 
L 3631 3500 
L 3631 459 
L 4091 459 
L 4091 -884 
L 3631 -884 
L 3631 0 
L 794 0 
L 794 -884 
L 334 -884 
L 334 459 
L 550 459 
z
" transform="scale(0.015625)"/>
       <path id="DejaVuSans-437" d="M 2206 1888 
Q 2594 1813 2809 1584 
Q 3025 1356 3025 1019 
Q 3025 478 2622 193 
Q 2219 -91 1475 -91 
Q 1225 -91 961 -47 
Q 697 -3 416 84 
L 416 619 
Q 638 503 903 445 
Q 1169 388 1459 388 
Q 1931 388 2195 563 
Q 2459 738 2459 1019 
Q 2459 1294 2225 1461 
Q 1991 1628 1563 1628 
L 1100 1628 
L 1100 2103 
L 1584 2103 
Q 1947 2103 2158 2242 
Q 2369 2381 2369 2600 
Q 2369 2800 2151 2944 
Q 1934 3088 1563 3088 
Q 1341 3088 1089 3047 
Q 838 3006 534 2916 
L 534 3438 
Q 841 3513 1106 3550 
Q 1372 3588 1609 3588 
Q 2222 3588 2576 3342 
Q 2931 3097 2931 2656 
Q 2931 2366 2743 2164 
Q 2556 1963 2206 1888 
z
" transform="scale(0.015625)"/>
      </defs>
      <use xlink:href="#DejaVuSans-41f"/>
      <use xlink:href="#DejaVuSans-43e" x="75.195312"/>
      <use xlink:href="#DejaVuSans-441" x="136.376953"/>
      <use xlink:href="#DejaVuSans-442" x="191.357422"/>
      <use xlink:href="#DejaVuSans-430" x="249.609375"/>
      <use xlink:href="#DejaVuSans-432" x="310.888672"/>
      <use xlink:href="#DejaVuSans-435" x="369.824219"/>
      <use xlink:href="#DejaVuSans-43d" x="431.347656"/>
      <use xlink:href="#DejaVuSans-438" x="496.728516"/>
      <use xlink:href="#DejaVuSans-20" x="561.71875"/>
      <use xlink:href="#DejaVuSans-434" x="593.505859"/>
      <use xlink:href="#DejaVuSans-43e" x="662.646484"/>
      <use xlink:href="#DejaVuSans-437" x="723.828125"/>
      <use xlink:href="#DejaVuSans-438" x="777.001953"/>
     </g>
    </g>
   </g>
   <g id="line2d_114">
    <path d="M 84.846761 450.655018 
L 88.816293 450.550232 
L 98.740122 450.462311 
L 104.69442 449.481791 
L 110.648717 449.381842 
L 114.618249 449.025075 
L 120.572546 448.864611 
L 122.557312 448.849606 
L 124.542078 448.702658 
L 128.51161 448.145993 
L 132.481142 447.901204 
L 138.435439 447.814771 
L 140.420205 447.52658 
L 142.404971 447.055975 
L 144.389737 446.470788 
L 146.374502 446.077811 
L 150.344034 446.038129 
L 152.3288 445.851003 
L 154.313566 445.44389 
L 158.283097 444.438444 
L 160.267863 444.086886 
L 164.237395 444.064812 
L 166.222161 443.8354 
L 170.191692 442.933252 
L 172.176458 442.31818 
L 174.161224 441.875352 
L 180.115522 441.535326 
L 184.085053 440.483255 
L 186.069819 439.913568 
L 188.054585 438.207982 
L 190.039351 437.701043 
L 194.008883 434.885226 
L 195.993648 432.756901 
L 199.96318 427.761173 
L 201.947946 425.78612 
L 203.932712 425.126281 
L 205.917478 424.793323 
L 207.902243 423.417594 
L 209.887009 420.90857 
L 211.871775 420.363313 
L 213.856541 417.836679 
L 215.841307 415.862494 
L 217.826073 415.533381 
L 219.810838 415.345759 
L 221.795604 414.663599 
L 223.78037 413.66919 
L 225.765136 412.801888 
L 227.749902 410.904463 
L 229.734668 409.389847 
L 233.704199 409.114677 
L 235.688965 408.763986 
L 239.658497 407.648547 
L 241.643263 406.985112 
L 243.628029 406.158112 
L 245.612794 405.683663 
L 247.59756 405.391255 
L 249.582326 404.465546 
L 253.551858 401.372946 
L 257.521389 397.7868 
L 259.506155 397.299455 
L 261.490921 397.003947 
L 263.475687 395.887144 
L 271.41475 389.372087 
L 273.399516 388.876928 
L 275.384282 388.691911 
L 277.369048 387.888472 
L 279.353814 386.699745 
L 281.33858 384.986222 
L 283.323345 382.622285 
L 285.308111 380.777067 
L 287.292877 380.322459 
L 289.277643 380.124049 
L 291.262409 379.21508 
L 293.247175 377.912639 
L 299.201472 372.501737 
L 301.186238 372.118928 
L 303.171004 371.966772 
L 305.15577 371.093394 
L 307.140535 369.624288 
L 309.125301 367.24733 
L 311.110067 364.517202 
L 313.094833 362.232629 
L 315.079599 361.708081 
L 317.064365 361.451387 
L 319.049131 360.098476 
L 321.033896 358.02149 
L 325.003428 351.538798 
L 326.988194 350.015129 
L 328.97296 349.301471 
L 330.957726 348.879229 
L 332.942491 347.777183 
L 334.927257 346.396618 
L 336.912023 342.36876 
L 338.896789 341.484593 
L 340.881555 336.757835 
L 342.866321 335.511817 
L 344.851086 334.8118 
L 346.835852 331.652732 
L 350.805384 322.696482 
L 352.79015 318.013994 
L 354.774916 313.892387 
L 356.759681 313.07506 
L 358.744447 312.654678 
L 360.729213 310.393294 
L 362.713979 307.160319 
L 364.698745 303.396843 
L 366.683511 299.155323 
L 368.668277 296.046974 
L 370.653042 295.25978 
L 372.637808 294.804924 
L 374.622574 294.163562 
L 376.60734 292.072563 
L 378.592106 289.486034 
L 382.561637 284.828967 
L 384.546403 283.951745 
L 386.531169 283.326132 
L 388.515935 281.754473 
L 390.500701 279.516402 
L 396.454998 271.222967 
L 398.439764 270.480043 
L 400.42453 269.561154 
L 402.409296 267.760207 
L 404.394062 265.061824 
L 408.363593 259.13803 
L 410.348359 256.59726 
L 412.333125 255.981195 
L 414.317891 255.576562 
L 416.302657 254.379402 
L 418.287423 252.462509 
L 422.256954 248.020593 
L 424.24172 246.131973 
L 428.211252 245.265291 
L 430.196018 244.210987 
L 432.180783 242.633376 
L 436.150315 239.147427 
L 438.135081 237.624626 
L 442.104613 236.902164 
L 444.089378 235.902795 
L 452.028442 229.748225 
L 454.013208 229.302049 
L 455.997973 229.034567 
L 457.982739 228.06558 
L 459.967505 226.614579 
L 463.937037 223.501394 
L 465.921803 222.069862 
L 467.906569 221.664981 
L 469.891334 221.405435 
L 471.8761 220.36254 
L 477.830398 215.950262 
L 479.815164 214.62674 
L 483.784695 214.043165 
L 485.769461 213.079758 
L 487.754227 211.842048 
L 493.708524 207.767936 
L 495.69329 207.328953 
L 497.678056 207.081188 
L 499.662822 206.02304 
L 507.601885 200.031663 
L 509.586651 199.63571 
L 511.571417 199.367235 
L 513.556183 198.336741 
L 521.495246 192.209576 
L 523.480012 191.803083 
L 525.464778 191.514023 
L 527.449544 190.399948 
L 535.388607 184.631163 
L 537.373373 184.196644 
L 539.358139 183.925565 
L 541.342905 182.792765 
L 549.281968 176.729464 
L 551.266734 176.270144 
L 553.2515 175.973892 
L 555.236265 174.748831 
L 561.190563 169.67287 
L 563.175329 168.124524 
L 565.160095 167.637178 
L 567.144861 167.322201 
L 569.129626 166.032161 
L 571.114392 164.359684 
L 577.06869 159.843365 
L 579.053456 159.425463 
L 583.022987 158.95399 
L 586.992519 155.999534 
L 590.962051 153.155443 
L 592.946816 152.774371 
L 594.931582 152.531814 
L 596.916348 151.534305 
L 604.855412 146.214671 
L 606.840177 145.837567 
L 608.824943 145.627128 
L 610.809709 144.691374 
L 612.794475 143.443372 
L 614.779241 143.212968 
L 616.764007 141.794209 
L 618.748772 140.553275 
L 620.733538 140.247475 
L 622.718304 140.059977 
L 624.70307 139.414027 
L 626.687836 138.425818 
L 630.657367 136.204613 
L 632.642133 135.328878 
L 634.626899 135.045771 
L 636.611665 134.886547 
L 638.596431 134.218771 
L 646.535494 130.561074 
L 648.52026 130.271518 
L 650.505026 130.120354 
L 652.489792 129.47986 
L 654.474558 128.528854 
L 656.459323 127.840866 
L 660.428855 125.771568 
L 662.413621 125.408849 
L 664.398387 125.186877 
L 666.383153 124.417912 
L 668.367918 123.290816 
L 670.352684 121.618836 
L 672.33745 118.116766 
L 674.322216 115.13602 
L 676.306982 113.687004 
L 678.291748 112.799737 
L 680.276513 110.919797 
L 682.261279 106.950843 
L 684.246045 103.799836 
L 688.215577 98.030554 
L 690.200343 97.071363 
L 692.185108 96.454927 
L 694.169874 94.653607 
L 698.139406 89.901303 
L 702.108938 84.815174 
L 704.093704 83.978006 
L 706.078469 83.38761 
L 708.063235 81.741795 
L 712.032767 77.484153 
L 716.002299 71.995623 
L 717.987064 71.039904 
L 719.97183 70.435496 
L 721.956596 68.352682 
L 729.895659 57.513267 
L 731.880425 56.612608 
L 733.865191 56.049246 
L 735.849957 54.084486 
L 739.819489 49.19131 
L 739.819489 49.19131 
" clip-path="url(#p6d137c327e)" style="fill: none; stroke: #0000ff; stroke-width: 1.5; stroke-linecap: round"/>
   </g>
   <g id="line2d_115"/>
   <g id="patch_3">
    <path d="M 52.098125 470.728203 
L 52.098125 29.118125 
" style="fill: none; stroke: #262626; stroke-width: 1.25; stroke-linejoin: miter; stroke-linecap: square"/>
   </g>
   <g id="patch_4">
    <path d="M 772.568125 470.728203 
L 772.568125 29.118125 
" style="fill: none; stroke: #262626; stroke-width: 1.25; stroke-linejoin: miter; stroke-linecap: square"/>
   </g>
   <g id="patch_5">
    <path d="M 52.098125 470.728203 
L 772.568125 470.728203 
" style="fill: none; stroke: #262626; stroke-width: 1.25; stroke-linejoin: miter; stroke-linecap: square"/>
   </g>
   <g id="patch_6">
    <path d="M 52.098125 29.118125 
L 772.568125 29.118125 
" style="fill: none; stroke: #262626; stroke-width: 1.25; stroke-linejoin: miter; stroke-linecap: square"/>
   </g>
   <g id="text_34">
    <!-- Последна актуализация: 25.11.2021 -->
    <g style="fill: #262626" transform="translate(316.401201 22.493974)scale(0.09996 -0.09996)">
     <defs>
      <path id="DejaVuSans-43b" d="M 238 0 
L 238 478 
Q 806 566 981 959 
Q 1194 1513 1194 2928 
L 1194 3500 
L 3559 3500 
L 3559 0 
L 2984 0 
L 2984 3041 
L 1769 3041 
L 1769 2694 
Q 1769 1344 1494 738 
Q 1200 91 238 0 
z
" transform="scale(0.015625)"/>
      <path id="DejaVuSans-43a" d="M 581 3500 
L 1153 3500 
L 1153 1856 
L 2775 3500 
L 3481 3500 
L 2144 2147 
L 3653 0 
L 3009 0 
L 1769 1766 
L 1153 1141 
L 1153 0 
L 581 0 
L 581 3500 
z
" transform="scale(0.015625)"/>
      <path id="DejaVuSans-443" d="M 2059 -325 
Q 1816 -950 1584 -1140 
Q 1353 -1331 966 -1331 
L 506 -1331 
L 506 -850 
L 844 -850 
Q 1081 -850 1212 -737 
Q 1344 -625 1503 -206 
L 1606 56 
L 191 3500 
L 800 3500 
L 1894 763 
L 2988 3500 
L 3597 3500 
L 2059 -325 
z
" transform="scale(0.015625)"/>
      <path id="DejaVuSans-446" d="M 3603 0 
L 581 0 
L 581 3500 
L 1159 3500 
L 1159 459 
L 3025 459 
L 3025 3500 
L 3603 3500 
L 3603 459 
L 4063 459 
L 4063 -884 
L 3603 -884 
L 3603 0 
z
" transform="scale(0.015625)"/>
      <path id="DejaVuSans-44f" d="M 1181 2491 
Q 1181 2231 1381 2084 
Q 1581 1938 1953 1938 
L 2728 1938 
L 2728 3041 
L 1953 3041 
Q 1581 3041 1381 2897 
Q 1181 2753 1181 2491 
z
M 363 0 
L 1431 1534 
Q 1069 1616 828 1830 
Q 588 2044 588 2491 
Q 588 2997 923 3248 
Q 1259 3500 1938 3500 
L 3306 3500 
L 3306 0 
L 2728 0 
L 2728 1478 
L 2013 1478 
L 981 0 
L 363 0 
z
" transform="scale(0.015625)"/>
      <path id="DejaVuSans-3a" d="M 750 794 
L 1409 794 
L 1409 0 
L 750 0 
L 750 794 
z
M 750 3309 
L 1409 3309 
L 1409 2516 
L 750 2516 
L 750 3309 
z
" transform="scale(0.015625)"/>
     </defs>
     <use xlink:href="#DejaVuSans-41f"/>
     <use xlink:href="#DejaVuSans-43e" x="75.195312"/>
     <use xlink:href="#DejaVuSans-441" x="136.376953"/>
     <use xlink:href="#DejaVuSans-43b" x="191.357422"/>
     <use xlink:href="#DejaVuSans-435" x="255.273438"/>
     <use xlink:href="#DejaVuSans-434" x="316.796875"/>
     <use xlink:href="#DejaVuSans-43d" x="385.9375"/>
     <use xlink:href="#DejaVuSans-430" x="451.318359"/>
     <use xlink:href="#DejaVuSans-20" x="512.597656"/>
     <use xlink:href="#DejaVuSans-430" x="544.384766"/>
     <use xlink:href="#DejaVuSans-43a" x="605.664062"/>
     <use xlink:href="#DejaVuSans-442" x="666.064453"/>
     <use xlink:href="#DejaVuSans-443" x="724.316406"/>
     <use xlink:href="#DejaVuSans-430" x="783.496094"/>
     <use xlink:href="#DejaVuSans-43b" x="844.775391"/>
     <use xlink:href="#DejaVuSans-438" x="908.691406"/>
     <use xlink:href="#DejaVuSans-437" x="973.681641"/>
     <use xlink:href="#DejaVuSans-430" x="1026.855469"/>
     <use xlink:href="#DejaVuSans-446" x="1088.134766"/>
     <use xlink:href="#DejaVuSans-438" x="1156.201172"/>
     <use xlink:href="#DejaVuSans-44f" x="1221.191406"/>
     <use xlink:href="#DejaVuSans-3a" x="1281.347656"/>
     <use xlink:href="#DejaVuSans-20" x="1315.039062"/>
     <use xlink:href="#DejaVuSans-32" x="1346.826172"/>
     <use xlink:href="#DejaVuSans-35" x="1410.449219"/>
     <use xlink:href="#DejaVuSans-2e" x="1474.072266"/>
     <use xlink:href="#DejaVuSans-31" x="1505.859375"/>
     <use xlink:href="#DejaVuSans-31" x="1569.482422"/>
     <use xlink:href="#DejaVuSans-2e" x="1633.105469"/>
     <use xlink:href="#DejaVuSans-32" x="1664.892578"/>
     <use xlink:href="#DejaVuSans-30" x="1728.515625"/>
     <use xlink:href="#DejaVuSans-32" x="1792.138672"/>
     <use xlink:href="#DejaVuSans-31" x="1855.761719"/>
    </g>
   </g>
   <g id="text_35">
    <!-- Последна актуализация: 25.11.2021 -->
    <g style="fill: #262626" transform="translate(316.401201 22.493974)scale(0.09996 -0.09996)">
     <use xlink:href="#DejaVuSans-41f"/>
     <use xlink:href="#DejaVuSans-43e" x="75.195312"/>
     <use xlink:href="#DejaVuSans-441" x="136.376953"/>
     <use xlink:href="#DejaVuSans-43b" x="191.357422"/>
     <use xlink:href="#DejaVuSans-435" x="255.273438"/>
     <use xlink:href="#DejaVuSans-434" x="316.796875"/>
     <use xlink:href="#DejaVuSans-43d" x="385.9375"/>
     <use xlink:href="#DejaVuSans-430" x="451.318359"/>
     <use xlink:href="#DejaVuSans-20" x="512.597656"/>
     <use xlink:href="#DejaVuSans-430" x="544.384766"/>
     <use xlink:href="#DejaVuSans-43a" x="605.664062"/>
     <use xlink:href="#DejaVuSans-442" x="666.064453"/>
     <use xlink:href="#DejaVuSans-443" x="724.316406"/>
     <use xlink:href="#DejaVuSans-430" x="783.496094"/>
     <use xlink:href="#DejaVuSans-43b" x="844.775391"/>
     <use xlink:href="#DejaVuSans-438" x="908.691406"/>
     <use xlink:href="#DejaVuSans-437" x="973.681641"/>
     <use xlink:href="#DejaVuSans-430" x="1026.855469"/>
     <use xlink:href="#DejaVuSans-446" x="1088.134766"/>
     <use xlink:href="#DejaVuSans-438" x="1156.201172"/>
     <use xlink:href="#DejaVuSans-44f" x="1221.191406"/>
     <use xlink:href="#DejaVuSans-3a" x="1281.347656"/>
     <use xlink:href="#DejaVuSans-20" x="1315.039062"/>
     <use xlink:href="#DejaVuSans-32" x="1346.826172"/>
     <use xlink:href="#DejaVuSans-35" x="1410.449219"/>
     <use xlink:href="#DejaVuSans-2e" x="1474.072266"/>
     <use xlink:href="#DejaVuSans-31" x="1505.859375"/>
     <use xlink:href="#DejaVuSans-31" x="1569.482422"/>
     <use xlink:href="#DejaVuSans-2e" x="1633.105469"/>
     <use xlink:href="#DejaVuSans-32" x="1664.892578"/>
     <use xlink:href="#DejaVuSans-30" x="1728.515625"/>
     <use xlink:href="#DejaVuSans-32" x="1792.138672"/>
     <use xlink:href="#DejaVuSans-31" x="1855.761719"/>
    </g>
   </g>
   <g id="text_36">
    <!-- Хронология на ваксинацията по дни -->
    <g style="fill: #262626" transform="translate(285.398437 9.118125)scale(0.12 -0.12)">
     <defs>
      <path id="DejaVuSans-Bold-425" d="M 3188 2381 
L 4806 0 
L 3553 0 
L 2463 1594 
L 1381 0 
L 122 0 
L 1741 2381 
L 184 4666 
L 1441 4666 
L 2463 3163 
L 3481 4666 
L 4744 4666 
L 3188 2381 
z
" transform="scale(0.015625)"/>
      <path id="DejaVuSans-Bold-440" d="M 1656 506 
L 1656 -1331 
L 538 -1331 
L 538 3500 
L 1656 3500 
L 1656 2988 
Q 1888 3294 2169 3439 
Q 2450 3584 2816 3584 
Q 3463 3584 3878 3070 
Q 4294 2556 4294 1747 
Q 4294 938 3878 423 
Q 3463 -91 2816 -91 
Q 2450 -91 2169 54 
Q 1888 200 1656 506 
z
M 2400 2772 
Q 2041 2772 1848 2508 
Q 1656 2244 1656 1747 
Q 1656 1250 1848 986 
Q 2041 722 2400 722 
Q 2759 722 2948 984 
Q 3138 1247 3138 1747 
Q 3138 2247 2948 2509 
Q 2759 2772 2400 2772 
z
" transform="scale(0.015625)"/>
      <path id="DejaVuSans-Bold-43e" d="M 2203 2784 
Q 1831 2784 1636 2517 
Q 1441 2250 1441 1747 
Q 1441 1244 1636 976 
Q 1831 709 2203 709 
Q 2569 709 2762 976 
Q 2956 1244 2956 1747 
Q 2956 2250 2762 2517 
Q 2569 2784 2203 2784 
z
M 2203 3584 
Q 3106 3584 3614 3096 
Q 4122 2609 4122 1747 
Q 4122 884 3614 396 
Q 3106 -91 2203 -91 
Q 1297 -91 786 396 
Q 275 884 275 1747 
Q 275 2609 786 3096 
Q 1297 3584 2203 3584 
z
" transform="scale(0.015625)"/>
      <path id="DejaVuSans-Bold-43d" d="M 538 3500 
L 1656 3500 
L 1656 2169 
L 2766 2169 
L 2766 3500 
L 3884 3500 
L 3884 0 
L 2766 0 
L 2766 1478 
L 1656 1478 
L 1656 0 
L 538 0 
L 538 3500 
z
" transform="scale(0.015625)"/>
      <path id="DejaVuSans-Bold-43b" d="M 353 0 
L 353 800 
Q 906 913 1031 1278 
Q 1125 1556 1125 2928 
L 1125 3500 
L 4150 3500 
L 4150 0 
L 3031 0 
L 3031 2700 
L 2244 2700 
L 2244 2584 
Q 2244 1213 2028 813 
Q 1591 0 353 0 
z
" transform="scale(0.015625)"/>
      <path id="DejaVuSans-Bold-433" d="M 538 0 
L 538 3500 
L 3191 3500 
L 3191 2809 
L 1656 2809 
L 1656 0 
L 538 0 
z
" transform="scale(0.015625)"/>
      <path id="DejaVuSans-Bold-438" d="M 3947 3500 
L 3947 0 
L 2828 0 
L 2828 1863 
L 1700 0 
L 538 0 
L 538 3500 
L 1656 3500 
L 1656 1638 
L 2784 3500 
L 3947 3500 
z
" transform="scale(0.015625)"/>
      <path id="DejaVuSans-Bold-44f" d="M 1528 2394 
Q 1528 2169 1651 2069 
Q 1775 1969 2059 1969 
L 2463 1969 
L 2463 2816 
L 2059 2816 
Q 1775 2816 1651 2719 
Q 1528 2622 1528 2394 
z
M 197 0 
L 1113 1497 
Q 847 1650 650 1917 
Q 453 2184 453 2516 
Q 453 3013 789 3256 
Q 1125 3500 1878 3500 
L 3581 3500 
L 3581 0 
L 2463 0 
L 2463 1278 
L 2069 1278 
L 1288 0 
L 197 0 
z
" transform="scale(0.015625)"/>
      <path id="DejaVuSans-Bold-20" transform="scale(0.015625)"/>
      <path id="DejaVuSans-Bold-430" d="M 2106 1575 
Q 1756 1575 1579 1456 
Q 1403 1338 1403 1106 
Q 1403 894 1545 773 
Q 1688 653 1941 653 
Q 2256 653 2472 879 
Q 2688 1106 2688 1447 
L 2688 1575 
L 2106 1575 
z
M 3816 1997 
L 3816 0 
L 2688 0 
L 2688 519 
Q 2463 200 2181 54 
Q 1900 -91 1497 -91 
Q 953 -91 614 226 
Q 275 544 275 1050 
Q 275 1666 698 1953 
Q 1122 2241 2028 2241 
L 2688 2241 
L 2688 2328 
Q 2688 2594 2478 2717 
Q 2269 2841 1825 2841 
Q 1466 2841 1156 2769 
Q 847 2697 581 2553 
L 581 3406 
Q 941 3494 1303 3539 
Q 1666 3584 2028 3584 
Q 2975 3584 3395 3211 
Q 3816 2838 3816 1997 
z
" transform="scale(0.015625)"/>
      <path id="DejaVuSans-Bold-432" d="M 2184 2181 
Q 2378 2181 2478 2261 
Q 2578 2341 2578 2497 
Q 2578 2653 2478 2731 
Q 2378 2809 2184 2809 
L 1656 2809 
L 1656 2181 
L 2184 2181 
z
M 2222 700 
Q 2469 700 2594 798 
Q 2719 897 2719 1094 
Q 2719 1288 2594 1384 
Q 2469 1481 2222 1481 
L 1656 1481 
L 1656 700 
L 2222 700 
z
M 538 3500 
L 2141 3500 
Q 2919 3500 3267 3279 
Q 3616 3059 3616 2575 
Q 3616 2319 3487 2139 
Q 3359 1959 3119 1872 
Q 3428 1788 3598 1561 
Q 3769 1334 3769 1003 
Q 3769 497 3403 248 
Q 3038 0 2294 0 
L 538 0 
L 538 3500 
z
" transform="scale(0.015625)"/>
      <path id="DejaVuSans-Bold-43a" d="M 538 3500 
L 1656 3500 
L 1656 2316 
L 2903 3500 
L 4128 3500 
L 2634 2078 
L 4250 0 
L 3094 0 
L 1972 1447 
L 1656 1147 
L 1656 0 
L 538 0 
L 538 3500 
z
" transform="scale(0.015625)"/>
      <path id="DejaVuSans-Bold-441" d="M 3366 3391 
L 3366 2478 
Q 3138 2634 2908 2709 
Q 2678 2784 2431 2784 
Q 1963 2784 1702 2511 
Q 1441 2238 1441 1747 
Q 1441 1256 1702 982 
Q 1963 709 2431 709 
Q 2694 709 2930 787 
Q 3166 866 3366 1019 
L 3366 103 
Q 3103 6 2833 -42 
Q 2563 -91 2291 -91 
Q 1344 -91 809 395 
Q 275 881 275 1747 
Q 275 2613 809 3098 
Q 1344 3584 2291 3584 
Q 2566 3584 2833 3536 
Q 3100 3488 3366 3391 
z
" transform="scale(0.015625)"/>
      <path id="DejaVuSans-Bold-446" d="M 3666 -884 
L 3666 0 
L 538 0 
L 538 3500 
L 1656 3500 
L 1656 800 
L 2766 800 
L 2766 3500 
L 3884 3500 
L 3884 800 
L 4466 800 
L 4466 -884 
L 3666 -884 
z
" transform="scale(0.015625)"/>
      <path id="DejaVuSans-Bold-442" d="M 25 3500 
L 3681 3500 
L 3681 2809 
L 2413 2809 
L 2413 0 
L 1297 0 
L 1297 2809 
L 25 2809 
L 25 3500 
z
" transform="scale(0.015625)"/>
      <path id="DejaVuSans-Bold-43f" d="M 3884 3500 
L 3884 0 
L 2766 0 
L 2766 2700 
L 1656 2700 
L 1656 0 
L 538 0 
L 538 3500 
L 3884 3500 
z
" transform="scale(0.015625)"/>
      <path id="DejaVuSans-Bold-434" d="M 547 800 
Q 903 919 1053 1314 
Q 1203 1709 1203 2838 
L 1203 3500 
L 4228 3500 
L 4228 800 
L 4809 800 
L 4809 -884 
L 4009 -884 
L 4009 0 
L 1159 0 
L 1159 -884 
L 359 -884 
L 359 800 
L 547 800 
z
M 3109 2700 
L 2322 2700 
L 2322 2603 
Q 2322 1456 2063 800 
L 3109 800 
L 3109 2700 
z
" transform="scale(0.015625)"/>
     </defs>
     <use xlink:href="#DejaVuSans-Bold-425"/>
     <use xlink:href="#DejaVuSans-Bold-440" x="77.099609"/>
     <use xlink:href="#DejaVuSans-Bold-43e" x="148.681641"/>
     <use xlink:href="#DejaVuSans-Bold-43d" x="217.382812"/>
     <use xlink:href="#DejaVuSans-Bold-43e" x="286.474609"/>
     <use xlink:href="#DejaVuSans-Bold-43b" x="355.175781"/>
     <use xlink:href="#DejaVuSans-Bold-43e" x="428.417969"/>
     <use xlink:href="#DejaVuSans-Bold-433" x="497.119141"/>
     <use xlink:href="#DejaVuSans-Bold-438" x="549.365234"/>
     <use xlink:href="#DejaVuSans-Bold-44f" x="619.433594"/>
     <use xlink:href="#DejaVuSans-Bold-20" x="683.642578"/>
     <use xlink:href="#DejaVuSans-Bold-43d" x="718.457031"/>
     <use xlink:href="#DejaVuSans-Bold-430" x="787.548828"/>
     <use xlink:href="#DejaVuSans-Bold-20" x="855.029297"/>
     <use xlink:href="#DejaVuSans-Bold-432" x="889.84375"/>
     <use xlink:href="#DejaVuSans-Bold-430" x="953.125"/>
     <use xlink:href="#DejaVuSans-Bold-43a" x="1020.605469"/>
     <use xlink:href="#DejaVuSans-Bold-441" x="1088.476562"/>
     <use xlink:href="#DejaVuSans-Bold-438" x="1147.753906"/>
     <use xlink:href="#DejaVuSans-Bold-43d" x="1217.822266"/>
     <use xlink:href="#DejaVuSans-Bold-430" x="1286.914062"/>
     <use xlink:href="#DejaVuSans-Bold-446" x="1354.394531"/>
     <use xlink:href="#DejaVuSans-Bold-438" x="1428.515625"/>
     <use xlink:href="#DejaVuSans-Bold-44f" x="1498.583984"/>
     <use xlink:href="#DejaVuSans-Bold-442" x="1562.792969"/>
     <use xlink:href="#DejaVuSans-Bold-430" x="1620.751953"/>
     <use xlink:href="#DejaVuSans-Bold-20" x="1688.232422"/>
     <use xlink:href="#DejaVuSans-Bold-43f" x="1723.046875"/>
     <use xlink:href="#DejaVuSans-Bold-43e" x="1792.138672"/>
     <use xlink:href="#DejaVuSans-Bold-20" x="1860.839844"/>
     <use xlink:href="#DejaVuSans-Bold-434" x="1895.654297"/>
     <use xlink:href="#DejaVuSans-Bold-43d" x="1976.416016"/>
     <use xlink:href="#DejaVuSans-Bold-438" x="2045.507812"/>
    </g>
   </g>
  </g>
  <g id="axes_2">
   <g id="matplotlib.axis_3">
    <g id="ytick_8">
     <g id="line2d_116">
      <defs>
       <path id="mc7b79aeb59" d="M 0 0 
L 6 0 
" style="stroke: #262626; stroke-width: 1.25"/>
      </defs>
      <g>
       <use xlink:href="#mc7b79aeb59" x="772.568125" y="450.655018" style="fill: #262626; stroke: #262626; stroke-width: 1.25"/>
      </g>
     </g>
     <g id="text_37">
      <!-- 0 -->
      <g style="fill: #262626" transform="translate(782.068125 454.834158)scale(0.11 -0.11)">
       <use xlink:href="#DejaVuSans-30"/>
      </g>
     </g>
    </g>
    <g id="ytick_9">
     <g id="line2d_117">
      <g>
       <use xlink:href="#mc7b79aeb59" x="772.568125" y="397.992989" style="fill: #262626; stroke: #262626; stroke-width: 1.25"/>
      </g>
     </g>
     <g id="text_38">
      <!-- 5000 -->
      <g style="fill: #262626" transform="translate(782.068125 402.17213)scale(0.11 -0.11)">
       <use xlink:href="#DejaVuSans-35"/>
       <use xlink:href="#DejaVuSans-30" x="63.623047"/>
       <use xlink:href="#DejaVuSans-30" x="127.246094"/>
       <use xlink:href="#DejaVuSans-30" x="190.869141"/>
      </g>
     </g>
    </g>
    <g id="ytick_10">
     <g id="line2d_118">
      <g>
       <use xlink:href="#mc7b79aeb59" x="772.568125" y="345.330961" style="fill: #262626; stroke: #262626; stroke-width: 1.25"/>
      </g>
     </g>
     <g id="text_39">
      <!-- 10000 -->
      <g style="fill: #262626" transform="translate(782.068125 349.510101)scale(0.11 -0.11)">
       <use xlink:href="#DejaVuSans-31"/>
       <use xlink:href="#DejaVuSans-30" x="63.623047"/>
       <use xlink:href="#DejaVuSans-30" x="127.246094"/>
       <use xlink:href="#DejaVuSans-30" x="190.869141"/>
       <use xlink:href="#DejaVuSans-30" x="254.492188"/>
      </g>
     </g>
    </g>
    <g id="ytick_11">
     <g id="line2d_119">
      <g>
       <use xlink:href="#mc7b79aeb59" x="772.568125" y="292.668932" style="fill: #262626; stroke: #262626; stroke-width: 1.25"/>
      </g>
     </g>
     <g id="text_40">
      <!-- 15000 -->
      <g style="fill: #262626" transform="translate(782.068125 296.848073)scale(0.11 -0.11)">
       <use xlink:href="#DejaVuSans-31"/>
       <use xlink:href="#DejaVuSans-35" x="63.623047"/>
       <use xlink:href="#DejaVuSans-30" x="127.246094"/>
       <use xlink:href="#DejaVuSans-30" x="190.869141"/>
       <use xlink:href="#DejaVuSans-30" x="254.492188"/>
      </g>
     </g>
    </g>
    <g id="ytick_12">
     <g id="line2d_120">
      <g>
       <use xlink:href="#mc7b79aeb59" x="772.568125" y="240.006904" style="fill: #262626; stroke: #262626; stroke-width: 1.25"/>
      </g>
     </g>
     <g id="text_41">
      <!-- 20000 -->
      <g style="fill: #262626" transform="translate(782.068125 244.186045)scale(0.11 -0.11)">
       <use xlink:href="#DejaVuSans-32"/>
       <use xlink:href="#DejaVuSans-30" x="63.623047"/>
       <use xlink:href="#DejaVuSans-30" x="127.246094"/>
       <use xlink:href="#DejaVuSans-30" x="190.869141"/>
       <use xlink:href="#DejaVuSans-30" x="254.492188"/>
      </g>
     </g>
    </g>
    <g id="ytick_13">
     <g id="line2d_121">
      <g>
       <use xlink:href="#mc7b79aeb59" x="772.568125" y="187.344876" style="fill: #262626; stroke: #262626; stroke-width: 1.25"/>
      </g>
     </g>
     <g id="text_42">
      <!-- 25000 -->
      <g style="fill: #262626" transform="translate(782.068125 191.524016)scale(0.11 -0.11)">
       <use xlink:href="#DejaVuSans-32"/>
       <use xlink:href="#DejaVuSans-35" x="63.623047"/>
       <use xlink:href="#DejaVuSans-30" x="127.246094"/>
       <use xlink:href="#DejaVuSans-30" x="190.869141"/>
       <use xlink:href="#DejaVuSans-30" x="254.492188"/>
      </g>
     </g>
    </g>
    <g id="ytick_14">
     <g id="line2d_122">
      <g>
       <use xlink:href="#mc7b79aeb59" x="772.568125" y="134.682847" style="fill: #262626; stroke: #262626; stroke-width: 1.25"/>
      </g>
     </g>
     <g id="text_43">
      <!-- 30000 -->
      <g style="fill: #262626" transform="translate(782.068125 138.861988)scale(0.11 -0.11)">
       <use xlink:href="#DejaVuSans-33"/>
       <use xlink:href="#DejaVuSans-30" x="63.623047"/>
       <use xlink:href="#DejaVuSans-30" x="127.246094"/>
       <use xlink:href="#DejaVuSans-30" x="190.869141"/>
       <use xlink:href="#DejaVuSans-30" x="254.492188"/>
      </g>
     </g>
    </g>
    <g id="ytick_15">
     <g id="line2d_123">
      <g>
       <use xlink:href="#mc7b79aeb59" x="772.568125" y="82.020819" style="fill: #262626; stroke: #262626; stroke-width: 1.25"/>
      </g>
     </g>
     <g id="text_44">
      <!-- 35000 -->
      <g style="fill: #262626" transform="translate(782.068125 86.199959)scale(0.11 -0.11)">
       <use xlink:href="#DejaVuSans-33"/>
       <use xlink:href="#DejaVuSans-35" x="63.623047"/>
       <use xlink:href="#DejaVuSans-30" x="127.246094"/>
       <use xlink:href="#DejaVuSans-30" x="190.869141"/>
       <use xlink:href="#DejaVuSans-30" x="254.492188"/>
      </g>
     </g>
    </g>
    <g id="ytick_16">
     <g id="line2d_124">
      <g>
       <use xlink:href="#mc7b79aeb59" x="772.568125" y="29.35879" style="fill: #262626; stroke: #262626; stroke-width: 1.25"/>
      </g>
     </g>
     <g id="text_45">
      <!-- 40000 -->
      <g style="fill: #262626" transform="translate(782.068125 33.537931)scale(0.11 -0.11)">
       <use xlink:href="#DejaVuSans-34"/>
       <use xlink:href="#DejaVuSans-30" x="63.623047"/>
       <use xlink:href="#DejaVuSans-30" x="127.246094"/>
       <use xlink:href="#DejaVuSans-30" x="190.869141"/>
       <use xlink:href="#DejaVuSans-30" x="254.492188"/>
      </g>
     </g>
    </g>
    <g id="text_46">
     <!-- Новопоставени дози -->
     <g style="fill: #262626" transform="translate(827.94375 184.601914)rotate(-270)scale(0.12 -0.12)">
      <defs>
       <path id="DejaVuSans-41d" d="M 628 4666 
L 1259 4666 
L 1259 2753 
L 3553 2753 
L 3553 4666 
L 4184 4666 
L 4184 0 
L 3553 0 
L 3553 2222 
L 1259 2222 
L 1259 0 
L 628 0 
L 628 4666 
z
" transform="scale(0.015625)"/>
       <path id="DejaVuSans-43f" d="M 3603 3500 
L 3603 0 
L 3025 0 
L 3025 3041 
L 1159 3041 
L 1159 0 
L 581 0 
L 581 3500 
L 3603 3500 
z
" transform="scale(0.015625)"/>
      </defs>
      <use xlink:href="#DejaVuSans-41d"/>
      <use xlink:href="#DejaVuSans-43e" x="75.195312"/>
      <use xlink:href="#DejaVuSans-432" x="136.376953"/>
      <use xlink:href="#DejaVuSans-43e" x="195.3125"/>
      <use xlink:href="#DejaVuSans-43f" x="256.494141"/>
      <use xlink:href="#DejaVuSans-43e" x="321.875"/>
      <use xlink:href="#DejaVuSans-441" x="383.056641"/>
      <use xlink:href="#DejaVuSans-442" x="438.037109"/>
      <use xlink:href="#DejaVuSans-430" x="496.289062"/>
      <use xlink:href="#DejaVuSans-432" x="557.568359"/>
      <use xlink:href="#DejaVuSans-435" x="616.503906"/>
      <use xlink:href="#DejaVuSans-43d" x="678.027344"/>
      <use xlink:href="#DejaVuSans-438" x="743.408203"/>
      <use xlink:href="#DejaVuSans-20" x="808.398438"/>
      <use xlink:href="#DejaVuSans-434" x="840.185547"/>
      <use xlink:href="#DejaVuSans-43e" x="909.326172"/>
      <use xlink:href="#DejaVuSans-437" x="970.507812"/>
      <use xlink:href="#DejaVuSans-438" x="1023.681641"/>
     </g>
    </g>
   </g>
   <g id="line2d_125">
    <path d="M 84.846761 409.64183 
L 86.831527 443.13488 
L 88.816293 449.275272 
L 90.801059 450.655018 
L 96.755356 450.655018 
L 98.740122 443.187542 
L 100.724888 424.692638 
L 102.709654 416.90919 
L 104.69442 427.083494 
L 106.679186 449.412194 
L 108.663951 450.655018 
L 110.648717 443.408723 
L 112.633483 433.603053 
L 114.618249 437.405251 
L 116.603015 443.830019 
L 118.587781 446.020759 
L 120.572546 448.485342 
L 122.557312 449.380597 
L 124.542078 438.174117 
L 126.526844 423.397152 
L 128.51161 430.632914 
L 130.496376 438.816594 
L 132.481142 441.702473 
L 134.465907 450.465434 
L 136.450673 450.40224 
L 138.435439 443.756292 
L 140.420205 426.177707 
L 142.404971 410.684538 
L 144.389737 400.952595 
L 146.374502 417.277824 
L 148.359268 448.39055 
L 150.344034 449.549115 
L 152.3288 434.761617 
L 154.313566 416.07713 
L 156.298332 406.345187 
L 158.283097 409.568103 
L 160.267863 420.795648 
L 162.252629 449.011962 
L 164.237395 450.423305 
L 166.222161 431.170067 
L 168.206927 413.370302 
L 170.191692 411.316482 
L 172.176458 398.414285 
L 174.161224 413.043797 
L 176.14599 444.061732 
L 178.130756 449.938814 
L 180.115522 429.084651 
L 182.100288 409.557571 
L 184.085053 402.395535 
L 186.069819 402.269146 
L 188.054585 305.79231 
L 190.039351 407.598543 
L 192.024117 334.81962 
L 194.008883 327.33108 
L 195.993648 269.887339 
L 197.978414 237.521256 
L 199.96318 239.480284 
L 201.947946 282.905392 
L 203.932712 394.612087 
L 205.917478 422.375508 
L 207.902243 333.808509 
L 209.887009 237.552854 
L 211.871775 404.34403 
L 213.856541 236.057252 
L 215.841307 282.979119 
L 217.826073 422.702013 
L 219.810838 434.719488 
L 221.795604 392.716254 
L 223.78037 366.195656 
L 225.765136 376.991372 
L 227.749902 289.498678 
L 229.734668 322.012215 
L 231.719434 437.552705 
L 233.704199 440.385922 
L 235.688965 420.869374 
L 237.673731 405.502594 
L 239.658497 401.068452 
L 241.643263 394.306647 
L 243.628029 380.414404 
L 245.612794 410.358033 
L 247.59756 425.819605 
L 251.567092 319.684553 
L 253.551858 318.957817 
L 255.536624 300.125876 
L 257.521389 296.59752 
L 259.506155 409.262663 
L 261.490921 425.556295 
L 263.475687 355.800172 
L 265.460453 311.795781 
L 267.445219 306.234671 
L 269.429985 307.846129 
L 271.41475 323.39196 
L 273.399516 408.599122 
L 275.384282 434.940668 
L 277.369048 382.415561 
L 279.353814 349.691377 
L 281.33858 305.118236 
L 283.323345 249.875768 
L 285.308111 293.932821 
L 287.292877 412.043218 
L 289.277643 433.803169 
L 291.262409 373.452484 
L 293.247175 340.033161 
L 295.23194 293.911756 
L 297.216706 292.689997 
L 299.201472 305.79231 
L 301.186238 418.141481 
L 303.171004 437.731756 
L 305.15577 376.475284 
L 307.140535 325.877608 
L 309.125301 248.769866 
L 311.110067 218.773574 
L 313.094833 256.616508 
L 315.079599 406.102942 
L 317.064365 428.852938 
L 319.049131 335.746472 
L 321.033896 274.247755 
L 323.018662 183.605872 
L 325.003428 167.101592 
L 326.988194 321.243349 
L 328.97296 390.041023 
L 330.957726 414.792176 
L 332.942491 357.053528 
L 334.927257 333.397745 
L 336.912023 108.551949 
L 338.896789 375.558965 
L 340.881555 49.19131 
L 342.866321 344.825405 
L 344.851086 391.199588 
L 346.835852 182.341983 
L 348.820618 74.142579 
L 350.805384 66.474988 
L 352.79015 52.951379 
L 354.774916 100.58945 
L 356.759681 381.235932 
L 358.744447 414.950162 
L 360.729213 258.586068 
L 362.713979 176.064669 
L 364.698745 131.007038 
L 366.683511 90.404614 
L 368.668277 186.649737 
L 370.653042 383.795306 
L 372.637808 412.022154 
L 374.622574 396.181415 
L 376.60734 273.057593 
L 378.592106 230.9701 
L 380.576872 258.849378 
L 382.561637 246.916162 
L 384.546403 376.14878 
L 386.531169 397.519031 
L 388.515935 317.167308 
L 390.500701 260.56616 
L 392.485467 219.142208 
L 394.470232 206.798229 
L 396.454998 221.627856 
L 398.439764 387.555375 
L 400.42453 372.609892 
L 404.394062 221.46987 
L 406.378827 197.803554 
L 408.363593 200.373461 
L 410.348359 234.856558 
L 412.333125 398.330026 
L 414.317891 416.287778 
L 416.302657 348.975173 
L 418.287423 287.845091 
L 420.272188 265.200418 
L 422.256954 258.838845 
L 424.24172 290.246479 
L 426.226486 410.042061 
L 428.211252 417.656991 
L 430.196018 361.108505 
L 432.180783 316.661753 
L 434.165549 304.265111 
L 436.150315 300.968468 
L 438.135081 321.317076 
L 440.119847 417.941366 
L 442.104613 422.006874 
L 444.089378 365.77436 
L 446.074144 318.05203 
L 448.05891 313.607355 
L 450.043676 321.064298 
L 452.028442 327.162561 
L 454.013208 412.759422 
L 455.997973 427.936619 
L 457.982739 368.3548 
L 459.967505 327.415339 
L 461.952271 315.55585 
L 463.937037 321.338141 
L 465.921803 329.068926 
L 467.906569 416.266713 
L 469.891334 428.610693 
L 471.8761 362.077486 
L 473.860866 325.171936 
L 475.845632 323.981775 
L 477.830398 328.057816 
L 479.815164 338.242652 
L 481.799929 422.617754 
L 483.784695 429.12678 
L 485.769461 368.828758 
L 487.754227 345.531077 
L 489.738993 334.187676 
L 491.723759 331.238602 
L 493.708524 340.507119 
L 495.69329 413.370302 
L 497.678056 429.611271 
L 499.662822 360.782 
L 501.647588 322.401914 
L 503.632354 314.028651 
L 505.617119 322.043812 
L 507.601885 335.272513 
L 509.586651 417.025046 
L 511.571417 427.852359 
L 513.556183 363.130726 
L 515.540949 320.263835 
L 517.525715 317.399021 
L 519.51048 318.852493 
L 521.495246 325.698557 
L 523.480012 416.129792 
L 525.464778 426.10398 
L 527.449544 356.031885 
L 529.43431 325.36152 
L 531.419075 320.958974 
L 533.403841 326.003996 
L 535.388607 340.328068 
L 537.373373 413.749468 
L 539.358139 427.631179 
L 541.342905 354.441492 
L 543.32767 322.064877 
L 545.312436 315.956081 
L 547.297202 322.928534 
L 549.281968 326.688603 
L 551.266734 411.642987 
L 553.2515 425.4931 
L 555.236265 346.605382 
L 557.221031 306.01349 
L 559.205797 305.402611 
L 561.190563 309.42599 
L 563.175329 319.1474 
L 565.160095 409.262663 
L 567.144861 423.902707 
L 569.129626 341.086401 
L 571.114392 308.604462 
L 573.099158 323.865918 
L 575.083924 322.286057 
L 577.06869 322.222863 
L 579.053456 415.16081 
L 581.038221 428.03141 
L 583.022987 433.234419 
L 585.007753 330.933162 
L 586.992519 319.442308 
L 588.977285 325.235131 
L 590.962051 334.51418 
L 592.946816 418.288935 
L 594.931582 430.053632 
L 596.916348 365.932346 
L 598.901114 334.977606 
L 600.88588 342.360822 
L 602.870646 332.828995 
L 604.855412 340.633508 
L 606.840177 418.625972 
L 608.824943 432.781525 
L 610.809709 371.177484 
L 612.794475 344.656887 
L 614.779241 431.085808 
L 616.764007 330.153764 
L 618.748772 345.257234 
L 620.733538 424.682105 
L 622.718304 434.73002 
L 624.70307 395.791716 
L 626.687836 366.722277 
L 628.672602 355.800172 
L 630.657367 356.853413 
L 632.642133 376.275169 
L 634.626899 426.609535 
L 636.611665 437.131409 
L 638.596431 393.938013 
L 640.581197 372.662554 
L 642.565962 375.042877 
L 644.550728 369.460702 
L 646.535494 374.7901 
L 648.52026 426.06185 
L 650.505026 437.816015 
L 652.489792 396.255142 
L 654.474558 369.881998 
L 656.459323 392.221231 
L 658.444089 365.784893 
L 660.428855 359.770889 
L 662.413621 419.847731 
L 664.398387 431.802011 
L 666.383153 385.34357 
L 668.367918 354.925982 
L 670.352684 308.646592 
L 672.33745 153.209349 
L 674.322216 197.487582 
L 676.306982 327.583857 
L 678.291748 375.295655 
L 680.276513 290.983748 
L 682.261279 113.554841 
L 684.246045 183.026589 
L 686.230811 204.407373 
L 688.215577 206.893021 
L 690.200343 369.18686 
L 692.185108 398.298429 
L 694.169874 297.661293 
L 696.15464 252.845907 
L 698.139406 244.830746 
L 700.124172 231.981211 
L 702.108938 237.342205 
L 704.093704 379.550747 
L 706.078469 400.510234 
L 708.063235 310.868929 
L 710.048001 271.909561 
L 712.032767 267.780858 
L 714.017533 214.960843 
L 716.002299 220.184917 
L 717.987064 369.481767 
L 719.97183 399.320072 
L 721.956596 273.752732 
L 723.941362 217.541283 
L 725.926128 224.176698 
L 727.910894 218.520796 
L 729.895659 221.743713 
L 731.880425 374.158155 
L 733.865191 402.806299 
L 735.849957 283.779582 
L 737.834723 242.840121 
L 739.819489 242.871718 
L 739.819489 242.871718 
" clip-path="url(#p6d137c327e)" style="fill: none; stroke: #ff0000; stroke-width: 1.5; stroke-linecap: round"/>
   </g>
   <g id="patch_7">
    <path d="M 52.098125 470.728203 
L 52.098125 29.118125 
" style="fill: none; stroke: #262626; stroke-width: 1.25; stroke-linejoin: miter; stroke-linecap: square"/>
   </g>
   <g id="patch_8">
    <path d="M 772.568125 470.728203 
L 772.568125 29.118125 
" style="fill: none; stroke: #262626; stroke-width: 1.25; stroke-linejoin: miter; stroke-linecap: square"/>
   </g>
   <g id="patch_9">
    <path d="M 52.098125 470.728203 
L 772.568125 470.728203 
" style="fill: none; stroke: #262626; stroke-width: 1.25; stroke-linejoin: miter; stroke-linecap: square"/>
   </g>
   <g id="patch_10">
    <path d="M 52.098125 29.118125 
L 772.568125 29.118125 
" style="fill: none; stroke: #262626; stroke-width: 1.25; stroke-linejoin: miter; stroke-linecap: square"/>
   </g>
   <g id="legend_1">
    <g id="patch_11">
     <path d="M 590.796562 70.397344 
L 764.868125 70.397344 
Q 767.068125 70.397344 767.068125 68.197344 
L 767.068125 36.818125 
Q 767.068125 34.618125 764.868125 34.618125 
L 590.796562 34.618125 
Q 588.596562 34.618125 588.596562 36.818125 
L 588.596562 68.197344 
Q 588.596562 70.397344 590.796562 70.397344 
z
" style="fill: #ffffff; opacity: 0.8; stroke: #cccccc; stroke-linejoin: miter"/>
    </g>
    <g id="line2d_126">
     <path d="M 592.996562 43.71375 
L 603.996562 43.71375 
L 614.996562 43.71375 
" style="fill: none; stroke: #0000ff; stroke-width: 1.5; stroke-linecap: round"/>
    </g>
    <g id="text_47">
     <!-- Кумулативен брой дози -->
     <g style="fill: #262626" transform="translate(623.796562 47.56375)scale(0.11 -0.11)">
      <defs>
       <path id="DejaVuSans-41a" d="M 628 4666 
L 1259 4666 
L 1259 2359 
L 3516 4666 
L 4325 4666 
L 2522 2822 
L 4419 0 
L 3731 0 
L 2113 2403 
L 1259 1531 
L 1259 0 
L 628 0 
L 628 4666 
z
" transform="scale(0.015625)"/>
       <path id="DejaVuSans-43c" d="M 581 3500 
L 1422 3500 
L 2416 1156 
L 3413 3500 
L 4247 3500 
L 4247 0 
L 3669 0 
L 3669 2950 
L 2703 672 
L 2128 672 
L 1159 2950 
L 1159 0 
L 581 0 
L 581 3500 
z
" transform="scale(0.015625)"/>
       <path id="DejaVuSans-431" d="M 1991 3584 
Q 2741 3584 3169 3096 
Q 3597 2609 3597 1747 
Q 3597 888 3169 398 
Q 2741 -91 1991 -91 
Q 1238 -91 822 384 
Q 406 859 384 1747 
L 366 2463 
Q 350 2834 350 2963 
Q 350 3463 531 3831 
Q 816 4409 1308 4659 
Q 1800 4909 2625 4916 
Q 3006 4919 3175 4972 
L 3334 4516 
Q 3181 4453 3041 4450 
L 2259 4397 
Q 1866 4369 1628 4231 
Q 1006 3866 947 3388 
L 925 3213 
Q 1331 3584 1991 3584 
z
M 1991 3097 
Q 1528 3097 1259 2736 
Q 991 2375 991 1747 
Q 991 1119 1258 758 
Q 1525 397 1991 397 
Q 2450 397 2719 759 
Q 2988 1122 2988 1747 
Q 2988 2369 2719 2733 
Q 2450 3097 1991 3097 
z
" transform="scale(0.015625)"/>
       <path id="DejaVuSans-440" d="M 1159 525 
L 1159 -1331 
L 581 -1331 
L 581 3500 
L 1159 3500 
L 1159 2969 
Q 1341 3281 1617 3432 
Q 1894 3584 2278 3584 
Q 2916 3584 3314 3078 
Q 3713 2572 3713 1747 
Q 3713 922 3314 415 
Q 2916 -91 2278 -91 
Q 1894 -91 1617 61 
Q 1341 213 1159 525 
z
M 3116 1747 
Q 3116 2381 2855 2742 
Q 2594 3103 2138 3103 
Q 1681 3103 1420 2742 
Q 1159 2381 1159 1747 
Q 1159 1113 1420 752 
Q 1681 391 2138 391 
Q 2594 391 2855 752 
Q 3116 1113 3116 1747 
z
" transform="scale(0.015625)"/>
       <path id="DejaVuSans-439" d="M 3578 3500 
L 3578 0 
L 3006 0 
L 3006 2809 
L 1319 0 
L 581 0 
L 581 3500 
L 1153 3500 
L 1153 697 
L 2838 3500 
L 3578 3500 
z
M 1102 4833 
L 1471 4833 
Q 1505 4599 1656 4481 
Q 1808 4364 2080 4364 
Q 2349 4364 2499 4480 
Q 2649 4596 2689 4833 
L 3058 4833 
Q 3027 4386 2780 4161 
Q 2533 3936 2080 3936 
Q 1627 3936 1380 4161 
Q 1133 4386 1102 4833 
z
" transform="scale(0.015625)"/>
      </defs>
      <use xlink:href="#DejaVuSans-41a"/>
      <use xlink:href="#DejaVuSans-443" x="70.996094"/>
      <use xlink:href="#DejaVuSans-43c" x="130.175781"/>
      <use xlink:href="#DejaVuSans-443" x="205.615234"/>
      <use xlink:href="#DejaVuSans-43b" x="264.794922"/>
      <use xlink:href="#DejaVuSans-430" x="328.710938"/>
      <use xlink:href="#DejaVuSans-442" x="389.990234"/>
      <use xlink:href="#DejaVuSans-438" x="448.242188"/>
      <use xlink:href="#DejaVuSans-432" x="513.232422"/>
      <use xlink:href="#DejaVuSans-435" x="572.167969"/>
      <use xlink:href="#DejaVuSans-43d" x="633.691406"/>
      <use xlink:href="#DejaVuSans-20" x="699.072266"/>
      <use xlink:href="#DejaVuSans-431" x="730.859375"/>
      <use xlink:href="#DejaVuSans-440" x="792.529297"/>
      <use xlink:href="#DejaVuSans-43e" x="856.005859"/>
      <use xlink:href="#DejaVuSans-439" x="917.1875"/>
      <use xlink:href="#DejaVuSans-20" x="982.177734"/>
      <use xlink:href="#DejaVuSans-434" x="1013.964844"/>
      <use xlink:href="#DejaVuSans-43e" x="1083.105469"/>
      <use xlink:href="#DejaVuSans-437" x="1144.287109"/>
      <use xlink:href="#DejaVuSans-438" x="1197.460938"/>
     </g>
    </g>
    <g id="line2d_127">
     <path d="M 592.996562 59.859688 
L 603.996562 59.859688 
L 614.996562 59.859688 
" style="fill: none; stroke: #ff0000; stroke-width: 1.5; stroke-linecap: round"/>
    </g>
    <g id="text_48">
     <!-- Новопоставени дози -->
     <g style="fill: #262626" transform="translate(623.796562 63.709688)scale(0.11 -0.11)">
      <use xlink:href="#DejaVuSans-41d"/>
      <use xlink:href="#DejaVuSans-43e" x="75.195312"/>
      <use xlink:href="#DejaVuSans-432" x="136.376953"/>
      <use xlink:href="#DejaVuSans-43e" x="195.3125"/>
      <use xlink:href="#DejaVuSans-43f" x="256.494141"/>
      <use xlink:href="#DejaVuSans-43e" x="321.875"/>
      <use xlink:href="#DejaVuSans-441" x="383.056641"/>
      <use xlink:href="#DejaVuSans-442" x="438.037109"/>
      <use xlink:href="#DejaVuSans-430" x="496.289062"/>
      <use xlink:href="#DejaVuSans-432" x="557.568359"/>
      <use xlink:href="#DejaVuSans-435" x="616.503906"/>
      <use xlink:href="#DejaVuSans-43d" x="678.027344"/>
      <use xlink:href="#DejaVuSans-438" x="743.408203"/>
      <use xlink:href="#DejaVuSans-20" x="808.398438"/>
      <use xlink:href="#DejaVuSans-434" x="840.185547"/>
      <use xlink:href="#DejaVuSans-43e" x="909.326172"/>
      <use xlink:href="#DejaVuSans-437" x="970.507812"/>
      <use xlink:href="#DejaVuSans-438" x="1023.681641"/>
     </g>
    </g>
   </g>
  </g>
 </g>
 <defs>
  <clipPath id="p6d137c327e">
   <rect x="52.098125" y="29.118125" width="720.47" height="441.610078"/>
  </clipPath>
 </defs>
</svg>
