<?xml version="1.0" encoding="utf-8" standalone="no"?>
<!DOCTYPE svg PUBLIC "-//W3C//DTD SVG 1.1//EN"
  "http://www.w3.org/Graphics/SVG/1.1/DTD/svg11.dtd">
<svg xmlns:xlink="http://www.w3.org/1999/xlink" width="837.061875pt" height="547.904678pt" viewBox="0 0 837.061875 547.904678" xmlns="http://www.w3.org/2000/svg" version="1.1">
 <metadata>
  <rdf:RDF xmlns:dc="http://purl.org/dc/elements/1.1/" xmlns:cc="http://creativecommons.org/ns#" xmlns:rdf="http://www.w3.org/1999/02/22-rdf-syntax-ns#">
   <cc:Work>
    <dc:type rdf:resource="http://purl.org/dc/dcmitype/StillImage"/>
    <dc:date>2021-11-29T02:50:50.091907</dc:date>
    <dc:format>image/svg+xml</dc:format>
    <dc:creator>
     <cc:Agent>
      <dc:title>Matplotlib v3.5.0, https://matplotlib.org/</dc:title>
     </cc:Agent>
    </dc:creator>
   </cc:Work>
  </rdf:RDF>
 </metadata>
 <defs>
  <style type="text/css">*{stroke-linejoin: round; stroke-linecap: butt}</style>
 </defs>
 <g id="figure_1">
  <g id="patch_1">
   <path d="M 0 547.904678 
L 837.061875 547.904678 
L 837.061875 0 
L 0 0 
L 0 547.904678 
z
" style="fill: none"/>
  </g>
  <g id="axes_1">
   <g id="patch_2">
    <path d="M 52.098125 470.728203 
L 772.568125 470.728203 
L 772.568125 29.118125 
L 52.098125 29.118125 
L 52.098125 470.728203 
z
" style="fill: none"/>
   </g>
   <g id="matplotlib.axis_1">
    <g id="xtick_1">
     <g id="line2d_1">
      <path d="M 84.846761 470.728203 
L 84.846761 29.118125 
" clip-path="url(#p40373a964d)" style="fill: none; stroke: #cccccc; stroke-linecap: round"/>
     </g>
     <g id="line2d_2">
      <defs>
       <path id="ma2c205bcc4" d="M 0 0 
L 0 6 
" style="stroke: #262626; stroke-width: 1.25"/>
      </defs>
      <g>
       <use xlink:href="#ma2c205bcc4" x="84.846761" y="470.728203" style="fill: #262626; stroke: #262626; stroke-width: 1.25"/>
      </g>
     </g>
     <g id="text_1">
      <!-- 29.12.2020 -->
      <g style="fill: #262626" transform="translate(38.694233 530.673311)rotate(-45)scale(0.11 -0.11)">
       <defs>
        <path id="DejaVuSans-32" d="M 1228 531 
L 3431 531 
L 3431 0 
L 469 0 
L 469 531 
Q 828 903 1448 1529 
Q 2069 2156 2228 2338 
Q 2531 2678 2651 2914 
Q 2772 3150 2772 3378 
Q 2772 3750 2511 3984 
Q 2250 4219 1831 4219 
Q 1534 4219 1204 4116 
Q 875 4013 500 3803 
L 500 4441 
Q 881 4594 1212 4672 
Q 1544 4750 1819 4750 
Q 2544 4750 2975 4387 
Q 3406 4025 3406 3419 
Q 3406 3131 3298 2873 
Q 3191 2616 2906 2266 
Q 2828 2175 2409 1742 
Q 1991 1309 1228 531 
z
" transform="scale(0.015625)"/>
        <path id="DejaVuSans-39" d="M 703 97 
L 703 672 
Q 941 559 1184 500 
Q 1428 441 1663 441 
Q 2288 441 2617 861 
Q 2947 1281 2994 2138 
Q 2813 1869 2534 1725 
Q 2256 1581 1919 1581 
Q 1219 1581 811 2004 
Q 403 2428 403 3163 
Q 403 3881 828 4315 
Q 1253 4750 1959 4750 
Q 2769 4750 3195 4129 
Q 3622 3509 3622 2328 
Q 3622 1225 3098 567 
Q 2575 -91 1691 -91 
Q 1453 -91 1209 -44 
Q 966 3 703 97 
z
M 1959 2075 
Q 2384 2075 2632 2365 
Q 2881 2656 2881 3163 
Q 2881 3666 2632 3958 
Q 2384 4250 1959 4250 
Q 1534 4250 1286 3958 
Q 1038 3666 1038 3163 
Q 1038 2656 1286 2365 
Q 1534 2075 1959 2075 
z
" transform="scale(0.015625)"/>
        <path id="DejaVuSans-2e" d="M 684 794 
L 1344 794 
L 1344 0 
L 684 0 
L 684 794 
z
" transform="scale(0.015625)"/>
        <path id="DejaVuSans-31" d="M 794 531 
L 1825 531 
L 1825 4091 
L 703 3866 
L 703 4441 
L 1819 4666 
L 2450 4666 
L 2450 531 
L 3481 531 
L 3481 0 
L 794 0 
L 794 531 
z
" transform="scale(0.015625)"/>
        <path id="DejaVuSans-30" d="M 2034 4250 
Q 1547 4250 1301 3770 
Q 1056 3291 1056 2328 
Q 1056 1369 1301 889 
Q 1547 409 2034 409 
Q 2525 409 2770 889 
Q 3016 1369 3016 2328 
Q 3016 3291 2770 3770 
Q 2525 4250 2034 4250 
z
M 2034 4750 
Q 2819 4750 3233 4129 
Q 3647 3509 3647 2328 
Q 3647 1150 3233 529 
Q 2819 -91 2034 -91 
Q 1250 -91 836 529 
Q 422 1150 422 2328 
Q 422 3509 836 4129 
Q 1250 4750 2034 4750 
z
" transform="scale(0.015625)"/>
       </defs>
       <use xlink:href="#DejaVuSans-32"/>
       <use xlink:href="#DejaVuSans-39" x="63.623047"/>
       <use xlink:href="#DejaVuSans-2e" x="127.246094"/>
       <use xlink:href="#DejaVuSans-31" x="159.033203"/>
       <use xlink:href="#DejaVuSans-32" x="222.65625"/>
       <use xlink:href="#DejaVuSans-2e" x="286.279297"/>
       <use xlink:href="#DejaVuSans-32" x="318.066406"/>
       <use xlink:href="#DejaVuSans-30" x="381.689453"/>
       <use xlink:href="#DejaVuSans-32" x="445.3125"/>
       <use xlink:href="#DejaVuSans-30" x="508.935547"/>
      </g>
     </g>
    </g>
    <g id="xtick_2">
     <g id="line2d_3">
      <path d="M 112.300708 470.728203 
L 112.300708 29.118125 
" clip-path="url(#p40373a964d)" style="fill: none; stroke: #cccccc; stroke-linecap: round"/>
     </g>
     <g id="line2d_4">
      <g>
       <use xlink:href="#ma2c205bcc4" x="112.300708" y="470.728203" style="fill: #262626; stroke: #262626; stroke-width: 1.25"/>
      </g>
     </g>
     <g id="text_2">
      <!-- 12.01.2021 -->
      <g style="fill: #262626" transform="translate(66.14818 530.673311)rotate(-45)scale(0.11 -0.11)">
       <use xlink:href="#DejaVuSans-31"/>
       <use xlink:href="#DejaVuSans-32" x="63.623047"/>
       <use xlink:href="#DejaVuSans-2e" x="127.246094"/>
       <use xlink:href="#DejaVuSans-30" x="159.033203"/>
       <use xlink:href="#DejaVuSans-31" x="222.65625"/>
       <use xlink:href="#DejaVuSans-2e" x="286.279297"/>
       <use xlink:href="#DejaVuSans-32" x="318.066406"/>
       <use xlink:href="#DejaVuSans-30" x="381.689453"/>
       <use xlink:href="#DejaVuSans-32" x="445.3125"/>
       <use xlink:href="#DejaVuSans-31" x="508.935547"/>
      </g>
     </g>
    </g>
    <g id="xtick_3">
     <g id="line2d_5">
      <path d="M 139.754655 470.728203 
L 139.754655 29.118125 
" clip-path="url(#p40373a964d)" style="fill: none; stroke: #cccccc; stroke-linecap: round"/>
     </g>
     <g id="line2d_6">
      <g>
       <use xlink:href="#ma2c205bcc4" x="139.754655" y="470.728203" style="fill: #262626; stroke: #262626; stroke-width: 1.25"/>
      </g>
     </g>
     <g id="text_3">
      <!-- 26.01.2021 -->
      <g style="fill: #262626" transform="translate(93.602127 530.673311)rotate(-45)scale(0.11 -0.11)">
       <defs>
        <path id="DejaVuSans-36" d="M 2113 2584 
Q 1688 2584 1439 2293 
Q 1191 2003 1191 1497 
Q 1191 994 1439 701 
Q 1688 409 2113 409 
Q 2538 409 2786 701 
Q 3034 994 3034 1497 
Q 3034 2003 2786 2293 
Q 2538 2584 2113 2584 
z
M 3366 4563 
L 3366 3988 
Q 3128 4100 2886 4159 
Q 2644 4219 2406 4219 
Q 1781 4219 1451 3797 
Q 1122 3375 1075 2522 
Q 1259 2794 1537 2939 
Q 1816 3084 2150 3084 
Q 2853 3084 3261 2657 
Q 3669 2231 3669 1497 
Q 3669 778 3244 343 
Q 2819 -91 2113 -91 
Q 1303 -91 875 529 
Q 447 1150 447 2328 
Q 447 3434 972 4092 
Q 1497 4750 2381 4750 
Q 2619 4750 2861 4703 
Q 3103 4656 3366 4563 
z
" transform="scale(0.015625)"/>
       </defs>
       <use xlink:href="#DejaVuSans-32"/>
       <use xlink:href="#DejaVuSans-36" x="63.623047"/>
       <use xlink:href="#DejaVuSans-2e" x="127.246094"/>
       <use xlink:href="#DejaVuSans-30" x="159.033203"/>
       <use xlink:href="#DejaVuSans-31" x="222.65625"/>
       <use xlink:href="#DejaVuSans-2e" x="286.279297"/>
       <use xlink:href="#DejaVuSans-32" x="318.066406"/>
       <use xlink:href="#DejaVuSans-30" x="381.689453"/>
       <use xlink:href="#DejaVuSans-32" x="445.3125"/>
       <use xlink:href="#DejaVuSans-31" x="508.935547"/>
      </g>
     </g>
    </g>
    <g id="xtick_4">
     <g id="line2d_7">
      <path d="M 167.208601 470.728203 
L 167.208601 29.118125 
" clip-path="url(#p40373a964d)" style="fill: none; stroke: #cccccc; stroke-linecap: round"/>
     </g>
     <g id="line2d_8">
      <g>
       <use xlink:href="#ma2c205bcc4" x="167.208601" y="470.728203" style="fill: #262626; stroke: #262626; stroke-width: 1.25"/>
      </g>
     </g>
     <g id="text_4">
      <!-- 09.02.2021 -->
      <g style="fill: #262626" transform="translate(121.056073 530.673311)rotate(-45)scale(0.11 -0.11)">
       <use xlink:href="#DejaVuSans-30"/>
       <use xlink:href="#DejaVuSans-39" x="63.623047"/>
       <use xlink:href="#DejaVuSans-2e" x="127.246094"/>
       <use xlink:href="#DejaVuSans-30" x="159.033203"/>
       <use xlink:href="#DejaVuSans-32" x="222.65625"/>
       <use xlink:href="#DejaVuSans-2e" x="286.279297"/>
       <use xlink:href="#DejaVuSans-32" x="318.066406"/>
       <use xlink:href="#DejaVuSans-30" x="381.689453"/>
       <use xlink:href="#DejaVuSans-32" x="445.3125"/>
       <use xlink:href="#DejaVuSans-31" x="508.935547"/>
      </g>
     </g>
    </g>
    <g id="xtick_5">
     <g id="line2d_9">
      <path d="M 194.662548 470.728203 
L 194.662548 29.118125 
" clip-path="url(#p40373a964d)" style="fill: none; stroke: #cccccc; stroke-linecap: round"/>
     </g>
     <g id="line2d_10">
      <g>
       <use xlink:href="#ma2c205bcc4" x="194.662548" y="470.728203" style="fill: #262626; stroke: #262626; stroke-width: 1.25"/>
      </g>
     </g>
     <g id="text_5">
      <!-- 23.02.2021 -->
      <g style="fill: #262626" transform="translate(148.51002 530.673311)rotate(-45)scale(0.11 -0.11)">
       <defs>
        <path id="DejaVuSans-33" d="M 2597 2516 
Q 3050 2419 3304 2112 
Q 3559 1806 3559 1356 
Q 3559 666 3084 287 
Q 2609 -91 1734 -91 
Q 1441 -91 1130 -33 
Q 819 25 488 141 
L 488 750 
Q 750 597 1062 519 
Q 1375 441 1716 441 
Q 2309 441 2620 675 
Q 2931 909 2931 1356 
Q 2931 1769 2642 2001 
Q 2353 2234 1838 2234 
L 1294 2234 
L 1294 2753 
L 1863 2753 
Q 2328 2753 2575 2939 
Q 2822 3125 2822 3475 
Q 2822 3834 2567 4026 
Q 2313 4219 1838 4219 
Q 1578 4219 1281 4162 
Q 984 4106 628 3988 
L 628 4550 
Q 988 4650 1302 4700 
Q 1616 4750 1894 4750 
Q 2613 4750 3031 4423 
Q 3450 4097 3450 3541 
Q 3450 3153 3228 2886 
Q 3006 2619 2597 2516 
z
" transform="scale(0.015625)"/>
       </defs>
       <use xlink:href="#DejaVuSans-32"/>
       <use xlink:href="#DejaVuSans-33" x="63.623047"/>
       <use xlink:href="#DejaVuSans-2e" x="127.246094"/>
       <use xlink:href="#DejaVuSans-30" x="159.033203"/>
       <use xlink:href="#DejaVuSans-32" x="222.65625"/>
       <use xlink:href="#DejaVuSans-2e" x="286.279297"/>
       <use xlink:href="#DejaVuSans-32" x="318.066406"/>
       <use xlink:href="#DejaVuSans-30" x="381.689453"/>
       <use xlink:href="#DejaVuSans-32" x="445.3125"/>
       <use xlink:href="#DejaVuSans-31" x="508.935547"/>
      </g>
     </g>
    </g>
    <g id="xtick_6">
     <g id="line2d_11">
      <path d="M 222.116495 470.728203 
L 222.116495 29.118125 
" clip-path="url(#p40373a964d)" style="fill: none; stroke: #cccccc; stroke-linecap: round"/>
     </g>
     <g id="line2d_12">
      <g>
       <use xlink:href="#ma2c205bcc4" x="222.116495" y="470.728203" style="fill: #262626; stroke: #262626; stroke-width: 1.25"/>
      </g>
     </g>
     <g id="text_6">
      <!-- 09.03.2021 -->
      <g style="fill: #262626" transform="translate(175.963966 530.673311)rotate(-45)scale(0.11 -0.11)">
       <use xlink:href="#DejaVuSans-30"/>
       <use xlink:href="#DejaVuSans-39" x="63.623047"/>
       <use xlink:href="#DejaVuSans-2e" x="127.246094"/>
       <use xlink:href="#DejaVuSans-30" x="159.033203"/>
       <use xlink:href="#DejaVuSans-33" x="222.65625"/>
       <use xlink:href="#DejaVuSans-2e" x="286.279297"/>
       <use xlink:href="#DejaVuSans-32" x="318.066406"/>
       <use xlink:href="#DejaVuSans-30" x="381.689453"/>
       <use xlink:href="#DejaVuSans-32" x="445.3125"/>
       <use xlink:href="#DejaVuSans-31" x="508.935547"/>
      </g>
     </g>
    </g>
    <g id="xtick_7">
     <g id="line2d_13">
      <path d="M 249.570441 470.728203 
L 249.570441 29.118125 
" clip-path="url(#p40373a964d)" style="fill: none; stroke: #cccccc; stroke-linecap: round"/>
     </g>
     <g id="line2d_14">
      <g>
       <use xlink:href="#ma2c205bcc4" x="249.570441" y="470.728203" style="fill: #262626; stroke: #262626; stroke-width: 1.25"/>
      </g>
     </g>
     <g id="text_7">
      <!-- 23.03.2021 -->
      <g style="fill: #262626" transform="translate(203.417913 530.673311)rotate(-45)scale(0.11 -0.11)">
       <use xlink:href="#DejaVuSans-32"/>
       <use xlink:href="#DejaVuSans-33" x="63.623047"/>
       <use xlink:href="#DejaVuSans-2e" x="127.246094"/>
       <use xlink:href="#DejaVuSans-30" x="159.033203"/>
       <use xlink:href="#DejaVuSans-33" x="222.65625"/>
       <use xlink:href="#DejaVuSans-2e" x="286.279297"/>
       <use xlink:href="#DejaVuSans-32" x="318.066406"/>
       <use xlink:href="#DejaVuSans-30" x="381.689453"/>
       <use xlink:href="#DejaVuSans-32" x="445.3125"/>
       <use xlink:href="#DejaVuSans-31" x="508.935547"/>
      </g>
     </g>
    </g>
    <g id="xtick_8">
     <g id="line2d_15">
      <path d="M 277.024388 470.728203 
L 277.024388 29.118125 
" clip-path="url(#p40373a964d)" style="fill: none; stroke: #cccccc; stroke-linecap: round"/>
     </g>
     <g id="line2d_16">
      <g>
       <use xlink:href="#ma2c205bcc4" x="277.024388" y="470.728203" style="fill: #262626; stroke: #262626; stroke-width: 1.25"/>
      </g>
     </g>
     <g id="text_8">
      <!-- 06.04.2021 -->
      <g style="fill: #262626" transform="translate(230.87186 530.673311)rotate(-45)scale(0.11 -0.11)">
       <defs>
        <path id="DejaVuSans-34" d="M 2419 4116 
L 825 1625 
L 2419 1625 
L 2419 4116 
z
M 2253 4666 
L 3047 4666 
L 3047 1625 
L 3713 1625 
L 3713 1100 
L 3047 1100 
L 3047 0 
L 2419 0 
L 2419 1100 
L 313 1100 
L 313 1709 
L 2253 4666 
z
" transform="scale(0.015625)"/>
       </defs>
       <use xlink:href="#DejaVuSans-30"/>
       <use xlink:href="#DejaVuSans-36" x="63.623047"/>
       <use xlink:href="#DejaVuSans-2e" x="127.246094"/>
       <use xlink:href="#DejaVuSans-30" x="159.033203"/>
       <use xlink:href="#DejaVuSans-34" x="222.65625"/>
       <use xlink:href="#DejaVuSans-2e" x="286.279297"/>
       <use xlink:href="#DejaVuSans-32" x="318.066406"/>
       <use xlink:href="#DejaVuSans-30" x="381.689453"/>
       <use xlink:href="#DejaVuSans-32" x="445.3125"/>
       <use xlink:href="#DejaVuSans-31" x="508.935547"/>
      </g>
     </g>
    </g>
    <g id="xtick_9">
     <g id="line2d_17">
      <path d="M 304.478335 470.728203 
L 304.478335 29.118125 
" clip-path="url(#p40373a964d)" style="fill: none; stroke: #cccccc; stroke-linecap: round"/>
     </g>
     <g id="line2d_18">
      <g>
       <use xlink:href="#ma2c205bcc4" x="304.478335" y="470.728203" style="fill: #262626; stroke: #262626; stroke-width: 1.25"/>
      </g>
     </g>
     <g id="text_9">
      <!-- 20.04.2021 -->
      <g style="fill: #262626" transform="translate(258.325806 530.673311)rotate(-45)scale(0.11 -0.11)">
       <use xlink:href="#DejaVuSans-32"/>
       <use xlink:href="#DejaVuSans-30" x="63.623047"/>
       <use xlink:href="#DejaVuSans-2e" x="127.246094"/>
       <use xlink:href="#DejaVuSans-30" x="159.033203"/>
       <use xlink:href="#DejaVuSans-34" x="222.65625"/>
       <use xlink:href="#DejaVuSans-2e" x="286.279297"/>
       <use xlink:href="#DejaVuSans-32" x="318.066406"/>
       <use xlink:href="#DejaVuSans-30" x="381.689453"/>
       <use xlink:href="#DejaVuSans-32" x="445.3125"/>
       <use xlink:href="#DejaVuSans-31" x="508.935547"/>
      </g>
     </g>
    </g>
    <g id="xtick_10">
     <g id="line2d_19">
      <path d="M 331.932281 470.728203 
L 331.932281 29.118125 
" clip-path="url(#p40373a964d)" style="fill: none; stroke: #cccccc; stroke-linecap: round"/>
     </g>
     <g id="line2d_20">
      <g>
       <use xlink:href="#ma2c205bcc4" x="331.932281" y="470.728203" style="fill: #262626; stroke: #262626; stroke-width: 1.25"/>
      </g>
     </g>
     <g id="text_10">
      <!-- 04.05.2021 -->
      <g style="fill: #262626" transform="translate(285.779753 530.673311)rotate(-45)scale(0.11 -0.11)">
       <defs>
        <path id="DejaVuSans-35" d="M 691 4666 
L 3169 4666 
L 3169 4134 
L 1269 4134 
L 1269 2991 
Q 1406 3038 1543 3061 
Q 1681 3084 1819 3084 
Q 2600 3084 3056 2656 
Q 3513 2228 3513 1497 
Q 3513 744 3044 326 
Q 2575 -91 1722 -91 
Q 1428 -91 1123 -41 
Q 819 9 494 109 
L 494 744 
Q 775 591 1075 516 
Q 1375 441 1709 441 
Q 2250 441 2565 725 
Q 2881 1009 2881 1497 
Q 2881 1984 2565 2268 
Q 2250 2553 1709 2553 
Q 1456 2553 1204 2497 
Q 953 2441 691 2322 
L 691 4666 
z
" transform="scale(0.015625)"/>
       </defs>
       <use xlink:href="#DejaVuSans-30"/>
       <use xlink:href="#DejaVuSans-34" x="63.623047"/>
       <use xlink:href="#DejaVuSans-2e" x="127.246094"/>
       <use xlink:href="#DejaVuSans-30" x="159.033203"/>
       <use xlink:href="#DejaVuSans-35" x="222.65625"/>
       <use xlink:href="#DejaVuSans-2e" x="286.279297"/>
       <use xlink:href="#DejaVuSans-32" x="318.066406"/>
       <use xlink:href="#DejaVuSans-30" x="381.689453"/>
       <use xlink:href="#DejaVuSans-32" x="445.3125"/>
       <use xlink:href="#DejaVuSans-31" x="508.935547"/>
      </g>
     </g>
    </g>
    <g id="xtick_11">
     <g id="line2d_21">
      <path d="M 359.386228 470.728203 
L 359.386228 29.118125 
" clip-path="url(#p40373a964d)" style="fill: none; stroke: #cccccc; stroke-linecap: round"/>
     </g>
     <g id="line2d_22">
      <g>
       <use xlink:href="#ma2c205bcc4" x="359.386228" y="470.728203" style="fill: #262626; stroke: #262626; stroke-width: 1.25"/>
      </g>
     </g>
     <g id="text_11">
      <!-- 18.05.2021 -->
      <g style="fill: #262626" transform="translate(313.2337 530.673311)rotate(-45)scale(0.11 -0.11)">
       <defs>
        <path id="DejaVuSans-38" d="M 2034 2216 
Q 1584 2216 1326 1975 
Q 1069 1734 1069 1313 
Q 1069 891 1326 650 
Q 1584 409 2034 409 
Q 2484 409 2743 651 
Q 3003 894 3003 1313 
Q 3003 1734 2745 1975 
Q 2488 2216 2034 2216 
z
M 1403 2484 
Q 997 2584 770 2862 
Q 544 3141 544 3541 
Q 544 4100 942 4425 
Q 1341 4750 2034 4750 
Q 2731 4750 3128 4425 
Q 3525 4100 3525 3541 
Q 3525 3141 3298 2862 
Q 3072 2584 2669 2484 
Q 3125 2378 3379 2068 
Q 3634 1759 3634 1313 
Q 3634 634 3220 271 
Q 2806 -91 2034 -91 
Q 1263 -91 848 271 
Q 434 634 434 1313 
Q 434 1759 690 2068 
Q 947 2378 1403 2484 
z
M 1172 3481 
Q 1172 3119 1398 2916 
Q 1625 2713 2034 2713 
Q 2441 2713 2670 2916 
Q 2900 3119 2900 3481 
Q 2900 3844 2670 4047 
Q 2441 4250 2034 4250 
Q 1625 4250 1398 4047 
Q 1172 3844 1172 3481 
z
" transform="scale(0.015625)"/>
       </defs>
       <use xlink:href="#DejaVuSans-31"/>
       <use xlink:href="#DejaVuSans-38" x="63.623047"/>
       <use xlink:href="#DejaVuSans-2e" x="127.246094"/>
       <use xlink:href="#DejaVuSans-30" x="159.033203"/>
       <use xlink:href="#DejaVuSans-35" x="222.65625"/>
       <use xlink:href="#DejaVuSans-2e" x="286.279297"/>
       <use xlink:href="#DejaVuSans-32" x="318.066406"/>
       <use xlink:href="#DejaVuSans-30" x="381.689453"/>
       <use xlink:href="#DejaVuSans-32" x="445.3125"/>
       <use xlink:href="#DejaVuSans-31" x="508.935547"/>
      </g>
     </g>
    </g>
    <g id="xtick_12">
     <g id="line2d_23">
      <path d="M 386.840175 470.728203 
L 386.840175 29.118125 
" clip-path="url(#p40373a964d)" style="fill: none; stroke: #cccccc; stroke-linecap: round"/>
     </g>
     <g id="line2d_24">
      <g>
       <use xlink:href="#ma2c205bcc4" x="386.840175" y="470.728203" style="fill: #262626; stroke: #262626; stroke-width: 1.25"/>
      </g>
     </g>
     <g id="text_12">
      <!-- 01.06.2021 -->
      <g style="fill: #262626" transform="translate(340.687646 530.673311)rotate(-45)scale(0.11 -0.11)">
       <use xlink:href="#DejaVuSans-30"/>
       <use xlink:href="#DejaVuSans-31" x="63.623047"/>
       <use xlink:href="#DejaVuSans-2e" x="127.246094"/>
       <use xlink:href="#DejaVuSans-30" x="159.033203"/>
       <use xlink:href="#DejaVuSans-36" x="222.65625"/>
       <use xlink:href="#DejaVuSans-2e" x="286.279297"/>
       <use xlink:href="#DejaVuSans-32" x="318.066406"/>
       <use xlink:href="#DejaVuSans-30" x="381.689453"/>
       <use xlink:href="#DejaVuSans-32" x="445.3125"/>
       <use xlink:href="#DejaVuSans-31" x="508.935547"/>
      </g>
     </g>
    </g>
    <g id="xtick_13">
     <g id="line2d_25">
      <path d="M 414.294121 470.728203 
L 414.294121 29.118125 
" clip-path="url(#p40373a964d)" style="fill: none; stroke: #cccccc; stroke-linecap: round"/>
     </g>
     <g id="line2d_26">
      <g>
       <use xlink:href="#ma2c205bcc4" x="414.294121" y="470.728203" style="fill: #262626; stroke: #262626; stroke-width: 1.25"/>
      </g>
     </g>
     <g id="text_13">
      <!-- 15.06.2021 -->
      <g style="fill: #262626" transform="translate(368.141593 530.673311)rotate(-45)scale(0.11 -0.11)">
       <use xlink:href="#DejaVuSans-31"/>
       <use xlink:href="#DejaVuSans-35" x="63.623047"/>
       <use xlink:href="#DejaVuSans-2e" x="127.246094"/>
       <use xlink:href="#DejaVuSans-30" x="159.033203"/>
       <use xlink:href="#DejaVuSans-36" x="222.65625"/>
       <use xlink:href="#DejaVuSans-2e" x="286.279297"/>
       <use xlink:href="#DejaVuSans-32" x="318.066406"/>
       <use xlink:href="#DejaVuSans-30" x="381.689453"/>
       <use xlink:href="#DejaVuSans-32" x="445.3125"/>
       <use xlink:href="#DejaVuSans-31" x="508.935547"/>
      </g>
     </g>
    </g>
    <g id="xtick_14">
     <g id="line2d_27">
      <path d="M 441.748068 470.728203 
L 441.748068 29.118125 
" clip-path="url(#p40373a964d)" style="fill: none; stroke: #cccccc; stroke-linecap: round"/>
     </g>
     <g id="line2d_28">
      <g>
       <use xlink:href="#ma2c205bcc4" x="441.748068" y="470.728203" style="fill: #262626; stroke: #262626; stroke-width: 1.25"/>
      </g>
     </g>
     <g id="text_14">
      <!-- 29.06.2021 -->
      <g style="fill: #262626" transform="translate(395.59554 530.673311)rotate(-45)scale(0.11 -0.11)">
       <use xlink:href="#DejaVuSans-32"/>
       <use xlink:href="#DejaVuSans-39" x="63.623047"/>
       <use xlink:href="#DejaVuSans-2e" x="127.246094"/>
       <use xlink:href="#DejaVuSans-30" x="159.033203"/>
       <use xlink:href="#DejaVuSans-36" x="222.65625"/>
       <use xlink:href="#DejaVuSans-2e" x="286.279297"/>
       <use xlink:href="#DejaVuSans-32" x="318.066406"/>
       <use xlink:href="#DejaVuSans-30" x="381.689453"/>
       <use xlink:href="#DejaVuSans-32" x="445.3125"/>
       <use xlink:href="#DejaVuSans-31" x="508.935547"/>
      </g>
     </g>
    </g>
    <g id="xtick_15">
     <g id="line2d_29">
      <path d="M 469.202014 470.728203 
L 469.202014 29.118125 
" clip-path="url(#p40373a964d)" style="fill: none; stroke: #cccccc; stroke-linecap: round"/>
     </g>
     <g id="line2d_30">
      <g>
       <use xlink:href="#ma2c205bcc4" x="469.202014" y="470.728203" style="fill: #262626; stroke: #262626; stroke-width: 1.25"/>
      </g>
     </g>
     <g id="text_15">
      <!-- 13.07.2021 -->
      <g style="fill: #262626" transform="translate(423.049486 530.673311)rotate(-45)scale(0.11 -0.11)">
       <defs>
        <path id="DejaVuSans-37" d="M 525 4666 
L 3525 4666 
L 3525 4397 
L 1831 0 
L 1172 0 
L 2766 4134 
L 525 4134 
L 525 4666 
z
" transform="scale(0.015625)"/>
       </defs>
       <use xlink:href="#DejaVuSans-31"/>
       <use xlink:href="#DejaVuSans-33" x="63.623047"/>
       <use xlink:href="#DejaVuSans-2e" x="127.246094"/>
       <use xlink:href="#DejaVuSans-30" x="159.033203"/>
       <use xlink:href="#DejaVuSans-37" x="222.65625"/>
       <use xlink:href="#DejaVuSans-2e" x="286.279297"/>
       <use xlink:href="#DejaVuSans-32" x="318.066406"/>
       <use xlink:href="#DejaVuSans-30" x="381.689453"/>
       <use xlink:href="#DejaVuSans-32" x="445.3125"/>
       <use xlink:href="#DejaVuSans-31" x="508.935547"/>
      </g>
     </g>
    </g>
    <g id="xtick_16">
     <g id="line2d_31">
      <path d="M 496.655961 470.728203 
L 496.655961 29.118125 
" clip-path="url(#p40373a964d)" style="fill: none; stroke: #cccccc; stroke-linecap: round"/>
     </g>
     <g id="line2d_32">
      <g>
       <use xlink:href="#ma2c205bcc4" x="496.655961" y="470.728203" style="fill: #262626; stroke: #262626; stroke-width: 1.25"/>
      </g>
     </g>
     <g id="text_16">
      <!-- 27.07.2021 -->
      <g style="fill: #262626" transform="translate(450.503433 530.673311)rotate(-45)scale(0.11 -0.11)">
       <use xlink:href="#DejaVuSans-32"/>
       <use xlink:href="#DejaVuSans-37" x="63.623047"/>
       <use xlink:href="#DejaVuSans-2e" x="127.246094"/>
       <use xlink:href="#DejaVuSans-30" x="159.033203"/>
       <use xlink:href="#DejaVuSans-37" x="222.65625"/>
       <use xlink:href="#DejaVuSans-2e" x="286.279297"/>
       <use xlink:href="#DejaVuSans-32" x="318.066406"/>
       <use xlink:href="#DejaVuSans-30" x="381.689453"/>
       <use xlink:href="#DejaVuSans-32" x="445.3125"/>
       <use xlink:href="#DejaVuSans-31" x="508.935547"/>
      </g>
     </g>
    </g>
    <g id="xtick_17">
     <g id="line2d_33">
      <path d="M 524.109908 470.728203 
L 524.109908 29.118125 
" clip-path="url(#p40373a964d)" style="fill: none; stroke: #cccccc; stroke-linecap: round"/>
     </g>
     <g id="line2d_34">
      <g>
       <use xlink:href="#ma2c205bcc4" x="524.109908" y="470.728203" style="fill: #262626; stroke: #262626; stroke-width: 1.25"/>
      </g>
     </g>
     <g id="text_17">
      <!-- 10.08.2021 -->
      <g style="fill: #262626" transform="translate(477.95738 530.673311)rotate(-45)scale(0.11 -0.11)">
       <use xlink:href="#DejaVuSans-31"/>
       <use xlink:href="#DejaVuSans-30" x="63.623047"/>
       <use xlink:href="#DejaVuSans-2e" x="127.246094"/>
       <use xlink:href="#DejaVuSans-30" x="159.033203"/>
       <use xlink:href="#DejaVuSans-38" x="222.65625"/>
       <use xlink:href="#DejaVuSans-2e" x="286.279297"/>
       <use xlink:href="#DejaVuSans-32" x="318.066406"/>
       <use xlink:href="#DejaVuSans-30" x="381.689453"/>
       <use xlink:href="#DejaVuSans-32" x="445.3125"/>
       <use xlink:href="#DejaVuSans-31" x="508.935547"/>
      </g>
     </g>
    </g>
    <g id="xtick_18">
     <g id="line2d_35">
      <path d="M 551.563854 470.728203 
L 551.563854 29.118125 
" clip-path="url(#p40373a964d)" style="fill: none; stroke: #cccccc; stroke-linecap: round"/>
     </g>
     <g id="line2d_36">
      <g>
       <use xlink:href="#ma2c205bcc4" x="551.563854" y="470.728203" style="fill: #262626; stroke: #262626; stroke-width: 1.25"/>
      </g>
     </g>
     <g id="text_18">
      <!-- 24.08.2021 -->
      <g style="fill: #262626" transform="translate(505.411326 530.673311)rotate(-45)scale(0.11 -0.11)">
       <use xlink:href="#DejaVuSans-32"/>
       <use xlink:href="#DejaVuSans-34" x="63.623047"/>
       <use xlink:href="#DejaVuSans-2e" x="127.246094"/>
       <use xlink:href="#DejaVuSans-30" x="159.033203"/>
       <use xlink:href="#DejaVuSans-38" x="222.65625"/>
       <use xlink:href="#DejaVuSans-2e" x="286.279297"/>
       <use xlink:href="#DejaVuSans-32" x="318.066406"/>
       <use xlink:href="#DejaVuSans-30" x="381.689453"/>
       <use xlink:href="#DejaVuSans-32" x="445.3125"/>
       <use xlink:href="#DejaVuSans-31" x="508.935547"/>
      </g>
     </g>
    </g>
    <g id="xtick_19">
     <g id="line2d_37">
      <path d="M 579.017801 470.728203 
L 579.017801 29.118125 
" clip-path="url(#p40373a964d)" style="fill: none; stroke: #cccccc; stroke-linecap: round"/>
     </g>
     <g id="line2d_38">
      <g>
       <use xlink:href="#ma2c205bcc4" x="579.017801" y="470.728203" style="fill: #262626; stroke: #262626; stroke-width: 1.25"/>
      </g>
     </g>
     <g id="text_19">
      <!-- 07.09.2021 -->
      <g style="fill: #262626" transform="translate(532.865273 530.673311)rotate(-45)scale(0.11 -0.11)">
       <use xlink:href="#DejaVuSans-30"/>
       <use xlink:href="#DejaVuSans-37" x="63.623047"/>
       <use xlink:href="#DejaVuSans-2e" x="127.246094"/>
       <use xlink:href="#DejaVuSans-30" x="159.033203"/>
       <use xlink:href="#DejaVuSans-39" x="222.65625"/>
       <use xlink:href="#DejaVuSans-2e" x="286.279297"/>
       <use xlink:href="#DejaVuSans-32" x="318.066406"/>
       <use xlink:href="#DejaVuSans-30" x="381.689453"/>
       <use xlink:href="#DejaVuSans-32" x="445.3125"/>
       <use xlink:href="#DejaVuSans-31" x="508.935547"/>
      </g>
     </g>
    </g>
    <g id="xtick_20">
     <g id="line2d_39">
      <path d="M 606.471748 470.728203 
L 606.471748 29.118125 
" clip-path="url(#p40373a964d)" style="fill: none; stroke: #cccccc; stroke-linecap: round"/>
     </g>
     <g id="line2d_40">
      <g>
       <use xlink:href="#ma2c205bcc4" x="606.471748" y="470.728203" style="fill: #262626; stroke: #262626; stroke-width: 1.25"/>
      </g>
     </g>
     <g id="text_20">
      <!-- 21.09.2021 -->
      <g style="fill: #262626" transform="translate(560.31922 530.673311)rotate(-45)scale(0.11 -0.11)">
       <use xlink:href="#DejaVuSans-32"/>
       <use xlink:href="#DejaVuSans-31" x="63.623047"/>
       <use xlink:href="#DejaVuSans-2e" x="127.246094"/>
       <use xlink:href="#DejaVuSans-30" x="159.033203"/>
       <use xlink:href="#DejaVuSans-39" x="222.65625"/>
       <use xlink:href="#DejaVuSans-2e" x="286.279297"/>
       <use xlink:href="#DejaVuSans-32" x="318.066406"/>
       <use xlink:href="#DejaVuSans-30" x="381.689453"/>
       <use xlink:href="#DejaVuSans-32" x="445.3125"/>
       <use xlink:href="#DejaVuSans-31" x="508.935547"/>
      </g>
     </g>
    </g>
    <g id="xtick_21">
     <g id="line2d_41">
      <path d="M 633.925694 470.728203 
L 633.925694 29.118125 
" clip-path="url(#p40373a964d)" style="fill: none; stroke: #cccccc; stroke-linecap: round"/>
     </g>
     <g id="line2d_42">
      <g>
       <use xlink:href="#ma2c205bcc4" x="633.925694" y="470.728203" style="fill: #262626; stroke: #262626; stroke-width: 1.25"/>
      </g>
     </g>
     <g id="text_21">
      <!-- 05.10.2021 -->
      <g style="fill: #262626" transform="translate(587.773166 530.673311)rotate(-45)scale(0.11 -0.11)">
       <use xlink:href="#DejaVuSans-30"/>
       <use xlink:href="#DejaVuSans-35" x="63.623047"/>
       <use xlink:href="#DejaVuSans-2e" x="127.246094"/>
       <use xlink:href="#DejaVuSans-31" x="159.033203"/>
       <use xlink:href="#DejaVuSans-30" x="222.65625"/>
       <use xlink:href="#DejaVuSans-2e" x="286.279297"/>
       <use xlink:href="#DejaVuSans-32" x="318.066406"/>
       <use xlink:href="#DejaVuSans-30" x="381.689453"/>
       <use xlink:href="#DejaVuSans-32" x="445.3125"/>
       <use xlink:href="#DejaVuSans-31" x="508.935547"/>
      </g>
     </g>
    </g>
    <g id="xtick_22">
     <g id="line2d_43">
      <path d="M 661.379641 470.728203 
L 661.379641 29.118125 
" clip-path="url(#p40373a964d)" style="fill: none; stroke: #cccccc; stroke-linecap: round"/>
     </g>
     <g id="line2d_44">
      <g>
       <use xlink:href="#ma2c205bcc4" x="661.379641" y="470.728203" style="fill: #262626; stroke: #262626; stroke-width: 1.25"/>
      </g>
     </g>
     <g id="text_22">
      <!-- 19.10.2021 -->
      <g style="fill: #262626" transform="translate(615.227113 530.673311)rotate(-45)scale(0.11 -0.11)">
       <use xlink:href="#DejaVuSans-31"/>
       <use xlink:href="#DejaVuSans-39" x="63.623047"/>
       <use xlink:href="#DejaVuSans-2e" x="127.246094"/>
       <use xlink:href="#DejaVuSans-31" x="159.033203"/>
       <use xlink:href="#DejaVuSans-30" x="222.65625"/>
       <use xlink:href="#DejaVuSans-2e" x="286.279297"/>
       <use xlink:href="#DejaVuSans-32" x="318.066406"/>
       <use xlink:href="#DejaVuSans-30" x="381.689453"/>
       <use xlink:href="#DejaVuSans-32" x="445.3125"/>
       <use xlink:href="#DejaVuSans-31" x="508.935547"/>
      </g>
     </g>
    </g>
    <g id="xtick_23">
     <g id="line2d_45">
      <path d="M 688.833588 470.728203 
L 688.833588 29.118125 
" clip-path="url(#p40373a964d)" style="fill: none; stroke: #cccccc; stroke-linecap: round"/>
     </g>
     <g id="line2d_46">
      <g>
       <use xlink:href="#ma2c205bcc4" x="688.833588" y="470.728203" style="fill: #262626; stroke: #262626; stroke-width: 1.25"/>
      </g>
     </g>
     <g id="text_23">
      <!-- 02.11.2021 -->
      <g style="fill: #262626" transform="translate(642.68106 530.673311)rotate(-45)scale(0.11 -0.11)">
       <use xlink:href="#DejaVuSans-30"/>
       <use xlink:href="#DejaVuSans-32" x="63.623047"/>
       <use xlink:href="#DejaVuSans-2e" x="127.246094"/>
       <use xlink:href="#DejaVuSans-31" x="159.033203"/>
       <use xlink:href="#DejaVuSans-31" x="222.65625"/>
       <use xlink:href="#DejaVuSans-2e" x="286.279297"/>
       <use xlink:href="#DejaVuSans-32" x="318.066406"/>
       <use xlink:href="#DejaVuSans-30" x="381.689453"/>
       <use xlink:href="#DejaVuSans-32" x="445.3125"/>
       <use xlink:href="#DejaVuSans-31" x="508.935547"/>
      </g>
     </g>
    </g>
    <g id="xtick_24">
     <g id="line2d_47">
      <path d="M 716.287534 470.728203 
L 716.287534 29.118125 
" clip-path="url(#p40373a964d)" style="fill: none; stroke: #cccccc; stroke-linecap: round"/>
     </g>
     <g id="line2d_48">
      <g>
       <use xlink:href="#ma2c205bcc4" x="716.287534" y="470.728203" style="fill: #262626; stroke: #262626; stroke-width: 1.25"/>
      </g>
     </g>
     <g id="text_24">
      <!-- 16.11.2021 -->
      <g style="fill: #262626" transform="translate(670.135006 530.673311)rotate(-45)scale(0.11 -0.11)">
       <use xlink:href="#DejaVuSans-31"/>
       <use xlink:href="#DejaVuSans-36" x="63.623047"/>
       <use xlink:href="#DejaVuSans-2e" x="127.246094"/>
       <use xlink:href="#DejaVuSans-31" x="159.033203"/>
       <use xlink:href="#DejaVuSans-31" x="222.65625"/>
       <use xlink:href="#DejaVuSans-2e" x="286.279297"/>
       <use xlink:href="#DejaVuSans-32" x="318.066406"/>
       <use xlink:href="#DejaVuSans-30" x="381.689453"/>
       <use xlink:href="#DejaVuSans-32" x="445.3125"/>
       <use xlink:href="#DejaVuSans-31" x="508.935547"/>
      </g>
     </g>
    </g>
    <g id="xtick_25">
     <g id="line2d_49">
      <defs>
       <path id="maebd3c9902" d="M 0 0 
L 0 4 
" style="stroke: #262626"/>
      </defs>
      <g>
       <use xlink:href="#maebd3c9902" x="65.236799" y="470.728203" style="fill: #262626; stroke: #262626"/>
      </g>
     </g>
    </g>
    <g id="xtick_26">
     <g id="line2d_50">
      <g>
       <use xlink:href="#maebd3c9902" x="78.963773" y="470.728203" style="fill: #262626; stroke: #262626"/>
      </g>
     </g>
    </g>
    <g id="xtick_27">
     <g id="line2d_51">
      <g>
       <use xlink:href="#maebd3c9902" x="92.690746" y="470.728203" style="fill: #262626; stroke: #262626"/>
      </g>
     </g>
    </g>
    <g id="xtick_28">
     <g id="line2d_52">
      <g>
       <use xlink:href="#maebd3c9902" x="106.417719" y="470.728203" style="fill: #262626; stroke: #262626"/>
      </g>
     </g>
    </g>
    <g id="xtick_29">
     <g id="line2d_53">
      <g>
       <use xlink:href="#maebd3c9902" x="120.144693" y="470.728203" style="fill: #262626; stroke: #262626"/>
      </g>
     </g>
    </g>
    <g id="xtick_30">
     <g id="line2d_54">
      <g>
       <use xlink:href="#maebd3c9902" x="133.871666" y="470.728203" style="fill: #262626; stroke: #262626"/>
      </g>
     </g>
    </g>
    <g id="xtick_31">
     <g id="line2d_55">
      <g>
       <use xlink:href="#maebd3c9902" x="147.598639" y="470.728203" style="fill: #262626; stroke: #262626"/>
      </g>
     </g>
    </g>
    <g id="xtick_32">
     <g id="line2d_56">
      <g>
       <use xlink:href="#maebd3c9902" x="161.325613" y="470.728203" style="fill: #262626; stroke: #262626"/>
      </g>
     </g>
    </g>
    <g id="xtick_33">
     <g id="line2d_57">
      <g>
       <use xlink:href="#maebd3c9902" x="175.052586" y="470.728203" style="fill: #262626; stroke: #262626"/>
      </g>
     </g>
    </g>
    <g id="xtick_34">
     <g id="line2d_58">
      <g>
       <use xlink:href="#maebd3c9902" x="188.779559" y="470.728203" style="fill: #262626; stroke: #262626"/>
      </g>
     </g>
    </g>
    <g id="xtick_35">
     <g id="line2d_59">
      <g>
       <use xlink:href="#maebd3c9902" x="202.506533" y="470.728203" style="fill: #262626; stroke: #262626"/>
      </g>
     </g>
    </g>
    <g id="xtick_36">
     <g id="line2d_60">
      <g>
       <use xlink:href="#maebd3c9902" x="216.233506" y="470.728203" style="fill: #262626; stroke: #262626"/>
      </g>
     </g>
    </g>
    <g id="xtick_37">
     <g id="line2d_61">
      <g>
       <use xlink:href="#maebd3c9902" x="229.960479" y="470.728203" style="fill: #262626; stroke: #262626"/>
      </g>
     </g>
    </g>
    <g id="xtick_38">
     <g id="line2d_62">
      <g>
       <use xlink:href="#maebd3c9902" x="243.687453" y="470.728203" style="fill: #262626; stroke: #262626"/>
      </g>
     </g>
    </g>
    <g id="xtick_39">
     <g id="line2d_63">
      <g>
       <use xlink:href="#maebd3c9902" x="257.414426" y="470.728203" style="fill: #262626; stroke: #262626"/>
      </g>
     </g>
    </g>
    <g id="xtick_40">
     <g id="line2d_64">
      <g>
       <use xlink:href="#maebd3c9902" x="271.141399" y="470.728203" style="fill: #262626; stroke: #262626"/>
      </g>
     </g>
    </g>
    <g id="xtick_41">
     <g id="line2d_65">
      <g>
       <use xlink:href="#maebd3c9902" x="284.868373" y="470.728203" style="fill: #262626; stroke: #262626"/>
      </g>
     </g>
    </g>
    <g id="xtick_42">
     <g id="line2d_66">
      <g>
       <use xlink:href="#maebd3c9902" x="298.595346" y="470.728203" style="fill: #262626; stroke: #262626"/>
      </g>
     </g>
    </g>
    <g id="xtick_43">
     <g id="line2d_67">
      <g>
       <use xlink:href="#maebd3c9902" x="312.322319" y="470.728203" style="fill: #262626; stroke: #262626"/>
      </g>
     </g>
    </g>
    <g id="xtick_44">
     <g id="line2d_68">
      <g>
       <use xlink:href="#maebd3c9902" x="326.049293" y="470.728203" style="fill: #262626; stroke: #262626"/>
      </g>
     </g>
    </g>
    <g id="xtick_45">
     <g id="line2d_69">
      <g>
       <use xlink:href="#maebd3c9902" x="339.776266" y="470.728203" style="fill: #262626; stroke: #262626"/>
      </g>
     </g>
    </g>
    <g id="xtick_46">
     <g id="line2d_70">
      <g>
       <use xlink:href="#maebd3c9902" x="353.503239" y="470.728203" style="fill: #262626; stroke: #262626"/>
      </g>
     </g>
    </g>
    <g id="xtick_47">
     <g id="line2d_71">
      <g>
       <use xlink:href="#maebd3c9902" x="367.230213" y="470.728203" style="fill: #262626; stroke: #262626"/>
      </g>
     </g>
    </g>
    <g id="xtick_48">
     <g id="line2d_72">
      <g>
       <use xlink:href="#maebd3c9902" x="380.957186" y="470.728203" style="fill: #262626; stroke: #262626"/>
      </g>
     </g>
    </g>
    <g id="xtick_49">
     <g id="line2d_73">
      <g>
       <use xlink:href="#maebd3c9902" x="394.684159" y="470.728203" style="fill: #262626; stroke: #262626"/>
      </g>
     </g>
    </g>
    <g id="xtick_50">
     <g id="line2d_74">
      <g>
       <use xlink:href="#maebd3c9902" x="408.411133" y="470.728203" style="fill: #262626; stroke: #262626"/>
      </g>
     </g>
    </g>
    <g id="xtick_51">
     <g id="line2d_75">
      <g>
       <use xlink:href="#maebd3c9902" x="422.138106" y="470.728203" style="fill: #262626; stroke: #262626"/>
      </g>
     </g>
    </g>
    <g id="xtick_52">
     <g id="line2d_76">
      <g>
       <use xlink:href="#maebd3c9902" x="435.865079" y="470.728203" style="fill: #262626; stroke: #262626"/>
      </g>
     </g>
    </g>
    <g id="xtick_53">
     <g id="line2d_77">
      <g>
       <use xlink:href="#maebd3c9902" x="449.592053" y="470.728203" style="fill: #262626; stroke: #262626"/>
      </g>
     </g>
    </g>
    <g id="xtick_54">
     <g id="line2d_78">
      <g>
       <use xlink:href="#maebd3c9902" x="463.319026" y="470.728203" style="fill: #262626; stroke: #262626"/>
      </g>
     </g>
    </g>
    <g id="xtick_55">
     <g id="line2d_79">
      <g>
       <use xlink:href="#maebd3c9902" x="477.045999" y="470.728203" style="fill: #262626; stroke: #262626"/>
      </g>
     </g>
    </g>
    <g id="xtick_56">
     <g id="line2d_80">
      <g>
       <use xlink:href="#maebd3c9902" x="490.772973" y="470.728203" style="fill: #262626; stroke: #262626"/>
      </g>
     </g>
    </g>
    <g id="xtick_57">
     <g id="line2d_81">
      <g>
       <use xlink:href="#maebd3c9902" x="504.499946" y="470.728203" style="fill: #262626; stroke: #262626"/>
      </g>
     </g>
    </g>
    <g id="xtick_58">
     <g id="line2d_82">
      <g>
       <use xlink:href="#maebd3c9902" x="518.226919" y="470.728203" style="fill: #262626; stroke: #262626"/>
      </g>
     </g>
    </g>
    <g id="xtick_59">
     <g id="line2d_83">
      <g>
       <use xlink:href="#maebd3c9902" x="531.953893" y="470.728203" style="fill: #262626; stroke: #262626"/>
      </g>
     </g>
    </g>
    <g id="xtick_60">
     <g id="line2d_84">
      <g>
       <use xlink:href="#maebd3c9902" x="545.680866" y="470.728203" style="fill: #262626; stroke: #262626"/>
      </g>
     </g>
    </g>
    <g id="xtick_61">
     <g id="line2d_85">
      <g>
       <use xlink:href="#maebd3c9902" x="559.407839" y="470.728203" style="fill: #262626; stroke: #262626"/>
      </g>
     </g>
    </g>
    <g id="xtick_62">
     <g id="line2d_86">
      <g>
       <use xlink:href="#maebd3c9902" x="573.134813" y="470.728203" style="fill: #262626; stroke: #262626"/>
      </g>
     </g>
    </g>
    <g id="xtick_63">
     <g id="line2d_87">
      <g>
       <use xlink:href="#maebd3c9902" x="586.861786" y="470.728203" style="fill: #262626; stroke: #262626"/>
      </g>
     </g>
    </g>
    <g id="xtick_64">
     <g id="line2d_88">
      <g>
       <use xlink:href="#maebd3c9902" x="600.588759" y="470.728203" style="fill: #262626; stroke: #262626"/>
      </g>
     </g>
    </g>
    <g id="xtick_65">
     <g id="line2d_89">
      <g>
       <use xlink:href="#maebd3c9902" x="614.315733" y="470.728203" style="fill: #262626; stroke: #262626"/>
      </g>
     </g>
    </g>
    <g id="xtick_66">
     <g id="line2d_90">
      <g>
       <use xlink:href="#maebd3c9902" x="628.042706" y="470.728203" style="fill: #262626; stroke: #262626"/>
      </g>
     </g>
    </g>
    <g id="xtick_67">
     <g id="line2d_91">
      <g>
       <use xlink:href="#maebd3c9902" x="641.769679" y="470.728203" style="fill: #262626; stroke: #262626"/>
      </g>
     </g>
    </g>
    <g id="xtick_68">
     <g id="line2d_92">
      <g>
       <use xlink:href="#maebd3c9902" x="655.496652" y="470.728203" style="fill: #262626; stroke: #262626"/>
      </g>
     </g>
    </g>
    <g id="xtick_69">
     <g id="line2d_93">
      <g>
       <use xlink:href="#maebd3c9902" x="669.223626" y="470.728203" style="fill: #262626; stroke: #262626"/>
      </g>
     </g>
    </g>
    <g id="xtick_70">
     <g id="line2d_94">
      <g>
       <use xlink:href="#maebd3c9902" x="682.950599" y="470.728203" style="fill: #262626; stroke: #262626"/>
      </g>
     </g>
    </g>
    <g id="xtick_71">
     <g id="line2d_95">
      <g>
       <use xlink:href="#maebd3c9902" x="696.677572" y="470.728203" style="fill: #262626; stroke: #262626"/>
      </g>
     </g>
    </g>
    <g id="xtick_72">
     <g id="line2d_96">
      <g>
       <use xlink:href="#maebd3c9902" x="710.404546" y="470.728203" style="fill: #262626; stroke: #262626"/>
      </g>
     </g>
    </g>
    <g id="xtick_73">
     <g id="line2d_97">
      <g>
       <use xlink:href="#maebd3c9902" x="724.131519" y="470.728203" style="fill: #262626; stroke: #262626"/>
      </g>
     </g>
    </g>
    <g id="xtick_74">
     <g id="line2d_98">
      <g>
       <use xlink:href="#maebd3c9902" x="737.858492" y="470.728203" style="fill: #262626; stroke: #262626"/>
      </g>
     </g>
    </g>
    <g id="xtick_75">
     <g id="line2d_99">
      <g>
       <use xlink:href="#maebd3c9902" x="751.585466" y="470.728203" style="fill: #262626; stroke: #262626"/>
      </g>
     </g>
    </g>
    <g id="xtick_76">
     <g id="line2d_100">
      <g>
       <use xlink:href="#maebd3c9902" x="765.312439" y="470.728203" style="fill: #262626; stroke: #262626"/>
      </g>
     </g>
    </g>
    <g id="text_25">
     <!-- Дата -->
     <g style="fill: #262626" transform="translate(396.796875 545.409053)scale(0.12 -0.12)">
      <defs>
       <path id="DejaVuSans-414" d="M 1459 531 
L 3522 531 
L 3522 4134 
L 2006 4134 
L 2006 3472 
Q 2006 1913 1656 878 
Q 1584 666 1459 531 
z
M 538 531 
Q 956 728 1075 1103 
Q 1378 2066 1378 3784 
L 1378 4666 
L 4153 4666 
L 4153 531 
L 4684 531 
L 4684 -1003 
L 4153 -1003 
L 4153 0 
L 847 0 
L 847 -1003 
L 316 -1003 
L 316 531 
L 538 531 
z
" transform="scale(0.015625)"/>
       <path id="DejaVuSans-430" d="M 2194 1759 
Q 1497 1759 1228 1600 
Q 959 1441 959 1056 
Q 959 750 1161 570 
Q 1363 391 1709 391 
Q 2188 391 2477 730 
Q 2766 1069 2766 1631 
L 2766 1759 
L 2194 1759 
z
M 3341 1997 
L 3341 0 
L 2766 0 
L 2766 531 
Q 2569 213 2275 61 
Q 1981 -91 1556 -91 
Q 1019 -91 701 211 
Q 384 513 384 1019 
Q 384 1609 779 1909 
Q 1175 2209 1959 2209 
L 2766 2209 
L 2766 2266 
Q 2766 2663 2505 2880 
Q 2244 3097 1772 3097 
Q 1472 3097 1187 3025 
Q 903 2953 641 2809 
L 641 3341 
Q 956 3463 1253 3523 
Q 1550 3584 1831 3584 
Q 2591 3584 2966 3190 
Q 3341 2797 3341 1997 
z
" transform="scale(0.015625)"/>
       <path id="DejaVuSans-442" d="M 188 3500 
L 3541 3500 
L 3541 3041 
L 2147 3041 
L 2147 0 
L 1581 0 
L 1581 3041 
L 188 3041 
L 188 3500 
z
" transform="scale(0.015625)"/>
      </defs>
      <use xlink:href="#DejaVuSans-414"/>
      <use xlink:href="#DejaVuSans-430" x="78.125"/>
      <use xlink:href="#DejaVuSans-442" x="139.404297"/>
      <use xlink:href="#DejaVuSans-430" x="197.65625"/>
     </g>
    </g>
   </g>
   <g id="matplotlib.axis_2">
    <g id="ytick_1">
     <g id="line2d_101">
      <path d="M 52.098125 451.129996 
L 772.568125 451.129996 
" clip-path="url(#p40373a964d)" style="fill: none; stroke: #cccccc; stroke-linecap: round"/>
     </g>
     <g id="line2d_102">
      <defs>
       <path id="mc8bc21b96e" d="M 0 0 
L -6 0 
" style="stroke: #262626; stroke-width: 1.25"/>
      </defs>
      <g>
       <use xlink:href="#mc8bc21b96e" x="52.098125" y="451.129996" style="fill: #262626; stroke: #262626; stroke-width: 1.25"/>
      </g>
     </g>
     <g id="text_26">
      <!-- 0.0M -->
      <g style="fill: #262626" transform="translate(15.61375 455.309137)scale(0.11 -0.11)">
       <defs>
        <path id="DejaVuSans-4d" d="M 628 4666 
L 1569 4666 
L 2759 1491 
L 3956 4666 
L 4897 4666 
L 4897 0 
L 4281 0 
L 4281 4097 
L 3078 897 
L 2444 897 
L 1241 4097 
L 1241 0 
L 628 0 
L 628 4666 
z
" transform="scale(0.015625)"/>
       </defs>
       <use xlink:href="#DejaVuSans-30"/>
       <use xlink:href="#DejaVuSans-2e" x="63.623047"/>
       <use xlink:href="#DejaVuSans-30" x="95.410156"/>
       <use xlink:href="#DejaVuSans-4d" x="159.033203"/>
      </g>
     </g>
    </g>
    <g id="ytick_2">
     <g id="line2d_103">
      <path d="M 52.098125 390.141448 
L 772.568125 390.141448 
" clip-path="url(#p40373a964d)" style="fill: none; stroke: #cccccc; stroke-linecap: round"/>
     </g>
     <g id="line2d_104">
      <g>
       <use xlink:href="#mc8bc21b96e" x="52.098125" y="390.141448" style="fill: #262626; stroke: #262626; stroke-width: 1.25"/>
      </g>
     </g>
     <g id="text_27">
      <!-- 0.5M -->
      <g style="fill: #262626" transform="translate(15.61375 394.320589)scale(0.11 -0.11)">
       <use xlink:href="#DejaVuSans-30"/>
       <use xlink:href="#DejaVuSans-2e" x="63.623047"/>
       <use xlink:href="#DejaVuSans-35" x="95.410156"/>
       <use xlink:href="#DejaVuSans-4d" x="159.033203"/>
      </g>
     </g>
    </g>
    <g id="ytick_3">
     <g id="line2d_105">
      <path d="M 52.098125 329.152899 
L 772.568125 329.152899 
" clip-path="url(#p40373a964d)" style="fill: none; stroke: #cccccc; stroke-linecap: round"/>
     </g>
     <g id="line2d_106">
      <g>
       <use xlink:href="#mc8bc21b96e" x="52.098125" y="329.152899" style="fill: #262626; stroke: #262626; stroke-width: 1.25"/>
      </g>
     </g>
     <g id="text_28">
      <!-- 1.0M -->
      <g style="fill: #262626" transform="translate(15.61375 333.33204)scale(0.11 -0.11)">
       <use xlink:href="#DejaVuSans-31"/>
       <use xlink:href="#DejaVuSans-2e" x="63.623047"/>
       <use xlink:href="#DejaVuSans-30" x="95.410156"/>
       <use xlink:href="#DejaVuSans-4d" x="159.033203"/>
      </g>
     </g>
    </g>
    <g id="ytick_4">
     <g id="line2d_107">
      <path d="M 52.098125 268.164351 
L 772.568125 268.164351 
" clip-path="url(#p40373a964d)" style="fill: none; stroke: #cccccc; stroke-linecap: round"/>
     </g>
     <g id="line2d_108">
      <g>
       <use xlink:href="#mc8bc21b96e" x="52.098125" y="268.164351" style="fill: #262626; stroke: #262626; stroke-width: 1.25"/>
      </g>
     </g>
     <g id="text_29">
      <!-- 1.5M -->
      <g style="fill: #262626" transform="translate(15.61375 272.343492)scale(0.11 -0.11)">
       <use xlink:href="#DejaVuSans-31"/>
       <use xlink:href="#DejaVuSans-2e" x="63.623047"/>
       <use xlink:href="#DejaVuSans-35" x="95.410156"/>
       <use xlink:href="#DejaVuSans-4d" x="159.033203"/>
      </g>
     </g>
    </g>
    <g id="ytick_5">
     <g id="line2d_109">
      <path d="M 52.098125 207.175802 
L 772.568125 207.175802 
" clip-path="url(#p40373a964d)" style="fill: none; stroke: #cccccc; stroke-linecap: round"/>
     </g>
     <g id="line2d_110">
      <g>
       <use xlink:href="#mc8bc21b96e" x="52.098125" y="207.175802" style="fill: #262626; stroke: #262626; stroke-width: 1.25"/>
      </g>
     </g>
     <g id="text_30">
      <!-- 2.0M -->
      <g style="fill: #262626" transform="translate(15.61375 211.354943)scale(0.11 -0.11)">
       <use xlink:href="#DejaVuSans-32"/>
       <use xlink:href="#DejaVuSans-2e" x="63.623047"/>
       <use xlink:href="#DejaVuSans-30" x="95.410156"/>
       <use xlink:href="#DejaVuSans-4d" x="159.033203"/>
      </g>
     </g>
    </g>
    <g id="ytick_6">
     <g id="line2d_111">
      <path d="M 52.098125 146.187254 
L 772.568125 146.187254 
" clip-path="url(#p40373a964d)" style="fill: none; stroke: #cccccc; stroke-linecap: round"/>
     </g>
     <g id="line2d_112">
      <g>
       <use xlink:href="#mc8bc21b96e" x="52.098125" y="146.187254" style="fill: #262626; stroke: #262626; stroke-width: 1.25"/>
      </g>
     </g>
     <g id="text_31">
      <!-- 2.5M -->
      <g style="fill: #262626" transform="translate(15.61375 150.366395)scale(0.11 -0.11)">
       <use xlink:href="#DejaVuSans-32"/>
       <use xlink:href="#DejaVuSans-2e" x="63.623047"/>
       <use xlink:href="#DejaVuSans-35" x="95.410156"/>
       <use xlink:href="#DejaVuSans-4d" x="159.033203"/>
      </g>
     </g>
    </g>
    <g id="ytick_7">
     <g id="line2d_113">
      <path d="M 52.098125 85.198705 
L 772.568125 85.198705 
" clip-path="url(#p40373a964d)" style="fill: none; stroke: #cccccc; stroke-linecap: round"/>
     </g>
     <g id="line2d_114">
      <g>
       <use xlink:href="#mc8bc21b96e" x="52.098125" y="85.198705" style="fill: #262626; stroke: #262626; stroke-width: 1.25"/>
      </g>
     </g>
     <g id="text_32">
      <!-- 3.0M -->
      <g style="fill: #262626" transform="translate(15.61375 89.377846)scale(0.11 -0.11)">
       <use xlink:href="#DejaVuSans-33"/>
       <use xlink:href="#DejaVuSans-2e" x="63.623047"/>
       <use xlink:href="#DejaVuSans-30" x="95.410156"/>
       <use xlink:href="#DejaVuSans-4d" x="159.033203"/>
      </g>
     </g>
    </g>
    <g id="text_33">
     <!-- Поставени дози -->
     <g style="fill: #262626" transform="translate(9.118125 300.443164)rotate(-90)scale(0.12 -0.12)">
      <defs>
       <path id="DejaVuSans-41f" d="M 4184 4666 
L 4184 0 
L 3553 0 
L 3553 4134 
L 1259 4134 
L 1259 0 
L 628 0 
L 628 4666 
L 4184 4666 
z
" transform="scale(0.015625)"/>
       <path id="DejaVuSans-43e" d="M 1959 3097 
Q 1497 3097 1228 2736 
Q 959 2375 959 1747 
Q 959 1119 1226 758 
Q 1494 397 1959 397 
Q 2419 397 2687 759 
Q 2956 1122 2956 1747 
Q 2956 2369 2687 2733 
Q 2419 3097 1959 3097 
z
M 1959 3584 
Q 2709 3584 3137 3096 
Q 3566 2609 3566 1747 
Q 3566 888 3137 398 
Q 2709 -91 1959 -91 
Q 1206 -91 779 398 
Q 353 888 353 1747 
Q 353 2609 779 3096 
Q 1206 3584 1959 3584 
z
" transform="scale(0.015625)"/>
       <path id="DejaVuSans-441" d="M 3122 3366 
L 3122 2828 
Q 2878 2963 2633 3030 
Q 2388 3097 2138 3097 
Q 1578 3097 1268 2742 
Q 959 2388 959 1747 
Q 959 1106 1268 751 
Q 1578 397 2138 397 
Q 2388 397 2633 464 
Q 2878 531 3122 666 
L 3122 134 
Q 2881 22 2623 -34 
Q 2366 -91 2075 -91 
Q 1284 -91 818 406 
Q 353 903 353 1747 
Q 353 2603 823 3093 
Q 1294 3584 2113 3584 
Q 2378 3584 2631 3529 
Q 2884 3475 3122 3366 
z
" transform="scale(0.015625)"/>
       <path id="DejaVuSans-432" d="M 1156 1613 
L 1156 459 
L 1975 459 
Q 2369 459 2575 607 
Q 2781 756 2781 1038 
Q 2781 1319 2575 1466 
Q 2369 1613 1975 1613 
L 1156 1613 
z
M 1156 3041 
L 1156 2072 
L 1913 2072 
Q 2238 2072 2444 2201 
Q 2650 2331 2650 2563 
Q 2650 2794 2444 2917 
Q 2238 3041 1913 3041 
L 1156 3041 
z
M 581 3500 
L 1950 3500 
Q 2566 3500 2897 3275 
Q 3228 3050 3228 2634 
Q 3228 2313 3059 2123 
Q 2891 1934 2559 1888 
Q 2956 1813 3175 1575 
Q 3394 1338 3394 981 
Q 3394 513 3033 256 
Q 2672 0 2003 0 
L 581 0 
L 581 3500 
z
" transform="scale(0.015625)"/>
       <path id="DejaVuSans-435" d="M 3597 1894 
L 3597 1613 
L 953 1613 
Q 991 1019 1311 708 
Q 1631 397 2203 397 
Q 2534 397 2845 478 
Q 3156 559 3463 722 
L 3463 178 
Q 3153 47 2828 -22 
Q 2503 -91 2169 -91 
Q 1331 -91 842 396 
Q 353 884 353 1716 
Q 353 2575 817 3079 
Q 1281 3584 2069 3584 
Q 2775 3584 3186 3129 
Q 3597 2675 3597 1894 
z
M 3022 2063 
Q 3016 2534 2758 2815 
Q 2500 3097 2075 3097 
Q 1594 3097 1305 2825 
Q 1016 2553 972 2059 
L 3022 2063 
z
" transform="scale(0.015625)"/>
       <path id="DejaVuSans-43d" d="M 581 3500 
L 1159 3500 
L 1159 2072 
L 3025 2072 
L 3025 3500 
L 3603 3500 
L 3603 0 
L 3025 0 
L 3025 1613 
L 1159 1613 
L 1159 0 
L 581 0 
L 581 3500 
z
" transform="scale(0.015625)"/>
       <path id="DejaVuSans-438" d="M 3578 3500 
L 3578 0 
L 3006 0 
L 3006 2809 
L 1319 0 
L 581 0 
L 581 3500 
L 1153 3500 
L 1153 697 
L 2838 3500 
L 3578 3500 
z
" transform="scale(0.015625)"/>
       <path id="DejaVuSans-20" transform="scale(0.015625)"/>
       <path id="DejaVuSans-434" d="M 1384 459 
L 3053 459 
L 3053 3041 
L 1844 3041 
L 1844 2603 
Q 1844 1316 1475 628 
L 1384 459 
z
M 550 459 
Q 834 584 959 850 
Q 1266 1509 1266 2838 
L 1266 3500 
L 3631 3500 
L 3631 459 
L 4091 459 
L 4091 -884 
L 3631 -884 
L 3631 0 
L 794 0 
L 794 -884 
L 334 -884 
L 334 459 
L 550 459 
z
" transform="scale(0.015625)"/>
       <path id="DejaVuSans-437" d="M 2206 1888 
Q 2594 1813 2809 1584 
Q 3025 1356 3025 1019 
Q 3025 478 2622 193 
Q 2219 -91 1475 -91 
Q 1225 -91 961 -47 
Q 697 -3 416 84 
L 416 619 
Q 638 503 903 445 
Q 1169 388 1459 388 
Q 1931 388 2195 563 
Q 2459 738 2459 1019 
Q 2459 1294 2225 1461 
Q 1991 1628 1563 1628 
L 1100 1628 
L 1100 2103 
L 1584 2103 
Q 1947 2103 2158 2242 
Q 2369 2381 2369 2600 
Q 2369 2800 2151 2944 
Q 1934 3088 1563 3088 
Q 1341 3088 1089 3047 
Q 838 3006 534 2916 
L 534 3438 
Q 841 3513 1106 3550 
Q 1372 3588 1609 3588 
Q 2222 3588 2576 3342 
Q 2931 3097 2931 2656 
Q 2931 2366 2743 2164 
Q 2556 1963 2206 1888 
z
" transform="scale(0.015625)"/>
      </defs>
      <use xlink:href="#DejaVuSans-41f"/>
      <use xlink:href="#DejaVuSans-43e" x="75.195312"/>
      <use xlink:href="#DejaVuSans-441" x="136.376953"/>
      <use xlink:href="#DejaVuSans-442" x="191.357422"/>
      <use xlink:href="#DejaVuSans-430" x="249.609375"/>
      <use xlink:href="#DejaVuSans-432" x="310.888672"/>
      <use xlink:href="#DejaVuSans-435" x="369.824219"/>
      <use xlink:href="#DejaVuSans-43d" x="431.347656"/>
      <use xlink:href="#DejaVuSans-438" x="496.728516"/>
      <use xlink:href="#DejaVuSans-20" x="561.71875"/>
      <use xlink:href="#DejaVuSans-434" x="593.505859"/>
      <use xlink:href="#DejaVuSans-43e" x="662.646484"/>
      <use xlink:href="#DejaVuSans-437" x="723.828125"/>
      <use xlink:href="#DejaVuSans-438" x="777.001953"/>
     </g>
    </g>
   </g>
   <g id="line2d_115">
    <path d="M 84.846761 450.655018 
L 88.768754 450.551947 
L 98.573735 450.465465 
L 104.456723 449.500992 
L 110.339712 449.402679 
L 114.261704 449.051751 
L 120.144693 448.893912 
L 122.105689 448.879153 
L 124.066685 448.73461 
L 127.988678 448.187055 
L 131.91067 447.946272 
L 137.793658 447.861254 
L 139.754655 447.577779 
L 145.637643 446.152721 
L 149.559636 446.113688 
L 151.520632 445.929625 
L 155.442624 445.016016 
L 157.40362 444.540184 
L 159.364617 444.194379 
L 163.286609 444.172667 
L 165.247605 443.947009 
L 169.169598 443.059626 
L 171.130594 442.454619 
L 173.09159 442.019039 
L 178.974578 441.684578 
L 182.896571 440.649724 
L 184.857567 440.089361 
L 186.818563 438.411688 
L 188.779559 437.913046 
L 192.701552 435.143312 
L 194.662548 433.049819 
L 198.58454 428.13585 
L 200.545537 426.193121 
L 202.506533 425.544081 
L 204.467529 425.216572 
L 206.428525 423.863358 
L 208.389521 421.395396 
L 210.350517 420.859062 
L 212.311514 418.373779 
L 214.27251 416.431904 
L 216.233506 416.108176 
L 218.194502 415.923625 
L 220.155498 415.252629 
L 222.116495 414.274495 
L 224.077491 413.421387 
L 226.038487 411.555015 
L 227.999483 410.065187 
L 231.921476 409.79452 
L 233.882472 409.449569 
L 237.804464 408.352385 
L 239.76546 407.699807 
L 241.726457 406.886342 
L 243.687453 406.419657 
L 245.648449 406.132035 
L 247.609445 405.221476 
L 251.531437 402.17949 
L 255.45343 398.652034 
L 257.414426 398.172664 
L 259.375422 397.881993 
L 261.336418 396.783467 
L 269.180403 390.375034 
L 271.141399 389.88798 
L 273.102396 389.70599 
L 275.063392 388.9157 
L 277.024388 387.746428 
L 278.985384 386.060948 
L 280.94638 383.735699 
L 282.907376 381.92068 
L 284.868373 381.473511 
L 286.829369 381.278348 
L 288.790365 380.384256 
L 290.751361 379.103131 
L 296.63435 373.780782 
L 298.595346 373.404239 
L 300.556342 373.254573 
L 302.517338 372.395488 
L 304.478335 370.950425 
L 306.439331 368.612368 
L 308.400327 365.926921 
L 310.361323 363.679737 
L 312.322319 363.163773 
L 314.283316 362.911281 
L 316.244312 361.580511 
L 318.205308 359.537516 
L 322.1273 353.16092 
L 324.088296 351.662187 
L 326.049293 350.960209 
L 328.010289 350.544877 
L 329.971285 349.460866 
L 331.932281 348.102895 
L 333.893277 344.140957 
L 335.854274 343.271261 
L 337.81527 338.62186 
L 339.776266 337.396234 
L 341.737262 336.707673 
L 343.698258 333.600306 
L 347.620251 324.790633 
L 349.581247 320.184777 
L 351.542243 316.130625 
L 353.503239 315.326674 
L 355.464236 314.913171 
L 357.425232 312.688797 
L 359.386228 309.508732 
L 361.347224 305.806849 
L 363.30822 301.634744 
L 365.269216 298.577266 
L 367.230213 297.802956 
L 369.191209 297.355544 
L 371.152205 296.724678 
L 373.113201 294.667901 
L 375.074197 292.123702 
L 378.99619 287.542852 
L 380.957186 286.679986 
L 382.918182 286.064612 
L 384.879178 284.518674 
L 386.840175 282.317232 
L 392.723163 274.159525 
L 394.684159 273.42876 
L 396.645155 272.52491 
L 398.606152 270.753437 
L 400.567148 268.099215 
L 404.48914 262.272369 
L 406.450136 259.773181 
L 408.411133 259.167198 
L 410.372129 258.769187 
L 412.333125 257.59162 
L 414.294121 255.706098 
L 418.216114 251.336879 
L 420.17711 249.479167 
L 424.099102 248.626669 
L 426.060098 247.58962 
L 428.021095 246.037828 
L 431.943087 242.608929 
L 433.904083 241.111051 
L 437.826075 240.400412 
L 439.787072 239.417399 
L 447.631056 233.363553 
L 449.592053 232.92468 
L 451.553049 232.661575 
L 453.514045 231.708446 
L 457.436037 228.716592 
L 461.35803 225.810853 
L 463.319026 225.412598 
L 465.280022 225.1573 
L 467.241018 224.131473 
L 473.124007 219.791406 
L 475.085003 218.489544 
L 479.006995 217.91552 
L 480.967992 216.96788 
L 482.928988 215.750426 
L 488.811976 211.742991 
L 490.772973 211.311192 
L 492.733969 211.067482 
L 494.694965 210.026651 
L 502.53895 204.133328 
L 504.499946 203.743855 
L 506.460942 203.479774 
L 508.421938 202.466145 
L 516.265923 196.439256 
L 518.226919 196.039415 
L 520.187915 195.755087 
L 522.148912 194.659245 
L 529.992896 188.98487 
L 531.953893 188.557462 
L 533.914889 188.29082 
L 535.875885 187.17656 
L 543.71987 181.212489 
L 545.680866 180.760686 
L 547.641862 180.469283 
L 549.602858 179.264271 
L 555.485847 174.271383 
L 557.446843 172.748377 
L 559.407839 172.269007 
L 561.368835 171.959185 
L 563.329832 170.690257 
L 565.290828 169.045152 
L 571.173816 164.602746 
L 573.134813 164.191683 
L 577.056805 163.727926 
L 580.978797 160.821822 
L 584.90079 158.024277 
L 586.861786 157.649442 
L 588.822782 157.410855 
L 590.783778 156.429671 
L 598.627763 151.197097 
L 600.588759 150.826165 
L 602.549755 150.61917 
L 604.510752 149.698731 
L 606.471748 148.471153 
L 608.432744 148.24452 
L 610.39374 146.84898 
L 612.354736 145.628355 
L 614.315733 145.327559 
L 616.276729 145.14313 
L 618.237725 144.507751 
L 620.198721 143.535716 
L 624.120713 141.350862 
L 626.08171 140.48946 
L 628.042706 140.210986 
L 630.003702 140.054367 
L 631.964698 139.397521 
L 639.808683 135.799684 
L 641.769679 135.514868 
L 643.730675 135.366178 
L 645.691672 134.736166 
L 647.652668 133.800724 
L 649.613664 133.123995 
L 653.535656 131.088563 
L 655.496652 130.73178 
L 657.457649 130.513441 
L 659.418645 129.757061 
L 661.379641 128.648411 
L 663.340637 127.003794 
L 665.301633 123.559039 
L 667.26263 120.627075 
L 669.223626 119.201773 
L 671.184622 118.329027 
L 673.145618 116.479854 
L 675.106614 112.575855 
L 677.067611 109.476417 
L 680.989603 103.801554 
L 682.950599 102.858062 
L 684.911595 102.251713 
L 686.872592 100.479874 
L 690.794584 95.805346 
L 694.716576 90.802455 
L 696.677572 89.978988 
L 698.638569 89.398255 
L 700.599565 87.779375 
L 704.521557 83.591413 
L 708.44355 78.192707 
L 710.404546 77.252629 
L 712.365542 76.658113 
L 714.326538 74.609386 
L 722.170523 63.947368 
L 724.131519 63.061448 
L 726.092515 62.507306 
L 728.053511 60.574701 
L 733.9365 53.18789 
L 735.897496 50.569774 
L 737.858492 49.757528 
L 739.819489 49.19131 
L 739.819489 49.19131 
" clip-path="url(#p40373a964d)" style="fill: none; stroke: #0000ff; stroke-width: 1.5; stroke-linecap: round"/>
   </g>
   <g id="line2d_116"/>
   <g id="patch_3">
    <path d="M 52.098125 470.728203 
L 52.098125 29.118125 
" style="fill: none; stroke: #262626; stroke-width: 1.25; stroke-linejoin: miter; stroke-linecap: square"/>
   </g>
   <g id="patch_4">
    <path d="M 772.568125 470.728203 
L 772.568125 29.118125 
" style="fill: none; stroke: #262626; stroke-width: 1.25; stroke-linejoin: miter; stroke-linecap: square"/>
   </g>
   <g id="patch_5">
    <path d="M 52.098125 470.728203 
L 772.568125 470.728203 
" style="fill: none; stroke: #262626; stroke-width: 1.25; stroke-linejoin: miter; stroke-linecap: square"/>
   </g>
   <g id="patch_6">
    <path d="M 52.098125 29.118125 
L 772.568125 29.118125 
" style="fill: none; stroke: #262626; stroke-width: 1.25; stroke-linejoin: miter; stroke-linecap: square"/>
   </g>
   <g id="text_34">
    <!-- Последна актуализация: 29.11.2021 -->
    <g style="fill: #262626" transform="translate(316.401201 22.493974)scale(0.09996 -0.09996)">
     <defs>
      <path id="DejaVuSans-43b" d="M 238 0 
L 238 478 
Q 806 566 981 959 
Q 1194 1513 1194 2928 
L 1194 3500 
L 3559 3500 
L 3559 0 
L 2984 0 
L 2984 3041 
L 1769 3041 
L 1769 2694 
Q 1769 1344 1494 738 
Q 1200 91 238 0 
z
" transform="scale(0.015625)"/>
      <path id="DejaVuSans-43a" d="M 581 3500 
L 1153 3500 
L 1153 1856 
L 2775 3500 
L 3481 3500 
L 2144 2147 
L 3653 0 
L 3009 0 
L 1769 1766 
L 1153 1141 
L 1153 0 
L 581 0 
L 581 3500 
z
" transform="scale(0.015625)"/>
      <path id="DejaVuSans-443" d="M 2059 -325 
Q 1816 -950 1584 -1140 
Q 1353 -1331 966 -1331 
L 506 -1331 
L 506 -850 
L 844 -850 
Q 1081 -850 1212 -737 
Q 1344 -625 1503 -206 
L 1606 56 
L 191 3500 
L 800 3500 
L 1894 763 
L 2988 3500 
L 3597 3500 
L 2059 -325 
z
" transform="scale(0.015625)"/>
      <path id="DejaVuSans-446" d="M 3603 0 
L 581 0 
L 581 3500 
L 1159 3500 
L 1159 459 
L 3025 459 
L 3025 3500 
L 3603 3500 
L 3603 459 
L 4063 459 
L 4063 -884 
L 3603 -884 
L 3603 0 
z
" transform="scale(0.015625)"/>
      <path id="DejaVuSans-44f" d="M 1181 2491 
Q 1181 2231 1381 2084 
Q 1581 1938 1953 1938 
L 2728 1938 
L 2728 3041 
L 1953 3041 
Q 1581 3041 1381 2897 
Q 1181 2753 1181 2491 
z
M 363 0 
L 1431 1534 
Q 1069 1616 828 1830 
Q 588 2044 588 2491 
Q 588 2997 923 3248 
Q 1259 3500 1938 3500 
L 3306 3500 
L 3306 0 
L 2728 0 
L 2728 1478 
L 2013 1478 
L 981 0 
L 363 0 
z
" transform="scale(0.015625)"/>
      <path id="DejaVuSans-3a" d="M 750 794 
L 1409 794 
L 1409 0 
L 750 0 
L 750 794 
z
M 750 3309 
L 1409 3309 
L 1409 2516 
L 750 2516 
L 750 3309 
z
" transform="scale(0.015625)"/>
     </defs>
     <use xlink:href="#DejaVuSans-41f"/>
     <use xlink:href="#DejaVuSans-43e" x="75.195312"/>
     <use xlink:href="#DejaVuSans-441" x="136.376953"/>
     <use xlink:href="#DejaVuSans-43b" x="191.357422"/>
     <use xlink:href="#DejaVuSans-435" x="255.273438"/>
     <use xlink:href="#DejaVuSans-434" x="316.796875"/>
     <use xlink:href="#DejaVuSans-43d" x="385.9375"/>
     <use xlink:href="#DejaVuSans-430" x="451.318359"/>
     <use xlink:href="#DejaVuSans-20" x="512.597656"/>
     <use xlink:href="#DejaVuSans-430" x="544.384766"/>
     <use xlink:href="#DejaVuSans-43a" x="605.664062"/>
     <use xlink:href="#DejaVuSans-442" x="666.064453"/>
     <use xlink:href="#DejaVuSans-443" x="724.316406"/>
     <use xlink:href="#DejaVuSans-430" x="783.496094"/>
     <use xlink:href="#DejaVuSans-43b" x="844.775391"/>
     <use xlink:href="#DejaVuSans-438" x="908.691406"/>
     <use xlink:href="#DejaVuSans-437" x="973.681641"/>
     <use xlink:href="#DejaVuSans-430" x="1026.855469"/>
     <use xlink:href="#DejaVuSans-446" x="1088.134766"/>
     <use xlink:href="#DejaVuSans-438" x="1156.201172"/>
     <use xlink:href="#DejaVuSans-44f" x="1221.191406"/>
     <use xlink:href="#DejaVuSans-3a" x="1281.347656"/>
     <use xlink:href="#DejaVuSans-20" x="1315.039062"/>
     <use xlink:href="#DejaVuSans-32" x="1346.826172"/>
     <use xlink:href="#DejaVuSans-39" x="1410.449219"/>
     <use xlink:href="#DejaVuSans-2e" x="1474.072266"/>
     <use xlink:href="#DejaVuSans-31" x="1505.859375"/>
     <use xlink:href="#DejaVuSans-31" x="1569.482422"/>
     <use xlink:href="#DejaVuSans-2e" x="1633.105469"/>
     <use xlink:href="#DejaVuSans-32" x="1664.892578"/>
     <use xlink:href="#DejaVuSans-30" x="1728.515625"/>
     <use xlink:href="#DejaVuSans-32" x="1792.138672"/>
     <use xlink:href="#DejaVuSans-31" x="1855.761719"/>
    </g>
   </g>
   <g id="text_35">
    <!-- Последна актуализация: 29.11.2021 -->
    <g style="fill: #262626" transform="translate(316.401201 22.493974)scale(0.09996 -0.09996)">
     <use xlink:href="#DejaVuSans-41f"/>
     <use xlink:href="#DejaVuSans-43e" x="75.195312"/>
     <use xlink:href="#DejaVuSans-441" x="136.376953"/>
     <use xlink:href="#DejaVuSans-43b" x="191.357422"/>
     <use xlink:href="#DejaVuSans-435" x="255.273438"/>
     <use xlink:href="#DejaVuSans-434" x="316.796875"/>
     <use xlink:href="#DejaVuSans-43d" x="385.9375"/>
     <use xlink:href="#DejaVuSans-430" x="451.318359"/>
     <use xlink:href="#DejaVuSans-20" x="512.597656"/>
     <use xlink:href="#DejaVuSans-430" x="544.384766"/>
     <use xlink:href="#DejaVuSans-43a" x="605.664062"/>
     <use xlink:href="#DejaVuSans-442" x="666.064453"/>
     <use xlink:href="#DejaVuSans-443" x="724.316406"/>
     <use xlink:href="#DejaVuSans-430" x="783.496094"/>
     <use xlink:href="#DejaVuSans-43b" x="844.775391"/>
     <use xlink:href="#DejaVuSans-438" x="908.691406"/>
     <use xlink:href="#DejaVuSans-437" x="973.681641"/>
     <use xlink:href="#DejaVuSans-430" x="1026.855469"/>
     <use xlink:href="#DejaVuSans-446" x="1088.134766"/>
     <use xlink:href="#DejaVuSans-438" x="1156.201172"/>
     <use xlink:href="#DejaVuSans-44f" x="1221.191406"/>
     <use xlink:href="#DejaVuSans-3a" x="1281.347656"/>
     <use xlink:href="#DejaVuSans-20" x="1315.039062"/>
     <use xlink:href="#DejaVuSans-32" x="1346.826172"/>
     <use xlink:href="#DejaVuSans-39" x="1410.449219"/>
     <use xlink:href="#DejaVuSans-2e" x="1474.072266"/>
     <use xlink:href="#DejaVuSans-31" x="1505.859375"/>
     <use xlink:href="#DejaVuSans-31" x="1569.482422"/>
     <use xlink:href="#DejaVuSans-2e" x="1633.105469"/>
     <use xlink:href="#DejaVuSans-32" x="1664.892578"/>
     <use xlink:href="#DejaVuSans-30" x="1728.515625"/>
     <use xlink:href="#DejaVuSans-32" x="1792.138672"/>
     <use xlink:href="#DejaVuSans-31" x="1855.761719"/>
    </g>
   </g>
   <g id="text_36">
    <!-- Хронология на ваксинацията по дни -->
    <g style="fill: #262626" transform="translate(285.398437 9.118125)scale(0.12 -0.12)">
     <defs>
      <path id="DejaVuSans-Bold-425" d="M 3188 2381 
L 4806 0 
L 3553 0 
L 2463 1594 
L 1381 0 
L 122 0 
L 1741 2381 
L 184 4666 
L 1441 4666 
L 2463 3163 
L 3481 4666 
L 4744 4666 
L 3188 2381 
z
" transform="scale(0.015625)"/>
      <path id="DejaVuSans-Bold-440" d="M 1656 506 
L 1656 -1331 
L 538 -1331 
L 538 3500 
L 1656 3500 
L 1656 2988 
Q 1888 3294 2169 3439 
Q 2450 3584 2816 3584 
Q 3463 3584 3878 3070 
Q 4294 2556 4294 1747 
Q 4294 938 3878 423 
Q 3463 -91 2816 -91 
Q 2450 -91 2169 54 
Q 1888 200 1656 506 
z
M 2400 2772 
Q 2041 2772 1848 2508 
Q 1656 2244 1656 1747 
Q 1656 1250 1848 986 
Q 2041 722 2400 722 
Q 2759 722 2948 984 
Q 3138 1247 3138 1747 
Q 3138 2247 2948 2509 
Q 2759 2772 2400 2772 
z
" transform="scale(0.015625)"/>
      <path id="DejaVuSans-Bold-43e" d="M 2203 2784 
Q 1831 2784 1636 2517 
Q 1441 2250 1441 1747 
Q 1441 1244 1636 976 
Q 1831 709 2203 709 
Q 2569 709 2762 976 
Q 2956 1244 2956 1747 
Q 2956 2250 2762 2517 
Q 2569 2784 2203 2784 
z
M 2203 3584 
Q 3106 3584 3614 3096 
Q 4122 2609 4122 1747 
Q 4122 884 3614 396 
Q 3106 -91 2203 -91 
Q 1297 -91 786 396 
Q 275 884 275 1747 
Q 275 2609 786 3096 
Q 1297 3584 2203 3584 
z
" transform="scale(0.015625)"/>
      <path id="DejaVuSans-Bold-43d" d="M 538 3500 
L 1656 3500 
L 1656 2169 
L 2766 2169 
L 2766 3500 
L 3884 3500 
L 3884 0 
L 2766 0 
L 2766 1478 
L 1656 1478 
L 1656 0 
L 538 0 
L 538 3500 
z
" transform="scale(0.015625)"/>
      <path id="DejaVuSans-Bold-43b" d="M 353 0 
L 353 800 
Q 906 913 1031 1278 
Q 1125 1556 1125 2928 
L 1125 3500 
L 4150 3500 
L 4150 0 
L 3031 0 
L 3031 2700 
L 2244 2700 
L 2244 2584 
Q 2244 1213 2028 813 
Q 1591 0 353 0 
z
" transform="scale(0.015625)"/>
      <path id="DejaVuSans-Bold-433" d="M 538 0 
L 538 3500 
L 3191 3500 
L 3191 2809 
L 1656 2809 
L 1656 0 
L 538 0 
z
" transform="scale(0.015625)"/>
      <path id="DejaVuSans-Bold-438" d="M 3947 3500 
L 3947 0 
L 2828 0 
L 2828 1863 
L 1700 0 
L 538 0 
L 538 3500 
L 1656 3500 
L 1656 1638 
L 2784 3500 
L 3947 3500 
z
" transform="scale(0.015625)"/>
      <path id="DejaVuSans-Bold-44f" d="M 1528 2394 
Q 1528 2169 1651 2069 
Q 1775 1969 2059 1969 
L 2463 1969 
L 2463 2816 
L 2059 2816 
Q 1775 2816 1651 2719 
Q 1528 2622 1528 2394 
z
M 197 0 
L 1113 1497 
Q 847 1650 650 1917 
Q 453 2184 453 2516 
Q 453 3013 789 3256 
Q 1125 3500 1878 3500 
L 3581 3500 
L 3581 0 
L 2463 0 
L 2463 1278 
L 2069 1278 
L 1288 0 
L 197 0 
z
" transform="scale(0.015625)"/>
      <path id="DejaVuSans-Bold-20" transform="scale(0.015625)"/>
      <path id="DejaVuSans-Bold-430" d="M 2106 1575 
Q 1756 1575 1579 1456 
Q 1403 1338 1403 1106 
Q 1403 894 1545 773 
Q 1688 653 1941 653 
Q 2256 653 2472 879 
Q 2688 1106 2688 1447 
L 2688 1575 
L 2106 1575 
z
M 3816 1997 
L 3816 0 
L 2688 0 
L 2688 519 
Q 2463 200 2181 54 
Q 1900 -91 1497 -91 
Q 953 -91 614 226 
Q 275 544 275 1050 
Q 275 1666 698 1953 
Q 1122 2241 2028 2241 
L 2688 2241 
L 2688 2328 
Q 2688 2594 2478 2717 
Q 2269 2841 1825 2841 
Q 1466 2841 1156 2769 
Q 847 2697 581 2553 
L 581 3406 
Q 941 3494 1303 3539 
Q 1666 3584 2028 3584 
Q 2975 3584 3395 3211 
Q 3816 2838 3816 1997 
z
" transform="scale(0.015625)"/>
      <path id="DejaVuSans-Bold-432" d="M 2184 2181 
Q 2378 2181 2478 2261 
Q 2578 2341 2578 2497 
Q 2578 2653 2478 2731 
Q 2378 2809 2184 2809 
L 1656 2809 
L 1656 2181 
L 2184 2181 
z
M 2222 700 
Q 2469 700 2594 798 
Q 2719 897 2719 1094 
Q 2719 1288 2594 1384 
Q 2469 1481 2222 1481 
L 1656 1481 
L 1656 700 
L 2222 700 
z
M 538 3500 
L 2141 3500 
Q 2919 3500 3267 3279 
Q 3616 3059 3616 2575 
Q 3616 2319 3487 2139 
Q 3359 1959 3119 1872 
Q 3428 1788 3598 1561 
Q 3769 1334 3769 1003 
Q 3769 497 3403 248 
Q 3038 0 2294 0 
L 538 0 
L 538 3500 
z
" transform="scale(0.015625)"/>
      <path id="DejaVuSans-Bold-43a" d="M 538 3500 
L 1656 3500 
L 1656 2316 
L 2903 3500 
L 4128 3500 
L 2634 2078 
L 4250 0 
L 3094 0 
L 1972 1447 
L 1656 1147 
L 1656 0 
L 538 0 
L 538 3500 
z
" transform="scale(0.015625)"/>
      <path id="DejaVuSans-Bold-441" d="M 3366 3391 
L 3366 2478 
Q 3138 2634 2908 2709 
Q 2678 2784 2431 2784 
Q 1963 2784 1702 2511 
Q 1441 2238 1441 1747 
Q 1441 1256 1702 982 
Q 1963 709 2431 709 
Q 2694 709 2930 787 
Q 3166 866 3366 1019 
L 3366 103 
Q 3103 6 2833 -42 
Q 2563 -91 2291 -91 
Q 1344 -91 809 395 
Q 275 881 275 1747 
Q 275 2613 809 3098 
Q 1344 3584 2291 3584 
Q 2566 3584 2833 3536 
Q 3100 3488 3366 3391 
z
" transform="scale(0.015625)"/>
      <path id="DejaVuSans-Bold-446" d="M 3666 -884 
L 3666 0 
L 538 0 
L 538 3500 
L 1656 3500 
L 1656 800 
L 2766 800 
L 2766 3500 
L 3884 3500 
L 3884 800 
L 4466 800 
L 4466 -884 
L 3666 -884 
z
" transform="scale(0.015625)"/>
      <path id="DejaVuSans-Bold-442" d="M 25 3500 
L 3681 3500 
L 3681 2809 
L 2413 2809 
L 2413 0 
L 1297 0 
L 1297 2809 
L 25 2809 
L 25 3500 
z
" transform="scale(0.015625)"/>
      <path id="DejaVuSans-Bold-43f" d="M 3884 3500 
L 3884 0 
L 2766 0 
L 2766 2700 
L 1656 2700 
L 1656 0 
L 538 0 
L 538 3500 
L 3884 3500 
z
" transform="scale(0.015625)"/>
      <path id="DejaVuSans-Bold-434" d="M 547 800 
Q 903 919 1053 1314 
Q 1203 1709 1203 2838 
L 1203 3500 
L 4228 3500 
L 4228 800 
L 4809 800 
L 4809 -884 
L 4009 -884 
L 4009 0 
L 1159 0 
L 1159 -884 
L 359 -884 
L 359 800 
L 547 800 
z
M 3109 2700 
L 2322 2700 
L 2322 2603 
Q 2322 1456 2063 800 
L 3109 800 
L 3109 2700 
z
" transform="scale(0.015625)"/>
     </defs>
     <use xlink:href="#DejaVuSans-Bold-425"/>
     <use xlink:href="#DejaVuSans-Bold-440" x="77.099609"/>
     <use xlink:href="#DejaVuSans-Bold-43e" x="148.681641"/>
     <use xlink:href="#DejaVuSans-Bold-43d" x="217.382812"/>
     <use xlink:href="#DejaVuSans-Bold-43e" x="286.474609"/>
     <use xlink:href="#DejaVuSans-Bold-43b" x="355.175781"/>
     <use xlink:href="#DejaVuSans-Bold-43e" x="428.417969"/>
     <use xlink:href="#DejaVuSans-Bold-433" x="497.119141"/>
     <use xlink:href="#DejaVuSans-Bold-438" x="549.365234"/>
     <use xlink:href="#DejaVuSans-Bold-44f" x="619.433594"/>
     <use xlink:href="#DejaVuSans-Bold-20" x="683.642578"/>
     <use xlink:href="#DejaVuSans-Bold-43d" x="718.457031"/>
     <use xlink:href="#DejaVuSans-Bold-430" x="787.548828"/>
     <use xlink:href="#DejaVuSans-Bold-20" x="855.029297"/>
     <use xlink:href="#DejaVuSans-Bold-432" x="889.84375"/>
     <use xlink:href="#DejaVuSans-Bold-430" x="953.125"/>
     <use xlink:href="#DejaVuSans-Bold-43a" x="1020.605469"/>
     <use xlink:href="#DejaVuSans-Bold-441" x="1088.476562"/>
     <use xlink:href="#DejaVuSans-Bold-438" x="1147.753906"/>
     <use xlink:href="#DejaVuSans-Bold-43d" x="1217.822266"/>
     <use xlink:href="#DejaVuSans-Bold-430" x="1286.914062"/>
     <use xlink:href="#DejaVuSans-Bold-446" x="1354.394531"/>
     <use xlink:href="#DejaVuSans-Bold-438" x="1428.515625"/>
     <use xlink:href="#DejaVuSans-Bold-44f" x="1498.583984"/>
     <use xlink:href="#DejaVuSans-Bold-442" x="1562.792969"/>
     <use xlink:href="#DejaVuSans-Bold-430" x="1620.751953"/>
     <use xlink:href="#DejaVuSans-Bold-20" x="1688.232422"/>
     <use xlink:href="#DejaVuSans-Bold-43f" x="1723.046875"/>
     <use xlink:href="#DejaVuSans-Bold-43e" x="1792.138672"/>
     <use xlink:href="#DejaVuSans-Bold-20" x="1860.839844"/>
     <use xlink:href="#DejaVuSans-Bold-434" x="1895.654297"/>
     <use xlink:href="#DejaVuSans-Bold-43d" x="1976.416016"/>
     <use xlink:href="#DejaVuSans-Bold-438" x="2045.507812"/>
    </g>
   </g>
  </g>
  <g id="axes_2">
   <g id="matplotlib.axis_3">
    <g id="ytick_8">
     <g id="line2d_117">
      <defs>
       <path id="m8fdbf4fa9f" d="M 0 0 
L 6 0 
" style="stroke: #262626; stroke-width: 1.25"/>
      </defs>
      <g>
       <use xlink:href="#m8fdbf4fa9f" x="772.568125" y="450.655018" style="fill: #262626; stroke: #262626; stroke-width: 1.25"/>
      </g>
     </g>
     <g id="text_37">
      <!-- 0 -->
      <g style="fill: #262626" transform="translate(782.068125 454.834158)scale(0.11 -0.11)">
       <use xlink:href="#DejaVuSans-30"/>
      </g>
     </g>
    </g>
    <g id="ytick_9">
     <g id="line2d_118">
      <g>
       <use xlink:href="#m8fdbf4fa9f" x="772.568125" y="397.992989" style="fill: #262626; stroke: #262626; stroke-width: 1.25"/>
      </g>
     </g>
     <g id="text_38">
      <!-- 5000 -->
      <g style="fill: #262626" transform="translate(782.068125 402.17213)scale(0.11 -0.11)">
       <use xlink:href="#DejaVuSans-35"/>
       <use xlink:href="#DejaVuSans-30" x="63.623047"/>
       <use xlink:href="#DejaVuSans-30" x="127.246094"/>
       <use xlink:href="#DejaVuSans-30" x="190.869141"/>
      </g>
     </g>
    </g>
    <g id="ytick_10">
     <g id="line2d_119">
      <g>
       <use xlink:href="#m8fdbf4fa9f" x="772.568125" y="345.330961" style="fill: #262626; stroke: #262626; stroke-width: 1.25"/>
      </g>
     </g>
     <g id="text_39">
      <!-- 10000 -->
      <g style="fill: #262626" transform="translate(782.068125 349.510101)scale(0.11 -0.11)">
       <use xlink:href="#DejaVuSans-31"/>
       <use xlink:href="#DejaVuSans-30" x="63.623047"/>
       <use xlink:href="#DejaVuSans-30" x="127.246094"/>
       <use xlink:href="#DejaVuSans-30" x="190.869141"/>
       <use xlink:href="#DejaVuSans-30" x="254.492188"/>
      </g>
     </g>
    </g>
    <g id="ytick_11">
     <g id="line2d_120">
      <g>
       <use xlink:href="#m8fdbf4fa9f" x="772.568125" y="292.668932" style="fill: #262626; stroke: #262626; stroke-width: 1.25"/>
      </g>
     </g>
     <g id="text_40">
      <!-- 15000 -->
      <g style="fill: #262626" transform="translate(782.068125 296.848073)scale(0.11 -0.11)">
       <use xlink:href="#DejaVuSans-31"/>
       <use xlink:href="#DejaVuSans-35" x="63.623047"/>
       <use xlink:href="#DejaVuSans-30" x="127.246094"/>
       <use xlink:href="#DejaVuSans-30" x="190.869141"/>
       <use xlink:href="#DejaVuSans-30" x="254.492188"/>
      </g>
     </g>
    </g>
    <g id="ytick_12">
     <g id="line2d_121">
      <g>
       <use xlink:href="#m8fdbf4fa9f" x="772.568125" y="240.006904" style="fill: #262626; stroke: #262626; stroke-width: 1.25"/>
      </g>
     </g>
     <g id="text_41">
      <!-- 20000 -->
      <g style="fill: #262626" transform="translate(782.068125 244.186045)scale(0.11 -0.11)">
       <use xlink:href="#DejaVuSans-32"/>
       <use xlink:href="#DejaVuSans-30" x="63.623047"/>
       <use xlink:href="#DejaVuSans-30" x="127.246094"/>
       <use xlink:href="#DejaVuSans-30" x="190.869141"/>
       <use xlink:href="#DejaVuSans-30" x="254.492188"/>
      </g>
     </g>
    </g>
    <g id="ytick_13">
     <g id="line2d_122">
      <g>
       <use xlink:href="#m8fdbf4fa9f" x="772.568125" y="187.344876" style="fill: #262626; stroke: #262626; stroke-width: 1.25"/>
      </g>
     </g>
     <g id="text_42">
      <!-- 25000 -->
      <g style="fill: #262626" transform="translate(782.068125 191.524016)scale(0.11 -0.11)">
       <use xlink:href="#DejaVuSans-32"/>
       <use xlink:href="#DejaVuSans-35" x="63.623047"/>
       <use xlink:href="#DejaVuSans-30" x="127.246094"/>
       <use xlink:href="#DejaVuSans-30" x="190.869141"/>
       <use xlink:href="#DejaVuSans-30" x="254.492188"/>
      </g>
     </g>
    </g>
    <g id="ytick_14">
     <g id="line2d_123">
      <g>
       <use xlink:href="#m8fdbf4fa9f" x="772.568125" y="134.682847" style="fill: #262626; stroke: #262626; stroke-width: 1.25"/>
      </g>
     </g>
     <g id="text_43">
      <!-- 30000 -->
      <g style="fill: #262626" transform="translate(782.068125 138.861988)scale(0.11 -0.11)">
       <use xlink:href="#DejaVuSans-33"/>
       <use xlink:href="#DejaVuSans-30" x="63.623047"/>
       <use xlink:href="#DejaVuSans-30" x="127.246094"/>
       <use xlink:href="#DejaVuSans-30" x="190.869141"/>
       <use xlink:href="#DejaVuSans-30" x="254.492188"/>
      </g>
     </g>
    </g>
    <g id="ytick_15">
     <g id="line2d_124">
      <g>
       <use xlink:href="#m8fdbf4fa9f" x="772.568125" y="82.020819" style="fill: #262626; stroke: #262626; stroke-width: 1.25"/>
      </g>
     </g>
     <g id="text_44">
      <!-- 35000 -->
      <g style="fill: #262626" transform="translate(782.068125 86.199959)scale(0.11 -0.11)">
       <use xlink:href="#DejaVuSans-33"/>
       <use xlink:href="#DejaVuSans-35" x="63.623047"/>
       <use xlink:href="#DejaVuSans-30" x="127.246094"/>
       <use xlink:href="#DejaVuSans-30" x="190.869141"/>
       <use xlink:href="#DejaVuSans-30" x="254.492188"/>
      </g>
     </g>
    </g>
    <g id="ytick_16">
     <g id="line2d_125">
      <g>
       <use xlink:href="#m8fdbf4fa9f" x="772.568125" y="29.35879" style="fill: #262626; stroke: #262626; stroke-width: 1.25"/>
      </g>
     </g>
     <g id="text_45">
      <!-- 40000 -->
      <g style="fill: #262626" transform="translate(782.068125 33.537931)scale(0.11 -0.11)">
       <use xlink:href="#DejaVuSans-34"/>
       <use xlink:href="#DejaVuSans-30" x="63.623047"/>
       <use xlink:href="#DejaVuSans-30" x="127.246094"/>
       <use xlink:href="#DejaVuSans-30" x="190.869141"/>
       <use xlink:href="#DejaVuSans-30" x="254.492188"/>
      </g>
     </g>
    </g>
    <g id="text_46">
     <!-- Новопоставени дози -->
     <g style="fill: #262626" transform="translate(827.94375 184.601914)rotate(-270)scale(0.12 -0.12)">
      <defs>
       <path id="DejaVuSans-41d" d="M 628 4666 
L 1259 4666 
L 1259 2753 
L 3553 2753 
L 3553 4666 
L 4184 4666 
L 4184 0 
L 3553 0 
L 3553 2222 
L 1259 2222 
L 1259 0 
L 628 0 
L 628 4666 
z
" transform="scale(0.015625)"/>
       <path id="DejaVuSans-43f" d="M 3603 3500 
L 3603 0 
L 3025 0 
L 3025 3041 
L 1159 3041 
L 1159 0 
L 581 0 
L 581 3500 
L 3603 3500 
z
" transform="scale(0.015625)"/>
      </defs>
      <use xlink:href="#DejaVuSans-41d"/>
      <use xlink:href="#DejaVuSans-43e" x="75.195312"/>
      <use xlink:href="#DejaVuSans-432" x="136.376953"/>
      <use xlink:href="#DejaVuSans-43e" x="195.3125"/>
      <use xlink:href="#DejaVuSans-43f" x="256.494141"/>
      <use xlink:href="#DejaVuSans-43e" x="321.875"/>
      <use xlink:href="#DejaVuSans-441" x="383.056641"/>
      <use xlink:href="#DejaVuSans-442" x="438.037109"/>
      <use xlink:href="#DejaVuSans-430" x="496.289062"/>
      <use xlink:href="#DejaVuSans-432" x="557.568359"/>
      <use xlink:href="#DejaVuSans-435" x="616.503906"/>
      <use xlink:href="#DejaVuSans-43d" x="678.027344"/>
      <use xlink:href="#DejaVuSans-438" x="743.408203"/>
      <use xlink:href="#DejaVuSans-20" x="808.398438"/>
      <use xlink:href="#DejaVuSans-434" x="840.185547"/>
      <use xlink:href="#DejaVuSans-43e" x="909.326172"/>
      <use xlink:href="#DejaVuSans-437" x="970.507812"/>
      <use xlink:href="#DejaVuSans-438" x="1023.681641"/>
     </g>
    </g>
   </g>
   <g id="line2d_126">
    <path d="M 84.846761 409.64183 
L 86.807758 443.13488 
L 88.768754 449.275272 
L 90.72975 450.655018 
L 96.612739 450.655018 
L 98.573735 443.187542 
L 100.534731 424.692638 
L 102.495727 416.90919 
L 104.456723 427.083494 
L 106.417719 449.412194 
L 108.378716 450.655018 
L 110.339712 443.408723 
L 112.300708 433.603053 
L 114.261704 437.405251 
L 116.2227 443.830019 
L 118.183697 446.020759 
L 120.144693 448.485342 
L 122.105689 449.380597 
L 124.066685 438.174117 
L 126.027681 423.397152 
L 127.988678 430.632914 
L 129.949674 438.816594 
L 131.91067 441.702473 
L 133.871666 450.465434 
L 135.832662 450.40224 
L 137.793658 443.756292 
L 139.754655 426.177707 
L 141.715651 410.684538 
L 143.676647 400.952595 
L 145.637643 417.277824 
L 147.598639 448.39055 
L 149.559636 449.549115 
L 151.520632 434.761617 
L 153.481628 416.07713 
L 155.442624 406.345187 
L 157.40362 409.568103 
L 159.364617 420.795648 
L 161.325613 449.011962 
L 163.286609 450.423305 
L 165.247605 431.170067 
L 167.208601 413.370302 
L 169.169598 411.316482 
L 171.130594 398.414285 
L 173.09159 413.043797 
L 175.052586 444.061732 
L 177.013582 449.938814 
L 178.974578 429.084651 
L 180.935575 409.557571 
L 182.896571 402.395535 
L 184.857567 402.269146 
L 186.818563 305.79231 
L 188.779559 407.598543 
L 190.740556 334.81962 
L 192.701552 327.33108 
L 194.662548 269.887339 
L 196.623544 237.521256 
L 198.58454 239.480284 
L 200.545537 282.905392 
L 202.506533 394.612087 
L 204.467529 422.375508 
L 206.428525 333.808509 
L 208.389521 237.552854 
L 210.350517 404.34403 
L 212.311514 236.057252 
L 214.27251 282.979119 
L 216.233506 422.702013 
L 218.194502 434.719488 
L 220.155498 392.716254 
L 222.116495 366.195656 
L 224.077491 376.991372 
L 226.038487 289.498678 
L 227.999483 322.012215 
L 229.960479 437.552705 
L 231.921476 440.385922 
L 233.882472 420.869374 
L 235.843468 405.502594 
L 237.804464 401.068452 
L 239.76546 394.306647 
L 241.726457 380.414404 
L 243.687453 410.358033 
L 245.648449 425.819605 
L 249.570441 319.684553 
L 251.531437 318.957817 
L 253.492434 300.125876 
L 255.45343 296.59752 
L 257.414426 409.262663 
L 259.375422 425.556295 
L 261.336418 355.800172 
L 263.297415 311.795781 
L 265.258411 306.234671 
L 267.219407 307.846129 
L 269.180403 323.39196 
L 271.141399 408.599122 
L 273.102396 434.940668 
L 275.063392 382.415561 
L 277.024388 349.691377 
L 278.985384 305.118236 
L 280.94638 249.875768 
L 282.907376 293.932821 
L 284.868373 412.043218 
L 286.829369 433.803169 
L 288.790365 373.452484 
L 290.751361 340.033161 
L 292.712357 293.911756 
L 294.673354 292.689997 
L 296.63435 305.79231 
L 298.595346 418.141481 
L 300.556342 437.731756 
L 302.517338 376.475284 
L 304.478335 325.877608 
L 306.439331 248.769866 
L 308.400327 218.773574 
L 310.361323 256.616508 
L 312.322319 406.102942 
L 314.283316 428.852938 
L 316.244312 335.746472 
L 318.205308 274.247755 
L 320.166304 183.605872 
L 322.1273 167.101592 
L 324.088296 321.243349 
L 326.049293 390.041023 
L 328.010289 414.792176 
L 329.971285 357.053528 
L 331.932281 333.397745 
L 333.893277 108.551949 
L 335.854274 375.558965 
L 337.81527 49.19131 
L 339.776266 344.825405 
L 341.737262 391.199588 
L 343.698258 182.341983 
L 345.659255 74.142579 
L 347.620251 66.474988 
L 349.581247 52.951379 
L 351.542243 100.58945 
L 353.503239 381.235932 
L 355.464236 414.950162 
L 357.425232 258.586068 
L 359.386228 176.064669 
L 361.347224 131.007038 
L 363.30822 90.404614 
L 365.269216 186.649737 
L 367.230213 383.795306 
L 369.191209 412.022154 
L 371.152205 396.181415 
L 373.113201 273.057593 
L 375.074197 230.9701 
L 377.035194 258.849378 
L 378.99619 246.916162 
L 380.957186 376.14878 
L 382.918182 397.519031 
L 384.879178 317.167308 
L 386.840175 260.56616 
L 388.801171 219.142208 
L 390.762167 206.798229 
L 392.723163 221.627856 
L 394.684159 387.555375 
L 396.645155 372.609892 
L 400.567148 221.46987 
L 402.528144 197.803554 
L 404.48914 200.373461 
L 406.450136 234.856558 
L 408.411133 398.330026 
L 410.372129 416.287778 
L 412.333125 348.975173 
L 414.294121 287.845091 
L 416.255117 265.200418 
L 418.216114 258.838845 
L 420.17711 290.246479 
L 422.138106 410.042061 
L 424.099102 417.656991 
L 426.060098 361.108505 
L 428.021095 316.661753 
L 429.982091 304.265111 
L 431.943087 300.968468 
L 433.904083 321.317076 
L 435.865079 417.941366 
L 437.826075 422.006874 
L 439.787072 365.77436 
L 441.748068 318.05203 
L 443.709064 313.607355 
L 445.67006 321.064298 
L 447.631056 327.162561 
L 449.592053 412.759422 
L 451.553049 427.936619 
L 453.514045 368.3548 
L 455.475041 327.415339 
L 457.436037 315.55585 
L 459.397034 321.338141 
L 461.35803 329.068926 
L 463.319026 416.266713 
L 465.280022 428.610693 
L 467.241018 362.077486 
L 469.202014 325.171936 
L 471.163011 323.981775 
L 473.124007 328.057816 
L 475.085003 338.242652 
L 477.045999 422.617754 
L 479.006995 429.12678 
L 480.967992 368.828758 
L 482.928988 345.531077 
L 484.889984 334.187676 
L 486.85098 331.238602 
L 488.811976 340.507119 
L 490.772973 413.370302 
L 492.733969 429.611271 
L 494.694965 360.782 
L 496.655961 322.401914 
L 498.616957 314.028651 
L 500.577954 322.043812 
L 502.53895 335.272513 
L 504.499946 417.025046 
L 506.460942 427.852359 
L 508.421938 363.130726 
L 510.382934 320.263835 
L 512.343931 317.399021 
L 514.304927 318.852493 
L 516.265923 325.698557 
L 518.226919 416.129792 
L 520.187915 426.10398 
L 522.148912 356.031885 
L 524.109908 325.36152 
L 526.070904 320.958974 
L 528.0319 326.003996 
L 529.992896 340.328068 
L 531.953893 413.749468 
L 533.914889 427.631179 
L 535.875885 354.441492 
L 537.836881 322.064877 
L 539.797877 315.956081 
L 541.758874 322.928534 
L 543.71987 326.688603 
L 545.680866 411.642987 
L 547.641862 425.4931 
L 549.602858 346.605382 
L 551.563854 306.01349 
L 553.524851 305.402611 
L 555.485847 309.42599 
L 557.446843 319.1474 
L 559.407839 409.262663 
L 561.368835 423.902707 
L 563.329832 341.086401 
L 565.290828 308.604462 
L 567.251824 323.865918 
L 569.21282 322.286057 
L 571.173816 322.222863 
L 573.134813 415.16081 
L 575.095809 428.03141 
L 577.056805 433.234419 
L 579.017801 330.933162 
L 580.978797 319.442308 
L 582.939793 325.235131 
L 584.90079 334.51418 
L 586.861786 418.288935 
L 588.822782 430.053632 
L 590.783778 365.932346 
L 592.744774 334.977606 
L 594.705771 342.360822 
L 596.666767 332.828995 
L 598.627763 340.633508 
L 600.588759 418.625972 
L 602.549755 432.781525 
L 604.510752 371.177484 
L 606.471748 344.656887 
L 608.432744 431.085808 
L 610.39374 330.153764 
L 612.354736 345.257234 
L 614.315733 424.682105 
L 616.276729 434.73002 
L 618.237725 395.791716 
L 620.198721 366.722277 
L 622.159717 355.800172 
L 624.120713 356.853413 
L 626.08171 376.275169 
L 628.042706 426.609535 
L 630.003702 437.131409 
L 631.964698 393.938013 
L 633.925694 372.662554 
L 635.886691 375.042877 
L 637.847687 369.460702 
L 639.808683 374.7901 
L 641.769679 426.06185 
L 643.730675 437.816015 
L 645.691672 396.255142 
L 647.652668 369.881998 
L 649.613664 392.221231 
L 651.57466 365.784893 
L 653.535656 359.770889 
L 655.496652 419.847731 
L 657.457649 431.802011 
L 659.418645 385.34357 
L 661.379641 354.925982 
L 663.340637 308.646592 
L 665.301633 153.209349 
L 667.26263 197.487582 
L 669.223626 327.583857 
L 671.184622 375.295655 
L 673.145618 290.983748 
L 675.106614 113.554841 
L 677.067611 183.026589 
L 679.028607 204.407373 
L 680.989603 206.893021 
L 682.950599 369.18686 
L 684.911595 398.298429 
L 686.872592 297.661293 
L 688.833588 252.845907 
L 690.794584 244.830746 
L 692.75558 231.981211 
L 694.716576 237.342205 
L 696.677572 379.550747 
L 698.638569 400.510234 
L 700.599565 310.868929 
L 702.560561 271.909561 
L 704.521557 267.780858 
L 706.482553 214.960843 
L 708.44355 220.184917 
L 710.404546 369.481767 
L 712.365542 399.320072 
L 714.326538 273.752732 
L 716.287534 217.541283 
L 718.248531 224.176698 
L 720.209527 218.520796 
L 722.170523 221.743713 
L 724.131519 374.158155 
L 726.092515 402.806299 
L 728.053511 283.779582 
L 730.014508 242.840121 
L 731.975504 242.871718 
L 733.9365 228.421258 
L 735.897496 224.587462 
L 737.858492 380.519728 
L 739.819489 401.76359 
L 739.819489 401.76359 
" clip-path="url(#p40373a964d)" style="fill: none; stroke: #ff0000; stroke-width: 1.5; stroke-linecap: round"/>
   </g>
   <g id="patch_7">
    <path d="M 52.098125 470.728203 
L 52.098125 29.118125 
" style="fill: none; stroke: #262626; stroke-width: 1.25; stroke-linejoin: miter; stroke-linecap: square"/>
   </g>
   <g id="patch_8">
    <path d="M 772.568125 470.728203 
L 772.568125 29.118125 
" style="fill: none; stroke: #262626; stroke-width: 1.25; stroke-linejoin: miter; stroke-linecap: square"/>
   </g>
   <g id="patch_9">
    <path d="M 52.098125 470.728203 
L 772.568125 470.728203 
" style="fill: none; stroke: #262626; stroke-width: 1.25; stroke-linejoin: miter; stroke-linecap: square"/>
   </g>
   <g id="patch_10">
    <path d="M 52.098125 29.118125 
L 772.568125 29.118125 
" style="fill: none; stroke: #262626; stroke-width: 1.25; stroke-linejoin: miter; stroke-linecap: square"/>
   </g>
   <g id="legend_1">
    <g id="patch_11">
     <path d="M 590.796562 70.397344 
L 764.868125 70.397344 
Q 767.068125 70.397344 767.068125 68.197344 
L 767.068125 36.818125 
Q 767.068125 34.618125 764.868125 34.618125 
L 590.796562 34.618125 
Q 588.596562 34.618125 588.596562 36.818125 
L 588.596562 68.197344 
Q 588.596562 70.397344 590.796562 70.397344 
z
" style="fill: #ffffff; opacity: 0.8; stroke: #cccccc; stroke-linejoin: miter"/>
    </g>
    <g id="line2d_127">
     <path d="M 592.996562 43.71375 
L 603.996562 43.71375 
L 614.996562 43.71375 
" style="fill: none; stroke: #0000ff; stroke-width: 1.5; stroke-linecap: round"/>
    </g>
    <g id="text_47">
     <!-- Кумулативен брой дози -->
     <g style="fill: #262626" transform="translate(623.796562 47.56375)scale(0.11 -0.11)">
      <defs>
       <path id="DejaVuSans-41a" d="M 628 4666 
L 1259 4666 
L 1259 2359 
L 3516 4666 
L 4325 4666 
L 2522 2822 
L 4419 0 
L 3731 0 
L 2113 2403 
L 1259 1531 
L 1259 0 
L 628 0 
L 628 4666 
z
" transform="scale(0.015625)"/>
       <path id="DejaVuSans-43c" d="M 581 3500 
L 1422 3500 
L 2416 1156 
L 3413 3500 
L 4247 3500 
L 4247 0 
L 3669 0 
L 3669 2950 
L 2703 672 
L 2128 672 
L 1159 2950 
L 1159 0 
L 581 0 
L 581 3500 
z
" transform="scale(0.015625)"/>
       <path id="DejaVuSans-431" d="M 1991 3584 
Q 2741 3584 3169 3096 
Q 3597 2609 3597 1747 
Q 3597 888 3169 398 
Q 2741 -91 1991 -91 
Q 1238 -91 822 384 
Q 406 859 384 1747 
L 366 2463 
Q 350 2834 350 2963 
Q 350 3463 531 3831 
Q 816 4409 1308 4659 
Q 1800 4909 2625 4916 
Q 3006 4919 3175 4972 
L 3334 4516 
Q 3181 4453 3041 4450 
L 2259 4397 
Q 1866 4369 1628 4231 
Q 1006 3866 947 3388 
L 925 3213 
Q 1331 3584 1991 3584 
z
M 1991 3097 
Q 1528 3097 1259 2736 
Q 991 2375 991 1747 
Q 991 1119 1258 758 
Q 1525 397 1991 397 
Q 2450 397 2719 759 
Q 2988 1122 2988 1747 
Q 2988 2369 2719 2733 
Q 2450 3097 1991 3097 
z
" transform="scale(0.015625)"/>
       <path id="DejaVuSans-440" d="M 1159 525 
L 1159 -1331 
L 581 -1331 
L 581 3500 
L 1159 3500 
L 1159 2969 
Q 1341 3281 1617 3432 
Q 1894 3584 2278 3584 
Q 2916 3584 3314 3078 
Q 3713 2572 3713 1747 
Q 3713 922 3314 415 
Q 2916 -91 2278 -91 
Q 1894 -91 1617 61 
Q 1341 213 1159 525 
z
M 3116 1747 
Q 3116 2381 2855 2742 
Q 2594 3103 2138 3103 
Q 1681 3103 1420 2742 
Q 1159 2381 1159 1747 
Q 1159 1113 1420 752 
Q 1681 391 2138 391 
Q 2594 391 2855 752 
Q 3116 1113 3116 1747 
z
" transform="scale(0.015625)"/>
       <path id="DejaVuSans-439" d="M 3578 3500 
L 3578 0 
L 3006 0 
L 3006 2809 
L 1319 0 
L 581 0 
L 581 3500 
L 1153 3500 
L 1153 697 
L 2838 3500 
L 3578 3500 
z
M 1102 4833 
L 1471 4833 
Q 1505 4599 1656 4481 
Q 1808 4364 2080 4364 
Q 2349 4364 2499 4480 
Q 2649 4596 2689 4833 
L 3058 4833 
Q 3027 4386 2780 4161 
Q 2533 3936 2080 3936 
Q 1627 3936 1380 4161 
Q 1133 4386 1102 4833 
z
" transform="scale(0.015625)"/>
      </defs>
      <use xlink:href="#DejaVuSans-41a"/>
      <use xlink:href="#DejaVuSans-443" x="70.996094"/>
      <use xlink:href="#DejaVuSans-43c" x="130.175781"/>
      <use xlink:href="#DejaVuSans-443" x="205.615234"/>
      <use xlink:href="#DejaVuSans-43b" x="264.794922"/>
      <use xlink:href="#DejaVuSans-430" x="328.710938"/>
      <use xlink:href="#DejaVuSans-442" x="389.990234"/>
      <use xlink:href="#DejaVuSans-438" x="448.242188"/>
      <use xlink:href="#DejaVuSans-432" x="513.232422"/>
      <use xlink:href="#DejaVuSans-435" x="572.167969"/>
      <use xlink:href="#DejaVuSans-43d" x="633.691406"/>
      <use xlink:href="#DejaVuSans-20" x="699.072266"/>
      <use xlink:href="#DejaVuSans-431" x="730.859375"/>
      <use xlink:href="#DejaVuSans-440" x="792.529297"/>
      <use xlink:href="#DejaVuSans-43e" x="856.005859"/>
      <use xlink:href="#DejaVuSans-439" x="917.1875"/>
      <use xlink:href="#DejaVuSans-20" x="982.177734"/>
      <use xlink:href="#DejaVuSans-434" x="1013.964844"/>
      <use xlink:href="#DejaVuSans-43e" x="1083.105469"/>
      <use xlink:href="#DejaVuSans-437" x="1144.287109"/>
      <use xlink:href="#DejaVuSans-438" x="1197.460938"/>
     </g>
    </g>
    <g id="line2d_128">
     <path d="M 592.996562 59.859688 
L 603.996562 59.859688 
L 614.996562 59.859688 
" style="fill: none; stroke: #ff0000; stroke-width: 1.5; stroke-linecap: round"/>
    </g>
    <g id="text_48">
     <!-- Новопоставени дози -->
     <g style="fill: #262626" transform="translate(623.796562 63.709688)scale(0.11 -0.11)">
      <use xlink:href="#DejaVuSans-41d"/>
      <use xlink:href="#DejaVuSans-43e" x="75.195312"/>
      <use xlink:href="#DejaVuSans-432" x="136.376953"/>
      <use xlink:href="#DejaVuSans-43e" x="195.3125"/>
      <use xlink:href="#DejaVuSans-43f" x="256.494141"/>
      <use xlink:href="#DejaVuSans-43e" x="321.875"/>
      <use xlink:href="#DejaVuSans-441" x="383.056641"/>
      <use xlink:href="#DejaVuSans-442" x="438.037109"/>
      <use xlink:href="#DejaVuSans-430" x="496.289062"/>
      <use xlink:href="#DejaVuSans-432" x="557.568359"/>
      <use xlink:href="#DejaVuSans-435" x="616.503906"/>
      <use xlink:href="#DejaVuSans-43d" x="678.027344"/>
      <use xlink:href="#DejaVuSans-438" x="743.408203"/>
      <use xlink:href="#DejaVuSans-20" x="808.398438"/>
      <use xlink:href="#DejaVuSans-434" x="840.185547"/>
      <use xlink:href="#DejaVuSans-43e" x="909.326172"/>
      <use xlink:href="#DejaVuSans-437" x="970.507812"/>
      <use xlink:href="#DejaVuSans-438" x="1023.681641"/>
     </g>
    </g>
   </g>
  </g>
 </g>
 <defs>
  <clipPath id="p40373a964d">
   <rect x="52.098125" y="29.118125" width="720.47" height="441.610078"/>
  </clipPath>
 </defs>
</svg>
