<?xml version="1.0" encoding="utf-8" standalone="no"?>
<!DOCTYPE svg PUBLIC "-//W3C//DTD SVG 1.1//EN"
  "http://www.w3.org/Graphics/SVG/1.1/DTD/svg11.dtd">
<svg height="558.839537pt" version="1.1" viewBox="0 0 845.25115 558.839537" width="845.25115pt" xmlns="http://www.w3.org/2000/svg" xmlns:xlink="http://www.w3.org/1999/xlink">
 <metadata>
  <rdf:RDF xmlns:cc="http://creativecommons.org/ns#" xmlns:dc="http://purl.org/dc/elements/1.1/" xmlns:rdf="http://www.w3.org/1999/02/22-rdf-syntax-ns#">
   <cc:Work>
    <dc:type rdf:resource="http://purl.org/dc/dcmitype/StillImage"/>
    <dc:date>2021-11-07T01:41:14.607569</dc:date>
    <dc:format>image/svg+xml</dc:format>
    <dc:creator>
     <cc:Agent>
      <dc:title>Matplotlib v3.4.3, https://matplotlib.org/</dc:title>
     </cc:Agent>
    </dc:creator>
   </cc:Work>
  </rdf:RDF>
 </metadata>
 <defs>
  <style type="text/css">*{stroke-linecap:butt;stroke-linejoin:round;}</style>
 </defs>
 <g id="figure_1">
  <g id="patch_1">
   <path d="M 0 558.839537 
L 845.25115 558.839537 
L 845.25115 0 
L 0 0 
z
" style="fill:none;"/>
  </g>
  <g id="axes_1">
   <g id="patch_2">
    <path d="M 39.11125 523.07985 
L 845.25115 523.07985 
L 845.25115 29.024375 
L 39.11125 29.024375 
z
" style="fill:none;"/>
   </g>
   <g id="matplotlib.axis_1">
    <g id="xtick_1">
     <g id="line2d_1">
      <defs>
       <path d="M 0 0 
L 0 6 
" id="mb04ff14ba8" style="stroke:#262626;stroke-width:1.25;"/>
      </defs>
      <g>
       <use style="fill:#262626;stroke:#262626;stroke-width:1.25;" x="83.8968" xlink:href="#mb04ff14ba8" y="523.07985"/>
      </g>
     </g>
     <g id="text_1">
      <!-- 0 - 19 -->
      <g style="fill:#262626;" transform="translate(67.918441 540.938131)scale(0.11 -0.11)">
       <defs>
        <path d="M 2034 4250 
Q 1547 4250 1301 3770 
Q 1056 3291 1056 2328 
Q 1056 1369 1301 889 
Q 1547 409 2034 409 
Q 2525 409 2770 889 
Q 3016 1369 3016 2328 
Q 3016 3291 2770 3770 
Q 2525 4250 2034 4250 
z
M 2034 4750 
Q 2819 4750 3233 4129 
Q 3647 3509 3647 2328 
Q 3647 1150 3233 529 
Q 2819 -91 2034 -91 
Q 1250 -91 836 529 
Q 422 1150 422 2328 
Q 422 3509 836 4129 
Q 1250 4750 2034 4750 
z
" id="DejaVuSans-30" transform="scale(0.015625)"/>
        <path id="DejaVuSans-20" transform="scale(0.015625)"/>
        <path d="M 313 2009 
L 1997 2009 
L 1997 1497 
L 313 1497 
L 313 2009 
z
" id="DejaVuSans-2d" transform="scale(0.015625)"/>
        <path d="M 794 531 
L 1825 531 
L 1825 4091 
L 703 3866 
L 703 4441 
L 1819 4666 
L 2450 4666 
L 2450 531 
L 3481 531 
L 3481 0 
L 794 0 
L 794 531 
z
" id="DejaVuSans-31" transform="scale(0.015625)"/>
        <path d="M 703 97 
L 703 672 
Q 941 559 1184 500 
Q 1428 441 1663 441 
Q 2288 441 2617 861 
Q 2947 1281 2994 2138 
Q 2813 1869 2534 1725 
Q 2256 1581 1919 1581 
Q 1219 1581 811 2004 
Q 403 2428 403 3163 
Q 403 3881 828 4315 
Q 1253 4750 1959 4750 
Q 2769 4750 3195 4129 
Q 3622 3509 3622 2328 
Q 3622 1225 3098 567 
Q 2575 -91 1691 -91 
Q 1453 -91 1209 -44 
Q 966 3 703 97 
z
M 1959 2075 
Q 2384 2075 2632 2365 
Q 2881 2656 2881 3163 
Q 2881 3666 2632 3958 
Q 2384 4250 1959 4250 
Q 1534 4250 1286 3958 
Q 1038 3666 1038 3163 
Q 1038 2656 1286 2365 
Q 1534 2075 1959 2075 
z
" id="DejaVuSans-39" transform="scale(0.015625)"/>
       </defs>
       <use xlink:href="#DejaVuSans-30"/>
       <use x="63.623047" xlink:href="#DejaVuSans-20"/>
       <use x="95.410156" xlink:href="#DejaVuSans-2d"/>
       <use x="131.494141" xlink:href="#DejaVuSans-20"/>
       <use x="163.28125" xlink:href="#DejaVuSans-31"/>
       <use x="226.904297" xlink:href="#DejaVuSans-39"/>
      </g>
     </g>
    </g>
    <g id="xtick_2">
     <g id="line2d_2">
      <g>
       <use style="fill:#262626;stroke:#262626;stroke-width:1.25;" x="173.4679" xlink:href="#mb04ff14ba8" y="523.07985"/>
      </g>
     </g>
     <g id="text_2">
      <!-- 20 - 29 -->
      <g style="fill:#262626;" transform="translate(153.990166 540.938131)scale(0.11 -0.11)">
       <defs>
        <path d="M 1228 531 
L 3431 531 
L 3431 0 
L 469 0 
L 469 531 
Q 828 903 1448 1529 
Q 2069 2156 2228 2338 
Q 2531 2678 2651 2914 
Q 2772 3150 2772 3378 
Q 2772 3750 2511 3984 
Q 2250 4219 1831 4219 
Q 1534 4219 1204 4116 
Q 875 4013 500 3803 
L 500 4441 
Q 881 4594 1212 4672 
Q 1544 4750 1819 4750 
Q 2544 4750 2975 4387 
Q 3406 4025 3406 3419 
Q 3406 3131 3298 2873 
Q 3191 2616 2906 2266 
Q 2828 2175 2409 1742 
Q 1991 1309 1228 531 
z
" id="DejaVuSans-32" transform="scale(0.015625)"/>
       </defs>
       <use xlink:href="#DejaVuSans-32"/>
       <use x="63.623047" xlink:href="#DejaVuSans-30"/>
       <use x="127.246094" xlink:href="#DejaVuSans-20"/>
       <use x="159.033203" xlink:href="#DejaVuSans-2d"/>
       <use x="195.117188" xlink:href="#DejaVuSans-20"/>
       <use x="226.904297" xlink:href="#DejaVuSans-32"/>
       <use x="290.527344" xlink:href="#DejaVuSans-39"/>
      </g>
     </g>
    </g>
    <g id="xtick_3">
     <g id="line2d_3">
      <g>
       <use style="fill:#262626;stroke:#262626;stroke-width:1.25;" x="263.039" xlink:href="#mb04ff14ba8" y="523.07985"/>
      </g>
     </g>
     <g id="text_3">
      <!-- 30 - 39 -->
      <g style="fill:#262626;" transform="translate(243.561266 540.938131)scale(0.11 -0.11)">
       <defs>
        <path d="M 2597 2516 
Q 3050 2419 3304 2112 
Q 3559 1806 3559 1356 
Q 3559 666 3084 287 
Q 2609 -91 1734 -91 
Q 1441 -91 1130 -33 
Q 819 25 488 141 
L 488 750 
Q 750 597 1062 519 
Q 1375 441 1716 441 
Q 2309 441 2620 675 
Q 2931 909 2931 1356 
Q 2931 1769 2642 2001 
Q 2353 2234 1838 2234 
L 1294 2234 
L 1294 2753 
L 1863 2753 
Q 2328 2753 2575 2939 
Q 2822 3125 2822 3475 
Q 2822 3834 2567 4026 
Q 2313 4219 1838 4219 
Q 1578 4219 1281 4162 
Q 984 4106 628 3988 
L 628 4550 
Q 988 4650 1302 4700 
Q 1616 4750 1894 4750 
Q 2613 4750 3031 4423 
Q 3450 4097 3450 3541 
Q 3450 3153 3228 2886 
Q 3006 2619 2597 2516 
z
" id="DejaVuSans-33" transform="scale(0.015625)"/>
       </defs>
       <use xlink:href="#DejaVuSans-33"/>
       <use x="63.623047" xlink:href="#DejaVuSans-30"/>
       <use x="127.246094" xlink:href="#DejaVuSans-20"/>
       <use x="159.033203" xlink:href="#DejaVuSans-2d"/>
       <use x="195.117188" xlink:href="#DejaVuSans-20"/>
       <use x="226.904297" xlink:href="#DejaVuSans-33"/>
       <use x="290.527344" xlink:href="#DejaVuSans-39"/>
      </g>
     </g>
    </g>
    <g id="xtick_4">
     <g id="line2d_4">
      <g>
       <use style="fill:#262626;stroke:#262626;stroke-width:1.25;" x="352.6101" xlink:href="#mb04ff14ba8" y="523.07985"/>
      </g>
     </g>
     <g id="text_4">
      <!-- 40 - 49 -->
      <g style="fill:#262626;" transform="translate(333.132366 540.938131)scale(0.11 -0.11)">
       <defs>
        <path d="M 2419 4116 
L 825 1625 
L 2419 1625 
L 2419 4116 
z
M 2253 4666 
L 3047 4666 
L 3047 1625 
L 3713 1625 
L 3713 1100 
L 3047 1100 
L 3047 0 
L 2419 0 
L 2419 1100 
L 313 1100 
L 313 1709 
L 2253 4666 
z
" id="DejaVuSans-34" transform="scale(0.015625)"/>
       </defs>
       <use xlink:href="#DejaVuSans-34"/>
       <use x="63.623047" xlink:href="#DejaVuSans-30"/>
       <use x="127.246094" xlink:href="#DejaVuSans-20"/>
       <use x="159.033203" xlink:href="#DejaVuSans-2d"/>
       <use x="195.117188" xlink:href="#DejaVuSans-20"/>
       <use x="226.904297" xlink:href="#DejaVuSans-34"/>
       <use x="290.527344" xlink:href="#DejaVuSans-39"/>
      </g>
     </g>
    </g>
    <g id="xtick_5">
     <g id="line2d_5">
      <g>
       <use style="fill:#262626;stroke:#262626;stroke-width:1.25;" x="442.1812" xlink:href="#mb04ff14ba8" y="523.07985"/>
      </g>
     </g>
     <g id="text_5">
      <!-- 50 - 59 -->
      <g style="fill:#262626;" transform="translate(422.703466 540.938131)scale(0.11 -0.11)">
       <defs>
        <path d="M 691 4666 
L 3169 4666 
L 3169 4134 
L 1269 4134 
L 1269 2991 
Q 1406 3038 1543 3061 
Q 1681 3084 1819 3084 
Q 2600 3084 3056 2656 
Q 3513 2228 3513 1497 
Q 3513 744 3044 326 
Q 2575 -91 1722 -91 
Q 1428 -91 1123 -41 
Q 819 9 494 109 
L 494 744 
Q 775 591 1075 516 
Q 1375 441 1709 441 
Q 2250 441 2565 725 
Q 2881 1009 2881 1497 
Q 2881 1984 2565 2268 
Q 2250 2553 1709 2553 
Q 1456 2553 1204 2497 
Q 953 2441 691 2322 
L 691 4666 
z
" id="DejaVuSans-35" transform="scale(0.015625)"/>
       </defs>
       <use xlink:href="#DejaVuSans-35"/>
       <use x="63.623047" xlink:href="#DejaVuSans-30"/>
       <use x="127.246094" xlink:href="#DejaVuSans-20"/>
       <use x="159.033203" xlink:href="#DejaVuSans-2d"/>
       <use x="195.117188" xlink:href="#DejaVuSans-20"/>
       <use x="226.904297" xlink:href="#DejaVuSans-35"/>
       <use x="290.527344" xlink:href="#DejaVuSans-39"/>
      </g>
     </g>
    </g>
    <g id="xtick_6">
     <g id="line2d_6">
      <g>
       <use style="fill:#262626;stroke:#262626;stroke-width:1.25;" x="531.7523" xlink:href="#mb04ff14ba8" y="523.07985"/>
      </g>
     </g>
     <g id="text_6">
      <!-- 60 - 69 -->
      <g style="fill:#262626;" transform="translate(512.274566 540.938131)scale(0.11 -0.11)">
       <defs>
        <path d="M 2113 2584 
Q 1688 2584 1439 2293 
Q 1191 2003 1191 1497 
Q 1191 994 1439 701 
Q 1688 409 2113 409 
Q 2538 409 2786 701 
Q 3034 994 3034 1497 
Q 3034 2003 2786 2293 
Q 2538 2584 2113 2584 
z
M 3366 4563 
L 3366 3988 
Q 3128 4100 2886 4159 
Q 2644 4219 2406 4219 
Q 1781 4219 1451 3797 
Q 1122 3375 1075 2522 
Q 1259 2794 1537 2939 
Q 1816 3084 2150 3084 
Q 2853 3084 3261 2657 
Q 3669 2231 3669 1497 
Q 3669 778 3244 343 
Q 2819 -91 2113 -91 
Q 1303 -91 875 529 
Q 447 1150 447 2328 
Q 447 3434 972 4092 
Q 1497 4750 2381 4750 
Q 2619 4750 2861 4703 
Q 3103 4656 3366 4563 
z
" id="DejaVuSans-36" transform="scale(0.015625)"/>
       </defs>
       <use xlink:href="#DejaVuSans-36"/>
       <use x="63.623047" xlink:href="#DejaVuSans-30"/>
       <use x="127.246094" xlink:href="#DejaVuSans-20"/>
       <use x="159.033203" xlink:href="#DejaVuSans-2d"/>
       <use x="195.117188" xlink:href="#DejaVuSans-20"/>
       <use x="226.904297" xlink:href="#DejaVuSans-36"/>
       <use x="290.527344" xlink:href="#DejaVuSans-39"/>
      </g>
     </g>
    </g>
    <g id="xtick_7">
     <g id="line2d_7">
      <g>
       <use style="fill:#262626;stroke:#262626;stroke-width:1.25;" x="621.3234" xlink:href="#mb04ff14ba8" y="523.07985"/>
      </g>
     </g>
     <g id="text_7">
      <!-- 70 - 79 -->
      <g style="fill:#262626;" transform="translate(601.845666 540.938131)scale(0.11 -0.11)">
       <defs>
        <path d="M 525 4666 
L 3525 4666 
L 3525 4397 
L 1831 0 
L 1172 0 
L 2766 4134 
L 525 4134 
L 525 4666 
z
" id="DejaVuSans-37" transform="scale(0.015625)"/>
       </defs>
       <use xlink:href="#DejaVuSans-37"/>
       <use x="63.623047" xlink:href="#DejaVuSans-30"/>
       <use x="127.246094" xlink:href="#DejaVuSans-20"/>
       <use x="159.033203" xlink:href="#DejaVuSans-2d"/>
       <use x="195.117188" xlink:href="#DejaVuSans-20"/>
       <use x="226.904297" xlink:href="#DejaVuSans-37"/>
       <use x="290.527344" xlink:href="#DejaVuSans-39"/>
      </g>
     </g>
    </g>
    <g id="xtick_8">
     <g id="line2d_8">
      <g>
       <use style="fill:#262626;stroke:#262626;stroke-width:1.25;" x="710.8945" xlink:href="#mb04ff14ba8" y="523.07985"/>
      </g>
     </g>
     <g id="text_8">
      <!-- 80 - 89 -->
      <g style="fill:#262626;" transform="translate(691.416766 540.938131)scale(0.11 -0.11)">
       <defs>
        <path d="M 2034 2216 
Q 1584 2216 1326 1975 
Q 1069 1734 1069 1313 
Q 1069 891 1326 650 
Q 1584 409 2034 409 
Q 2484 409 2743 651 
Q 3003 894 3003 1313 
Q 3003 1734 2745 1975 
Q 2488 2216 2034 2216 
z
M 1403 2484 
Q 997 2584 770 2862 
Q 544 3141 544 3541 
Q 544 4100 942 4425 
Q 1341 4750 2034 4750 
Q 2731 4750 3128 4425 
Q 3525 4100 3525 3541 
Q 3525 3141 3298 2862 
Q 3072 2584 2669 2484 
Q 3125 2378 3379 2068 
Q 3634 1759 3634 1313 
Q 3634 634 3220 271 
Q 2806 -91 2034 -91 
Q 1263 -91 848 271 
Q 434 634 434 1313 
Q 434 1759 690 2068 
Q 947 2378 1403 2484 
z
M 1172 3481 
Q 1172 3119 1398 2916 
Q 1625 2713 2034 2713 
Q 2441 2713 2670 2916 
Q 2900 3119 2900 3481 
Q 2900 3844 2670 4047 
Q 2441 4250 2034 4250 
Q 1625 4250 1398 4047 
Q 1172 3844 1172 3481 
z
" id="DejaVuSans-38" transform="scale(0.015625)"/>
       </defs>
       <use xlink:href="#DejaVuSans-38"/>
       <use x="63.623047" xlink:href="#DejaVuSans-30"/>
       <use x="127.246094" xlink:href="#DejaVuSans-20"/>
       <use x="159.033203" xlink:href="#DejaVuSans-2d"/>
       <use x="195.117188" xlink:href="#DejaVuSans-20"/>
       <use x="226.904297" xlink:href="#DejaVuSans-38"/>
       <use x="290.527344" xlink:href="#DejaVuSans-39"/>
      </g>
     </g>
    </g>
    <g id="xtick_9">
     <g id="line2d_9">
      <g>
       <use style="fill:#262626;stroke:#262626;stroke-width:1.25;" x="800.4656" xlink:href="#mb04ff14ba8" y="523.07985"/>
      </g>
     </g>
     <g id="text_9">
      <!-- 90+ -->
      <g style="fill:#262626;" transform="translate(788.858022 540.938131)scale(0.11 -0.11)">
       <defs>
        <path d="M 2944 4013 
L 2944 2272 
L 4684 2272 
L 4684 1741 
L 2944 1741 
L 2944 0 
L 2419 0 
L 2419 1741 
L 678 1741 
L 678 2272 
L 2419 2272 
L 2419 4013 
L 2944 4013 
z
" id="DejaVuSans-2b" transform="scale(0.015625)"/>
       </defs>
       <use xlink:href="#DejaVuSans-39"/>
       <use x="63.623047" xlink:href="#DejaVuSans-30"/>
       <use x="127.246094" xlink:href="#DejaVuSans-2b"/>
      </g>
     </g>
    </g>
    <g id="text_10">
     <!-- Възрастова група -->
     <g style="fill:#262626;" transform="translate(385.4512 556.343912)scale(0.12 -0.12)">
      <defs>
       <path d="M 1259 2228 
L 1259 519 
L 2272 519 
Q 2781 519 3026 730 
Q 3272 941 3272 1375 
Q 3272 1813 3026 2020 
Q 2781 2228 2272 2228 
L 1259 2228 
z
M 1259 4147 
L 1259 2741 
L 2194 2741 
Q 2656 2741 2882 2914 
Q 3109 3088 3109 3444 
Q 3109 3797 2882 3972 
Q 2656 4147 2194 4147 
L 1259 4147 
z
M 628 4666 
L 2241 4666 
Q 2963 4666 3353 4366 
Q 3744 4066 3744 3513 
Q 3744 3084 3544 2831 
Q 3344 2578 2956 2516 
Q 3422 2416 3680 2098 
Q 3938 1781 3938 1306 
Q 3938 681 3513 340 
Q 3088 0 2303 0 
L 628 0 
L 628 4666 
z
" id="DejaVuSans-412" transform="scale(0.015625)"/>
       <path d="M 2753 2072 
Q 3422 2072 3783 1817 
Q 4144 1563 4144 1038 
Q 4144 513 3783 256 
Q 3422 0 2753 0 
L 1328 0 
L 1328 3041 
L 194 3041 
L 194 3500 
L 1906 3500 
L 1906 2072 
L 2753 2072 
z
M 2728 1613 
L 1906 1613 
L 1906 459 
L 2728 459 
Q 3122 459 3326 607 
Q 3531 756 3531 1038 
Q 3531 1319 3326 1466 
Q 3122 1613 2728 1613 
z
" id="DejaVuSans-44a" transform="scale(0.015625)"/>
       <path d="M 2206 1888 
Q 2594 1813 2809 1584 
Q 3025 1356 3025 1019 
Q 3025 478 2622 193 
Q 2219 -91 1475 -91 
Q 1225 -91 961 -47 
Q 697 -3 416 84 
L 416 619 
Q 638 503 903 445 
Q 1169 388 1459 388 
Q 1931 388 2195 563 
Q 2459 738 2459 1019 
Q 2459 1294 2225 1461 
Q 1991 1628 1563 1628 
L 1100 1628 
L 1100 2103 
L 1584 2103 
Q 1947 2103 2158 2242 
Q 2369 2381 2369 2600 
Q 2369 2800 2151 2944 
Q 1934 3088 1563 3088 
Q 1341 3088 1089 3047 
Q 838 3006 534 2916 
L 534 3438 
Q 841 3513 1106 3550 
Q 1372 3588 1609 3588 
Q 2222 3588 2576 3342 
Q 2931 3097 2931 2656 
Q 2931 2366 2743 2164 
Q 2556 1963 2206 1888 
z
" id="DejaVuSans-437" transform="scale(0.015625)"/>
       <path d="M 1159 525 
L 1159 -1331 
L 581 -1331 
L 581 3500 
L 1159 3500 
L 1159 2969 
Q 1341 3281 1617 3432 
Q 1894 3584 2278 3584 
Q 2916 3584 3314 3078 
Q 3713 2572 3713 1747 
Q 3713 922 3314 415 
Q 2916 -91 2278 -91 
Q 1894 -91 1617 61 
Q 1341 213 1159 525 
z
M 3116 1747 
Q 3116 2381 2855 2742 
Q 2594 3103 2138 3103 
Q 1681 3103 1420 2742 
Q 1159 2381 1159 1747 
Q 1159 1113 1420 752 
Q 1681 391 2138 391 
Q 2594 391 2855 752 
Q 3116 1113 3116 1747 
z
" id="DejaVuSans-440" transform="scale(0.015625)"/>
       <path d="M 2194 1759 
Q 1497 1759 1228 1600 
Q 959 1441 959 1056 
Q 959 750 1161 570 
Q 1363 391 1709 391 
Q 2188 391 2477 730 
Q 2766 1069 2766 1631 
L 2766 1759 
L 2194 1759 
z
M 3341 1997 
L 3341 0 
L 2766 0 
L 2766 531 
Q 2569 213 2275 61 
Q 1981 -91 1556 -91 
Q 1019 -91 701 211 
Q 384 513 384 1019 
Q 384 1609 779 1909 
Q 1175 2209 1959 2209 
L 2766 2209 
L 2766 2266 
Q 2766 2663 2505 2880 
Q 2244 3097 1772 3097 
Q 1472 3097 1187 3025 
Q 903 2953 641 2809 
L 641 3341 
Q 956 3463 1253 3523 
Q 1550 3584 1831 3584 
Q 2591 3584 2966 3190 
Q 3341 2797 3341 1997 
z
" id="DejaVuSans-430" transform="scale(0.015625)"/>
       <path d="M 3122 3366 
L 3122 2828 
Q 2878 2963 2633 3030 
Q 2388 3097 2138 3097 
Q 1578 3097 1268 2742 
Q 959 2388 959 1747 
Q 959 1106 1268 751 
Q 1578 397 2138 397 
Q 2388 397 2633 464 
Q 2878 531 3122 666 
L 3122 134 
Q 2881 22 2623 -34 
Q 2366 -91 2075 -91 
Q 1284 -91 818 406 
Q 353 903 353 1747 
Q 353 2603 823 3093 
Q 1294 3584 2113 3584 
Q 2378 3584 2631 3529 
Q 2884 3475 3122 3366 
z
" id="DejaVuSans-441" transform="scale(0.015625)"/>
       <path d="M 188 3500 
L 3541 3500 
L 3541 3041 
L 2147 3041 
L 2147 0 
L 1581 0 
L 1581 3041 
L 188 3041 
L 188 3500 
z
" id="DejaVuSans-442" transform="scale(0.015625)"/>
       <path d="M 1959 3097 
Q 1497 3097 1228 2736 
Q 959 2375 959 1747 
Q 959 1119 1226 758 
Q 1494 397 1959 397 
Q 2419 397 2687 759 
Q 2956 1122 2956 1747 
Q 2956 2369 2687 2733 
Q 2419 3097 1959 3097 
z
M 1959 3584 
Q 2709 3584 3137 3096 
Q 3566 2609 3566 1747 
Q 3566 888 3137 398 
Q 2709 -91 1959 -91 
Q 1206 -91 779 398 
Q 353 888 353 1747 
Q 353 2609 779 3096 
Q 1206 3584 1959 3584 
z
" id="DejaVuSans-43e" transform="scale(0.015625)"/>
       <path d="M 1156 1613 
L 1156 459 
L 1975 459 
Q 2369 459 2575 607 
Q 2781 756 2781 1038 
Q 2781 1319 2575 1466 
Q 2369 1613 1975 1613 
L 1156 1613 
z
M 1156 3041 
L 1156 2072 
L 1913 2072 
Q 2238 2072 2444 2201 
Q 2650 2331 2650 2563 
Q 2650 2794 2444 2917 
Q 2238 3041 1913 3041 
L 1156 3041 
z
M 581 3500 
L 1950 3500 
Q 2566 3500 2897 3275 
Q 3228 3050 3228 2634 
Q 3228 2313 3059 2123 
Q 2891 1934 2559 1888 
Q 2956 1813 3175 1575 
Q 3394 1338 3394 981 
Q 3394 513 3033 256 
Q 2672 0 2003 0 
L 581 0 
L 581 3500 
z
" id="DejaVuSans-432" transform="scale(0.015625)"/>
       <path d="M 581 0 
L 581 3500 
L 3050 3500 
L 3050 3041 
L 1159 3041 
L 1159 0 
L 581 0 
z
" id="DejaVuSans-433" transform="scale(0.015625)"/>
       <path d="M 2059 -325 
Q 1816 -950 1584 -1140 
Q 1353 -1331 966 -1331 
L 506 -1331 
L 506 -850 
L 844 -850 
Q 1081 -850 1212 -737 
Q 1344 -625 1503 -206 
L 1606 56 
L 191 3500 
L 800 3500 
L 1894 763 
L 2988 3500 
L 3597 3500 
L 2059 -325 
z
" id="DejaVuSans-443" transform="scale(0.015625)"/>
       <path d="M 3603 3500 
L 3603 0 
L 3025 0 
L 3025 3041 
L 1159 3041 
L 1159 0 
L 581 0 
L 581 3500 
L 3603 3500 
z
" id="DejaVuSans-43f" transform="scale(0.015625)"/>
      </defs>
      <use xlink:href="#DejaVuSans-412"/>
      <use x="68.603516" xlink:href="#DejaVuSans-44a"/>
      <use x="139.257812" xlink:href="#DejaVuSans-437"/>
      <use x="192.431641" xlink:href="#DejaVuSans-440"/>
      <use x="255.908203" xlink:href="#DejaVuSans-430"/>
      <use x="317.1875" xlink:href="#DejaVuSans-441"/>
      <use x="372.167969" xlink:href="#DejaVuSans-442"/>
      <use x="430.419922" xlink:href="#DejaVuSans-43e"/>
      <use x="491.601562" xlink:href="#DejaVuSans-432"/>
      <use x="550.537109" xlink:href="#DejaVuSans-430"/>
      <use x="611.816406" xlink:href="#DejaVuSans-20"/>
      <use x="643.603516" xlink:href="#DejaVuSans-433"/>
      <use x="696.142578" xlink:href="#DejaVuSans-440"/>
      <use x="759.619141" xlink:href="#DejaVuSans-443"/>
      <use x="818.798828" xlink:href="#DejaVuSans-43f"/>
      <use x="884.179688" xlink:href="#DejaVuSans-430"/>
     </g>
    </g>
   </g>
   <g id="matplotlib.axis_2">
    <g id="ytick_1">
     <g id="line2d_10">
      <path clip-path="url(#p86cc4c0d67)" d="M 39.11125 523.07985 
L 845.25115 523.07985 
" style="fill:none;stroke:#cccccc;stroke-linecap:round;"/>
     </g>
     <g id="line2d_11">
      <defs>
       <path d="M 0 0 
L -6 0 
" id="m22dee90c22" style="stroke:#262626;stroke-width:1.25;"/>
      </defs>
      <g>
       <use style="fill:#262626;stroke:#262626;stroke-width:1.25;" x="39.11125" xlink:href="#m22dee90c22" y="523.07985"/>
      </g>
     </g>
     <g id="text_11">
      <!-- 0 -->
      <g style="fill:#262626;" transform="translate(22.6125 527.258991)scale(0.11 -0.11)">
       <use xlink:href="#DejaVuSans-30"/>
      </g>
     </g>
    </g>
    <g id="ytick_2">
     <g id="line2d_12">
      <path clip-path="url(#p86cc4c0d67)" d="M 39.11125 431.251391 
L 845.25115 431.251391 
" style="fill:none;stroke:#cccccc;stroke-linecap:round;"/>
     </g>
     <g id="line2d_13">
      <g>
       <use style="fill:#262626;stroke:#262626;stroke-width:1.25;" x="39.11125" xlink:href="#m22dee90c22" y="431.251391"/>
      </g>
     </g>
     <g id="text_12">
      <!-- 5 -->
      <g style="fill:#262626;" transform="translate(22.6125 435.430532)scale(0.11 -0.11)">
       <use xlink:href="#DejaVuSans-35"/>
      </g>
     </g>
    </g>
    <g id="ytick_3">
     <g id="line2d_14">
      <path clip-path="url(#p86cc4c0d67)" d="M 39.11125 339.422932 
L 845.25115 339.422932 
" style="fill:none;stroke:#cccccc;stroke-linecap:round;"/>
     </g>
     <g id="line2d_15">
      <g>
       <use style="fill:#262626;stroke:#262626;stroke-width:1.25;" x="39.11125" xlink:href="#m22dee90c22" y="339.422932"/>
      </g>
     </g>
     <g id="text_13">
      <!-- 10 -->
      <g style="fill:#262626;" transform="translate(15.61375 343.602073)scale(0.11 -0.11)">
       <use xlink:href="#DejaVuSans-31"/>
       <use x="63.623047" xlink:href="#DejaVuSans-30"/>
      </g>
     </g>
    </g>
    <g id="ytick_4">
     <g id="line2d_16">
      <path clip-path="url(#p86cc4c0d67)" d="M 39.11125 247.594473 
L 845.25115 247.594473 
" style="fill:none;stroke:#cccccc;stroke-linecap:round;"/>
     </g>
     <g id="line2d_17">
      <g>
       <use style="fill:#262626;stroke:#262626;stroke-width:1.25;" x="39.11125" xlink:href="#m22dee90c22" y="247.594473"/>
      </g>
     </g>
     <g id="text_14">
      <!-- 15 -->
      <g style="fill:#262626;" transform="translate(15.61375 251.773614)scale(0.11 -0.11)">
       <use xlink:href="#DejaVuSans-31"/>
       <use x="63.623047" xlink:href="#DejaVuSans-35"/>
      </g>
     </g>
    </g>
    <g id="ytick_5">
     <g id="line2d_18">
      <path clip-path="url(#p86cc4c0d67)" d="M 39.11125 155.766014 
L 845.25115 155.766014 
" style="fill:none;stroke:#cccccc;stroke-linecap:round;"/>
     </g>
     <g id="line2d_19">
      <g>
       <use style="fill:#262626;stroke:#262626;stroke-width:1.25;" x="39.11125" xlink:href="#m22dee90c22" y="155.766014"/>
      </g>
     </g>
     <g id="text_15">
      <!-- 20 -->
      <g style="fill:#262626;" transform="translate(15.61375 159.945155)scale(0.11 -0.11)">
       <use xlink:href="#DejaVuSans-32"/>
       <use x="63.623047" xlink:href="#DejaVuSans-30"/>
      </g>
     </g>
    </g>
    <g id="ytick_6">
     <g id="line2d_20">
      <path clip-path="url(#p86cc4c0d67)" d="M 39.11125 63.937555 
L 845.25115 63.937555 
" style="fill:none;stroke:#cccccc;stroke-linecap:round;"/>
     </g>
     <g id="line2d_21">
      <g>
       <use style="fill:#262626;stroke:#262626;stroke-width:1.25;" x="39.11125" xlink:href="#m22dee90c22" y="63.937555"/>
      </g>
     </g>
     <g id="text_16">
      <!-- 25 -->
      <g style="fill:#262626;" transform="translate(15.61375 68.116696)scale(0.11 -0.11)">
       <use xlink:href="#DejaVuSans-32"/>
       <use x="63.623047" xlink:href="#DejaVuSans-35"/>
      </g>
     </g>
    </g>
    <g id="text_17">
     <!-- Процент жертви -->
     <g style="fill:#262626;" transform="translate(9.118125 328.981487)rotate(-90)scale(0.12 -0.12)">
      <defs>
       <path d="M 4184 4666 
L 4184 0 
L 3553 0 
L 3553 4134 
L 1259 4134 
L 1259 0 
L 628 0 
L 628 4666 
L 4184 4666 
z
" id="DejaVuSans-41f" transform="scale(0.015625)"/>
       <path d="M 3603 0 
L 581 0 
L 581 3500 
L 1159 3500 
L 1159 459 
L 3025 459 
L 3025 3500 
L 3603 3500 
L 3603 459 
L 4063 459 
L 4063 -884 
L 3603 -884 
L 3603 0 
z
" id="DejaVuSans-446" transform="scale(0.015625)"/>
       <path d="M 3597 1894 
L 3597 1613 
L 953 1613 
Q 991 1019 1311 708 
Q 1631 397 2203 397 
Q 2534 397 2845 478 
Q 3156 559 3463 722 
L 3463 178 
Q 3153 47 2828 -22 
Q 2503 -91 2169 -91 
Q 1331 -91 842 396 
Q 353 884 353 1716 
Q 353 2575 817 3079 
Q 1281 3584 2069 3584 
Q 2775 3584 3186 3129 
Q 3597 2675 3597 1894 
z
M 3022 2063 
Q 3016 2534 2758 2815 
Q 2500 3097 2075 3097 
Q 1594 3097 1305 2825 
Q 1016 2553 972 2059 
L 3022 2063 
z
" id="DejaVuSans-435" transform="scale(0.015625)"/>
       <path d="M 581 3500 
L 1159 3500 
L 1159 2072 
L 3025 2072 
L 3025 3500 
L 3603 3500 
L 3603 0 
L 3025 0 
L 3025 1613 
L 1159 1613 
L 1159 0 
L 581 0 
L 581 3500 
z
" id="DejaVuSans-43d" transform="scale(0.015625)"/>
       <path d="M 2597 3500 
L 3169 3500 
L 3169 1856 
L 4697 3500 
L 5366 3500 
L 4109 2153 
L 5547 0 
L 4931 0 
L 3753 1769 
L 3169 1141 
L 3169 0 
L 2597 0 
L 2597 1141 
L 2013 1769 
L 834 0 
L 219 0 
L 1656 2153 
L 400 3500 
L 1069 3500 
L 2597 1856 
L 2597 3500 
z
" id="DejaVuSans-436" transform="scale(0.015625)"/>
       <path d="M 3578 3500 
L 3578 0 
L 3006 0 
L 3006 2809 
L 1319 0 
L 581 0 
L 581 3500 
L 1153 3500 
L 1153 697 
L 2838 3500 
L 3578 3500 
z
" id="DejaVuSans-438" transform="scale(0.015625)"/>
      </defs>
      <use xlink:href="#DejaVuSans-41f"/>
      <use x="75.195312" xlink:href="#DejaVuSans-440"/>
      <use x="138.671875" xlink:href="#DejaVuSans-43e"/>
      <use x="199.853516" xlink:href="#DejaVuSans-446"/>
      <use x="267.919922" xlink:href="#DejaVuSans-435"/>
      <use x="329.443359" xlink:href="#DejaVuSans-43d"/>
      <use x="394.824219" xlink:href="#DejaVuSans-442"/>
      <use x="453.076172" xlink:href="#DejaVuSans-20"/>
      <use x="484.863281" xlink:href="#DejaVuSans-436"/>
      <use x="574.951172" xlink:href="#DejaVuSans-435"/>
      <use x="636.474609" xlink:href="#DejaVuSans-440"/>
      <use x="699.951172" xlink:href="#DejaVuSans-442"/>
      <use x="758.203125" xlink:href="#DejaVuSans-432"/>
      <use x="817.138672" xlink:href="#DejaVuSans-438"/>
     </g>
    </g>
   </g>
   <g id="patch_3">
    <path clip-path="url(#p86cc4c0d67)" d="M 48.06836 523.07985 
L 119.72524 523.07985 
L 119.72524 521.977908 
L 48.06836 521.977908 
z
" style="fill:#df2020;opacity:0.6;stroke:#ffffff;stroke-linejoin:miter;"/>
   </g>
   <g id="patch_4">
    <path clip-path="url(#p86cc4c0d67)" d="M 137.63946 523.07985 
L 209.29634 523.07985 
L 209.29634 521.059624 
L 137.63946 521.059624 
z
" style="fill:#df2020;opacity:0.6;stroke:#ffffff;stroke-linejoin:miter;"/>
   </g>
   <g id="patch_5">
    <path clip-path="url(#p86cc4c0d67)" d="M 227.21056 523.07985 
L 298.86744 523.07985 
L 298.86744 517.937456 
L 227.21056 517.937456 
z
" style="fill:#df2020;opacity:0.6;stroke:#ffffff;stroke-linejoin:miter;"/>
   </g>
   <g id="patch_6">
    <path clip-path="url(#p86cc4c0d67)" d="M 316.78166 523.07985 
L 388.43854 523.07985 
L 388.43854 508.75461 
L 316.78166 508.75461 
z
" style="fill:#df2020;opacity:0.6;stroke:#ffffff;stroke-linejoin:miter;"/>
   </g>
   <g id="patch_7">
    <path clip-path="url(#p86cc4c0d67)" d="M 406.35276 523.07985 
L 478.00964 523.07985 
L 478.00964 485.062868 
L 406.35276 485.062868 
z
" style="fill:#df2020;opacity:0.6;stroke:#ffffff;stroke-linejoin:miter;"/>
   </g>
   <g id="patch_8">
    <path clip-path="url(#p86cc4c0d67)" d="M 495.92386 523.07985 
L 567.58074 523.07985 
L 567.58074 416.742495 
L 495.92386 416.742495 
z
" style="fill:#df2020;opacity:0.6;stroke:#ffffff;stroke-linejoin:miter;"/>
   </g>
   <g id="patch_9">
    <path clip-path="url(#p86cc4c0d67)" d="M 585.49496 523.07985 
L 657.15184 523.07985 
L 657.15184 298.283782 
L 585.49496 298.283782 
z
" style="fill:#df2020;opacity:0.6;stroke:#ffffff;stroke-linejoin:miter;"/>
   </g>
   <g id="patch_10">
    <path clip-path="url(#p86cc4c0d67)" d="M 675.06606 523.07985 
L 746.72294 523.07985 
L 746.72294 146.399511 
L 675.06606 146.399511 
z
" style="fill:#df2020;opacity:0.6;stroke:#ffffff;stroke-linejoin:miter;"/>
   </g>
   <g id="patch_11">
    <path clip-path="url(#p86cc4c0d67)" d="M 764.63716 523.07985 
L 836.29404 523.07985 
L 836.29404 52.550826 
L 764.63716 52.550826 
z
" style="fill:#df2020;opacity:0.6;stroke:#ffffff;stroke-linejoin:miter;"/>
   </g>
   <g id="line2d_22">
    <path clip-path="url(#p86cc4c0d67)" style="fill:none;stroke:#424242;stroke-linecap:round;stroke-width:2.7;"/>
   </g>
   <g id="line2d_23">
    <path clip-path="url(#p86cc4c0d67)" style="fill:none;stroke:#424242;stroke-linecap:round;stroke-width:2.7;"/>
   </g>
   <g id="line2d_24">
    <path clip-path="url(#p86cc4c0d67)" style="fill:none;stroke:#424242;stroke-linecap:round;stroke-width:2.7;"/>
   </g>
   <g id="line2d_25">
    <path clip-path="url(#p86cc4c0d67)" style="fill:none;stroke:#424242;stroke-linecap:round;stroke-width:2.7;"/>
   </g>
   <g id="line2d_26">
    <path clip-path="url(#p86cc4c0d67)" style="fill:none;stroke:#424242;stroke-linecap:round;stroke-width:2.7;"/>
   </g>
   <g id="line2d_27">
    <path clip-path="url(#p86cc4c0d67)" style="fill:none;stroke:#424242;stroke-linecap:round;stroke-width:2.7;"/>
   </g>
   <g id="line2d_28">
    <path clip-path="url(#p86cc4c0d67)" style="fill:none;stroke:#424242;stroke-linecap:round;stroke-width:2.7;"/>
   </g>
   <g id="line2d_29">
    <path clip-path="url(#p86cc4c0d67)" style="fill:none;stroke:#424242;stroke-linecap:round;stroke-width:2.7;"/>
   </g>
   <g id="line2d_30">
    <path clip-path="url(#p86cc4c0d67)" style="fill:none;stroke:#424242;stroke-linecap:round;stroke-width:2.7;"/>
   </g>
   <g id="patch_12">
    <path d="M 39.11125 523.07985 
L 39.11125 29.024375 
" style="fill:none;stroke:#262626;stroke-linecap:square;stroke-linejoin:miter;stroke-width:1.25;"/>
   </g>
   <g id="patch_13">
    <path d="M 845.25115 523.07985 
L 845.25115 29.024375 
" style="fill:none;stroke:#262626;stroke-linecap:square;stroke-linejoin:miter;stroke-width:1.25;"/>
   </g>
   <g id="patch_14">
    <path d="M 39.11125 523.07985 
L 845.25115 523.07985 
" style="fill:none;stroke:#262626;stroke-linecap:square;stroke-linejoin:miter;stroke-width:1.25;"/>
   </g>
   <g id="patch_15">
    <path d="M 39.11125 29.024375 
L 845.25115 29.024375 
" style="fill:none;stroke:#262626;stroke-linecap:square;stroke-linejoin:miter;stroke-width:1.25;"/>
   </g>
   <g id="text_18">
    <!-- 0.06 -->
    <g style="fill:#262626;" transform="translate(70.537425 519.482283)scale(0.12 -0.12)">
     <defs>
      <path d="M 684 794 
L 1344 794 
L 1344 0 
L 684 0 
L 684 794 
z
" id="DejaVuSans-2e" transform="scale(0.015625)"/>
     </defs>
     <use xlink:href="#DejaVuSans-30"/>
     <use x="63.623047" xlink:href="#DejaVuSans-2e"/>
     <use x="95.410156" xlink:href="#DejaVuSans-30"/>
     <use x="159.033203" xlink:href="#DejaVuSans-36"/>
    </g>
   </g>
   <g id="text_19">
    <!-- 0.11 -->
    <g style="fill:#262626;" transform="translate(160.108525 518.563999)scale(0.12 -0.12)">
     <use xlink:href="#DejaVuSans-30"/>
     <use x="63.623047" xlink:href="#DejaVuSans-2e"/>
     <use x="95.410156" xlink:href="#DejaVuSans-31"/>
     <use x="159.033203" xlink:href="#DejaVuSans-31"/>
    </g>
   </g>
   <g id="text_20">
    <!-- 0.28 -->
    <g style="fill:#262626;" transform="translate(249.679625 515.441831)scale(0.12 -0.12)">
     <use xlink:href="#DejaVuSans-30"/>
     <use x="63.623047" xlink:href="#DejaVuSans-2e"/>
     <use x="95.410156" xlink:href="#DejaVuSans-32"/>
     <use x="159.033203" xlink:href="#DejaVuSans-38"/>
    </g>
   </g>
   <g id="text_21">
    <!-- 0.78 -->
    <g style="fill:#262626;" transform="translate(339.250725 506.258985)scale(0.12 -0.12)">
     <use xlink:href="#DejaVuSans-30"/>
     <use x="63.623047" xlink:href="#DejaVuSans-2e"/>
     <use x="95.410156" xlink:href="#DejaVuSans-37"/>
     <use x="159.033203" xlink:href="#DejaVuSans-38"/>
    </g>
   </g>
   <g id="text_22">
    <!-- 2.07 -->
    <g style="fill:#262626;" transform="translate(428.821825 482.567243)scale(0.12 -0.12)">
     <use xlink:href="#DejaVuSans-32"/>
     <use x="63.623047" xlink:href="#DejaVuSans-2e"/>
     <use x="95.410156" xlink:href="#DejaVuSans-30"/>
     <use x="159.033203" xlink:href="#DejaVuSans-37"/>
    </g>
   </g>
   <g id="text_23">
    <!-- 5.79 -->
    <g style="fill:#262626;" transform="translate(518.392925 414.24687)scale(0.12 -0.12)">
     <use xlink:href="#DejaVuSans-35"/>
     <use x="63.623047" xlink:href="#DejaVuSans-2e"/>
     <use x="95.410156" xlink:href="#DejaVuSans-37"/>
     <use x="159.033203" xlink:href="#DejaVuSans-39"/>
    </g>
   </g>
   <g id="text_24">
    <!-- 12.24 -->
    <g style="fill:#262626;" transform="translate(604.146525 295.788157)scale(0.12 -0.12)">
     <use xlink:href="#DejaVuSans-31"/>
     <use x="63.623047" xlink:href="#DejaVuSans-32"/>
     <use x="127.246094" xlink:href="#DejaVuSans-2e"/>
     <use x="159.033203" xlink:href="#DejaVuSans-32"/>
     <use x="222.65625" xlink:href="#DejaVuSans-34"/>
    </g>
   </g>
   <g id="text_25">
    <!-- 20.51 -->
    <g style="fill:#262626;" transform="translate(693.717625 143.903886)scale(0.12 -0.12)">
     <use xlink:href="#DejaVuSans-32"/>
     <use x="63.623047" xlink:href="#DejaVuSans-30"/>
     <use x="127.246094" xlink:href="#DejaVuSans-2e"/>
     <use x="159.033203" xlink:href="#DejaVuSans-35"/>
     <use x="222.65625" xlink:href="#DejaVuSans-31"/>
    </g>
   </g>
   <g id="text_26">
    <!-- 25.62 -->
    <g style="fill:#262626;" transform="translate(783.288725 50.055201)scale(0.12 -0.12)">
     <use xlink:href="#DejaVuSans-32"/>
     <use x="63.623047" xlink:href="#DejaVuSans-35"/>
     <use x="127.246094" xlink:href="#DejaVuSans-2e"/>
     <use x="159.033203" xlink:href="#DejaVuSans-36"/>
     <use x="222.65625" xlink:href="#DejaVuSans-32"/>
    </g>
   </g>
   <g id="text_27">
    <!-- Последна актуализация: 07.11.2021 -->
    <g style="fill:#262626;" transform="translate(346.249276 21.613543)scale(0.09996 -0.09996)">
     <defs>
      <path d="M 238 0 
L 238 478 
Q 806 566 981 959 
Q 1194 1513 1194 2928 
L 1194 3500 
L 3559 3500 
L 3559 0 
L 2984 0 
L 2984 3041 
L 1769 3041 
L 1769 2694 
Q 1769 1344 1494 738 
Q 1200 91 238 0 
z
" id="DejaVuSans-43b" transform="scale(0.015625)"/>
      <path d="M 1384 459 
L 3053 459 
L 3053 3041 
L 1844 3041 
L 1844 2603 
Q 1844 1316 1475 628 
L 1384 459 
z
M 550 459 
Q 834 584 959 850 
Q 1266 1509 1266 2838 
L 1266 3500 
L 3631 3500 
L 3631 459 
L 4091 459 
L 4091 -884 
L 3631 -884 
L 3631 0 
L 794 0 
L 794 -884 
L 334 -884 
L 334 459 
L 550 459 
z
" id="DejaVuSans-434" transform="scale(0.015625)"/>
      <path d="M 581 3500 
L 1153 3500 
L 1153 1856 
L 2775 3500 
L 3481 3500 
L 2144 2147 
L 3653 0 
L 3009 0 
L 1769 1766 
L 1153 1141 
L 1153 0 
L 581 0 
L 581 3500 
z
" id="DejaVuSans-43a" transform="scale(0.015625)"/>
      <path d="M 1181 2491 
Q 1181 2231 1381 2084 
Q 1581 1938 1953 1938 
L 2728 1938 
L 2728 3041 
L 1953 3041 
Q 1581 3041 1381 2897 
Q 1181 2753 1181 2491 
z
M 363 0 
L 1431 1534 
Q 1069 1616 828 1830 
Q 588 2044 588 2491 
Q 588 2997 923 3248 
Q 1259 3500 1938 3500 
L 3306 3500 
L 3306 0 
L 2728 0 
L 2728 1478 
L 2013 1478 
L 981 0 
L 363 0 
z
" id="DejaVuSans-44f" transform="scale(0.015625)"/>
      <path d="M 750 794 
L 1409 794 
L 1409 0 
L 750 0 
L 750 794 
z
M 750 3309 
L 1409 3309 
L 1409 2516 
L 750 2516 
L 750 3309 
z
" id="DejaVuSans-3a" transform="scale(0.015625)"/>
     </defs>
     <use xlink:href="#DejaVuSans-41f"/>
     <use x="75.195312" xlink:href="#DejaVuSans-43e"/>
     <use x="136.376953" xlink:href="#DejaVuSans-441"/>
     <use x="191.357422" xlink:href="#DejaVuSans-43b"/>
     <use x="255.273438" xlink:href="#DejaVuSans-435"/>
     <use x="316.796875" xlink:href="#DejaVuSans-434"/>
     <use x="385.9375" xlink:href="#DejaVuSans-43d"/>
     <use x="451.318359" xlink:href="#DejaVuSans-430"/>
     <use x="512.597656" xlink:href="#DejaVuSans-20"/>
     <use x="544.384766" xlink:href="#DejaVuSans-430"/>
     <use x="605.664062" xlink:href="#DejaVuSans-43a"/>
     <use x="666.064453" xlink:href="#DejaVuSans-442"/>
     <use x="724.316406" xlink:href="#DejaVuSans-443"/>
     <use x="783.496094" xlink:href="#DejaVuSans-430"/>
     <use x="844.775391" xlink:href="#DejaVuSans-43b"/>
     <use x="908.691406" xlink:href="#DejaVuSans-438"/>
     <use x="973.681641" xlink:href="#DejaVuSans-437"/>
     <use x="1026.855469" xlink:href="#DejaVuSans-430"/>
     <use x="1088.134766" xlink:href="#DejaVuSans-446"/>
     <use x="1156.201172" xlink:href="#DejaVuSans-438"/>
     <use x="1221.191406" xlink:href="#DejaVuSans-44f"/>
     <use x="1281.347656" xlink:href="#DejaVuSans-3a"/>
     <use x="1315.039062" xlink:href="#DejaVuSans-20"/>
     <use x="1346.826172" xlink:href="#DejaVuSans-30"/>
     <use x="1410.449219" xlink:href="#DejaVuSans-37"/>
     <use x="1474.072266" xlink:href="#DejaVuSans-2e"/>
     <use x="1505.859375" xlink:href="#DejaVuSans-31"/>
     <use x="1569.482422" xlink:href="#DejaVuSans-31"/>
     <use x="1633.105469" xlink:href="#DejaVuSans-2e"/>
     <use x="1664.892578" xlink:href="#DejaVuSans-32"/>
     <use x="1728.515625" xlink:href="#DejaVuSans-30"/>
     <use x="1792.138672" xlink:href="#DejaVuSans-32"/>
     <use x="1855.761719" xlink:href="#DejaVuSans-31"/>
    </g>
   </g>
   <g id="text_28">
    <!-- Процент на жертвите от неваксинираните заразени по възрастови групи -->
    <g style="fill:#262626;" transform="translate(187.219637 9.024375)scale(0.12 -0.12)">
     <defs>
      <path d="M 4769 4666 
L 4769 0 
L 3566 0 
L 3566 3756 
L 1791 3756 
L 1791 0 
L 588 0 
L 588 4666 
L 4769 4666 
z
" id="DejaVuSans-Bold-41f" transform="scale(0.015625)"/>
      <path d="M 1656 506 
L 1656 -1331 
L 538 -1331 
L 538 3500 
L 1656 3500 
L 1656 2988 
Q 1888 3294 2169 3439 
Q 2450 3584 2816 3584 
Q 3463 3584 3878 3070 
Q 4294 2556 4294 1747 
Q 4294 938 3878 423 
Q 3463 -91 2816 -91 
Q 2450 -91 2169 54 
Q 1888 200 1656 506 
z
M 2400 2772 
Q 2041 2772 1848 2508 
Q 1656 2244 1656 1747 
Q 1656 1250 1848 986 
Q 2041 722 2400 722 
Q 2759 722 2948 984 
Q 3138 1247 3138 1747 
Q 3138 2247 2948 2509 
Q 2759 2772 2400 2772 
z
" id="DejaVuSans-Bold-440" transform="scale(0.015625)"/>
      <path d="M 2203 2784 
Q 1831 2784 1636 2517 
Q 1441 2250 1441 1747 
Q 1441 1244 1636 976 
Q 1831 709 2203 709 
Q 2569 709 2762 976 
Q 2956 1244 2956 1747 
Q 2956 2250 2762 2517 
Q 2569 2784 2203 2784 
z
M 2203 3584 
Q 3106 3584 3614 3096 
Q 4122 2609 4122 1747 
Q 4122 884 3614 396 
Q 3106 -91 2203 -91 
Q 1297 -91 786 396 
Q 275 884 275 1747 
Q 275 2609 786 3096 
Q 1297 3584 2203 3584 
z
" id="DejaVuSans-Bold-43e" transform="scale(0.015625)"/>
      <path d="M 3666 -884 
L 3666 0 
L 538 0 
L 538 3500 
L 1656 3500 
L 1656 800 
L 2766 800 
L 2766 3500 
L 3884 3500 
L 3884 800 
L 4466 800 
L 4466 -884 
L 3666 -884 
z
" id="DejaVuSans-Bold-446" transform="scale(0.015625)"/>
      <path d="M 4031 1759 
L 4031 1441 
L 1416 1441 
Q 1456 1047 1700 850 
Q 1944 653 2381 653 
Q 2734 653 3104 758 
Q 3475 863 3866 1075 
L 3866 213 
Q 3469 63 3072 -14 
Q 2675 -91 2278 -91 
Q 1328 -91 801 392 
Q 275 875 275 1747 
Q 275 2603 792 3093 
Q 1309 3584 2216 3584 
Q 3041 3584 3536 3087 
Q 4031 2591 4031 1759 
z
M 2881 2131 
Q 2881 2450 2695 2645 
Q 2509 2841 2209 2841 
Q 1884 2841 1681 2658 
Q 1478 2475 1428 2131 
L 2881 2131 
z
" id="DejaVuSans-Bold-435" transform="scale(0.015625)"/>
      <path d="M 538 3500 
L 1656 3500 
L 1656 2169 
L 2766 2169 
L 2766 3500 
L 3884 3500 
L 3884 0 
L 2766 0 
L 2766 1478 
L 1656 1478 
L 1656 0 
L 538 0 
L 538 3500 
z
" id="DejaVuSans-Bold-43d" transform="scale(0.015625)"/>
      <path d="M 25 3500 
L 3681 3500 
L 3681 2809 
L 2413 2809 
L 2413 0 
L 1297 0 
L 1297 2809 
L 25 2809 
L 25 3500 
z
" id="DejaVuSans-Bold-442" transform="scale(0.015625)"/>
      <path id="DejaVuSans-Bold-20" transform="scale(0.015625)"/>
      <path d="M 2106 1575 
Q 1756 1575 1579 1456 
Q 1403 1338 1403 1106 
Q 1403 894 1545 773 
Q 1688 653 1941 653 
Q 2256 653 2472 879 
Q 2688 1106 2688 1447 
L 2688 1575 
L 2106 1575 
z
M 3816 1997 
L 3816 0 
L 2688 0 
L 2688 519 
Q 2463 200 2181 54 
Q 1900 -91 1497 -91 
Q 953 -91 614 226 
Q 275 544 275 1050 
Q 275 1666 698 1953 
Q 1122 2241 2028 2241 
L 2688 2241 
L 2688 2328 
Q 2688 2594 2478 2717 
Q 2269 2841 1825 2841 
Q 1466 2841 1156 2769 
Q 847 2697 581 2553 
L 581 3406 
Q 941 3494 1303 3539 
Q 1666 3584 2028 3584 
Q 2975 3584 3395 3211 
Q 3816 2838 3816 1997 
z
" id="DejaVuSans-Bold-430" transform="scale(0.015625)"/>
      <path d="M 94 0 
L 1678 2078 
L 216 3500 
L 1441 3500 
L 2625 2347 
L 2625 3500 
L 3744 3500 
L 3744 2347 
L 4928 3500 
L 6153 3500 
L 4691 2078 
L 6275 0 
L 5119 0 
L 4025 1431 
L 3744 1159 
L 3744 0 
L 2625 0 
L 2625 1159 
L 2344 1431 
L 1250 0 
L 94 0 
z
" id="DejaVuSans-Bold-436" transform="scale(0.015625)"/>
      <path d="M 2184 2181 
Q 2378 2181 2478 2261 
Q 2578 2341 2578 2497 
Q 2578 2653 2478 2731 
Q 2378 2809 2184 2809 
L 1656 2809 
L 1656 2181 
L 2184 2181 
z
M 2222 700 
Q 2469 700 2594 798 
Q 2719 897 2719 1094 
Q 2719 1288 2594 1384 
Q 2469 1481 2222 1481 
L 1656 1481 
L 1656 700 
L 2222 700 
z
M 538 3500 
L 2141 3500 
Q 2919 3500 3267 3279 
Q 3616 3059 3616 2575 
Q 3616 2319 3487 2139 
Q 3359 1959 3119 1872 
Q 3428 1788 3598 1561 
Q 3769 1334 3769 1003 
Q 3769 497 3403 248 
Q 3038 0 2294 0 
L 538 0 
L 538 3500 
z
" id="DejaVuSans-Bold-432" transform="scale(0.015625)"/>
      <path d="M 3947 3500 
L 3947 0 
L 2828 0 
L 2828 1863 
L 1700 0 
L 538 0 
L 538 3500 
L 1656 3500 
L 1656 1638 
L 2784 3500 
L 3947 3500 
z
" id="DejaVuSans-Bold-438" transform="scale(0.015625)"/>
      <path d="M 538 3500 
L 1656 3500 
L 1656 2316 
L 2903 3500 
L 4128 3500 
L 2634 2078 
L 4250 0 
L 3094 0 
L 1972 1447 
L 1656 1147 
L 1656 0 
L 538 0 
L 538 3500 
z
" id="DejaVuSans-Bold-43a" transform="scale(0.015625)"/>
      <path d="M 3366 3391 
L 3366 2478 
Q 3138 2634 2908 2709 
Q 2678 2784 2431 2784 
Q 1963 2784 1702 2511 
Q 1441 2238 1441 1747 
Q 1441 1256 1702 982 
Q 1963 709 2431 709 
Q 2694 709 2930 787 
Q 3166 866 3366 1019 
L 3366 103 
Q 3103 6 2833 -42 
Q 2563 -91 2291 -91 
Q 1344 -91 809 395 
Q 275 881 275 1747 
Q 275 2613 809 3098 
Q 1344 3584 2291 3584 
Q 2566 3584 2833 3536 
Q 3100 3488 3366 3391 
z
" id="DejaVuSans-Bold-441" transform="scale(0.015625)"/>
      <path d="M 900 2181 
L 1413 2181 
Q 1872 2181 2039 2281 
Q 2206 2381 2206 2519 
Q 2206 2841 1469 2841 
Q 853 2841 472 2625 
L 472 3434 
Q 1041 3584 1713 3584 
Q 2500 3584 2862 3361 
Q 3225 3138 3225 2666 
Q 3225 2047 2541 1888 
Q 3313 1697 3313 994 
Q 3313 453 2888 181 
Q 2463 -91 1553 -91 
Q 875 -91 313 84 
L 313 947 
Q 1013 653 1428 653 
Q 1884 653 2089 776 
Q 2294 900 2294 1056 
Q 2294 1491 1394 1491 
L 900 1491 
L 900 2181 
z
" id="DejaVuSans-Bold-437" transform="scale(0.015625)"/>
      <path d="M 3884 3500 
L 3884 0 
L 2766 0 
L 2766 2700 
L 1656 2700 
L 1656 0 
L 538 0 
L 538 3500 
L 3884 3500 
z
" id="DejaVuSans-Bold-43f" transform="scale(0.015625)"/>
      <path d="M 3009 700 
Q 3256 700 3381 798 
Q 3506 897 3506 1094 
Q 3506 1288 3382 1384 
Q 3259 1481 3009 1481 
L 2444 1481 
L 2444 700 
L 3009 700 
z
M 1325 0 
L 1325 2809 
L 125 2809 
L 125 3500 
L 2444 3500 
L 2444 2172 
L 3078 2172 
Q 3788 2172 4170 1911 
Q 4553 1650 4553 1081 
Q 4553 513 4167 256 
Q 3781 0 3078 0 
L 1325 0 
z
" id="DejaVuSans-Bold-44a" transform="scale(0.015625)"/>
      <path d="M 538 0 
L 538 3500 
L 3191 3500 
L 3191 2809 
L 1656 2809 
L 1656 0 
L 538 0 
z
" id="DejaVuSans-Bold-433" transform="scale(0.015625)"/>
      <path d="M 78 3500 
L 1197 3500 
L 2138 1125 
L 2938 3500 
L 4056 3500 
L 2584 -331 
Q 2363 -916 2067 -1148 
Q 1772 -1381 1288 -1381 
L 641 -1381 
L 641 -647 
L 991 -647 
Q 1275 -647 1404 -556 
Q 1534 -466 1606 -231 
L 1638 -134 
L 78 3500 
z
" id="DejaVuSans-Bold-443" transform="scale(0.015625)"/>
     </defs>
     <use xlink:href="#DejaVuSans-Bold-41f"/>
     <use x="83.691406" xlink:href="#DejaVuSans-Bold-440"/>
     <use x="155.273438" xlink:href="#DejaVuSans-Bold-43e"/>
     <use x="223.974609" xlink:href="#DejaVuSans-Bold-446"/>
     <use x="298.095703" xlink:href="#DejaVuSans-Bold-435"/>
     <use x="365.917969" xlink:href="#DejaVuSans-Bold-43d"/>
     <use x="435.009766" xlink:href="#DejaVuSans-Bold-442"/>
     <use x="492.96875" xlink:href="#DejaVuSans-Bold-20"/>
     <use x="527.783203" xlink:href="#DejaVuSans-Bold-43d"/>
     <use x="596.875" xlink:href="#DejaVuSans-Bold-430"/>
     <use x="664.355469" xlink:href="#DejaVuSans-Bold-20"/>
     <use x="699.169922" xlink:href="#DejaVuSans-Bold-436"/>
     <use x="798.681641" xlink:href="#DejaVuSans-Bold-435"/>
     <use x="866.503906" xlink:href="#DejaVuSans-Bold-440"/>
     <use x="938.085938" xlink:href="#DejaVuSans-Bold-442"/>
     <use x="996.044922" xlink:href="#DejaVuSans-Bold-432"/>
     <use x="1059.326172" xlink:href="#DejaVuSans-Bold-438"/>
     <use x="1129.394531" xlink:href="#DejaVuSans-Bold-442"/>
     <use x="1187.353516" xlink:href="#DejaVuSans-Bold-435"/>
     <use x="1255.175781" xlink:href="#DejaVuSans-Bold-20"/>
     <use x="1289.990234" xlink:href="#DejaVuSans-Bold-43e"/>
     <use x="1358.691406" xlink:href="#DejaVuSans-Bold-442"/>
     <use x="1416.650391" xlink:href="#DejaVuSans-Bold-20"/>
     <use x="1451.464844" xlink:href="#DejaVuSans-Bold-43d"/>
     <use x="1520.556641" xlink:href="#DejaVuSans-Bold-435"/>
     <use x="1588.378906" xlink:href="#DejaVuSans-Bold-432"/>
     <use x="1651.660156" xlink:href="#DejaVuSans-Bold-430"/>
     <use x="1719.140625" xlink:href="#DejaVuSans-Bold-43a"/>
     <use x="1787.011719" xlink:href="#DejaVuSans-Bold-441"/>
     <use x="1846.289062" xlink:href="#DejaVuSans-Bold-438"/>
     <use x="1916.357422" xlink:href="#DejaVuSans-Bold-43d"/>
     <use x="1985.449219" xlink:href="#DejaVuSans-Bold-438"/>
     <use x="2055.517578" xlink:href="#DejaVuSans-Bold-440"/>
     <use x="2127.099609" xlink:href="#DejaVuSans-Bold-430"/>
     <use x="2194.580078" xlink:href="#DejaVuSans-Bold-43d"/>
     <use x="2263.671875" xlink:href="#DejaVuSans-Bold-438"/>
     <use x="2333.740234" xlink:href="#DejaVuSans-Bold-442"/>
     <use x="2391.699219" xlink:href="#DejaVuSans-Bold-435"/>
     <use x="2459.521484" xlink:href="#DejaVuSans-Bold-20"/>
     <use x="2494.335938" xlink:href="#DejaVuSans-Bold-437"/>
     <use x="2552.441406" xlink:href="#DejaVuSans-Bold-430"/>
     <use x="2619.921875" xlink:href="#DejaVuSans-Bold-440"/>
     <use x="2691.503906" xlink:href="#DejaVuSans-Bold-430"/>
     <use x="2758.984375" xlink:href="#DejaVuSans-Bold-437"/>
     <use x="2817.089844" xlink:href="#DejaVuSans-Bold-435"/>
     <use x="2884.912109" xlink:href="#DejaVuSans-Bold-43d"/>
     <use x="2954.003906" xlink:href="#DejaVuSans-Bold-438"/>
     <use x="3024.072266" xlink:href="#DejaVuSans-Bold-20"/>
     <use x="3058.886719" xlink:href="#DejaVuSans-Bold-43f"/>
     <use x="3127.978516" xlink:href="#DejaVuSans-Bold-43e"/>
     <use x="3196.679688" xlink:href="#DejaVuSans-Bold-20"/>
     <use x="3231.494141" xlink:href="#DejaVuSans-Bold-432"/>
     <use x="3294.775391" xlink:href="#DejaVuSans-Bold-44a"/>
     <use x="3369.921875" xlink:href="#DejaVuSans-Bold-437"/>
     <use x="3428.027344" xlink:href="#DejaVuSans-Bold-440"/>
     <use x="3499.609375" xlink:href="#DejaVuSans-Bold-430"/>
     <use x="3567.089844" xlink:href="#DejaVuSans-Bold-441"/>
     <use x="3626.367188" xlink:href="#DejaVuSans-Bold-442"/>
     <use x="3684.326172" xlink:href="#DejaVuSans-Bold-43e"/>
     <use x="3753.027344" xlink:href="#DejaVuSans-Bold-432"/>
     <use x="3816.308594" xlink:href="#DejaVuSans-Bold-438"/>
     <use x="3886.376953" xlink:href="#DejaVuSans-Bold-20"/>
     <use x="3921.191406" xlink:href="#DejaVuSans-Bold-433"/>
     <use x="3973.4375" xlink:href="#DejaVuSans-Bold-440"/>
     <use x="4045.019531" xlink:href="#DejaVuSans-Bold-443"/>
     <use x="4110.205078" xlink:href="#DejaVuSans-Bold-43f"/>
     <use x="4179.296875" xlink:href="#DejaVuSans-Bold-438"/>
    </g>
   </g>
  </g>
 </g>
 <defs>
  <clipPath id="p86cc4c0d67">
   <rect height="494.055475" width="806.1399" x="39.11125" y="29.024375"/>
  </clipPath>
 </defs>
</svg>
