<?xml version="1.0" encoding="utf-8" standalone="no"?>
<!DOCTYPE svg PUBLIC "-//W3C//DTD SVG 1.1//EN"
  "http://www.w3.org/Graphics/SVG/1.1/DTD/svg11.dtd">
<svg xmlns:xlink="http://www.w3.org/1999/xlink" width="836.91875pt" height="547.897188pt" viewBox="0 0 836.91875 547.897188" xmlns="http://www.w3.org/2000/svg" version="1.1">
 <metadata>
  <rdf:RDF xmlns:dc="http://purl.org/dc/elements/1.1/" xmlns:cc="http://creativecommons.org/ns#" xmlns:rdf="http://www.w3.org/1999/02/22-rdf-syntax-ns#">
   <cc:Work>
    <dc:type rdf:resource="http://purl.org/dc/dcmitype/StillImage"/>
    <dc:date>2022-06-16T01:43:46.136690</dc:date>
    <dc:format>image/svg+xml</dc:format>
    <dc:creator>
     <cc:Agent>
      <dc:title>Matplotlib v3.5.1, https://matplotlib.org/</dc:title>
     </cc:Agent>
    </dc:creator>
   </cc:Work>
  </rdf:RDF>
 </metadata>
 <defs>
  <style type="text/css">*{stroke-linejoin: round; stroke-linecap: butt}</style>
 </defs>
 <g id="figure_1">
  <g id="patch_1">
   <path d="M 0 547.897188 
L 836.91875 547.897188 
L 836.91875 0 
L 0 0 
L 0 547.897188 
z
" style="fill: none"/>
  </g>
  <g id="axes_1">
   <g id="patch_2">
    <path d="M 53.10875 512.1375 
L 836.91875 512.1375 
L 836.91875 29.51 
L 53.10875 29.51 
L 53.10875 512.1375 
z
" style="fill: none"/>
   </g>
   <g id="matplotlib.axis_1">
    <g id="xtick_1">
     <g id="line2d_1">
      <defs>
       <path id="me98701d430" d="M 0 0 
L 0 6 
" style="stroke: #262626; stroke-width: 1.25"/>
      </defs>
      <g>
       <use xlink:href="#me98701d430" x="88.736477" y="512.1375" style="fill: #262626; stroke: #262626; stroke-width: 1.25"/>
      </g>
     </g>
     <g id="text_1">
      <!-- 12 - 14 -->
      <g style="fill: #262626" transform="translate(69.258743 529.995781)scale(0.11 -0.11)">
       <defs>
        <path id="DejaVuSans-31" d="M 794 531 
L 1825 531 
L 1825 4091 
L 703 3866 
L 703 4441 
L 1819 4666 
L 2450 4666 
L 2450 531 
L 3481 531 
L 3481 0 
L 794 0 
L 794 531 
z
" transform="scale(0.015625)"/>
        <path id="DejaVuSans-32" d="M 1228 531 
L 3431 531 
L 3431 0 
L 469 0 
L 469 531 
Q 828 903 1448 1529 
Q 2069 2156 2228 2338 
Q 2531 2678 2651 2914 
Q 2772 3150 2772 3378 
Q 2772 3750 2511 3984 
Q 2250 4219 1831 4219 
Q 1534 4219 1204 4116 
Q 875 4013 500 3803 
L 500 4441 
Q 881 4594 1212 4672 
Q 1544 4750 1819 4750 
Q 2544 4750 2975 4387 
Q 3406 4025 3406 3419 
Q 3406 3131 3298 2873 
Q 3191 2616 2906 2266 
Q 2828 2175 2409 1742 
Q 1991 1309 1228 531 
z
" transform="scale(0.015625)"/>
        <path id="DejaVuSans-20" transform="scale(0.015625)"/>
        <path id="DejaVuSans-2d" d="M 313 2009 
L 1997 2009 
L 1997 1497 
L 313 1497 
L 313 2009 
z
" transform="scale(0.015625)"/>
        <path id="DejaVuSans-34" d="M 2419 4116 
L 825 1625 
L 2419 1625 
L 2419 4116 
z
M 2253 4666 
L 3047 4666 
L 3047 1625 
L 3713 1625 
L 3713 1100 
L 3047 1100 
L 3047 0 
L 2419 0 
L 2419 1100 
L 313 1100 
L 313 1709 
L 2253 4666 
z
" transform="scale(0.015625)"/>
       </defs>
       <use xlink:href="#DejaVuSans-31"/>
       <use xlink:href="#DejaVuSans-32" x="63.623047"/>
       <use xlink:href="#DejaVuSans-20" x="127.246094"/>
       <use xlink:href="#DejaVuSans-2d" x="159.033203"/>
       <use xlink:href="#DejaVuSans-20" x="195.117188"/>
       <use xlink:href="#DejaVuSans-31" x="226.904297"/>
       <use xlink:href="#DejaVuSans-34" x="290.527344"/>
      </g>
     </g>
    </g>
    <g id="xtick_2">
     <g id="line2d_2">
      <g>
       <use xlink:href="#me98701d430" x="159.991932" y="512.1375" style="fill: #262626; stroke: #262626; stroke-width: 1.25"/>
      </g>
     </g>
     <g id="text_2">
      <!-- 15 - 16 -->
      <g style="fill: #262626" transform="translate(140.514197 529.995781)scale(0.11 -0.11)">
       <defs>
        <path id="DejaVuSans-35" d="M 691 4666 
L 3169 4666 
L 3169 4134 
L 1269 4134 
L 1269 2991 
Q 1406 3038 1543 3061 
Q 1681 3084 1819 3084 
Q 2600 3084 3056 2656 
Q 3513 2228 3513 1497 
Q 3513 744 3044 326 
Q 2575 -91 1722 -91 
Q 1428 -91 1123 -41 
Q 819 9 494 109 
L 494 744 
Q 775 591 1075 516 
Q 1375 441 1709 441 
Q 2250 441 2565 725 
Q 2881 1009 2881 1497 
Q 2881 1984 2565 2268 
Q 2250 2553 1709 2553 
Q 1456 2553 1204 2497 
Q 953 2441 691 2322 
L 691 4666 
z
" transform="scale(0.015625)"/>
        <path id="DejaVuSans-36" d="M 2113 2584 
Q 1688 2584 1439 2293 
Q 1191 2003 1191 1497 
Q 1191 994 1439 701 
Q 1688 409 2113 409 
Q 2538 409 2786 701 
Q 3034 994 3034 1497 
Q 3034 2003 2786 2293 
Q 2538 2584 2113 2584 
z
M 3366 4563 
L 3366 3988 
Q 3128 4100 2886 4159 
Q 2644 4219 2406 4219 
Q 1781 4219 1451 3797 
Q 1122 3375 1075 2522 
Q 1259 2794 1537 2939 
Q 1816 3084 2150 3084 
Q 2853 3084 3261 2657 
Q 3669 2231 3669 1497 
Q 3669 778 3244 343 
Q 2819 -91 2113 -91 
Q 1303 -91 875 529 
Q 447 1150 447 2328 
Q 447 3434 972 4092 
Q 1497 4750 2381 4750 
Q 2619 4750 2861 4703 
Q 3103 4656 3366 4563 
z
" transform="scale(0.015625)"/>
       </defs>
       <use xlink:href="#DejaVuSans-31"/>
       <use xlink:href="#DejaVuSans-35" x="63.623047"/>
       <use xlink:href="#DejaVuSans-20" x="127.246094"/>
       <use xlink:href="#DejaVuSans-2d" x="159.033203"/>
       <use xlink:href="#DejaVuSans-20" x="195.117188"/>
       <use xlink:href="#DejaVuSans-31" x="226.904297"/>
       <use xlink:href="#DejaVuSans-36" x="290.527344"/>
      </g>
     </g>
    </g>
    <g id="xtick_3">
     <g id="line2d_3">
      <g>
       <use xlink:href="#me98701d430" x="231.247386" y="512.1375" style="fill: #262626; stroke: #262626; stroke-width: 1.25"/>
      </g>
     </g>
     <g id="text_3">
      <!-- 17 - 19 -->
      <g style="fill: #262626" transform="translate(211.769652 529.995781)scale(0.11 -0.11)">
       <defs>
        <path id="DejaVuSans-37" d="M 525 4666 
L 3525 4666 
L 3525 4397 
L 1831 0 
L 1172 0 
L 2766 4134 
L 525 4134 
L 525 4666 
z
" transform="scale(0.015625)"/>
        <path id="DejaVuSans-39" d="M 703 97 
L 703 672 
Q 941 559 1184 500 
Q 1428 441 1663 441 
Q 2288 441 2617 861 
Q 2947 1281 2994 2138 
Q 2813 1869 2534 1725 
Q 2256 1581 1919 1581 
Q 1219 1581 811 2004 
Q 403 2428 403 3163 
Q 403 3881 828 4315 
Q 1253 4750 1959 4750 
Q 2769 4750 3195 4129 
Q 3622 3509 3622 2328 
Q 3622 1225 3098 567 
Q 2575 -91 1691 -91 
Q 1453 -91 1209 -44 
Q 966 3 703 97 
z
M 1959 2075 
Q 2384 2075 2632 2365 
Q 2881 2656 2881 3163 
Q 2881 3666 2632 3958 
Q 2384 4250 1959 4250 
Q 1534 4250 1286 3958 
Q 1038 3666 1038 3163 
Q 1038 2656 1286 2365 
Q 1534 2075 1959 2075 
z
" transform="scale(0.015625)"/>
       </defs>
       <use xlink:href="#DejaVuSans-31"/>
       <use xlink:href="#DejaVuSans-37" x="63.623047"/>
       <use xlink:href="#DejaVuSans-20" x="127.246094"/>
       <use xlink:href="#DejaVuSans-2d" x="159.033203"/>
       <use xlink:href="#DejaVuSans-20" x="195.117188"/>
       <use xlink:href="#DejaVuSans-31" x="226.904297"/>
       <use xlink:href="#DejaVuSans-39" x="290.527344"/>
      </g>
     </g>
    </g>
    <g id="xtick_4">
     <g id="line2d_4">
      <g>
       <use xlink:href="#me98701d430" x="302.502841" y="512.1375" style="fill: #262626; stroke: #262626; stroke-width: 1.25"/>
      </g>
     </g>
     <g id="text_4">
      <!-- 20 - 29 -->
      <g style="fill: #262626" transform="translate(283.025107 529.995781)scale(0.11 -0.11)">
       <defs>
        <path id="DejaVuSans-30" d="M 2034 4250 
Q 1547 4250 1301 3770 
Q 1056 3291 1056 2328 
Q 1056 1369 1301 889 
Q 1547 409 2034 409 
Q 2525 409 2770 889 
Q 3016 1369 3016 2328 
Q 3016 3291 2770 3770 
Q 2525 4250 2034 4250 
z
M 2034 4750 
Q 2819 4750 3233 4129 
Q 3647 3509 3647 2328 
Q 3647 1150 3233 529 
Q 2819 -91 2034 -91 
Q 1250 -91 836 529 
Q 422 1150 422 2328 
Q 422 3509 836 4129 
Q 1250 4750 2034 4750 
z
" transform="scale(0.015625)"/>
       </defs>
       <use xlink:href="#DejaVuSans-32"/>
       <use xlink:href="#DejaVuSans-30" x="63.623047"/>
       <use xlink:href="#DejaVuSans-20" x="127.246094"/>
       <use xlink:href="#DejaVuSans-2d" x="159.033203"/>
       <use xlink:href="#DejaVuSans-20" x="195.117188"/>
       <use xlink:href="#DejaVuSans-32" x="226.904297"/>
       <use xlink:href="#DejaVuSans-39" x="290.527344"/>
      </g>
     </g>
    </g>
    <g id="xtick_5">
     <g id="line2d_5">
      <g>
       <use xlink:href="#me98701d430" x="373.758295" y="512.1375" style="fill: #262626; stroke: #262626; stroke-width: 1.25"/>
      </g>
     </g>
     <g id="text_5">
      <!-- 30 - 39 -->
      <g style="fill: #262626" transform="translate(354.280561 529.995781)scale(0.11 -0.11)">
       <defs>
        <path id="DejaVuSans-33" d="M 2597 2516 
Q 3050 2419 3304 2112 
Q 3559 1806 3559 1356 
Q 3559 666 3084 287 
Q 2609 -91 1734 -91 
Q 1441 -91 1130 -33 
Q 819 25 488 141 
L 488 750 
Q 750 597 1062 519 
Q 1375 441 1716 441 
Q 2309 441 2620 675 
Q 2931 909 2931 1356 
Q 2931 1769 2642 2001 
Q 2353 2234 1838 2234 
L 1294 2234 
L 1294 2753 
L 1863 2753 
Q 2328 2753 2575 2939 
Q 2822 3125 2822 3475 
Q 2822 3834 2567 4026 
Q 2313 4219 1838 4219 
Q 1578 4219 1281 4162 
Q 984 4106 628 3988 
L 628 4550 
Q 988 4650 1302 4700 
Q 1616 4750 1894 4750 
Q 2613 4750 3031 4423 
Q 3450 4097 3450 3541 
Q 3450 3153 3228 2886 
Q 3006 2619 2597 2516 
z
" transform="scale(0.015625)"/>
       </defs>
       <use xlink:href="#DejaVuSans-33"/>
       <use xlink:href="#DejaVuSans-30" x="63.623047"/>
       <use xlink:href="#DejaVuSans-20" x="127.246094"/>
       <use xlink:href="#DejaVuSans-2d" x="159.033203"/>
       <use xlink:href="#DejaVuSans-20" x="195.117188"/>
       <use xlink:href="#DejaVuSans-33" x="226.904297"/>
       <use xlink:href="#DejaVuSans-39" x="290.527344"/>
      </g>
     </g>
    </g>
    <g id="xtick_6">
     <g id="line2d_6">
      <g>
       <use xlink:href="#me98701d430" x="445.01375" y="512.1375" style="fill: #262626; stroke: #262626; stroke-width: 1.25"/>
      </g>
     </g>
     <g id="text_6">
      <!-- 40 - 49 -->
      <g style="fill: #262626" transform="translate(425.536016 529.995781)scale(0.11 -0.11)">
       <use xlink:href="#DejaVuSans-34"/>
       <use xlink:href="#DejaVuSans-30" x="63.623047"/>
       <use xlink:href="#DejaVuSans-20" x="127.246094"/>
       <use xlink:href="#DejaVuSans-2d" x="159.033203"/>
       <use xlink:href="#DejaVuSans-20" x="195.117188"/>
       <use xlink:href="#DejaVuSans-34" x="226.904297"/>
       <use xlink:href="#DejaVuSans-39" x="290.527344"/>
      </g>
     </g>
    </g>
    <g id="xtick_7">
     <g id="line2d_7">
      <g>
       <use xlink:href="#me98701d430" x="516.269205" y="512.1375" style="fill: #262626; stroke: #262626; stroke-width: 1.25"/>
      </g>
     </g>
     <g id="text_7">
      <!-- 50 - 59 -->
      <g style="fill: #262626" transform="translate(496.79147 529.995781)scale(0.11 -0.11)">
       <use xlink:href="#DejaVuSans-35"/>
       <use xlink:href="#DejaVuSans-30" x="63.623047"/>
       <use xlink:href="#DejaVuSans-20" x="127.246094"/>
       <use xlink:href="#DejaVuSans-2d" x="159.033203"/>
       <use xlink:href="#DejaVuSans-20" x="195.117188"/>
       <use xlink:href="#DejaVuSans-35" x="226.904297"/>
       <use xlink:href="#DejaVuSans-39" x="290.527344"/>
      </g>
     </g>
    </g>
    <g id="xtick_8">
     <g id="line2d_8">
      <g>
       <use xlink:href="#me98701d430" x="587.524659" y="512.1375" style="fill: #262626; stroke: #262626; stroke-width: 1.25"/>
      </g>
     </g>
     <g id="text_8">
      <!-- 60 - 69 -->
      <g style="fill: #262626" transform="translate(568.046925 529.995781)scale(0.11 -0.11)">
       <use xlink:href="#DejaVuSans-36"/>
       <use xlink:href="#DejaVuSans-30" x="63.623047"/>
       <use xlink:href="#DejaVuSans-20" x="127.246094"/>
       <use xlink:href="#DejaVuSans-2d" x="159.033203"/>
       <use xlink:href="#DejaVuSans-20" x="195.117188"/>
       <use xlink:href="#DejaVuSans-36" x="226.904297"/>
       <use xlink:href="#DejaVuSans-39" x="290.527344"/>
      </g>
     </g>
    </g>
    <g id="xtick_9">
     <g id="line2d_9">
      <g>
       <use xlink:href="#me98701d430" x="658.780114" y="512.1375" style="fill: #262626; stroke: #262626; stroke-width: 1.25"/>
      </g>
     </g>
     <g id="text_9">
      <!-- 70 - 79 -->
      <g style="fill: #262626" transform="translate(639.302379 529.995781)scale(0.11 -0.11)">
       <use xlink:href="#DejaVuSans-37"/>
       <use xlink:href="#DejaVuSans-30" x="63.623047"/>
       <use xlink:href="#DejaVuSans-20" x="127.246094"/>
       <use xlink:href="#DejaVuSans-2d" x="159.033203"/>
       <use xlink:href="#DejaVuSans-20" x="195.117188"/>
       <use xlink:href="#DejaVuSans-37" x="226.904297"/>
       <use xlink:href="#DejaVuSans-39" x="290.527344"/>
      </g>
     </g>
    </g>
    <g id="xtick_10">
     <g id="line2d_10">
      <g>
       <use xlink:href="#me98701d430" x="730.035568" y="512.1375" style="fill: #262626; stroke: #262626; stroke-width: 1.25"/>
      </g>
     </g>
     <g id="text_10">
      <!-- 80 - 89 -->
      <g style="fill: #262626" transform="translate(710.557834 529.995781)scale(0.11 -0.11)">
       <defs>
        <path id="DejaVuSans-38" d="M 2034 2216 
Q 1584 2216 1326 1975 
Q 1069 1734 1069 1313 
Q 1069 891 1326 650 
Q 1584 409 2034 409 
Q 2484 409 2743 651 
Q 3003 894 3003 1313 
Q 3003 1734 2745 1975 
Q 2488 2216 2034 2216 
z
M 1403 2484 
Q 997 2584 770 2862 
Q 544 3141 544 3541 
Q 544 4100 942 4425 
Q 1341 4750 2034 4750 
Q 2731 4750 3128 4425 
Q 3525 4100 3525 3541 
Q 3525 3141 3298 2862 
Q 3072 2584 2669 2484 
Q 3125 2378 3379 2068 
Q 3634 1759 3634 1313 
Q 3634 634 3220 271 
Q 2806 -91 2034 -91 
Q 1263 -91 848 271 
Q 434 634 434 1313 
Q 434 1759 690 2068 
Q 947 2378 1403 2484 
z
M 1172 3481 
Q 1172 3119 1398 2916 
Q 1625 2713 2034 2713 
Q 2441 2713 2670 2916 
Q 2900 3119 2900 3481 
Q 2900 3844 2670 4047 
Q 2441 4250 2034 4250 
Q 1625 4250 1398 4047 
Q 1172 3844 1172 3481 
z
" transform="scale(0.015625)"/>
       </defs>
       <use xlink:href="#DejaVuSans-38"/>
       <use xlink:href="#DejaVuSans-30" x="63.623047"/>
       <use xlink:href="#DejaVuSans-20" x="127.246094"/>
       <use xlink:href="#DejaVuSans-2d" x="159.033203"/>
       <use xlink:href="#DejaVuSans-20" x="195.117188"/>
       <use xlink:href="#DejaVuSans-38" x="226.904297"/>
       <use xlink:href="#DejaVuSans-39" x="290.527344"/>
      </g>
     </g>
    </g>
    <g id="xtick_11">
     <g id="line2d_11">
      <g>
       <use xlink:href="#me98701d430" x="801.291023" y="512.1375" style="fill: #262626; stroke: #262626; stroke-width: 1.25"/>
      </g>
     </g>
     <g id="text_11">
      <!-- 90+ -->
      <g style="fill: #262626" transform="translate(789.683445 529.995781)scale(0.11 -0.11)">
       <defs>
        <path id="DejaVuSans-2b" d="M 2944 4013 
L 2944 2272 
L 4684 2272 
L 4684 1741 
L 2944 1741 
L 2944 0 
L 2419 0 
L 2419 1741 
L 678 1741 
L 678 2272 
L 2419 2272 
L 2419 4013 
L 2944 4013 
z
" transform="scale(0.015625)"/>
       </defs>
       <use xlink:href="#DejaVuSans-39"/>
       <use xlink:href="#DejaVuSans-30" x="63.623047"/>
       <use xlink:href="#DejaVuSans-2b" x="127.246094"/>
      </g>
     </g>
    </g>
    <g id="text_12">
     <!-- Възрастова група -->
     <g style="fill: #262626" transform="translate(388.28375 545.401563)scale(0.12 -0.12)">
      <defs>
       <path id="DejaVuSans-412" d="M 1259 2228 
L 1259 519 
L 2272 519 
Q 2781 519 3026 730 
Q 3272 941 3272 1375 
Q 3272 1813 3026 2020 
Q 2781 2228 2272 2228 
L 1259 2228 
z
M 1259 4147 
L 1259 2741 
L 2194 2741 
Q 2656 2741 2882 2914 
Q 3109 3088 3109 3444 
Q 3109 3797 2882 3972 
Q 2656 4147 2194 4147 
L 1259 4147 
z
M 628 4666 
L 2241 4666 
Q 2963 4666 3353 4366 
Q 3744 4066 3744 3513 
Q 3744 3084 3544 2831 
Q 3344 2578 2956 2516 
Q 3422 2416 3680 2098 
Q 3938 1781 3938 1306 
Q 3938 681 3513 340 
Q 3088 0 2303 0 
L 628 0 
L 628 4666 
z
" transform="scale(0.015625)"/>
       <path id="DejaVuSans-44a" d="M 2753 2072 
Q 3422 2072 3783 1817 
Q 4144 1563 4144 1038 
Q 4144 513 3783 256 
Q 3422 0 2753 0 
L 1328 0 
L 1328 3041 
L 194 3041 
L 194 3500 
L 1906 3500 
L 1906 2072 
L 2753 2072 
z
M 2728 1613 
L 1906 1613 
L 1906 459 
L 2728 459 
Q 3122 459 3326 607 
Q 3531 756 3531 1038 
Q 3531 1319 3326 1466 
Q 3122 1613 2728 1613 
z
" transform="scale(0.015625)"/>
       <path id="DejaVuSans-437" d="M 2206 1888 
Q 2594 1813 2809 1584 
Q 3025 1356 3025 1019 
Q 3025 478 2622 193 
Q 2219 -91 1475 -91 
Q 1225 -91 961 -47 
Q 697 -3 416 84 
L 416 619 
Q 638 503 903 445 
Q 1169 388 1459 388 
Q 1931 388 2195 563 
Q 2459 738 2459 1019 
Q 2459 1294 2225 1461 
Q 1991 1628 1563 1628 
L 1100 1628 
L 1100 2103 
L 1584 2103 
Q 1947 2103 2158 2242 
Q 2369 2381 2369 2600 
Q 2369 2800 2151 2944 
Q 1934 3088 1563 3088 
Q 1341 3088 1089 3047 
Q 838 3006 534 2916 
L 534 3438 
Q 841 3513 1106 3550 
Q 1372 3588 1609 3588 
Q 2222 3588 2576 3342 
Q 2931 3097 2931 2656 
Q 2931 2366 2743 2164 
Q 2556 1963 2206 1888 
z
" transform="scale(0.015625)"/>
       <path id="DejaVuSans-440" d="M 1159 525 
L 1159 -1331 
L 581 -1331 
L 581 3500 
L 1159 3500 
L 1159 2969 
Q 1341 3281 1617 3432 
Q 1894 3584 2278 3584 
Q 2916 3584 3314 3078 
Q 3713 2572 3713 1747 
Q 3713 922 3314 415 
Q 2916 -91 2278 -91 
Q 1894 -91 1617 61 
Q 1341 213 1159 525 
z
M 3116 1747 
Q 3116 2381 2855 2742 
Q 2594 3103 2138 3103 
Q 1681 3103 1420 2742 
Q 1159 2381 1159 1747 
Q 1159 1113 1420 752 
Q 1681 391 2138 391 
Q 2594 391 2855 752 
Q 3116 1113 3116 1747 
z
" transform="scale(0.015625)"/>
       <path id="DejaVuSans-430" d="M 2194 1759 
Q 1497 1759 1228 1600 
Q 959 1441 959 1056 
Q 959 750 1161 570 
Q 1363 391 1709 391 
Q 2188 391 2477 730 
Q 2766 1069 2766 1631 
L 2766 1759 
L 2194 1759 
z
M 3341 1997 
L 3341 0 
L 2766 0 
L 2766 531 
Q 2569 213 2275 61 
Q 1981 -91 1556 -91 
Q 1019 -91 701 211 
Q 384 513 384 1019 
Q 384 1609 779 1909 
Q 1175 2209 1959 2209 
L 2766 2209 
L 2766 2266 
Q 2766 2663 2505 2880 
Q 2244 3097 1772 3097 
Q 1472 3097 1187 3025 
Q 903 2953 641 2809 
L 641 3341 
Q 956 3463 1253 3523 
Q 1550 3584 1831 3584 
Q 2591 3584 2966 3190 
Q 3341 2797 3341 1997 
z
" transform="scale(0.015625)"/>
       <path id="DejaVuSans-441" d="M 3122 3366 
L 3122 2828 
Q 2878 2963 2633 3030 
Q 2388 3097 2138 3097 
Q 1578 3097 1268 2742 
Q 959 2388 959 1747 
Q 959 1106 1268 751 
Q 1578 397 2138 397 
Q 2388 397 2633 464 
Q 2878 531 3122 666 
L 3122 134 
Q 2881 22 2623 -34 
Q 2366 -91 2075 -91 
Q 1284 -91 818 406 
Q 353 903 353 1747 
Q 353 2603 823 3093 
Q 1294 3584 2113 3584 
Q 2378 3584 2631 3529 
Q 2884 3475 3122 3366 
z
" transform="scale(0.015625)"/>
       <path id="DejaVuSans-442" d="M 188 3500 
L 3541 3500 
L 3541 3041 
L 2147 3041 
L 2147 0 
L 1581 0 
L 1581 3041 
L 188 3041 
L 188 3500 
z
" transform="scale(0.015625)"/>
       <path id="DejaVuSans-43e" d="M 1959 3097 
Q 1497 3097 1228 2736 
Q 959 2375 959 1747 
Q 959 1119 1226 758 
Q 1494 397 1959 397 
Q 2419 397 2687 759 
Q 2956 1122 2956 1747 
Q 2956 2369 2687 2733 
Q 2419 3097 1959 3097 
z
M 1959 3584 
Q 2709 3584 3137 3096 
Q 3566 2609 3566 1747 
Q 3566 888 3137 398 
Q 2709 -91 1959 -91 
Q 1206 -91 779 398 
Q 353 888 353 1747 
Q 353 2609 779 3096 
Q 1206 3584 1959 3584 
z
" transform="scale(0.015625)"/>
       <path id="DejaVuSans-432" d="M 1156 1613 
L 1156 459 
L 1975 459 
Q 2369 459 2575 607 
Q 2781 756 2781 1038 
Q 2781 1319 2575 1466 
Q 2369 1613 1975 1613 
L 1156 1613 
z
M 1156 3041 
L 1156 2072 
L 1913 2072 
Q 2238 2072 2444 2201 
Q 2650 2331 2650 2563 
Q 2650 2794 2444 2917 
Q 2238 3041 1913 3041 
L 1156 3041 
z
M 581 3500 
L 1950 3500 
Q 2566 3500 2897 3275 
Q 3228 3050 3228 2634 
Q 3228 2313 3059 2123 
Q 2891 1934 2559 1888 
Q 2956 1813 3175 1575 
Q 3394 1338 3394 981 
Q 3394 513 3033 256 
Q 2672 0 2003 0 
L 581 0 
L 581 3500 
z
" transform="scale(0.015625)"/>
       <path id="DejaVuSans-433" d="M 581 0 
L 581 3500 
L 3050 3500 
L 3050 3041 
L 1159 3041 
L 1159 0 
L 581 0 
z
" transform="scale(0.015625)"/>
       <path id="DejaVuSans-443" d="M 2059 -325 
Q 1816 -950 1584 -1140 
Q 1353 -1331 966 -1331 
L 506 -1331 
L 506 -850 
L 844 -850 
Q 1081 -850 1212 -737 
Q 1344 -625 1503 -206 
L 1606 56 
L 191 3500 
L 800 3500 
L 1894 763 
L 2988 3500 
L 3597 3500 
L 2059 -325 
z
" transform="scale(0.015625)"/>
       <path id="DejaVuSans-43f" d="M 3603 3500 
L 3603 0 
L 3025 0 
L 3025 3041 
L 1159 3041 
L 1159 0 
L 581 0 
L 581 3500 
L 3603 3500 
z
" transform="scale(0.015625)"/>
      </defs>
      <use xlink:href="#DejaVuSans-412"/>
      <use xlink:href="#DejaVuSans-44a" x="68.603516"/>
      <use xlink:href="#DejaVuSans-437" x="139.257812"/>
      <use xlink:href="#DejaVuSans-440" x="192.431641"/>
      <use xlink:href="#DejaVuSans-430" x="255.908203"/>
      <use xlink:href="#DejaVuSans-441" x="317.1875"/>
      <use xlink:href="#DejaVuSans-442" x="372.167969"/>
      <use xlink:href="#DejaVuSans-43e" x="430.419922"/>
      <use xlink:href="#DejaVuSans-432" x="491.601562"/>
      <use xlink:href="#DejaVuSans-430" x="550.537109"/>
      <use xlink:href="#DejaVuSans-20" x="611.816406"/>
      <use xlink:href="#DejaVuSans-433" x="643.603516"/>
      <use xlink:href="#DejaVuSans-440" x="696.142578"/>
      <use xlink:href="#DejaVuSans-443" x="759.619141"/>
      <use xlink:href="#DejaVuSans-43f" x="818.798828"/>
      <use xlink:href="#DejaVuSans-430" x="884.179688"/>
     </g>
    </g>
   </g>
   <g id="matplotlib.axis_2">
    <g id="ytick_1">
     <g id="line2d_12">
      <path d="M 53.10875 512.1375 
L 836.91875 512.1375 
" clip-path="url(#p7af3cf3d17)" style="fill: none; stroke: #cccccc; stroke-linecap: round"/>
     </g>
     <g id="line2d_13">
      <defs>
       <path id="mc512b9c5cf" d="M 0 0 
L -6 0 
" style="stroke: #262626; stroke-width: 1.25"/>
      </defs>
      <g>
       <use xlink:href="#mc512b9c5cf" x="53.10875" y="512.1375" style="fill: #262626; stroke: #262626; stroke-width: 1.25"/>
      </g>
     </g>
     <g id="text_13">
      <!-- 0 -->
      <g style="fill: #262626" transform="translate(36.61 516.316641)scale(0.11 -0.11)">
       <use xlink:href="#DejaVuSans-30"/>
      </g>
     </g>
    </g>
    <g id="ytick_2">
     <g id="line2d_14">
      <path d="M 53.10875 411.712497 
L 836.91875 411.712497 
" clip-path="url(#p7af3cf3d17)" style="fill: none; stroke: #cccccc; stroke-linecap: round"/>
     </g>
     <g id="line2d_15">
      <g>
       <use xlink:href="#mc512b9c5cf" x="53.10875" y="411.712497" style="fill: #262626; stroke: #262626; stroke-width: 1.25"/>
      </g>
     </g>
     <g id="text_14">
      <!-- 1000 -->
      <g style="fill: #262626" transform="translate(15.61375 415.891638)scale(0.11 -0.11)">
       <use xlink:href="#DejaVuSans-31"/>
       <use xlink:href="#DejaVuSans-30" x="63.623047"/>
       <use xlink:href="#DejaVuSans-30" x="127.246094"/>
       <use xlink:href="#DejaVuSans-30" x="190.869141"/>
      </g>
     </g>
    </g>
    <g id="ytick_3">
     <g id="line2d_16">
      <path d="M 53.10875 311.287494 
L 836.91875 311.287494 
" clip-path="url(#p7af3cf3d17)" style="fill: none; stroke: #cccccc; stroke-linecap: round"/>
     </g>
     <g id="line2d_17">
      <g>
       <use xlink:href="#mc512b9c5cf" x="53.10875" y="311.287494" style="fill: #262626; stroke: #262626; stroke-width: 1.25"/>
      </g>
     </g>
     <g id="text_15">
      <!-- 2000 -->
      <g style="fill: #262626" transform="translate(15.61375 315.466635)scale(0.11 -0.11)">
       <use xlink:href="#DejaVuSans-32"/>
       <use xlink:href="#DejaVuSans-30" x="63.623047"/>
       <use xlink:href="#DejaVuSans-30" x="127.246094"/>
       <use xlink:href="#DejaVuSans-30" x="190.869141"/>
      </g>
     </g>
    </g>
    <g id="ytick_4">
     <g id="line2d_18">
      <path d="M 53.10875 210.862491 
L 836.91875 210.862491 
" clip-path="url(#p7af3cf3d17)" style="fill: none; stroke: #cccccc; stroke-linecap: round"/>
     </g>
     <g id="line2d_19">
      <g>
       <use xlink:href="#mc512b9c5cf" x="53.10875" y="210.862491" style="fill: #262626; stroke: #262626; stroke-width: 1.25"/>
      </g>
     </g>
     <g id="text_16">
      <!-- 3000 -->
      <g style="fill: #262626" transform="translate(15.61375 215.041632)scale(0.11 -0.11)">
       <use xlink:href="#DejaVuSans-33"/>
       <use xlink:href="#DejaVuSans-30" x="63.623047"/>
       <use xlink:href="#DejaVuSans-30" x="127.246094"/>
       <use xlink:href="#DejaVuSans-30" x="190.869141"/>
      </g>
     </g>
    </g>
    <g id="ytick_5">
     <g id="line2d_20">
      <path d="M 53.10875 110.437489 
L 836.91875 110.437489 
" clip-path="url(#p7af3cf3d17)" style="fill: none; stroke: #cccccc; stroke-linecap: round"/>
     </g>
     <g id="line2d_21">
      <g>
       <use xlink:href="#mc512b9c5cf" x="53.10875" y="110.437489" style="fill: #262626; stroke: #262626; stroke-width: 1.25"/>
      </g>
     </g>
     <g id="text_17">
      <!-- 4000 -->
      <g style="fill: #262626" transform="translate(15.61375 114.616629)scale(0.11 -0.11)">
       <use xlink:href="#DejaVuSans-34"/>
       <use xlink:href="#DejaVuSans-30" x="63.623047"/>
       <use xlink:href="#DejaVuSans-30" x="127.246094"/>
       <use xlink:href="#DejaVuSans-30" x="190.869141"/>
      </g>
     </g>
    </g>
    <g id="text_18">
     <!-- Брой хоспитализирани -->
     <g style="fill: #262626" transform="translate(9.118125 343.872813)rotate(-90)scale(0.12 -0.12)">
      <defs>
       <path id="DejaVuSans-411" d="M 3272 1372 
Q 3272 1806 3026 2017 
Q 2781 2228 2272 2228 
L 1259 2228 
L 1259 519 
L 2272 519 
Q 2781 519 3026 730 
Q 3272 941 3272 1372 
z
M 3609 4666 
L 3609 4147 
L 1259 4147 
L 1259 2747 
L 2303 2747 
Q 3088 2747 3513 2406 
Q 3938 2066 3938 1372 
Q 3938 681 3527 340 
Q 3116 0 2303 0 
L 628 0 
L 628 4666 
L 3609 4666 
z
" transform="scale(0.015625)"/>
       <path id="DejaVuSans-439" d="M 3578 3500 
L 3578 0 
L 3006 0 
L 3006 2809 
L 1319 0 
L 581 0 
L 581 3500 
L 1153 3500 
L 1153 697 
L 2838 3500 
L 3578 3500 
z
M 1102 4833 
L 1471 4833 
Q 1505 4599 1656 4481 
Q 1808 4364 2080 4364 
Q 2349 4364 2499 4480 
Q 2649 4596 2689 4833 
L 3058 4833 
Q 3027 4386 2780 4161 
Q 2533 3936 2080 3936 
Q 1627 3936 1380 4161 
Q 1133 4386 1102 4833 
z
" transform="scale(0.015625)"/>
       <path id="DejaVuSans-445" d="M 3513 3500 
L 2247 1797 
L 3578 0 
L 2900 0 
L 1881 1375 
L 863 0 
L 184 0 
L 1544 1831 
L 300 3500 
L 978 3500 
L 1906 2253 
L 2834 3500 
L 3513 3500 
z
" transform="scale(0.015625)"/>
       <path id="DejaVuSans-438" d="M 3578 3500 
L 3578 0 
L 3006 0 
L 3006 2809 
L 1319 0 
L 581 0 
L 581 3500 
L 1153 3500 
L 1153 697 
L 2838 3500 
L 3578 3500 
z
" transform="scale(0.015625)"/>
       <path id="DejaVuSans-43b" d="M 238 0 
L 238 478 
Q 806 566 981 959 
Q 1194 1513 1194 2928 
L 1194 3500 
L 3559 3500 
L 3559 0 
L 2984 0 
L 2984 3041 
L 1769 3041 
L 1769 2694 
Q 1769 1344 1494 738 
Q 1200 91 238 0 
z
" transform="scale(0.015625)"/>
       <path id="DejaVuSans-43d" d="M 581 3500 
L 1159 3500 
L 1159 2072 
L 3025 2072 
L 3025 3500 
L 3603 3500 
L 3603 0 
L 3025 0 
L 3025 1613 
L 1159 1613 
L 1159 0 
L 581 0 
L 581 3500 
z
" transform="scale(0.015625)"/>
      </defs>
      <use xlink:href="#DejaVuSans-411"/>
      <use xlink:href="#DejaVuSans-440" x="68.603516"/>
      <use xlink:href="#DejaVuSans-43e" x="132.080078"/>
      <use xlink:href="#DejaVuSans-439" x="193.261719"/>
      <use xlink:href="#DejaVuSans-20" x="258.251953"/>
      <use xlink:href="#DejaVuSans-445" x="290.039062"/>
      <use xlink:href="#DejaVuSans-43e" x="349.21875"/>
      <use xlink:href="#DejaVuSans-441" x="410.400391"/>
      <use xlink:href="#DejaVuSans-43f" x="465.380859"/>
      <use xlink:href="#DejaVuSans-438" x="530.761719"/>
      <use xlink:href="#DejaVuSans-442" x="595.751953"/>
      <use xlink:href="#DejaVuSans-430" x="654.003906"/>
      <use xlink:href="#DejaVuSans-43b" x="715.283203"/>
      <use xlink:href="#DejaVuSans-438" x="779.199219"/>
      <use xlink:href="#DejaVuSans-437" x="844.189453"/>
      <use xlink:href="#DejaVuSans-438" x="897.363281"/>
      <use xlink:href="#DejaVuSans-440" x="962.353516"/>
      <use xlink:href="#DejaVuSans-430" x="1025.830078"/>
      <use xlink:href="#DejaVuSans-43d" x="1087.109375"/>
      <use xlink:href="#DejaVuSans-438" x="1152.490234"/>
     </g>
    </g>
   </g>
   <g id="patch_3">
    <path d="M 60.234295 512.1375 
L 117.238659 512.1375 
L 117.238659 511.93665 
L 60.234295 511.93665 
z
" clip-path="url(#p7af3cf3d17)" style="fill: #f7c8d0; opacity: 0.6; stroke: #ffffff; stroke-linejoin: miter"/>
   </g>
   <g id="patch_4">
    <path d="M 131.48975 512.1375 
L 188.494114 512.1375 
L 188.494114 511.434525 
L 131.48975 511.434525 
z
" clip-path="url(#p7af3cf3d17)" style="fill: #f7c8d0; opacity: 0.6; stroke: #ffffff; stroke-linejoin: miter"/>
   </g>
   <g id="patch_5">
    <path d="M 202.745205 512.1375 
L 259.749568 512.1375 
L 259.749568 509.426025 
L 202.745205 509.426025 
z
" clip-path="url(#p7af3cf3d17)" style="fill: #f7c8d0; opacity: 0.6; stroke: #ffffff; stroke-linejoin: miter"/>
   </g>
   <g id="patch_6">
    <path d="M 274.000659 512.1375 
L 331.005023 512.1375 
L 331.005023 488.236349 
L 274.000659 488.236349 
z
" clip-path="url(#p7af3cf3d17)" style="fill: #f7c8d0; opacity: 0.6; stroke: #ffffff; stroke-linejoin: miter"/>
   </g>
   <g id="patch_7">
    <path d="M 345.256114 512.1375 
L 402.260477 512.1375 
L 402.260477 439.530223 
L 345.256114 439.530223 
z
" clip-path="url(#p7af3cf3d17)" style="fill: #f7c8d0; opacity: 0.6; stroke: #ffffff; stroke-linejoin: miter"/>
   </g>
   <g id="patch_8">
    <path d="M 416.511568 512.1375 
L 473.515932 512.1375 
L 473.515932 366.521246 
L 416.511568 366.521246 
z
" clip-path="url(#p7af3cf3d17)" style="fill: #f7c8d0; opacity: 0.6; stroke: #ffffff; stroke-linejoin: miter"/>
   </g>
   <g id="patch_9">
    <path d="M 487.767023 512.1375 
L 544.771386 512.1375 
L 544.771386 289.997394 
L 487.767023 289.997394 
z
" clip-path="url(#p7af3cf3d17)" style="fill: #f7c8d0; opacity: 0.6; stroke: #ffffff; stroke-linejoin: miter"/>
   </g>
   <g id="patch_10">
    <path d="M 559.022477 512.1375 
L 616.026841 512.1375 
L 616.026841 119.576164 
L 559.022477 119.576164 
z
" clip-path="url(#p7af3cf3d17)" style="fill: #f7c8d0; opacity: 0.6; stroke: #ffffff; stroke-linejoin: miter"/>
   </g>
   <g id="patch_11">
    <path d="M 630.277932 512.1375 
L 687.282295 512.1375 
L 687.282295 52.492262 
L 630.277932 52.492262 
z
" clip-path="url(#p7af3cf3d17)" style="fill: #f7c8d0; opacity: 0.6; stroke: #ffffff; stroke-linejoin: miter"/>
   </g>
   <g id="patch_12">
    <path d="M 701.533386 512.1375 
L 758.53775 512.1375 
L 758.53775 315.907044 
L 701.533386 315.907044 
z
" clip-path="url(#p7af3cf3d17)" style="fill: #f7c8d0; opacity: 0.6; stroke: #ffffff; stroke-linejoin: miter"/>
   </g>
   <g id="patch_13">
    <path d="M 772.788841 512.1375 
L 829.793205 512.1375 
L 829.793205 500.28735 
L 772.788841 500.28735 
z
" clip-path="url(#p7af3cf3d17)" style="fill: #f7c8d0; opacity: 0.6; stroke: #ffffff; stroke-linejoin: miter"/>
   </g>
   <g id="line2d_22">
    <path clip-path="url(#p7af3cf3d17)" style="fill: none; stroke: #424242; stroke-width: 2.7; stroke-linecap: round"/>
   </g>
   <g id="line2d_23">
    <path clip-path="url(#p7af3cf3d17)" style="fill: none; stroke: #424242; stroke-width: 2.7; stroke-linecap: round"/>
   </g>
   <g id="line2d_24">
    <path clip-path="url(#p7af3cf3d17)" style="fill: none; stroke: #424242; stroke-width: 2.7; stroke-linecap: round"/>
   </g>
   <g id="line2d_25">
    <path clip-path="url(#p7af3cf3d17)" style="fill: none; stroke: #424242; stroke-width: 2.7; stroke-linecap: round"/>
   </g>
   <g id="line2d_26">
    <path clip-path="url(#p7af3cf3d17)" style="fill: none; stroke: #424242; stroke-width: 2.7; stroke-linecap: round"/>
   </g>
   <g id="line2d_27">
    <path clip-path="url(#p7af3cf3d17)" style="fill: none; stroke: #424242; stroke-width: 2.7; stroke-linecap: round"/>
   </g>
   <g id="line2d_28">
    <path clip-path="url(#p7af3cf3d17)" style="fill: none; stroke: #424242; stroke-width: 2.7; stroke-linecap: round"/>
   </g>
   <g id="line2d_29">
    <path clip-path="url(#p7af3cf3d17)" style="fill: none; stroke: #424242; stroke-width: 2.7; stroke-linecap: round"/>
   </g>
   <g id="line2d_30">
    <path clip-path="url(#p7af3cf3d17)" style="fill: none; stroke: #424242; stroke-width: 2.7; stroke-linecap: round"/>
   </g>
   <g id="line2d_31">
    <path clip-path="url(#p7af3cf3d17)" style="fill: none; stroke: #424242; stroke-width: 2.7; stroke-linecap: round"/>
   </g>
   <g id="line2d_32">
    <path clip-path="url(#p7af3cf3d17)" style="fill: none; stroke: #424242; stroke-width: 2.7; stroke-linecap: round"/>
   </g>
   <g id="patch_14">
    <path d="M 53.10875 512.1375 
L 53.10875 29.51 
" style="fill: none; stroke: #262626; stroke-width: 1.25; stroke-linejoin: miter; stroke-linecap: square"/>
   </g>
   <g id="patch_15">
    <path d="M 836.91875 512.1375 
L 836.91875 29.51 
" style="fill: none; stroke: #262626; stroke-width: 1.25; stroke-linejoin: miter; stroke-linecap: square"/>
   </g>
   <g id="patch_16">
    <path d="M 53.10875 512.1375 
L 836.91875 512.1375 
" style="fill: none; stroke: #262626; stroke-width: 1.25; stroke-linejoin: miter; stroke-linecap: square"/>
   </g>
   <g id="patch_17">
    <path d="M 53.10875 29.51 
L 836.91875 29.51 
" style="fill: none; stroke: #262626; stroke-width: 1.25; stroke-linejoin: miter; stroke-linecap: square"/>
   </g>
   <g id="text_19">
    <!-- 2 -->
    <g style="fill: #262626" transform="translate(84.918977 509.441025)scale(0.12 -0.12)">
     <use xlink:href="#DejaVuSans-32"/>
    </g>
   </g>
   <g id="text_20">
    <!-- 7 -->
    <g style="fill: #262626" transform="translate(156.174432 508.9389)scale(0.12 -0.12)">
     <use xlink:href="#DejaVuSans-37"/>
    </g>
   </g>
   <g id="text_21">
    <!-- 27 -->
    <g style="fill: #262626" transform="translate(223.612386 506.9304)scale(0.12 -0.12)">
     <use xlink:href="#DejaVuSans-32"/>
     <use xlink:href="#DejaVuSans-37" x="63.623047"/>
    </g>
   </g>
   <g id="text_22">
    <!-- 238 -->
    <g style="fill: #262626" transform="translate(291.050341 485.740724)scale(0.12 -0.12)">
     <use xlink:href="#DejaVuSans-32"/>
     <use xlink:href="#DejaVuSans-33" x="63.623047"/>
     <use xlink:href="#DejaVuSans-38" x="127.246094"/>
    </g>
   </g>
   <g id="text_23">
    <!-- 723 -->
    <g style="fill: #262626" transform="translate(362.305795 437.034598)scale(0.12 -0.12)">
     <use xlink:href="#DejaVuSans-37"/>
     <use xlink:href="#DejaVuSans-32" x="63.623047"/>
     <use xlink:href="#DejaVuSans-33" x="127.246094"/>
    </g>
   </g>
   <g id="text_24">
    <!-- 1450 -->
    <g style="fill: #262626" transform="translate(429.74375 364.025621)scale(0.12 -0.12)">
     <use xlink:href="#DejaVuSans-31"/>
     <use xlink:href="#DejaVuSans-34" x="63.623047"/>
     <use xlink:href="#DejaVuSans-35" x="127.246094"/>
     <use xlink:href="#DejaVuSans-30" x="190.869141"/>
    </g>
   </g>
   <g id="text_25">
    <!-- 2212 -->
    <g style="fill: #262626" transform="translate(500.999205 287.501769)scale(0.12 -0.12)">
     <use xlink:href="#DejaVuSans-32"/>
     <use xlink:href="#DejaVuSans-32" x="63.623047"/>
     <use xlink:href="#DejaVuSans-31" x="127.246094"/>
     <use xlink:href="#DejaVuSans-32" x="190.869141"/>
    </g>
   </g>
   <g id="text_26">
    <!-- 3909 -->
    <g style="fill: #262626" transform="translate(572.254659 117.080539)scale(0.12 -0.12)">
     <use xlink:href="#DejaVuSans-33"/>
     <use xlink:href="#DejaVuSans-39" x="63.623047"/>
     <use xlink:href="#DejaVuSans-30" x="127.246094"/>
     <use xlink:href="#DejaVuSans-39" x="190.869141"/>
    </g>
   </g>
   <g id="text_27">
    <!-- 4577 -->
    <g style="fill: #262626" transform="translate(643.510114 49.996637)scale(0.12 -0.12)">
     <use xlink:href="#DejaVuSans-34"/>
     <use xlink:href="#DejaVuSans-35" x="63.623047"/>
     <use xlink:href="#DejaVuSans-37" x="127.246094"/>
     <use xlink:href="#DejaVuSans-37" x="190.869141"/>
    </g>
   </g>
   <g id="text_28">
    <!-- 1954 -->
    <g style="fill: #262626" transform="translate(714.765568 313.411419)scale(0.12 -0.12)">
     <use xlink:href="#DejaVuSans-31"/>
     <use xlink:href="#DejaVuSans-39" x="63.623047"/>
     <use xlink:href="#DejaVuSans-35" x="127.246094"/>
     <use xlink:href="#DejaVuSans-34" x="190.869141"/>
    </g>
   </g>
   <g id="text_29">
    <!-- 118 -->
    <g style="fill: #262626" transform="translate(789.838523 497.791725)scale(0.12 -0.12)">
     <use xlink:href="#DejaVuSans-31"/>
     <use xlink:href="#DejaVuSans-31" x="63.623047"/>
     <use xlink:href="#DejaVuSans-38" x="127.246094"/>
    </g>
   </g>
   <g id="text_30">
    <!-- Последна актуализация: 16.06.2022 -->
    <g style="fill: #262626" transform="translate(349.081826 22.270588)scale(0.09996 -0.09996)">
     <defs>
      <path id="DejaVuSans-41f" d="M 4184 4666 
L 4184 0 
L 3553 0 
L 3553 4134 
L 1259 4134 
L 1259 0 
L 628 0 
L 628 4666 
L 4184 4666 
z
" transform="scale(0.015625)"/>
      <path id="DejaVuSans-435" d="M 3597 1894 
L 3597 1613 
L 953 1613 
Q 991 1019 1311 708 
Q 1631 397 2203 397 
Q 2534 397 2845 478 
Q 3156 559 3463 722 
L 3463 178 
Q 3153 47 2828 -22 
Q 2503 -91 2169 -91 
Q 1331 -91 842 396 
Q 353 884 353 1716 
Q 353 2575 817 3079 
Q 1281 3584 2069 3584 
Q 2775 3584 3186 3129 
Q 3597 2675 3597 1894 
z
M 3022 2063 
Q 3016 2534 2758 2815 
Q 2500 3097 2075 3097 
Q 1594 3097 1305 2825 
Q 1016 2553 972 2059 
L 3022 2063 
z
" transform="scale(0.015625)"/>
      <path id="DejaVuSans-434" d="M 1384 459 
L 3053 459 
L 3053 3041 
L 1844 3041 
L 1844 2603 
Q 1844 1316 1475 628 
L 1384 459 
z
M 550 459 
Q 834 584 959 850 
Q 1266 1509 1266 2838 
L 1266 3500 
L 3631 3500 
L 3631 459 
L 4091 459 
L 4091 -884 
L 3631 -884 
L 3631 0 
L 794 0 
L 794 -884 
L 334 -884 
L 334 459 
L 550 459 
z
" transform="scale(0.015625)"/>
      <path id="DejaVuSans-43a" d="M 581 3500 
L 1153 3500 
L 1153 1856 
L 2775 3500 
L 3481 3500 
L 2144 2147 
L 3653 0 
L 3009 0 
L 1769 1766 
L 1153 1141 
L 1153 0 
L 581 0 
L 581 3500 
z
" transform="scale(0.015625)"/>
      <path id="DejaVuSans-446" d="M 3603 0 
L 581 0 
L 581 3500 
L 1159 3500 
L 1159 459 
L 3025 459 
L 3025 3500 
L 3603 3500 
L 3603 459 
L 4063 459 
L 4063 -884 
L 3603 -884 
L 3603 0 
z
" transform="scale(0.015625)"/>
      <path id="DejaVuSans-44f" d="M 1181 2491 
Q 1181 2231 1381 2084 
Q 1581 1938 1953 1938 
L 2728 1938 
L 2728 3041 
L 1953 3041 
Q 1581 3041 1381 2897 
Q 1181 2753 1181 2491 
z
M 363 0 
L 1431 1534 
Q 1069 1616 828 1830 
Q 588 2044 588 2491 
Q 588 2997 923 3248 
Q 1259 3500 1938 3500 
L 3306 3500 
L 3306 0 
L 2728 0 
L 2728 1478 
L 2013 1478 
L 981 0 
L 363 0 
z
" transform="scale(0.015625)"/>
      <path id="DejaVuSans-3a" d="M 750 794 
L 1409 794 
L 1409 0 
L 750 0 
L 750 794 
z
M 750 3309 
L 1409 3309 
L 1409 2516 
L 750 2516 
L 750 3309 
z
" transform="scale(0.015625)"/>
      <path id="DejaVuSans-2e" d="M 684 794 
L 1344 794 
L 1344 0 
L 684 0 
L 684 794 
z
" transform="scale(0.015625)"/>
     </defs>
     <use xlink:href="#DejaVuSans-41f"/>
     <use xlink:href="#DejaVuSans-43e" x="75.195312"/>
     <use xlink:href="#DejaVuSans-441" x="136.376953"/>
     <use xlink:href="#DejaVuSans-43b" x="191.357422"/>
     <use xlink:href="#DejaVuSans-435" x="255.273438"/>
     <use xlink:href="#DejaVuSans-434" x="316.796875"/>
     <use xlink:href="#DejaVuSans-43d" x="385.9375"/>
     <use xlink:href="#DejaVuSans-430" x="451.318359"/>
     <use xlink:href="#DejaVuSans-20" x="512.597656"/>
     <use xlink:href="#DejaVuSans-430" x="544.384766"/>
     <use xlink:href="#DejaVuSans-43a" x="605.664062"/>
     <use xlink:href="#DejaVuSans-442" x="666.064453"/>
     <use xlink:href="#DejaVuSans-443" x="724.316406"/>
     <use xlink:href="#DejaVuSans-430" x="783.496094"/>
     <use xlink:href="#DejaVuSans-43b" x="844.775391"/>
     <use xlink:href="#DejaVuSans-438" x="908.691406"/>
     <use xlink:href="#DejaVuSans-437" x="973.681641"/>
     <use xlink:href="#DejaVuSans-430" x="1026.855469"/>
     <use xlink:href="#DejaVuSans-446" x="1088.134766"/>
     <use xlink:href="#DejaVuSans-438" x="1156.201172"/>
     <use xlink:href="#DejaVuSans-44f" x="1221.191406"/>
     <use xlink:href="#DejaVuSans-3a" x="1281.347656"/>
     <use xlink:href="#DejaVuSans-20" x="1315.039062"/>
     <use xlink:href="#DejaVuSans-31" x="1346.826172"/>
     <use xlink:href="#DejaVuSans-36" x="1410.449219"/>
     <use xlink:href="#DejaVuSans-2e" x="1474.072266"/>
     <use xlink:href="#DejaVuSans-30" x="1505.859375"/>
     <use xlink:href="#DejaVuSans-36" x="1569.482422"/>
     <use xlink:href="#DejaVuSans-2e" x="1633.105469"/>
     <use xlink:href="#DejaVuSans-32" x="1664.892578"/>
     <use xlink:href="#DejaVuSans-30" x="1728.515625"/>
     <use xlink:href="#DejaVuSans-32" x="1792.138672"/>
     <use xlink:href="#DejaVuSans-32" x="1855.761719"/>
    </g>
   </g>
   <g id="text_31">
    <!-- Кумулативен брой на ваксинираните хоспитализирани по възрастови групи -->
    <g style="fill: #262626" transform="translate(179.69375 9.51)scale(0.12 -0.12)">
     <defs>
      <path id="DejaVuSans-Bold-41a" d="M 588 4666 
L 1791 4666 
L 1791 2741 
L 3672 4666 
L 5034 4666 
L 3181 2775 
L 5138 0 
L 3813 0 
L 2409 1988 
L 1791 1356 
L 1791 0 
L 588 0 
L 588 4666 
z
" transform="scale(0.015625)"/>
      <path id="DejaVuSans-Bold-443" d="M 78 3500 
L 1197 3500 
L 2138 1125 
L 2938 3500 
L 4056 3500 
L 2584 -331 
Q 2363 -916 2067 -1148 
Q 1772 -1381 1288 -1381 
L 641 -1381 
L 641 -647 
L 991 -647 
Q 1275 -647 1404 -556 
Q 1534 -466 1606 -231 
L 1638 -134 
L 78 3500 
z
" transform="scale(0.015625)"/>
      <path id="DejaVuSans-Bold-43c" d="M 538 3500 
L 1825 3500 
L 2613 1750 
L 3400 3500 
L 4691 3500 
L 4691 0 
L 3575 0 
L 3575 1984 
L 2984 672 
L 2250 672 
L 1656 1984 
L 1656 0 
L 538 0 
L 538 3500 
z
" transform="scale(0.015625)"/>
      <path id="DejaVuSans-Bold-43b" d="M 353 0 
L 353 800 
Q 906 913 1031 1278 
Q 1125 1556 1125 2928 
L 1125 3500 
L 4150 3500 
L 4150 0 
L 3031 0 
L 3031 2700 
L 2244 2700 
L 2244 2584 
Q 2244 1213 2028 813 
Q 1591 0 353 0 
z
" transform="scale(0.015625)"/>
      <path id="DejaVuSans-Bold-430" d="M 2106 1575 
Q 1756 1575 1579 1456 
Q 1403 1338 1403 1106 
Q 1403 894 1545 773 
Q 1688 653 1941 653 
Q 2256 653 2472 879 
Q 2688 1106 2688 1447 
L 2688 1575 
L 2106 1575 
z
M 3816 1997 
L 3816 0 
L 2688 0 
L 2688 519 
Q 2463 200 2181 54 
Q 1900 -91 1497 -91 
Q 953 -91 614 226 
Q 275 544 275 1050 
Q 275 1666 698 1953 
Q 1122 2241 2028 2241 
L 2688 2241 
L 2688 2328 
Q 2688 2594 2478 2717 
Q 2269 2841 1825 2841 
Q 1466 2841 1156 2769 
Q 847 2697 581 2553 
L 581 3406 
Q 941 3494 1303 3539 
Q 1666 3584 2028 3584 
Q 2975 3584 3395 3211 
Q 3816 2838 3816 1997 
z
" transform="scale(0.015625)"/>
      <path id="DejaVuSans-Bold-442" d="M 25 3500 
L 3681 3500 
L 3681 2809 
L 2413 2809 
L 2413 0 
L 1297 0 
L 1297 2809 
L 25 2809 
L 25 3500 
z
" transform="scale(0.015625)"/>
      <path id="DejaVuSans-Bold-438" d="M 3947 3500 
L 3947 0 
L 2828 0 
L 2828 1863 
L 1700 0 
L 538 0 
L 538 3500 
L 1656 3500 
L 1656 1638 
L 2784 3500 
L 3947 3500 
z
" transform="scale(0.015625)"/>
      <path id="DejaVuSans-Bold-432" d="M 2184 2181 
Q 2378 2181 2478 2261 
Q 2578 2341 2578 2497 
Q 2578 2653 2478 2731 
Q 2378 2809 2184 2809 
L 1656 2809 
L 1656 2181 
L 2184 2181 
z
M 2222 700 
Q 2469 700 2594 798 
Q 2719 897 2719 1094 
Q 2719 1288 2594 1384 
Q 2469 1481 2222 1481 
L 1656 1481 
L 1656 700 
L 2222 700 
z
M 538 3500 
L 2141 3500 
Q 2919 3500 3267 3279 
Q 3616 3059 3616 2575 
Q 3616 2319 3487 2139 
Q 3359 1959 3119 1872 
Q 3428 1788 3598 1561 
Q 3769 1334 3769 1003 
Q 3769 497 3403 248 
Q 3038 0 2294 0 
L 538 0 
L 538 3500 
z
" transform="scale(0.015625)"/>
      <path id="DejaVuSans-Bold-435" d="M 4031 1759 
L 4031 1441 
L 1416 1441 
Q 1456 1047 1700 850 
Q 1944 653 2381 653 
Q 2734 653 3104 758 
Q 3475 863 3866 1075 
L 3866 213 
Q 3469 63 3072 -14 
Q 2675 -91 2278 -91 
Q 1328 -91 801 392 
Q 275 875 275 1747 
Q 275 2603 792 3093 
Q 1309 3584 2216 3584 
Q 3041 3584 3536 3087 
Q 4031 2591 4031 1759 
z
M 2881 2131 
Q 2881 2450 2695 2645 
Q 2509 2841 2209 2841 
Q 1884 2841 1681 2658 
Q 1478 2475 1428 2131 
L 2881 2131 
z
" transform="scale(0.015625)"/>
      <path id="DejaVuSans-Bold-43d" d="M 538 3500 
L 1656 3500 
L 1656 2169 
L 2766 2169 
L 2766 3500 
L 3884 3500 
L 3884 0 
L 2766 0 
L 2766 1478 
L 1656 1478 
L 1656 0 
L 538 0 
L 538 3500 
z
" transform="scale(0.015625)"/>
      <path id="DejaVuSans-Bold-20" transform="scale(0.015625)"/>
      <path id="DejaVuSans-Bold-431" d="M 344 1941 
L 322 2463 
Q 275 2672 275 2881 
Q 275 3494 456 3894 
Q 791 4631 1238 4781 
Q 1606 4909 3141 5031 
Q 3297 5044 3475 5072 
L 3725 4378 
Q 3488 4316 2269 4209 
Q 1734 4163 1516 4013 
Q 1153 3766 1125 3300 
Q 1584 3584 2275 3584 
Q 3178 3584 3686 3096 
Q 4194 2609 4194 1747 
Q 4194 884 3687 396 
Q 3181 -91 2275 -91 
Q 1369 -91 858 396 
Q 347 884 347 1747 
Q 347 1866 344 1941 
z
M 2272 2784 
Q 1903 2784 1708 2517 
Q 1513 2250 1513 1747 
Q 1513 1244 1708 976 
Q 1903 709 2272 709 
Q 2641 709 2834 976 
Q 3028 1244 3028 1747 
Q 3028 2250 2834 2517 
Q 2641 2784 2272 2784 
z
" transform="scale(0.015625)"/>
      <path id="DejaVuSans-Bold-440" d="M 1656 506 
L 1656 -1331 
L 538 -1331 
L 538 3500 
L 1656 3500 
L 1656 2988 
Q 1888 3294 2169 3439 
Q 2450 3584 2816 3584 
Q 3463 3584 3878 3070 
Q 4294 2556 4294 1747 
Q 4294 938 3878 423 
Q 3463 -91 2816 -91 
Q 2450 -91 2169 54 
Q 1888 200 1656 506 
z
M 2400 2772 
Q 2041 2772 1848 2508 
Q 1656 2244 1656 1747 
Q 1656 1250 1848 986 
Q 2041 722 2400 722 
Q 2759 722 2948 984 
Q 3138 1247 3138 1747 
Q 3138 2247 2948 2509 
Q 2759 2772 2400 2772 
z
" transform="scale(0.015625)"/>
      <path id="DejaVuSans-Bold-43e" d="M 2203 2784 
Q 1831 2784 1636 2517 
Q 1441 2250 1441 1747 
Q 1441 1244 1636 976 
Q 1831 709 2203 709 
Q 2569 709 2762 976 
Q 2956 1244 2956 1747 
Q 2956 2250 2762 2517 
Q 2569 2784 2203 2784 
z
M 2203 3584 
Q 3106 3584 3614 3096 
Q 4122 2609 4122 1747 
Q 4122 884 3614 396 
Q 3106 -91 2203 -91 
Q 1297 -91 786 396 
Q 275 884 275 1747 
Q 275 2609 786 3096 
Q 1297 3584 2203 3584 
z
" transform="scale(0.015625)"/>
      <path id="DejaVuSans-Bold-439" d="M 3947 3500 
L 3947 0 
L 2828 0 
L 2828 1863 
L 1700 0 
L 538 0 
L 538 3500 
L 1656 3500 
L 1656 1638 
L 2784 3500 
L 3947 3500 
z
M 1190 4891 
L 1637 4891 
Q 1671 4672 1826 4556 
Q 1981 4441 2240 4441 
Q 2499 4441 2654 4556 
Q 2809 4672 2843 4891 
L 3290 4891 
Q 3271 4441 2999 4202 
Q 2728 3963 2240 3963 
Q 1753 3963 1481 4202 
Q 1209 4441 1190 4891 
z
" transform="scale(0.015625)"/>
      <path id="DejaVuSans-Bold-43a" d="M 538 3500 
L 1656 3500 
L 1656 2316 
L 2903 3500 
L 4128 3500 
L 2634 2078 
L 4250 0 
L 3094 0 
L 1972 1447 
L 1656 1147 
L 1656 0 
L 538 0 
L 538 3500 
z
" transform="scale(0.015625)"/>
      <path id="DejaVuSans-Bold-441" d="M 3366 3391 
L 3366 2478 
Q 3138 2634 2908 2709 
Q 2678 2784 2431 2784 
Q 1963 2784 1702 2511 
Q 1441 2238 1441 1747 
Q 1441 1256 1702 982 
Q 1963 709 2431 709 
Q 2694 709 2930 787 
Q 3166 866 3366 1019 
L 3366 103 
Q 3103 6 2833 -42 
Q 2563 -91 2291 -91 
Q 1344 -91 809 395 
Q 275 881 275 1747 
Q 275 2613 809 3098 
Q 1344 3584 2291 3584 
Q 2566 3584 2833 3536 
Q 3100 3488 3366 3391 
z
" transform="scale(0.015625)"/>
      <path id="DejaVuSans-Bold-445" d="M 1422 1791 
L 159 3500 
L 1344 3500 
L 2059 2463 
L 2784 3500 
L 3969 3500 
L 2706 1797 
L 4031 0 
L 2847 0 
L 2059 1106 
L 1281 0 
L 97 0 
L 1422 1791 
z
" transform="scale(0.015625)"/>
      <path id="DejaVuSans-Bold-43f" d="M 3884 3500 
L 3884 0 
L 2766 0 
L 2766 2700 
L 1656 2700 
L 1656 0 
L 538 0 
L 538 3500 
L 3884 3500 
z
" transform="scale(0.015625)"/>
      <path id="DejaVuSans-Bold-437" d="M 900 2181 
L 1413 2181 
Q 1872 2181 2039 2281 
Q 2206 2381 2206 2519 
Q 2206 2841 1469 2841 
Q 853 2841 472 2625 
L 472 3434 
Q 1041 3584 1713 3584 
Q 2500 3584 2862 3361 
Q 3225 3138 3225 2666 
Q 3225 2047 2541 1888 
Q 3313 1697 3313 994 
Q 3313 453 2888 181 
Q 2463 -91 1553 -91 
Q 875 -91 313 84 
L 313 947 
Q 1013 653 1428 653 
Q 1884 653 2089 776 
Q 2294 900 2294 1056 
Q 2294 1491 1394 1491 
L 900 1491 
L 900 2181 
z
" transform="scale(0.015625)"/>
      <path id="DejaVuSans-Bold-44a" d="M 3009 700 
Q 3256 700 3381 798 
Q 3506 897 3506 1094 
Q 3506 1288 3382 1384 
Q 3259 1481 3009 1481 
L 2444 1481 
L 2444 700 
L 3009 700 
z
M 1325 0 
L 1325 2809 
L 125 2809 
L 125 3500 
L 2444 3500 
L 2444 2172 
L 3078 2172 
Q 3788 2172 4170 1911 
Q 4553 1650 4553 1081 
Q 4553 513 4167 256 
Q 3781 0 3078 0 
L 1325 0 
z
" transform="scale(0.015625)"/>
      <path id="DejaVuSans-Bold-433" d="M 538 0 
L 538 3500 
L 3191 3500 
L 3191 2809 
L 1656 2809 
L 1656 0 
L 538 0 
z
" transform="scale(0.015625)"/>
     </defs>
     <use xlink:href="#DejaVuSans-Bold-41a"/>
     <use xlink:href="#DejaVuSans-Bold-443" x="81.738281"/>
     <use xlink:href="#DejaVuSans-Bold-43c" x="146.923828"/>
     <use xlink:href="#DejaVuSans-Bold-443" x="228.662109"/>
     <use xlink:href="#DejaVuSans-Bold-43b" x="293.847656"/>
     <use xlink:href="#DejaVuSans-Bold-430" x="367.089844"/>
     <use xlink:href="#DejaVuSans-Bold-442" x="434.570312"/>
     <use xlink:href="#DejaVuSans-Bold-438" x="492.529297"/>
     <use xlink:href="#DejaVuSans-Bold-432" x="562.597656"/>
     <use xlink:href="#DejaVuSans-Bold-435" x="625.878906"/>
     <use xlink:href="#DejaVuSans-Bold-43d" x="693.701172"/>
     <use xlink:href="#DejaVuSans-Bold-20" x="762.792969"/>
     <use xlink:href="#DejaVuSans-Bold-431" x="797.607422"/>
     <use xlink:href="#DejaVuSans-Bold-440" x="867.431641"/>
     <use xlink:href="#DejaVuSans-Bold-43e" x="939.013672"/>
     <use xlink:href="#DejaVuSans-Bold-439" x="1007.714844"/>
     <use xlink:href="#DejaVuSans-Bold-20" x="1077.783203"/>
     <use xlink:href="#DejaVuSans-Bold-43d" x="1112.597656"/>
     <use xlink:href="#DejaVuSans-Bold-430" x="1181.689453"/>
     <use xlink:href="#DejaVuSans-Bold-20" x="1249.169922"/>
     <use xlink:href="#DejaVuSans-Bold-432" x="1283.984375"/>
     <use xlink:href="#DejaVuSans-Bold-430" x="1347.265625"/>
     <use xlink:href="#DejaVuSans-Bold-43a" x="1414.746094"/>
     <use xlink:href="#DejaVuSans-Bold-441" x="1482.617188"/>
     <use xlink:href="#DejaVuSans-Bold-438" x="1541.894531"/>
     <use xlink:href="#DejaVuSans-Bold-43d" x="1611.962891"/>
     <use xlink:href="#DejaVuSans-Bold-438" x="1681.054688"/>
     <use xlink:href="#DejaVuSans-Bold-440" x="1751.123047"/>
     <use xlink:href="#DejaVuSans-Bold-430" x="1822.705078"/>
     <use xlink:href="#DejaVuSans-Bold-43d" x="1890.185547"/>
     <use xlink:href="#DejaVuSans-Bold-438" x="1959.277344"/>
     <use xlink:href="#DejaVuSans-Bold-442" x="2029.345703"/>
     <use xlink:href="#DejaVuSans-Bold-435" x="2087.304688"/>
     <use xlink:href="#DejaVuSans-Bold-20" x="2155.126953"/>
     <use xlink:href="#DejaVuSans-Bold-445" x="2189.941406"/>
     <use xlink:href="#DejaVuSans-Bold-43e" x="2254.443359"/>
     <use xlink:href="#DejaVuSans-Bold-441" x="2323.144531"/>
     <use xlink:href="#DejaVuSans-Bold-43f" x="2382.421875"/>
     <use xlink:href="#DejaVuSans-Bold-438" x="2451.513672"/>
     <use xlink:href="#DejaVuSans-Bold-442" x="2521.582031"/>
     <use xlink:href="#DejaVuSans-Bold-430" x="2579.541016"/>
     <use xlink:href="#DejaVuSans-Bold-43b" x="2647.021484"/>
     <use xlink:href="#DejaVuSans-Bold-438" x="2720.263672"/>
     <use xlink:href="#DejaVuSans-Bold-437" x="2790.332031"/>
     <use xlink:href="#DejaVuSans-Bold-438" x="2848.4375"/>
     <use xlink:href="#DejaVuSans-Bold-440" x="2918.505859"/>
     <use xlink:href="#DejaVuSans-Bold-430" x="2990.087891"/>
     <use xlink:href="#DejaVuSans-Bold-43d" x="3057.568359"/>
     <use xlink:href="#DejaVuSans-Bold-438" x="3126.660156"/>
     <use xlink:href="#DejaVuSans-Bold-20" x="3196.728516"/>
     <use xlink:href="#DejaVuSans-Bold-43f" x="3231.542969"/>
     <use xlink:href="#DejaVuSans-Bold-43e" x="3300.634766"/>
     <use xlink:href="#DejaVuSans-Bold-20" x="3369.335938"/>
     <use xlink:href="#DejaVuSans-Bold-432" x="3404.150391"/>
     <use xlink:href="#DejaVuSans-Bold-44a" x="3467.431641"/>
     <use xlink:href="#DejaVuSans-Bold-437" x="3542.578125"/>
     <use xlink:href="#DejaVuSans-Bold-440" x="3600.683594"/>
     <use xlink:href="#DejaVuSans-Bold-430" x="3672.265625"/>
     <use xlink:href="#DejaVuSans-Bold-441" x="3739.746094"/>
     <use xlink:href="#DejaVuSans-Bold-442" x="3799.023438"/>
     <use xlink:href="#DejaVuSans-Bold-43e" x="3856.982422"/>
     <use xlink:href="#DejaVuSans-Bold-432" x="3925.683594"/>
     <use xlink:href="#DejaVuSans-Bold-438" x="3988.964844"/>
     <use xlink:href="#DejaVuSans-Bold-20" x="4059.033203"/>
     <use xlink:href="#DejaVuSans-Bold-433" x="4093.847656"/>
     <use xlink:href="#DejaVuSans-Bold-440" x="4146.09375"/>
     <use xlink:href="#DejaVuSans-Bold-443" x="4217.675781"/>
     <use xlink:href="#DejaVuSans-Bold-43f" x="4282.861328"/>
     <use xlink:href="#DejaVuSans-Bold-438" x="4351.953125"/>
    </g>
   </g>
  </g>
 </g>
 <defs>
  <clipPath id="p7af3cf3d17">
   <rect x="53.10875" y="29.51" width="783.81" height="482.6275"/>
  </clipPath>
 </defs>
</svg>
