<?xml version="1.0" encoding="utf-8" standalone="no"?>
<!DOCTYPE svg PUBLIC "-//W3C//DTD SVG 1.1//EN"
  "http://www.w3.org/Graphics/SVG/1.1/DTD/svg11.dtd">
<svg xmlns:xlink="http://www.w3.org/1999/xlink" width="837.220625pt" height="547.904678pt" viewBox="0 0 837.220625 547.904678" xmlns="http://www.w3.org/2000/svg" version="1.1">
 <metadata>
  <rdf:RDF xmlns:dc="http://purl.org/dc/elements/1.1/" xmlns:cc="http://creativecommons.org/ns#" xmlns:rdf="http://www.w3.org/1999/02/22-rdf-syntax-ns#">
   <cc:Work>
    <dc:type rdf:resource="http://purl.org/dc/dcmitype/StillImage"/>
    <dc:date>2022-01-28T01:36:11.883911</dc:date>
    <dc:format>image/svg+xml</dc:format>
    <dc:creator>
     <cc:Agent>
      <dc:title>Matplotlib v3.5.1, https://matplotlib.org/</dc:title>
     </cc:Agent>
    </dc:creator>
   </cc:Work>
  </rdf:RDF>
 </metadata>
 <defs>
  <style type="text/css">*{stroke-linejoin: round; stroke-linecap: butt}</style>
 </defs>
 <g id="figure_1">
  <g id="patch_1">
   <path d="M 0 547.904678 
L 837.220625 547.904678 
L 837.220625 0 
L 0 0 
L 0 547.904678 
z
" style="fill: none"/>
  </g>
  <g id="axes_1">
   <g id="patch_2">
    <path d="M 52.098125 470.728203 
L 765.728125 470.728203 
L 765.728125 29.118125 
L 52.098125 29.118125 
L 52.098125 470.728203 
z
" style="fill: none"/>
   </g>
   <g id="matplotlib.axis_1">
    <g id="xtick_1">
     <g id="line2d_1">
      <path d="M 91.088928 470.728203 
L 91.088928 29.118125 
" clip-path="url(#pfe4c3dd45c)" style="fill: none; stroke: #cccccc; stroke-linecap: round"/>
     </g>
     <g id="line2d_2">
      <defs>
       <path id="me8727cd6a8" d="M 0 0 
L 0 6 
" style="stroke: #262626; stroke-width: 1.25"/>
      </defs>
      <g>
       <use xlink:href="#me8727cd6a8" x="91.088928" y="470.728203" style="fill: #262626; stroke: #262626; stroke-width: 1.25"/>
      </g>
     </g>
     <g id="text_1">
      <!-- 02.01.2021 -->
      <g style="fill: #262626" transform="translate(44.9364 530.673311)rotate(-45)scale(0.11 -0.11)">
       <defs>
        <path id="DejaVuSans-30" d="M 2034 4250 
Q 1547 4250 1301 3770 
Q 1056 3291 1056 2328 
Q 1056 1369 1301 889 
Q 1547 409 2034 409 
Q 2525 409 2770 889 
Q 3016 1369 3016 2328 
Q 3016 3291 2770 3770 
Q 2525 4250 2034 4250 
z
M 2034 4750 
Q 2819 4750 3233 4129 
Q 3647 3509 3647 2328 
Q 3647 1150 3233 529 
Q 2819 -91 2034 -91 
Q 1250 -91 836 529 
Q 422 1150 422 2328 
Q 422 3509 836 4129 
Q 1250 4750 2034 4750 
z
" transform="scale(0.015625)"/>
        <path id="DejaVuSans-32" d="M 1228 531 
L 3431 531 
L 3431 0 
L 469 0 
L 469 531 
Q 828 903 1448 1529 
Q 2069 2156 2228 2338 
Q 2531 2678 2651 2914 
Q 2772 3150 2772 3378 
Q 2772 3750 2511 3984 
Q 2250 4219 1831 4219 
Q 1534 4219 1204 4116 
Q 875 4013 500 3803 
L 500 4441 
Q 881 4594 1212 4672 
Q 1544 4750 1819 4750 
Q 2544 4750 2975 4387 
Q 3406 4025 3406 3419 
Q 3406 3131 3298 2873 
Q 3191 2616 2906 2266 
Q 2828 2175 2409 1742 
Q 1991 1309 1228 531 
z
" transform="scale(0.015625)"/>
        <path id="DejaVuSans-2e" d="M 684 794 
L 1344 794 
L 1344 0 
L 684 0 
L 684 794 
z
" transform="scale(0.015625)"/>
        <path id="DejaVuSans-31" d="M 794 531 
L 1825 531 
L 1825 4091 
L 703 3866 
L 703 4441 
L 1819 4666 
L 2450 4666 
L 2450 531 
L 3481 531 
L 3481 0 
L 794 0 
L 794 531 
z
" transform="scale(0.015625)"/>
       </defs>
       <use xlink:href="#DejaVuSans-30"/>
       <use xlink:href="#DejaVuSans-32" x="63.623047"/>
       <use xlink:href="#DejaVuSans-2e" x="127.246094"/>
       <use xlink:href="#DejaVuSans-30" x="159.033203"/>
       <use xlink:href="#DejaVuSans-31" x="222.65625"/>
       <use xlink:href="#DejaVuSans-2e" x="286.279297"/>
       <use xlink:href="#DejaVuSans-32" x="318.066406"/>
       <use xlink:href="#DejaVuSans-30" x="381.689453"/>
       <use xlink:href="#DejaVuSans-32" x="445.3125"/>
       <use xlink:href="#DejaVuSans-31" x="508.935547"/>
      </g>
     </g>
    </g>
    <g id="xtick_2">
     <g id="line2d_3">
      <path d="M 114.024695 470.728203 
L 114.024695 29.118125 
" clip-path="url(#pfe4c3dd45c)" style="fill: none; stroke: #cccccc; stroke-linecap: round"/>
     </g>
     <g id="line2d_4">
      <g>
       <use xlink:href="#me8727cd6a8" x="114.024695" y="470.728203" style="fill: #262626; stroke: #262626; stroke-width: 1.25"/>
      </g>
     </g>
     <g id="text_2">
      <!-- 16.01.2021 -->
      <g style="fill: #262626" transform="translate(67.872167 530.673311)rotate(-45)scale(0.11 -0.11)">
       <defs>
        <path id="DejaVuSans-36" d="M 2113 2584 
Q 1688 2584 1439 2293 
Q 1191 2003 1191 1497 
Q 1191 994 1439 701 
Q 1688 409 2113 409 
Q 2538 409 2786 701 
Q 3034 994 3034 1497 
Q 3034 2003 2786 2293 
Q 2538 2584 2113 2584 
z
M 3366 4563 
L 3366 3988 
Q 3128 4100 2886 4159 
Q 2644 4219 2406 4219 
Q 1781 4219 1451 3797 
Q 1122 3375 1075 2522 
Q 1259 2794 1537 2939 
Q 1816 3084 2150 3084 
Q 2853 3084 3261 2657 
Q 3669 2231 3669 1497 
Q 3669 778 3244 343 
Q 2819 -91 2113 -91 
Q 1303 -91 875 529 
Q 447 1150 447 2328 
Q 447 3434 972 4092 
Q 1497 4750 2381 4750 
Q 2619 4750 2861 4703 
Q 3103 4656 3366 4563 
z
" transform="scale(0.015625)"/>
       </defs>
       <use xlink:href="#DejaVuSans-31"/>
       <use xlink:href="#DejaVuSans-36" x="63.623047"/>
       <use xlink:href="#DejaVuSans-2e" x="127.246094"/>
       <use xlink:href="#DejaVuSans-30" x="159.033203"/>
       <use xlink:href="#DejaVuSans-31" x="222.65625"/>
       <use xlink:href="#DejaVuSans-2e" x="286.279297"/>
       <use xlink:href="#DejaVuSans-32" x="318.066406"/>
       <use xlink:href="#DejaVuSans-30" x="381.689453"/>
       <use xlink:href="#DejaVuSans-32" x="445.3125"/>
       <use xlink:href="#DejaVuSans-31" x="508.935547"/>
      </g>
     </g>
    </g>
    <g id="xtick_3">
     <g id="line2d_5">
      <path d="M 136.960462 470.728203 
L 136.960462 29.118125 
" clip-path="url(#pfe4c3dd45c)" style="fill: none; stroke: #cccccc; stroke-linecap: round"/>
     </g>
     <g id="line2d_6">
      <g>
       <use xlink:href="#me8727cd6a8" x="136.960462" y="470.728203" style="fill: #262626; stroke: #262626; stroke-width: 1.25"/>
      </g>
     </g>
     <g id="text_3">
      <!-- 30.01.2021 -->
      <g style="fill: #262626" transform="translate(90.807934 530.673311)rotate(-45)scale(0.11 -0.11)">
       <defs>
        <path id="DejaVuSans-33" d="M 2597 2516 
Q 3050 2419 3304 2112 
Q 3559 1806 3559 1356 
Q 3559 666 3084 287 
Q 2609 -91 1734 -91 
Q 1441 -91 1130 -33 
Q 819 25 488 141 
L 488 750 
Q 750 597 1062 519 
Q 1375 441 1716 441 
Q 2309 441 2620 675 
Q 2931 909 2931 1356 
Q 2931 1769 2642 2001 
Q 2353 2234 1838 2234 
L 1294 2234 
L 1294 2753 
L 1863 2753 
Q 2328 2753 2575 2939 
Q 2822 3125 2822 3475 
Q 2822 3834 2567 4026 
Q 2313 4219 1838 4219 
Q 1578 4219 1281 4162 
Q 984 4106 628 3988 
L 628 4550 
Q 988 4650 1302 4700 
Q 1616 4750 1894 4750 
Q 2613 4750 3031 4423 
Q 3450 4097 3450 3541 
Q 3450 3153 3228 2886 
Q 3006 2619 2597 2516 
z
" transform="scale(0.015625)"/>
       </defs>
       <use xlink:href="#DejaVuSans-33"/>
       <use xlink:href="#DejaVuSans-30" x="63.623047"/>
       <use xlink:href="#DejaVuSans-2e" x="127.246094"/>
       <use xlink:href="#DejaVuSans-30" x="159.033203"/>
       <use xlink:href="#DejaVuSans-31" x="222.65625"/>
       <use xlink:href="#DejaVuSans-2e" x="286.279297"/>
       <use xlink:href="#DejaVuSans-32" x="318.066406"/>
       <use xlink:href="#DejaVuSans-30" x="381.689453"/>
       <use xlink:href="#DejaVuSans-32" x="445.3125"/>
       <use xlink:href="#DejaVuSans-31" x="508.935547"/>
      </g>
     </g>
    </g>
    <g id="xtick_4">
     <g id="line2d_7">
      <path d="M 159.896229 470.728203 
L 159.896229 29.118125 
" clip-path="url(#pfe4c3dd45c)" style="fill: none; stroke: #cccccc; stroke-linecap: round"/>
     </g>
     <g id="line2d_8">
      <g>
       <use xlink:href="#me8727cd6a8" x="159.896229" y="470.728203" style="fill: #262626; stroke: #262626; stroke-width: 1.25"/>
      </g>
     </g>
     <g id="text_4">
      <!-- 13.02.2021 -->
      <g style="fill: #262626" transform="translate(113.743701 530.673311)rotate(-45)scale(0.11 -0.11)">
       <use xlink:href="#DejaVuSans-31"/>
       <use xlink:href="#DejaVuSans-33" x="63.623047"/>
       <use xlink:href="#DejaVuSans-2e" x="127.246094"/>
       <use xlink:href="#DejaVuSans-30" x="159.033203"/>
       <use xlink:href="#DejaVuSans-32" x="222.65625"/>
       <use xlink:href="#DejaVuSans-2e" x="286.279297"/>
       <use xlink:href="#DejaVuSans-32" x="318.066406"/>
       <use xlink:href="#DejaVuSans-30" x="381.689453"/>
       <use xlink:href="#DejaVuSans-32" x="445.3125"/>
       <use xlink:href="#DejaVuSans-31" x="508.935547"/>
      </g>
     </g>
    </g>
    <g id="xtick_5">
     <g id="line2d_9">
      <path d="M 182.831996 470.728203 
L 182.831996 29.118125 
" clip-path="url(#pfe4c3dd45c)" style="fill: none; stroke: #cccccc; stroke-linecap: round"/>
     </g>
     <g id="line2d_10">
      <g>
       <use xlink:href="#me8727cd6a8" x="182.831996" y="470.728203" style="fill: #262626; stroke: #262626; stroke-width: 1.25"/>
      </g>
     </g>
     <g id="text_5">
      <!-- 27.02.2021 -->
      <g style="fill: #262626" transform="translate(136.679467 530.673311)rotate(-45)scale(0.11 -0.11)">
       <defs>
        <path id="DejaVuSans-37" d="M 525 4666 
L 3525 4666 
L 3525 4397 
L 1831 0 
L 1172 0 
L 2766 4134 
L 525 4134 
L 525 4666 
z
" transform="scale(0.015625)"/>
       </defs>
       <use xlink:href="#DejaVuSans-32"/>
       <use xlink:href="#DejaVuSans-37" x="63.623047"/>
       <use xlink:href="#DejaVuSans-2e" x="127.246094"/>
       <use xlink:href="#DejaVuSans-30" x="159.033203"/>
       <use xlink:href="#DejaVuSans-32" x="222.65625"/>
       <use xlink:href="#DejaVuSans-2e" x="286.279297"/>
       <use xlink:href="#DejaVuSans-32" x="318.066406"/>
       <use xlink:href="#DejaVuSans-30" x="381.689453"/>
       <use xlink:href="#DejaVuSans-32" x="445.3125"/>
       <use xlink:href="#DejaVuSans-31" x="508.935547"/>
      </g>
     </g>
    </g>
    <g id="xtick_6">
     <g id="line2d_11">
      <path d="M 205.767762 470.728203 
L 205.767762 29.118125 
" clip-path="url(#pfe4c3dd45c)" style="fill: none; stroke: #cccccc; stroke-linecap: round"/>
     </g>
     <g id="line2d_12">
      <g>
       <use xlink:href="#me8727cd6a8" x="205.767762" y="470.728203" style="fill: #262626; stroke: #262626; stroke-width: 1.25"/>
      </g>
     </g>
     <g id="text_6">
      <!-- 13.03.2021 -->
      <g style="fill: #262626" transform="translate(159.615234 530.673311)rotate(-45)scale(0.11 -0.11)">
       <use xlink:href="#DejaVuSans-31"/>
       <use xlink:href="#DejaVuSans-33" x="63.623047"/>
       <use xlink:href="#DejaVuSans-2e" x="127.246094"/>
       <use xlink:href="#DejaVuSans-30" x="159.033203"/>
       <use xlink:href="#DejaVuSans-33" x="222.65625"/>
       <use xlink:href="#DejaVuSans-2e" x="286.279297"/>
       <use xlink:href="#DejaVuSans-32" x="318.066406"/>
       <use xlink:href="#DejaVuSans-30" x="381.689453"/>
       <use xlink:href="#DejaVuSans-32" x="445.3125"/>
       <use xlink:href="#DejaVuSans-31" x="508.935547"/>
      </g>
     </g>
    </g>
    <g id="xtick_7">
     <g id="line2d_13">
      <path d="M 228.703529 470.728203 
L 228.703529 29.118125 
" clip-path="url(#pfe4c3dd45c)" style="fill: none; stroke: #cccccc; stroke-linecap: round"/>
     </g>
     <g id="line2d_14">
      <g>
       <use xlink:href="#me8727cd6a8" x="228.703529" y="470.728203" style="fill: #262626; stroke: #262626; stroke-width: 1.25"/>
      </g>
     </g>
     <g id="text_7">
      <!-- 27.03.2021 -->
      <g style="fill: #262626" transform="translate(182.551001 530.673311)rotate(-45)scale(0.11 -0.11)">
       <use xlink:href="#DejaVuSans-32"/>
       <use xlink:href="#DejaVuSans-37" x="63.623047"/>
       <use xlink:href="#DejaVuSans-2e" x="127.246094"/>
       <use xlink:href="#DejaVuSans-30" x="159.033203"/>
       <use xlink:href="#DejaVuSans-33" x="222.65625"/>
       <use xlink:href="#DejaVuSans-2e" x="286.279297"/>
       <use xlink:href="#DejaVuSans-32" x="318.066406"/>
       <use xlink:href="#DejaVuSans-30" x="381.689453"/>
       <use xlink:href="#DejaVuSans-32" x="445.3125"/>
       <use xlink:href="#DejaVuSans-31" x="508.935547"/>
      </g>
     </g>
    </g>
    <g id="xtick_8">
     <g id="line2d_15">
      <path d="M 251.639296 470.728203 
L 251.639296 29.118125 
" clip-path="url(#pfe4c3dd45c)" style="fill: none; stroke: #cccccc; stroke-linecap: round"/>
     </g>
     <g id="line2d_16">
      <g>
       <use xlink:href="#me8727cd6a8" x="251.639296" y="470.728203" style="fill: #262626; stroke: #262626; stroke-width: 1.25"/>
      </g>
     </g>
     <g id="text_8">
      <!-- 10.04.2021 -->
      <g style="fill: #262626" transform="translate(205.486768 530.673311)rotate(-45)scale(0.11 -0.11)">
       <defs>
        <path id="DejaVuSans-34" d="M 2419 4116 
L 825 1625 
L 2419 1625 
L 2419 4116 
z
M 2253 4666 
L 3047 4666 
L 3047 1625 
L 3713 1625 
L 3713 1100 
L 3047 1100 
L 3047 0 
L 2419 0 
L 2419 1100 
L 313 1100 
L 313 1709 
L 2253 4666 
z
" transform="scale(0.015625)"/>
       </defs>
       <use xlink:href="#DejaVuSans-31"/>
       <use xlink:href="#DejaVuSans-30" x="63.623047"/>
       <use xlink:href="#DejaVuSans-2e" x="127.246094"/>
       <use xlink:href="#DejaVuSans-30" x="159.033203"/>
       <use xlink:href="#DejaVuSans-34" x="222.65625"/>
       <use xlink:href="#DejaVuSans-2e" x="286.279297"/>
       <use xlink:href="#DejaVuSans-32" x="318.066406"/>
       <use xlink:href="#DejaVuSans-30" x="381.689453"/>
       <use xlink:href="#DejaVuSans-32" x="445.3125"/>
       <use xlink:href="#DejaVuSans-31" x="508.935547"/>
      </g>
     </g>
    </g>
    <g id="xtick_9">
     <g id="line2d_17">
      <path d="M 274.575063 470.728203 
L 274.575063 29.118125 
" clip-path="url(#pfe4c3dd45c)" style="fill: none; stroke: #cccccc; stroke-linecap: round"/>
     </g>
     <g id="line2d_18">
      <g>
       <use xlink:href="#me8727cd6a8" x="274.575063" y="470.728203" style="fill: #262626; stroke: #262626; stroke-width: 1.25"/>
      </g>
     </g>
     <g id="text_9">
      <!-- 24.04.2021 -->
      <g style="fill: #262626" transform="translate(228.422534 530.673311)rotate(-45)scale(0.11 -0.11)">
       <use xlink:href="#DejaVuSans-32"/>
       <use xlink:href="#DejaVuSans-34" x="63.623047"/>
       <use xlink:href="#DejaVuSans-2e" x="127.246094"/>
       <use xlink:href="#DejaVuSans-30" x="159.033203"/>
       <use xlink:href="#DejaVuSans-34" x="222.65625"/>
       <use xlink:href="#DejaVuSans-2e" x="286.279297"/>
       <use xlink:href="#DejaVuSans-32" x="318.066406"/>
       <use xlink:href="#DejaVuSans-30" x="381.689453"/>
       <use xlink:href="#DejaVuSans-32" x="445.3125"/>
       <use xlink:href="#DejaVuSans-31" x="508.935547"/>
      </g>
     </g>
    </g>
    <g id="xtick_10">
     <g id="line2d_19">
      <path d="M 297.510829 470.728203 
L 297.510829 29.118125 
" clip-path="url(#pfe4c3dd45c)" style="fill: none; stroke: #cccccc; stroke-linecap: round"/>
     </g>
     <g id="line2d_20">
      <g>
       <use xlink:href="#me8727cd6a8" x="297.510829" y="470.728203" style="fill: #262626; stroke: #262626; stroke-width: 1.25"/>
      </g>
     </g>
     <g id="text_10">
      <!-- 08.05.2021 -->
      <g style="fill: #262626" transform="translate(251.358301 530.673311)rotate(-45)scale(0.11 -0.11)">
       <defs>
        <path id="DejaVuSans-38" d="M 2034 2216 
Q 1584 2216 1326 1975 
Q 1069 1734 1069 1313 
Q 1069 891 1326 650 
Q 1584 409 2034 409 
Q 2484 409 2743 651 
Q 3003 894 3003 1313 
Q 3003 1734 2745 1975 
Q 2488 2216 2034 2216 
z
M 1403 2484 
Q 997 2584 770 2862 
Q 544 3141 544 3541 
Q 544 4100 942 4425 
Q 1341 4750 2034 4750 
Q 2731 4750 3128 4425 
Q 3525 4100 3525 3541 
Q 3525 3141 3298 2862 
Q 3072 2584 2669 2484 
Q 3125 2378 3379 2068 
Q 3634 1759 3634 1313 
Q 3634 634 3220 271 
Q 2806 -91 2034 -91 
Q 1263 -91 848 271 
Q 434 634 434 1313 
Q 434 1759 690 2068 
Q 947 2378 1403 2484 
z
M 1172 3481 
Q 1172 3119 1398 2916 
Q 1625 2713 2034 2713 
Q 2441 2713 2670 2916 
Q 2900 3119 2900 3481 
Q 2900 3844 2670 4047 
Q 2441 4250 2034 4250 
Q 1625 4250 1398 4047 
Q 1172 3844 1172 3481 
z
" transform="scale(0.015625)"/>
        <path id="DejaVuSans-35" d="M 691 4666 
L 3169 4666 
L 3169 4134 
L 1269 4134 
L 1269 2991 
Q 1406 3038 1543 3061 
Q 1681 3084 1819 3084 
Q 2600 3084 3056 2656 
Q 3513 2228 3513 1497 
Q 3513 744 3044 326 
Q 2575 -91 1722 -91 
Q 1428 -91 1123 -41 
Q 819 9 494 109 
L 494 744 
Q 775 591 1075 516 
Q 1375 441 1709 441 
Q 2250 441 2565 725 
Q 2881 1009 2881 1497 
Q 2881 1984 2565 2268 
Q 2250 2553 1709 2553 
Q 1456 2553 1204 2497 
Q 953 2441 691 2322 
L 691 4666 
z
" transform="scale(0.015625)"/>
       </defs>
       <use xlink:href="#DejaVuSans-30"/>
       <use xlink:href="#DejaVuSans-38" x="63.623047"/>
       <use xlink:href="#DejaVuSans-2e" x="127.246094"/>
       <use xlink:href="#DejaVuSans-30" x="159.033203"/>
       <use xlink:href="#DejaVuSans-35" x="222.65625"/>
       <use xlink:href="#DejaVuSans-2e" x="286.279297"/>
       <use xlink:href="#DejaVuSans-32" x="318.066406"/>
       <use xlink:href="#DejaVuSans-30" x="381.689453"/>
       <use xlink:href="#DejaVuSans-32" x="445.3125"/>
       <use xlink:href="#DejaVuSans-31" x="508.935547"/>
      </g>
     </g>
    </g>
    <g id="xtick_11">
     <g id="line2d_21">
      <path d="M 320.446596 470.728203 
L 320.446596 29.118125 
" clip-path="url(#pfe4c3dd45c)" style="fill: none; stroke: #cccccc; stroke-linecap: round"/>
     </g>
     <g id="line2d_22">
      <g>
       <use xlink:href="#me8727cd6a8" x="320.446596" y="470.728203" style="fill: #262626; stroke: #262626; stroke-width: 1.25"/>
      </g>
     </g>
     <g id="text_11">
      <!-- 22.05.2021 -->
      <g style="fill: #262626" transform="translate(274.294068 530.673311)rotate(-45)scale(0.11 -0.11)">
       <use xlink:href="#DejaVuSans-32"/>
       <use xlink:href="#DejaVuSans-32" x="63.623047"/>
       <use xlink:href="#DejaVuSans-2e" x="127.246094"/>
       <use xlink:href="#DejaVuSans-30" x="159.033203"/>
       <use xlink:href="#DejaVuSans-35" x="222.65625"/>
       <use xlink:href="#DejaVuSans-2e" x="286.279297"/>
       <use xlink:href="#DejaVuSans-32" x="318.066406"/>
       <use xlink:href="#DejaVuSans-30" x="381.689453"/>
       <use xlink:href="#DejaVuSans-32" x="445.3125"/>
       <use xlink:href="#DejaVuSans-31" x="508.935547"/>
      </g>
     </g>
    </g>
    <g id="xtick_12">
     <g id="line2d_23">
      <path d="M 343.382363 470.728203 
L 343.382363 29.118125 
" clip-path="url(#pfe4c3dd45c)" style="fill: none; stroke: #cccccc; stroke-linecap: round"/>
     </g>
     <g id="line2d_24">
      <g>
       <use xlink:href="#me8727cd6a8" x="343.382363" y="470.728203" style="fill: #262626; stroke: #262626; stroke-width: 1.25"/>
      </g>
     </g>
     <g id="text_12">
      <!-- 05.06.2021 -->
      <g style="fill: #262626" transform="translate(297.229835 530.673311)rotate(-45)scale(0.11 -0.11)">
       <use xlink:href="#DejaVuSans-30"/>
       <use xlink:href="#DejaVuSans-35" x="63.623047"/>
       <use xlink:href="#DejaVuSans-2e" x="127.246094"/>
       <use xlink:href="#DejaVuSans-30" x="159.033203"/>
       <use xlink:href="#DejaVuSans-36" x="222.65625"/>
       <use xlink:href="#DejaVuSans-2e" x="286.279297"/>
       <use xlink:href="#DejaVuSans-32" x="318.066406"/>
       <use xlink:href="#DejaVuSans-30" x="381.689453"/>
       <use xlink:href="#DejaVuSans-32" x="445.3125"/>
       <use xlink:href="#DejaVuSans-31" x="508.935547"/>
      </g>
     </g>
    </g>
    <g id="xtick_13">
     <g id="line2d_25">
      <path d="M 366.31813 470.728203 
L 366.31813 29.118125 
" clip-path="url(#pfe4c3dd45c)" style="fill: none; stroke: #cccccc; stroke-linecap: round"/>
     </g>
     <g id="line2d_26">
      <g>
       <use xlink:href="#me8727cd6a8" x="366.31813" y="470.728203" style="fill: #262626; stroke: #262626; stroke-width: 1.25"/>
      </g>
     </g>
     <g id="text_13">
      <!-- 19.06.2021 -->
      <g style="fill: #262626" transform="translate(320.165601 530.673311)rotate(-45)scale(0.11 -0.11)">
       <defs>
        <path id="DejaVuSans-39" d="M 703 97 
L 703 672 
Q 941 559 1184 500 
Q 1428 441 1663 441 
Q 2288 441 2617 861 
Q 2947 1281 2994 2138 
Q 2813 1869 2534 1725 
Q 2256 1581 1919 1581 
Q 1219 1581 811 2004 
Q 403 2428 403 3163 
Q 403 3881 828 4315 
Q 1253 4750 1959 4750 
Q 2769 4750 3195 4129 
Q 3622 3509 3622 2328 
Q 3622 1225 3098 567 
Q 2575 -91 1691 -91 
Q 1453 -91 1209 -44 
Q 966 3 703 97 
z
M 1959 2075 
Q 2384 2075 2632 2365 
Q 2881 2656 2881 3163 
Q 2881 3666 2632 3958 
Q 2384 4250 1959 4250 
Q 1534 4250 1286 3958 
Q 1038 3666 1038 3163 
Q 1038 2656 1286 2365 
Q 1534 2075 1959 2075 
z
" transform="scale(0.015625)"/>
       </defs>
       <use xlink:href="#DejaVuSans-31"/>
       <use xlink:href="#DejaVuSans-39" x="63.623047"/>
       <use xlink:href="#DejaVuSans-2e" x="127.246094"/>
       <use xlink:href="#DejaVuSans-30" x="159.033203"/>
       <use xlink:href="#DejaVuSans-36" x="222.65625"/>
       <use xlink:href="#DejaVuSans-2e" x="286.279297"/>
       <use xlink:href="#DejaVuSans-32" x="318.066406"/>
       <use xlink:href="#DejaVuSans-30" x="381.689453"/>
       <use xlink:href="#DejaVuSans-32" x="445.3125"/>
       <use xlink:href="#DejaVuSans-31" x="508.935547"/>
      </g>
     </g>
    </g>
    <g id="xtick_14">
     <g id="line2d_27">
      <path d="M 389.253896 470.728203 
L 389.253896 29.118125 
" clip-path="url(#pfe4c3dd45c)" style="fill: none; stroke: #cccccc; stroke-linecap: round"/>
     </g>
     <g id="line2d_28">
      <g>
       <use xlink:href="#me8727cd6a8" x="389.253896" y="470.728203" style="fill: #262626; stroke: #262626; stroke-width: 1.25"/>
      </g>
     </g>
     <g id="text_14">
      <!-- 03.07.2021 -->
      <g style="fill: #262626" transform="translate(343.101368 530.673311)rotate(-45)scale(0.11 -0.11)">
       <use xlink:href="#DejaVuSans-30"/>
       <use xlink:href="#DejaVuSans-33" x="63.623047"/>
       <use xlink:href="#DejaVuSans-2e" x="127.246094"/>
       <use xlink:href="#DejaVuSans-30" x="159.033203"/>
       <use xlink:href="#DejaVuSans-37" x="222.65625"/>
       <use xlink:href="#DejaVuSans-2e" x="286.279297"/>
       <use xlink:href="#DejaVuSans-32" x="318.066406"/>
       <use xlink:href="#DejaVuSans-30" x="381.689453"/>
       <use xlink:href="#DejaVuSans-32" x="445.3125"/>
       <use xlink:href="#DejaVuSans-31" x="508.935547"/>
      </g>
     </g>
    </g>
    <g id="xtick_15">
     <g id="line2d_29">
      <path d="M 412.189663 470.728203 
L 412.189663 29.118125 
" clip-path="url(#pfe4c3dd45c)" style="fill: none; stroke: #cccccc; stroke-linecap: round"/>
     </g>
     <g id="line2d_30">
      <g>
       <use xlink:href="#me8727cd6a8" x="412.189663" y="470.728203" style="fill: #262626; stroke: #262626; stroke-width: 1.25"/>
      </g>
     </g>
     <g id="text_15">
      <!-- 17.07.2021 -->
      <g style="fill: #262626" transform="translate(366.037135 530.673311)rotate(-45)scale(0.11 -0.11)">
       <use xlink:href="#DejaVuSans-31"/>
       <use xlink:href="#DejaVuSans-37" x="63.623047"/>
       <use xlink:href="#DejaVuSans-2e" x="127.246094"/>
       <use xlink:href="#DejaVuSans-30" x="159.033203"/>
       <use xlink:href="#DejaVuSans-37" x="222.65625"/>
       <use xlink:href="#DejaVuSans-2e" x="286.279297"/>
       <use xlink:href="#DejaVuSans-32" x="318.066406"/>
       <use xlink:href="#DejaVuSans-30" x="381.689453"/>
       <use xlink:href="#DejaVuSans-32" x="445.3125"/>
       <use xlink:href="#DejaVuSans-31" x="508.935547"/>
      </g>
     </g>
    </g>
    <g id="xtick_16">
     <g id="line2d_31">
      <path d="M 435.12543 470.728203 
L 435.12543 29.118125 
" clip-path="url(#pfe4c3dd45c)" style="fill: none; stroke: #cccccc; stroke-linecap: round"/>
     </g>
     <g id="line2d_32">
      <g>
       <use xlink:href="#me8727cd6a8" x="435.12543" y="470.728203" style="fill: #262626; stroke: #262626; stroke-width: 1.25"/>
      </g>
     </g>
     <g id="text_16">
      <!-- 31.07.2021 -->
      <g style="fill: #262626" transform="translate(388.972902 530.673311)rotate(-45)scale(0.11 -0.11)">
       <use xlink:href="#DejaVuSans-33"/>
       <use xlink:href="#DejaVuSans-31" x="63.623047"/>
       <use xlink:href="#DejaVuSans-2e" x="127.246094"/>
       <use xlink:href="#DejaVuSans-30" x="159.033203"/>
       <use xlink:href="#DejaVuSans-37" x="222.65625"/>
       <use xlink:href="#DejaVuSans-2e" x="286.279297"/>
       <use xlink:href="#DejaVuSans-32" x="318.066406"/>
       <use xlink:href="#DejaVuSans-30" x="381.689453"/>
       <use xlink:href="#DejaVuSans-32" x="445.3125"/>
       <use xlink:href="#DejaVuSans-31" x="508.935547"/>
      </g>
     </g>
    </g>
    <g id="xtick_17">
     <g id="line2d_33">
      <path d="M 458.061197 470.728203 
L 458.061197 29.118125 
" clip-path="url(#pfe4c3dd45c)" style="fill: none; stroke: #cccccc; stroke-linecap: round"/>
     </g>
     <g id="line2d_34">
      <g>
       <use xlink:href="#me8727cd6a8" x="458.061197" y="470.728203" style="fill: #262626; stroke: #262626; stroke-width: 1.25"/>
      </g>
     </g>
     <g id="text_17">
      <!-- 14.08.2021 -->
      <g style="fill: #262626" transform="translate(411.908668 530.673311)rotate(-45)scale(0.11 -0.11)">
       <use xlink:href="#DejaVuSans-31"/>
       <use xlink:href="#DejaVuSans-34" x="63.623047"/>
       <use xlink:href="#DejaVuSans-2e" x="127.246094"/>
       <use xlink:href="#DejaVuSans-30" x="159.033203"/>
       <use xlink:href="#DejaVuSans-38" x="222.65625"/>
       <use xlink:href="#DejaVuSans-2e" x="286.279297"/>
       <use xlink:href="#DejaVuSans-32" x="318.066406"/>
       <use xlink:href="#DejaVuSans-30" x="381.689453"/>
       <use xlink:href="#DejaVuSans-32" x="445.3125"/>
       <use xlink:href="#DejaVuSans-31" x="508.935547"/>
      </g>
     </g>
    </g>
    <g id="xtick_18">
     <g id="line2d_35">
      <path d="M 480.996963 470.728203 
L 480.996963 29.118125 
" clip-path="url(#pfe4c3dd45c)" style="fill: none; stroke: #cccccc; stroke-linecap: round"/>
     </g>
     <g id="line2d_36">
      <g>
       <use xlink:href="#me8727cd6a8" x="480.996963" y="470.728203" style="fill: #262626; stroke: #262626; stroke-width: 1.25"/>
      </g>
     </g>
     <g id="text_18">
      <!-- 28.08.2021 -->
      <g style="fill: #262626" transform="translate(434.844435 530.673311)rotate(-45)scale(0.11 -0.11)">
       <use xlink:href="#DejaVuSans-32"/>
       <use xlink:href="#DejaVuSans-38" x="63.623047"/>
       <use xlink:href="#DejaVuSans-2e" x="127.246094"/>
       <use xlink:href="#DejaVuSans-30" x="159.033203"/>
       <use xlink:href="#DejaVuSans-38" x="222.65625"/>
       <use xlink:href="#DejaVuSans-2e" x="286.279297"/>
       <use xlink:href="#DejaVuSans-32" x="318.066406"/>
       <use xlink:href="#DejaVuSans-30" x="381.689453"/>
       <use xlink:href="#DejaVuSans-32" x="445.3125"/>
       <use xlink:href="#DejaVuSans-31" x="508.935547"/>
      </g>
     </g>
    </g>
    <g id="xtick_19">
     <g id="line2d_37">
      <path d="M 503.93273 470.728203 
L 503.93273 29.118125 
" clip-path="url(#pfe4c3dd45c)" style="fill: none; stroke: #cccccc; stroke-linecap: round"/>
     </g>
     <g id="line2d_38">
      <g>
       <use xlink:href="#me8727cd6a8" x="503.93273" y="470.728203" style="fill: #262626; stroke: #262626; stroke-width: 1.25"/>
      </g>
     </g>
     <g id="text_19">
      <!-- 11.09.2021 -->
      <g style="fill: #262626" transform="translate(457.780202 530.673311)rotate(-45)scale(0.11 -0.11)">
       <use xlink:href="#DejaVuSans-31"/>
       <use xlink:href="#DejaVuSans-31" x="63.623047"/>
       <use xlink:href="#DejaVuSans-2e" x="127.246094"/>
       <use xlink:href="#DejaVuSans-30" x="159.033203"/>
       <use xlink:href="#DejaVuSans-39" x="222.65625"/>
       <use xlink:href="#DejaVuSans-2e" x="286.279297"/>
       <use xlink:href="#DejaVuSans-32" x="318.066406"/>
       <use xlink:href="#DejaVuSans-30" x="381.689453"/>
       <use xlink:href="#DejaVuSans-32" x="445.3125"/>
       <use xlink:href="#DejaVuSans-31" x="508.935547"/>
      </g>
     </g>
    </g>
    <g id="xtick_20">
     <g id="line2d_39">
      <path d="M 526.868497 470.728203 
L 526.868497 29.118125 
" clip-path="url(#pfe4c3dd45c)" style="fill: none; stroke: #cccccc; stroke-linecap: round"/>
     </g>
     <g id="line2d_40">
      <g>
       <use xlink:href="#me8727cd6a8" x="526.868497" y="470.728203" style="fill: #262626; stroke: #262626; stroke-width: 1.25"/>
      </g>
     </g>
     <g id="text_20">
      <!-- 25.09.2021 -->
      <g style="fill: #262626" transform="translate(480.715969 530.673311)rotate(-45)scale(0.11 -0.11)">
       <use xlink:href="#DejaVuSans-32"/>
       <use xlink:href="#DejaVuSans-35" x="63.623047"/>
       <use xlink:href="#DejaVuSans-2e" x="127.246094"/>
       <use xlink:href="#DejaVuSans-30" x="159.033203"/>
       <use xlink:href="#DejaVuSans-39" x="222.65625"/>
       <use xlink:href="#DejaVuSans-2e" x="286.279297"/>
       <use xlink:href="#DejaVuSans-32" x="318.066406"/>
       <use xlink:href="#DejaVuSans-30" x="381.689453"/>
       <use xlink:href="#DejaVuSans-32" x="445.3125"/>
       <use xlink:href="#DejaVuSans-31" x="508.935547"/>
      </g>
     </g>
    </g>
    <g id="xtick_21">
     <g id="line2d_41">
      <path d="M 549.804264 470.728203 
L 549.804264 29.118125 
" clip-path="url(#pfe4c3dd45c)" style="fill: none; stroke: #cccccc; stroke-linecap: round"/>
     </g>
     <g id="line2d_42">
      <g>
       <use xlink:href="#me8727cd6a8" x="549.804264" y="470.728203" style="fill: #262626; stroke: #262626; stroke-width: 1.25"/>
      </g>
     </g>
     <g id="text_21">
      <!-- 09.10.2021 -->
      <g style="fill: #262626" transform="translate(503.651736 530.673311)rotate(-45)scale(0.11 -0.11)">
       <use xlink:href="#DejaVuSans-30"/>
       <use xlink:href="#DejaVuSans-39" x="63.623047"/>
       <use xlink:href="#DejaVuSans-2e" x="127.246094"/>
       <use xlink:href="#DejaVuSans-31" x="159.033203"/>
       <use xlink:href="#DejaVuSans-30" x="222.65625"/>
       <use xlink:href="#DejaVuSans-2e" x="286.279297"/>
       <use xlink:href="#DejaVuSans-32" x="318.066406"/>
       <use xlink:href="#DejaVuSans-30" x="381.689453"/>
       <use xlink:href="#DejaVuSans-32" x="445.3125"/>
       <use xlink:href="#DejaVuSans-31" x="508.935547"/>
      </g>
     </g>
    </g>
    <g id="xtick_22">
     <g id="line2d_43">
      <path d="M 572.74003 470.728203 
L 572.74003 29.118125 
" clip-path="url(#pfe4c3dd45c)" style="fill: none; stroke: #cccccc; stroke-linecap: round"/>
     </g>
     <g id="line2d_44">
      <g>
       <use xlink:href="#me8727cd6a8" x="572.74003" y="470.728203" style="fill: #262626; stroke: #262626; stroke-width: 1.25"/>
      </g>
     </g>
     <g id="text_22">
      <!-- 23.10.2021 -->
      <g style="fill: #262626" transform="translate(526.587502 530.673311)rotate(-45)scale(0.11 -0.11)">
       <use xlink:href="#DejaVuSans-32"/>
       <use xlink:href="#DejaVuSans-33" x="63.623047"/>
       <use xlink:href="#DejaVuSans-2e" x="127.246094"/>
       <use xlink:href="#DejaVuSans-31" x="159.033203"/>
       <use xlink:href="#DejaVuSans-30" x="222.65625"/>
       <use xlink:href="#DejaVuSans-2e" x="286.279297"/>
       <use xlink:href="#DejaVuSans-32" x="318.066406"/>
       <use xlink:href="#DejaVuSans-30" x="381.689453"/>
       <use xlink:href="#DejaVuSans-32" x="445.3125"/>
       <use xlink:href="#DejaVuSans-31" x="508.935547"/>
      </g>
     </g>
    </g>
    <g id="xtick_23">
     <g id="line2d_45">
      <path d="M 595.675797 470.728203 
L 595.675797 29.118125 
" clip-path="url(#pfe4c3dd45c)" style="fill: none; stroke: #cccccc; stroke-linecap: round"/>
     </g>
     <g id="line2d_46">
      <g>
       <use xlink:href="#me8727cd6a8" x="595.675797" y="470.728203" style="fill: #262626; stroke: #262626; stroke-width: 1.25"/>
      </g>
     </g>
     <g id="text_23">
      <!-- 06.11.2021 -->
      <g style="fill: #262626" transform="translate(549.523269 530.673311)rotate(-45)scale(0.11 -0.11)">
       <use xlink:href="#DejaVuSans-30"/>
       <use xlink:href="#DejaVuSans-36" x="63.623047"/>
       <use xlink:href="#DejaVuSans-2e" x="127.246094"/>
       <use xlink:href="#DejaVuSans-31" x="159.033203"/>
       <use xlink:href="#DejaVuSans-31" x="222.65625"/>
       <use xlink:href="#DejaVuSans-2e" x="286.279297"/>
       <use xlink:href="#DejaVuSans-32" x="318.066406"/>
       <use xlink:href="#DejaVuSans-30" x="381.689453"/>
       <use xlink:href="#DejaVuSans-32" x="445.3125"/>
       <use xlink:href="#DejaVuSans-31" x="508.935547"/>
      </g>
     </g>
    </g>
    <g id="xtick_24">
     <g id="line2d_47">
      <path d="M 618.611564 470.728203 
L 618.611564 29.118125 
" clip-path="url(#pfe4c3dd45c)" style="fill: none; stroke: #cccccc; stroke-linecap: round"/>
     </g>
     <g id="line2d_48">
      <g>
       <use xlink:href="#me8727cd6a8" x="618.611564" y="470.728203" style="fill: #262626; stroke: #262626; stroke-width: 1.25"/>
      </g>
     </g>
     <g id="text_24">
      <!-- 20.11.2021 -->
      <g style="fill: #262626" transform="translate(572.459036 530.673311)rotate(-45)scale(0.11 -0.11)">
       <use xlink:href="#DejaVuSans-32"/>
       <use xlink:href="#DejaVuSans-30" x="63.623047"/>
       <use xlink:href="#DejaVuSans-2e" x="127.246094"/>
       <use xlink:href="#DejaVuSans-31" x="159.033203"/>
       <use xlink:href="#DejaVuSans-31" x="222.65625"/>
       <use xlink:href="#DejaVuSans-2e" x="286.279297"/>
       <use xlink:href="#DejaVuSans-32" x="318.066406"/>
       <use xlink:href="#DejaVuSans-30" x="381.689453"/>
       <use xlink:href="#DejaVuSans-32" x="445.3125"/>
       <use xlink:href="#DejaVuSans-31" x="508.935547"/>
      </g>
     </g>
    </g>
    <g id="xtick_25">
     <g id="line2d_49">
      <path d="M 641.547331 470.728203 
L 641.547331 29.118125 
" clip-path="url(#pfe4c3dd45c)" style="fill: none; stroke: #cccccc; stroke-linecap: round"/>
     </g>
     <g id="line2d_50">
      <g>
       <use xlink:href="#me8727cd6a8" x="641.547331" y="470.728203" style="fill: #262626; stroke: #262626; stroke-width: 1.25"/>
      </g>
     </g>
     <g id="text_25">
      <!-- 04.12.2021 -->
      <g style="fill: #262626" transform="translate(595.394803 530.673311)rotate(-45)scale(0.11 -0.11)">
       <use xlink:href="#DejaVuSans-30"/>
       <use xlink:href="#DejaVuSans-34" x="63.623047"/>
       <use xlink:href="#DejaVuSans-2e" x="127.246094"/>
       <use xlink:href="#DejaVuSans-31" x="159.033203"/>
       <use xlink:href="#DejaVuSans-32" x="222.65625"/>
       <use xlink:href="#DejaVuSans-2e" x="286.279297"/>
       <use xlink:href="#DejaVuSans-32" x="318.066406"/>
       <use xlink:href="#DejaVuSans-30" x="381.689453"/>
       <use xlink:href="#DejaVuSans-32" x="445.3125"/>
       <use xlink:href="#DejaVuSans-31" x="508.935547"/>
      </g>
     </g>
    </g>
    <g id="xtick_26">
     <g id="line2d_51">
      <path d="M 664.483097 470.728203 
L 664.483097 29.118125 
" clip-path="url(#pfe4c3dd45c)" style="fill: none; stroke: #cccccc; stroke-linecap: round"/>
     </g>
     <g id="line2d_52">
      <g>
       <use xlink:href="#me8727cd6a8" x="664.483097" y="470.728203" style="fill: #262626; stroke: #262626; stroke-width: 1.25"/>
      </g>
     </g>
     <g id="text_26">
      <!-- 18.12.2021 -->
      <g style="fill: #262626" transform="translate(618.330569 530.673311)rotate(-45)scale(0.11 -0.11)">
       <use xlink:href="#DejaVuSans-31"/>
       <use xlink:href="#DejaVuSans-38" x="63.623047"/>
       <use xlink:href="#DejaVuSans-2e" x="127.246094"/>
       <use xlink:href="#DejaVuSans-31" x="159.033203"/>
       <use xlink:href="#DejaVuSans-32" x="222.65625"/>
       <use xlink:href="#DejaVuSans-2e" x="286.279297"/>
       <use xlink:href="#DejaVuSans-32" x="318.066406"/>
       <use xlink:href="#DejaVuSans-30" x="381.689453"/>
       <use xlink:href="#DejaVuSans-32" x="445.3125"/>
       <use xlink:href="#DejaVuSans-31" x="508.935547"/>
      </g>
     </g>
    </g>
    <g id="xtick_27">
     <g id="line2d_53">
      <path d="M 687.418864 470.728203 
L 687.418864 29.118125 
" clip-path="url(#pfe4c3dd45c)" style="fill: none; stroke: #cccccc; stroke-linecap: round"/>
     </g>
     <g id="line2d_54">
      <g>
       <use xlink:href="#me8727cd6a8" x="687.418864" y="470.728203" style="fill: #262626; stroke: #262626; stroke-width: 1.25"/>
      </g>
     </g>
     <g id="text_27">
      <!-- 01.01.2022 -->
      <g style="fill: #262626" transform="translate(641.266336 530.673311)rotate(-45)scale(0.11 -0.11)">
       <use xlink:href="#DejaVuSans-30"/>
       <use xlink:href="#DejaVuSans-31" x="63.623047"/>
       <use xlink:href="#DejaVuSans-2e" x="127.246094"/>
       <use xlink:href="#DejaVuSans-30" x="159.033203"/>
       <use xlink:href="#DejaVuSans-31" x="222.65625"/>
       <use xlink:href="#DejaVuSans-2e" x="286.279297"/>
       <use xlink:href="#DejaVuSans-32" x="318.066406"/>
       <use xlink:href="#DejaVuSans-30" x="381.689453"/>
       <use xlink:href="#DejaVuSans-32" x="445.3125"/>
       <use xlink:href="#DejaVuSans-32" x="508.935547"/>
      </g>
     </g>
    </g>
    <g id="xtick_28">
     <g id="line2d_55">
      <path d="M 710.354631 470.728203 
L 710.354631 29.118125 
" clip-path="url(#pfe4c3dd45c)" style="fill: none; stroke: #cccccc; stroke-linecap: round"/>
     </g>
     <g id="line2d_56">
      <g>
       <use xlink:href="#me8727cd6a8" x="710.354631" y="470.728203" style="fill: #262626; stroke: #262626; stroke-width: 1.25"/>
      </g>
     </g>
     <g id="text_28">
      <!-- 15.01.2022 -->
      <g style="fill: #262626" transform="translate(664.202103 530.673311)rotate(-45)scale(0.11 -0.11)">
       <use xlink:href="#DejaVuSans-31"/>
       <use xlink:href="#DejaVuSans-35" x="63.623047"/>
       <use xlink:href="#DejaVuSans-2e" x="127.246094"/>
       <use xlink:href="#DejaVuSans-30" x="159.033203"/>
       <use xlink:href="#DejaVuSans-31" x="222.65625"/>
       <use xlink:href="#DejaVuSans-2e" x="286.279297"/>
       <use xlink:href="#DejaVuSans-32" x="318.066406"/>
       <use xlink:href="#DejaVuSans-30" x="381.689453"/>
       <use xlink:href="#DejaVuSans-32" x="445.3125"/>
       <use xlink:href="#DejaVuSans-32" x="508.935547"/>
      </g>
     </g>
    </g>
    <g id="xtick_29">
     <g id="line2d_57">
      <defs>
       <path id="mf295939f27" d="M 0 0 
L 0 4 
" style="stroke: #262626"/>
      </defs>
      <g>
       <use xlink:href="#mf295939f27" x="56.685278" y="470.728203" style="fill: #262626; stroke: #262626"/>
      </g>
     </g>
    </g>
    <g id="xtick_30">
     <g id="line2d_58">
      <g>
       <use xlink:href="#mf295939f27" x="68.153162" y="470.728203" style="fill: #262626; stroke: #262626"/>
      </g>
     </g>
    </g>
    <g id="xtick_31">
     <g id="line2d_59">
      <g>
       <use xlink:href="#mf295939f27" x="79.621045" y="470.728203" style="fill: #262626; stroke: #262626"/>
      </g>
     </g>
    </g>
    <g id="xtick_32">
     <g id="line2d_60">
      <g>
       <use xlink:href="#mf295939f27" x="102.556812" y="470.728203" style="fill: #262626; stroke: #262626"/>
      </g>
     </g>
    </g>
    <g id="xtick_33">
     <g id="line2d_61">
      <g>
       <use xlink:href="#mf295939f27" x="125.492579" y="470.728203" style="fill: #262626; stroke: #262626"/>
      </g>
     </g>
    </g>
    <g id="xtick_34">
     <g id="line2d_62">
      <g>
       <use xlink:href="#mf295939f27" x="148.428345" y="470.728203" style="fill: #262626; stroke: #262626"/>
      </g>
     </g>
    </g>
    <g id="xtick_35">
     <g id="line2d_63">
      <g>
       <use xlink:href="#mf295939f27" x="171.364112" y="470.728203" style="fill: #262626; stroke: #262626"/>
      </g>
     </g>
    </g>
    <g id="xtick_36">
     <g id="line2d_64">
      <g>
       <use xlink:href="#mf295939f27" x="194.299879" y="470.728203" style="fill: #262626; stroke: #262626"/>
      </g>
     </g>
    </g>
    <g id="xtick_37">
     <g id="line2d_65">
      <g>
       <use xlink:href="#mf295939f27" x="217.235646" y="470.728203" style="fill: #262626; stroke: #262626"/>
      </g>
     </g>
    </g>
    <g id="xtick_38">
     <g id="line2d_66">
      <g>
       <use xlink:href="#mf295939f27" x="240.171412" y="470.728203" style="fill: #262626; stroke: #262626"/>
      </g>
     </g>
    </g>
    <g id="xtick_39">
     <g id="line2d_67">
      <g>
       <use xlink:href="#mf295939f27" x="263.107179" y="470.728203" style="fill: #262626; stroke: #262626"/>
      </g>
     </g>
    </g>
    <g id="xtick_40">
     <g id="line2d_68">
      <g>
       <use xlink:href="#mf295939f27" x="286.042946" y="470.728203" style="fill: #262626; stroke: #262626"/>
      </g>
     </g>
    </g>
    <g id="xtick_41">
     <g id="line2d_69">
      <g>
       <use xlink:href="#mf295939f27" x="308.978713" y="470.728203" style="fill: #262626; stroke: #262626"/>
      </g>
     </g>
    </g>
    <g id="xtick_42">
     <g id="line2d_70">
      <g>
       <use xlink:href="#mf295939f27" x="331.914479" y="470.728203" style="fill: #262626; stroke: #262626"/>
      </g>
     </g>
    </g>
    <g id="xtick_43">
     <g id="line2d_71">
      <g>
       <use xlink:href="#mf295939f27" x="354.850246" y="470.728203" style="fill: #262626; stroke: #262626"/>
      </g>
     </g>
    </g>
    <g id="xtick_44">
     <g id="line2d_72">
      <g>
       <use xlink:href="#mf295939f27" x="377.786013" y="470.728203" style="fill: #262626; stroke: #262626"/>
      </g>
     </g>
    </g>
    <g id="xtick_45">
     <g id="line2d_73">
      <g>
       <use xlink:href="#mf295939f27" x="400.72178" y="470.728203" style="fill: #262626; stroke: #262626"/>
      </g>
     </g>
    </g>
    <g id="xtick_46">
     <g id="line2d_74">
      <g>
       <use xlink:href="#mf295939f27" x="423.657546" y="470.728203" style="fill: #262626; stroke: #262626"/>
      </g>
     </g>
    </g>
    <g id="xtick_47">
     <g id="line2d_75">
      <g>
       <use xlink:href="#mf295939f27" x="446.593313" y="470.728203" style="fill: #262626; stroke: #262626"/>
      </g>
     </g>
    </g>
    <g id="xtick_48">
     <g id="line2d_76">
      <g>
       <use xlink:href="#mf295939f27" x="469.52908" y="470.728203" style="fill: #262626; stroke: #262626"/>
      </g>
     </g>
    </g>
    <g id="xtick_49">
     <g id="line2d_77">
      <g>
       <use xlink:href="#mf295939f27" x="492.464847" y="470.728203" style="fill: #262626; stroke: #262626"/>
      </g>
     </g>
    </g>
    <g id="xtick_50">
     <g id="line2d_78">
      <g>
       <use xlink:href="#mf295939f27" x="515.400614" y="470.728203" style="fill: #262626; stroke: #262626"/>
      </g>
     </g>
    </g>
    <g id="xtick_51">
     <g id="line2d_79">
      <g>
       <use xlink:href="#mf295939f27" x="538.33638" y="470.728203" style="fill: #262626; stroke: #262626"/>
      </g>
     </g>
    </g>
    <g id="xtick_52">
     <g id="line2d_80">
      <g>
       <use xlink:href="#mf295939f27" x="561.272147" y="470.728203" style="fill: #262626; stroke: #262626"/>
      </g>
     </g>
    </g>
    <g id="xtick_53">
     <g id="line2d_81">
      <g>
       <use xlink:href="#mf295939f27" x="584.207914" y="470.728203" style="fill: #262626; stroke: #262626"/>
      </g>
     </g>
    </g>
    <g id="xtick_54">
     <g id="line2d_82">
      <g>
       <use xlink:href="#mf295939f27" x="607.143681" y="470.728203" style="fill: #262626; stroke: #262626"/>
      </g>
     </g>
    </g>
    <g id="xtick_55">
     <g id="line2d_83">
      <g>
       <use xlink:href="#mf295939f27" x="630.079447" y="470.728203" style="fill: #262626; stroke: #262626"/>
      </g>
     </g>
    </g>
    <g id="xtick_56">
     <g id="line2d_84">
      <g>
       <use xlink:href="#mf295939f27" x="653.015214" y="470.728203" style="fill: #262626; stroke: #262626"/>
      </g>
     </g>
    </g>
    <g id="xtick_57">
     <g id="line2d_85">
      <g>
       <use xlink:href="#mf295939f27" x="675.950981" y="470.728203" style="fill: #262626; stroke: #262626"/>
      </g>
     </g>
    </g>
    <g id="xtick_58">
     <g id="line2d_86">
      <g>
       <use xlink:href="#mf295939f27" x="698.886748" y="470.728203" style="fill: #262626; stroke: #262626"/>
      </g>
     </g>
    </g>
    <g id="xtick_59">
     <g id="line2d_87">
      <g>
       <use xlink:href="#mf295939f27" x="721.822514" y="470.728203" style="fill: #262626; stroke: #262626"/>
      </g>
     </g>
    </g>
    <g id="xtick_60">
     <g id="line2d_88">
      <g>
       <use xlink:href="#mf295939f27" x="733.290398" y="470.728203" style="fill: #262626; stroke: #262626"/>
      </g>
     </g>
    </g>
    <g id="xtick_61">
     <g id="line2d_89">
      <g>
       <use xlink:href="#mf295939f27" x="744.758281" y="470.728203" style="fill: #262626; stroke: #262626"/>
      </g>
     </g>
    </g>
    <g id="xtick_62">
     <g id="line2d_90">
      <g>
       <use xlink:href="#mf295939f27" x="756.226164" y="470.728203" style="fill: #262626; stroke: #262626"/>
      </g>
     </g>
    </g>
    <g id="text_29">
     <!-- Седмица -->
     <g style="fill: #262626" transform="translate(380.697187 545.409053)scale(0.12 -0.12)">
      <defs>
       <path id="DejaVuSans-421" d="M 4122 4306 
L 4122 3641 
Q 3803 3938 3442 4084 
Q 3081 4231 2675 4231 
Q 1875 4231 1450 3742 
Q 1025 3253 1025 2328 
Q 1025 1406 1450 917 
Q 1875 428 2675 428 
Q 3081 428 3442 575 
Q 3803 722 4122 1019 
L 4122 359 
Q 3791 134 3420 21 
Q 3050 -91 2638 -91 
Q 1578 -91 968 557 
Q 359 1206 359 2328 
Q 359 3453 968 4101 
Q 1578 4750 2638 4750 
Q 3056 4750 3426 4639 
Q 3797 4528 4122 4306 
z
" transform="scale(0.015625)"/>
       <path id="DejaVuSans-435" d="M 3597 1894 
L 3597 1613 
L 953 1613 
Q 991 1019 1311 708 
Q 1631 397 2203 397 
Q 2534 397 2845 478 
Q 3156 559 3463 722 
L 3463 178 
Q 3153 47 2828 -22 
Q 2503 -91 2169 -91 
Q 1331 -91 842 396 
Q 353 884 353 1716 
Q 353 2575 817 3079 
Q 1281 3584 2069 3584 
Q 2775 3584 3186 3129 
Q 3597 2675 3597 1894 
z
M 3022 2063 
Q 3016 2534 2758 2815 
Q 2500 3097 2075 3097 
Q 1594 3097 1305 2825 
Q 1016 2553 972 2059 
L 3022 2063 
z
" transform="scale(0.015625)"/>
       <path id="DejaVuSans-434" d="M 1384 459 
L 3053 459 
L 3053 3041 
L 1844 3041 
L 1844 2603 
Q 1844 1316 1475 628 
L 1384 459 
z
M 550 459 
Q 834 584 959 850 
Q 1266 1509 1266 2838 
L 1266 3500 
L 3631 3500 
L 3631 459 
L 4091 459 
L 4091 -884 
L 3631 -884 
L 3631 0 
L 794 0 
L 794 -884 
L 334 -884 
L 334 459 
L 550 459 
z
" transform="scale(0.015625)"/>
       <path id="DejaVuSans-43c" d="M 581 3500 
L 1422 3500 
L 2416 1156 
L 3413 3500 
L 4247 3500 
L 4247 0 
L 3669 0 
L 3669 2950 
L 2703 672 
L 2128 672 
L 1159 2950 
L 1159 0 
L 581 0 
L 581 3500 
z
" transform="scale(0.015625)"/>
       <path id="DejaVuSans-438" d="M 3578 3500 
L 3578 0 
L 3006 0 
L 3006 2809 
L 1319 0 
L 581 0 
L 581 3500 
L 1153 3500 
L 1153 697 
L 2838 3500 
L 3578 3500 
z
" transform="scale(0.015625)"/>
       <path id="DejaVuSans-446" d="M 3603 0 
L 581 0 
L 581 3500 
L 1159 3500 
L 1159 459 
L 3025 459 
L 3025 3500 
L 3603 3500 
L 3603 459 
L 4063 459 
L 4063 -884 
L 3603 -884 
L 3603 0 
z
" transform="scale(0.015625)"/>
       <path id="DejaVuSans-430" d="M 2194 1759 
Q 1497 1759 1228 1600 
Q 959 1441 959 1056 
Q 959 750 1161 570 
Q 1363 391 1709 391 
Q 2188 391 2477 730 
Q 2766 1069 2766 1631 
L 2766 1759 
L 2194 1759 
z
M 3341 1997 
L 3341 0 
L 2766 0 
L 2766 531 
Q 2569 213 2275 61 
Q 1981 -91 1556 -91 
Q 1019 -91 701 211 
Q 384 513 384 1019 
Q 384 1609 779 1909 
Q 1175 2209 1959 2209 
L 2766 2209 
L 2766 2266 
Q 2766 2663 2505 2880 
Q 2244 3097 1772 3097 
Q 1472 3097 1187 3025 
Q 903 2953 641 2809 
L 641 3341 
Q 956 3463 1253 3523 
Q 1550 3584 1831 3584 
Q 2591 3584 2966 3190 
Q 3341 2797 3341 1997 
z
" transform="scale(0.015625)"/>
      </defs>
      <use xlink:href="#DejaVuSans-421"/>
      <use xlink:href="#DejaVuSans-435" x="69.824219"/>
      <use xlink:href="#DejaVuSans-434" x="131.347656"/>
      <use xlink:href="#DejaVuSans-43c" x="200.488281"/>
      <use xlink:href="#DejaVuSans-438" x="275.927734"/>
      <use xlink:href="#DejaVuSans-446" x="340.917969"/>
      <use xlink:href="#DejaVuSans-430" x="408.984375"/>
     </g>
    </g>
   </g>
   <g id="matplotlib.axis_2">
    <g id="ytick_1">
     <g id="line2d_91">
      <path d="M 52.098125 451.03304 
L 765.728125 451.03304 
" clip-path="url(#pfe4c3dd45c)" style="fill: none; stroke: #cccccc; stroke-linecap: round"/>
     </g>
     <g id="line2d_92">
      <defs>
       <path id="m258ba2a586" d="M 0 0 
L -6 0 
" style="stroke: #262626; stroke-width: 1.25"/>
      </defs>
      <g>
       <use xlink:href="#m258ba2a586" x="52.098125" y="451.03304" style="fill: #262626; stroke: #262626; stroke-width: 1.25"/>
      </g>
     </g>
     <g id="text_30">
      <!-- 0.0M -->
      <g style="fill: #262626" transform="translate(15.61375 455.21218)scale(0.11 -0.11)">
       <defs>
        <path id="DejaVuSans-4d" d="M 628 4666 
L 1569 4666 
L 2759 1491 
L 3956 4666 
L 4897 4666 
L 4897 0 
L 4281 0 
L 4281 4097 
L 3078 897 
L 2444 897 
L 1241 4097 
L 1241 0 
L 628 0 
L 628 4666 
z
" transform="scale(0.015625)"/>
       </defs>
       <use xlink:href="#DejaVuSans-30"/>
       <use xlink:href="#DejaVuSans-2e" x="63.623047"/>
       <use xlink:href="#DejaVuSans-30" x="95.410156"/>
       <use xlink:href="#DejaVuSans-4d" x="159.033203"/>
      </g>
     </g>
    </g>
    <g id="ytick_2">
     <g id="line2d_93">
      <path d="M 52.098125 353.95493 
L 765.728125 353.95493 
" clip-path="url(#pfe4c3dd45c)" style="fill: none; stroke: #cccccc; stroke-linecap: round"/>
     </g>
     <g id="line2d_94">
      <g>
       <use xlink:href="#m258ba2a586" x="52.098125" y="353.95493" style="fill: #262626; stroke: #262626; stroke-width: 1.25"/>
      </g>
     </g>
     <g id="text_31">
      <!-- 1.0M -->
      <g style="fill: #262626" transform="translate(15.61375 358.134071)scale(0.11 -0.11)">
       <use xlink:href="#DejaVuSans-31"/>
       <use xlink:href="#DejaVuSans-2e" x="63.623047"/>
       <use xlink:href="#DejaVuSans-30" x="95.410156"/>
       <use xlink:href="#DejaVuSans-4d" x="159.033203"/>
      </g>
     </g>
    </g>
    <g id="ytick_3">
     <g id="line2d_95">
      <path d="M 52.098125 256.87682 
L 765.728125 256.87682 
" clip-path="url(#pfe4c3dd45c)" style="fill: none; stroke: #cccccc; stroke-linecap: round"/>
     </g>
     <g id="line2d_96">
      <g>
       <use xlink:href="#m258ba2a586" x="52.098125" y="256.87682" style="fill: #262626; stroke: #262626; stroke-width: 1.25"/>
      </g>
     </g>
     <g id="text_32">
      <!-- 2.0M -->
      <g style="fill: #262626" transform="translate(15.61375 261.055961)scale(0.11 -0.11)">
       <use xlink:href="#DejaVuSans-32"/>
       <use xlink:href="#DejaVuSans-2e" x="63.623047"/>
       <use xlink:href="#DejaVuSans-30" x="95.410156"/>
       <use xlink:href="#DejaVuSans-4d" x="159.033203"/>
      </g>
     </g>
    </g>
    <g id="ytick_4">
     <g id="line2d_97">
      <path d="M 52.098125 159.798711 
L 765.728125 159.798711 
" clip-path="url(#pfe4c3dd45c)" style="fill: none; stroke: #cccccc; stroke-linecap: round"/>
     </g>
     <g id="line2d_98">
      <g>
       <use xlink:href="#m258ba2a586" x="52.098125" y="159.798711" style="fill: #262626; stroke: #262626; stroke-width: 1.25"/>
      </g>
     </g>
     <g id="text_33">
      <!-- 3.0M -->
      <g style="fill: #262626" transform="translate(15.61375 163.977851)scale(0.11 -0.11)">
       <use xlink:href="#DejaVuSans-33"/>
       <use xlink:href="#DejaVuSans-2e" x="63.623047"/>
       <use xlink:href="#DejaVuSans-30" x="95.410156"/>
       <use xlink:href="#DejaVuSans-4d" x="159.033203"/>
      </g>
     </g>
    </g>
    <g id="ytick_5">
     <g id="line2d_99">
      <path d="M 52.098125 62.720601 
L 765.728125 62.720601 
" clip-path="url(#pfe4c3dd45c)" style="fill: none; stroke: #cccccc; stroke-linecap: round"/>
     </g>
     <g id="line2d_100">
      <g>
       <use xlink:href="#m258ba2a586" x="52.098125" y="62.720601" style="fill: #262626; stroke: #262626; stroke-width: 1.25"/>
      </g>
     </g>
     <g id="text_34">
      <!-- 4.0M -->
      <g style="fill: #262626" transform="translate(15.61375 66.899742)scale(0.11 -0.11)">
       <use xlink:href="#DejaVuSans-34"/>
       <use xlink:href="#DejaVuSans-2e" x="63.623047"/>
       <use xlink:href="#DejaVuSans-30" x="95.410156"/>
       <use xlink:href="#DejaVuSans-4d" x="159.033203"/>
      </g>
     </g>
    </g>
    <g id="text_35">
     <!-- Поставени дози -->
     <g style="fill: #262626" transform="translate(9.118125 300.443164)rotate(-90)scale(0.12 -0.12)">
      <defs>
       <path id="DejaVuSans-41f" d="M 4184 4666 
L 4184 0 
L 3553 0 
L 3553 4134 
L 1259 4134 
L 1259 0 
L 628 0 
L 628 4666 
L 4184 4666 
z
" transform="scale(0.015625)"/>
       <path id="DejaVuSans-43e" d="M 1959 3097 
Q 1497 3097 1228 2736 
Q 959 2375 959 1747 
Q 959 1119 1226 758 
Q 1494 397 1959 397 
Q 2419 397 2687 759 
Q 2956 1122 2956 1747 
Q 2956 2369 2687 2733 
Q 2419 3097 1959 3097 
z
M 1959 3584 
Q 2709 3584 3137 3096 
Q 3566 2609 3566 1747 
Q 3566 888 3137 398 
Q 2709 -91 1959 -91 
Q 1206 -91 779 398 
Q 353 888 353 1747 
Q 353 2609 779 3096 
Q 1206 3584 1959 3584 
z
" transform="scale(0.015625)"/>
       <path id="DejaVuSans-441" d="M 3122 3366 
L 3122 2828 
Q 2878 2963 2633 3030 
Q 2388 3097 2138 3097 
Q 1578 3097 1268 2742 
Q 959 2388 959 1747 
Q 959 1106 1268 751 
Q 1578 397 2138 397 
Q 2388 397 2633 464 
Q 2878 531 3122 666 
L 3122 134 
Q 2881 22 2623 -34 
Q 2366 -91 2075 -91 
Q 1284 -91 818 406 
Q 353 903 353 1747 
Q 353 2603 823 3093 
Q 1294 3584 2113 3584 
Q 2378 3584 2631 3529 
Q 2884 3475 3122 3366 
z
" transform="scale(0.015625)"/>
       <path id="DejaVuSans-442" d="M 188 3500 
L 3541 3500 
L 3541 3041 
L 2147 3041 
L 2147 0 
L 1581 0 
L 1581 3041 
L 188 3041 
L 188 3500 
z
" transform="scale(0.015625)"/>
       <path id="DejaVuSans-432" d="M 1156 1613 
L 1156 459 
L 1975 459 
Q 2369 459 2575 607 
Q 2781 756 2781 1038 
Q 2781 1319 2575 1466 
Q 2369 1613 1975 1613 
L 1156 1613 
z
M 1156 3041 
L 1156 2072 
L 1913 2072 
Q 2238 2072 2444 2201 
Q 2650 2331 2650 2563 
Q 2650 2794 2444 2917 
Q 2238 3041 1913 3041 
L 1156 3041 
z
M 581 3500 
L 1950 3500 
Q 2566 3500 2897 3275 
Q 3228 3050 3228 2634 
Q 3228 2313 3059 2123 
Q 2891 1934 2559 1888 
Q 2956 1813 3175 1575 
Q 3394 1338 3394 981 
Q 3394 513 3033 256 
Q 2672 0 2003 0 
L 581 0 
L 581 3500 
z
" transform="scale(0.015625)"/>
       <path id="DejaVuSans-43d" d="M 581 3500 
L 1159 3500 
L 1159 2072 
L 3025 2072 
L 3025 3500 
L 3603 3500 
L 3603 0 
L 3025 0 
L 3025 1613 
L 1159 1613 
L 1159 0 
L 581 0 
L 581 3500 
z
" transform="scale(0.015625)"/>
       <path id="DejaVuSans-20" transform="scale(0.015625)"/>
       <path id="DejaVuSans-437" d="M 2206 1888 
Q 2594 1813 2809 1584 
Q 3025 1356 3025 1019 
Q 3025 478 2622 193 
Q 2219 -91 1475 -91 
Q 1225 -91 961 -47 
Q 697 -3 416 84 
L 416 619 
Q 638 503 903 445 
Q 1169 388 1459 388 
Q 1931 388 2195 563 
Q 2459 738 2459 1019 
Q 2459 1294 2225 1461 
Q 1991 1628 1563 1628 
L 1100 1628 
L 1100 2103 
L 1584 2103 
Q 1947 2103 2158 2242 
Q 2369 2381 2369 2600 
Q 2369 2800 2151 2944 
Q 1934 3088 1563 3088 
Q 1341 3088 1089 3047 
Q 838 3006 534 2916 
L 534 3438 
Q 841 3513 1106 3550 
Q 1372 3588 1609 3588 
Q 2222 3588 2576 3342 
Q 2931 3097 2931 2656 
Q 2931 2366 2743 2164 
Q 2556 1963 2206 1888 
z
" transform="scale(0.015625)"/>
      </defs>
      <use xlink:href="#DejaVuSans-41f"/>
      <use xlink:href="#DejaVuSans-43e" x="75.195312"/>
      <use xlink:href="#DejaVuSans-441" x="136.376953"/>
      <use xlink:href="#DejaVuSans-442" x="191.357422"/>
      <use xlink:href="#DejaVuSans-430" x="249.609375"/>
      <use xlink:href="#DejaVuSans-432" x="310.888672"/>
      <use xlink:href="#DejaVuSans-435" x="369.824219"/>
      <use xlink:href="#DejaVuSans-43d" x="431.347656"/>
      <use xlink:href="#DejaVuSans-438" x="496.728516"/>
      <use xlink:href="#DejaVuSans-20" x="561.71875"/>
      <use xlink:href="#DejaVuSans-434" x="593.505859"/>
      <use xlink:href="#DejaVuSans-43e" x="662.646484"/>
      <use xlink:href="#DejaVuSans-437" x="723.828125"/>
      <use xlink:href="#DejaVuSans-438" x="777.001953"/>
     </g>
    </g>
   </g>
   <g id="line2d_101">
    <path d="M 84.535852 450.655018 
L 87.81239 450.572987 
L 96.003736 450.504158 
L 100.918543 449.736562 
L 105.83335 449.658317 
L 109.109888 449.379023 
L 114.024695 449.253404 
L 117.301233 449.12662 
L 120.577771 448.690836 
L 123.85431 448.499204 
L 128.769117 448.431541 
L 130.407386 448.205931 
L 135.322193 447.071768 
L 138.598731 447.040703 
L 140.237 446.894212 
L 143.513538 446.167097 
L 146.790076 445.513178 
L 150.066614 445.495899 
L 151.704883 445.316304 
L 154.981422 444.610061 
L 156.619691 444.128553 
L 158.25796 443.781887 
L 163.172767 443.515699 
L 166.449305 442.692089 
L 168.087574 442.246112 
L 169.725843 440.910899 
L 171.364112 440.514044 
L 174.64065 438.309691 
L 176.278919 436.64354 
L 179.555457 432.732651 
L 181.193726 431.186488 
L 182.831996 430.669936 
L 184.470265 430.409281 
L 186.108534 429.332296 
L 187.746803 427.368115 
L 189.385072 426.941262 
L 191.023341 424.963296 
L 192.66161 423.417812 
L 195.938148 423.013288 
L 197.576417 422.479261 
L 200.852955 421.021828 
L 202.491224 419.536435 
L 204.129493 418.350723 
L 207.406031 418.135307 
L 209.0443 417.86077 
L 212.320838 416.987553 
L 213.959108 416.468185 
L 215.597377 415.820771 
L 217.235646 415.44935 
L 218.873915 415.22044 
L 220.512184 414.495752 
L 223.788722 412.074721 
L 227.06526 409.267319 
L 228.703529 408.885802 
L 230.341798 408.654465 
L 231.980067 407.780179 
L 238.533143 402.67989 
L 240.171412 402.292257 
L 241.809681 402.147416 
L 243.447951 401.518447 
L 245.08622 400.587856 
L 246.724489 399.246431 
L 248.362758 397.395831 
L 250.001027 395.951309 
L 251.639296 395.59542 
L 253.277565 395.440095 
L 254.915834 394.728513 
L 256.554103 393.708901 
L 261.46891 389.472995 
L 263.107179 389.173315 
L 264.745448 389.0542 
L 266.383717 388.370479 
L 268.021986 387.220395 
L 269.660255 385.359602 
L 271.298524 383.22233 
L 272.936794 381.43386 
L 274.575063 381.023219 
L 276.213332 380.822268 
L 277.851601 379.763146 
L 279.48987 378.137184 
L 282.766408 373.062232 
L 284.404677 371.869433 
L 286.042946 371.310749 
L 287.681215 370.980198 
L 289.319484 370.117465 
L 290.957753 369.036694 
L 292.596022 365.8835 
L 294.234291 365.191333 
L 295.87256 361.491007 
L 297.510829 360.515566 
L 299.149098 359.96756 
L 300.787367 357.494495 
L 304.063906 350.483126 
L 305.702175 346.817456 
L 307.340444 343.590871 
L 308.978713 342.951029 
L 310.616982 342.621935 
L 312.255251 340.851618 
L 313.89352 338.320695 
L 315.531789 335.374471 
L 317.170058 332.054011 
L 318.808327 329.620652 
L 320.446596 329.0044 
L 322.084865 328.648317 
L 323.723134 328.146229 
L 325.361403 326.509298 
L 326.999672 324.484443 
L 330.27621 320.838675 
L 331.914479 320.151944 
L 333.552749 319.662185 
L 335.191018 318.431817 
L 336.829287 316.679751 
L 341.744094 310.187264 
L 343.382363 309.605669 
L 345.020632 308.886321 
L 346.658901 307.476455 
L 348.29717 305.364036 
L 351.573708 300.726614 
L 353.211977 298.737581 
L 354.850246 298.255297 
L 356.488515 297.938531 
L 358.126784 297.001339 
L 359.765053 295.500705 
L 363.041591 292.023368 
L 364.679861 290.544868 
L 367.956399 289.866389 
L 369.594668 289.041031 
L 372.871206 286.456715 
L 374.509475 285.077041 
L 376.147744 283.884921 
L 379.424282 283.319344 
L 381.062551 282.536992 
L 387.615627 277.718908 
L 389.253896 277.369621 
L 390.892165 277.160224 
L 392.530434 276.401655 
L 395.806973 274.020523 
L 399.083511 271.707929 
L 400.72178 271.390969 
L 402.360049 271.187784 
L 403.998318 270.371357 
L 408.913125 266.917221 
L 410.551394 265.881106 
L 413.827932 265.424257 
L 415.466201 264.670057 
L 418.742739 262.627631 
L 422.019277 260.511716 
L 423.657546 260.16806 
L 425.295816 259.974098 
L 426.934085 259.14573 
L 433.487161 254.455401 
L 436.763699 253.935257 
L 438.401968 253.128538 
L 444.955044 248.331908 
L 448.231582 247.787397 
L 449.869851 246.915247 
L 456.422928 242.399174 
L 458.061197 242.059012 
L 459.699466 241.846799 
L 461.337735 240.959991 
L 467.890811 236.213356 
L 469.52908 235.853779 
L 471.167349 235.62186 
L 472.805618 234.662825 
L 477.720425 230.689127 
L 479.358694 229.477009 
L 480.996963 229.095492 
L 482.635232 228.848914 
L 484.273501 227.83901 
L 487.55004 225.361092 
L 490.826578 222.994133 
L 492.464847 222.66698 
L 495.741385 222.297889 
L 499.017923 219.985003 
L 502.294461 217.758517 
L 505.570999 217.270311 
L 507.209268 216.489414 
L 513.762344 212.324958 
L 515.400614 212.029743 
L 517.038883 211.865002 
L 518.677152 211.13245 
L 520.315421 210.155456 
L 521.95369 209.975085 
L 523.591959 208.864414 
L 525.230228 207.892954 
L 528.506766 207.506777 
L 530.145035 207.001097 
L 533.421573 205.353196 
L 535.059842 204.488619 
L 536.698111 203.803053 
L 539.974649 203.456775 
L 541.612918 202.93401 
L 548.165995 200.070594 
L 551.442533 199.725578 
L 553.080802 199.22417 
L 554.719071 198.479678 
L 556.35734 197.941088 
L 559.633878 196.321146 
L 562.910416 195.863423 
L 564.548685 195.261441 
L 566.186954 194.379098 
L 567.825223 193.070194 
L 569.463492 190.328611 
L 571.101761 187.995145 
L 572.74003 186.860787 
L 574.378299 186.166193 
L 576.016569 184.694489 
L 577.654838 181.587407 
L 580.931376 176.850966 
L 582.569645 174.60419 
L 584.207914 173.853291 
L 585.846183 173.370716 
L 587.484452 171.960559 
L 590.76099 168.240235 
L 594.037528 164.258576 
L 595.675797 163.603202 
L 597.314066 163.141013 
L 598.952335 161.852592 
L 602.228873 158.519513 
L 605.505412 154.222835 
L 607.143681 153.474654 
L 608.78195 153.001496 
L 610.420219 151.370972 
L 616.973295 142.885374 
L 618.611564 142.180296 
L 620.249833 141.73927 
L 621.888102 140.201164 
L 626.802909 134.322211 
L 628.441178 132.238527 
L 630.079447 131.592084 
L 631.717716 131.141447 
L 633.355985 129.60703 
L 639.909062 121.8767 
L 641.547331 121.287825 
L 643.1856 120.894658 
L 644.823869 119.741176 
L 651.376945 112.749805 
L 653.015214 112.168598 
L 654.653483 111.809021 
L 656.291752 110.642822 
L 659.56829 107.24334 
L 662.844828 103.715522 
L 664.483097 103.128491 
L 666.121367 102.748041 
L 667.759636 101.291481 
L 669.397905 99.435348 
L 671.036174 97.834918 
L 672.674443 96.481844 
L 677.58925 96.177407 
L 680.865788 95.478638 
L 682.504057 93.546784 
L 684.142326 92.128667 
L 685.780595 91.779962 
L 687.418864 91.736763 
L 689.057133 91.377282 
L 690.695402 90.714239 
L 692.333671 88.294276 
L 693.97194 85.148945 
L 697.248479 78.391338 
L 698.886748 77.297073 
L 700.525017 76.634709 
L 702.163286 74.412883 
L 705.439824 68.360742 
L 707.078093 65.481794 
L 708.716362 63.078819 
L 710.354631 62.400243 
L 711.9929 62.039307 
L 713.631169 60.709434 
L 718.545976 55.134432 
L 720.184245 53.820092 
L 721.822514 53.457311 
L 723.460783 53.269173 
L 725.099052 52.601276 
L 728.375591 50.416533 
L 730.01386 49.19131 
L 730.01386 49.19131 
" clip-path="url(#pfe4c3dd45c)" style="fill: none; stroke: #0000ff; stroke-width: 1.5; stroke-linecap: round"/>
   </g>
   <g id="line2d_102"/>
   <g id="patch_3">
    <path d="M 52.098125 470.728203 
L 52.098125 29.118125 
" style="fill: none; stroke: #262626; stroke-width: 1.25; stroke-linejoin: miter; stroke-linecap: square"/>
   </g>
   <g id="patch_4">
    <path d="M 765.728125 470.728203 
L 765.728125 29.118125 
" style="fill: none; stroke: #262626; stroke-width: 1.25; stroke-linejoin: miter; stroke-linecap: square"/>
   </g>
   <g id="patch_5">
    <path d="M 52.098125 470.728203 
L 765.728125 470.728203 
" style="fill: none; stroke: #262626; stroke-width: 1.25; stroke-linejoin: miter; stroke-linecap: square"/>
   </g>
   <g id="patch_6">
    <path d="M 52.098125 29.118125 
L 765.728125 29.118125 
" style="fill: none; stroke: #262626; stroke-width: 1.25; stroke-linejoin: miter; stroke-linecap: square"/>
   </g>
   <g id="text_36">
    <!-- Последна актуализация: 28.01.2022 -->
    <g style="fill: #262626" transform="translate(312.981201 22.493974)scale(0.09996 -0.09996)">
     <defs>
      <path id="DejaVuSans-43b" d="M 238 0 
L 238 478 
Q 806 566 981 959 
Q 1194 1513 1194 2928 
L 1194 3500 
L 3559 3500 
L 3559 0 
L 2984 0 
L 2984 3041 
L 1769 3041 
L 1769 2694 
Q 1769 1344 1494 738 
Q 1200 91 238 0 
z
" transform="scale(0.015625)"/>
      <path id="DejaVuSans-43a" d="M 581 3500 
L 1153 3500 
L 1153 1856 
L 2775 3500 
L 3481 3500 
L 2144 2147 
L 3653 0 
L 3009 0 
L 1769 1766 
L 1153 1141 
L 1153 0 
L 581 0 
L 581 3500 
z
" transform="scale(0.015625)"/>
      <path id="DejaVuSans-443" d="M 2059 -325 
Q 1816 -950 1584 -1140 
Q 1353 -1331 966 -1331 
L 506 -1331 
L 506 -850 
L 844 -850 
Q 1081 -850 1212 -737 
Q 1344 -625 1503 -206 
L 1606 56 
L 191 3500 
L 800 3500 
L 1894 763 
L 2988 3500 
L 3597 3500 
L 2059 -325 
z
" transform="scale(0.015625)"/>
      <path id="DejaVuSans-44f" d="M 1181 2491 
Q 1181 2231 1381 2084 
Q 1581 1938 1953 1938 
L 2728 1938 
L 2728 3041 
L 1953 3041 
Q 1581 3041 1381 2897 
Q 1181 2753 1181 2491 
z
M 363 0 
L 1431 1534 
Q 1069 1616 828 1830 
Q 588 2044 588 2491 
Q 588 2997 923 3248 
Q 1259 3500 1938 3500 
L 3306 3500 
L 3306 0 
L 2728 0 
L 2728 1478 
L 2013 1478 
L 981 0 
L 363 0 
z
" transform="scale(0.015625)"/>
      <path id="DejaVuSans-3a" d="M 750 794 
L 1409 794 
L 1409 0 
L 750 0 
L 750 794 
z
M 750 3309 
L 1409 3309 
L 1409 2516 
L 750 2516 
L 750 3309 
z
" transform="scale(0.015625)"/>
     </defs>
     <use xlink:href="#DejaVuSans-41f"/>
     <use xlink:href="#DejaVuSans-43e" x="75.195312"/>
     <use xlink:href="#DejaVuSans-441" x="136.376953"/>
     <use xlink:href="#DejaVuSans-43b" x="191.357422"/>
     <use xlink:href="#DejaVuSans-435" x="255.273438"/>
     <use xlink:href="#DejaVuSans-434" x="316.796875"/>
     <use xlink:href="#DejaVuSans-43d" x="385.9375"/>
     <use xlink:href="#DejaVuSans-430" x="451.318359"/>
     <use xlink:href="#DejaVuSans-20" x="512.597656"/>
     <use xlink:href="#DejaVuSans-430" x="544.384766"/>
     <use xlink:href="#DejaVuSans-43a" x="605.664062"/>
     <use xlink:href="#DejaVuSans-442" x="666.064453"/>
     <use xlink:href="#DejaVuSans-443" x="724.316406"/>
     <use xlink:href="#DejaVuSans-430" x="783.496094"/>
     <use xlink:href="#DejaVuSans-43b" x="844.775391"/>
     <use xlink:href="#DejaVuSans-438" x="908.691406"/>
     <use xlink:href="#DejaVuSans-437" x="973.681641"/>
     <use xlink:href="#DejaVuSans-430" x="1026.855469"/>
     <use xlink:href="#DejaVuSans-446" x="1088.134766"/>
     <use xlink:href="#DejaVuSans-438" x="1156.201172"/>
     <use xlink:href="#DejaVuSans-44f" x="1221.191406"/>
     <use xlink:href="#DejaVuSans-3a" x="1281.347656"/>
     <use xlink:href="#DejaVuSans-20" x="1315.039062"/>
     <use xlink:href="#DejaVuSans-32" x="1346.826172"/>
     <use xlink:href="#DejaVuSans-38" x="1410.449219"/>
     <use xlink:href="#DejaVuSans-2e" x="1474.072266"/>
     <use xlink:href="#DejaVuSans-30" x="1505.859375"/>
     <use xlink:href="#DejaVuSans-31" x="1569.482422"/>
     <use xlink:href="#DejaVuSans-2e" x="1633.105469"/>
     <use xlink:href="#DejaVuSans-32" x="1664.892578"/>
     <use xlink:href="#DejaVuSans-30" x="1728.515625"/>
     <use xlink:href="#DejaVuSans-32" x="1792.138672"/>
     <use xlink:href="#DejaVuSans-32" x="1855.761719"/>
    </g>
   </g>
   <g id="text_37">
    <!-- Последна актуализация: 28.01.2022 -->
    <g style="fill: #262626" transform="translate(312.981201 22.493974)scale(0.09996 -0.09996)">
     <use xlink:href="#DejaVuSans-41f"/>
     <use xlink:href="#DejaVuSans-43e" x="75.195312"/>
     <use xlink:href="#DejaVuSans-441" x="136.376953"/>
     <use xlink:href="#DejaVuSans-43b" x="191.357422"/>
     <use xlink:href="#DejaVuSans-435" x="255.273438"/>
     <use xlink:href="#DejaVuSans-434" x="316.796875"/>
     <use xlink:href="#DejaVuSans-43d" x="385.9375"/>
     <use xlink:href="#DejaVuSans-430" x="451.318359"/>
     <use xlink:href="#DejaVuSans-20" x="512.597656"/>
     <use xlink:href="#DejaVuSans-430" x="544.384766"/>
     <use xlink:href="#DejaVuSans-43a" x="605.664062"/>
     <use xlink:href="#DejaVuSans-442" x="666.064453"/>
     <use xlink:href="#DejaVuSans-443" x="724.316406"/>
     <use xlink:href="#DejaVuSans-430" x="783.496094"/>
     <use xlink:href="#DejaVuSans-43b" x="844.775391"/>
     <use xlink:href="#DejaVuSans-438" x="908.691406"/>
     <use xlink:href="#DejaVuSans-437" x="973.681641"/>
     <use xlink:href="#DejaVuSans-430" x="1026.855469"/>
     <use xlink:href="#DejaVuSans-446" x="1088.134766"/>
     <use xlink:href="#DejaVuSans-438" x="1156.201172"/>
     <use xlink:href="#DejaVuSans-44f" x="1221.191406"/>
     <use xlink:href="#DejaVuSans-3a" x="1281.347656"/>
     <use xlink:href="#DejaVuSans-20" x="1315.039062"/>
     <use xlink:href="#DejaVuSans-32" x="1346.826172"/>
     <use xlink:href="#DejaVuSans-38" x="1410.449219"/>
     <use xlink:href="#DejaVuSans-2e" x="1474.072266"/>
     <use xlink:href="#DejaVuSans-30" x="1505.859375"/>
     <use xlink:href="#DejaVuSans-31" x="1569.482422"/>
     <use xlink:href="#DejaVuSans-2e" x="1633.105469"/>
     <use xlink:href="#DejaVuSans-32" x="1664.892578"/>
     <use xlink:href="#DejaVuSans-30" x="1728.515625"/>
     <use xlink:href="#DejaVuSans-32" x="1792.138672"/>
     <use xlink:href="#DejaVuSans-32" x="1855.761719"/>
    </g>
   </g>
   <g id="text_38">
    <!-- Хронология на ваксинацията по седмици -->
    <g style="fill: #262626" transform="translate(264.942187 9.118125)scale(0.12 -0.12)">
     <defs>
      <path id="DejaVuSans-Bold-425" d="M 3188 2381 
L 4806 0 
L 3553 0 
L 2463 1594 
L 1381 0 
L 122 0 
L 1741 2381 
L 184 4666 
L 1441 4666 
L 2463 3163 
L 3481 4666 
L 4744 4666 
L 3188 2381 
z
" transform="scale(0.015625)"/>
      <path id="DejaVuSans-Bold-440" d="M 1656 506 
L 1656 -1331 
L 538 -1331 
L 538 3500 
L 1656 3500 
L 1656 2988 
Q 1888 3294 2169 3439 
Q 2450 3584 2816 3584 
Q 3463 3584 3878 3070 
Q 4294 2556 4294 1747 
Q 4294 938 3878 423 
Q 3463 -91 2816 -91 
Q 2450 -91 2169 54 
Q 1888 200 1656 506 
z
M 2400 2772 
Q 2041 2772 1848 2508 
Q 1656 2244 1656 1747 
Q 1656 1250 1848 986 
Q 2041 722 2400 722 
Q 2759 722 2948 984 
Q 3138 1247 3138 1747 
Q 3138 2247 2948 2509 
Q 2759 2772 2400 2772 
z
" transform="scale(0.015625)"/>
      <path id="DejaVuSans-Bold-43e" d="M 2203 2784 
Q 1831 2784 1636 2517 
Q 1441 2250 1441 1747 
Q 1441 1244 1636 976 
Q 1831 709 2203 709 
Q 2569 709 2762 976 
Q 2956 1244 2956 1747 
Q 2956 2250 2762 2517 
Q 2569 2784 2203 2784 
z
M 2203 3584 
Q 3106 3584 3614 3096 
Q 4122 2609 4122 1747 
Q 4122 884 3614 396 
Q 3106 -91 2203 -91 
Q 1297 -91 786 396 
Q 275 884 275 1747 
Q 275 2609 786 3096 
Q 1297 3584 2203 3584 
z
" transform="scale(0.015625)"/>
      <path id="DejaVuSans-Bold-43d" d="M 538 3500 
L 1656 3500 
L 1656 2169 
L 2766 2169 
L 2766 3500 
L 3884 3500 
L 3884 0 
L 2766 0 
L 2766 1478 
L 1656 1478 
L 1656 0 
L 538 0 
L 538 3500 
z
" transform="scale(0.015625)"/>
      <path id="DejaVuSans-Bold-43b" d="M 353 0 
L 353 800 
Q 906 913 1031 1278 
Q 1125 1556 1125 2928 
L 1125 3500 
L 4150 3500 
L 4150 0 
L 3031 0 
L 3031 2700 
L 2244 2700 
L 2244 2584 
Q 2244 1213 2028 813 
Q 1591 0 353 0 
z
" transform="scale(0.015625)"/>
      <path id="DejaVuSans-Bold-433" d="M 538 0 
L 538 3500 
L 3191 3500 
L 3191 2809 
L 1656 2809 
L 1656 0 
L 538 0 
z
" transform="scale(0.015625)"/>
      <path id="DejaVuSans-Bold-438" d="M 3947 3500 
L 3947 0 
L 2828 0 
L 2828 1863 
L 1700 0 
L 538 0 
L 538 3500 
L 1656 3500 
L 1656 1638 
L 2784 3500 
L 3947 3500 
z
" transform="scale(0.015625)"/>
      <path id="DejaVuSans-Bold-44f" d="M 1528 2394 
Q 1528 2169 1651 2069 
Q 1775 1969 2059 1969 
L 2463 1969 
L 2463 2816 
L 2059 2816 
Q 1775 2816 1651 2719 
Q 1528 2622 1528 2394 
z
M 197 0 
L 1113 1497 
Q 847 1650 650 1917 
Q 453 2184 453 2516 
Q 453 3013 789 3256 
Q 1125 3500 1878 3500 
L 3581 3500 
L 3581 0 
L 2463 0 
L 2463 1278 
L 2069 1278 
L 1288 0 
L 197 0 
z
" transform="scale(0.015625)"/>
      <path id="DejaVuSans-Bold-20" transform="scale(0.015625)"/>
      <path id="DejaVuSans-Bold-430" d="M 2106 1575 
Q 1756 1575 1579 1456 
Q 1403 1338 1403 1106 
Q 1403 894 1545 773 
Q 1688 653 1941 653 
Q 2256 653 2472 879 
Q 2688 1106 2688 1447 
L 2688 1575 
L 2106 1575 
z
M 3816 1997 
L 3816 0 
L 2688 0 
L 2688 519 
Q 2463 200 2181 54 
Q 1900 -91 1497 -91 
Q 953 -91 614 226 
Q 275 544 275 1050 
Q 275 1666 698 1953 
Q 1122 2241 2028 2241 
L 2688 2241 
L 2688 2328 
Q 2688 2594 2478 2717 
Q 2269 2841 1825 2841 
Q 1466 2841 1156 2769 
Q 847 2697 581 2553 
L 581 3406 
Q 941 3494 1303 3539 
Q 1666 3584 2028 3584 
Q 2975 3584 3395 3211 
Q 3816 2838 3816 1997 
z
" transform="scale(0.015625)"/>
      <path id="DejaVuSans-Bold-432" d="M 2184 2181 
Q 2378 2181 2478 2261 
Q 2578 2341 2578 2497 
Q 2578 2653 2478 2731 
Q 2378 2809 2184 2809 
L 1656 2809 
L 1656 2181 
L 2184 2181 
z
M 2222 700 
Q 2469 700 2594 798 
Q 2719 897 2719 1094 
Q 2719 1288 2594 1384 
Q 2469 1481 2222 1481 
L 1656 1481 
L 1656 700 
L 2222 700 
z
M 538 3500 
L 2141 3500 
Q 2919 3500 3267 3279 
Q 3616 3059 3616 2575 
Q 3616 2319 3487 2139 
Q 3359 1959 3119 1872 
Q 3428 1788 3598 1561 
Q 3769 1334 3769 1003 
Q 3769 497 3403 248 
Q 3038 0 2294 0 
L 538 0 
L 538 3500 
z
" transform="scale(0.015625)"/>
      <path id="DejaVuSans-Bold-43a" d="M 538 3500 
L 1656 3500 
L 1656 2316 
L 2903 3500 
L 4128 3500 
L 2634 2078 
L 4250 0 
L 3094 0 
L 1972 1447 
L 1656 1147 
L 1656 0 
L 538 0 
L 538 3500 
z
" transform="scale(0.015625)"/>
      <path id="DejaVuSans-Bold-441" d="M 3366 3391 
L 3366 2478 
Q 3138 2634 2908 2709 
Q 2678 2784 2431 2784 
Q 1963 2784 1702 2511 
Q 1441 2238 1441 1747 
Q 1441 1256 1702 982 
Q 1963 709 2431 709 
Q 2694 709 2930 787 
Q 3166 866 3366 1019 
L 3366 103 
Q 3103 6 2833 -42 
Q 2563 -91 2291 -91 
Q 1344 -91 809 395 
Q 275 881 275 1747 
Q 275 2613 809 3098 
Q 1344 3584 2291 3584 
Q 2566 3584 2833 3536 
Q 3100 3488 3366 3391 
z
" transform="scale(0.015625)"/>
      <path id="DejaVuSans-Bold-446" d="M 3666 -884 
L 3666 0 
L 538 0 
L 538 3500 
L 1656 3500 
L 1656 800 
L 2766 800 
L 2766 3500 
L 3884 3500 
L 3884 800 
L 4466 800 
L 4466 -884 
L 3666 -884 
z
" transform="scale(0.015625)"/>
      <path id="DejaVuSans-Bold-442" d="M 25 3500 
L 3681 3500 
L 3681 2809 
L 2413 2809 
L 2413 0 
L 1297 0 
L 1297 2809 
L 25 2809 
L 25 3500 
z
" transform="scale(0.015625)"/>
      <path id="DejaVuSans-Bold-43f" d="M 3884 3500 
L 3884 0 
L 2766 0 
L 2766 2700 
L 1656 2700 
L 1656 0 
L 538 0 
L 538 3500 
L 3884 3500 
z
" transform="scale(0.015625)"/>
      <path id="DejaVuSans-Bold-435" d="M 4031 1759 
L 4031 1441 
L 1416 1441 
Q 1456 1047 1700 850 
Q 1944 653 2381 653 
Q 2734 653 3104 758 
Q 3475 863 3866 1075 
L 3866 213 
Q 3469 63 3072 -14 
Q 2675 -91 2278 -91 
Q 1328 -91 801 392 
Q 275 875 275 1747 
Q 275 2603 792 3093 
Q 1309 3584 2216 3584 
Q 3041 3584 3536 3087 
Q 4031 2591 4031 1759 
z
M 2881 2131 
Q 2881 2450 2695 2645 
Q 2509 2841 2209 2841 
Q 1884 2841 1681 2658 
Q 1478 2475 1428 2131 
L 2881 2131 
z
" transform="scale(0.015625)"/>
      <path id="DejaVuSans-Bold-434" d="M 547 800 
Q 903 919 1053 1314 
Q 1203 1709 1203 2838 
L 1203 3500 
L 4228 3500 
L 4228 800 
L 4809 800 
L 4809 -884 
L 4009 -884 
L 4009 0 
L 1159 0 
L 1159 -884 
L 359 -884 
L 359 800 
L 547 800 
z
M 3109 2700 
L 2322 2700 
L 2322 2603 
Q 2322 1456 2063 800 
L 3109 800 
L 3109 2700 
z
" transform="scale(0.015625)"/>
      <path id="DejaVuSans-Bold-43c" d="M 538 3500 
L 1825 3500 
L 2613 1750 
L 3400 3500 
L 4691 3500 
L 4691 0 
L 3575 0 
L 3575 1984 
L 2984 672 
L 2250 672 
L 1656 1984 
L 1656 0 
L 538 0 
L 538 3500 
z
" transform="scale(0.015625)"/>
     </defs>
     <use xlink:href="#DejaVuSans-Bold-425"/>
     <use xlink:href="#DejaVuSans-Bold-440" x="77.099609"/>
     <use xlink:href="#DejaVuSans-Bold-43e" x="148.681641"/>
     <use xlink:href="#DejaVuSans-Bold-43d" x="217.382812"/>
     <use xlink:href="#DejaVuSans-Bold-43e" x="286.474609"/>
     <use xlink:href="#DejaVuSans-Bold-43b" x="355.175781"/>
     <use xlink:href="#DejaVuSans-Bold-43e" x="428.417969"/>
     <use xlink:href="#DejaVuSans-Bold-433" x="497.119141"/>
     <use xlink:href="#DejaVuSans-Bold-438" x="549.365234"/>
     <use xlink:href="#DejaVuSans-Bold-44f" x="619.433594"/>
     <use xlink:href="#DejaVuSans-Bold-20" x="683.642578"/>
     <use xlink:href="#DejaVuSans-Bold-43d" x="718.457031"/>
     <use xlink:href="#DejaVuSans-Bold-430" x="787.548828"/>
     <use xlink:href="#DejaVuSans-Bold-20" x="855.029297"/>
     <use xlink:href="#DejaVuSans-Bold-432" x="889.84375"/>
     <use xlink:href="#DejaVuSans-Bold-430" x="953.125"/>
     <use xlink:href="#DejaVuSans-Bold-43a" x="1020.605469"/>
     <use xlink:href="#DejaVuSans-Bold-441" x="1088.476562"/>
     <use xlink:href="#DejaVuSans-Bold-438" x="1147.753906"/>
     <use xlink:href="#DejaVuSans-Bold-43d" x="1217.822266"/>
     <use xlink:href="#DejaVuSans-Bold-430" x="1286.914062"/>
     <use xlink:href="#DejaVuSans-Bold-446" x="1354.394531"/>
     <use xlink:href="#DejaVuSans-Bold-438" x="1428.515625"/>
     <use xlink:href="#DejaVuSans-Bold-44f" x="1498.583984"/>
     <use xlink:href="#DejaVuSans-Bold-442" x="1562.792969"/>
     <use xlink:href="#DejaVuSans-Bold-430" x="1620.751953"/>
     <use xlink:href="#DejaVuSans-Bold-20" x="1688.232422"/>
     <use xlink:href="#DejaVuSans-Bold-43f" x="1723.046875"/>
     <use xlink:href="#DejaVuSans-Bold-43e" x="1792.138672"/>
     <use xlink:href="#DejaVuSans-Bold-20" x="1860.839844"/>
     <use xlink:href="#DejaVuSans-Bold-441" x="1895.654297"/>
     <use xlink:href="#DejaVuSans-Bold-435" x="1954.931641"/>
     <use xlink:href="#DejaVuSans-Bold-434" x="2022.753906"/>
     <use xlink:href="#DejaVuSans-Bold-43c" x="2103.515625"/>
     <use xlink:href="#DejaVuSans-Bold-438" x="2185.253906"/>
     <use xlink:href="#DejaVuSans-Bold-446" x="2255.322266"/>
     <use xlink:href="#DejaVuSans-Bold-438" x="2329.443359"/>
    </g>
   </g>
  </g>
  <g id="axes_2">
   <g id="matplotlib.axis_3">
    <g id="ytick_6">
     <g id="line2d_103">
      <defs>
       <path id="mdedc8d9c2c" d="M 0 0 
L 6 0 
" style="stroke: #262626; stroke-width: 1.25"/>
      </defs>
      <g>
       <use xlink:href="#mdedc8d9c2c" x="765.728125" y="461.453043" style="fill: #262626; stroke: #262626; stroke-width: 1.25"/>
      </g>
     </g>
     <g id="text_39">
      <!-- 0 -->
      <g style="fill: #262626" transform="translate(775.228125 465.632184)scale(0.11 -0.11)">
       <use xlink:href="#DejaVuSans-30"/>
      </g>
     </g>
    </g>
    <g id="ytick_7">
     <g id="line2d_104">
      <g>
       <use xlink:href="#mdedc8d9c2c" x="765.728125" y="404.489414" style="fill: #262626; stroke: #262626; stroke-width: 1.25"/>
      </g>
     </g>
     <g id="text_40">
      <!-- 25000 -->
      <g style="fill: #262626" transform="translate(775.228125 408.668555)scale(0.11 -0.11)">
       <use xlink:href="#DejaVuSans-32"/>
       <use xlink:href="#DejaVuSans-35" x="63.623047"/>
       <use xlink:href="#DejaVuSans-30" x="127.246094"/>
       <use xlink:href="#DejaVuSans-30" x="190.869141"/>
       <use xlink:href="#DejaVuSans-30" x="254.492188"/>
      </g>
     </g>
    </g>
    <g id="ytick_8">
     <g id="line2d_105">
      <g>
       <use xlink:href="#mdedc8d9c2c" x="765.728125" y="347.525785" style="fill: #262626; stroke: #262626; stroke-width: 1.25"/>
      </g>
     </g>
     <g id="text_41">
      <!-- 50000 -->
      <g style="fill: #262626" transform="translate(775.228125 351.704926)scale(0.11 -0.11)">
       <use xlink:href="#DejaVuSans-35"/>
       <use xlink:href="#DejaVuSans-30" x="63.623047"/>
       <use xlink:href="#DejaVuSans-30" x="127.246094"/>
       <use xlink:href="#DejaVuSans-30" x="190.869141"/>
       <use xlink:href="#DejaVuSans-30" x="254.492188"/>
      </g>
     </g>
    </g>
    <g id="ytick_9">
     <g id="line2d_106">
      <g>
       <use xlink:href="#mdedc8d9c2c" x="765.728125" y="290.562156" style="fill: #262626; stroke: #262626; stroke-width: 1.25"/>
      </g>
     </g>
     <g id="text_42">
      <!-- 75000 -->
      <g style="fill: #262626" transform="translate(775.228125 294.741297)scale(0.11 -0.11)">
       <use xlink:href="#DejaVuSans-37"/>
       <use xlink:href="#DejaVuSans-35" x="63.623047"/>
       <use xlink:href="#DejaVuSans-30" x="127.246094"/>
       <use xlink:href="#DejaVuSans-30" x="190.869141"/>
       <use xlink:href="#DejaVuSans-30" x="254.492188"/>
      </g>
     </g>
    </g>
    <g id="ytick_10">
     <g id="line2d_107">
      <g>
       <use xlink:href="#mdedc8d9c2c" x="765.728125" y="233.598527" style="fill: #262626; stroke: #262626; stroke-width: 1.25"/>
      </g>
     </g>
     <g id="text_43">
      <!-- 100000 -->
      <g style="fill: #262626" transform="translate(775.228125 237.777668)scale(0.11 -0.11)">
       <use xlink:href="#DejaVuSans-31"/>
       <use xlink:href="#DejaVuSans-30" x="63.623047"/>
       <use xlink:href="#DejaVuSans-30" x="127.246094"/>
       <use xlink:href="#DejaVuSans-30" x="190.869141"/>
       <use xlink:href="#DejaVuSans-30" x="254.492188"/>
       <use xlink:href="#DejaVuSans-30" x="318.115234"/>
      </g>
     </g>
    </g>
    <g id="ytick_11">
     <g id="line2d_108">
      <g>
       <use xlink:href="#mdedc8d9c2c" x="765.728125" y="176.634898" style="fill: #262626; stroke: #262626; stroke-width: 1.25"/>
      </g>
     </g>
     <g id="text_44">
      <!-- 125000 -->
      <g style="fill: #262626" transform="translate(775.228125 180.814039)scale(0.11 -0.11)">
       <use xlink:href="#DejaVuSans-31"/>
       <use xlink:href="#DejaVuSans-32" x="63.623047"/>
       <use xlink:href="#DejaVuSans-35" x="127.246094"/>
       <use xlink:href="#DejaVuSans-30" x="190.869141"/>
       <use xlink:href="#DejaVuSans-30" x="254.492188"/>
       <use xlink:href="#DejaVuSans-30" x="318.115234"/>
      </g>
     </g>
    </g>
    <g id="ytick_12">
     <g id="line2d_109">
      <g>
       <use xlink:href="#mdedc8d9c2c" x="765.728125" y="119.671269" style="fill: #262626; stroke: #262626; stroke-width: 1.25"/>
      </g>
     </g>
     <g id="text_45">
      <!-- 150000 -->
      <g style="fill: #262626" transform="translate(775.228125 123.85041)scale(0.11 -0.11)">
       <use xlink:href="#DejaVuSans-31"/>
       <use xlink:href="#DejaVuSans-35" x="63.623047"/>
       <use xlink:href="#DejaVuSans-30" x="127.246094"/>
       <use xlink:href="#DejaVuSans-30" x="190.869141"/>
       <use xlink:href="#DejaVuSans-30" x="254.492188"/>
       <use xlink:href="#DejaVuSans-30" x="318.115234"/>
      </g>
     </g>
    </g>
    <g id="ytick_13">
     <g id="line2d_110">
      <g>
       <use xlink:href="#mdedc8d9c2c" x="765.728125" y="62.70764" style="fill: #262626; stroke: #262626; stroke-width: 1.25"/>
      </g>
     </g>
     <g id="text_46">
      <!-- 175000 -->
      <g style="fill: #262626" transform="translate(775.228125 66.886781)scale(0.11 -0.11)">
       <use xlink:href="#DejaVuSans-31"/>
       <use xlink:href="#DejaVuSans-37" x="63.623047"/>
       <use xlink:href="#DejaVuSans-35" x="127.246094"/>
       <use xlink:href="#DejaVuSans-30" x="190.869141"/>
       <use xlink:href="#DejaVuSans-30" x="254.492188"/>
       <use xlink:href="#DejaVuSans-30" x="318.115234"/>
      </g>
     </g>
    </g>
    <g id="text_47">
     <!-- Новопоставени дози -->
     <g style="fill: #262626" transform="translate(828.1025 184.601914)rotate(-270)scale(0.12 -0.12)">
      <defs>
       <path id="DejaVuSans-41d" d="M 628 4666 
L 1259 4666 
L 1259 2753 
L 3553 2753 
L 3553 4666 
L 4184 4666 
L 4184 0 
L 3553 0 
L 3553 2222 
L 1259 2222 
L 1259 0 
L 628 0 
L 628 4666 
z
" transform="scale(0.015625)"/>
       <path id="DejaVuSans-43f" d="M 3603 3500 
L 3603 0 
L 3025 0 
L 3025 3041 
L 1159 3041 
L 1159 0 
L 581 0 
L 581 3500 
L 3603 3500 
z
" transform="scale(0.015625)"/>
      </defs>
      <use xlink:href="#DejaVuSans-41d"/>
      <use xlink:href="#DejaVuSans-43e" x="75.195312"/>
      <use xlink:href="#DejaVuSans-432" x="136.376953"/>
      <use xlink:href="#DejaVuSans-43e" x="195.3125"/>
      <use xlink:href="#DejaVuSans-43f" x="256.494141"/>
      <use xlink:href="#DejaVuSans-43e" x="321.875"/>
      <use xlink:href="#DejaVuSans-441" x="383.056641"/>
      <use xlink:href="#DejaVuSans-442" x="438.037109"/>
      <use xlink:href="#DejaVuSans-430" x="496.289062"/>
      <use xlink:href="#DejaVuSans-432" x="557.568359"/>
      <use xlink:href="#DejaVuSans-435" x="616.503906"/>
      <use xlink:href="#DejaVuSans-43d" x="678.027344"/>
      <use xlink:href="#DejaVuSans-438" x="743.408203"/>
      <use xlink:href="#DejaVuSans-20" x="808.398438"/>
      <use xlink:href="#DejaVuSans-434" x="840.185547"/>
      <use xlink:href="#DejaVuSans-43e" x="909.326172"/>
      <use xlink:href="#DejaVuSans-437" x="970.507812"/>
      <use xlink:href="#DejaVuSans-438" x="1023.681641"/>
     </g>
    </g>
   </g>
   <g id="line2d_111">
    <path d="M 91.088928 450.655018 
L 102.556812 441.55223 
L 114.024695 450.381592 
L 125.492579 443.710012 
L 136.960462 427.500442 
L 148.428345 425.005435 
L 159.896229 419.746553 
L 171.364112 386.179025 
L 182.831996 230.39945 
L 194.299879 285.189347 
L 205.767762 345.734849 
L 217.235646 396.188674 
L 228.703529 307.398326 
L 240.171412 306.694256 
L 251.639296 304.269884 
L 263.107179 310.718167 
L 274.575063 270.160063 
L 286.042946 233.489157 
L 297.510829 208.076543 
L 308.978713 49.19131 
L 320.446596 134.108131 
L 331.914479 253.674789 
L 343.382363 213.918733 
L 354.850246 195.045543 
L 366.31813 271.693524 
L 377.786013 306.84464 
L 389.253896 315.607925 
L 400.72178 321.126561 
L 412.189663 326.064168 
L 423.657546 333.426148 
L 435.12543 320.09438 
L 446.593313 317.533295 
L 458.061197 321.689362 
L 469.52908 315.808437 
L 480.996963 302.827565 
L 492.464847 310.567783 
L 503.93273 339.243274 
L 515.400614 333.993505 
L 526.868497 358.738506 
L 538.33638 365.874909 
L 549.804264 373.729055 
L 561.272147 372.104452 
L 572.74003 246.071283 
L 584.207914 156.150777 
L 595.675797 220.870574 
L 607.143681 223.723312 
L 618.611564 196.360264 
L 630.079447 212.934401 
L 641.547331 219.599146 
L 653.015214 247.413347 
L 664.483097 249.270361 
L 675.950981 302.000453 
L 687.418864 353.527473 
L 698.886748 122.5354 
L 710.354631 111.805731 
L 721.822514 251.551185 
L 733.290398 361.324655 
" clip-path="url(#pfe4c3dd45c)" style="fill: none; stroke: #ff0000; stroke-width: 1.5; stroke-linecap: round"/>
   </g>
   <g id="patch_7">
    <path d="M 52.098125 470.728203 
L 52.098125 29.118125 
" style="fill: none; stroke: #262626; stroke-width: 1.25; stroke-linejoin: miter; stroke-linecap: square"/>
   </g>
   <g id="patch_8">
    <path d="M 765.728125 470.728203 
L 765.728125 29.118125 
" style="fill: none; stroke: #262626; stroke-width: 1.25; stroke-linejoin: miter; stroke-linecap: square"/>
   </g>
   <g id="patch_9">
    <path d="M 52.098125 470.728203 
L 765.728125 470.728203 
" style="fill: none; stroke: #262626; stroke-width: 1.25; stroke-linejoin: miter; stroke-linecap: square"/>
   </g>
   <g id="patch_10">
    <path d="M 52.098125 29.118125 
L 765.728125 29.118125 
" style="fill: none; stroke: #262626; stroke-width: 1.25; stroke-linejoin: miter; stroke-linecap: square"/>
   </g>
   <g id="legend_1">
    <g id="patch_11">
     <path d="M 583.956563 70.397344 
L 758.028125 70.397344 
Q 760.228125 70.397344 760.228125 68.197344 
L 760.228125 36.818125 
Q 760.228125 34.618125 758.028125 34.618125 
L 583.956563 34.618125 
Q 581.756562 34.618125 581.756562 36.818125 
L 581.756562 68.197344 
Q 581.756562 70.397344 583.956563 70.397344 
z
" style="fill: #ffffff; opacity: 0.8; stroke: #cccccc; stroke-linejoin: miter"/>
    </g>
    <g id="line2d_112">
     <path d="M 586.156562 43.71375 
L 597.156562 43.71375 
L 608.156562 43.71375 
" style="fill: none; stroke: #0000ff; stroke-width: 1.5; stroke-linecap: round"/>
    </g>
    <g id="text_48">
     <!-- Кумулативен брой дози -->
     <g style="fill: #262626" transform="translate(616.956562 47.56375)scale(0.11 -0.11)">
      <defs>
       <path id="DejaVuSans-41a" d="M 628 4666 
L 1259 4666 
L 1259 2359 
L 3516 4666 
L 4325 4666 
L 2522 2822 
L 4419 0 
L 3731 0 
L 2113 2403 
L 1259 1531 
L 1259 0 
L 628 0 
L 628 4666 
z
" transform="scale(0.015625)"/>
       <path id="DejaVuSans-431" d="M 1991 3584 
Q 2741 3584 3169 3096 
Q 3597 2609 3597 1747 
Q 3597 888 3169 398 
Q 2741 -91 1991 -91 
Q 1238 -91 822 384 
Q 406 859 384 1747 
L 366 2463 
Q 350 2834 350 2963 
Q 350 3463 531 3831 
Q 816 4409 1308 4659 
Q 1800 4909 2625 4916 
Q 3006 4919 3175 4972 
L 3334 4516 
Q 3181 4453 3041 4450 
L 2259 4397 
Q 1866 4369 1628 4231 
Q 1006 3866 947 3388 
L 925 3213 
Q 1331 3584 1991 3584 
z
M 1991 3097 
Q 1528 3097 1259 2736 
Q 991 2375 991 1747 
Q 991 1119 1258 758 
Q 1525 397 1991 397 
Q 2450 397 2719 759 
Q 2988 1122 2988 1747 
Q 2988 2369 2719 2733 
Q 2450 3097 1991 3097 
z
" transform="scale(0.015625)"/>
       <path id="DejaVuSans-440" d="M 1159 525 
L 1159 -1331 
L 581 -1331 
L 581 3500 
L 1159 3500 
L 1159 2969 
Q 1341 3281 1617 3432 
Q 1894 3584 2278 3584 
Q 2916 3584 3314 3078 
Q 3713 2572 3713 1747 
Q 3713 922 3314 415 
Q 2916 -91 2278 -91 
Q 1894 -91 1617 61 
Q 1341 213 1159 525 
z
M 3116 1747 
Q 3116 2381 2855 2742 
Q 2594 3103 2138 3103 
Q 1681 3103 1420 2742 
Q 1159 2381 1159 1747 
Q 1159 1113 1420 752 
Q 1681 391 2138 391 
Q 2594 391 2855 752 
Q 3116 1113 3116 1747 
z
" transform="scale(0.015625)"/>
       <path id="DejaVuSans-439" d="M 3578 3500 
L 3578 0 
L 3006 0 
L 3006 2809 
L 1319 0 
L 581 0 
L 581 3500 
L 1153 3500 
L 1153 697 
L 2838 3500 
L 3578 3500 
z
M 1102 4833 
L 1471 4833 
Q 1505 4599 1656 4481 
Q 1808 4364 2080 4364 
Q 2349 4364 2499 4480 
Q 2649 4596 2689 4833 
L 3058 4833 
Q 3027 4386 2780 4161 
Q 2533 3936 2080 3936 
Q 1627 3936 1380 4161 
Q 1133 4386 1102 4833 
z
" transform="scale(0.015625)"/>
      </defs>
      <use xlink:href="#DejaVuSans-41a"/>
      <use xlink:href="#DejaVuSans-443" x="70.996094"/>
      <use xlink:href="#DejaVuSans-43c" x="130.175781"/>
      <use xlink:href="#DejaVuSans-443" x="205.615234"/>
      <use xlink:href="#DejaVuSans-43b" x="264.794922"/>
      <use xlink:href="#DejaVuSans-430" x="328.710938"/>
      <use xlink:href="#DejaVuSans-442" x="389.990234"/>
      <use xlink:href="#DejaVuSans-438" x="448.242188"/>
      <use xlink:href="#DejaVuSans-432" x="513.232422"/>
      <use xlink:href="#DejaVuSans-435" x="572.167969"/>
      <use xlink:href="#DejaVuSans-43d" x="633.691406"/>
      <use xlink:href="#DejaVuSans-20" x="699.072266"/>
      <use xlink:href="#DejaVuSans-431" x="730.859375"/>
      <use xlink:href="#DejaVuSans-440" x="792.529297"/>
      <use xlink:href="#DejaVuSans-43e" x="856.005859"/>
      <use xlink:href="#DejaVuSans-439" x="917.1875"/>
      <use xlink:href="#DejaVuSans-20" x="982.177734"/>
      <use xlink:href="#DejaVuSans-434" x="1013.964844"/>
      <use xlink:href="#DejaVuSans-43e" x="1083.105469"/>
      <use xlink:href="#DejaVuSans-437" x="1144.287109"/>
      <use xlink:href="#DejaVuSans-438" x="1197.460938"/>
     </g>
    </g>
    <g id="line2d_113">
     <path d="M 586.156562 59.859688 
L 597.156562 59.859688 
L 608.156562 59.859688 
" style="fill: none; stroke: #ff0000; stroke-width: 1.5; stroke-linecap: round"/>
    </g>
    <g id="text_49">
     <!-- Новопоставени дози -->
     <g style="fill: #262626" transform="translate(616.956562 63.709688)scale(0.11 -0.11)">
      <use xlink:href="#DejaVuSans-41d"/>
      <use xlink:href="#DejaVuSans-43e" x="75.195312"/>
      <use xlink:href="#DejaVuSans-432" x="136.376953"/>
      <use xlink:href="#DejaVuSans-43e" x="195.3125"/>
      <use xlink:href="#DejaVuSans-43f" x="256.494141"/>
      <use xlink:href="#DejaVuSans-43e" x="321.875"/>
      <use xlink:href="#DejaVuSans-441" x="383.056641"/>
      <use xlink:href="#DejaVuSans-442" x="438.037109"/>
      <use xlink:href="#DejaVuSans-430" x="496.289062"/>
      <use xlink:href="#DejaVuSans-432" x="557.568359"/>
      <use xlink:href="#DejaVuSans-435" x="616.503906"/>
      <use xlink:href="#DejaVuSans-43d" x="678.027344"/>
      <use xlink:href="#DejaVuSans-438" x="743.408203"/>
      <use xlink:href="#DejaVuSans-20" x="808.398438"/>
      <use xlink:href="#DejaVuSans-434" x="840.185547"/>
      <use xlink:href="#DejaVuSans-43e" x="909.326172"/>
      <use xlink:href="#DejaVuSans-437" x="970.507812"/>
      <use xlink:href="#DejaVuSans-438" x="1023.681641"/>
     </g>
    </g>
   </g>
  </g>
 </g>
 <defs>
  <clipPath id="pfe4c3dd45c">
   <rect x="52.098125" y="29.118125" width="713.63" height="441.610078"/>
  </clipPath>
 </defs>
</svg>
