<?xml version="1.0" encoding="utf-8" standalone="no"?>
<!DOCTYPE svg PUBLIC "-//W3C//DTD SVG 1.1//EN"
  "http://www.w3.org/Graphics/SVG/1.1/DTD/svg11.dtd">
<svg height="569.390558pt" version="1.1" viewBox="0 0 855.0494 569.390558" width="855.0494pt" xmlns="http://www.w3.org/2000/svg" xmlns:xlink="http://www.w3.org/1999/xlink">
 <metadata>
  <rdf:RDF xmlns:cc="http://creativecommons.org/ns#" xmlns:dc="http://purl.org/dc/elements/1.1/" xmlns:rdf="http://www.w3.org/1999/02/22-rdf-syntax-ns#">
   <cc:Work>
    <dc:type rdf:resource="http://purl.org/dc/dcmitype/StillImage"/>
    <dc:date>2021-11-13T02:34:16.158746</dc:date>
    <dc:format>image/svg+xml</dc:format>
    <dc:creator>
     <cc:Agent>
      <dc:title>Matplotlib v3.4.3, https://matplotlib.org/</dc:title>
     </cc:Agent>
    </dc:creator>
   </cc:Work>
  </rdf:RDF>
 </metadata>
 <defs>
  <style type="text/css">*{stroke-linecap:butt;stroke-linejoin:round;}</style>
 </defs>
 <g id="figure_1">
  <g id="patch_1">
   <path d="M 0 569.390558 
L 855.0494 569.390558 
L 855.0494 0 
L 0 0 
z
" style="fill:none;"/>
  </g>
  <g id="axes_1">
   <g id="patch_2">
    <path d="M 60.1075 496.042403 
L 811.5519 496.042403 
L 811.5519 29.118125 
L 60.1075 29.118125 
z
" style="fill:none;"/>
   </g>
   <g id="matplotlib.axis_1">
    <g id="xtick_1">
     <g id="line2d_1">
      <path clip-path="url(#p97a709cdd5)" d="M 94.264064 496.042403 
L 94.264064 29.118125 
" style="fill:none;stroke:#cccccc;stroke-linecap:round;"/>
     </g>
     <g id="line2d_2">
      <defs>
       <path d="M 0 0 
L 0 6 
" id="m94d7f27d92" style="stroke:#262626;stroke-width:1.25;"/>
      </defs>
      <g>
       <use style="fill:#262626;stroke:#262626;stroke-width:1.25;" x="94.264064" xlink:href="#m94d7f27d92" y="496.042403"/>
      </g>
     </g>
     <g id="text_1">
      <!-- 06.06 (23) -->
      <g style="fill:#262626;" transform="translate(51.939856 552.159191)rotate(-45)scale(0.11 -0.11)">
       <defs>
        <path d="M 2034 4250 
Q 1547 4250 1301 3770 
Q 1056 3291 1056 2328 
Q 1056 1369 1301 889 
Q 1547 409 2034 409 
Q 2525 409 2770 889 
Q 3016 1369 3016 2328 
Q 3016 3291 2770 3770 
Q 2525 4250 2034 4250 
z
M 2034 4750 
Q 2819 4750 3233 4129 
Q 3647 3509 3647 2328 
Q 3647 1150 3233 529 
Q 2819 -91 2034 -91 
Q 1250 -91 836 529 
Q 422 1150 422 2328 
Q 422 3509 836 4129 
Q 1250 4750 2034 4750 
z
" id="DejaVuSans-30" transform="scale(0.015625)"/>
        <path d="M 2113 2584 
Q 1688 2584 1439 2293 
Q 1191 2003 1191 1497 
Q 1191 994 1439 701 
Q 1688 409 2113 409 
Q 2538 409 2786 701 
Q 3034 994 3034 1497 
Q 3034 2003 2786 2293 
Q 2538 2584 2113 2584 
z
M 3366 4563 
L 3366 3988 
Q 3128 4100 2886 4159 
Q 2644 4219 2406 4219 
Q 1781 4219 1451 3797 
Q 1122 3375 1075 2522 
Q 1259 2794 1537 2939 
Q 1816 3084 2150 3084 
Q 2853 3084 3261 2657 
Q 3669 2231 3669 1497 
Q 3669 778 3244 343 
Q 2819 -91 2113 -91 
Q 1303 -91 875 529 
Q 447 1150 447 2328 
Q 447 3434 972 4092 
Q 1497 4750 2381 4750 
Q 2619 4750 2861 4703 
Q 3103 4656 3366 4563 
z
" id="DejaVuSans-36" transform="scale(0.015625)"/>
        <path d="M 684 794 
L 1344 794 
L 1344 0 
L 684 0 
L 684 794 
z
" id="DejaVuSans-2e" transform="scale(0.015625)"/>
        <path id="DejaVuSans-20" transform="scale(0.015625)"/>
        <path d="M 1984 4856 
Q 1566 4138 1362 3434 
Q 1159 2731 1159 2009 
Q 1159 1288 1364 580 
Q 1569 -128 1984 -844 
L 1484 -844 
Q 1016 -109 783 600 
Q 550 1309 550 2009 
Q 550 2706 781 3412 
Q 1013 4119 1484 4856 
L 1984 4856 
z
" id="DejaVuSans-28" transform="scale(0.015625)"/>
        <path d="M 1228 531 
L 3431 531 
L 3431 0 
L 469 0 
L 469 531 
Q 828 903 1448 1529 
Q 2069 2156 2228 2338 
Q 2531 2678 2651 2914 
Q 2772 3150 2772 3378 
Q 2772 3750 2511 3984 
Q 2250 4219 1831 4219 
Q 1534 4219 1204 4116 
Q 875 4013 500 3803 
L 500 4441 
Q 881 4594 1212 4672 
Q 1544 4750 1819 4750 
Q 2544 4750 2975 4387 
Q 3406 4025 3406 3419 
Q 3406 3131 3298 2873 
Q 3191 2616 2906 2266 
Q 2828 2175 2409 1742 
Q 1991 1309 1228 531 
z
" id="DejaVuSans-32" transform="scale(0.015625)"/>
        <path d="M 2597 2516 
Q 3050 2419 3304 2112 
Q 3559 1806 3559 1356 
Q 3559 666 3084 287 
Q 2609 -91 1734 -91 
Q 1441 -91 1130 -33 
Q 819 25 488 141 
L 488 750 
Q 750 597 1062 519 
Q 1375 441 1716 441 
Q 2309 441 2620 675 
Q 2931 909 2931 1356 
Q 2931 1769 2642 2001 
Q 2353 2234 1838 2234 
L 1294 2234 
L 1294 2753 
L 1863 2753 
Q 2328 2753 2575 2939 
Q 2822 3125 2822 3475 
Q 2822 3834 2567 4026 
Q 2313 4219 1838 4219 
Q 1578 4219 1281 4162 
Q 984 4106 628 3988 
L 628 4550 
Q 988 4650 1302 4700 
Q 1616 4750 1894 4750 
Q 2613 4750 3031 4423 
Q 3450 4097 3450 3541 
Q 3450 3153 3228 2886 
Q 3006 2619 2597 2516 
z
" id="DejaVuSans-33" transform="scale(0.015625)"/>
        <path d="M 513 4856 
L 1013 4856 
Q 1481 4119 1714 3412 
Q 1947 2706 1947 2009 
Q 1947 1309 1714 600 
Q 1481 -109 1013 -844 
L 513 -844 
Q 928 -128 1133 580 
Q 1338 1288 1338 2009 
Q 1338 2731 1133 3434 
Q 928 4138 513 4856 
z
" id="DejaVuSans-29" transform="scale(0.015625)"/>
       </defs>
       <use xlink:href="#DejaVuSans-30"/>
       <use x="63.623047" xlink:href="#DejaVuSans-36"/>
       <use x="127.246094" xlink:href="#DejaVuSans-2e"/>
       <use x="159.033203" xlink:href="#DejaVuSans-30"/>
       <use x="222.65625" xlink:href="#DejaVuSans-36"/>
       <use x="286.279297" xlink:href="#DejaVuSans-20"/>
       <use x="318.066406" xlink:href="#DejaVuSans-28"/>
       <use x="357.080078" xlink:href="#DejaVuSans-32"/>
       <use x="420.703125" xlink:href="#DejaVuSans-33"/>
       <use x="484.326172" xlink:href="#DejaVuSans-29"/>
      </g>
     </g>
    </g>
    <g id="xtick_2">
     <g id="line2d_3">
      <path clip-path="url(#p97a709cdd5)" d="M 130.697732 496.042403 
L 130.697732 29.118125 
" style="fill:none;stroke:#cccccc;stroke-linecap:round;"/>
     </g>
     <g id="line2d_4">
      <g>
       <use style="fill:#262626;stroke:#262626;stroke-width:1.25;" x="130.697732" xlink:href="#m94d7f27d92" y="496.042403"/>
      </g>
     </g>
     <g id="text_2">
      <!-- 04.07 (27) -->
      <g style="fill:#262626;" transform="translate(88.373524 552.159191)rotate(-45)scale(0.11 -0.11)">
       <defs>
        <path d="M 2419 4116 
L 825 1625 
L 2419 1625 
L 2419 4116 
z
M 2253 4666 
L 3047 4666 
L 3047 1625 
L 3713 1625 
L 3713 1100 
L 3047 1100 
L 3047 0 
L 2419 0 
L 2419 1100 
L 313 1100 
L 313 1709 
L 2253 4666 
z
" id="DejaVuSans-34" transform="scale(0.015625)"/>
        <path d="M 525 4666 
L 3525 4666 
L 3525 4397 
L 1831 0 
L 1172 0 
L 2766 4134 
L 525 4134 
L 525 4666 
z
" id="DejaVuSans-37" transform="scale(0.015625)"/>
       </defs>
       <use xlink:href="#DejaVuSans-30"/>
       <use x="63.623047" xlink:href="#DejaVuSans-34"/>
       <use x="127.246094" xlink:href="#DejaVuSans-2e"/>
       <use x="159.033203" xlink:href="#DejaVuSans-30"/>
       <use x="222.65625" xlink:href="#DejaVuSans-37"/>
       <use x="286.279297" xlink:href="#DejaVuSans-20"/>
       <use x="318.066406" xlink:href="#DejaVuSans-28"/>
       <use x="357.080078" xlink:href="#DejaVuSans-32"/>
       <use x="420.703125" xlink:href="#DejaVuSans-37"/>
       <use x="484.326172" xlink:href="#DejaVuSans-29"/>
      </g>
     </g>
    </g>
    <g id="xtick_3">
     <g id="line2d_5">
      <path clip-path="url(#p97a709cdd5)" d="M 167.131399 496.042403 
L 167.131399 29.118125 
" style="fill:none;stroke:#cccccc;stroke-linecap:round;"/>
     </g>
     <g id="line2d_6">
      <g>
       <use style="fill:#262626;stroke:#262626;stroke-width:1.25;" x="167.131399" xlink:href="#m94d7f27d92" y="496.042403"/>
      </g>
     </g>
     <g id="text_3">
      <!-- 01.08 (31) -->
      <g style="fill:#262626;" transform="translate(124.807192 552.159191)rotate(-45)scale(0.11 -0.11)">
       <defs>
        <path d="M 794 531 
L 1825 531 
L 1825 4091 
L 703 3866 
L 703 4441 
L 1819 4666 
L 2450 4666 
L 2450 531 
L 3481 531 
L 3481 0 
L 794 0 
L 794 531 
z
" id="DejaVuSans-31" transform="scale(0.015625)"/>
        <path d="M 2034 2216 
Q 1584 2216 1326 1975 
Q 1069 1734 1069 1313 
Q 1069 891 1326 650 
Q 1584 409 2034 409 
Q 2484 409 2743 651 
Q 3003 894 3003 1313 
Q 3003 1734 2745 1975 
Q 2488 2216 2034 2216 
z
M 1403 2484 
Q 997 2584 770 2862 
Q 544 3141 544 3541 
Q 544 4100 942 4425 
Q 1341 4750 2034 4750 
Q 2731 4750 3128 4425 
Q 3525 4100 3525 3541 
Q 3525 3141 3298 2862 
Q 3072 2584 2669 2484 
Q 3125 2378 3379 2068 
Q 3634 1759 3634 1313 
Q 3634 634 3220 271 
Q 2806 -91 2034 -91 
Q 1263 -91 848 271 
Q 434 634 434 1313 
Q 434 1759 690 2068 
Q 947 2378 1403 2484 
z
M 1172 3481 
Q 1172 3119 1398 2916 
Q 1625 2713 2034 2713 
Q 2441 2713 2670 2916 
Q 2900 3119 2900 3481 
Q 2900 3844 2670 4047 
Q 2441 4250 2034 4250 
Q 1625 4250 1398 4047 
Q 1172 3844 1172 3481 
z
" id="DejaVuSans-38" transform="scale(0.015625)"/>
       </defs>
       <use xlink:href="#DejaVuSans-30"/>
       <use x="63.623047" xlink:href="#DejaVuSans-31"/>
       <use x="127.246094" xlink:href="#DejaVuSans-2e"/>
       <use x="159.033203" xlink:href="#DejaVuSans-30"/>
       <use x="222.65625" xlink:href="#DejaVuSans-38"/>
       <use x="286.279297" xlink:href="#DejaVuSans-20"/>
       <use x="318.066406" xlink:href="#DejaVuSans-28"/>
       <use x="357.080078" xlink:href="#DejaVuSans-33"/>
       <use x="420.703125" xlink:href="#DejaVuSans-31"/>
       <use x="484.326172" xlink:href="#DejaVuSans-29"/>
      </g>
     </g>
    </g>
    <g id="xtick_4">
     <g id="line2d_7">
      <path clip-path="url(#p97a709cdd5)" d="M 203.565067 496.042403 
L 203.565067 29.118125 
" style="fill:none;stroke:#cccccc;stroke-linecap:round;"/>
     </g>
     <g id="line2d_8">
      <g>
       <use style="fill:#262626;stroke:#262626;stroke-width:1.25;" x="203.565067" xlink:href="#m94d7f27d92" y="496.042403"/>
      </g>
     </g>
     <g id="text_4">
      <!-- 29.08 (35) -->
      <g style="fill:#262626;" transform="translate(161.240859 552.159191)rotate(-45)scale(0.11 -0.11)">
       <defs>
        <path d="M 703 97 
L 703 672 
Q 941 559 1184 500 
Q 1428 441 1663 441 
Q 2288 441 2617 861 
Q 2947 1281 2994 2138 
Q 2813 1869 2534 1725 
Q 2256 1581 1919 1581 
Q 1219 1581 811 2004 
Q 403 2428 403 3163 
Q 403 3881 828 4315 
Q 1253 4750 1959 4750 
Q 2769 4750 3195 4129 
Q 3622 3509 3622 2328 
Q 3622 1225 3098 567 
Q 2575 -91 1691 -91 
Q 1453 -91 1209 -44 
Q 966 3 703 97 
z
M 1959 2075 
Q 2384 2075 2632 2365 
Q 2881 2656 2881 3163 
Q 2881 3666 2632 3958 
Q 2384 4250 1959 4250 
Q 1534 4250 1286 3958 
Q 1038 3666 1038 3163 
Q 1038 2656 1286 2365 
Q 1534 2075 1959 2075 
z
" id="DejaVuSans-39" transform="scale(0.015625)"/>
        <path d="M 691 4666 
L 3169 4666 
L 3169 4134 
L 1269 4134 
L 1269 2991 
Q 1406 3038 1543 3061 
Q 1681 3084 1819 3084 
Q 2600 3084 3056 2656 
Q 3513 2228 3513 1497 
Q 3513 744 3044 326 
Q 2575 -91 1722 -91 
Q 1428 -91 1123 -41 
Q 819 9 494 109 
L 494 744 
Q 775 591 1075 516 
Q 1375 441 1709 441 
Q 2250 441 2565 725 
Q 2881 1009 2881 1497 
Q 2881 1984 2565 2268 
Q 2250 2553 1709 2553 
Q 1456 2553 1204 2497 
Q 953 2441 691 2322 
L 691 4666 
z
" id="DejaVuSans-35" transform="scale(0.015625)"/>
       </defs>
       <use xlink:href="#DejaVuSans-32"/>
       <use x="63.623047" xlink:href="#DejaVuSans-39"/>
       <use x="127.246094" xlink:href="#DejaVuSans-2e"/>
       <use x="159.033203" xlink:href="#DejaVuSans-30"/>
       <use x="222.65625" xlink:href="#DejaVuSans-38"/>
       <use x="286.279297" xlink:href="#DejaVuSans-20"/>
       <use x="318.066406" xlink:href="#DejaVuSans-28"/>
       <use x="357.080078" xlink:href="#DejaVuSans-33"/>
       <use x="420.703125" xlink:href="#DejaVuSans-35"/>
       <use x="484.326172" xlink:href="#DejaVuSans-29"/>
      </g>
     </g>
    </g>
    <g id="xtick_5">
     <g id="line2d_9">
      <path clip-path="url(#p97a709cdd5)" d="M 239.998735 496.042403 
L 239.998735 29.118125 
" style="fill:none;stroke:#cccccc;stroke-linecap:round;"/>
     </g>
     <g id="line2d_10">
      <g>
       <use style="fill:#262626;stroke:#262626;stroke-width:1.25;" x="239.998735" xlink:href="#m94d7f27d92" y="496.042403"/>
      </g>
     </g>
     <g id="text_5">
      <!-- 26.09 (39) -->
      <g style="fill:#262626;" transform="translate(197.674527 552.159191)rotate(-45)scale(0.11 -0.11)">
       <use xlink:href="#DejaVuSans-32"/>
       <use x="63.623047" xlink:href="#DejaVuSans-36"/>
       <use x="127.246094" xlink:href="#DejaVuSans-2e"/>
       <use x="159.033203" xlink:href="#DejaVuSans-30"/>
       <use x="222.65625" xlink:href="#DejaVuSans-39"/>
       <use x="286.279297" xlink:href="#DejaVuSans-20"/>
       <use x="318.066406" xlink:href="#DejaVuSans-28"/>
       <use x="357.080078" xlink:href="#DejaVuSans-33"/>
       <use x="420.703125" xlink:href="#DejaVuSans-39"/>
       <use x="484.326172" xlink:href="#DejaVuSans-29"/>
      </g>
     </g>
    </g>
    <g id="xtick_6">
     <g id="line2d_11">
      <path clip-path="url(#p97a709cdd5)" d="M 276.432403 496.042403 
L 276.432403 29.118125 
" style="fill:none;stroke:#cccccc;stroke-linecap:round;"/>
     </g>
     <g id="line2d_12">
      <g>
       <use style="fill:#262626;stroke:#262626;stroke-width:1.25;" x="276.432403" xlink:href="#m94d7f27d92" y="496.042403"/>
      </g>
     </g>
     <g id="text_6">
      <!-- 24.10 (43) -->
      <g style="fill:#262626;" transform="translate(234.108195 552.159191)rotate(-45)scale(0.11 -0.11)">
       <use xlink:href="#DejaVuSans-32"/>
       <use x="63.623047" xlink:href="#DejaVuSans-34"/>
       <use x="127.246094" xlink:href="#DejaVuSans-2e"/>
       <use x="159.033203" xlink:href="#DejaVuSans-31"/>
       <use x="222.65625" xlink:href="#DejaVuSans-30"/>
       <use x="286.279297" xlink:href="#DejaVuSans-20"/>
       <use x="318.066406" xlink:href="#DejaVuSans-28"/>
       <use x="357.080078" xlink:href="#DejaVuSans-34"/>
       <use x="420.703125" xlink:href="#DejaVuSans-33"/>
       <use x="484.326172" xlink:href="#DejaVuSans-29"/>
      </g>
     </g>
    </g>
    <g id="xtick_7">
     <g id="line2d_13">
      <path clip-path="url(#p97a709cdd5)" d="M 312.866071 496.042403 
L 312.866071 29.118125 
" style="fill:none;stroke:#cccccc;stroke-linecap:round;"/>
     </g>
     <g id="line2d_14">
      <g>
       <use style="fill:#262626;stroke:#262626;stroke-width:1.25;" x="312.866071" xlink:href="#m94d7f27d92" y="496.042403"/>
      </g>
     </g>
     <g id="text_7">
      <!-- 21.11 (47) -->
      <g style="fill:#262626;" transform="translate(270.541863 552.159191)rotate(-45)scale(0.11 -0.11)">
       <use xlink:href="#DejaVuSans-32"/>
       <use x="63.623047" xlink:href="#DejaVuSans-31"/>
       <use x="127.246094" xlink:href="#DejaVuSans-2e"/>
       <use x="159.033203" xlink:href="#DejaVuSans-31"/>
       <use x="222.65625" xlink:href="#DejaVuSans-31"/>
       <use x="286.279297" xlink:href="#DejaVuSans-20"/>
       <use x="318.066406" xlink:href="#DejaVuSans-28"/>
       <use x="357.080078" xlink:href="#DejaVuSans-34"/>
       <use x="420.703125" xlink:href="#DejaVuSans-37"/>
       <use x="484.326172" xlink:href="#DejaVuSans-29"/>
      </g>
     </g>
    </g>
    <g id="xtick_8">
     <g id="line2d_15">
      <path clip-path="url(#p97a709cdd5)" d="M 349.299739 496.042403 
L 349.299739 29.118125 
" style="fill:none;stroke:#cccccc;stroke-linecap:round;"/>
     </g>
     <g id="line2d_16">
      <g>
       <use style="fill:#262626;stroke:#262626;stroke-width:1.25;" x="349.299739" xlink:href="#m94d7f27d92" y="496.042403"/>
      </g>
     </g>
     <g id="text_8">
      <!-- 19.12 (51) -->
      <g style="fill:#262626;" transform="translate(306.975531 552.159191)rotate(-45)scale(0.11 -0.11)">
       <use xlink:href="#DejaVuSans-31"/>
       <use x="63.623047" xlink:href="#DejaVuSans-39"/>
       <use x="127.246094" xlink:href="#DejaVuSans-2e"/>
       <use x="159.033203" xlink:href="#DejaVuSans-31"/>
       <use x="222.65625" xlink:href="#DejaVuSans-32"/>
       <use x="286.279297" xlink:href="#DejaVuSans-20"/>
       <use x="318.066406" xlink:href="#DejaVuSans-28"/>
       <use x="357.080078" xlink:href="#DejaVuSans-35"/>
       <use x="420.703125" xlink:href="#DejaVuSans-31"/>
       <use x="484.326172" xlink:href="#DejaVuSans-29"/>
      </g>
     </g>
    </g>
    <g id="xtick_9">
     <g id="line2d_17">
      <path clip-path="url(#p97a709cdd5)" d="M 385.733407 496.042403 
L 385.733407 29.118125 
" style="fill:none;stroke:#cccccc;stroke-linecap:round;"/>
     </g>
     <g id="line2d_18">
      <g>
       <use style="fill:#262626;stroke:#262626;stroke-width:1.25;" x="385.733407" xlink:href="#m94d7f27d92" y="496.042403"/>
      </g>
     </g>
     <g id="text_9">
      <!-- 16.01 (02) -->
      <g style="fill:#262626;" transform="translate(343.409199 552.159191)rotate(-45)scale(0.11 -0.11)">
       <use xlink:href="#DejaVuSans-31"/>
       <use x="63.623047" xlink:href="#DejaVuSans-36"/>
       <use x="127.246094" xlink:href="#DejaVuSans-2e"/>
       <use x="159.033203" xlink:href="#DejaVuSans-30"/>
       <use x="222.65625" xlink:href="#DejaVuSans-31"/>
       <use x="286.279297" xlink:href="#DejaVuSans-20"/>
       <use x="318.066406" xlink:href="#DejaVuSans-28"/>
       <use x="357.080078" xlink:href="#DejaVuSans-30"/>
       <use x="420.703125" xlink:href="#DejaVuSans-32"/>
       <use x="484.326172" xlink:href="#DejaVuSans-29"/>
      </g>
     </g>
    </g>
    <g id="xtick_10">
     <g id="line2d_19">
      <path clip-path="url(#p97a709cdd5)" d="M 422.167075 496.042403 
L 422.167075 29.118125 
" style="fill:none;stroke:#cccccc;stroke-linecap:round;"/>
     </g>
     <g id="line2d_20">
      <g>
       <use style="fill:#262626;stroke:#262626;stroke-width:1.25;" x="422.167075" xlink:href="#m94d7f27d92" y="496.042403"/>
      </g>
     </g>
     <g id="text_10">
      <!-- 13.02 (06) -->
      <g style="fill:#262626;" transform="translate(379.842867 552.159191)rotate(-45)scale(0.11 -0.11)">
       <use xlink:href="#DejaVuSans-31"/>
       <use x="63.623047" xlink:href="#DejaVuSans-33"/>
       <use x="127.246094" xlink:href="#DejaVuSans-2e"/>
       <use x="159.033203" xlink:href="#DejaVuSans-30"/>
       <use x="222.65625" xlink:href="#DejaVuSans-32"/>
       <use x="286.279297" xlink:href="#DejaVuSans-20"/>
       <use x="318.066406" xlink:href="#DejaVuSans-28"/>
       <use x="357.080078" xlink:href="#DejaVuSans-30"/>
       <use x="420.703125" xlink:href="#DejaVuSans-36"/>
       <use x="484.326172" xlink:href="#DejaVuSans-29"/>
      </g>
     </g>
    </g>
    <g id="xtick_11">
     <g id="line2d_21">
      <path clip-path="url(#p97a709cdd5)" d="M 458.600742 496.042403 
L 458.600742 29.118125 
" style="fill:none;stroke:#cccccc;stroke-linecap:round;"/>
     </g>
     <g id="line2d_22">
      <g>
       <use style="fill:#262626;stroke:#262626;stroke-width:1.25;" x="458.600742" xlink:href="#m94d7f27d92" y="496.042403"/>
      </g>
     </g>
     <g id="text_11">
      <!-- 13.03 (10) -->
      <g style="fill:#262626;" transform="translate(416.276535 552.159191)rotate(-45)scale(0.11 -0.11)">
       <use xlink:href="#DejaVuSans-31"/>
       <use x="63.623047" xlink:href="#DejaVuSans-33"/>
       <use x="127.246094" xlink:href="#DejaVuSans-2e"/>
       <use x="159.033203" xlink:href="#DejaVuSans-30"/>
       <use x="222.65625" xlink:href="#DejaVuSans-33"/>
       <use x="286.279297" xlink:href="#DejaVuSans-20"/>
       <use x="318.066406" xlink:href="#DejaVuSans-28"/>
       <use x="357.080078" xlink:href="#DejaVuSans-31"/>
       <use x="420.703125" xlink:href="#DejaVuSans-30"/>
       <use x="484.326172" xlink:href="#DejaVuSans-29"/>
      </g>
     </g>
    </g>
    <g id="xtick_12">
     <g id="line2d_23">
      <path clip-path="url(#p97a709cdd5)" d="M 495.03441 496.042403 
L 495.03441 29.118125 
" style="fill:none;stroke:#cccccc;stroke-linecap:round;"/>
     </g>
     <g id="line2d_24">
      <g>
       <use style="fill:#262626;stroke:#262626;stroke-width:1.25;" x="495.03441" xlink:href="#m94d7f27d92" y="496.042403"/>
      </g>
     </g>
     <g id="text_12">
      <!-- 10.04 (14) -->
      <g style="fill:#262626;" transform="translate(452.710202 552.159191)rotate(-45)scale(0.11 -0.11)">
       <use xlink:href="#DejaVuSans-31"/>
       <use x="63.623047" xlink:href="#DejaVuSans-30"/>
       <use x="127.246094" xlink:href="#DejaVuSans-2e"/>
       <use x="159.033203" xlink:href="#DejaVuSans-30"/>
       <use x="222.65625" xlink:href="#DejaVuSans-34"/>
       <use x="286.279297" xlink:href="#DejaVuSans-20"/>
       <use x="318.066406" xlink:href="#DejaVuSans-28"/>
       <use x="357.080078" xlink:href="#DejaVuSans-31"/>
       <use x="420.703125" xlink:href="#DejaVuSans-34"/>
       <use x="484.326172" xlink:href="#DejaVuSans-29"/>
      </g>
     </g>
    </g>
    <g id="xtick_13">
     <g id="line2d_25">
      <path clip-path="url(#p97a709cdd5)" d="M 531.468078 496.042403 
L 531.468078 29.118125 
" style="fill:none;stroke:#cccccc;stroke-linecap:round;"/>
     </g>
     <g id="line2d_26">
      <g>
       <use style="fill:#262626;stroke:#262626;stroke-width:1.25;" x="531.468078" xlink:href="#m94d7f27d92" y="496.042403"/>
      </g>
     </g>
     <g id="text_13">
      <!-- 08.05 (18) -->
      <g style="fill:#262626;" transform="translate(489.14387 552.159191)rotate(-45)scale(0.11 -0.11)">
       <use xlink:href="#DejaVuSans-30"/>
       <use x="63.623047" xlink:href="#DejaVuSans-38"/>
       <use x="127.246094" xlink:href="#DejaVuSans-2e"/>
       <use x="159.033203" xlink:href="#DejaVuSans-30"/>
       <use x="222.65625" xlink:href="#DejaVuSans-35"/>
       <use x="286.279297" xlink:href="#DejaVuSans-20"/>
       <use x="318.066406" xlink:href="#DejaVuSans-28"/>
       <use x="357.080078" xlink:href="#DejaVuSans-31"/>
       <use x="420.703125" xlink:href="#DejaVuSans-38"/>
       <use x="484.326172" xlink:href="#DejaVuSans-29"/>
      </g>
     </g>
    </g>
    <g id="xtick_14">
     <g id="line2d_27">
      <path clip-path="url(#p97a709cdd5)" d="M 567.901746 496.042403 
L 567.901746 29.118125 
" style="fill:none;stroke:#cccccc;stroke-linecap:round;"/>
     </g>
     <g id="line2d_28">
      <g>
       <use style="fill:#262626;stroke:#262626;stroke-width:1.25;" x="567.901746" xlink:href="#m94d7f27d92" y="496.042403"/>
      </g>
     </g>
     <g id="text_14">
      <!-- 05.06 (22) -->
      <g style="fill:#262626;" transform="translate(525.577538 552.159191)rotate(-45)scale(0.11 -0.11)">
       <use xlink:href="#DejaVuSans-30"/>
       <use x="63.623047" xlink:href="#DejaVuSans-35"/>
       <use x="127.246094" xlink:href="#DejaVuSans-2e"/>
       <use x="159.033203" xlink:href="#DejaVuSans-30"/>
       <use x="222.65625" xlink:href="#DejaVuSans-36"/>
       <use x="286.279297" xlink:href="#DejaVuSans-20"/>
       <use x="318.066406" xlink:href="#DejaVuSans-28"/>
       <use x="357.080078" xlink:href="#DejaVuSans-32"/>
       <use x="420.703125" xlink:href="#DejaVuSans-32"/>
       <use x="484.326172" xlink:href="#DejaVuSans-29"/>
      </g>
     </g>
    </g>
    <g id="xtick_15">
     <g id="line2d_29">
      <path clip-path="url(#p97a709cdd5)" d="M 604.335414 496.042403 
L 604.335414 29.118125 
" style="fill:none;stroke:#cccccc;stroke-linecap:round;"/>
     </g>
     <g id="line2d_30">
      <g>
       <use style="fill:#262626;stroke:#262626;stroke-width:1.25;" x="604.335414" xlink:href="#m94d7f27d92" y="496.042403"/>
      </g>
     </g>
     <g id="text_15">
      <!-- 03.07 (26) -->
      <g style="fill:#262626;" transform="translate(562.011206 552.159191)rotate(-45)scale(0.11 -0.11)">
       <use xlink:href="#DejaVuSans-30"/>
       <use x="63.623047" xlink:href="#DejaVuSans-33"/>
       <use x="127.246094" xlink:href="#DejaVuSans-2e"/>
       <use x="159.033203" xlink:href="#DejaVuSans-30"/>
       <use x="222.65625" xlink:href="#DejaVuSans-37"/>
       <use x="286.279297" xlink:href="#DejaVuSans-20"/>
       <use x="318.066406" xlink:href="#DejaVuSans-28"/>
       <use x="357.080078" xlink:href="#DejaVuSans-32"/>
       <use x="420.703125" xlink:href="#DejaVuSans-36"/>
       <use x="484.326172" xlink:href="#DejaVuSans-29"/>
      </g>
     </g>
    </g>
    <g id="xtick_16">
     <g id="line2d_31">
      <path clip-path="url(#p97a709cdd5)" d="M 640.769082 496.042403 
L 640.769082 29.118125 
" style="fill:none;stroke:#cccccc;stroke-linecap:round;"/>
     </g>
     <g id="line2d_32">
      <g>
       <use style="fill:#262626;stroke:#262626;stroke-width:1.25;" x="640.769082" xlink:href="#m94d7f27d92" y="496.042403"/>
      </g>
     </g>
     <g id="text_16">
      <!-- 31.07 (30) -->
      <g style="fill:#262626;" transform="translate(598.444874 552.159191)rotate(-45)scale(0.11 -0.11)">
       <use xlink:href="#DejaVuSans-33"/>
       <use x="63.623047" xlink:href="#DejaVuSans-31"/>
       <use x="127.246094" xlink:href="#DejaVuSans-2e"/>
       <use x="159.033203" xlink:href="#DejaVuSans-30"/>
       <use x="222.65625" xlink:href="#DejaVuSans-37"/>
       <use x="286.279297" xlink:href="#DejaVuSans-20"/>
       <use x="318.066406" xlink:href="#DejaVuSans-28"/>
       <use x="357.080078" xlink:href="#DejaVuSans-33"/>
       <use x="420.703125" xlink:href="#DejaVuSans-30"/>
       <use x="484.326172" xlink:href="#DejaVuSans-29"/>
      </g>
     </g>
    </g>
    <g id="xtick_17">
     <g id="line2d_33">
      <path clip-path="url(#p97a709cdd5)" d="M 677.20275 496.042403 
L 677.20275 29.118125 
" style="fill:none;stroke:#cccccc;stroke-linecap:round;"/>
     </g>
     <g id="line2d_34">
      <g>
       <use style="fill:#262626;stroke:#262626;stroke-width:1.25;" x="677.20275" xlink:href="#m94d7f27d92" y="496.042403"/>
      </g>
     </g>
     <g id="text_17">
      <!-- 28.08 (34) -->
      <g style="fill:#262626;" transform="translate(634.878542 552.159191)rotate(-45)scale(0.11 -0.11)">
       <use xlink:href="#DejaVuSans-32"/>
       <use x="63.623047" xlink:href="#DejaVuSans-38"/>
       <use x="127.246094" xlink:href="#DejaVuSans-2e"/>
       <use x="159.033203" xlink:href="#DejaVuSans-30"/>
       <use x="222.65625" xlink:href="#DejaVuSans-38"/>
       <use x="286.279297" xlink:href="#DejaVuSans-20"/>
       <use x="318.066406" xlink:href="#DejaVuSans-28"/>
       <use x="357.080078" xlink:href="#DejaVuSans-33"/>
       <use x="420.703125" xlink:href="#DejaVuSans-34"/>
       <use x="484.326172" xlink:href="#DejaVuSans-29"/>
      </g>
     </g>
    </g>
    <g id="xtick_18">
     <g id="line2d_35">
      <path clip-path="url(#p97a709cdd5)" d="M 713.636418 496.042403 
L 713.636418 29.118125 
" style="fill:none;stroke:#cccccc;stroke-linecap:round;"/>
     </g>
     <g id="line2d_36">
      <g>
       <use style="fill:#262626;stroke:#262626;stroke-width:1.25;" x="713.636418" xlink:href="#m94d7f27d92" y="496.042403"/>
      </g>
     </g>
     <g id="text_18">
      <!-- 25.09 (38) -->
      <g style="fill:#262626;" transform="translate(671.31221 552.159191)rotate(-45)scale(0.11 -0.11)">
       <use xlink:href="#DejaVuSans-32"/>
       <use x="63.623047" xlink:href="#DejaVuSans-35"/>
       <use x="127.246094" xlink:href="#DejaVuSans-2e"/>
       <use x="159.033203" xlink:href="#DejaVuSans-30"/>
       <use x="222.65625" xlink:href="#DejaVuSans-39"/>
       <use x="286.279297" xlink:href="#DejaVuSans-20"/>
       <use x="318.066406" xlink:href="#DejaVuSans-28"/>
       <use x="357.080078" xlink:href="#DejaVuSans-33"/>
       <use x="420.703125" xlink:href="#DejaVuSans-38"/>
       <use x="484.326172" xlink:href="#DejaVuSans-29"/>
      </g>
     </g>
    </g>
    <g id="xtick_19">
     <g id="line2d_37">
      <path clip-path="url(#p97a709cdd5)" d="M 750.070085 496.042403 
L 750.070085 29.118125 
" style="fill:none;stroke:#cccccc;stroke-linecap:round;"/>
     </g>
     <g id="line2d_38">
      <g>
       <use style="fill:#262626;stroke:#262626;stroke-width:1.25;" x="750.070085" xlink:href="#m94d7f27d92" y="496.042403"/>
      </g>
     </g>
     <g id="text_19">
      <!-- 23.10 (42) -->
      <g style="fill:#262626;" transform="translate(707.745878 552.159191)rotate(-45)scale(0.11 -0.11)">
       <use xlink:href="#DejaVuSans-32"/>
       <use x="63.623047" xlink:href="#DejaVuSans-33"/>
       <use x="127.246094" xlink:href="#DejaVuSans-2e"/>
       <use x="159.033203" xlink:href="#DejaVuSans-31"/>
       <use x="222.65625" xlink:href="#DejaVuSans-30"/>
       <use x="286.279297" xlink:href="#DejaVuSans-20"/>
       <use x="318.066406" xlink:href="#DejaVuSans-28"/>
       <use x="357.080078" xlink:href="#DejaVuSans-34"/>
       <use x="420.703125" xlink:href="#DejaVuSans-32"/>
       <use x="484.326172" xlink:href="#DejaVuSans-29"/>
      </g>
     </g>
    </g>
    <g id="xtick_20">
     <g id="line2d_39">
      <defs>
       <path d="M 0 0 
L 0 4 
" id="mcb6bdf40b7" style="stroke:#262626;"/>
      </defs>
      <g>
       <use style="fill:#262626;stroke:#262626;" x="66.938813" xlink:href="#mcb6bdf40b7" y="496.042403"/>
      </g>
     </g>
    </g>
    <g id="xtick_21">
     <g id="line2d_40">
      <g>
       <use style="fill:#262626;stroke:#262626;" x="76.04723" xlink:href="#mcb6bdf40b7" y="496.042403"/>
      </g>
     </g>
    </g>
    <g id="xtick_22">
     <g id="line2d_41">
      <g>
       <use style="fill:#262626;stroke:#262626;" x="85.155647" xlink:href="#mcb6bdf40b7" y="496.042403"/>
      </g>
     </g>
    </g>
    <g id="xtick_23">
     <g id="line2d_42">
      <g>
       <use style="fill:#262626;stroke:#262626;" x="103.372481" xlink:href="#mcb6bdf40b7" y="496.042403"/>
      </g>
     </g>
    </g>
    <g id="xtick_24">
     <g id="line2d_43">
      <g>
       <use style="fill:#262626;stroke:#262626;" x="112.480898" xlink:href="#mcb6bdf40b7" y="496.042403"/>
      </g>
     </g>
    </g>
    <g id="xtick_25">
     <g id="line2d_44">
      <g>
       <use style="fill:#262626;stroke:#262626;" x="121.589315" xlink:href="#mcb6bdf40b7" y="496.042403"/>
      </g>
     </g>
    </g>
    <g id="xtick_26">
     <g id="line2d_45">
      <g>
       <use style="fill:#262626;stroke:#262626;" x="139.806148" xlink:href="#mcb6bdf40b7" y="496.042403"/>
      </g>
     </g>
    </g>
    <g id="xtick_27">
     <g id="line2d_46">
      <g>
       <use style="fill:#262626;stroke:#262626;" x="148.914565" xlink:href="#mcb6bdf40b7" y="496.042403"/>
      </g>
     </g>
    </g>
    <g id="xtick_28">
     <g id="line2d_47">
      <g>
       <use style="fill:#262626;stroke:#262626;" x="158.022982" xlink:href="#mcb6bdf40b7" y="496.042403"/>
      </g>
     </g>
    </g>
    <g id="xtick_29">
     <g id="line2d_48">
      <g>
       <use style="fill:#262626;stroke:#262626;" x="176.239816" xlink:href="#mcb6bdf40b7" y="496.042403"/>
      </g>
     </g>
    </g>
    <g id="xtick_30">
     <g id="line2d_49">
      <g>
       <use style="fill:#262626;stroke:#262626;" x="185.348233" xlink:href="#mcb6bdf40b7" y="496.042403"/>
      </g>
     </g>
    </g>
    <g id="xtick_31">
     <g id="line2d_50">
      <g>
       <use style="fill:#262626;stroke:#262626;" x="194.45665" xlink:href="#mcb6bdf40b7" y="496.042403"/>
      </g>
     </g>
    </g>
    <g id="xtick_32">
     <g id="line2d_51">
      <g>
       <use style="fill:#262626;stroke:#262626;" x="212.673484" xlink:href="#mcb6bdf40b7" y="496.042403"/>
      </g>
     </g>
    </g>
    <g id="xtick_33">
     <g id="line2d_52">
      <g>
       <use style="fill:#262626;stroke:#262626;" x="221.781901" xlink:href="#mcb6bdf40b7" y="496.042403"/>
      </g>
     </g>
    </g>
    <g id="xtick_34">
     <g id="line2d_53">
      <g>
       <use style="fill:#262626;stroke:#262626;" x="230.890318" xlink:href="#mcb6bdf40b7" y="496.042403"/>
      </g>
     </g>
    </g>
    <g id="xtick_35">
     <g id="line2d_54">
      <g>
       <use style="fill:#262626;stroke:#262626;" x="249.107152" xlink:href="#mcb6bdf40b7" y="496.042403"/>
      </g>
     </g>
    </g>
    <g id="xtick_36">
     <g id="line2d_55">
      <g>
       <use style="fill:#262626;stroke:#262626;" x="258.215569" xlink:href="#mcb6bdf40b7" y="496.042403"/>
      </g>
     </g>
    </g>
    <g id="xtick_37">
     <g id="line2d_56">
      <g>
       <use style="fill:#262626;stroke:#262626;" x="267.323986" xlink:href="#mcb6bdf40b7" y="496.042403"/>
      </g>
     </g>
    </g>
    <g id="xtick_38">
     <g id="line2d_57">
      <g>
       <use style="fill:#262626;stroke:#262626;" x="285.54082" xlink:href="#mcb6bdf40b7" y="496.042403"/>
      </g>
     </g>
    </g>
    <g id="xtick_39">
     <g id="line2d_58">
      <g>
       <use style="fill:#262626;stroke:#262626;" x="294.649237" xlink:href="#mcb6bdf40b7" y="496.042403"/>
      </g>
     </g>
    </g>
    <g id="xtick_40">
     <g id="line2d_59">
      <g>
       <use style="fill:#262626;stroke:#262626;" x="303.757654" xlink:href="#mcb6bdf40b7" y="496.042403"/>
      </g>
     </g>
    </g>
    <g id="xtick_41">
     <g id="line2d_60">
      <g>
       <use style="fill:#262626;stroke:#262626;" x="321.974488" xlink:href="#mcb6bdf40b7" y="496.042403"/>
      </g>
     </g>
    </g>
    <g id="xtick_42">
     <g id="line2d_61">
      <g>
       <use style="fill:#262626;stroke:#262626;" x="331.082905" xlink:href="#mcb6bdf40b7" y="496.042403"/>
      </g>
     </g>
    </g>
    <g id="xtick_43">
     <g id="line2d_62">
      <g>
       <use style="fill:#262626;stroke:#262626;" x="340.191322" xlink:href="#mcb6bdf40b7" y="496.042403"/>
      </g>
     </g>
    </g>
    <g id="xtick_44">
     <g id="line2d_63">
      <g>
       <use style="fill:#262626;stroke:#262626;" x="358.408156" xlink:href="#mcb6bdf40b7" y="496.042403"/>
      </g>
     </g>
    </g>
    <g id="xtick_45">
     <g id="line2d_64">
      <g>
       <use style="fill:#262626;stroke:#262626;" x="367.516573" xlink:href="#mcb6bdf40b7" y="496.042403"/>
      </g>
     </g>
    </g>
    <g id="xtick_46">
     <g id="line2d_65">
      <g>
       <use style="fill:#262626;stroke:#262626;" x="376.62499" xlink:href="#mcb6bdf40b7" y="496.042403"/>
      </g>
     </g>
    </g>
    <g id="xtick_47">
     <g id="line2d_66">
      <g>
       <use style="fill:#262626;stroke:#262626;" x="394.841824" xlink:href="#mcb6bdf40b7" y="496.042403"/>
      </g>
     </g>
    </g>
    <g id="xtick_48">
     <g id="line2d_67">
      <g>
       <use style="fill:#262626;stroke:#262626;" x="403.950241" xlink:href="#mcb6bdf40b7" y="496.042403"/>
      </g>
     </g>
    </g>
    <g id="xtick_49">
     <g id="line2d_68">
      <g>
       <use style="fill:#262626;stroke:#262626;" x="413.058658" xlink:href="#mcb6bdf40b7" y="496.042403"/>
      </g>
     </g>
    </g>
    <g id="xtick_50">
     <g id="line2d_69">
      <g>
       <use style="fill:#262626;stroke:#262626;" x="431.275492" xlink:href="#mcb6bdf40b7" y="496.042403"/>
      </g>
     </g>
    </g>
    <g id="xtick_51">
     <g id="line2d_70">
      <g>
       <use style="fill:#262626;stroke:#262626;" x="440.383908" xlink:href="#mcb6bdf40b7" y="496.042403"/>
      </g>
     </g>
    </g>
    <g id="xtick_52">
     <g id="line2d_71">
      <g>
       <use style="fill:#262626;stroke:#262626;" x="449.492325" xlink:href="#mcb6bdf40b7" y="496.042403"/>
      </g>
     </g>
    </g>
    <g id="xtick_53">
     <g id="line2d_72">
      <g>
       <use style="fill:#262626;stroke:#262626;" x="467.709159" xlink:href="#mcb6bdf40b7" y="496.042403"/>
      </g>
     </g>
    </g>
    <g id="xtick_54">
     <g id="line2d_73">
      <g>
       <use style="fill:#262626;stroke:#262626;" x="476.817576" xlink:href="#mcb6bdf40b7" y="496.042403"/>
      </g>
     </g>
    </g>
    <g id="xtick_55">
     <g id="line2d_74">
      <g>
       <use style="fill:#262626;stroke:#262626;" x="485.925993" xlink:href="#mcb6bdf40b7" y="496.042403"/>
      </g>
     </g>
    </g>
    <g id="xtick_56">
     <g id="line2d_75">
      <g>
       <use style="fill:#262626;stroke:#262626;" x="504.142827" xlink:href="#mcb6bdf40b7" y="496.042403"/>
      </g>
     </g>
    </g>
    <g id="xtick_57">
     <g id="line2d_76">
      <g>
       <use style="fill:#262626;stroke:#262626;" x="513.251244" xlink:href="#mcb6bdf40b7" y="496.042403"/>
      </g>
     </g>
    </g>
    <g id="xtick_58">
     <g id="line2d_77">
      <g>
       <use style="fill:#262626;stroke:#262626;" x="522.359661" xlink:href="#mcb6bdf40b7" y="496.042403"/>
      </g>
     </g>
    </g>
    <g id="xtick_59">
     <g id="line2d_78">
      <g>
       <use style="fill:#262626;stroke:#262626;" x="540.576495" xlink:href="#mcb6bdf40b7" y="496.042403"/>
      </g>
     </g>
    </g>
    <g id="xtick_60">
     <g id="line2d_79">
      <g>
       <use style="fill:#262626;stroke:#262626;" x="549.684912" xlink:href="#mcb6bdf40b7" y="496.042403"/>
      </g>
     </g>
    </g>
    <g id="xtick_61">
     <g id="line2d_80">
      <g>
       <use style="fill:#262626;stroke:#262626;" x="558.793329" xlink:href="#mcb6bdf40b7" y="496.042403"/>
      </g>
     </g>
    </g>
    <g id="xtick_62">
     <g id="line2d_81">
      <g>
       <use style="fill:#262626;stroke:#262626;" x="577.010163" xlink:href="#mcb6bdf40b7" y="496.042403"/>
      </g>
     </g>
    </g>
    <g id="xtick_63">
     <g id="line2d_82">
      <g>
       <use style="fill:#262626;stroke:#262626;" x="586.11858" xlink:href="#mcb6bdf40b7" y="496.042403"/>
      </g>
     </g>
    </g>
    <g id="xtick_64">
     <g id="line2d_83">
      <g>
       <use style="fill:#262626;stroke:#262626;" x="595.226997" xlink:href="#mcb6bdf40b7" y="496.042403"/>
      </g>
     </g>
    </g>
    <g id="xtick_65">
     <g id="line2d_84">
      <g>
       <use style="fill:#262626;stroke:#262626;" x="613.443831" xlink:href="#mcb6bdf40b7" y="496.042403"/>
      </g>
     </g>
    </g>
    <g id="xtick_66">
     <g id="line2d_85">
      <g>
       <use style="fill:#262626;stroke:#262626;" x="622.552248" xlink:href="#mcb6bdf40b7" y="496.042403"/>
      </g>
     </g>
    </g>
    <g id="xtick_67">
     <g id="line2d_86">
      <g>
       <use style="fill:#262626;stroke:#262626;" x="631.660665" xlink:href="#mcb6bdf40b7" y="496.042403"/>
      </g>
     </g>
    </g>
    <g id="xtick_68">
     <g id="line2d_87">
      <g>
       <use style="fill:#262626;stroke:#262626;" x="649.877499" xlink:href="#mcb6bdf40b7" y="496.042403"/>
      </g>
     </g>
    </g>
    <g id="xtick_69">
     <g id="line2d_88">
      <g>
       <use style="fill:#262626;stroke:#262626;" x="658.985916" xlink:href="#mcb6bdf40b7" y="496.042403"/>
      </g>
     </g>
    </g>
    <g id="xtick_70">
     <g id="line2d_89">
      <g>
       <use style="fill:#262626;stroke:#262626;" x="668.094333" xlink:href="#mcb6bdf40b7" y="496.042403"/>
      </g>
     </g>
    </g>
    <g id="xtick_71">
     <g id="line2d_90">
      <g>
       <use style="fill:#262626;stroke:#262626;" x="686.311167" xlink:href="#mcb6bdf40b7" y="496.042403"/>
      </g>
     </g>
    </g>
    <g id="xtick_72">
     <g id="line2d_91">
      <g>
       <use style="fill:#262626;stroke:#262626;" x="695.419584" xlink:href="#mcb6bdf40b7" y="496.042403"/>
      </g>
     </g>
    </g>
    <g id="xtick_73">
     <g id="line2d_92">
      <g>
       <use style="fill:#262626;stroke:#262626;" x="704.528001" xlink:href="#mcb6bdf40b7" y="496.042403"/>
      </g>
     </g>
    </g>
    <g id="xtick_74">
     <g id="line2d_93">
      <g>
       <use style="fill:#262626;stroke:#262626;" x="722.744835" xlink:href="#mcb6bdf40b7" y="496.042403"/>
      </g>
     </g>
    </g>
    <g id="xtick_75">
     <g id="line2d_94">
      <g>
       <use style="fill:#262626;stroke:#262626;" x="731.853252" xlink:href="#mcb6bdf40b7" y="496.042403"/>
      </g>
     </g>
    </g>
    <g id="xtick_76">
     <g id="line2d_95">
      <g>
       <use style="fill:#262626;stroke:#262626;" x="740.961668" xlink:href="#mcb6bdf40b7" y="496.042403"/>
      </g>
     </g>
    </g>
    <g id="xtick_77">
     <g id="line2d_96">
      <g>
       <use style="fill:#262626;stroke:#262626;" x="759.178502" xlink:href="#mcb6bdf40b7" y="496.042403"/>
      </g>
     </g>
    </g>
    <g id="xtick_78">
     <g id="line2d_97">
      <g>
       <use style="fill:#262626;stroke:#262626;" x="768.286919" xlink:href="#mcb6bdf40b7" y="496.042403"/>
      </g>
     </g>
    </g>
    <g id="xtick_79">
     <g id="line2d_98">
      <g>
       <use style="fill:#262626;stroke:#262626;" x="777.395336" xlink:href="#mcb6bdf40b7" y="496.042403"/>
      </g>
     </g>
    </g>
    <g id="xtick_80">
     <g id="line2d_99">
      <g>
       <use style="fill:#262626;stroke:#262626;" x="786.503753" xlink:href="#mcb6bdf40b7" y="496.042403"/>
      </g>
     </g>
    </g>
    <g id="xtick_81">
     <g id="line2d_100">
      <g>
       <use style="fill:#262626;stroke:#262626;" x="795.61217" xlink:href="#mcb6bdf40b7" y="496.042403"/>
      </g>
     </g>
    </g>
    <g id="xtick_82">
     <g id="line2d_101">
      <g>
       <use style="fill:#262626;stroke:#262626;" x="804.720587" xlink:href="#mcb6bdf40b7" y="496.042403"/>
      </g>
     </g>
    </g>
    <g id="text_20">
     <!-- Седмица -->
     <g style="fill:#262626;" transform="translate(407.613763 566.894933)scale(0.12 -0.12)">
      <defs>
       <path d="M 4122 4306 
L 4122 3641 
Q 3803 3938 3442 4084 
Q 3081 4231 2675 4231 
Q 1875 4231 1450 3742 
Q 1025 3253 1025 2328 
Q 1025 1406 1450 917 
Q 1875 428 2675 428 
Q 3081 428 3442 575 
Q 3803 722 4122 1019 
L 4122 359 
Q 3791 134 3420 21 
Q 3050 -91 2638 -91 
Q 1578 -91 968 557 
Q 359 1206 359 2328 
Q 359 3453 968 4101 
Q 1578 4750 2638 4750 
Q 3056 4750 3426 4639 
Q 3797 4528 4122 4306 
z
" id="DejaVuSans-421" transform="scale(0.015625)"/>
       <path d="M 3597 1894 
L 3597 1613 
L 953 1613 
Q 991 1019 1311 708 
Q 1631 397 2203 397 
Q 2534 397 2845 478 
Q 3156 559 3463 722 
L 3463 178 
Q 3153 47 2828 -22 
Q 2503 -91 2169 -91 
Q 1331 -91 842 396 
Q 353 884 353 1716 
Q 353 2575 817 3079 
Q 1281 3584 2069 3584 
Q 2775 3584 3186 3129 
Q 3597 2675 3597 1894 
z
M 3022 2063 
Q 3016 2534 2758 2815 
Q 2500 3097 2075 3097 
Q 1594 3097 1305 2825 
Q 1016 2553 972 2059 
L 3022 2063 
z
" id="DejaVuSans-435" transform="scale(0.015625)"/>
       <path d="M 1384 459 
L 3053 459 
L 3053 3041 
L 1844 3041 
L 1844 2603 
Q 1844 1316 1475 628 
L 1384 459 
z
M 550 459 
Q 834 584 959 850 
Q 1266 1509 1266 2838 
L 1266 3500 
L 3631 3500 
L 3631 459 
L 4091 459 
L 4091 -884 
L 3631 -884 
L 3631 0 
L 794 0 
L 794 -884 
L 334 -884 
L 334 459 
L 550 459 
z
" id="DejaVuSans-434" transform="scale(0.015625)"/>
       <path d="M 581 3500 
L 1422 3500 
L 2416 1156 
L 3413 3500 
L 4247 3500 
L 4247 0 
L 3669 0 
L 3669 2950 
L 2703 672 
L 2128 672 
L 1159 2950 
L 1159 0 
L 581 0 
L 581 3500 
z
" id="DejaVuSans-43c" transform="scale(0.015625)"/>
       <path d="M 3578 3500 
L 3578 0 
L 3006 0 
L 3006 2809 
L 1319 0 
L 581 0 
L 581 3500 
L 1153 3500 
L 1153 697 
L 2838 3500 
L 3578 3500 
z
" id="DejaVuSans-438" transform="scale(0.015625)"/>
       <path d="M 3603 0 
L 581 0 
L 581 3500 
L 1159 3500 
L 1159 459 
L 3025 459 
L 3025 3500 
L 3603 3500 
L 3603 459 
L 4063 459 
L 4063 -884 
L 3603 -884 
L 3603 0 
z
" id="DejaVuSans-446" transform="scale(0.015625)"/>
       <path d="M 2194 1759 
Q 1497 1759 1228 1600 
Q 959 1441 959 1056 
Q 959 750 1161 570 
Q 1363 391 1709 391 
Q 2188 391 2477 730 
Q 2766 1069 2766 1631 
L 2766 1759 
L 2194 1759 
z
M 3341 1997 
L 3341 0 
L 2766 0 
L 2766 531 
Q 2569 213 2275 61 
Q 1981 -91 1556 -91 
Q 1019 -91 701 211 
Q 384 513 384 1019 
Q 384 1609 779 1909 
Q 1175 2209 1959 2209 
L 2766 2209 
L 2766 2266 
Q 2766 2663 2505 2880 
Q 2244 3097 1772 3097 
Q 1472 3097 1187 3025 
Q 903 2953 641 2809 
L 641 3341 
Q 956 3463 1253 3523 
Q 1550 3584 1831 3584 
Q 2591 3584 2966 3190 
Q 3341 2797 3341 1997 
z
" id="DejaVuSans-430" transform="scale(0.015625)"/>
      </defs>
      <use xlink:href="#DejaVuSans-421"/>
      <use x="69.824219" xlink:href="#DejaVuSans-435"/>
      <use x="131.347656" xlink:href="#DejaVuSans-434"/>
      <use x="200.488281" xlink:href="#DejaVuSans-43c"/>
      <use x="275.927734" xlink:href="#DejaVuSans-438"/>
      <use x="340.917969" xlink:href="#DejaVuSans-446"/>
      <use x="408.984375" xlink:href="#DejaVuSans-430"/>
     </g>
    </g>
   </g>
   <g id="matplotlib.axis_2">
    <g id="ytick_1">
     <g id="line2d_102">
      <path clip-path="url(#p97a709cdd5)" d="M 60.1075 475.074658 
L 811.5519 475.074658 
" style="fill:none;stroke:#cccccc;stroke-linecap:round;"/>
     </g>
     <g id="line2d_103">
      <defs>
       <path d="M 0 0 
L -6 0 
" id="maf4bdf6d35" style="stroke:#262626;stroke-width:1.25;"/>
      </defs>
      <g>
       <use style="fill:#262626;stroke:#262626;stroke-width:1.25;" x="60.1075" xlink:href="#maf4bdf6d35" y="475.074658"/>
      </g>
     </g>
     <g id="text_21">
      <!-- 0 -->
      <g style="fill:#262626;" transform="translate(43.60875 479.253799)scale(0.11 -0.11)">
       <use xlink:href="#DejaVuSans-30"/>
      </g>
     </g>
    </g>
    <g id="ytick_2">
     <g id="line2d_104">
      <path clip-path="url(#p97a709cdd5)" d="M 60.1075 415.519889 
L 811.5519 415.519889 
" style="fill:none;stroke:#cccccc;stroke-linecap:round;"/>
     </g>
     <g id="line2d_105">
      <g>
       <use style="fill:#262626;stroke:#262626;stroke-width:1.25;" x="60.1075" xlink:href="#maf4bdf6d35" y="415.519889"/>
      </g>
     </g>
     <g id="text_22">
      <!-- 10000 -->
      <g style="fill:#262626;" transform="translate(15.61375 419.699029)scale(0.11 -0.11)">
       <use xlink:href="#DejaVuSans-31"/>
       <use x="63.623047" xlink:href="#DejaVuSans-30"/>
       <use x="127.246094" xlink:href="#DejaVuSans-30"/>
       <use x="190.869141" xlink:href="#DejaVuSans-30"/>
       <use x="254.492188" xlink:href="#DejaVuSans-30"/>
      </g>
     </g>
    </g>
    <g id="ytick_3">
     <g id="line2d_106">
      <path clip-path="url(#p97a709cdd5)" d="M 60.1075 355.96512 
L 811.5519 355.96512 
" style="fill:none;stroke:#cccccc;stroke-linecap:round;"/>
     </g>
     <g id="line2d_107">
      <g>
       <use style="fill:#262626;stroke:#262626;stroke-width:1.25;" x="60.1075" xlink:href="#maf4bdf6d35" y="355.96512"/>
      </g>
     </g>
     <g id="text_23">
      <!-- 20000 -->
      <g style="fill:#262626;" transform="translate(15.61375 360.14426)scale(0.11 -0.11)">
       <use xlink:href="#DejaVuSans-32"/>
       <use x="63.623047" xlink:href="#DejaVuSans-30"/>
       <use x="127.246094" xlink:href="#DejaVuSans-30"/>
       <use x="190.869141" xlink:href="#DejaVuSans-30"/>
       <use x="254.492188" xlink:href="#DejaVuSans-30"/>
      </g>
     </g>
    </g>
    <g id="ytick_4">
     <g id="line2d_108">
      <path clip-path="url(#p97a709cdd5)" d="M 60.1075 296.410351 
L 811.5519 296.410351 
" style="fill:none;stroke:#cccccc;stroke-linecap:round;"/>
     </g>
     <g id="line2d_109">
      <g>
       <use style="fill:#262626;stroke:#262626;stroke-width:1.25;" x="60.1075" xlink:href="#maf4bdf6d35" y="296.410351"/>
      </g>
     </g>
     <g id="text_24">
      <!-- 30000 -->
      <g style="fill:#262626;" transform="translate(15.61375 300.589491)scale(0.11 -0.11)">
       <use xlink:href="#DejaVuSans-33"/>
       <use x="63.623047" xlink:href="#DejaVuSans-30"/>
       <use x="127.246094" xlink:href="#DejaVuSans-30"/>
       <use x="190.869141" xlink:href="#DejaVuSans-30"/>
       <use x="254.492188" xlink:href="#DejaVuSans-30"/>
      </g>
     </g>
    </g>
    <g id="ytick_5">
     <g id="line2d_110">
      <path clip-path="url(#p97a709cdd5)" d="M 60.1075 236.855582 
L 811.5519 236.855582 
" style="fill:none;stroke:#cccccc;stroke-linecap:round;"/>
     </g>
     <g id="line2d_111">
      <g>
       <use style="fill:#262626;stroke:#262626;stroke-width:1.25;" x="60.1075" xlink:href="#maf4bdf6d35" y="236.855582"/>
      </g>
     </g>
     <g id="text_25">
      <!-- 40000 -->
      <g style="fill:#262626;" transform="translate(15.61375 241.034722)scale(0.11 -0.11)">
       <use xlink:href="#DejaVuSans-34"/>
       <use x="63.623047" xlink:href="#DejaVuSans-30"/>
       <use x="127.246094" xlink:href="#DejaVuSans-30"/>
       <use x="190.869141" xlink:href="#DejaVuSans-30"/>
       <use x="254.492188" xlink:href="#DejaVuSans-30"/>
      </g>
     </g>
    </g>
    <g id="ytick_6">
     <g id="line2d_112">
      <path clip-path="url(#p97a709cdd5)" d="M 60.1075 177.300813 
L 811.5519 177.300813 
" style="fill:none;stroke:#cccccc;stroke-linecap:round;"/>
     </g>
     <g id="line2d_113">
      <g>
       <use style="fill:#262626;stroke:#262626;stroke-width:1.25;" x="60.1075" xlink:href="#maf4bdf6d35" y="177.300813"/>
      </g>
     </g>
     <g id="text_26">
      <!-- 50000 -->
      <g style="fill:#262626;" transform="translate(15.61375 181.479953)scale(0.11 -0.11)">
       <use xlink:href="#DejaVuSans-35"/>
       <use x="63.623047" xlink:href="#DejaVuSans-30"/>
       <use x="127.246094" xlink:href="#DejaVuSans-30"/>
       <use x="190.869141" xlink:href="#DejaVuSans-30"/>
       <use x="254.492188" xlink:href="#DejaVuSans-30"/>
      </g>
     </g>
    </g>
    <g id="ytick_7">
     <g id="line2d_114">
      <path clip-path="url(#p97a709cdd5)" d="M 60.1075 117.746043 
L 811.5519 117.746043 
" style="fill:none;stroke:#cccccc;stroke-linecap:round;"/>
     </g>
     <g id="line2d_115">
      <g>
       <use style="fill:#262626;stroke:#262626;stroke-width:1.25;" x="60.1075" xlink:href="#maf4bdf6d35" y="117.746043"/>
      </g>
     </g>
     <g id="text_27">
      <!-- 60000 -->
      <g style="fill:#262626;" transform="translate(15.61375 121.925184)scale(0.11 -0.11)">
       <use xlink:href="#DejaVuSans-36"/>
       <use x="63.623047" xlink:href="#DejaVuSans-30"/>
       <use x="127.246094" xlink:href="#DejaVuSans-30"/>
       <use x="190.869141" xlink:href="#DejaVuSans-30"/>
       <use x="254.492188" xlink:href="#DejaVuSans-30"/>
      </g>
     </g>
    </g>
    <g id="ytick_8">
     <g id="line2d_116">
      <path clip-path="url(#p97a709cdd5)" d="M 60.1075 58.191274 
L 811.5519 58.191274 
" style="fill:none;stroke:#cccccc;stroke-linecap:round;"/>
     </g>
     <g id="line2d_117">
      <g>
       <use style="fill:#262626;stroke:#262626;stroke-width:1.25;" x="60.1075" xlink:href="#maf4bdf6d35" y="58.191274"/>
      </g>
     </g>
     <g id="text_28">
      <!-- 70000 -->
      <g style="fill:#262626;" transform="translate(15.61375 62.370415)scale(0.11 -0.11)">
       <use xlink:href="#DejaVuSans-37"/>
       <use x="63.623047" xlink:href="#DejaVuSans-30"/>
       <use x="127.246094" xlink:href="#DejaVuSans-30"/>
       <use x="190.869141" xlink:href="#DejaVuSans-30"/>
       <use x="254.492188" xlink:href="#DejaVuSans-30"/>
      </g>
     </g>
    </g>
    <g id="text_29">
     <!-- Брой тестове -->
     <g style="fill:#262626;" transform="translate(9.118125 304.863389)rotate(-90)scale(0.12 -0.12)">
      <defs>
       <path d="M 3272 1372 
Q 3272 1806 3026 2017 
Q 2781 2228 2272 2228 
L 1259 2228 
L 1259 519 
L 2272 519 
Q 2781 519 3026 730 
Q 3272 941 3272 1372 
z
M 3609 4666 
L 3609 4147 
L 1259 4147 
L 1259 2747 
L 2303 2747 
Q 3088 2747 3513 2406 
Q 3938 2066 3938 1372 
Q 3938 681 3527 340 
Q 3116 0 2303 0 
L 628 0 
L 628 4666 
L 3609 4666 
z
" id="DejaVuSans-411" transform="scale(0.015625)"/>
       <path d="M 1159 525 
L 1159 -1331 
L 581 -1331 
L 581 3500 
L 1159 3500 
L 1159 2969 
Q 1341 3281 1617 3432 
Q 1894 3584 2278 3584 
Q 2916 3584 3314 3078 
Q 3713 2572 3713 1747 
Q 3713 922 3314 415 
Q 2916 -91 2278 -91 
Q 1894 -91 1617 61 
Q 1341 213 1159 525 
z
M 3116 1747 
Q 3116 2381 2855 2742 
Q 2594 3103 2138 3103 
Q 1681 3103 1420 2742 
Q 1159 2381 1159 1747 
Q 1159 1113 1420 752 
Q 1681 391 2138 391 
Q 2594 391 2855 752 
Q 3116 1113 3116 1747 
z
" id="DejaVuSans-440" transform="scale(0.015625)"/>
       <path d="M 1959 3097 
Q 1497 3097 1228 2736 
Q 959 2375 959 1747 
Q 959 1119 1226 758 
Q 1494 397 1959 397 
Q 2419 397 2687 759 
Q 2956 1122 2956 1747 
Q 2956 2369 2687 2733 
Q 2419 3097 1959 3097 
z
M 1959 3584 
Q 2709 3584 3137 3096 
Q 3566 2609 3566 1747 
Q 3566 888 3137 398 
Q 2709 -91 1959 -91 
Q 1206 -91 779 398 
Q 353 888 353 1747 
Q 353 2609 779 3096 
Q 1206 3584 1959 3584 
z
" id="DejaVuSans-43e" transform="scale(0.015625)"/>
       <path d="M 3578 3500 
L 3578 0 
L 3006 0 
L 3006 2809 
L 1319 0 
L 581 0 
L 581 3500 
L 1153 3500 
L 1153 697 
L 2838 3500 
L 3578 3500 
z
M 1102 4833 
L 1471 4833 
Q 1505 4599 1656 4481 
Q 1808 4364 2080 4364 
Q 2349 4364 2499 4480 
Q 2649 4596 2689 4833 
L 3058 4833 
Q 3027 4386 2780 4161 
Q 2533 3936 2080 3936 
Q 1627 3936 1380 4161 
Q 1133 4386 1102 4833 
z
" id="DejaVuSans-439" transform="scale(0.015625)"/>
       <path d="M 188 3500 
L 3541 3500 
L 3541 3041 
L 2147 3041 
L 2147 0 
L 1581 0 
L 1581 3041 
L 188 3041 
L 188 3500 
z
" id="DejaVuSans-442" transform="scale(0.015625)"/>
       <path d="M 3122 3366 
L 3122 2828 
Q 2878 2963 2633 3030 
Q 2388 3097 2138 3097 
Q 1578 3097 1268 2742 
Q 959 2388 959 1747 
Q 959 1106 1268 751 
Q 1578 397 2138 397 
Q 2388 397 2633 464 
Q 2878 531 3122 666 
L 3122 134 
Q 2881 22 2623 -34 
Q 2366 -91 2075 -91 
Q 1284 -91 818 406 
Q 353 903 353 1747 
Q 353 2603 823 3093 
Q 1294 3584 2113 3584 
Q 2378 3584 2631 3529 
Q 2884 3475 3122 3366 
z
" id="DejaVuSans-441" transform="scale(0.015625)"/>
       <path d="M 1156 1613 
L 1156 459 
L 1975 459 
Q 2369 459 2575 607 
Q 2781 756 2781 1038 
Q 2781 1319 2575 1466 
Q 2369 1613 1975 1613 
L 1156 1613 
z
M 1156 3041 
L 1156 2072 
L 1913 2072 
Q 2238 2072 2444 2201 
Q 2650 2331 2650 2563 
Q 2650 2794 2444 2917 
Q 2238 3041 1913 3041 
L 1156 3041 
z
M 581 3500 
L 1950 3500 
Q 2566 3500 2897 3275 
Q 3228 3050 3228 2634 
Q 3228 2313 3059 2123 
Q 2891 1934 2559 1888 
Q 2956 1813 3175 1575 
Q 3394 1338 3394 981 
Q 3394 513 3033 256 
Q 2672 0 2003 0 
L 581 0 
L 581 3500 
z
" id="DejaVuSans-432" transform="scale(0.015625)"/>
      </defs>
      <use xlink:href="#DejaVuSans-411"/>
      <use x="68.603516" xlink:href="#DejaVuSans-440"/>
      <use x="132.080078" xlink:href="#DejaVuSans-43e"/>
      <use x="193.261719" xlink:href="#DejaVuSans-439"/>
      <use x="258.251953" xlink:href="#DejaVuSans-20"/>
      <use x="290.039062" xlink:href="#DejaVuSans-442"/>
      <use x="348.291016" xlink:href="#DejaVuSans-435"/>
      <use x="409.814453" xlink:href="#DejaVuSans-441"/>
      <use x="464.794922" xlink:href="#DejaVuSans-442"/>
      <use x="523.046875" xlink:href="#DejaVuSans-43e"/>
      <use x="584.228516" xlink:href="#DejaVuSans-432"/>
      <use x="643.164062" xlink:href="#DejaVuSans-435"/>
     </g>
    </g>
   </g>
   <g id="line2d_118">
    <path clip-path="url(#p97a709cdd5)" d="M 94.264064 470.214989 
L 103.372481 396.61125 
L 112.480898 396.837558 
L 121.589315 377.660922 
L 130.697732 355.476771 
L 139.806148 341.177671 
L 148.914565 306.951545 
L 158.022982 281.962364 
L 167.131399 265.394227 
L 176.239816 281.307261 
L 185.348233 296.446084 
L 194.45665 266.823541 
L 203.565067 268.330277 
L 212.673484 257.461532 
L 221.781901 332.262322 
L 230.890318 308.041397 
L 239.998735 335.549745 
L 249.107152 316.718527 
L 258.215569 296.321019 
L 267.323986 263.083502 
L 276.432403 164.240452 
L 285.54082 103.708984 
L 294.649237 50.341956 
L 303.757654 114.035781 
L 312.866071 129.4426 
L 321.974488 162.263233 
L 331.082905 171.809863 
L 340.191322 192.540878 
L 349.299739 248.706981 
L 358.408156 345.275039 
L 367.516573 364.999578 
L 376.62499 253.072345 
L 385.733407 314.485223 
L 394.841824 340.040175 
L 403.950241 334.126386 
L 413.058658 299.58462 
L 422.167075 268.252856 
L 431.275492 265.221518 
L 440.383908 226.290566 
L 449.492325 210.496641 
L 458.600742 149.41727 
L 467.709159 111.528526 
L 476.817576 115.07799 
L 485.925993 85.276783 
L 495.03441 134.177204 
L 504.142827 177.163837 
L 513.251244 195.060045 
L 522.359661 174.781646 
L 531.468078 296.338885 
L 540.576495 260.367804 
L 549.684912 244.633434 
L 558.793329 271.278238 
L 567.901746 260.55838 
L 577.010163 310.846427 
L 586.11858 306.397685 
L 595.226997 362.480412 
L 604.335414 355.476771 
L 613.443831 369.507874 
L 622.552248 374.034037 
L 631.660665 338.324997 
L 640.769082 296.511594 
L 649.877499 280.592604 
L 658.985916 278.811916 
L 668.094333 249.296573 
L 677.20275 215.213379 
L 686.311167 164.264274 
L 695.419584 221.621472 
L 704.528001 251.643031 
L 713.636418 282.831863 
L 722.744835 254.239619 
L 731.853252 258.62285 
L 740.961668 241.346011 
L 750.070085 184.465251 
L 759.178502 164.448893 
L 768.286919 193.094737 
L 777.395336 262.035338 
" style="fill:none;stroke:#ffa500;stroke-linecap:round;stroke-width:1.5;"/>
   </g>
   <g id="line2d_119">
    <path clip-path="url(#p97a709cdd5)" d="M 94.264064 474.818572 
L 103.372481 471.769368 
L 112.480898 471.465639 
L 121.589315 470.590184 
L 130.697732 468.809496 
L 139.806148 466.153354 
L 148.914565 466.361795 
L 158.022982 465.10519 
L 167.131399 465.998511 
L 176.239816 466.099754 
L 185.348233 469.178736 
L 194.45665 469.750462 
L 203.565067 469.494376 
L 212.673484 469.798105 
L 221.781901 470.066102 
L 230.890318 469.547975 
L 239.998735 468.059106 
L 249.107152 466.016378 
L 258.215569 458.393367 
L 267.323986 446.553879 
L 276.432403 424.727056 
L 285.54082 384.06306 
L 294.649237 346.192182 
L 303.757654 338.396463 
L 312.866071 336.538354 
L 321.974488 349.711869 
L 331.082905 361.342915 
L 340.191322 367.232882 
L 349.299739 403.150363 
L 358.408156 441.068885 
L 367.516573 455.034478 
L 376.62499 454.170934 
L 385.733407 463.104149 
L 394.841824 464.706173 
L 403.950241 461.525948 
L 413.058658 457.910973 
L 422.167075 453.265702 
L 431.275492 450.061655 
L 440.383908 438.817715 
L 449.492325 430.706355 
L 458.600742 411.750072 
L 467.709159 388.553489 
L 476.817576 386.177254 
L 485.925993 389.4349 
L 495.03441 410.803151 
L 504.142827 427.806038 
L 513.251244 438.895136 
L 522.359661 452.229449 
L 531.468078 463.026728 
L 540.576495 463.014817 
L 549.684912 467.862575 
L 558.793329 470.935601 
L 567.901746 472.037365 
L 577.010163 473.008107 
L 586.11858 473.430946 
L 595.226997 473.937162 
L 604.335414 473.79423 
L 613.443831 474.187292 
L 622.552248 474.038405 
L 631.660665 473.22846 
L 640.769082 470.917735 
L 649.877499 467.225339 
L 658.985916 461.722479 
L 668.094333 454.016092 
L 677.20275 446.25015 
L 686.311167 446.399037 
L 695.419584 451.842343 
L 704.528001 444.957811 
L 713.636418 448.406032 
L 722.744835 438.960646 
L 731.853252 433.291032 
L 740.961668 418.372562 
L 750.070085 385.56384 
L 759.178502 382.026287 
L 768.286919 394.383901 
L 777.395336 419.045531 
" style="fill:none;stroke:#ff0000;stroke-linecap:round;stroke-width:1.5;"/>
   </g>
   <g id="line2d_120"/>
   <g id="line2d_121"/>
   <g id="patch_3">
    <path d="M 60.1075 496.042403 
L 60.1075 29.118125 
" style="fill:none;stroke:#262626;stroke-linecap:square;stroke-linejoin:miter;stroke-width:1.25;"/>
   </g>
   <g id="patch_4">
    <path d="M 811.5519 496.042403 
L 811.5519 29.118125 
" style="fill:none;stroke:#262626;stroke-linecap:square;stroke-linejoin:miter;stroke-width:1.25;"/>
   </g>
   <g id="patch_5">
    <path d="M 60.1075 496.042403 
L 811.5519 496.042403 
" style="fill:none;stroke:#262626;stroke-linecap:square;stroke-linejoin:miter;stroke-width:1.25;"/>
   </g>
   <g id="patch_6">
    <path d="M 60.1075 29.118125 
L 811.5519 29.118125 
" style="fill:none;stroke:#262626;stroke-linecap:square;stroke-linejoin:miter;stroke-width:1.25;"/>
   </g>
   <g id="text_30">
    <!-- Последна актуализация: 13.11.2021 -->
    <g style="fill:#262626;" transform="translate(339.897776 22.114261)scale(0.09996 -0.09996)">
     <defs>
      <path d="M 4184 4666 
L 4184 0 
L 3553 0 
L 3553 4134 
L 1259 4134 
L 1259 0 
L 628 0 
L 628 4666 
L 4184 4666 
z
" id="DejaVuSans-41f" transform="scale(0.015625)"/>
      <path d="M 238 0 
L 238 478 
Q 806 566 981 959 
Q 1194 1513 1194 2928 
L 1194 3500 
L 3559 3500 
L 3559 0 
L 2984 0 
L 2984 3041 
L 1769 3041 
L 1769 2694 
Q 1769 1344 1494 738 
Q 1200 91 238 0 
z
" id="DejaVuSans-43b" transform="scale(0.015625)"/>
      <path d="M 581 3500 
L 1159 3500 
L 1159 2072 
L 3025 2072 
L 3025 3500 
L 3603 3500 
L 3603 0 
L 3025 0 
L 3025 1613 
L 1159 1613 
L 1159 0 
L 581 0 
L 581 3500 
z
" id="DejaVuSans-43d" transform="scale(0.015625)"/>
      <path d="M 581 3500 
L 1153 3500 
L 1153 1856 
L 2775 3500 
L 3481 3500 
L 2144 2147 
L 3653 0 
L 3009 0 
L 1769 1766 
L 1153 1141 
L 1153 0 
L 581 0 
L 581 3500 
z
" id="DejaVuSans-43a" transform="scale(0.015625)"/>
      <path d="M 2059 -325 
Q 1816 -950 1584 -1140 
Q 1353 -1331 966 -1331 
L 506 -1331 
L 506 -850 
L 844 -850 
Q 1081 -850 1212 -737 
Q 1344 -625 1503 -206 
L 1606 56 
L 191 3500 
L 800 3500 
L 1894 763 
L 2988 3500 
L 3597 3500 
L 2059 -325 
z
" id="DejaVuSans-443" transform="scale(0.015625)"/>
      <path d="M 2206 1888 
Q 2594 1813 2809 1584 
Q 3025 1356 3025 1019 
Q 3025 478 2622 193 
Q 2219 -91 1475 -91 
Q 1225 -91 961 -47 
Q 697 -3 416 84 
L 416 619 
Q 638 503 903 445 
Q 1169 388 1459 388 
Q 1931 388 2195 563 
Q 2459 738 2459 1019 
Q 2459 1294 2225 1461 
Q 1991 1628 1563 1628 
L 1100 1628 
L 1100 2103 
L 1584 2103 
Q 1947 2103 2158 2242 
Q 2369 2381 2369 2600 
Q 2369 2800 2151 2944 
Q 1934 3088 1563 3088 
Q 1341 3088 1089 3047 
Q 838 3006 534 2916 
L 534 3438 
Q 841 3513 1106 3550 
Q 1372 3588 1609 3588 
Q 2222 3588 2576 3342 
Q 2931 3097 2931 2656 
Q 2931 2366 2743 2164 
Q 2556 1963 2206 1888 
z
" id="DejaVuSans-437" transform="scale(0.015625)"/>
      <path d="M 1181 2491 
Q 1181 2231 1381 2084 
Q 1581 1938 1953 1938 
L 2728 1938 
L 2728 3041 
L 1953 3041 
Q 1581 3041 1381 2897 
Q 1181 2753 1181 2491 
z
M 363 0 
L 1431 1534 
Q 1069 1616 828 1830 
Q 588 2044 588 2491 
Q 588 2997 923 3248 
Q 1259 3500 1938 3500 
L 3306 3500 
L 3306 0 
L 2728 0 
L 2728 1478 
L 2013 1478 
L 981 0 
L 363 0 
z
" id="DejaVuSans-44f" transform="scale(0.015625)"/>
      <path d="M 750 794 
L 1409 794 
L 1409 0 
L 750 0 
L 750 794 
z
M 750 3309 
L 1409 3309 
L 1409 2516 
L 750 2516 
L 750 3309 
z
" id="DejaVuSans-3a" transform="scale(0.015625)"/>
     </defs>
     <use xlink:href="#DejaVuSans-41f"/>
     <use x="75.195312" xlink:href="#DejaVuSans-43e"/>
     <use x="136.376953" xlink:href="#DejaVuSans-441"/>
     <use x="191.357422" xlink:href="#DejaVuSans-43b"/>
     <use x="255.273438" xlink:href="#DejaVuSans-435"/>
     <use x="316.796875" xlink:href="#DejaVuSans-434"/>
     <use x="385.9375" xlink:href="#DejaVuSans-43d"/>
     <use x="451.318359" xlink:href="#DejaVuSans-430"/>
     <use x="512.597656" xlink:href="#DejaVuSans-20"/>
     <use x="544.384766" xlink:href="#DejaVuSans-430"/>
     <use x="605.664062" xlink:href="#DejaVuSans-43a"/>
     <use x="666.064453" xlink:href="#DejaVuSans-442"/>
     <use x="724.316406" xlink:href="#DejaVuSans-443"/>
     <use x="783.496094" xlink:href="#DejaVuSans-430"/>
     <use x="844.775391" xlink:href="#DejaVuSans-43b"/>
     <use x="908.691406" xlink:href="#DejaVuSans-438"/>
     <use x="973.681641" xlink:href="#DejaVuSans-437"/>
     <use x="1026.855469" xlink:href="#DejaVuSans-430"/>
     <use x="1088.134766" xlink:href="#DejaVuSans-446"/>
     <use x="1156.201172" xlink:href="#DejaVuSans-438"/>
     <use x="1221.191406" xlink:href="#DejaVuSans-44f"/>
     <use x="1281.347656" xlink:href="#DejaVuSans-3a"/>
     <use x="1315.039062" xlink:href="#DejaVuSans-20"/>
     <use x="1346.826172" xlink:href="#DejaVuSans-31"/>
     <use x="1410.449219" xlink:href="#DejaVuSans-33"/>
     <use x="1474.072266" xlink:href="#DejaVuSans-2e"/>
     <use x="1505.859375" xlink:href="#DejaVuSans-31"/>
     <use x="1569.482422" xlink:href="#DejaVuSans-31"/>
     <use x="1633.105469" xlink:href="#DejaVuSans-2e"/>
     <use x="1664.892578" xlink:href="#DejaVuSans-32"/>
     <use x="1728.515625" xlink:href="#DejaVuSans-30"/>
     <use x="1792.138672" xlink:href="#DejaVuSans-32"/>
     <use x="1855.761719" xlink:href="#DejaVuSans-31"/>
    </g>
   </g>
   <g id="text_31">
    <!-- Позитивност на PCR тестовете -->
    <g style="fill:#262626;" transform="translate(330.217513 9.118125)scale(0.12 -0.12)">
     <defs>
      <path d="M 4769 4666 
L 4769 0 
L 3566 0 
L 3566 3756 
L 1791 3756 
L 1791 0 
L 588 0 
L 588 4666 
L 4769 4666 
z
" id="DejaVuSans-Bold-41f" transform="scale(0.015625)"/>
      <path d="M 2203 2784 
Q 1831 2784 1636 2517 
Q 1441 2250 1441 1747 
Q 1441 1244 1636 976 
Q 1831 709 2203 709 
Q 2569 709 2762 976 
Q 2956 1244 2956 1747 
Q 2956 2250 2762 2517 
Q 2569 2784 2203 2784 
z
M 2203 3584 
Q 3106 3584 3614 3096 
Q 4122 2609 4122 1747 
Q 4122 884 3614 396 
Q 3106 -91 2203 -91 
Q 1297 -91 786 396 
Q 275 884 275 1747 
Q 275 2609 786 3096 
Q 1297 3584 2203 3584 
z
" id="DejaVuSans-Bold-43e" transform="scale(0.015625)"/>
      <path d="M 900 2181 
L 1413 2181 
Q 1872 2181 2039 2281 
Q 2206 2381 2206 2519 
Q 2206 2841 1469 2841 
Q 853 2841 472 2625 
L 472 3434 
Q 1041 3584 1713 3584 
Q 2500 3584 2862 3361 
Q 3225 3138 3225 2666 
Q 3225 2047 2541 1888 
Q 3313 1697 3313 994 
Q 3313 453 2888 181 
Q 2463 -91 1553 -91 
Q 875 -91 313 84 
L 313 947 
Q 1013 653 1428 653 
Q 1884 653 2089 776 
Q 2294 900 2294 1056 
Q 2294 1491 1394 1491 
L 900 1491 
L 900 2181 
z
" id="DejaVuSans-Bold-437" transform="scale(0.015625)"/>
      <path d="M 3947 3500 
L 3947 0 
L 2828 0 
L 2828 1863 
L 1700 0 
L 538 0 
L 538 3500 
L 1656 3500 
L 1656 1638 
L 2784 3500 
L 3947 3500 
z
" id="DejaVuSans-Bold-438" transform="scale(0.015625)"/>
      <path d="M 25 3500 
L 3681 3500 
L 3681 2809 
L 2413 2809 
L 2413 0 
L 1297 0 
L 1297 2809 
L 25 2809 
L 25 3500 
z
" id="DejaVuSans-Bold-442" transform="scale(0.015625)"/>
      <path d="M 2184 2181 
Q 2378 2181 2478 2261 
Q 2578 2341 2578 2497 
Q 2578 2653 2478 2731 
Q 2378 2809 2184 2809 
L 1656 2809 
L 1656 2181 
L 2184 2181 
z
M 2222 700 
Q 2469 700 2594 798 
Q 2719 897 2719 1094 
Q 2719 1288 2594 1384 
Q 2469 1481 2222 1481 
L 1656 1481 
L 1656 700 
L 2222 700 
z
M 538 3500 
L 2141 3500 
Q 2919 3500 3267 3279 
Q 3616 3059 3616 2575 
Q 3616 2319 3487 2139 
Q 3359 1959 3119 1872 
Q 3428 1788 3598 1561 
Q 3769 1334 3769 1003 
Q 3769 497 3403 248 
Q 3038 0 2294 0 
L 538 0 
L 538 3500 
z
" id="DejaVuSans-Bold-432" transform="scale(0.015625)"/>
      <path d="M 538 3500 
L 1656 3500 
L 1656 2169 
L 2766 2169 
L 2766 3500 
L 3884 3500 
L 3884 0 
L 2766 0 
L 2766 1478 
L 1656 1478 
L 1656 0 
L 538 0 
L 538 3500 
z
" id="DejaVuSans-Bold-43d" transform="scale(0.015625)"/>
      <path d="M 3366 3391 
L 3366 2478 
Q 3138 2634 2908 2709 
Q 2678 2784 2431 2784 
Q 1963 2784 1702 2511 
Q 1441 2238 1441 1747 
Q 1441 1256 1702 982 
Q 1963 709 2431 709 
Q 2694 709 2930 787 
Q 3166 866 3366 1019 
L 3366 103 
Q 3103 6 2833 -42 
Q 2563 -91 2291 -91 
Q 1344 -91 809 395 
Q 275 881 275 1747 
Q 275 2613 809 3098 
Q 1344 3584 2291 3584 
Q 2566 3584 2833 3536 
Q 3100 3488 3366 3391 
z
" id="DejaVuSans-Bold-441" transform="scale(0.015625)"/>
      <path id="DejaVuSans-Bold-20" transform="scale(0.015625)"/>
      <path d="M 2106 1575 
Q 1756 1575 1579 1456 
Q 1403 1338 1403 1106 
Q 1403 894 1545 773 
Q 1688 653 1941 653 
Q 2256 653 2472 879 
Q 2688 1106 2688 1447 
L 2688 1575 
L 2106 1575 
z
M 3816 1997 
L 3816 0 
L 2688 0 
L 2688 519 
Q 2463 200 2181 54 
Q 1900 -91 1497 -91 
Q 953 -91 614 226 
Q 275 544 275 1050 
Q 275 1666 698 1953 
Q 1122 2241 2028 2241 
L 2688 2241 
L 2688 2328 
Q 2688 2594 2478 2717 
Q 2269 2841 1825 2841 
Q 1466 2841 1156 2769 
Q 847 2697 581 2553 
L 581 3406 
Q 941 3494 1303 3539 
Q 1666 3584 2028 3584 
Q 2975 3584 3395 3211 
Q 3816 2838 3816 1997 
z
" id="DejaVuSans-Bold-430" transform="scale(0.015625)"/>
      <path d="M 588 4666 
L 2584 4666 
Q 3475 4666 3951 4270 
Q 4428 3875 4428 3144 
Q 4428 2409 3951 2014 
Q 3475 1619 2584 1619 
L 1791 1619 
L 1791 0 
L 588 0 
L 588 4666 
z
M 1791 3794 
L 1791 2491 
L 2456 2491 
Q 2806 2491 2997 2661 
Q 3188 2831 3188 3144 
Q 3188 3456 2997 3625 
Q 2806 3794 2456 3794 
L 1791 3794 
z
" id="DejaVuSans-Bold-50" transform="scale(0.015625)"/>
      <path d="M 4288 256 
Q 3956 84 3597 -3 
Q 3238 -91 2847 -91 
Q 1681 -91 1000 561 
Q 319 1213 319 2328 
Q 319 3447 1000 4098 
Q 1681 4750 2847 4750 
Q 3238 4750 3597 4662 
Q 3956 4575 4288 4403 
L 4288 3438 
Q 3953 3666 3628 3772 
Q 3303 3878 2944 3878 
Q 2300 3878 1931 3465 
Q 1563 3053 1563 2328 
Q 1563 1606 1931 1193 
Q 2300 781 2944 781 
Q 3303 781 3628 887 
Q 3953 994 4288 1222 
L 4288 256 
z
" id="DejaVuSans-Bold-43" transform="scale(0.015625)"/>
      <path d="M 2297 2597 
Q 2675 2597 2839 2737 
Q 3003 2878 3003 3200 
Q 3003 3519 2839 3656 
Q 2675 3794 2297 3794 
L 1791 3794 
L 1791 2597 
L 2297 2597 
z
M 1791 1766 
L 1791 0 
L 588 0 
L 588 4666 
L 2425 4666 
Q 3347 4666 3776 4356 
Q 4206 4047 4206 3378 
Q 4206 2916 3982 2619 
Q 3759 2322 3309 2181 
Q 3556 2125 3751 1926 
Q 3947 1728 4147 1325 
L 4800 0 
L 3519 0 
L 2950 1159 
Q 2778 1509 2601 1637 
Q 2425 1766 2131 1766 
L 1791 1766 
z
" id="DejaVuSans-Bold-52" transform="scale(0.015625)"/>
      <path d="M 4031 1759 
L 4031 1441 
L 1416 1441 
Q 1456 1047 1700 850 
Q 1944 653 2381 653 
Q 2734 653 3104 758 
Q 3475 863 3866 1075 
L 3866 213 
Q 3469 63 3072 -14 
Q 2675 -91 2278 -91 
Q 1328 -91 801 392 
Q 275 875 275 1747 
Q 275 2603 792 3093 
Q 1309 3584 2216 3584 
Q 3041 3584 3536 3087 
Q 4031 2591 4031 1759 
z
M 2881 2131 
Q 2881 2450 2695 2645 
Q 2509 2841 2209 2841 
Q 1884 2841 1681 2658 
Q 1478 2475 1428 2131 
L 2881 2131 
z
" id="DejaVuSans-Bold-435" transform="scale(0.015625)"/>
     </defs>
     <use xlink:href="#DejaVuSans-Bold-41f"/>
     <use x="83.691406" xlink:href="#DejaVuSans-Bold-43e"/>
     <use x="152.392578" xlink:href="#DejaVuSans-Bold-437"/>
     <use x="210.498047" xlink:href="#DejaVuSans-Bold-438"/>
     <use x="280.566406" xlink:href="#DejaVuSans-Bold-442"/>
     <use x="338.525391" xlink:href="#DejaVuSans-Bold-438"/>
     <use x="408.59375" xlink:href="#DejaVuSans-Bold-432"/>
     <use x="471.875" xlink:href="#DejaVuSans-Bold-43d"/>
     <use x="540.966797" xlink:href="#DejaVuSans-Bold-43e"/>
     <use x="609.667969" xlink:href="#DejaVuSans-Bold-441"/>
     <use x="668.945312" xlink:href="#DejaVuSans-Bold-442"/>
     <use x="726.904297" xlink:href="#DejaVuSans-Bold-20"/>
     <use x="761.71875" xlink:href="#DejaVuSans-Bold-43d"/>
     <use x="830.810547" xlink:href="#DejaVuSans-Bold-430"/>
     <use x="898.291016" xlink:href="#DejaVuSans-Bold-20"/>
     <use x="933.105469" xlink:href="#DejaVuSans-Bold-50"/>
     <use x="1006.396484" xlink:href="#DejaVuSans-Bold-43"/>
     <use x="1079.785156" xlink:href="#DejaVuSans-Bold-52"/>
     <use x="1156.787109" xlink:href="#DejaVuSans-Bold-20"/>
     <use x="1191.601562" xlink:href="#DejaVuSans-Bold-442"/>
     <use x="1249.560547" xlink:href="#DejaVuSans-Bold-435"/>
     <use x="1317.382812" xlink:href="#DejaVuSans-Bold-441"/>
     <use x="1376.660156" xlink:href="#DejaVuSans-Bold-442"/>
     <use x="1434.619141" xlink:href="#DejaVuSans-Bold-43e"/>
     <use x="1503.320312" xlink:href="#DejaVuSans-Bold-432"/>
     <use x="1566.601562" xlink:href="#DejaVuSans-Bold-435"/>
     <use x="1634.423828" xlink:href="#DejaVuSans-Bold-442"/>
     <use x="1692.382812" xlink:href="#DejaVuSans-Bold-435"/>
    </g>
   </g>
  </g>
  <g id="axes_2">
   <g id="matplotlib.axis_3">
    <g id="ytick_9">
     <g id="line2d_122">
      <defs>
       <path d="M 0 0 
L 6 0 
" id="mc9d5dff109" style="stroke:#262626;stroke-width:1.25;"/>
      </defs>
      <g>
       <use style="fill:#262626;stroke:#262626;stroke-width:1.25;" x="811.5519" xlink:href="#mc9d5dff109" y="482.960153"/>
      </g>
     </g>
     <g id="text_32">
      <!-- 0 -->
      <g style="fill:#262626;" transform="translate(821.0519 487.139293)scale(0.11 -0.11)">
       <use xlink:href="#DejaVuSans-30"/>
      </g>
     </g>
    </g>
    <g id="ytick_10">
     <g id="line2d_123">
      <g>
       <use style="fill:#262626;stroke:#262626;stroke-width:1.25;" x="811.5519" xlink:href="#mc9d5dff109" y="428.786139"/>
      </g>
     </g>
     <g id="text_33">
      <!-- 5 -->
      <g style="fill:#262626;" transform="translate(821.0519 432.96528)scale(0.11 -0.11)">
       <use xlink:href="#DejaVuSans-35"/>
      </g>
     </g>
    </g>
    <g id="ytick_11">
     <g id="line2d_124">
      <g>
       <use style="fill:#262626;stroke:#262626;stroke-width:1.25;" x="811.5519" xlink:href="#mc9d5dff109" y="374.612125"/>
      </g>
     </g>
     <g id="text_34">
      <!-- 10 -->
      <g style="fill:#262626;" transform="translate(821.0519 378.791266)scale(0.11 -0.11)">
       <use xlink:href="#DejaVuSans-31"/>
       <use x="63.623047" xlink:href="#DejaVuSans-30"/>
      </g>
     </g>
    </g>
    <g id="ytick_12">
     <g id="line2d_125">
      <g>
       <use style="fill:#262626;stroke:#262626;stroke-width:1.25;" x="811.5519" xlink:href="#mc9d5dff109" y="320.438111"/>
      </g>
     </g>
     <g id="text_35">
      <!-- 15 -->
      <g style="fill:#262626;" transform="translate(821.0519 324.617252)scale(0.11 -0.11)">
       <use xlink:href="#DejaVuSans-31"/>
       <use x="63.623047" xlink:href="#DejaVuSans-35"/>
      </g>
     </g>
    </g>
    <g id="ytick_13">
     <g id="line2d_126">
      <g>
       <use style="fill:#262626;stroke:#262626;stroke-width:1.25;" x="811.5519" xlink:href="#mc9d5dff109" y="266.264097"/>
      </g>
     </g>
     <g id="text_36">
      <!-- 20 -->
      <g style="fill:#262626;" transform="translate(821.0519 270.443238)scale(0.11 -0.11)">
       <use xlink:href="#DejaVuSans-32"/>
       <use x="63.623047" xlink:href="#DejaVuSans-30"/>
      </g>
     </g>
    </g>
    <g id="ytick_14">
     <g id="line2d_127">
      <g>
       <use style="fill:#262626;stroke:#262626;stroke-width:1.25;" x="811.5519" xlink:href="#mc9d5dff109" y="212.090083"/>
      </g>
     </g>
     <g id="text_37">
      <!-- 25 -->
      <g style="fill:#262626;" transform="translate(821.0519 216.269224)scale(0.11 -0.11)">
       <use xlink:href="#DejaVuSans-32"/>
       <use x="63.623047" xlink:href="#DejaVuSans-35"/>
      </g>
     </g>
    </g>
    <g id="ytick_15">
     <g id="line2d_128">
      <g>
       <use style="fill:#262626;stroke:#262626;stroke-width:1.25;" x="811.5519" xlink:href="#mc9d5dff109" y="157.916069"/>
      </g>
     </g>
     <g id="text_38">
      <!-- 30 -->
      <g style="fill:#262626;" transform="translate(821.0519 162.09521)scale(0.11 -0.11)">
       <use xlink:href="#DejaVuSans-33"/>
       <use x="63.623047" xlink:href="#DejaVuSans-30"/>
      </g>
     </g>
    </g>
    <g id="ytick_16">
     <g id="line2d_129">
      <g>
       <use style="fill:#262626;stroke:#262626;stroke-width:1.25;" x="811.5519" xlink:href="#mc9d5dff109" y="103.742055"/>
      </g>
     </g>
     <g id="text_39">
      <!-- 35 -->
      <g style="fill:#262626;" transform="translate(821.0519 107.921196)scale(0.11 -0.11)">
       <use xlink:href="#DejaVuSans-33"/>
       <use x="63.623047" xlink:href="#DejaVuSans-35"/>
      </g>
     </g>
    </g>
    <g id="ytick_17">
     <g id="line2d_130">
      <g>
       <use style="fill:#262626;stroke:#262626;stroke-width:1.25;" x="811.5519" xlink:href="#mc9d5dff109" y="49.568041"/>
      </g>
     </g>
     <g id="text_40">
      <!-- 40 -->
      <g style="fill:#262626;" transform="translate(821.0519 53.747182)scale(0.11 -0.11)">
       <use xlink:href="#DejaVuSans-34"/>
       <use x="63.623047" xlink:href="#DejaVuSans-30"/>
      </g>
     </g>
    </g>
    <g id="text_41">
     <!-- Процент -->
     <g style="fill:#262626;" transform="translate(845.931275 235.394639)rotate(-270)scale(0.12 -0.12)">
      <use xlink:href="#DejaVuSans-41f"/>
      <use x="75.195312" xlink:href="#DejaVuSans-440"/>
      <use x="138.671875" xlink:href="#DejaVuSans-43e"/>
      <use x="199.853516" xlink:href="#DejaVuSans-446"/>
      <use x="267.919922" xlink:href="#DejaVuSans-435"/>
      <use x="329.443359" xlink:href="#DejaVuSans-43d"/>
      <use x="394.824219" xlink:href="#DejaVuSans-442"/>
     </g>
    </g>
   </g>
   <g id="line2d_131">
    <path clip-path="url(#p97a709cdd5)" d="M 94.264064 425.860742 
L 103.372481 436.680067 
L 112.480898 432.439015 
L 121.589315 429.621967 
L 130.697732 422.409084 
L 139.806148 410.181235 
L 148.914565 420.644558 
L 158.022982 424.823697 
L 167.131399 436.509805 
L 176.239816 429.281444 
L 185.348233 446.168258 
L 194.45665 451.121311 
L 203.565067 452.839401 
L 212.673484 457.266192 
L 221.781901 443.722688 
L 230.890318 446.833825 
L 239.998735 430.426838 
L 249.107152 420.690993 
L 258.215569 386.205364 
L 267.323986 345.358157 
L 276.432403 289.187444 
L 285.54082 226.376545 
L 294.649237 160.62477 
L 303.757654 77.754007 
L 312.866071 59.102668 
L 321.974488 50.341956 
L 331.082905 76.980092 
L 340.191322 71.222169 
L 349.299739 143.598651 
L 358.408156 228.884027 
L 367.516573 307.219652 
L 376.62499 388.480673 
L 385.733407 406.125923 
L 394.841824 403.169569 
L 403.950241 376.299259 
L 413.058658 379.302047 
L 422.167075 368.018374 
L 431.275492 359.675575 
L 440.383908 334.755529 
L 449.492325 309.525917 
L 458.600742 281.154212 
L 467.709159 239.502134 
L 476.817576 223.6988 
L 485.925993 254.206509 
L 495.03441 288.274225 
L 504.142827 321.924027 
L 513.251244 352.230518 
L 522.359661 406.791489 
L 531.468078 416.155854 
L 540.576495 423.585434 
L 549.684912 448.273306 
L 558.793329 462.838376 
L 567.901746 468.070038 
L 577.010163 469.880998 
L 586.11858 473.038569 
L 595.226997 472.85283 
L 604.335414 471.846741 
L 613.443831 474.818572 
L 622.552248 472.403959 
L 631.660665 468.983257 
L 640.769082 458.875934 
L 649.877499 441.199727 
L 658.985916 413.338806 
L 668.094333 387.923454 
L 677.20275 369.194724 
L 686.311167 390.198763 
L 695.419584 394.0219 
L 704.528001 347.757292 
L 713.636418 342.014847 
L 722.744835 318.735499 
L 731.853252 287.175266 
L 740.961668 241.359529 
L 750.070085 165.794519 
L 759.178502 171.800095 
L 768.286919 186.721166 
L 777.395336 216.225366 
" style="fill:none;stroke:#0000ff;stroke-dasharray:1.5,2.475;stroke-dashoffset:0;stroke-width:1.5;"/>
   </g>
   <g id="patch_7">
    <path d="M 60.1075 496.042403 
L 60.1075 29.118125 
" style="fill:none;stroke:#262626;stroke-linecap:square;stroke-linejoin:miter;stroke-width:1.25;"/>
   </g>
   <g id="patch_8">
    <path d="M 811.5519 496.042403 
L 811.5519 29.118125 
" style="fill:none;stroke:#262626;stroke-linecap:square;stroke-linejoin:miter;stroke-width:1.25;"/>
   </g>
   <g id="patch_9">
    <path d="M 60.1075 496.042403 
L 811.5519 496.042403 
" style="fill:none;stroke:#262626;stroke-linecap:square;stroke-linejoin:miter;stroke-width:1.25;"/>
   </g>
   <g id="patch_10">
    <path d="M 60.1075 29.118125 
L 811.5519 29.118125 
" style="fill:none;stroke:#262626;stroke-linecap:square;stroke-linejoin:miter;stroke-width:1.25;"/>
   </g>
   <g id="legend_1">
    <g id="patch_11">
     <path d="M 586.916431 86.355937 
L 803.8519 86.355937 
Q 806.0519 86.355937 806.0519 84.155937 
L 806.0519 36.818125 
Q 806.0519 34.618125 803.8519 34.618125 
L 586.916431 34.618125 
Q 584.716431 34.618125 584.716431 36.818125 
L 584.716431 84.155937 
Q 584.716431 86.355937 586.916431 86.355937 
z
" style="fill:#ffffff;opacity:0.8;stroke:#cccccc;stroke-linejoin:miter;"/>
    </g>
    <g id="line2d_132">
     <path d="M 589.116431 43.526406 
L 611.116431 43.526406 
" style="fill:none;stroke:#ffa500;stroke-linecap:round;stroke-width:1.5;"/>
    </g>
    <g id="line2d_133"/>
    <g id="text_42">
     <!-- PCR тестове -->
     <g style="fill:#262626;" transform="translate(619.916431 47.376406)scale(0.11 -0.11)">
      <defs>
       <path d="M 1259 4147 
L 1259 2394 
L 2053 2394 
Q 2494 2394 2734 2622 
Q 2975 2850 2975 3272 
Q 2975 3691 2734 3919 
Q 2494 4147 2053 4147 
L 1259 4147 
z
M 628 4666 
L 2053 4666 
Q 2838 4666 3239 4311 
Q 3641 3956 3641 3272 
Q 3641 2581 3239 2228 
Q 2838 1875 2053 1875 
L 1259 1875 
L 1259 0 
L 628 0 
L 628 4666 
z
" id="DejaVuSans-50" transform="scale(0.015625)"/>
       <path d="M 4122 4306 
L 4122 3641 
Q 3803 3938 3442 4084 
Q 3081 4231 2675 4231 
Q 1875 4231 1450 3742 
Q 1025 3253 1025 2328 
Q 1025 1406 1450 917 
Q 1875 428 2675 428 
Q 3081 428 3442 575 
Q 3803 722 4122 1019 
L 4122 359 
Q 3791 134 3420 21 
Q 3050 -91 2638 -91 
Q 1578 -91 968 557 
Q 359 1206 359 2328 
Q 359 3453 968 4101 
Q 1578 4750 2638 4750 
Q 3056 4750 3426 4639 
Q 3797 4528 4122 4306 
z
" id="DejaVuSans-43" transform="scale(0.015625)"/>
       <path d="M 2841 2188 
Q 3044 2119 3236 1894 
Q 3428 1669 3622 1275 
L 4263 0 
L 3584 0 
L 2988 1197 
Q 2756 1666 2539 1819 
Q 2322 1972 1947 1972 
L 1259 1972 
L 1259 0 
L 628 0 
L 628 4666 
L 2053 4666 
Q 2853 4666 3247 4331 
Q 3641 3997 3641 3322 
Q 3641 2881 3436 2590 
Q 3231 2300 2841 2188 
z
M 1259 4147 
L 1259 2491 
L 2053 2491 
Q 2509 2491 2742 2702 
Q 2975 2913 2975 3322 
Q 2975 3731 2742 3939 
Q 2509 4147 2053 4147 
L 1259 4147 
z
" id="DejaVuSans-52" transform="scale(0.015625)"/>
      </defs>
      <use xlink:href="#DejaVuSans-50"/>
      <use x="60.302734" xlink:href="#DejaVuSans-43"/>
      <use x="130.126953" xlink:href="#DejaVuSans-52"/>
      <use x="199.609375" xlink:href="#DejaVuSans-20"/>
      <use x="231.396484" xlink:href="#DejaVuSans-442"/>
      <use x="289.648438" xlink:href="#DejaVuSans-435"/>
      <use x="351.171875" xlink:href="#DejaVuSans-441"/>
      <use x="406.152344" xlink:href="#DejaVuSans-442"/>
      <use x="464.404297" xlink:href="#DejaVuSans-43e"/>
      <use x="525.585938" xlink:href="#DejaVuSans-432"/>
      <use x="584.521484" xlink:href="#DejaVuSans-435"/>
     </g>
    </g>
    <g id="line2d_134">
     <path d="M 589.116431 59.672344 
L 611.116431 59.672344 
" style="fill:none;stroke:#ff0000;stroke-linecap:round;stroke-width:1.5;"/>
    </g>
    <g id="line2d_135"/>
    <g id="text_43">
     <!-- Положителни PCR тестове -->
     <g style="fill:#262626;" transform="translate(619.916431 63.522344)scale(0.11 -0.11)">
      <defs>
       <path d="M 2597 3500 
L 3169 3500 
L 3169 1856 
L 4697 3500 
L 5366 3500 
L 4109 2153 
L 5547 0 
L 4931 0 
L 3753 1769 
L 3169 1141 
L 3169 0 
L 2597 0 
L 2597 1141 
L 2013 1769 
L 834 0 
L 219 0 
L 1656 2153 
L 400 3500 
L 1069 3500 
L 2597 1856 
L 2597 3500 
z
" id="DejaVuSans-436" transform="scale(0.015625)"/>
      </defs>
      <use xlink:href="#DejaVuSans-41f"/>
      <use x="75.195312" xlink:href="#DejaVuSans-43e"/>
      <use x="136.376953" xlink:href="#DejaVuSans-43b"/>
      <use x="200.292969" xlink:href="#DejaVuSans-43e"/>
      <use x="261.474609" xlink:href="#DejaVuSans-436"/>
      <use x="351.5625" xlink:href="#DejaVuSans-438"/>
      <use x="416.552734" xlink:href="#DejaVuSans-442"/>
      <use x="474.804688" xlink:href="#DejaVuSans-435"/>
      <use x="536.328125" xlink:href="#DejaVuSans-43b"/>
      <use x="600.244141" xlink:href="#DejaVuSans-43d"/>
      <use x="665.625" xlink:href="#DejaVuSans-438"/>
      <use x="730.615234" xlink:href="#DejaVuSans-20"/>
      <use x="762.402344" xlink:href="#DejaVuSans-50"/>
      <use x="822.705078" xlink:href="#DejaVuSans-43"/>
      <use x="892.529297" xlink:href="#DejaVuSans-52"/>
      <use x="962.011719" xlink:href="#DejaVuSans-20"/>
      <use x="993.798828" xlink:href="#DejaVuSans-442"/>
      <use x="1052.050781" xlink:href="#DejaVuSans-435"/>
      <use x="1113.574219" xlink:href="#DejaVuSans-441"/>
      <use x="1168.554688" xlink:href="#DejaVuSans-442"/>
      <use x="1226.806641" xlink:href="#DejaVuSans-43e"/>
      <use x="1287.988281" xlink:href="#DejaVuSans-432"/>
      <use x="1346.923828" xlink:href="#DejaVuSans-435"/>
     </g>
    </g>
    <g id="line2d_136">
     <path d="M 589.116431 75.818281 
L 611.116431 75.818281 
" style="fill:none;stroke:#0000ff;stroke-dasharray:1.5,2.475;stroke-dashoffset:0;stroke-width:1.5;"/>
    </g>
    <g id="line2d_137"/>
    <g id="text_44">
     <!-- Процент положителни тестове -->
     <g style="fill:#262626;" transform="translate(619.916431 79.668281)scale(0.11 -0.11)">
      <defs>
       <path d="M 3603 3500 
L 3603 0 
L 3025 0 
L 3025 3041 
L 1159 3041 
L 1159 0 
L 581 0 
L 581 3500 
L 3603 3500 
z
" id="DejaVuSans-43f" transform="scale(0.015625)"/>
      </defs>
      <use xlink:href="#DejaVuSans-41f"/>
      <use x="75.195312" xlink:href="#DejaVuSans-440"/>
      <use x="138.671875" xlink:href="#DejaVuSans-43e"/>
      <use x="199.853516" xlink:href="#DejaVuSans-446"/>
      <use x="267.919922" xlink:href="#DejaVuSans-435"/>
      <use x="329.443359" xlink:href="#DejaVuSans-43d"/>
      <use x="394.824219" xlink:href="#DejaVuSans-442"/>
      <use x="453.076172" xlink:href="#DejaVuSans-20"/>
      <use x="484.863281" xlink:href="#DejaVuSans-43f"/>
      <use x="550.244141" xlink:href="#DejaVuSans-43e"/>
      <use x="611.425781" xlink:href="#DejaVuSans-43b"/>
      <use x="675.341797" xlink:href="#DejaVuSans-43e"/>
      <use x="736.523438" xlink:href="#DejaVuSans-436"/>
      <use x="826.611328" xlink:href="#DejaVuSans-438"/>
      <use x="891.601562" xlink:href="#DejaVuSans-442"/>
      <use x="949.853516" xlink:href="#DejaVuSans-435"/>
      <use x="1011.376953" xlink:href="#DejaVuSans-43b"/>
      <use x="1075.292969" xlink:href="#DejaVuSans-43d"/>
      <use x="1140.673828" xlink:href="#DejaVuSans-438"/>
      <use x="1205.664062" xlink:href="#DejaVuSans-20"/>
      <use x="1237.451172" xlink:href="#DejaVuSans-442"/>
      <use x="1295.703125" xlink:href="#DejaVuSans-435"/>
      <use x="1357.226562" xlink:href="#DejaVuSans-441"/>
      <use x="1412.207031" xlink:href="#DejaVuSans-442"/>
      <use x="1470.458984" xlink:href="#DejaVuSans-43e"/>
      <use x="1531.640625" xlink:href="#DejaVuSans-432"/>
      <use x="1590.576172" xlink:href="#DejaVuSans-435"/>
     </g>
    </g>
   </g>
  </g>
 </g>
 <defs>
  <clipPath id="p97a709cdd5">
   <rect height="466.924278" width="751.4444" x="60.1075" y="29.118125"/>
  </clipPath>
 </defs>
</svg>
