<?xml version="1.0" encoding="utf-8" standalone="no"?>
<!DOCTYPE svg PUBLIC "-//W3C//DTD SVG 1.1//EN"
  "http://www.w3.org/Graphics/SVG/1.1/DTD/svg11.dtd">
<svg height="713.364308pt" version="1.1" viewBox="0 0 1297.702428 713.364308" width="1297.702428pt" xmlns="http://www.w3.org/2000/svg" xmlns:xlink="http://www.w3.org/1999/xlink">
 <metadata>
  <rdf:RDF xmlns:cc="http://creativecommons.org/ns#" xmlns:dc="http://purl.org/dc/elements/1.1/" xmlns:rdf="http://www.w3.org/1999/02/22-rdf-syntax-ns#">
   <cc:Work>
    <dc:type rdf:resource="http://purl.org/dc/dcmitype/StillImage"/>
    <dc:date>2021-10-31T02:45:39.420930</dc:date>
    <dc:format>image/svg+xml</dc:format>
    <dc:creator>
     <cc:Agent>
      <dc:title>Matplotlib v3.4.3, https://matplotlib.org/</dc:title>
     </cc:Agent>
    </dc:creator>
   </cc:Work>
  </rdf:RDF>
 </metadata>
 <defs>
  <style type="text/css">*{stroke-linecap:butt;stroke-linejoin:round;}</style>
 </defs>
 <g id="figure_1">
  <g id="patch_1">
   <path d="M 0 713.364308 
L 1297.702428 713.364308 
L 1297.702428 0 
L 0 0 
z
" style="fill:none;"/>
  </g>
  <g id="axes_1">
   <g id="patch_2">
    <path d="M 46.11 640.016153 
L 1246.304865 640.016153 
L 1246.304865 29.024375 
L 46.11 29.024375 
z
" style="fill:none;"/>
   </g>
   <g id="matplotlib.axis_1">
    <g id="xtick_1">
     <g id="line2d_1">
      <path clip-path="url(#p604923260e)" d="M 100.664312 640.016153 
L 100.664312 29.024375 
" style="fill:none;stroke:#cccccc;stroke-linecap:round;"/>
     </g>
     <g id="line2d_2">
      <defs>
       <path d="M 0 0 
L 0 6 
" id="me06f377fa7" style="stroke:#262626;stroke-width:1.25;"/>
      </defs>
      <g>
       <use style="fill:#262626;stroke:#262626;stroke-width:1.25;" x="100.664312" xlink:href="#me06f377fa7" y="640.016153"/>
      </g>
     </g>
     <g id="text_1">
      <!-- 06.06 (23) -->
      <g style="fill:#262626;" transform="translate(58.340104 696.132941)rotate(-45)scale(0.11 -0.11)">
       <defs>
        <path d="M 2034 4250 
Q 1547 4250 1301 3770 
Q 1056 3291 1056 2328 
Q 1056 1369 1301 889 
Q 1547 409 2034 409 
Q 2525 409 2770 889 
Q 3016 1369 3016 2328 
Q 3016 3291 2770 3770 
Q 2525 4250 2034 4250 
z
M 2034 4750 
Q 2819 4750 3233 4129 
Q 3647 3509 3647 2328 
Q 3647 1150 3233 529 
Q 2819 -91 2034 -91 
Q 1250 -91 836 529 
Q 422 1150 422 2328 
Q 422 3509 836 4129 
Q 1250 4750 2034 4750 
z
" id="DejaVuSans-30" transform="scale(0.015625)"/>
        <path d="M 2113 2584 
Q 1688 2584 1439 2293 
Q 1191 2003 1191 1497 
Q 1191 994 1439 701 
Q 1688 409 2113 409 
Q 2538 409 2786 701 
Q 3034 994 3034 1497 
Q 3034 2003 2786 2293 
Q 2538 2584 2113 2584 
z
M 3366 4563 
L 3366 3988 
Q 3128 4100 2886 4159 
Q 2644 4219 2406 4219 
Q 1781 4219 1451 3797 
Q 1122 3375 1075 2522 
Q 1259 2794 1537 2939 
Q 1816 3084 2150 3084 
Q 2853 3084 3261 2657 
Q 3669 2231 3669 1497 
Q 3669 778 3244 343 
Q 2819 -91 2113 -91 
Q 1303 -91 875 529 
Q 447 1150 447 2328 
Q 447 3434 972 4092 
Q 1497 4750 2381 4750 
Q 2619 4750 2861 4703 
Q 3103 4656 3366 4563 
z
" id="DejaVuSans-36" transform="scale(0.015625)"/>
        <path d="M 684 794 
L 1344 794 
L 1344 0 
L 684 0 
L 684 794 
z
" id="DejaVuSans-2e" transform="scale(0.015625)"/>
        <path id="DejaVuSans-20" transform="scale(0.015625)"/>
        <path d="M 1984 4856 
Q 1566 4138 1362 3434 
Q 1159 2731 1159 2009 
Q 1159 1288 1364 580 
Q 1569 -128 1984 -844 
L 1484 -844 
Q 1016 -109 783 600 
Q 550 1309 550 2009 
Q 550 2706 781 3412 
Q 1013 4119 1484 4856 
L 1984 4856 
z
" id="DejaVuSans-28" transform="scale(0.015625)"/>
        <path d="M 1228 531 
L 3431 531 
L 3431 0 
L 469 0 
L 469 531 
Q 828 903 1448 1529 
Q 2069 2156 2228 2338 
Q 2531 2678 2651 2914 
Q 2772 3150 2772 3378 
Q 2772 3750 2511 3984 
Q 2250 4219 1831 4219 
Q 1534 4219 1204 4116 
Q 875 4013 500 3803 
L 500 4441 
Q 881 4594 1212 4672 
Q 1544 4750 1819 4750 
Q 2544 4750 2975 4387 
Q 3406 4025 3406 3419 
Q 3406 3131 3298 2873 
Q 3191 2616 2906 2266 
Q 2828 2175 2409 1742 
Q 1991 1309 1228 531 
z
" id="DejaVuSans-32" transform="scale(0.015625)"/>
        <path d="M 2597 2516 
Q 3050 2419 3304 2112 
Q 3559 1806 3559 1356 
Q 3559 666 3084 287 
Q 2609 -91 1734 -91 
Q 1441 -91 1130 -33 
Q 819 25 488 141 
L 488 750 
Q 750 597 1062 519 
Q 1375 441 1716 441 
Q 2309 441 2620 675 
Q 2931 909 2931 1356 
Q 2931 1769 2642 2001 
Q 2353 2234 1838 2234 
L 1294 2234 
L 1294 2753 
L 1863 2753 
Q 2328 2753 2575 2939 
Q 2822 3125 2822 3475 
Q 2822 3834 2567 4026 
Q 2313 4219 1838 4219 
Q 1578 4219 1281 4162 
Q 984 4106 628 3988 
L 628 4550 
Q 988 4650 1302 4700 
Q 1616 4750 1894 4750 
Q 2613 4750 3031 4423 
Q 3450 4097 3450 3541 
Q 3450 3153 3228 2886 
Q 3006 2619 2597 2516 
z
" id="DejaVuSans-33" transform="scale(0.015625)"/>
        <path d="M 513 4856 
L 1013 4856 
Q 1481 4119 1714 3412 
Q 1947 2706 1947 2009 
Q 1947 1309 1714 600 
Q 1481 -109 1013 -844 
L 513 -844 
Q 928 -128 1133 580 
Q 1338 1288 1338 2009 
Q 1338 2731 1133 3434 
Q 928 4138 513 4856 
z
" id="DejaVuSans-29" transform="scale(0.015625)"/>
       </defs>
       <use xlink:href="#DejaVuSans-30"/>
       <use x="63.623047" xlink:href="#DejaVuSans-36"/>
       <use x="127.246094" xlink:href="#DejaVuSans-2e"/>
       <use x="159.033203" xlink:href="#DejaVuSans-30"/>
       <use x="222.65625" xlink:href="#DejaVuSans-36"/>
       <use x="286.279297" xlink:href="#DejaVuSans-20"/>
       <use x="318.066406" xlink:href="#DejaVuSans-28"/>
       <use x="357.080078" xlink:href="#DejaVuSans-32"/>
       <use x="420.703125" xlink:href="#DejaVuSans-33"/>
       <use x="484.326172" xlink:href="#DejaVuSans-29"/>
      </g>
     </g>
    </g>
    <g id="xtick_2">
     <g id="line2d_3">
      <path clip-path="url(#p604923260e)" d="M 160.44986 640.016153 
L 160.44986 29.024375 
" style="fill:none;stroke:#cccccc;stroke-linecap:round;"/>
     </g>
     <g id="line2d_4">
      <g>
       <use style="fill:#262626;stroke:#262626;stroke-width:1.25;" x="160.44986" xlink:href="#me06f377fa7" y="640.016153"/>
      </g>
     </g>
     <g id="text_2">
      <!-- 04.07 (27) -->
      <g style="fill:#262626;" transform="translate(118.125652 696.132941)rotate(-45)scale(0.11 -0.11)">
       <defs>
        <path d="M 2419 4116 
L 825 1625 
L 2419 1625 
L 2419 4116 
z
M 2253 4666 
L 3047 4666 
L 3047 1625 
L 3713 1625 
L 3713 1100 
L 3047 1100 
L 3047 0 
L 2419 0 
L 2419 1100 
L 313 1100 
L 313 1709 
L 2253 4666 
z
" id="DejaVuSans-34" transform="scale(0.015625)"/>
        <path d="M 525 4666 
L 3525 4666 
L 3525 4397 
L 1831 0 
L 1172 0 
L 2766 4134 
L 525 4134 
L 525 4666 
z
" id="DejaVuSans-37" transform="scale(0.015625)"/>
       </defs>
       <use xlink:href="#DejaVuSans-30"/>
       <use x="63.623047" xlink:href="#DejaVuSans-34"/>
       <use x="127.246094" xlink:href="#DejaVuSans-2e"/>
       <use x="159.033203" xlink:href="#DejaVuSans-30"/>
       <use x="222.65625" xlink:href="#DejaVuSans-37"/>
       <use x="286.279297" xlink:href="#DejaVuSans-20"/>
       <use x="318.066406" xlink:href="#DejaVuSans-28"/>
       <use x="357.080078" xlink:href="#DejaVuSans-32"/>
       <use x="420.703125" xlink:href="#DejaVuSans-37"/>
       <use x="484.326172" xlink:href="#DejaVuSans-29"/>
      </g>
     </g>
    </g>
    <g id="xtick_3">
     <g id="line2d_5">
      <path clip-path="url(#p604923260e)" d="M 220.235407 640.016153 
L 220.235407 29.024375 
" style="fill:none;stroke:#cccccc;stroke-linecap:round;"/>
     </g>
     <g id="line2d_6">
      <g>
       <use style="fill:#262626;stroke:#262626;stroke-width:1.25;" x="220.235407" xlink:href="#me06f377fa7" y="640.016153"/>
      </g>
     </g>
     <g id="text_3">
      <!-- 01.08 (31) -->
      <g style="fill:#262626;" transform="translate(177.911199 696.132941)rotate(-45)scale(0.11 -0.11)">
       <defs>
        <path d="M 794 531 
L 1825 531 
L 1825 4091 
L 703 3866 
L 703 4441 
L 1819 4666 
L 2450 4666 
L 2450 531 
L 3481 531 
L 3481 0 
L 794 0 
L 794 531 
z
" id="DejaVuSans-31" transform="scale(0.015625)"/>
        <path d="M 2034 2216 
Q 1584 2216 1326 1975 
Q 1069 1734 1069 1313 
Q 1069 891 1326 650 
Q 1584 409 2034 409 
Q 2484 409 2743 651 
Q 3003 894 3003 1313 
Q 3003 1734 2745 1975 
Q 2488 2216 2034 2216 
z
M 1403 2484 
Q 997 2584 770 2862 
Q 544 3141 544 3541 
Q 544 4100 942 4425 
Q 1341 4750 2034 4750 
Q 2731 4750 3128 4425 
Q 3525 4100 3525 3541 
Q 3525 3141 3298 2862 
Q 3072 2584 2669 2484 
Q 3125 2378 3379 2068 
Q 3634 1759 3634 1313 
Q 3634 634 3220 271 
Q 2806 -91 2034 -91 
Q 1263 -91 848 271 
Q 434 634 434 1313 
Q 434 1759 690 2068 
Q 947 2378 1403 2484 
z
M 1172 3481 
Q 1172 3119 1398 2916 
Q 1625 2713 2034 2713 
Q 2441 2713 2670 2916 
Q 2900 3119 2900 3481 
Q 2900 3844 2670 4047 
Q 2441 4250 2034 4250 
Q 1625 4250 1398 4047 
Q 1172 3844 1172 3481 
z
" id="DejaVuSans-38" transform="scale(0.015625)"/>
       </defs>
       <use xlink:href="#DejaVuSans-30"/>
       <use x="63.623047" xlink:href="#DejaVuSans-31"/>
       <use x="127.246094" xlink:href="#DejaVuSans-2e"/>
       <use x="159.033203" xlink:href="#DejaVuSans-30"/>
       <use x="222.65625" xlink:href="#DejaVuSans-38"/>
       <use x="286.279297" xlink:href="#DejaVuSans-20"/>
       <use x="318.066406" xlink:href="#DejaVuSans-28"/>
       <use x="357.080078" xlink:href="#DejaVuSans-33"/>
       <use x="420.703125" xlink:href="#DejaVuSans-31"/>
       <use x="484.326172" xlink:href="#DejaVuSans-29"/>
      </g>
     </g>
    </g>
    <g id="xtick_4">
     <g id="line2d_7">
      <path clip-path="url(#p604923260e)" d="M 280.020954 640.016153 
L 280.020954 29.024375 
" style="fill:none;stroke:#cccccc;stroke-linecap:round;"/>
     </g>
     <g id="line2d_8">
      <g>
       <use style="fill:#262626;stroke:#262626;stroke-width:1.25;" x="280.020954" xlink:href="#me06f377fa7" y="640.016153"/>
      </g>
     </g>
     <g id="text_4">
      <!-- 29.08 (35) -->
      <g style="fill:#262626;" transform="translate(237.696747 696.132941)rotate(-45)scale(0.11 -0.11)">
       <defs>
        <path d="M 703 97 
L 703 672 
Q 941 559 1184 500 
Q 1428 441 1663 441 
Q 2288 441 2617 861 
Q 2947 1281 2994 2138 
Q 2813 1869 2534 1725 
Q 2256 1581 1919 1581 
Q 1219 1581 811 2004 
Q 403 2428 403 3163 
Q 403 3881 828 4315 
Q 1253 4750 1959 4750 
Q 2769 4750 3195 4129 
Q 3622 3509 3622 2328 
Q 3622 1225 3098 567 
Q 2575 -91 1691 -91 
Q 1453 -91 1209 -44 
Q 966 3 703 97 
z
M 1959 2075 
Q 2384 2075 2632 2365 
Q 2881 2656 2881 3163 
Q 2881 3666 2632 3958 
Q 2384 4250 1959 4250 
Q 1534 4250 1286 3958 
Q 1038 3666 1038 3163 
Q 1038 2656 1286 2365 
Q 1534 2075 1959 2075 
z
" id="DejaVuSans-39" transform="scale(0.015625)"/>
        <path d="M 691 4666 
L 3169 4666 
L 3169 4134 
L 1269 4134 
L 1269 2991 
Q 1406 3038 1543 3061 
Q 1681 3084 1819 3084 
Q 2600 3084 3056 2656 
Q 3513 2228 3513 1497 
Q 3513 744 3044 326 
Q 2575 -91 1722 -91 
Q 1428 -91 1123 -41 
Q 819 9 494 109 
L 494 744 
Q 775 591 1075 516 
Q 1375 441 1709 441 
Q 2250 441 2565 725 
Q 2881 1009 2881 1497 
Q 2881 1984 2565 2268 
Q 2250 2553 1709 2553 
Q 1456 2553 1204 2497 
Q 953 2441 691 2322 
L 691 4666 
z
" id="DejaVuSans-35" transform="scale(0.015625)"/>
       </defs>
       <use xlink:href="#DejaVuSans-32"/>
       <use x="63.623047" xlink:href="#DejaVuSans-39"/>
       <use x="127.246094" xlink:href="#DejaVuSans-2e"/>
       <use x="159.033203" xlink:href="#DejaVuSans-30"/>
       <use x="222.65625" xlink:href="#DejaVuSans-38"/>
       <use x="286.279297" xlink:href="#DejaVuSans-20"/>
       <use x="318.066406" xlink:href="#DejaVuSans-28"/>
       <use x="357.080078" xlink:href="#DejaVuSans-33"/>
       <use x="420.703125" xlink:href="#DejaVuSans-35"/>
       <use x="484.326172" xlink:href="#DejaVuSans-29"/>
      </g>
     </g>
    </g>
    <g id="xtick_5">
     <g id="line2d_9">
      <path clip-path="url(#p604923260e)" d="M 339.806502 640.016153 
L 339.806502 29.024375 
" style="fill:none;stroke:#cccccc;stroke-linecap:round;"/>
     </g>
     <g id="line2d_10">
      <g>
       <use style="fill:#262626;stroke:#262626;stroke-width:1.25;" x="339.806502" xlink:href="#me06f377fa7" y="640.016153"/>
      </g>
     </g>
     <g id="text_5">
      <!-- 26.09 (39) -->
      <g style="fill:#262626;" transform="translate(297.482294 696.132941)rotate(-45)scale(0.11 -0.11)">
       <use xlink:href="#DejaVuSans-32"/>
       <use x="63.623047" xlink:href="#DejaVuSans-36"/>
       <use x="127.246094" xlink:href="#DejaVuSans-2e"/>
       <use x="159.033203" xlink:href="#DejaVuSans-30"/>
       <use x="222.65625" xlink:href="#DejaVuSans-39"/>
       <use x="286.279297" xlink:href="#DejaVuSans-20"/>
       <use x="318.066406" xlink:href="#DejaVuSans-28"/>
       <use x="357.080078" xlink:href="#DejaVuSans-33"/>
       <use x="420.703125" xlink:href="#DejaVuSans-39"/>
       <use x="484.326172" xlink:href="#DejaVuSans-29"/>
      </g>
     </g>
    </g>
    <g id="xtick_6">
     <g id="line2d_11">
      <path clip-path="url(#p604923260e)" d="M 399.592049 640.016153 
L 399.592049 29.024375 
" style="fill:none;stroke:#cccccc;stroke-linecap:round;"/>
     </g>
     <g id="line2d_12">
      <g>
       <use style="fill:#262626;stroke:#262626;stroke-width:1.25;" x="399.592049" xlink:href="#me06f377fa7" y="640.016153"/>
      </g>
     </g>
     <g id="text_6">
      <!-- 24.10 (43) -->
      <g style="fill:#262626;" transform="translate(357.267841 696.132941)rotate(-45)scale(0.11 -0.11)">
       <use xlink:href="#DejaVuSans-32"/>
       <use x="63.623047" xlink:href="#DejaVuSans-34"/>
       <use x="127.246094" xlink:href="#DejaVuSans-2e"/>
       <use x="159.033203" xlink:href="#DejaVuSans-31"/>
       <use x="222.65625" xlink:href="#DejaVuSans-30"/>
       <use x="286.279297" xlink:href="#DejaVuSans-20"/>
       <use x="318.066406" xlink:href="#DejaVuSans-28"/>
       <use x="357.080078" xlink:href="#DejaVuSans-34"/>
       <use x="420.703125" xlink:href="#DejaVuSans-33"/>
       <use x="484.326172" xlink:href="#DejaVuSans-29"/>
      </g>
     </g>
    </g>
    <g id="xtick_7">
     <g id="line2d_13">
      <path clip-path="url(#p604923260e)" d="M 459.377597 640.016153 
L 459.377597 29.024375 
" style="fill:none;stroke:#cccccc;stroke-linecap:round;"/>
     </g>
     <g id="line2d_14">
      <g>
       <use style="fill:#262626;stroke:#262626;stroke-width:1.25;" x="459.377597" xlink:href="#me06f377fa7" y="640.016153"/>
      </g>
     </g>
     <g id="text_7">
      <!-- 21.11 (47) -->
      <g style="fill:#262626;" transform="translate(417.053389 696.132941)rotate(-45)scale(0.11 -0.11)">
       <use xlink:href="#DejaVuSans-32"/>
       <use x="63.623047" xlink:href="#DejaVuSans-31"/>
       <use x="127.246094" xlink:href="#DejaVuSans-2e"/>
       <use x="159.033203" xlink:href="#DejaVuSans-31"/>
       <use x="222.65625" xlink:href="#DejaVuSans-31"/>
       <use x="286.279297" xlink:href="#DejaVuSans-20"/>
       <use x="318.066406" xlink:href="#DejaVuSans-28"/>
       <use x="357.080078" xlink:href="#DejaVuSans-34"/>
       <use x="420.703125" xlink:href="#DejaVuSans-37"/>
       <use x="484.326172" xlink:href="#DejaVuSans-29"/>
      </g>
     </g>
    </g>
    <g id="xtick_8">
     <g id="line2d_15">
      <path clip-path="url(#p604923260e)" d="M 519.163144 640.016153 
L 519.163144 29.024375 
" style="fill:none;stroke:#cccccc;stroke-linecap:round;"/>
     </g>
     <g id="line2d_16">
      <g>
       <use style="fill:#262626;stroke:#262626;stroke-width:1.25;" x="519.163144" xlink:href="#me06f377fa7" y="640.016153"/>
      </g>
     </g>
     <g id="text_8">
      <!-- 19.12 (51) -->
      <g style="fill:#262626;" transform="translate(476.838936 696.132941)rotate(-45)scale(0.11 -0.11)">
       <use xlink:href="#DejaVuSans-31"/>
       <use x="63.623047" xlink:href="#DejaVuSans-39"/>
       <use x="127.246094" xlink:href="#DejaVuSans-2e"/>
       <use x="159.033203" xlink:href="#DejaVuSans-31"/>
       <use x="222.65625" xlink:href="#DejaVuSans-32"/>
       <use x="286.279297" xlink:href="#DejaVuSans-20"/>
       <use x="318.066406" xlink:href="#DejaVuSans-28"/>
       <use x="357.080078" xlink:href="#DejaVuSans-35"/>
       <use x="420.703125" xlink:href="#DejaVuSans-31"/>
       <use x="484.326172" xlink:href="#DejaVuSans-29"/>
      </g>
     </g>
    </g>
    <g id="xtick_9">
     <g id="line2d_17">
      <path clip-path="url(#p604923260e)" d="M 578.948692 640.016153 
L 578.948692 29.024375 
" style="fill:none;stroke:#cccccc;stroke-linecap:round;"/>
     </g>
     <g id="line2d_18">
      <g>
       <use style="fill:#262626;stroke:#262626;stroke-width:1.25;" x="578.948692" xlink:href="#me06f377fa7" y="640.016153"/>
      </g>
     </g>
     <g id="text_9">
      <!-- 16.01 (02) -->
      <g style="fill:#262626;" transform="translate(536.624484 696.132941)rotate(-45)scale(0.11 -0.11)">
       <use xlink:href="#DejaVuSans-31"/>
       <use x="63.623047" xlink:href="#DejaVuSans-36"/>
       <use x="127.246094" xlink:href="#DejaVuSans-2e"/>
       <use x="159.033203" xlink:href="#DejaVuSans-30"/>
       <use x="222.65625" xlink:href="#DejaVuSans-31"/>
       <use x="286.279297" xlink:href="#DejaVuSans-20"/>
       <use x="318.066406" xlink:href="#DejaVuSans-28"/>
       <use x="357.080078" xlink:href="#DejaVuSans-30"/>
       <use x="420.703125" xlink:href="#DejaVuSans-32"/>
       <use x="484.326172" xlink:href="#DejaVuSans-29"/>
      </g>
     </g>
    </g>
    <g id="xtick_10">
     <g id="line2d_19">
      <path clip-path="url(#p604923260e)" d="M 638.734239 640.016153 
L 638.734239 29.024375 
" style="fill:none;stroke:#cccccc;stroke-linecap:round;"/>
     </g>
     <g id="line2d_20">
      <g>
       <use style="fill:#262626;stroke:#262626;stroke-width:1.25;" x="638.734239" xlink:href="#me06f377fa7" y="640.016153"/>
      </g>
     </g>
     <g id="text_10">
      <!-- 13.02 (06) -->
      <g style="fill:#262626;" transform="translate(596.410031 696.132941)rotate(-45)scale(0.11 -0.11)">
       <use xlink:href="#DejaVuSans-31"/>
       <use x="63.623047" xlink:href="#DejaVuSans-33"/>
       <use x="127.246094" xlink:href="#DejaVuSans-2e"/>
       <use x="159.033203" xlink:href="#DejaVuSans-30"/>
       <use x="222.65625" xlink:href="#DejaVuSans-32"/>
       <use x="286.279297" xlink:href="#DejaVuSans-20"/>
       <use x="318.066406" xlink:href="#DejaVuSans-28"/>
       <use x="357.080078" xlink:href="#DejaVuSans-30"/>
       <use x="420.703125" xlink:href="#DejaVuSans-36"/>
       <use x="484.326172" xlink:href="#DejaVuSans-29"/>
      </g>
     </g>
    </g>
    <g id="xtick_11">
     <g id="line2d_21">
      <path clip-path="url(#p604923260e)" d="M 698.519787 640.016153 
L 698.519787 29.024375 
" style="fill:none;stroke:#cccccc;stroke-linecap:round;"/>
     </g>
     <g id="line2d_22">
      <g>
       <use style="fill:#262626;stroke:#262626;stroke-width:1.25;" x="698.519787" xlink:href="#me06f377fa7" y="640.016153"/>
      </g>
     </g>
     <g id="text_11">
      <!-- 13.03 (10) -->
      <g style="fill:#262626;" transform="translate(656.195579 696.132941)rotate(-45)scale(0.11 -0.11)">
       <use xlink:href="#DejaVuSans-31"/>
       <use x="63.623047" xlink:href="#DejaVuSans-33"/>
       <use x="127.246094" xlink:href="#DejaVuSans-2e"/>
       <use x="159.033203" xlink:href="#DejaVuSans-30"/>
       <use x="222.65625" xlink:href="#DejaVuSans-33"/>
       <use x="286.279297" xlink:href="#DejaVuSans-20"/>
       <use x="318.066406" xlink:href="#DejaVuSans-28"/>
       <use x="357.080078" xlink:href="#DejaVuSans-31"/>
       <use x="420.703125" xlink:href="#DejaVuSans-30"/>
       <use x="484.326172" xlink:href="#DejaVuSans-29"/>
      </g>
     </g>
    </g>
    <g id="xtick_12">
     <g id="line2d_23">
      <path clip-path="url(#p604923260e)" d="M 758.305334 640.016153 
L 758.305334 29.024375 
" style="fill:none;stroke:#cccccc;stroke-linecap:round;"/>
     </g>
     <g id="line2d_24">
      <g>
       <use style="fill:#262626;stroke:#262626;stroke-width:1.25;" x="758.305334" xlink:href="#me06f377fa7" y="640.016153"/>
      </g>
     </g>
     <g id="text_12">
      <!-- 10.04 (14) -->
      <g style="fill:#262626;" transform="translate(715.981126 696.132941)rotate(-45)scale(0.11 -0.11)">
       <use xlink:href="#DejaVuSans-31"/>
       <use x="63.623047" xlink:href="#DejaVuSans-30"/>
       <use x="127.246094" xlink:href="#DejaVuSans-2e"/>
       <use x="159.033203" xlink:href="#DejaVuSans-30"/>
       <use x="222.65625" xlink:href="#DejaVuSans-34"/>
       <use x="286.279297" xlink:href="#DejaVuSans-20"/>
       <use x="318.066406" xlink:href="#DejaVuSans-28"/>
       <use x="357.080078" xlink:href="#DejaVuSans-31"/>
       <use x="420.703125" xlink:href="#DejaVuSans-34"/>
       <use x="484.326172" xlink:href="#DejaVuSans-29"/>
      </g>
     </g>
    </g>
    <g id="xtick_13">
     <g id="line2d_25">
      <path clip-path="url(#p604923260e)" d="M 818.090881 640.016153 
L 818.090881 29.024375 
" style="fill:none;stroke:#cccccc;stroke-linecap:round;"/>
     </g>
     <g id="line2d_26">
      <g>
       <use style="fill:#262626;stroke:#262626;stroke-width:1.25;" x="818.090881" xlink:href="#me06f377fa7" y="640.016153"/>
      </g>
     </g>
     <g id="text_13">
      <!-- 08.05 (18) -->
      <g style="fill:#262626;" transform="translate(775.766674 696.132941)rotate(-45)scale(0.11 -0.11)">
       <use xlink:href="#DejaVuSans-30"/>
       <use x="63.623047" xlink:href="#DejaVuSans-38"/>
       <use x="127.246094" xlink:href="#DejaVuSans-2e"/>
       <use x="159.033203" xlink:href="#DejaVuSans-30"/>
       <use x="222.65625" xlink:href="#DejaVuSans-35"/>
       <use x="286.279297" xlink:href="#DejaVuSans-20"/>
       <use x="318.066406" xlink:href="#DejaVuSans-28"/>
       <use x="357.080078" xlink:href="#DejaVuSans-31"/>
       <use x="420.703125" xlink:href="#DejaVuSans-38"/>
       <use x="484.326172" xlink:href="#DejaVuSans-29"/>
      </g>
     </g>
    </g>
    <g id="xtick_14">
     <g id="line2d_27">
      <path clip-path="url(#p604923260e)" d="M 877.876429 640.016153 
L 877.876429 29.024375 
" style="fill:none;stroke:#cccccc;stroke-linecap:round;"/>
     </g>
     <g id="line2d_28">
      <g>
       <use style="fill:#262626;stroke:#262626;stroke-width:1.25;" x="877.876429" xlink:href="#me06f377fa7" y="640.016153"/>
      </g>
     </g>
     <g id="text_14">
      <!-- 05.06 (22) -->
      <g style="fill:#262626;" transform="translate(835.552221 696.132941)rotate(-45)scale(0.11 -0.11)">
       <use xlink:href="#DejaVuSans-30"/>
       <use x="63.623047" xlink:href="#DejaVuSans-35"/>
       <use x="127.246094" xlink:href="#DejaVuSans-2e"/>
       <use x="159.033203" xlink:href="#DejaVuSans-30"/>
       <use x="222.65625" xlink:href="#DejaVuSans-36"/>
       <use x="286.279297" xlink:href="#DejaVuSans-20"/>
       <use x="318.066406" xlink:href="#DejaVuSans-28"/>
       <use x="357.080078" xlink:href="#DejaVuSans-32"/>
       <use x="420.703125" xlink:href="#DejaVuSans-32"/>
       <use x="484.326172" xlink:href="#DejaVuSans-29"/>
      </g>
     </g>
    </g>
    <g id="xtick_15">
     <g id="line2d_29">
      <path clip-path="url(#p604923260e)" d="M 937.661976 640.016153 
L 937.661976 29.024375 
" style="fill:none;stroke:#cccccc;stroke-linecap:round;"/>
     </g>
     <g id="line2d_30">
      <g>
       <use style="fill:#262626;stroke:#262626;stroke-width:1.25;" x="937.661976" xlink:href="#me06f377fa7" y="640.016153"/>
      </g>
     </g>
     <g id="text_15">
      <!-- 03.07 (26) -->
      <g style="fill:#262626;" transform="translate(895.337769 696.132941)rotate(-45)scale(0.11 -0.11)">
       <use xlink:href="#DejaVuSans-30"/>
       <use x="63.623047" xlink:href="#DejaVuSans-33"/>
       <use x="127.246094" xlink:href="#DejaVuSans-2e"/>
       <use x="159.033203" xlink:href="#DejaVuSans-30"/>
       <use x="222.65625" xlink:href="#DejaVuSans-37"/>
       <use x="286.279297" xlink:href="#DejaVuSans-20"/>
       <use x="318.066406" xlink:href="#DejaVuSans-28"/>
       <use x="357.080078" xlink:href="#DejaVuSans-32"/>
       <use x="420.703125" xlink:href="#DejaVuSans-36"/>
       <use x="484.326172" xlink:href="#DejaVuSans-29"/>
      </g>
     </g>
    </g>
    <g id="xtick_16">
     <g id="line2d_31">
      <path clip-path="url(#p604923260e)" d="M 997.447524 640.016153 
L 997.447524 29.024375 
" style="fill:none;stroke:#cccccc;stroke-linecap:round;"/>
     </g>
     <g id="line2d_32">
      <g>
       <use style="fill:#262626;stroke:#262626;stroke-width:1.25;" x="997.447524" xlink:href="#me06f377fa7" y="640.016153"/>
      </g>
     </g>
     <g id="text_16">
      <!-- 31.07 (30) -->
      <g style="fill:#262626;" transform="translate(955.123316 696.132941)rotate(-45)scale(0.11 -0.11)">
       <use xlink:href="#DejaVuSans-33"/>
       <use x="63.623047" xlink:href="#DejaVuSans-31"/>
       <use x="127.246094" xlink:href="#DejaVuSans-2e"/>
       <use x="159.033203" xlink:href="#DejaVuSans-30"/>
       <use x="222.65625" xlink:href="#DejaVuSans-37"/>
       <use x="286.279297" xlink:href="#DejaVuSans-20"/>
       <use x="318.066406" xlink:href="#DejaVuSans-28"/>
       <use x="357.080078" xlink:href="#DejaVuSans-33"/>
       <use x="420.703125" xlink:href="#DejaVuSans-30"/>
       <use x="484.326172" xlink:href="#DejaVuSans-29"/>
      </g>
     </g>
    </g>
    <g id="xtick_17">
     <g id="line2d_33">
      <path clip-path="url(#p604923260e)" d="M 1057.233071 640.016153 
L 1057.233071 29.024375 
" style="fill:none;stroke:#cccccc;stroke-linecap:round;"/>
     </g>
     <g id="line2d_34">
      <g>
       <use style="fill:#262626;stroke:#262626;stroke-width:1.25;" x="1057.233071" xlink:href="#me06f377fa7" y="640.016153"/>
      </g>
     </g>
     <g id="text_17">
      <!-- 28.08 (34) -->
      <g style="fill:#262626;" transform="translate(1014.908863 696.132941)rotate(-45)scale(0.11 -0.11)">
       <use xlink:href="#DejaVuSans-32"/>
       <use x="63.623047" xlink:href="#DejaVuSans-38"/>
       <use x="127.246094" xlink:href="#DejaVuSans-2e"/>
       <use x="159.033203" xlink:href="#DejaVuSans-30"/>
       <use x="222.65625" xlink:href="#DejaVuSans-38"/>
       <use x="286.279297" xlink:href="#DejaVuSans-20"/>
       <use x="318.066406" xlink:href="#DejaVuSans-28"/>
       <use x="357.080078" xlink:href="#DejaVuSans-33"/>
       <use x="420.703125" xlink:href="#DejaVuSans-34"/>
       <use x="484.326172" xlink:href="#DejaVuSans-29"/>
      </g>
     </g>
    </g>
    <g id="xtick_18">
     <g id="line2d_35">
      <path clip-path="url(#p604923260e)" d="M 1117.018619 640.016153 
L 1117.018619 29.024375 
" style="fill:none;stroke:#cccccc;stroke-linecap:round;"/>
     </g>
     <g id="line2d_36">
      <g>
       <use style="fill:#262626;stroke:#262626;stroke-width:1.25;" x="1117.018619" xlink:href="#me06f377fa7" y="640.016153"/>
      </g>
     </g>
     <g id="text_18">
      <!-- 25.09 (38) -->
      <g style="fill:#262626;" transform="translate(1074.694411 696.132941)rotate(-45)scale(0.11 -0.11)">
       <use xlink:href="#DejaVuSans-32"/>
       <use x="63.623047" xlink:href="#DejaVuSans-35"/>
       <use x="127.246094" xlink:href="#DejaVuSans-2e"/>
       <use x="159.033203" xlink:href="#DejaVuSans-30"/>
       <use x="222.65625" xlink:href="#DejaVuSans-39"/>
       <use x="286.279297" xlink:href="#DejaVuSans-20"/>
       <use x="318.066406" xlink:href="#DejaVuSans-28"/>
       <use x="357.080078" xlink:href="#DejaVuSans-33"/>
       <use x="420.703125" xlink:href="#DejaVuSans-38"/>
       <use x="484.326172" xlink:href="#DejaVuSans-29"/>
      </g>
     </g>
    </g>
    <g id="xtick_19">
     <g id="line2d_37">
      <path clip-path="url(#p604923260e)" d="M 1176.804166 640.016153 
L 1176.804166 29.024375 
" style="fill:none;stroke:#cccccc;stroke-linecap:round;"/>
     </g>
     <g id="line2d_38">
      <g>
       <use style="fill:#262626;stroke:#262626;stroke-width:1.25;" x="1176.804166" xlink:href="#me06f377fa7" y="640.016153"/>
      </g>
     </g>
     <g id="text_19">
      <!-- 23.10 (42) -->
      <g style="fill:#262626;" transform="translate(1134.479958 696.132941)rotate(-45)scale(0.11 -0.11)">
       <use xlink:href="#DejaVuSans-32"/>
       <use x="63.623047" xlink:href="#DejaVuSans-33"/>
       <use x="127.246094" xlink:href="#DejaVuSans-2e"/>
       <use x="159.033203" xlink:href="#DejaVuSans-31"/>
       <use x="222.65625" xlink:href="#DejaVuSans-30"/>
       <use x="286.279297" xlink:href="#DejaVuSans-20"/>
       <use x="318.066406" xlink:href="#DejaVuSans-28"/>
       <use x="357.080078" xlink:href="#DejaVuSans-34"/>
       <use x="420.703125" xlink:href="#DejaVuSans-32"/>
       <use x="484.326172" xlink:href="#DejaVuSans-29"/>
      </g>
     </g>
    </g>
    <g id="xtick_20">
     <g id="line2d_39">
      <defs>
       <path d="M 0 0 
L 0 4 
" id="mc74da7b27d" style="stroke:#262626;"/>
      </defs>
      <g>
       <use style="fill:#262626;stroke:#262626;" x="55.825151" xlink:href="#mc74da7b27d" y="640.016153"/>
      </g>
     </g>
    </g>
    <g id="xtick_21">
     <g id="line2d_40">
      <g>
       <use style="fill:#262626;stroke:#262626;" x="70.771538" xlink:href="#mc74da7b27d" y="640.016153"/>
      </g>
     </g>
    </g>
    <g id="xtick_22">
     <g id="line2d_41">
      <g>
       <use style="fill:#262626;stroke:#262626;" x="85.717925" xlink:href="#mc74da7b27d" y="640.016153"/>
      </g>
     </g>
    </g>
    <g id="xtick_23">
     <g id="line2d_42">
      <g>
       <use style="fill:#262626;stroke:#262626;" x="115.610699" xlink:href="#mc74da7b27d" y="640.016153"/>
      </g>
     </g>
    </g>
    <g id="xtick_24">
     <g id="line2d_43">
      <g>
       <use style="fill:#262626;stroke:#262626;" x="130.557086" xlink:href="#mc74da7b27d" y="640.016153"/>
      </g>
     </g>
    </g>
    <g id="xtick_25">
     <g id="line2d_44">
      <g>
       <use style="fill:#262626;stroke:#262626;" x="145.503473" xlink:href="#mc74da7b27d" y="640.016153"/>
      </g>
     </g>
    </g>
    <g id="xtick_26">
     <g id="line2d_45">
      <g>
       <use style="fill:#262626;stroke:#262626;" x="175.396246" xlink:href="#mc74da7b27d" y="640.016153"/>
      </g>
     </g>
    </g>
    <g id="xtick_27">
     <g id="line2d_46">
      <g>
       <use style="fill:#262626;stroke:#262626;" x="190.342633" xlink:href="#mc74da7b27d" y="640.016153"/>
      </g>
     </g>
    </g>
    <g id="xtick_28">
     <g id="line2d_47">
      <g>
       <use style="fill:#262626;stroke:#262626;" x="205.28902" xlink:href="#mc74da7b27d" y="640.016153"/>
      </g>
     </g>
    </g>
    <g id="xtick_29">
     <g id="line2d_48">
      <g>
       <use style="fill:#262626;stroke:#262626;" x="235.181794" xlink:href="#mc74da7b27d" y="640.016153"/>
      </g>
     </g>
    </g>
    <g id="xtick_30">
     <g id="line2d_49">
      <g>
       <use style="fill:#262626;stroke:#262626;" x="250.128181" xlink:href="#mc74da7b27d" y="640.016153"/>
      </g>
     </g>
    </g>
    <g id="xtick_31">
     <g id="line2d_50">
      <g>
       <use style="fill:#262626;stroke:#262626;" x="265.074568" xlink:href="#mc74da7b27d" y="640.016153"/>
      </g>
     </g>
    </g>
    <g id="xtick_32">
     <g id="line2d_51">
      <g>
       <use style="fill:#262626;stroke:#262626;" x="294.967341" xlink:href="#mc74da7b27d" y="640.016153"/>
      </g>
     </g>
    </g>
    <g id="xtick_33">
     <g id="line2d_52">
      <g>
       <use style="fill:#262626;stroke:#262626;" x="309.913728" xlink:href="#mc74da7b27d" y="640.016153"/>
      </g>
     </g>
    </g>
    <g id="xtick_34">
     <g id="line2d_53">
      <g>
       <use style="fill:#262626;stroke:#262626;" x="324.860115" xlink:href="#mc74da7b27d" y="640.016153"/>
      </g>
     </g>
    </g>
    <g id="xtick_35">
     <g id="line2d_54">
      <g>
       <use style="fill:#262626;stroke:#262626;" x="354.752889" xlink:href="#mc74da7b27d" y="640.016153"/>
      </g>
     </g>
    </g>
    <g id="xtick_36">
     <g id="line2d_55">
      <g>
       <use style="fill:#262626;stroke:#262626;" x="369.699276" xlink:href="#mc74da7b27d" y="640.016153"/>
      </g>
     </g>
    </g>
    <g id="xtick_37">
     <g id="line2d_56">
      <g>
       <use style="fill:#262626;stroke:#262626;" x="384.645662" xlink:href="#mc74da7b27d" y="640.016153"/>
      </g>
     </g>
    </g>
    <g id="xtick_38">
     <g id="line2d_57">
      <g>
       <use style="fill:#262626;stroke:#262626;" x="414.538436" xlink:href="#mc74da7b27d" y="640.016153"/>
      </g>
     </g>
    </g>
    <g id="xtick_39">
     <g id="line2d_58">
      <g>
       <use style="fill:#262626;stroke:#262626;" x="429.484823" xlink:href="#mc74da7b27d" y="640.016153"/>
      </g>
     </g>
    </g>
    <g id="xtick_40">
     <g id="line2d_59">
      <g>
       <use style="fill:#262626;stroke:#262626;" x="444.43121" xlink:href="#mc74da7b27d" y="640.016153"/>
      </g>
     </g>
    </g>
    <g id="xtick_41">
     <g id="line2d_60">
      <g>
       <use style="fill:#262626;stroke:#262626;" x="474.323984" xlink:href="#mc74da7b27d" y="640.016153"/>
      </g>
     </g>
    </g>
    <g id="xtick_42">
     <g id="line2d_61">
      <g>
       <use style="fill:#262626;stroke:#262626;" x="489.27037" xlink:href="#mc74da7b27d" y="640.016153"/>
      </g>
     </g>
    </g>
    <g id="xtick_43">
     <g id="line2d_62">
      <g>
       <use style="fill:#262626;stroke:#262626;" x="504.216757" xlink:href="#mc74da7b27d" y="640.016153"/>
      </g>
     </g>
    </g>
    <g id="xtick_44">
     <g id="line2d_63">
      <g>
       <use style="fill:#262626;stroke:#262626;" x="534.109531" xlink:href="#mc74da7b27d" y="640.016153"/>
      </g>
     </g>
    </g>
    <g id="xtick_45">
     <g id="line2d_64">
      <g>
       <use style="fill:#262626;stroke:#262626;" x="549.055918" xlink:href="#mc74da7b27d" y="640.016153"/>
      </g>
     </g>
    </g>
    <g id="xtick_46">
     <g id="line2d_65">
      <g>
       <use style="fill:#262626;stroke:#262626;" x="564.002305" xlink:href="#mc74da7b27d" y="640.016153"/>
      </g>
     </g>
    </g>
    <g id="xtick_47">
     <g id="line2d_66">
      <g>
       <use style="fill:#262626;stroke:#262626;" x="593.895079" xlink:href="#mc74da7b27d" y="640.016153"/>
      </g>
     </g>
    </g>
    <g id="xtick_48">
     <g id="line2d_67">
      <g>
       <use style="fill:#262626;stroke:#262626;" x="608.841465" xlink:href="#mc74da7b27d" y="640.016153"/>
      </g>
     </g>
    </g>
    <g id="xtick_49">
     <g id="line2d_68">
      <g>
       <use style="fill:#262626;stroke:#262626;" x="623.787852" xlink:href="#mc74da7b27d" y="640.016153"/>
      </g>
     </g>
    </g>
    <g id="xtick_50">
     <g id="line2d_69">
      <g>
       <use style="fill:#262626;stroke:#262626;" x="653.680626" xlink:href="#mc74da7b27d" y="640.016153"/>
      </g>
     </g>
    </g>
    <g id="xtick_51">
     <g id="line2d_70">
      <g>
       <use style="fill:#262626;stroke:#262626;" x="668.627013" xlink:href="#mc74da7b27d" y="640.016153"/>
      </g>
     </g>
    </g>
    <g id="xtick_52">
     <g id="line2d_71">
      <g>
       <use style="fill:#262626;stroke:#262626;" x="683.5734" xlink:href="#mc74da7b27d" y="640.016153"/>
      </g>
     </g>
    </g>
    <g id="xtick_53">
     <g id="line2d_72">
      <g>
       <use style="fill:#262626;stroke:#262626;" x="713.466173" xlink:href="#mc74da7b27d" y="640.016153"/>
      </g>
     </g>
    </g>
    <g id="xtick_54">
     <g id="line2d_73">
      <g>
       <use style="fill:#262626;stroke:#262626;" x="728.41256" xlink:href="#mc74da7b27d" y="640.016153"/>
      </g>
     </g>
    </g>
    <g id="xtick_55">
     <g id="line2d_74">
      <g>
       <use style="fill:#262626;stroke:#262626;" x="743.358947" xlink:href="#mc74da7b27d" y="640.016153"/>
      </g>
     </g>
    </g>
    <g id="xtick_56">
     <g id="line2d_75">
      <g>
       <use style="fill:#262626;stroke:#262626;" x="773.251721" xlink:href="#mc74da7b27d" y="640.016153"/>
      </g>
     </g>
    </g>
    <g id="xtick_57">
     <g id="line2d_76">
      <g>
       <use style="fill:#262626;stroke:#262626;" x="788.198108" xlink:href="#mc74da7b27d" y="640.016153"/>
      </g>
     </g>
    </g>
    <g id="xtick_58">
     <g id="line2d_77">
      <g>
       <use style="fill:#262626;stroke:#262626;" x="803.144495" xlink:href="#mc74da7b27d" y="640.016153"/>
      </g>
     </g>
    </g>
    <g id="xtick_59">
     <g id="line2d_78">
      <g>
       <use style="fill:#262626;stroke:#262626;" x="833.037268" xlink:href="#mc74da7b27d" y="640.016153"/>
      </g>
     </g>
    </g>
    <g id="xtick_60">
     <g id="line2d_79">
      <g>
       <use style="fill:#262626;stroke:#262626;" x="847.983655" xlink:href="#mc74da7b27d" y="640.016153"/>
      </g>
     </g>
    </g>
    <g id="xtick_61">
     <g id="line2d_80">
      <g>
       <use style="fill:#262626;stroke:#262626;" x="862.930042" xlink:href="#mc74da7b27d" y="640.016153"/>
      </g>
     </g>
    </g>
    <g id="xtick_62">
     <g id="line2d_81">
      <g>
       <use style="fill:#262626;stroke:#262626;" x="892.822816" xlink:href="#mc74da7b27d" y="640.016153"/>
      </g>
     </g>
    </g>
    <g id="xtick_63">
     <g id="line2d_82">
      <g>
       <use style="fill:#262626;stroke:#262626;" x="907.769203" xlink:href="#mc74da7b27d" y="640.016153"/>
      </g>
     </g>
    </g>
    <g id="xtick_64">
     <g id="line2d_83">
      <g>
       <use style="fill:#262626;stroke:#262626;" x="922.71559" xlink:href="#mc74da7b27d" y="640.016153"/>
      </g>
     </g>
    </g>
    <g id="xtick_65">
     <g id="line2d_84">
      <g>
       <use style="fill:#262626;stroke:#262626;" x="952.608363" xlink:href="#mc74da7b27d" y="640.016153"/>
      </g>
     </g>
    </g>
    <g id="xtick_66">
     <g id="line2d_85">
      <g>
       <use style="fill:#262626;stroke:#262626;" x="967.55475" xlink:href="#mc74da7b27d" y="640.016153"/>
      </g>
     </g>
    </g>
    <g id="xtick_67">
     <g id="line2d_86">
      <g>
       <use style="fill:#262626;stroke:#262626;" x="982.501137" xlink:href="#mc74da7b27d" y="640.016153"/>
      </g>
     </g>
    </g>
    <g id="xtick_68">
     <g id="line2d_87">
      <g>
       <use style="fill:#262626;stroke:#262626;" x="1012.393911" xlink:href="#mc74da7b27d" y="640.016153"/>
      </g>
     </g>
    </g>
    <g id="xtick_69">
     <g id="line2d_88">
      <g>
       <use style="fill:#262626;stroke:#262626;" x="1027.340298" xlink:href="#mc74da7b27d" y="640.016153"/>
      </g>
     </g>
    </g>
    <g id="xtick_70">
     <g id="line2d_89">
      <g>
       <use style="fill:#262626;stroke:#262626;" x="1042.286684" xlink:href="#mc74da7b27d" y="640.016153"/>
      </g>
     </g>
    </g>
    <g id="xtick_71">
     <g id="line2d_90">
      <g>
       <use style="fill:#262626;stroke:#262626;" x="1072.179458" xlink:href="#mc74da7b27d" y="640.016153"/>
      </g>
     </g>
    </g>
    <g id="xtick_72">
     <g id="line2d_91">
      <g>
       <use style="fill:#262626;stroke:#262626;" x="1087.125845" xlink:href="#mc74da7b27d" y="640.016153"/>
      </g>
     </g>
    </g>
    <g id="xtick_73">
     <g id="line2d_92">
      <g>
       <use style="fill:#262626;stroke:#262626;" x="1102.072232" xlink:href="#mc74da7b27d" y="640.016153"/>
      </g>
     </g>
    </g>
    <g id="xtick_74">
     <g id="line2d_93">
      <g>
       <use style="fill:#262626;stroke:#262626;" x="1131.965006" xlink:href="#mc74da7b27d" y="640.016153"/>
      </g>
     </g>
    </g>
    <g id="xtick_75">
     <g id="line2d_94">
      <g>
       <use style="fill:#262626;stroke:#262626;" x="1146.911392" xlink:href="#mc74da7b27d" y="640.016153"/>
      </g>
     </g>
    </g>
    <g id="xtick_76">
     <g id="line2d_95">
      <g>
       <use style="fill:#262626;stroke:#262626;" x="1161.857779" xlink:href="#mc74da7b27d" y="640.016153"/>
      </g>
     </g>
    </g>
    <g id="xtick_77">
     <g id="line2d_96">
      <g>
       <use style="fill:#262626;stroke:#262626;" x="1191.750553" xlink:href="#mc74da7b27d" y="640.016153"/>
      </g>
     </g>
    </g>
    <g id="xtick_78">
     <g id="line2d_97">
      <g>
       <use style="fill:#262626;stroke:#262626;" x="1206.69694" xlink:href="#mc74da7b27d" y="640.016153"/>
      </g>
     </g>
    </g>
    <g id="xtick_79">
     <g id="line2d_98">
      <g>
       <use style="fill:#262626;stroke:#262626;" x="1221.643327" xlink:href="#mc74da7b27d" y="640.016153"/>
      </g>
     </g>
    </g>
    <g id="xtick_80">
     <g id="line2d_99">
      <g>
       <use style="fill:#262626;stroke:#262626;" x="1236.589714" xlink:href="#mc74da7b27d" y="640.016153"/>
      </g>
     </g>
    </g>
    <g id="text_20">
     <!-- Седмица -->
     <g style="fill:#262626;" transform="translate(617.991495 710.868683)scale(0.12 -0.12)">
      <defs>
       <path d="M 4122 4306 
L 4122 3641 
Q 3803 3938 3442 4084 
Q 3081 4231 2675 4231 
Q 1875 4231 1450 3742 
Q 1025 3253 1025 2328 
Q 1025 1406 1450 917 
Q 1875 428 2675 428 
Q 3081 428 3442 575 
Q 3803 722 4122 1019 
L 4122 359 
Q 3791 134 3420 21 
Q 3050 -91 2638 -91 
Q 1578 -91 968 557 
Q 359 1206 359 2328 
Q 359 3453 968 4101 
Q 1578 4750 2638 4750 
Q 3056 4750 3426 4639 
Q 3797 4528 4122 4306 
z
" id="DejaVuSans-421" transform="scale(0.015625)"/>
       <path d="M 3597 1894 
L 3597 1613 
L 953 1613 
Q 991 1019 1311 708 
Q 1631 397 2203 397 
Q 2534 397 2845 478 
Q 3156 559 3463 722 
L 3463 178 
Q 3153 47 2828 -22 
Q 2503 -91 2169 -91 
Q 1331 -91 842 396 
Q 353 884 353 1716 
Q 353 2575 817 3079 
Q 1281 3584 2069 3584 
Q 2775 3584 3186 3129 
Q 3597 2675 3597 1894 
z
M 3022 2063 
Q 3016 2534 2758 2815 
Q 2500 3097 2075 3097 
Q 1594 3097 1305 2825 
Q 1016 2553 972 2059 
L 3022 2063 
z
" id="DejaVuSans-435" transform="scale(0.015625)"/>
       <path d="M 1384 459 
L 3053 459 
L 3053 3041 
L 1844 3041 
L 1844 2603 
Q 1844 1316 1475 628 
L 1384 459 
z
M 550 459 
Q 834 584 959 850 
Q 1266 1509 1266 2838 
L 1266 3500 
L 3631 3500 
L 3631 459 
L 4091 459 
L 4091 -884 
L 3631 -884 
L 3631 0 
L 794 0 
L 794 -884 
L 334 -884 
L 334 459 
L 550 459 
z
" id="DejaVuSans-434" transform="scale(0.015625)"/>
       <path d="M 581 3500 
L 1422 3500 
L 2416 1156 
L 3413 3500 
L 4247 3500 
L 4247 0 
L 3669 0 
L 3669 2950 
L 2703 672 
L 2128 672 
L 1159 2950 
L 1159 0 
L 581 0 
L 581 3500 
z
" id="DejaVuSans-43c" transform="scale(0.015625)"/>
       <path d="M 3578 3500 
L 3578 0 
L 3006 0 
L 3006 2809 
L 1319 0 
L 581 0 
L 581 3500 
L 1153 3500 
L 1153 697 
L 2838 3500 
L 3578 3500 
z
" id="DejaVuSans-438" transform="scale(0.015625)"/>
       <path d="M 3603 0 
L 581 0 
L 581 3500 
L 1159 3500 
L 1159 459 
L 3025 459 
L 3025 3500 
L 3603 3500 
L 3603 459 
L 4063 459 
L 4063 -884 
L 3603 -884 
L 3603 0 
z
" id="DejaVuSans-446" transform="scale(0.015625)"/>
       <path d="M 2194 1759 
Q 1497 1759 1228 1600 
Q 959 1441 959 1056 
Q 959 750 1161 570 
Q 1363 391 1709 391 
Q 2188 391 2477 730 
Q 2766 1069 2766 1631 
L 2766 1759 
L 2194 1759 
z
M 3341 1997 
L 3341 0 
L 2766 0 
L 2766 531 
Q 2569 213 2275 61 
Q 1981 -91 1556 -91 
Q 1019 -91 701 211 
Q 384 513 384 1019 
Q 384 1609 779 1909 
Q 1175 2209 1959 2209 
L 2766 2209 
L 2766 2266 
Q 2766 2663 2505 2880 
Q 2244 3097 1772 3097 
Q 1472 3097 1187 3025 
Q 903 2953 641 2809 
L 641 3341 
Q 956 3463 1253 3523 
Q 1550 3584 1831 3584 
Q 2591 3584 2966 3190 
Q 3341 2797 3341 1997 
z
" id="DejaVuSans-430" transform="scale(0.015625)"/>
      </defs>
      <use xlink:href="#DejaVuSans-421"/>
      <use x="69.824219" xlink:href="#DejaVuSans-435"/>
      <use x="131.347656" xlink:href="#DejaVuSans-434"/>
      <use x="200.488281" xlink:href="#DejaVuSans-43c"/>
      <use x="275.927734" xlink:href="#DejaVuSans-438"/>
      <use x="340.917969" xlink:href="#DejaVuSans-446"/>
      <use x="408.984375" xlink:href="#DejaVuSans-430"/>
     </g>
    </g>
   </g>
   <g id="matplotlib.axis_2">
    <g id="ytick_1">
     <g id="line2d_100">
      <path clip-path="url(#p604923260e)" d="M 46.11 612.2438 
L 1246.304865 612.2438 
" style="fill:none;stroke:#cccccc;stroke-linecap:round;"/>
     </g>
     <g id="line2d_101">
      <defs>
       <path d="M 0 0 
L -6 0 
" id="m97699767fa" style="stroke:#262626;stroke-width:1.25;"/>
      </defs>
      <g>
       <use style="fill:#262626;stroke:#262626;stroke-width:1.25;" x="46.11" xlink:href="#m97699767fa" y="612.2438"/>
      </g>
     </g>
     <g id="text_21">
      <!-- 0 -->
      <g style="fill:#262626;" transform="translate(29.61125 616.42294)scale(0.11 -0.11)">
       <use xlink:href="#DejaVuSans-30"/>
      </g>
     </g>
    </g>
    <g id="ytick_2">
     <g id="line2d_102">
      <path clip-path="url(#p604923260e)" d="M 46.11 491.588113 
L 1246.304865 491.588113 
" style="fill:none;stroke:#cccccc;stroke-linecap:round;"/>
     </g>
     <g id="line2d_103">
      <g>
       <use style="fill:#262626;stroke:#262626;stroke-width:1.25;" x="46.11" xlink:href="#m97699767fa" y="491.588113"/>
      </g>
     </g>
     <g id="text_22">
      <!-- 200 -->
      <g style="fill:#262626;" transform="translate(15.61375 495.767254)scale(0.11 -0.11)">
       <use xlink:href="#DejaVuSans-32"/>
       <use x="63.623047" xlink:href="#DejaVuSans-30"/>
       <use x="127.246094" xlink:href="#DejaVuSans-30"/>
      </g>
     </g>
    </g>
    <g id="ytick_3">
     <g id="line2d_104">
      <path clip-path="url(#p604923260e)" d="M 46.11 370.932427 
L 1246.304865 370.932427 
" style="fill:none;stroke:#cccccc;stroke-linecap:round;"/>
     </g>
     <g id="line2d_105">
      <g>
       <use style="fill:#262626;stroke:#262626;stroke-width:1.25;" x="46.11" xlink:href="#m97699767fa" y="370.932427"/>
      </g>
     </g>
     <g id="text_23">
      <!-- 400 -->
      <g style="fill:#262626;" transform="translate(15.61375 375.111567)scale(0.11 -0.11)">
       <use xlink:href="#DejaVuSans-34"/>
       <use x="63.623047" xlink:href="#DejaVuSans-30"/>
       <use x="127.246094" xlink:href="#DejaVuSans-30"/>
      </g>
     </g>
    </g>
    <g id="ytick_4">
     <g id="line2d_106">
      <path clip-path="url(#p604923260e)" d="M 46.11 250.27674 
L 1246.304865 250.27674 
" style="fill:none;stroke:#cccccc;stroke-linecap:round;"/>
     </g>
     <g id="line2d_107">
      <g>
       <use style="fill:#262626;stroke:#262626;stroke-width:1.25;" x="46.11" xlink:href="#m97699767fa" y="250.27674"/>
      </g>
     </g>
     <g id="text_24">
      <!-- 600 -->
      <g style="fill:#262626;" transform="translate(15.61375 254.455881)scale(0.11 -0.11)">
       <use xlink:href="#DejaVuSans-36"/>
       <use x="63.623047" xlink:href="#DejaVuSans-30"/>
       <use x="127.246094" xlink:href="#DejaVuSans-30"/>
      </g>
     </g>
    </g>
    <g id="ytick_5">
     <g id="line2d_108">
      <path clip-path="url(#p604923260e)" d="M 46.11 129.621054 
L 1246.304865 129.621054 
" style="fill:none;stroke:#cccccc;stroke-linecap:round;"/>
     </g>
     <g id="line2d_109">
      <g>
       <use style="fill:#262626;stroke:#262626;stroke-width:1.25;" x="46.11" xlink:href="#m97699767fa" y="129.621054"/>
      </g>
     </g>
     <g id="text_25">
      <!-- 800 -->
      <g style="fill:#262626;" transform="translate(15.61375 133.800194)scale(0.11 -0.11)">
       <use xlink:href="#DejaVuSans-38"/>
       <use x="63.623047" xlink:href="#DejaVuSans-30"/>
       <use x="127.246094" xlink:href="#DejaVuSans-30"/>
      </g>
     </g>
    </g>
    <g id="text_26">
     <!-- Нови случаи (средно) -->
     <g style="fill:#262626;" transform="translate(9.118125 402.983077)rotate(-90)scale(0.12 -0.12)">
      <defs>
       <path d="M 628 4666 
L 1259 4666 
L 1259 2753 
L 3553 2753 
L 3553 4666 
L 4184 4666 
L 4184 0 
L 3553 0 
L 3553 2222 
L 1259 2222 
L 1259 0 
L 628 0 
L 628 4666 
z
" id="DejaVuSans-41d" transform="scale(0.015625)"/>
       <path d="M 1959 3097 
Q 1497 3097 1228 2736 
Q 959 2375 959 1747 
Q 959 1119 1226 758 
Q 1494 397 1959 397 
Q 2419 397 2687 759 
Q 2956 1122 2956 1747 
Q 2956 2369 2687 2733 
Q 2419 3097 1959 3097 
z
M 1959 3584 
Q 2709 3584 3137 3096 
Q 3566 2609 3566 1747 
Q 3566 888 3137 398 
Q 2709 -91 1959 -91 
Q 1206 -91 779 398 
Q 353 888 353 1747 
Q 353 2609 779 3096 
Q 1206 3584 1959 3584 
z
" id="DejaVuSans-43e" transform="scale(0.015625)"/>
       <path d="M 1156 1613 
L 1156 459 
L 1975 459 
Q 2369 459 2575 607 
Q 2781 756 2781 1038 
Q 2781 1319 2575 1466 
Q 2369 1613 1975 1613 
L 1156 1613 
z
M 1156 3041 
L 1156 2072 
L 1913 2072 
Q 2238 2072 2444 2201 
Q 2650 2331 2650 2563 
Q 2650 2794 2444 2917 
Q 2238 3041 1913 3041 
L 1156 3041 
z
M 581 3500 
L 1950 3500 
Q 2566 3500 2897 3275 
Q 3228 3050 3228 2634 
Q 3228 2313 3059 2123 
Q 2891 1934 2559 1888 
Q 2956 1813 3175 1575 
Q 3394 1338 3394 981 
Q 3394 513 3033 256 
Q 2672 0 2003 0 
L 581 0 
L 581 3500 
z
" id="DejaVuSans-432" transform="scale(0.015625)"/>
       <path d="M 3122 3366 
L 3122 2828 
Q 2878 2963 2633 3030 
Q 2388 3097 2138 3097 
Q 1578 3097 1268 2742 
Q 959 2388 959 1747 
Q 959 1106 1268 751 
Q 1578 397 2138 397 
Q 2388 397 2633 464 
Q 2878 531 3122 666 
L 3122 134 
Q 2881 22 2623 -34 
Q 2366 -91 2075 -91 
Q 1284 -91 818 406 
Q 353 903 353 1747 
Q 353 2603 823 3093 
Q 1294 3584 2113 3584 
Q 2378 3584 2631 3529 
Q 2884 3475 3122 3366 
z
" id="DejaVuSans-441" transform="scale(0.015625)"/>
       <path d="M 238 0 
L 238 478 
Q 806 566 981 959 
Q 1194 1513 1194 2928 
L 1194 3500 
L 3559 3500 
L 3559 0 
L 2984 0 
L 2984 3041 
L 1769 3041 
L 1769 2694 
Q 1769 1344 1494 738 
Q 1200 91 238 0 
z
" id="DejaVuSans-43b" transform="scale(0.015625)"/>
       <path d="M 2059 -325 
Q 1816 -950 1584 -1140 
Q 1353 -1331 966 -1331 
L 506 -1331 
L 506 -850 
L 844 -850 
Q 1081 -850 1212 -737 
Q 1344 -625 1503 -206 
L 1606 56 
L 191 3500 
L 800 3500 
L 1894 763 
L 2988 3500 
L 3597 3500 
L 2059 -325 
z
" id="DejaVuSans-443" transform="scale(0.015625)"/>
       <path d="M 2625 0 
L 2625 1472 
L 1553 1472 
Q 1075 1472 756 1769 
Q 469 2038 469 2613 
L 469 3500 
L 1044 3500 
L 1044 2666 
Q 1044 2300 1206 2116 
Q 1372 1931 1697 1931 
L 2625 1931 
L 2625 3500 
L 3200 3500 
L 3200 0 
L 2625 0 
z
" id="DejaVuSans-447" transform="scale(0.015625)"/>
       <path d="M 1159 525 
L 1159 -1331 
L 581 -1331 
L 581 3500 
L 1159 3500 
L 1159 2969 
Q 1341 3281 1617 3432 
Q 1894 3584 2278 3584 
Q 2916 3584 3314 3078 
Q 3713 2572 3713 1747 
Q 3713 922 3314 415 
Q 2916 -91 2278 -91 
Q 1894 -91 1617 61 
Q 1341 213 1159 525 
z
M 3116 1747 
Q 3116 2381 2855 2742 
Q 2594 3103 2138 3103 
Q 1681 3103 1420 2742 
Q 1159 2381 1159 1747 
Q 1159 1113 1420 752 
Q 1681 391 2138 391 
Q 2594 391 2855 752 
Q 3116 1113 3116 1747 
z
" id="DejaVuSans-440" transform="scale(0.015625)"/>
       <path d="M 581 3500 
L 1159 3500 
L 1159 2072 
L 3025 2072 
L 3025 3500 
L 3603 3500 
L 3603 0 
L 3025 0 
L 3025 1613 
L 1159 1613 
L 1159 0 
L 581 0 
L 581 3500 
z
" id="DejaVuSans-43d" transform="scale(0.015625)"/>
      </defs>
      <use xlink:href="#DejaVuSans-41d"/>
      <use x="75.195312" xlink:href="#DejaVuSans-43e"/>
      <use x="136.376953" xlink:href="#DejaVuSans-432"/>
      <use x="195.3125" xlink:href="#DejaVuSans-438"/>
      <use x="260.302734" xlink:href="#DejaVuSans-20"/>
      <use x="292.089844" xlink:href="#DejaVuSans-441"/>
      <use x="347.070312" xlink:href="#DejaVuSans-43b"/>
      <use x="410.986328" xlink:href="#DejaVuSans-443"/>
      <use x="470.166016" xlink:href="#DejaVuSans-447"/>
      <use x="529.248047" xlink:href="#DejaVuSans-430"/>
      <use x="590.527344" xlink:href="#DejaVuSans-438"/>
      <use x="655.517578" xlink:href="#DejaVuSans-20"/>
      <use x="687.304688" xlink:href="#DejaVuSans-28"/>
      <use x="726.318359" xlink:href="#DejaVuSans-441"/>
      <use x="781.298828" xlink:href="#DejaVuSans-440"/>
      <use x="844.775391" xlink:href="#DejaVuSans-435"/>
      <use x="906.298828" xlink:href="#DejaVuSans-434"/>
      <use x="975.439453" xlink:href="#DejaVuSans-43d"/>
      <use x="1040.820312" xlink:href="#DejaVuSans-43e"/>
      <use x="1102.001953" xlink:href="#DejaVuSans-29"/>
     </g>
    </g>
   </g>
   <g id="line2d_110">
    <path clip-path="url(#p604923260e)" d="M 100.664312 609.227408 
L 115.610699 606.986659 
L 130.557086 606.555746 
L 145.503473 608.193216 
L 160.44986 600.522962 
L 175.396246 592.421794 
L 190.342633 598.282213 
L 205.28902 598.454578 
L 220.235407 604.832093 
L 235.181794 605.69392 
L 250.128181 605.090641 
L 265.074568 608.451764 
L 280.020954 610.003051 
L 294.967341 608.882677 
L 309.913728 608.193216 
L 324.860115 607.762303 
L 339.806502 603.539354 
L 354.752889 602.505162 
L 369.699276 595.610551 
L 384.645662 586.906106 
L 399.592049 566.567004 
L 414.538436 538.557648 
L 429.484823 537.437274 
L 444.43121 557.862558 
L 459.377597 567.515013 
L 474.323984 572.772154 
L 489.27037 581.562782 
L 504.216757 586.992288 
L 519.163144 597.592752 
L 534.109531 602.074249 
L 549.055918 602.76371 
L 564.002305 598.282213 
L 578.948692 602.677527 
L 593.895079 602.76371 
L 608.841465 597.334204 
L 623.787852 596.21383 
L 638.734239 592.249429 
L 653.680626 590.698141 
L 668.627013 576.478007 
L 683.5734 565.274265 
L 698.519787 547.348277 
L 713.466173 524.251331 
L 728.41256 547.348277 
L 743.358947 556.052723 
L 758.305334 569.152483 
L 773.251721 570.962318 
L 788.198108 574.409624 
L 803.144495 584.320627 
L 818.090881 599.747318 
L 833.037268 603.884084 
L 847.983655 603.797902 
L 862.930042 607.072842 
L 877.876429 605.780102 
L 892.822816 608.365581 
L 907.769203 608.710312 
L 922.71559 608.710312 
L 937.661976 609.141225 
L 952.608363 609.399773 
L 967.55475 608.107033 
L 982.501137 605.263006 
L 997.447524 590.698141 
L 1012.393911 575.788546 
L 1027.340298 553.208696 
L 1042.286684 543.039145 
L 1057.233071 536.3169 
L 1072.179458 551.485043 
L 1087.125845 563.722977 
L 1102.072232 555.018531 
L 1117.018619 533.645238 
L 1131.965006 482.280389 
L 1146.911392 467.543159 
L 1161.857779 441.257455 
L 1176.804166 380.067786 
L 1191.750553 391.185345 
" style="fill:none;stroke:#a6cee3;stroke-linecap:round;stroke-width:1.5;"/>
   </g>
   <g id="line2d_111">
    <path clip-path="url(#p604923260e)" d="M 100.664312 608.020851 
L 115.610699 608.537946 
L 130.557086 607.848485 
L 145.503473 602.505162 
L 160.44986 598.885492 
L 175.396246 584.579174 
L 190.342633 592.335611 
L 205.28902 588.629758 
L 220.235407 600.178231 
L 235.181794 599.661135 
L 250.128181 605.521554 
L 265.074568 604.832093 
L 280.020954 603.539354 
L 294.967341 603.022258 
L 309.913728 604.745911 
L 324.860115 604.487363 
L 339.806502 604.142632 
L 354.752889 596.903291 
L 369.699276 582.510791 
L 384.645662 562.774968 
L 399.592049 517.873816 
L 414.538436 450.134267 
L 429.484823 421.952546 
L 444.43121 432.122096 
L 459.377597 447.979701 
L 474.323984 476.333787 
L 489.27037 500.895838 
L 504.216757 513.564685 
L 519.163144 553.725792 
L 534.109531 581.045686 
L 549.055918 583.286435 
L 564.002305 573.203067 
L 578.948692 592.077064 
L 593.895079 594.490177 
L 608.841465 588.198845 
L 623.787852 581.131869 
L 638.734239 574.92672 
L 653.680626 568.290657 
L 668.627013 544.676615 
L 683.5734 529.077559 
L 698.519787 487.623712 
L 713.466173 434.621393 
L 728.41256 433.845749 
L 743.358947 443.842934 
L 758.305334 493.053218 
L 773.251721 527.698637 
L 788.198108 552.174504 
L 803.144495 567.342648 
L 818.090881 586.819923 
L 833.037268 588.198845 
L 847.983655 597.506569 
L 862.930042 603.711719 
L 877.876429 603.022258 
L 892.822816 607.159024 
L 907.769203 607.33139 
L 922.71559 608.107033 
L 937.661976 607.848485 
L 952.608363 608.279399 
L 967.55475 606.469563 
L 982.501137 603.022258 
L 997.447524 588.629758 
L 1012.393911 562.602603 
L 1027.340298 519.769834 
L 1042.286684 498.224176 
L 1057.233071 495.72488 
L 1072.179458 511.754849 
L 1087.125845 534.076151 
L 1102.072232 526.83681 
L 1117.018619 538.385283 
L 1131.965006 520.717843 
L 1146.911392 513.909415 
L 1161.857779 464.612949 
L 1176.804166 377.91322 
L 1191.750553 323.359613 
" style="fill:none;stroke:#1f78b4;stroke-linecap:round;stroke-width:1.5;"/>
   </g>
   <g id="line2d_112">
    <path clip-path="url(#p604923260e)" d="M 100.664312 607.417572 
L 115.610699 604.228815 
L 130.557086 604.40118 
L 145.503473 600.522962 
L 160.44986 596.903291 
L 175.396246 588.198845 
L 190.342633 588.457393 
L 205.28902 588.198845 
L 220.235407 592.163246 
L 235.181794 593.886899 
L 250.128181 600.609144 
L 265.074568 600.522962 
L 280.020954 599.316405 
L 294.967341 599.057857 
L 309.913728 598.454578 
L 324.860115 600.609144 
L 339.806502 597.161839 
L 354.752889 592.421794 
L 369.699276 571.565597 
L 384.645662 535.713621 
L 399.592049 473.920673 
L 414.538436 345.939463 
L 429.484823 251.483297 
L 444.43121 258.377908 
L 459.377597 285.180707 
L 474.323984 337.752113 
L 489.27037 374.98301 
L 504.216757 406.267306 
L 519.163144 487.88226 
L 534.109531 550.278486 
L 549.055918 555.62181 
L 564.002305 548.210103 
L 578.948692 572.599788 
L 593.895079 573.892528 
L 608.841465 565.532812 
L 623.787852 547.43446 
L 638.734239 531.921586 
L 653.680626 522.527679 
L 668.627013 479.177814 
L 683.5734 446.773144 
L 698.519787 381.015795 
L 713.466173 280.009749 
L 728.41256 295.177892 
L 743.358947 317.757742 
L 758.305334 399.20033 
L 773.251721 458.063069 
L 788.198108 496.155793 
L 803.144495 529.939385 
L 818.090881 560.87895 
L 833.037268 572.685971 
L 847.983655 590.181046 
L 862.930042 597.678935 
L 877.876429 599.574953 
L 892.822816 604.918276 
L 907.769203 604.487363 
L 922.71559 607.848485 
L 937.661976 606.986659 
L 952.608363 607.503755 
L 967.55475 605.435372 
L 982.501137 601.470971 
L 997.447524 592.93889 
L 1012.393911 573.116884 
L 1027.340298 541.660223 
L 1042.286684 489.692095 
L 1057.233071 467.370793 
L 1072.179458 478.315988 
L 1087.125845 493.139401 
L 1102.072232 476.075239 
L 1117.018619 490.467739 
L 1131.965006 447.979701 
L 1146.911392 415.919761 
L 1161.857779 343.957262 
L 1176.804166 216.148417 
L 1191.750553 133.154542 
" style="fill:none;stroke:#b2df8a;stroke-linecap:round;stroke-width:1.5;"/>
   </g>
   <g id="line2d_113">
    <path clip-path="url(#p604923260e)" d="M 100.664312 606.211015 
L 115.610699 603.108441 
L 130.557086 601.643336 
L 145.503473 599.919683 
L 160.44986 596.127647 
L 175.396246 591.990881 
L 190.342633 588.198845 
L 205.28902 585.527183 
L 220.235407 587.767932 
L 235.181794 588.974489 
L 250.128181 596.730926 
L 265.074568 599.919683 
L 280.020954 597.937483 
L 294.967341 600.695327 
L 309.913728 600.264414 
L 324.860115 598.368396 
L 339.806502 592.335611 
L 354.752889 587.681749 
L 369.699276 562.774968 
L 384.645662 529.077559 
L 399.592049 458.838713 
L 414.538436 315.08608 
L 429.484823 200.032265 
L 444.43121 186.846322 
L 459.377597 211.580738 
L 474.323984 263.721231 
L 489.27037 300.00412 
L 504.216757 333.787712 
L 519.163144 444.101482 
L 534.109531 530.801211 
L 549.055918 535.455073 
L 564.002305 535.799804 
L 578.948692 564.670986 
L 593.895079 566.911735 
L 608.841465 546.917364 
L 623.787852 533.903786 
L 638.734239 519.9422 
L 653.680626 501.585299 
L 668.627013 443.842934 
L 683.5734 399.372696 
L 698.519787 319.567577 
L 713.466173 209.943268 
L 728.41256 209.598537 
L 743.358947 238.038806 
L 758.305334 337.235017 
L 773.251721 418.074327 
L 788.198108 462.630748 
L 803.144495 515.288337 
L 818.090881 550.967947 
L 833.037268 559.069115 
L 847.983655 580.959504 
L 862.930042 592.249429 
L 877.876429 598.282213 
L 892.822816 602.074249 
L 907.769203 603.970267 
L 922.71559 604.745911 
L 937.661976 605.866285 
L 952.608363 606.641929 
L 967.55475 606.124833 
L 982.501137 602.332797 
L 997.447524 593.542168 
L 1012.393911 573.203067 
L 1027.340298 543.987154 
L 1042.286684 503.91223 
L 1057.233071 467.887889 
L 1072.179458 462.02747 
L 1087.125845 480.642919 
L 1102.072232 461.596557 
L 1117.018619 466.508967 
L 1131.965006 424.279477 
L 1146.911392 391.357711 
L 1161.857779 308.708565 
L 1176.804166 135.740021 
L 1191.750553 56.796729 
" style="fill:none;stroke:#33a02c;stroke-linecap:round;stroke-width:1.5;"/>
   </g>
   <g id="line2d_114">
    <path clip-path="url(#p604923260e)" d="M 100.664312 608.020851 
L 115.610699 600.436779 
L 130.557086 602.849893 
L 145.503473 599.402587 
L 160.44986 595.955282 
L 175.396246 593.628351 
L 190.342633 591.904698 
L 205.28902 587.423201 
L 220.235407 588.457393 
L 235.181794 584.579174 
L 250.128181 594.748725 
L 265.074568 597.8513 
L 280.020954 597.075656 
L 294.967341 599.402587 
L 309.913728 597.420387 
L 324.860115 595.869099 
L 339.806502 593.025072 
L 354.752889 586.992288 
L 369.699276 566.394639 
L 384.645662 529.336107 
L 399.592049 477.971257 
L 414.538436 364.210181 
L 429.484823 241.141381 
L 444.43121 194.861307 
L 459.377597 177.021502 
L 474.323984 219.595723 
L 489.27037 254.930602 
L 504.216757 275.700617 
L 519.163144 392.736633 
L 534.109531 503.308951 
L 549.055918 519.080373 
L 564.002305 525.544071 
L 578.948692 561.913142 
L 593.895079 564.670986 
L 608.841465 544.331885 
L 623.787852 525.888801 
L 638.734239 509.083188 
L 653.680626 495.72488 
L 668.627013 447.29024 
L 683.5734 391.357711 
L 698.519787 320.774134 
L 713.466173 218.130618 
L 728.41256 188.828523 
L 743.358947 201.669735 
L 758.305334 287.938551 
L 773.251721 380.498699 
L 788.198108 441.08509 
L 803.144495 490.295374 
L 818.090881 532.180133 
L 833.037268 552.6916 
L 847.983655 580.959504 
L 862.930042 589.922498 
L 877.876429 595.696734 
L 892.822816 599.747318 
L 907.769203 601.901884 
L 922.71559 604.832093 
L 937.661976 605.090641 
L 952.608363 606.124833 
L 967.55475 606.641929 
L 982.501137 605.004459 
L 997.447524 597.075656 
L 1012.393911 585.010088 
L 1027.340298 556.483636 
L 1042.286684 517.701451 
L 1057.233071 476.850883 
L 1072.179458 465.905688 
L 1087.125845 477.712709 
L 1102.072232 446.342231 
L 1117.018619 454.960494 
L 1131.965006 435.397036 
L 1146.911392 405.060749 
L 1161.857779 343.095436 
L 1176.804166 200.635543 
L 1191.750553 131.861802 
" style="fill:none;stroke:#fb9a99;stroke-linecap:round;stroke-width:1.5;"/>
   </g>
   <g id="line2d_115">
    <path clip-path="url(#p604923260e)" d="M 100.664312 609.830686 
L 115.610699 606.900476 
L 130.557086 603.453171 
L 145.503473 603.022258 
L 160.44986 601.470971 
L 175.396246 600.178231 
L 190.342633 598.971674 
L 205.28902 592.680342 
L 220.235407 591.387602 
L 235.181794 592.249429 
L 250.128181 596.817108 
L 265.074568 597.420387 
L 280.020954 597.075656 
L 294.967341 599.057857 
L 309.913728 600.350596 
L 324.860115 596.55856 
L 339.806502 595.438186 
L 354.752889 591.129055 
L 369.699276 576.391824 
L 384.645662 554.673801 
L 399.592049 515.460703 
L 414.538436 439.706168 
L 429.484823 336.717921 
L 444.43121 291.127308 
L 459.377597 255.878611 
L 474.323984 267.340902 
L 489.27037 288.455647 
L 504.216757 285.61162 
L 519.163144 385.238744 
L 534.109531 494.604505 
L 549.055918 516.150164 
L 564.002305 523.475687 
L 578.948692 558.293471 
L 593.895079 566.222274 
L 608.841465 549.41666 
L 623.787852 535.110343 
L 638.734239 514.857424 
L 653.680626 500.809655 
L 668.627013 447.548788 
L 683.5734 401.613444 
L 698.519787 326.548371 
L 713.466173 242.175573 
L 728.41256 203.47957 
L 743.358947 211.66692 
L 758.305334 274.838791 
L 773.251721 362.314163 
L 788.198108 415.575031 
L 803.144495 477.540344 
L 818.090881 520.545478 
L 833.037268 541.832588 
L 847.983655 563.895342 
L 862.930042 580.528591 
L 877.876429 593.542168 
L 892.822816 596.644743 
L 907.769203 601.384788 
L 922.71559 605.349189 
L 937.661976 605.69392 
L 952.608363 606.728111 
L 967.55475 605.952467 
L 982.501137 604.832093 
L 997.447524 599.919683 
L 1012.393911 585.613366 
L 1027.340298 563.550612 
L 1042.286684 524.165149 
L 1057.233071 481.935658 
L 1072.179458 465.560958 
L 1087.125845 474.610134 
L 1102.072232 449.875719 
L 1117.018619 457.028877 
L 1131.965006 432.122096 
L 1146.911392 419.884162 
L 1161.857779 368.519313 
L 1176.804166 256.998986 
L 1191.750553 211.580738 
" style="fill:none;stroke:#e31a1c;stroke-linecap:round;stroke-width:1.5;"/>
   </g>
   <g id="line2d_116">
    <path clip-path="url(#p604923260e)" d="M 100.664312 611.640521 
L 115.610699 608.710312 
L 130.557086 608.020851 
L 145.503473 608.193216 
L 160.44986 607.245207 
L 175.396246 606.728111 
L 190.342633 603.453171 
L 205.28902 603.194623 
L 220.235407 598.540761 
L 235.181794 598.454578 
L 250.128181 604.659728 
L 265.074568 603.194623 
L 280.020954 603.022258 
L 294.967341 603.366988 
L 309.913728 605.866285 
L 324.860115 604.573545 
L 339.806502 602.41898 
L 354.752889 600.867692 
L 369.699276 595.352004 
L 384.645662 584.75154 
L 399.592049 564.15389 
L 414.538436 538.643831 
L 429.484823 477.367979 
L 444.43121 442.894925 
L 459.377597 414.196109 
L 474.323984 406.698219 
L 489.27037 413.59283 
L 504.216757 399.717426 
L 519.163144 444.187665 
L 534.109531 518.477095 
L 549.055918 531.663038 
L 564.002305 538.730014 
L 578.948692 567.773561 
L 593.895079 574.840537 
L 608.841465 572.341241 
L 623.787852 559.672393 
L 638.734239 553.294879 
L 653.680626 533.731421 
L 668.627013 503.308951 
L 683.5734 469.180629 
L 698.519787 416.264492 
L 713.466173 351.627517 
L 728.41256 324.824718 
L 743.358947 313.534793 
L 758.305334 354.816274 
L 773.251721 403.854193 
L 788.198108 451.340823 
L 803.144495 499.430733 
L 818.090881 529.680837 
L 833.037268 544.418067 
L 847.983655 568.807753 
L 862.930042 584.75154 
L 877.876429 594.403995 
L 892.822816 599.144039 
L 907.769203 601.815701 
L 922.71559 605.521554 
L 937.661976 603.194623 
L 952.608363 607.589938 
L 967.55475 607.503755 
L 982.501137 605.69392 
L 997.447524 602.677527 
L 1012.393911 594.317812 
L 1027.340298 580.873321 
L 1042.286684 546.831181 
L 1057.233071 509.341736 
L 1072.179458 494.08741 
L 1087.125845 500.120194 
L 1102.072232 482.366571 
L 1117.018619 480.384371 
L 1131.965006 469.352994 
L 1146.911392 459.872904 
L 1161.857779 418.332875 
L 1176.804166 360.331963 
L 1191.750553 313.879523 
" style="fill:none;stroke:#fdbf6f;stroke-linecap:round;stroke-width:1.5;"/>
   </g>
   <g id="line2d_117">
    <path clip-path="url(#p604923260e)" d="M 100.664312 611.640521 
L 115.610699 611.295791 
L 130.557086 610.95106 
L 145.503473 611.295791 
L 160.44986 610.347782 
L 175.396246 611.209608 
L 190.342633 610.520147 
L 205.28902 609.744503 
L 220.235407 604.05645 
L 235.181794 605.521554 
L 250.128181 608.624129 
L 265.074568 609.227408 
L 280.020954 609.485955 
L 294.967341 608.537946 
L 309.913728 610.347782 
L 324.860115 609.916869 
L 339.806502 608.451764 
L 354.752889 608.537946 
L 369.699276 606.211015 
L 384.645662 602.849893 
L 399.592049 597.075656 
L 414.538436 590.353411 
L 429.484823 570.876136 
L 444.43121 560.189489 
L 459.377597 541.660223 
L 474.323984 545.538442 
L 489.27037 542.952963 
L 504.216757 541.746406 
L 519.163144 556.311271 
L 534.109531 573.547797 
L 549.055918 582.596974 
L 564.002305 581.562782 
L 578.948692 593.886899 
L 593.895079 600.005866 
L 608.841465 597.506569 
L 623.787852 595.265821 
L 638.734239 589.405402 
L 653.680626 589.491585 
L 668.627013 573.806345 
L 683.5734 569.0663 
L 698.519787 547.348277 
L 713.466173 525.630253 
L 728.41256 522.269131 
L 743.358947 511.496301 
L 758.305334 528.215732 
L 773.251721 538.2991 
L 788.198108 550.537034 
L 803.144495 569.583396 
L 818.090881 578.54639 
L 833.037268 585.354818 
L 847.983655 595.610551 
L 862.930042 600.436779 
L 877.876429 604.314997 
L 892.822816 606.03865 
L 907.769203 607.33139 
L 922.71559 608.96886 
L 937.661976 609.485955 
L 952.608363 610.347782 
L 967.55475 610.261599 
L 982.501137 610.347782 
L 997.447524 609.916869 
L 1012.393911 605.866285 
L 1027.340298 601.040057 
L 1042.286684 590.784324 
L 1057.233071 583.027887 
L 1072.179458 576.822737 
L 1087.125845 576.219459 
L 1102.072232 564.067708 
L 1117.018619 564.929534 
L 1131.965006 561.826959 
L 1146.911392 557.776376 
L 1161.857779 544.590433 
L 1176.804166 526.319714 
L 1191.750553 505.89443 
" style="fill:none;stroke:#ff7f00;stroke-linecap:round;stroke-width:1.5;"/>
   </g>
   <g id="line2d_118">
    <path clip-path="url(#p604923260e)" d="M 100.664312 612.2438 
L 115.610699 612.157617 
L 130.557086 612.2438 
L 145.503473 612.2438 
L 160.44986 612.071434 
L 175.396246 612.157617 
L 190.342633 611.985252 
L 205.28902 612.071434 
L 220.235407 611.468156 
L 235.181794 611.295791 
L 250.128181 612.071434 
L 265.074568 611.726704 
L 280.020954 611.985252 
L 294.967341 611.812887 
L 309.913728 612.071434 
L 324.860115 612.071434 
L 339.806502 612.157617 
L 354.752889 612.071434 
L 369.699276 611.985252 
L 384.645662 611.381973 
L 399.592049 609.744503 
L 414.538436 610.520147 
L 429.484823 608.107033 
L 444.43121 608.020851 
L 459.377597 604.40118 
L 474.323984 606.297198 
L 489.27037 606.986659 
L 504.216757 606.211015 
L 519.163144 607.589938 
L 534.109531 608.365581 
L 549.055918 609.916869 
L 564.002305 609.141225 
L 578.948692 609.31359 
L 593.895079 611.295791 
L 608.841465 610.60633 
L 623.787852 610.347782 
L 638.734239 610.520147 
L 653.680626 610.692512 
L 668.627013 609.227408 
L 683.5734 609.055042 
L 698.519787 606.641929 
L 713.466173 603.539354 
L 728.41256 605.263006 
L 743.358947 605.607737 
L 758.305334 604.832093 
L 773.251721 606.641929 
L 788.198108 606.469563 
L 803.144495 608.882677 
L 818.090881 610.003051 
L 833.037268 610.433964 
L 847.983655 610.95106 
L 862.930042 611.123425 
L 877.876429 611.726704 
L 892.822816 611.295791 
L 907.769203 611.985252 
L 922.71559 612.157617 
L 937.661976 612.157617 
L 952.608363 612.071434 
L 967.55475 611.985252 
L 982.501137 611.985252 
L 997.447524 611.985252 
L 1012.393911 611.726704 
L 1027.340298 611.037243 
L 1042.286684 610.778695 
L 1057.233071 609.485955 
L 1072.179458 608.193216 
L 1087.125845 609.31359 
L 1102.072232 609.227408 
L 1117.018619 607.159024 
L 1131.965006 605.866285 
L 1146.911392 606.814294 
L 1161.857779 607.072842 
L 1176.804166 603.797902 
L 1191.750553 601.729518 
" style="fill:none;stroke:#cab2d6;stroke-linecap:round;stroke-width:1.5;"/>
   </g>
   <g id="line2d_119"/>
   <g id="line2d_120"/>
   <g id="line2d_121"/>
   <g id="line2d_122"/>
   <g id="line2d_123"/>
   <g id="line2d_124"/>
   <g id="line2d_125"/>
   <g id="line2d_126"/>
   <g id="line2d_127"/>
   <g id="patch_3">
    <path d="M 46.11 640.016153 
L 46.11 29.024375 
" style="fill:none;stroke:#262626;stroke-linecap:square;stroke-linejoin:miter;stroke-width:1.25;"/>
   </g>
   <g id="patch_4">
    <path d="M 1246.304865 640.016153 
L 1246.304865 29.024375 
" style="fill:none;stroke:#262626;stroke-linecap:square;stroke-linejoin:miter;stroke-width:1.25;"/>
   </g>
   <g id="patch_5">
    <path d="M 46.11 640.016153 
L 1246.304865 640.016153 
" style="fill:none;stroke:#262626;stroke-linecap:square;stroke-linejoin:miter;stroke-width:1.25;"/>
   </g>
   <g id="patch_6">
    <path d="M 46.11 29.024375 
L 1246.304865 29.024375 
" style="fill:none;stroke:#262626;stroke-linecap:square;stroke-linejoin:miter;stroke-width:1.25;"/>
   </g>
   <g id="text_27">
    <!-- Последна актуализация: 31.10.2021 -->
    <g style="fill:#262626;" transform="translate(550.275508 19.859498)scale(0.09996 -0.09996)">
     <defs>
      <path d="M 4184 4666 
L 4184 0 
L 3553 0 
L 3553 4134 
L 1259 4134 
L 1259 0 
L 628 0 
L 628 4666 
L 4184 4666 
z
" id="DejaVuSans-41f" transform="scale(0.015625)"/>
      <path d="M 581 3500 
L 1153 3500 
L 1153 1856 
L 2775 3500 
L 3481 3500 
L 2144 2147 
L 3653 0 
L 3009 0 
L 1769 1766 
L 1153 1141 
L 1153 0 
L 581 0 
L 581 3500 
z
" id="DejaVuSans-43a" transform="scale(0.015625)"/>
      <path d="M 188 3500 
L 3541 3500 
L 3541 3041 
L 2147 3041 
L 2147 0 
L 1581 0 
L 1581 3041 
L 188 3041 
L 188 3500 
z
" id="DejaVuSans-442" transform="scale(0.015625)"/>
      <path d="M 2206 1888 
Q 2594 1813 2809 1584 
Q 3025 1356 3025 1019 
Q 3025 478 2622 193 
Q 2219 -91 1475 -91 
Q 1225 -91 961 -47 
Q 697 -3 416 84 
L 416 619 
Q 638 503 903 445 
Q 1169 388 1459 388 
Q 1931 388 2195 563 
Q 2459 738 2459 1019 
Q 2459 1294 2225 1461 
Q 1991 1628 1563 1628 
L 1100 1628 
L 1100 2103 
L 1584 2103 
Q 1947 2103 2158 2242 
Q 2369 2381 2369 2600 
Q 2369 2800 2151 2944 
Q 1934 3088 1563 3088 
Q 1341 3088 1089 3047 
Q 838 3006 534 2916 
L 534 3438 
Q 841 3513 1106 3550 
Q 1372 3588 1609 3588 
Q 2222 3588 2576 3342 
Q 2931 3097 2931 2656 
Q 2931 2366 2743 2164 
Q 2556 1963 2206 1888 
z
" id="DejaVuSans-437" transform="scale(0.015625)"/>
      <path d="M 1181 2491 
Q 1181 2231 1381 2084 
Q 1581 1938 1953 1938 
L 2728 1938 
L 2728 3041 
L 1953 3041 
Q 1581 3041 1381 2897 
Q 1181 2753 1181 2491 
z
M 363 0 
L 1431 1534 
Q 1069 1616 828 1830 
Q 588 2044 588 2491 
Q 588 2997 923 3248 
Q 1259 3500 1938 3500 
L 3306 3500 
L 3306 0 
L 2728 0 
L 2728 1478 
L 2013 1478 
L 981 0 
L 363 0 
z
" id="DejaVuSans-44f" transform="scale(0.015625)"/>
      <path d="M 750 794 
L 1409 794 
L 1409 0 
L 750 0 
L 750 794 
z
M 750 3309 
L 1409 3309 
L 1409 2516 
L 750 2516 
L 750 3309 
z
" id="DejaVuSans-3a" transform="scale(0.015625)"/>
     </defs>
     <use xlink:href="#DejaVuSans-41f"/>
     <use x="75.195312" xlink:href="#DejaVuSans-43e"/>
     <use x="136.376953" xlink:href="#DejaVuSans-441"/>
     <use x="191.357422" xlink:href="#DejaVuSans-43b"/>
     <use x="255.273438" xlink:href="#DejaVuSans-435"/>
     <use x="316.796875" xlink:href="#DejaVuSans-434"/>
     <use x="385.9375" xlink:href="#DejaVuSans-43d"/>
     <use x="451.318359" xlink:href="#DejaVuSans-430"/>
     <use x="512.597656" xlink:href="#DejaVuSans-20"/>
     <use x="544.384766" xlink:href="#DejaVuSans-430"/>
     <use x="605.664062" xlink:href="#DejaVuSans-43a"/>
     <use x="666.064453" xlink:href="#DejaVuSans-442"/>
     <use x="724.316406" xlink:href="#DejaVuSans-443"/>
     <use x="783.496094" xlink:href="#DejaVuSans-430"/>
     <use x="844.775391" xlink:href="#DejaVuSans-43b"/>
     <use x="908.691406" xlink:href="#DejaVuSans-438"/>
     <use x="973.681641" xlink:href="#DejaVuSans-437"/>
     <use x="1026.855469" xlink:href="#DejaVuSans-430"/>
     <use x="1088.134766" xlink:href="#DejaVuSans-446"/>
     <use x="1156.201172" xlink:href="#DejaVuSans-438"/>
     <use x="1221.191406" xlink:href="#DejaVuSans-44f"/>
     <use x="1281.347656" xlink:href="#DejaVuSans-3a"/>
     <use x="1315.039062" xlink:href="#DejaVuSans-20"/>
     <use x="1346.826172" xlink:href="#DejaVuSans-33"/>
     <use x="1410.449219" xlink:href="#DejaVuSans-31"/>
     <use x="1474.072266" xlink:href="#DejaVuSans-2e"/>
     <use x="1505.859375" xlink:href="#DejaVuSans-31"/>
     <use x="1569.482422" xlink:href="#DejaVuSans-30"/>
     <use x="1633.105469" xlink:href="#DejaVuSans-2e"/>
     <use x="1664.892578" xlink:href="#DejaVuSans-32"/>
     <use x="1728.515625" xlink:href="#DejaVuSans-30"/>
     <use x="1792.138672" xlink:href="#DejaVuSans-32"/>
     <use x="1855.761719" xlink:href="#DejaVuSans-31"/>
    </g>
   </g>
   <g id="patch_7">
    <path d="M 1222.250182 391.185345 
Q 1208.000019 391.185345 1194.867891 391.185345 
" style="fill:none;stroke:#a6cee3;stroke-linecap:round;"/>
    <path d="M 1199.667891 393.585345 
L 1194.867891 391.185345 
L 1199.667891 388.785345 
" style="fill:none;stroke:#a6cee3;stroke-linecap:round;"/>
   </g>
   <g id="text_28">
    <!-- 0-19 (366) -->
    <g style="fill:#a6cee3;" transform="translate(1226.750553 394.496595)scale(0.12 -0.12)">
     <defs>
      <path d="M 313 2009 
L 1997 2009 
L 1997 1497 
L 313 1497 
L 313 2009 
z
" id="DejaVuSans-2d" transform="scale(0.015625)"/>
     </defs>
     <use xlink:href="#DejaVuSans-30"/>
     <use x="63.623047" xlink:href="#DejaVuSans-2d"/>
     <use x="99.707031" xlink:href="#DejaVuSans-31"/>
     <use x="163.330078" xlink:href="#DejaVuSans-39"/>
     <use x="226.953125" xlink:href="#DejaVuSans-20"/>
     <use x="258.740234" xlink:href="#DejaVuSans-28"/>
     <use x="297.753906" xlink:href="#DejaVuSans-33"/>
     <use x="361.376953" xlink:href="#DejaVuSans-36"/>
     <use x="425" xlink:href="#DejaVuSans-36"/>
     <use x="488.623047" xlink:href="#DejaVuSans-29"/>
    </g>
   </g>
   <g id="patch_8">
    <path d="M 1222.24511 323.359613 
Q 1207.997317 323.359613 1194.867559 323.359613 
" style="fill:none;stroke:#1f78b4;stroke-linecap:round;"/>
    <path d="M 1199.667559 325.759613 
L 1194.867559 323.359613 
L 1199.667559 320.959613 
" style="fill:none;stroke:#1f78b4;stroke-linecap:round;"/>
   </g>
   <g id="text_29">
    <!-- 20-29 (479) -->
    <g style="fill:#1f78b4;" transform="translate(1226.750553 326.670863)scale(0.12 -0.12)">
     <use xlink:href="#DejaVuSans-32"/>
     <use x="63.623047" xlink:href="#DejaVuSans-30"/>
     <use x="127.246094" xlink:href="#DejaVuSans-2d"/>
     <use x="163.330078" xlink:href="#DejaVuSans-32"/>
     <use x="226.953125" xlink:href="#DejaVuSans-39"/>
     <use x="290.576172" xlink:href="#DejaVuSans-20"/>
     <use x="322.363281" xlink:href="#DejaVuSans-28"/>
     <use x="361.376953" xlink:href="#DejaVuSans-34"/>
     <use x="425" xlink:href="#DejaVuSans-37"/>
     <use x="488.623047" xlink:href="#DejaVuSans-39"/>
     <use x="552.246094" xlink:href="#DejaVuSans-29"/>
    </g>
   </g>
   <g id="patch_9">
    <path d="M 1222.24511 133.154542 
Q 1207.997317 133.154542 1194.867559 133.154542 
" style="fill:none;stroke:#b2df8a;stroke-linecap:round;"/>
    <path d="M 1199.667559 135.554542 
L 1194.867559 133.154542 
L 1199.667559 130.754542 
" style="fill:none;stroke:#b2df8a;stroke-linecap:round;"/>
   </g>
   <g id="text_30">
    <!-- 30-39 (794) -->
    <g style="fill:#b2df8a;" transform="translate(1226.750553 136.465792)scale(0.12 -0.12)">
     <use xlink:href="#DejaVuSans-33"/>
     <use x="63.623047" xlink:href="#DejaVuSans-30"/>
     <use x="127.246094" xlink:href="#DejaVuSans-2d"/>
     <use x="163.330078" xlink:href="#DejaVuSans-33"/>
     <use x="226.953125" xlink:href="#DejaVuSans-39"/>
     <use x="290.576172" xlink:href="#DejaVuSans-20"/>
     <use x="322.363281" xlink:href="#DejaVuSans-28"/>
     <use x="361.376953" xlink:href="#DejaVuSans-37"/>
     <use x="425" xlink:href="#DejaVuSans-39"/>
     <use x="488.623047" xlink:href="#DejaVuSans-34"/>
     <use x="552.246094" xlink:href="#DejaVuSans-29"/>
    </g>
   </g>
   <g id="patch_10">
    <path d="M 1222.24511 56.796729 
Q 1207.997317 56.796729 1194.867559 56.796729 
" style="fill:none;stroke:#33a02c;stroke-linecap:round;"/>
    <path d="M 1199.667559 59.196729 
L 1194.867559 56.796729 
L 1199.667559 54.396729 
" style="fill:none;stroke:#33a02c;stroke-linecap:round;"/>
   </g>
   <g id="text_31">
    <!-- 40-49 (921) -->
    <g style="fill:#33a02c;" transform="translate(1226.750553 60.107979)scale(0.12 -0.12)">
     <use xlink:href="#DejaVuSans-34"/>
     <use x="63.623047" xlink:href="#DejaVuSans-30"/>
     <use x="127.246094" xlink:href="#DejaVuSans-2d"/>
     <use x="163.330078" xlink:href="#DejaVuSans-34"/>
     <use x="226.953125" xlink:href="#DejaVuSans-39"/>
     <use x="290.576172" xlink:href="#DejaVuSans-20"/>
     <use x="322.363281" xlink:href="#DejaVuSans-28"/>
     <use x="361.376953" xlink:href="#DejaVuSans-39"/>
     <use x="425" xlink:href="#DejaVuSans-32"/>
     <use x="488.623047" xlink:href="#DejaVuSans-31"/>
     <use x="552.246094" xlink:href="#DejaVuSans-29"/>
    </g>
   </g>
   <g id="patch_11">
    <path d="M 1222.24511 131.861802 
Q 1207.997317 131.861802 1194.867559 131.861802 
" style="fill:none;stroke:#fb9a99;stroke-linecap:round;"/>
    <path d="M 1199.667559 134.261802 
L 1194.867559 131.861802 
L 1199.667559 129.461802 
" style="fill:none;stroke:#fb9a99;stroke-linecap:round;"/>
   </g>
   <g id="text_32">
    <!-- 50-59 (796) -->
    <g style="fill:#fb9a99;" transform="translate(1226.750553 135.173052)scale(0.12 -0.12)">
     <use xlink:href="#DejaVuSans-35"/>
     <use x="63.623047" xlink:href="#DejaVuSans-30"/>
     <use x="127.246094" xlink:href="#DejaVuSans-2d"/>
     <use x="163.330078" xlink:href="#DejaVuSans-35"/>
     <use x="226.953125" xlink:href="#DejaVuSans-39"/>
     <use x="290.576172" xlink:href="#DejaVuSans-20"/>
     <use x="322.363281" xlink:href="#DejaVuSans-28"/>
     <use x="361.376953" xlink:href="#DejaVuSans-37"/>
     <use x="425" xlink:href="#DejaVuSans-39"/>
     <use x="488.623047" xlink:href="#DejaVuSans-36"/>
     <use x="552.246094" xlink:href="#DejaVuSans-29"/>
    </g>
   </g>
   <g id="patch_12">
    <path d="M 1222.24511 211.580738 
Q 1207.997317 211.580738 1194.867559 211.580738 
" style="fill:none;stroke:#e31a1c;stroke-linecap:round;"/>
    <path d="M 1199.667559 213.980738 
L 1194.867559 211.580738 
L 1199.667559 209.180738 
" style="fill:none;stroke:#e31a1c;stroke-linecap:round;"/>
   </g>
   <g id="text_33">
    <!-- 60-69 (664) -->
    <g style="fill:#e31a1c;" transform="translate(1226.750553 214.891988)scale(0.12 -0.12)">
     <use xlink:href="#DejaVuSans-36"/>
     <use x="63.623047" xlink:href="#DejaVuSans-30"/>
     <use x="127.246094" xlink:href="#DejaVuSans-2d"/>
     <use x="163.330078" xlink:href="#DejaVuSans-36"/>
     <use x="226.953125" xlink:href="#DejaVuSans-39"/>
     <use x="290.576172" xlink:href="#DejaVuSans-20"/>
     <use x="322.363281" xlink:href="#DejaVuSans-28"/>
     <use x="361.376953" xlink:href="#DejaVuSans-36"/>
     <use x="425" xlink:href="#DejaVuSans-36"/>
     <use x="488.623047" xlink:href="#DejaVuSans-34"/>
     <use x="552.246094" xlink:href="#DejaVuSans-29"/>
    </g>
   </g>
   <g id="patch_13">
    <path d="M 1222.24511 313.879523 
Q 1207.997317 313.879523 1194.867559 313.879523 
" style="fill:none;stroke:#fdbf6f;stroke-linecap:round;"/>
    <path d="M 1199.667559 316.279523 
L 1194.867559 313.879523 
L 1199.667559 311.479523 
" style="fill:none;stroke:#fdbf6f;stroke-linecap:round;"/>
   </g>
   <g id="text_34">
    <!-- 70-79 (495) -->
    <g style="fill:#fdbf6f;" transform="translate(1226.750553 317.190773)scale(0.12 -0.12)">
     <use xlink:href="#DejaVuSans-37"/>
     <use x="63.623047" xlink:href="#DejaVuSans-30"/>
     <use x="127.246094" xlink:href="#DejaVuSans-2d"/>
     <use x="163.330078" xlink:href="#DejaVuSans-37"/>
     <use x="226.953125" xlink:href="#DejaVuSans-39"/>
     <use x="290.576172" xlink:href="#DejaVuSans-20"/>
     <use x="322.363281" xlink:href="#DejaVuSans-28"/>
     <use x="361.376953" xlink:href="#DejaVuSans-34"/>
     <use x="425" xlink:href="#DejaVuSans-39"/>
     <use x="488.623047" xlink:href="#DejaVuSans-35"/>
     <use x="552.246094" xlink:href="#DejaVuSans-29"/>
    </g>
   </g>
   <g id="patch_14">
    <path d="M 1222.24511 505.89443 
Q 1207.997317 505.89443 1194.867559 505.89443 
" style="fill:none;stroke:#ff7f00;stroke-linecap:round;"/>
    <path d="M 1199.667559 508.29443 
L 1194.867559 505.89443 
L 1199.667559 503.49443 
" style="fill:none;stroke:#ff7f00;stroke-linecap:round;"/>
   </g>
   <g id="text_35">
    <!-- 80-89 (176) -->
    <g style="fill:#ff7f00;" transform="translate(1226.750553 509.20568)scale(0.12 -0.12)">
     <use xlink:href="#DejaVuSans-38"/>
     <use x="63.623047" xlink:href="#DejaVuSans-30"/>
     <use x="127.246094" xlink:href="#DejaVuSans-2d"/>
     <use x="163.330078" xlink:href="#DejaVuSans-38"/>
     <use x="226.953125" xlink:href="#DejaVuSans-39"/>
     <use x="290.576172" xlink:href="#DejaVuSans-20"/>
     <use x="322.363281" xlink:href="#DejaVuSans-28"/>
     <use x="361.376953" xlink:href="#DejaVuSans-31"/>
     <use x="425" xlink:href="#DejaVuSans-37"/>
     <use x="488.623047" xlink:href="#DejaVuSans-36"/>
     <use x="552.246094" xlink:href="#DejaVuSans-29"/>
    </g>
   </g>
   <g id="patch_15">
    <path d="M 1222.250159 601.729518 
Q 1208.000008 601.729518 1194.86789 601.729518 
" style="fill:none;stroke:#cab2d6;stroke-linecap:round;"/>
    <path d="M 1199.66789 604.129518 
L 1194.86789 601.729518 
L 1199.66789 599.329518 
" style="fill:none;stroke:#cab2d6;stroke-linecap:round;"/>
   </g>
   <g id="text_36">
    <!-- 90+ (17) -->
    <g style="fill:#cab2d6;" transform="translate(1226.750553 605.040768)scale(0.12 -0.12)">
     <defs>
      <path d="M 2944 4013 
L 2944 2272 
L 4684 2272 
L 4684 1741 
L 2944 1741 
L 2944 0 
L 2419 0 
L 2419 1741 
L 678 1741 
L 678 2272 
L 2419 2272 
L 2419 4013 
L 2944 4013 
z
" id="DejaVuSans-2b" transform="scale(0.015625)"/>
     </defs>
     <use xlink:href="#DejaVuSans-39"/>
     <use x="63.623047" xlink:href="#DejaVuSans-30"/>
     <use x="127.246094" xlink:href="#DejaVuSans-2b"/>
     <use x="211.035156" xlink:href="#DejaVuSans-20"/>
     <use x="242.822266" xlink:href="#DejaVuSans-28"/>
     <use x="281.835938" xlink:href="#DejaVuSans-31"/>
     <use x="345.458984" xlink:href="#DejaVuSans-37"/>
     <use x="409.082031" xlink:href="#DejaVuSans-29"/>
    </g>
   </g>
   <g id="text_37">
    <!-- Нови случаи по възрастова група -->
    <g style="fill:#262626;" transform="translate(529.531808 9.024375)scale(0.12 -0.12)">
     <defs>
      <path d="M 588 4666 
L 1791 4666 
L 1791 2888 
L 3566 2888 
L 3566 4666 
L 4769 4666 
L 4769 0 
L 3566 0 
L 3566 1978 
L 1791 1978 
L 1791 0 
L 588 0 
L 588 4666 
z
" id="DejaVuSans-Bold-41d" transform="scale(0.015625)"/>
      <path d="M 2203 2784 
Q 1831 2784 1636 2517 
Q 1441 2250 1441 1747 
Q 1441 1244 1636 976 
Q 1831 709 2203 709 
Q 2569 709 2762 976 
Q 2956 1244 2956 1747 
Q 2956 2250 2762 2517 
Q 2569 2784 2203 2784 
z
M 2203 3584 
Q 3106 3584 3614 3096 
Q 4122 2609 4122 1747 
Q 4122 884 3614 396 
Q 3106 -91 2203 -91 
Q 1297 -91 786 396 
Q 275 884 275 1747 
Q 275 2609 786 3096 
Q 1297 3584 2203 3584 
z
" id="DejaVuSans-Bold-43e" transform="scale(0.015625)"/>
      <path d="M 2184 2181 
Q 2378 2181 2478 2261 
Q 2578 2341 2578 2497 
Q 2578 2653 2478 2731 
Q 2378 2809 2184 2809 
L 1656 2809 
L 1656 2181 
L 2184 2181 
z
M 2222 700 
Q 2469 700 2594 798 
Q 2719 897 2719 1094 
Q 2719 1288 2594 1384 
Q 2469 1481 2222 1481 
L 1656 1481 
L 1656 700 
L 2222 700 
z
M 538 3500 
L 2141 3500 
Q 2919 3500 3267 3279 
Q 3616 3059 3616 2575 
Q 3616 2319 3487 2139 
Q 3359 1959 3119 1872 
Q 3428 1788 3598 1561 
Q 3769 1334 3769 1003 
Q 3769 497 3403 248 
Q 3038 0 2294 0 
L 538 0 
L 538 3500 
z
" id="DejaVuSans-Bold-432" transform="scale(0.015625)"/>
      <path d="M 3947 3500 
L 3947 0 
L 2828 0 
L 2828 1863 
L 1700 0 
L 538 0 
L 538 3500 
L 1656 3500 
L 1656 1638 
L 2784 3500 
L 3947 3500 
z
" id="DejaVuSans-Bold-438" transform="scale(0.015625)"/>
      <path id="DejaVuSans-Bold-20" transform="scale(0.015625)"/>
      <path d="M 3366 3391 
L 3366 2478 
Q 3138 2634 2908 2709 
Q 2678 2784 2431 2784 
Q 1963 2784 1702 2511 
Q 1441 2238 1441 1747 
Q 1441 1256 1702 982 
Q 1963 709 2431 709 
Q 2694 709 2930 787 
Q 3166 866 3366 1019 
L 3366 103 
Q 3103 6 2833 -42 
Q 2563 -91 2291 -91 
Q 1344 -91 809 395 
Q 275 881 275 1747 
Q 275 2613 809 3098 
Q 1344 3584 2291 3584 
Q 2566 3584 2833 3536 
Q 3100 3488 3366 3391 
z
" id="DejaVuSans-Bold-441" transform="scale(0.015625)"/>
      <path d="M 353 0 
L 353 800 
Q 906 913 1031 1278 
Q 1125 1556 1125 2928 
L 1125 3500 
L 4150 3500 
L 4150 0 
L 3031 0 
L 3031 2700 
L 2244 2700 
L 2244 2584 
Q 2244 1213 2028 813 
Q 1591 0 353 0 
z
" id="DejaVuSans-Bold-43b" transform="scale(0.015625)"/>
      <path d="M 78 3500 
L 1197 3500 
L 2138 1125 
L 2938 3500 
L 4056 3500 
L 2584 -331 
Q 2363 -916 2067 -1148 
Q 1772 -1381 1288 -1381 
L 641 -1381 
L 641 -647 
L 991 -647 
Q 1275 -647 1404 -556 
Q 1534 -466 1606 -231 
L 1638 -134 
L 78 3500 
z
" id="DejaVuSans-Bold-443" transform="scale(0.015625)"/>
      <path d="M 2550 0 
L 2550 1353 
L 1400 1353 
Q 931 1353 672 1629 
Q 413 1906 413 2450 
L 413 3500 
L 1531 3500 
L 1531 2878 
Q 1531 2322 1622 2183 
Q 1713 2044 1950 2044 
L 2550 2044 
L 2550 3500 
L 3669 3500 
L 3669 0 
L 2550 0 
z
" id="DejaVuSans-Bold-447" transform="scale(0.015625)"/>
      <path d="M 2106 1575 
Q 1756 1575 1579 1456 
Q 1403 1338 1403 1106 
Q 1403 894 1545 773 
Q 1688 653 1941 653 
Q 2256 653 2472 879 
Q 2688 1106 2688 1447 
L 2688 1575 
L 2106 1575 
z
M 3816 1997 
L 3816 0 
L 2688 0 
L 2688 519 
Q 2463 200 2181 54 
Q 1900 -91 1497 -91 
Q 953 -91 614 226 
Q 275 544 275 1050 
Q 275 1666 698 1953 
Q 1122 2241 2028 2241 
L 2688 2241 
L 2688 2328 
Q 2688 2594 2478 2717 
Q 2269 2841 1825 2841 
Q 1466 2841 1156 2769 
Q 847 2697 581 2553 
L 581 3406 
Q 941 3494 1303 3539 
Q 1666 3584 2028 3584 
Q 2975 3584 3395 3211 
Q 3816 2838 3816 1997 
z
" id="DejaVuSans-Bold-430" transform="scale(0.015625)"/>
      <path d="M 3884 3500 
L 3884 0 
L 2766 0 
L 2766 2700 
L 1656 2700 
L 1656 0 
L 538 0 
L 538 3500 
L 3884 3500 
z
" id="DejaVuSans-Bold-43f" transform="scale(0.015625)"/>
      <path d="M 3009 700 
Q 3256 700 3381 798 
Q 3506 897 3506 1094 
Q 3506 1288 3382 1384 
Q 3259 1481 3009 1481 
L 2444 1481 
L 2444 700 
L 3009 700 
z
M 1325 0 
L 1325 2809 
L 125 2809 
L 125 3500 
L 2444 3500 
L 2444 2172 
L 3078 2172 
Q 3788 2172 4170 1911 
Q 4553 1650 4553 1081 
Q 4553 513 4167 256 
Q 3781 0 3078 0 
L 1325 0 
z
" id="DejaVuSans-Bold-44a" transform="scale(0.015625)"/>
      <path d="M 900 2181 
L 1413 2181 
Q 1872 2181 2039 2281 
Q 2206 2381 2206 2519 
Q 2206 2841 1469 2841 
Q 853 2841 472 2625 
L 472 3434 
Q 1041 3584 1713 3584 
Q 2500 3584 2862 3361 
Q 3225 3138 3225 2666 
Q 3225 2047 2541 1888 
Q 3313 1697 3313 994 
Q 3313 453 2888 181 
Q 2463 -91 1553 -91 
Q 875 -91 313 84 
L 313 947 
Q 1013 653 1428 653 
Q 1884 653 2089 776 
Q 2294 900 2294 1056 
Q 2294 1491 1394 1491 
L 900 1491 
L 900 2181 
z
" id="DejaVuSans-Bold-437" transform="scale(0.015625)"/>
      <path d="M 1656 506 
L 1656 -1331 
L 538 -1331 
L 538 3500 
L 1656 3500 
L 1656 2988 
Q 1888 3294 2169 3439 
Q 2450 3584 2816 3584 
Q 3463 3584 3878 3070 
Q 4294 2556 4294 1747 
Q 4294 938 3878 423 
Q 3463 -91 2816 -91 
Q 2450 -91 2169 54 
Q 1888 200 1656 506 
z
M 2400 2772 
Q 2041 2772 1848 2508 
Q 1656 2244 1656 1747 
Q 1656 1250 1848 986 
Q 2041 722 2400 722 
Q 2759 722 2948 984 
Q 3138 1247 3138 1747 
Q 3138 2247 2948 2509 
Q 2759 2772 2400 2772 
z
" id="DejaVuSans-Bold-440" transform="scale(0.015625)"/>
      <path d="M 25 3500 
L 3681 3500 
L 3681 2809 
L 2413 2809 
L 2413 0 
L 1297 0 
L 1297 2809 
L 25 2809 
L 25 3500 
z
" id="DejaVuSans-Bold-442" transform="scale(0.015625)"/>
      <path d="M 538 0 
L 538 3500 
L 3191 3500 
L 3191 2809 
L 1656 2809 
L 1656 0 
L 538 0 
z
" id="DejaVuSans-Bold-433" transform="scale(0.015625)"/>
     </defs>
     <use xlink:href="#DejaVuSans-Bold-41d"/>
     <use x="83.691406" xlink:href="#DejaVuSans-Bold-43e"/>
     <use x="152.392578" xlink:href="#DejaVuSans-Bold-432"/>
     <use x="215.673828" xlink:href="#DejaVuSans-Bold-438"/>
     <use x="285.742188" xlink:href="#DejaVuSans-Bold-20"/>
     <use x="320.556641" xlink:href="#DejaVuSans-Bold-441"/>
     <use x="379.833984" xlink:href="#DejaVuSans-Bold-43b"/>
     <use x="453.076172" xlink:href="#DejaVuSans-Bold-443"/>
     <use x="518.261719" xlink:href="#DejaVuSans-Bold-447"/>
     <use x="586.914062" xlink:href="#DejaVuSans-Bold-430"/>
     <use x="654.394531" xlink:href="#DejaVuSans-Bold-438"/>
     <use x="724.462891" xlink:href="#DejaVuSans-Bold-20"/>
     <use x="759.277344" xlink:href="#DejaVuSans-Bold-43f"/>
     <use x="828.369141" xlink:href="#DejaVuSans-Bold-43e"/>
     <use x="897.070312" xlink:href="#DejaVuSans-Bold-20"/>
     <use x="931.884766" xlink:href="#DejaVuSans-Bold-432"/>
     <use x="995.166016" xlink:href="#DejaVuSans-Bold-44a"/>
     <use x="1070.3125" xlink:href="#DejaVuSans-Bold-437"/>
     <use x="1128.417969" xlink:href="#DejaVuSans-Bold-440"/>
     <use x="1200" xlink:href="#DejaVuSans-Bold-430"/>
     <use x="1267.480469" xlink:href="#DejaVuSans-Bold-441"/>
     <use x="1326.757812" xlink:href="#DejaVuSans-Bold-442"/>
     <use x="1384.716797" xlink:href="#DejaVuSans-Bold-43e"/>
     <use x="1453.417969" xlink:href="#DejaVuSans-Bold-432"/>
     <use x="1516.699219" xlink:href="#DejaVuSans-Bold-430"/>
     <use x="1584.179688" xlink:href="#DejaVuSans-Bold-20"/>
     <use x="1618.994141" xlink:href="#DejaVuSans-Bold-433"/>
     <use x="1671.240234" xlink:href="#DejaVuSans-Bold-440"/>
     <use x="1742.822266" xlink:href="#DejaVuSans-Bold-443"/>
     <use x="1808.007812" xlink:href="#DejaVuSans-Bold-43f"/>
     <use x="1877.099609" xlink:href="#DejaVuSans-Bold-430"/>
    </g>
   </g>
   <g id="legend_1">
    <g id="patch_16">
     <path d="M 53.81 183.137812 
L 120.973594 183.137812 
Q 123.173594 183.137812 123.173594 180.937812 
L 123.173594 36.724375 
Q 123.173594 34.524375 120.973594 34.524375 
L 53.81 34.524375 
Q 51.61 34.524375 51.61 36.724375 
L 51.61 180.937812 
Q 51.61 183.137812 53.81 183.137812 
z
" style="fill:#ffffff;opacity:0.8;stroke:#cccccc;stroke-linejoin:miter;"/>
    </g>
    <g id="line2d_128">
     <path d="M 56.01 43.432656 
L 78.01 43.432656 
" style="fill:none;stroke:#a6cee3;stroke-linecap:round;stroke-width:1.5;"/>
    </g>
    <g id="line2d_129"/>
    <g id="text_38">
     <!-- 0-19 -->
     <g style="fill:#262626;" transform="translate(86.81 47.282656)scale(0.11 -0.11)">
      <use xlink:href="#DejaVuSans-30"/>
      <use x="63.623047" xlink:href="#DejaVuSans-2d"/>
      <use x="99.707031" xlink:href="#DejaVuSans-31"/>
      <use x="163.330078" xlink:href="#DejaVuSans-39"/>
     </g>
    </g>
    <g id="line2d_130">
     <path d="M 56.01 59.578594 
L 78.01 59.578594 
" style="fill:none;stroke:#1f78b4;stroke-linecap:round;stroke-width:1.5;"/>
    </g>
    <g id="line2d_131"/>
    <g id="text_39">
     <!-- 20-29 -->
     <g style="fill:#262626;" transform="translate(86.81 63.428594)scale(0.11 -0.11)">
      <use xlink:href="#DejaVuSans-32"/>
      <use x="63.623047" xlink:href="#DejaVuSans-30"/>
      <use x="127.246094" xlink:href="#DejaVuSans-2d"/>
      <use x="163.330078" xlink:href="#DejaVuSans-32"/>
      <use x="226.953125" xlink:href="#DejaVuSans-39"/>
     </g>
    </g>
    <g id="line2d_132">
     <path d="M 56.01 75.724531 
L 78.01 75.724531 
" style="fill:none;stroke:#b2df8a;stroke-linecap:round;stroke-width:1.5;"/>
    </g>
    <g id="line2d_133"/>
    <g id="text_40">
     <!-- 30-39 -->
     <g style="fill:#262626;" transform="translate(86.81 79.574531)scale(0.11 -0.11)">
      <use xlink:href="#DejaVuSans-33"/>
      <use x="63.623047" xlink:href="#DejaVuSans-30"/>
      <use x="127.246094" xlink:href="#DejaVuSans-2d"/>
      <use x="163.330078" xlink:href="#DejaVuSans-33"/>
      <use x="226.953125" xlink:href="#DejaVuSans-39"/>
     </g>
    </g>
    <g id="line2d_134">
     <path d="M 56.01 91.870469 
L 78.01 91.870469 
" style="fill:none;stroke:#33a02c;stroke-linecap:round;stroke-width:1.5;"/>
    </g>
    <g id="line2d_135"/>
    <g id="text_41">
     <!-- 40-49 -->
     <g style="fill:#262626;" transform="translate(86.81 95.720469)scale(0.11 -0.11)">
      <use xlink:href="#DejaVuSans-34"/>
      <use x="63.623047" xlink:href="#DejaVuSans-30"/>
      <use x="127.246094" xlink:href="#DejaVuSans-2d"/>
      <use x="163.330078" xlink:href="#DejaVuSans-34"/>
      <use x="226.953125" xlink:href="#DejaVuSans-39"/>
     </g>
    </g>
    <g id="line2d_136">
     <path d="M 56.01 108.016406 
L 78.01 108.016406 
" style="fill:none;stroke:#fb9a99;stroke-linecap:round;stroke-width:1.5;"/>
    </g>
    <g id="line2d_137"/>
    <g id="text_42">
     <!-- 50-59 -->
     <g style="fill:#262626;" transform="translate(86.81 111.866406)scale(0.11 -0.11)">
      <use xlink:href="#DejaVuSans-35"/>
      <use x="63.623047" xlink:href="#DejaVuSans-30"/>
      <use x="127.246094" xlink:href="#DejaVuSans-2d"/>
      <use x="163.330078" xlink:href="#DejaVuSans-35"/>
      <use x="226.953125" xlink:href="#DejaVuSans-39"/>
     </g>
    </g>
    <g id="line2d_138">
     <path d="M 56.01 124.162344 
L 78.01 124.162344 
" style="fill:none;stroke:#e31a1c;stroke-linecap:round;stroke-width:1.5;"/>
    </g>
    <g id="line2d_139"/>
    <g id="text_43">
     <!-- 60-69 -->
     <g style="fill:#262626;" transform="translate(86.81 128.012344)scale(0.11 -0.11)">
      <use xlink:href="#DejaVuSans-36"/>
      <use x="63.623047" xlink:href="#DejaVuSans-30"/>
      <use x="127.246094" xlink:href="#DejaVuSans-2d"/>
      <use x="163.330078" xlink:href="#DejaVuSans-36"/>
      <use x="226.953125" xlink:href="#DejaVuSans-39"/>
     </g>
    </g>
    <g id="line2d_140">
     <path d="M 56.01 140.308281 
L 78.01 140.308281 
" style="fill:none;stroke:#fdbf6f;stroke-linecap:round;stroke-width:1.5;"/>
    </g>
    <g id="line2d_141"/>
    <g id="text_44">
     <!-- 70-79 -->
     <g style="fill:#262626;" transform="translate(86.81 144.158281)scale(0.11 -0.11)">
      <use xlink:href="#DejaVuSans-37"/>
      <use x="63.623047" xlink:href="#DejaVuSans-30"/>
      <use x="127.246094" xlink:href="#DejaVuSans-2d"/>
      <use x="163.330078" xlink:href="#DejaVuSans-37"/>
      <use x="226.953125" xlink:href="#DejaVuSans-39"/>
     </g>
    </g>
    <g id="line2d_142">
     <path d="M 56.01 156.454219 
L 78.01 156.454219 
" style="fill:none;stroke:#ff7f00;stroke-linecap:round;stroke-width:1.5;"/>
    </g>
    <g id="line2d_143"/>
    <g id="text_45">
     <!-- 80-89 -->
     <g style="fill:#262626;" transform="translate(86.81 160.304219)scale(0.11 -0.11)">
      <use xlink:href="#DejaVuSans-38"/>
      <use x="63.623047" xlink:href="#DejaVuSans-30"/>
      <use x="127.246094" xlink:href="#DejaVuSans-2d"/>
      <use x="163.330078" xlink:href="#DejaVuSans-38"/>
      <use x="226.953125" xlink:href="#DejaVuSans-39"/>
     </g>
    </g>
    <g id="line2d_144">
     <path d="M 56.01 172.600156 
L 78.01 172.600156 
" style="fill:none;stroke:#cab2d6;stroke-linecap:round;stroke-width:1.5;"/>
    </g>
    <g id="line2d_145"/>
    <g id="text_46">
     <!-- 90+ -->
     <g style="fill:#262626;" transform="translate(86.81 176.450156)scale(0.11 -0.11)">
      <use xlink:href="#DejaVuSans-39"/>
      <use x="63.623047" xlink:href="#DejaVuSans-30"/>
      <use x="127.246094" xlink:href="#DejaVuSans-2b"/>
     </g>
    </g>
   </g>
  </g>
 </g>
 <defs>
  <clipPath id="p604923260e">
   <rect height="610.991778" width="1200.194865" x="46.11" y="29.024375"/>
  </clipPath>
 </defs>
</svg>
